<?xml version="1.0" encoding="UTF-8" standalone="no"?>
<!-- Created with Inkscape (http://www.inkscape.org/) -->

<svg
   xmlns:dc="http://purl.org/dc/elements/1.1/"
   xmlns:cc="http://creativecommons.org/ns#"
   xmlns:rdf="http://www.w3.org/1999/02/22-rdf-syntax-ns#"
   xmlns:svg="http://www.w3.org/2000/svg"
   xmlns="http://www.w3.org/2000/svg"
   xmlns:sodipodi="http://sodipodi.sourceforge.net/DTD/sodipodi-0.dtd"
   xmlns:inkscape="http://www.inkscape.org/namespaces/inkscape"
   width="279.39999mm"
   height="215.89999mm"
   viewBox="0 0 990.00001 765"
   id="svg2"
   version="1.1"
   inkscape:version="0.91 r13725"
   sodipodi:docname="scifi-hex-door.svg">
  <defs
     id="defs4" />
  <sodipodi:namedview
     id="base"
     pagecolor="#ffffff"
     bordercolor="#666666"
     borderopacity="1.0"
     inkscape:pageopacity="0.0"
     inkscape:pageshadow="2"
     inkscape:zoom="1.7469907"
     inkscape:cx="-3.5803894"
     inkscape:cy="113.52081"
     inkscape:document-units="mm"
     inkscape:current-layer="layer1"
     showgrid="true"
     units="mm"
     inkscape:window-width="1296"
     inkscape:window-height="855"
     inkscape:window-x="0"
     inkscape:window-y="0"
     inkscape:window-maximized="0">
    <inkscape:grid
       type="xygrid"
       id="grid4000"
       units="mm"
       spacingx="7.0866142"
       spacingy="7.0866142"
       dotted="false"
       empspacing="5" />
  </sodipodi:namedview>
  <metadata
     id="metadata7">
    <rdf:RDF>
      <cc:Work
         rdf:about="">
        <dc:format>image/svg+xml</dc:format>
        <dc:type
           rdf:resource="http://purl.org/dc/dcmitype/StillImage" />
        <dc:title></dc:title>
      </cc:Work>
    </rdf:RDF>
  </metadata>
  <g
     inkscape:label="Layer 1"
     inkscape:groupmode="layer"
     id="layer1"
     transform="translate(0,-287.36218)">
    <path
       style="fill:none;fill-rule:evenodd;stroke:#000000;stroke-width:1px;stroke-linecap:butt;stroke-linejoin:miter;stroke-opacity:1"
       d="m 85.03937,1052.3622 -14.173229,-14.1733 56.692909,-56.69288 0,-63.77953 -56.692909,-56.69292 -70.866141,0 -70.866141,0 -56.692909,56.69292 0,63.77953 56.692909,56.69288 -14.173229,14.1733 -56.69291,-56.69296 -7.08662,-7.08661 0,-77.95276 70.866145,-70.86614 155.90551,0 70.866145,70.86614 0,77.95276 z"
       id="bulkhead"
       inkscape:connector-curvature="0"
       inkscape:label="#path3358" />
    <path
       style="fill:none;fill-rule:evenodd;stroke:#000000;stroke-width:1px;stroke-linecap:butt;stroke-linejoin:miter;stroke-opacity:1"
       d="m -113.38583,924.8031 0,49.6063 77.952759,-21.25984 0,-7.08661 z"
       id="inset5"
       inkscape:connector-curvature="0"
       inkscape:label="#path3379" />
    <path
       style="fill:none;fill-rule:evenodd;stroke:#000000;stroke-width:1px;stroke-linecap:butt;stroke-linejoin:miter;stroke-opacity:1"
       d="m 35.433071,946.06295 0,7.08661 77.952759,21.25984 0,-49.6063 z"
       id="inset2"
       inkscape:connector-curvature="0"
       inkscape:label="#path3381" />
    <path
       style="fill:none;fill-rule:evenodd;stroke:#000000;stroke-width:1px;stroke-linecap:butt;stroke-linejoin:miter;stroke-opacity:1"
       d="m 63.779527,875.1968 35.433071,35.43307 0,7.08662 -77.952756,21.25984 -7.086614,-7.08661 0,-56.69292 z"
       id="inset1"
       inkscape:connector-curvature="0"
       inkscape:label="#path3383" />
    <path
       style="fill:none;fill-rule:evenodd;stroke:#000000;stroke-width:1px;stroke-linecap:butt;stroke-linejoin:miter;stroke-opacity:1"
       d="m -14.173228,875.1968 0,56.69292 -7.086614,7.08661 -77.952756,-21.25984 0,-7.08662 35.433071,-35.43307 z"
       id="inset6"
       inkscape:connector-curvature="0"
       inkscape:label="#path3385" />
    <path
       style="fill:none;fill-rule:evenodd;stroke:#000000;stroke-width:1px;stroke-linecap:butt;stroke-linejoin:miter;stroke-opacity:1"
       d="m -14.173228,967.32279 -7.086614,-7.08662 -77.952756,21.25985 0,7.08661 42.737344,42.73727 42.302026,0 z"
       id="inset4"
       inkscape:connector-curvature="0"
       sodipodi:nodetypes="ccccccc"
       inkscape:label="#path3387" />
    <path
       style="fill:none;fill-rule:evenodd;stroke:#000000;stroke-width:1px;stroke-linecap:butt;stroke-linejoin:miter;stroke-opacity:1"
       d="m 15.165382,967.66196 7.08661,-7.08662 77.952758,21.25985 0,7.08661 -42.737338,42.7373 -42.30203,0 z"
       id="inset3"
       inkscape:connector-curvature="0"
       sodipodi:nodetypes="ccccccc"
       inkscape:label="#path3387-7" />
    <path
       style="fill:none;fill-rule:evenodd;stroke:#000000;stroke-width:1px;stroke-linecap:butt;stroke-linejoin:miter;stroke-opacity:1"
       d="m 85.03937,1052.3622 -170.07874,0 -63.77953,-63.77957 0,-77.95276 70.866145,-70.86614 155.90551,0 70.866145,70.86614 0,77.95276 z"
       id="outline"
       inkscape:connector-curvature="0"
       inkscape:label="#path3404" />
    <g
       style="font-style:normal;font-variant:normal;font-weight:bold;font-stretch:normal;font-size:35px;line-height:125%;font-family:Arial;-inkscape-font-specification:'Arial, Bold';text-align:start;letter-spacing:0px;word-spacing:0px;writing-mode:lr-tb;text-anchor:start;fill:#000000;fill-opacity:1;stroke:none;stroke-width:1px;stroke-linecap:butt;stroke-linejoin:miter;stroke-opacity:1"
       id="text3406">
      <path
         d="m 46.895317,898.92987 0,9.22852 q 0,3.14453 -0.341797,4.58007 -0.341797,1.43555 -1.418457,2.68311 -1.07666,1.24756 -2.597656,1.79443 -1.520996,0.54688 -3.400879,0.54688 -2.478027,0 -4.118652,-0.56397 -1.640625,-0.58105 -2.614746,-1.79443 -0.974122,-1.21338 -1.384278,-2.54639 -0.410156,-1.35009 -0.410156,-4.27246 l 0,-9.65576 q 0,-3.81103 0.649414,-5.70801 0.666504,-1.89697 2.614746,-3.04199 1.965332,-1.14502 4.750977,-1.14502 2.272949,0 4.067383,0.80322 1.794433,0.78614 2.683105,1.93116 0.888672,1.14502 1.196289,2.58056 0.324707,1.43555 0.324707,4.58008 z m -6.904297,-2.32422 q 0,-2.20459 -0.222168,-2.75146 -0.205078,-0.56397 -0.991211,-0.56397 -0.769043,0 -1.02539,0.59815 -0.239258,0.58105 -0.239258,2.71728 l 0,13.50098 q 0,2.40967 0.222168,2.90527 0.239258,0.49561 1.008301,0.49561 0.769043,0 1.0083,-0.58106 0.239258,-0.58105 0.239258,-2.61474 l 0,-13.70606 z"
         style="font-style:normal;font-variant:normal;font-weight:normal;font-stretch:condensed;font-size:35px;line-height:125%;font-family:Impact;-inkscape-font-specification:'Impact, Condensed';text-align:start;writing-mode:lr-tb;text-anchor:start"
         id="zero"
         inkscape:label="#path3411" />
      <path
         d="m 65.916313,896.91327 -6.904297,0 q 0,-1.93115 -0.05127,-2.42676 -0.03418,-0.51269 -0.410156,-0.85449 -0.358887,-0.3418 -0.991211,-0.3418 -0.529786,0 -0.871582,0.32471 -0.341797,0.32471 -0.393067,0.8374 -0.05127,0.5127 -0.05127,2.06787 l 0,4.40918 q 0.529785,-1.11084 1.555175,-1.65771 1.025391,-0.56397 2.529297,-0.56397 1.896973,0 3.34961,1.02539 1.452636,1.02539 1.845703,2.46094 0.393066,1.43555 0.393066,3.8794 l 0,2.20459 q 0,2.90527 -0.222168,4.32373 -0.222168,1.41845 -1.196289,2.63183 -0.957031,1.19629 -2.648926,1.86279 -1.674804,0.66651 -3.913574,0.66651 -2.785644,0 -4.562988,-0.76904 -1.777344,-0.76905 -2.751465,-2.20459 -0.957031,-1.45264 -1.12793,-3.042 -0.153808,-1.58935 -0.153808,-6.16943 l 0,-3.82813 q 0,-4.93896 0.136718,-6.59667 0.153809,-1.67481 1.19629,-3.16163 1.04248,-1.48681 2.836914,-2.22168 1.811523,-0.75195 4.169921,-0.75195 2.905274,0 4.768067,0.93994 1.862793,0.93994 2.666016,2.64893 0.803222,1.70898 0.803222,4.30664 z m -6.904297,8.63037 q 0,-1.46973 -0.324707,-2.0166 -0.324707,-0.54688 -1.05957,-0.54688 -0.717773,0 -1.05957,0.52979 -0.324707,0.51269 -0.324707,2.03369 l 0,5.00732 q 0,1.82862 0.307617,2.39258 0.324707,0.56397 1.05957,0.56397 0.444336,0 0.922852,-0.42725 0.478515,-0.44433 0.478515,-2.3584 l 0,-5.17822 z"
         style="font-style:normal;font-variant:normal;font-weight:normal;font-stretch:condensed;font-size:35px;line-height:125%;font-family:Impact;-inkscape-font-specification:'Impact, Condensed';text-align:start;writing-mode:lr-tb;text-anchor:start"
         id="six"
         inkscape:label="#path3413" />
    </g>
  </g>
</svg>
