solid OpenSCAD_Model
  facet normal -0.330251 0.943893 0
    outer loop
      vertex 0.35495 38.1498 0
      vertex -0.0677643 38.0019 9
      vertex 0.35495 38.1498 9
    endloop
  endfacet
  facet normal -0.330251 0.943893 0
    outer loop
      vertex -0.0677643 38.0019 9
      vertex 0.35495 38.1498 0
      vertex -0.0677643 38.0019 0
    endloop
  endfacet
  facet normal -0.9439 0.330231 0
    outer loop
      vertex -1.14984 36.645 0
      vertex -1.00192 37.0678 9
      vertex -1.00192 37.0678 0
    endloop
  endfacet
  facet normal -0.9439 0.330231 0
    outer loop
      vertex -1.00192 37.0678 9
      vertex -1.14984 36.645 0
      vertex -1.14984 36.645 9
    endloop
  endfacet
  facet normal 0.53203 -0.846725 0
    outer loop
      vertex 27.0678 -0.801926 0
      vertex 27.447 -0.56366 9
      vertex 27.0678 -0.801926 9
    endloop
  endfacet
  facet normal 0.53203 -0.846725 0
    outer loop
      vertex 27.447 -0.56366 9
      vertex 27.0678 -0.801926 0
      vertex 27.447 -0.56366 0
    endloop
  endfacet
  facet normal 0 0 -1
    outer loop
      vertex 26.2 -1 0
      vertex 28.2 1 0
      vertex 28.1498 0.554947 0
    endloop
  endfacet
  facet normal 0 0 -1
    outer loop
      vertex 28.2 1 0
      vertex 9.47082 7.70534 0
      vertex 28.2 36.2 0
    endloop
  endfacet
  facet normal 0 0 -1
    outer loop
      vertex 26.2 -1 0
      vertex 28.1498 0.554947 0
      vertex 28.0019 0.132217 0
    endloop
  endfacet
  facet normal 0 0 -1
    outer loop
      vertex 9.30296 7.89177 0
      vertex 28.2 36.2 0
      vertex 9.47082 7.70534 0
    endloop
  endfacet
  facet normal 0 0 -1
    outer loop
      vertex 26.2 -1 0
      vertex 28.0019 0.132217 0
      vertex 27.7637 -0.246979 0
    endloop
  endfacet
  facet normal 0 0 -1
    outer loop
      vertex 9.1 8.03923 0
      vertex 28.2 36.2 0
      vertex 9.30296 7.89177 0
    endloop
  endfacet
  facet normal 0 0 -1
    outer loop
      vertex 26.2 -1 0
      vertex 27.7637 -0.246979 0
      vertex 27.447 -0.56366 0
    endloop
  endfacet
  facet normal 0 0 -1
    outer loop
      vertex 8.87082 8.14127 0
      vertex 28.2 36.2 0
      vertex 9.1 8.03923 0
    endloop
  endfacet
  facet normal 0 0 -1
    outer loop
      vertex 26.2 -1 0
      vertex 27.447 -0.56366 0
      vertex 27.0678 -0.801926 0
    endloop
  endfacet
  facet normal 0 0 -1
    outer loop
      vertex 28.2 36.2 0
      vertex 26.2 38.2 0
      vertex 28.1498 36.645 0
    endloop
  endfacet
  facet normal 0 0 -1
    outer loop
      vertex 26.2 -1 0
      vertex 27.0678 -0.801926 0
      vertex 26.645 -0.949844 0
    endloop
  endfacet
  facet normal 0 0 -1
    outer loop
      vertex 28.0019 37.0678 0
      vertex 26.2 38.2 0
      vertex 27.7637 37.447 0
    endloop
  endfacet
  facet normal 0 0 -1
    outer loop
      vertex 9.7 7 0
      vertex 28.2 1 0
      vertex 26.2 -1 0
    endloop
  endfacet
  facet normal 0 0 -1
    outer loop
      vertex 27.7637 37.447 0
      vertex 26.2 38.2 0
      vertex 27.447 37.7637 0
    endloop
  endfacet
  facet normal 0 0 -1
    outer loop
      vertex 28.2 1 0
      vertex 9.7 7 0
      vertex 9.67378 7.24949 0
    endloop
  endfacet
  facet normal 0 0 -1
    outer loop
      vertex 26.2 -1 0
      vertex 9.67378 6.75051 0
      vertex 9.7 7 0
    endloop
  endfacet
  facet normal 0 0 -1
    outer loop
      vertex 26.2 -1 0
      vertex 9.59625 6.51192 0
      vertex 9.67378 6.75051 0
    endloop
  endfacet
  facet normal 0 0 -1
    outer loop
      vertex 26.2 -1 0
      vertex 9.47082 6.29466 0
      vertex 9.59625 6.51192 0
    endloop
  endfacet
  facet normal 0 0 -1
    outer loop
      vertex 26.2 -1 0
      vertex 9.30296 6.10823 0
      vertex 9.47082 6.29466 0
    endloop
  endfacet
  facet normal 0 0 -1
    outer loop
      vertex 26.2 -1 0
      vertex 9.1 5.96077 0
      vertex 9.30296 6.10823 0
    endloop
  endfacet
  facet normal 0 0 -1
    outer loop
      vertex 26.2 -1 0
      vertex 8.87082 5.85873 0
      vertex 9.1 5.96077 0
    endloop
  endfacet
  facet normal 0 0 -1
    outer loop
      vertex 0.799988 -1 0
      vertex 8.87082 5.85873 0
      vertex 26.2 -1 0
    endloop
  endfacet
  facet normal 0 0 -1
    outer loop
      vertex 8.87082 5.85873 0
      vertex 0.799988 -1 0
      vertex 8.62543 5.80657 0
    endloop
  endfacet
  facet normal -0 0 -1
    outer loop
      vertex 8.62543 5.80657 0
      vertex 0.799988 -1 0
      vertex 8.37457 5.80657 0
    endloop
  endfacet
  facet normal -0 0 -1
    outer loop
      vertex 7.40374 6.51192 0
      vertex -1.2 1 0
      vertex 7.32622 6.75051 0
    endloop
  endfacet
  facet normal -0 0 -1
    outer loop
      vertex 7.52918 6.29466 0
      vertex -1.2 1 0
      vertex 7.40374 6.51192 0
    endloop
  endfacet
  facet normal 0 0 -1
    outer loop
      vertex -1.2 1 0
      vertex 7.52918 6.29466 0
      vertex 0.799988 -1 0
    endloop
  endfacet
  facet normal -0 0 -1
    outer loop
      vertex 7.69704 6.10823 0
      vertex 0.799988 -1 0
      vertex 7.52918 6.29466 0
    endloop
  endfacet
  facet normal -0 0 -1
    outer loop
      vertex 7.9 5.96077 0
      vertex 0.799988 -1 0
      vertex 7.69704 6.10823 0
    endloop
  endfacet
  facet normal -0 0 -1
    outer loop
      vertex 8.12918 5.85873 0
      vertex 0.799988 -1 0
      vertex 7.9 5.96077 0
    endloop
  endfacet
  facet normal -0 0 -1
    outer loop
      vertex 8.37457 5.80657 0
      vertex 0.799988 -1 0
      vertex 8.12918 5.85873 0
    endloop
  endfacet
  facet normal 0 0 -1
    outer loop
      vertex 28.2 1 0
      vertex 9.67378 7.24949 0
      vertex 9.59625 7.48808 0
    endloop
  endfacet
  facet normal 0 0 -1
    outer loop
      vertex 28.2 1 0
      vertex 9.59625 7.48808 0
      vertex 9.47082 7.70534 0
    endloop
  endfacet
  facet normal 0 0 -1
    outer loop
      vertex 27.0678 38.0019 0
      vertex 26.2 38.2 0
      vertex 26.645 38.1498 0
    endloop
  endfacet
  facet normal 0 0 -1
    outer loop
      vertex 27.447 37.7637 0
      vertex 26.2 38.2 0
      vertex 27.0678 38.0019 0
    endloop
  endfacet
  facet normal 0 0 -1
    outer loop
      vertex 28.1498 36.645 0
      vertex 26.2 38.2 0
      vertex 28.0019 37.0678 0
    endloop
  endfacet
  facet normal -0 0 -1
    outer loop
      vertex 28.2 36.2 0
      vertex 8.87082 8.14127 0
      vertex 26.2 38.2 0
    endloop
  endfacet
  facet normal 0 0 -1
    outer loop
      vertex 0.799988 38.2 0
      vertex 8.87082 8.14127 0
      vertex 8.62543 8.19343 0
    endloop
  endfacet
  facet normal 0 0 -1
    outer loop
      vertex -1.2 36.2 0
      vertex 8.62543 8.19343 0
      vertex 8.37457 8.19343 0
    endloop
  endfacet
  facet normal 0 0 -1
    outer loop
      vertex -1.2 36.2 0
      vertex 8.37457 8.19343 0
      vertex 8.12918 8.14127 0
    endloop
  endfacet
  facet normal 0 0 -1
    outer loop
      vertex -1.2 36.2 0
      vertex 8.12918 8.14127 0
      vertex 7.9 8.03923 0
    endloop
  endfacet
  facet normal 0 0 -1
    outer loop
      vertex -1.2 36.2 0
      vertex 7.9 8.03923 0
      vertex 7.69704 7.89177 0
    endloop
  endfacet
  facet normal 0 0 -1
    outer loop
      vertex -1.2 36.2 0
      vertex 7.69704 7.89177 0
      vertex 7.52918 7.70534 0
    endloop
  endfacet
  facet normal -0 0 -1
    outer loop
      vertex 7.32622 6.75051 0
      vertex -1.2 1 0
      vertex 7.3 7 0
    endloop
  endfacet
  facet normal -0 0 -1
    outer loop
      vertex 7.3 7 0
      vertex -1.2 1 0
      vertex 7.32622 7.24949 0
    endloop
  endfacet
  facet normal -0 0 -1
    outer loop
      vertex 7.32622 7.24949 0
      vertex -1.2 1 0
      vertex 7.40374 7.48808 0
    endloop
  endfacet
  facet normal -0 0 -1
    outer loop
      vertex 7.40374 7.48808 0
      vertex -1.2 1 0
      vertex 7.52918 7.70534 0
    endloop
  endfacet
  facet normal 0 0 -1
    outer loop
      vertex -1.2 36.2 0
      vertex 7.52918 7.70534 0
      vertex -1.2 1 0
    endloop
  endfacet
  facet normal 0 0 -1
    outer loop
      vertex -1.2 1 0
      vertex 0.799988 -1 0
      vertex 0.35495 -0.949844 0
    endloop
  endfacet
  facet normal 0 0 -1
    outer loop
      vertex 8.62543 8.19343 0
      vertex -1.2 36.2 0
      vertex 0.799988 38.2 0
    endloop
  endfacet
  facet normal 0 0 -1
    outer loop
      vertex -1.2 1 0
      vertex 0.35495 -0.949844 0
      vertex -0.0677643 -0.801926 0
    endloop
  endfacet
  facet normal 0 0 -1
    outer loop
      vertex 8.87082 8.14127 0
      vertex 0.799988 38.2 0
      vertex 26.2 38.2 0
    endloop
  endfacet
  facet normal 0 0 -1
    outer loop
      vertex -1.2 1 0
      vertex -0.0677643 -0.801926 0
      vertex -0.446976 -0.56366 0
    endloop
  endfacet
  facet normal 0 0 -1
    outer loop
      vertex 0.799988 38.2 0
      vertex -1.2 36.2 0
      vertex 0.35495 38.1498 0
    endloop
  endfacet
  facet normal 0 0 -1
    outer loop
      vertex -1.2 1 0
      vertex -0.446976 -0.56366 0
      vertex -0.763657 -0.246979 0
    endloop
  endfacet
  facet normal 0 0 -1
    outer loop
      vertex 0.35495 38.1498 0
      vertex -1.2 36.2 0
      vertex -0.0677643 38.0019 0
    endloop
  endfacet
  facet normal 0 0 -1
    outer loop
      vertex -1.2 1 0
      vertex -0.763657 -0.246979 0
      vertex -1.00192 0.132217 0
    endloop
  endfacet
  facet normal 0 0 -1
    outer loop
      vertex -0.0677643 38.0019 0
      vertex -1.2 36.2 0
      vertex -0.446976 37.7637 0
    endloop
  endfacet
  facet normal 0 0 -1
    outer loop
      vertex -1.2 1 0
      vertex -1.00192 0.132217 0
      vertex -1.14984 0.554947 0
    endloop
  endfacet
  facet normal 0 0 -1
    outer loop
      vertex -0.446976 37.7637 0
      vertex -1.2 36.2 0
      vertex -0.763657 37.447 0
    endloop
  endfacet
  facet normal 0 0 -1
    outer loop
      vertex -0.763657 37.447 0
      vertex -1.2 36.2 0
      vertex -1.00192 37.0678 0
    endloop
  endfacet
  facet normal 0 0 -1
    outer loop
      vertex -1.00192 37.0678 0
      vertex -1.2 36.2 0
      vertex -1.14984 36.645 0
    endloop
  endfacet
  facet normal -0.112089 0.993698 0
    outer loop
      vertex 0.799988 38.2 0
      vertex 0.35495 38.1498 9
      vertex 0.799988 38.2 9
    endloop
  endfacet
  facet normal -0.112089 0.993698 0
    outer loop
      vertex 0.35495 38.1498 9
      vertex 0.799988 38.2 0
      vertex 0.35495 38.1498 0
    endloop
  endfacet
  facet normal 0.330227 -0.943902 0
    outer loop
      vertex 26.645 -0.949844 0
      vertex 27.0678 -0.801926 9
      vertex 26.645 -0.949844 9
    endloop
  endfacet
  facet normal 0.330227 -0.943902 0
    outer loop
      vertex 27.0678 -0.801926 9
      vertex 26.645 -0.949844 0
      vertex 27.0678 -0.801926 0
    endloop
  endfacet
  facet normal -0.111992 -0.993709 0
    outer loop
      vertex 0.35495 -0.949844 0
      vertex 0.799988 -1 2
      vertex 0.35495 -0.949844 2
    endloop
  endfacet
  facet normal -0.111992 -0.993709 -0
    outer loop
      vertex 0.799988 -1 2
      vertex 0.35495 -0.949844 0
      vertex 0.799988 -1 0
    endloop
  endfacet
  facet normal 0.112098 0.993697 -0
    outer loop
      vertex 26.645 38.1498 0
      vertex 26.2 38.2 9
      vertex 26.645 38.1498 9
    endloop
  endfacet
  facet normal 0.112098 0.993697 0
    outer loop
      vertex 26.2 38.2 9
      vertex 26.645 38.1498 0
      vertex 26.2 38.2 0
    endloop
  endfacet
  facet normal -0.707107 -0.707107 0
    outer loop
      vertex -0.446976 -0.56366 0
      vertex -0.763657 -0.246979 9
      vertex -0.763657 -0.246979 0
    endloop
  endfacet
  facet normal -0.707107 -0.707107 0
    outer loop
      vertex -0.763657 -0.246979 9
      vertex -0.446976 -0.56366 0
      vertex -0.446976 -0.56366 9
    endloop
  endfacet
  facet normal -1 0 0
    outer loop
      vertex -1.2 1 0
      vertex -1.2 36.2 9
      vertex -1.2 36.2 0
    endloop
  endfacet
  facet normal -1 -0 0
    outer loop
      vertex -1.2 36.2 9
      vertex -1.2 1 0
      vertex -1.2 1 9
    endloop
  endfacet
  facet normal 0.707086 -0.707128 0
    outer loop
      vertex 27.447 -0.56366 9
      vertex 27.7637 -0.246979 0
      vertex 27.7637 -0.246979 9
    endloop
  endfacet
  facet normal 0.707086 -0.707128 0
    outer loop
      vertex 27.7637 -0.246979 0
      vertex 27.447 -0.56366 9
      vertex 27.447 -0.56366 0
    endloop
  endfacet
  facet normal 0.112001 -0.993708 0
    outer loop
      vertex 26.2 -1 0
      vertex 26.645 -0.949844 9
      vertex 26.2 -1 9
    endloop
  endfacet
  facet normal 0.112001 -0.993708 0
    outer loop
      vertex 26.645 -0.949844 9
      vertex 26.2 -1 0
      vertex 26.645 -0.949844 0
    endloop
  endfacet
  facet normal -0.707128 0.707086 0
    outer loop
      vertex -0.763657 37.447 0
      vertex -0.446976 37.7637 9
      vertex -0.446976 37.7637 0
    endloop
  endfacet
  facet normal -0.707128 0.707086 0
    outer loop
      vertex -0.446976 37.7637 9
      vertex -0.763657 37.447 0
      vertex -0.763657 37.447 9
    endloop
  endfacet
  facet normal 0 1 -0
    outer loop
      vertex 26.2 38.2 0
      vertex 0.799988 38.2 9
      vertex 26.2 38.2 9
    endloop
  endfacet
  facet normal 0 1 0
    outer loop
      vertex 0.799988 38.2 9
      vertex 26.2 38.2 0
      vertex 0.799988 38.2 0
    endloop
  endfacet
  facet normal 0 -1 0
    outer loop
      vertex 0.799988 -1 2
      vertex 0.799988 -1 0
      vertex 17 -1 2
    endloop
  endfacet
  facet normal 0 -1 0
    outer loop
      vertex 17 -1 2
      vertex 26.2 -1 9
      vertex 17 -1 9
    endloop
  endfacet
  facet normal 0 -1 0
    outer loop
      vertex 17 -1 2
      vertex 26.2 -1 0
      vertex 26.2 -1 9
    endloop
  endfacet
  facet normal 0 -1 0
    outer loop
      vertex 26.2 -1 0
      vertex 17 -1 2
      vertex 0.799988 -1 0
    endloop
  endfacet
  facet normal 0.531925 0.846792 -0
    outer loop
      vertex 27.447 37.7637 0
      vertex 27.0678 38.0019 9
      vertex 27.447 37.7637 9
    endloop
  endfacet
  facet normal 0.531925 0.846792 0
    outer loop
      vertex 27.0678 38.0019 9
      vertex 27.447 37.7637 0
      vertex 27.0678 38.0019 0
    endloop
  endfacet
  facet normal 0.330191 0.943914 -0
    outer loop
      vertex 27.0678 38.0019 0
      vertex 26.645 38.1498 9
      vertex 27.0678 38.0019 9
    endloop
  endfacet
  facet normal 0.330191 0.943914 0
    outer loop
      vertex 26.645 38.1498 9
      vertex 27.0678 38.0019 0
      vertex 26.645 38.1498 0
    endloop
  endfacet
  facet normal 0.846789 -0.531929 0
    outer loop
      vertex 27.7637 -0.246979 9
      vertex 28.0019 0.132217 0
      vertex 28.0019 0.132217 9
    endloop
  endfacet
  facet normal 0.846789 -0.531929 0
    outer loop
      vertex 28.0019 0.132217 0
      vertex 27.7637 -0.246979 9
      vertex 27.7637 -0.246979 0
    endloop
  endfacet
  facet normal -0.846726 -0.532029 0
    outer loop
      vertex -0.763657 -0.246979 0
      vertex -1.00192 0.132217 9
      vertex -1.00192 0.132217 0
    endloop
  endfacet
  facet normal -0.846726 -0.532029 0
    outer loop
      vertex -1.00192 0.132217 9
      vertex -0.763657 -0.246979 0
      vertex -0.763657 -0.246979 9
    endloop
  endfacet
  facet normal 1 0 0
    outer loop
      vertex 28.2 20.4421 4.84843
      vertex 28.2 36.2 9
      vertex 28.2 20.4421 5.15157
    endloop
  endfacet
  facet normal 1 0 0
    outer loop
      vertex 28.2 36.2 9
      vertex 28.2 20.379 5.44807
      vertex 28.2 20.4421 5.15157
    endloop
  endfacet
  facet normal 1 0 0
    outer loop
      vertex 28.2 36.2 9
      vertex 28.2 20.2557 5.725
      vertex 28.2 20.379 5.44807
    endloop
  endfacet
  facet normal 1 0 0
    outer loop
      vertex 28.2 36.2 9
      vertex 28.2 20.0776 5.97024
      vertex 28.2 20.2557 5.725
    endloop
  endfacet
  facet normal 1 0 0
    outer loop
      vertex 28.2 36.2 9
      vertex 28.2 19.8523 6.17307
      vertex 28.2 20.0776 5.97024
    endloop
  endfacet
  facet normal 1 0 0
    outer loop
      vertex 28.2 36.2 9
      vertex 28.2 19.5898 6.32464
      vertex 28.2 19.8523 6.17307
    endloop
  endfacet
  facet normal 1 0 0
    outer loop
      vertex 28.2 36.2 9
      vertex 28.2 19.3015 6.41831
      vertex 28.2 19.5898 6.32464
    endloop
  endfacet
  facet normal 1 0 0
    outer loop
      vertex 28.2 36.2 9
      vertex 28.2 19 6.45
      vertex 28.2 19.3015 6.41831
    endloop
  endfacet
  facet normal 1 -0 0
    outer loop
      vertex 28.2 1 9
      vertex 28.2 19 6.45
      vertex 28.2 36.2 9
    endloop
  endfacet
  facet normal 1 0 0
    outer loop
      vertex 28.2 17.5579 5.15157
      vertex 28.2 1 9
      vertex 28.2 17.5579 4.84843
    endloop
  endfacet
  facet normal 1 0 0
    outer loop
      vertex 28.2 17.621 5.44807
      vertex 28.2 1 9
      vertex 28.2 17.5579 5.15157
    endloop
  endfacet
  facet normal 1 0 0
    outer loop
      vertex 28.2 17.7443 5.725
      vertex 28.2 1 9
      vertex 28.2 17.621 5.44807
    endloop
  endfacet
  facet normal 1 0 0
    outer loop
      vertex 28.2 17.9224 5.97024
      vertex 28.2 1 9
      vertex 28.2 17.7443 5.725
    endloop
  endfacet
  facet normal 1 0 0
    outer loop
      vertex 28.2 18.1477 6.17307
      vertex 28.2 1 9
      vertex 28.2 17.9224 5.97024
    endloop
  endfacet
  facet normal 1 0 0
    outer loop
      vertex 28.2 18.4102 6.32464
      vertex 28.2 1 9
      vertex 28.2 18.1477 6.17307
    endloop
  endfacet
  facet normal 1 0 0
    outer loop
      vertex 28.2 18.6985 6.41831
      vertex 28.2 1 9
      vertex 28.2 18.4102 6.32464
    endloop
  endfacet
  facet normal 1 0 0
    outer loop
      vertex 28.2 19 6.45
      vertex 28.2 1 9
      vertex 28.2 18.6985 6.41831
    endloop
  endfacet
  facet normal 1 0 0
    outer loop
      vertex 28.2 36.2 9
      vertex 28.2 20.4421 4.84843
      vertex 28.2 36.2 0
    endloop
  endfacet
  facet normal 1 -0 0
    outer loop
      vertex 28.2 20.379 4.55192
      vertex 28.2 36.2 0
      vertex 28.2 20.4421 4.84843
    endloop
  endfacet
  facet normal 1 -0 0
    outer loop
      vertex 28.2 20.2557 4.275
      vertex 28.2 36.2 0
      vertex 28.2 20.379 4.55192
    endloop
  endfacet
  facet normal 1 -0 0
    outer loop
      vertex 28.2 20.0776 4.02976
      vertex 28.2 36.2 0
      vertex 28.2 20.2557 4.275
    endloop
  endfacet
  facet normal 1 -0 0
    outer loop
      vertex 28.2 19.8523 3.82693
      vertex 28.2 36.2 0
      vertex 28.2 20.0776 4.02976
    endloop
  endfacet
  facet normal 1 -0 0
    outer loop
      vertex 28.2 19.5898 3.67536
      vertex 28.2 36.2 0
      vertex 28.2 19.8523 3.82693
    endloop
  endfacet
  facet normal 1 -0 0
    outer loop
      vertex 28.2 19.3015 3.58169
      vertex 28.2 36.2 0
      vertex 28.2 19.5898 3.67536
    endloop
  endfacet
  facet normal 1 -0 0
    outer loop
      vertex 28.2 19 3.55
      vertex 28.2 36.2 0
      vertex 28.2 19.3015 3.58169
    endloop
  endfacet
  facet normal 1 0 0
    outer loop
      vertex 28.2 1 0
      vertex 28.2 19 3.55
      vertex 28.2 18.6985 3.58169
    endloop
  endfacet
  facet normal 1 0 0
    outer loop
      vertex 28.2 1 0
      vertex 28.2 17.5579 4.84843
      vertex 28.2 1 9
    endloop
  endfacet
  facet normal 1 0 0
    outer loop
      vertex 28.2 17.5579 4.84843
      vertex 28.2 1 0
      vertex 28.2 17.621 4.55192
    endloop
  endfacet
  facet normal 1 0 0
    outer loop
      vertex 28.2 17.621 4.55192
      vertex 28.2 1 0
      vertex 28.2 17.7443 4.275
    endloop
  endfacet
  facet normal 1 0 0
    outer loop
      vertex 28.2 17.7443 4.275
      vertex 28.2 1 0
      vertex 28.2 17.9224 4.02976
    endloop
  endfacet
  facet normal 1 0 0
    outer loop
      vertex 28.2 17.9224 4.02976
      vertex 28.2 1 0
      vertex 28.2 18.1477 3.82693
    endloop
  endfacet
  facet normal 1 0 0
    outer loop
      vertex 28.2 18.1477 3.82693
      vertex 28.2 1 0
      vertex 28.2 18.4102 3.67536
    endloop
  endfacet
  facet normal 1 0 0
    outer loop
      vertex 28.2 19 3.55
      vertex 28.2 1 0
      vertex 28.2 36.2 0
    endloop
  endfacet
  facet normal 1 0 0
    outer loop
      vertex 28.2 18.4102 3.67536
      vertex 28.2 1 0
      vertex 28.2 18.6985 3.58169
    endloop
  endfacet
  facet normal -0.330282 -0.943882 0
    outer loop
      vertex -0.0677643 -0.801926 9
      vertex 0 -0.825638 2
      vertex 0 -0.825638 9
    endloop
  endfacet
  facet normal -0.330282 -0.943882 0
    outer loop
      vertex -0.0677643 -0.801926 0
      vertex 0 -0.825638 2
      vertex -0.0677643 -0.801926 9
    endloop
  endfacet
  facet normal -0.330287 -0.943881 1.76674e-07
    outer loop
      vertex 0.35495 -0.949844 0
      vertex 0 -0.825638 2
      vertex -0.0677643 -0.801926 0
    endloop
  endfacet
  facet normal -0.330288 -0.94388 0
    outer loop
      vertex 0 -0.825638 2
      vertex 0.35495 -0.949844 0
      vertex 0.35495 -0.949844 2
    endloop
  endfacet
  facet normal 0.943897 -0.33024 0
    outer loop
      vertex 28.0019 0.132217 9
      vertex 28.1498 0.554947 0
      vertex 28.1498 0.554947 9
    endloop
  endfacet
  facet normal 0.943897 -0.33024 0
    outer loop
      vertex 28.1498 0.554947 0
      vertex 28.0019 0.132217 9
      vertex 28.0019 0.132217 0
    endloop
  endfacet
  facet normal 0.993699 -0.112085 0
    outer loop
      vertex 28.1498 0.554947 9
      vertex 28.2 1 0
      vertex 28.2 1 9
    endloop
  endfacet
  facet normal 0.993699 -0.112085 0
    outer loop
      vertex 28.2 1 0
      vertex 28.1498 0.554947 9
      vertex 28.1498 0.554947 0
    endloop
  endfacet
  facet normal 0.707107 0.707107 0
    outer loop
      vertex 27.7637 37.447 9
      vertex 27.447 37.7637 0
      vertex 27.447 37.7637 9
    endloop
  endfacet
  facet normal 0.707107 0.707107 0
    outer loop
      vertex 27.447 37.7637 0
      vertex 27.7637 37.447 9
      vertex 27.7637 37.447 0
    endloop
  endfacet
  facet normal 0.993697 0.112098 0
    outer loop
      vertex 28.2 36.2 9
      vertex 28.1498 36.645 0
      vertex 28.1498 36.645 9
    endloop
  endfacet
  facet normal 0.993697 0.112098 0
    outer loop
      vertex 28.1498 36.645 0
      vertex 28.2 36.2 9
      vertex 28.2 36.2 0
    endloop
  endfacet
  facet normal -0.531913 0.846799 0
    outer loop
      vertex -0.0677643 38.0019 0
      vertex -0.446976 37.7637 9
      vertex -0.0677643 38.0019 9
    endloop
  endfacet
  facet normal -0.531913 0.846799 0
    outer loop
      vertex -0.446976 37.7637 9
      vertex -0.0677643 38.0019 0
      vertex -0.446976 37.7637 0
    endloop
  endfacet
  facet normal -0.943883 -0.33028 0
    outer loop
      vertex -1.00192 0.132217 0
      vertex -1.14984 0.554947 9
      vertex -1.14984 0.554947 0
    endloop
  endfacet
  facet normal -0.943883 -0.33028 0
    outer loop
      vertex -1.14984 0.554947 9
      vertex -1.00192 0.132217 0
      vertex -1.00192 0.132217 9
    endloop
  endfacet
  facet normal -0.993709 -0.111997 0
    outer loop
      vertex -1.14984 0.554947 0
      vertex -1.2 1 9
      vertex -1.2 1 0
    endloop
  endfacet
  facet normal -0.993709 -0.111997 0
    outer loop
      vertex -1.2 1 9
      vertex -1.14984 0.554947 0
      vertex -1.14984 0.554947 9
    endloop
  endfacet
  facet normal 0 0 1
    outer loop
      vertex 26.2 38.2 9
      vertex 28.2 36.2 9
      vertex 28.1498 36.645 9
    endloop
  endfacet
  facet normal 0 0 1
    outer loop
      vertex 28.2 36.2 9
      vertex 17 33 9
      vertex 28.2 1 9
    endloop
  endfacet
  facet normal 0 0 1
    outer loop
      vertex 26.2 38.2 9
      vertex 28.1498 36.645 9
      vertex 28.0019 37.0678 9
    endloop
  endfacet
  facet normal 0 0 1
    outer loop
      vertex 17 -1 9
      vertex 28.2 1 9
      vertex 17 33 9
    endloop
  endfacet
  facet normal 0 0 1
    outer loop
      vertex 26.2 38.2 9
      vertex 28.0019 37.0678 9
      vertex 27.7637 37.447 9
    endloop
  endfacet
  facet normal 0 -0 1
    outer loop
      vertex 26.2 -1 9
      vertex 28.2 1 9
      vertex 17 -1 9
    endloop
  endfacet
  facet normal 0 0 1
    outer loop
      vertex 26.2 38.2 9
      vertex 27.7637 37.447 9
      vertex 27.447 37.7637 9
    endloop
  endfacet
  facet normal 0 0 1
    outer loop
      vertex 28.2 1 9
      vertex 26.2 -1 9
      vertex 28.1498 0.554947 9
    endloop
  endfacet
  facet normal 0 0 1
    outer loop
      vertex 26.2 38.2 9
      vertex 27.447 37.7637 9
      vertex 27.0678 38.0019 9
    endloop
  endfacet
  facet normal 0 0 1
    outer loop
      vertex 28.1498 0.554947 9
      vertex 26.2 -1 9
      vertex 28.0019 0.132217 9
    endloop
  endfacet
  facet normal 0 0 1
    outer loop
      vertex 26.2 38.2 9
      vertex 27.0678 38.0019 9
      vertex 26.645 38.1498 9
    endloop
  endfacet
  facet normal 0 0 1
    outer loop
      vertex 28.0019 0.132217 9
      vertex 26.2 -1 9
      vertex 27.7637 -0.246979 9
    endloop
  endfacet
  facet normal 0 0 1
    outer loop
      vertex 28.2 36.2 9
      vertex 26.2 38.2 9
      vertex 17 33 9
    endloop
  endfacet
  facet normal 0 0 1
    outer loop
      vertex 27.447 -0.56366 9
      vertex 26.2 -1 9
      vertex 27.0678 -0.801926 9
    endloop
  endfacet
  facet normal 0 0 1
    outer loop
      vertex 27.0678 -0.801926 9
      vertex 26.2 -1 9
      vertex 26.645 -0.949844 9
    endloop
  endfacet
  facet normal 0 0 1
    outer loop
      vertex 26.2 38.2 9
      vertex 15 37 9
      vertex 17 33 9
    endloop
  endfacet
  facet normal -0 0 1
    outer loop
      vertex 0.799988 38.2 9
      vertex 15 37 9
      vertex 26.2 38.2 9
    endloop
  endfacet
  facet normal 0 0 1
    outer loop
      vertex 15 37 9
      vertex 0.799988 38.2 9
      vertex 2 37 9
    endloop
  endfacet
  facet normal -0 0 1
    outer loop
      vertex 0.35495 38.1498 9
      vertex 2 37 9
      vertex 0.799988 38.2 9
    endloop
  endfacet
  facet normal -0 0 1
    outer loop
      vertex -0.0677643 38.0019 9
      vertex 2 37 9
      vertex 0.35495 38.1498 9
    endloop
  endfacet
  facet normal -0 0 1
    outer loop
      vertex -0.446976 37.7637 9
      vertex 2 37 9
      vertex -0.0677643 38.0019 9
    endloop
  endfacet
  facet normal 0 0 1
    outer loop
      vertex 2 37 9
      vertex -1.2 36.2 9
      vertex 0 33 9
    endloop
  endfacet
  facet normal 0 0 1
    outer loop
      vertex -1.2 1 9
      vertex 0 33 9
      vertex -1.2 36.2 9
    endloop
  endfacet
  facet normal -0 0 1
    outer loop
      vertex -0.763657 37.447 9
      vertex 2 37 9
      vertex -0.446976 37.7637 9
    endloop
  endfacet
  facet normal 0 0 1
    outer loop
      vertex 0 33 9
      vertex -1.2 1 9
      vertex 0 -0.825638 9
    endloop
  endfacet
  facet normal -0 0 1
    outer loop
      vertex -1.00192 37.0678 9
      vertex 2 37 9
      vertex -0.763657 37.447 9
    endloop
  endfacet
  facet normal -0 -0 1
    outer loop
      vertex -0.763657 -0.246979 9
      vertex 0 -0.825638 9
      vertex -1.2 1 9
    endloop
  endfacet
  facet normal 0 0 1
    outer loop
      vertex -1.14984 36.645 9
      vertex 2 37 9
      vertex -1.00192 37.0678 9
    endloop
  endfacet
  facet normal 0 0 1
    outer loop
      vertex 0 -0.825638 9
      vertex -0.446976 -0.56366 9
      vertex -0.0677643 -0.801926 9
    endloop
  endfacet
  facet normal 0 0 1
    outer loop
      vertex 2 37 9
      vertex -1.14984 36.645 9
      vertex -1.2 36.2 9
    endloop
  endfacet
  facet normal 0 0 1
    outer loop
      vertex 0 -0.825638 9
      vertex -0.763657 -0.246979 9
      vertex -0.446976 -0.56366 9
    endloop
  endfacet
  facet normal 0 0 1
    outer loop
      vertex -0.763657 -0.246979 9
      vertex -1.2 1 9
      vertex -1.00192 0.132217 9
    endloop
  endfacet
  facet normal 0 0 1
    outer loop
      vertex -1.00192 0.132217 9
      vertex -1.2 1 9
      vertex -1.14984 0.554947 9
    endloop
  endfacet
  facet normal 0 0 1
    outer loop
      vertex 27.7637 -0.246979 9
      vertex 26.2 -1 9
      vertex 27.447 -0.56366 9
    endloop
  endfacet
  facet normal -0.846728 0.532025 0
    outer loop
      vertex -1.00192 37.0678 0
      vertex -0.763657 37.447 9
      vertex -0.763657 37.447 0
    endloop
  endfacet
  facet normal -0.846728 0.532025 0
    outer loop
      vertex -0.763657 37.447 9
      vertex -1.00192 37.0678 0
      vertex -1.00192 37.0678 9
    endloop
  endfacet
  facet normal -0.532018 -0.846733 0
    outer loop
      vertex -0.446976 -0.56366 0
      vertex -0.0677643 -0.801926 9
      vertex -0.446976 -0.56366 9
    endloop
  endfacet
  facet normal -0.532018 -0.846733 -0
    outer loop
      vertex -0.0677643 -0.801926 9
      vertex -0.446976 -0.56366 0
      vertex -0.0677643 -0.801926 0
    endloop
  endfacet
  facet normal -0.993707 0.11201 0
    outer loop
      vertex -1.2 36.2 0
      vertex -1.14984 36.645 9
      vertex -1.14984 36.645 0
    endloop
  endfacet
  facet normal -0.993707 0.11201 0
    outer loop
      vertex -1.14984 36.645 9
      vertex -1.2 36.2 0
      vertex -1.2 36.2 9
    endloop
  endfacet
  facet normal 0.943914 0.330191 0
    outer loop
      vertex 28.1498 36.645 9
      vertex 28.0019 37.0678 0
      vertex 28.0019 37.0678 9
    endloop
  endfacet
  facet normal 0.943914 0.330191 0
    outer loop
      vertex 28.0019 37.0678 0
      vertex 28.1498 36.645 9
      vertex 28.1498 36.645 0
    endloop
  endfacet
  facet normal 0.846792 0.531925 0
    outer loop
      vertex 28.0019 37.0678 9
      vertex 27.7637 37.447 0
      vertex 27.7637 37.447 9
    endloop
  endfacet
  facet normal 0.846792 0.531925 0
    outer loop
      vertex 27.7637 37.447 0
      vertex 28.0019 37.0678 9
      vertex 28.0019 37.0678 0
    endloop
  endfacet
  facet normal 0 -1 0
    outer loop
      vertex 2 37 2
      vertex 15 37 9
      vertex 2 37 9
    endloop
  endfacet
  facet normal 0 -1 -0
    outer loop
      vertex 15 37 9
      vertex 2 37 2
      vertex 15 37 2
    endloop
  endfacet
  facet normal -0.894427 -0.447214 0
    outer loop
      vertex 17 33 2
      vertex 15 37 9
      vertex 15 37 2
    endloop
  endfacet
  facet normal -0.894427 -0.447214 0
    outer loop
      vertex 15 37 9
      vertex 17 33 2
      vertex 17 33 9
    endloop
  endfacet
  facet normal 0 0 1
    outer loop
      vertex 17 -1 2
      vertex 10.4563 7.41582 2
      vertex 10.5 7 2
    endloop
  endfacet
  facet normal 0 0 1
    outer loop
      vertex 17 33 2
      vertex 10.3271 7.81347 2
      vertex 10.4563 7.41582 2
    endloop
  endfacet
  facet normal 0 0 1
    outer loop
      vertex 17 33 2
      vertex 10.118 8.17557 2
      vertex 10.3271 7.81347 2
    endloop
  endfacet
  facet normal 0 0 1
    outer loop
      vertex 17 33 2
      vertex 9.83826 8.48629 2
      vertex 10.118 8.17557 2
    endloop
  endfacet
  facet normal 0 0 1
    outer loop
      vertex 17 33 2
      vertex 9.5 8.73205 2
      vertex 9.83826 8.48629 2
    endloop
  endfacet
  facet normal 0 0 1
    outer loop
      vertex 17 33 2
      vertex 9.11803 8.90211 2
      vertex 9.5 8.73205 2
    endloop
  endfacet
  facet normal 0 0 1
    outer loop
      vertex 17 33 2
      vertex 8.70906 8.98904 2
      vertex 9.11803 8.90211 2
    endloop
  endfacet
  facet normal 0 0 1
    outer loop
      vertex 17 33 2
      vertex 0 33 2
      vertex 8.70906 8.98904 2
    endloop
  endfacet
  facet normal 0 0 1
    outer loop
      vertex 8.70906 8.98904 2
      vertex 0 33 2
      vertex 8.29094 8.98904 2
    endloop
  endfacet
  facet normal 0 0 1
    outer loop
      vertex 8.29094 8.98904 2
      vertex 0 33 2
      vertex 7.88197 8.90211 2
    endloop
  endfacet
  facet normal 0 0 1
    outer loop
      vertex 7.88197 8.90211 2
      vertex 0 33 2
      vertex 7.5 8.73205 2
    endloop
  endfacet
  facet normal 0 0 1
    outer loop
      vertex 7.5 8.73205 2
      vertex 0 33 2
      vertex 7.16174 8.48629 2
    endloop
  endfacet
  facet normal 0 0 1
    outer loop
      vertex 7.16174 8.48629 2
      vertex 0 33 2
      vertex 6.88197 8.17557 2
    endloop
  endfacet
  facet normal 0 0 1
    outer loop
      vertex 6.88197 8.17557 2
      vertex 0 33 2
      vertex 6.67291 7.81347 2
    endloop
  endfacet
  facet normal 0 0 1
    outer loop
      vertex 0 -0.825638 2
      vertex 6.67291 7.81347 2
      vertex 0 33 2
    endloop
  endfacet
  facet normal 0 0 1
    outer loop
      vertex 0 33 2
      vertex 15 37 2
      vertex 2 37 2
    endloop
  endfacet
  facet normal 0 0 1
    outer loop
      vertex 0 33 2
      vertex 17 33 2
      vertex 15 37 2
    endloop
  endfacet
  facet normal -0 0 1
    outer loop
      vertex 10.4563 7.41582 2
      vertex 17 -1 2
      vertex 17 33 2
    endloop
  endfacet
  facet normal -0 0 1
    outer loop
      vertex 10.4563 6.58418 2
      vertex 17 -1 2
      vertex 10.5 7 2
    endloop
  endfacet
  facet normal -0 0 1
    outer loop
      vertex 10.3271 6.18653 2
      vertex 17 -1 2
      vertex 10.4563 6.58418 2
    endloop
  endfacet
  facet normal -0 0 1
    outer loop
      vertex 10.118 5.82443 2
      vertex 17 -1 2
      vertex 10.3271 6.18653 2
    endloop
  endfacet
  facet normal -0 0 1
    outer loop
      vertex 9.83826 5.51371 2
      vertex 17 -1 2
      vertex 10.118 5.82443 2
    endloop
  endfacet
  facet normal -0 0 1
    outer loop
      vertex 9.5 5.26795 2
      vertex 17 -1 2
      vertex 9.83826 5.51371 2
    endloop
  endfacet
  facet normal -0 0 1
    outer loop
      vertex 9.11803 5.09789 2
      vertex 17 -1 2
      vertex 9.5 5.26795 2
    endloop
  endfacet
  facet normal -0 0 1
    outer loop
      vertex 8.70906 5.01096 2
      vertex 17 -1 2
      vertex 9.11803 5.09789 2
    endloop
  endfacet
  facet normal 0 0 1
    outer loop
      vertex 0.799988 -1 2
      vertex 8.70906 5.01096 2
      vertex 8.29094 5.01096 2
    endloop
  endfacet
  facet normal 0 0 1
    outer loop
      vertex 0.799988 -1 2
      vertex 8.29094 5.01096 2
      vertex 7.88197 5.09789 2
    endloop
  endfacet
  facet normal 0 0 1
    outer loop
      vertex 0.799988 -1 2
      vertex 7.88197 5.09789 2
      vertex 7.5 5.26795 2
    endloop
  endfacet
  facet normal 0 0 1
    outer loop
      vertex 6.67291 7.81347 2
      vertex 0 -0.825638 2
      vertex 6.5437 7.41582 2
    endloop
  endfacet
  facet normal 0 0 1
    outer loop
      vertex 8.70906 5.01096 2
      vertex 0.799988 -1 2
      vertex 17 -1 2
    endloop
  endfacet
  facet normal 0 0 1
    outer loop
      vertex 7.16174 5.51371 2
      vertex 0.799988 -1 2
      vertex 7.5 5.26795 2
    endloop
  endfacet
  facet normal 0 0 1
    outer loop
      vertex 6.88197 5.82443 2
      vertex 0.799988 -1 2
      vertex 7.16174 5.51371 2
    endloop
  endfacet
  facet normal 0 0 1
    outer loop
      vertex 6.67291 6.18653 2
      vertex 0.799988 -1 2
      vertex 6.88197 5.82443 2
    endloop
  endfacet
  facet normal 0 0 1
    outer loop
      vertex 0 -0.825638 2
      vertex 6.67291 6.18653 2
      vertex 6.5437 6.58418 2
    endloop
  endfacet
  facet normal 0 0 1
    outer loop
      vertex 6.5437 7.41582 2
      vertex 0 -0.825638 2
      vertex 6.5 7 2
    endloop
  endfacet
  facet normal 0 0 1
    outer loop
      vertex 6.5 7 2
      vertex 0 -0.825638 2
      vertex 6.5437 6.58418 2
    endloop
  endfacet
  facet normal 0 0 1
    outer loop
      vertex 6.67291 6.18653 2
      vertex 0 -0.825638 2
      vertex 0.799988 -1 2
    endloop
  endfacet
  facet normal 0 0 1
    outer loop
      vertex 0.799988 -1 2
      vertex 0 -0.825638 2
      vertex 0.35495 -0.949844 2
    endloop
  endfacet
  facet normal -1 0 0
    outer loop
      vertex 17 20.4421 5.15157
      vertex 17 33 2
      vertex 17 20.4421 4.84843
    endloop
  endfacet
  facet normal -1 0 0
    outer loop
      vertex 17 33 2
      vertex 17 20.379 4.55192
      vertex 17 20.4421 4.84843
    endloop
  endfacet
  facet normal -1 0 0
    outer loop
      vertex 17 33 2
      vertex 17 20.2557 4.275
      vertex 17 20.379 4.55192
    endloop
  endfacet
  facet normal -1 0 0
    outer loop
      vertex 17 33 2
      vertex 17 20.0776 4.02976
      vertex 17 20.2557 4.275
    endloop
  endfacet
  facet normal -1 0 0
    outer loop
      vertex 17 33 2
      vertex 17 19.8523 3.82693
      vertex 17 20.0776 4.02976
    endloop
  endfacet
  facet normal -1 0 0
    outer loop
      vertex 17 33 2
      vertex 17 19.5898 3.67536
      vertex 17 19.8523 3.82693
    endloop
  endfacet
  facet normal -1 0 0
    outer loop
      vertex 17 33 2
      vertex 17 19.3015 3.58169
      vertex 17 19.5898 3.67536
    endloop
  endfacet
  facet normal -1 0 0
    outer loop
      vertex 17 33 2
      vertex 17 19 3.55
      vertex 17 19.3015 3.58169
    endloop
  endfacet
  facet normal -1 0 0
    outer loop
      vertex 17 -1 2
      vertex 17 19 3.55
      vertex 17 33 2
    endloop
  endfacet
  facet normal -1 -0 0
    outer loop
      vertex 17 17.5579 4.84843
      vertex 17 -1 2
      vertex 17 17.5579 5.15157
    endloop
  endfacet
  facet normal -1 -0 0
    outer loop
      vertex 17 17.621 4.55192
      vertex 17 -1 2
      vertex 17 17.5579 4.84843
    endloop
  endfacet
  facet normal -1 -0 0
    outer loop
      vertex 17 17.7443 4.275
      vertex 17 -1 2
      vertex 17 17.621 4.55192
    endloop
  endfacet
  facet normal -1 -0 0
    outer loop
      vertex 17 17.9224 4.02976
      vertex 17 -1 2
      vertex 17 17.7443 4.275
    endloop
  endfacet
  facet normal -1 -0 0
    outer loop
      vertex 17 18.1477 3.82693
      vertex 17 -1 2
      vertex 17 17.9224 4.02976
    endloop
  endfacet
  facet normal -1 -0 0
    outer loop
      vertex 17 18.4102 3.67536
      vertex 17 -1 2
      vertex 17 18.1477 3.82693
    endloop
  endfacet
  facet normal -1 -0 0
    outer loop
      vertex 17 18.6985 3.58169
      vertex 17 -1 2
      vertex 17 18.4102 3.67536
    endloop
  endfacet
  facet normal -1 -0 0
    outer loop
      vertex 17 19 3.55
      vertex 17 -1 2
      vertex 17 18.6985 3.58169
    endloop
  endfacet
  facet normal -1 0 0
    outer loop
      vertex 17 33 2
      vertex 17 20.4421 5.15157
      vertex 17 33 9
    endloop
  endfacet
  facet normal -1 0 0
    outer loop
      vertex 17 20.379 5.44807
      vertex 17 33 9
      vertex 17 20.4421 5.15157
    endloop
  endfacet
  facet normal -1 0 0
    outer loop
      vertex 17 20.2557 5.725
      vertex 17 33 9
      vertex 17 20.379 5.44807
    endloop
  endfacet
  facet normal -1 0 0
    outer loop
      vertex 17 20.0776 5.97024
      vertex 17 33 9
      vertex 17 20.2557 5.725
    endloop
  endfacet
  facet normal -1 0 0
    outer loop
      vertex 17 19.8523 6.17307
      vertex 17 33 9
      vertex 17 20.0776 5.97024
    endloop
  endfacet
  facet normal -1 0 0
    outer loop
      vertex 17 19.5898 6.32464
      vertex 17 33 9
      vertex 17 19.8523 6.17307
    endloop
  endfacet
  facet normal -1 0 0
    outer loop
      vertex 17 19.3015 6.41831
      vertex 17 33 9
      vertex 17 19.5898 6.32464
    endloop
  endfacet
  facet normal -1 0 0
    outer loop
      vertex 17 19 6.45
      vertex 17 33 9
      vertex 17 19.3015 6.41831
    endloop
  endfacet
  facet normal -1 0 0
    outer loop
      vertex 17 -1 9
      vertex 17 19 6.45
      vertex 17 18.6985 6.41831
    endloop
  endfacet
  facet normal -1 0 0
    outer loop
      vertex 17 -1 9
      vertex 17 17.5579 5.15157
      vertex 17 -1 2
    endloop
  endfacet
  facet normal -1 0 0
    outer loop
      vertex 17 17.5579 5.15157
      vertex 17 -1 9
      vertex 17 17.621 5.44807
    endloop
  endfacet
  facet normal -1 0 0
    outer loop
      vertex 17 17.621 5.44807
      vertex 17 -1 9
      vertex 17 17.7443 5.725
    endloop
  endfacet
  facet normal -1 0 0
    outer loop
      vertex 17 17.7443 5.725
      vertex 17 -1 9
      vertex 17 17.9224 5.97024
    endloop
  endfacet
  facet normal -1 0 0
    outer loop
      vertex 17 17.9224 5.97024
      vertex 17 -1 9
      vertex 17 18.1477 6.17307
    endloop
  endfacet
  facet normal -1 0 0
    outer loop
      vertex 17 18.1477 6.17307
      vertex 17 -1 9
      vertex 17 18.4102 6.32464
    endloop
  endfacet
  facet normal -1 0 0
    outer loop
      vertex 17 19 6.45
      vertex 17 -1 9
      vertex 17 33 9
    endloop
  endfacet
  facet normal -1 0 0
    outer loop
      vertex 17 18.4102 6.32464
      vertex 17 -1 9
      vertex 17 18.6985 6.41831
    endloop
  endfacet
  facet normal 0.894427 -0.447214 0
    outer loop
      vertex 0 33 9
      vertex 2 37 2
      vertex 2 37 9
    endloop
  endfacet
  facet normal 0.894427 -0.447214 0
    outer loop
      vertex 2 37 2
      vertex 0 33 9
      vertex 0 33 2
    endloop
  endfacet
  facet normal 1 -0 0
    outer loop
      vertex 0 -0.825638 9
      vertex 0 33 2
      vertex 0 33 9
    endloop
  endfacet
  facet normal 1 0 0
    outer loop
      vertex 0 33 2
      vertex 0 -0.825638 9
      vertex 0 -0.825638 2
    endloop
  endfacet
  facet normal 0.95106 0.309008 0
    outer loop
      vertex 10.4563 7.41582 3
      vertex 10.3271 7.81347 2
      vertex 10.3271 7.81347 3
    endloop
  endfacet
  facet normal 0.95106 0.309008 0
    outer loop
      vertex 10.3271 7.81347 2
      vertex 10.4563 7.41582 3
      vertex 10.4563 7.41582 2
    endloop
  endfacet
  facet normal 0.994523 0.104518 0
    outer loop
      vertex 10.5 7 3
      vertex 10.4563 7.41582 2
      vertex 10.4563 7.41582 3
    endloop
  endfacet
  facet normal 0.994523 0.104518 0
    outer loop
      vertex 10.4563 7.41582 2
      vertex 10.5 7 3
      vertex 10.5 7 2
    endloop
  endfacet
  facet normal 0.865982 0.500074 0
    outer loop
      vertex 10.3271 7.81347 3
      vertex 10.118 8.17557 2
      vertex 10.118 8.17557 3
    endloop
  endfacet
  facet normal 0.865982 0.500074 0
    outer loop
      vertex 10.118 8.17557 2
      vertex 10.3271 7.81347 3
      vertex 10.3271 7.81347 2
    endloop
  endfacet
  facet normal 0 -1 0
    outer loop
      vertex 8.29094 5.01096 2
      vertex 8.70906 5.01096 3
      vertex 8.29094 5.01096 3
    endloop
  endfacet
  facet normal 0 -1 -0
    outer loop
      vertex 8.70906 5.01096 3
      vertex 8.29094 5.01096 2
      vertex 8.70906 5.01096 2
    endloop
  endfacet
  facet normal 0.406729 -0.913549 0
    outer loop
      vertex 9.11803 5.09789 2
      vertex 9.5 5.26795 3
      vertex 9.11803 5.09789 3
    endloop
  endfacet
  facet normal 0.406729 -0.913549 0
    outer loop
      vertex 9.5 5.26795 3
      vertex 9.11803 5.09789 2
      vertex 9.5 5.26795 2
    endloop
  endfacet
  facet normal -0.951053 -0.309029 0
    outer loop
      vertex 6.67291 6.18653 2
      vertex 6.5437 6.58418 3
      vertex 6.5437 6.58418 2
    endloop
  endfacet
  facet normal -0.951053 -0.309029 0
    outer loop
      vertex 6.5437 6.58418 3
      vertex 6.67291 6.18653 2
      vertex 6.67291 6.18653 3
    endloop
  endfacet
  facet normal 0.994523 -0.104518 0
    outer loop
      vertex 10.4563 6.58418 3
      vertex 10.5 7 2
      vertex 10.5 7 3
    endloop
  endfacet
  facet normal 0.994523 -0.104518 0
    outer loop
      vertex 10.5 7 2
      vertex 10.4563 6.58418 3
      vertex 10.4563 6.58418 2
    endloop
  endfacet
  facet normal -0.743149 0.669126 0
    outer loop
      vertex 6.88197 8.17557 2
      vertex 7.16174 8.48629 3
      vertex 7.16174 8.48629 2
    endloop
  endfacet
  facet normal -0.743149 0.669126 0
    outer loop
      vertex 7.16174 8.48629 3
      vertex 6.88197 8.17557 2
      vertex 6.88197 8.17557 3
    endloop
  endfacet
  facet normal -0.406729 0.913549 0
    outer loop
      vertex 7.88197 8.90211 2
      vertex 7.5 8.73205 3
      vertex 7.88197 8.90211 3
    endloop
  endfacet
  facet normal -0.406729 0.913549 0
    outer loop
      vertex 7.5 8.73205 3
      vertex 7.88197 8.90211 2
      vertex 7.5 8.73205 2
    endloop
  endfacet
  facet normal -0.207913 -0.978147 0
    outer loop
      vertex 7.88197 5.09789 2
      vertex 8.29094 5.01096 3
      vertex 7.88197 5.09789 3
    endloop
  endfacet
  facet normal -0.207913 -0.978147 -0
    outer loop
      vertex 8.29094 5.01096 3
      vertex 7.88197 5.09789 2
      vertex 8.29094 5.01096 2
    endloop
  endfacet
  facet normal 0.95106 -0.309008 0
    outer loop
      vertex 10.3271 6.18653 3
      vertex 10.4563 6.58418 2
      vertex 10.4563 6.58418 3
    endloop
  endfacet
  facet normal 0.95106 -0.309008 0
    outer loop
      vertex 10.4563 6.58418 2
      vertex 10.3271 6.18653 3
      vertex 10.3271 6.18653 2
    endloop
  endfacet
  facet normal 0 0 1
    outer loop
      vertex 9.7 7 3
      vertex 10.5 7 3
      vertex 10.4563 7.41582 3
    endloop
  endfacet
  facet normal 0 0 1
    outer loop
      vertex 9.67378 7.24949 3
      vertex 10.4563 7.41582 3
      vertex 10.3271 7.81347 3
    endloop
  endfacet
  facet normal 0 0 1
    outer loop
      vertex 10.5 7 3
      vertex 9.7 7 3
      vertex 10.4563 6.58418 3
    endloop
  endfacet
  facet normal 0 0 1
    outer loop
      vertex 9.59625 7.48808 3
      vertex 10.3271 7.81347 3
      vertex 10.118 8.17557 3
    endloop
  endfacet
  facet normal -0 0 1
    outer loop
      vertex 9.67378 6.75051 3
      vertex 10.4563 6.58418 3
      vertex 9.7 7 3
    endloop
  endfacet
  facet normal 0 0 1
    outer loop
      vertex 9.47082 7.70534 3
      vertex 10.118 8.17557 3
      vertex 9.83826 8.48629 3
    endloop
  endfacet
  facet normal 0 0 1
    outer loop
      vertex 10.4563 6.58418 3
      vertex 9.67378 6.75051 3
      vertex 10.3271 6.18653 3
    endloop
  endfacet
  facet normal -0 0 1
    outer loop
      vertex 9.59625 6.51192 3
      vertex 10.3271 6.18653 3
      vertex 9.67378 6.75051 3
    endloop
  endfacet
  facet normal 0 0 1
    outer loop
      vertex 10.4563 7.41582 3
      vertex 9.67378 7.24949 3
      vertex 9.7 7 3
    endloop
  endfacet
  facet normal 0 0 1
    outer loop
      vertex 10.3271 7.81347 3
      vertex 9.59625 7.48808 3
      vertex 9.67378 7.24949 3
    endloop
  endfacet
  facet normal 0 0 1
    outer loop
      vertex 9.30296 7.89177 3
      vertex 9.83826 8.48629 3
      vertex 9.5 8.73205 3
    endloop
  endfacet
  facet normal 0 0 1
    outer loop
      vertex 10.118 8.17557 3
      vertex 9.47082 7.70534 3
      vertex 9.59625 7.48808 3
    endloop
  endfacet
  facet normal 0 0 1
    outer loop
      vertex 9.83826 8.48629 3
      vertex 9.30296 7.89177 3
      vertex 9.47082 7.70534 3
    endloop
  endfacet
  facet normal 0 0 1
    outer loop
      vertex 9.1 8.03923 3
      vertex 9.5 8.73205 3
      vertex 9.11803 8.90211 3
    endloop
  endfacet
  facet normal 0 0 1
    outer loop
      vertex 9.5 8.73205 3
      vertex 9.1 8.03923 3
      vertex 9.30296 7.89177 3
    endloop
  endfacet
  facet normal 0 0 1
    outer loop
      vertex 9.11803 8.90211 3
      vertex 8.87082 8.14127 3
      vertex 9.1 8.03923 3
    endloop
  endfacet
  facet normal 0 0 1
    outer loop
      vertex 8.70906 8.98904 3
      vertex 8.87082 8.14127 3
      vertex 9.11803 8.90211 3
    endloop
  endfacet
  facet normal 0 0 1
    outer loop
      vertex 8.70906 8.98904 3
      vertex 8.62543 8.19343 3
      vertex 8.87082 8.14127 3
    endloop
  endfacet
  facet normal 0 0 1
    outer loop
      vertex 8.70906 8.98904 3
      vertex 8.37457 8.19343 3
      vertex 8.62543 8.19343 3
    endloop
  endfacet
  facet normal -0 0 1
    outer loop
      vertex 8.29094 8.98904 3
      vertex 8.37457 8.19343 3
      vertex 8.70906 8.98904 3
    endloop
  endfacet
  facet normal 0 0 1
    outer loop
      vertex 8.29094 8.98904 3
      vertex 8.12918 8.14127 3
      vertex 8.37457 8.19343 3
    endloop
  endfacet
  facet normal -0 0 1
    outer loop
      vertex 7.88197 8.90211 3
      vertex 8.12918 8.14127 3
      vertex 8.29094 8.98904 3
    endloop
  endfacet
  facet normal 0 0 1
    outer loop
      vertex 8.12918 8.14127 3
      vertex 7.88197 8.90211 3
      vertex 7.9 8.03923 3
    endloop
  endfacet
  facet normal -0 0 1
    outer loop
      vertex 7.5 8.73205 3
      vertex 7.9 8.03923 3
      vertex 7.88197 8.90211 3
    endloop
  endfacet
  facet normal 0 0 1
    outer loop
      vertex 7.9 8.03923 3
      vertex 7.5 8.73205 3
      vertex 7.69704 7.89177 3
    endloop
  endfacet
  facet normal -0 0 1
    outer loop
      vertex 7.16174 8.48629 3
      vertex 7.69704 7.89177 3
      vertex 7.5 8.73205 3
    endloop
  endfacet
  facet normal 0 0 1
    outer loop
      vertex 7.69704 7.89177 3
      vertex 7.16174 8.48629 3
      vertex 7.52918 7.70534 3
    endloop
  endfacet
  facet normal -0 0 1
    outer loop
      vertex 6.88197 8.17557 3
      vertex 7.52918 7.70534 3
      vertex 7.16174 8.48629 3
    endloop
  endfacet
  facet normal -0 0 1
    outer loop
      vertex 6.67291 7.81347 3
      vertex 7.40374 7.48808 3
      vertex 6.88197 8.17557 3
    endloop
  endfacet
  facet normal 0 0 1
    outer loop
      vertex 7.52918 7.70534 3
      vertex 6.88197 8.17557 3
      vertex 7.40374 7.48808 3
    endloop
  endfacet
  facet normal 0 0 1
    outer loop
      vertex 10.3271 6.18653 3
      vertex 9.59625 6.51192 3
      vertex 10.118 5.82443 3
    endloop
  endfacet
  facet normal -0 0 1
    outer loop
      vertex 9.47082 6.29466 3
      vertex 10.118 5.82443 3
      vertex 9.59625 6.51192 3
    endloop
  endfacet
  facet normal 0 0 1
    outer loop
      vertex 10.118 5.82443 3
      vertex 9.47082 6.29466 3
      vertex 9.83826 5.51371 3
    endloop
  endfacet
  facet normal -0 0 1
    outer loop
      vertex 9.30296 6.10823 3
      vertex 9.83826 5.51371 3
      vertex 9.47082 6.29466 3
    endloop
  endfacet
  facet normal 0 0 1
    outer loop
      vertex 9.83826 5.51371 3
      vertex 9.30296 6.10823 3
      vertex 9.5 5.26795 3
    endloop
  endfacet
  facet normal -0 0 1
    outer loop
      vertex 9.1 5.96077 3
      vertex 9.5 5.26795 3
      vertex 9.30296 6.10823 3
    endloop
  endfacet
  facet normal 0 0 1
    outer loop
      vertex 9.5 5.26795 3
      vertex 9.1 5.96077 3
      vertex 9.11803 5.09789 3
    endloop
  endfacet
  facet normal -0 0 1
    outer loop
      vertex 8.87082 5.85873 3
      vertex 9.11803 5.09789 3
      vertex 9.1 5.96077 3
    endloop
  endfacet
  facet normal 0 0 1
    outer loop
      vertex 8.87082 5.85873 3
      vertex 8.70906 5.01096 3
      vertex 9.11803 5.09789 3
    endloop
  endfacet
  facet normal -0 0 1
    outer loop
      vertex 8.62543 5.80657 3
      vertex 8.70906 5.01096 3
      vertex 8.87082 5.85873 3
    endloop
  endfacet
  facet normal -0 0 1
    outer loop
      vertex 8.37457 5.80657 3
      vertex 8.70906 5.01096 3
      vertex 8.62543 5.80657 3
    endloop
  endfacet
  facet normal 0 0 1
    outer loop
      vertex 8.37457 5.80657 3
      vertex 8.29094 5.01096 3
      vertex 8.70906 5.01096 3
    endloop
  endfacet
  facet normal 0 0 1
    outer loop
      vertex 8.12918 5.85873 3
      vertex 8.29094 5.01096 3
      vertex 8.37457 5.80657 3
    endloop
  endfacet
  facet normal 0 0 1
    outer loop
      vertex 7.88197 5.09789 3
      vertex 8.12918 5.85873 3
      vertex 7.9 5.96077 3
    endloop
  endfacet
  facet normal 0 0 1
    outer loop
      vertex 8.12918 5.85873 3
      vertex 7.88197 5.09789 3
      vertex 8.29094 5.01096 3
    endloop
  endfacet
  facet normal 0 0 1
    outer loop
      vertex 7.5 5.26795 3
      vertex 7.9 5.96077 3
      vertex 7.69704 6.10823 3
    endloop
  endfacet
  facet normal 0 0 1
    outer loop
      vertex 7.16174 5.51371 3
      vertex 7.69704 6.10823 3
      vertex 7.52918 6.29466 3
    endloop
  endfacet
  facet normal 0 0 1
    outer loop
      vertex 7.9 5.96077 3
      vertex 7.5 5.26795 3
      vertex 7.88197 5.09789 3
    endloop
  endfacet
  facet normal 0 0 1
    outer loop
      vertex 6.88197 5.82443 3
      vertex 7.52918 6.29466 3
      vertex 7.40374 6.51192 3
    endloop
  endfacet
  facet normal 0 0 1
    outer loop
      vertex 6.67291 6.18653 3
      vertex 7.40374 6.51192 3
      vertex 7.32622 6.75051 3
    endloop
  endfacet
  facet normal 0 0 1
    outer loop
      vertex 7.69704 6.10823 3
      vertex 7.16174 5.51371 3
      vertex 7.5 5.26795 3
    endloop
  endfacet
  facet normal 0 0 1
    outer loop
      vertex 6.5437 6.58418 3
      vertex 7.32622 6.75051 3
      vertex 7.3 7 3
    endloop
  endfacet
  facet normal 0 0 1
    outer loop
      vertex 7.40374 7.48808 3
      vertex 6.67291 7.81347 3
      vertex 7.32622 7.24949 3
    endloop
  endfacet
  facet normal -0 0 1
    outer loop
      vertex 6.5437 7.41582 3
      vertex 7.32622 7.24949 3
      vertex 6.67291 7.81347 3
    endloop
  endfacet
  facet normal 0 0 1
    outer loop
      vertex 7.52918 6.29466 3
      vertex 6.88197 5.82443 3
      vertex 7.16174 5.51371 3
    endloop
  endfacet
  facet normal 0 0 1
    outer loop
      vertex 7.32622 7.24949 3
      vertex 6.5437 7.41582 3
      vertex 7.3 7 3
    endloop
  endfacet
  facet normal 0 0 1
    outer loop
      vertex 7.40374 6.51192 3
      vertex 6.67291 6.18653 3
      vertex 6.88197 5.82443 3
    endloop
  endfacet
  facet normal 0 0 1
    outer loop
      vertex 6.5 7 3
      vertex 7.3 7 3
      vertex 6.5437 7.41582 3
    endloop
  endfacet
  facet normal 0 0 1
    outer loop
      vertex 7.32622 6.75051 3
      vertex 6.5437 6.58418 3
      vertex 6.67291 6.18653 3
    endloop
  endfacet
  facet normal 0 0 1
    outer loop
      vertex 7.3 7 3
      vertex 6.5 7 3
      vertex 6.5437 6.58418 3
    endloop
  endfacet
  facet normal -0.406729 -0.913549 0
    outer loop
      vertex 7.5 5.26795 2
      vertex 7.88197 5.09789 3
      vertex 7.5 5.26795 3
    endloop
  endfacet
  facet normal -0.406729 -0.913549 -0
    outer loop
      vertex 7.88197 5.09789 3
      vertex 7.5 5.26795 2
      vertex 7.88197 5.09789 2
    endloop
  endfacet
  facet normal 0.207913 0.978147 -0
    outer loop
      vertex 9.11803 8.90211 2
      vertex 8.70906 8.98904 3
      vertex 9.11803 8.90211 3
    endloop
  endfacet
  facet normal 0.207913 0.978147 0
    outer loop
      vertex 8.70906 8.98904 3
      vertex 9.11803 8.90211 2
      vertex 8.70906 8.98904 2
    endloop
  endfacet
  facet normal 0 1 -0
    outer loop
      vertex 8.70906 8.98904 2
      vertex 8.29094 8.98904 3
      vertex 8.70906 8.98904 3
    endloop
  endfacet
  facet normal 0 1 0
    outer loop
      vertex 8.29094 8.98904 3
      vertex 8.70906 8.98904 2
      vertex 8.29094 8.98904 2
    endloop
  endfacet
  facet normal 0.865982 -0.500074 0
    outer loop
      vertex 10.118 5.82443 3
      vertex 10.3271 6.18653 2
      vertex 10.3271 6.18653 3
    endloop
  endfacet
  facet normal 0.865982 -0.500074 0
    outer loop
      vertex 10.3271 6.18653 2
      vertex 10.118 5.82443 3
      vertex 10.118 5.82443 2
    endloop
  endfacet
  facet normal -0.951053 0.309029 0
    outer loop
      vertex 6.5437 7.41582 2
      vertex 6.67291 7.81347 3
      vertex 6.67291 7.81347 2
    endloop
  endfacet
  facet normal -0.951053 0.309029 0
    outer loop
      vertex 6.67291 7.81347 3
      vertex 6.5437 7.41582 2
      vertex 6.5437 7.41582 3
    endloop
  endfacet
  facet normal -0.587785 -0.809017 0
    outer loop
      vertex 7.16174 5.51371 2
      vertex 7.5 5.26795 3
      vertex 7.16174 5.51371 3
    endloop
  endfacet
  facet normal -0.587785 -0.809017 -0
    outer loop
      vertex 7.5 5.26795 3
      vertex 7.16174 5.51371 2
      vertex 7.5 5.26795 2
    endloop
  endfacet
  facet normal -0.743149 -0.669126 0
    outer loop
      vertex 7.16174 5.51371 2
      vertex 6.88197 5.82443 3
      vertex 6.88197 5.82443 2
    endloop
  endfacet
  facet normal -0.743149 -0.669126 0
    outer loop
      vertex 6.88197 5.82443 3
      vertex 7.16174 5.51371 2
      vertex 7.16174 5.51371 3
    endloop
  endfacet
  facet normal 0.743185 0.669086 0
    outer loop
      vertex 10.118 8.17557 3
      vertex 9.83826 8.48629 2
      vertex 9.83826 8.48629 3
    endloop
  endfacet
  facet normal 0.743185 0.669086 0
    outer loop
      vertex 9.83826 8.48629 2
      vertex 10.118 8.17557 3
      vertex 10.118 8.17557 2
    endloop
  endfacet
  facet normal -0.994523 0.104518 0
    outer loop
      vertex 6.5 7 2
      vertex 6.5437 7.41582 3
      vertex 6.5437 7.41582 2
    endloop
  endfacet
  facet normal -0.994523 0.104518 0
    outer loop
      vertex 6.5437 7.41582 3
      vertex 6.5 7 2
      vertex 6.5 7 3
    endloop
  endfacet
  facet normal -0.207913 0.978147 0
    outer loop
      vertex 8.29094 8.98904 2
      vertex 7.88197 8.90211 3
      vertex 8.29094 8.98904 3
    endloop
  endfacet
  facet normal -0.207913 0.978147 0
    outer loop
      vertex 7.88197 8.90211 3
      vertex 8.29094 8.98904 2
      vertex 7.88197 8.90211 2
    endloop
  endfacet
  facet normal 0.587785 0.809017 -0
    outer loop
      vertex 9.83826 8.48629 2
      vertex 9.5 8.73205 3
      vertex 9.83826 8.48629 3
    endloop
  endfacet
  facet normal 0.587785 0.809017 0
    outer loop
      vertex 9.5 8.73205 3
      vertex 9.83826 8.48629 2
      vertex 9.5 8.73205 2
    endloop
  endfacet
  facet normal 0.406729 0.913549 -0
    outer loop
      vertex 9.5 8.73205 2
      vertex 9.11803 8.90211 3
      vertex 9.5 8.73205 3
    endloop
  endfacet
  facet normal 0.406729 0.913549 0
    outer loop
      vertex 9.11803 8.90211 3
      vertex 9.5 8.73205 2
      vertex 9.11803 8.90211 2
    endloop
  endfacet
  facet normal 0.587785 -0.809017 0
    outer loop
      vertex 9.5 5.26795 2
      vertex 9.83826 5.51371 3
      vertex 9.5 5.26795 3
    endloop
  endfacet
  facet normal 0.587785 -0.809017 0
    outer loop
      vertex 9.83826 5.51371 3
      vertex 9.5 5.26795 2
      vertex 9.83826 5.51371 2
    endloop
  endfacet
  facet normal 0.743185 -0.669086 0
    outer loop
      vertex 9.83826 5.51371 3
      vertex 10.118 5.82443 2
      vertex 10.118 5.82443 3
    endloop
  endfacet
  facet normal 0.743185 -0.669086 0
    outer loop
      vertex 10.118 5.82443 2
      vertex 9.83826 5.51371 3
      vertex 9.83826 5.51371 2
    endloop
  endfacet
  facet normal 0.207913 -0.978147 0
    outer loop
      vertex 8.70906 5.01096 2
      vertex 9.11803 5.09789 3
      vertex 8.70906 5.01096 3
    endloop
  endfacet
  facet normal 0.207913 -0.978147 0
    outer loop
      vertex 9.11803 5.09789 3
      vertex 8.70906 5.01096 2
      vertex 9.11803 5.09789 2
    endloop
  endfacet
  facet normal -0.587785 0.809017 0
    outer loop
      vertex 7.5 8.73205 2
      vertex 7.16174 8.48629 3
      vertex 7.5 8.73205 3
    endloop
  endfacet
  facet normal -0.587785 0.809017 0
    outer loop
      vertex 7.16174 8.48629 3
      vertex 7.5 8.73205 2
      vertex 7.16174 8.48629 2
    endloop
  endfacet
  facet normal -0.866024 -0.500003 0
    outer loop
      vertex 6.88197 5.82443 2
      vertex 6.67291 6.18653 3
      vertex 6.67291 6.18653 2
    endloop
  endfacet
  facet normal -0.866024 -0.500003 0
    outer loop
      vertex 6.67291 6.18653 3
      vertex 6.88197 5.82443 2
      vertex 6.88197 5.82443 3
    endloop
  endfacet
  facet normal -0.994523 -0.104518 0
    outer loop
      vertex 6.5437 6.58418 2
      vertex 6.5 7 3
      vertex 6.5 7 2
    endloop
  endfacet
  facet normal -0.994523 -0.104518 0
    outer loop
      vertex 6.5 7 3
      vertex 6.5437 6.58418 2
      vertex 6.5437 6.58418 3
    endloop
  endfacet
  facet normal -0.866024 0.500003 0
    outer loop
      vertex 6.67291 7.81347 2
      vertex 6.88197 8.17557 3
      vertex 6.88197 8.17557 2
    endloop
  endfacet
  facet normal -0.866024 0.500003 0
    outer loop
      vertex 6.88197 8.17557 3
      vertex 6.67291 7.81347 2
      vertex 6.67291 7.81347 3
    endloop
  endfacet
  facet normal -0.951048 0.309044 0
    outer loop
      vertex 9.59625 6.51192 0
      vertex 9.67378 6.75051 3
      vertex 9.67378 6.75051 0
    endloop
  endfacet
  facet normal -0.951048 0.309044 0
    outer loop
      vertex 9.67378 6.75051 3
      vertex 9.59625 6.51192 0
      vertex 9.59625 6.51192 3
    endloop
  endfacet
  facet normal -0.951048 -0.309044 0
    outer loop
      vertex 9.67378 7.24949 0
      vertex 9.59625 7.48808 3
      vertex 9.59625 7.48808 0
    endloop
  endfacet
  facet normal -0.951048 -0.309044 0
    outer loop
      vertex 9.59625 7.48808 3
      vertex 9.67378 7.24949 0
      vertex 9.67378 7.24949 3
    endloop
  endfacet
  facet normal -0.994523 -0.104519 0
    outer loop
      vertex 9.7 7 0
      vertex 9.67378 7.24949 3
      vertex 9.67378 7.24949 0
    endloop
  endfacet
  facet normal -0.994523 -0.104519 0
    outer loop
      vertex 9.67378 7.24949 3
      vertex 9.7 7 0
      vertex 9.7 7 3
    endloop
  endfacet
  facet normal -0.866034 -0.499985 0
    outer loop
      vertex 9.59625 7.48808 0
      vertex 9.47082 7.70534 3
      vertex 9.47082 7.70534 0
    endloop
  endfacet
  facet normal -0.866034 -0.499985 0
    outer loop
      vertex 9.47082 7.70534 3
      vertex 9.59625 7.48808 0
      vertex 9.59625 7.48808 3
    endloop
  endfacet
  facet normal -0.406745 0.913542 0
    outer loop
      vertex 9.1 5.96077 0
      vertex 8.87082 5.85873 3
      vertex 9.1 5.96077 3
    endloop
  endfacet
  facet normal -0.406745 0.913542 0
    outer loop
      vertex 8.87082 5.85873 3
      vertex 9.1 5.96077 0
      vertex 8.87082 5.85873 0
    endloop
  endfacet
  facet normal -0.743149 0.669125 0
    outer loop
      vertex 9.30296 6.10823 0
      vertex 9.47082 6.29466 3
      vertex 9.47082 6.29466 0
    endloop
  endfacet
  facet normal -0.743149 0.669125 0
    outer loop
      vertex 9.47082 6.29466 3
      vertex 9.30296 6.10823 0
      vertex 9.30296 6.10823 3
    endloop
  endfacet
  facet normal 0.587788 -0.809015 0
    outer loop
      vertex 7.69704 7.89177 0
      vertex 7.9 8.03923 3
      vertex 7.69704 7.89177 3
    endloop
  endfacet
  facet normal 0.587788 -0.809015 0
    outer loop
      vertex 7.9 8.03923 3
      vertex 7.69704 7.89177 0
      vertex 7.9 8.03923 0
    endloop
  endfacet
  facet normal -0.207915 -0.978147 0
    outer loop
      vertex 8.62543 8.19343 0
      vertex 8.87082 8.14127 3
      vertex 8.62543 8.19343 3
    endloop
  endfacet
  facet normal -0.207915 -0.978147 -0
    outer loop
      vertex 8.87082 8.14127 3
      vertex 8.62543 8.19343 0
      vertex 8.87082 8.14127 0
    endloop
  endfacet
  facet normal 0.207915 0.978147 -0
    outer loop
      vertex 8.37457 5.80657 0
      vertex 8.12918 5.85873 3
      vertex 8.37457 5.80657 3
    endloop
  endfacet
  facet normal 0.207915 0.978147 0
    outer loop
      vertex 8.12918 5.85873 3
      vertex 8.37457 5.80657 0
      vertex 8.12918 5.85873 0
    endloop
  endfacet
  facet normal 0.743149 -0.669125 0
    outer loop
      vertex 7.52918 7.70534 3
      vertex 7.69704 7.89177 0
      vertex 7.69704 7.89177 3
    endloop
  endfacet
  facet normal 0.743149 -0.669125 0
    outer loop
      vertex 7.69704 7.89177 0
      vertex 7.52918 7.70534 3
      vertex 7.52918 7.70534 0
    endloop
  endfacet
  facet normal -0.866034 0.499985 0
    outer loop
      vertex 9.47082 6.29466 0
      vertex 9.59625 6.51192 3
      vertex 9.59625 6.51192 0
    endloop
  endfacet
  facet normal -0.866034 0.499985 0
    outer loop
      vertex 9.59625 6.51192 3
      vertex 9.47082 6.29466 0
      vertex 9.47082 6.29466 3
    endloop
  endfacet
  facet normal 0.95106 -0.309008 0
    outer loop
      vertex 7.32622 7.24949 3
      vertex 7.40374 7.48808 0
      vertex 7.40374 7.48808 3
    endloop
  endfacet
  facet normal 0.95106 -0.309008 0
    outer loop
      vertex 7.40374 7.48808 0
      vertex 7.32622 7.24949 3
      vertex 7.32622 7.24949 0
    endloop
  endfacet
  facet normal 0.994523 0.104519 0
    outer loop
      vertex 7.32622 6.75051 3
      vertex 7.3 7 0
      vertex 7.3 7 3
    endloop
  endfacet
  facet normal 0.994523 0.104519 0
    outer loop
      vertex 7.3 7 0
      vertex 7.32622 6.75051 3
      vertex 7.32622 6.75051 0
    endloop
  endfacet
  facet normal 0 1 -0
    outer loop
      vertex 8.62543 5.80657 0
      vertex 8.37457 5.80657 3
      vertex 8.62543 5.80657 3
    endloop
  endfacet
  facet normal 0 1 0
    outer loop
      vertex 8.37457 5.80657 3
      vertex 8.62543 5.80657 0
      vertex 8.37457 5.80657 0
    endloop
  endfacet
  facet normal 0.866017 0.500015 0
    outer loop
      vertex 7.52918 6.29466 3
      vertex 7.40374 6.51192 0
      vertex 7.40374 6.51192 3
    endloop
  endfacet
  facet normal 0.866017 0.500015 0
    outer loop
      vertex 7.40374 6.51192 0
      vertex 7.52918 6.29466 3
      vertex 7.52918 6.29466 0
    endloop
  endfacet
  facet normal 0.95106 0.309008 0
    outer loop
      vertex 7.40374 6.51192 3
      vertex 7.32622 6.75051 0
      vertex 7.32622 6.75051 3
    endloop
  endfacet
  facet normal 0.95106 0.309008 0
    outer loop
      vertex 7.32622 6.75051 0
      vertex 7.40374 6.51192 3
      vertex 7.40374 6.51192 0
    endloop
  endfacet
  facet normal -0.406745 -0.913542 0
    outer loop
      vertex 8.87082 8.14127 0
      vertex 9.1 8.03923 3
      vertex 8.87082 8.14127 3
    endloop
  endfacet
  facet normal -0.406745 -0.913542 -0
    outer loop
      vertex 9.1 8.03923 3
      vertex 8.87082 8.14127 0
      vertex 9.1 8.03923 0
    endloop
  endfacet
  facet normal 0.994523 -0.104519 0
    outer loop
      vertex 7.3 7 3
      vertex 7.32622 7.24949 0
      vertex 7.32622 7.24949 3
    endloop
  endfacet
  facet normal 0.994523 -0.104519 0
    outer loop
      vertex 7.32622 7.24949 0
      vertex 7.3 7 3
      vertex 7.3 7 0
    endloop
  endfacet
  facet normal -0.994523 0.104519 0
    outer loop
      vertex 9.67378 6.75051 0
      vertex 9.7 7 3
      vertex 9.7 7 0
    endloop
  endfacet
  facet normal -0.994523 0.104519 0
    outer loop
      vertex 9.7 7 3
      vertex 9.67378 6.75051 0
      vertex 9.67378 6.75051 3
    endloop
  endfacet
  facet normal 0 -1 0
    outer loop
      vertex 8.37457 8.19343 0
      vertex 8.62543 8.19343 3
      vertex 8.37457 8.19343 3
    endloop
  endfacet
  facet normal 0 -1 -0
    outer loop
      vertex 8.62543 8.19343 3
      vertex 8.37457 8.19343 0
      vertex 8.62543 8.19343 0
    endloop
  endfacet
  facet normal 0.406745 -0.913542 0
    outer loop
      vertex 7.9 8.03923 0
      vertex 8.12918 8.14127 3
      vertex 7.9 8.03923 3
    endloop
  endfacet
  facet normal 0.406745 -0.913542 0
    outer loop
      vertex 8.12918 8.14127 3
      vertex 7.9 8.03923 0
      vertex 8.12918 8.14127 0
    endloop
  endfacet
  facet normal -0.743149 -0.669125 0
    outer loop
      vertex 9.47082 7.70534 0
      vertex 9.30296 7.89177 3
      vertex 9.30296 7.89177 0
    endloop
  endfacet
  facet normal -0.743149 -0.669125 0
    outer loop
      vertex 9.30296 7.89177 3
      vertex 9.47082 7.70534 0
      vertex 9.47082 7.70534 3
    endloop
  endfacet
  facet normal 0.406745 0.913542 -0
    outer loop
      vertex 8.12918 5.85873 0
      vertex 7.9 5.96077 3
      vertex 8.12918 5.85873 3
    endloop
  endfacet
  facet normal 0.406745 0.913542 0
    outer loop
      vertex 7.9 5.96077 3
      vertex 8.12918 5.85873 0
      vertex 7.9 5.96077 0
    endloop
  endfacet
  facet normal -0.207915 0.978147 0
    outer loop
      vertex 8.87082 5.85873 0
      vertex 8.62543 5.80657 3
      vertex 8.87082 5.85873 3
    endloop
  endfacet
  facet normal -0.207915 0.978147 0
    outer loop
      vertex 8.62543 5.80657 3
      vertex 8.87082 5.85873 0
      vertex 8.62543 5.80657 0
    endloop
  endfacet
  facet normal -0.587788 -0.809015 0
    outer loop
      vertex 9.1 8.03923 0
      vertex 9.30296 7.89177 3
      vertex 9.1 8.03923 3
    endloop
  endfacet
  facet normal -0.587788 -0.809015 -0
    outer loop
      vertex 9.30296 7.89177 3
      vertex 9.1 8.03923 0
      vertex 9.30296 7.89177 0
    endloop
  endfacet
  facet normal 0.866017 -0.500015 0
    outer loop
      vertex 7.40374 7.48808 3
      vertex 7.52918 7.70534 0
      vertex 7.52918 7.70534 3
    endloop
  endfacet
  facet normal 0.866017 -0.500015 0
    outer loop
      vertex 7.52918 7.70534 0
      vertex 7.40374 7.48808 3
      vertex 7.40374 7.48808 0
    endloop
  endfacet
  facet normal 0.743149 0.669125 0
    outer loop
      vertex 7.69704 6.10823 3
      vertex 7.52918 6.29466 0
      vertex 7.52918 6.29466 3
    endloop
  endfacet
  facet normal 0.743149 0.669125 0
    outer loop
      vertex 7.52918 6.29466 0
      vertex 7.69704 6.10823 3
      vertex 7.69704 6.10823 0
    endloop
  endfacet
  facet normal -0.587788 0.809015 0
    outer loop
      vertex 9.30296 6.10823 0
      vertex 9.1 5.96077 3
      vertex 9.30296 6.10823 3
    endloop
  endfacet
  facet normal -0.587788 0.809015 0
    outer loop
      vertex 9.1 5.96077 3
      vertex 9.30296 6.10823 0
      vertex 9.1 5.96077 0
    endloop
  endfacet
  facet normal 0.587788 0.809015 -0
    outer loop
      vertex 7.9 5.96077 0
      vertex 7.69704 6.10823 3
      vertex 7.9 5.96077 3
    endloop
  endfacet
  facet normal 0.587788 0.809015 0
    outer loop
      vertex 7.69704 6.10823 3
      vertex 7.9 5.96077 0
      vertex 7.69704 6.10823 0
    endloop
  endfacet
  facet normal 0.207915 -0.978147 0
    outer loop
      vertex 8.12918 8.14127 0
      vertex 8.37457 8.19343 3
      vertex 8.12918 8.14127 3
    endloop
  endfacet
  facet normal 0.207915 -0.978147 0
    outer loop
      vertex 8.37457 8.19343 3
      vertex 8.12918 8.14127 0
      vertex 8.37457 8.19343 0
    endloop
  endfacet
  facet normal 0 0.978097 0.208148
    outer loop
      vertex 28.2 17.621 4.55192
      vertex 17 17.5579 4.84843
      vertex 28.2 17.5579 4.84843
    endloop
  endfacet
  facet normal 0 0.978097 0.208148
    outer loop
      vertex 17 17.5579 4.84843
      vertex 28.2 17.621 4.55192
      vertex 17 17.621 4.55192
    endloop
  endfacet
  facet normal 0 -0.500038 0.866003
    outer loop
      vertex 17 19.8523 3.82693
      vertex 28.2 19.5898 3.67536
      vertex 28.2 19.8523 3.82693
    endloop
  endfacet
  facet normal 0 -0.500038 0.866003
    outer loop
      vertex 28.2 19.5898 3.67536
      vertex 17 19.8523 3.82693
      vertex 17 19.5898 3.67536
    endloop
  endfacet
  facet normal 0 -0.669074 -0.743196
    outer loop
      vertex 17 19.8523 6.17307
      vertex 28.2 20.0776 5.97024
      vertex 28.2 19.8523 6.17307
    endloop
  endfacet
  facet normal -0 -0.669074 -0.743196
    outer loop
      vertex 28.2 20.0776 5.97024
      vertex 17 19.8523 6.17307
      vertex 17 20.0776 5.97024
    endloop
  endfacet
  facet normal 0 -0.809138 0.587618
    outer loop
      vertex 17 20.0776 4.02976
      vertex 28.2 20.2557 4.275
      vertex 17 20.2557 4.275
    endloop
  endfacet
  facet normal 0 -0.809138 0.587618
    outer loop
      vertex 28.2 20.2557 4.275
      vertex 17 20.0776 4.02976
      vertex 28.2 20.0776 4.02976
    endloop
  endfacet
  facet normal 0 -0.104532 0.994522
    outer loop
      vertex 17 19.3015 3.58169
      vertex 28.2 19 3.55
      vertex 28.2 19.3015 3.58169
    endloop
  endfacet
  facet normal 0 -0.104532 0.994522
    outer loop
      vertex 28.2 19 3.55
      vertex 17 19.3015 3.58169
      vertex 17 19 3.55
    endloop
  endfacet
  facet normal 0 -0.104532 -0.994522
    outer loop
      vertex 17 19 6.45
      vertex 28.2 19.3015 6.41831
      vertex 28.2 19 6.45
    endloop
  endfacet
  facet normal -0 -0.104532 -0.994522
    outer loop
      vertex 28.2 19.3015 6.41831
      vertex 17 19 6.45
      vertex 17 19.3015 6.41831
    endloop
  endfacet
  facet normal 0 0.913542 -0.406744
    outer loop
      vertex 28.2 17.621 5.44807
      vertex 17 17.7443 5.725
      vertex 28.2 17.7443 5.725
    endloop
  endfacet
  facet normal 0 0.913542 -0.406744
    outer loop
      vertex 17 17.7443 5.725
      vertex 28.2 17.621 5.44807
      vertex 17 17.621 5.44807
    endloop
  endfacet
  facet normal 0 -0.913542 -0.406744
    outer loop
      vertex 17 20.379 5.44807
      vertex 28.2 20.2557 5.725
      vertex 17 20.2557 5.725
    endloop
  endfacet
  facet normal 0 -0.913542 -0.406744
    outer loop
      vertex 28.2 20.2557 5.725
      vertex 17 20.379 5.44807
      vertex 28.2 20.379 5.44807
    endloop
  endfacet
  facet normal 0 0.913537 0.406757
    outer loop
      vertex 28.2 17.7443 4.275
      vertex 17 17.621 4.55192
      vertex 28.2 17.621 4.55192
    endloop
  endfacet
  facet normal 0 0.913537 0.406757
    outer loop
      vertex 17 17.621 4.55192
      vertex 28.2 17.7443 4.275
      vertex 17 17.7443 4.275
    endloop
  endfacet
  facet normal 0 0.500038 -0.866003
    outer loop
      vertex 17 18.1477 6.17307
      vertex 28.2 18.4102 6.32464
      vertex 28.2 18.1477 6.17307
    endloop
  endfacet
  facet normal 0 0.500038 -0.866003
    outer loop
      vertex 28.2 18.4102 6.32464
      vertex 17 18.1477 6.17307
      vertex 17 18.4102 6.32464
    endloop
  endfacet
  facet normal 0 -0.913537 0.406757
    outer loop
      vertex 17 20.2557 4.275
      vertex 28.2 20.379 4.55192
      vertex 17 20.379 4.55192
    endloop
  endfacet
  facet normal 0 -0.913537 0.406757
    outer loop
      vertex 28.2 20.379 4.55192
      vertex 17 20.2557 4.275
      vertex 28.2 20.2557 4.275
    endloop
  endfacet
  facet normal 0 -0.669074 0.743196
    outer loop
      vertex 17 20.0776 4.02976
      vertex 28.2 19.8523 3.82693
      vertex 28.2 20.0776 4.02976
    endloop
  endfacet
  facet normal 0 -0.669074 0.743196
    outer loop
      vertex 28.2 19.8523 3.82693
      vertex 17 20.0776 4.02976
      vertex 17 19.8523 3.82693
    endloop
  endfacet
  facet normal -0 0.669074 0.743196
    outer loop
      vertex 17 18.1477 3.82693
      vertex 28.2 17.9224 4.02976
      vertex 28.2 18.1477 3.82693
    endloop
  endfacet
  facet normal 0 0.669074 0.743196
    outer loop
      vertex 28.2 17.9224 4.02976
      vertex 17 18.1477 3.82693
      vertex 17 17.9224 4.02976
    endloop
  endfacet
  facet normal 0 -0.978097 0.208148
    outer loop
      vertex 17 20.379 4.55192
      vertex 28.2 20.4421 4.84843
      vertex 17 20.4421 4.84843
    endloop
  endfacet
  facet normal 0 -0.978097 0.208148
    outer loop
      vertex 28.2 20.4421 4.84843
      vertex 17 20.379 4.55192
      vertex 28.2 20.379 4.55192
    endloop
  endfacet
  facet normal 0 -0.500038 -0.866003
    outer loop
      vertex 17 19.5898 6.32464
      vertex 28.2 19.8523 6.17307
      vertex 28.2 19.5898 6.32464
    endloop
  endfacet
  facet normal -0 -0.500038 -0.866003
    outer loop
      vertex 28.2 19.8523 6.17307
      vertex 17 19.5898 6.32464
      vertex 17 19.8523 6.17307
    endloop
  endfacet
  facet normal 0 -1 0
    outer loop
      vertex 17 20.4421 4.84843
      vertex 28.2 20.4421 5.15157
      vertex 17 20.4421 5.15157
    endloop
  endfacet
  facet normal 0 -1 -0
    outer loop
      vertex 28.2 20.4421 5.15157
      vertex 17 20.4421 4.84843
      vertex 28.2 20.4421 4.84843
    endloop
  endfacet
  facet normal 0 0.809138 0.587618
    outer loop
      vertex 28.2 17.9224 4.02976
      vertex 17 17.7443 4.275
      vertex 28.2 17.7443 4.275
    endloop
  endfacet
  facet normal 0 0.809138 0.587618
    outer loop
      vertex 17 17.7443 4.275
      vertex 28.2 17.9224 4.02976
      vertex 17 17.9224 4.02976
    endloop
  endfacet
  facet normal -0 0.104532 0.994522
    outer loop
      vertex 17 19 3.55
      vertex 28.2 18.6985 3.58169
      vertex 28.2 19 3.55
    endloop
  endfacet
  facet normal 0 0.104532 0.994522
    outer loop
      vertex 28.2 18.6985 3.58169
      vertex 17 19 3.55
      vertex 17 18.6985 3.58169
    endloop
  endfacet
  facet normal 0 -0.309004 0.951061
    outer loop
      vertex 17 19.5898 3.67536
      vertex 28.2 19.3015 3.58169
      vertex 28.2 19.5898 3.67536
    endloop
  endfacet
  facet normal 0 -0.309004 0.951061
    outer loop
      vertex 28.2 19.3015 3.58169
      vertex 17 19.5898 3.67536
      vertex 17 19.3015 3.58169
    endloop
  endfacet
  facet normal -0 0.309004 0.951061
    outer loop
      vertex 17 18.6985 3.58169
      vertex 28.2 18.4102 3.67536
      vertex 28.2 18.6985 3.58169
    endloop
  endfacet
  facet normal 0 0.309004 0.951061
    outer loop
      vertex 28.2 18.4102 3.67536
      vertex 17 18.6985 3.58169
      vertex 17 18.4102 3.67536
    endloop
  endfacet
  facet normal -0 0.500038 0.866003
    outer loop
      vertex 17 18.4102 3.67536
      vertex 28.2 18.1477 3.82693
      vertex 28.2 18.4102 3.67536
    endloop
  endfacet
  facet normal 0 0.500038 0.866003
    outer loop
      vertex 28.2 18.1477 3.82693
      vertex 17 18.4102 3.67536
      vertex 17 18.1477 3.82693
    endloop
  endfacet
  facet normal 0 0.669074 -0.743196
    outer loop
      vertex 17 17.9224 5.97024
      vertex 28.2 18.1477 6.17307
      vertex 28.2 17.9224 5.97024
    endloop
  endfacet
  facet normal 0 0.669074 -0.743196
    outer loop
      vertex 28.2 18.1477 6.17307
      vertex 17 17.9224 5.97024
      vertex 17 18.1477 6.17307
    endloop
  endfacet
  facet normal 0 1 -0
    outer loop
      vertex 28.2 17.5579 4.84843
      vertex 17 17.5579 5.15157
      vertex 28.2 17.5579 5.15157
    endloop
  endfacet
  facet normal 0 1 0
    outer loop
      vertex 17 17.5579 5.15157
      vertex 28.2 17.5579 4.84843
      vertex 17 17.5579 4.84843
    endloop
  endfacet
  facet normal 0 0.809138 -0.587618
    outer loop
      vertex 28.2 17.7443 5.725
      vertex 17 17.9224 5.97024
      vertex 28.2 17.9224 5.97024
    endloop
  endfacet
  facet normal 0 0.809138 -0.587618
    outer loop
      vertex 17 17.9224 5.97024
      vertex 28.2 17.7443 5.725
      vertex 17 17.7443 5.725
    endloop
  endfacet
  facet normal 0 -0.809138 -0.587618
    outer loop
      vertex 17 20.2557 5.725
      vertex 28.2 20.0776 5.97024
      vertex 17 20.0776 5.97024
    endloop
  endfacet
  facet normal 0 -0.809138 -0.587618
    outer loop
      vertex 28.2 20.0776 5.97024
      vertex 17 20.2557 5.725
      vertex 28.2 20.2557 5.725
    endloop
  endfacet
  facet normal 0 0.309004 -0.951061
    outer loop
      vertex 17 18.4102 6.32464
      vertex 28.2 18.6985 6.41831
      vertex 28.2 18.4102 6.32464
    endloop
  endfacet
  facet normal 0 0.309004 -0.951061
    outer loop
      vertex 28.2 18.6985 6.41831
      vertex 17 18.4102 6.32464
      vertex 17 18.6985 6.41831
    endloop
  endfacet
  facet normal 0 -0.978096 -0.208155
    outer loop
      vertex 17 20.4421 5.15157
      vertex 28.2 20.379 5.44807
      vertex 17 20.379 5.44807
    endloop
  endfacet
  facet normal 0 -0.978096 -0.208155
    outer loop
      vertex 28.2 20.379 5.44807
      vertex 17 20.4421 5.15157
      vertex 28.2 20.4421 5.15157
    endloop
  endfacet
  facet normal 0 0.978096 -0.208155
    outer loop
      vertex 28.2 17.5579 5.15157
      vertex 17 17.621 5.44807
      vertex 28.2 17.621 5.44807
    endloop
  endfacet
  facet normal 0 0.978096 -0.208155
    outer loop
      vertex 17 17.621 5.44807
      vertex 28.2 17.5579 5.15157
      vertex 17 17.5579 5.15157
    endloop
  endfacet
  facet normal 0 -0.309004 -0.951061
    outer loop
      vertex 17 19.3015 6.41831
      vertex 28.2 19.5898 6.32464
      vertex 28.2 19.3015 6.41831
    endloop
  endfacet
  facet normal -0 -0.309004 -0.951061
    outer loop
      vertex 28.2 19.5898 6.32464
      vertex 17 19.3015 6.41831
      vertex 17 19.5898 6.32464
    endloop
  endfacet
  facet normal 0 0.104532 -0.994522
    outer loop
      vertex 17 18.6985 6.41831
      vertex 28.2 19 6.45
      vertex 28.2 18.6985 6.41831
    endloop
  endfacet
  facet normal 0 0.104532 -0.994522
    outer loop
      vertex 28.2 19 6.45
      vertex 17 18.6985 6.41831
      vertex 17 19 6.45
    endloop
  endfacet
endsolid OpenSCAD_Model
