solid OpenSCAD_Model
  facet normal 0.079986 -0.298495 -0.951053
    outer loop
      vertex -7.28408 27.1845 20.3798
      vertex -1.77155 29.7937 20.0245
      vertex -1.48852 28.7375 20.3798
    endloop
  endfacet
  facet normal 0.0799748 -0.298473 -0.951062
    outer loop
      vertex -1.77155 29.7937 20.0245
      vertex -7.28408 27.1845 20.3798
      vertex -7.56711 28.2408 20.0245
    endloop
  endfacet
  facet normal 0.0270553 -0.100972 -0.994521
    outer loop
      vertex -6.98811 26.08 20.5
      vertex -1.48852 28.7375 20.3798
      vertex -1.19256 27.6329 20.5
    endloop
  endfacet
  facet normal 0.027059 -0.10098 -0.99452
    outer loop
      vertex -1.48852 28.7375 20.3798
      vertex -6.98811 26.08 20.5
      vertex -7.28408 27.1845 20.3798
    endloop
  endfacet
  facet normal -0.0799749 0.298473 -0.951061
    outer loop
      vertex -6.40912 23.9192 20.0245
      vertex -0.896596 26.5284 20.3798
      vertex -0.613568 25.4721 20.0245
    endloop
  endfacet
  facet normal -0.079986 0.298495 -0.951053
    outer loop
      vertex -0.896596 26.5284 20.3798
      vertex -6.40912 23.9192 20.0245
      vertex -6.69215 24.9754 20.3798
    endloop
  endfacet
  facet normal -0.209387 0.781451 0.587785
    outer loop
      vertex -0.134689 23.6849 11.3198
      vertex -5.75532 21.4792 12.25
      vertex 0.0402318 23.0321 12.25
    endloop
  endfacet
  facet normal -0.209387 0.781451 0.587785
    outer loop
      vertex -5.75532 21.4792 12.25
      vertex -0.134689 23.6849 11.3198
      vertex -5.93024 22.132 11.3198
    endloop
  endfacet
  facet normal -0.253162 0.944821 -0.207898
    outer loop
      vertex -5.57241 20.7965 15.5749
      vertex 0.161274 22.5803 16.6996
      vertex 0.223147 22.3494 15.5749
    endloop
  endfacet
  facet normal -0.253162 0.944821 -0.207898
    outer loop
      vertex 0.161274 22.5803 16.6996
      vertex -5.57241 20.7965 15.5749
      vertex -5.63428 21.0274 16.6996
    endloop
  endfacet
  facet normal -0.129401 0.482937 0.866041
    outer loop
      vertex -0.613568 25.4721 9.9755
      vertex -6.1514 22.9573 10.5504
      vertex -0.355844 24.5102 10.5504
    endloop
  endfacet
  facet normal -0.129402 0.482937 0.866041
    outer loop
      vertex -6.1514 22.9573 10.5504
      vertex -0.613568 25.4721 9.9755
      vertex -6.40912 23.9192 9.9755
    endloop
  endfacet
  facet normal 0.253162 -0.944821 -0.207898
    outer loop
      vertex -2.60827 32.9164 15.5749
      vertex -8.34195 31.1326 16.6996
      vertex -8.40382 31.3635 15.5749
    endloop
  endfacet
  facet normal 0.253162 -0.944821 -0.2079
    outer loop
      vertex -8.34195 31.1326 16.6996
      vertex -2.60827 32.9164 15.5749
      vertex -2.54639 32.6855 16.6996
    endloop
  endfacet
  facet normal -0.253162 0.944821 0.207898
    outer loop
      vertex 0.161274 22.5803 13.3004
      vertex -5.57241 20.7965 14.4251
      vertex 0.223147 22.3494 14.4251
    endloop
  endfacet
  facet normal -0.253162 0.944821 0.207898
    outer loop
      vertex -5.57241 20.7965 14.4251
      vertex 0.161274 22.5803 13.3004
      vertex -5.63428 21.0274 13.3004
    endloop
  endfacet
  facet normal 0.209387 -0.78145 -0.587786
    outer loop
      vertex -2.42535 32.2337 17.75
      vertex -8.04598 30.028 18.6802
      vertex -8.22091 30.6808 17.75
    endloop
  endfacet
  facet normal 0.209387 -0.781451 -0.587785
    outer loop
      vertex -8.04598 30.028 18.6802
      vertex -2.42535 32.2337 17.75
      vertex -2.25043 31.5809 18.6802
    endloop
  endfacet
  facet normal 0.236435 -0.882398 -0.406783
    outer loop
      vertex -2.54639 32.6855 16.6996
      vertex -8.22091 30.6808 17.75
      vertex -8.34195 31.1326 16.6996
    endloop
  endfacet
  facet normal 0.236435 -0.882398 -0.406783
    outer loop
      vertex -8.22091 30.6808 17.75
      vertex -2.54639 32.6855 16.6996
      vertex -2.42535 32.2337 17.75
    endloop
  endfacet
  facet normal 0.079988 -0.298503 0.951051
    outer loop
      vertex -1.77155 29.7937 9.9755
      vertex -7.28408 27.1845 9.62019
      vertex -1.48852 28.7375 9.62019
    endloop
  endfacet
  facet normal 0.0799768 -0.29848 0.951059
    outer loop
      vertex -7.28408 27.1845 9.62019
      vertex -1.77155 29.7937 9.9755
      vertex -7.56711 28.2408 9.9755
    endloop
  endfacet
  facet normal -0.236436 0.882397 0.406784
    outer loop
      vertex 0.0402318 23.0321 12.25
      vertex -5.63428 21.0274 13.3004
      vertex 0.161274 22.5803 13.3004
    endloop
  endfacet
  facet normal -0.236436 0.882398 0.406783
    outer loop
      vertex -5.63428 21.0274 13.3004
      vertex 0.0402318 23.0321 12.25
      vertex -5.75532 21.4792 12.25
    endloop
  endfacet
  facet normal 0.129401 -0.482937 0.866041
    outer loop
      vertex -2.02927 30.7556 10.5504
      vertex -7.56711 28.2408 9.9755
      vertex -1.77155 29.7937 9.9755
    endloop
  endfacet
  facet normal 0.129401 -0.482937 0.866041
    outer loop
      vertex -7.56711 28.2408 9.9755
      vertex -2.02927 30.7556 10.5504
      vertex -7.82483 29.2027 10.5504
    endloop
  endfacet
  facet normal -0.209387 0.781451 -0.587785
    outer loop
      vertex -5.75532 21.4792 17.75
      vertex -0.134689 23.6849 18.6802
      vertex 0.0402318 23.0321 17.75
    endloop
  endfacet
  facet normal -0.209387 0.781451 -0.587785
    outer loop
      vertex -0.134689 23.6849 18.6802
      vertex -5.75532 21.4792 17.75
      vertex -5.93024 22.132 18.6802
    endloop
  endfacet
  facet normal 0.253162 -0.944821 0.207898
    outer loop
      vertex -8.34195 31.1326 13.3004
      vertex -2.60827 32.9164 14.4251
      vertex -8.40382 31.3635 14.4251
    endloop
  endfacet
  facet normal 0.253162 -0.944821 0.2079
    outer loop
      vertex -2.60827 32.9164 14.4251
      vertex -8.34195 31.1326 13.3004
      vertex -2.54639 32.6855 13.3004
    endloop
  endfacet
  facet normal -0.0270591 0.10098 -0.99452
    outer loop
      vertex -6.69215 24.9754 20.3798
      vertex -1.19256 27.6329 20.5
      vertex -0.896596 26.5284 20.3798
    endloop
  endfacet
  facet normal -0.0270553 0.100972 -0.994521
    outer loop
      vertex -1.19256 27.6329 20.5
      vertex -6.69215 24.9754 20.3798
      vertex -6.98811 26.08 20.5
    endloop
  endfacet
  facet normal 0.258817 -0.965926 0
    outer loop
      vertex -8.40382 31.3635 14.4251
      vertex -2.60827 32.9164 15.5749
      vertex -8.40382 31.3635 15.5749
    endloop
  endfacet
  facet normal 0.258817 -0.965926 0
    outer loop
      vertex -2.60827 32.9164 15.5749
      vertex -8.40382 31.3635 14.4251
      vertex -2.60827 32.9164 14.4251
    endloop
  endfacet
  facet normal -0.129401 0.482937 -0.866041
    outer loop
      vertex -6.1514 22.9573 19.4496
      vertex -0.613568 25.4721 20.0245
      vertex -0.355844 24.5102 19.4496
    endloop
  endfacet
  facet normal -0.129402 0.482937 -0.866041
    outer loop
      vertex -0.613568 25.4721 20.0245
      vertex -6.1514 22.9573 19.4496
      vertex -6.40912 23.9192 20.0245
    endloop
  endfacet
  facet normal 0.209387 -0.78145 0.587786
    outer loop
      vertex -8.04598 30.028 11.3198
      vertex -2.42535 32.2337 12.25
      vertex -8.22091 30.6808 12.25
    endloop
  endfacet
  facet normal 0.209387 -0.781451 0.587785
    outer loop
      vertex -2.42535 32.2337 12.25
      vertex -8.04598 30.028 11.3198
      vertex -2.25043 31.5809 11.3198
    endloop
  endfacet
  facet normal -0.236436 0.882397 -0.406784
    outer loop
      vertex -5.63428 21.0274 16.6996
      vertex 0.0402318 23.0321 17.75
      vertex 0.161274 22.5803 16.6996
    endloop
  endfacet
  facet normal -0.236436 0.882398 -0.406783
    outer loop
      vertex 0.0402318 23.0321 17.75
      vertex -5.63428 21.0274 16.6996
      vertex -5.75532 21.4792 17.75
    endloop
  endfacet
  facet normal 0.236435 -0.882398 0.406783
    outer loop
      vertex -8.22091 30.6808 12.25
      vertex -2.54639 32.6855 13.3004
      vertex -8.34195 31.1326 13.3004
    endloop
  endfacet
  facet normal 0.236435 -0.882398 0.406783
    outer loop
      vertex -2.54639 32.6855 13.3004
      vertex -8.22091 30.6808 12.25
      vertex -2.42535 32.2337 12.25
    endloop
  endfacet
  facet normal -0.173192 0.646367 -0.743111
    outer loop
      vertex -5.93024 22.132 18.6802
      vertex -0.355844 24.5102 19.4496
      vertex -0.134689 23.6849 18.6802
    endloop
  endfacet
  facet normal -0.173192 0.646367 -0.743111
    outer loop
      vertex -0.355844 24.5102 19.4496
      vertex -5.93024 22.132 18.6802
      vertex -6.1514 22.9573 19.4496
    endloop
  endfacet
  facet normal 0.173192 -0.646367 -0.743111
    outer loop
      vertex -7.82483 29.2027 19.4496
      vertex -2.25043 31.5809 18.6802
      vertex -2.02927 30.7556 19.4496
    endloop
  endfacet
  facet normal 0.173192 -0.646368 -0.74311
    outer loop
      vertex -2.25043 31.5809 18.6802
      vertex -7.82483 29.2027 19.4496
      vertex -8.04598 30.028 18.6802
    endloop
  endfacet
  facet normal 0.027053 -0.100964 0.994522
    outer loop
      vertex -1.48852 28.7375 9.62019
      vertex -6.98811 26.08 9.5
      vertex -1.19256 27.6329 9.5
    endloop
  endfacet
  facet normal 0.0270568 -0.100972 0.994521
    outer loop
      vertex -6.98811 26.08 9.5
      vertex -1.48852 28.7375 9.62019
      vertex -7.28408 27.1845 9.62019
    endloop
  endfacet
  facet normal 0.129401 -0.482937 -0.866041
    outer loop
      vertex -7.56711 28.2408 20.0245
      vertex -2.02927 30.7556 19.4496
      vertex -1.77155 29.7937 20.0245
    endloop
  endfacet
  facet normal 0.129401 -0.482937 -0.866041
    outer loop
      vertex -2.02927 30.7556 19.4496
      vertex -7.56711 28.2408 20.0245
      vertex -7.82483 29.2027 19.4496
    endloop
  endfacet
  facet normal 0.173192 -0.646367 0.743111
    outer loop
      vertex -2.25043 31.5809 11.3198
      vertex -7.82483 29.2027 10.5504
      vertex -2.02927 30.7556 10.5504
    endloop
  endfacet
  facet normal 0.173192 -0.646368 0.74311
    outer loop
      vertex -7.82483 29.2027 10.5504
      vertex -2.25043 31.5809 11.3198
      vertex -8.04598 30.028 11.3198
    endloop
  endfacet
  facet normal -0.258817 0.965926 0
    outer loop
      vertex 0.223147 22.3494 14.4251
      vertex -5.57241 20.7965 15.5749
      vertex 0.223147 22.3494 15.5749
    endloop
  endfacet
  facet normal -0.258817 0.965926 0
    outer loop
      vertex -5.57241 20.7965 15.5749
      vertex 0.223147 22.3494 14.4251
      vertex -5.57241 20.7965 14.4251
    endloop
  endfacet
  facet normal -0.0799769 0.298481 0.951059
    outer loop
      vertex -0.896596 26.5284 9.62019
      vertex -6.40912 23.9192 9.9755
      vertex -0.613568 25.4721 9.9755
    endloop
  endfacet
  facet normal -0.0799881 0.298503 0.951051
    outer loop
      vertex -6.40912 23.9192 9.9755
      vertex -0.896596 26.5284 9.62019
      vertex -6.69215 24.9754 9.62019
    endloop
  endfacet
  facet normal -0.173192 0.646367 0.743111
    outer loop
      vertex -0.355844 24.5102 10.5504
      vertex -5.93024 22.132 11.3198
      vertex -0.134689 23.6849 11.3198
    endloop
  endfacet
  facet normal -0.173192 0.646367 0.743111
    outer loop
      vertex -5.93024 22.132 11.3198
      vertex -0.355844 24.5102 10.5504
      vertex -6.1514 22.9573 10.5504
    endloop
  endfacet
  facet normal -0.965926 -0.258817 -9.44589e-06
    outer loop
      vertex -1.99255 30.6185 13.9957
      vertex -2.60827 32.9164 14.4251
      vertex -2.54639 32.6855 13.3004
    endloop
  endfacet
  facet normal -0.965924 -0.258825 0
    outer loop
      vertex -2.60827 32.9164 14.4251
      vertex -2.02911 30.755 14.6603
      vertex -2.60827 32.9164 15.5749
    endloop
  endfacet
  facet normal -0.965927 -0.258816 1.64763e-05
    outer loop
      vertex -1.92103 30.3516 13.375
      vertex -2.54639 32.6855 13.3004
      vertex -2.42535 32.2337 12.25
    endloop
  endfacet
  facet normal -0.965924 -0.258825 -0
    outer loop
      vertex -2.02911 30.755 15.3397
      vertex -2.60827 32.9164 15.5749
      vertex -2.02911 30.755 14.6603
    endloop
  endfacet
  facet normal -0.965925 -0.258822 -4.0267e-07
    outer loop
      vertex -1.81766 29.9658 12.8253
      vertex -2.42535 32.2337 12.25
      vertex -2.25043 31.5809 11.3198
    endloop
  endfacet
  facet normal -0.965925 -0.258823 -2.27286e-05
    outer loop
      vertex -1.99255 30.6185 16.0043
      vertex -2.60827 32.9164 15.5749
      vertex -2.02911 30.755 15.3397
    endloop
  endfacet
  facet normal -0.965923 -0.258829 -1.55324e-05
    outer loop
      vertex -1.68698 29.4781 12.3707
      vertex -2.25043 31.5809 11.3198
      vertex -2.02927 30.7556 10.5504
    endloop
  endfacet
  facet normal -0.965926 -0.258817 9.44589e-06
    outer loop
      vertex -2.60827 32.9164 15.5749
      vertex -1.99255 30.6185 16.0043
      vertex -2.54639 32.6855 16.6996
    endloop
  endfacet
  facet normal -0.965926 -0.258817 7.856e-06
    outer loop
      vertex -1.92103 30.3516 16.625
      vertex -2.54639 32.6855 16.6996
      vertex -1.99255 30.6185 16.0043
    endloop
  endfacet
  facet normal -0.965925 -0.258823 2.27286e-05
    outer loop
      vertex -2.60827 32.9164 14.4251
      vertex -1.99255 30.6185 13.9957
      vertex -2.02911 30.755 14.6603
    endloop
  endfacet
  facet normal -0.965926 -0.258817 -7.856e-06
    outer loop
      vertex -2.54639 32.6855 13.3004
      vertex -1.92103 30.3516 13.375
      vertex -1.99255 30.6185 13.9957
    endloop
  endfacet
  facet normal -0.965926 -0.25882 9.19415e-06
    outer loop
      vertex -2.42535 32.2337 12.25
      vertex -1.81766 29.9658 12.8253
      vertex -1.92103 30.3516 13.375
    endloop
  endfacet
  facet normal -0.965929 -0.258808 1.43513e-05
    outer loop
      vertex -1.53469 28.9098 12.031
      vertex -2.02927 30.7556 10.5504
      vertex -1.77155 29.7937 9.9755
    endloop
  endfacet
  facet normal -0.965925 -0.258822 4.34794e-07
    outer loop
      vertex -2.25043 31.5809 11.3198
      vertex -1.68698 29.4781 12.3707
      vertex -1.81766 29.9658 12.8253
    endloop
  endfacet
  facet normal -0.965922 -0.258832 -1.7805e-05
    outer loop
      vertex -2.02927 30.7556 10.5504
      vertex -1.53469 28.9098 12.031
      vertex -1.68698 29.4781 12.3707
    endloop
  endfacet
  facet normal -0.965922 -0.258835 -1.05425e-05
    outer loop
      vertex -1.36745 28.2856 11.821
      vertex -1.77155 29.7937 9.9755
      vertex -1.48852 28.7375 9.62019
    endloop
  endfacet
  facet normal -0.96593 -0.258804 1.61635e-05
    outer loop
      vertex -1.77155 29.7937 9.9755
      vertex -1.36745 28.2856 11.821
      vertex -1.53469 28.9098 12.031
    endloop
  endfacet
  facet normal -0.965929 -0.258805 -0
    outer loop
      vertex -1.19256 27.6329 11.75
      vertex -1.48852 28.7375 9.62019
      vertex -1.19256 27.6329 9.5
    endloop
  endfacet
  facet normal -0.965926 -0.258818 -6.84181e-06
    outer loop
      vertex -1.48852 28.7375 9.62019
      vertex -1.19256 27.6329 11.75
      vertex -1.36745 28.2856 11.821
    endloop
  endfacet
  facet normal -0.965923 -0.258831 0
    outer loop
      vertex -0.896596 26.5284 9.62019
      vertex -1.19256 27.6329 11.75
      vertex -1.19256 27.6329 9.5
    endloop
  endfacet
  facet normal -0.965926 -0.258819 -6.37866e-06
    outer loop
      vertex -1.19256 27.6329 11.75
      vertex -0.896596 26.5284 9.62019
      vertex -1.01767 26.9802 11.821
    endloop
  endfacet
  facet normal -0.965927 -0.258816 -7.15757e-06
    outer loop
      vertex -0.613568 25.4721 9.9755
      vertex -1.01767 26.9802 11.821
      vertex -0.896596 26.5284 9.62019
    endloop
  endfacet
  facet normal -0.965921 -0.258837 1.15781e-05
    outer loop
      vertex -1.01767 26.9802 11.821
      vertex -0.613568 25.4721 9.9755
      vertex -0.850428 26.3561 12.031
    endloop
  endfacet
  facet normal -0.965929 -0.258805 -2.96067e-06
    outer loop
      vertex -0.355844 24.5102 10.5504
      vertex -0.850428 26.3561 12.031
      vertex -0.613568 25.4721 9.9755
    endloop
  endfacet
  facet normal -0.96593 -0.258804 -4.99117e-06
    outer loop
      vertex -0.850428 26.3561 12.031
      vertex -0.355844 24.5102 10.5504
      vertex -0.698137 25.7877 12.3707
    endloop
  endfacet
  facet normal -0.965924 -0.258827 1.20875e-05
    outer loop
      vertex -0.134689 23.6849 11.3198
      vertex -0.698137 25.7877 12.3707
      vertex -0.355844 24.5102 10.5504
    endloop
  endfacet
  facet normal -0.965925 -0.258823 4.35636e-06
    outer loop
      vertex -0.698137 25.7877 12.3707
      vertex -0.134689 23.6849 11.3198
      vertex -0.567454 25.3 12.8253
    endloop
  endfacet
  facet normal -0.965925 -0.258821 2.17352e-06
    outer loop
      vertex 0.0402318 23.0321 12.25
      vertex -0.567454 25.3 12.8253
      vertex -0.134689 23.6849 11.3198
    endloop
  endfacet
  facet normal -0.965926 -0.258818 -1.55343e-05
    outer loop
      vertex 0.161274 22.5803 13.3004
      vertex -0.464092 24.9142 13.375
      vertex 0.0402318 23.0321 12.25
    endloop
  endfacet
  facet normal -0.965927 -0.258816 -2.00614e-05
    outer loop
      vertex -0.567454 25.3 12.8253
      vertex 0.0402318 23.0321 12.25
      vertex -0.464092 24.9142 13.375
    endloop
  endfacet
  facet normal -0.965927 -0.258816 -1.64763e-05
    outer loop
      vertex -2.54639 32.6855 16.6996
      vertex -1.92103 30.3516 16.625
      vertex -2.42535 32.2337 17.75
    endloop
  endfacet
  facet normal -0.965926 -0.25882 -9.19415e-06
    outer loop
      vertex -1.81766 29.9658 17.1747
      vertex -2.42535 32.2337 17.75
      vertex -1.92103 30.3516 16.625
    endloop
  endfacet
  facet normal -0.965925 -0.258822 4.0267e-07
    outer loop
      vertex -2.42535 32.2337 17.75
      vertex -1.81766 29.9658 17.1747
      vertex -2.25043 31.5809 18.6802
    endloop
  endfacet
  facet normal -0.965925 -0.258822 -4.34794e-07
    outer loop
      vertex -1.68698 29.4781 17.6293
      vertex -2.25043 31.5809 18.6802
      vertex -1.81766 29.9658 17.1747
    endloop
  endfacet
  facet normal -0.965923 -0.258829 1.55324e-05
    outer loop
      vertex -2.25043 31.5809 18.6802
      vertex -1.68698 29.4781 17.6293
      vertex -2.02927 30.7556 19.4496
    endloop
  endfacet
  facet normal -0.965922 -0.258832 1.7805e-05
    outer loop
      vertex -1.53469 28.9098 17.969
      vertex -2.02927 30.7556 19.4496
      vertex -1.68698 29.4781 17.6293
    endloop
  endfacet
  facet normal -0.965929 -0.258808 -1.43513e-05
    outer loop
      vertex -2.02927 30.7556 19.4496
      vertex -1.53469 28.9098 17.969
      vertex -1.77155 29.7937 20.0245
    endloop
  endfacet
  facet normal -0.96593 -0.258804 -1.61635e-05
    outer loop
      vertex -1.36745 28.2856 18.179
      vertex -1.77155 29.7937 20.0245
      vertex -1.53469 28.9098 17.969
    endloop
  endfacet
  facet normal -0.965922 -0.258835 1.05425e-05
    outer loop
      vertex -1.77155 29.7937 20.0245
      vertex -1.36745 28.2856 18.179
      vertex -1.48852 28.7375 20.3798
    endloop
  endfacet
  facet normal -0.965926 -0.258818 6.84184e-06
    outer loop
      vertex -1.19256 27.6329 18.25
      vertex -1.48852 28.7375 20.3798
      vertex -1.36745 28.2856 18.179
    endloop
  endfacet
  facet normal -0.965929 -0.258805 0
    outer loop
      vertex -1.19256 27.6329 18.25
      vertex -1.19256 27.6329 20.5
      vertex -1.48852 28.7375 20.3798
    endloop
  endfacet
  facet normal -0.965926 -0.258819 6.37869e-06
    outer loop
      vertex -0.896596 26.5284 20.3798
      vertex -1.19256 27.6329 18.25
      vertex -1.01767 26.9802 18.179
    endloop
  endfacet
  facet normal -0.965923 -0.258831 0
    outer loop
      vertex -1.19256 27.6329 18.25
      vertex -0.896596 26.5284 20.3798
      vertex -1.19256 27.6329 20.5
    endloop
  endfacet
  facet normal -0.965921 -0.258837 -1.15781e-05
    outer loop
      vertex -0.613568 25.4721 20.0245
      vertex -1.01767 26.9802 18.179
      vertex -0.850428 26.3561 17.969
    endloop
  endfacet
  facet normal -0.96593 -0.258804 4.99117e-06
    outer loop
      vertex -0.355844 24.5102 19.4496
      vertex -0.850428 26.3561 17.969
      vertex -0.698137 25.7877 17.6293
    endloop
  endfacet
  facet normal -0.965927 -0.258816 7.15761e-06
    outer loop
      vertex -1.01767 26.9802 18.179
      vertex -0.613568 25.4721 20.0245
      vertex -0.896596 26.5284 20.3798
    endloop
  endfacet
  facet normal -0.965925 -0.258823 -4.35636e-06
    outer loop
      vertex -0.134689 23.6849 18.6802
      vertex -0.698137 25.7877 17.6293
      vertex -0.567454 25.3 17.1747
    endloop
  endfacet
  facet normal -0.965927 -0.258816 2.00614e-05
    outer loop
      vertex 0.0402318 23.0321 17.75
      vertex -0.567454 25.3 17.1747
      vertex -0.464092 24.9142 16.625
    endloop
  endfacet
  facet normal -0.965926 -0.258819 -1.44781e-05
    outer loop
      vertex 0.161274 22.5803 16.6996
      vertex -0.464092 24.9142 16.625
      vertex -0.392567 24.6473 16.0043
    endloop
  endfacet
  facet normal -0.965928 -0.258813 -2.13298e-05
    outer loop
      vertex 0.223147 22.3494 15.5749
      vertex -0.392567 24.6473 16.0043
      vertex -0.356005 24.5109 15.3397
    endloop
  endfacet
  facet normal -0.965929 -0.258805 2.96067e-06
    outer loop
      vertex -0.850428 26.3561 17.969
      vertex -0.355844 24.5102 19.4496
      vertex -0.613568 25.4721 20.0245
    endloop
  endfacet
  facet normal -0.965926 -0.258819 1.44781e-05
    outer loop
      vertex -0.464092 24.9142 13.375
      vertex 0.161274 22.5803 13.3004
      vertex -0.392567 24.6473 13.9957
    endloop
  endfacet
  facet normal -0.965927 -0.258816 3.73269e-06
    outer loop
      vertex 0.223147 22.3494 14.4251
      vertex -0.392567 24.6473 13.9957
      vertex 0.161274 22.5803 13.3004
    endloop
  endfacet
  facet normal -0.965924 -0.258827 -1.20875e-05
    outer loop
      vertex -0.698137 25.7877 17.6293
      vertex -0.134689 23.6849 18.6802
      vertex -0.355844 24.5102 19.4496
    endloop
  endfacet
  facet normal -0.965928 -0.258813 2.13298e-05
    outer loop
      vertex -0.392567 24.6473 13.9957
      vertex 0.223147 22.3494 14.4251
      vertex -0.356005 24.5109 14.6603
    endloop
  endfacet
  facet normal -0.965925 -0.258821 -2.17352e-06
    outer loop
      vertex -0.567454 25.3 17.1747
      vertex 0.0402318 23.0321 17.75
      vertex -0.134689 23.6849 18.6802
    endloop
  endfacet
  facet normal -0.965928 -0.258811 0
    outer loop
      vertex -0.356005 24.5109 14.6603
      vertex 0.223147 22.3494 14.4251
      vertex -0.356005 24.5109 15.3397
    endloop
  endfacet
  facet normal -0.965926 -0.258818 1.55343e-05
    outer loop
      vertex -0.464092 24.9142 16.625
      vertex 0.161274 22.5803 16.6996
      vertex 0.0402318 23.0321 17.75
    endloop
  endfacet
  facet normal -0.965928 -0.258811 -0
    outer loop
      vertex 0.223147 22.3494 15.5749
      vertex -0.356005 24.5109 15.3397
      vertex 0.223147 22.3494 14.4251
    endloop
  endfacet
  facet normal -0.965927 -0.258816 -3.73269e-06
    outer loop
      vertex -0.392567 24.6473 16.0043
      vertex 0.223147 22.3494 15.5749
      vertex 0.161274 22.5803 16.6996
    endloop
  endfacet
  facet normal -0.0270569 0.100972 0.994521
    outer loop
      vertex -1.19256 27.6329 9.5
      vertex -6.69215 24.9754 9.62019
      vertex -0.896596 26.5284 9.62019
    endloop
  endfacet
  facet normal -0.027053 0.100964 0.994522
    outer loop
      vertex -6.69215 24.9754 9.62019
      vertex -1.19256 27.6329 9.5
      vertex -6.98811 26.08 9.5
    endloop
  endfacet
  facet normal 0.0800053 -0.298568 -0.951029
    outer loop
      vertex -1.36745 28.2856 18.179
      vertex 1.36309 29.6862 17.969
      vertex 1.53033 29.0621 18.179
    endloop
  endfacet
  facet normal 0.0799849 -0.29853 -0.951043
    outer loop
      vertex 1.36309 29.6862 17.969
      vertex -1.36745 28.2856 18.179
      vertex -1.53469 28.9098 17.969
    endloop
  endfacet
  facet normal 0.0270472 -0.100936 -0.994525
    outer loop
      vertex -1.19256 27.6329 18.25
      vertex 1.53033 29.0621 18.179
      vertex 1.70522 28.4094 18.25
    endloop
  endfacet
  facet normal 0.0270472 -0.100936 -0.994525
    outer loop
      vertex 1.53033 29.0621 18.179
      vertex -1.19256 27.6329 18.25
      vertex -1.36745 28.2856 18.179
    endloop
  endfacet
  facet normal 0.129389 -0.482922 -0.866051
    outer loop
      vertex -1.53469 28.9098 17.969
      vertex 1.2108 30.2546 17.6293
      vertex 1.36309 29.6862 17.969
    endloop
  endfacet
  facet normal 0.12942 -0.482977 -0.866016
    outer loop
      vertex 1.2108 30.2546 17.6293
      vertex -1.53469 28.9098 17.969
      vertex -1.68698 29.4781 17.6293
    endloop
  endfacet
  facet normal -0.23646 0.882433 -0.406691
    outer loop
      vertex -0.392567 24.6473 16.0043
      vertex 2.43369 25.6907 16.625
      vertex 2.50521 25.4238 16.0043
    endloop
  endfacet
  facet normal -0.23646 0.882433 -0.406693
    outer loop
      vertex 2.43369 25.6907 16.625
      vertex -0.392567 24.6473 16.0043
      vertex -0.464092 24.9142 16.625
    endloop
  endfacet
  facet normal -0.0270472 0.100936 -0.994525
    outer loop
      vertex -1.01767 26.9802 18.179
      vertex 1.70522 28.4094 18.25
      vertex 1.88011 27.7567 18.179
    endloop
  endfacet
  facet normal -0.0270472 0.100936 -0.994525
    outer loop
      vertex 1.70522 28.4094 18.25
      vertex -1.01767 26.9802 18.179
      vertex -1.19256 27.6329 18.25
    endloop
  endfacet
  facet normal 0.173188 -0.646312 -0.74316
    outer loop
      vertex -1.68698 29.4781 17.6293
      vertex 1.08011 30.7423 17.1747
      vertex 1.2108 30.2546 17.6293
    endloop
  endfacet
  facet normal 0.173189 -0.646314 -0.743158
    outer loop
      vertex 1.08011 30.7423 17.1747
      vertex -1.68698 29.4781 17.6293
      vertex -1.81766 29.9658 17.1747
    endloop
  endfacet
  facet normal 0.209369 -0.781435 0.587812
    outer loop
      vertex -1.81766 29.9658 12.8253
      vertex 0.976751 31.128 13.375
      vertex -1.92103 30.3516 13.375
    endloop
  endfacet
  facet normal 0.209413 -0.781496 0.587716
    outer loop
      vertex 0.976751 31.128 13.375
      vertex -1.81766 29.9658 12.8253
      vertex 1.08011 30.7423 12.8253
    endloop
  endfacet
  facet normal -0.0799849 0.29853 0.951043
    outer loop
      vertex 1.88011 27.7567 11.821
      vertex -0.850428 26.3561 12.031
      vertex 2.04735 27.1325 12.031
    endloop
  endfacet
  facet normal -0.0800052 0.298567 0.951029
    outer loop
      vertex -0.850428 26.3561 12.031
      vertex 1.88011 27.7567 11.821
      vertex -1.01767 26.9802 11.821
    endloop
  endfacet
  facet normal 0.0800053 -0.298568 0.951029
    outer loop
      vertex 1.36309 29.6862 12.031
      vertex -1.36745 28.2856 11.821
      vertex 1.53033 29.0621 11.821
    endloop
  endfacet
  facet normal 0.0799849 -0.29853 0.951043
    outer loop
      vertex -1.36745 28.2856 11.821
      vertex 1.36309 29.6862 12.031
      vertex -1.53469 28.9098 12.031
    endloop
  endfacet
  facet normal -0.258801 0.965931 0
    outer loop
      vertex 2.54177 25.2873 14.6603
      vertex -0.356005 24.5109 15.3397
      vertex 2.54177 25.2873 15.3397
    endloop
  endfacet
  facet normal -0.258801 0.965931 0
    outer loop
      vertex -0.356005 24.5109 15.3397
      vertex 2.54177 25.2873 14.6603
      vertex -0.356005 24.5109 14.6603
    endloop
  endfacet
  facet normal -0.23646 0.882433 0.406691
    outer loop
      vertex 2.43369 25.6907 13.375
      vertex -0.392567 24.6473 13.9957
      vertex 2.50521 25.4238 13.9957
    endloop
  endfacet
  facet normal -0.23646 0.882433 0.406693
    outer loop
      vertex -0.392567 24.6473 13.9957
      vertex 2.43369 25.6907 13.375
      vertex -0.464092 24.9142 13.375
    endloop
  endfacet
  facet normal -0.253142 0.944809 0.207977
    outer loop
      vertex 2.50521 25.4238 13.9957
      vertex -0.356005 24.5109 14.6603
      vertex 2.54177 25.2873 14.6603
    endloop
  endfacet
  facet normal -0.25318 0.944829 0.207841
    outer loop
      vertex -0.356005 24.5109 14.6603
      vertex 2.50521 25.4238 13.9957
      vertex -0.392567 24.6473 13.9957
    endloop
  endfacet
  facet normal 0.173188 -0.646312 0.74316
    outer loop
      vertex 1.08011 30.7423 12.8253
      vertex -1.68698 29.4781 12.3707
      vertex 1.2108 30.2546 12.3707
    endloop
  endfacet
  facet normal 0.173189 -0.646314 0.743158
    outer loop
      vertex -1.68698 29.4781 12.3707
      vertex 1.08011 30.7423 12.8253
      vertex -1.81766 29.9658 12.8253
    endloop
  endfacet
  facet normal -0.17315 0.646251 -0.743222
    outer loop
      vertex -0.567454 25.3 17.1747
      vertex 2.19964 26.5642 17.6293
      vertex 2.33032 26.0764 17.1747
    endloop
  endfacet
  facet normal -0.173189 0.646313 -0.743159
    outer loop
      vertex 2.19964 26.5642 17.6293
      vertex -0.567454 25.3 17.1747
      vertex -0.698137 25.7877 17.6293
    endloop
  endfacet
  facet normal -0.129421 0.482977 -0.866016
    outer loop
      vertex -0.698137 25.7877 17.6293
      vertex 2.04735 27.1325 17.969
      vertex 2.19964 26.5642 17.6293
    endloop
  endfacet
  facet normal -0.129389 0.482922 -0.866051
    outer loop
      vertex 2.04735 27.1325 17.969
      vertex -0.698137 25.7877 17.6293
      vertex -0.850428 26.3561 17.969
    endloop
  endfacet
  facet normal -0.209412 0.781494 -0.587719
    outer loop
      vertex -0.464092 24.9142 16.625
      vertex 2.33032 26.0764 17.1747
      vertex 2.43369 25.6907 16.625
    endloop
  endfacet
  facet normal -0.20937 0.781437 -0.58781
    outer loop
      vertex 2.33032 26.0764 17.1747
      vertex -0.464092 24.9142 16.625
      vertex -0.567454 25.3 17.1747
    endloop
  endfacet
  facet normal -0.0799849 0.29853 -0.951043
    outer loop
      vertex -0.850428 26.3561 17.969
      vertex 1.88011 27.7567 18.179
      vertex 2.04735 27.1325 17.969
    endloop
  endfacet
  facet normal -0.0800052 0.298567 -0.951029
    outer loop
      vertex 1.88011 27.7567 18.179
      vertex -0.850428 26.3561 17.969
      vertex -1.01767 26.9802 18.179
    endloop
  endfacet
  facet normal 0.253143 -0.944809 0.207977
    outer loop
      vertex -1.99255 30.6185 13.9957
      vertex 0.868664 31.5314 14.6603
      vertex -2.02911 30.755 14.6603
    endloop
  endfacet
  facet normal 0.25318 -0.944829 0.207841
    outer loop
      vertex 0.868664 31.5314 14.6603
      vertex -1.99255 30.6185 13.9957
      vertex 0.905226 31.395 13.9957
    endloop
  endfacet
  facet normal 0.236461 -0.882433 0.406691
    outer loop
      vertex -1.92103 30.3516 13.375
      vertex 0.905226 31.395 13.9957
      vertex -1.99255 30.6185 13.9957
    endloop
  endfacet
  facet normal 0.236418 -0.882389 0.406811
    outer loop
      vertex 0.905226 31.395 13.9957
      vertex -1.92103 30.3516 13.375
      vertex 0.976751 31.128 13.375
    endloop
  endfacet
  facet normal 0.209369 -0.781435 -0.587812
    outer loop
      vertex 0.976751 31.128 16.625
      vertex -1.81766 29.9658 17.1747
      vertex -1.92103 30.3516 16.625
    endloop
  endfacet
  facet normal 0.209413 -0.781496 -0.587716
    outer loop
      vertex -1.81766 29.9658 17.1747
      vertex 0.976751 31.128 16.625
      vertex 1.08011 30.7423 17.1747
    endloop
  endfacet
  facet normal 0.0270472 -0.100936 0.994525
    outer loop
      vertex 1.53033 29.0621 11.821
      vertex -1.19256 27.6329 11.75
      vertex 1.70522 28.4094 11.75
    endloop
  endfacet
  facet normal 0.0270472 -0.100936 0.994525
    outer loop
      vertex -1.19256 27.6329 11.75
      vertex 1.53033 29.0621 11.821
      vertex -1.36745 28.2856 11.821
    endloop
  endfacet
  facet normal 0.236461 -0.882433 -0.406691
    outer loop
      vertex 0.905226 31.395 16.0043
      vertex -1.92103 30.3516 16.625
      vertex -1.99255 30.6185 16.0043
    endloop
  endfacet
  facet normal 0.236418 -0.882389 -0.406811
    outer loop
      vertex -1.92103 30.3516 16.625
      vertex 0.905226 31.395 16.0043
      vertex 0.976751 31.128 16.625
    endloop
  endfacet
  facet normal -0.253142 0.944809 -0.207977
    outer loop
      vertex -0.356005 24.5109 15.3397
      vertex 2.50521 25.4238 16.0043
      vertex 2.54177 25.2873 15.3397
    endloop
  endfacet
  facet normal -0.25318 0.944829 -0.207841
    outer loop
      vertex 2.50521 25.4238 16.0043
      vertex -0.356005 24.5109 15.3397
      vertex -0.392567 24.6473 16.0043
    endloop
  endfacet
  facet normal -0.129421 0.482977 0.866016
    outer loop
      vertex 2.04735 27.1325 12.031
      vertex -0.698137 25.7877 12.3707
      vertex 2.19964 26.5642 12.3707
    endloop
  endfacet
  facet normal -0.129389 0.482922 0.866051
    outer loop
      vertex -0.698137 25.7877 12.3707
      vertex 2.04735 27.1325 12.031
      vertex -0.850428 26.3561 12.031
    endloop
  endfacet
  facet normal -0.0270472 0.100936 0.994525
    outer loop
      vertex 1.70522 28.4094 11.75
      vertex -1.01767 26.9802 11.821
      vertex 1.88011 27.7567 11.821
    endloop
  endfacet
  facet normal -0.0270472 0.100936 0.994525
    outer loop
      vertex -1.01767 26.9802 11.821
      vertex 1.70522 28.4094 11.75
      vertex -1.19256 27.6329 11.75
    endloop
  endfacet
  facet normal -0.17315 0.646251 0.743222
    outer loop
      vertex 2.19964 26.5642 12.3707
      vertex -0.567454 25.3 12.8253
      vertex 2.33032 26.0764 12.8253
    endloop
  endfacet
  facet normal -0.173189 0.646313 0.743159
    outer loop
      vertex -0.567454 25.3 12.8253
      vertex 2.19964 26.5642 12.3707
      vertex -0.698137 25.7877 12.3707
    endloop
  endfacet
  facet normal 0.258802 -0.965931 0
    outer loop
      vertex -2.02911 30.755 14.6603
      vertex 0.868664 31.5314 15.3397
      vertex -2.02911 30.755 15.3397
    endloop
  endfacet
  facet normal 0.258802 -0.965931 0
    outer loop
      vertex 0.868664 31.5314 15.3397
      vertex -2.02911 30.755 14.6603
      vertex 0.868664 31.5314 14.6603
    endloop
  endfacet
  facet normal 0.253143 -0.944809 -0.207977
    outer loop
      vertex 0.868664 31.5314 15.3397
      vertex -1.99255 30.6185 16.0043
      vertex -2.02911 30.755 15.3397
    endloop
  endfacet
  facet normal 0.25318 -0.944829 -0.207841
    outer loop
      vertex -1.99255 30.6185 16.0043
      vertex 0.868664 31.5314 15.3397
      vertex 0.905226 31.395 16.0043
    endloop
  endfacet
  facet normal -0.209412 0.781494 0.587719
    outer loop
      vertex 2.33032 26.0764 12.8253
      vertex -0.464092 24.9142 13.375
      vertex 2.43369 25.6907 13.375
    endloop
  endfacet
  facet normal -0.20937 0.781437 0.58781
    outer loop
      vertex -0.464092 24.9142 13.375
      vertex 2.33032 26.0764 12.8253
      vertex -0.567454 25.3 12.8253
    endloop
  endfacet
  facet normal 0.129389 -0.482922 0.866051
    outer loop
      vertex 1.2108 30.2546 12.3707
      vertex -1.53469 28.9098 12.031
      vertex 1.36309 29.6862 12.031
    endloop
  endfacet
  facet normal 0.12942 -0.482977 0.866016
    outer loop
      vertex -1.53469 28.9098 12.031
      vertex 1.2108 30.2546 12.3707
      vertex -1.68698 29.4781 12.3707
    endloop
  endfacet
  facet normal 0.965927 0.258815 -0
    outer loop
      vertex 0.868664 31.5314 14.6603
      vertex -0.44298 36.4266 23
      vertex 0.868664 31.5314 15.3397
    endloop
  endfacet
  facet normal 0.965921 0.258838 -1.57445e-05
    outer loop
      vertex -0.44298 36.4266 23
      vertex 0.905226 31.395 16.0043
      vertex 0.868664 31.5314 15.3397
    endloop
  endfacet
  facet normal 0.965932 0.258796 1.66077e-05
    outer loop
      vertex -0.44298 36.4266 23
      vertex 0.976751 31.128 16.625
      vertex 0.905226 31.395 16.0043
    endloop
  endfacet
  facet normal 0.965923 0.258829 -1.21832e-05
    outer loop
      vertex -0.44298 36.4266 23
      vertex 1.08011 30.7423 17.1747
      vertex 0.976751 31.128 16.625
    endloop
  endfacet
  facet normal 0.965923 0.258829 -1.24943e-05
    outer loop
      vertex -0.44298 36.4266 23
      vertex 1.2108 30.2546 17.6293
      vertex 1.08011 30.7423 17.1747
    endloop
  endfacet
  facet normal 0.965929 0.258807 1.40072e-05
    outer loop
      vertex -0.44298 36.4266 23
      vertex 1.36309 29.6862 17.969
      vertex 1.2108 30.2546 17.6293
    endloop
  endfacet
  facet normal 0.965923 0.258831 -2.04004e-05
    outer loop
      vertex -0.44298 36.4266 23
      vertex 1.53033 29.0621 18.179
      vertex 1.36309 29.6862 17.969
    endloop
  endfacet
  facet normal 0.965926 0.258818 5.34879e-07
    outer loop
      vertex -0.44298 36.4266 23
      vertex 1.70522 28.4094 18.25
      vertex 1.53033 29.0621 18.179
    endloop
  endfacet
  facet normal 0.965926 0.258818 7.75457e-07
    outer loop
      vertex -0.44298 36.4266 23
      vertex 1.88011 27.7567 18.179
      vertex 1.70522 28.4094 18.25
    endloop
  endfacet
  facet normal 0.965926 0.258819 2.34877e-07
    outer loop
      vertex 8.69333 2.32937 23
      vertex 1.88011 27.7567 18.179
      vertex -0.44298 36.4266 23
    endloop
  endfacet
  facet normal 0.965926 0.258819 0
    outer loop
      vertex 2.54177 25.2873 15.3397
      vertex 8.69333 2.32937 23
      vertex 2.54177 25.2873 14.6603
    endloop
  endfacet
  facet normal 0.965928 0.258813 -2.05005e-05
    outer loop
      vertex 2.50521 25.4238 16.0043
      vertex 8.69333 2.32937 23
      vertex 2.54177 25.2873 15.3397
    endloop
  endfacet
  facet normal 0.965925 0.25882 6.22447e-06
    outer loop
      vertex 2.43369 25.6907 16.625
      vertex 8.69333 2.32937 23
      vertex 2.50521 25.4238 16.0043
    endloop
  endfacet
  facet normal 0.965924 0.258827 3.26719e-05
    outer loop
      vertex 2.33032 26.0764 17.1747
      vertex 8.69333 2.32937 23
      vertex 2.43369 25.6907 16.625
    endloop
  endfacet
  facet normal 0.965928 0.25881 -4.35187e-05
    outer loop
      vertex 2.19964 26.5642 17.6293
      vertex 8.69333 2.32937 23
      vertex 2.33032 26.0764 17.1747
    endloop
  endfacet
  facet normal 0.965924 0.258825 3.06632e-05
    outer loop
      vertex 2.04735 27.1325 17.969
      vertex 8.69333 2.32937 23
      vertex 2.19964 26.5642 17.6293
    endloop
  endfacet
  facet normal 0.965928 0.258812 -3.99438e-05
    outer loop
      vertex 1.88011 27.7567 18.179
      vertex 8.69333 2.32937 23
      vertex 2.04735 27.1325 17.969
    endloop
  endfacet
  facet normal 0.965927 0.258815 0
    outer loop
      vertex -0.44298 36.4266 23
      vertex 0.868664 31.5314 14.6603
      vertex -0.44298 36.4266 0
    endloop
  endfacet
  facet normal 0.965917 0.258851 1.28827e-05
    outer loop
      vertex 0.905226 31.395 13.9957
      vertex -0.44298 36.4266 0
      vertex 0.868664 31.5314 14.6603
    endloop
  endfacet
  facet normal 0.965935 0.258786 -1.2083e-05
    outer loop
      vertex 0.976751 31.128 13.375
      vertex -0.44298 36.4266 0
      vertex 0.905226 31.395 13.9957
    endloop
  endfacet
  facet normal 0.965922 0.258834 8.10789e-06
    outer loop
      vertex 1.08011 30.7423 12.8253
      vertex -0.44298 36.4266 0
      vertex 0.976751 31.128 13.375
    endloop
  endfacet
  facet normal 0.965922 0.258833 7.6686e-06
    outer loop
      vertex 1.2108 30.2546 12.3707
      vertex -0.44298 36.4266 0
      vertex 1.08011 30.7423 12.8253
    endloop
  endfacet
  facet normal 0.96593 0.258804 -7.90172e-06
    outer loop
      vertex 1.36309 29.6862 12.031
      vertex -0.44298 36.4266 0
      vertex 1.2108 30.2546 12.3707
    endloop
  endfacet
  facet normal 0.965922 0.258834 1.04135e-05
    outer loop
      vertex 1.53033 29.0621 11.821
      vertex -0.44298 36.4266 0
      vertex 1.36309 29.6862 12.031
    endloop
  endfacet
  facet normal 0.965926 0.258818 -2.38244e-07
    outer loop
      vertex 1.70522 28.4094 11.75
      vertex -0.44298 36.4266 0
      vertex 1.53033 29.0621 11.821
    endloop
  endfacet
  facet normal 0.965926 0.258818 -2.76445e-07
    outer loop
      vertex 1.88011 27.7567 11.821
      vertex -0.44298 36.4266 0
      vertex 1.70522 28.4094 11.75
    endloop
  endfacet
  facet normal 0.965933 0.258793 -2.06294e-05
    outer loop
      vertex 2.04735 27.1325 12.031
      vertex -0.44298 36.4266 0
      vertex 1.88011 27.7567 11.821
    endloop
  endfacet
  facet normal 0.965923 0.258829 -2.26712e-05
    outer loop
      vertex 8.69333 2.32937 0
      vertex 2.04735 27.1325 12.031
      vertex 2.19964 26.5642 12.3707
    endloop
  endfacet
  facet normal 0.96593 0.258802 3.48041e-05
    outer loop
      vertex 8.69333 2.32937 0
      vertex 2.19964 26.5642 12.3707
      vertex 2.33032 26.0764 12.8253
    endloop
  endfacet
  facet normal 0.965924 0.258827 2.36714e-05
    outer loop
      vertex 8.69333 2.32937 23
      vertex 2.50521 25.4238 13.9957
      vertex 2.54177 25.2873 14.6603
    endloop
  endfacet
  facet normal 0.965926 0.258819 -0
    outer loop
      vertex 8.69333 2.32937 0
      vertex 2.50521 25.4238 13.9957
      vertex 8.69333 2.32937 23
    endloop
  endfacet
  facet normal 0.965925 0.258822 -5.58091e-06
    outer loop
      vertex 2.50521 25.4238 13.9957
      vertex 8.69333 2.32937 0
      vertex 2.43369 25.6907 13.375
    endloop
  endfacet
  facet normal 0.965922 0.258834 -2.77714e-05
    outer loop
      vertex 2.43369 25.6907 13.375
      vertex 8.69333 2.32937 0
      vertex 2.33032 26.0764 12.8253
    endloop
  endfacet
  facet normal 0.965926 0.258819 9.98329e-07
    outer loop
      vertex 2.04735 27.1325 12.031
      vertex 8.69333 2.32937 0
      vertex -0.44298 36.4266 0
    endloop
  endfacet
  facet normal 0 0 1
    outer loop
      vertex -0.44298 36.4266 23
      vertex 0 0 23
      vertex 8.69333 2.32937 23
    endloop
  endfacet
  facet normal 0 0 1
    outer loop
      vertex 0 0 23
      vertex -0.44298 36.4266 23
      vertex -9.13631 34.0972 23
    endloop
  endfacet
  facet normal 0 0 -1
    outer loop
      vertex -38.998 0.0019989 0
      vertex -34.286 4.73799 0
      vertex -34.286 0.0019989 0
    endloop
  endfacet
  facet normal 0 0 -1
    outer loop
      vertex -34.286 4.73799 0
      vertex -34.4548 28.9594 0
      vertex -34.398 29.5 0
    endloop
  endfacet
  facet normal 0 0 -1
    outer loop
      vertex -34.286 4.73799 0
      vertex -34.6228 28.4425 0
      vertex -34.4548 28.9594 0
    endloop
  endfacet
  facet normal 0 0 -1
    outer loop
      vertex -34.286 4.73799 0
      vertex -34.8946 27.9718 0
      vertex -34.6228 28.4425 0
    endloop
  endfacet
  facet normal 0 0 -1
    outer loop
      vertex -34.286 4.73799 0
      vertex -35.2583 27.5678 0
      vertex -34.8946 27.9718 0
    endloop
  endfacet
  facet normal 0 0 -1
    outer loop
      vertex -34.286 4.73799 0
      vertex -35.698 27.2483 0
      vertex -35.2583 27.5678 0
    endloop
  endfacet
  facet normal 0 0 -1
    outer loop
      vertex -34.286 4.73799 0
      vertex -36.1946 27.0273 0
      vertex -35.698 27.2483 0
    endloop
  endfacet
  facet normal 0 0 -1
    outer loop
      vertex -34.286 4.73799 0
      vertex -36.7262 26.9142 0
      vertex -36.1946 27.0273 0
    endloop
  endfacet
  facet normal 0 -0 -1
    outer loop
      vertex -37.8014 27.0273 0
      vertex -34.286 4.73799 0
      vertex -41.37 2.37199 0
    endloop
  endfacet
  facet normal 0 0 -1
    outer loop
      vertex -34.286 4.73799 0
      vertex -37.2698 26.9142 0
      vertex -36.7262 26.9142 0
    endloop
  endfacet
  facet normal 0 0 -1
    outer loop
      vertex -34.286 4.73799 0
      vertex -37.8014 27.0273 0
      vertex -37.2698 26.9142 0
    endloop
  endfacet
  facet normal -0 0 -1
    outer loop
      vertex -37.8014 27.0273 0
      vertex -41.37 2.37199 0
      vertex -38.298 27.2483 0
    endloop
  endfacet
  facet normal 0 0 -1
    outer loop
      vertex -34.286 4.73799 0
      vertex -38.998 0.0019989 0
      vertex -41.37 2.37199 0
    endloop
  endfacet
  facet normal -0 0 -1
    outer loop
      vertex -38.298 27.2483 0
      vertex -41.37 2.37199 0
      vertex -38.7377 27.5678 0
    endloop
  endfacet
  facet normal -0 0 -1
    outer loop
      vertex -38.7377 27.5678 0
      vertex -41.37 2.37199 0
      vertex -39.1014 27.9718 0
    endloop
  endfacet
  facet normal -0 0 -1
    outer loop
      vertex -39.1014 27.9718 0
      vertex -41.37 2.37199 0
      vertex -39.3732 28.4425 0
    endloop
  endfacet
  facet normal -0 0 -1
    outer loop
      vertex -39.3732 28.4425 0
      vertex -41.37 2.37199 0
      vertex -39.5412 28.9594 0
    endloop
  endfacet
  facet normal 0 0 -1
    outer loop
      vertex -41.37 34.072 0
      vertex -39.5412 28.9594 0
      vertex -41.37 2.37199 0
    endloop
  endfacet
  facet normal 0 0 -1
    outer loop
      vertex -32.3 4.73799 0
      vertex -34.286 4.73799 0
      vertex -32.3 5.502 0
    endloop
  endfacet
  facet normal 0 0 -1
    outer loop
      vertex -0.000535604 0.0019989 0
      vertex 8.69333 2.32937 0
      vertex 0 0 0
    endloop
  endfacet
  facet normal 0 0 -1
    outer loop
      vertex -1.898 4.5 0
      vertex 8.69333 2.32937 0
      vertex -0.000535604 0.0019989 0
    endloop
  endfacet
  facet normal 0 0 -1
    outer loop
      vertex 8.69333 2.32937 0
      vertex -1.898 4.5 0
      vertex -1.95482 5.04057 0
    endloop
  endfacet
  facet normal 0 0 -1
    outer loop
      vertex -0.000535604 0.0019989 0
      vertex -1.95482 3.95943 0
      vertex -1.898 4.5 0
    endloop
  endfacet
  facet normal 0 0 -1
    outer loop
      vertex -0.000535604 0.0019989 0
      vertex -2.12278 3.44248 0
      vertex -1.95482 3.95943 0
    endloop
  endfacet
  facet normal 0 0 -1
    outer loop
      vertex -0.000535604 0.0019989 0
      vertex -2.39456 2.97176 0
      vertex -2.12278 3.44248 0
    endloop
  endfacet
  facet normal 0 0 -1
    outer loop
      vertex -0.000535604 0.0019989 0
      vertex -2.75826 2.56782 0
      vertex -2.39456 2.97176 0
    endloop
  endfacet
  facet normal 0 0 -1
    outer loop
      vertex -0.000535604 0.0019989 0
      vertex -3.198 2.24833 0
      vertex -2.75826 2.56782 0
    endloop
  endfacet
  facet normal 0 0 -1
    outer loop
      vertex -0.000535604 0.0019989 0
      vertex -3.69456 2.02725 0
      vertex -3.198 2.24833 0
    endloop
  endfacet
  facet normal 0 0 -1
    outer loop
      vertex -0.000535604 0.0019989 0
      vertex -4.22623 1.91424 0
      vertex -3.69456 2.02725 0
    endloop
  endfacet
  facet normal 0 0 -1
    outer loop
      vertex -0.000535604 0.0019989 0
      vertex -4.76977 1.91424 0
      vertex -4.22623 1.91424 0
    endloop
  endfacet
  facet normal 0 0 -1
    outer loop
      vertex -0.000535604 0.0019989 0
      vertex -5.30144 2.02725 0
      vertex -4.76977 1.91424 0
    endloop
  endfacet
  facet normal 0 0 -1
    outer loop
      vertex -24.716 0.0019989 0
      vertex -5.30144 2.02725 0
      vertex -0.000535604 0.0019989 0
    endloop
  endfacet
  facet normal 0 0 -1
    outer loop
      vertex -24.716 0.0019989 0
      vertex -5.798 2.24833 0
      vertex -5.30144 2.02725 0
    endloop
  endfacet
  facet normal 0 0 -1
    outer loop
      vertex -24.716 0.0019989 0
      vertex -6.23774 2.56782 0
      vertex -5.798 2.24833 0
    endloop
  endfacet
  facet normal 0 0 -1
    outer loop
      vertex -24.716 0.0019989 0
      vertex -6.60144 2.97176 0
      vertex -6.23774 2.56782 0
    endloop
  endfacet
  facet normal 0 0 -1
    outer loop
      vertex -24.716 0.0019989 0
      vertex -6.87322 3.44248 0
      vertex -6.60144 2.97176 0
    endloop
  endfacet
  facet normal 0 0 -1
    outer loop
      vertex -24.716 0.0019989 0
      vertex -7.04118 3.95943 0
      vertex -6.87322 3.44248 0
    endloop
  endfacet
  facet normal 0 0 -1
    outer loop
      vertex -24.716 4.73799 0
      vertex -7.04118 3.95943 0
      vertex -24.716 0.0019989 0
    endloop
  endfacet
  facet normal -0 0 -1
    outer loop
      vertex -6.87322 5.55752 0
      vertex -24.716 4.73799 0
      vertex -6.60144 6.02824 0
    endloop
  endfacet
  facet normal -0 0 -1
    outer loop
      vertex -6.60144 6.02824 0
      vertex -24.716 4.73799 0
      vertex -9.12956 34.072 0
    endloop
  endfacet
  facet normal 0 0 -1
    outer loop
      vertex -29.602 5.502 0
      vertex -24.716 4.73799 0
      vertex -29.602 4.73799 0
    endloop
  endfacet
  facet normal 0 0 -1
    outer loop
      vertex -34.398 29.5 0
      vertex -24.716 4.73799 0
      vertex -29.602 5.502 0
    endloop
  endfacet
  facet normal 0 0 -1
    outer loop
      vertex -34.398 29.5 0
      vertex -29.602 5.502 0
      vertex -32.3 5.502 0
    endloop
  endfacet
  facet normal 0 0 -1
    outer loop
      vertex -34.398 29.5 0
      vertex -32.3 5.502 0
      vertex -34.286 4.73799 0
    endloop
  endfacet
  facet normal 0 0 -1
    outer loop
      vertex -24.716 4.73799 0
      vertex -34.398 29.5 0
      vertex -9.12956 34.072 0
    endloop
  endfacet
  facet normal 0 0 -1
    outer loop
      vertex -34.4548 30.0406 0
      vertex -9.12956 34.072 0
      vertex -34.398 29.5 0
    endloop
  endfacet
  facet normal 0 0 -1
    outer loop
      vertex -34.6228 30.5575 0
      vertex -9.12956 34.072 0
      vertex -34.4548 30.0406 0
    endloop
  endfacet
  facet normal 0 0 -1
    outer loop
      vertex -34.8946 31.0282 0
      vertex -9.12956 34.072 0
      vertex -34.6228 30.5575 0
    endloop
  endfacet
  facet normal 0 0 -1
    outer loop
      vertex -35.2583 31.4322 0
      vertex -9.12956 34.072 0
      vertex -34.8946 31.0282 0
    endloop
  endfacet
  facet normal 0 0 -1
    outer loop
      vertex -35.698 31.7517 0
      vertex -9.12956 34.072 0
      vertex -35.2583 31.4322 0
    endloop
  endfacet
  facet normal 0 0 -1
    outer loop
      vertex -36.1946 31.9727 0
      vertex -9.12956 34.072 0
      vertex -35.698 31.7517 0
    endloop
  endfacet
  facet normal 0 0 -1
    outer loop
      vertex -41.37 34.072 0
      vertex -36.1946 31.9727 0
      vertex -36.7262 32.0858 0
    endloop
  endfacet
  facet normal 0 0 -1
    outer loop
      vertex -41.37 34.072 0
      vertex -36.7262 32.0858 0
      vertex -37.2698 32.0858 0
    endloop
  endfacet
  facet normal 0 0 -1
    outer loop
      vertex -36.1946 31.9727 0
      vertex -41.37 34.072 0
      vertex -9.12956 34.072 0
    endloop
  endfacet
  facet normal 0 0 -1
    outer loop
      vertex -37.8014 31.9727 0
      vertex -41.37 34.072 0
      vertex -37.2698 32.0858 0
    endloop
  endfacet
  facet normal 0 0 -1
    outer loop
      vertex -38.298 31.7517 0
      vertex -41.37 34.072 0
      vertex -37.8014 31.9727 0
    endloop
  endfacet
  facet normal 0 0 -1
    outer loop
      vertex -38.7377 31.4322 0
      vertex -41.37 34.072 0
      vertex -38.298 31.7517 0
    endloop
  endfacet
  facet normal 0 0 -1
    outer loop
      vertex -39.1014 31.0282 0
      vertex -41.37 34.072 0
      vertex -38.7377 31.4322 0
    endloop
  endfacet
  facet normal 0 0 -1
    outer loop
      vertex -39.3732 30.5575 0
      vertex -41.37 34.072 0
      vertex -39.1014 31.0282 0
    endloop
  endfacet
  facet normal 0 0 -1
    outer loop
      vertex -39.5412 30.0406 0
      vertex -41.37 34.072 0
      vertex -39.3732 30.5575 0
    endloop
  endfacet
  facet normal 0 0 -1
    outer loop
      vertex -39.598 29.5 0
      vertex -41.37 34.072 0
      vertex -39.5412 30.0406 0
    endloop
  endfacet
  facet normal 0 0 -1
    outer loop
      vertex -39.5412 28.9594 0
      vertex -41.37 34.072 0
      vertex -39.598 29.5 0
    endloop
  endfacet
  facet normal 0 0 -1
    outer loop
      vertex -2.12278 5.55752 0
      vertex 8.69333 2.32937 0
      vertex -1.95482 5.04057 0
    endloop
  endfacet
  facet normal 0 0 -1
    outer loop
      vertex -2.39456 6.02824 0
      vertex 8.69333 2.32937 0
      vertex -2.12278 5.55752 0
    endloop
  endfacet
  facet normal 0 0 -1
    outer loop
      vertex -2.75826 6.43218 0
      vertex 8.69333 2.32937 0
      vertex -2.39456 6.02824 0
    endloop
  endfacet
  facet normal 0 0 -1
    outer loop
      vertex 8.69333 2.32937 0
      vertex -2.75826 6.43218 0
      vertex -0.44298 36.4266 0
    endloop
  endfacet
  facet normal 0 0 -1
    outer loop
      vertex -3.198 6.75167 0
      vertex -0.44298 36.4266 0
      vertex -2.75826 6.43218 0
    endloop
  endfacet
  facet normal 0 0 -1
    outer loop
      vertex -3.69456 6.97275 0
      vertex -0.44298 36.4266 0
      vertex -3.198 6.75167 0
    endloop
  endfacet
  facet normal 0 0 -1
    outer loop
      vertex -4.22623 7.08576 0
      vertex -0.44298 36.4266 0
      vertex -3.69456 6.97275 0
    endloop
  endfacet
  facet normal 0 0 -1
    outer loop
      vertex -9.12956 34.072 0
      vertex -4.22623 7.08576 0
      vertex -4.76977 7.08576 0
    endloop
  endfacet
  facet normal 0 0 -1
    outer loop
      vertex -9.12956 34.072 0
      vertex -4.76977 7.08576 0
      vertex -5.30144 6.97275 0
    endloop
  endfacet
  facet normal 0 0 -1
    outer loop
      vertex -9.12956 34.072 0
      vertex -5.30144 6.97275 0
      vertex -5.798 6.75167 0
    endloop
  endfacet
  facet normal 0 0 -1
    outer loop
      vertex -9.12956 34.072 0
      vertex -5.798 6.75167 0
      vertex -6.23774 6.43218 0
    endloop
  endfacet
  facet normal 0 0 -1
    outer loop
      vertex -9.12956 34.072 0
      vertex -6.23774 6.43218 0
      vertex -6.60144 6.02824 0
    endloop
  endfacet
  facet normal -0 0 -1
    outer loop
      vertex -7.04118 5.04057 0
      vertex -24.716 4.73799 0
      vertex -6.87322 5.55752 0
    endloop
  endfacet
  facet normal 0 0 -1
    outer loop
      vertex -7.098 4.5 0
      vertex -24.716 4.73799 0
      vertex -7.04118 5.04057 0
    endloop
  endfacet
  facet normal 0 0 -1
    outer loop
      vertex -7.04118 3.95943 0
      vertex -24.716 4.73799 0
      vertex -7.098 4.5 0
    endloop
  endfacet
  facet normal 0 0 -1
    outer loop
      vertex -4.22623 7.08576 0
      vertex -9.12956 34.072 0
      vertex -0.44298 36.4266 0
    endloop
  endfacet
  facet normal 0 0 -1
    outer loop
      vertex -0.44298 36.4266 0
      vertex -9.12956 34.072 0
      vertex -9.13631 34.0972 0
    endloop
  endfacet
  facet normal -0.965926 -0.258819 0
    outer loop
      vertex -0.000535604 0.0019989 0
      vertex 0 0 0
      vertex -0.000535604 0.0019989 8
    endloop
  endfacet
  facet normal -0.965926 -0.25882 -3.26041e-07
    outer loop
      vertex -9.12956 34.072 8
      vertex -8.34195 31.1326 13.3004
      vertex -8.40382 31.3635 14.4251
    endloop
  endfacet
  facet normal -0.96593 -0.258802 1.0082e-05
    outer loop
      vertex -9.12956 34.072 8
      vertex -8.22091 30.6808 12.25
      vertex -8.34195 31.1326 13.3004
    endloop
  endfacet
  facet normal -0.965924 -0.258825 -9.10647e-06
    outer loop
      vertex -9.12956 34.072 8
      vertex -8.04598 30.028 11.3198
      vertex -8.22091 30.6808 12.25
    endloop
  endfacet
  facet normal -0.965924 -0.258824 -8.5884e-06
    outer loop
      vertex -9.12956 34.072 8
      vertex -7.82483 29.2027 10.5504
      vertex -8.04598 30.028 11.3198
    endloop
  endfacet
  facet normal -0.965928 -0.258811 1.90867e-05
    outer loop
      vertex -9.12956 34.072 8
      vertex -7.56711 28.2408 9.9755
      vertex -7.82483 29.2027 10.5504
    endloop
  endfacet
  facet normal -0.965927 -0.258816 2.64767e-06
    outer loop
      vertex -9.12956 34.072 8
      vertex -7.28408 27.1845 9.62019
      vertex -7.56711 28.2408 9.9755
    endloop
  endfacet
  facet normal -0.965923 -0.258829 -5.93122e-05
    outer loop
      vertex -9.12956 34.072 8
      vertex -6.98811 26.08 9.5
      vertex -7.28408 27.1845 9.62019
    endloop
  endfacet
  facet normal -0.965934 -0.258787 0.000184977
    outer loop
      vertex -9.12956 34.072 8
      vertex -6.69215 24.9754 9.62019
      vertex -6.98811 26.08 9.5
    endloop
  endfacet
  facet normal -0.965926 -0.258819 0
    outer loop
      vertex -5.57241 20.7965 14.4251
      vertex -0.000535604 0.0019989 8
      vertex -5.57241 20.7965 15.5749
    endloop
  endfacet
  facet normal -0.965926 -0.258819 3.87791e-07
    outer loop
      vertex -5.63428 21.0274 13.3004
      vertex -0.000535604 0.0019989 8
      vertex -5.57241 20.7965 14.4251
    endloop
  endfacet
  facet normal -0.965927 -0.258815 -1.6224e-05
    outer loop
      vertex -5.75532 21.4792 12.25
      vertex -0.000535604 0.0019989 8
      vertex -5.63428 21.0274 13.3004
    endloop
  endfacet
  facet normal -0.965926 -0.258819 2.91923e-06
    outer loop
      vertex -5.93024 22.132 11.3198
      vertex -0.000535604 0.0019989 8
      vertex -5.75532 21.4792 12.25
    endloop
  endfacet
  facet normal -0.965925 -0.258822 2.37493e-05
    outer loop
      vertex -6.1514 22.9573 10.5504
      vertex -0.000535604 0.0019989 8
      vertex -5.93024 22.132 11.3198
    endloop
  endfacet
  facet normal -0.965927 -0.258816 -2.93948e-05
    outer loop
      vertex -6.40912 23.9192 9.9755
      vertex -0.000535604 0.0019989 8
      vertex -6.1514 22.9573 10.5504
    endloop
  endfacet
  facet normal -0.965925 -0.258822 4.91505e-05
    outer loop
      vertex -6.69215 24.9754 9.62019
      vertex -0.000535604 0.0019989 8
      vertex -6.40912 23.9192 9.9755
    endloop
  endfacet
  facet normal -0.965926 -0.258819 -9.13326e-06
    outer loop
      vertex -0.000535604 0.0019989 8
      vertex -6.69215 24.9754 9.62019
      vertex -9.12956 34.072 8
    endloop
  endfacet
  facet normal -0.965948 -0.258736 -0
    outer loop
      vertex -9.12956 34.072 8
      vertex -9.13631 34.0972 0
      vertex -9.12956 34.072 0
    endloop
  endfacet
  facet normal -0.965948 -0.258736 0
    outer loop
      vertex -9.13631 34.0972 0
      vertex -9.12956 34.072 8
      vertex -9.13631 34.0972 23
    endloop
  endfacet
  facet normal -0.965926 -0.258819 -0
    outer loop
      vertex -8.40382 31.3635 15.5749
      vertex -9.12956 34.072 8
      vertex -8.40382 31.3635 14.4251
    endloop
  endfacet
  facet normal -0.965926 -0.258819 1.48444e-07
    outer loop
      vertex -9.12956 34.072 8
      vertex -8.40382 31.3635 15.5749
      vertex -9.13631 34.0972 23
    endloop
  endfacet
  facet normal -0.965926 -0.258819 4.19122e-07
    outer loop
      vertex -8.34195 31.1326 16.6996
      vertex -9.13631 34.0972 23
      vertex -8.40382 31.3635 15.5749
    endloop
  endfacet
  facet normal -0.965931 -0.2588 -9.18265e-06
    outer loop
      vertex -8.22091 30.6808 17.75
      vertex -9.13631 34.0972 23
      vertex -8.34195 31.1326 16.6996
    endloop
  endfacet
  facet normal -0.965924 -0.258825 8.44263e-06
    outer loop
      vertex -8.04598 30.028 18.6802
      vertex -9.13631 34.0972 23
      vertex -8.22091 30.6808 17.75
    endloop
  endfacet
  facet normal -0.965924 -0.258825 7.82307e-06
    outer loop
      vertex -7.82483 29.2027 19.4496
      vertex -9.13631 34.0972 23
      vertex -8.04598 30.028 18.6802
    endloop
  endfacet
  facet normal -0.965929 -0.258809 -1.58283e-05
    outer loop
      vertex -7.56711 28.2408 20.0245
      vertex -9.13631 34.0972 23
      vertex -7.82483 29.2027 19.4496
    endloop
  endfacet
  facet normal -0.965927 -0.258816 -1.67675e-06
    outer loop
      vertex -7.28408 27.1845 20.3798
      vertex -9.13631 34.0972 23
      vertex -7.56711 28.2408 20.0245
    endloop
  endfacet
  facet normal -0.965923 -0.258831 4.24715e-05
    outer loop
      vertex -6.98811 26.08 20.5
      vertex -9.13631 34.0972 23
      vertex -7.28408 27.1845 20.3798
    endloop
  endfacet
  facet normal -0.965931 -0.258798 -7.04948e-05
    outer loop
      vertex -6.69215 24.9754 20.3798
      vertex -9.13631 34.0972 23
      vertex -6.98811 26.08 20.5
    endloop
  endfacet
  facet normal -0.965926 -0.258819 -5.45928e-12
    outer loop
      vertex 0 0 23
      vertex -5.57241 20.7965 15.5749
      vertex -0.000535604 0.0019989 8
    endloop
  endfacet
  facet normal -0.965926 -0.258819 -3.84227e-07
    outer loop
      vertex -5.57241 20.7965 15.5749
      vertex 0 0 23
      vertex -5.63428 21.0274 16.6996
    endloop
  endfacet
  facet normal -0.965927 -0.258815 1.59301e-05
    outer loop
      vertex -5.63428 21.0274 16.6996
      vertex 0 0 23
      vertex -5.75532 21.4792 17.75
    endloop
  endfacet
  facet normal -0.965926 -0.258819 -2.8378e-06
    outer loop
      vertex -5.75532 21.4792 17.75
      vertex 0 0 23
      vertex -5.93024 22.132 18.6802
    endloop
  endfacet
  facet normal -0.965925 -0.258823 -2.27978e-05
    outer loop
      vertex -5.93024 22.132 18.6802
      vertex 0 0 23
      vertex -6.1514 22.9573 19.4496
    endloop
  endfacet
  facet normal -0.965926 -0.258819 6.27296e-06
    outer loop
      vertex -6.69215 24.9754 20.3798
      vertex 0 0 23
      vertex -9.13631 34.0972 23
    endloop
  endfacet
  facet normal -0.965925 -0.258824 -4.46927e-05
    outer loop
      vertex -6.40912 23.9192 20.0245
      vertex 0 0 23
      vertex -6.69215 24.9754 20.3798
    endloop
  endfacet
  facet normal -0.965927 -0.258815 2.76932e-05
    outer loop
      vertex -6.1514 22.9573 19.4496
      vertex 0 0 23
      vertex -6.40912 23.9192 20.0245
    endloop
  endfacet
  facet normal -0.965926 -0.258819 -0
    outer loop
      vertex 0 0 23
      vertex -0.000535604 0.0019989 8
      vertex 0 0 0
    endloop
  endfacet
  facet normal -0.258822 0.965925 0
    outer loop
      vertex -0.44298 36.4266 0
      vertex -9.13631 34.0972 23
      vertex -0.44298 36.4266 23
    endloop
  endfacet
  facet normal -0.258822 0.965925 0
    outer loop
      vertex -9.13631 34.0972 23
      vertex -0.44298 36.4266 0
      vertex -9.13631 34.0972 0
    endloop
  endfacet
  facet normal 0.258819 -0.965926 0
    outer loop
      vertex 0 0 0
      vertex 8.69333 2.32937 23
      vertex 0 0 23
    endloop
  endfacet
  facet normal 0.258819 -0.965926 0
    outer loop
      vertex 8.69333 2.32937 23
      vertex 0 0 0
      vertex 8.69333 2.32937 0
    endloop
  endfacet
  facet normal 0.994526 0.104493 0
    outer loop
      vertex -39.5412 28.9594 6.8
      vertex -39.598 29.5 0
      vertex -39.598 29.5 6.8
    endloop
  endfacet
  facet normal 0.994526 0.104493 0
    outer loop
      vertex -39.598 29.5 0
      vertex -39.5412 28.9594 6.8
      vertex -39.5412 28.9594 0
    endloop
  endfacet
  facet normal -0.95103 0.309099 0
    outer loop
      vertex -34.6228 28.4425 0
      vertex -34.4548 28.9594 6.8
      vertex -34.4548 28.9594 0
    endloop
  endfacet
  facet normal -0.95103 0.309099 0
    outer loop
      vertex -34.4548 28.9594 6.8
      vertex -34.6228 28.4425 0
      vertex -34.6228 28.4425 6.8
    endloop
  endfacet
  facet normal -0.994526 0.104493 0
    outer loop
      vertex -34.4548 28.9594 0
      vertex -34.398 29.5 6.8
      vertex -34.398 29.5 0
    endloop
  endfacet
  facet normal -0.994526 0.104493 0
    outer loop
      vertex -34.398 29.5 6.8
      vertex -34.4548 28.9594 0
      vertex -34.4548 28.9594 6.8
    endloop
  endfacet
  facet normal -0.865993 0.500057 0
    outer loop
      vertex -34.8946 27.9718 0
      vertex -34.6228 28.4425 6.8
      vertex -34.6228 28.4425 0
    endloop
  endfacet
  facet normal -0.865993 0.500057 0
    outer loop
      vertex -34.6228 28.4425 6.8
      vertex -34.8946 27.9718 0
      vertex -34.8946 27.9718 6.8
    endloop
  endfacet
  facet normal -0.994526 -0.104493 0
    outer loop
      vertex -34.398 29.5 0
      vertex -34.4548 30.0406 6.8
      vertex -34.4548 30.0406 0
    endloop
  endfacet
  facet normal -0.994526 -0.104493 0
    outer loop
      vertex -34.4548 30.0406 6.8
      vertex -34.398 29.5 0
      vertex -34.398 29.5 6.8
    endloop
  endfacet
  facet normal -0.743203 0.669066 0
    outer loop
      vertex -35.2583 27.5678 0
      vertex -34.8946 27.9718 6.8
      vertex -34.8946 27.9718 0
    endloop
  endfacet
  facet normal -0.743203 0.669066 0
    outer loop
      vertex -34.8946 27.9718 6.8
      vertex -35.2583 27.5678 0
      vertex -35.2583 27.5678 6.8
    endloop
  endfacet
  facet normal -0.865993 -0.500057 0
    outer loop
      vertex -34.6228 30.5575 0
      vertex -34.8946 31.0282 6.8
      vertex -34.8946 31.0282 0
    endloop
  endfacet
  facet normal -0.865993 -0.500057 0
    outer loop
      vertex -34.8946 31.0282 6.8
      vertex -34.6228 30.5575 0
      vertex -34.6228 30.5575 6.8
    endloop
  endfacet
  facet normal -0.208096 0.978108 0
    outer loop
      vertex -36.1946 27.0273 0
      vertex -36.7262 26.9142 6.8
      vertex -36.1946 27.0273 6.8
    endloop
  endfacet
  facet normal -0.208096 0.978108 0
    outer loop
      vertex -36.7262 26.9142 6.8
      vertex -36.1946 27.0273 0
      vertex -36.7262 26.9142 0
    endloop
  endfacet
  facet normal 0.95103 -0.309099 0
    outer loop
      vertex -39.5412 30.0406 6.8
      vertex -39.3732 30.5575 0
      vertex -39.3732 30.5575 6.8
    endloop
  endfacet
  facet normal 0.95103 -0.309099 0
    outer loop
      vertex -39.3732 30.5575 0
      vertex -39.5412 30.0406 6.8
      vertex -39.5412 30.0406 0
    endloop
  endfacet
  facet normal -0.587833 0.808983 0
    outer loop
      vertex -35.2583 27.5678 0
      vertex -35.698 27.2483 6.8
      vertex -35.2583 27.5678 6.8
    endloop
  endfacet
  facet normal -0.587833 0.808983 0
    outer loop
      vertex -35.698 27.2483 6.8
      vertex -35.2583 27.5678 0
      vertex -35.698 27.2483 0
    endloop
  endfacet
  facet normal 0.743203 -0.669066 0
    outer loop
      vertex -39.1014 31.0282 6.8
      vertex -38.7377 31.4322 0
      vertex -38.7377 31.4322 6.8
    endloop
  endfacet
  facet normal 0.743203 -0.669066 0
    outer loop
      vertex -38.7377 31.4322 0
      vertex -39.1014 31.0282 6.8
      vertex -39.1014 31.0282 0
    endloop
  endfacet
  facet normal 0.587833 0.808983 -0
    outer loop
      vertex -38.298 27.2483 0
      vertex -38.7377 27.5678 6.8
      vertex -38.298 27.2483 6.8
    endloop
  endfacet
  facet normal 0.587833 0.808983 0
    outer loop
      vertex -38.7377 27.5678 6.8
      vertex -38.298 27.2483 0
      vertex -38.7377 27.5678 0
    endloop
  endfacet
  facet normal -0.208096 -0.978108 0
    outer loop
      vertex -36.7262 32.0858 0
      vertex -36.1946 31.9727 6.8
      vertex -36.7262 32.0858 6.8
    endloop
  endfacet
  facet normal -0.208096 -0.978108 -0
    outer loop
      vertex -36.1946 31.9727 6.8
      vertex -36.7262 32.0858 0
      vertex -36.1946 31.9727 0
    endloop
  endfacet
  facet normal -0.743203 -0.669066 0
    outer loop
      vertex -34.8946 31.0282 0
      vertex -35.2583 31.4322 6.8
      vertex -35.2583 31.4322 0
    endloop
  endfacet
  facet normal -0.743203 -0.669066 0
    outer loop
      vertex -35.2583 31.4322 6.8
      vertex -34.8946 31.0282 0
      vertex -34.8946 31.0282 6.8
    endloop
  endfacet
  facet normal 0.95103 0.309099 0
    outer loop
      vertex -39.3732 28.4425 6.8
      vertex -39.5412 28.9594 0
      vertex -39.5412 28.9594 6.8
    endloop
  endfacet
  facet normal 0.95103 0.309099 0
    outer loop
      vertex -39.5412 28.9594 0
      vertex -39.3732 28.4425 6.8
      vertex -39.3732 28.4425 0
    endloop
  endfacet
  facet normal 0.406582 -0.913614 0
    outer loop
      vertex -38.298 31.7517 0
      vertex -37.8014 31.9727 6.8
      vertex -38.298 31.7517 6.8
    endloop
  endfacet
  facet normal 0.406582 -0.913614 0
    outer loop
      vertex -37.8014 31.9727 6.8
      vertex -38.298 31.7517 0
      vertex -37.8014 31.9727 0
    endloop
  endfacet
  facet normal 0.406582 0.913614 -0
    outer loop
      vertex -37.8014 27.0273 0
      vertex -38.298 27.2483 6.8
      vertex -37.8014 27.0273 6.8
    endloop
  endfacet
  facet normal 0.406582 0.913614 0
    outer loop
      vertex -38.298 27.2483 6.8
      vertex -37.8014 27.0273 0
      vertex -38.298 27.2483 0
    endloop
  endfacet
  facet normal -0.406582 -0.913614 0
    outer loop
      vertex -36.1946 31.9727 0
      vertex -35.698 31.7517 6.8
      vertex -36.1946 31.9727 6.8
    endloop
  endfacet
  facet normal -0.406582 -0.913614 -0
    outer loop
      vertex -35.698 31.7517 6.8
      vertex -36.1946 31.9727 0
      vertex -35.698 31.7517 0
    endloop
  endfacet
  facet normal -0.95103 -0.309099 0
    outer loop
      vertex -34.4548 30.0406 0
      vertex -34.6228 30.5575 6.8
      vertex -34.6228 30.5575 0
    endloop
  endfacet
  facet normal -0.95103 -0.309099 0
    outer loop
      vertex -34.6228 30.5575 6.8
      vertex -34.4548 30.0406 0
      vertex -34.4548 30.0406 6.8
    endloop
  endfacet
  facet normal 0.994526 -0.104493 0
    outer loop
      vertex -39.598 29.5 6.8
      vertex -39.5412 30.0406 0
      vertex -39.5412 30.0406 6.8
    endloop
  endfacet
  facet normal 0.994526 -0.104493 0
    outer loop
      vertex -39.5412 30.0406 0
      vertex -39.598 29.5 6.8
      vertex -39.598 29.5 0
    endloop
  endfacet
  facet normal 0.208096 -0.978108 0
    outer loop
      vertex -37.8014 31.9727 0
      vertex -37.2698 32.0858 6.8
      vertex -37.8014 31.9727 6.8
    endloop
  endfacet
  facet normal 0.208096 -0.978108 0
    outer loop
      vertex -37.2698 32.0858 6.8
      vertex -37.8014 31.9727 0
      vertex -37.2698 32.0858 0
    endloop
  endfacet
  facet normal 0.865993 -0.500057 0
    outer loop
      vertex -39.3732 30.5575 6.8
      vertex -39.1014 31.0282 0
      vertex -39.1014 31.0282 6.8
    endloop
  endfacet
  facet normal 0.865993 -0.500057 0
    outer loop
      vertex -39.1014 31.0282 0
      vertex -39.3732 30.5575 6.8
      vertex -39.3732 30.5575 0
    endloop
  endfacet
  facet normal 0.208096 0.978108 -0
    outer loop
      vertex -37.2698 26.9142 0
      vertex -37.8014 27.0273 6.8
      vertex -37.2698 26.9142 6.8
    endloop
  endfacet
  facet normal 0.208096 0.978108 0
    outer loop
      vertex -37.8014 27.0273 6.8
      vertex -37.2698 26.9142 0
      vertex -37.8014 27.0273 0
    endloop
  endfacet
  facet normal -0.406582 0.913614 0
    outer loop
      vertex -35.698 27.2483 0
      vertex -36.1946 27.0273 6.8
      vertex -35.698 27.2483 6.8
    endloop
  endfacet
  facet normal -0.406582 0.913614 0
    outer loop
      vertex -36.1946 27.0273 6.8
      vertex -35.698 27.2483 0
      vertex -36.1946 27.0273 0
    endloop
  endfacet
  facet normal 0.743203 0.669066 0
    outer loop
      vertex -38.7377 27.5678 6.8
      vertex -39.1014 27.9718 0
      vertex -39.1014 27.9718 6.8
    endloop
  endfacet
  facet normal 0.743203 0.669066 0
    outer loop
      vertex -39.1014 27.9718 0
      vertex -38.7377 27.5678 6.8
      vertex -38.7377 27.5678 0
    endloop
  endfacet
  facet normal 0.865993 0.500057 0
    outer loop
      vertex -39.1014 27.9718 6.8
      vertex -39.3732 28.4425 0
      vertex -39.3732 28.4425 6.8
    endloop
  endfacet
  facet normal 0.865993 0.500057 0
    outer loop
      vertex -39.3732 28.4425 0
      vertex -39.1014 27.9718 6.8
      vertex -39.1014 27.9718 0
    endloop
  endfacet
  facet normal 0 -1 0
    outer loop
      vertex -37.2698 32.0858 0
      vertex -36.7262 32.0858 6.8
      vertex -37.2698 32.0858 6.8
    endloop
  endfacet
  facet normal 0 -1 -0
    outer loop
      vertex -36.7262 32.0858 6.8
      vertex -37.2698 32.0858 0
      vertex -36.7262 32.0858 0
    endloop
  endfacet
  facet normal -0.587833 -0.808983 0
    outer loop
      vertex -35.698 31.7517 0
      vertex -35.2583 31.4322 6.8
      vertex -35.698 31.7517 6.8
    endloop
  endfacet
  facet normal -0.587833 -0.808983 -0
    outer loop
      vertex -35.2583 31.4322 6.8
      vertex -35.698 31.7517 0
      vertex -35.2583 31.4322 0
    endloop
  endfacet
  facet normal 0 1 -0
    outer loop
      vertex -36.7262 26.9142 0
      vertex -37.2698 26.9142 6.8
      vertex -36.7262 26.9142 6.8
    endloop
  endfacet
  facet normal 0 1 0
    outer loop
      vertex -37.2698 26.9142 6.8
      vertex -36.7262 26.9142 0
      vertex -37.2698 26.9142 0
    endloop
  endfacet
  facet normal 0.587833 -0.808983 0
    outer loop
      vertex -38.7377 31.4322 0
      vertex -38.298 31.7517 6.8
      vertex -38.7377 31.4322 6.8
    endloop
  endfacet
  facet normal 0.587833 -0.808983 0
    outer loop
      vertex -38.298 31.7517 6.8
      vertex -38.7377 31.4322 0
      vertex -38.298 31.7517 0
    endloop
  endfacet
  facet normal 0 0 -1
    outer loop
      vertex -34.4548 28.9594 6.8
      vertex -34.4548 30.0406 6.8
      vertex -34.398 29.5 6.8
    endloop
  endfacet
  facet normal 0 0 -1
    outer loop
      vertex -34.6228 28.4425 6.8
      vertex -34.4548 30.0406 6.8
      vertex -34.4548 28.9594 6.8
    endloop
  endfacet
  facet normal 0 0 -1
    outer loop
      vertex -34.6228 28.4425 6.8
      vertex -34.6228 30.5575 6.8
      vertex -34.4548 30.0406 6.8
    endloop
  endfacet
  facet normal 0 0 -1
    outer loop
      vertex -34.8946 27.9718 6.8
      vertex -34.6228 30.5575 6.8
      vertex -34.6228 28.4425 6.8
    endloop
  endfacet
  facet normal 0 0 -1
    outer loop
      vertex -34.8946 27.9718 6.8
      vertex -34.8946 31.0282 6.8
      vertex -34.6228 30.5575 6.8
    endloop
  endfacet
  facet normal 0 0 -1
    outer loop
      vertex -35.2583 27.5678 6.8
      vertex -34.8946 31.0282 6.8
      vertex -34.8946 27.9718 6.8
    endloop
  endfacet
  facet normal 0 0 -1
    outer loop
      vertex -35.2583 27.5678 6.8
      vertex -35.2583 31.4322 6.8
      vertex -34.8946 31.0282 6.8
    endloop
  endfacet
  facet normal 0 0 -1
    outer loop
      vertex -35.698 27.2483 6.8
      vertex -35.2583 31.4322 6.8
      vertex -35.2583 27.5678 6.8
    endloop
  endfacet
  facet normal 0 0 -1
    outer loop
      vertex -35.698 27.2483 6.8
      vertex -35.698 31.7517 6.8
      vertex -35.2583 31.4322 6.8
    endloop
  endfacet
  facet normal 0 0 -1
    outer loop
      vertex -36.1946 27.0273 6.8
      vertex -35.698 31.7517 6.8
      vertex -35.698 27.2483 6.8
    endloop
  endfacet
  facet normal 0 0 -1
    outer loop
      vertex -36.1946 27.0273 6.8
      vertex -36.1946 31.9727 6.8
      vertex -35.698 31.7517 6.8
    endloop
  endfacet
  facet normal 0 0 -1
    outer loop
      vertex -36.7262 26.9142 6.8
      vertex -36.1946 31.9727 6.8
      vertex -36.1946 27.0273 6.8
    endloop
  endfacet
  facet normal 0 0 -1
    outer loop
      vertex -36.7262 26.9142 6.8
      vertex -36.7262 32.0858 6.8
      vertex -36.1946 31.9727 6.8
    endloop
  endfacet
  facet normal 0 0 -1
    outer loop
      vertex -37.2698 26.9142 6.8
      vertex -36.7262 32.0858 6.8
      vertex -36.7262 26.9142 6.8
    endloop
  endfacet
  facet normal 0 0 -1
    outer loop
      vertex -37.2698 26.9142 6.8
      vertex -37.2698 32.0858 6.8
      vertex -36.7262 32.0858 6.8
    endloop
  endfacet
  facet normal 0 0 -1
    outer loop
      vertex -37.8014 27.0273 6.8
      vertex -37.2698 32.0858 6.8
      vertex -37.2698 26.9142 6.8
    endloop
  endfacet
  facet normal 0 0 -1
    outer loop
      vertex -37.8014 27.0273 6.8
      vertex -37.8014 31.9727 6.8
      vertex -37.2698 32.0858 6.8
    endloop
  endfacet
  facet normal 0 0 -1
    outer loop
      vertex -38.298 27.2483 6.8
      vertex -37.8014 31.9727 6.8
      vertex -37.8014 27.0273 6.8
    endloop
  endfacet
  facet normal 0 0 -1
    outer loop
      vertex -38.298 27.2483 6.8
      vertex -38.298 31.7517 6.8
      vertex -37.8014 31.9727 6.8
    endloop
  endfacet
  facet normal 0 0 -1
    outer loop
      vertex -38.7377 27.5678 6.8
      vertex -38.298 31.7517 6.8
      vertex -38.298 27.2483 6.8
    endloop
  endfacet
  facet normal 0 0 -1
    outer loop
      vertex -38.7377 27.5678 6.8
      vertex -38.7377 31.4322 6.8
      vertex -38.298 31.7517 6.8
    endloop
  endfacet
  facet normal 0 0 -1
    outer loop
      vertex -39.1014 27.9718 6.8
      vertex -38.7377 31.4322 6.8
      vertex -38.7377 27.5678 6.8
    endloop
  endfacet
  facet normal 0 0 -1
    outer loop
      vertex -39.1014 27.9718 6.8
      vertex -39.1014 31.0282 6.8
      vertex -38.7377 31.4322 6.8
    endloop
  endfacet
  facet normal 0 0 -1
    outer loop
      vertex -39.3732 28.4425 6.8
      vertex -39.1014 31.0282 6.8
      vertex -39.1014 27.9718 6.8
    endloop
  endfacet
  facet normal 0 0 -1
    outer loop
      vertex -39.3732 28.4425 6.8
      vertex -39.3732 30.5575 6.8
      vertex -39.1014 31.0282 6.8
    endloop
  endfacet
  facet normal 0 0 -1
    outer loop
      vertex -39.5412 28.9594 6.8
      vertex -39.3732 30.5575 6.8
      vertex -39.3732 28.4425 6.8
    endloop
  endfacet
  facet normal 0 0 -1
    outer loop
      vertex -39.5412 28.9594 6.8
      vertex -39.5412 30.0406 6.8
      vertex -39.3732 30.5575 6.8
    endloop
  endfacet
  facet normal 0 -0 -1
    outer loop
      vertex -39.5412 30.0406 6.8
      vertex -39.5412 28.9594 6.8
      vertex -39.598 29.5 6.8
    endloop
  endfacet
  facet normal 0.994521 0.104535 0
    outer loop
      vertex -7.04118 3.95943 6.8
      vertex -7.098 4.5 0
      vertex -7.098 4.5 6.8
    endloop
  endfacet
  facet normal 0.994521 0.104535 0
    outer loop
      vertex -7.098 4.5 0
      vertex -7.04118 3.95943 6.8
      vertex -7.04118 3.95943 0
    endloop
  endfacet
  facet normal -0.95106 0.309005 0
    outer loop
      vertex -2.12278 3.44248 0
      vertex -1.95482 3.95943 6.8
      vertex -1.95482 3.95943 0
    endloop
  endfacet
  facet normal -0.95106 0.309005 0
    outer loop
      vertex -1.95482 3.95943 6.8
      vertex -2.12278 3.44248 0
      vertex -2.12278 3.44248 6.8
    endloop
  endfacet
  facet normal -0.994521 0.104535 0
    outer loop
      vertex -1.95482 3.95943 0
      vertex -1.898 4.5 6.8
      vertex -1.898 4.5 0
    endloop
  endfacet
  facet normal -0.994521 0.104535 0
    outer loop
      vertex -1.898 4.5 6.8
      vertex -1.95482 3.95943 0
      vertex -1.95482 3.95943 6.8
    endloop
  endfacet
  facet normal -0.866018 0.500013 0
    outer loop
      vertex -2.39456 2.97176 0
      vertex -2.12278 3.44248 6.8
      vertex -2.12278 3.44248 0
    endloop
  endfacet
  facet normal -0.866018 0.500013 0
    outer loop
      vertex -2.12278 3.44248 6.8
      vertex -2.39456 2.97176 0
      vertex -2.39456 2.97176 6.8
    endloop
  endfacet
  facet normal -0.994521 -0.104535 0
    outer loop
      vertex -1.898 4.5 0
      vertex -1.95482 5.04057 6.8
      vertex -1.95482 5.04057 0
    endloop
  endfacet
  facet normal -0.994521 -0.104535 0
    outer loop
      vertex -1.95482 5.04057 6.8
      vertex -1.898 4.5 0
      vertex -1.898 4.5 6.8
    endloop
  endfacet
  facet normal -0.743153 0.669121 0
    outer loop
      vertex -2.75826 2.56782 0
      vertex -2.39456 2.97176 6.8
      vertex -2.39456 2.97176 0
    endloop
  endfacet
  facet normal -0.743153 0.669121 0
    outer loop
      vertex -2.39456 2.97176 6.8
      vertex -2.75826 2.56782 0
      vertex -2.75826 2.56782 6.8
    endloop
  endfacet
  facet normal -0.866018 -0.500013 0
    outer loop
      vertex -2.12278 5.55752 0
      vertex -2.39456 6.02824 6.8
      vertex -2.39456 6.02824 0
    endloop
  endfacet
  facet normal -0.866018 -0.500013 0
    outer loop
      vertex -2.39456 6.02824 6.8
      vertex -2.12278 5.55752 0
      vertex -2.12278 5.55752 6.8
    endloop
  endfacet
  facet normal -0.207912 0.978148 0
    outer loop
      vertex -3.69456 2.02725 0
      vertex -4.22623 1.91424 6.8
      vertex -3.69456 2.02725 6.8
    endloop
  endfacet
  facet normal -0.207912 0.978148 0
    outer loop
      vertex -4.22623 1.91424 6.8
      vertex -3.69456 2.02725 0
      vertex -4.22623 1.91424 0
    endloop
  endfacet
  facet normal 0.95106 -0.309005 0
    outer loop
      vertex -7.04118 5.04057 6.8
      vertex -6.87322 5.55752 0
      vertex -6.87322 5.55752 6.8
    endloop
  endfacet
  facet normal 0.95106 -0.309005 0
    outer loop
      vertex -6.87322 5.55752 0
      vertex -7.04118 5.04057 6.8
      vertex -7.04118 5.04057 0
    endloop
  endfacet
  facet normal 0 -1 0
    outer loop
      vertex -4.76977 7.08576 0
      vertex -4.22623 7.08576 6.8
      vertex -4.76977 7.08576 6.8
    endloop
  endfacet
  facet normal 0 -1 -0
    outer loop
      vertex -4.22623 7.08576 6.8
      vertex -4.76977 7.08576 0
      vertex -4.22623 7.08576 0
    endloop
  endfacet
  facet normal -0.587785 0.809017 0
    outer loop
      vertex -2.75826 2.56782 0
      vertex -3.198 2.24833 6.8
      vertex -2.75826 2.56782 6.8
    endloop
  endfacet
  facet normal -0.587785 0.809017 0
    outer loop
      vertex -3.198 2.24833 6.8
      vertex -2.75826 2.56782 0
      vertex -3.198 2.24833 0
    endloop
  endfacet
  facet normal 0.743153 -0.669121 0
    outer loop
      vertex -6.60144 6.02824 6.8
      vertex -6.23774 6.43218 0
      vertex -6.23774 6.43218 6.8
    endloop
  endfacet
  facet normal 0.743153 -0.669121 0
    outer loop
      vertex -6.23774 6.43218 0
      vertex -6.60144 6.02824 6.8
      vertex -6.60144 6.02824 0
    endloop
  endfacet
  facet normal 0.587785 0.809017 -0
    outer loop
      vertex -5.798 2.24833 0
      vertex -6.23774 2.56782 6.8
      vertex -5.798 2.24833 6.8
    endloop
  endfacet
  facet normal 0.587785 0.809017 0
    outer loop
      vertex -6.23774 2.56782 6.8
      vertex -5.798 2.24833 0
      vertex -6.23774 2.56782 0
    endloop
  endfacet
  facet normal -0.207912 -0.978148 0
    outer loop
      vertex -4.22623 7.08576 0
      vertex -3.69456 6.97275 6.8
      vertex -4.22623 7.08576 6.8
    endloop
  endfacet
  facet normal -0.207912 -0.978148 -0
    outer loop
      vertex -3.69456 6.97275 6.8
      vertex -4.22623 7.08576 0
      vertex -3.69456 6.97275 0
    endloop
  endfacet
  facet normal -0.743153 -0.669121 0
    outer loop
      vertex -2.39456 6.02824 0
      vertex -2.75826 6.43218 6.8
      vertex -2.75826 6.43218 0
    endloop
  endfacet
  facet normal -0.743153 -0.669121 0
    outer loop
      vertex -2.75826 6.43218 6.8
      vertex -2.39456 6.02824 0
      vertex -2.39456 6.02824 6.8
    endloop
  endfacet
  facet normal 0.95106 0.309005 0
    outer loop
      vertex -6.87322 3.44248 6.8
      vertex -7.04118 3.95943 0
      vertex -7.04118 3.95943 6.8
    endloop
  endfacet
  facet normal 0.95106 0.309005 0
    outer loop
      vertex -7.04118 3.95943 0
      vertex -6.87322 3.44248 6.8
      vertex -6.87322 3.44248 0
    endloop
  endfacet
  facet normal 0.406732 -0.913547 0
    outer loop
      vertex -5.798 6.75167 0
      vertex -5.30144 6.97275 6.8
      vertex -5.798 6.75167 6.8
    endloop
  endfacet
  facet normal 0.406732 -0.913547 0
    outer loop
      vertex -5.30144 6.97275 6.8
      vertex -5.798 6.75167 0
      vertex -5.30144 6.97275 0
    endloop
  endfacet
  facet normal 0.406732 0.913547 -0
    outer loop
      vertex -5.30144 2.02725 0
      vertex -5.798 2.24833 6.8
      vertex -5.30144 2.02725 6.8
    endloop
  endfacet
  facet normal 0.406732 0.913547 0
    outer loop
      vertex -5.798 2.24833 6.8
      vertex -5.30144 2.02725 0
      vertex -5.798 2.24833 0
    endloop
  endfacet
  facet normal -0.406732 -0.913547 0
    outer loop
      vertex -3.69456 6.97275 0
      vertex -3.198 6.75167 6.8
      vertex -3.69456 6.97275 6.8
    endloop
  endfacet
  facet normal -0.406732 -0.913547 -0
    outer loop
      vertex -3.198 6.75167 6.8
      vertex -3.69456 6.97275 0
      vertex -3.198 6.75167 0
    endloop
  endfacet
  facet normal -0.95106 -0.309005 0
    outer loop
      vertex -1.95482 5.04057 0
      vertex -2.12278 5.55752 6.8
      vertex -2.12278 5.55752 0
    endloop
  endfacet
  facet normal -0.95106 -0.309005 0
    outer loop
      vertex -2.12278 5.55752 6.8
      vertex -1.95482 5.04057 0
      vertex -1.95482 5.04057 6.8
    endloop
  endfacet
  facet normal 0.994521 -0.104535 0
    outer loop
      vertex -7.098 4.5 6.8
      vertex -7.04118 5.04057 0
      vertex -7.04118 5.04057 6.8
    endloop
  endfacet
  facet normal 0.994521 -0.104535 0
    outer loop
      vertex -7.04118 5.04057 0
      vertex -7.098 4.5 6.8
      vertex -7.098 4.5 0
    endloop
  endfacet
  facet normal 0.207912 -0.978148 0
    outer loop
      vertex -5.30144 6.97275 0
      vertex -4.76977 7.08576 6.8
      vertex -5.30144 6.97275 6.8
    endloop
  endfacet
  facet normal 0.207912 -0.978148 0
    outer loop
      vertex -4.76977 7.08576 6.8
      vertex -5.30144 6.97275 0
      vertex -4.76977 7.08576 0
    endloop
  endfacet
  facet normal 0.866018 -0.500013 0
    outer loop
      vertex -6.87322 5.55752 6.8
      vertex -6.60144 6.02824 0
      vertex -6.60144 6.02824 6.8
    endloop
  endfacet
  facet normal 0.866018 -0.500013 0
    outer loop
      vertex -6.60144 6.02824 0
      vertex -6.87322 5.55752 6.8
      vertex -6.87322 5.55752 0
    endloop
  endfacet
  facet normal 0.207912 0.978148 -0
    outer loop
      vertex -4.76977 1.91424 0
      vertex -5.30144 2.02725 6.8
      vertex -4.76977 1.91424 6.8
    endloop
  endfacet
  facet normal 0.207912 0.978148 0
    outer loop
      vertex -5.30144 2.02725 6.8
      vertex -4.76977 1.91424 0
      vertex -5.30144 2.02725 0
    endloop
  endfacet
  facet normal -0.406732 0.913547 0
    outer loop
      vertex -3.198 2.24833 0
      vertex -3.69456 2.02725 6.8
      vertex -3.198 2.24833 6.8
    endloop
  endfacet
  facet normal -0.406732 0.913547 0
    outer loop
      vertex -3.69456 2.02725 6.8
      vertex -3.198 2.24833 0
      vertex -3.69456 2.02725 0
    endloop
  endfacet
  facet normal 0.743153 0.669121 0
    outer loop
      vertex -6.23774 2.56782 6.8
      vertex -6.60144 2.97176 0
      vertex -6.60144 2.97176 6.8
    endloop
  endfacet
  facet normal 0.743153 0.669121 0
    outer loop
      vertex -6.60144 2.97176 0
      vertex -6.23774 2.56782 6.8
      vertex -6.23774 2.56782 0
    endloop
  endfacet
  facet normal 0.866018 0.500013 0
    outer loop
      vertex -6.60144 2.97176 6.8
      vertex -6.87322 3.44248 0
      vertex -6.87322 3.44248 6.8
    endloop
  endfacet
  facet normal 0.866018 0.500013 0
    outer loop
      vertex -6.87322 3.44248 0
      vertex -6.60144 2.97176 6.8
      vertex -6.60144 2.97176 0
    endloop
  endfacet
  facet normal -0.587785 -0.809017 0
    outer loop
      vertex -3.198 6.75167 0
      vertex -2.75826 6.43218 6.8
      vertex -3.198 6.75167 6.8
    endloop
  endfacet
  facet normal -0.587785 -0.809017 -0
    outer loop
      vertex -2.75826 6.43218 6.8
      vertex -3.198 6.75167 0
      vertex -2.75826 6.43218 0
    endloop
  endfacet
  facet normal 0 1 -0
    outer loop
      vertex -4.22623 1.91424 0
      vertex -4.76977 1.91424 6.8
      vertex -4.22623 1.91424 6.8
    endloop
  endfacet
  facet normal 0 1 0
    outer loop
      vertex -4.76977 1.91424 6.8
      vertex -4.22623 1.91424 0
      vertex -4.76977 1.91424 0
    endloop
  endfacet
  facet normal 0.587785 -0.809017 0
    outer loop
      vertex -6.23774 6.43218 0
      vertex -5.798 6.75167 6.8
      vertex -6.23774 6.43218 6.8
    endloop
  endfacet
  facet normal 0.587785 -0.809017 0
    outer loop
      vertex -5.798 6.75167 6.8
      vertex -6.23774 6.43218 0
      vertex -5.798 6.75167 0
    endloop
  endfacet
  facet normal 0 0 -1
    outer loop
      vertex -1.95482 3.95943 6.8
      vertex -1.95482 5.04057 6.8
      vertex -1.898 4.5 6.8
    endloop
  endfacet
  facet normal 0 0 -1
    outer loop
      vertex -2.12278 3.44248 6.8
      vertex -1.95482 5.04057 6.8
      vertex -1.95482 3.95943 6.8
    endloop
  endfacet
  facet normal 0 0 -1
    outer loop
      vertex -2.12278 3.44248 6.8
      vertex -2.12278 5.55752 6.8
      vertex -1.95482 5.04057 6.8
    endloop
  endfacet
  facet normal 0 0 -1
    outer loop
      vertex -2.39456 2.97176 6.8
      vertex -2.12278 5.55752 6.8
      vertex -2.12278 3.44248 6.8
    endloop
  endfacet
  facet normal 0 0 -1
    outer loop
      vertex -2.39456 2.97176 6.8
      vertex -2.39456 6.02824 6.8
      vertex -2.12278 5.55752 6.8
    endloop
  endfacet
  facet normal 0 0 -1
    outer loop
      vertex -2.75826 2.56782 6.8
      vertex -2.39456 6.02824 6.8
      vertex -2.39456 2.97176 6.8
    endloop
  endfacet
  facet normal 0 0 -1
    outer loop
      vertex -2.75826 2.56782 6.8
      vertex -2.75826 6.43218 6.8
      vertex -2.39456 6.02824 6.8
    endloop
  endfacet
  facet normal 0 0 -1
    outer loop
      vertex -3.198 2.24833 6.8
      vertex -2.75826 6.43218 6.8
      vertex -2.75826 2.56782 6.8
    endloop
  endfacet
  facet normal 0 0 -1
    outer loop
      vertex -3.198 2.24833 6.8
      vertex -3.198 6.75167 6.8
      vertex -2.75826 6.43218 6.8
    endloop
  endfacet
  facet normal 0 0 -1
    outer loop
      vertex -3.69456 2.02725 6.8
      vertex -3.198 6.75167 6.8
      vertex -3.198 2.24833 6.8
    endloop
  endfacet
  facet normal 0 0 -1
    outer loop
      vertex -3.69456 2.02725 6.8
      vertex -3.69456 6.97275 6.8
      vertex -3.198 6.75167 6.8
    endloop
  endfacet
  facet normal 0 0 -1
    outer loop
      vertex -4.22623 1.91424 6.8
      vertex -3.69456 6.97275 6.8
      vertex -3.69456 2.02725 6.8
    endloop
  endfacet
  facet normal 0 0 -1
    outer loop
      vertex -4.22623 1.91424 6.8
      vertex -4.22623 7.08576 6.8
      vertex -3.69456 6.97275 6.8
    endloop
  endfacet
  facet normal 0 0 -1
    outer loop
      vertex -4.76977 1.91424 6.8
      vertex -4.22623 7.08576 6.8
      vertex -4.22623 1.91424 6.8
    endloop
  endfacet
  facet normal 0 0 -1
    outer loop
      vertex -4.76977 1.91424 6.8
      vertex -4.76977 7.08576 6.8
      vertex -4.22623 7.08576 6.8
    endloop
  endfacet
  facet normal 0 0 -1
    outer loop
      vertex -5.30144 2.02725 6.8
      vertex -4.76977 7.08576 6.8
      vertex -4.76977 1.91424 6.8
    endloop
  endfacet
  facet normal 0 0 -1
    outer loop
      vertex -5.30144 2.02725 6.8
      vertex -5.30144 6.97275 6.8
      vertex -4.76977 7.08576 6.8
    endloop
  endfacet
  facet normal 0 0 -1
    outer loop
      vertex -5.798 2.24833 6.8
      vertex -5.30144 6.97275 6.8
      vertex -5.30144 2.02725 6.8
    endloop
  endfacet
  facet normal 0 0 -1
    outer loop
      vertex -5.798 2.24833 6.8
      vertex -5.798 6.75167 6.8
      vertex -5.30144 6.97275 6.8
    endloop
  endfacet
  facet normal 0 0 -1
    outer loop
      vertex -6.23774 2.56782 6.8
      vertex -5.798 6.75167 6.8
      vertex -5.798 2.24833 6.8
    endloop
  endfacet
  facet normal 0 0 -1
    outer loop
      vertex -6.23774 2.56782 6.8
      vertex -6.23774 6.43218 6.8
      vertex -5.798 6.75167 6.8
    endloop
  endfacet
  facet normal 0 0 -1
    outer loop
      vertex -6.60144 2.97176 6.8
      vertex -6.23774 6.43218 6.8
      vertex -6.23774 2.56782 6.8
    endloop
  endfacet
  facet normal 0 0 -1
    outer loop
      vertex -6.60144 2.97176 6.8
      vertex -6.60144 6.02824 6.8
      vertex -6.23774 6.43218 6.8
    endloop
  endfacet
  facet normal 0 0 -1
    outer loop
      vertex -6.87322 3.44248 6.8
      vertex -6.60144 6.02824 6.8
      vertex -6.60144 2.97176 6.8
    endloop
  endfacet
  facet normal 0 0 -1
    outer loop
      vertex -6.87322 3.44248 6.8
      vertex -6.87322 5.55752 6.8
      vertex -6.60144 6.02824 6.8
    endloop
  endfacet
  facet normal 0 0 -1
    outer loop
      vertex -7.04118 3.95943 6.8
      vertex -6.87322 5.55752 6.8
      vertex -6.87322 3.44248 6.8
    endloop
  endfacet
  facet normal 0 0 -1
    outer loop
      vertex -7.04118 3.95943 6.8
      vertex -7.04118 5.04057 6.8
      vertex -6.87322 5.55752 6.8
    endloop
  endfacet
  facet normal 0 -0 -1
    outer loop
      vertex -7.04118 5.04057 6.8
      vertex -7.04118 3.95943 6.8
      vertex -7.098 4.5 6.8
    endloop
  endfacet
  facet normal 0 0 1
    outer loop
      vertex -9.12956 34.072 8
      vertex -29.602 5.502 8
      vertex -24.716 4.73799 8
    endloop
  endfacet
  facet normal -0 0 1
    outer loop
      vertex -41.37 34.072 8
      vertex -29.602 5.502 8
      vertex -9.12956 34.072 8
    endloop
  endfacet
  facet normal 0 0 1
    outer loop
      vertex -32.3 5.502 8
      vertex -34.286 4.73799 8
      vertex -32.3 4.73799 8
    endloop
  endfacet
  facet normal 0 0 1
    outer loop
      vertex -29.602 5.502 8
      vertex -41.37 34.072 8
      vertex -32.3 5.502 8
    endloop
  endfacet
  facet normal 0 0 1
    outer loop
      vertex -34.286 4.73799 8
      vertex -38.998 0.0019989 8
      vertex -34.286 0.0019989 8
    endloop
  endfacet
  facet normal 0 0 1
    outer loop
      vertex -32.3 5.502 8
      vertex -41.37 34.072 8
      vertex -34.286 4.73799 8
    endloop
  endfacet
  facet normal 0 0 1
    outer loop
      vertex -34.286 4.73799 8
      vertex -41.37 34.072 8
      vertex -41.37 2.37199 8
    endloop
  endfacet
  facet normal 0 0 1
    outer loop
      vertex -34.286 4.73799 8
      vertex -41.37 2.37199 8
      vertex -38.998 0.0019989 8
    endloop
  endfacet
  facet normal -0 0 1
    outer loop
      vertex -24.716 4.73799 8
      vertex -0.000535604 0.0019989 8
      vertex -9.12956 34.072 8
    endloop
  endfacet
  facet normal 0 0 1
    outer loop
      vertex -0.000535604 0.0019989 8
      vertex -24.716 4.73799 8
      vertex -24.716 0.0019989 8
    endloop
  endfacet
  facet normal 0 0 1
    outer loop
      vertex -24.716 4.73799 8
      vertex -29.602 5.502 8
      vertex -29.602 4.73799 8
    endloop
  endfacet
  facet normal 0 -1 0
    outer loop
      vertex -24.716 0.0019989 0
      vertex -0.000535604 0.0019989 8
      vertex -24.716 0.0019989 8
    endloop
  endfacet
  facet normal 0 -1 -0
    outer loop
      vertex -0.000535604 0.0019989 8
      vertex -24.716 0.0019989 0
      vertex -0.000535604 0.0019989 0
    endloop
  endfacet
  facet normal -1 0 0
    outer loop
      vertex -24.716 0.0019989 0
      vertex -24.716 4.73799 8
      vertex -24.716 4.73799 0
    endloop
  endfacet
  facet normal -1 -0 0
    outer loop
      vertex -24.716 4.73799 8
      vertex -24.716 0.0019989 0
      vertex -24.716 0.0019989 8
    endloop
  endfacet
  facet normal 0 -1 0
    outer loop
      vertex -29.602 4.73799 0
      vertex -24.716 4.73799 8
      vertex -29.602 4.73799 8
    endloop
  endfacet
  facet normal 0 -1 -0
    outer loop
      vertex -24.716 4.73799 8
      vertex -29.602 4.73799 0
      vertex -24.716 4.73799 0
    endloop
  endfacet
  facet normal -1 0 0
    outer loop
      vertex -29.602 4.73799 0
      vertex -29.602 5.502 8
      vertex -29.602 5.502 0
    endloop
  endfacet
  facet normal -1 -0 0
    outer loop
      vertex -29.602 5.502 8
      vertex -29.602 4.73799 0
      vertex -29.602 4.73799 8
    endloop
  endfacet
  facet normal 0 -1 0
    outer loop
      vertex -32.3 5.502 0
      vertex -29.602 5.502 8
      vertex -32.3 5.502 8
    endloop
  endfacet
  facet normal 0 -1 -0
    outer loop
      vertex -29.602 5.502 8
      vertex -32.3 5.502 0
      vertex -29.602 5.502 0
    endloop
  endfacet
  facet normal 1 -0 0
    outer loop
      vertex -32.3 4.73799 8
      vertex -32.3 5.502 0
      vertex -32.3 5.502 8
    endloop
  endfacet
  facet normal 1 0 0
    outer loop
      vertex -32.3 5.502 0
      vertex -32.3 4.73799 8
      vertex -32.3 4.73799 0
    endloop
  endfacet
  facet normal 0 -1 0
    outer loop
      vertex -34.286 4.73799 0
      vertex -32.3 4.73799 8
      vertex -34.286 4.73799 8
    endloop
  endfacet
  facet normal 0 -1 -0
    outer loop
      vertex -32.3 4.73799 8
      vertex -34.286 4.73799 0
      vertex -32.3 4.73799 0
    endloop
  endfacet
  facet normal 1 -0 0
    outer loop
      vertex -34.286 0.0019989 8
      vertex -34.286 4.73799 0
      vertex -34.286 4.73799 8
    endloop
  endfacet
  facet normal 1 0 0
    outer loop
      vertex -34.286 4.73799 0
      vertex -34.286 0.0019989 8
      vertex -34.286 0.0019989 0
    endloop
  endfacet
  facet normal 0 -1 0
    outer loop
      vertex -38.998 0.0019989 0
      vertex -34.286 0.0019989 8
      vertex -38.998 0.0019989 8
    endloop
  endfacet
  facet normal 0 -1 -0
    outer loop
      vertex -34.286 0.0019989 8
      vertex -38.998 0.0019989 0
      vertex -34.286 0.0019989 0
    endloop
  endfacet
  facet normal -0.706807 -0.707406 0
    outer loop
      vertex -41.37 2.37199 0
      vertex -38.998 0.0019989 8
      vertex -41.37 2.37199 8
    endloop
  endfacet
  facet normal -0.706807 -0.707406 -0
    outer loop
      vertex -38.998 0.0019989 8
      vertex -41.37 2.37199 0
      vertex -38.998 0.0019989 0
    endloop
  endfacet
  facet normal -1 0 0
    outer loop
      vertex -41.37 2.37199 0
      vertex -41.37 34.072 8
      vertex -41.37 34.072 0
    endloop
  endfacet
  facet normal -1 -0 0
    outer loop
      vertex -41.37 34.072 8
      vertex -41.37 2.37199 0
      vertex -41.37 2.37199 8
    endloop
  endfacet
  facet normal 0 1 -0
    outer loop
      vertex -9.12956 34.072 0
      vertex -41.37 34.072 8
      vertex -9.12956 34.072 8
    endloop
  endfacet
  facet normal 0 1 0
    outer loop
      vertex -41.37 34.072 8
      vertex -9.12956 34.072 0
      vertex -41.37 34.072 0
    endloop
  endfacet
endsolid OpenSCAD_Model
