solid OpenSCAD_Model
  facet normal -1 0 0
    outer loop
      vertex -60 100 3
      vertex -60 115 4.9
      vertex -60 115 3
    endloop
  endfacet
  facet normal -1 -0 0
    outer loop
      vertex -60 115 4.9
      vertex -60 100 3
      vertex -60 100 4.9
    endloop
  endfacet
  facet normal 0 0 1
    outer loop
      vertex -60 100 4.9
      vertex -58.4 115 4.9
      vertex -60 115 4.9
    endloop
  endfacet
  facet normal 0 0 1
    outer loop
      vertex -58.4 115 4.9
      vertex -60 100 4.9
      vertex -58.4 98.4 4.9
    endloop
  endfacet
  facet normal 0 0 1
    outer loop
      vertex -75 98.4 4.9
      vertex -60 100 4.9
      vertex -75 100 4.9
    endloop
  endfacet
  facet normal 0 0 1
    outer loop
      vertex -60 100 4.9
      vertex -75 98.4 4.9
      vertex -58.4 98.4 4.9
    endloop
  endfacet
  facet normal 1 -0 0
    outer loop
      vertex -58.4 98.4 4.9
      vertex -58.4 115 3
      vertex -58.4 115 4.9
    endloop
  endfacet
  facet normal 1 0 0
    outer loop
      vertex -58.4 115 3
      vertex -58.4 98.4 4.9
      vertex -58.4 98.4 3
    endloop
  endfacet
  facet normal 0 1 -0
    outer loop
      vertex -58.4 115 3
      vertex -60 115 4.9
      vertex -58.4 115 4.9
    endloop
  endfacet
  facet normal 0 1 0
    outer loop
      vertex -60 115 4.9
      vertex -58.4 115 3
      vertex -60 115 3
    endloop
  endfacet
  facet normal 0 1 -0
    outer loop
      vertex -60 100 3
      vertex -75 100 4.9
      vertex -60 100 4.9
    endloop
  endfacet
  facet normal 0 1 0
    outer loop
      vertex -75 100 4.9
      vertex -60 100 3
      vertex -75 100 3
    endloop
  endfacet
  facet normal -1 0 0
    outer loop
      vertex -75 98.4 3
      vertex -75 100 4.9
      vertex -75 100 3
    endloop
  endfacet
  facet normal -1 -0 0
    outer loop
      vertex -75 100 4.9
      vertex -75 98.4 3
      vertex -75 98.4 4.9
    endloop
  endfacet
  facet normal 0 -1 0
    outer loop
      vertex -75 98.4 3
      vertex -58.4 98.4 4.9
      vertex -75 98.4 4.9
    endloop
  endfacet
  facet normal 0 -1 -0
    outer loop
      vertex -58.4 98.4 4.9
      vertex -75 98.4 3
      vertex -58.4 98.4 3
    endloop
  endfacet
  facet normal -1 0 0
    outer loop
      vertex -60 170 3
      vertex -60 185 4.9
      vertex -60 185 3
    endloop
  endfacet
  facet normal -1 -0 0
    outer loop
      vertex -60 185 4.9
      vertex -60 170 3
      vertex -60 170 4.9
    endloop
  endfacet
  facet normal -0 0 1
    outer loop
      vertex -60 185 4.9
      vertex -58.4 170 4.9
      vertex -58.4 185 4.9
    endloop
  endfacet
  facet normal 0 0 1
    outer loop
      vertex -58.4 170 4.9
      vertex -60 185 4.9
      vertex -60 170 4.9
    endloop
  endfacet
  facet normal 1 -0 0
    outer loop
      vertex -58.4 170 4.9
      vertex -58.4 185 3
      vertex -58.4 185 4.9
    endloop
  endfacet
  facet normal 1 0 0
    outer loop
      vertex -58.4 185 3
      vertex -58.4 170 4.9
      vertex -58.4 170 3
    endloop
  endfacet
  facet normal 0 1 -0
    outer loop
      vertex -58.4 185 3
      vertex -60 185 4.9
      vertex -58.4 185 4.9
    endloop
  endfacet
  facet normal 0 1 0
    outer loop
      vertex -60 185 4.9
      vertex -58.4 185 3
      vertex -60 185 3
    endloop
  endfacet
  facet normal 0 -1 0
    outer loop
      vertex -60 170 3
      vertex -58.4 170 4.9
      vertex -60 170 4.9
    endloop
  endfacet
  facet normal 0 -1 -0
    outer loop
      vertex -58.4 170 4.9
      vertex -60 170 3
      vertex -58.4 170 3
    endloop
  endfacet
  facet normal -1 0 0
    outer loop
      vertex -115 98.4 3
      vertex -115 100 4.9
      vertex -115 100 3
    endloop
  endfacet
  facet normal -1 -0 0
    outer loop
      vertex -115 100 4.9
      vertex -115 98.4 3
      vertex -115 98.4 4.9
    endloop
  endfacet
  facet normal -0 0 1
    outer loop
      vertex -115 100 4.9
      vertex -100 98.4 4.9
      vertex -100 100 4.9
    endloop
  endfacet
  facet normal 0 0 1
    outer loop
      vertex -100 98.4 4.9
      vertex -115 100 4.9
      vertex -115 98.4 4.9
    endloop
  endfacet
  facet normal 1 -0 0
    outer loop
      vertex -100 98.4 4.9
      vertex -100 100 3
      vertex -100 100 4.9
    endloop
  endfacet
  facet normal 1 0 0
    outer loop
      vertex -100 100 3
      vertex -100 98.4 4.9
      vertex -100 98.4 3
    endloop
  endfacet
  facet normal 0 1 -0
    outer loop
      vertex -100 100 3
      vertex -115 100 4.9
      vertex -100 100 4.9
    endloop
  endfacet
  facet normal 0 1 0
    outer loop
      vertex -115 100 4.9
      vertex -100 100 3
      vertex -115 100 3
    endloop
  endfacet
  facet normal 0 -1 0
    outer loop
      vertex -115 98.4 3
      vertex -100 98.4 4.9
      vertex -115 98.4 4.9
    endloop
  endfacet
  facet normal 0 -1 -0
    outer loop
      vertex -100 98.4 4.9
      vertex -115 98.4 3
      vertex -100 98.4 3
    endloop
  endfacet
  facet normal 0 0 -1
    outer loop
      vertex 8 35 0
      vertex -10 105 0
      vertex 8 202 0
    endloop
  endfacet
  facet normal 0 0 -1
    outer loop
      vertex 8 202 0
      vertex 3.04338 194.011 0
      vertex 3.2 195 0
    endloop
  endfacet
  facet normal 0 0 -1
    outer loop
      vertex -10 105 0
      vertex 3.04338 42.9889 0
      vertex 2.58885 43.8809 0
    endloop
  endfacet
  facet normal 0 -0 -1
    outer loop
      vertex 2.58885 193.119 0
      vertex 8 202 0
      vertex -10 105 0
    endloop
  endfacet
  facet normal 0 0 -1
    outer loop
      vertex -10 77 0
      vertex 2.58885 43.8809 0
      vertex 1.88091 44.5889 0
    endloop
  endfacet
  facet normal 0 0 -1
    outer loop
      vertex 8 202 0
      vertex 2.58885 193.119 0
      vertex 3.04338 194.011 0
    endloop
  endfacet
  facet normal 0 0 -1
    outer loop
      vertex -10 77 0
      vertex 1.88091 44.5889 0
      vertex 0.988853 45.0434 0
    endloop
  endfacet
  facet normal 0 0 -1
    outer loop
      vertex 2.58885 193.119 0
      vertex -10 105 0
      vertex 1.88091 192.411 0
    endloop
  endfacet
  facet normal 0 0 -1
    outer loop
      vertex -10 77 0
      vertex 0.988853 45.0434 0
      vertex 0 45.2 0
    endloop
  endfacet
  facet normal 0 0 -1
    outer loop
      vertex -10 180 0
      vertex 1.88091 192.411 0
      vertex -10 105 0
    endloop
  endfacet
  facet normal 0 0 -1
    outer loop
      vertex -10 77 0
      vertex 0 45.2 0
      vertex -0.988853 45.0434 0
    endloop
  endfacet
  facet normal 0 0 -1
    outer loop
      vertex 1.88091 192.411 0
      vertex -10 180 0
      vertex 0.988853 191.957 0
    endloop
  endfacet
  facet normal 0 0 -1
    outer loop
      vertex -10 77 0
      vertex -0.988853 45.0434 0
      vertex -1.88091 44.5889 0
    endloop
  endfacet
  facet normal 0 0 -1
    outer loop
      vertex 0.988853 191.957 0
      vertex -10 180 0
      vertex 0 191.8 0
    endloop
  endfacet
  facet normal 0 0 -1
    outer loop
      vertex -10 77 0
      vertex -1.88091 44.5889 0
      vertex -2.58885 43.8809 0
    endloop
  endfacet
  facet normal -0 0 -1
    outer loop
      vertex 0 191.8 0
      vertex -10 180 0
      vertex -0.988853 191.957 0
    endloop
  endfacet
  facet normal 0 0 -1
    outer loop
      vertex -10 35 0
      vertex -2.58885 43.8809 0
      vertex -3.04338 42.9889 0
    endloop
  endfacet
  facet normal 0 0 -1
    outer loop
      vertex -10.6699 182.5 0
      vertex -0.988853 191.957 0
      vertex -10 180 0
    endloop
  endfacet
  facet normal 0 0 -1
    outer loop
      vertex -10 35 0
      vertex -3.04338 42.9889 0
      vertex -3.2 42 0
    endloop
  endfacet
  facet normal -0 0 -1
    outer loop
      vertex -0.988853 191.957 0
      vertex -10.6699 182.5 0
      vertex -1.88091 192.411 0
    endloop
  endfacet
  facet normal 0 0 -1
    outer loop
      vertex 5 32 0
      vertex 8 35 0
      vertex 7.59807 33.5 0
    endloop
  endfacet
  facet normal 0 0 -1
    outer loop
      vertex 3.04338 42.9889 0
      vertex 8 35 0
      vertex 3.2 42 0
    endloop
  endfacet
  facet normal 0 0 -1
    outer loop
      vertex 5 32 0
      vertex 7.59807 33.5 0
      vertex 6.5 32.4019 0
    endloop
  endfacet
  facet normal 0 0 -1
    outer loop
      vertex -10 105 0
      vertex 8 35 0
      vertex 3.04338 42.9889 0
    endloop
  endfacet
  facet normal -0 0 -1
    outer loop
      vertex 8 35 0
      vertex 5 32 0
      vertex 2.58885 38.1191 0
    endloop
  endfacet
  facet normal 0 0 -1
    outer loop
      vertex 3.2 197 0
      vertex 8 202 0
      vertex 3.2 195 0
    endloop
  endfacet
  facet normal 0 0 -1
    outer loop
      vertex 8 35 0
      vertex 3.2 40 0
      vertex 3.2 42 0
    endloop
  endfacet
  facet normal 0 0 -1
    outer loop
      vertex 8 35 0
      vertex 3.04338 39.0111 0
      vertex 3.2 40 0
    endloop
  endfacet
  facet normal 0 0 -1
    outer loop
      vertex 8 35 0
      vertex 2.58885 38.1191 0
      vertex 3.04338 39.0111 0
    endloop
  endfacet
  facet normal 0 0 -1
    outer loop
      vertex 5 32 0
      vertex 1.88091 37.4111 0
      vertex 2.58885 38.1191 0
    endloop
  endfacet
  facet normal 0 0 -1
    outer loop
      vertex 5 32 0
      vertex 0.988853 36.9566 0
      vertex 1.88091 37.4111 0
    endloop
  endfacet
  facet normal 0 0 -1
    outer loop
      vertex 5 32 0
      vertex 0 36.8 0
      vertex 0.988853 36.9566 0
    endloop
  endfacet
  facet normal 0 0 -1
    outer loop
      vertex -7 32 0
      vertex 0 36.8 0
      vertex 5 32 0
    endloop
  endfacet
  facet normal -0 0 -1
    outer loop
      vertex 0 36.8 0
      vertex -7 32 0
      vertex -0.988853 36.9566 0
    endloop
  endfacet
  facet normal 0 0 -1
    outer loop
      vertex -10 35 0
      vertex -3.2 42 0
      vertex -3.2 40 0
    endloop
  endfacet
  facet normal -0 0 -1
    outer loop
      vertex -1.88091 192.411 0
      vertex -10.6699 182.5 0
      vertex -2.58885 193.119 0
    endloop
  endfacet
  facet normal -0 0 -1
    outer loop
      vertex -3.04338 39.0111 0
      vertex -10 35 0
      vertex -3.2 40 0
    endloop
  endfacet
  facet normal -0 0 -1
    outer loop
      vertex -2.58885 38.1191 0
      vertex -10 35 0
      vertex -3.04338 39.0111 0
    endloop
  endfacet
  facet normal 0 0 -1
    outer loop
      vertex -10 35 0
      vertex -2.58885 38.1191 0
      vertex -7 32 0
    endloop
  endfacet
  facet normal -0 0 -1
    outer loop
      vertex -1.88091 37.4111 0
      vertex -7 32 0
      vertex -2.58885 38.1191 0
    endloop
  endfacet
  facet normal -0 0 -1
    outer loop
      vertex -0.988853 36.9566 0
      vertex -7 32 0
      vertex -1.88091 37.4111 0
    endloop
  endfacet
  facet normal 0 0 -1
    outer loop
      vertex 3.04338 197.989 0
      vertex 8 202 0
      vertex 3.2 197 0
    endloop
  endfacet
  facet normal 0 0 -1
    outer loop
      vertex 2.58885 198.881 0
      vertex 8 202 0
      vertex 3.04338 197.989 0
    endloop
  endfacet
  facet normal 0 -0 -1
    outer loop
      vertex 5 205 0
      vertex 8 202 0
      vertex 2.58885 198.881 0
    endloop
  endfacet
  facet normal 0 0 -1
    outer loop
      vertex 8 202 0
      vertex 5 205 0
      vertex 7.59807 203.5 0
    endloop
  endfacet
  facet normal 0 0 -1
    outer loop
      vertex 7.59807 203.5 0
      vertex 5 205 0
      vertex 6.5 204.598 0
    endloop
  endfacet
  facet normal 0 0 -1
    outer loop
      vertex 1.88091 199.589 0
      vertex 5 205 0
      vertex 2.58885 198.881 0
    endloop
  endfacet
  facet normal 0 0 -1
    outer loop
      vertex 0.988853 200.043 0
      vertex 5 205 0
      vertex 1.88091 199.589 0
    endloop
  endfacet
  facet normal 0 0 -1
    outer loop
      vertex 0 200.2 0
      vertex 5 205 0
      vertex 0.988853 200.043 0
    endloop
  endfacet
  facet normal 0 0 -1
    outer loop
      vertex -0.988853 200.043 0
      vertex 5 205 0
      vertex 0 200.2 0
    endloop
  endfacet
  facet normal 0 0 -1
    outer loop
      vertex -1.88091 199.589 0
      vertex 5 205 0
      vertex -0.988853 200.043 0
    endloop
  endfacet
  facet normal 0 0 -1
    outer loop
      vertex -10 35 0
      vertex -7 32 0
      vertex -8.5 32.4019 0
    endloop
  endfacet
  facet normal 0 0 -1
    outer loop
      vertex -10 35 0
      vertex -8.5 32.4019 0
      vertex -9.59807 33.5 0
    endloop
  endfacet
  facet normal -0 0 -1
    outer loop
      vertex -2.58885 43.8809 0
      vertex -10 35 0
      vertex -10 77 0
    endloop
  endfacet
  facet normal 0 0 -1
    outer loop
      vertex 2.58885 43.8809 0
      vertex -10 77 0
      vertex -10 105 0
    endloop
  endfacet
  facet normal 0 0 -1
    outer loop
      vertex -12.5 184.33 0
      vertex -2.58885 193.119 0
      vertex -10.6699 182.5 0
    endloop
  endfacet
  facet normal -0 0 -1
    outer loop
      vertex -2.58885 193.119 0
      vertex -12.5 184.33 0
      vertex -3.04338 194.011 0
    endloop
  endfacet
  facet normal 0 0 -1
    outer loop
      vertex -15 185 0
      vertex -3.04338 194.011 0
      vertex -12.5 184.33 0
    endloop
  endfacet
  facet normal -0 0 -1
    outer loop
      vertex -3.04338 194.011 0
      vertex -15 185 0
      vertex -3.2 195 0
    endloop
  endfacet
  facet normal -0 0 -1
    outer loop
      vertex -3.2 195 0
      vertex -15 185 0
      vertex -3.2 197 0
    endloop
  endfacet
  facet normal -0 0 -1
    outer loop
      vertex -3.2 197 0
      vertex -15 185 0
      vertex -3.04338 197.989 0
    endloop
  endfacet
  facet normal 0 0 -1
    outer loop
      vertex -40 185 0
      vertex -3.04338 197.989 0
      vertex -15 185 0
    endloop
  endfacet
  facet normal -0 0 -1
    outer loop
      vertex -3.04338 197.989 0
      vertex -40 185 0
      vertex -2.58885 198.881 0
    endloop
  endfacet
  facet normal 0 0 -1
    outer loop
      vertex -40 185 0
      vertex -1.88091 199.589 0
      vertex -2.58885 198.881 0
    endloop
  endfacet
  facet normal 0 0 -1
    outer loop
      vertex -40 185 0
      vertex 5 205 0
      vertex -1.88091 199.589 0
    endloop
  endfacet
  facet normal 0 0 -1
    outer loop
      vertex -143 205 0
      vertex -40 185 0
      vertex -42.5 184.33 0
    endloop
  endfacet
  facet normal -0 0 -1
    outer loop
      vertex -45 105 0
      vertex -145 82 0
      vertex -45 180 0
    endloop
  endfacet
  facet normal 0 0 -1
    outer loop
      vertex -40 185 0
      vertex -143 205 0
      vertex 5 205 0
    endloop
  endfacet
  facet normal 0 0 -1
    outer loop
      vertex -44.3301 182.5 0
      vertex -143 205 0
      vertex -42.5 184.33 0
    endloop
  endfacet
  facet normal 0 0 -1
    outer loop
      vertex -145 203 0
      vertex -45 180 0
      vertex -145 82 0
    endloop
  endfacet
  facet normal 0 0 -1
    outer loop
      vertex -145 82 0
      vertex -143 80 0
      vertex -144 80.2679 0
    endloop
  endfacet
  facet normal 0 -0 -1
    outer loop
      vertex -143 205 0
      vertex -45 180 0
      vertex -145 203 0
    endloop
  endfacet
  facet normal 0 0 -1
    outer loop
      vertex -145 82 0
      vertex -144 80.2679 0
      vertex -144.732 81 0
    endloop
  endfacet
  facet normal 0 0 -1
    outer loop
      vertex -45 180 0
      vertex -143 205 0
      vertex -44.3301 182.5 0
    endloop
  endfacet
  facet normal 0 0 -1
    outer loop
      vertex -143 205 0
      vertex -145 203 0
      vertex -144 204.732 0
    endloop
  endfacet
  facet normal 0 0 -1
    outer loop
      vertex -144 204.732 0
      vertex -145 203 0
      vertex -144.732 204 0
    endloop
  endfacet
  facet normal 0 0 -1
    outer loop
      vertex -10.4019 78.5 0
      vertex -10 105 0
      vertex -10 77 0
    endloop
  endfacet
  facet normal 0 0 -1
    outer loop
      vertex -10.4019 78.5 0
      vertex -10.6699 102.5 0
      vertex -10 105 0
    endloop
  endfacet
  facet normal 0 0 -1
    outer loop
      vertex -11.5 79.5981 0
      vertex -10.6699 102.5 0
      vertex -10.4019 78.5 0
    endloop
  endfacet
  facet normal 0 0 -1
    outer loop
      vertex -11.5 79.5981 0
      vertex -12.5 100.67 0
      vertex -10.6699 102.5 0
    endloop
  endfacet
  facet normal 0 0 -1
    outer loop
      vertex -13 80 0
      vertex -12.5 100.67 0
      vertex -11.5 79.5981 0
    endloop
  endfacet
  facet normal 0 0 -1
    outer loop
      vertex -13 80 0
      vertex -15 100 0
      vertex -12.5 100.67 0
    endloop
  endfacet
  facet normal 0 0 -1
    outer loop
      vertex -13 80 0
      vertex -40 100 0
      vertex -15 100 0
    endloop
  endfacet
  facet normal 0 0 -1
    outer loop
      vertex -13 80 0
      vertex -42.5 100.67 0
      vertex -40 100 0
    endloop
  endfacet
  facet normal 0 0 -1
    outer loop
      vertex -145 82 0
      vertex -45 105 0
      vertex -143 80 0
    endloop
  endfacet
  facet normal -0 0 -1
    outer loop
      vertex -44.3301 102.5 0
      vertex -143 80 0
      vertex -45 105 0
    endloop
  endfacet
  facet normal -0 0 -1
    outer loop
      vertex -42.5 100.67 0
      vertex -143 80 0
      vertex -44.3301 102.5 0
    endloop
  endfacet
  facet normal 0 0 -1
    outer loop
      vertex -143 80 0
      vertex -42.5 100.67 0
      vertex -13 80 0
    endloop
  endfacet
  facet normal -0 0 1
    outer loop
      vertex -60 170 3
      vertex -58.4 115 3
      vertex -58.4 170 3
    endloop
  endfacet
  facet normal 0 0 1
    outer loop
      vertex -58.4 115 3
      vertex -60 170 3
      vertex -60 115 3
    endloop
  endfacet
  facet normal 0 0 1
    outer loop
      vertex -10 105 3
      vertex -10.4019 78.5 3
      vertex -10 77 3
    endloop
  endfacet
  facet normal -0 0 1
    outer loop
      vertex -10.6699 102.5 3
      vertex -10.4019 78.5 3
      vertex -10 105 3
    endloop
  endfacet
  facet normal 0 0 1
    outer loop
      vertex -10.6699 102.5 3
      vertex -11.5 79.5981 3
      vertex -10.4019 78.5 3
    endloop
  endfacet
  facet normal -0 0 1
    outer loop
      vertex -12.5 100.67 3
      vertex -11.5 79.5981 3
      vertex -10.6699 102.5 3
    endloop
  endfacet
  facet normal 0 0 1
    outer loop
      vertex -12.5 100.67 3
      vertex -13 80 3
      vertex -11.5 79.5981 3
    endloop
  endfacet
  facet normal -0 0 1
    outer loop
      vertex -15 100 3
      vertex -13 80 3
      vertex -12.5 100.67 3
    endloop
  endfacet
  facet normal -0 0 1
    outer loop
      vertex -40 100 3
      vertex -13 80 3
      vertex -15 100 3
    endloop
  endfacet
  facet normal 0 0 1
    outer loop
      vertex -58.4 98.4 3
      vertex -40 100 3
      vertex -42.5 100.67 3
    endloop
  endfacet
  facet normal 0 0 1
    outer loop
      vertex -45 180 3
      vertex -58.4 170 3
      vertex -45 105 3
    endloop
  endfacet
  facet normal -0 0 1
    outer loop
      vertex -58.4 115 3
      vertex -45 105 3
      vertex -58.4 170 3
    endloop
  endfacet
  facet normal 0 0 1
    outer loop
      vertex -58.4 98.4 3
      vertex -45 105 3
      vertex -58.4 115 3
    endloop
  endfacet
  facet normal 0 0 1
    outer loop
      vertex -45 105 3
      vertex -58.4 98.4 3
      vertex -44.3301 102.5 3
    endloop
  endfacet
  facet normal 0 0 1
    outer loop
      vertex -44.3301 102.5 3
      vertex -58.4 98.4 3
      vertex -42.5 100.67 3
    endloop
  endfacet
  facet normal 0 0 1
    outer loop
      vertex -40 100 3
      vertex -58.4 98.4 3
      vertex -13 80 3
    endloop
  endfacet
  facet normal -0 0 1
    outer loop
      vertex -75 98.4 3
      vertex -13 80 3
      vertex -58.4 98.4 3
    endloop
  endfacet
  facet normal 0 0 1
    outer loop
      vertex -100 98.4 3
      vertex -75 98.4 3
      vertex -100 100 3
    endloop
  endfacet
  facet normal 0 0 1
    outer loop
      vertex -143 80 3
      vertex -75 98.4 3
      vertex -100 98.4 3
    endloop
  endfacet
  facet normal 0 0 1
    outer loop
      vertex -143 80 3
      vertex -100 98.4 3
      vertex -115 98.4 3
    endloop
  endfacet
  facet normal 0 0 1
    outer loop
      vertex -75 98.4 3
      vertex -143 80 3
      vertex -13 80 3
    endloop
  endfacet
  facet normal 0 0 1
    outer loop
      vertex -115 100 3
      vertex -143 80 3
      vertex -115 98.4 3
    endloop
  endfacet
  facet normal 0 0 1
    outer loop
      vertex -145 203 3
      vertex -143 205 3
      vertex -144 204.732 3
    endloop
  endfacet
  facet normal 0 0 1
    outer loop
      vertex -145 82 3
      vertex -115 100 3
      vertex -145 203 3
    endloop
  endfacet
  facet normal 0 0 1
    outer loop
      vertex -145 203 3
      vertex -144 204.732 3
      vertex -144.732 204 3
    endloop
  endfacet
  facet normal 0 0 1
    outer loop
      vertex -115 100 3
      vertex -145 82 3
      vertex -143 80 3
    endloop
  endfacet
  facet normal 0 0 1
    outer loop
      vertex -143 80 3
      vertex -145 82 3
      vertex -144 80.2679 3
    endloop
  endfacet
  facet normal 0 0 1
    outer loop
      vertex -144 80.2679 3
      vertex -145 82 3
      vertex -144.732 81 3
    endloop
  endfacet
  facet normal 0 0 1
    outer loop
      vertex 8 202 3
      vertex -10 105 3
      vertex 8 35 3
    endloop
  endfacet
  facet normal 0 0 1
    outer loop
      vertex 8 35 3
      vertex 3.04338 42.9889 3
      vertex 3.2 42 3
    endloop
  endfacet
  facet normal 0 0 1
    outer loop
      vertex -10 105 3
      vertex 3.04338 194.011 3
      vertex 2.58885 193.119 3
    endloop
  endfacet
  facet normal -0 -0 1
    outer loop
      vertex 2.58885 43.8809 3
      vertex 8 35 3
      vertex -10 105 3
    endloop
  endfacet
  facet normal 0 0 1
    outer loop
      vertex -10 105 3
      vertex 2.58885 193.119 3
      vertex 1.88091 192.411 3
    endloop
  endfacet
  facet normal 0 0 1
    outer loop
      vertex 8 35 3
      vertex 2.58885 43.8809 3
      vertex 3.04338 42.9889 3
    endloop
  endfacet
  facet normal 0 0 1
    outer loop
      vertex -10 180 3
      vertex 1.88091 192.411 3
      vertex 0.988853 191.957 3
    endloop
  endfacet
  facet normal -0 0 1
    outer loop
      vertex -10 77 3
      vertex 2.58885 43.8809 3
      vertex -10 105 3
    endloop
  endfacet
  facet normal 0 0 1
    outer loop
      vertex -10 180 3
      vertex 0.988853 191.957 3
      vertex 0 191.8 3
    endloop
  endfacet
  facet normal 0 0 1
    outer loop
      vertex 2.58885 43.8809 3
      vertex -10 77 3
      vertex 1.88091 44.5889 3
    endloop
  endfacet
  facet normal 0 0 1
    outer loop
      vertex -10 180 3
      vertex 0 191.8 3
      vertex -0.988853 191.957 3
    endloop
  endfacet
  facet normal 0 0 1
    outer loop
      vertex 1.88091 44.5889 3
      vertex -10 77 3
      vertex 0.988853 45.0434 3
    endloop
  endfacet
  facet normal 0 0 1
    outer loop
      vertex -10.6699 182.5 3
      vertex -0.988853 191.957 3
      vertex -1.88091 192.411 3
    endloop
  endfacet
  facet normal 0 0 1
    outer loop
      vertex 0.988853 45.0434 3
      vertex -10 77 3
      vertex 0 45.2 3
    endloop
  endfacet
  facet normal 0 0 1
    outer loop
      vertex -10.6699 182.5 3
      vertex -1.88091 192.411 3
      vertex -2.58885 193.119 3
    endloop
  endfacet
  facet normal 0 0 1
    outer loop
      vertex 0 45.2 3
      vertex -10 77 3
      vertex -0.988853 45.0434 3
    endloop
  endfacet
  facet normal 0 0 1
    outer loop
      vertex -12.5 184.33 3
      vertex -2.58885 193.119 3
      vertex -3.04338 194.011 3
    endloop
  endfacet
  facet normal 0 0 1
    outer loop
      vertex -0.988853 45.0434 3
      vertex -10 77 3
      vertex -1.88091 44.5889 3
    endloop
  endfacet
  facet normal 0 0 1
    outer loop
      vertex -15 185 3
      vertex -3.04338 194.011 3
      vertex -3.2 195 3
    endloop
  endfacet
  facet normal 0 0 1
    outer loop
      vertex -1.88091 44.5889 3
      vertex -10 77 3
      vertex -2.58885 43.8809 3
    endloop
  endfacet
  facet normal 0 0 1
    outer loop
      vertex 5 205 3
      vertex 8 202 3
      vertex 7.59807 203.5 3
    endloop
  endfacet
  facet normal 0 0 1
    outer loop
      vertex 3.04338 194.011 3
      vertex 8 202 3
      vertex 3.2 195 3
    endloop
  endfacet
  facet normal 0 0 1
    outer loop
      vertex 5 205 3
      vertex 7.59807 203.5 3
      vertex 6.5 204.598 3
    endloop
  endfacet
  facet normal 0 0 1
    outer loop
      vertex -10 105 3
      vertex 8 202 3
      vertex 3.04338 194.011 3
    endloop
  endfacet
  facet normal 0 0 1
    outer loop
      vertex 8 202 3
      vertex 5 205 3
      vertex 2.58885 198.881 3
    endloop
  endfacet
  facet normal -0 0 1
    outer loop
      vertex 3.2 40 3
      vertex 8 35 3
      vertex 3.2 42 3
    endloop
  endfacet
  facet normal 0 0 1
    outer loop
      vertex 8 202 3
      vertex 3.2 197 3
      vertex 3.2 195 3
    endloop
  endfacet
  facet normal 0 0 1
    outer loop
      vertex 8 202 3
      vertex 3.04338 197.989 3
      vertex 3.2 197 3
    endloop
  endfacet
  facet normal 0 0 1
    outer loop
      vertex 8 202 3
      vertex 2.58885 198.881 3
      vertex 3.04338 197.989 3
    endloop
  endfacet
  facet normal 0 0 1
    outer loop
      vertex 5 205 3
      vertex 1.88091 199.589 3
      vertex 2.58885 198.881 3
    endloop
  endfacet
  facet normal 0 0 1
    outer loop
      vertex 5 205 3
      vertex 0.988853 200.043 3
      vertex 1.88091 199.589 3
    endloop
  endfacet
  facet normal 0 0 1
    outer loop
      vertex 5 205 3
      vertex 0 200.2 3
      vertex 0.988853 200.043 3
    endloop
  endfacet
  facet normal 0 0 1
    outer loop
      vertex 5 205 3
      vertex -0.988853 200.043 3
      vertex 0 200.2 3
    endloop
  endfacet
  facet normal 0 0 1
    outer loop
      vertex 5 205 3
      vertex -1.88091 199.589 3
      vertex -0.988853 200.043 3
    endloop
  endfacet
  facet normal 0 0 1
    outer loop
      vertex -15 185 3
      vertex -3.2 195 3
      vertex -3.2 197 3
    endloop
  endfacet
  facet normal 0 0 1
    outer loop
      vertex -10 35 3
      vertex -2.58885 43.8809 3
      vertex -10 77 3
    endloop
  endfacet
  facet normal 0 0 1
    outer loop
      vertex -2.58885 43.8809 3
      vertex -10 35 3
      vertex -3.04338 42.9889 3
    endloop
  endfacet
  facet normal 0 0 1
    outer loop
      vertex -3.04338 42.9889 3
      vertex -10 35 3
      vertex -3.2 42 3
    endloop
  endfacet
  facet normal 0 0 1
    outer loop
      vertex -3.2 40 3
      vertex -10 35 3
      vertex -7 32 3
    endloop
  endfacet
  facet normal 0 0 1
    outer loop
      vertex 1.88091 192.411 3
      vertex -10 180 3
      vertex -10 105 3
    endloop
  endfacet
  facet normal 0 0 1
    outer loop
      vertex -15 185 3
      vertex -3.2 197 3
      vertex -3.04338 197.989 3
    endloop
  endfacet
  facet normal 0 0 1
    outer loop
      vertex -0.988853 191.957 3
      vertex -10.6699 182.5 3
      vertex -10 180 3
    endloop
  endfacet
  facet normal 0 0 1
    outer loop
      vertex -2.58885 193.119 3
      vertex -12.5 184.33 3
      vertex -10.6699 182.5 3
    endloop
  endfacet
  facet normal 0 0 1
    outer loop
      vertex -40 185 3
      vertex -3.04338 197.989 3
      vertex -2.58885 198.881 3
    endloop
  endfacet
  facet normal 0 0 1
    outer loop
      vertex -3.04338 194.011 3
      vertex -15 185 3
      vertex -12.5 184.33 3
    endloop
  endfacet
  facet normal 0 0 1
    outer loop
      vertex -3.04338 197.989 3
      vertex -40 185 3
      vertex -15 185 3
    endloop
  endfacet
  facet normal 0 0 1
    outer loop
      vertex -1.88091 199.589 3
      vertex -40 185 3
      vertex -2.58885 198.881 3
    endloop
  endfacet
  facet normal 0 0 1
    outer loop
      vertex 5 205 3
      vertex -40 185 3
      vertex -1.88091 199.589 3
    endloop
  endfacet
  facet normal 0 0 1
    outer loop
      vertex -58.4 185 3
      vertex -40 185 3
      vertex 5 205 3
    endloop
  endfacet
  facet normal 0 0 1
    outer loop
      vertex -58.4 170 3
      vertex -45 180 3
      vertex -58.4 185 3
    endloop
  endfacet
  facet normal 0 0 1
    outer loop
      vertex -44.3301 182.5 3
      vertex -58.4 185 3
      vertex -45 180 3
    endloop
  endfacet
  facet normal 0 0 1
    outer loop
      vertex -42.5 184.33 3
      vertex -58.4 185 3
      vertex -44.3301 182.5 3
    endloop
  endfacet
  facet normal 0 0 1
    outer loop
      vertex -40 185 3
      vertex -58.4 185 3
      vertex -42.5 184.33 3
    endloop
  endfacet
  facet normal 0 0 1
    outer loop
      vertex 5 205 3
      vertex -60 185 3
      vertex -58.4 185 3
    endloop
  endfacet
  facet normal 0 0 1
    outer loop
      vertex -143 205 3
      vertex -60 170 3
      vertex -60 185 3
    endloop
  endfacet
  facet normal 0 0 1
    outer loop
      vertex -60 170 3
      vertex -100 100 3
      vertex -60 115 3
    endloop
  endfacet
  facet normal 0 0 1
    outer loop
      vertex -60 115 3
      vertex -75 100 3
      vertex -60 100 3
    endloop
  endfacet
  facet normal 0 0 1
    outer loop
      vertex -75 100 3
      vertex -100 100 3
      vertex -75 98.4 3
    endloop
  endfacet
  facet normal 0 0 1
    outer loop
      vertex -60 115 3
      vertex -100 100 3
      vertex -75 100 3
    endloop
  endfacet
  facet normal 0 0 1
    outer loop
      vertex -60 170 3
      vertex -115 100 3
      vertex -100 100 3
    endloop
  endfacet
  facet normal 0 0 1
    outer loop
      vertex -60 170 3
      vertex -145 203 3
      vertex -115 100 3
    endloop
  endfacet
  facet normal -0 0 1
    outer loop
      vertex -145 203 3
      vertex -60 170 3
      vertex -143 205 3
    endloop
  endfacet
  facet normal -0 0 1
    outer loop
      vertex -143 205 3
      vertex -60 185 3
      vertex 5 205 3
    endloop
  endfacet
  facet normal -0 0 1
    outer loop
      vertex 3.04338 39.0111 3
      vertex 8 35 3
      vertex 3.2 40 3
    endloop
  endfacet
  facet normal -0 0 1
    outer loop
      vertex 2.58885 38.1191 3
      vertex 8 35 3
      vertex 3.04338 39.0111 3
    endloop
  endfacet
  facet normal 0 -0 1
    outer loop
      vertex 5 32 3
      vertex 8 35 3
      vertex 2.58885 38.1191 3
    endloop
  endfacet
  facet normal 0 0 1
    outer loop
      vertex 8 35 3
      vertex 5 32 3
      vertex 7.59807 33.5 3
    endloop
  endfacet
  facet normal 0 0 1
    outer loop
      vertex 7.59807 33.5 3
      vertex 5 32 3
      vertex 6.5 32.4019 3
    endloop
  endfacet
  facet normal -0 0 1
    outer loop
      vertex 1.88091 37.4111 3
      vertex 5 32 3
      vertex 2.58885 38.1191 3
    endloop
  endfacet
  facet normal -0 0 1
    outer loop
      vertex 0.988853 36.9566 3
      vertex 5 32 3
      vertex 1.88091 37.4111 3
    endloop
  endfacet
  facet normal -0 0 1
    outer loop
      vertex 0 36.8 3
      vertex 5 32 3
      vertex 0.988853 36.9566 3
    endloop
  endfacet
  facet normal 0 0 1
    outer loop
      vertex -7 32 3
      vertex 0 36.8 3
      vertex -0.988853 36.9566 3
    endloop
  endfacet
  facet normal 0 0 1
    outer loop
      vertex -7 32 3
      vertex -0.988853 36.9566 3
      vertex -1.88091 37.4111 3
    endloop
  endfacet
  facet normal 0 0 1
    outer loop
      vertex 0 36.8 3
      vertex -7 32 3
      vertex 5 32 3
    endloop
  endfacet
  facet normal 0 0 1
    outer loop
      vertex -2.58885 38.1191 3
      vertex -7 32 3
      vertex -1.88091 37.4111 3
    endloop
  endfacet
  facet normal 0 0 1
    outer loop
      vertex -3.04338 39.0111 3
      vertex -7 32 3
      vertex -2.58885 38.1191 3
    endloop
  endfacet
  facet normal 0 0 1
    outer loop
      vertex -7 32 3
      vertex -3.04338 39.0111 3
      vertex -3.2 40 3
    endloop
  endfacet
  facet normal 0 0 1
    outer loop
      vertex -3.2 42 3
      vertex -10 35 3
      vertex -3.2 40 3
    endloop
  endfacet
  facet normal 0 0 1
    outer loop
      vertex -7 32 3
      vertex -10 35 3
      vertex -8.5 32.4019 3
    endloop
  endfacet
  facet normal 0 0 1
    outer loop
      vertex -8.5 32.4019 3
      vertex -10 35 3
      vertex -9.59807 33.5 3
    endloop
  endfacet
  facet normal -0.707116 -0.707097 0
    outer loop
      vertex -8.5 32.4019 0
      vertex -9.59807 33.5 3
      vertex -9.59807 33.5 0
    endloop
  endfacet
  facet normal -0.707116 -0.707097 0
    outer loop
      vertex -9.59807 33.5 3
      vertex -8.5 32.4019 0
      vertex -8.5 32.4019 3
    endloop
  endfacet
  facet normal -0.965925 -0.258823 0
    outer loop
      vertex -9.59807 33.5 0
      vertex -10 35 3
      vertex -10 35 0
    endloop
  endfacet
  facet normal -0.965925 -0.258823 0
    outer loop
      vertex -10 35 3
      vertex -9.59807 33.5 0
      vertex -9.59807 33.5 3
    endloop
  endfacet
  facet normal -1 0 0
    outer loop
      vertex -10 35 0
      vertex -10 77 3
      vertex -10 77 0
    endloop
  endfacet
  facet normal -1 -0 0
    outer loop
      vertex -10 77 3
      vertex -10 35 0
      vertex -10 35 3
    endloop
  endfacet
  facet normal -0.96593 -0.258805 0
    outer loop
      vertex -10 77 0
      vertex -10.4019 78.5 3
      vertex -10.4019 78.5 0
    endloop
  endfacet
  facet normal -0.96593 -0.258805 0
    outer loop
      vertex -10.4019 78.5 3
      vertex -10 77 0
      vertex -10 77 3
    endloop
  endfacet
  facet normal -0.707107 -0.707107 0
    outer loop
      vertex -11.5 79.5981 0
      vertex -10.4019 78.5 3
      vertex -11.5 79.5981 3
    endloop
  endfacet
  facet normal -0.707107 -0.707107 -0
    outer loop
      vertex -10.4019 78.5 3
      vertex -11.5 79.5981 0
      vertex -10.4019 78.5 0
    endloop
  endfacet
  facet normal -0.258805 -0.96593 0
    outer loop
      vertex -13 80 0
      vertex -11.5 79.5981 3
      vertex -13 80 3
    endloop
  endfacet
  facet normal -0.258805 -0.96593 -0
    outer loop
      vertex -11.5 79.5981 3
      vertex -13 80 0
      vertex -11.5 79.5981 0
    endloop
  endfacet
  facet normal 0 -1 0
    outer loop
      vertex -143 80 0
      vertex -13 80 3
      vertex -143 80 3
    endloop
  endfacet
  facet normal 0 -1 -0
    outer loop
      vertex -13 80 3
      vertex -143 80 0
      vertex -13 80 0
    endloop
  endfacet
  facet normal -0.258775 -0.965938 0
    outer loop
      vertex -144 80.2679 0
      vertex -143 80 3
      vertex -144 80.2679 3
    endloop
  endfacet
  facet normal -0.258775 -0.965938 -0
    outer loop
      vertex -143 80 3
      vertex -144 80.2679 0
      vertex -143 80 0
    endloop
  endfacet
  facet normal -0.707155 -0.707058 0
    outer loop
      vertex -144 80.2679 0
      vertex -144.732 81 3
      vertex -144.732 81 0
    endloop
  endfacet
  facet normal -0.707155 -0.707058 0
    outer loop
      vertex -144.732 81 3
      vertex -144 80.2679 0
      vertex -144 80.2679 3
    endloop
  endfacet
  facet normal -0.965914 -0.258865 0
    outer loop
      vertex -144.732 81 0
      vertex -145 82 3
      vertex -145 82 0
    endloop
  endfacet
  facet normal -0.965914 -0.258865 0
    outer loop
      vertex -145 82 3
      vertex -144.732 81 0
      vertex -144.732 81 3
    endloop
  endfacet
  facet normal -1 0 0
    outer loop
      vertex -145 82 0
      vertex -145 203 3
      vertex -145 203 0
    endloop
  endfacet
  facet normal -1 -0 0
    outer loop
      vertex -145 203 3
      vertex -145 82 0
      vertex -145 82 3
    endloop
  endfacet
  facet normal -0.965914 0.258865 0
    outer loop
      vertex -145 203 0
      vertex -144.732 204 3
      vertex -144.732 204 0
    endloop
  endfacet
  facet normal -0.965914 0.258865 0
    outer loop
      vertex -144.732 204 3
      vertex -145 203 0
      vertex -145 203 3
    endloop
  endfacet
  facet normal -0.707107 0.707107 0
    outer loop
      vertex -144.732 204 0
      vertex -144 204.732 3
      vertex -144 204.732 0
    endloop
  endfacet
  facet normal -0.707107 0.707107 0
    outer loop
      vertex -144 204.732 3
      vertex -144.732 204 0
      vertex -144.732 204 3
    endloop
  endfacet
  facet normal -0.258865 0.965914 0
    outer loop
      vertex -143 205 0
      vertex -144 204.732 3
      vertex -143 205 3
    endloop
  endfacet
  facet normal -0.258865 0.965914 0
    outer loop
      vertex -144 204.732 3
      vertex -143 205 0
      vertex -144 204.732 0
    endloop
  endfacet
  facet normal 0 1 -0
    outer loop
      vertex 5 205 0
      vertex -143 205 3
      vertex 5 205 3
    endloop
  endfacet
  facet normal 0 1 0
    outer loop
      vertex -143 205 3
      vertex 5 205 0
      vertex -143 205 0
    endloop
  endfacet
  facet normal 0.258865 0.965914 -0
    outer loop
      vertex 6.5 204.598 0
      vertex 5 205 3
      vertex 6.5 204.598 3
    endloop
  endfacet
  facet normal 0.258865 0.965914 0
    outer loop
      vertex 5 205 3
      vertex 6.5 204.598 0
      vertex 5 205 0
    endloop
  endfacet
  facet normal 0.707084 0.707129 0
    outer loop
      vertex 7.59807 203.5 3
      vertex 6.5 204.598 0
      vertex 6.5 204.598 3
    endloop
  endfacet
  facet normal 0.707084 0.707129 0
    outer loop
      vertex 6.5 204.598 0
      vertex 7.59807 203.5 3
      vertex 7.59807 203.5 0
    endloop
  endfacet
  facet normal 0.965925 0.258823 0
    outer loop
      vertex 8 202 3
      vertex 7.59807 203.5 0
      vertex 7.59807 203.5 3
    endloop
  endfacet
  facet normal 0.965925 0.258823 0
    outer loop
      vertex 7.59807 203.5 0
      vertex 8 202 3
      vertex 8 202 0
    endloop
  endfacet
  facet normal 1 -0 0
    outer loop
      vertex 8 35 3
      vertex 8 202 0
      vertex 8 202 3
    endloop
  endfacet
  facet normal 1 0 0
    outer loop
      vertex 8 202 0
      vertex 8 35 3
      vertex 8 35 0
    endloop
  endfacet
  facet normal 0.965925 -0.258823 0
    outer loop
      vertex 7.59807 33.5 3
      vertex 8 35 0
      vertex 8 35 3
    endloop
  endfacet
  facet normal 0.965925 -0.258823 0
    outer loop
      vertex 8 35 0
      vertex 7.59807 33.5 3
      vertex 7.59807 33.5 0
    endloop
  endfacet
  facet normal 0.707116 -0.707097 0
    outer loop
      vertex 6.5 32.4019 3
      vertex 7.59807 33.5 0
      vertex 7.59807 33.5 3
    endloop
  endfacet
  facet normal 0.707116 -0.707097 0
    outer loop
      vertex 7.59807 33.5 0
      vertex 6.5 32.4019 3
      vertex 6.5 32.4019 0
    endloop
  endfacet
  facet normal 0.258805 -0.96593 0
    outer loop
      vertex 5 32 0
      vertex 6.5 32.4019 3
      vertex 5 32 3
    endloop
  endfacet
  facet normal 0.258805 -0.96593 0
    outer loop
      vertex 6.5 32.4019 3
      vertex 5 32 0
      vertex 6.5 32.4019 0
    endloop
  endfacet
  facet normal 0 -1 0
    outer loop
      vertex -7 32 0
      vertex 5 32 3
      vertex -7 32 3
    endloop
  endfacet
  facet normal 0 -1 -0
    outer loop
      vertex 5 32 3
      vertex -7 32 0
      vertex 5 32 0
    endloop
  endfacet
  facet normal -0.258805 -0.96593 0
    outer loop
      vertex -8.5 32.4019 0
      vertex -7 32 3
      vertex -8.5 32.4019 3
    endloop
  endfacet
  facet normal -0.258805 -0.96593 -0
    outer loop
      vertex -7 32 3
      vertex -8.5 32.4019 0
      vertex -7 32 0
    endloop
  endfacet
  facet normal 0.156416 -0.987691 0
    outer loop
      vertex -0.988853 45.0434 0
      vertex 0 45.2 3
      vertex -0.988853 45.0434 3
    endloop
  endfacet
  facet normal 0.156416 -0.987691 0
    outer loop
      vertex 0 45.2 3
      vertex -0.988853 45.0434 0
      vertex 0 45.2 0
    endloop
  endfacet
  facet normal -1 0 0
    outer loop
      vertex 3.2 40 0
      vertex 3.2 42 3
      vertex 3.2 42 0
    endloop
  endfacet
  facet normal -1 -0 0
    outer loop
      vertex 3.2 42 3
      vertex 3.2 40 0
      vertex 3.2 40 3
    endloop
  endfacet
  facet normal 0.890993 -0.454017 0
    outer loop
      vertex -3.04338 42.9889 3
      vertex -2.58885 43.8809 0
      vertex -2.58885 43.8809 3
    endloop
  endfacet
  facet normal 0.890993 -0.454017 0
    outer loop
      vertex -2.58885 43.8809 0
      vertex -3.04338 42.9889 3
      vertex -3.04338 42.9889 0
    endloop
  endfacet
  facet normal -0.45397 -0.891017 0
    outer loop
      vertex 0.988853 45.0434 0
      vertex 1.88091 44.5889 3
      vertex 0.988853 45.0434 3
    endloop
  endfacet
  facet normal -0.45397 -0.891017 -0
    outer loop
      vertex 1.88091 44.5889 3
      vertex 0.988853 45.0434 0
      vertex 1.88091 44.5889 0
    endloop
  endfacet
  facet normal -0.890993 0.454017 0
    outer loop
      vertex 2.58885 38.1191 0
      vertex 3.04338 39.0111 3
      vertex 3.04338 39.0111 0
    endloop
  endfacet
  facet normal -0.890993 0.454017 0
    outer loop
      vertex 3.04338 39.0111 3
      vertex 2.58885 38.1191 0
      vertex 2.58885 38.1191 3
    endloop
  endfacet
  facet normal -0.707137 0.707077 0
    outer loop
      vertex 1.88091 37.4111 0
      vertex 2.58885 38.1191 3
      vertex 2.58885 38.1191 0
    endloop
  endfacet
  facet normal -0.707137 0.707077 0
    outer loop
      vertex 2.58885 38.1191 3
      vertex 1.88091 37.4111 0
      vertex 1.88091 37.4111 3
    endloop
  endfacet
  facet normal -0.45397 0.891017 0
    outer loop
      vertex 1.88091 37.4111 0
      vertex 0.988853 36.9566 3
      vertex 1.88091 37.4111 3
    endloop
  endfacet
  facet normal -0.45397 0.891017 0
    outer loop
      vertex 0.988853 36.9566 3
      vertex 1.88091 37.4111 0
      vertex 0.988853 36.9566 0
    endloop
  endfacet
  facet normal -0.707137 -0.707077 0
    outer loop
      vertex 1.88091 44.5889 0
      vertex 2.58885 43.8809 3
      vertex 1.88091 44.5889 3
    endloop
  endfacet
  facet normal -0.707137 -0.707077 -0
    outer loop
      vertex 2.58885 43.8809 3
      vertex 1.88091 44.5889 0
      vertex 2.58885 43.8809 0
    endloop
  endfacet
  facet normal -0.987689 0.156428 0
    outer loop
      vertex 3.04338 39.0111 0
      vertex 3.2 40 3
      vertex 3.2 40 0
    endloop
  endfacet
  facet normal -0.987689 0.156428 0
    outer loop
      vertex 3.2 40 3
      vertex 3.04338 39.0111 0
      vertex 3.04338 39.0111 3
    endloop
  endfacet
  facet normal 0.707137 0.707077 0
    outer loop
      vertex -1.88091 37.4111 3
      vertex -2.58885 38.1191 0
      vertex -2.58885 38.1191 3
    endloop
  endfacet
  facet normal 0.707137 0.707077 0
    outer loop
      vertex -2.58885 38.1191 0
      vertex -1.88091 37.4111 3
      vertex -1.88091 37.4111 0
    endloop
  endfacet
  facet normal -0.156416 0.987691 0
    outer loop
      vertex 0.988853 36.9566 0
      vertex 0 36.8 3
      vertex 0.988853 36.9566 3
    endloop
  endfacet
  facet normal -0.156416 0.987691 0
    outer loop
      vertex 0 36.8 3
      vertex 0.988853 36.9566 0
      vertex 0 36.8 0
    endloop
  endfacet
  facet normal 0.45397 0.891017 -0
    outer loop
      vertex -0.988853 36.9566 0
      vertex -1.88091 37.4111 3
      vertex -0.988853 36.9566 3
    endloop
  endfacet
  facet normal 0.45397 0.891017 0
    outer loop
      vertex -1.88091 37.4111 3
      vertex -0.988853 36.9566 0
      vertex -1.88091 37.4111 0
    endloop
  endfacet
  facet normal 1 -0 0
    outer loop
      vertex -3.2 40 3
      vertex -3.2 42 0
      vertex -3.2 42 3
    endloop
  endfacet
  facet normal 1 0 0
    outer loop
      vertex -3.2 42 0
      vertex -3.2 40 3
      vertex -3.2 40 0
    endloop
  endfacet
  facet normal 0.707137 -0.707077 0
    outer loop
      vertex -2.58885 43.8809 0
      vertex -1.88091 44.5889 3
      vertex -2.58885 43.8809 3
    endloop
  endfacet
  facet normal 0.707137 -0.707077 0
    outer loop
      vertex -1.88091 44.5889 3
      vertex -2.58885 43.8809 0
      vertex -1.88091 44.5889 0
    endloop
  endfacet
  facet normal -0.156416 -0.987691 0
    outer loop
      vertex 0 45.2 0
      vertex 0.988853 45.0434 3
      vertex 0 45.2 3
    endloop
  endfacet
  facet normal -0.156416 -0.987691 -0
    outer loop
      vertex 0.988853 45.0434 3
      vertex 0 45.2 0
      vertex 0.988853 45.0434 0
    endloop
  endfacet
  facet normal 0.987689 -0.156428 0
    outer loop
      vertex -3.2 42 3
      vertex -3.04338 42.9889 0
      vertex -3.04338 42.9889 3
    endloop
  endfacet
  facet normal 0.987689 -0.156428 0
    outer loop
      vertex -3.04338 42.9889 0
      vertex -3.2 42 3
      vertex -3.2 42 0
    endloop
  endfacet
  facet normal 0.45397 -0.891017 0
    outer loop
      vertex -1.88091 44.5889 0
      vertex -0.988853 45.0434 3
      vertex -1.88091 44.5889 3
    endloop
  endfacet
  facet normal 0.45397 -0.891017 0
    outer loop
      vertex -0.988853 45.0434 3
      vertex -1.88091 44.5889 0
      vertex -0.988853 45.0434 0
    endloop
  endfacet
  facet normal 0.156416 0.987691 -0
    outer loop
      vertex 0 36.8 0
      vertex -0.988853 36.9566 3
      vertex 0 36.8 3
    endloop
  endfacet
  facet normal 0.156416 0.987691 0
    outer loop
      vertex -0.988853 36.9566 3
      vertex 0 36.8 0
      vertex -0.988853 36.9566 0
    endloop
  endfacet
  facet normal 0.987689 0.156428 0
    outer loop
      vertex -3.04338 39.0111 3
      vertex -3.2 40 0
      vertex -3.2 40 3
    endloop
  endfacet
  facet normal 0.987689 0.156428 0
    outer loop
      vertex -3.2 40 0
      vertex -3.04338 39.0111 3
      vertex -3.04338 39.0111 0
    endloop
  endfacet
  facet normal -0.890993 -0.454017 0
    outer loop
      vertex 3.04338 42.9889 0
      vertex 2.58885 43.8809 3
      vertex 2.58885 43.8809 0
    endloop
  endfacet
  facet normal -0.890993 -0.454017 0
    outer loop
      vertex 2.58885 43.8809 3
      vertex 3.04338 42.9889 0
      vertex 3.04338 42.9889 3
    endloop
  endfacet
  facet normal 0.890993 0.454017 0
    outer loop
      vertex -2.58885 38.1191 3
      vertex -3.04338 39.0111 0
      vertex -3.04338 39.0111 3
    endloop
  endfacet
  facet normal 0.890993 0.454017 0
    outer loop
      vertex -3.04338 39.0111 0
      vertex -2.58885 38.1191 3
      vertex -2.58885 38.1191 0
    endloop
  endfacet
  facet normal -0.987689 -0.156428 0
    outer loop
      vertex 3.2 42 0
      vertex 3.04338 42.9889 3
      vertex 3.04338 42.9889 0
    endloop
  endfacet
  facet normal -0.987689 -0.156428 0
    outer loop
      vertex 3.04338 42.9889 3
      vertex 3.2 42 0
      vertex 3.2 42 3
    endloop
  endfacet
  facet normal -0.890993 0.454017 0
    outer loop
      vertex 2.58885 193.119 0
      vertex 3.04338 194.011 3
      vertex 3.04338 194.011 0
    endloop
  endfacet
  facet normal -0.890993 0.454017 0
    outer loop
      vertex 3.04338 194.011 3
      vertex 2.58885 193.119 0
      vertex 2.58885 193.119 3
    endloop
  endfacet
  facet normal -1 0 0
    outer loop
      vertex 3.2 195 0
      vertex 3.2 197 3
      vertex 3.2 197 0
    endloop
  endfacet
  facet normal -1 -0 0
    outer loop
      vertex 3.2 197 3
      vertex 3.2 195 0
      vertex 3.2 195 3
    endloop
  endfacet
  facet normal -0.890993 -0.454017 0
    outer loop
      vertex 3.04338 197.989 0
      vertex 2.58885 198.881 3
      vertex 2.58885 198.881 0
    endloop
  endfacet
  facet normal -0.890993 -0.454017 0
    outer loop
      vertex 2.58885 198.881 3
      vertex 3.04338 197.989 0
      vertex 3.04338 197.989 3
    endloop
  endfacet
  facet normal -0.987692 0.156413 0
    outer loop
      vertex 3.04338 194.011 0
      vertex 3.2 195 3
      vertex 3.2 195 0
    endloop
  endfacet
  facet normal -0.987692 0.156413 0
    outer loop
      vertex 3.2 195 3
      vertex 3.04338 194.011 0
      vertex 3.04338 194.011 3
    endloop
  endfacet
  facet normal -0.987692 -0.156413 0
    outer loop
      vertex 3.2 197 0
      vertex 3.04338 197.989 3
      vertex 3.04338 197.989 0
    endloop
  endfacet
  facet normal -0.987692 -0.156413 0
    outer loop
      vertex 3.04338 197.989 3
      vertex 3.2 197 0
      vertex 3.2 197 3
    endloop
  endfacet
  facet normal -0.707137 -0.707077 0
    outer loop
      vertex 1.88091 199.589 0
      vertex 2.58885 198.881 3
      vertex 1.88091 199.589 3
    endloop
  endfacet
  facet normal -0.707137 -0.707077 -0
    outer loop
      vertex 2.58885 198.881 3
      vertex 1.88091 199.589 0
      vertex 2.58885 198.881 0
    endloop
  endfacet
  facet normal 0.707137 0.707077 -0
    outer loop
      vertex -1.88091 192.411 0
      vertex -2.58885 193.119 3
      vertex -1.88091 192.411 3
    endloop
  endfacet
  facet normal 0.707137 0.707077 0
    outer loop
      vertex -2.58885 193.119 3
      vertex -1.88091 192.411 0
      vertex -2.58885 193.119 0
    endloop
  endfacet
  facet normal 1 -0 0
    outer loop
      vertex -3.2 195 3
      vertex -3.2 197 0
      vertex -3.2 197 3
    endloop
  endfacet
  facet normal 1 0 0
    outer loop
      vertex -3.2 197 0
      vertex -3.2 195 3
      vertex -3.2 195 0
    endloop
  endfacet
  facet normal -0.453573 0.891219 0
    outer loop
      vertex 1.88091 192.411 0
      vertex 0.988853 191.957 3
      vertex 1.88091 192.411 3
    endloop
  endfacet
  facet normal -0.453573 0.891219 0
    outer loop
      vertex 0.988853 191.957 3
      vertex 1.88091 192.411 0
      vertex 0.988853 191.957 0
    endloop
  endfacet
  facet normal -0.156806 0.987629 0
    outer loop
      vertex 0.988853 191.957 0
      vertex 0 191.8 3
      vertex 0.988853 191.957 3
    endloop
  endfacet
  facet normal -0.156806 0.987629 0
    outer loop
      vertex 0 191.8 3
      vertex 0.988853 191.957 0
      vertex 0 191.8 0
    endloop
  endfacet
  facet normal -0.707137 0.707077 0
    outer loop
      vertex 2.58885 193.119 0
      vertex 1.88091 192.411 3
      vertex 2.58885 193.119 3
    endloop
  endfacet
  facet normal -0.707137 0.707077 0
    outer loop
      vertex 1.88091 192.411 3
      vertex 2.58885 193.119 0
      vertex 1.88091 192.411 0
    endloop
  endfacet
  facet normal -0.156806 -0.987629 0
    outer loop
      vertex 0 200.2 0
      vertex 0.988853 200.043 3
      vertex 0 200.2 3
    endloop
  endfacet
  facet normal -0.156806 -0.987629 -0
    outer loop
      vertex 0.988853 200.043 3
      vertex 0 200.2 0
      vertex 0.988853 200.043 0
    endloop
  endfacet
  facet normal 0.987692 -0.156413 0
    outer loop
      vertex -3.2 197 3
      vertex -3.04338 197.989 0
      vertex -3.04338 197.989 3
    endloop
  endfacet
  facet normal 0.987692 -0.156413 0
    outer loop
      vertex -3.04338 197.989 0
      vertex -3.2 197 3
      vertex -3.2 197 0
    endloop
  endfacet
  facet normal -0.453573 -0.891219 0
    outer loop
      vertex 0.988853 200.043 0
      vertex 1.88091 199.589 3
      vertex 0.988853 200.043 3
    endloop
  endfacet
  facet normal -0.453573 -0.891219 -0
    outer loop
      vertex 1.88091 199.589 3
      vertex 0.988853 200.043 0
      vertex 1.88091 199.589 0
    endloop
  endfacet
  facet normal 0.453573 0.891219 -0
    outer loop
      vertex -0.988853 191.957 0
      vertex -1.88091 192.411 3
      vertex -0.988853 191.957 3
    endloop
  endfacet
  facet normal 0.453573 0.891219 0
    outer loop
      vertex -1.88091 192.411 3
      vertex -0.988853 191.957 0
      vertex -1.88091 192.411 0
    endloop
  endfacet
  facet normal 0.987692 0.156413 0
    outer loop
      vertex -3.04338 194.011 3
      vertex -3.2 195 0
      vertex -3.2 195 3
    endloop
  endfacet
  facet normal 0.987692 0.156413 0
    outer loop
      vertex -3.2 195 0
      vertex -3.04338 194.011 3
      vertex -3.04338 194.011 0
    endloop
  endfacet
  facet normal 0.156806 -0.987629 0
    outer loop
      vertex -0.988853 200.043 0
      vertex 0 200.2 3
      vertex -0.988853 200.043 3
    endloop
  endfacet
  facet normal 0.156806 -0.987629 0
    outer loop
      vertex 0 200.2 3
      vertex -0.988853 200.043 0
      vertex 0 200.2 0
    endloop
  endfacet
  facet normal 0.890993 0.454017 0
    outer loop
      vertex -2.58885 193.119 3
      vertex -3.04338 194.011 0
      vertex -3.04338 194.011 3
    endloop
  endfacet
  facet normal 0.890993 0.454017 0
    outer loop
      vertex -3.04338 194.011 0
      vertex -2.58885 193.119 3
      vertex -2.58885 193.119 0
    endloop
  endfacet
  facet normal 0.890993 -0.454017 0
    outer loop
      vertex -3.04338 197.989 3
      vertex -2.58885 198.881 0
      vertex -2.58885 198.881 3
    endloop
  endfacet
  facet normal 0.890993 -0.454017 0
    outer loop
      vertex -2.58885 198.881 0
      vertex -3.04338 197.989 3
      vertex -3.04338 197.989 0
    endloop
  endfacet
  facet normal 0.707137 -0.707077 0
    outer loop
      vertex -2.58885 198.881 0
      vertex -1.88091 199.589 3
      vertex -2.58885 198.881 3
    endloop
  endfacet
  facet normal 0.707137 -0.707077 0
    outer loop
      vertex -1.88091 199.589 3
      vertex -2.58885 198.881 0
      vertex -1.88091 199.589 0
    endloop
  endfacet
  facet normal 0.453573 -0.891219 0
    outer loop
      vertex -1.88091 199.589 0
      vertex -0.988853 200.043 3
      vertex -1.88091 199.589 3
    endloop
  endfacet
  facet normal 0.453573 -0.891219 0
    outer loop
      vertex -0.988853 200.043 3
      vertex -1.88091 199.589 0
      vertex -0.988853 200.043 0
    endloop
  endfacet
  facet normal 0.156806 0.987629 -0
    outer loop
      vertex 0 191.8 0
      vertex -0.988853 191.957 3
      vertex 0 191.8 3
    endloop
  endfacet
  facet normal 0.156806 0.987629 0
    outer loop
      vertex -0.988853 191.957 3
      vertex 0 191.8 0
      vertex -0.988853 191.957 0
    endloop
  endfacet
  facet normal 0.965923 -0.258829 0
    outer loop
      vertex -45 180 3
      vertex -44.3301 182.5 0
      vertex -44.3301 182.5 3
    endloop
  endfacet
  facet normal 0.965923 -0.258829 0
    outer loop
      vertex -44.3301 182.5 0
      vertex -45 180 3
      vertex -45 180 0
    endloop
  endfacet
  facet normal -0.258865 0.965914 0
    outer loop
      vertex -12.5 100.67 0
      vertex -15 100 3
      vertex -12.5 100.67 3
    endloop
  endfacet
  facet normal -0.258865 0.965914 0
    outer loop
      vertex -15 100 3
      vertex -12.5 100.67 0
      vertex -15 100 0
    endloop
  endfacet
  facet normal 0.258865 0.965914 -0
    outer loop
      vertex -40 100 0
      vertex -42.5 100.67 3
      vertex -40 100 3
    endloop
  endfacet
  facet normal 0.258865 0.965914 0
    outer loop
      vertex -42.5 100.67 3
      vertex -40 100 0
      vertex -42.5 100.67 0
    endloop
  endfacet
  facet normal -0.707087 -0.707126 0
    outer loop
      vertex -12.5 184.33 0
      vertex -10.6699 182.5 3
      vertex -12.5 184.33 3
    endloop
  endfacet
  facet normal -0.707087 -0.707126 -0
    outer loop
      vertex -10.6699 182.5 3
      vertex -12.5 184.33 0
      vertex -10.6699 182.5 0
    endloop
  endfacet
  facet normal 0 1 -0
    outer loop
      vertex -15 100 0
      vertex -40 100 3
      vertex -15 100 3
    endloop
  endfacet
  facet normal 0 1 0
    outer loop
      vertex -40 100 3
      vertex -15 100 0
      vertex -40 100 0
    endloop
  endfacet
  facet normal -0.707087 0.707126 0
    outer loop
      vertex -12.5 100.67 0
      vertex -10.6699 102.5 3
      vertex -10.6699 102.5 0
    endloop
  endfacet
  facet normal -0.707087 0.707126 0
    outer loop
      vertex -10.6699 102.5 3
      vertex -12.5 100.67 0
      vertex -12.5 100.67 3
    endloop
  endfacet
  facet normal 0.707087 -0.707126 0
    outer loop
      vertex -44.3301 182.5 3
      vertex -42.5 184.33 0
      vertex -42.5 184.33 3
    endloop
  endfacet
  facet normal 0.707087 -0.707126 0
    outer loop
      vertex -42.5 184.33 0
      vertex -44.3301 182.5 3
      vertex -44.3301 182.5 0
    endloop
  endfacet
  facet normal 0 -1 0
    outer loop
      vertex -40 185 0
      vertex -15 185 3
      vertex -40 185 3
    endloop
  endfacet
  facet normal 0 -1 -0
    outer loop
      vertex -15 185 3
      vertex -40 185 0
      vertex -15 185 0
    endloop
  endfacet
  facet normal -0.965923 0.258829 0
    outer loop
      vertex -10.6699 102.5 0
      vertex -10 105 3
      vertex -10 105 0
    endloop
  endfacet
  facet normal -0.965923 0.258829 0
    outer loop
      vertex -10 105 3
      vertex -10.6699 102.5 0
      vertex -10.6699 102.5 3
    endloop
  endfacet
  facet normal 0.258865 -0.965914 0
    outer loop
      vertex -42.5 184.33 0
      vertex -40 185 3
      vertex -42.5 184.33 3
    endloop
  endfacet
  facet normal 0.258865 -0.965914 0
    outer loop
      vertex -40 185 3
      vertex -42.5 184.33 0
      vertex -40 185 0
    endloop
  endfacet
  facet normal 0.707087 0.707126 0
    outer loop
      vertex -42.5 100.67 3
      vertex -44.3301 102.5 0
      vertex -44.3301 102.5 3
    endloop
  endfacet
  facet normal 0.707087 0.707126 0
    outer loop
      vertex -44.3301 102.5 0
      vertex -42.5 100.67 3
      vertex -42.5 100.67 0
    endloop
  endfacet
  facet normal -0.258865 -0.965914 0
    outer loop
      vertex -15 185 0
      vertex -12.5 184.33 3
      vertex -15 185 3
    endloop
  endfacet
  facet normal -0.258865 -0.965914 -0
    outer loop
      vertex -12.5 184.33 3
      vertex -15 185 0
      vertex -12.5 184.33 0
    endloop
  endfacet
  facet normal -0.965923 -0.258829 0
    outer loop
      vertex -10 180 0
      vertex -10.6699 182.5 3
      vertex -10.6699 182.5 0
    endloop
  endfacet
  facet normal -0.965923 -0.258829 0
    outer loop
      vertex -10.6699 182.5 3
      vertex -10 180 0
      vertex -10 180 3
    endloop
  endfacet
  facet normal -1 0 0
    outer loop
      vertex -10 105 0
      vertex -10 180 3
      vertex -10 180 0
    endloop
  endfacet
  facet normal -1 -0 0
    outer loop
      vertex -10 180 3
      vertex -10 105 0
      vertex -10 105 3
    endloop
  endfacet
  facet normal 0.965923 0.258829 0
    outer loop
      vertex -44.3301 102.5 3
      vertex -45 105 0
      vertex -45 105 3
    endloop
  endfacet
  facet normal 0.965923 0.258829 0
    outer loop
      vertex -45 105 0
      vertex -44.3301 102.5 3
      vertex -44.3301 102.5 0
    endloop
  endfacet
  facet normal 1 -0 0
    outer loop
      vertex -45 105 3
      vertex -45 180 0
      vertex -45 180 3
    endloop
  endfacet
  facet normal 1 0 0
    outer loop
      vertex -45 180 0
      vertex -45 105 3
      vertex -45 105 0
    endloop
  endfacet
endsolid OpenSCAD_Model
