solid OpenSCAD_Model
  facet normal 0.968148 0.25038 0
    outer loop
      vertex 7.63226 1.34577 0.3
      vertex 7.32777 2.52315 0
      vertex 7.32777 2.52315 0.3
    endloop
  endfacet
  facet normal 0.968148 0.25038 0
    outer loop
      vertex 7.32777 2.52315 0
      vertex 7.63226 1.34577 0.3
      vertex 7.63226 1.34577 0
    endloop
  endfacet
  facet normal 0.91706 0.398749 0
    outer loop
      vertex 7.32777 2.52315 0.3
      vertex 6.84284 3.6384 0
      vertex 6.84284 3.6384 0.3
    endloop
  endfacet
  facet normal 0.91706 0.398749 0
    outer loop
      vertex 6.84284 3.6384 0
      vertex 7.32777 2.52315 0.3
      vertex 7.32777 2.52315 0
    endloop
  endfacet
  facet normal 0.843391 0.5373 0
    outer loop
      vertex 6.84284 3.6384 0.3
      vertex 6.18942 4.66407 0
      vertex 6.18942 4.66407 0.3
    endloop
  endfacet
  facet normal 0.843391 0.5373 0
    outer loop
      vertex 6.18942 4.66407 0
      vertex 6.84284 3.6384 0.3
      vertex 6.84284 3.6384 0
    endloop
  endfacet
  facet normal 0.748956 0.66262 0
    outer loop
      vertex 6.18942 4.66407 0.3
      vertex 5.3836 5.57488 0
      vertex 5.3836 5.57488 0.3
    endloop
  endfacet
  facet normal 0.748956 0.66262 0
    outer loop
      vertex 5.3836 5.57488 0
      vertex 6.18942 4.66407 0.3
      vertex 6.18942 4.66407 0
    endloop
  endfacet
  facet normal 0.636078 0.771624 -0
    outer loop
      vertex 5.3836 5.57488 0
      vertex 4.44522 6.34843 0.3
      vertex 5.3836 5.57488 0.3
    endloop
  endfacet
  facet normal 0.636078 0.771624 0
    outer loop
      vertex 4.44522 6.34843 0.3
      vertex 5.3836 5.57488 0
      vertex 4.44522 6.34843 0
    endloop
  endfacet
  facet normal 0.507538 0.861629 -0
    outer loop
      vertex 4.44522 6.34843 0
      vertex 3.39738 6.96565 0.3
      vertex 4.44522 6.34843 0.3
    endloop
  endfacet
  facet normal 0.507538 0.861629 0
    outer loop
      vertex 3.39738 6.96565 0.3
      vertex 4.44522 6.34843 0
      vertex 3.39738 6.96565 0
    endloop
  endfacet
  facet normal 0.366501 0.930418 -0
    outer loop
      vertex 3.39738 6.96565 0
      vertex 2.26588 7.41136 0.3
      vertex 3.39738 6.96565 0.3
    endloop
  endfacet
  facet normal 0.366501 0.930418 0
    outer loop
      vertex 2.26588 7.41136 0.3
      vertex 3.39738 6.96565 0
      vertex 2.26588 7.41136 0
    endloop
  endfacet
  facet normal 0.21644 0.976296 -0
    outer loop
      vertex 2.26588 7.41136 0
      vertex 1.07859 7.67458 0.3
      vertex 2.26588 7.41136 0.3
    endloop
  endfacet
  facet normal 0.21644 0.976296 0
    outer loop
      vertex 1.07859 7.67458 0.3
      vertex 2.26588 7.41136 0
      vertex 1.07859 7.67458 0
    endloop
  endfacet
  facet normal 0.0610485 0.998135 -0
    outer loop
      vertex 1.07859 7.67458 0
      vertex -0.135256 7.74882 0.3
      vertex 1.07859 7.67458 0.3
    endloop
  endfacet
  facet normal 0.0610485 0.998135 0
    outer loop
      vertex -0.135256 7.74882 0.3
      vertex 1.07859 7.67458 0
      vertex -0.135256 7.74882 0
    endloop
  endfacet
  facet normal -0.0958457 0.995396 0
    outer loop
      vertex -0.135256 7.74882 0
      vertex -1.34577 7.63226 0.3
      vertex -0.135256 7.74882 0.3
    endloop
  endfacet
  facet normal -0.0958457 0.995396 0
    outer loop
      vertex -1.34577 7.63226 0.3
      vertex -0.135256 7.74882 0
      vertex -1.34577 7.63226 0
    endloop
  endfacet
  facet normal -0.25038 0.968148 0
    outer loop
      vertex -1.34577 7.63226 0
      vertex -2.52315 7.32777 0.3
      vertex -1.34577 7.63226 0.3
    endloop
  endfacet
  facet normal -0.25038 0.968148 0
    outer loop
      vertex -2.52315 7.32777 0.3
      vertex -1.34577 7.63226 0
      vertex -2.52315 7.32777 0
    endloop
  endfacet
  facet normal -0.398749 0.91706 0
    outer loop
      vertex -2.52315 7.32777 0
      vertex -3.6384 6.84284 0.3
      vertex -2.52315 7.32777 0.3
    endloop
  endfacet
  facet normal -0.398749 0.91706 0
    outer loop
      vertex -3.6384 6.84284 0.3
      vertex -2.52315 7.32777 0
      vertex -3.6384 6.84284 0
    endloop
  endfacet
  facet normal -0.5373 0.843391 0
    outer loop
      vertex -3.6384 6.84284 0
      vertex -4.66407 6.18942 0.3
      vertex -3.6384 6.84284 0.3
    endloop
  endfacet
  facet normal -0.5373 0.843391 0
    outer loop
      vertex -4.66407 6.18942 0.3
      vertex -3.6384 6.84284 0
      vertex -4.66407 6.18942 0
    endloop
  endfacet
  facet normal -0.66262 0.748956 0
    outer loop
      vertex -4.66407 6.18942 0
      vertex -5.57488 5.3836 0.3
      vertex -4.66407 6.18942 0.3
    endloop
  endfacet
  facet normal -0.66262 0.748956 0
    outer loop
      vertex -5.57488 5.3836 0.3
      vertex -4.66407 6.18942 0
      vertex -5.57488 5.3836 0
    endloop
  endfacet
  facet normal -0.771624 0.636078 0
    outer loop
      vertex -6.34843 4.44522 0
      vertex -5.57488 5.3836 0.3
      vertex -5.57488 5.3836 0
    endloop
  endfacet
  facet normal -0.771624 0.636078 0
    outer loop
      vertex -5.57488 5.3836 0.3
      vertex -6.34843 4.44522 0
      vertex -6.34843 4.44522 0.3
    endloop
  endfacet
  facet normal -0.861629 0.507538 0
    outer loop
      vertex -6.96565 3.39738 0
      vertex -6.34843 4.44522 0.3
      vertex -6.34843 4.44522 0
    endloop
  endfacet
  facet normal -0.861629 0.507538 0
    outer loop
      vertex -6.34843 4.44522 0.3
      vertex -6.96565 3.39738 0
      vertex -6.96565 3.39738 0.3
    endloop
  endfacet
  facet normal -0.930418 0.366501 0
    outer loop
      vertex -7.41136 2.26588 0
      vertex -6.96565 3.39738 0.3
      vertex -6.96565 3.39738 0
    endloop
  endfacet
  facet normal -0.930418 0.366501 0
    outer loop
      vertex -6.96565 3.39738 0.3
      vertex -7.41136 2.26588 0
      vertex -7.41136 2.26588 0.3
    endloop
  endfacet
  facet normal -0.976296 0.21644 0
    outer loop
      vertex -7.67458 1.07859 0
      vertex -7.41136 2.26588 0.3
      vertex -7.41136 2.26588 0
    endloop
  endfacet
  facet normal -0.976296 0.21644 0
    outer loop
      vertex -7.41136 2.26588 0.3
      vertex -7.67458 1.07859 0
      vertex -7.67458 1.07859 0.3
    endloop
  endfacet
  facet normal -0.998135 0.0610485 0
    outer loop
      vertex -7.74882 -0.135256 0
      vertex -7.67458 1.07859 0.3
      vertex -7.67458 1.07859 0
    endloop
  endfacet
  facet normal -0.998135 0.0610485 0
    outer loop
      vertex -7.67458 1.07859 0.3
      vertex -7.74882 -0.135256 0
      vertex -7.74882 -0.135256 0.3
    endloop
  endfacet
  facet normal -0.995396 -0.0958457 0
    outer loop
      vertex -7.63226 -1.34577 0
      vertex -7.74882 -0.135256 0.3
      vertex -7.74882 -0.135256 0
    endloop
  endfacet
  facet normal -0.995396 -0.0958457 0
    outer loop
      vertex -7.74882 -0.135256 0.3
      vertex -7.63226 -1.34577 0
      vertex -7.63226 -1.34577 0.3
    endloop
  endfacet
  facet normal -0.968148 -0.25038 0
    outer loop
      vertex -7.32777 -2.52315 0
      vertex -7.63226 -1.34577 0.3
      vertex -7.63226 -1.34577 0
    endloop
  endfacet
  facet normal -0.968148 -0.25038 0
    outer loop
      vertex -7.63226 -1.34577 0.3
      vertex -7.32777 -2.52315 0
      vertex -7.32777 -2.52315 0.3
    endloop
  endfacet
  facet normal -0.91706 -0.398749 0
    outer loop
      vertex -6.84284 -3.6384 0
      vertex -7.32777 -2.52315 0.3
      vertex -7.32777 -2.52315 0
    endloop
  endfacet
  facet normal -0.91706 -0.398749 0
    outer loop
      vertex -7.32777 -2.52315 0.3
      vertex -6.84284 -3.6384 0
      vertex -6.84284 -3.6384 0.3
    endloop
  endfacet
  facet normal -0.843391 -0.5373 0
    outer loop
      vertex -6.18942 -4.66407 0
      vertex -6.84284 -3.6384 0.3
      vertex -6.84284 -3.6384 0
    endloop
  endfacet
  facet normal -0.843391 -0.5373 0
    outer loop
      vertex -6.84284 -3.6384 0.3
      vertex -6.18942 -4.66407 0
      vertex -6.18942 -4.66407 0.3
    endloop
  endfacet
  facet normal -0.748956 -0.66262 0
    outer loop
      vertex -5.3836 -5.57488 0
      vertex -6.18942 -4.66407 0.3
      vertex -6.18942 -4.66407 0
    endloop
  endfacet
  facet normal -0.748956 -0.66262 0
    outer loop
      vertex -6.18942 -4.66407 0.3
      vertex -5.3836 -5.57488 0
      vertex -5.3836 -5.57488 0.3
    endloop
  endfacet
  facet normal -0.636078 -0.771624 0
    outer loop
      vertex -5.3836 -5.57488 0
      vertex -4.44522 -6.34843 0.3
      vertex -5.3836 -5.57488 0.3
    endloop
  endfacet
  facet normal -0.636078 -0.771624 -0
    outer loop
      vertex -4.44522 -6.34843 0.3
      vertex -5.3836 -5.57488 0
      vertex -4.44522 -6.34843 0
    endloop
  endfacet
  facet normal -0.507538 -0.861629 0
    outer loop
      vertex -4.44522 -6.34843 0
      vertex -3.39738 -6.96565 0.3
      vertex -4.44522 -6.34843 0.3
    endloop
  endfacet
  facet normal -0.507538 -0.861629 -0
    outer loop
      vertex -3.39738 -6.96565 0.3
      vertex -4.44522 -6.34843 0
      vertex -3.39738 -6.96565 0
    endloop
  endfacet
  facet normal -0.366501 -0.930418 0
    outer loop
      vertex -3.39738 -6.96565 0
      vertex -2.26588 -7.41136 0.3
      vertex -3.39738 -6.96565 0.3
    endloop
  endfacet
  facet normal -0.366501 -0.930418 -0
    outer loop
      vertex -2.26588 -7.41136 0.3
      vertex -3.39738 -6.96565 0
      vertex -2.26588 -7.41136 0
    endloop
  endfacet
  facet normal -0.21644 -0.976296 0
    outer loop
      vertex -2.26588 -7.41136 0
      vertex -1.07859 -7.67458 0.3
      vertex -2.26588 -7.41136 0.3
    endloop
  endfacet
  facet normal -0.21644 -0.976296 -0
    outer loop
      vertex -1.07859 -7.67458 0.3
      vertex -2.26588 -7.41136 0
      vertex -1.07859 -7.67458 0
    endloop
  endfacet
  facet normal -0.0610485 -0.998135 0
    outer loop
      vertex -1.07859 -7.67458 0
      vertex 0.135256 -7.74882 0.3
      vertex -1.07859 -7.67458 0.3
    endloop
  endfacet
  facet normal -0.0610485 -0.998135 -0
    outer loop
      vertex 0.135256 -7.74882 0.3
      vertex -1.07859 -7.67458 0
      vertex 0.135256 -7.74882 0
    endloop
  endfacet
  facet normal 0.0958457 -0.995396 0
    outer loop
      vertex 0.135256 -7.74882 0
      vertex 1.34577 -7.63226 0.3
      vertex 0.135256 -7.74882 0.3
    endloop
  endfacet
  facet normal 0.0958457 -0.995396 0
    outer loop
      vertex 1.34577 -7.63226 0.3
      vertex 0.135256 -7.74882 0
      vertex 1.34577 -7.63226 0
    endloop
  endfacet
  facet normal 0.25038 -0.968148 0
    outer loop
      vertex 1.34577 -7.63226 0
      vertex 2.52315 -7.32777 0.3
      vertex 1.34577 -7.63226 0.3
    endloop
  endfacet
  facet normal 0.25038 -0.968148 0
    outer loop
      vertex 2.52315 -7.32777 0.3
      vertex 1.34577 -7.63226 0
      vertex 2.52315 -7.32777 0
    endloop
  endfacet
  facet normal 0.398749 -0.91706 0
    outer loop
      vertex 2.52315 -7.32777 0
      vertex 3.6384 -6.84284 0.3
      vertex 2.52315 -7.32777 0.3
    endloop
  endfacet
  facet normal 0.398749 -0.91706 0
    outer loop
      vertex 3.6384 -6.84284 0.3
      vertex 2.52315 -7.32777 0
      vertex 3.6384 -6.84284 0
    endloop
  endfacet
  facet normal 0.5373 -0.843391 0
    outer loop
      vertex 3.6384 -6.84284 0
      vertex 4.66407 -6.18942 0.3
      vertex 3.6384 -6.84284 0.3
    endloop
  endfacet
  facet normal 0.5373 -0.843391 0
    outer loop
      vertex 4.66407 -6.18942 0.3
      vertex 3.6384 -6.84284 0
      vertex 4.66407 -6.18942 0
    endloop
  endfacet
  facet normal 0.66262 -0.748956 0
    outer loop
      vertex 4.66407 -6.18942 0
      vertex 5.57488 -5.3836 0.3
      vertex 4.66407 -6.18942 0.3
    endloop
  endfacet
  facet normal 0.66262 -0.748956 0
    outer loop
      vertex 5.57488 -5.3836 0.3
      vertex 4.66407 -6.18942 0
      vertex 5.57488 -5.3836 0
    endloop
  endfacet
  facet normal 0.771624 -0.636078 0
    outer loop
      vertex 5.57488 -5.3836 0.3
      vertex 6.34843 -4.44522 0
      vertex 6.34843 -4.44522 0.3
    endloop
  endfacet
  facet normal 0.771624 -0.636078 0
    outer loop
      vertex 6.34843 -4.44522 0
      vertex 5.57488 -5.3836 0.3
      vertex 5.57488 -5.3836 0
    endloop
  endfacet
  facet normal 0.861629 -0.507538 0
    outer loop
      vertex 6.34843 -4.44522 0.3
      vertex 6.96565 -3.39738 0
      vertex 6.96565 -3.39738 0.3
    endloop
  endfacet
  facet normal 0.861629 -0.507538 0
    outer loop
      vertex 6.96565 -3.39738 0
      vertex 6.34843 -4.44522 0.3
      vertex 6.34843 -4.44522 0
    endloop
  endfacet
  facet normal 0.930418 -0.366501 0
    outer loop
      vertex 6.96565 -3.39738 0.3
      vertex 7.41136 -2.26588 0
      vertex 7.41136 -2.26588 0.3
    endloop
  endfacet
  facet normal 0.930418 -0.366501 0
    outer loop
      vertex 7.41136 -2.26588 0
      vertex 6.96565 -3.39738 0.3
      vertex 6.96565 -3.39738 0
    endloop
  endfacet
  facet normal 0.976296 -0.21644 0
    outer loop
      vertex 7.41136 -2.26588 0.3
      vertex 7.67458 -1.07859 0
      vertex 7.67458 -1.07859 0.3
    endloop
  endfacet
  facet normal 0.976296 -0.21644 0
    outer loop
      vertex 7.67458 -1.07859 0
      vertex 7.41136 -2.26588 0.3
      vertex 7.41136 -2.26588 0
    endloop
  endfacet
  facet normal 0.998135 -0.0610485 0
    outer loop
      vertex 7.67458 -1.07859 0.3
      vertex 7.74882 0.135256 0
      vertex 7.74882 0.135256 0.3
    endloop
  endfacet
  facet normal 0.998135 -0.0610485 0
    outer loop
      vertex 7.74882 0.135256 0
      vertex 7.67458 -1.07859 0.3
      vertex 7.67458 -1.07859 0
    endloop
  endfacet
  facet normal 0.995396 0.0958457 0
    outer loop
      vertex 7.74882 0.135256 0.3
      vertex 7.63226 1.34577 0
      vertex 7.63226 1.34577 0.3
    endloop
  endfacet
  facet normal 0.995396 0.0958457 0
    outer loop
      vertex 7.63226 1.34577 0
      vertex 7.74882 0.135256 0.3
      vertex 7.74882 0.135256 0
    endloop
  endfacet
  facet normal 0 0 -1
    outer loop
      vertex 7.67458 -1.07859 0
      vertex 7.63226 1.34577 0
      vertex 7.74882 0.135256 0
    endloop
  endfacet
  facet normal 0 0 -1
    outer loop
      vertex 7.41136 -2.26588 0
      vertex 7.63226 1.34577 0
      vertex 7.67458 -1.07859 0
    endloop
  endfacet
  facet normal 0 0 -1
    outer loop
      vertex 7.41136 -2.26588 0
      vertex 7.32777 2.52315 0
      vertex 7.63226 1.34577 0
    endloop
  endfacet
  facet normal 0 0 -1
    outer loop
      vertex 6.96565 -3.39738 0
      vertex 7.32777 2.52315 0
      vertex 7.41136 -2.26588 0
    endloop
  endfacet
  facet normal 0 0 -1
    outer loop
      vertex 6.96565 -3.39738 0
      vertex 6.84284 3.6384 0
      vertex 7.32777 2.52315 0
    endloop
  endfacet
  facet normal 0 0 -1
    outer loop
      vertex 6.34843 -4.44522 0
      vertex 6.84284 3.6384 0
      vertex 6.96565 -3.39738 0
    endloop
  endfacet
  facet normal 0 0 -1
    outer loop
      vertex 6.34843 -4.44522 0
      vertex 6.18942 4.66407 0
      vertex 6.84284 3.6384 0
    endloop
  endfacet
  facet normal 0 0 -1
    outer loop
      vertex 5.57488 -5.3836 0
      vertex 6.18942 4.66407 0
      vertex 6.34843 -4.44522 0
    endloop
  endfacet
  facet normal 0 0 -1
    outer loop
      vertex 5.57488 -5.3836 0
      vertex 5.3836 5.57488 0
      vertex 6.18942 4.66407 0
    endloop
  endfacet
  facet normal 0 0 -1
    outer loop
      vertex 4.66407 -6.18942 0
      vertex 5.3836 5.57488 0
      vertex 5.57488 -5.3836 0
    endloop
  endfacet
  facet normal 0 0 -1
    outer loop
      vertex 4.66407 -6.18942 0
      vertex 4.44522 6.34843 0
      vertex 5.3836 5.57488 0
    endloop
  endfacet
  facet normal 0 0 -1
    outer loop
      vertex 3.6384 -6.84284 0
      vertex 4.44522 6.34843 0
      vertex 4.66407 -6.18942 0
    endloop
  endfacet
  facet normal 0 0 -1
    outer loop
      vertex 3.6384 -6.84284 0
      vertex 3.39738 6.96565 0
      vertex 4.44522 6.34843 0
    endloop
  endfacet
  facet normal 0 0 -1
    outer loop
      vertex 2.52315 -7.32777 0
      vertex 3.39738 6.96565 0
      vertex 3.6384 -6.84284 0
    endloop
  endfacet
  facet normal 0 0 -1
    outer loop
      vertex 2.52315 -7.32777 0
      vertex 2.26588 7.41136 0
      vertex 3.39738 6.96565 0
    endloop
  endfacet
  facet normal 0 0 -1
    outer loop
      vertex 1.34577 -7.63226 0
      vertex 2.26588 7.41136 0
      vertex 2.52315 -7.32777 0
    endloop
  endfacet
  facet normal 0 0 -1
    outer loop
      vertex 1.34577 -7.63226 0
      vertex 1.07859 7.67458 0
      vertex 2.26588 7.41136 0
    endloop
  endfacet
  facet normal 0 0 -1
    outer loop
      vertex 0.135256 -7.74882 0
      vertex 1.07859 7.67458 0
      vertex 1.34577 -7.63226 0
    endloop
  endfacet
  facet normal 0 0 -1
    outer loop
      vertex 0.135256 -7.74882 0
      vertex -0.135256 7.74882 0
      vertex 1.07859 7.67458 0
    endloop
  endfacet
  facet normal 0 0 -1
    outer loop
      vertex -1.07859 -7.67458 0
      vertex -0.135256 7.74882 0
      vertex 0.135256 -7.74882 0
    endloop
  endfacet
  facet normal 0 0 -1
    outer loop
      vertex -1.07859 -7.67458 0
      vertex -1.34577 7.63226 0
      vertex -0.135256 7.74882 0
    endloop
  endfacet
  facet normal 0 0 -1
    outer loop
      vertex -2.26588 -7.41136 0
      vertex -1.34577 7.63226 0
      vertex -1.07859 -7.67458 0
    endloop
  endfacet
  facet normal 0 0 -1
    outer loop
      vertex -2.26588 -7.41136 0
      vertex -2.52315 7.32777 0
      vertex -1.34577 7.63226 0
    endloop
  endfacet
  facet normal 0 0 -1
    outer loop
      vertex -3.39738 -6.96565 0
      vertex -2.52315 7.32777 0
      vertex -2.26588 -7.41136 0
    endloop
  endfacet
  facet normal 0 0 -1
    outer loop
      vertex -3.39738 -6.96565 0
      vertex -3.6384 6.84284 0
      vertex -2.52315 7.32777 0
    endloop
  endfacet
  facet normal 0 0 -1
    outer loop
      vertex -4.44522 -6.34843 0
      vertex -3.6384 6.84284 0
      vertex -3.39738 -6.96565 0
    endloop
  endfacet
  facet normal 0 0 -1
    outer loop
      vertex -4.44522 -6.34843 0
      vertex -4.66407 6.18942 0
      vertex -3.6384 6.84284 0
    endloop
  endfacet
  facet normal 0 0 -1
    outer loop
      vertex -5.3836 -5.57488 0
      vertex -4.66407 6.18942 0
      vertex -4.44522 -6.34843 0
    endloop
  endfacet
  facet normal 0 0 -1
    outer loop
      vertex -5.3836 -5.57488 0
      vertex -5.57488 5.3836 0
      vertex -4.66407 6.18942 0
    endloop
  endfacet
  facet normal 0 0 -1
    outer loop
      vertex -6.18942 -4.66407 0
      vertex -5.57488 5.3836 0
      vertex -5.3836 -5.57488 0
    endloop
  endfacet
  facet normal 0 0 -1
    outer loop
      vertex -6.18942 -4.66407 0
      vertex -6.34843 4.44522 0
      vertex -5.57488 5.3836 0
    endloop
  endfacet
  facet normal 0 0 -1
    outer loop
      vertex -6.84284 -3.6384 0
      vertex -6.34843 4.44522 0
      vertex -6.18942 -4.66407 0
    endloop
  endfacet
  facet normal 0 0 -1
    outer loop
      vertex -6.84284 -3.6384 0
      vertex -6.96565 3.39738 0
      vertex -6.34843 4.44522 0
    endloop
  endfacet
  facet normal 0 0 -1
    outer loop
      vertex -7.32777 -2.52315 0
      vertex -6.96565 3.39738 0
      vertex -6.84284 -3.6384 0
    endloop
  endfacet
  facet normal 0 0 -1
    outer loop
      vertex -7.32777 -2.52315 0
      vertex -7.41136 2.26588 0
      vertex -6.96565 3.39738 0
    endloop
  endfacet
  facet normal 0 0 -1
    outer loop
      vertex -7.63226 -1.34577 0
      vertex -7.41136 2.26588 0
      vertex -7.32777 -2.52315 0
    endloop
  endfacet
  facet normal 0 0 -1
    outer loop
      vertex -7.63226 -1.34577 0
      vertex -7.67458 1.07859 0
      vertex -7.41136 2.26588 0
    endloop
  endfacet
  facet normal 0 -0 -1
    outer loop
      vertex -7.67458 1.07859 0
      vertex -7.63226 -1.34577 0
      vertex -7.74882 -0.135256 0
    endloop
  endfacet
  facet normal 0 0 1
    outer loop
      vertex 7.63226 1.34577 0.3
      vertex 7.67458 -1.07859 0.3
      vertex 7.74882 0.135256 0.3
    endloop
  endfacet
  facet normal 0 0 1
    outer loop
      vertex 7.63226 1.34577 0.3
      vertex 7.41136 -2.26588 0.3
      vertex 7.67458 -1.07859 0.3
    endloop
  endfacet
  facet normal 0 0 1
    outer loop
      vertex 7.32777 2.52315 0.3
      vertex 7.41136 -2.26588 0.3
      vertex 7.63226 1.34577 0.3
    endloop
  endfacet
  facet normal 0 0 1
    outer loop
      vertex 7.32777 2.52315 0.3
      vertex 6.96565 -3.39738 0.3
      vertex 7.41136 -2.26588 0.3
    endloop
  endfacet
  facet normal 0 0 1
    outer loop
      vertex 6.84284 3.6384 0.3
      vertex 6.96565 -3.39738 0.3
      vertex 7.32777 2.52315 0.3
    endloop
  endfacet
  facet normal 0 0 1
    outer loop
      vertex 6.84284 3.6384 0.3
      vertex 6.34843 -4.44522 0.3
      vertex 6.96565 -3.39738 0.3
    endloop
  endfacet
  facet normal 0 0 1
    outer loop
      vertex 6.18942 4.66407 0.3
      vertex 6.34843 -4.44522 0.3
      vertex 6.84284 3.6384 0.3
    endloop
  endfacet
  facet normal 0 0 1
    outer loop
      vertex 6.18942 4.66407 0.3
      vertex 5.57488 -5.3836 0.3
      vertex 6.34843 -4.44522 0.3
    endloop
  endfacet
  facet normal 0 0 1
    outer loop
      vertex 5.3836 5.57488 0.3
      vertex 5.57488 -5.3836 0.3
      vertex 6.18942 4.66407 0.3
    endloop
  endfacet
  facet normal 0 0 1
    outer loop
      vertex 5.3836 5.57488 0.3
      vertex 4.66407 -6.18942 0.3
      vertex 5.57488 -5.3836 0.3
    endloop
  endfacet
  facet normal 0 0 1
    outer loop
      vertex 4.44522 6.34843 0.3
      vertex 4.66407 -6.18942 0.3
      vertex 5.3836 5.57488 0.3
    endloop
  endfacet
  facet normal 0 0 1
    outer loop
      vertex 4.44522 6.34843 0.3
      vertex 3.6384 -6.84284 0.3
      vertex 4.66407 -6.18942 0.3
    endloop
  endfacet
  facet normal 0 0 1
    outer loop
      vertex 3.39738 6.96565 0.3
      vertex 3.6384 -6.84284 0.3
      vertex 4.44522 6.34843 0.3
    endloop
  endfacet
  facet normal 0 0 1
    outer loop
      vertex 3.39738 6.96565 0.3
      vertex 2.52315 -7.32777 0.3
      vertex 3.6384 -6.84284 0.3
    endloop
  endfacet
  facet normal 0 0 1
    outer loop
      vertex 2.26588 7.41136 0.3
      vertex 2.52315 -7.32777 0.3
      vertex 3.39738 6.96565 0.3
    endloop
  endfacet
  facet normal 0 0 1
    outer loop
      vertex 2.26588 7.41136 0.3
      vertex 1.34577 -7.63226 0.3
      vertex 2.52315 -7.32777 0.3
    endloop
  endfacet
  facet normal 0 0 1
    outer loop
      vertex 1.07859 7.67458 0.3
      vertex 1.34577 -7.63226 0.3
      vertex 2.26588 7.41136 0.3
    endloop
  endfacet
  facet normal 0 0 1
    outer loop
      vertex 1.07859 7.67458 0.3
      vertex 0.135256 -7.74882 0.3
      vertex 1.34577 -7.63226 0.3
    endloop
  endfacet
  facet normal 0 0 1
    outer loop
      vertex -0.135256 7.74882 0.3
      vertex 0.135256 -7.74882 0.3
      vertex 1.07859 7.67458 0.3
    endloop
  endfacet
  facet normal 0 0 1
    outer loop
      vertex -0.135256 7.74882 0.3
      vertex -1.07859 -7.67458 0.3
      vertex 0.135256 -7.74882 0.3
    endloop
  endfacet
  facet normal -0 0 1
    outer loop
      vertex -1.34577 7.63226 0.3
      vertex -1.07859 -7.67458 0.3
      vertex -0.135256 7.74882 0.3
    endloop
  endfacet
  facet normal 0 0 1
    outer loop
      vertex -1.34577 7.63226 0.3
      vertex -2.26588 -7.41136 0.3
      vertex -1.07859 -7.67458 0.3
    endloop
  endfacet
  facet normal -0 0 1
    outer loop
      vertex -2.52315 7.32777 0.3
      vertex -2.26588 -7.41136 0.3
      vertex -1.34577 7.63226 0.3
    endloop
  endfacet
  facet normal 0 0 1
    outer loop
      vertex -2.52315 7.32777 0.3
      vertex -3.39738 -6.96565 0.3
      vertex -2.26588 -7.41136 0.3
    endloop
  endfacet
  facet normal -0 0 1
    outer loop
      vertex -3.6384 6.84284 0.3
      vertex -3.39738 -6.96565 0.3
      vertex -2.52315 7.32777 0.3
    endloop
  endfacet
  facet normal 0 0 1
    outer loop
      vertex -3.6384 6.84284 0.3
      vertex -4.44522 -6.34843 0.3
      vertex -3.39738 -6.96565 0.3
    endloop
  endfacet
  facet normal -0 0 1
    outer loop
      vertex -4.66407 6.18942 0.3
      vertex -4.44522 -6.34843 0.3
      vertex -3.6384 6.84284 0.3
    endloop
  endfacet
  facet normal 0 0 1
    outer loop
      vertex -4.66407 6.18942 0.3
      vertex -5.3836 -5.57488 0.3
      vertex -4.44522 -6.34843 0.3
    endloop
  endfacet
  facet normal -0 0 1
    outer loop
      vertex -5.57488 5.3836 0.3
      vertex -5.3836 -5.57488 0.3
      vertex -4.66407 6.18942 0.3
    endloop
  endfacet
  facet normal 0 0 1
    outer loop
      vertex -5.57488 5.3836 0.3
      vertex -6.18942 -4.66407 0.3
      vertex -5.3836 -5.57488 0.3
    endloop
  endfacet
  facet normal -0 0 1
    outer loop
      vertex -6.34843 4.44522 0.3
      vertex -6.18942 -4.66407 0.3
      vertex -5.57488 5.3836 0.3
    endloop
  endfacet
  facet normal 0 0 1
    outer loop
      vertex -6.34843 4.44522 0.3
      vertex -6.84284 -3.6384 0.3
      vertex -6.18942 -4.66407 0.3
    endloop
  endfacet
  facet normal -0 0 1
    outer loop
      vertex -6.96565 3.39738 0.3
      vertex -6.84284 -3.6384 0.3
      vertex -6.34843 4.44522 0.3
    endloop
  endfacet
  facet normal 0 0 1
    outer loop
      vertex -6.96565 3.39738 0.3
      vertex -7.32777 -2.52315 0.3
      vertex -6.84284 -3.6384 0.3
    endloop
  endfacet
  facet normal -0 0 1
    outer loop
      vertex -7.41136 2.26588 0.3
      vertex -7.32777 -2.52315 0.3
      vertex -6.96565 3.39738 0.3
    endloop
  endfacet
  facet normal 0 0 1
    outer loop
      vertex -7.41136 2.26588 0.3
      vertex -7.63226 -1.34577 0.3
      vertex -7.32777 -2.52315 0.3
    endloop
  endfacet
  facet normal -0 0 1
    outer loop
      vertex -7.67458 1.07859 0.3
      vertex -7.63226 -1.34577 0.3
      vertex -7.41136 2.26588 0.3
    endloop
  endfacet
  facet normal 0 0 1
    outer loop
      vertex -7.63226 -1.34577 0.3
      vertex -7.67458 1.07859 0.3
      vertex -7.74882 -0.135256 0.3
    endloop
  endfacet
endsolid OpenSCAD_Model
