solid Default
  facet normal -1.000000e+00 -0.000000e+00 -0.000000e+00
    outer loop
      vertex -1.000000e+01 -2.050000e+01 0.000000e+00
      vertex -1.000000e+01 -2.050000e+01 2.000000e+01
      vertex -1.000000e+01 2.050000e+01 0.000000e+00
    endloop
  endfacet
  facet normal -1.000000e+00 0.000000e+00 0.000000e+00
    outer loop
      vertex -1.000000e+01 2.050000e+01 0.000000e+00
      vertex -1.000000e+01 -2.050000e+01 2.000000e+01
      vertex -1.000000e+01 2.050000e+01 2.000000e+01
    endloop
  endfacet
  facet normal 0.000000e+00 -1.000000e+00 0.000000e+00
    outer loop
      vertex -1.000000e+01 -2.050000e+01 2.000000e+01
      vertex -1.000000e+01 -2.050000e+01 0.000000e+00
      vertex -7.000000e+00 -2.050000e+01 0.000000e+00
    endloop
  endfacet
  facet normal 0.000000e+00 -1.000000e+00 0.000000e+00
    outer loop
      vertex -7.000000e+00 -2.050000e+01 2.000000e+01
      vertex -1.000000e+01 -2.050000e+01 2.000000e+01
      vertex -7.000000e+00 -2.050000e+01 0.000000e+00
    endloop
  endfacet
  facet normal -0.000000e+00 -0.000000e+00 -1.000000e+00
    outer loop
      vertex -1.000000e+01 -2.050000e+01 0.000000e+00
      vertex -1.000000e+01 2.050000e+01 0.000000e+00
      vertex -7.000000e+00 -2.050000e+01 0.000000e+00
    endloop
  endfacet
  facet normal 0.000000e+00 0.000000e+00 -1.000000e+00
    outer loop
      vertex -7.000000e+00 1.900000e+01 0.000000e+00
      vertex -1.000000e+01 2.050000e+01 0.000000e+00
      vertex -7.000000e+00 2.050000e+01 0.000000e+00
    endloop
  endfacet
  facet normal 0.000000e+00 0.000000e+00 -1.000000e+00
    outer loop
      vertex -7.000000e+00 -2.050000e+01 0.000000e+00
      vertex -1.000000e+01 2.050000e+01 0.000000e+00
      vertex -7.000000e+00 -1.900000e+01 0.000000e+00
    endloop
  endfacet
  facet normal 0.000000e+00 0.000000e+00 -1.000000e+00
    outer loop
      vertex 7.000000e+00 1.900000e+01 0.000000e+00
      vertex 7.000000e+00 2.050000e+01 0.000000e+00
      vertex 1.000000e+01 2.050000e+01 0.000000e+00
    endloop
  endfacet
  facet normal 0.000000e+00 0.000000e+00 -1.000000e+00
    outer loop
      vertex 7.000000e+00 -2.050000e+01 0.000000e+00
      vertex 1.000000e+01 2.050000e+01 0.000000e+00
      vertex 1.000000e+01 -2.050000e+01 0.000000e+00
    endloop
  endfacet
  facet normal 0.000000e+00 0.000000e+00 -1.000000e+00
    outer loop
      vertex 7.000000e+00 -1.900000e+01 0.000000e+00
      vertex 1.000000e+01 2.050000e+01 0.000000e+00
      vertex 7.000000e+00 -2.050000e+01 0.000000e+00
    endloop
  endfacet
  facet normal 0.000000e+00 0.000000e+00 -1.000000e+00
    outer loop
      vertex 7.000000e+00 -1.575000e+01 0.000000e+00
      vertex 1.000000e+01 2.050000e+01 0.000000e+00
      vertex 7.000000e+00 -1.900000e+01 0.000000e+00
    endloop
  endfacet
  facet normal 0.000000e+00 0.000000e+00 -1.000000e+00
    outer loop
      vertex -7.000000e+00 -1.575000e+01 0.000000e+00
      vertex -7.000000e+00 -1.900000e+01 0.000000e+00
      vertex -1.000000e+01 2.050000e+01 0.000000e+00
    endloop
  endfacet
  facet normal 0.000000e+00 0.000000e+00 -1.000000e+00
    outer loop
      vertex -7.000000e+00 1.750000e+00 0.000000e+00
      vertex -7.000000e+00 -1.750000e+00 0.000000e+00
      vertex -1.000000e+01 2.050000e+01 0.000000e+00
    endloop
  endfacet
  facet normal 0.000000e+00 0.000000e+00 -1.000000e+00
    outer loop
      vertex 7.000000e+00 -1.575000e+01 0.000000e+00
      vertex -7.000000e+00 -1.900000e+01 0.000000e+00
      vertex -7.000000e+00 -1.575000e+01 0.000000e+00
    endloop
  endfacet
  facet normal 0.000000e+00 0.000000e+00 -1.000000e+00
    outer loop
      vertex -7.000000e+00 -1.750000e+00 0.000000e+00
      vertex -7.000000e+00 -1.575000e+01 0.000000e+00
      vertex -1.000000e+01 2.050000e+01 0.000000e+00
    endloop
  endfacet
  facet normal 0.000000e+00 0.000000e+00 -1.000000e+00
    outer loop
      vertex 7.000000e+00 -1.750000e+00 0.000000e+00
      vertex 1.000000e+01 2.050000e+01 0.000000e+00
      vertex 7.000000e+00 -1.575000e+01 0.000000e+00
    endloop
  endfacet
  facet normal 0.000000e+00 0.000000e+00 -1.000000e+00
    outer loop
      vertex 7.000000e+00 1.750000e+00 0.000000e+00
      vertex 1.000000e+01 2.050000e+01 0.000000e+00
      vertex 7.000000e+00 -1.750000e+00 0.000000e+00
    endloop
  endfacet
  facet normal 0.000000e+00 0.000000e+00 -1.000000e+00
    outer loop
      vertex -7.000000e+00 1.900000e+01 0.000000e+00
      vertex 7.000000e+00 1.900000e+01 0.000000e+00
      vertex -7.000000e+00 1.575000e+01 0.000000e+00
    endloop
  endfacet
  facet normal 0.000000e+00 0.000000e+00 -1.000000e+00
    outer loop
      vertex -7.000000e+00 1.900000e+01 0.000000e+00
      vertex -7.000000e+00 1.575000e+01 0.000000e+00
      vertex -1.000000e+01 2.050000e+01 0.000000e+00
    endloop
  endfacet
  facet normal 0.000000e+00 0.000000e+00 -1.000000e+00
    outer loop
      vertex 7.000000e+00 1.750000e+00 0.000000e+00
      vertex -7.000000e+00 -1.750000e+00 0.000000e+00
      vertex -7.000000e+00 1.750000e+00 0.000000e+00
    endloop
  endfacet
  facet normal 0.000000e+00 0.000000e+00 -1.000000e+00
    outer loop
      vertex -7.000000e+00 1.575000e+01 0.000000e+00
      vertex -7.000000e+00 1.750000e+00 0.000000e+00
      vertex -1.000000e+01 2.050000e+01 0.000000e+00
    endloop
  endfacet
  facet normal 0.000000e+00 0.000000e+00 -1.000000e+00
    outer loop
      vertex -7.000000e+00 -1.750000e+00 0.000000e+00
      vertex 7.000000e+00 1.750000e+00 0.000000e+00
      vertex 7.000000e+00 -1.750000e+00 0.000000e+00
    endloop
  endfacet
  facet normal 0.000000e+00 0.000000e+00 -1.000000e+00
    outer loop
      vertex 7.000000e+00 1.900000e+01 0.000000e+00
      vertex 1.000000e+01 2.050000e+01 0.000000e+00
      vertex 7.000000e+00 1.575000e+01 0.000000e+00
    endloop
  endfacet
  facet normal 0.000000e+00 0.000000e+00 -1.000000e+00
    outer loop
      vertex 7.000000e+00 1.575000e+01 0.000000e+00
      vertex 1.000000e+01 2.050000e+01 0.000000e+00
      vertex 7.000000e+00 1.750000e+00 0.000000e+00
    endloop
  endfacet
  facet normal 0.000000e+00 0.000000e+00 -1.000000e+00
    outer loop
      vertex -7.000000e+00 1.575000e+01 0.000000e+00
      vertex 7.000000e+00 1.900000e+01 0.000000e+00
      vertex 7.000000e+00 1.575000e+01 0.000000e+00
    endloop
  endfacet
  facet normal 0.000000e+00 0.000000e+00 -1.000000e+00
    outer loop
      vertex -7.000000e+00 -1.900000e+01 0.000000e+00
      vertex 7.000000e+00 -1.575000e+01 0.000000e+00
      vertex 7.000000e+00 -1.900000e+01 0.000000e+00
    endloop
  endfacet
  facet normal 0.000000e+00 1.000000e+00 0.000000e+00
    outer loop
      vertex -1.000000e+01 2.050000e+01 0.000000e+00
      vertex -1.000000e+01 2.050000e+01 2.000000e+01
      vertex -7.000000e+00 2.050000e+01 0.000000e+00
    endloop
  endfacet
  facet normal 0.000000e+00 1.000000e+00 0.000000e+00
    outer loop
      vertex -7.000000e+00 2.050000e+01 0.000000e+00
      vertex -1.000000e+01 2.050000e+01 2.000000e+01
      vertex -7.000000e+00 2.050000e+01 2.000000e+01
    endloop
  endfacet
  facet normal 0.000000e+00 0.000000e+00 1.000000e+00
    outer loop
      vertex -1.000000e+01 2.050000e+01 2.000000e+01
      vertex -1.000000e+01 -2.050000e+01 2.000000e+01
      vertex -7.000000e+00 -2.050000e+01 2.000000e+01
    endloop
  endfacet
  facet normal 0.000000e+00 0.000000e+00 1.000000e+00
    outer loop
      vertex -7.000000e+00 -1.575000e+01 2.000000e+01
      vertex -1.000000e+01 2.050000e+01 2.000000e+01
      vertex -7.000000e+00 -1.900000e+01 2.000000e+01
    endloop
  endfacet
  facet normal 0.000000e+00 0.000000e+00 1.000000e+00
    outer loop
      vertex -7.000000e+00 -1.900000e+01 2.000000e+01
      vertex -1.000000e+01 2.050000e+01 2.000000e+01
      vertex -7.000000e+00 -2.050000e+01 2.000000e+01
    endloop
  endfacet
  facet normal 0.000000e+00 0.000000e+00 1.000000e+00
    outer loop
      vertex -7.000000e+00 1.575000e+01 2.000000e+01
      vertex 7.000000e+00 1.575000e+01 2.000000e+01
      vertex -7.000000e+00 1.900000e+01 2.000000e+01
    endloop
  endfacet
  facet normal 0.000000e+00 0.000000e+00 1.000000e+00
    outer loop
      vertex 1.000000e+01 -2.050000e+01 2.000000e+01
      vertex 7.000000e+00 -1.900000e+01 2.000000e+01
      vertex 7.000000e+00 -2.050000e+01 2.000000e+01
    endloop
  endfacet
  facet normal 0.000000e+00 0.000000e+00 1.000000e+00
    outer loop
      vertex 7.000000e+00 1.750000e+00 2.000000e+01
      vertex -7.000000e+00 1.750000e+00 2.000000e+01
      vertex 7.000000e+00 -1.750000e+00 2.000000e+01
    endloop
  endfacet
  facet normal 0.000000e+00 0.000000e+00 1.000000e+00
    outer loop
      vertex 1.000000e+01 2.050000e+01 2.000000e+01
      vertex 7.000000e+00 2.050000e+01 2.000000e+01
      vertex 1.000000e+01 -2.050000e+01 2.000000e+01
    endloop
  endfacet
  facet normal 0.000000e+00 0.000000e+00 1.000000e+00
    outer loop
      vertex 7.000000e+00 2.050000e+01 2.000000e+01
      vertex 7.000000e+00 1.900000e+01 2.000000e+01
      vertex 1.000000e+01 -2.050000e+01 2.000000e+01
    endloop
  endfacet
  facet normal 0.000000e+00 0.000000e+00 1.000000e+00
    outer loop
      vertex 7.000000e+00 -1.900000e+01 2.000000e+01
      vertex -7.000000e+00 -1.575000e+01 2.000000e+01
      vertex -7.000000e+00 -1.900000e+01 2.000000e+01
    endloop
  endfacet
  facet normal 0.000000e+00 0.000000e+00 1.000000e+00
    outer loop
      vertex -7.000000e+00 -1.750000e+00 2.000000e+01
      vertex -1.000000e+01 2.050000e+01 2.000000e+01
      vertex -7.000000e+00 -1.575000e+01 2.000000e+01
    endloop
  endfacet
  facet normal 0.000000e+00 0.000000e+00 1.000000e+00
    outer loop
      vertex 7.000000e+00 -1.750000e+00 2.000000e+01
      vertex 7.000000e+00 -1.575000e+01 2.000000e+01
      vertex 1.000000e+01 -2.050000e+01 2.000000e+01
    endloop
  endfacet
  facet normal 0.000000e+00 0.000000e+00 1.000000e+00
    outer loop
      vertex -7.000000e+00 1.750000e+00 2.000000e+01
      vertex -1.000000e+01 2.050000e+01 2.000000e+01
      vertex -7.000000e+00 -1.750000e+00 2.000000e+01
    endloop
  endfacet
  facet normal 0.000000e+00 0.000000e+00 1.000000e+00
    outer loop
      vertex 7.000000e+00 1.750000e+00 2.000000e+01
      vertex 7.000000e+00 -1.750000e+00 2.000000e+01
      vertex 1.000000e+01 -2.050000e+01 2.000000e+01
    endloop
  endfacet
  facet normal 0.000000e+00 0.000000e+00 1.000000e+00
    outer loop
      vertex 1.000000e+01 -2.050000e+01 2.000000e+01
      vertex 7.000000e+00 -1.575000e+01 2.000000e+01
      vertex 7.000000e+00 -1.900000e+01 2.000000e+01
    endloop
  endfacet
  facet normal 0.000000e+00 0.000000e+00 1.000000e+00
    outer loop
      vertex -7.000000e+00 1.750000e+00 2.000000e+01
      vertex -7.000000e+00 1.575000e+01 2.000000e+01
      vertex -1.000000e+01 2.050000e+01 2.000000e+01
    endloop
  endfacet
  facet normal 0.000000e+00 0.000000e+00 1.000000e+00
    outer loop
      vertex -7.000000e+00 1.900000e+01 2.000000e+01
      vertex -1.000000e+01 2.050000e+01 2.000000e+01
      vertex -7.000000e+00 1.575000e+01 2.000000e+01
    endloop
  endfacet
  facet normal 0.000000e+00 0.000000e+00 1.000000e+00
    outer loop
      vertex 7.000000e+00 1.900000e+01 2.000000e+01
      vertex 7.000000e+00 1.575000e+01 2.000000e+01
      vertex 1.000000e+01 -2.050000e+01 2.000000e+01
    endloop
  endfacet
  facet normal 0.000000e+00 0.000000e+00 1.000000e+00
    outer loop
      vertex 7.000000e+00 1.900000e+01 2.000000e+01
      vertex -7.000000e+00 1.900000e+01 2.000000e+01
      vertex 7.000000e+00 1.575000e+01 2.000000e+01
    endloop
  endfacet
  facet normal 0.000000e+00 0.000000e+00 1.000000e+00
    outer loop
      vertex 7.000000e+00 1.575000e+01 2.000000e+01
      vertex 7.000000e+00 1.750000e+00 2.000000e+01
      vertex 1.000000e+01 -2.050000e+01 2.000000e+01
    endloop
  endfacet
  facet normal 0.000000e+00 0.000000e+00 1.000000e+00
    outer loop
      vertex -7.000000e+00 1.900000e+01 2.000000e+01
      vertex -7.000000e+00 2.050000e+01 2.000000e+01
      vertex -1.000000e+01 2.050000e+01 2.000000e+01
    endloop
  endfacet
  facet normal 0.000000e+00 0.000000e+00 1.000000e+00
    outer loop
      vertex 7.000000e+00 -1.575000e+01 2.000000e+01
      vertex -7.000000e+00 -1.575000e+01 2.000000e+01
      vertex 7.000000e+00 -1.900000e+01 2.000000e+01
    endloop
  endfacet
  facet normal 0.000000e+00 0.000000e+00 1.000000e+00
    outer loop
      vertex -7.000000e+00 -1.750000e+00 2.000000e+01
      vertex 7.000000e+00 -1.750000e+00 2.000000e+01
      vertex -7.000000e+00 1.750000e+00 2.000000e+01
    endloop
  endfacet
  facet normal 1.000000e+00 0.000000e+00 0.000000e+00
    outer loop
      vertex -7.000000e+00 -1.900000e+01 0.000000e+00
      vertex -7.000000e+00 -1.900000e+01 2.000000e+01
      vertex -7.000000e+00 -2.050000e+01 2.000000e+01
    endloop
  endfacet
  facet normal 1.000000e+00 0.000000e+00 0.000000e+00
    outer loop
      vertex -7.000000e+00 -2.050000e+01 0.000000e+00
      vertex -7.000000e+00 -1.900000e+01 0.000000e+00
      vertex -7.000000e+00 -2.050000e+01 2.000000e+01
    endloop
  endfacet
  facet normal 0.000000e+00 -1.000000e+00 0.000000e+00
    outer loop
      vertex 7.000000e+00 -1.900000e+01 0.000000e+00
      vertex 7.000000e+00 -1.900000e+01 2.000000e+01
      vertex -7.000000e+00 -1.900000e+01 2.000000e+01
    endloop
  endfacet
  facet normal -0.000000e+00 -1.000000e+00 -0.000000e+00
    outer loop
      vertex -7.000000e+00 -1.900000e+01 0.000000e+00
      vertex 7.000000e+00 -1.900000e+01 0.000000e+00
      vertex -7.000000e+00 -1.900000e+01 2.000000e+01
    endloop
  endfacet
  facet normal -1.000000e+00 0.000000e+00 0.000000e+00
    outer loop
      vertex 7.000000e+00 -1.900000e+01 2.000000e+01
      vertex 7.000000e+00 -1.900000e+01 0.000000e+00
      vertex 7.000000e+00 -2.050000e+01 2.000000e+01
    endloop
  endfacet
  facet normal -1.000000e+00 0.000000e+00 0.000000e+00
    outer loop
      vertex 7.000000e+00 -2.050000e+01 2.000000e+01
      vertex 7.000000e+00 -1.900000e+01 0.000000e+00
      vertex 7.000000e+00 -2.050000e+01 0.000000e+00
    endloop
  endfacet
  facet normal 0.000000e+00 -1.000000e+00 0.000000e+00
    outer loop
      vertex 7.000000e+00 -2.050000e+01 2.000000e+01
      vertex 7.000000e+00 -2.050000e+01 0.000000e+00
      vertex 1.000000e+01 -2.050000e+01 0.000000e+00
    endloop
  endfacet
  facet normal 0.000000e+00 -1.000000e+00 0.000000e+00
    outer loop
      vertex 1.000000e+01 -2.050000e+01 2.000000e+01
      vertex 7.000000e+00 -2.050000e+01 2.000000e+01
      vertex 1.000000e+01 -2.050000e+01 0.000000e+00
    endloop
  endfacet
  facet normal 1.000000e+00 0.000000e+00 0.000000e+00
    outer loop
      vertex 1.000000e+01 -2.050000e+01 2.000000e+01
      vertex 1.000000e+01 -2.050000e+01 0.000000e+00
      vertex 1.000000e+01 2.050000e+01 0.000000e+00
    endloop
  endfacet
  facet normal 1.000000e+00 0.000000e+00 0.000000e+00
    outer loop
      vertex 1.000000e+01 2.050000e+01 2.000000e+01
      vertex 1.000000e+01 -2.050000e+01 2.000000e+01
      vertex 1.000000e+01 2.050000e+01 0.000000e+00
    endloop
  endfacet
  facet normal 0.000000e+00 1.000000e+00 0.000000e+00
    outer loop
      vertex 7.000000e+00 2.050000e+01 0.000000e+00
      vertex 7.000000e+00 2.050000e+01 2.000000e+01
      vertex 1.000000e+01 2.050000e+01 0.000000e+00
    endloop
  endfacet
  facet normal 0.000000e+00 1.000000e+00 0.000000e+00
    outer loop
      vertex 1.000000e+01 2.050000e+01 0.000000e+00
      vertex 7.000000e+00 2.050000e+01 2.000000e+01
      vertex 1.000000e+01 2.050000e+01 2.000000e+01
    endloop
  endfacet
  facet normal -1.000000e+00 0.000000e+00 0.000000e+00
    outer loop
      vertex 7.000000e+00 2.050000e+01 2.000000e+01
      vertex 7.000000e+00 2.050000e+01 0.000000e+00
      vertex 7.000000e+00 1.900000e+01 2.000000e+01
    endloop
  endfacet
  facet normal -1.000000e+00 0.000000e+00 0.000000e+00
    outer loop
      vertex 7.000000e+00 1.900000e+01 2.000000e+01
      vertex 7.000000e+00 2.050000e+01 0.000000e+00
      vertex 7.000000e+00 1.900000e+01 0.000000e+00
    endloop
  endfacet
  facet normal 0.000000e+00 1.000000e+00 0.000000e+00
    outer loop
      vertex 7.000000e+00 1.900000e+01 2.000000e+01
      vertex 7.000000e+00 1.900000e+01 0.000000e+00
      vertex -7.000000e+00 1.900000e+01 2.000000e+01
    endloop
  endfacet
  facet normal 0.000000e+00 1.000000e+00 0.000000e+00
    outer loop
      vertex -7.000000e+00 1.900000e+01 2.000000e+01
      vertex 7.000000e+00 1.900000e+01 0.000000e+00
      vertex -7.000000e+00 1.900000e+01 0.000000e+00
    endloop
  endfacet
  facet normal 1.000000e+00 0.000000e+00 0.000000e+00
    outer loop
      vertex -7.000000e+00 2.050000e+01 0.000000e+00
      vertex -7.000000e+00 2.050000e+01 2.000000e+01
      vertex -7.000000e+00 1.900000e+01 2.000000e+01
    endloop
  endfacet
  facet normal 1.000000e+00 0.000000e+00 0.000000e+00
    outer loop
      vertex -7.000000e+00 1.900000e+01 0.000000e+00
      vertex -7.000000e+00 2.050000e+01 0.000000e+00
      vertex -7.000000e+00 1.900000e+01 2.000000e+01
    endloop
  endfacet
  facet normal 1.000000e+00 0.000000e+00 0.000000e+00
    outer loop
      vertex -7.000000e+00 -1.750000e+00 0.000000e+00
      vertex -7.000000e+00 -1.750000e+00 2.000000e+01
      vertex -7.000000e+00 -1.575000e+01 2.000000e+01
    endloop
  endfacet
  facet normal 1.000000e+00 0.000000e+00 0.000000e+00
    outer loop
      vertex -7.000000e+00 -1.575000e+01 0.000000e+00
      vertex -7.000000e+00 -1.750000e+00 0.000000e+00
      vertex -7.000000e+00 -1.575000e+01 2.000000e+01
    endloop
  endfacet
  facet normal 0.000000e+00 -1.000000e+00 0.000000e+00
    outer loop
      vertex 7.000000e+00 -1.750000e+00 0.000000e+00
      vertex 7.000000e+00 -1.750000e+00 2.000000e+01
      vertex -7.000000e+00 -1.750000e+00 2.000000e+01
    endloop
  endfacet
  facet normal -0.000000e+00 -1.000000e+00 -0.000000e+00
    outer loop
      vertex -7.000000e+00 -1.750000e+00 0.000000e+00
      vertex 7.000000e+00 -1.750000e+00 0.000000e+00
      vertex -7.000000e+00 -1.750000e+00 2.000000e+01
    endloop
  endfacet
  facet normal -1.000000e+00 0.000000e+00 0.000000e+00
    outer loop
      vertex 7.000000e+00 -1.750000e+00 2.000000e+01
      vertex 7.000000e+00 -1.750000e+00 0.000000e+00
      vertex 7.000000e+00 -1.575000e+01 2.000000e+01
    endloop
  endfacet
  facet normal -1.000000e+00 0.000000e+00 0.000000e+00
    outer loop
      vertex 7.000000e+00 -1.575000e+01 2.000000e+01
      vertex 7.000000e+00 -1.750000e+00 0.000000e+00
      vertex 7.000000e+00 -1.575000e+01 0.000000e+00
    endloop
  endfacet
  facet normal 0.000000e+00 1.000000e+00 0.000000e+00
    outer loop
      vertex 7.000000e+00 -1.575000e+01 2.000000e+01
      vertex 7.000000e+00 -1.575000e+01 0.000000e+00
      vertex -7.000000e+00 -1.575000e+01 2.000000e+01
    endloop
  endfacet
  facet normal 0.000000e+00 1.000000e+00 0.000000e+00
    outer loop
      vertex -7.000000e+00 -1.575000e+01 2.000000e+01
      vertex 7.000000e+00 -1.575000e+01 0.000000e+00
      vertex -7.000000e+00 -1.575000e+01 0.000000e+00
    endloop
  endfacet
  facet normal 1.000000e+00 0.000000e+00 0.000000e+00
    outer loop
      vertex -7.000000e+00 1.575000e+01 0.000000e+00
      vertex -7.000000e+00 1.575000e+01 2.000000e+01
      vertex -7.000000e+00 1.750000e+00 2.000000e+01
    endloop
  endfacet
  facet normal 1.000000e+00 0.000000e+00 0.000000e+00
    outer loop
      vertex -7.000000e+00 1.750000e+00 0.000000e+00
      vertex -7.000000e+00 1.575000e+01 0.000000e+00
      vertex -7.000000e+00 1.750000e+00 2.000000e+01
    endloop
  endfacet
  facet normal 0.000000e+00 -1.000000e+00 0.000000e+00
    outer loop
      vertex 7.000000e+00 1.575000e+01 0.000000e+00
      vertex 7.000000e+00 1.575000e+01 2.000000e+01
      vertex -7.000000e+00 1.575000e+01 2.000000e+01
    endloop
  endfacet
  facet normal -0.000000e+00 -1.000000e+00 -0.000000e+00
    outer loop
      vertex -7.000000e+00 1.575000e+01 0.000000e+00
      vertex 7.000000e+00 1.575000e+01 0.000000e+00
      vertex -7.000000e+00 1.575000e+01 2.000000e+01
    endloop
  endfacet
  facet normal -1.000000e+00 0.000000e+00 0.000000e+00
    outer loop
      vertex 7.000000e+00 1.575000e+01 2.000000e+01
      vertex 7.000000e+00 1.575000e+01 0.000000e+00
      vertex 7.000000e+00 1.750000e+00 2.000000e+01
    endloop
  endfacet
  facet normal -1.000000e+00 0.000000e+00 0.000000e+00
    outer loop
      vertex 7.000000e+00 1.750000e+00 2.000000e+01
      vertex 7.000000e+00 1.575000e+01 0.000000e+00
      vertex 7.000000e+00 1.750000e+00 0.000000e+00
    endloop
  endfacet
  facet normal 0.000000e+00 1.000000e+00 0.000000e+00
    outer loop
      vertex 7.000000e+00 1.750000e+00 2.000000e+01
      vertex 7.000000e+00 1.750000e+00 0.000000e+00
      vertex -7.000000e+00 1.750000e+00 2.000000e+01
    endloop
  endfacet
  facet normal 0.000000e+00 1.000000e+00 0.000000e+00
    outer loop
      vertex -7.000000e+00 1.750000e+00 2.000000e+01
      vertex 7.000000e+00 1.750000e+00 0.000000e+00
      vertex -7.000000e+00 1.750000e+00 0.000000e+00
    endloop
  endfacet
endsolid Default
