solid OpenSCAD_Model
  facet normal 0.920733 0.028935 0.389119
    outer loop
      vertex 16 0 0
      vertex 14.2813 0.898502 4
      vertex 14.3095 0 4
    endloop
  endfacet
  facet normal 0.920733 0.0289361 0.389119
    outer loop
      vertex 15.9684 1.00465 0
      vertex 14.2813 0.898502 4
      vertex 16 0 0
    endloop
  endfacet
  facet normal -0.920733 -0.028935 0.389119
    outer loop
      vertex -14.3095 0 4
      vertex -16 0 0
      vertex -14.2813 -0.898502 4
    endloop
  endfacet
  facet normal 0.917099 0.0866917 0.389119
    outer loop
      vertex 15.8738 2.00533 0
      vertex 14.1967 1.79346 4
      vertex 14.2813 0.898502 4
    endloop
  endfacet
  facet normal 0.845424 0.365848 0.389118
    outer loop
      vertex 14.4772 6.81247 0
      vertex 12.9476 6.0927 4
      vertex 14.8764 5.88999 0
    endloop
  endfacet
  facet normal 0.028935 -0.920733 0.389119
    outer loop
      vertex 0 -14.3095 4
      vertex 0 -16 0
      vertex 0.898502 -14.2813 4
    endloop
  endfacet
  facet normal -0.028935 0.920733 0.389119
    outer loop
      vertex 0 16 0
      vertex -0.898502 14.2813 4
      vertex 0 14.3095 4
    endloop
  endfacet
  facet normal -0.917099 -0.0866917 0.389119
    outer loop
      vertex -14.2813 -0.898502 4
      vertex -15.8738 -2.00533 0
      vertex -14.1967 -1.79346 4
    endloop
  endfacet
  facet normal -0.899002 -0.200951 0.389119
    outer loop
      vertex -13.86 -3.55863 4
      vertex -15.7166 -2.9981 0
      vertex -15.4973 -3.97904 0
    endloop
  endfacet
  facet normal 0.651378 -0.651378 0.389119
    outer loop
      vertex 9.79554 -10.4312 4
      vertex 11.6635 -10.9528 0
      vertex 10.4312 -9.79554 4
    endloop
  endfacet
  facet normal 0.651378 -0.651378 0.389119
    outer loop
      vertex 11.6635 -10.9528 0
      vertex 9.79554 -10.4312 4
      vertex 10.9528 -11.6635 0
    endloop
  endfacet
  facet normal 0.651378 0.651378 0.389119
    outer loop
      vertex 9.79554 10.4312 4
      vertex 11.6635 10.9528 0
      vertex 10.9528 11.6635 0
    endloop
  endfacet
  facet normal 0.651378 0.651378 0.389119
    outer loop
      vertex 11.6635 10.9528 0
      vertex 9.79554 10.4312 4
      vertex 10.4312 9.79554 4
    endloop
  endfacet
  facet normal -0.909846 0.144105 0.389119
    outer loop
      vertex -14.0561 2.68134 4
      vertex -15.7166 2.9981 0
      vertex -14.1967 1.79346 4
    endloop
  endfacet
  facet normal -0.651378 -0.651378 0.389119
    outer loop
      vertex -11.6635 -10.9528 0
      vertex -9.79554 -10.4312 4
      vertex -10.4312 -9.79554 4
    endloop
  endfacet
  facet normal -0.651378 -0.651378 0.389119
    outer loop
      vertex -9.79554 -10.4312 4
      vertex -11.6635 -10.9528 0
      vertex -10.9528 -11.6635 0
    endloop
  endfacet
  facet normal 0.0866917 -0.917099 0.389119
    outer loop
      vertex 1.79346 -14.1967 4
      vertex 0.898502 -14.2813 4
      vertex 2.00533 -15.8738 0
    endloop
  endfacet
  facet normal 0.200951 -0.899002 0.389119
    outer loop
      vertex 3.55863 -13.86 4
      vertex 2.9981 -15.7166 0
      vertex 3.97904 -15.4973 0
    endloop
  endfacet
  facet normal 0.866728 -0.312041 0.389119
    outer loop
      vertex 15.2169 -4.94427 0
      vertex 13.3047 -5.26769 4
      vertex 14.8764 -5.88999 0
    endloop
  endfacet
  facet normal 0.909846 -0.144105 0.389119
    outer loop
      vertex 15.8738 -2.00533 0
      vertex 14.1967 -1.79346 4
      vertex 15.7166 -2.9981 0
    endloop
  endfacet
  facet normal 0.899002 0.200951 0.389119
    outer loop
      vertex 15.4973 3.97904 0
      vertex 13.86 3.55863 4
      vertex 15.7166 2.9981 0
    endloop
  endfacet
  facet normal -0.920733 0.0289361 0.389119
    outer loop
      vertex -15.9684 1.00465 0
      vertex -16 0 0
      vertex -14.2813 0.898502 4
    endloop
  endfacet
  facet normal -0.0866917 0.917099 0.389119
    outer loop
      vertex -0.898502 14.2813 4
      vertex -2.00533 15.8738 0
      vertex -1.79346 14.1967 4
    endloop
  endfacet
  facet normal 0.845425 0.365847 0.389119
    outer loop
      vertex 14.8764 5.88999 0
      vertex 12.9476 6.0927 4
      vertex 13.3047 5.26769 4
    endloop
  endfacet
  facet normal 0.884611 0.257003 0.389119
    outer loop
      vertex 15.2169 4.94427 0
      vertex 13.86 3.55863 4
      vertex 15.4973 3.97904 0
    endloop
  endfacet
  facet normal 0.0289361 0.920733 0.389119
    outer loop
      vertex 1.00465 15.9684 0
      vertex 0 16 0
      vertex 0.898502 14.2813 4
    endloop
  endfacet
  facet normal 0.365847 0.845425 0.389119
    outer loop
      vertex 5.88999 14.8764 0
      vertex 5.26769 13.3047 4
      vertex 6.0927 12.9476 4
    endloop
  endfacet
  facet normal -0.909846 -0.144105 0.389119
    outer loop
      vertex -14.1967 -1.79346 4
      vertex -15.8738 -2.00533 0
      vertex -15.7166 -2.9981 0
    endloop
  endfacet
  facet normal 0 0 -1
    outer loop
      vertex 15.9684 -1.00465 0
      vertex 15.9684 1.00465 0
      vertex 16 0 0
    endloop
  endfacet
  facet normal 0 0 -1
    outer loop
      vertex 15.8738 -2.00533 0
      vertex 15.9684 1.00465 0
      vertex 15.9684 -1.00465 0
    endloop
  endfacet
  facet normal 0 0 -1
    outer loop
      vertex 15.8738 -2.00533 0
      vertex 15.8738 2.00533 0
      vertex 15.9684 1.00465 0
    endloop
  endfacet
  facet normal 0 0 -1
    outer loop
      vertex 15.7166 -2.9981 0
      vertex 15.8738 2.00533 0
      vertex 15.8738 -2.00533 0
    endloop
  endfacet
  facet normal 0 0 -1
    outer loop
      vertex 15.7166 -2.9981 0
      vertex 15.7166 2.9981 0
      vertex 15.8738 2.00533 0
    endloop
  endfacet
  facet normal 0 0 -1
    outer loop
      vertex 15.4973 -3.97904 0
      vertex 15.7166 2.9981 0
      vertex 15.7166 -2.9981 0
    endloop
  endfacet
  facet normal 0 0 -1
    outer loop
      vertex 15.4973 -3.97904 0
      vertex 15.4973 3.97904 0
      vertex 15.7166 2.9981 0
    endloop
  endfacet
  facet normal 0 0 -1
    outer loop
      vertex 15.2169 -4.94427 0
      vertex 15.4973 3.97904 0
      vertex 15.4973 -3.97904 0
    endloop
  endfacet
  facet normal 0 0 -1
    outer loop
      vertex 15.2169 -4.94427 0
      vertex 15.2169 4.94427 0
      vertex 15.4973 3.97904 0
    endloop
  endfacet
  facet normal 0 0 -1
    outer loop
      vertex 14.8764 -5.88999 0
      vertex 15.2169 4.94427 0
      vertex 15.2169 -4.94427 0
    endloop
  endfacet
  facet normal 0 0 -1
    outer loop
      vertex 14.8764 -5.88999 0
      vertex 14.8764 5.88999 0
      vertex 15.2169 4.94427 0
    endloop
  endfacet
  facet normal 0 0 -1
    outer loop
      vertex 14.4772 -6.81247 0
      vertex 14.8764 5.88999 0
      vertex 14.8764 -5.88999 0
    endloop
  endfacet
  facet normal 0 0 -1
    outer loop
      vertex 14.4772 -6.81247 0
      vertex 14.4772 6.81247 0
      vertex 14.8764 5.88999 0
    endloop
  endfacet
  facet normal 0 0 -1
    outer loop
      vertex 14.0209 -7.70806 0
      vertex 14.4772 6.81247 0
      vertex 14.4772 -6.81247 0
    endloop
  endfacet
  facet normal 0 0 -1
    outer loop
      vertex 14.0209 -7.70806 0
      vertex 14.0209 7.70806 0
      vertex 14.4772 6.81247 0
    endloop
  endfacet
  facet normal 0 0 -1
    outer loop
      vertex 13.5092 -8.57323 0
      vertex 14.0209 7.70806 0
      vertex 14.0209 -7.70806 0
    endloop
  endfacet
  facet normal 0 0 -1
    outer loop
      vertex 13.5092 -8.57323 0
      vertex 13.5092 8.57323 0
      vertex 14.0209 7.70806 0
    endloop
  endfacet
  facet normal 0 0 -1
    outer loop
      vertex 12.9443 -9.40456 0
      vertex 13.5092 8.57323 0
      vertex 13.5092 -8.57323 0
    endloop
  endfacet
  facet normal 0 0 -1
    outer loop
      vertex 12.9443 -9.40456 0
      vertex 12.9443 9.40456 0
      vertex 13.5092 8.57323 0
    endloop
  endfacet
  facet normal 0 0 -1
    outer loop
      vertex 12.3282 -10.1988 0
      vertex 12.9443 9.40456 0
      vertex 12.9443 -9.40456 0
    endloop
  endfacet
  facet normal 0 0 -1
    outer loop
      vertex 12.3282 -10.1988 0
      vertex 12.3282 10.1988 0
      vertex 12.9443 9.40456 0
    endloop
  endfacet
  facet normal 0 0 -1
    outer loop
      vertex 11.6635 -10.9528 0
      vertex 12.3282 10.1988 0
      vertex 12.3282 -10.1988 0
    endloop
  endfacet
  facet normal 0 0 -1
    outer loop
      vertex 11.6635 -10.9528 0
      vertex 11.6635 10.9528 0
      vertex 12.3282 10.1988 0
    endloop
  endfacet
  facet normal 0 0 -1
    outer loop
      vertex 10.9528 -11.6635 0
      vertex 11.6635 10.9528 0
      vertex 11.6635 -10.9528 0
    endloop
  endfacet
  facet normal 0 0 -1
    outer loop
      vertex 10.9528 -11.6635 0
      vertex 10.9528 11.6635 0
      vertex 11.6635 10.9528 0
    endloop
  endfacet
  facet normal 0 0 -1
    outer loop
      vertex 10.1988 -12.3282 0
      vertex 10.9528 11.6635 0
      vertex 10.9528 -11.6635 0
    endloop
  endfacet
  facet normal 0 0 -1
    outer loop
      vertex 10.1988 -12.3282 0
      vertex 10.1988 12.3282 0
      vertex 10.9528 11.6635 0
    endloop
  endfacet
  facet normal 0 0 -1
    outer loop
      vertex 9.40456 -12.9443 0
      vertex 10.1988 12.3282 0
      vertex 10.1988 -12.3282 0
    endloop
  endfacet
  facet normal 0 0 -1
    outer loop
      vertex 9.40456 -12.9443 0
      vertex 9.40456 12.9443 0
      vertex 10.1988 12.3282 0
    endloop
  endfacet
  facet normal 0 0 -1
    outer loop
      vertex 8.57323 -13.5092 0
      vertex 9.40456 12.9443 0
      vertex 9.40456 -12.9443 0
    endloop
  endfacet
  facet normal 0 0 -1
    outer loop
      vertex 8.57323 -13.5092 0
      vertex 8.57323 13.5092 0
      vertex 9.40456 12.9443 0
    endloop
  endfacet
  facet normal 0 0 -1
    outer loop
      vertex 7.70806 -14.0209 0
      vertex 8.57323 13.5092 0
      vertex 8.57323 -13.5092 0
    endloop
  endfacet
  facet normal 0 0 -1
    outer loop
      vertex 7.70806 -14.0209 0
      vertex 7.70806 14.0209 0
      vertex 8.57323 13.5092 0
    endloop
  endfacet
  facet normal 0 0 -1
    outer loop
      vertex 6.81247 -14.4772 0
      vertex 7.70806 14.0209 0
      vertex 7.70806 -14.0209 0
    endloop
  endfacet
  facet normal 0 0 -1
    outer loop
      vertex 6.81247 -14.4772 0
      vertex 6.81247 14.4772 0
      vertex 7.70806 14.0209 0
    endloop
  endfacet
  facet normal 0 0 -1
    outer loop
      vertex 5.88999 -14.8764 0
      vertex 6.81247 14.4772 0
      vertex 6.81247 -14.4772 0
    endloop
  endfacet
  facet normal 0 0 -1
    outer loop
      vertex 5.88999 -14.8764 0
      vertex 5.88999 14.8764 0
      vertex 6.81247 14.4772 0
    endloop
  endfacet
  facet normal 0 0 -1
    outer loop
      vertex 4.94427 -15.2169 0
      vertex 5.88999 14.8764 0
      vertex 5.88999 -14.8764 0
    endloop
  endfacet
  facet normal 0 0 -1
    outer loop
      vertex 4.94427 -15.2169 0
      vertex 4.94427 15.2169 0
      vertex 5.88999 14.8764 0
    endloop
  endfacet
  facet normal 0 0 -1
    outer loop
      vertex 3.97904 -15.4973 0
      vertex 4.94427 15.2169 0
      vertex 4.94427 -15.2169 0
    endloop
  endfacet
  facet normal 0 0 -1
    outer loop
      vertex 3.97904 -15.4973 0
      vertex 3.97904 15.4973 0
      vertex 4.94427 15.2169 0
    endloop
  endfacet
  facet normal 0 0 -1
    outer loop
      vertex 2.9981 -15.7166 0
      vertex 3.97904 15.4973 0
      vertex 3.97904 -15.4973 0
    endloop
  endfacet
  facet normal 0 0 -1
    outer loop
      vertex 2.9981 -15.7166 0
      vertex 2.9981 15.7166 0
      vertex 3.97904 15.4973 0
    endloop
  endfacet
  facet normal 0 0 -1
    outer loop
      vertex 2.00533 -15.8738 0
      vertex 2.9981 15.7166 0
      vertex 2.9981 -15.7166 0
    endloop
  endfacet
  facet normal 0 0 -1
    outer loop
      vertex 2.00533 -15.8738 0
      vertex 2.00533 15.8738 0
      vertex 2.9981 15.7166 0
    endloop
  endfacet
  facet normal 0 0 -1
    outer loop
      vertex 1.00465 -15.9684 0
      vertex 2.00533 15.8738 0
      vertex 2.00533 -15.8738 0
    endloop
  endfacet
  facet normal 0 0 -1
    outer loop
      vertex 1.00465 -15.9684 0
      vertex 1.00465 15.9684 0
      vertex 2.00533 15.8738 0
    endloop
  endfacet
  facet normal 0 0 -1
    outer loop
      vertex 0 -16 0
      vertex 1.00465 15.9684 0
      vertex 1.00465 -15.9684 0
    endloop
  endfacet
  facet normal 0 0 -1
    outer loop
      vertex 0 -16 0
      vertex 0 16 0
      vertex 1.00465 15.9684 0
    endloop
  endfacet
  facet normal 0 0 -1
    outer loop
      vertex -1.00465 -15.9684 0
      vertex 0 16 0
      vertex 0 -16 0
    endloop
  endfacet
  facet normal 0 0 -1
    outer loop
      vertex -1.00465 -15.9684 0
      vertex -1.00465 15.9684 0
      vertex 0 16 0
    endloop
  endfacet
  facet normal 0 0 -1
    outer loop
      vertex -2.00533 -15.8738 0
      vertex -1.00465 15.9684 0
      vertex -1.00465 -15.9684 0
    endloop
  endfacet
  facet normal 0 0 -1
    outer loop
      vertex -2.00533 -15.8738 0
      vertex -2.00533 15.8738 0
      vertex -1.00465 15.9684 0
    endloop
  endfacet
  facet normal 0 0 -1
    outer loop
      vertex -2.9981 -15.7166 0
      vertex -2.00533 15.8738 0
      vertex -2.00533 -15.8738 0
    endloop
  endfacet
  facet normal 0 0 -1
    outer loop
      vertex -2.9981 -15.7166 0
      vertex -2.9981 15.7166 0
      vertex -2.00533 15.8738 0
    endloop
  endfacet
  facet normal 0 0 -1
    outer loop
      vertex -3.97904 -15.4973 0
      vertex -2.9981 15.7166 0
      vertex -2.9981 -15.7166 0
    endloop
  endfacet
  facet normal 0 0 -1
    outer loop
      vertex -3.97904 -15.4973 0
      vertex -3.97904 15.4973 0
      vertex -2.9981 15.7166 0
    endloop
  endfacet
  facet normal 0 0 -1
    outer loop
      vertex -4.94427 -15.2169 0
      vertex -3.97904 15.4973 0
      vertex -3.97904 -15.4973 0
    endloop
  endfacet
  facet normal 0 0 -1
    outer loop
      vertex -4.94427 -15.2169 0
      vertex -4.94427 15.2169 0
      vertex -3.97904 15.4973 0
    endloop
  endfacet
  facet normal 0 0 -1
    outer loop
      vertex -5.88999 -14.8764 0
      vertex -4.94427 15.2169 0
      vertex -4.94427 -15.2169 0
    endloop
  endfacet
  facet normal 0 0 -1
    outer loop
      vertex -5.88999 -14.8764 0
      vertex -5.88999 14.8764 0
      vertex -4.94427 15.2169 0
    endloop
  endfacet
  facet normal 0 0 -1
    outer loop
      vertex -6.81247 -14.4772 0
      vertex -5.88999 14.8764 0
      vertex -5.88999 -14.8764 0
    endloop
  endfacet
  facet normal 0 0 -1
    outer loop
      vertex -6.81247 -14.4772 0
      vertex -6.81247 14.4772 0
      vertex -5.88999 14.8764 0
    endloop
  endfacet
  facet normal 0 0 -1
    outer loop
      vertex -7.70806 -14.0209 0
      vertex -6.81247 14.4772 0
      vertex -6.81247 -14.4772 0
    endloop
  endfacet
  facet normal 0 0 -1
    outer loop
      vertex -7.70806 -14.0209 0
      vertex -7.70806 14.0209 0
      vertex -6.81247 14.4772 0
    endloop
  endfacet
  facet normal 0 0 -1
    outer loop
      vertex -8.57323 -13.5092 0
      vertex -7.70806 14.0209 0
      vertex -7.70806 -14.0209 0
    endloop
  endfacet
  facet normal 0 0 -1
    outer loop
      vertex -8.57323 -13.5092 0
      vertex -8.57323 13.5092 0
      vertex -7.70806 14.0209 0
    endloop
  endfacet
  facet normal 0 0 -1
    outer loop
      vertex -9.40456 -12.9443 0
      vertex -8.57323 13.5092 0
      vertex -8.57323 -13.5092 0
    endloop
  endfacet
  facet normal 0 0 -1
    outer loop
      vertex -9.40456 -12.9443 0
      vertex -9.40456 12.9443 0
      vertex -8.57323 13.5092 0
    endloop
  endfacet
  facet normal 0 0 -1
    outer loop
      vertex -10.1988 -12.3282 0
      vertex -9.40456 12.9443 0
      vertex -9.40456 -12.9443 0
    endloop
  endfacet
  facet normal 0 0 -1
    outer loop
      vertex -10.1988 -12.3282 0
      vertex -10.1988 12.3282 0
      vertex -9.40456 12.9443 0
    endloop
  endfacet
  facet normal 0 0 -1
    outer loop
      vertex -10.9528 -11.6635 0
      vertex -10.1988 12.3282 0
      vertex -10.1988 -12.3282 0
    endloop
  endfacet
  facet normal 0 0 -1
    outer loop
      vertex -10.9528 -11.6635 0
      vertex -10.9528 11.6635 0
      vertex -10.1988 12.3282 0
    endloop
  endfacet
  facet normal 0 0 -1
    outer loop
      vertex -11.6635 -10.9528 0
      vertex -10.9528 11.6635 0
      vertex -10.9528 -11.6635 0
    endloop
  endfacet
  facet normal 0 0 -1
    outer loop
      vertex -11.6635 -10.9528 0
      vertex -11.6635 10.9528 0
      vertex -10.9528 11.6635 0
    endloop
  endfacet
  facet normal 0 0 -1
    outer loop
      vertex -12.3282 -10.1988 0
      vertex -11.6635 10.9528 0
      vertex -11.6635 -10.9528 0
    endloop
  endfacet
  facet normal 0 0 -1
    outer loop
      vertex -12.3282 -10.1988 0
      vertex -12.3282 10.1988 0
      vertex -11.6635 10.9528 0
    endloop
  endfacet
  facet normal 0 0 -1
    outer loop
      vertex -12.9443 -9.40456 0
      vertex -12.3282 10.1988 0
      vertex -12.3282 -10.1988 0
    endloop
  endfacet
  facet normal 0 0 -1
    outer loop
      vertex -12.9443 -9.40456 0
      vertex -12.9443 9.40456 0
      vertex -12.3282 10.1988 0
    endloop
  endfacet
  facet normal 0 0 -1
    outer loop
      vertex -13.5092 -8.57323 0
      vertex -12.9443 9.40456 0
      vertex -12.9443 -9.40456 0
    endloop
  endfacet
  facet normal 0 0 -1
    outer loop
      vertex -13.5092 -8.57323 0
      vertex -13.5092 8.57323 0
      vertex -12.9443 9.40456 0
    endloop
  endfacet
  facet normal 0 0 -1
    outer loop
      vertex -14.0209 -7.70806 0
      vertex -13.5092 8.57323 0
      vertex -13.5092 -8.57323 0
    endloop
  endfacet
  facet normal 0 0 -1
    outer loop
      vertex -14.0209 -7.70806 0
      vertex -14.0209 7.70806 0
      vertex -13.5092 8.57323 0
    endloop
  endfacet
  facet normal 0 0 -1
    outer loop
      vertex -14.4772 -6.81247 0
      vertex -14.0209 7.70806 0
      vertex -14.0209 -7.70806 0
    endloop
  endfacet
  facet normal 0 0 -1
    outer loop
      vertex -14.4772 -6.81247 0
      vertex -14.4772 6.81247 0
      vertex -14.0209 7.70806 0
    endloop
  endfacet
  facet normal 0 0 -1
    outer loop
      vertex -14.8764 -5.88999 0
      vertex -14.4772 6.81247 0
      vertex -14.4772 -6.81247 0
    endloop
  endfacet
  facet normal 0 0 -1
    outer loop
      vertex -14.8764 -5.88999 0
      vertex -14.8764 5.88999 0
      vertex -14.4772 6.81247 0
    endloop
  endfacet
  facet normal 0 0 -1
    outer loop
      vertex -15.2169 -4.94427 0
      vertex -14.8764 5.88999 0
      vertex -14.8764 -5.88999 0
    endloop
  endfacet
  facet normal 0 0 -1
    outer loop
      vertex -15.2169 -4.94427 0
      vertex -15.2169 4.94427 0
      vertex -14.8764 5.88999 0
    endloop
  endfacet
  facet normal 0 0 -1
    outer loop
      vertex -15.4973 -3.97904 0
      vertex -15.2169 4.94427 0
      vertex -15.2169 -4.94427 0
    endloop
  endfacet
  facet normal 0 0 -1
    outer loop
      vertex -15.4973 -3.97904 0
      vertex -15.4973 3.97904 0
      vertex -15.2169 4.94427 0
    endloop
  endfacet
  facet normal 0 0 -1
    outer loop
      vertex -15.7166 -2.9981 0
      vertex -15.4973 3.97904 0
      vertex -15.4973 -3.97904 0
    endloop
  endfacet
  facet normal 0 0 -1
    outer loop
      vertex -15.7166 -2.9981 0
      vertex -15.7166 2.9981 0
      vertex -15.4973 3.97904 0
    endloop
  endfacet
  facet normal 0 0 -1
    outer loop
      vertex -15.8738 -2.00533 0
      vertex -15.7166 2.9981 0
      vertex -15.7166 -2.9981 0
    endloop
  endfacet
  facet normal 0 0 -1
    outer loop
      vertex -15.8738 -2.00533 0
      vertex -15.8738 2.00533 0
      vertex -15.7166 2.9981 0
    endloop
  endfacet
  facet normal 0 0 -1
    outer loop
      vertex -15.9684 -1.00465 0
      vertex -15.8738 2.00533 0
      vertex -15.8738 -2.00533 0
    endloop
  endfacet
  facet normal 0 0 -1
    outer loop
      vertex -15.9684 -1.00465 0
      vertex -15.9684 1.00465 0
      vertex -15.8738 2.00533 0
    endloop
  endfacet
  facet normal 0 -0 -1
    outer loop
      vertex -15.9684 1.00465 0
      vertex -15.9684 -1.00465 0
      vertex -16 0 0
    endloop
  endfacet
  facet normal -0.0289361 -0.920733 0.389119
    outer loop
      vertex -0.898502 -14.2813 4
      vertex -1.00465 -15.9684 0
      vertex 0 -16 0
    endloop
  endfacet
  facet normal -0.761897 -0.517784 0.389119
    outer loop
      vertex -12.0819 -7.66743 4
      vertex -13.5092 -8.57323 0
      vertex -12.9443 -9.40456 0
    endloop
  endfacet
  facet normal 0.144105 -0.909846 0.389119
    outer loop
      vertex 2.9981 -15.7166 0
      vertex 1.79346 -14.1967 4
      vertex 2.00533 -15.8738 0
    endloop
  endfacet
  facet normal 0.609192 -0.690993 0.389119
    outer loop
      vertex 10.9528 -11.6635 0
      vertex 9.79554 -10.4312 4
      vertex 10.1988 -12.3282 0
    endloop
  endfacet
  facet normal 0.820784 -0.41821 0.389118
    outer loop
      vertex 14.4772 -6.81247 0
      vertex 12.9476 -6.0927 4
      vertex 14.0209 -7.70806 0
    endloop
  endfacet
  facet normal 0.884611 -0.257003 0.389119
    outer loop
      vertex 15.4973 -3.97904 0
      vertex 13.86 -3.55863 4
      vertex 15.2169 -4.94427 0
    endloop
  endfacet
  facet normal 0.909846 -0.144105 0.389119
    outer loop
      vertex 14.1967 -1.79346 4
      vertex 14.0561 -2.68134 4
      vertex 15.7166 -2.9981 0
    endloop
  endfacet
  facet normal 0.917099 -0.0866912 0.389119
    outer loop
      vertex 15.9684 -1.00465 0
      vertex 14.2813 -0.898502 4
      vertex 15.8738 -2.00533 0
    endloop
  endfacet
  facet normal 0.909846 0.144105 0.389119
    outer loop
      vertex 15.7166 2.9981 0
      vertex 14.1967 1.79346 4
      vertex 15.8738 2.00533 0
    endloop
  endfacet
  facet normal 0.917099 0.0866912 0.389119
    outer loop
      vertex 15.8738 2.00533 0
      vertex 14.2813 0.898502 4
      vertex 15.9684 1.00465 0
    endloop
  endfacet
  facet normal -0.917099 0.0866917 0.389119
    outer loop
      vertex -14.1967 1.79346 4
      vertex -15.8738 2.00533 0
      vertex -14.2813 0.898502 4
    endloop
  endfacet
  facet normal -0.899002 0.200951 0.389119
    outer loop
      vertex -13.86 3.55863 4
      vertex -15.7166 2.9981 0
      vertex -14.0561 2.68134 4
    endloop
  endfacet
  facet normal -0.792905 0.468922 0.389119
    outer loop
      vertex -12.0819 7.66743 4
      vertex -14.0209 7.70806 0
      vertex -12.5395 6.89367 4
    endloop
  endfacet
  facet normal -0.761896 0.517784 0.389119
    outer loop
      vertex -11.5766 8.41093 4
      vertex -12.9443 9.40456 0
      vertex -12.0819 7.66743 4
    endloop
  endfacet
  facet normal -0.365847 0.845425 0.389119
    outer loop
      vertex -5.88999 14.8764 0
      vertex -6.0927 12.9476 4
      vertex -5.26769 13.3047 4
    endloop
  endfacet
  facet normal -0.312041 0.866728 0.389119
    outer loop
      vertex -4.94427 15.2169 0
      vertex -5.88999 14.8764 0
      vertex -5.26769 13.3047 4
    endloop
  endfacet
  facet normal -0.144105 0.909846 0.389119
    outer loop
      vertex -2.00533 15.8738 0
      vertex -2.9981 15.7166 0
      vertex -1.79346 14.1967 4
    endloop
  endfacet
  facet normal 0.899002 0.200951 0.389119
    outer loop
      vertex 15.7166 2.9981 0
      vertex 13.86 3.55863 4
      vertex 14.0561 2.68134 4
    endloop
  endfacet
  facet normal 0.884611 0.257003 0.389119
    outer loop
      vertex 15.2169 4.94427 0
      vertex 13.6092 4.42189 4
      vertex 13.86 3.55863 4
    endloop
  endfacet
  facet normal 0.820784 0.41821 0.389118
    outer loop
      vertex 14.0209 7.70806 0
      vertex 12.9476 6.0927 4
      vertex 14.4772 6.81247 0
    endloop
  endfacet
  facet normal 0.792905 0.468922 0.389119
    outer loop
      vertex 14.0209 7.70806 0
      vertex 12.0819 7.66743 4
      vertex 12.5395 6.89367 4
    endloop
  endfacet
  facet normal 0.468923 0.792905 0.389119
    outer loop
      vertex 7.70806 14.0209 0
      vertex 7.66743 12.0819 4
      vertex 8.57323 13.5092 0
    endloop
  endfacet
  facet normal 0.200951 0.899002 0.389119
    outer loop
      vertex 2.9981 15.7166 0
      vertex 2.68134 14.0561 4
      vertex 3.55863 13.86 4
    endloop
  endfacet
  facet normal -0.917099 -0.0866912 0.389119
    outer loop
      vertex -14.2813 -0.898502 4
      vertex -15.9684 -1.00465 0
      vertex -15.8738 -2.00533 0
    endloop
  endfacet
  facet normal -0.920733 -0.0289361 0.389119
    outer loop
      vertex -14.2813 -0.898502 4
      vertex -16 0 0
      vertex -15.9684 -1.00465 0
    endloop
  endfacet
  facet normal -0.0866917 -0.917099 0.389119
    outer loop
      vertex -1.79346 -14.1967 4
      vertex -2.00533 -15.8738 0
      vertex -0.898502 -14.2813 4
    endloop
  endfacet
  facet normal -0.468923 -0.792905 0.389119
    outer loop
      vertex -7.66743 -12.0819 4
      vertex -8.57323 -13.5092 0
      vertex -7.70806 -14.0209 0
    endloop
  endfacet
  facet normal -0.899002 -0.200951 0.389119
    outer loop
      vertex -14.0561 -2.68134 4
      vertex -15.7166 -2.9981 0
      vertex -13.86 -3.55863 4
    endloop
  endfacet
  facet normal -0.884611 -0.257003 0.389119
    outer loop
      vertex -13.86 -3.55863 4
      vertex -15.2169 -4.94427 0
      vertex -13.6092 -4.42189 4
    endloop
  endfacet
  facet normal -0.866728 -0.312041 0.389119
    outer loop
      vertex -13.3047 -5.26769 4
      vertex -15.2169 -4.94427 0
      vertex -14.8764 -5.88999 0
    endloop
  endfacet
  facet normal -0.761896 -0.517784 0.389119
    outer loop
      vertex -12.0819 -7.66743 4
      vertex -12.9443 -9.40456 0
      vertex -11.5766 -8.41093 4
    endloop
  endfacet
  facet normal -0.690993 -0.609192 0.389119
    outer loop
      vertex -10.4312 -9.79554 4
      vertex -12.3282 -10.1988 0
      vertex -11.6635 -10.9528 0
    endloop
  endfacet
  facet normal -0.820784 -0.41821 0.389118
    outer loop
      vertex -12.9476 -6.0927 4
      vertex -14.4772 -6.81247 0
      vertex -14.0209 -7.70806 0
    endloop
  endfacet
  facet normal 0.0866912 -0.917099 0.389119
    outer loop
      vertex 2.00533 -15.8738 0
      vertex 0.898502 -14.2813 4
      vertex 1.00465 -15.9684 0
    endloop
  endfacet
  facet normal 0.0289361 -0.920733 0.389119
    outer loop
      vertex 0.898502 -14.2813 4
      vertex 0 -16 0
      vertex 1.00465 -15.9684 0
    endloop
  endfacet
  facet normal 0.564602 -0.727881 0.389119
    outer loop
      vertex 9.12123 -11.0257 4
      vertex 8.41093 -11.5766 4
      vertex 10.1988 -12.3282 0
    endloop
  endfacet
  facet normal 0.41821 -0.820784 0.389118
    outer loop
      vertex 7.70806 -14.0209 0
      vertex 6.0927 -12.9476 4
      vertex 6.81247 -14.4772 0
    endloop
  endfacet
  facet normal 0.200951 -0.899002 0.389119
    outer loop
      vertex 3.55863 -13.86 4
      vertex 2.68134 -14.0561 4
      vertex 2.9981 -15.7166 0
    endloop
  endfacet
  facet normal 0.257003 -0.884611 0.389119
    outer loop
      vertex 4.42189 -13.6092 4
      vertex 3.55863 -13.86 4
      vertex 4.94427 -15.2169 0
    endloop
  endfacet
  facet normal 0.312041 -0.866728 0.389119
    outer loop
      vertex 5.26769 -13.3047 4
      vertex 4.94427 -15.2169 0
      vertex 5.88999 -14.8764 0
    endloop
  endfacet
  facet normal 0.727881 -0.564602 0.389119
    outer loop
      vertex 11.5766 -8.41093 4
      vertex 11.0257 -9.12123 4
      vertex 12.3282 -10.1988 0
    endloop
  endfacet
  facet normal 0.690993 -0.609192 0.389119
    outer loop
      vertex 12.3282 -10.1988 0
      vertex 10.4312 -9.79554 4
      vertex 11.6635 -10.9528 0
    endloop
  endfacet
  facet normal 0.792905 -0.468922 0.389119
    outer loop
      vertex 12.5395 -6.89367 4
      vertex 12.0819 -7.66743 4
      vertex 14.0209 -7.70806 0
    endloop
  endfacet
  facet normal 0.727881 -0.564602 0.389119
    outer loop
      vertex 12.9443 -9.40456 0
      vertex 11.5766 -8.41093 4
      vertex 12.3282 -10.1988 0
    endloop
  endfacet
  facet normal 0.761896 -0.517784 0.389119
    outer loop
      vertex 12.0819 -7.66743 4
      vertex 11.5766 -8.41093 4
      vertex 12.9443 -9.40456 0
    endloop
  endfacet
  facet normal 0.761897 -0.517784 0.389119
    outer loop
      vertex 13.5092 -8.57323 0
      vertex 12.0819 -7.66743 4
      vertex 12.9443 -9.40456 0
    endloop
  endfacet
  facet normal 0.845425 -0.365847 0.389119
    outer loop
      vertex 13.3047 -5.26769 4
      vertex 12.9476 -6.0927 4
      vertex 14.8764 -5.88999 0
    endloop
  endfacet
  facet normal 0.845424 -0.365848 0.389118
    outer loop
      vertex 14.8764 -5.88999 0
      vertex 12.9476 -6.0927 4
      vertex 14.4772 -6.81247 0
    endloop
  endfacet
  facet normal 0.866728 -0.312041 0.389119
    outer loop
      vertex 13.6092 -4.42189 4
      vertex 13.3047 -5.26769 4
      vertex 15.2169 -4.94427 0
    endloop
  endfacet
  facet normal 0.899002 -0.200951 0.389119
    outer loop
      vertex 15.7166 -2.9981 0
      vertex 13.86 -3.55863 4
      vertex 15.4973 -3.97904 0
    endloop
  endfacet
  facet normal 0.899002 -0.200951 0.389119
    outer loop
      vertex 14.0561 -2.68134 4
      vertex 13.86 -3.55863 4
      vertex 15.7166 -2.9981 0
    endloop
  endfacet
  facet normal 0.917099 -0.0866917 0.389119
    outer loop
      vertex 14.2813 -0.898502 4
      vertex 14.1967 -1.79346 4
      vertex 15.8738 -2.00533 0
    endloop
  endfacet
  facet normal 0 0 1
    outer loop
      vertex 10.5 0 4
      vertex 14.3095 0 4
      vertex 14.2813 0.898502 4
    endloop
  endfacet
  facet normal 0 0 1
    outer loop
      vertex 10.5 0 4
      vertex 14.2813 0.898502 4
      vertex 14.1967 1.79346 4
    endloop
  endfacet
  facet normal 0 0 1
    outer loop
      vertex 14.3095 0 4
      vertex 10.5 0 4
      vertex 14.2813 -0.898502 4
    endloop
  endfacet
  facet normal -0 0 1
    outer loop
      vertex 10.2705 2.18307 4
      vertex 14.1967 1.79346 4
      vertex 14.0561 2.68134 4
    endloop
  endfacet
  facet normal 0 0 1
    outer loop
      vertex 14.2813 -0.898502 4
      vertex 10.5 0 4
      vertex 14.1967 -1.79346 4
    endloop
  endfacet
  facet normal 0 0 1
    outer loop
      vertex 10.2705 2.18307 4
      vertex 14.0561 2.68134 4
      vertex 13.86 3.55863 4
    endloop
  endfacet
  facet normal 0 0 1
    outer loop
      vertex 10.2705 -2.18307 4
      vertex 14.1967 -1.79346 4
      vertex 10.5 0 4
    endloop
  endfacet
  facet normal 0 0 1
    outer loop
      vertex 10.2705 2.18307 4
      vertex 13.86 3.55863 4
      vertex 13.6092 4.42189 4
    endloop
  endfacet
  facet normal 0 0 1
    outer loop
      vertex 14.1967 -1.79346 4
      vertex 10.2705 -2.18307 4
      vertex 14.0561 -2.68134 4
    endloop
  endfacet
  facet normal 0 0 1
    outer loop
      vertex 9.59223 4.27073 4
      vertex 13.6092 4.42189 4
      vertex 13.3047 5.26769 4
    endloop
  endfacet
  facet normal 0 0 1
    outer loop
      vertex 14.0561 -2.68134 4
      vertex 10.2705 -2.18307 4
      vertex 13.86 -3.55863 4
    endloop
  endfacet
  facet normal 0 0 1
    outer loop
      vertex 9.59223 4.27073 4
      vertex 13.3047 5.26769 4
      vertex 12.9476 6.0927 4
    endloop
  endfacet
  facet normal 0 0 1
    outer loop
      vertex 13.86 -3.55863 4
      vertex 10.2705 -2.18307 4
      vertex 13.6092 -4.42189 4
    endloop
  endfacet
  facet normal 0 0 1
    outer loop
      vertex 9.59223 4.27073 4
      vertex 12.9476 6.0927 4
      vertex 12.5395 6.89367 4
    endloop
  endfacet
  facet normal -0 0 1
    outer loop
      vertex 9.59223 -4.27073 4
      vertex 13.6092 -4.42189 4
      vertex 10.2705 -2.18307 4
    endloop
  endfacet
  facet normal 0 0 1
    outer loop
      vertex 8.49468 6.17174 4
      vertex 12.5395 6.89367 4
      vertex 12.0819 7.66743 4
    endloop
  endfacet
  facet normal 0 0 1
    outer loop
      vertex 13.6092 -4.42189 4
      vertex 9.59223 -4.27073 4
      vertex 13.3047 -5.26769 4
    endloop
  endfacet
  facet normal 0 0 1
    outer loop
      vertex 8.49468 6.17174 4
      vertex 12.0819 7.66743 4
      vertex 11.5766 8.41093 4
    endloop
  endfacet
  facet normal 0 0 1
    outer loop
      vertex 13.3047 -5.26769 4
      vertex 9.59223 -4.27073 4
      vertex 12.9476 -6.0927 4
    endloop
  endfacet
  facet normal 0 0 1
    outer loop
      vertex 8.49468 6.17174 4
      vertex 11.5766 8.41093 4
      vertex 11.0257 9.12123 4
    endloop
  endfacet
  facet normal 0 0 1
    outer loop
      vertex 12.9476 -6.0927 4
      vertex 9.59223 -4.27073 4
      vertex 12.5395 -6.89367 4
    endloop
  endfacet
  facet normal -0 0 1
    outer loop
      vertex 8.49468 -6.17174 4
      vertex 12.5395 -6.89367 4
      vertex 9.59223 -4.27073 4
    endloop
  endfacet
  facet normal 0 0 1
    outer loop
      vertex 8.49468 6.17174 4
      vertex 11.0257 9.12123 4
      vertex 10.4312 9.79554 4
    endloop
  endfacet
  facet normal 0 0 1
    outer loop
      vertex 14.1967 1.79346 4
      vertex 10.2705 2.18307 4
      vertex 10.5 0 4
    endloop
  endfacet
  facet normal 0 0 1
    outer loop
      vertex 7.02587 7.80302 4
      vertex 10.4312 9.79554 4
      vertex 9.79554 10.4312 4
    endloop
  endfacet
  facet normal 0 0 1
    outer loop
      vertex 13.6092 4.42189 4
      vertex 9.59223 4.27073 4
      vertex 10.2705 2.18307 4
    endloop
  endfacet
  facet normal 0 0 1
    outer loop
      vertex 7.02587 7.80302 4
      vertex 9.79554 10.4312 4
      vertex 9.12123 11.0257 4
    endloop
  endfacet
  facet normal 0 0 1
    outer loop
      vertex 12.5395 6.89367 4
      vertex 8.49468 6.17174 4
      vertex 9.59223 4.27073 4
    endloop
  endfacet
  facet normal 0 0 1
    outer loop
      vertex 7.02587 7.80302 4
      vertex 9.12123 11.0257 4
      vertex 8.41093 11.5766 4
    endloop
  endfacet
  facet normal 0 0 1
    outer loop
      vertex 5.25 9.09327 4
      vertex 8.41093 11.5766 4
      vertex 7.66743 12.0819 4
    endloop
  endfacet
  facet normal 0 0 1
    outer loop
      vertex 10.4312 9.79554 4
      vertex 7.02587 7.80302 4
      vertex 8.49468 6.17174 4
    endloop
  endfacet
  facet normal 0 0 1
    outer loop
      vertex 5.25 9.09327 4
      vertex 7.66743 12.0819 4
      vertex 6.89367 12.5395 4
    endloop
  endfacet
  facet normal 0 0 1
    outer loop
      vertex 5.25 9.09327 4
      vertex 6.89367 12.5395 4
      vertex 6.0927 12.9476 4
    endloop
  endfacet
  facet normal 0 0 1
    outer loop
      vertex 3.24468 9.98609 4
      vertex 6.0927 12.9476 4
      vertex 5.26769 13.3047 4
    endloop
  endfacet
  facet normal 0 0 1
    outer loop
      vertex 8.41093 11.5766 4
      vertex 5.25 9.09327 4
      vertex 7.02587 7.80302 4
    endloop
  endfacet
  facet normal 0 0 1
    outer loop
      vertex 3.24468 9.98609 4
      vertex 5.26769 13.3047 4
      vertex 4.42189 13.6092 4
    endloop
  endfacet
  facet normal 0 0 1
    outer loop
      vertex 3.24468 9.98609 4
      vertex 4.42189 13.6092 4
      vertex 3.55863 13.86 4
    endloop
  endfacet
  facet normal 0 0 1
    outer loop
      vertex 6.0927 12.9476 4
      vertex 3.24468 9.98609 4
      vertex 5.25 9.09327 4
    endloop
  endfacet
  facet normal 0 0 1
    outer loop
      vertex 2.68134 14.0561 4
      vertex 3.24468 9.98609 4
      vertex 3.55863 13.86 4
    endloop
  endfacet
  facet normal 0 0 1
    outer loop
      vertex 1.09755 10.4425 4
      vertex 2.68134 14.0561 4
      vertex 1.79346 14.1967 4
    endloop
  endfacet
  facet normal 0 0 1
    outer loop
      vertex 2.68134 14.0561 4
      vertex 1.09755 10.4425 4
      vertex 3.24468 9.98609 4
    endloop
  endfacet
  facet normal 0 0 1
    outer loop
      vertex 0.898502 14.2813 4
      vertex 1.09755 10.4425 4
      vertex 1.79346 14.1967 4
    endloop
  endfacet
  facet normal 0 0 1
    outer loop
      vertex 0 14.3095 4
      vertex 1.09755 10.4425 4
      vertex 0.898502 14.2813 4
    endloop
  endfacet
  facet normal 0 0 1
    outer loop
      vertex -1.09755 10.4425 4
      vertex 0 14.3095 4
      vertex -0.898502 14.2813 4
    endloop
  endfacet
  facet normal 0 0 1
    outer loop
      vertex 0 14.3095 4
      vertex -1.09755 10.4425 4
      vertex 1.09755 10.4425 4
    endloop
  endfacet
  facet normal -0 0 1
    outer loop
      vertex -1.79346 14.1967 4
      vertex -1.09755 10.4425 4
      vertex -0.898502 14.2813 4
    endloop
  endfacet
  facet normal -0 0 1
    outer loop
      vertex -2.68134 14.0561 4
      vertex -1.09755 10.4425 4
      vertex -1.79346 14.1967 4
    endloop
  endfacet
  facet normal 0 0 1
    outer loop
      vertex -2.68134 14.0561 4
      vertex -3.24468 9.98609 4
      vertex -1.09755 10.4425 4
    endloop
  endfacet
  facet normal -0 0 1
    outer loop
      vertex -3.55863 13.86 4
      vertex -3.24468 9.98609 4
      vertex -2.68134 14.0561 4
    endloop
  endfacet
  facet normal -0 0 1
    outer loop
      vertex -4.42189 13.6092 4
      vertex -3.24468 9.98609 4
      vertex -3.55863 13.86 4
    endloop
  endfacet
  facet normal -0 0 1
    outer loop
      vertex -5.26769 13.3047 4
      vertex -3.24468 9.98609 4
      vertex -4.42189 13.6092 4
    endloop
  endfacet
  facet normal -0 0 1
    outer loop
      vertex -6.0927 12.9476 4
      vertex -3.24468 9.98609 4
      vertex -5.26769 13.3047 4
    endloop
  endfacet
  facet normal 0 0 1
    outer loop
      vertex -3.24468 9.98609 4
      vertex -6.0927 12.9476 4
      vertex -5.25 9.09327 4
    endloop
  endfacet
  facet normal -0 0 1
    outer loop
      vertex -6.89367 12.5395 4
      vertex -5.25 9.09327 4
      vertex -6.0927 12.9476 4
    endloop
  endfacet
  facet normal -0 0 1
    outer loop
      vertex -7.66743 12.0819 4
      vertex -5.25 9.09327 4
      vertex -6.89367 12.5395 4
    endloop
  endfacet
  facet normal -0 0 1
    outer loop
      vertex -8.41093 11.5766 4
      vertex -5.25 9.09327 4
      vertex -7.66743 12.0819 4
    endloop
  endfacet
  facet normal 0 0 1
    outer loop
      vertex -5.25 9.09327 4
      vertex -8.41093 11.5766 4
      vertex -7.02587 7.80302 4
    endloop
  endfacet
  facet normal -0 0 1
    outer loop
      vertex -9.12123 11.0257 4
      vertex -7.02587 7.80302 4
      vertex -8.41093 11.5766 4
    endloop
  endfacet
  facet normal -0 0 1
    outer loop
      vertex -9.79554 10.4312 4
      vertex -7.02587 7.80302 4
      vertex -9.12123 11.0257 4
    endloop
  endfacet
  facet normal -0 0 1
    outer loop
      vertex -10.4312 9.79554 4
      vertex -7.02587 7.80302 4
      vertex -9.79554 10.4312 4
    endloop
  endfacet
  facet normal 0 0 1
    outer loop
      vertex -7.02587 7.80302 4
      vertex -10.4312 9.79554 4
      vertex -8.49468 6.17174 4
    endloop
  endfacet
  facet normal -0 0 1
    outer loop
      vertex -11.0257 9.12123 4
      vertex -8.49468 6.17174 4
      vertex -10.4312 9.79554 4
    endloop
  endfacet
  facet normal -0 0 1
    outer loop
      vertex -11.5766 8.41093 4
      vertex -8.49468 6.17174 4
      vertex -11.0257 9.12123 4
    endloop
  endfacet
  facet normal -0 0 1
    outer loop
      vertex -12.0819 7.66743 4
      vertex -8.49468 6.17174 4
      vertex -11.5766 8.41093 4
    endloop
  endfacet
  facet normal -0 0 1
    outer loop
      vertex -12.5395 6.89367 4
      vertex -8.49468 6.17174 4
      vertex -12.0819 7.66743 4
    endloop
  endfacet
  facet normal 0 0 1
    outer loop
      vertex 12.5395 -6.89367 4
      vertex 8.49468 -6.17174 4
      vertex 12.0819 -7.66743 4
    endloop
  endfacet
  facet normal 0 0 1
    outer loop
      vertex 12.0819 -7.66743 4
      vertex 8.49468 -6.17174 4
      vertex 11.5766 -8.41093 4
    endloop
  endfacet
  facet normal 0 0 1
    outer loop
      vertex 11.5766 -8.41093 4
      vertex 8.49468 -6.17174 4
      vertex 11.0257 -9.12123 4
    endloop
  endfacet
  facet normal 0 0 1
    outer loop
      vertex 11.0257 -9.12123 4
      vertex 8.49468 -6.17174 4
      vertex 10.4312 -9.79554 4
    endloop
  endfacet
  facet normal -0 0 1
    outer loop
      vertex 7.02587 -7.80302 4
      vertex 10.4312 -9.79554 4
      vertex 8.49468 -6.17174 4
    endloop
  endfacet
  facet normal 0 0 1
    outer loop
      vertex 10.4312 -9.79554 4
      vertex 7.02587 -7.80302 4
      vertex 9.79554 -10.4312 4
    endloop
  endfacet
  facet normal 0 0 1
    outer loop
      vertex 9.79554 -10.4312 4
      vertex 7.02587 -7.80302 4
      vertex 9.12123 -11.0257 4
    endloop
  endfacet
  facet normal 0 0 1
    outer loop
      vertex 9.12123 -11.0257 4
      vertex 7.02587 -7.80302 4
      vertex 8.41093 -11.5766 4
    endloop
  endfacet
  facet normal -0 0 1
    outer loop
      vertex 5.25 -9.09327 4
      vertex 8.41093 -11.5766 4
      vertex 7.02587 -7.80302 4
    endloop
  endfacet
  facet normal 0 0 1
    outer loop
      vertex 8.41093 -11.5766 4
      vertex 5.25 -9.09327 4
      vertex 7.66743 -12.0819 4
    endloop
  endfacet
  facet normal 0 0 1
    outer loop
      vertex 7.66743 -12.0819 4
      vertex 5.25 -9.09327 4
      vertex 6.89367 -12.5395 4
    endloop
  endfacet
  facet normal 0 0 1
    outer loop
      vertex 6.89367 -12.5395 4
      vertex 5.25 -9.09327 4
      vertex 6.0927 -12.9476 4
    endloop
  endfacet
  facet normal -0 0 1
    outer loop
      vertex 3.24468 -9.98609 4
      vertex 6.0927 -12.9476 4
      vertex 5.25 -9.09327 4
    endloop
  endfacet
  facet normal 0 0 1
    outer loop
      vertex 6.0927 -12.9476 4
      vertex 3.24468 -9.98609 4
      vertex 5.26769 -13.3047 4
    endloop
  endfacet
  facet normal 0 0 1
    outer loop
      vertex 5.26769 -13.3047 4
      vertex 3.24468 -9.98609 4
      vertex 4.42189 -13.6092 4
    endloop
  endfacet
  facet normal 0 0 1
    outer loop
      vertex 4.42189 -13.6092 4
      vertex 3.24468 -9.98609 4
      vertex 3.55863 -13.86 4
    endloop
  endfacet
  facet normal 0 0 1
    outer loop
      vertex 3.24468 -9.98609 4
      vertex 2.68134 -14.0561 4
      vertex 3.55863 -13.86 4
    endloop
  endfacet
  facet normal -0 0 1
    outer loop
      vertex 1.09755 -10.4425 4
      vertex 2.68134 -14.0561 4
      vertex 3.24468 -9.98609 4
    endloop
  endfacet
  facet normal 0 0 1
    outer loop
      vertex 2.68134 -14.0561 4
      vertex 1.09755 -10.4425 4
      vertex 1.79346 -14.1967 4
    endloop
  endfacet
  facet normal 0 0 1
    outer loop
      vertex 1.09755 -10.4425 4
      vertex 0.898502 -14.2813 4
      vertex 1.79346 -14.1967 4
    endloop
  endfacet
  facet normal 0 0 1
    outer loop
      vertex 1.09755 -10.4425 4
      vertex 0 -14.3095 4
      vertex 0.898502 -14.2813 4
    endloop
  endfacet
  facet normal -0 0 1
    outer loop
      vertex -1.09755 -10.4425 4
      vertex 0 -14.3095 4
      vertex 1.09755 -10.4425 4
    endloop
  endfacet
  facet normal 0 0 1
    outer loop
      vertex 0 -14.3095 4
      vertex -1.09755 -10.4425 4
      vertex -0.898502 -14.2813 4
    endloop
  endfacet
  facet normal 0 0 1
    outer loop
      vertex -1.09755 -10.4425 4
      vertex -1.79346 -14.1967 4
      vertex -0.898502 -14.2813 4
    endloop
  endfacet
  facet normal 0 0 1
    outer loop
      vertex -1.09755 -10.4425 4
      vertex -2.68134 -14.0561 4
      vertex -1.79346 -14.1967 4
    endloop
  endfacet
  facet normal 0 0 1
    outer loop
      vertex -3.24468 -9.98609 4
      vertex -2.68134 -14.0561 4
      vertex -1.09755 -10.4425 4
    endloop
  endfacet
  facet normal 0 0 1
    outer loop
      vertex -3.24468 -9.98609 4
      vertex -3.55863 -13.86 4
      vertex -2.68134 -14.0561 4
    endloop
  endfacet
  facet normal 0 0 1
    outer loop
      vertex -3.24468 -9.98609 4
      vertex -4.42189 -13.6092 4
      vertex -3.55863 -13.86 4
    endloop
  endfacet
  facet normal 0 0 1
    outer loop
      vertex -6.0927 -12.9476 4
      vertex -3.24468 -9.98609 4
      vertex -5.25 -9.09327 4
    endloop
  endfacet
  facet normal 0 0 1
    outer loop
      vertex -3.24468 -9.98609 4
      vertex -5.26769 -13.3047 4
      vertex -4.42189 -13.6092 4
    endloop
  endfacet
  facet normal 0 0 1
    outer loop
      vertex -3.24468 -9.98609 4
      vertex -6.0927 -12.9476 4
      vertex -5.26769 -13.3047 4
    endloop
  endfacet
  facet normal 0 0 1
    outer loop
      vertex -5.25 -9.09327 4
      vertex -6.89367 -12.5395 4
      vertex -6.0927 -12.9476 4
    endloop
  endfacet
  facet normal 0 0 1
    outer loop
      vertex -8.41093 -11.5766 4
      vertex -5.25 -9.09327 4
      vertex -7.02587 -7.80302 4
    endloop
  endfacet
  facet normal 0 0 1
    outer loop
      vertex -5.25 -9.09327 4
      vertex -7.66743 -12.0819 4
      vertex -6.89367 -12.5395 4
    endloop
  endfacet
  facet normal 0 0 1
    outer loop
      vertex -5.25 -9.09327 4
      vertex -8.41093 -11.5766 4
      vertex -7.66743 -12.0819 4
    endloop
  endfacet
  facet normal 0 0 1
    outer loop
      vertex -10.4312 -9.79554 4
      vertex -7.02587 -7.80302 4
      vertex -8.49468 -6.17174 4
    endloop
  endfacet
  facet normal 0 0 1
    outer loop
      vertex -7.02587 -7.80302 4
      vertex -9.12123 -11.0257 4
      vertex -8.41093 -11.5766 4
    endloop
  endfacet
  facet normal 0 0 1
    outer loop
      vertex -12.5395 -6.89367 4
      vertex -8.49468 -6.17174 4
      vertex -9.59223 -4.27073 4
    endloop
  endfacet
  facet normal 0 0 1
    outer loop
      vertex -7.02587 -7.80302 4
      vertex -9.79554 -10.4312 4
      vertex -9.12123 -11.0257 4
    endloop
  endfacet
  facet normal 0 0 1
    outer loop
      vertex -13.6092 -4.42189 4
      vertex -9.59223 -4.27073 4
      vertex -10.2705 -2.18307 4
    endloop
  endfacet
  facet normal 0 0 1
    outer loop
      vertex -7.02587 -7.80302 4
      vertex -10.4312 -9.79554 4
      vertex -9.79554 -10.4312 4
    endloop
  endfacet
  facet normal -0 0 1
    outer loop
      vertex -14.1967 -1.79346 4
      vertex -10.2705 -2.18307 4
      vertex -10.5 0 4
    endloop
  endfacet
  facet normal 0 0 1
    outer loop
      vertex -8.49468 6.17174 4
      vertex -12.5395 6.89367 4
      vertex -9.59223 4.27073 4
    endloop
  endfacet
  facet normal 0 0 1
    outer loop
      vertex -8.49468 -6.17174 4
      vertex -11.0257 -9.12123 4
      vertex -10.4312 -9.79554 4
    endloop
  endfacet
  facet normal -0 0 1
    outer loop
      vertex -12.9476 6.0927 4
      vertex -9.59223 4.27073 4
      vertex -12.5395 6.89367 4
    endloop
  endfacet
  facet normal 0 0 1
    outer loop
      vertex -8.49468 -6.17174 4
      vertex -11.5766 -8.41093 4
      vertex -11.0257 -9.12123 4
    endloop
  endfacet
  facet normal -0 0 1
    outer loop
      vertex -13.3047 5.26769 4
      vertex -9.59223 4.27073 4
      vertex -12.9476 6.0927 4
    endloop
  endfacet
  facet normal 0 0 1
    outer loop
      vertex -8.49468 -6.17174 4
      vertex -12.0819 -7.66743 4
      vertex -11.5766 -8.41093 4
    endloop
  endfacet
  facet normal -0 0 1
    outer loop
      vertex -13.6092 4.42189 4
      vertex -9.59223 4.27073 4
      vertex -13.3047 5.26769 4
    endloop
  endfacet
  facet normal 0 0 1
    outer loop
      vertex -8.49468 -6.17174 4
      vertex -12.5395 -6.89367 4
      vertex -12.0819 -7.66743 4
    endloop
  endfacet
  facet normal 0 0 1
    outer loop
      vertex -9.59223 4.27073 4
      vertex -13.6092 4.42189 4
      vertex -10.2705 2.18307 4
    endloop
  endfacet
  facet normal 0 0 1
    outer loop
      vertex -9.59223 -4.27073 4
      vertex -12.9476 -6.0927 4
      vertex -12.5395 -6.89367 4
    endloop
  endfacet
  facet normal -0 0 1
    outer loop
      vertex -13.86 3.55863 4
      vertex -10.2705 2.18307 4
      vertex -13.6092 4.42189 4
    endloop
  endfacet
  facet normal 0 0 1
    outer loop
      vertex -9.59223 -4.27073 4
      vertex -13.3047 -5.26769 4
      vertex -12.9476 -6.0927 4
    endloop
  endfacet
  facet normal -0 0 1
    outer loop
      vertex -14.0561 2.68134 4
      vertex -10.2705 2.18307 4
      vertex -13.86 3.55863 4
    endloop
  endfacet
  facet normal 0 0 1
    outer loop
      vertex -9.59223 -4.27073 4
      vertex -13.6092 -4.42189 4
      vertex -13.3047 -5.26769 4
    endloop
  endfacet
  facet normal 0 0 1
    outer loop
      vertex -14.1967 1.79346 4
      vertex -10.2705 2.18307 4
      vertex -14.0561 2.68134 4
    endloop
  endfacet
  facet normal 0 0 1
    outer loop
      vertex -10.2705 -2.18307 4
      vertex -13.86 -3.55863 4
      vertex -13.6092 -4.42189 4
    endloop
  endfacet
  facet normal 0 0 1
    outer loop
      vertex -10.2705 2.18307 4
      vertex -14.1967 1.79346 4
      vertex -10.5 0 4
    endloop
  endfacet
  facet normal 0 0 1
    outer loop
      vertex -10.2705 -2.18307 4
      vertex -14.0561 -2.68134 4
      vertex -13.86 -3.55863 4
    endloop
  endfacet
  facet normal -0 0 1
    outer loop
      vertex -14.2813 0.898502 4
      vertex -10.5 0 4
      vertex -14.1967 1.79346 4
    endloop
  endfacet
  facet normal 0 0 1
    outer loop
      vertex -10.2705 -2.18307 4
      vertex -14.1967 -1.79346 4
      vertex -14.0561 -2.68134 4
    endloop
  endfacet
  facet normal 0 0 1
    outer loop
      vertex -14.3095 0 4
      vertex -10.5 0 4
      vertex -14.2813 0.898502 4
    endloop
  endfacet
  facet normal 0 0 1
    outer loop
      vertex -10.5 0 4
      vertex -14.2813 -0.898502 4
      vertex -14.1967 -1.79346 4
    endloop
  endfacet
  facet normal 0 0 1
    outer loop
      vertex -10.5 0 4
      vertex -14.3095 0 4
      vertex -14.2813 -0.898502 4
    endloop
  endfacet
  facet normal -0.920733 0.028935 0.389119
    outer loop
      vertex -14.2813 0.898502 4
      vertex -16 0 0
      vertex -14.3095 0 4
    endloop
  endfacet
  facet normal -0.909846 0.144105 0.389119
    outer loop
      vertex -15.7166 2.9981 0
      vertex -15.8738 2.00533 0
      vertex -14.1967 1.79346 4
    endloop
  endfacet
  facet normal -0.866728 0.312041 0.389119
    outer loop
      vertex -13.3047 5.26769 4
      vertex -15.2169 4.94427 0
      vertex -13.6092 4.42189 4
    endloop
  endfacet
  facet normal -0.609192 0.690993 0.389119
    outer loop
      vertex -10.1988 12.3282 0
      vertex -10.9528 11.6635 0
      vertex -9.79554 10.4312 4
    endloop
  endfacet
  facet normal -0.365848 0.845424 0.389118
    outer loop
      vertex -5.88999 14.8764 0
      vertex -6.81247 14.4772 0
      vertex -6.0927 12.9476 4
    endloop
  endfacet
  facet normal -0.200951 0.899002 0.389119
    outer loop
      vertex -2.9981 15.7166 0
      vertex -3.55863 13.86 4
      vertex -2.68134 14.0561 4
    endloop
  endfacet
  facet normal -0.257003 0.884611 0.389119
    outer loop
      vertex -3.55863 13.86 4
      vertex -4.94427 15.2169 0
      vertex -4.42189 13.6092 4
    endloop
  endfacet
  facet normal -0.144105 0.909846 0.389119
    outer loop
      vertex -1.79346 14.1967 4
      vertex -2.9981 15.7166 0
      vertex -2.68134 14.0561 4
    endloop
  endfacet
  facet normal -0.0866912 0.917099 0.389119
    outer loop
      vertex -1.00465 15.9684 0
      vertex -2.00533 15.8738 0
      vertex -0.898502 14.2813 4
    endloop
  endfacet
  facet normal -0.0289361 0.920733 0.389119
    outer loop
      vertex 0 16 0
      vertex -1.00465 15.9684 0
      vertex -0.898502 14.2813 4
    endloop
  endfacet
  facet normal 0.909846 0.144105 0.389119
    outer loop
      vertex 15.7166 2.9981 0
      vertex 14.0561 2.68134 4
      vertex 14.1967 1.79346 4
    endloop
  endfacet
  facet normal 0.866728 0.312041 0.389119
    outer loop
      vertex 15.2169 4.94427 0
      vertex 13.3047 5.26769 4
      vertex 13.6092 4.42189 4
    endloop
  endfacet
  facet normal 0.866728 0.312041 0.389119
    outer loop
      vertex 14.8764 5.88999 0
      vertex 13.3047 5.26769 4
      vertex 15.2169 4.94427 0
    endloop
  endfacet
  facet normal 0.690993 0.609192 0.389119
    outer loop
      vertex 11.6635 10.9528 0
      vertex 10.4312 9.79554 4
      vertex 12.3282 10.1988 0
    endloop
  endfacet
  facet normal 0.727881 0.564602 0.389119
    outer loop
      vertex 12.3282 10.1988 0
      vertex 11.0257 9.12123 4
      vertex 11.5766 8.41093 4
    endloop
  endfacet
  facet normal 0.761896 0.517784 0.389119
    outer loop
      vertex 12.9443 9.40456 0
      vertex 11.5766 8.41093 4
      vertex 12.0819 7.66743 4
    endloop
  endfacet
  facet normal 0.028935 0.920733 0.389119
    outer loop
      vertex 0 16 0
      vertex 0 14.3095 4
      vertex 0.898502 14.2813 4
    endloop
  endfacet
  facet normal 0.41821 0.820784 0.389118
    outer loop
      vertex 6.81247 14.4772 0
      vertex 6.0927 12.9476 4
      vertex 7.70806 14.0209 0
    endloop
  endfacet
  facet normal 0.144105 0.909846 0.389119
    outer loop
      vertex 2.9981 15.7166 0
      vertex 1.79346 14.1967 4
      vertex 2.68134 14.0561 4
    endloop
  endfacet
  facet normal 0.517784 0.761896 0.389119
    outer loop
      vertex 9.40456 12.9443 0
      vertex 7.66743 12.0819 4
      vertex 8.41093 11.5766 4
    endloop
  endfacet
  facet normal 0.517784 0.761897 0.389119
    outer loop
      vertex 8.57323 13.5092 0
      vertex 7.66743 12.0819 4
      vertex 9.40456 12.9443 0
    endloop
  endfacet
  facet normal 0.609192 0.690993 0.389119
    outer loop
      vertex 10.1988 12.3282 0
      vertex 9.79554 10.4312 4
      vertex 10.9528 11.6635 0
    endloop
  endfacet
  facet normal -0.028935 -0.920733 0.389119
    outer loop
      vertex 0 -14.3095 4
      vertex -0.898502 -14.2813 4
      vertex 0 -16 0
    endloop
  endfacet
  facet normal -0.144105 -0.909846 0.389119
    outer loop
      vertex -1.79346 -14.1967 4
      vertex -2.9981 -15.7166 0
      vertex -2.00533 -15.8738 0
    endloop
  endfacet
  facet normal -0.200951 -0.899002 0.389119
    outer loop
      vertex -2.68134 -14.0561 4
      vertex -3.55863 -13.86 4
      vertex -2.9981 -15.7166 0
    endloop
  endfacet
  facet normal -0.144105 -0.909846 0.389119
    outer loop
      vertex -2.68134 -14.0561 4
      vertex -2.9981 -15.7166 0
      vertex -1.79346 -14.1967 4
    endloop
  endfacet
  facet normal -0.312041 -0.866728 0.389119
    outer loop
      vertex -4.42189 -13.6092 4
      vertex -5.26769 -13.3047 4
      vertex -4.94427 -15.2169 0
    endloop
  endfacet
  facet normal -0.418211 -0.820784 0.389119
    outer loop
      vertex -6.89367 -12.5395 4
      vertex -7.70806 -14.0209 0
      vertex -6.0927 -12.9476 4
    endloop
  endfacet
  facet normal -0.564602 -0.727881 0.389119
    outer loop
      vertex -9.12123 -11.0257 4
      vertex -10.1988 -12.3282 0
      vertex -8.41093 -11.5766 4
    endloop
  endfacet
  facet normal -0.609192 -0.690993 0.389119
    outer loop
      vertex -9.79554 -10.4312 4
      vertex -10.9528 -11.6635 0
      vertex -10.1988 -12.3282 0
    endloop
  endfacet
  facet normal -0.909846 -0.144105 0.389119
    outer loop
      vertex -14.1967 -1.79346 4
      vertex -15.7166 -2.9981 0
      vertex -14.0561 -2.68134 4
    endloop
  endfacet
  facet normal -0.884611 -0.257003 0.389119
    outer loop
      vertex -13.86 -3.55863 4
      vertex -15.4973 -3.97904 0
      vertex -15.2169 -4.94427 0
    endloop
  endfacet
  facet normal -0.845425 -0.365847 0.389119
    outer loop
      vertex -13.3047 -5.26769 4
      vertex -14.8764 -5.88999 0
      vertex -12.9476 -6.0927 4
    endloop
  endfacet
  facet normal -0.727881 -0.564602 0.389119
    outer loop
      vertex -11.5766 -8.41093 4
      vertex -12.3282 -10.1988 0
      vertex -11.0257 -9.12123 4
    endloop
  endfacet
  facet normal -0.792905 -0.468922 0.389119
    outer loop
      vertex -12.5395 -6.89367 4
      vertex -14.0209 -7.70806 0
      vertex -12.0819 -7.66743 4
    endloop
  endfacet
  facet normal -0.792905 -0.468923 0.389119
    outer loop
      vertex -12.0819 -7.66743 4
      vertex -14.0209 -7.70806 0
      vertex -13.5092 -8.57323 0
    endloop
  endfacet
  facet normal -0.845424 -0.365848 0.389118
    outer loop
      vertex -12.9476 -6.0927 4
      vertex -14.8764 -5.88999 0
      vertex -14.4772 -6.81247 0
    endloop
  endfacet
  facet normal 0.609192 -0.690993 0.389119
    outer loop
      vertex 9.79554 -10.4312 4
      vertex 9.12123 -11.0257 4
      vertex 10.1988 -12.3282 0
    endloop
  endfacet
  facet normal 0.468922 -0.792905 0.389119
    outer loop
      vertex 7.66743 -12.0819 4
      vertex 6.89367 -12.5395 4
      vertex 7.70806 -14.0209 0
    endloop
  endfacet
  facet normal 0.517784 -0.761896 0.389119
    outer loop
      vertex 8.41093 -11.5766 4
      vertex 7.66743 -12.0819 4
      vertex 9.40456 -12.9443 0
    endloop
  endfacet
  facet normal 0.365848 -0.845424 0.389118
    outer loop
      vertex 6.0927 -12.9476 4
      vertex 5.88999 -14.8764 0
      vertex 6.81247 -14.4772 0
    endloop
  endfacet
  facet normal 0.144105 -0.909846 0.389119
    outer loop
      vertex 2.68134 -14.0561 4
      vertex 1.79346 -14.1967 4
      vertex 2.9981 -15.7166 0
    endloop
  endfacet
  facet normal 0.257003 -0.884611 0.389119
    outer loop
      vertex 4.94427 -15.2169 0
      vertex 3.55863 -13.86 4
      vertex 3.97904 -15.4973 0
    endloop
  endfacet
  facet normal 0.365847 -0.845425 0.389119
    outer loop
      vertex 6.0927 -12.9476 4
      vertex 5.26769 -13.3047 4
      vertex 5.88999 -14.8764 0
    endloop
  endfacet
  facet normal 0.690993 -0.609192 0.389119
    outer loop
      vertex 11.0257 -9.12123 4
      vertex 10.4312 -9.79554 4
      vertex 12.3282 -10.1988 0
    endloop
  endfacet
  facet normal 0.792905 -0.468923 0.389119
    outer loop
      vertex 14.0209 -7.70806 0
      vertex 12.0819 -7.66743 4
      vertex 13.5092 -8.57323 0
    endloop
  endfacet
  facet normal 0.884611 -0.257003 0.389119
    outer loop
      vertex 13.86 -3.55863 4
      vertex 13.6092 -4.42189 4
      vertex 15.2169 -4.94427 0
    endloop
  endfacet
  facet normal 0.920733 -0.0289361 0.389119
    outer loop
      vertex 16 0 0
      vertex 14.2813 -0.898502 4
      vertex 15.9684 -1.00465 0
    endloop
  endfacet
  facet normal 0.920733 -0.028935 0.389119
    outer loop
      vertex 14.3095 0 4
      vertex 14.2813 -0.898502 4
      vertex 16 0 0
    endloop
  endfacet
  facet normal -0.917099 0.0866912 0.389119
    outer loop
      vertex -15.8738 2.00533 0
      vertex -15.9684 1.00465 0
      vertex -14.2813 0.898502 4
    endloop
  endfacet
  facet normal -0.884611 0.257003 0.389119
    outer loop
      vertex -13.6092 4.42189 4
      vertex -15.2169 4.94427 0
      vertex -13.86 3.55863 4
    endloop
  endfacet
  facet normal -0.727881 0.564602 0.389119
    outer loop
      vertex -12.3282 10.1988 0
      vertex -12.9443 9.40456 0
      vertex -11.5766 8.41093 4
    endloop
  endfacet
  facet normal -0.820784 0.418211 0.389119
    outer loop
      vertex -12.5395 6.89367 4
      vertex -14.0209 7.70806 0
      vertex -12.9476 6.0927 4
    endloop
  endfacet
  facet normal -0.820784 0.41821 0.389118
    outer loop
      vertex -14.0209 7.70806 0
      vertex -14.4772 6.81247 0
      vertex -12.9476 6.0927 4
    endloop
  endfacet
  facet normal -0.564602 0.727881 0.389119
    outer loop
      vertex -8.41093 11.5766 4
      vertex -10.1988 12.3282 0
      vertex -9.12123 11.0257 4
    endloop
  endfacet
  facet normal -0.41821 0.820784 0.389118
    outer loop
      vertex -6.81247 14.4772 0
      vertex -7.70806 14.0209 0
      vertex -6.0927 12.9476 4
    endloop
  endfacet
  facet normal -0.312041 0.866728 0.389119
    outer loop
      vertex -4.94427 15.2169 0
      vertex -5.26769 13.3047 4
      vertex -4.42189 13.6092 4
    endloop
  endfacet
  facet normal -0.200951 0.899002 0.389119
    outer loop
      vertex -2.9981 15.7166 0
      vertex -3.97904 15.4973 0
      vertex -3.55863 13.86 4
    endloop
  endfacet
  facet normal -0.257003 0.884611 0.389119
    outer loop
      vertex -3.97904 15.4973 0
      vertex -4.94427 15.2169 0
      vertex -3.55863 13.86 4
    endloop
  endfacet
  facet normal 0.727881 0.564602 0.389119
    outer loop
      vertex 12.3282 10.1988 0
      vertex 11.5766 8.41093 4
      vertex 12.9443 9.40456 0
    endloop
  endfacet
  facet normal 0.820784 0.418211 0.389119
    outer loop
      vertex 14.0209 7.70806 0
      vertex 12.5395 6.89367 4
      vertex 12.9476 6.0927 4
    endloop
  endfacet
  facet normal 0.761897 0.517784 0.389119
    outer loop
      vertex 12.9443 9.40456 0
      vertex 12.0819 7.66743 4
      vertex 13.5092 8.57323 0
    endloop
  endfacet
  facet normal 0.792905 0.468923 0.389119
    outer loop
      vertex 13.5092 8.57323 0
      vertex 12.0819 7.66743 4
      vertex 14.0209 7.70806 0
    endloop
  endfacet
  facet normal 0.365848 0.845424 0.389118
    outer loop
      vertex 6.81247 14.4772 0
      vertex 5.88999 14.8764 0
      vertex 6.0927 12.9476 4
    endloop
  endfacet
  facet normal 0.312041 0.866728 0.389119
    outer loop
      vertex 4.94427 15.2169 0
      vertex 4.42189 13.6092 4
      vertex 5.26769 13.3047 4
    endloop
  endfacet
  facet normal 0.312041 0.866728 0.389119
    outer loop
      vertex 5.88999 14.8764 0
      vertex 4.94427 15.2169 0
      vertex 5.26769 13.3047 4
    endloop
  endfacet
  facet normal 0.0866912 0.917099 0.389119
    outer loop
      vertex 1.00465 15.9684 0
      vertex 0.898502 14.2813 4
      vertex 2.00533 15.8738 0
    endloop
  endfacet
  facet normal 0.144105 0.909846 0.389119
    outer loop
      vertex 2.00533 15.8738 0
      vertex 1.79346 14.1967 4
      vertex 2.9981 15.7166 0
    endloop
  endfacet
  facet normal 0.0866917 0.917099 0.389119
    outer loop
      vertex 2.00533 15.8738 0
      vertex 0.898502 14.2813 4
      vertex 1.79346 14.1967 4
    endloop
  endfacet
  facet normal 0.468922 0.792905 0.389119
    outer loop
      vertex 7.70806 14.0209 0
      vertex 6.89367 12.5395 4
      vertex 7.66743 12.0819 4
    endloop
  endfacet
  facet normal 0.418211 0.820784 0.389119
    outer loop
      vertex 7.70806 14.0209 0
      vertex 6.0927 12.9476 4
      vertex 6.89367 12.5395 4
    endloop
  endfacet
  facet normal 0.564602 0.727881 0.389119
    outer loop
      vertex 10.1988 12.3282 0
      vertex 8.41093 11.5766 4
      vertex 9.12123 11.0257 4
    endloop
  endfacet
  facet normal 0.564602 0.727881 0.389119
    outer loop
      vertex 9.40456 12.9443 0
      vertex 8.41093 11.5766 4
      vertex 10.1988 12.3282 0
    endloop
  endfacet
  facet normal -0.0866912 -0.917099 0.389119
    outer loop
      vertex -0.898502 -14.2813 4
      vertex -2.00533 -15.8738 0
      vertex -1.00465 -15.9684 0
    endloop
  endfacet
  facet normal -0.257003 -0.884611 0.389119
    outer loop
      vertex -4.42189 -13.6092 4
      vertex -4.94427 -15.2169 0
      vertex -3.55863 -13.86 4
    endloop
  endfacet
  facet normal -0.468922 -0.792905 0.389119
    outer loop
      vertex -7.66743 -12.0819 4
      vertex -7.70806 -14.0209 0
      vertex -6.89367 -12.5395 4
    endloop
  endfacet
  facet normal -0.517784 -0.761897 0.389119
    outer loop
      vertex -7.66743 -12.0819 4
      vertex -9.40456 -12.9443 0
      vertex -8.57323 -13.5092 0
    endloop
  endfacet
  facet normal -0.564602 -0.727881 0.389119
    outer loop
      vertex -8.41093 -11.5766 4
      vertex -10.1988 -12.3282 0
      vertex -9.40456 -12.9443 0
    endloop
  endfacet
  facet normal -0.517784 -0.761896 0.389119
    outer loop
      vertex -8.41093 -11.5766 4
      vertex -9.40456 -12.9443 0
      vertex -7.66743 -12.0819 4
    endloop
  endfacet
  facet normal -0.866728 -0.312041 0.389119
    outer loop
      vertex -13.6092 -4.42189 4
      vertex -15.2169 -4.94427 0
      vertex -13.3047 -5.26769 4
    endloop
  endfacet
  facet normal -0.727881 -0.564602 0.389119
    outer loop
      vertex -11.5766 -8.41093 4
      vertex -12.9443 -9.40456 0
      vertex -12.3282 -10.1988 0
    endloop
  endfacet
  facet normal -0.820784 -0.418211 0.389119
    outer loop
      vertex -12.9476 -6.0927 4
      vertex -14.0209 -7.70806 0
      vertex -12.5395 -6.89367 4
    endloop
  endfacet
  facet normal 0.564602 -0.727881 0.389119
    outer loop
      vertex 10.1988 -12.3282 0
      vertex 8.41093 -11.5766 4
      vertex 9.40456 -12.9443 0
    endloop
  endfacet
  facet normal 0.418211 -0.820784 0.389119
    outer loop
      vertex 6.89367 -12.5395 4
      vertex 6.0927 -12.9476 4
      vertex 7.70806 -14.0209 0
    endloop
  endfacet
  facet normal 0.517784 -0.761897 0.389119
    outer loop
      vertex 9.40456 -12.9443 0
      vertex 7.66743 -12.0819 4
      vertex 8.57323 -13.5092 0
    endloop
  endfacet
  facet normal 0.468923 -0.792905 0.389119
    outer loop
      vertex 8.57323 -13.5092 0
      vertex 7.66743 -12.0819 4
      vertex 7.70806 -14.0209 0
    endloop
  endfacet
  facet normal 0.312041 -0.866728 0.389119
    outer loop
      vertex 5.26769 -13.3047 4
      vertex 4.42189 -13.6092 4
      vertex 4.94427 -15.2169 0
    endloop
  endfacet
  facet normal 0.820784 -0.418211 0.389119
    outer loop
      vertex 12.9476 -6.0927 4
      vertex 12.5395 -6.89367 4
      vertex 14.0209 -7.70806 0
    endloop
  endfacet
  facet normal -0.884611 0.257003 0.389119
    outer loop
      vertex -15.2169 4.94427 0
      vertex -15.4973 3.97904 0
      vertex -13.86 3.55863 4
    endloop
  endfacet
  facet normal -0.899002 0.200951 0.389119
    outer loop
      vertex -15.4973 3.97904 0
      vertex -15.7166 2.9981 0
      vertex -13.86 3.55863 4
    endloop
  endfacet
  facet normal -0.761897 0.517784 0.389119
    outer loop
      vertex -12.9443 9.40456 0
      vertex -13.5092 8.57323 0
      vertex -12.0819 7.66743 4
    endloop
  endfacet
  facet normal -0.690993 0.609192 0.389119
    outer loop
      vertex -10.4312 9.79554 4
      vertex -12.3282 10.1988 0
      vertex -11.0257 9.12123 4
    endloop
  endfacet
  facet normal -0.727881 0.564602 0.389119
    outer loop
      vertex -11.0257 9.12123 4
      vertex -12.3282 10.1988 0
      vertex -11.5766 8.41093 4
    endloop
  endfacet
  facet normal -0.690993 0.609192 0.389119
    outer loop
      vertex -11.6635 10.9528 0
      vertex -12.3282 10.1988 0
      vertex -10.4312 9.79554 4
    endloop
  endfacet
  facet normal -0.651378 0.651378 0.389119
    outer loop
      vertex -11.6635 10.9528 0
      vertex -9.79554 10.4312 4
      vertex -10.9528 11.6635 0
    endloop
  endfacet
  facet normal -0.651378 0.651378 0.389119
    outer loop
      vertex -9.79554 10.4312 4
      vertex -11.6635 10.9528 0
      vertex -10.4312 9.79554 4
    endloop
  endfacet
  facet normal -0.845425 0.365847 0.389119
    outer loop
      vertex -12.9476 6.0927 4
      vertex -14.8764 5.88999 0
      vertex -13.3047 5.26769 4
    endloop
  endfacet
  facet normal -0.866728 0.312041 0.389119
    outer loop
      vertex -14.8764 5.88999 0
      vertex -15.2169 4.94427 0
      vertex -13.3047 5.26769 4
    endloop
  endfacet
  facet normal -0.845424 0.365848 0.389118
    outer loop
      vertex -14.4772 6.81247 0
      vertex -14.8764 5.88999 0
      vertex -12.9476 6.0927 4
    endloop
  endfacet
  facet normal -0.609192 0.690993 0.389119
    outer loop
      vertex -9.12123 11.0257 4
      vertex -10.1988 12.3282 0
      vertex -9.79554 10.4312 4
    endloop
  endfacet
  facet normal -0.468922 0.792905 0.389119
    outer loop
      vertex -6.89367 12.5395 4
      vertex -7.70806 14.0209 0
      vertex -7.66743 12.0819 4
    endloop
  endfacet
  facet normal -0.517784 0.761896 0.389119
    outer loop
      vertex -7.66743 12.0819 4
      vertex -9.40456 12.9443 0
      vertex -8.41093 11.5766 4
    endloop
  endfacet
  facet normal 0.690993 0.609192 0.389119
    outer loop
      vertex 12.3282 10.1988 0
      vertex 10.4312 9.79554 4
      vertex 11.0257 9.12123 4
    endloop
  endfacet
  facet normal 0.257003 0.884611 0.389119
    outer loop
      vertex 4.94427 15.2169 0
      vertex 3.55863 13.86 4
      vertex 4.42189 13.6092 4
    endloop
  endfacet
  facet normal 0.609192 0.690993 0.389119
    outer loop
      vertex 10.1988 12.3282 0
      vertex 9.12123 11.0257 4
      vertex 9.79554 10.4312 4
    endloop
  endfacet
  facet normal -0.257003 -0.884611 0.389119
    outer loop
      vertex -3.55863 -13.86 4
      vertex -4.94427 -15.2169 0
      vertex -3.97904 -15.4973 0
    endloop
  endfacet
  facet normal -0.200951 -0.899002 0.389119
    outer loop
      vertex -3.55863 -13.86 4
      vertex -3.97904 -15.4973 0
      vertex -2.9981 -15.7166 0
    endloop
  endfacet
  facet normal -0.365847 -0.845425 0.389119
    outer loop
      vertex -5.26769 -13.3047 4
      vertex -6.0927 -12.9476 4
      vertex -5.88999 -14.8764 0
    endloop
  endfacet
  facet normal -0.312041 -0.866728 0.389119
    outer loop
      vertex -5.26769 -13.3047 4
      vertex -5.88999 -14.8764 0
      vertex -4.94427 -15.2169 0
    endloop
  endfacet
  facet normal -0.365848 -0.845424 0.389118
    outer loop
      vertex -6.0927 -12.9476 4
      vertex -6.81247 -14.4772 0
      vertex -5.88999 -14.8764 0
    endloop
  endfacet
  facet normal -0.41821 -0.820784 0.389118
    outer loop
      vertex -6.0927 -12.9476 4
      vertex -7.70806 -14.0209 0
      vertex -6.81247 -14.4772 0
    endloop
  endfacet
  facet normal -0.609192 -0.690993 0.389119
    outer loop
      vertex -9.79554 -10.4312 4
      vertex -10.1988 -12.3282 0
      vertex -9.12123 -11.0257 4
    endloop
  endfacet
  facet normal -0.690993 -0.609192 0.389119
    outer loop
      vertex -11.0257 -9.12123 4
      vertex -12.3282 -10.1988 0
      vertex -10.4312 -9.79554 4
    endloop
  endfacet
  facet normal -0.792905 0.468923 0.389119
    outer loop
      vertex -13.5092 8.57323 0
      vertex -14.0209 7.70806 0
      vertex -12.0819 7.66743 4
    endloop
  endfacet
  facet normal -0.564602 0.727881 0.389119
    outer loop
      vertex -9.40456 12.9443 0
      vertex -10.1988 12.3282 0
      vertex -8.41093 11.5766 4
    endloop
  endfacet
  facet normal -0.418211 0.820784 0.389119
    outer loop
      vertex -6.0927 12.9476 4
      vertex -7.70806 14.0209 0
      vertex -6.89367 12.5395 4
    endloop
  endfacet
  facet normal -0.517784 0.761897 0.389119
    outer loop
      vertex -8.57323 13.5092 0
      vertex -9.40456 12.9443 0
      vertex -7.66743 12.0819 4
    endloop
  endfacet
  facet normal -0.468923 0.792905 0.389119
    outer loop
      vertex -7.70806 14.0209 0
      vertex -8.57323 13.5092 0
      vertex -7.66743 12.0819 4
    endloop
  endfacet
  facet normal 0.257003 0.884611 0.389119
    outer loop
      vertex 3.97904 15.4973 0
      vertex 3.55863 13.86 4
      vertex 4.94427 15.2169 0
    endloop
  endfacet
  facet normal 0.200951 0.899002 0.389119
    outer loop
      vertex 3.97904 15.4973 0
      vertex 2.9981 15.7166 0
      vertex 3.55863 13.86 4
    endloop
  endfacet
  facet normal -0.994522 -0.104529 0
    outer loop
      vertex 10.5 0 1
      vertex 10.2705 2.18307 4
      vertex 10.2705 2.18307 1
    endloop
  endfacet
  facet normal -0.994522 -0.104529 0
    outer loop
      vertex 10.2705 2.18307 4
      vertex 10.5 0 1
      vertex 10.5 0 4
    endloop
  endfacet
  facet normal 0.994522 -0.104529 0
    outer loop
      vertex -10.5 0 4
      vertex -10.2705 2.18307 1
      vertex -10.2705 2.18307 4
    endloop
  endfacet
  facet normal 0.994522 -0.104529 0
    outer loop
      vertex -10.2705 2.18307 1
      vertex -10.5 0 4
      vertex -10.5 0 1
    endloop
  endfacet
  facet normal 0 -1 0
    outer loop
      vertex -1.09755 10.4425 1
      vertex 1.09755 10.4425 4
      vertex -1.09755 10.4425 4
    endloop
  endfacet
  facet normal 0 -1 -0
    outer loop
      vertex 1.09755 10.4425 4
      vertex -1.09755 10.4425 1
      vertex 1.09755 10.4425 1
    endloop
  endfacet
  facet normal 0 1 -0
    outer loop
      vertex 1.09755 -10.4425 1
      vertex -1.09755 -10.4425 4
      vertex 1.09755 -10.4425 4
    endloop
  endfacet
  facet normal 0 1 0
    outer loop
      vertex -1.09755 -10.4425 4
      vertex 1.09755 -10.4425 1
      vertex -1.09755 -10.4425 1
    endloop
  endfacet
  facet normal -0.743145 -0.66913 0
    outer loop
      vertex 8.49468 6.17174 1
      vertex 7.02587 7.80302 4
      vertex 7.02587 7.80302 1
    endloop
  endfacet
  facet normal -0.743145 -0.66913 0
    outer loop
      vertex 7.02587 7.80302 4
      vertex 8.49468 6.17174 1
      vertex 8.49468 6.17174 4
    endloop
  endfacet
  facet normal -0.951056 -0.309017 0
    outer loop
      vertex 10.2705 2.18307 1
      vertex 9.59223 4.27073 4
      vertex 9.59223 4.27073 1
    endloop
  endfacet
  facet normal -0.951056 -0.309017 0
    outer loop
      vertex 9.59223 4.27073 4
      vertex 10.2705 2.18307 1
      vertex 10.2705 2.18307 4
    endloop
  endfacet
  facet normal 0.587785 -0.809017 0
    outer loop
      vertex -7.02587 7.80302 1
      vertex -5.25 9.09327 4
      vertex -7.02587 7.80302 4
    endloop
  endfacet
  facet normal 0.587785 -0.809017 0
    outer loop
      vertex -5.25 9.09327 4
      vertex -7.02587 7.80302 1
      vertex -5.25 9.09327 1
    endloop
  endfacet
  facet normal 0.406736 -0.913546 0
    outer loop
      vertex -5.25 9.09327 1
      vertex -3.24468 9.98609 4
      vertex -5.25 9.09327 4
    endloop
  endfacet
  facet normal 0.406736 -0.913546 0
    outer loop
      vertex -3.24468 9.98609 4
      vertex -5.25 9.09327 1
      vertex -3.24468 9.98609 1
    endloop
  endfacet
  facet normal -0.866025 0.5 0
    outer loop
      vertex 8.49468 -6.17174 1
      vertex 9.59223 -4.27073 4
      vertex 9.59223 -4.27073 1
    endloop
  endfacet
  facet normal -0.866025 0.5 0
    outer loop
      vertex 9.59223 -4.27073 4
      vertex 8.49468 -6.17174 1
      vertex 8.49468 -6.17174 4
    endloop
  endfacet
  facet normal -0.866025 -0.5 0
    outer loop
      vertex 9.59223 4.27073 1
      vertex 8.49468 6.17174 4
      vertex 8.49468 6.17174 1
    endloop
  endfacet
  facet normal -0.866025 -0.5 0
    outer loop
      vertex 8.49468 6.17174 4
      vertex 9.59223 4.27073 1
      vertex 9.59223 4.27073 4
    endloop
  endfacet
  facet normal -0.406736 -0.913546 0
    outer loop
      vertex 3.24468 9.98609 1
      vertex 5.25 9.09327 4
      vertex 3.24468 9.98609 4
    endloop
  endfacet
  facet normal -0.406736 -0.913546 -0
    outer loop
      vertex 5.25 9.09327 4
      vertex 3.24468 9.98609 1
      vertex 5.25 9.09327 1
    endloop
  endfacet
  facet normal -0.207912 -0.978148 0
    outer loop
      vertex 1.09755 10.4425 1
      vertex 3.24468 9.98609 4
      vertex 1.09755 10.4425 4
    endloop
  endfacet
  facet normal -0.207912 -0.978148 -0
    outer loop
      vertex 3.24468 9.98609 4
      vertex 1.09755 10.4425 1
      vertex 3.24468 9.98609 1
    endloop
  endfacet
  facet normal -0.587785 -0.809017 0
    outer loop
      vertex 5.25 9.09327 1
      vertex 7.02587 7.80302 4
      vertex 5.25 9.09327 4
    endloop
  endfacet
  facet normal -0.587785 -0.809017 -0
    outer loop
      vertex 7.02587 7.80302 4
      vertex 5.25 9.09327 1
      vertex 7.02587 7.80302 1
    endloop
  endfacet
  facet normal 0.866025 -0.5 0
    outer loop
      vertex -9.59223 4.27073 4
      vertex -8.49468 6.17174 1
      vertex -8.49468 6.17174 4
    endloop
  endfacet
  facet normal 0.866025 -0.5 0
    outer loop
      vertex -8.49468 6.17174 1
      vertex -9.59223 4.27073 4
      vertex -9.59223 4.27073 1
    endloop
  endfacet
  facet normal 0.743145 -0.66913 0
    outer loop
      vertex -8.49468 6.17174 4
      vertex -7.02587 7.80302 1
      vertex -7.02587 7.80302 4
    endloop
  endfacet
  facet normal 0.743145 -0.66913 0
    outer loop
      vertex -7.02587 7.80302 1
      vertex -8.49468 6.17174 4
      vertex -8.49468 6.17174 1
    endloop
  endfacet
  facet normal 0.951056 -0.309017 0
    outer loop
      vertex -10.2705 2.18307 4
      vertex -9.59223 4.27073 1
      vertex -9.59223 4.27073 4
    endloop
  endfacet
  facet normal 0.951056 -0.309017 0
    outer loop
      vertex -9.59223 4.27073 1
      vertex -10.2705 2.18307 4
      vertex -10.2705 2.18307 1
    endloop
  endfacet
  facet normal 0.207912 -0.978148 0
    outer loop
      vertex -3.24468 9.98609 1
      vertex -1.09755 10.4425 4
      vertex -3.24468 9.98609 4
    endloop
  endfacet
  facet normal 0.207912 -0.978148 0
    outer loop
      vertex -1.09755 10.4425 4
      vertex -3.24468 9.98609 1
      vertex -1.09755 10.4425 1
    endloop
  endfacet
  facet normal 0 0 1
    outer loop
      vertex 10.2705 2.18307 1
      vertex 10.2705 -2.18307 1
      vertex 10.5 0 1
    endloop
  endfacet
  facet normal 0 0 1
    outer loop
      vertex 9.59223 4.27073 1
      vertex 10.2705 -2.18307 1
      vertex 10.2705 2.18307 1
    endloop
  endfacet
  facet normal 0 0 1
    outer loop
      vertex 9.59223 4.27073 1
      vertex 9.59223 -4.27073 1
      vertex 10.2705 -2.18307 1
    endloop
  endfacet
  facet normal 0 0 1
    outer loop
      vertex 8.49468 6.17174 1
      vertex 9.59223 -4.27073 1
      vertex 9.59223 4.27073 1
    endloop
  endfacet
  facet normal 0 0 1
    outer loop
      vertex 8.49468 6.17174 1
      vertex 8.49468 -6.17174 1
      vertex 9.59223 -4.27073 1
    endloop
  endfacet
  facet normal 0 0 1
    outer loop
      vertex 7.02587 7.80302 1
      vertex 8.49468 -6.17174 1
      vertex 8.49468 6.17174 1
    endloop
  endfacet
  facet normal 0 0 1
    outer loop
      vertex 7.02587 7.80302 1
      vertex 7.02587 -7.80302 1
      vertex 8.49468 -6.17174 1
    endloop
  endfacet
  facet normal 0 0 1
    outer loop
      vertex 5.25 9.09327 1
      vertex 7.02587 -7.80302 1
      vertex 7.02587 7.80302 1
    endloop
  endfacet
  facet normal 0 0 1
    outer loop
      vertex 5.25 9.09327 1
      vertex 5.25 -9.09327 1
      vertex 7.02587 -7.80302 1
    endloop
  endfacet
  facet normal 0 0 1
    outer loop
      vertex 3.24468 9.98609 1
      vertex 5.25 -9.09327 1
      vertex 5.25 9.09327 1
    endloop
  endfacet
  facet normal 0 0 1
    outer loop
      vertex 3.24468 9.98609 1
      vertex 3.24468 -9.98609 1
      vertex 5.25 -9.09327 1
    endloop
  endfacet
  facet normal 0 0 1
    outer loop
      vertex 1.09755 10.4425 1
      vertex 3.24468 -9.98609 1
      vertex 3.24468 9.98609 1
    endloop
  endfacet
  facet normal 0 0 1
    outer loop
      vertex 1.09755 10.4425 1
      vertex 1.09755 -10.4425 1
      vertex 3.24468 -9.98609 1
    endloop
  endfacet
  facet normal -0 0 1
    outer loop
      vertex -1.09755 10.4425 1
      vertex 1.09755 -10.4425 1
      vertex 1.09755 10.4425 1
    endloop
  endfacet
  facet normal 0 0 1
    outer loop
      vertex -1.09755 10.4425 1
      vertex -1.09755 -10.4425 1
      vertex 1.09755 -10.4425 1
    endloop
  endfacet
  facet normal -0 0 1
    outer loop
      vertex -3.24468 9.98609 1
      vertex -1.09755 -10.4425 1
      vertex -1.09755 10.4425 1
    endloop
  endfacet
  facet normal 0 0 1
    outer loop
      vertex -3.24468 9.98609 1
      vertex -3.24468 -9.98609 1
      vertex -1.09755 -10.4425 1
    endloop
  endfacet
  facet normal -0 0 1
    outer loop
      vertex -5.25 9.09327 1
      vertex -3.24468 -9.98609 1
      vertex -3.24468 9.98609 1
    endloop
  endfacet
  facet normal 0 0 1
    outer loop
      vertex -5.25 9.09327 1
      vertex -5.25 -9.09327 1
      vertex -3.24468 -9.98609 1
    endloop
  endfacet
  facet normal -0 0 1
    outer loop
      vertex -7.02587 7.80302 1
      vertex -5.25 -9.09327 1
      vertex -5.25 9.09327 1
    endloop
  endfacet
  facet normal 0 0 1
    outer loop
      vertex -7.02587 7.80302 1
      vertex -7.02587 -7.80302 1
      vertex -5.25 -9.09327 1
    endloop
  endfacet
  facet normal -0 0 1
    outer loop
      vertex -8.49468 6.17174 1
      vertex -7.02587 -7.80302 1
      vertex -7.02587 7.80302 1
    endloop
  endfacet
  facet normal 0 0 1
    outer loop
      vertex -8.49468 6.17174 1
      vertex -8.49468 -6.17174 1
      vertex -7.02587 -7.80302 1
    endloop
  endfacet
  facet normal -0 0 1
    outer loop
      vertex -9.59223 4.27073 1
      vertex -8.49468 -6.17174 1
      vertex -8.49468 6.17174 1
    endloop
  endfacet
  facet normal 0 0 1
    outer loop
      vertex -9.59223 4.27073 1
      vertex -9.59223 -4.27073 1
      vertex -8.49468 -6.17174 1
    endloop
  endfacet
  facet normal -0 0 1
    outer loop
      vertex -10.2705 2.18307 1
      vertex -9.59223 -4.27073 1
      vertex -9.59223 4.27073 1
    endloop
  endfacet
  facet normal 0 0 1
    outer loop
      vertex -10.2705 2.18307 1
      vertex -10.2705 -2.18307 1
      vertex -9.59223 -4.27073 1
    endloop
  endfacet
  facet normal 0 -0 1
    outer loop
      vertex -10.2705 -2.18307 1
      vertex -10.2705 2.18307 1
      vertex -10.5 0 1
    endloop
  endfacet
  facet normal -0.587785 0.809017 0
    outer loop
      vertex 7.02587 -7.80302 1
      vertex 5.25 -9.09327 4
      vertex 7.02587 -7.80302 4
    endloop
  endfacet
  facet normal -0.587785 0.809017 0
    outer loop
      vertex 5.25 -9.09327 4
      vertex 7.02587 -7.80302 1
      vertex 5.25 -9.09327 1
    endloop
  endfacet
  facet normal -0.743145 0.66913 0
    outer loop
      vertex 7.02587 -7.80302 1
      vertex 8.49468 -6.17174 4
      vertex 8.49468 -6.17174 1
    endloop
  endfacet
  facet normal -0.743145 0.66913 0
    outer loop
      vertex 8.49468 -6.17174 4
      vertex 7.02587 -7.80302 1
      vertex 7.02587 -7.80302 4
    endloop
  endfacet
  facet normal -0.951056 0.309017 0
    outer loop
      vertex 9.59223 -4.27073 1
      vertex 10.2705 -2.18307 4
      vertex 10.2705 -2.18307 1
    endloop
  endfacet
  facet normal -0.951056 0.309017 0
    outer loop
      vertex 10.2705 -2.18307 4
      vertex 9.59223 -4.27073 1
      vertex 9.59223 -4.27073 4
    endloop
  endfacet
  facet normal -0.994522 0.104529 0
    outer loop
      vertex 10.2705 -2.18307 1
      vertex 10.5 0 4
      vertex 10.5 0 1
    endloop
  endfacet
  facet normal -0.994522 0.104529 0
    outer loop
      vertex 10.5 0 4
      vertex 10.2705 -2.18307 1
      vertex 10.2705 -2.18307 4
    endloop
  endfacet
  facet normal 0.587785 0.809017 -0
    outer loop
      vertex -5.25 -9.09327 1
      vertex -7.02587 -7.80302 4
      vertex -5.25 -9.09327 4
    endloop
  endfacet
  facet normal 0.587785 0.809017 0
    outer loop
      vertex -7.02587 -7.80302 4
      vertex -5.25 -9.09327 1
      vertex -7.02587 -7.80302 1
    endloop
  endfacet
  facet normal 0.866025 0.5 0
    outer loop
      vertex -8.49468 -6.17174 4
      vertex -9.59223 -4.27073 1
      vertex -9.59223 -4.27073 4
    endloop
  endfacet
  facet normal 0.866025 0.5 0
    outer loop
      vertex -9.59223 -4.27073 1
      vertex -8.49468 -6.17174 4
      vertex -8.49468 -6.17174 1
    endloop
  endfacet
  facet normal 0.743145 0.66913 0
    outer loop
      vertex -7.02587 -7.80302 4
      vertex -8.49468 -6.17174 1
      vertex -8.49468 -6.17174 4
    endloop
  endfacet
  facet normal 0.743145 0.66913 0
    outer loop
      vertex -8.49468 -6.17174 1
      vertex -7.02587 -7.80302 4
      vertex -7.02587 -7.80302 1
    endloop
  endfacet
  facet normal -0.207912 0.978148 0
    outer loop
      vertex 3.24468 -9.98609 1
      vertex 1.09755 -10.4425 4
      vertex 3.24468 -9.98609 4
    endloop
  endfacet
  facet normal -0.207912 0.978148 0
    outer loop
      vertex 1.09755 -10.4425 4
      vertex 3.24468 -9.98609 1
      vertex 1.09755 -10.4425 1
    endloop
  endfacet
  facet normal 0.207912 0.978148 -0
    outer loop
      vertex -1.09755 -10.4425 1
      vertex -3.24468 -9.98609 4
      vertex -1.09755 -10.4425 4
    endloop
  endfacet
  facet normal 0.207912 0.978148 0
    outer loop
      vertex -3.24468 -9.98609 4
      vertex -1.09755 -10.4425 1
      vertex -3.24468 -9.98609 1
    endloop
  endfacet
  facet normal 0.951056 0.309017 0
    outer loop
      vertex -9.59223 -4.27073 4
      vertex -10.2705 -2.18307 1
      vertex -10.2705 -2.18307 4
    endloop
  endfacet
  facet normal 0.951056 0.309017 0
    outer loop
      vertex -10.2705 -2.18307 1
      vertex -9.59223 -4.27073 4
      vertex -9.59223 -4.27073 1
    endloop
  endfacet
  facet normal 0.994522 0.104529 0
    outer loop
      vertex -10.2705 -2.18307 4
      vertex -10.5 0 1
      vertex -10.5 0 4
    endloop
  endfacet
  facet normal 0.994522 0.104529 0
    outer loop
      vertex -10.5 0 1
      vertex -10.2705 -2.18307 4
      vertex -10.2705 -2.18307 1
    endloop
  endfacet
  facet normal -0.406736 0.913546 0
    outer loop
      vertex 5.25 -9.09327 1
      vertex 3.24468 -9.98609 4
      vertex 5.25 -9.09327 4
    endloop
  endfacet
  facet normal -0.406736 0.913546 0
    outer loop
      vertex 3.24468 -9.98609 4
      vertex 5.25 -9.09327 1
      vertex 3.24468 -9.98609 1
    endloop
  endfacet
  facet normal 0.406736 0.913546 -0
    outer loop
      vertex -3.24468 -9.98609 1
      vertex -5.25 -9.09327 4
      vertex -3.24468 -9.98609 4
    endloop
  endfacet
  facet normal 0.406736 0.913546 0
    outer loop
      vertex -5.25 -9.09327 4
      vertex -3.24468 -9.98609 1
      vertex -5.25 -9.09327 1
    endloop
  endfacet
endsolid OpenSCAD_Model
