solid OpenSCAD_Model
  facet normal 0.998024 0.0628279 0
    outer loop
      vertex 50 0 20
      vertex 49.9211 1.25333 12
      vertex 49.9211 1.25333 20
    endloop
  endfacet
  facet normal 0.998024 0.0628279 0
    outer loop
      vertex 49.9211 1.25333 12
      vertex 50 0 20
      vertex 50 0 12
    endloop
  endfacet
  facet normal -0.125338 0.992114 0
    outer loop
      vertex 39.3721 9.98027 12
      vertex 38.1262 9.82287 20
      vertex 39.3721 9.98027 20
    endloop
  endfacet
  facet normal -0.125338 0.992114 0
    outer loop
      vertex 38.1262 9.82287 20
      vertex 39.3721 9.98027 12
      vertex 38.1262 9.82287 12
    endloop
  endfacet
  facet normal 0.125338 -0.992114 0
    outer loop
      vertex 40.6279 -9.98027 12
      vertex 41.8738 -9.82287 20
      vertex 40.6279 -9.98027 20
    endloop
  endfacet
  facet normal 0.125338 -0.992114 0
    outer loop
      vertex 41.8738 -9.82287 20
      vertex 40.6279 -9.98027 12
      vertex 41.8738 -9.82287 12
    endloop
  endfacet
  facet normal 0.587814 0.808996 -0
    outer loop
      vertex 46.3742 7.70513 12
      vertex 45.3583 8.44328 20
      vertex 46.3742 7.70513 20
    endloop
  endfacet
  facet normal 0.587814 0.808996 0
    outer loop
      vertex 45.3583 8.44328 20
      vertex 46.3742 7.70513 12
      vertex 45.3583 8.44328 12
    endloop
  endfacet
  facet normal -0.770507 0.637431 0
    outer loop
      vertex 31.9098 5.87785 12
      vertex 32.7103 6.84547 20
      vertex 32.7103 6.84547 12
    endloop
  endfacet
  facet normal -0.770507 0.637431 0
    outer loop
      vertex 32.7103 6.84547 20
      vertex 31.9098 5.87785 12
      vertex 31.9098 5.87785 20
    endloop
  endfacet
  facet normal -0.481745 0.876312 0
    outer loop
      vertex 35.7422 9.04827 12
      vertex 34.6417 8.44328 20
      vertex 35.7422 9.04827 20
    endloop
  endfacet
  facet normal -0.481745 0.876312 0
    outer loop
      vertex 34.6417 8.44328 20
      vertex 35.7422 9.04827 12
      vertex 34.6417 8.44328 12
    endloop
  endfacet
  facet normal 0.844325 0.535831 0
    outer loop
      vertex 48.7631 4.81754 20
      vertex 48.0902 5.87785 12
      vertex 48.0902 5.87785 20
    endloop
  endfacet
  facet normal 0.844325 0.535831 0
    outer loop
      vertex 48.0902 5.87785 12
      vertex 48.7631 4.81754 20
      vertex 48.7631 4.81754 12
    endloop
  endfacet
  facet normal 0.770507 0.637431 0
    outer loop
      vertex 48.0902 5.87785 20
      vertex 47.2897 6.84547 12
      vertex 47.2897 6.84547 20
    endloop
  endfacet
  facet normal 0.770507 0.637431 0
    outer loop
      vertex 47.2897 6.84547 12
      vertex 48.0902 5.87785 20
      vertex 48.0902 5.87785 12
    endloop
  endfacet
  facet normal 0.248684 0.968585 -0
    outer loop
      vertex 43.0902 9.51056 12
      vertex 41.8738 9.82287 20
      vertex 43.0902 9.51056 20
    endloop
  endfacet
  facet normal 0.248684 0.968585 0
    outer loop
      vertex 41.8738 9.82287 20
      vertex 43.0902 9.51056 12
      vertex 41.8738 9.82287 12
    endloop
  endfacet
  facet normal 0.125338 0.992114 -0
    outer loop
      vertex 41.8738 9.82287 12
      vertex 40.6279 9.98027 20
      vertex 41.8738 9.82287 20
    endloop
  endfacet
  facet normal 0.125338 0.992114 0
    outer loop
      vertex 40.6279 9.98027 20
      vertex 41.8738 9.82287 12
      vertex 40.6279 9.98027 12
    endloop
  endfacet
  facet normal 0.481745 0.876312 -0
    outer loop
      vertex 45.3583 8.44328 12
      vertex 44.2578 9.04827 20
      vertex 45.3583 8.44328 20
    endloop
  endfacet
  facet normal 0.481745 0.876312 0
    outer loop
      vertex 44.2578 9.04827 20
      vertex 45.3583 8.44328 12
      vertex 44.2578 9.04827 12
    endloop
  endfacet
  facet normal -0.951072 0.30897 0
    outer loop
      vertex 30.3142 2.4869 12
      vertex 30.7022 3.68124 20
      vertex 30.7022 3.68124 12
    endloop
  endfacet
  facet normal -0.951072 0.30897 0
    outer loop
      vertex 30.7022 3.68124 20
      vertex 30.3142 2.4869 12
      vertex 30.3142 2.4869 20
    endloop
  endfacet
  facet normal -0.98229 0.187369 0
    outer loop
      vertex 30.0789 1.25333 12
      vertex 30.3142 2.4869 20
      vertex 30.3142 2.4869 12
    endloop
  endfacet
  facet normal -0.98229 0.187369 0
    outer loop
      vertex 30.3142 2.4869 20
      vertex 30.0789 1.25333 12
      vertex 30.0789 1.25333 20
    endloop
  endfacet
  facet normal -0.368128 0.929775 0
    outer loop
      vertex 36.9098 9.51056 12
      vertex 35.7422 9.04827 20
      vertex 36.9098 9.51056 20
    endloop
  endfacet
  facet normal -0.368128 0.929775 0
    outer loop
      vertex 35.7422 9.04827 20
      vertex 36.9098 9.51056 12
      vertex 35.7422 9.04827 12
    endloop
  endfacet
  facet normal 0.248684 -0.968585 0
    outer loop
      vertex 41.8738 -9.82287 12
      vertex 43.0902 -9.51056 20
      vertex 41.8738 -9.82287 20
    endloop
  endfacet
  facet normal 0.248684 -0.968585 0
    outer loop
      vertex 43.0902 -9.51056 20
      vertex 41.8738 -9.82287 12
      vertex 43.0902 -9.51056 12
    endloop
  endfacet
  facet normal 0.951072 0.30897 0
    outer loop
      vertex 49.6858 2.4869 20
      vertex 49.2978 3.68124 12
      vertex 49.2978 3.68124 20
    endloop
  endfacet
  facet normal 0.951072 0.30897 0
    outer loop
      vertex 49.2978 3.68124 12
      vertex 49.6858 2.4869 20
      vertex 49.6858 2.4869 12
    endloop
  endfacet
  facet normal 0.98229 0.187369 0
    outer loop
      vertex 49.9211 1.25333 20
      vertex 49.6858 2.4869 12
      vertex 49.6858 2.4869 20
    endloop
  endfacet
  facet normal 0.98229 0.187369 0
    outer loop
      vertex 49.6858 2.4869 12
      vertex 49.9211 1.25333 20
      vertex 49.9211 1.25333 12
    endloop
  endfacet
  facet normal 0.904828 0.425778 0
    outer loop
      vertex 49.2978 3.68124 20
      vertex 48.7631 4.81754 12
      vertex 48.7631 4.81754 20
    endloop
  endfacet
  facet normal 0.904828 0.425778 0
    outer loop
      vertex 48.7631 4.81754 12
      vertex 49.2978 3.68124 20
      vertex 49.2978 3.68124 12
    endloop
  endfacet
  facet normal 0.684525 0.728989 -0
    outer loop
      vertex 47.2897 6.84547 12
      vertex 46.3742 7.70513 20
      vertex 47.2897 6.84547 20
    endloop
  endfacet
  facet normal 0.684525 0.728989 0
    outer loop
      vertex 46.3742 7.70513 20
      vertex 47.2897 6.84547 12
      vertex 46.3742 7.70513 12
    endloop
  endfacet
  facet normal 0 1 -0
    outer loop
      vertex 40.6279 9.98027 12
      vertex 39.3721 9.98027 20
      vertex 40.6279 9.98027 20
    endloop
  endfacet
  facet normal 0 1 0
    outer loop
      vertex 39.3721 9.98027 20
      vertex 40.6279 9.98027 12
      vertex 39.3721 9.98027 12
    endloop
  endfacet
  facet normal 0.368128 0.929775 -0
    outer loop
      vertex 44.2578 9.04827 12
      vertex 43.0902 9.51056 20
      vertex 44.2578 9.04827 20
    endloop
  endfacet
  facet normal 0.368128 0.929775 0
    outer loop
      vertex 43.0902 9.51056 20
      vertex 44.2578 9.04827 12
      vertex 43.0902 9.51056 12
    endloop
  endfacet
  facet normal 0 0 -1
    outer loop
      vertex 109.29 -3.13333 0
      vertex 109.29 3.13333 0
      vertex 110 0 0
    endloop
  endfacet
  facet normal 0 0 -1
    outer loop
      vertex 107.172 -6.21725 0
      vertex 109.29 3.13333 0
      vertex 109.29 -3.13333 0
    endloop
  endfacet
  facet normal 0 0 -1
    outer loop
      vertex 107.172 -6.21725 0
      vertex 107.172 6.21725 0
      vertex 109.29 3.13333 0
    endloop
  endfacet
  facet normal 0 0 -1
    outer loop
      vertex 103.68 -9.20311 0
      vertex 107.172 6.21725 0
      vertex 107.172 -6.21725 0
    endloop
  endfacet
  facet normal 0 0 -1
    outer loop
      vertex 103.68 -9.20311 0
      vertex 103.68 9.20311 0
      vertex 107.172 6.21725 0
    endloop
  endfacet
  facet normal 0 0 -1
    outer loop
      vertex 98.8676 -12.0438 0
      vertex 103.68 9.20311 0
      vertex 103.68 -9.20311 0
    endloop
  endfacet
  facet normal 0 0 -1
    outer loop
      vertex 98.8676 -12.0438 0
      vertex 98.8676 12.0438 0
      vertex 103.68 9.20311 0
    endloop
  endfacet
  facet normal 0 0 -1
    outer loop
      vertex 92.8115 -14.6946 0
      vertex 98.8676 12.0438 0
      vertex 98.8676 -12.0438 0
    endloop
  endfacet
  facet normal 0 0 -1
    outer loop
      vertex 92.8115 -14.6946 0
      vertex 92.8115 14.6946 0
      vertex 98.8676 12.0438 0
    endloop
  endfacet
  facet normal 0 0 -1
    outer loop
      vertex 85.6072 -17.1137 0
      vertex 92.8115 14.6946 0
      vertex 92.8115 -14.6946 0
    endloop
  endfacet
  facet normal 0 0 -1
    outer loop
      vertex 85.6072 -17.1137 0
      vertex 85.6072 17.1137 0
      vertex 92.8115 14.6946 0
    endloop
  endfacet
  facet normal 0 0 -1
    outer loop
      vertex 77.3682 -19.2628 0
      vertex 85.6072 17.1137 0
      vertex 85.6072 -17.1137 0
    endloop
  endfacet
  facet normal 0 0 -1
    outer loop
      vertex 77.3682 -19.2628 0
      vertex 77.3682 19.2628 0
      vertex 85.6072 17.1137 0
    endloop
  endfacet
  facet normal 0 0 -1
    outer loop
      vertex 68.2244 -21.1082 0
      vertex 77.3682 19.2628 0
      vertex 77.3682 -19.2628 0
    endloop
  endfacet
  facet normal 0 0 -1
    outer loop
      vertex 68.2244 -21.1082 0
      vertex 68.2244 21.1082 0
      vertex 77.3682 19.2628 0
    endloop
  endfacet
  facet normal 0 0 -1
    outer loop
      vertex 58.3201 -22.6207 0
      vertex 68.2244 21.1082 0
      vertex 68.2244 -21.1082 0
    endloop
  endfacet
  facet normal 0 0 -1
    outer loop
      vertex 58.3201 -22.6207 0
      vertex 58.3201 22.6207 0
      vertex 68.2244 21.1082 0
    endloop
  endfacet
  facet normal 0 0 -1
    outer loop
      vertex 47.8115 -23.7764 0
      vertex 58.3201 22.6207 0
      vertex 58.3201 -22.6207 0
    endloop
  endfacet
  facet normal 0 0 -1
    outer loop
      vertex 47.8115 -23.7764 0
      vertex 47.8115 23.7764 0
      vertex 58.3201 22.6207 0
    endloop
  endfacet
  facet normal 0 0 -1
    outer loop
      vertex 36.8643 -24.5572 0
      vertex 47.8115 23.7764 0
      vertex 47.8115 -23.7764 0
    endloop
  endfacet
  facet normal 0 0 -1
    outer loop
      vertex 36.8643 -24.5572 0
      vertex 36.8643 24.5572 0
      vertex 47.8115 23.7764 0
    endloop
  endfacet
  facet normal 0 0 -1
    outer loop
      vertex 25.6511 -24.9507 0
      vertex 36.8643 24.5572 0
      vertex 36.8643 -24.5572 0
    endloop
  endfacet
  facet normal 0 0 -1
    outer loop
      vertex 25.6511 -24.9507 0
      vertex 25.6511 24.9507 0
      vertex 36.8643 24.5572 0
    endloop
  endfacet
  facet normal 0 0 -1
    outer loop
      vertex 14.3489 -24.9507 0
      vertex 25.6511 24.9507 0
      vertex 25.6511 -24.9507 0
    endloop
  endfacet
  facet normal 0 0 -1
    outer loop
      vertex 14.3489 -24.9507 0
      vertex 14.3489 24.9507 0
      vertex 25.6511 24.9507 0
    endloop
  endfacet
  facet normal 0 0 -1
    outer loop
      vertex 3.13568 -24.5572 0
      vertex 14.3489 24.9507 0
      vertex 14.3489 -24.9507 0
    endloop
  endfacet
  facet normal 0 0 -1
    outer loop
      vertex 3.13568 -24.5572 0
      vertex 3.13568 24.5572 0
      vertex 14.3489 24.9507 0
    endloop
  endfacet
  facet normal 0 0 -1
    outer loop
      vertex -7.81153 -23.7764 0
      vertex 3.13568 24.5572 0
      vertex 3.13568 -24.5572 0
    endloop
  endfacet
  facet normal 0 0 -1
    outer loop
      vertex -7.81153 -23.7764 0
      vertex -7.81153 23.7764 0
      vertex 3.13568 24.5572 0
    endloop
  endfacet
  facet normal 0 0 -1
    outer loop
      vertex -18.3201 -22.6207 0
      vertex -7.81153 23.7764 0
      vertex -7.81153 -23.7764 0
    endloop
  endfacet
  facet normal 0 0 -1
    outer loop
      vertex -18.3201 -22.6207 0
      vertex -18.3201 22.6207 0
      vertex -7.81153 23.7764 0
    endloop
  endfacet
  facet normal 0 0 -1
    outer loop
      vertex -20 -22.3641 0
      vertex -18.3201 22.6207 0
      vertex -18.3201 -22.6207 0
    endloop
  endfacet
  facet normal 0 0 -1
    outer loop
      vertex -18.3201 22.6207 0
      vertex -20 -22.3641 0
      vertex -20 22.3641 0
    endloop
  endfacet
  facet normal -0.904828 0.425778 0
    outer loop
      vertex 30.7022 3.68124 12
      vertex 31.2369 4.81754 20
      vertex 31.2369 4.81754 12
    endloop
  endfacet
  facet normal -0.904828 0.425778 0
    outer loop
      vertex 31.2369 4.81754 20
      vertex 30.7022 3.68124 12
      vertex 30.7022 3.68124 20
    endloop
  endfacet
  facet normal -0.844325 0.535831 0
    outer loop
      vertex 31.2369 4.81754 12
      vertex 31.9098 5.87785 20
      vertex 31.9098 5.87785 12
    endloop
  endfacet
  facet normal -0.844325 0.535831 0
    outer loop
      vertex 31.9098 5.87785 20
      vertex 31.2369 4.81754 12
      vertex 31.2369 4.81754 20
    endloop
  endfacet
  facet normal -0.998024 0.0628279 0
    outer loop
      vertex 30 0 12
      vertex 30.0789 1.25333 20
      vertex 30.0789 1.25333 12
    endloop
  endfacet
  facet normal -0.998024 0.0628279 0
    outer loop
      vertex 30.0789 1.25333 20
      vertex 30 0 12
      vertex 30 0 20
    endloop
  endfacet
  facet normal 0 0 1
    outer loop
      vertex 43.5 0 20
      vertex 50 0 20
      vertex 49.9211 1.25333 20
    endloop
  endfacet
  facet normal 0 0 1
    outer loop
      vertex 43.4724 0.438665 20
      vertex 49.9211 1.25333 20
      vertex 49.6858 2.4869 20
    endloop
  endfacet
  facet normal 0 0 1
    outer loop
      vertex 50 0 20
      vertex 43.5 0 20
      vertex 49.9211 -1.25333 20
    endloop
  endfacet
  facet normal 0 0 1
    outer loop
      vertex 43.39 0.870414 20
      vertex 49.6858 2.4869 20
      vertex 49.2978 3.68124 20
    endloop
  endfacet
  facet normal -0 0 1
    outer loop
      vertex 43.4724 -0.438665 20
      vertex 49.9211 -1.25333 20
      vertex 43.5 0 20
    endloop
  endfacet
  facet normal 0 0 1
    outer loop
      vertex 43.2542 1.28843 20
      vertex 49.2978 3.68124 20
      vertex 48.7631 4.81754 20
    endloop
  endfacet
  facet normal 0 0 1
    outer loop
      vertex 49.9211 -1.25333 20
      vertex 43.4724 -0.438665 20
      vertex 49.6858 -2.4869 20
    endloop
  endfacet
  facet normal 0 0 1
    outer loop
      vertex 43.0671 1.68614 20
      vertex 48.7631 4.81754 20
      vertex 48.0902 5.87785 20
    endloop
  endfacet
  facet normal -0 0 1
    outer loop
      vertex 43.39 -0.870414 20
      vertex 49.6858 -2.4869 20
      vertex 43.4724 -0.438665 20
    endloop
  endfacet
  facet normal 0 0 1
    outer loop
      vertex 42.8316 2.05725 20
      vertex 48.0902 5.87785 20
      vertex 47.2897 6.84547 20
    endloop
  endfacet
  facet normal 0 0 1
    outer loop
      vertex 49.6858 -2.4869 20
      vertex 43.39 -0.870414 20
      vertex 49.2978 -3.68124 20
    endloop
  endfacet
  facet normal 0 0 1
    outer loop
      vertex 42.5514 2.39591 20
      vertex 47.2897 6.84547 20
      vertex 46.3742 7.70513 20
    endloop
  endfacet
  facet normal -0 0 1
    outer loop
      vertex 43.2542 -1.28843 20
      vertex 49.2978 -3.68124 20
      vertex 43.39 -0.870414 20
    endloop
  endfacet
  facet normal 0 0 1
    outer loop
      vertex 42.231 2.6968 20
      vertex 46.3742 7.70513 20
      vertex 45.3583 8.44328 20
    endloop
  endfacet
  facet normal 0 0 1
    outer loop
      vertex 49.2978 -3.68124 20
      vertex 43.2542 -1.28843 20
      vertex 48.7631 -4.81754 20
    endloop
  endfacet
  facet normal 0 0 1
    outer loop
      vertex 41.8754 2.95515 20
      vertex 45.3583 8.44328 20
      vertex 44.2578 9.04827 20
    endloop
  endfacet
  facet normal -0 0 1
    outer loop
      vertex 43.0671 -1.68614 20
      vertex 48.7631 -4.81754 20
      vertex 43.2542 -1.28843 20
    endloop
  endfacet
  facet normal 0 0 1
    outer loop
      vertex 48.7631 -4.81754 20
      vertex 43.0671 -1.68614 20
      vertex 48.0902 -5.87785 20
    endloop
  endfacet
  facet normal 0 0 1
    outer loop
      vertex 49.9211 1.25333 20
      vertex 43.4724 0.438665 20
      vertex 43.5 0 20
    endloop
  endfacet
  facet normal 0 0 1
    outer loop
      vertex 49.6858 2.4869 20
      vertex 43.39 0.870414 20
      vertex 43.4724 0.438665 20
    endloop
  endfacet
  facet normal 0 0 1
    outer loop
      vertex 49.2978 3.68124 20
      vertex 43.2542 1.28843 20
      vertex 43.39 0.870414 20
    endloop
  endfacet
  facet normal 0 0 1
    outer loop
      vertex 41.4902 3.16689 20
      vertex 44.2578 9.04827 20
      vertex 43.0902 9.51056 20
    endloop
  endfacet
  facet normal 0 0 1
    outer loop
      vertex 48.7631 4.81754 20
      vertex 43.0671 1.68614 20
      vertex 43.2542 1.28843 20
    endloop
  endfacet
  facet normal 0 0 1
    outer loop
      vertex 48.0902 5.87785 20
      vertex 42.8316 2.05725 20
      vertex 43.0671 1.68614 20
    endloop
  endfacet
  facet normal 0 0 1
    outer loop
      vertex 47.2897 6.84547 20
      vertex 42.5514 2.39591 20
      vertex 42.8316 2.05725 20
    endloop
  endfacet
  facet normal 0 0 1
    outer loop
      vertex 46.3742 7.70513 20
      vertex 42.231 2.6968 20
      vertex 42.5514 2.39591 20
    endloop
  endfacet
  facet normal 0 0 1
    outer loop
      vertex 45.3583 8.44328 20
      vertex 41.8754 2.95515 20
      vertex 42.231 2.6968 20
    endloop
  endfacet
  facet normal 0 0 1
    outer loop
      vertex 41.0816 3.3287 20
      vertex 43.0902 9.51056 20
      vertex 41.8738 9.82287 20
    endloop
  endfacet
  facet normal 0 0 1
    outer loop
      vertex 44.2578 9.04827 20
      vertex 41.4902 3.16689 20
      vertex 41.8754 2.95515 20
    endloop
  endfacet
  facet normal 0 0 1
    outer loop
      vertex 43.0902 9.51056 20
      vertex 41.0816 3.3287 20
      vertex 41.4902 3.16689 20
    endloop
  endfacet
  facet normal 0 0 1
    outer loop
      vertex 41.8738 9.82287 20
      vertex 40.6558 3.438 20
      vertex 41.0816 3.3287 20
    endloop
  endfacet
  facet normal 0 0 1
    outer loop
      vertex 40.6279 9.98027 20
      vertex 40.6558 3.438 20
      vertex 41.8738 9.82287 20
    endloop
  endfacet
  facet normal 0 0 1
    outer loop
      vertex 40.6279 9.98027 20
      vertex 40.2198 3.49309 20
      vertex 40.6558 3.438 20
    endloop
  endfacet
  facet normal 0 0 1
    outer loop
      vertex 40.6279 9.98027 20
      vertex 39.7802 3.49309 20
      vertex 40.2198 3.49309 20
    endloop
  endfacet
  facet normal -0 0 1
    outer loop
      vertex 39.3721 9.98027 20
      vertex 39.7802 3.49309 20
      vertex 40.6279 9.98027 20
    endloop
  endfacet
  facet normal 0 0 1
    outer loop
      vertex 39.3721 9.98027 20
      vertex 39.3442 3.438 20
      vertex 39.7802 3.49309 20
    endloop
  endfacet
  facet normal -0 0 1
    outer loop
      vertex 38.1262 9.82287 20
      vertex 39.3442 3.438 20
      vertex 39.3721 9.98027 20
    endloop
  endfacet
  facet normal 0 0 1
    outer loop
      vertex 39.3442 3.438 20
      vertex 38.1262 9.82287 20
      vertex 38.9184 3.3287 20
    endloop
  endfacet
  facet normal -0 0 1
    outer loop
      vertex 36.9098 9.51056 20
      vertex 38.9184 3.3287 20
      vertex 38.1262 9.82287 20
    endloop
  endfacet
  facet normal 0 0 1
    outer loop
      vertex 38.9184 3.3287 20
      vertex 36.9098 9.51056 20
      vertex 38.5098 3.16689 20
    endloop
  endfacet
  facet normal -0 0 1
    outer loop
      vertex 35.7422 9.04827 20
      vertex 38.5098 3.16689 20
      vertex 36.9098 9.51056 20
    endloop
  endfacet
  facet normal 0 0 1
    outer loop
      vertex 38.5098 3.16689 20
      vertex 35.7422 9.04827 20
      vertex 38.1246 2.95515 20
    endloop
  endfacet
  facet normal -0 0 1
    outer loop
      vertex 34.6417 8.44328 20
      vertex 38.1246 2.95515 20
      vertex 35.7422 9.04827 20
    endloop
  endfacet
  facet normal 0 0 1
    outer loop
      vertex 38.1246 2.95515 20
      vertex 34.6417 8.44328 20
      vertex 37.769 2.6968 20
    endloop
  endfacet
  facet normal -0 0 1
    outer loop
      vertex 33.6258 7.70513 20
      vertex 37.769 2.6968 20
      vertex 34.6417 8.44328 20
    endloop
  endfacet
  facet normal 0 0 1
    outer loop
      vertex 37.769 2.6968 20
      vertex 33.6258 7.70513 20
      vertex 37.4486 2.39591 20
    endloop
  endfacet
  facet normal -0 0 1
    outer loop
      vertex 32.7103 6.84547 20
      vertex 37.4486 2.39591 20
      vertex 33.6258 7.70513 20
    endloop
  endfacet
  facet normal 0 0 1
    outer loop
      vertex 37.4486 2.39591 20
      vertex 32.7103 6.84547 20
      vertex 37.1684 2.05725 20
    endloop
  endfacet
  facet normal -0 0 1
    outer loop
      vertex 31.9098 5.87785 20
      vertex 37.1684 2.05725 20
      vertex 32.7103 6.84547 20
    endloop
  endfacet
  facet normal 0 0 1
    outer loop
      vertex 37.1684 2.05725 20
      vertex 31.9098 5.87785 20
      vertex 36.9329 1.68614 20
    endloop
  endfacet
  facet normal -0 0 1
    outer loop
      vertex 42.8316 -2.05725 20
      vertex 48.0902 -5.87785 20
      vertex 43.0671 -1.68614 20
    endloop
  endfacet
  facet normal 0 0 1
    outer loop
      vertex 48.0902 -5.87785 20
      vertex 42.8316 -2.05725 20
      vertex 47.2897 -6.84547 20
    endloop
  endfacet
  facet normal -0 0 1
    outer loop
      vertex 42.5514 -2.39591 20
      vertex 47.2897 -6.84547 20
      vertex 42.8316 -2.05725 20
    endloop
  endfacet
  facet normal 0 0 1
    outer loop
      vertex 47.2897 -6.84547 20
      vertex 42.5514 -2.39591 20
      vertex 46.3742 -7.70513 20
    endloop
  endfacet
  facet normal -0 0 1
    outer loop
      vertex 42.231 -2.6968 20
      vertex 46.3742 -7.70513 20
      vertex 42.5514 -2.39591 20
    endloop
  endfacet
  facet normal 0 0 1
    outer loop
      vertex 46.3742 -7.70513 20
      vertex 42.231 -2.6968 20
      vertex 45.3583 -8.44328 20
    endloop
  endfacet
  facet normal -0 0 1
    outer loop
      vertex 41.8754 -2.95515 20
      vertex 45.3583 -8.44328 20
      vertex 42.231 -2.6968 20
    endloop
  endfacet
  facet normal 0 0 1
    outer loop
      vertex 45.3583 -8.44328 20
      vertex 41.8754 -2.95515 20
      vertex 44.2578 -9.04827 20
    endloop
  endfacet
  facet normal -0 0 1
    outer loop
      vertex 41.4902 -3.16689 20
      vertex 44.2578 -9.04827 20
      vertex 41.8754 -2.95515 20
    endloop
  endfacet
  facet normal 0 0 1
    outer loop
      vertex 44.2578 -9.04827 20
      vertex 41.4902 -3.16689 20
      vertex 43.0902 -9.51056 20
    endloop
  endfacet
  facet normal -0 0 1
    outer loop
      vertex 41.0816 -3.3287 20
      vertex 43.0902 -9.51056 20
      vertex 41.4902 -3.16689 20
    endloop
  endfacet
  facet normal 0 0 1
    outer loop
      vertex 43.0902 -9.51056 20
      vertex 41.0816 -3.3287 20
      vertex 41.8738 -9.82287 20
    endloop
  endfacet
  facet normal -0 0 1
    outer loop
      vertex 40.6558 -3.438 20
      vertex 41.8738 -9.82287 20
      vertex 41.0816 -3.3287 20
    endloop
  endfacet
  facet normal 0 0 1
    outer loop
      vertex 40.6558 -3.438 20
      vertex 40.6279 -9.98027 20
      vertex 41.8738 -9.82287 20
    endloop
  endfacet
  facet normal -0 0 1
    outer loop
      vertex 40.2198 -3.49309 20
      vertex 40.6279 -9.98027 20
      vertex 40.6558 -3.438 20
    endloop
  endfacet
  facet normal -0 0 1
    outer loop
      vertex 39.7802 -3.49309 20
      vertex 40.6279 -9.98027 20
      vertex 40.2198 -3.49309 20
    endloop
  endfacet
  facet normal 0 0 1
    outer loop
      vertex 39.7802 -3.49309 20
      vertex 39.3721 -9.98027 20
      vertex 40.6279 -9.98027 20
    endloop
  endfacet
  facet normal 0 0 1
    outer loop
      vertex 39.3442 -3.438 20
      vertex 39.3721 -9.98027 20
      vertex 39.7802 -3.49309 20
    endloop
  endfacet
  facet normal 0 0 1
    outer loop
      vertex 38.1262 -9.82287 20
      vertex 39.3442 -3.438 20
      vertex 38.9184 -3.3287 20
    endloop
  endfacet
  facet normal 0 0 1
    outer loop
      vertex 36.9098 -9.51056 20
      vertex 38.9184 -3.3287 20
      vertex 38.5098 -3.16689 20
    endloop
  endfacet
  facet normal 0 0 1
    outer loop
      vertex 39.3442 -3.438 20
      vertex 38.1262 -9.82287 20
      vertex 39.3721 -9.98027 20
    endloop
  endfacet
  facet normal 0 0 1
    outer loop
      vertex 35.7422 -9.04827 20
      vertex 38.5098 -3.16689 20
      vertex 38.1246 -2.95515 20
    endloop
  endfacet
  facet normal 0 0 1
    outer loop
      vertex 34.6417 -8.44328 20
      vertex 38.1246 -2.95515 20
      vertex 37.769 -2.6968 20
    endloop
  endfacet
  facet normal 0 0 1
    outer loop
      vertex 33.6258 -7.70513 20
      vertex 37.769 -2.6968 20
      vertex 37.4486 -2.39591 20
    endloop
  endfacet
  facet normal 0 0 1
    outer loop
      vertex 32.7103 -6.84547 20
      vertex 37.4486 -2.39591 20
      vertex 37.1684 -2.05725 20
    endloop
  endfacet
  facet normal 0 0 1
    outer loop
      vertex 31.9098 -5.87785 20
      vertex 37.1684 -2.05725 20
      vertex 36.9329 -1.68614 20
    endloop
  endfacet
  facet normal 0 0 1
    outer loop
      vertex 38.9184 -3.3287 20
      vertex 36.9098 -9.51056 20
      vertex 38.1262 -9.82287 20
    endloop
  endfacet
  facet normal 0 0 1
    outer loop
      vertex 31.2369 -4.81754 20
      vertex 36.9329 -1.68614 20
      vertex 36.7458 -1.28843 20
    endloop
  endfacet
  facet normal 0 0 1
    outer loop
      vertex 30.7022 -3.68124 20
      vertex 36.7458 -1.28843 20
      vertex 36.61 -0.870414 20
    endloop
  endfacet
  facet normal 0 0 1
    outer loop
      vertex 30.3142 -2.4869 20
      vertex 36.61 -0.870414 20
      vertex 36.5276 -0.438665 20
    endloop
  endfacet
  facet normal 0 0 1
    outer loop
      vertex 30.0789 -1.25333 20
      vertex 36.5276 -0.438665 20
      vertex 36.5 0 20
    endloop
  endfacet
  facet normal -0 0 1
    outer loop
      vertex 31.2369 4.81754 20
      vertex 36.9329 1.68614 20
      vertex 31.9098 5.87785 20
    endloop
  endfacet
  facet normal 0 0 1
    outer loop
      vertex 38.5098 -3.16689 20
      vertex 35.7422 -9.04827 20
      vertex 36.9098 -9.51056 20
    endloop
  endfacet
  facet normal 0 0 1
    outer loop
      vertex 36.9329 1.68614 20
      vertex 31.2369 4.81754 20
      vertex 36.7458 1.28843 20
    endloop
  endfacet
  facet normal 0 0 1
    outer loop
      vertex 38.1246 -2.95515 20
      vertex 34.6417 -8.44328 20
      vertex 35.7422 -9.04827 20
    endloop
  endfacet
  facet normal -0 0 1
    outer loop
      vertex 30.7022 3.68124 20
      vertex 36.7458 1.28843 20
      vertex 31.2369 4.81754 20
    endloop
  endfacet
  facet normal 0 0 1
    outer loop
      vertex 37.769 -2.6968 20
      vertex 33.6258 -7.70513 20
      vertex 34.6417 -8.44328 20
    endloop
  endfacet
  facet normal 0 0 1
    outer loop
      vertex 36.7458 1.28843 20
      vertex 30.7022 3.68124 20
      vertex 36.61 0.870414 20
    endloop
  endfacet
  facet normal 0 0 1
    outer loop
      vertex 37.4486 -2.39591 20
      vertex 32.7103 -6.84547 20
      vertex 33.6258 -7.70513 20
    endloop
  endfacet
  facet normal -0 0 1
    outer loop
      vertex 30.3142 2.4869 20
      vertex 36.61 0.870414 20
      vertex 30.7022 3.68124 20
    endloop
  endfacet
  facet normal 0 0 1
    outer loop
      vertex 37.1684 -2.05725 20
      vertex 31.9098 -5.87785 20
      vertex 32.7103 -6.84547 20
    endloop
  endfacet
  facet normal 0 0 1
    outer loop
      vertex 36.61 0.870414 20
      vertex 30.3142 2.4869 20
      vertex 36.5276 0.438665 20
    endloop
  endfacet
  facet normal 0 0 1
    outer loop
      vertex 36.9329 -1.68614 20
      vertex 31.2369 -4.81754 20
      vertex 31.9098 -5.87785 20
    endloop
  endfacet
  facet normal -0 0 1
    outer loop
      vertex 30.0789 1.25333 20
      vertex 36.5276 0.438665 20
      vertex 30.3142 2.4869 20
    endloop
  endfacet
  facet normal 0 0 1
    outer loop
      vertex 36.7458 -1.28843 20
      vertex 30.7022 -3.68124 20
      vertex 31.2369 -4.81754 20
    endloop
  endfacet
  facet normal 0 0 1
    outer loop
      vertex 36.5276 0.438665 20
      vertex 30.0789 1.25333 20
      vertex 36.5 0 20
    endloop
  endfacet
  facet normal 0 0 1
    outer loop
      vertex 36.61 -0.870414 20
      vertex 30.3142 -2.4869 20
      vertex 30.7022 -3.68124 20
    endloop
  endfacet
  facet normal 0 0 1
    outer loop
      vertex 30 0 20
      vertex 36.5 0 20
      vertex 30.0789 1.25333 20
    endloop
  endfacet
  facet normal 0 0 1
    outer loop
      vertex 36.5276 -0.438665 20
      vertex 30.0789 -1.25333 20
      vertex 30.3142 -2.4869 20
    endloop
  endfacet
  facet normal 0 0 1
    outer loop
      vertex 36.5 0 20
      vertex 30 0 20
      vertex 30.0789 -1.25333 20
    endloop
  endfacet
  facet normal -0.587814 0.808996 0
    outer loop
      vertex 34.6417 8.44328 12
      vertex 33.6258 7.70513 20
      vertex 34.6417 8.44328 20
    endloop
  endfacet
  facet normal -0.587814 0.808996 0
    outer loop
      vertex 33.6258 7.70513 20
      vertex 34.6417 8.44328 12
      vertex 33.6258 7.70513 12
    endloop
  endfacet
  facet normal -0.684525 0.728989 0
    outer loop
      vertex 33.6258 7.70513 12
      vertex 32.7103 6.84547 20
      vertex 33.6258 7.70513 20
    endloop
  endfacet
  facet normal -0.684525 0.728989 0
    outer loop
      vertex 32.7103 6.84547 20
      vertex 33.6258 7.70513 12
      vertex 32.7103 6.84547 12
    endloop
  endfacet
  facet normal -0.248684 0.968585 0
    outer loop
      vertex 38.1262 9.82287 12
      vertex 36.9098 9.51056 20
      vertex 38.1262 9.82287 20
    endloop
  endfacet
  facet normal -0.248684 0.968585 0
    outer loop
      vertex 36.9098 9.51056 20
      vertex 38.1262 9.82287 12
      vertex 36.9098 9.51056 12
    endloop
  endfacet
  facet normal 0.951072 -0.30897 0
    outer loop
      vertex 49.2978 -3.68124 20
      vertex 49.6858 -2.4869 12
      vertex 49.6858 -2.4869 20
    endloop
  endfacet
  facet normal 0.951072 -0.30897 0
    outer loop
      vertex 49.6858 -2.4869 12
      vertex 49.2978 -3.68124 20
      vertex 49.2978 -3.68124 12
    endloop
  endfacet
  facet normal 0.98229 -0.187369 0
    outer loop
      vertex 49.6858 -2.4869 20
      vertex 49.9211 -1.25333 12
      vertex 49.9211 -1.25333 20
    endloop
  endfacet
  facet normal 0.98229 -0.187369 0
    outer loop
      vertex 49.9211 -1.25333 12
      vertex 49.6858 -2.4869 20
      vertex 49.6858 -2.4869 12
    endloop
  endfacet
  facet normal 0.587814 -0.808996 0
    outer loop
      vertex 45.3583 -8.44328 12
      vertex 46.3742 -7.70513 20
      vertex 45.3583 -8.44328 20
    endloop
  endfacet
  facet normal 0.587814 -0.808996 0
    outer loop
      vertex 46.3742 -7.70513 20
      vertex 45.3583 -8.44328 12
      vertex 46.3742 -7.70513 12
    endloop
  endfacet
  facet normal -0.998024 -0.0628279 0
    outer loop
      vertex 30.0789 -1.25333 12
      vertex 30 0 20
      vertex 30 0 12
    endloop
  endfacet
  facet normal -0.998024 -0.0628279 0
    outer loop
      vertex 30 0 20
      vertex 30.0789 -1.25333 12
      vertex 30.0789 -1.25333 20
    endloop
  endfacet
  facet normal 0.998024 -0.0628279 0
    outer loop
      vertex 49.9211 -1.25333 20
      vertex 50 0 12
      vertex 50 0 20
    endloop
  endfacet
  facet normal 0.998024 -0.0628279 0
    outer loop
      vertex 50 0 12
      vertex 49.9211 -1.25333 20
      vertex 49.9211 -1.25333 12
    endloop
  endfacet
  facet normal -0.770507 -0.637431 0
    outer loop
      vertex 32.7103 -6.84547 12
      vertex 31.9098 -5.87785 20
      vertex 31.9098 -5.87785 12
    endloop
  endfacet
  facet normal -0.770507 -0.637431 0
    outer loop
      vertex 31.9098 -5.87785 20
      vertex 32.7103 -6.84547 12
      vertex 32.7103 -6.84547 20
    endloop
  endfacet
  facet normal -0.904828 -0.425778 0
    outer loop
      vertex 31.2369 -4.81754 12
      vertex 30.7022 -3.68124 20
      vertex 30.7022 -3.68124 12
    endloop
  endfacet
  facet normal -0.904828 -0.425778 0
    outer loop
      vertex 30.7022 -3.68124 20
      vertex 31.2369 -4.81754 12
      vertex 31.2369 -4.81754 20
    endloop
  endfacet
  facet normal 0.770507 -0.637431 0
    outer loop
      vertex 47.2897 -6.84547 20
      vertex 48.0902 -5.87785 12
      vertex 48.0902 -5.87785 20
    endloop
  endfacet
  facet normal 0.770507 -0.637431 0
    outer loop
      vertex 48.0902 -5.87785 12
      vertex 47.2897 -6.84547 20
      vertex 47.2897 -6.84547 12
    endloop
  endfacet
  facet normal 0.481745 -0.876312 0
    outer loop
      vertex 44.2578 -9.04827 12
      vertex 45.3583 -8.44328 20
      vertex 44.2578 -9.04827 20
    endloop
  endfacet
  facet normal 0.481745 -0.876312 0
    outer loop
      vertex 45.3583 -8.44328 20
      vertex 44.2578 -9.04827 12
      vertex 45.3583 -8.44328 12
    endloop
  endfacet
  facet normal 0.368128 -0.929775 0
    outer loop
      vertex 43.0902 -9.51056 12
      vertex 44.2578 -9.04827 20
      vertex 43.0902 -9.51056 20
    endloop
  endfacet
  facet normal 0.368128 -0.929775 0
    outer loop
      vertex 44.2578 -9.04827 20
      vertex 43.0902 -9.51056 12
      vertex 44.2578 -9.04827 12
    endloop
  endfacet
  facet normal 0.904828 -0.425778 0
    outer loop
      vertex 48.7631 -4.81754 20
      vertex 49.2978 -3.68124 12
      vertex 49.2978 -3.68124 20
    endloop
  endfacet
  facet normal 0.904828 -0.425778 0
    outer loop
      vertex 49.2978 -3.68124 12
      vertex 48.7631 -4.81754 20
      vertex 48.7631 -4.81754 12
    endloop
  endfacet
  facet normal 0.844325 -0.535831 0
    outer loop
      vertex 48.0902 -5.87785 20
      vertex 48.7631 -4.81754 12
      vertex 48.7631 -4.81754 20
    endloop
  endfacet
  facet normal 0.844325 -0.535831 0
    outer loop
      vertex 48.7631 -4.81754 12
      vertex 48.0902 -5.87785 20
      vertex 48.0902 -5.87785 12
    endloop
  endfacet
  facet normal -0.248684 -0.968585 0
    outer loop
      vertex 36.9098 -9.51056 12
      vertex 38.1262 -9.82287 20
      vertex 36.9098 -9.51056 20
    endloop
  endfacet
  facet normal -0.248684 -0.968585 -0
    outer loop
      vertex 38.1262 -9.82287 20
      vertex 36.9098 -9.51056 12
      vertex 38.1262 -9.82287 12
    endloop
  endfacet
  facet normal -0.125338 -0.992114 0
    outer loop
      vertex 38.1262 -9.82287 12
      vertex 39.3721 -9.98027 20
      vertex 38.1262 -9.82287 20
    endloop
  endfacet
  facet normal -0.125338 -0.992114 -0
    outer loop
      vertex 39.3721 -9.98027 20
      vertex 38.1262 -9.82287 12
      vertex 39.3721 -9.98027 12
    endloop
  endfacet
  facet normal -0.587814 -0.808996 0
    outer loop
      vertex 33.6258 -7.70513 12
      vertex 34.6417 -8.44328 20
      vertex 33.6258 -7.70513 20
    endloop
  endfacet
  facet normal -0.587814 -0.808996 -0
    outer loop
      vertex 34.6417 -8.44328 20
      vertex 33.6258 -7.70513 12
      vertex 34.6417 -8.44328 12
    endloop
  endfacet
  facet normal -0.684525 -0.728989 0
    outer loop
      vertex 32.7103 -6.84547 12
      vertex 33.6258 -7.70513 20
      vertex 32.7103 -6.84547 20
    endloop
  endfacet
  facet normal -0.684525 -0.728989 -0
    outer loop
      vertex 33.6258 -7.70513 20
      vertex 32.7103 -6.84547 12
      vertex 33.6258 -7.70513 12
    endloop
  endfacet
  facet normal -0.844325 -0.535831 0
    outer loop
      vertex 31.9098 -5.87785 12
      vertex 31.2369 -4.81754 20
      vertex 31.2369 -4.81754 12
    endloop
  endfacet
  facet normal -0.844325 -0.535831 0
    outer loop
      vertex 31.2369 -4.81754 20
      vertex 31.9098 -5.87785 12
      vertex 31.9098 -5.87785 20
    endloop
  endfacet
  facet normal -0.951072 -0.30897 0
    outer loop
      vertex 30.7022 -3.68124 12
      vertex 30.3142 -2.4869 20
      vertex 30.3142 -2.4869 12
    endloop
  endfacet
  facet normal -0.951072 -0.30897 0
    outer loop
      vertex 30.3142 -2.4869 20
      vertex 30.7022 -3.68124 12
      vertex 30.7022 -3.68124 20
    endloop
  endfacet
  facet normal -0.98229 -0.187369 0
    outer loop
      vertex 30.3142 -2.4869 12
      vertex 30.0789 -1.25333 20
      vertex 30.0789 -1.25333 12
    endloop
  endfacet
  facet normal -0.98229 -0.187369 0
    outer loop
      vertex 30.0789 -1.25333 20
      vertex 30.3142 -2.4869 12
      vertex 30.3142 -2.4869 20
    endloop
  endfacet
  facet normal 0.684525 -0.728989 0
    outer loop
      vertex 46.3742 -7.70513 12
      vertex 47.2897 -6.84547 20
      vertex 46.3742 -7.70513 20
    endloop
  endfacet
  facet normal 0.684525 -0.728989 0
    outer loop
      vertex 47.2897 -6.84547 20
      vertex 46.3742 -7.70513 12
      vertex 47.2897 -6.84547 12
    endloop
  endfacet
  facet normal -0.368128 -0.929775 0
    outer loop
      vertex 35.7422 -9.04827 12
      vertex 36.9098 -9.51056 20
      vertex 35.7422 -9.04827 20
    endloop
  endfacet
  facet normal -0.368128 -0.929775 -0
    outer loop
      vertex 36.9098 -9.51056 20
      vertex 35.7422 -9.04827 12
      vertex 36.9098 -9.51056 12
    endloop
  endfacet
  facet normal -0.481745 -0.876312 0
    outer loop
      vertex 34.6417 -8.44328 12
      vertex 35.7422 -9.04827 20
      vertex 34.6417 -8.44328 20
    endloop
  endfacet
  facet normal -0.481745 -0.876312 -0
    outer loop
      vertex 35.7422 -9.04827 20
      vertex 34.6417 -8.44328 12
      vertex 35.7422 -9.04827 12
    endloop
  endfacet
  facet normal 0 -1 0
    outer loop
      vertex 39.3721 -9.98027 12
      vertex 40.6279 -9.98027 20
      vertex 39.3721 -9.98027 20
    endloop
  endfacet
  facet normal 0 -1 -0
    outer loop
      vertex 40.6279 -9.98027 20
      vertex 39.3721 -9.98027 12
      vertex 40.6279 -9.98027 12
    endloop
  endfacet
  facet normal 0.400978 0.916088 -0
    outer loop
      vertex 98.8676 12.0438 0
      vertex 92.8115 14.6946 5
      vertex 98.8676 12.0438 5
    endloop
  endfacet
  facet normal 0.400978 0.916088 0
    outer loop
      vertex 92.8115 14.6946 5
      vertex 98.8676 12.0438 0
      vertex 92.8115 14.6946 0
    endloop
  endfacet
  facet normal 0.252399 0.967623 -0
    outer loop
      vertex 85.6072 17.1137 0
      vertex 77.3682 19.2628 5
      vertex 85.6072 17.1137 5
    endloop
  endfacet
  facet normal 0.252399 0.967623 0
    outer loop
      vertex 77.3682 19.2628 5
      vertex 85.6072 17.1137 0
      vertex 77.3682 19.2628 0
    endloop
  endfacet
  facet normal 0.508331 0.861162 -0
    outer loop
      vertex 103.68 9.20311 0
      vertex 98.8676 12.0438 5
      vertex 103.68 9.20311 5
    endloop
  endfacet
  facet normal 0.508331 0.861162 0
    outer loop
      vertex 98.8676 12.0438 5
      vertex 103.68 9.20311 0
      vertex 98.8676 12.0438 0
    endloop
  endfacet
  facet normal 0.114419 0.193836 0.974339
    outer loop
      vertex 98.8676 12.0438 5
      vertex 45.3583 8.44328 12
      vertex 103.68 9.20311 5
    endloop
  endfacet
  facet normal 0.975275 -0.220993 0
    outer loop
      vertex 109.29 -3.13333 5
      vertex 110 0 0
      vertex 110 0 5
    endloop
  endfacet
  facet normal 0.975275 -0.220993 0
    outer loop
      vertex 110 0 0
      vertex 109.29 -3.13333 5
      vertex 109.29 -3.13333 0
    endloop
  endfacet
  facet normal 0.318319 -0.947984 0
    outer loop
      vertex 85.6072 -17.1137 0
      vertex 92.8115 -14.6946 5
      vertex 85.6072 -17.1137 5
    endloop
  endfacet
  facet normal 0.318319 -0.947984 0
    outer loop
      vertex 92.8115 -14.6946 5
      vertex 85.6072 -17.1137 0
      vertex 92.8115 -14.6946 0
    endloop
  endfacet
  facet normal 0.0711434 0.997466 -0
    outer loop
      vertex 47.8115 23.7764 0
      vertex 36.8643 24.5572 5
      vertex 47.8115 23.7764 5
    endloop
  endfacet
  facet normal 0.0711434 0.997466 0
    outer loop
      vertex 36.8643 24.5572 5
      vertex 47.8115 23.7764 0
      vertex 36.8643 24.5572 0
    endloop
  endfacet
  facet normal -1 0 0
    outer loop
      vertex -20 -22.3641 0
      vertex -20 22.3641 5
      vertex -20 22.3641 0
    endloop
  endfacet
  facet normal -1 -0 0
    outer loop
      vertex -20 22.3641 5
      vertex -20 -22.3641 0
      vertex -20 -22.3641 5
    endloop
  endfacet
  facet normal 0.116317 0.026357 0.992862
    outer loop
      vertex 109.29 3.13333 5
      vertex 49.6858 2.4869 12
      vertex 110 0 5
    endloop
  endfacet
  facet normal 0.116605 0.136371 0.983772
    outer loop
      vertex 103.68 9.20311 5
      vertex 46.3742 7.70513 12
      vertex 107.172 6.21725 5
    endloop
  endfacet
  facet normal 0.0537135 0.425169 0.903519
    outer loop
      vertex 58.3201 22.6207 5
      vertex 40.6279 9.98027 12
      vertex 41.8738 9.82287 12
    endloop
  endfacet
  facet normal 0.197831 0.980236 -0
    outer loop
      vertex 77.3682 19.2628 0
      vertex 68.2244 21.1082 5
      vertex 77.3682 19.2628 5
    endloop
  endfacet
  facet normal 0.197831 0.980236 0
    outer loop
      vertex 68.2244 21.1082 5
      vertex 77.3682 19.2628 0
      vertex 68.2244 21.1082 0
    endloop
  endfacet
  facet normal -0.0350709 0.999385 0
    outer loop
      vertex 14.3489 24.9507 0
      vertex 3.13568 24.5572 5
      vertex 14.3489 24.9507 5
    endloop
  endfacet
  facet normal -0.0350709 0.999385 0
    outer loop
      vertex 3.13568 24.5572 5
      vertex 14.3489 24.9507 0
      vertex 3.13568 24.5572 0
    endloop
  endfacet
  facet normal -0.150996 0.988534 0
    outer loop
      vertex -18.3201 22.6207 0
      vertex -20 22.3641 5
      vertex -18.3201 22.6207 5
    endloop
  endfacet
  facet normal -0.150996 0.988534 0
    outer loop
      vertex -20 22.3641 5
      vertex -18.3201 22.6207 0
      vertex -20 22.3641 0
    endloop
  endfacet
  facet normal -0.128269 0.0244669 0.991438
    outer loop
      vertex 30.3142 2.4869 12
      vertex -20 22.3641 5
      vertex 30.0789 1.25333 12
    endloop
  endfacet
  facet normal 0.101788 -0.303133 0.947496
    outer loop
      vertex 92.8115 -14.6946 5
      vertex 43.0902 -9.51056 12
      vertex 85.6072 -17.1137 5
    endloop
  endfacet
  facet normal 0.400978 -0.916088 0
    outer loop
      vertex 92.8115 -14.6946 0
      vertex 98.8676 -12.0438 5
      vertex 92.8115 -14.6946 5
    endloop
  endfacet
  facet normal 0.400978 -0.916088 0
    outer loop
      vertex 98.8676 -12.0438 5
      vertex 92.8115 -14.6946 0
      vertex 98.8676 -12.0438 0
    endloop
  endfacet
  facet normal 0.031328 -0.439234 0.897826
    outer loop
      vertex 40.6279 -9.98027 12
      vertex 36.8643 -24.5572 5
      vertex 47.8115 -23.7764 5
    endloop
  endfacet
  facet normal -0.026928 -0.377544 0.9256
    outer loop
      vertex 39.3721 -9.98027 12
      vertex -7.81153 -23.7764 5
      vertex 3.13568 -24.5572 5
    endloop
  endfacet
  facet normal 0.318319 0.947984 -0
    outer loop
      vertex 92.8115 14.6946 0
      vertex 85.6072 17.1137 5
      vertex 92.8115 14.6946 5
    endloop
  endfacet
  facet normal 0.318319 0.947984 0
    outer loop
      vertex 85.6072 17.1137 5
      vertex 92.8115 14.6946 0
      vertex 85.6072 17.1137 0
    endloop
  endfacet
  facet normal 0.047529 0.432174 0.900537
    outer loop
      vertex 47.8115 23.7764 5
      vertex 40.6279 9.98027 12
      vertex 58.3201 22.6207 5
    endloop
  endfacet
  facet normal 0.150961 0.98854 -0
    outer loop
      vertex 68.2244 21.1082 0
      vertex 58.3201 22.6207 5
      vertex 68.2244 21.1082 5
    endloop
  endfacet
  facet normal 0.150961 0.98854 0
    outer loop
      vertex 58.3201 22.6207 5
      vertex 68.2244 21.1082 0
      vertex 58.3201 22.6207 0
    endloop
  endfacet
  facet normal -0.0711434 0.997466 0
    outer loop
      vertex 3.13568 24.5572 0
      vertex -7.81153 23.7764 5
      vertex 3.13568 24.5572 5
    endloop
  endfacet
  facet normal -0.0711434 0.997466 0
    outer loop
      vertex -7.81153 23.7764 5
      vertex 3.13568 24.5572 0
      vertex -7.81153 23.7764 0
    endloop
  endfacet
  facet normal -0.109318 -0.994007 0
    outer loop
      vertex -18.3201 -22.6207 0
      vertex -7.81153 -23.7764 5
      vertex -18.3201 -22.6207 5
    endloop
  endfacet
  facet normal -0.109318 -0.994007 -0
    outer loop
      vertex -7.81153 -23.7764 5
      vertex -18.3201 -22.6207 0
      vertex -7.81153 -23.7764 0
    endloop
  endfacet
  facet normal 0.649877 0.760039 -0
    outer loop
      vertex 107.172 6.21725 0
      vertex 103.68 9.20311 5
      vertex 107.172 6.21725 5
    endloop
  endfacet
  facet normal 0.649877 0.760039 0
    outer loop
      vertex 103.68 9.20311 5
      vertex 107.172 6.21725 0
      vertex 103.68 9.20311 0
    endloop
  endfacet
  facet normal 0.975275 0.220993 0
    outer loop
      vertex 110 0 5
      vertex 109.29 3.13333 0
      vertex 109.29 3.13333 5
    endloop
  endfacet
  facet normal 0.975275 0.220993 0
    outer loop
      vertex 109.29 3.13333 0
      vertex 110 0 5
      vertex 110 0 0
    endloop
  endfacet
  facet normal 0.824316 -0.56613 0
    outer loop
      vertex 107.172 -6.21725 5
      vertex 109.29 -3.13333 0
      vertex 109.29 -3.13333 5
    endloop
  endfacet
  facet normal 0.824316 -0.56613 0
    outer loop
      vertex 109.29 -3.13333 0
      vertex 107.172 -6.21725 5
      vertex 107.172 -6.21725 0
    endloop
  endfacet
  facet normal 0.649877 -0.760039 0
    outer loop
      vertex 103.68 -9.20311 0
      vertex 107.172 -6.21725 5
      vertex 103.68 -9.20311 5
    endloop
  endfacet
  facet normal 0.649877 -0.760039 0
    outer loop
      vertex 107.172 -6.21725 5
      vertex 103.68 -9.20311 0
      vertex 107.172 -6.21725 0
    endloop
  endfacet
  facet normal 0.116823 -0.0802327 0.989907
    outer loop
      vertex 109.29 -3.13333 5
      vertex 48.0902 -5.87785 12
      vertex 107.172 -6.21725 5
    endloop
  endfacet
  facet normal 0.0781642 -0.387297 0.918636
    outer loop
      vertex 77.3682 -19.2628 5
      vertex 41.8738 -9.82287 12
      vertex 68.2244 -21.1082 5
    endloop
  endfacet
  facet normal 0 -1 0
    outer loop
      vertex 14.3489 -24.9507 0
      vertex 25.6511 -24.9507 5
      vertex 14.3489 -24.9507 5
    endloop
  endfacet
  facet normal 0 -1 -0
    outer loop
      vertex 25.6511 -24.9507 5
      vertex 14.3489 -24.9507 0
      vertex 25.6511 -24.9507 0
    endloop
  endfacet
  facet normal -0.0711434 -0.997466 0
    outer loop
      vertex -7.81153 -23.7764 0
      vertex 3.13568 -24.5572 5
      vertex -7.81153 -23.7764 5
    endloop
  endfacet
  facet normal -0.0711434 -0.997466 -0
    outer loop
      vertex 3.13568 -24.5572 5
      vertex -7.81153 -23.7764 0
      vertex 3.13568 -24.5572 0
    endloop
  endfacet
  facet normal 0.0711434 -0.997466 0
    outer loop
      vertex 36.8643 -24.5572 0
      vertex 47.8115 -23.7764 5
      vertex 36.8643 -24.5572 5
    endloop
  endfacet
  facet normal 0.0711434 -0.997466 0
    outer loop
      vertex 47.8115 -23.7764 5
      vertex 36.8643 -24.5572 0
      vertex 47.8115 -23.7764 0
    endloop
  endfacet
  facet normal -0.0350709 -0.999385 0
    outer loop
      vertex 3.13568 -24.5572 0
      vertex 14.3489 -24.9507 5
      vertex 3.13568 -24.5572 5
    endloop
  endfacet
  facet normal -0.0350709 -0.999385 -0
    outer loop
      vertex 14.3489 -24.9507 5
      vertex 3.13568 -24.5572 0
      vertex 14.3489 -24.9507 0
    endloop
  endfacet
  facet normal 0.101788 0.303133 0.947496
    outer loop
      vertex 85.6072 17.1137 5
      vertex 43.0902 9.51056 12
      vertex 92.8115 14.6946 5
    endloop
  endfacet
  facet normal 0.0910932 0.349224 0.932601
    outer loop
      vertex 77.3682 19.2628 5
      vertex 43.0902 9.51056 12
      vertex 85.6072 17.1137 5
    endloop
  endfacet
  facet normal 0.109317 0.994007 -0
    outer loop
      vertex 58.3201 22.6207 0
      vertex 47.8115 23.7764 5
      vertex 58.3201 22.6207 5
    endloop
  endfacet
  facet normal 0.109317 0.994007 0
    outer loop
      vertex 47.8115 23.7764 5
      vertex 58.3201 22.6207 0
      vertex 47.8115 23.7764 0
    endloop
  endfacet
  facet normal 0 1 -0
    outer loop
      vertex 25.6511 24.9507 0
      vertex 14.3489 24.9507 5
      vertex 25.6511 24.9507 5
    endloop
  endfacet
  facet normal 0 1 0
    outer loop
      vertex 14.3489 24.9507 5
      vertex 25.6511 24.9507 0
      vertex 14.3489 24.9507 0
    endloop
  endfacet
  facet normal 0.035071 0.999385 -0
    outer loop
      vertex 36.8643 24.5572 0
      vertex 25.6511 24.9507 5
      vertex 36.8643 24.5572 5
    endloop
  endfacet
  facet normal 0.035071 0.999385 0
    outer loop
      vertex 25.6511 24.9507 5
      vertex 36.8643 24.5572 0
      vertex 25.6511 24.9507 0
    endloop
  endfacet
  facet normal 0.090264 0.351565 0.931802
    outer loop
      vertex 77.3682 19.2628 5
      vertex 41.8738 9.82287 12
      vertex 43.0902 9.51056 12
    endloop
  endfacet
  facet normal -0.026928 0.377544 0.9256
    outer loop
      vertex 3.13568 24.5572 5
      vertex -7.81153 23.7764 5
      vertex 39.3721 9.98027 12
    endloop
  endfacet
  facet normal -0.0936389 0.128873 0.98723
    outer loop
      vertex 34.6417 8.44328 12
      vertex -20 22.3641 5
      vertex 33.6258 7.70513 12
    endloop
  endfacet
  facet normal 0.115878 -0.00729476 0.993237
    outer loop
      vertex 50 0 12
      vertex 49.9211 -1.25333 12
      vertex 110 0 5
    endloop
  endfacet
  facet normal -0.111251 -0.0706025 0.991281
    outer loop
      vertex 31.2369 -4.81754 12
      vertex -20 -22.3641 5
      vertex 31.9098 -5.87785 12
    endloop
  endfacet
  facet normal -0.0861287 -0.156671 0.983888
    outer loop
      vertex 34.6417 -8.44328 12
      vertex -20 -22.3641 5
      vertex 35.7422 -9.04827 12
    endloop
  endfacet
  facet normal 0.824316 0.56613 0
    outer loop
      vertex 109.29 3.13333 5
      vertex 107.172 6.21725 0
      vertex 107.172 6.21725 5
    endloop
  endfacet
  facet normal 0.824316 0.56613 0
    outer loop
      vertex 107.172 6.21725 0
      vertex 109.29 3.13333 5
      vertex 109.29 3.13333 0
    endloop
  endfacet
  facet normal 0.109572 -0.250332 0.96194
    outer loop
      vertex 98.8676 -12.0438 5
      vertex 44.2578 -9.04827 12
      vertex 92.8115 -14.6946 5
    endloop
  endfacet
  facet normal 0.116605 -0.136371 0.983772
    outer loop
      vertex 107.172 -6.21725 5
      vertex 46.3742 -7.70513 12
      vertex 103.68 -9.20311 5
    endloop
  endfacet
  facet normal 0.252399 -0.967623 0
    outer loop
      vertex 77.3682 -19.2628 0
      vertex 85.6072 -17.1137 5
      vertex 77.3682 -19.2628 5
    endloop
  endfacet
  facet normal 0.252399 -0.967623 0
    outer loop
      vertex 85.6072 -17.1137 5
      vertex 77.3682 -19.2628 0
      vertex 85.6072 -17.1137 0
    endloop
  endfacet
  facet normal 0.109317 -0.994007 0
    outer loop
      vertex 47.8115 -23.7764 0
      vertex 58.3201 -22.6207 5
      vertex 47.8115 -23.7764 5
    endloop
  endfacet
  facet normal 0.109317 -0.994007 0
    outer loop
      vertex 58.3201 -22.6207 5
      vertex 47.8115 -23.7764 0
      vertex 58.3201 -22.6207 0
    endloop
  endfacet
  facet normal 0.047529 -0.432174 0.900537
    outer loop
      vertex 58.3201 -22.6207 5
      vertex 40.6279 -9.98027 12
      vertex 47.8115 -23.7764 5
    endloop
  endfacet
  facet normal 0.150961 -0.98854 0
    outer loop
      vertex 58.3201 -22.6207 0
      vertex 68.2244 -21.1082 5
      vertex 58.3201 -22.6207 5
    endloop
  endfacet
  facet normal 0.150961 -0.98854 0
    outer loop
      vertex 68.2244 -21.1082 5
      vertex 58.3201 -22.6207 0
      vertex 68.2244 -21.1082 0
    endloop
  endfacet
  facet normal -0.0380181 -0.345692 0.937578
    outer loop
      vertex 39.3721 -9.98027 12
      vertex -18.3201 -22.6207 5
      vertex -7.81153 -23.7764 5
    endloop
  endfacet
  facet normal -0.0418305 -0.331109 0.942665
    outer loop
      vertex 38.1262 -9.82287 12
      vertex -18.3201 -22.6207 5
      vertex 39.3721 -9.98027 12
    endloop
  endfacet
  facet normal -0.150996 -0.988534 0
    outer loop
      vertex -20 -22.3641 0
      vertex -18.3201 -22.6207 5
      vertex -20 -22.3641 5
    endloop
  endfacet
  facet normal -0.150996 -0.988534 -0
    outer loop
      vertex -18.3201 -22.6207 5
      vertex -20 -22.3641 0
      vertex -18.3201 -22.6207 0
    endloop
  endfacet
  facet normal 0.106659 0.269388 0.957107
    outer loop
      vertex 92.8115 14.6946 5
      vertex 43.0902 9.51056 12
      vertex 44.2578 9.04827 12
    endloop
  endfacet
  facet normal -0.0141769 0.403986 0.914655
    outer loop
      vertex 14.3489 24.9507 5
      vertex 3.13568 24.5572 5
      vertex 39.3721 9.98027 12
    endloop
  endfacet
  facet normal 0 0.423571 0.905863
    outer loop
      vertex 25.6511 24.9507 5
      vertex 39.3721 9.98027 12
      vertex 40.6279 9.98027 12
    endloop
  endfacet
  facet normal 0 0.423571 0.905863
    outer loop
      vertex 39.3721 9.98027 12
      vertex 25.6511 24.9507 5
      vertex 14.3489 24.9507 5
    endloop
  endfacet
  facet normal -0.109318 0.994007 0
    outer loop
      vertex -7.81153 23.7764 0
      vertex -18.3201 22.6207 5
      vertex -7.81153 23.7764 5
    endloop
  endfacet
  facet normal -0.109318 0.994007 0
    outer loop
      vertex -18.3201 22.6207 5
      vertex -7.81153 23.7764 0
      vertex -18.3201 22.6207 0
    endloop
  endfacet
  facet normal -0.0380181 0.345692 0.937578
    outer loop
      vertex -7.81153 23.7764 5
      vertex -18.3201 22.6207 5
      vertex 39.3721 9.98027 12
    endloop
  endfacet
  facet normal -0.0632832 0.246479 0.96708
    outer loop
      vertex 38.1262 9.82287 12
      vertex -20 22.3641 5
      vertex 36.9098 9.51056 12
    endloop
  endfacet
  facet normal -0.10578 0.0875103 0.990531
    outer loop
      vertex 32.7103 6.84547 12
      vertex -20 22.3641 5
      vertex 31.9098 5.87785 12
    endloop
  endfacet
  facet normal 0.116158 0.0221568 0.992984
    outer loop
      vertex 110 0 5
      vertex 49.6858 2.4869 12
      vertex 49.9211 1.25333 12
    endloop
  endfacet
  facet normal 0.116492 -0.124059 0.985413
    outer loop
      vertex 47.2897 -6.84547 12
      vertex 46.3742 -7.70513 12
      vertex 107.172 -6.21725 5
    endloop
  endfacet
  facet normal -0.134916 -0.00849327 0.990821
    outer loop
      vertex 30 0 12
      vertex -20 -22.3641 5
      vertex 30.0789 -1.25333 12
    endloop
  endfacet
  facet normal -0.122278 -0.0397238 0.991701
    outer loop
      vertex 30.3142 -2.4869 12
      vertex -20 -22.3641 5
      vertex 30.7022 -3.68124 12
    endloop
  endfacet
  facet normal -0.0632832 -0.246479 0.96708
    outer loop
      vertex 36.9098 -9.51056 12
      vertex -20 -22.3641 5
      vertex 38.1262 -9.82287 12
    endloop
  endfacet
  facet normal -0.100017 -0.106514 0.989268
    outer loop
      vertex 32.7103 -6.84547 12
      vertex -20 -22.3641 5
      vertex 33.6258 -7.70513 12
    endloop
  endfacet
  facet normal 0.197831 -0.980236 0
    outer loop
      vertex 68.2244 -21.1082 0
      vertex 77.3682 -19.2628 5
      vertex 68.2244 -21.1082 5
    endloop
  endfacet
  facet normal 0.197831 -0.980236 0
    outer loop
      vertex 77.3682 -19.2628 5
      vertex 68.2244 -21.1082 0
      vertex 77.3682 -19.2628 0
    endloop
  endfacet
  facet normal 0.0537135 -0.425169 0.903519
    outer loop
      vertex 41.8738 -9.82287 12
      vertex 40.6279 -9.98027 12
      vertex 58.3201 -22.6207 5
    endloop
  endfacet
  facet normal 0.035071 -0.999385 0
    outer loop
      vertex 25.6511 -24.9507 0
      vertex 36.8643 -24.5572 5
      vertex 25.6511 -24.9507 5
    endloop
  endfacet
  facet normal 0.035071 -0.999385 0
    outer loop
      vertex 36.8643 -24.5572 5
      vertex 25.6511 -24.9507 0
      vertex 36.8643 -24.5572 0
    endloop
  endfacet
  facet normal 0.0153019 -0.436043 0.899796
    outer loop
      vertex 40.6279 -9.98027 12
      vertex 25.6511 -24.9507 5
      vertex 36.8643 -24.5572 5
    endloop
  endfacet
  facet normal -0.047395 -0.310284 0.949462
    outer loop
      vertex 38.1262 -9.82287 12
      vertex -20 -22.3641 5
      vertex -18.3201 -22.6207 5
    endloop
  endfacet
  facet normal 0.0781642 0.387297 0.918636
    outer loop
      vertex 68.2244 21.1082 5
      vertex 41.8738 9.82287 12
      vertex 77.3682 19.2628 5
    endloop
  endfacet
  facet normal 0.0633744 0.414994 0.907614
    outer loop
      vertex 58.3201 22.6207 5
      vertex 41.8738 9.82287 12
      vertex 68.2244 21.1082 5
    endloop
  endfacet
  facet normal -0.076608 0.193488 0.978107
    outer loop
      vertex 36.9098 9.51056 12
      vertex -20 22.3641 5
      vertex 35.7422 9.04827 12
    endloop
  endfacet
  facet normal -0.0418305 0.331109 0.942665
    outer loop
      vertex 39.3721 9.98027 12
      vertex -18.3201 22.6207 5
      vertex 38.1262 9.82287 12
    endloop
  endfacet
  facet normal -0.047395 0.310284 0.949462
    outer loop
      vertex -18.3201 22.6207 5
      vertex -20 22.3641 5
      vertex 38.1262 9.82287 12
    endloop
  endfacet
  facet normal -0.100017 0.106514 0.989268
    outer loop
      vertex 33.6258 7.70513 12
      vertex -20 22.3641 5
      vertex 32.7103 6.84547 12
    endloop
  endfacet
  facet normal -0.116677 0.0549039 0.991651
    outer loop
      vertex 31.2369 4.81754 12
      vertex -20 22.3641 5
      vertex 30.7022 3.68124 12
    endloop
  endfacet
  facet normal -0.122278 0.0397238 0.991701
    outer loop
      vertex 30.7022 3.68124 12
      vertex -20 22.3641 5
      vertex 30.3142 2.4869 12
    endloop
  endfacet
  facet normal 0.116602 0.0739986 0.990418
    outer loop
      vertex 109.29 3.13333 5
      vertex 48.0902 5.87785 12
      vertex 48.7631 4.81754 12
    endloop
  endfacet
  facet normal 0.116823 0.0802327 0.989907
    outer loop
      vertex 107.172 6.21725 5
      vertex 48.0902 5.87785 12
      vertex 109.29 3.13333 5
    endloop
  endfacet
  facet normal 0.115878 0.00729476 0.993237
    outer loop
      vertex 110 0 5
      vertex 49.9211 1.25333 12
      vertex 50 0 12
    endloop
  endfacet
  facet normal 0.116317 -0.026357 0.992862
    outer loop
      vertex 110 0 5
      vertex 49.6858 -2.4869 12
      vertex 109.29 -3.13333 5
    endloop
  endfacet
  facet normal 0.116153 -0.0377341 0.992514
    outer loop
      vertex 49.6858 -2.4869 12
      vertex 49.2978 -3.68124 12
      vertex 109.29 -3.13333 5
    endloop
  endfacet
  facet normal 0.106659 -0.269388 0.957107
    outer loop
      vertex 44.2578 -9.04827 12
      vertex 43.0902 -9.51056 12
      vertex 92.8115 -14.6946 5
    endloop
  endfacet
  facet normal -0.134916 0.00849327 0.990821
    outer loop
      vertex 30.0789 1.25333 12
      vertex -20 22.3641 5
      vertex 30 0 12
    endloop
  endfacet
  facet normal -0.138648 0 0.990342
    outer loop
      vertex -20 22.3641 5
      vertex -20 -22.3641 5
      vertex 30 0 12
    endloop
  endfacet
  facet normal -0.116677 -0.0549039 0.991651
    outer loop
      vertex 30.7022 -3.68124 12
      vertex -20 -22.3641 5
      vertex 31.2369 -4.81754 12
    endloop
  endfacet
  facet normal -0.128269 -0.0244669 0.991438
    outer loop
      vertex 30.0789 -1.25333 12
      vertex -20 -22.3641 5
      vertex 30.3142 -2.4869 12
    endloop
  endfacet
  facet normal -0.076608 -0.193488 0.978107
    outer loop
      vertex 35.7422 -9.04827 12
      vertex -20 -22.3641 5
      vertex 36.9098 -9.51056 12
    endloop
  endfacet
  facet normal -0.0936389 -0.128873 0.98723
    outer loop
      vertex 33.6258 -7.70513 12
      vertex -20 -22.3641 5
      vertex 34.6417 -8.44328 12
    endloop
  endfacet
  facet normal -0.10578 -0.0875103 0.990531
    outer loop
      vertex 31.9098 -5.87785 12
      vertex -20 -22.3641 5
      vertex 32.7103 -6.84547 12
    endloop
  endfacet
  facet normal 0.508331 -0.861162 0
    outer loop
      vertex 98.8676 -12.0438 0
      vertex 103.68 -9.20311 5
      vertex 98.8676 -12.0438 5
    endloop
  endfacet
  facet normal 0.508331 -0.861162 0
    outer loop
      vertex 103.68 -9.20311 5
      vertex 98.8676 -12.0438 0
      vertex 103.68 -9.20311 0
    endloop
  endfacet
  facet normal -0.0141769 -0.403986 0.914655
    outer loop
      vertex 39.3721 -9.98027 12
      vertex 3.13568 -24.5572 5
      vertex 14.3489 -24.9507 5
    endloop
  endfacet
  facet normal 0 -0.423571 0.905863
    outer loop
      vertex 39.3721 -9.98027 12
      vertex 25.6511 -24.9507 5
      vertex 40.6279 -9.98027 12
    endloop
  endfacet
  facet normal 0 -0.423571 0.905863
    outer loop
      vertex 25.6511 -24.9507 5
      vertex 39.3721 -9.98027 12
      vertex 14.3489 -24.9507 5
    endloop
  endfacet
  facet normal 0.031328 0.439234 0.897826
    outer loop
      vertex 47.8115 23.7764 5
      vertex 36.8643 24.5572 5
      vertex 40.6279 9.98027 12
    endloop
  endfacet
  facet normal 0.0153019 0.436043 0.899796
    outer loop
      vertex 36.8643 24.5572 5
      vertex 25.6511 24.9507 5
      vertex 40.6279 9.98027 12
    endloop
  endfacet
  facet normal -0.0861287 0.156671 0.983888
    outer loop
      vertex 35.7422 9.04827 12
      vertex -20 22.3641 5
      vertex 34.6417 8.44328 12
    endloop
  endfacet
  facet normal -0.111251 0.0706025 0.991281
    outer loop
      vertex 31.9098 5.87785 12
      vertex -20 22.3641 5
      vertex 31.2369 4.81754 12
    endloop
  endfacet
  facet normal 0.116492 0.124059 0.985413
    outer loop
      vertex 107.172 6.21725 5
      vertex 46.3742 7.70513 12
      vertex 47.2897 6.84547 12
    endloop
  endfacet
  facet normal 0.116153 0.0377341 0.992514
    outer loop
      vertex 109.29 3.13333 5
      vertex 49.2978 3.68124 12
      vertex 49.6858 2.4869 12
    endloop
  endfacet
  facet normal 0.116562 -0.0964305 0.988491
    outer loop
      vertex 48.0902 -5.87785 12
      vertex 47.2897 -6.84547 12
      vertex 107.172 -6.21725 5
    endloop
  endfacet
  facet normal 0.0633744 -0.414994 0.907614
    outer loop
      vertex 68.2244 -21.1082 5
      vertex 41.8738 -9.82287 12
      vertex 58.3201 -22.6207 5
    endloop
  endfacet
  facet normal 0.0910932 -0.349224 0.932601
    outer loop
      vertex 85.6072 -17.1137 5
      vertex 43.0902 -9.51056 12
      vertex 77.3682 -19.2628 5
    endloop
  endfacet
  facet normal 0.113284 -0.206068 0.971958
    outer loop
      vertex 45.3583 -8.44328 12
      vertex 44.2578 -9.04827 12
      vertex 98.8676 -12.0438 5
    endloop
  endfacet
  facet normal 0.114419 -0.193836 0.974339
    outer loop
      vertex 103.68 -9.20311 5
      vertex 45.3583 -8.44328 12
      vertex 98.8676 -12.0438 5
    endloop
  endfacet
  facet normal 0.115607 0.159107 0.980469
    outer loop
      vertex 103.68 9.20311 5
      vertex 45.3583 8.44328 12
      vertex 46.3742 7.70513 12
    endloop
  endfacet
  facet normal 0.116562 0.0964305 0.988491
    outer loop
      vertex 107.172 6.21725 5
      vertex 47.2897 6.84547 12
      vertex 48.0902 5.87785 12
    endloop
  endfacet
  facet normal 0.116215 0.0546863 0.991717
    outer loop
      vertex 109.29 3.13333 5
      vertex 48.7631 4.81754 12
      vertex 49.2978 3.68124 12
    endloop
  endfacet
  facet normal 0.116158 -0.0221568 0.992984
    outer loop
      vertex 49.9211 -1.25333 12
      vertex 49.6858 -2.4869 12
      vertex 110 0 5
    endloop
  endfacet
  facet normal 0.090264 -0.351565 0.931802
    outer loop
      vertex 43.0902 -9.51056 12
      vertex 41.8738 -9.82287 12
      vertex 77.3682 -19.2628 5
    endloop
  endfacet
  facet normal 0.115607 -0.159107 0.980469
    outer loop
      vertex 46.3742 -7.70513 12
      vertex 45.3583 -8.44328 12
      vertex 103.68 -9.20311 5
    endloop
  endfacet
  facet normal 0.113284 0.206068 0.971958
    outer loop
      vertex 98.8676 12.0438 5
      vertex 44.2578 9.04827 12
      vertex 45.3583 8.44328 12
    endloop
  endfacet
  facet normal 0.109572 0.250332 0.96194
    outer loop
      vertex 92.8115 14.6946 5
      vertex 44.2578 9.04827 12
      vertex 98.8676 12.0438 5
    endloop
  endfacet
  facet normal 0.116602 -0.0739986 0.990418
    outer loop
      vertex 48.7631 -4.81754 12
      vertex 48.0902 -5.87785 12
      vertex 109.29 -3.13333 5
    endloop
  endfacet
  facet normal 0.116215 -0.0546863 0.991717
    outer loop
      vertex 49.2978 -3.68124 12
      vertex 48.7631 -4.81754 12
      vertex 109.29 -3.13333 5
    endloop
  endfacet
  facet normal -0.998027 -0.062794 0
    outer loop
      vertex 43.5 0 3
      vertex 43.4724 0.438665 20
      vertex 43.4724 0.438665 3
    endloop
  endfacet
  facet normal -0.998027 -0.062794 0
    outer loop
      vertex 43.4724 0.438665 20
      vertex 43.5 0 3
      vertex 43.5 0 20
    endloop
  endfacet
  facet normal 0.998027 0.062794 0
    outer loop
      vertex 36.5276 -0.438665 20
      vertex 36.5 0 3
      vertex 36.5 0 20
    endloop
  endfacet
  facet normal 0.998027 0.062794 0
    outer loop
      vertex 36.5 0 3
      vertex 36.5276 -0.438665 20
      vertex 36.5276 -0.438665 3
    endloop
  endfacet
  facet normal 0 -1 0
    outer loop
      vertex 39.7802 3.49309 3
      vertex 40.2198 3.49309 20
      vertex 39.7802 3.49309 20
    endloop
  endfacet
  facet normal 0 -1 -0
    outer loop
      vertex 40.2198 3.49309 20
      vertex 39.7802 3.49309 3
      vertex 40.2198 3.49309 3
    endloop
  endfacet
  facet normal -0.684564 -0.728952 0
    outer loop
      vertex 42.231 2.6968 3
      vertex 42.5514 2.39591 20
      vertex 42.231 2.6968 20
    endloop
  endfacet
  facet normal -0.684564 -0.728952 -0
    outer loop
      vertex 42.5514 2.39591 20
      vertex 42.231 2.6968 3
      vertex 42.5514 2.39591 3
    endloop
  endfacet
  facet normal 0.770473 -0.637473 0
    outer loop
      vertex 37.1684 2.05725 20
      vertex 37.4486 2.39591 3
      vertex 37.4486 2.39591 20
    endloop
  endfacet
  facet normal 0.770473 -0.637473 0
    outer loop
      vertex 37.4486 2.39591 3
      vertex 37.1684 2.05725 20
      vertex 37.1684 2.05725 3
    endloop
  endfacet
  facet normal 0.368191 -0.92975 0
    outer loop
      vertex 38.5098 3.16689 3
      vertex 38.9184 3.3287 20
      vertex 38.5098 3.16689 20
    endloop
  endfacet
  facet normal 0.368191 -0.92975 0
    outer loop
      vertex 38.9184 3.3287 20
      vertex 38.5098 3.16689 3
      vertex 38.9184 3.3287 3
    endloop
  endfacet
  facet normal -0.904869 -0.42569 0
    outer loop
      vertex 43.2542 1.28843 3
      vertex 43.0671 1.68614 20
      vertex 43.0671 1.68614 3
    endloop
  endfacet
  facet normal -0.904869 -0.42569 0
    outer loop
      vertex 43.0671 1.68614 20
      vertex 43.2542 1.28843 3
      vertex 43.2542 1.28843 20
    endloop
  endfacet
  facet normal -0.982271 -0.187468 0
    outer loop
      vertex 43.4724 0.438665 3
      vertex 43.39 0.870414 20
      vertex 43.39 0.870414 3
    endloop
  endfacet
  facet normal -0.982271 -0.187468 0
    outer loop
      vertex 43.39 0.870414 20
      vertex 43.4724 0.438665 3
      vertex 43.4724 0.438665 20
    endloop
  endfacet
  facet normal -0.844342 -0.535805 0
    outer loop
      vertex 43.0671 1.68614 3
      vertex 42.8316 2.05725 20
      vertex 42.8316 2.05725 3
    endloop
  endfacet
  facet normal -0.844342 -0.535805 0
    outer loop
      vertex 42.8316 2.05725 20
      vertex 43.0671 1.68614 3
      vertex 43.0671 1.68614 20
    endloop
  endfacet
  facet normal -0.368191 -0.92975 0
    outer loop
      vertex 41.0816 3.3287 3
      vertex 41.4902 3.16689 20
      vertex 41.0816 3.3287 20
    endloop
  endfacet
  facet normal -0.368191 -0.92975 -0
    outer loop
      vertex 41.4902 3.16689 20
      vertex 41.0816 3.3287 3
      vertex 41.4902 3.16689 3
    endloop
  endfacet
  facet normal -0.481709 -0.876331 0
    outer loop
      vertex 41.4902 3.16689 3
      vertex 41.8754 2.95515 20
      vertex 41.4902 3.16689 20
    endloop
  endfacet
  facet normal -0.481709 -0.876331 -0
    outer loop
      vertex 41.8754 2.95515 20
      vertex 41.4902 3.16689 3
      vertex 41.8754 2.95515 3
    endloop
  endfacet
  facet normal 0.951071 -0.308972 0
    outer loop
      vertex 36.61 0.870414 20
      vertex 36.7458 1.28843 3
      vertex 36.7458 1.28843 20
    endloop
  endfacet
  facet normal 0.951071 -0.308972 0
    outer loop
      vertex 36.7458 1.28843 3
      vertex 36.61 0.870414 20
      vertex 36.61 0.870414 3
    endloop
  endfacet
  facet normal 0.982271 -0.187468 0
    outer loop
      vertex 36.5276 0.438665 20
      vertex 36.61 0.870414 3
      vertex 36.61 0.870414 20
    endloop
  endfacet
  facet normal 0.982271 -0.187468 0
    outer loop
      vertex 36.61 0.870414 3
      vertex 36.5276 0.438665 20
      vertex 36.5276 0.438665 3
    endloop
  endfacet
  facet normal 0.248633 -0.968598 0
    outer loop
      vertex 38.9184 3.3287 3
      vertex 39.3442 3.438 20
      vertex 38.9184 3.3287 20
    endloop
  endfacet
  facet normal 0.248633 -0.968598 0
    outer loop
      vertex 39.3442 3.438 20
      vertex 38.9184 3.3287 3
      vertex 39.3442 3.438 3
    endloop
  endfacet
  facet normal 0.844342 0.535805 0
    outer loop
      vertex 37.1684 -2.05725 20
      vertex 36.9329 -1.68614 3
      vertex 36.9329 -1.68614 20
    endloop
  endfacet
  facet normal 0.844342 0.535805 0
    outer loop
      vertex 36.9329 -1.68614 3
      vertex 37.1684 -2.05725 20
      vertex 37.1684 -2.05725 3
    endloop
  endfacet
  facet normal 0.982271 0.187468 0
    outer loop
      vertex 36.61 -0.870414 20
      vertex 36.5276 -0.438665 3
      vertex 36.5276 -0.438665 20
    endloop
  endfacet
  facet normal 0.982271 0.187468 0
    outer loop
      vertex 36.5276 -0.438665 3
      vertex 36.61 -0.870414 20
      vertex 36.61 -0.870414 3
    endloop
  endfacet
  facet normal -0.951071 -0.308972 0
    outer loop
      vertex 43.39 0.870414 3
      vertex 43.2542 1.28843 20
      vertex 43.2542 1.28843 3
    endloop
  endfacet
  facet normal -0.951071 -0.308972 0
    outer loop
      vertex 43.2542 1.28843 20
      vertex 43.39 0.870414 3
      vertex 43.39 0.870414 20
    endloop
  endfacet
  facet normal -0.770473 -0.637473 0
    outer loop
      vertex 42.8316 2.05725 3
      vertex 42.5514 2.39591 20
      vertex 42.5514 2.39591 3
    endloop
  endfacet
  facet normal -0.770473 -0.637473 0
    outer loop
      vertex 42.5514 2.39591 20
      vertex 42.8316 2.05725 3
      vertex 42.8316 2.05725 20
    endloop
  endfacet
  facet normal -0.248633 -0.968598 0
    outer loop
      vertex 40.6558 3.438 3
      vertex 41.0816 3.3287 20
      vertex 40.6558 3.438 20
    endloop
  endfacet
  facet normal -0.248633 -0.968598 -0
    outer loop
      vertex 41.0816 3.3287 20
      vertex 40.6558 3.438 3
      vertex 41.0816 3.3287 3
    endloop
  endfacet
  facet normal -0.125357 -0.992112 0
    outer loop
      vertex 40.2198 3.49309 3
      vertex 40.6558 3.438 20
      vertex 40.2198 3.49309 20
    endloop
  endfacet
  facet normal -0.125357 -0.992112 -0
    outer loop
      vertex 40.6558 3.438 20
      vertex 40.2198 3.49309 3
      vertex 40.6558 3.438 3
    endloop
  endfacet
  facet normal -0.587773 -0.809026 0
    outer loop
      vertex 41.8754 2.95515 3
      vertex 42.231 2.6968 20
      vertex 41.8754 2.95515 20
    endloop
  endfacet
  facet normal -0.587773 -0.809026 -0
    outer loop
      vertex 42.231 2.6968 20
      vertex 41.8754 2.95515 3
      vertex 42.231 2.6968 3
    endloop
  endfacet
  facet normal 0 0 1
    outer loop
      vertex 43.4724 0.438665 3
      vertex 43.4724 -0.438665 3
      vertex 43.5 0 3
    endloop
  endfacet
  facet normal 0 0 1
    outer loop
      vertex 43.39 0.870414 3
      vertex 43.4724 -0.438665 3
      vertex 43.4724 0.438665 3
    endloop
  endfacet
  facet normal 0 0 1
    outer loop
      vertex 43.39 0.870414 3
      vertex 43.39 -0.870414 3
      vertex 43.4724 -0.438665 3
    endloop
  endfacet
  facet normal 0 0 1
    outer loop
      vertex 43.2542 1.28843 3
      vertex 43.39 -0.870414 3
      vertex 43.39 0.870414 3
    endloop
  endfacet
  facet normal 0 0 1
    outer loop
      vertex 43.2542 1.28843 3
      vertex 43.2542 -1.28843 3
      vertex 43.39 -0.870414 3
    endloop
  endfacet
  facet normal 0 0 1
    outer loop
      vertex 43.0671 1.68614 3
      vertex 43.2542 -1.28843 3
      vertex 43.2542 1.28843 3
    endloop
  endfacet
  facet normal 0 0 1
    outer loop
      vertex 43.0671 1.68614 3
      vertex 43.0671 -1.68614 3
      vertex 43.2542 -1.28843 3
    endloop
  endfacet
  facet normal 0 0 1
    outer loop
      vertex 42.8316 2.05725 3
      vertex 43.0671 -1.68614 3
      vertex 43.0671 1.68614 3
    endloop
  endfacet
  facet normal 0 0 1
    outer loop
      vertex 42.8316 2.05725 3
      vertex 42.8316 -2.05725 3
      vertex 43.0671 -1.68614 3
    endloop
  endfacet
  facet normal 0 0 1
    outer loop
      vertex 42.5514 2.39591 3
      vertex 42.8316 -2.05725 3
      vertex 42.8316 2.05725 3
    endloop
  endfacet
  facet normal 0 0 1
    outer loop
      vertex 42.5514 2.39591 3
      vertex 42.5514 -2.39591 3
      vertex 42.8316 -2.05725 3
    endloop
  endfacet
  facet normal 0 0 1
    outer loop
      vertex 42.231 2.6968 3
      vertex 42.5514 -2.39591 3
      vertex 42.5514 2.39591 3
    endloop
  endfacet
  facet normal 0 0 1
    outer loop
      vertex 42.231 2.6968 3
      vertex 42.231 -2.6968 3
      vertex 42.5514 -2.39591 3
    endloop
  endfacet
  facet normal 0 0 1
    outer loop
      vertex 41.8754 2.95515 3
      vertex 42.231 -2.6968 3
      vertex 42.231 2.6968 3
    endloop
  endfacet
  facet normal 0 0 1
    outer loop
      vertex 41.8754 2.95515 3
      vertex 41.8754 -2.95515 3
      vertex 42.231 -2.6968 3
    endloop
  endfacet
  facet normal 0 0 1
    outer loop
      vertex 41.4902 3.16689 3
      vertex 41.8754 -2.95515 3
      vertex 41.8754 2.95515 3
    endloop
  endfacet
  facet normal 0 0 1
    outer loop
      vertex 41.4902 3.16689 3
      vertex 41.4902 -3.16689 3
      vertex 41.8754 -2.95515 3
    endloop
  endfacet
  facet normal 0 0 1
    outer loop
      vertex 41.0816 3.3287 3
      vertex 41.4902 -3.16689 3
      vertex 41.4902 3.16689 3
    endloop
  endfacet
  facet normal 0 0 1
    outer loop
      vertex 41.0816 3.3287 3
      vertex 41.0816 -3.3287 3
      vertex 41.4902 -3.16689 3
    endloop
  endfacet
  facet normal 0 0 1
    outer loop
      vertex 40.6558 3.438 3
      vertex 41.0816 -3.3287 3
      vertex 41.0816 3.3287 3
    endloop
  endfacet
  facet normal 0 0 1
    outer loop
      vertex 40.6558 3.438 3
      vertex 40.6558 -3.438 3
      vertex 41.0816 -3.3287 3
    endloop
  endfacet
  facet normal 0 0 1
    outer loop
      vertex 40.2198 3.49309 3
      vertex 40.6558 -3.438 3
      vertex 40.6558 3.438 3
    endloop
  endfacet
  facet normal 0 0 1
    outer loop
      vertex 40.2198 3.49309 3
      vertex 40.2198 -3.49309 3
      vertex 40.6558 -3.438 3
    endloop
  endfacet
  facet normal -0 0 1
    outer loop
      vertex 39.7802 3.49309 3
      vertex 40.2198 -3.49309 3
      vertex 40.2198 3.49309 3
    endloop
  endfacet
  facet normal 0 0 1
    outer loop
      vertex 39.7802 3.49309 3
      vertex 39.7802 -3.49309 3
      vertex 40.2198 -3.49309 3
    endloop
  endfacet
  facet normal -0 0 1
    outer loop
      vertex 39.3442 3.438 3
      vertex 39.7802 -3.49309 3
      vertex 39.7802 3.49309 3
    endloop
  endfacet
  facet normal 0 0 1
    outer loop
      vertex 39.3442 3.438 3
      vertex 39.3442 -3.438 3
      vertex 39.7802 -3.49309 3
    endloop
  endfacet
  facet normal -0 0 1
    outer loop
      vertex 38.9184 3.3287 3
      vertex 39.3442 -3.438 3
      vertex 39.3442 3.438 3
    endloop
  endfacet
  facet normal 0 0 1
    outer loop
      vertex 38.9184 3.3287 3
      vertex 38.9184 -3.3287 3
      vertex 39.3442 -3.438 3
    endloop
  endfacet
  facet normal -0 0 1
    outer loop
      vertex 38.5098 3.16689 3
      vertex 38.9184 -3.3287 3
      vertex 38.9184 3.3287 3
    endloop
  endfacet
  facet normal 0 0 1
    outer loop
      vertex 38.5098 3.16689 3
      vertex 38.5098 -3.16689 3
      vertex 38.9184 -3.3287 3
    endloop
  endfacet
  facet normal -0 0 1
    outer loop
      vertex 38.1246 2.95515 3
      vertex 38.5098 -3.16689 3
      vertex 38.5098 3.16689 3
    endloop
  endfacet
  facet normal 0 0 1
    outer loop
      vertex 38.1246 2.95515 3
      vertex 38.1246 -2.95515 3
      vertex 38.5098 -3.16689 3
    endloop
  endfacet
  facet normal -0 0 1
    outer loop
      vertex 37.769 2.6968 3
      vertex 38.1246 -2.95515 3
      vertex 38.1246 2.95515 3
    endloop
  endfacet
  facet normal 0 0 1
    outer loop
      vertex 37.769 2.6968 3
      vertex 37.769 -2.6968 3
      vertex 38.1246 -2.95515 3
    endloop
  endfacet
  facet normal -0 0 1
    outer loop
      vertex 37.4486 2.39591 3
      vertex 37.769 -2.6968 3
      vertex 37.769 2.6968 3
    endloop
  endfacet
  facet normal 0 0 1
    outer loop
      vertex 37.4486 2.39591 3
      vertex 37.4486 -2.39591 3
      vertex 37.769 -2.6968 3
    endloop
  endfacet
  facet normal -0 0 1
    outer loop
      vertex 37.1684 2.05725 3
      vertex 37.4486 -2.39591 3
      vertex 37.4486 2.39591 3
    endloop
  endfacet
  facet normal 0 0 1
    outer loop
      vertex 37.1684 2.05725 3
      vertex 37.1684 -2.05725 3
      vertex 37.4486 -2.39591 3
    endloop
  endfacet
  facet normal -0 0 1
    outer loop
      vertex 36.9329 1.68614 3
      vertex 37.1684 -2.05725 3
      vertex 37.1684 2.05725 3
    endloop
  endfacet
  facet normal 0 0 1
    outer loop
      vertex 36.9329 1.68614 3
      vertex 36.9329 -1.68614 3
      vertex 37.1684 -2.05725 3
    endloop
  endfacet
  facet normal -0 0 1
    outer loop
      vertex 36.7458 1.28843 3
      vertex 36.9329 -1.68614 3
      vertex 36.9329 1.68614 3
    endloop
  endfacet
  facet normal 0 0 1
    outer loop
      vertex 36.7458 1.28843 3
      vertex 36.7458 -1.28843 3
      vertex 36.9329 -1.68614 3
    endloop
  endfacet
  facet normal -0 0 1
    outer loop
      vertex 36.61 0.870414 3
      vertex 36.7458 -1.28843 3
      vertex 36.7458 1.28843 3
    endloop
  endfacet
  facet normal 0 0 1
    outer loop
      vertex 36.61 0.870414 3
      vertex 36.61 -0.870414 3
      vertex 36.7458 -1.28843 3
    endloop
  endfacet
  facet normal -0 0 1
    outer loop
      vertex 36.5276 0.438665 3
      vertex 36.61 -0.870414 3
      vertex 36.61 0.870414 3
    endloop
  endfacet
  facet normal 0 0 1
    outer loop
      vertex 36.5276 0.438665 3
      vertex 36.5276 -0.438665 3
      vertex 36.61 -0.870414 3
    endloop
  endfacet
  facet normal 0 -0 1
    outer loop
      vertex 36.5276 -0.438665 3
      vertex 36.5276 0.438665 3
      vertex 36.5 0 3
    endloop
  endfacet
  facet normal 0.904869 -0.42569 0
    outer loop
      vertex 36.7458 1.28843 20
      vertex 36.9329 1.68614 3
      vertex 36.9329 1.68614 20
    endloop
  endfacet
  facet normal 0.904869 -0.42569 0
    outer loop
      vertex 36.9329 1.68614 3
      vertex 36.7458 1.28843 20
      vertex 36.7458 1.28843 3
    endloop
  endfacet
  facet normal 0.844342 -0.535805 0
    outer loop
      vertex 36.9329 1.68614 20
      vertex 37.1684 2.05725 3
      vertex 37.1684 2.05725 20
    endloop
  endfacet
  facet normal 0.844342 -0.535805 0
    outer loop
      vertex 37.1684 2.05725 3
      vertex 36.9329 1.68614 20
      vertex 36.9329 1.68614 3
    endloop
  endfacet
  facet normal 0.998027 -0.062794 0
    outer loop
      vertex 36.5 0 20
      vertex 36.5276 0.438665 3
      vertex 36.5276 0.438665 20
    endloop
  endfacet
  facet normal 0.998027 -0.062794 0
    outer loop
      vertex 36.5276 0.438665 3
      vertex 36.5 0 20
      vertex 36.5 0 3
    endloop
  endfacet
  facet normal 0.587773 -0.809026 0
    outer loop
      vertex 37.769 2.6968 3
      vertex 38.1246 2.95515 20
      vertex 37.769 2.6968 20
    endloop
  endfacet
  facet normal 0.587773 -0.809026 0
    outer loop
      vertex 38.1246 2.95515 20
      vertex 37.769 2.6968 3
      vertex 38.1246 2.95515 3
    endloop
  endfacet
  facet normal 0.481709 -0.876331 0
    outer loop
      vertex 38.1246 2.95515 3
      vertex 38.5098 3.16689 20
      vertex 38.1246 2.95515 20
    endloop
  endfacet
  facet normal 0.481709 -0.876331 0
    outer loop
      vertex 38.5098 3.16689 20
      vertex 38.1246 2.95515 3
      vertex 38.5098 3.16689 3
    endloop
  endfacet
  facet normal 0.684564 -0.728952 0
    outer loop
      vertex 37.4486 2.39591 3
      vertex 37.769 2.6968 20
      vertex 37.4486 2.39591 20
    endloop
  endfacet
  facet normal 0.684564 -0.728952 0
    outer loop
      vertex 37.769 2.6968 20
      vertex 37.4486 2.39591 3
      vertex 37.769 2.6968 3
    endloop
  endfacet
  facet normal 0.125357 -0.992112 0
    outer loop
      vertex 39.3442 3.438 3
      vertex 39.7802 3.49309 20
      vertex 39.3442 3.438 20
    endloop
  endfacet
  facet normal 0.125357 -0.992112 0
    outer loop
      vertex 39.7802 3.49309 20
      vertex 39.3442 3.438 3
      vertex 39.7802 3.49309 3
    endloop
  endfacet
  facet normal -0.998027 0.062794 0
    outer loop
      vertex 43.4724 -0.438665 3
      vertex 43.5 0 20
      vertex 43.5 0 3
    endloop
  endfacet
  facet normal -0.998027 0.062794 0
    outer loop
      vertex 43.5 0 20
      vertex 43.4724 -0.438665 3
      vertex 43.4724 -0.438665 20
    endloop
  endfacet
  facet normal -0.125357 0.992112 0
    outer loop
      vertex 40.6558 -3.438 3
      vertex 40.2198 -3.49309 20
      vertex 40.6558 -3.438 20
    endloop
  endfacet
  facet normal -0.125357 0.992112 0
    outer loop
      vertex 40.2198 -3.49309 20
      vertex 40.6558 -3.438 3
      vertex 40.2198 -3.49309 3
    endloop
  endfacet
  facet normal -0.368191 0.92975 0
    outer loop
      vertex 41.4902 -3.16689 3
      vertex 41.0816 -3.3287 20
      vertex 41.4902 -3.16689 20
    endloop
  endfacet
  facet normal -0.368191 0.92975 0
    outer loop
      vertex 41.0816 -3.3287 20
      vertex 41.4902 -3.16689 3
      vertex 41.0816 -3.3287 3
    endloop
  endfacet
  facet normal -0.684564 0.728952 0
    outer loop
      vertex 42.5514 -2.39591 3
      vertex 42.231 -2.6968 20
      vertex 42.5514 -2.39591 20
    endloop
  endfacet
  facet normal -0.684564 0.728952 0
    outer loop
      vertex 42.231 -2.6968 20
      vertex 42.5514 -2.39591 3
      vertex 42.231 -2.6968 3
    endloop
  endfacet
  facet normal -0.481709 0.876331 0
    outer loop
      vertex 41.8754 -2.95515 3
      vertex 41.4902 -3.16689 20
      vertex 41.8754 -2.95515 20
    endloop
  endfacet
  facet normal -0.481709 0.876331 0
    outer loop
      vertex 41.4902 -3.16689 20
      vertex 41.8754 -2.95515 3
      vertex 41.4902 -3.16689 3
    endloop
  endfacet
  facet normal -0.951071 0.308972 0
    outer loop
      vertex 43.2542 -1.28843 3
      vertex 43.39 -0.870414 20
      vertex 43.39 -0.870414 3
    endloop
  endfacet
  facet normal -0.951071 0.308972 0
    outer loop
      vertex 43.39 -0.870414 20
      vertex 43.2542 -1.28843 3
      vertex 43.2542 -1.28843 20
    endloop
  endfacet
  facet normal -0.844342 0.535805 0
    outer loop
      vertex 42.8316 -2.05725 3
      vertex 43.0671 -1.68614 20
      vertex 43.0671 -1.68614 3
    endloop
  endfacet
  facet normal -0.844342 0.535805 0
    outer loop
      vertex 43.0671 -1.68614 20
      vertex 42.8316 -2.05725 3
      vertex 42.8316 -2.05725 20
    endloop
  endfacet
  facet normal 0.587773 0.809026 -0
    outer loop
      vertex 38.1246 -2.95515 3
      vertex 37.769 -2.6968 20
      vertex 38.1246 -2.95515 20
    endloop
  endfacet
  facet normal 0.587773 0.809026 0
    outer loop
      vertex 37.769 -2.6968 20
      vertex 38.1246 -2.95515 3
      vertex 37.769 -2.6968 3
    endloop
  endfacet
  facet normal 0.368191 0.92975 -0
    outer loop
      vertex 38.9184 -3.3287 3
      vertex 38.5098 -3.16689 20
      vertex 38.9184 -3.3287 20
    endloop
  endfacet
  facet normal 0.368191 0.92975 0
    outer loop
      vertex 38.5098 -3.16689 20
      vertex 38.9184 -3.3287 3
      vertex 38.5098 -3.16689 3
    endloop
  endfacet
  facet normal 0.248633 0.968598 -0
    outer loop
      vertex 39.3442 -3.438 3
      vertex 38.9184 -3.3287 20
      vertex 39.3442 -3.438 20
    endloop
  endfacet
  facet normal 0.248633 0.968598 0
    outer loop
      vertex 38.9184 -3.3287 20
      vertex 39.3442 -3.438 3
      vertex 38.9184 -3.3287 3
    endloop
  endfacet
  facet normal 0 1 -0
    outer loop
      vertex 40.2198 -3.49309 3
      vertex 39.7802 -3.49309 20
      vertex 40.2198 -3.49309 20
    endloop
  endfacet
  facet normal 0 1 0
    outer loop
      vertex 39.7802 -3.49309 20
      vertex 40.2198 -3.49309 3
      vertex 39.7802 -3.49309 3
    endloop
  endfacet
  facet normal 0.770473 0.637473 0
    outer loop
      vertex 37.4486 -2.39591 20
      vertex 37.1684 -2.05725 3
      vertex 37.1684 -2.05725 20
    endloop
  endfacet
  facet normal 0.770473 0.637473 0
    outer loop
      vertex 37.1684 -2.05725 3
      vertex 37.4486 -2.39591 20
      vertex 37.4486 -2.39591 3
    endloop
  endfacet
  facet normal 0.951071 0.308972 0
    outer loop
      vertex 36.7458 -1.28843 20
      vertex 36.61 -0.870414 3
      vertex 36.61 -0.870414 20
    endloop
  endfacet
  facet normal 0.951071 0.308972 0
    outer loop
      vertex 36.61 -0.870414 3
      vertex 36.7458 -1.28843 20
      vertex 36.7458 -1.28843 3
    endloop
  endfacet
  facet normal -0.248633 0.968598 0
    outer loop
      vertex 41.0816 -3.3287 3
      vertex 40.6558 -3.438 20
      vertex 41.0816 -3.3287 20
    endloop
  endfacet
  facet normal -0.248633 0.968598 0
    outer loop
      vertex 40.6558 -3.438 20
      vertex 41.0816 -3.3287 3
      vertex 40.6558 -3.438 3
    endloop
  endfacet
  facet normal -0.770473 0.637473 0
    outer loop
      vertex 42.5514 -2.39591 3
      vertex 42.8316 -2.05725 20
      vertex 42.8316 -2.05725 3
    endloop
  endfacet
  facet normal -0.770473 0.637473 0
    outer loop
      vertex 42.8316 -2.05725 20
      vertex 42.5514 -2.39591 3
      vertex 42.5514 -2.39591 20
    endloop
  endfacet
  facet normal -0.587773 0.809026 0
    outer loop
      vertex 42.231 -2.6968 3
      vertex 41.8754 -2.95515 20
      vertex 42.231 -2.6968 20
    endloop
  endfacet
  facet normal -0.587773 0.809026 0
    outer loop
      vertex 41.8754 -2.95515 20
      vertex 42.231 -2.6968 3
      vertex 41.8754 -2.95515 3
    endloop
  endfacet
  facet normal -0.982271 0.187468 0
    outer loop
      vertex 43.39 -0.870414 3
      vertex 43.4724 -0.438665 20
      vertex 43.4724 -0.438665 3
    endloop
  endfacet
  facet normal -0.982271 0.187468 0
    outer loop
      vertex 43.4724 -0.438665 20
      vertex 43.39 -0.870414 3
      vertex 43.39 -0.870414 20
    endloop
  endfacet
  facet normal -0.904869 0.42569 0
    outer loop
      vertex 43.0671 -1.68614 3
      vertex 43.2542 -1.28843 20
      vertex 43.2542 -1.28843 3
    endloop
  endfacet
  facet normal -0.904869 0.42569 0
    outer loop
      vertex 43.2542 -1.28843 20
      vertex 43.0671 -1.68614 3
      vertex 43.0671 -1.68614 20
    endloop
  endfacet
  facet normal 0.481709 0.876331 -0
    outer loop
      vertex 38.5098 -3.16689 3
      vertex 38.1246 -2.95515 20
      vertex 38.5098 -3.16689 20
    endloop
  endfacet
  facet normal 0.481709 0.876331 0
    outer loop
      vertex 38.1246 -2.95515 20
      vertex 38.5098 -3.16689 3
      vertex 38.1246 -2.95515 3
    endloop
  endfacet
  facet normal 0.125357 0.992112 -0
    outer loop
      vertex 39.7802 -3.49309 3
      vertex 39.3442 -3.438 20
      vertex 39.7802 -3.49309 20
    endloop
  endfacet
  facet normal 0.125357 0.992112 0
    outer loop
      vertex 39.3442 -3.438 20
      vertex 39.7802 -3.49309 3
      vertex 39.3442 -3.438 3
    endloop
  endfacet
  facet normal 0.684564 0.728952 -0
    outer loop
      vertex 37.769 -2.6968 3
      vertex 37.4486 -2.39591 20
      vertex 37.769 -2.6968 20
    endloop
  endfacet
  facet normal 0.684564 0.728952 0
    outer loop
      vertex 37.4486 -2.39591 20
      vertex 37.769 -2.6968 3
      vertex 37.4486 -2.39591 3
    endloop
  endfacet
  facet normal 0.904869 0.42569 0
    outer loop
      vertex 36.9329 -1.68614 20
      vertex 36.7458 -1.28843 3
      vertex 36.7458 -1.28843 20
    endloop
  endfacet
  facet normal 0.904869 0.42569 0
    outer loop
      vertex 36.7458 -1.28843 3
      vertex 36.9329 -1.68614 20
      vertex 36.9329 -1.68614 3
    endloop
  endfacet
endsolid OpenSCAD_Model
