solid OpenSCAD_Model
  facet normal 0 0 -1
    outer loop
      vertex -19 -35 0
      vertex -22 -23 0
      vertex -13 -35 0
    endloop
  endfacet
  facet normal -0 0 -1
    outer loop
      vertex -19 0 0
      vertex -31 -21 0
      vertex -26 15 0
    endloop
  endfacet
  facet normal 0 0 -1
    outer loop
      vertex -31 -21 0
      vertex -22 -23 0
      vertex -19 -35 0
    endloop
  endfacet
  facet normal 0 0 -1
    outer loop
      vertex -19 0 0
      vertex -14 15 0
      vertex -12 -5 0
    endloop
  endfacet
  facet normal 0 0 -1
    outer loop
      vertex -19 0 0
      vertex -26 15 0
      vertex -14 15 0
    endloop
  endfacet
  facet normal 0 0 -1
    outer loop
      vertex -31 -21 0
      vertex -19 0 0
      vertex -22 -23 0
    endloop
  endfacet
  facet normal 0 0 -1
    outer loop
      vertex 19 0 0
      vertex 31 -21 0
      vertex 22 -23 0
    endloop
  endfacet
  facet normal 0 0 -1
    outer loop
      vertex 19 -35 0
      vertex 22 -23 0
      vertex 31 -21 0
    endloop
  endfacet
  facet normal 0 0 -1
    outer loop
      vertex 22 -23 0
      vertex 19 -35 0
      vertex 13 -35 0
    endloop
  endfacet
  facet normal 0 0 -1
    outer loop
      vertex 31 -21 0
      vertex 19 0 0
      vertex 26 15 0
    endloop
  endfacet
  facet normal 0 0 -1
    outer loop
      vertex 19 0 0
      vertex 14 15 0
      vertex 26 15 0
    endloop
  endfacet
  facet normal 0 0 -1
    outer loop
      vertex 12 -5 0
      vertex 14 15 0
      vertex 19 0 0
    endloop
  endfacet
  facet normal 0 0 -1
    outer loop
      vertex 4 19 0
      vertex 14 15 0
      vertex 12 -5 0
    endloop
  endfacet
  facet normal 0 0 -1
    outer loop
      vertex 14 15 0
      vertex 4 19 0
      vertex 14 41 0
    endloop
  endfacet
  facet normal 0 0 -1
    outer loop
      vertex -12 -5 0
      vertex 12 -5 0
      vertex 5 -30 0
    endloop
  endfacet
  facet normal -0 0 -1
    outer loop
      vertex 14 41 0
      vertex 4 19 0
      vertex 7 41 0
    endloop
  endfacet
  facet normal 0 0 -1
    outer loop
      vertex 12 -5 0
      vertex -12 -5 0
      vertex 4 19 0
    endloop
  endfacet
  facet normal 0 0 -1
    outer loop
      vertex -12 -5 0
      vertex 5 -30 0
      vertex -5 -30 0
    endloop
  endfacet
  facet normal -0 0 -1
    outer loop
      vertex 4 19 0
      vertex -12 -5 0
      vertex -4 19 0
    endloop
  endfacet
  facet normal 0 0 -1
    outer loop
      vertex -14 15 0
      vertex -4 19 0
      vertex -12 -5 0
    endloop
  endfacet
  facet normal 0 0 -1
    outer loop
      vertex -14 41 0
      vertex -4 19 0
      vertex -14 15 0
    endloop
  endfacet
  facet normal 0 0 -1
    outer loop
      vertex -4 19 0
      vertex -14 41 0
      vertex -7 41 0
    endloop
  endfacet
  facet normal 0 0 1
    outer loop
      vertex 19 0 13.25
      vertex 26 15 13.25
      vertex 19 15 13.25
    endloop
  endfacet
  facet normal 0 0 1
    outer loop
      vertex 26 15 13.25
      vertex 19 0 13.25
      vertex 22 -23 13.25
    endloop
  endfacet
  facet normal 0 0 1
    outer loop
      vertex 22 -23 13.25
      vertex 31 -21 13.25
      vertex 26 15 13.25
    endloop
  endfacet
  facet normal 0 0 1
    outer loop
      vertex 19 -27 13.25
      vertex 31 -21 13.25
      vertex 22 -23 13.25
    endloop
  endfacet
  facet normal 0 0 1
    outer loop
      vertex 31 -21 13.25
      vertex 19 -27 13.25
      vertex 19 -35 13.25
    endloop
  endfacet
  facet normal -0 0 1
    outer loop
      vertex -26 15 13.25
      vertex -19 0 13.25
      vertex -19 15 13.25
    endloop
  endfacet
  facet normal 0 0 1
    outer loop
      vertex -31 -21 13.25
      vertex -19 0 13.25
      vertex -26 15 13.25
    endloop
  endfacet
  facet normal 0 0 1
    outer loop
      vertex -22 -23 13.25
      vertex -19 -35 13.25
      vertex -19 -27 13.25
    endloop
  endfacet
  facet normal 0 0 1
    outer loop
      vertex -22 -23 13.25
      vertex -31 -21 13.25
      vertex -19 -35 13.25
    endloop
  endfacet
  facet normal 0 0 1
    outer loop
      vertex -19 0 13.25
      vertex -31 -21 13.25
      vertex -22 -23 13.25
    endloop
  endfacet
  facet normal 0.581238 -0.813733 0
    outer loop
      vertex 12 -5 0
      vertex 19 0 10.9037
      vertex 12 -5 11.1657
    endloop
  endfacet
  facet normal 0.581238 -0.813733 0
    outer loop
      vertex 19 0 10.9037
      vertex 12 -5 0
      vertex 19 0 0
    endloop
  endfacet
  facet normal -0.9916 -0.129339 0
    outer loop
      vertex 22 -23 0
      vertex 19 0 10.9037
      vertex 19 0 0
    endloop
  endfacet
  facet normal -0.9916 -0.129339 -0
    outer loop
      vertex 22 -23 13.25
      vertex 19 0 10.9037
      vertex 22 -23 0
    endloop
  endfacet
  facet normal -0.9916 -0.129339 0
    outer loop
      vertex 19 0 10.9037
      vertex 22 -23 13.25
      vertex 19 0 13.25
    endloop
  endfacet
  facet normal -0.8 0.6 0
    outer loop
      vertex 22 -23 0
      vertex 19 -27 12.3187
      vertex 22 -23 13.25
    endloop
  endfacet
  facet normal -0.8 0.6 0
    outer loop
      vertex 13 -35 0
      vertex 19 -27 12.3187
      vertex 22 -23 0
    endloop
  endfacet
  facet normal -0.8 0.6 0
    outer loop
      vertex 19 -27 12.3187
      vertex 13 -35 0
      vertex 13 -35 12.738
    endloop
  endfacet
  facet normal -0.8 0.6 0
    outer loop
      vertex 22 -23 13.25
      vertex 19 -27 12.3187
      vertex 19 -27 13.25
    endloop
  endfacet
  facet normal 0 -1 0
    outer loop
      vertex 13 -35 0
      vertex 19 -35 12.738
      vertex 13 -35 12.738
    endloop
  endfacet
  facet normal 0 -1 -0
    outer loop
      vertex 19 -35 12.738
      vertex 13 -35 0
      vertex 19 -35 0
    endloop
  endfacet
  facet normal 0.759257 -0.650791 0
    outer loop
      vertex 19 -35 12.738
      vertex 31 -21 13.25
      vertex 19 -35 13.25
    endloop
  endfacet
  facet normal 0.759257 -0.650791 0
    outer loop
      vertex 31 -21 13.25
      vertex 19 -35 12.738
      vertex 31 -21 0
    endloop
  endfacet
  facet normal 0.759257 -0.650791 0
    outer loop
      vertex 31 -21 0
      vertex 19 -35 12.738
      vertex 19 -35 0
    endloop
  endfacet
  facet normal 0.990492 0.137568 0
    outer loop
      vertex 31 -21 13.25
      vertex 26 15 0
      vertex 26 15 13.25
    endloop
  endfacet
  facet normal 0.990492 0.137568 0
    outer loop
      vertex 26 15 0
      vertex 31 -21 13.25
      vertex 31 -21 0
    endloop
  endfacet
  facet normal 0 1 0
    outer loop
      vertex 26 15 13.25
      vertex 19 15 10.1176
      vertex 19 15 13.25
    endloop
  endfacet
  facet normal 0 1 -0
    outer loop
      vertex 26 15 0
      vertex 19 15 10.1176
      vertex 26 15 13.25
    endloop
  endfacet
  facet normal 0 1 0
    outer loop
      vertex 14 15 0
      vertex 19 15 10.1176
      vertex 26 15 0
    endloop
  endfacet
  facet normal 0 1 0
    outer loop
      vertex 19 15 10.1176
      vertex 14 15 0
      vertex 14 15 10.1176
    endloop
  endfacet
  facet normal 1 0 0
    outer loop
      vertex 14 15 0
      vertex 14 41 8.75497
      vertex 14 15 10.1176
    endloop
  endfacet
  facet normal 1 0 0
    outer loop
      vertex 14 41 8.75497
      vertex 14 15 0
      vertex 14 41 0
    endloop
  endfacet
  facet normal 0 1 -0
    outer loop
      vertex 14 41 0
      vertex 7 41 8.75497
      vertex 14 41 8.75497
    endloop
  endfacet
  facet normal 0 1 0
    outer loop
      vertex 7 41 8.75497
      vertex 14 41 0
      vertex 7 41 0
    endloop
  endfacet
  facet normal -0.99083 0.135113 0
    outer loop
      vertex 4 19 0
      vertex 7 41 8.75497
      vertex 7 41 0
    endloop
  endfacet
  facet normal -0.99083 0.135113 0
    outer loop
      vertex 7 41 8.75497
      vertex 4 19 0
      vertex 4 19 9.90794
    endloop
  endfacet
  facet normal 0 1 -0
    outer loop
      vertex 4 19 0
      vertex -4 19 9.90794
      vertex 4 19 9.90794
    endloop
  endfacet
  facet normal 0 1 0
    outer loop
      vertex -4 19 9.90794
      vertex 4 19 0
      vertex -4 19 0
    endloop
  endfacet
  facet normal 0.99083 0.135113 -0
    outer loop
      vertex -4 19 0
      vertex -7 41 8.75497
      vertex -4 19 9.90794
    endloop
  endfacet
  facet normal 0.99083 0.135113 0
    outer loop
      vertex -7 41 8.75497
      vertex -4 19 0
      vertex -7 41 0
    endloop
  endfacet
  facet normal 0 1 -0
    outer loop
      vertex -7 41 0
      vertex -14 41 8.75497
      vertex -7 41 8.75497
    endloop
  endfacet
  facet normal 0 1 0
    outer loop
      vertex -14 41 8.75497
      vertex -7 41 0
      vertex -14 41 0
    endloop
  endfacet
  facet normal -1 0 0
    outer loop
      vertex -14 15 0
      vertex -14 41 8.75497
      vertex -14 41 0
    endloop
  endfacet
  facet normal -1 -0 0
    outer loop
      vertex -14 41 8.75497
      vertex -14 15 0
      vertex -14 15 10.1176
    endloop
  endfacet
  facet normal 0 1 0
    outer loop
      vertex -14 15 10.1176
      vertex -14 15 0
      vertex -19 15 10.1176
    endloop
  endfacet
  facet normal 0 1 -0
    outer loop
      vertex -19 15 10.1176
      vertex -26 15 13.25
      vertex -19 15 13.25
    endloop
  endfacet
  facet normal 0 1 0
    outer loop
      vertex -26 15 0
      vertex -19 15 10.1176
      vertex -14 15 0
    endloop
  endfacet
  facet normal 0 1 0
    outer loop
      vertex -19 15 10.1176
      vertex -26 15 0
      vertex -26 15 13.25
    endloop
  endfacet
  facet normal -0.990492 0.137568 0
    outer loop
      vertex -31 -21 0
      vertex -26 15 13.25
      vertex -26 15 0
    endloop
  endfacet
  facet normal -0.990492 0.137568 0
    outer loop
      vertex -26 15 13.25
      vertex -31 -21 0
      vertex -31 -21 13.25
    endloop
  endfacet
  facet normal -0.759257 -0.650791 -0
    outer loop
      vertex -19 -35 12.738
      vertex -31 -21 0
      vertex -19 -35 0
    endloop
  endfacet
  facet normal -0.759257 -0.650791 0
    outer loop
      vertex -31 -21 0
      vertex -19 -35 12.738
      vertex -31 -21 13.25
    endloop
  endfacet
  facet normal -0.759257 -0.650791 0
    outer loop
      vertex -31 -21 13.25
      vertex -19 -35 12.738
      vertex -19 -35 13.25
    endloop
  endfacet
  facet normal 0 -1 0
    outer loop
      vertex -19 -35 0
      vertex -13 -35 12.738
      vertex -19 -35 12.738
    endloop
  endfacet
  facet normal 0 -1 -0
    outer loop
      vertex -13 -35 12.738
      vertex -19 -35 0
      vertex -13 -35 0
    endloop
  endfacet
  facet normal 0.8 0.6 -0
    outer loop
      vertex -19 -27 12.3187
      vertex -22 -23 13.25
      vertex -19 -27 13.25
    endloop
  endfacet
  facet normal 0.8 0.6 0
    outer loop
      vertex -22 -23 13.25
      vertex -19 -27 12.3187
      vertex -22 -23 0
    endloop
  endfacet
  facet normal 0.8 0.6 -0
    outer loop
      vertex -13 -35 0
      vertex -19 -27 12.3187
      vertex -13 -35 12.738
    endloop
  endfacet
  facet normal 0.8 0.6 0
    outer loop
      vertex -19 -27 12.3187
      vertex -13 -35 0
      vertex -22 -23 0
    endloop
  endfacet
  facet normal 0.9916 -0.129339 0
    outer loop
      vertex -22 -23 13.25
      vertex -19 0 10.9037
      vertex -19 0 13.25
    endloop
  endfacet
  facet normal 0.9916 -0.129339 0
    outer loop
      vertex -22 -23 0
      vertex -19 0 10.9037
      vertex -22 -23 13.25
    endloop
  endfacet
  facet normal 0.9916 -0.129339 0
    outer loop
      vertex -19 0 10.9037
      vertex -22 -23 0
      vertex -19 0 0
    endloop
  endfacet
  facet normal -0.581238 -0.813733 0
    outer loop
      vertex -12 -5 0
      vertex -19 0 10.9037
      vertex -19 0 0
    endloop
  endfacet
  facet normal -0.581238 -0.813733 0
    outer loop
      vertex -19 0 10.9037
      vertex -12 -5 0
      vertex -12 -5 11.1657
    endloop
  endfacet
  facet normal -0.962964 -0.26963 0
    outer loop
      vertex -5 -30 0
      vertex -12 -5 11.1657
      vertex -12 -5 0
    endloop
  endfacet
  facet normal -0.962964 -0.26963 0
    outer loop
      vertex -12 -5 11.1657
      vertex -5 -30 0
      vertex -5 -30 12.4759
    endloop
  endfacet
  facet normal 0 -1 0
    outer loop
      vertex -5 -30 0
      vertex 5 -30 12.4759
      vertex -5 -30 12.4759
    endloop
  endfacet
  facet normal 0 -1 -0
    outer loop
      vertex 5 -30 12.4759
      vertex -5 -30 0
      vertex 5 -30 0
    endloop
  endfacet
  facet normal 0.962964 -0.26963 0
    outer loop
      vertex 5 -30 0
      vertex 12 -5 11.1657
      vertex 5 -30 12.4759
    endloop
  endfacet
  facet normal 0.962964 -0.26963 0
    outer loop
      vertex 12 -5 11.1657
      vertex 5 -30 0
      vertex 12 -5 0
    endloop
  endfacet
  facet normal 1 0 0
    outer loop
      vertex -19 -35 12.738
      vertex -19 -27 13.25
      vertex -19 -35 13.25
    endloop
  endfacet
  facet normal 1 0 0
    outer loop
      vertex -19 -27 13.25
      vertex -19 -35 12.738
      vertex -19 -27 12.3187
    endloop
  endfacet
  facet normal 1 0 0
    outer loop
      vertex -19 0 10.9037
      vertex -19 15 13.25
      vertex -19 0 13.25
    endloop
  endfacet
  facet normal 1 0 0
    outer loop
      vertex -19 15 13.25
      vertex -19 0 10.9037
      vertex -19 15 10.1176
    endloop
  endfacet
  facet normal -1 0 0
    outer loop
      vertex 19 0 10.9037
      vertex 19 15 13.25
      vertex 19 15 10.1176
    endloop
  endfacet
  facet normal -1 -0 0
    outer loop
      vertex 19 15 13.25
      vertex 19 0 10.9037
      vertex 19 0 13.25
    endloop
  endfacet
  facet normal -1 0 0
    outer loop
      vertex 19 -35 12.738
      vertex 19 -27 13.25
      vertex 19 -27 12.3187
    endloop
  endfacet
  facet normal -1 -0 0
    outer loop
      vertex 19 -27 13.25
      vertex 19 -35 12.738
      vertex 19 -35 13.25
    endloop
  endfacet
  facet normal 0 0.0523359 0.99863
    outer loop
      vertex -13 -35 12.738
      vertex -19 -27 12.3187
      vertex -19 -35 12.738
    endloop
  endfacet
  facet normal 1.8847e-07 0.0523363 0.99863
    outer loop
      vertex 12 -5 11.1657
      vertex 3.52133 0.748482 10.8645
      vertex 3.6 0 10.9037
    endloop
  endfacet
  facet normal 7.97806e-08 0.0523359 0.99863
    outer loop
      vertex 14 15 10.1176
      vertex 3.28876 1.46425 10.827
      vertex 3.52133 0.748482 10.8645
    endloop
  endfacet
  facet normal 3.72683e-07 0.0523356 0.99863
    outer loop
      vertex 14 15 10.1176
      vertex 2.91246 2.11603 10.7928
      vertex 3.28876 1.46425 10.827
    endloop
  endfacet
  facet normal 1.68478e-07 0.0523358 0.99863
    outer loop
      vertex 14 15 10.1176
      vertex 2.40887 2.67532 10.7635
      vertex 2.91246 2.11603 10.7928
    endloop
  endfacet
  facet normal -1.59027e-07 0.0523361 0.99863
    outer loop
      vertex 14 15 10.1176
      vertex 1.8 3.11769 10.7403
      vertex 2.40887 2.67532 10.7635
    endloop
  endfacet
  facet normal -6.26261e-08 0.052336 0.99863
    outer loop
      vertex 4 19 9.90794
      vertex 1.11246 3.4238 10.7243
      vertex 1.8 3.11769 10.7403
    endloop
  endfacet
  facet normal -1.77504e-07 0.052336 0.99863
    outer loop
      vertex 4 19 9.90794
      vertex 0.376302 3.58028 10.7161
      vertex 1.11246 3.4238 10.7243
    endloop
  endfacet
  facet normal 0 0.0523359 0.99863
    outer loop
      vertex 4 19 9.90794
      vertex -0.376302 3.58028 10.7161
      vertex 0.376302 3.58028 10.7161
    endloop
  endfacet
  facet normal -0 0.0523359 0.99863
    outer loop
      vertex -4 19 9.90794
      vertex -0.376302 3.58028 10.7161
      vertex 4 19 9.90794
    endloop
  endfacet
  facet normal 1.77504e-07 0.052336 0.99863
    outer loop
      vertex -0.376302 3.58028 10.7161
      vertex -4 19 9.90794
      vertex -1.11246 3.4238 10.7243
    endloop
  endfacet
  facet normal 6.26261e-08 0.052336 0.99863
    outer loop
      vertex -1.11246 3.4238 10.7243
      vertex -4 19 9.90794
      vertex -1.8 3.11769 10.7403
    endloop
  endfacet
  facet normal -1.21488e-08 0.0523359 0.99863
    outer loop
      vertex -14 15 10.1176
      vertex -1.8 3.11769 10.7403
      vertex -4 19 9.90794
    endloop
  endfacet
  facet normal 1.59027e-07 0.0523361 0.99863
    outer loop
      vertex -1.8 3.11769 10.7403
      vertex -14 15 10.1176
      vertex -2.40887 2.67532 10.7635
    endloop
  endfacet
  facet normal 1.28489e-08 0.0523359 0.99863
    outer loop
      vertex -19 0 10.9037
      vertex -3.28876 1.46425 10.827
      vertex -14 15 10.1176
    endloop
  endfacet
  facet normal -3.72683e-07 0.0523356 0.99863
    outer loop
      vertex -2.91246 2.11603 10.7928
      vertex -14 15 10.1176
      vertex -3.28876 1.46425 10.827
    endloop
  endfacet
  facet normal -1.68478e-07 0.0523358 0.99863
    outer loop
      vertex -2.40887 2.67532 10.7635
      vertex -14 15 10.1176
      vertex -2.91246 2.11603 10.7928
    endloop
  endfacet
  facet normal 1.46518e-08 0.052336 0.99863
    outer loop
      vertex 4 19 9.90794
      vertex 14 15 10.1176
      vertex 14 41 8.75497
    endloop
  endfacet
  facet normal 0 0.052336 0.99863
    outer loop
      vertex 4 19 9.90794
      vertex 14 41 8.75497
      vertex 7 41 8.75497
    endloop
  endfacet
  facet normal 1.21488e-08 0.0523359 0.99863
    outer loop
      vertex 1.8 3.11769 10.7403
      vertex 14 15 10.1176
      vertex 4 19 9.90794
    endloop
  endfacet
  facet normal -1.34429e-08 0.052336 0.99863
    outer loop
      vertex 19 0 10.9037
      vertex 3.52133 0.748482 10.8645
      vertex 12 -5 11.1657
    endloop
  endfacet
  facet normal 1.66276e-07 0.0523363 0.99863
    outer loop
      vertex 3.52133 -0.748482 10.9429
      vertex 12 -5 11.1657
      vertex 3.6 0 10.9037
    endloop
  endfacet
  facet normal -4.94748e-08 0.0523359 0.99863
    outer loop
      vertex 3.28876 -1.46425 10.9804
      vertex 12 -5 11.1657
      vertex 3.52133 -0.748482 10.9429
    endloop
  endfacet
  facet normal -1.83814e-07 0.0523355 0.99863
    outer loop
      vertex 2.91246 -2.11603 11.0146
      vertex 12 -5 11.1657
      vertex 3.28876 -1.46425 10.9804
    endloop
  endfacet
  facet normal 3.10179e-07 0.0523371 0.998629
    outer loop
      vertex 2.40887 -2.67532 11.0439
      vertex 12 -5 11.1657
      vertex 2.91246 -2.11603 11.0146
    endloop
  endfacet
  facet normal -2.94078e-07 0.0523346 0.99863
    outer loop
      vertex 1.8 -3.11769 11.0671
      vertex 12 -5 11.1657
      vertex 2.40887 -2.67532 11.0439
    endloop
  endfacet
  facet normal -1.16216e-08 0.0523361 0.99863
    outer loop
      vertex 1.11246 -3.4238 11.0831
      vertex 12 -5 11.1657
      vertex 1.8 -3.11769 11.0671
    endloop
  endfacet
  facet normal -3.20873e-08 0.052336 0.99863
    outer loop
      vertex 12 -5 11.1657
      vertex 1.11246 -3.4238 11.0831
      vertex 5 -30 12.4759
    endloop
  endfacet
  facet normal 1.70339e-07 0.052336 0.99863
    outer loop
      vertex 0.376302 -3.58028 11.0913
      vertex 5 -30 12.4759
      vertex 1.11246 -3.4238 11.0831
    endloop
  endfacet
  facet normal -0 0.052336 0.99863
    outer loop
      vertex -0.376302 -3.58028 11.0913
      vertex 5 -30 12.4759
      vertex 0.376302 -3.58028 11.0913
    endloop
  endfacet
  facet normal -1.70339e-07 0.052336 0.99863
    outer loop
      vertex -5 -30 12.4759
      vertex -0.376302 -3.58028 11.0913
      vertex -1.11246 -3.4238 11.0831
    endloop
  endfacet
  facet normal 1.16216e-08 0.0523361 0.99863
    outer loop
      vertex -12 -5 11.1657
      vertex -1.11246 -3.4238 11.0831
      vertex -1.8 -3.11769 11.0671
    endloop
  endfacet
  facet normal 2.94078e-07 0.0523346 0.99863
    outer loop
      vertex -12 -5 11.1657
      vertex -1.8 -3.11769 11.0671
      vertex -2.40887 -2.67532 11.0439
    endloop
  endfacet
  facet normal -3.10179e-07 0.0523371 0.998629
    outer loop
      vertex -12 -5 11.1657
      vertex -2.40887 -2.67532 11.0439
      vertex -2.91246 -2.11603 11.0146
    endloop
  endfacet
  facet normal 1.83814e-07 0.0523355 0.99863
    outer loop
      vertex -12 -5 11.1657
      vertex -2.91246 -2.11603 11.0146
      vertex -3.28876 -1.46425 10.9804
    endloop
  endfacet
  facet normal 4.94748e-08 0.0523359 0.99863
    outer loop
      vertex -12 -5 11.1657
      vertex -3.28876 -1.46425 10.9804
      vertex -3.52133 -0.748482 10.9429
    endloop
  endfacet
  facet normal 0 0.052336 0.99863
    outer loop
      vertex -0.376302 -3.58028 11.0913
      vertex -5 -30 12.4759
      vertex 5 -30 12.4759
    endloop
  endfacet
  facet normal -1.66276e-07 0.0523363 0.99863
    outer loop
      vertex -12 -5 11.1657
      vertex -3.52133 -0.748482 10.9429
      vertex -3.6 0 10.9037
    endloop
  endfacet
  facet normal 2.27862e-08 0.0523358 0.99863
    outer loop
      vertex -3.28876 1.46425 10.827
      vertex -19 0 10.9037
      vertex -3.52133 0.748482 10.8645
    endloop
  endfacet
  facet normal -0 0.052336 0.99863
    outer loop
      vertex -14 41 8.75497
      vertex -4 19 9.90794
      vertex -7 41 8.75497
    endloop
  endfacet
  facet normal 3.20873e-08 0.052336 0.99863
    outer loop
      vertex -1.11246 -3.4238 11.0831
      vertex -12 -5 11.1657
      vertex -5 -30 12.4759
    endloop
  endfacet
  facet normal -1.46518e-08 0.052336 0.99863
    outer loop
      vertex -4 19 9.90794
      vertex -14 41 8.75497
      vertex -14 15 10.1176
    endloop
  endfacet
  facet normal 1.34429e-08 0.052336 0.99863
    outer loop
      vertex -12 -5 11.1657
      vertex -3.52133 0.748482 10.8645
      vertex -19 0 10.9037
    endloop
  endfacet
  facet normal 0 0.052336 0.99863
    outer loop
      vertex -19 0 10.9037
      vertex -14 15 10.1176
      vertex -19 15 10.1176
    endloop
  endfacet
  facet normal -1.8847e-07 0.0523363 0.99863
    outer loop
      vertex -3.52133 0.748482 10.8645
      vertex -12 -5 11.1657
      vertex -3.6 0 10.9037
    endloop
  endfacet
  facet normal -0 0.052336 0.99863
    outer loop
      vertex 14 15 10.1176
      vertex 19 0 10.9037
      vertex 19 15 10.1176
    endloop
  endfacet
  facet normal -1.77086e-08 0.0523359 0.99863
    outer loop
      vertex 3.52133 0.748482 10.8645
      vertex 19 0 10.9037
      vertex 14 15 10.1176
    endloop
  endfacet
  facet normal 0 0.0523359 0.99863
    outer loop
      vertex 19 -35 12.738
      vertex 19 -27 12.3187
      vertex 13 -35 12.738
    endloop
  endfacet
  facet normal 0.994522 0.104528 -0
    outer loop
      vertex 3.6 0 10.9037
      vertex 3.52133 0.748482 18
      vertex 3.6 0 18
    endloop
  endfacet
  facet normal 0.994522 0.104528 0
    outer loop
      vertex 3.52133 0.748482 18
      vertex 3.6 0 10.9037
      vertex 3.52133 0.748482 10.8645
    endloop
  endfacet
  facet normal -0.994522 0.104528 0
    outer loop
      vertex -3.6 0 10.9037
      vertex -3.52133 0.748482 18
      vertex -3.52133 0.748482 10.8645
    endloop
  endfacet
  facet normal -0.994522 0.104528 0
    outer loop
      vertex -3.52133 0.748482 18
      vertex -3.6 0 10.9037
      vertex -3.6 0 18
    endloop
  endfacet
  facet normal 0 1 -0
    outer loop
      vertex 0.376302 3.58028 10.7161
      vertex -0.376302 3.58028 18
      vertex 0.376302 3.58028 18
    endloop
  endfacet
  facet normal 0 1 0
    outer loop
      vertex -0.376302 3.58028 18
      vertex 0.376302 3.58028 10.7161
      vertex -0.376302 3.58028 10.7161
    endloop
  endfacet
  facet normal 0 -1 0
    outer loop
      vertex -0.376302 -3.58028 11.0913
      vertex 0.376302 -3.58028 18
      vertex -0.376302 -3.58028 18
    endloop
  endfacet
  facet normal 0 -1 -0
    outer loop
      vertex 0.376302 -3.58028 18
      vertex -0.376302 -3.58028 11.0913
      vertex 0.376302 -3.58028 11.0913
    endloop
  endfacet
  facet normal 0.743145 0.669131 -0
    outer loop
      vertex 2.91246 2.11603 10.7928
      vertex 2.40887 2.67532 18
      vertex 2.91246 2.11603 18
    endloop
  endfacet
  facet normal 0.743145 0.669131 0
    outer loop
      vertex 2.40887 2.67532 18
      vertex 2.91246 2.11603 10.7928
      vertex 2.40887 2.67532 10.7635
    endloop
  endfacet
  facet normal -0.743145 0.669131 0
    outer loop
      vertex -2.91246 2.11603 10.7928
      vertex -2.40887 2.67532 18
      vertex -2.40887 2.67532 10.7635
    endloop
  endfacet
  facet normal -0.743145 0.669131 0
    outer loop
      vertex -2.40887 2.67532 18
      vertex -2.91246 2.11603 10.7928
      vertex -2.91246 2.11603 18
    endloop
  endfacet
  facet normal -0.866025 0.5 0
    outer loop
      vertex -3.28876 1.46425 10.827
      vertex -2.91246 2.11603 18
      vertex -2.91246 2.11603 10.7928
    endloop
  endfacet
  facet normal -0.866025 0.5 0
    outer loop
      vertex -2.91246 2.11603 18
      vertex -3.28876 1.46425 10.827
      vertex -3.28876 1.46425 18
    endloop
  endfacet
  facet normal -0.406737 0.913545 0
    outer loop
      vertex -1.11246 3.4238 18
      vertex -1.8 3.11769 10.7403
      vertex -1.8 3.11769 18
    endloop
  endfacet
  facet normal -0.406737 0.913545 0
    outer loop
      vertex -1.8 3.11769 10.7403
      vertex -1.11246 3.4238 18
      vertex -1.11246 3.4238 10.7243
    endloop
  endfacet
  facet normal 0.866025 -0.5 0
    outer loop
      vertex 2.91246 -2.11603 11.0146
      vertex 3.28876 -1.46425 18
      vertex 2.91246 -2.11603 18
    endloop
  endfacet
  facet normal 0.866025 -0.5 0
    outer loop
      vertex 3.28876 -1.46425 18
      vertex 2.91246 -2.11603 11.0146
      vertex 3.28876 -1.46425 10.9804
    endloop
  endfacet
  facet normal 0.866025 0.5 -0
    outer loop
      vertex 3.28876 1.46425 10.827
      vertex 2.91246 2.11603 18
      vertex 3.28876 1.46425 18
    endloop
  endfacet
  facet normal 0.866025 0.5 0
    outer loop
      vertex 2.91246 2.11603 18
      vertex 3.28876 1.46425 10.827
      vertex 2.91246 2.11603 10.7928
    endloop
  endfacet
  facet normal 0.951056 0.309017 -0
    outer loop
      vertex 3.52133 0.748482 10.8645
      vertex 3.28876 1.46425 18
      vertex 3.52133 0.748482 18
    endloop
  endfacet
  facet normal 0.951056 0.309017 0
    outer loop
      vertex 3.28876 1.46425 18
      vertex 3.52133 0.748482 10.8645
      vertex 3.28876 1.46425 10.827
    endloop
  endfacet
  facet normal 0.406737 0.913545 -0
    outer loop
      vertex 1.8 3.11769 10.7403
      vertex 1.11246 3.4238 18
      vertex 1.8 3.11769 18
    endloop
  endfacet
  facet normal 0.406737 0.913545 0
    outer loop
      vertex 1.11246 3.4238 18
      vertex 1.8 3.11769 10.7403
      vertex 1.11246 3.4238 10.7243
    endloop
  endfacet
  facet normal 0.207911 0.978148 -0
    outer loop
      vertex 1.11246 3.4238 10.7243
      vertex 0.376302 3.58028 18
      vertex 1.11246 3.4238 18
    endloop
  endfacet
  facet normal 0.207911 0.978148 0
    outer loop
      vertex 0.376302 3.58028 18
      vertex 1.11246 3.4238 10.7243
      vertex 0.376302 3.58028 10.7161
    endloop
  endfacet
  facet normal 0.587785 0.809017 -0
    outer loop
      vertex 2.40887 2.67532 10.7635
      vertex 1.8 3.11769 18
      vertex 2.40887 2.67532 18
    endloop
  endfacet
  facet normal 0.587785 0.809017 0
    outer loop
      vertex 1.8 3.11769 18
      vertex 2.40887 2.67532 10.7635
      vertex 1.8 3.11769 10.7403
    endloop
  endfacet
  facet normal -0.951056 0.309017 0
    outer loop
      vertex -3.52133 0.748482 10.8645
      vertex -3.28876 1.46425 18
      vertex -3.28876 1.46425 10.827
    endloop
  endfacet
  facet normal -0.951056 0.309017 0
    outer loop
      vertex -3.28876 1.46425 18
      vertex -3.52133 0.748482 10.8645
      vertex -3.52133 0.748482 18
    endloop
  endfacet
  facet normal 0 0 1
    outer loop
      vertex 3.52133 0.748482 18
      vertex 3.52133 -0.748482 18
      vertex 3.6 0 18
    endloop
  endfacet
  facet normal 0 0 1
    outer loop
      vertex 3.28876 1.46425 18
      vertex 3.52133 -0.748482 18
      vertex 3.52133 0.748482 18
    endloop
  endfacet
  facet normal 0 0 1
    outer loop
      vertex 3.28876 1.46425 18
      vertex 3.28876 -1.46425 18
      vertex 3.52133 -0.748482 18
    endloop
  endfacet
  facet normal 0 0 1
    outer loop
      vertex 2.91246 2.11603 18
      vertex 3.28876 -1.46425 18
      vertex 3.28876 1.46425 18
    endloop
  endfacet
  facet normal 0 0 1
    outer loop
      vertex 2.91246 2.11603 18
      vertex 2.91246 -2.11603 18
      vertex 3.28876 -1.46425 18
    endloop
  endfacet
  facet normal 0 0 1
    outer loop
      vertex 2.40887 2.67532 18
      vertex 2.91246 -2.11603 18
      vertex 2.91246 2.11603 18
    endloop
  endfacet
  facet normal 0 0 1
    outer loop
      vertex 2.40887 2.67532 18
      vertex 2.40887 -2.67532 18
      vertex 2.91246 -2.11603 18
    endloop
  endfacet
  facet normal 0 0 1
    outer loop
      vertex 1.8 3.11769 18
      vertex 2.40887 -2.67532 18
      vertex 2.40887 2.67532 18
    endloop
  endfacet
  facet normal 0 0 1
    outer loop
      vertex 1.8 3.11769 18
      vertex 1.8 -3.11769 18
      vertex 2.40887 -2.67532 18
    endloop
  endfacet
  facet normal 0 0 1
    outer loop
      vertex 1.11246 3.4238 18
      vertex 1.8 -3.11769 18
      vertex 1.8 3.11769 18
    endloop
  endfacet
  facet normal 0 0 1
    outer loop
      vertex 1.11246 3.4238 18
      vertex 1.11246 -3.4238 18
      vertex 1.8 -3.11769 18
    endloop
  endfacet
  facet normal 0 0 1
    outer loop
      vertex 0.376302 3.58028 18
      vertex 1.11246 -3.4238 18
      vertex 1.11246 3.4238 18
    endloop
  endfacet
  facet normal 0 0 1
    outer loop
      vertex 0.376302 3.58028 18
      vertex 0.376302 -3.58028 18
      vertex 1.11246 -3.4238 18
    endloop
  endfacet
  facet normal -0 0 1
    outer loop
      vertex -0.376302 3.58028 18
      vertex 0.376302 -3.58028 18
      vertex 0.376302 3.58028 18
    endloop
  endfacet
  facet normal 0 0 1
    outer loop
      vertex -0.376302 3.58028 18
      vertex -0.376302 -3.58028 18
      vertex 0.376302 -3.58028 18
    endloop
  endfacet
  facet normal -0 0 1
    outer loop
      vertex -1.11246 3.4238 18
      vertex -0.376302 -3.58028 18
      vertex -0.376302 3.58028 18
    endloop
  endfacet
  facet normal 0 0 1
    outer loop
      vertex -1.11246 3.4238 18
      vertex -1.11246 -3.4238 18
      vertex -0.376302 -3.58028 18
    endloop
  endfacet
  facet normal -0 0 1
    outer loop
      vertex -1.8 3.11769 18
      vertex -1.11246 -3.4238 18
      vertex -1.11246 3.4238 18
    endloop
  endfacet
  facet normal 0 0 1
    outer loop
      vertex -1.8 3.11769 18
      vertex -1.8 -3.11769 18
      vertex -1.11246 -3.4238 18
    endloop
  endfacet
  facet normal -0 0 1
    outer loop
      vertex -2.40887 2.67532 18
      vertex -1.8 -3.11769 18
      vertex -1.8 3.11769 18
    endloop
  endfacet
  facet normal 0 0 1
    outer loop
      vertex -2.40887 2.67532 18
      vertex -2.40887 -2.67532 18
      vertex -1.8 -3.11769 18
    endloop
  endfacet
  facet normal -0 0 1
    outer loop
      vertex -2.91246 2.11603 18
      vertex -2.40887 -2.67532 18
      vertex -2.40887 2.67532 18
    endloop
  endfacet
  facet normal 0 0 1
    outer loop
      vertex -2.91246 2.11603 18
      vertex -2.91246 -2.11603 18
      vertex -2.40887 -2.67532 18
    endloop
  endfacet
  facet normal -0 0 1
    outer loop
      vertex -3.28876 1.46425 18
      vertex -2.91246 -2.11603 18
      vertex -2.91246 2.11603 18
    endloop
  endfacet
  facet normal 0 0 1
    outer loop
      vertex -3.28876 1.46425 18
      vertex -3.28876 -1.46425 18
      vertex -2.91246 -2.11603 18
    endloop
  endfacet
  facet normal -0 0 1
    outer loop
      vertex -3.52133 0.748482 18
      vertex -3.28876 -1.46425 18
      vertex -3.28876 1.46425 18
    endloop
  endfacet
  facet normal 0 0 1
    outer loop
      vertex -3.52133 0.748482 18
      vertex -3.52133 -0.748482 18
      vertex -3.28876 -1.46425 18
    endloop
  endfacet
  facet normal 0 -0 1
    outer loop
      vertex -3.52133 -0.748482 18
      vertex -3.52133 0.748482 18
      vertex -3.6 0 18
    endloop
  endfacet
  facet normal -0.587785 0.809017 0
    outer loop
      vertex -1.8 3.11769 18
      vertex -2.40887 2.67532 10.7635
      vertex -2.40887 2.67532 18
    endloop
  endfacet
  facet normal -0.587785 0.809017 0
    outer loop
      vertex -2.40887 2.67532 10.7635
      vertex -1.8 3.11769 18
      vertex -1.8 3.11769 10.7403
    endloop
  endfacet
  facet normal -0.207911 0.978148 0
    outer loop
      vertex -0.376302 3.58028 18
      vertex -1.11246 3.4238 10.7243
      vertex -1.11246 3.4238 18
    endloop
  endfacet
  facet normal -0.207911 0.978148 0
    outer loop
      vertex -1.11246 3.4238 10.7243
      vertex -0.376302 3.58028 18
      vertex -0.376302 3.58028 10.7161
    endloop
  endfacet
  facet normal 0.994522 -0.104528 0
    outer loop
      vertex 3.52133 -0.748482 10.9429
      vertex 3.6 0 18
      vertex 3.52133 -0.748482 18
    endloop
  endfacet
  facet normal 0.994522 -0.104528 0
    outer loop
      vertex 3.6 0 18
      vertex 3.52133 -0.748482 10.9429
      vertex 3.6 0 10.9037
    endloop
  endfacet
  facet normal 0.207911 -0.978148 0
    outer loop
      vertex 0.376302 -3.58028 11.0913
      vertex 1.11246 -3.4238 18
      vertex 0.376302 -3.58028 18
    endloop
  endfacet
  facet normal 0.207911 -0.978148 0
    outer loop
      vertex 1.11246 -3.4238 18
      vertex 0.376302 -3.58028 11.0913
      vertex 1.11246 -3.4238 11.0831
    endloop
  endfacet
  facet normal 0.951056 -0.309017 0
    outer loop
      vertex 3.28876 -1.46425 10.9804
      vertex 3.52133 -0.748482 18
      vertex 3.28876 -1.46425 18
    endloop
  endfacet
  facet normal 0.951056 -0.309017 0
    outer loop
      vertex 3.52133 -0.748482 18
      vertex 3.28876 -1.46425 10.9804
      vertex 3.52133 -0.748482 10.9429
    endloop
  endfacet
  facet normal -0.866025 -0.5 0
    outer loop
      vertex -2.91246 -2.11603 11.0146
      vertex -3.28876 -1.46425 18
      vertex -3.28876 -1.46425 10.9804
    endloop
  endfacet
  facet normal -0.866025 -0.5 0
    outer loop
      vertex -3.28876 -1.46425 18
      vertex -2.91246 -2.11603 11.0146
      vertex -2.91246 -2.11603 18
    endloop
  endfacet
  facet normal 0.587785 -0.809017 0
    outer loop
      vertex 1.8 -3.11769 11.0671
      vertex 2.40887 -2.67532 18
      vertex 1.8 -3.11769 18
    endloop
  endfacet
  facet normal 0.587785 -0.809017 0
    outer loop
      vertex 2.40887 -2.67532 18
      vertex 1.8 -3.11769 11.0671
      vertex 2.40887 -2.67532 11.0439
    endloop
  endfacet
  facet normal 0.406737 -0.913545 0
    outer loop
      vertex 1.11246 -3.4238 11.0831
      vertex 1.8 -3.11769 18
      vertex 1.11246 -3.4238 18
    endloop
  endfacet
  facet normal 0.406737 -0.913545 0
    outer loop
      vertex 1.8 -3.11769 18
      vertex 1.11246 -3.4238 11.0831
      vertex 1.8 -3.11769 11.0671
    endloop
  endfacet
  facet normal -0.207911 -0.978148 0
    outer loop
      vertex -1.11246 -3.4238 18
      vertex -0.376302 -3.58028 11.0913
      vertex -0.376302 -3.58028 18
    endloop
  endfacet
  facet normal -0.207911 -0.978148 0
    outer loop
      vertex -0.376302 -3.58028 11.0913
      vertex -1.11246 -3.4238 18
      vertex -1.11246 -3.4238 11.0831
    endloop
  endfacet
  facet normal -0.743145 -0.669131 0
    outer loop
      vertex -2.40887 -2.67532 11.0439
      vertex -2.91246 -2.11603 18
      vertex -2.91246 -2.11603 11.0146
    endloop
  endfacet
  facet normal -0.743145 -0.669131 0
    outer loop
      vertex -2.91246 -2.11603 18
      vertex -2.40887 -2.67532 11.0439
      vertex -2.40887 -2.67532 18
    endloop
  endfacet
  facet normal -0.951056 -0.309017 0
    outer loop
      vertex -3.28876 -1.46425 10.9804
      vertex -3.52133 -0.748482 18
      vertex -3.52133 -0.748482 10.9429
    endloop
  endfacet
  facet normal -0.951056 -0.309017 0
    outer loop
      vertex -3.52133 -0.748482 18
      vertex -3.28876 -1.46425 10.9804
      vertex -3.28876 -1.46425 18
    endloop
  endfacet
  facet normal -0.994522 -0.104528 0
    outer loop
      vertex -3.52133 -0.748482 10.9429
      vertex -3.6 0 18
      vertex -3.6 0 10.9037
    endloop
  endfacet
  facet normal -0.994522 -0.104528 0
    outer loop
      vertex -3.6 0 18
      vertex -3.52133 -0.748482 10.9429
      vertex -3.52133 -0.748482 18
    endloop
  endfacet
  facet normal 0.743145 -0.669131 0
    outer loop
      vertex 2.40887 -2.67532 11.0439
      vertex 2.91246 -2.11603 18
      vertex 2.40887 -2.67532 18
    endloop
  endfacet
  facet normal 0.743145 -0.669131 0
    outer loop
      vertex 2.91246 -2.11603 18
      vertex 2.40887 -2.67532 11.0439
      vertex 2.91246 -2.11603 11.0146
    endloop
  endfacet
  facet normal -0.406737 -0.913545 0
    outer loop
      vertex -1.8 -3.11769 18
      vertex -1.11246 -3.4238 11.0831
      vertex -1.11246 -3.4238 18
    endloop
  endfacet
  facet normal -0.406737 -0.913545 0
    outer loop
      vertex -1.11246 -3.4238 11.0831
      vertex -1.8 -3.11769 18
      vertex -1.8 -3.11769 11.0671
    endloop
  endfacet
  facet normal -0.587785 -0.809017 0
    outer loop
      vertex -2.40887 -2.67532 18
      vertex -1.8 -3.11769 11.0671
      vertex -1.8 -3.11769 18
    endloop
  endfacet
  facet normal -0.587785 -0.809017 0
    outer loop
      vertex -1.8 -3.11769 11.0671
      vertex -2.40887 -2.67532 18
      vertex -2.40887 -2.67532 11.0439
    endloop
  endfacet
endsolid OpenSCAD_Model
