solid OpenSCAD_Model
  facet normal 0 0 1
    outer loop
      vertex 38.018 52.2006 23.25
      vertex 40 52.625 23.25
      vertex 39.9563 53.0408 23.25
    endloop
  endfacet
  facet normal 0 0 1
    outer loop
      vertex 40 52.625 23.25
      vertex 38.4 51.025 23.25
      vertex 40 -52.625 23.25
    endloop
  endfacet
  facet normal 0 0 1
    outer loop
      vertex 38.018 52.2006 23.25
      vertex 39.9563 53.0408 23.25
      vertex 39.8271 53.4385 23.25
    endloop
  endfacet
  facet normal -0 0 1
    outer loop
      vertex 38.4 -51.025 23.25
      vertex 40 -52.625 23.25
      vertex 38.4 51.025 23.25
    endloop
  endfacet
  facet normal 0 0 1
    outer loop
      vertex 38.018 52.2006 23.25
      vertex 39.8271 53.4385 23.25
      vertex 39.618 53.8006 23.25
    endloop
  endfacet
  facet normal -0 0 1
    outer loop
      vertex 38.3563 -51.4408 23.25
      vertex 40 -52.625 23.25
      vertex 38.4 -51.025 23.25
    endloop
  endfacet
  facet normal 0 0 1
    outer loop
      vertex 37.7383 52.5113 23.25
      vertex 39.618 53.8006 23.25
      vertex 39.3383 54.1113 23.25
    endloop
  endfacet
  facet normal -0 0 1
    outer loop
      vertex 38.2271 -51.8385 23.25
      vertex 40 -52.625 23.25
      vertex 38.3563 -51.4408 23.25
    endloop
  endfacet
  facet normal 0 0 1
    outer loop
      vertex 37.7383 52.5113 23.25
      vertex 39.3383 54.1113 23.25
      vertex 39 54.357 23.25
    endloop
  endfacet
  facet normal -0 0 1
    outer loop
      vertex 38.018 -52.2006 23.25
      vertex 40 -52.625 23.25
      vertex 38.2271 -51.8385 23.25
    endloop
  endfacet
  facet normal 0 0 1
    outer loop
      vertex 37.7383 52.5113 23.25
      vertex 39 54.357 23.25
      vertex 38.618 54.5271 23.25
    endloop
  endfacet
  facet normal 0 0 1
    outer loop
      vertex 40 -52.625 23.25
      vertex 38.018 -52.2006 23.25
      vertex 39.9563 -53.0408 23.25
    endloop
  endfacet
  facet normal 0 0 1
    outer loop
      vertex 39.9563 -53.0408 23.25
      vertex 38.018 -52.2006 23.25
      vertex 39.8271 -53.4385 23.25
    endloop
  endfacet
  facet normal 0 0 1
    outer loop
      vertex 40 52.625 23.25
      vertex 38.3563 51.4408 23.25
      vertex 38.4 51.025 23.25
    endloop
  endfacet
  facet normal 0 0 1
    outer loop
      vertex 40 52.625 23.25
      vertex 38.2271 51.8385 23.25
      vertex 38.3563 51.4408 23.25
    endloop
  endfacet
  facet normal 0 0 1
    outer loop
      vertex 37.4 52.757 23.25
      vertex 38.618 54.5271 23.25
      vertex 38.209 54.614 23.25
    endloop
  endfacet
  facet normal 0 0 1
    outer loop
      vertex 40 52.625 23.25
      vertex 38.018 52.2006 23.25
      vertex 38.2271 51.8385 23.25
    endloop
  endfacet
  facet normal 0 0 1
    outer loop
      vertex 39.618 53.8006 23.25
      vertex 37.7383 52.5113 23.25
      vertex 38.018 52.2006 23.25
    endloop
  endfacet
  facet normal 0 0 1
    outer loop
      vertex 38.618 54.5271 23.25
      vertex 37.4 52.757 23.25
      vertex 37.7383 52.5113 23.25
    endloop
  endfacet
  facet normal 0 0 1
    outer loop
      vertex 38.209 54.614 23.25
      vertex 37.018 52.9271 23.25
      vertex 37.4 52.757 23.25
    endloop
  endfacet
  facet normal 0 0 1
    outer loop
      vertex 38.209 54.614 23.25
      vertex 36.6091 53.014 23.25
      vertex 37.018 52.9271 23.25
    endloop
  endfacet
  facet normal 0 0 1
    outer loop
      vertex 38.209 54.614 23.25
      vertex -36.6091 53.014 23.25
      vertex 36.6091 53.014 23.25
    endloop
  endfacet
  facet normal -0 0 1
    outer loop
      vertex -38.209 54.614 23.25
      vertex -36.6091 53.014 23.25
      vertex 38.209 54.614 23.25
    endloop
  endfacet
  facet normal 0 0 1
    outer loop
      vertex -38.209 54.614 23.25
      vertex -37.018 52.9271 23.25
      vertex -36.6091 53.014 23.25
    endloop
  endfacet
  facet normal 0 0 1
    outer loop
      vertex -38.209 54.614 23.25
      vertex -37.4 52.757 23.25
      vertex -37.018 52.9271 23.25
    endloop
  endfacet
  facet normal -0 0 1
    outer loop
      vertex -38.618 54.5271 23.25
      vertex -37.4 52.757 23.25
      vertex -38.209 54.614 23.25
    endloop
  endfacet
  facet normal 0 0 1
    outer loop
      vertex -37.4 52.757 23.25
      vertex -38.618 54.5271 23.25
      vertex -37.7383 52.5113 23.25
    endloop
  endfacet
  facet normal -0 0 1
    outer loop
      vertex -39 54.357 23.25
      vertex -37.7383 52.5113 23.25
      vertex -38.618 54.5271 23.25
    endloop
  endfacet
  facet normal -0 0 1
    outer loop
      vertex -39.3383 54.1113 23.25
      vertex -37.7383 52.5113 23.25
      vertex -39 54.357 23.25
    endloop
  endfacet
  facet normal -0 0 1
    outer loop
      vertex -39.618 53.8006 23.25
      vertex -37.7383 52.5113 23.25
      vertex -39.3383 54.1113 23.25
    endloop
  endfacet
  facet normal -0 0 1
    outer loop
      vertex -39.8271 53.4385 23.25
      vertex -38.018 52.2006 23.25
      vertex -39.618 53.8006 23.25
    endloop
  endfacet
  facet normal 0 0 1
    outer loop
      vertex -37.7383 52.5113 23.25
      vertex -39.618 53.8006 23.25
      vertex -38.018 52.2006 23.25
    endloop
  endfacet
  facet normal 0 0 1
    outer loop
      vertex 39.8271 -53.4385 23.25
      vertex 38.018 -52.2006 23.25
      vertex 39.618 -53.8006 23.25
    endloop
  endfacet
  facet normal -0 0 1
    outer loop
      vertex 37.7383 -52.5113 23.25
      vertex 39.618 -53.8006 23.25
      vertex 38.018 -52.2006 23.25
    endloop
  endfacet
  facet normal 0 0 1
    outer loop
      vertex 39.618 -53.8006 23.25
      vertex 37.7383 -52.5113 23.25
      vertex 39.3383 -54.1113 23.25
    endloop
  endfacet
  facet normal 0 0 1
    outer loop
      vertex 39.3383 -54.1113 23.25
      vertex 37.7383 -52.5113 23.25
      vertex 39 -54.357 23.25
    endloop
  endfacet
  facet normal 0 0 1
    outer loop
      vertex 39 -54.357 23.25
      vertex 37.7383 -52.5113 23.25
      vertex 38.618 -54.5271 23.25
    endloop
  endfacet
  facet normal -0 0 1
    outer loop
      vertex 37.4 -52.757 23.25
      vertex 38.618 -54.5271 23.25
      vertex 37.7383 -52.5113 23.25
    endloop
  endfacet
  facet normal 0 0 1
    outer loop
      vertex 38.618 -54.5271 23.25
      vertex 37.4 -52.757 23.25
      vertex 38.209 -54.614 23.25
    endloop
  endfacet
  facet normal -0 0 1
    outer loop
      vertex 37.018 -52.9271 23.25
      vertex 38.209 -54.614 23.25
      vertex 37.4 -52.757 23.25
    endloop
  endfacet
  facet normal -0 0 1
    outer loop
      vertex 36.6091 -53.014 23.25
      vertex 38.209 -54.614 23.25
      vertex 37.018 -52.9271 23.25
    endloop
  endfacet
  facet normal -0 0 1
    outer loop
      vertex -36.6091 -53.014 23.25
      vertex 38.209 -54.614 23.25
      vertex 36.6091 -53.014 23.25
    endloop
  endfacet
  facet normal 0 0 1
    outer loop
      vertex -36.6091 -53.014 23.25
      vertex -38.209 -54.614 23.25
      vertex 38.209 -54.614 23.25
    endloop
  endfacet
  facet normal 0 0 1
    outer loop
      vertex -37.018 -52.9271 23.25
      vertex -38.209 -54.614 23.25
      vertex -36.6091 -53.014 23.25
    endloop
  endfacet
  facet normal 0 0 1
    outer loop
      vertex -37.4 -52.757 23.25
      vertex -38.209 -54.614 23.25
      vertex -37.018 -52.9271 23.25
    endloop
  endfacet
  facet normal 0 0 1
    outer loop
      vertex -38.618 -54.5271 23.25
      vertex -37.4 -52.757 23.25
      vertex -37.7383 -52.5113 23.25
    endloop
  endfacet
  facet normal 0 0 1
    outer loop
      vertex -39.618 -53.8006 23.25
      vertex -37.7383 -52.5113 23.25
      vertex -38.018 -52.2006 23.25
    endloop
  endfacet
  facet normal 0 0 1
    outer loop
      vertex -40 -52.625 23.25
      vertex -38.018 -52.2006 23.25
      vertex -38.2271 -51.8385 23.25
    endloop
  endfacet
  facet normal 0 0 1
    outer loop
      vertex -40 -52.625 23.25
      vertex -38.2271 -51.8385 23.25
      vertex -38.3563 -51.4408 23.25
    endloop
  endfacet
  facet normal 0 0 1
    outer loop
      vertex -40 -52.625 23.25
      vertex -38.3563 -51.4408 23.25
      vertex -38.4 -51.025 23.25
    endloop
  endfacet
  facet normal 0 0 1
    outer loop
      vertex -37.4 -52.757 23.25
      vertex -38.618 -54.5271 23.25
      vertex -38.209 -54.614 23.25
    endloop
  endfacet
  facet normal 0 0 1
    outer loop
      vertex -38.4 51.025 23.25
      vertex -40 52.625 23.25
      vertex -38.4 -51.025 23.25
    endloop
  endfacet
  facet normal -0 0 1
    outer loop
      vertex -39.9563 53.0408 23.25
      vertex -38.018 52.2006 23.25
      vertex -39.8271 53.4385 23.25
    endloop
  endfacet
  facet normal 0 0 1
    outer loop
      vertex -40 -52.625 23.25
      vertex -38.4 -51.025 23.25
      vertex -40 52.625 23.25
    endloop
  endfacet
  facet normal -0 0 1
    outer loop
      vertex -40 52.625 23.25
      vertex -38.018 52.2006 23.25
      vertex -39.9563 53.0408 23.25
    endloop
  endfacet
  facet normal 0 0 1
    outer loop
      vertex -38.018 -52.2006 23.25
      vertex -40 -52.625 23.25
      vertex -39.9563 -53.0408 23.25
    endloop
  endfacet
  facet normal 0 0 1
    outer loop
      vertex -38.018 52.2006 23.25
      vertex -40 52.625 23.25
      vertex -38.2271 51.8385 23.25
    endloop
  endfacet
  facet normal 0 0 1
    outer loop
      vertex -37.7383 -52.5113 23.25
      vertex -39 -54.357 23.25
      vertex -38.618 -54.5271 23.25
    endloop
  endfacet
  facet normal 0 0 1
    outer loop
      vertex -38.2271 51.8385 23.25
      vertex -40 52.625 23.25
      vertex -38.3563 51.4408 23.25
    endloop
  endfacet
  facet normal 0 0 1
    outer loop
      vertex -37.7383 -52.5113 23.25
      vertex -39.3383 -54.1113 23.25
      vertex -39 -54.357 23.25
    endloop
  endfacet
  facet normal 0 0 1
    outer loop
      vertex -38.3563 51.4408 23.25
      vertex -40 52.625 23.25
      vertex -38.4 51.025 23.25
    endloop
  endfacet
  facet normal 0 0 1
    outer loop
      vertex -37.7383 -52.5113 23.25
      vertex -39.618 -53.8006 23.25
      vertex -39.3383 -54.1113 23.25
    endloop
  endfacet
  facet normal 0 0 1
    outer loop
      vertex -38.018 -52.2006 23.25
      vertex -39.8271 -53.4385 23.25
      vertex -39.618 -53.8006 23.25
    endloop
  endfacet
  facet normal 0 0 1
    outer loop
      vertex -38.018 -52.2006 23.25
      vertex -39.9563 -53.0408 23.25
      vertex -39.8271 -53.4385 23.25
    endloop
  endfacet
  facet normal -4.34935e-22 -1.22464e-16 -1
    outer loop
      vertex 38.2091 -54.614 6.68829e-15
      vertex 40 -52.625 6.4447e-15
      vertex 39.9563 -53.0408 6.49563e-15
    endloop
  endfacet
  facet normal -0 -1.22465e-16 -1
    outer loop
      vertex 40 -52.625 6.4447e-15
      vertex -40 -52.625 6.4447e-15
      vertex 40 52.625 -6.4447e-15
    endloop
  endfacet
  facet normal 8.99223e-22 -1.22466e-16 -1
    outer loop
      vertex 38.2091 -54.614 6.68829e-15
      vertex 39.9563 -53.0408 6.49563e-15
      vertex 39.8271 -53.4385 6.54433e-15
    endloop
  endfacet
  facet normal -0 -1.22464e-16 -1
    outer loop
      vertex 40 -52.625 6.4447e-15
      vertex 38.2091 -54.614 6.68829e-15
      vertex -40 -52.625 6.4447e-15
    endloop
  endfacet
  facet normal -1.01441e-21 -1.22463e-16 -1
    outer loop
      vertex 38.2091 -54.614 6.68829e-15
      vertex 39.8271 -53.4385 6.54433e-15
      vertex 39.618 -53.8006 6.58867e-15
    endloop
  endfacet
  facet normal 0 -1.22465e-16 -1
    outer loop
      vertex -40 52.625 -6.4447e-15
      vertex 40 52.625 -6.4447e-15
      vertex -40 -52.625 6.4447e-15
    endloop
  endfacet
  facet normal 2.65395e-22 -1.22465e-16 -1
    outer loop
      vertex 38.2091 -54.614 6.68829e-15
      vertex 39.618 -53.8006 6.58867e-15
      vertex 39.3383 -54.1113 6.62672e-15
    endloop
  endfacet
  facet normal 2.18094e-22 -1.22464e-16 -1
    outer loop
      vertex 39.9563 53.0408 -6.49563e-15
      vertex 38.2091 54.614 -6.68829e-15
      vertex 39.8271 53.4385 -6.54433e-15
    endloop
  endfacet
  facet normal 2.59762e-21 -1.2247e-16 -1
    outer loop
      vertex 38.2091 -54.614 6.68829e-15
      vertex 39.3383 -54.1113 6.62672e-15
      vertex 39 -54.357 6.65682e-15
    endloop
  endfacet
  facet normal 1.01441e-21 -1.22463e-16 -1
    outer loop
      vertex 39.8271 53.4385 -6.54433e-15
      vertex 38.2091 54.614 -6.68829e-15
      vertex 39.618 53.8006 -6.58867e-15
    endloop
  endfacet
  facet normal -2.57049e-21 -1.22454e-16 -1
    outer loop
      vertex 38.2091 -54.614 6.68829e-15
      vertex 39 -54.357 6.65682e-15
      vertex 38.618 -54.5271 6.67765e-15
    endloop
  endfacet
  facet normal -2.65395e-22 -1.22465e-16 -1
    outer loop
      vertex 39.618 53.8006 -6.58867e-15
      vertex 38.2091 54.614 -6.68829e-15
      vertex 39.3383 54.1113 -6.62672e-15
    endloop
  endfacet
  facet normal -2.59762e-21 -1.2247e-16 -1
    outer loop
      vertex 39.3383 54.1113 -6.62672e-15
      vertex 38.2091 54.614 -6.68829e-15
      vertex 39 54.357 -6.65682e-15
    endloop
  endfacet
  facet normal -7.32441e-22 -1.22465e-16 -1
    outer loop
      vertex 39 54.357 -6.65682e-15
      vertex 38.2091 54.614 -6.68829e-15
      vertex 38.618 54.5271 -6.67765e-15
    endloop
  endfacet
  facet normal 0 -1.22464e-16 -1
    outer loop
      vertex -40 -52.625 6.4447e-15
      vertex 38.2091 -54.614 6.68829e-15
      vertex -38.2091 -54.614 6.68829e-15
    endloop
  endfacet
  facet normal 0 -1.22464e-16 -1
    outer loop
      vertex 38.2091 54.614 -6.68829e-15
      vertex 40 52.625 -6.4447e-15
      vertex -40 52.625 -6.4447e-15
    endloop
  endfacet
  facet normal 5.51736e-22 -1.22464e-16 -1
    outer loop
      vertex -40 -52.625 6.4447e-15
      vertex -38.2091 -54.614 6.68829e-15
      vertex -38.618 -54.5271 6.67765e-15
    endloop
  endfacet
  facet normal -9.77707e-22 -1.22465e-16 -1
    outer loop
      vertex 40 52.625 -6.4447e-15
      vertex 38.2091 54.614 -6.68829e-15
      vertex 39.9563 53.0408 -6.49563e-15
    endloop
  endfacet
  facet normal -2.715e-21 -1.22466e-16 -1
    outer loop
      vertex -40 -52.625 6.4447e-15
      vertex -38.618 -54.5271 6.67765e-15
      vertex -39 -54.357 6.65682e-15
    endloop
  endfacet
  facet normal -0 -1.22464e-16 -1
    outer loop
      vertex 38.2091 54.614 -6.68829e-15
      vertex -40 52.625 -6.4447e-15
      vertex -38.2091 54.614 -6.68829e-15
    endloop
  endfacet
  facet normal 2.5364e-21 -1.22463e-16 -1
    outer loop
      vertex -40 -52.625 6.4447e-15
      vertex -39 -54.357 6.65682e-15
      vertex -39.3383 -54.1113 6.62672e-15
    endloop
  endfacet
  facet normal 8.60902e-22 -1.22465e-16 -1
    outer loop
      vertex -38.2091 54.614 -6.68829e-15
      vertex -40 52.625 -6.4447e-15
      vertex -38.618 54.5271 -6.67765e-15
    endloop
  endfacet
  facet normal 1.01046e-21 -1.22464e-16 -1
    outer loop
      vertex -40 -52.625 6.4447e-15
      vertex -39.3383 -54.1113 6.62672e-15
      vertex -39.618 -53.8006 6.58867e-15
    endloop
  endfacet
  facet normal 1.06875e-21 -1.22465e-16 -1
    outer loop
      vertex -38.618 54.5271 -6.67765e-15
      vertex -40 52.625 -6.4447e-15
      vertex -39 54.357 -6.65682e-15
    endloop
  endfacet
  facet normal -3.211e-21 -1.22465e-16 -1
    outer loop
      vertex -40 -52.625 6.4447e-15
      vertex -39.618 -53.8006 6.58867e-15
      vertex -39.8271 -53.4385 6.54433e-15
    endloop
  endfacet
  facet normal -2.5364e-21 -1.22463e-16 -1
    outer loop
      vertex -39 54.357 -6.65682e-15
      vertex -40 52.625 -6.4447e-15
      vertex -39.3383 54.1113 -6.62672e-15
    endloop
  endfacet
  facet normal 5.20365e-21 -1.22464e-16 -1
    outer loop
      vertex -40 -52.625 6.4447e-15
      vertex -39.8271 -53.4385 6.54433e-15
      vertex -39.9563 -53.0408 6.49563e-15
    endloop
  endfacet
  facet normal -1.01046e-21 -1.22464e-16 -1
    outer loop
      vertex -39.3383 54.1113 -6.62672e-15
      vertex -40 52.625 -6.4447e-15
      vertex -39.618 53.8006 -6.58867e-15
    endloop
  endfacet
  facet normal 3.211e-21 -1.22465e-16 -1
    outer loop
      vertex -39.618 53.8006 -6.58867e-15
      vertex -40 52.625 -6.4447e-15
      vertex -39.8271 53.4385 -6.54433e-15
    endloop
  endfacet
  facet normal 5.25197e-21 -1.22466e-16 -1
    outer loop
      vertex -39.8271 53.4385 -6.54433e-15
      vertex -40 52.625 -6.4447e-15
      vertex -39.9563 53.0408 -6.49563e-15
    endloop
  endfacet
  facet normal 0.406724 0.913551 -0
    outer loop
      vertex 39 54.357 1.2
      vertex 38.618 54.5271 23.25
      vertex 39 54.357 23.25
    endloop
  endfacet
  facet normal 0.406724 0.913551 0
    outer loop
      vertex 38.618 54.5271 23.25
      vertex 39 54.357 1.2
      vertex 38.618 54.5271 1.2
    endloop
  endfacet
  facet normal 0.587785 0.809017 -0
    outer loop
      vertex 39.3383 54.1113 1.2
      vertex 39 54.357 23.25
      vertex 39.3383 54.1113 23.25
    endloop
  endfacet
  facet normal 0.587785 0.809017 0
    outer loop
      vertex 39 54.357 23.25
      vertex 39.3383 54.1113 1.2
      vertex 39 54.357 1.2
    endloop
  endfacet
  facet normal 0.743144 0.669132 0
    outer loop
      vertex 39.618 53.8006 23.25
      vertex 39.3383 54.1113 1.2
      vertex 39.3383 54.1113 23.25
    endloop
  endfacet
  facet normal 0.743144 0.669132 0
    outer loop
      vertex 39.3383 54.1113 1.2
      vertex 39.618 53.8006 23.25
      vertex 39.618 53.8006 1.2
    endloop
  endfacet
  facet normal 0.866027 0.499997 0
    outer loop
      vertex 39.8271 53.4385 23.25
      vertex 39.618 53.8006 1.2
      vertex 39.618 53.8006 23.25
    endloop
  endfacet
  facet normal 0.866027 0.499997 0
    outer loop
      vertex 39.618 53.8006 1.2
      vertex 39.8271 53.4385 23.25
      vertex 39.8271 53.4385 1.2
    endloop
  endfacet
  facet normal 0.951061 0.309004 0
    outer loop
      vertex 39.9563 53.0408 23.25
      vertex 39.8271 53.4385 1.2
      vertex 39.8271 53.4385 23.25
    endloop
  endfacet
  facet normal 0.951061 0.309004 0
    outer loop
      vertex 39.8271 53.4385 1.2
      vertex 39.9563 53.0408 23.25
      vertex 39.9563 53.0408 1.2
    endloop
  endfacet
  facet normal 0.994519 0.104558 0
    outer loop
      vertex 40 52.625 23.25
      vertex 39.9563 53.0408 1.2
      vertex 39.9563 53.0408 23.25
    endloop
  endfacet
  facet normal 0.994519 0.104558 0
    outer loop
      vertex 39.9563 53.0408 1.2
      vertex 40 52.625 23.25
      vertex 40 52.625 1.2
    endloop
  endfacet
  facet normal 1 0 0
    outer loop
      vertex 40 -52.625 1.2
      vertex 40 52.625 1.2
      vertex 40 52.625 23.25
    endloop
  endfacet
  facet normal 1 0 0
    outer loop
      vertex 40 -52.625 1.2
      vertex 40 52.625 23.25
      vertex 40 -52.625 23.25
    endloop
  endfacet
  facet normal 1 0 0
    outer loop
      vertex 40 52.625 1.2
      vertex 40 -52.625 1.2
      vertex 40 52.625 -6.4447e-15
    endloop
  endfacet
  facet normal 1 0 0
    outer loop
      vertex 40 52.625 -6.4447e-15
      vertex 40 -52.625 1.2
      vertex 40 -52.625 6.4447e-15
    endloop
  endfacet
  facet normal 0.994519 -0.104558 0
    outer loop
      vertex 39.9563 -53.0408 23.25
      vertex 40 -52.625 1.2
      vertex 40 -52.625 23.25
    endloop
  endfacet
  facet normal 0.994519 -0.104558 0
    outer loop
      vertex 40 -52.625 1.2
      vertex 39.9563 -53.0408 23.25
      vertex 39.9563 -53.0408 1.2
    endloop
  endfacet
  facet normal 0.951061 -0.309004 0
    outer loop
      vertex 39.8271 -53.4385 23.25
      vertex 39.9563 -53.0408 1.2
      vertex 39.9563 -53.0408 23.25
    endloop
  endfacet
  facet normal 0.951061 -0.309004 0
    outer loop
      vertex 39.9563 -53.0408 1.2
      vertex 39.8271 -53.4385 23.25
      vertex 39.8271 -53.4385 1.2
    endloop
  endfacet
  facet normal 0.866027 -0.499997 0
    outer loop
      vertex 39.618 -53.8006 23.25
      vertex 39.8271 -53.4385 1.2
      vertex 39.8271 -53.4385 23.25
    endloop
  endfacet
  facet normal 0.866027 -0.499997 0
    outer loop
      vertex 39.8271 -53.4385 1.2
      vertex 39.618 -53.8006 23.25
      vertex 39.618 -53.8006 1.2
    endloop
  endfacet
  facet normal 0.743144 -0.669132 0
    outer loop
      vertex 39.3383 -54.1113 23.25
      vertex 39.618 -53.8006 1.2
      vertex 39.618 -53.8006 23.25
    endloop
  endfacet
  facet normal 0.743144 -0.669132 0
    outer loop
      vertex 39.618 -53.8006 1.2
      vertex 39.3383 -54.1113 23.25
      vertex 39.3383 -54.1113 1.2
    endloop
  endfacet
  facet normal 0.587785 -0.809017 0
    outer loop
      vertex 39 -54.357 1.2
      vertex 39.3383 -54.1113 23.25
      vertex 39 -54.357 23.25
    endloop
  endfacet
  facet normal 0.587785 -0.809017 0
    outer loop
      vertex 39.3383 -54.1113 23.25
      vertex 39 -54.357 1.2
      vertex 39.3383 -54.1113 1.2
    endloop
  endfacet
  facet normal 0.406724 -0.913551 0
    outer loop
      vertex 38.618 -54.5271 1.2
      vertex 39 -54.357 23.25
      vertex 38.618 -54.5271 23.25
    endloop
  endfacet
  facet normal 0.406724 -0.913551 0
    outer loop
      vertex 39 -54.357 23.25
      vertex 38.618 -54.5271 1.2
      vertex 39 -54.357 1.2
    endloop
  endfacet
  facet normal 0.207906 -0.978149 0
    outer loop
      vertex 38.209 -54.614 1.2
      vertex 38.618 -54.5271 23.25
      vertex 38.209 -54.614 23.25
    endloop
  endfacet
  facet normal 0.207906 -0.978149 0
    outer loop
      vertex 38.618 -54.5271 23.25
      vertex 38.209 -54.614 1.2
      vertex 38.618 -54.5271 1.2
    endloop
  endfacet
  facet normal 0 -1 0
    outer loop
      vertex -38.209 -54.614 1.2
      vertex 38.209 -54.614 23.25
      vertex -38.209 -54.614 23.25
    endloop
  endfacet
  facet normal 0 -1 -0
    outer loop
      vertex 38.209 -54.614 23.25
      vertex -38.209 -54.614 1.2
      vertex 38.209 -54.614 1.2
    endloop
  endfacet
  facet normal -0.207906 -0.978149 0
    outer loop
      vertex -38.618 -54.5271 1.2
      vertex -38.209 -54.614 23.25
      vertex -38.618 -54.5271 23.25
    endloop
  endfacet
  facet normal -0.207906 -0.978149 -0
    outer loop
      vertex -38.209 -54.614 23.25
      vertex -38.618 -54.5271 1.2
      vertex -38.209 -54.614 1.2
    endloop
  endfacet
  facet normal -0.406724 -0.913551 0
    outer loop
      vertex -39 -54.357 1.2
      vertex -38.618 -54.5271 23.25
      vertex -39 -54.357 23.25
    endloop
  endfacet
  facet normal -0.406724 -0.913551 -0
    outer loop
      vertex -38.618 -54.5271 23.25
      vertex -39 -54.357 1.2
      vertex -38.618 -54.5271 1.2
    endloop
  endfacet
  facet normal -0.587785 -0.809017 0
    outer loop
      vertex -39.3383 -54.1113 1.2
      vertex -39 -54.357 23.25
      vertex -39.3383 -54.1113 23.25
    endloop
  endfacet
  facet normal -0.587785 -0.809017 -0
    outer loop
      vertex -39 -54.357 23.25
      vertex -39.3383 -54.1113 1.2
      vertex -39 -54.357 1.2
    endloop
  endfacet
  facet normal -0.743144 -0.669132 0
    outer loop
      vertex -39.3383 -54.1113 1.2
      vertex -39.618 -53.8006 23.25
      vertex -39.618 -53.8006 1.2
    endloop
  endfacet
  facet normal -0.743144 -0.669132 0
    outer loop
      vertex -39.618 -53.8006 23.25
      vertex -39.3383 -54.1113 1.2
      vertex -39.3383 -54.1113 23.25
    endloop
  endfacet
  facet normal -0.866027 -0.499997 0
    outer loop
      vertex -39.618 -53.8006 1.2
      vertex -39.8271 -53.4385 23.25
      vertex -39.8271 -53.4385 1.2
    endloop
  endfacet
  facet normal -0.866027 -0.499997 0
    outer loop
      vertex -39.8271 -53.4385 23.25
      vertex -39.618 -53.8006 1.2
      vertex -39.618 -53.8006 23.25
    endloop
  endfacet
  facet normal -0.951061 -0.309004 0
    outer loop
      vertex -39.8271 -53.4385 1.2
      vertex -39.9563 -53.0408 23.25
      vertex -39.9563 -53.0408 1.2
    endloop
  endfacet
  facet normal -0.951061 -0.309004 0
    outer loop
      vertex -39.9563 -53.0408 23.25
      vertex -39.8271 -53.4385 1.2
      vertex -39.8271 -53.4385 23.25
    endloop
  endfacet
  facet normal -0.994519 -0.104558 0
    outer loop
      vertex -39.9563 -53.0408 1.2
      vertex -40 -52.625 23.25
      vertex -40 -52.625 1.2
    endloop
  endfacet
  facet normal -0.994519 -0.104558 0
    outer loop
      vertex -40 -52.625 23.25
      vertex -39.9563 -53.0408 1.2
      vertex -39.9563 -53.0408 23.25
    endloop
  endfacet
  facet normal -1 0 0
    outer loop
      vertex -40 -52.625 1.2
      vertex -40 52.625 1.2
      vertex -40 52.625 -6.4447e-15
    endloop
  endfacet
  facet normal -1 0 0
    outer loop
      vertex -40 -52.625 1.2
      vertex -40 52.625 -6.4447e-15
      vertex -40 -52.625 6.4447e-15
    endloop
  endfacet
  facet normal -1 0 0
    outer loop
      vertex -40 52.625 1.2
      vertex -40 -52.625 1.2
      vertex -40 52.625 23.25
    endloop
  endfacet
  facet normal -1 -0 0
    outer loop
      vertex -40 52.625 23.25
      vertex -40 -52.625 1.2
      vertex -40 -52.625 23.25
    endloop
  endfacet
  facet normal -0.994519 0.104558 0
    outer loop
      vertex -40 52.625 1.2
      vertex -39.9563 53.0408 23.25
      vertex -39.9563 53.0408 1.2
    endloop
  endfacet
  facet normal -0.994519 0.104558 0
    outer loop
      vertex -39.9563 53.0408 23.25
      vertex -40 52.625 1.2
      vertex -40 52.625 23.25
    endloop
  endfacet
  facet normal -0.951061 0.309004 0
    outer loop
      vertex -39.9563 53.0408 1.2
      vertex -39.8271 53.4385 23.25
      vertex -39.8271 53.4385 1.2
    endloop
  endfacet
  facet normal -0.951061 0.309004 0
    outer loop
      vertex -39.8271 53.4385 23.25
      vertex -39.9563 53.0408 1.2
      vertex -39.9563 53.0408 23.25
    endloop
  endfacet
  facet normal -0.866027 0.499997 0
    outer loop
      vertex -39.8271 53.4385 1.2
      vertex -39.618 53.8006 23.25
      vertex -39.618 53.8006 1.2
    endloop
  endfacet
  facet normal -0.866027 0.499997 0
    outer loop
      vertex -39.618 53.8006 23.25
      vertex -39.8271 53.4385 1.2
      vertex -39.8271 53.4385 23.25
    endloop
  endfacet
  facet normal -0.743144 0.669132 0
    outer loop
      vertex -39.618 53.8006 1.2
      vertex -39.3383 54.1113 23.25
      vertex -39.3383 54.1113 1.2
    endloop
  endfacet
  facet normal -0.743144 0.669132 0
    outer loop
      vertex -39.3383 54.1113 23.25
      vertex -39.618 53.8006 1.2
      vertex -39.618 53.8006 23.25
    endloop
  endfacet
  facet normal -0.587785 0.809017 0
    outer loop
      vertex -39 54.357 1.2
      vertex -39.3383 54.1113 23.25
      vertex -39 54.357 23.25
    endloop
  endfacet
  facet normal -0.587785 0.809017 0
    outer loop
      vertex -39.3383 54.1113 23.25
      vertex -39 54.357 1.2
      vertex -39.3383 54.1113 1.2
    endloop
  endfacet
  facet normal -0.406724 0.913551 0
    outer loop
      vertex -38.618 54.5271 1.2
      vertex -39 54.357 23.25
      vertex -38.618 54.5271 23.25
    endloop
  endfacet
  facet normal -0.406724 0.913551 0
    outer loop
      vertex -39 54.357 23.25
      vertex -38.618 54.5271 1.2
      vertex -39 54.357 1.2
    endloop
  endfacet
  facet normal -0.207906 0.978149 0
    outer loop
      vertex -38.209 54.614 1.2
      vertex -38.618 54.5271 23.25
      vertex -38.209 54.614 23.25
    endloop
  endfacet
  facet normal -0.207906 0.978149 0
    outer loop
      vertex -38.618 54.5271 23.25
      vertex -38.209 54.614 1.2
      vertex -38.618 54.5271 1.2
    endloop
  endfacet
  facet normal 0 1 -0
    outer loop
      vertex 38.209 54.614 1.2
      vertex -38.209 54.614 23.25
      vertex 38.209 54.614 23.25
    endloop
  endfacet
  facet normal 0 1 0
    outer loop
      vertex -38.209 54.614 23.25
      vertex 38.209 54.614 1.2
      vertex -38.209 54.614 1.2
    endloop
  endfacet
  facet normal 0.207906 0.978149 -0
    outer loop
      vertex 38.618 54.5271 1.2
      vertex 38.209 54.614 23.25
      vertex 38.618 54.5271 23.25
    endloop
  endfacet
  facet normal 0.207906 0.978149 0
    outer loop
      vertex 38.209 54.614 23.25
      vertex 38.618 54.5271 1.2
      vertex 38.209 54.614 1.2
    endloop
  endfacet
  facet normal 0.207914 -0.978147 0
    outer loop
      vertex -37.018 52.9271 1.2
      vertex -36.6091 53.014 23.25
      vertex -37.018 52.9271 23.25
    endloop
  endfacet
  facet normal 0.207914 -0.978147 0
    outer loop
      vertex -36.6091 53.014 23.25
      vertex -37.018 52.9271 1.2
      vertex -36.6091 53.014 1.2
    endloop
  endfacet
  facet normal 0.406724 -0.913551 0
    outer loop
      vertex -37.4 52.757 1.2
      vertex -37.018 52.9271 23.25
      vertex -37.4 52.757 23.25
    endloop
  endfacet
  facet normal 0.406724 -0.913551 0
    outer loop
      vertex -37.018 52.9271 23.25
      vertex -37.4 52.757 1.2
      vertex -37.018 52.9271 1.2
    endloop
  endfacet
  facet normal 0.587809 -0.809 0
    outer loop
      vertex -37.7383 52.5113 1.2
      vertex -37.4 52.757 23.25
      vertex -37.7383 52.5113 23.25
    endloop
  endfacet
  facet normal 0.587809 -0.809 0
    outer loop
      vertex -37.4 52.757 23.25
      vertex -37.7383 52.5113 1.2
      vertex -37.4 52.757 1.2
    endloop
  endfacet
  facet normal 0.743144 -0.669132 0
    outer loop
      vertex -38.018 52.2006 23.25
      vertex -37.7383 52.5113 1.2
      vertex -37.7383 52.5113 23.25
    endloop
  endfacet
  facet normal 0.743144 -0.669132 0
    outer loop
      vertex -37.7383 52.5113 1.2
      vertex -38.018 52.2006 23.25
      vertex -38.018 52.2006 1.2
    endloop
  endfacet
  facet normal 0.866018 -0.500013 0
    outer loop
      vertex -38.2271 51.8385 23.25
      vertex -38.018 52.2006 1.2
      vertex -38.018 52.2006 23.25
    endloop
  endfacet
  facet normal 0.866018 -0.500013 0
    outer loop
      vertex -38.018 52.2006 1.2
      vertex -38.2271 51.8385 23.25
      vertex -38.2271 51.8385 1.2
    endloop
  endfacet
  facet normal 0.951054 -0.309026 0
    outer loop
      vertex -38.3563 51.4408 23.25
      vertex -38.2271 51.8385 1.2
      vertex -38.2271 51.8385 23.25
    endloop
  endfacet
  facet normal 0.951054 -0.309026 0
    outer loop
      vertex -38.2271 51.8385 1.2
      vertex -38.3563 51.4408 23.25
      vertex -38.3563 51.4408 1.2
    endloop
  endfacet
  facet normal 0.994523 -0.104521 0
    outer loop
      vertex -38.4 51.025 23.25
      vertex -38.3563 51.4408 1.2
      vertex -38.3563 51.4408 23.25
    endloop
  endfacet
  facet normal 0.994523 -0.104521 0
    outer loop
      vertex -38.3563 51.4408 1.2
      vertex -38.4 51.025 23.25
      vertex -38.4 51.025 1.2
    endloop
  endfacet
  facet normal 1 -0 0
    outer loop
      vertex -38.4 -51.025 23.25
      vertex -38.4 51.025 1.2
      vertex -38.4 51.025 23.25
    endloop
  endfacet
  facet normal 1 0 0
    outer loop
      vertex -38.4 51.025 1.2
      vertex -38.4 -51.025 23.25
      vertex -38.4 -51.025 1.2
    endloop
  endfacet
  facet normal 0.994523 0.104521 0
    outer loop
      vertex -38.3563 -51.4408 23.25
      vertex -38.4 -51.025 1.2
      vertex -38.4 -51.025 23.25
    endloop
  endfacet
  facet normal 0.994523 0.104521 0
    outer loop
      vertex -38.4 -51.025 1.2
      vertex -38.3563 -51.4408 23.25
      vertex -38.3563 -51.4408 1.2
    endloop
  endfacet
  facet normal 0.951054 0.309026 0
    outer loop
      vertex -38.2271 -51.8385 23.25
      vertex -38.3563 -51.4408 1.2
      vertex -38.3563 -51.4408 23.25
    endloop
  endfacet
  facet normal 0.951054 0.309026 0
    outer loop
      vertex -38.3563 -51.4408 1.2
      vertex -38.2271 -51.8385 23.25
      vertex -38.2271 -51.8385 1.2
    endloop
  endfacet
  facet normal 0.866018 0.500013 0
    outer loop
      vertex -38.018 -52.2006 23.25
      vertex -38.2271 -51.8385 1.2
      vertex -38.2271 -51.8385 23.25
    endloop
  endfacet
  facet normal 0.866018 0.500013 0
    outer loop
      vertex -38.2271 -51.8385 1.2
      vertex -38.018 -52.2006 23.25
      vertex -38.018 -52.2006 1.2
    endloop
  endfacet
  facet normal 0.743144 0.669132 0
    outer loop
      vertex -37.7383 -52.5113 23.25
      vertex -38.018 -52.2006 1.2
      vertex -38.018 -52.2006 23.25
    endloop
  endfacet
  facet normal 0.743144 0.669132 0
    outer loop
      vertex -38.018 -52.2006 1.2
      vertex -37.7383 -52.5113 23.25
      vertex -37.7383 -52.5113 1.2
    endloop
  endfacet
  facet normal 0.587809 0.809 -0
    outer loop
      vertex -37.4 -52.757 1.2
      vertex -37.7383 -52.5113 23.25
      vertex -37.4 -52.757 23.25
    endloop
  endfacet
  facet normal 0.587809 0.809 0
    outer loop
      vertex -37.7383 -52.5113 23.25
      vertex -37.4 -52.757 1.2
      vertex -37.7383 -52.5113 1.2
    endloop
  endfacet
  facet normal 0.406724 0.913551 -0
    outer loop
      vertex -37.018 -52.9271 1.2
      vertex -37.4 -52.757 23.25
      vertex -37.018 -52.9271 23.25
    endloop
  endfacet
  facet normal 0.406724 0.913551 0
    outer loop
      vertex -37.4 -52.757 23.25
      vertex -37.018 -52.9271 1.2
      vertex -37.4 -52.757 1.2
    endloop
  endfacet
  facet normal 0.207914 0.978147 -0
    outer loop
      vertex -36.6091 -53.014 1.2
      vertex -37.018 -52.9271 23.25
      vertex -36.6091 -53.014 23.25
    endloop
  endfacet
  facet normal 0.207914 0.978147 0
    outer loop
      vertex -37.018 -52.9271 23.25
      vertex -36.6091 -53.014 1.2
      vertex -37.018 -52.9271 1.2
    endloop
  endfacet
  facet normal 0 1 -0
    outer loop
      vertex 36.6091 -53.014 1.2
      vertex -36.6091 -53.014 23.25
      vertex 36.6091 -53.014 23.25
    endloop
  endfacet
  facet normal 0 1 0
    outer loop
      vertex -36.6091 -53.014 23.25
      vertex 36.6091 -53.014 1.2
      vertex -36.6091 -53.014 1.2
    endloop
  endfacet
  facet normal -0.207914 0.978147 0
    outer loop
      vertex 37.018 -52.9271 1.2
      vertex 36.6091 -53.014 23.25
      vertex 37.018 -52.9271 23.25
    endloop
  endfacet
  facet normal -0.207914 0.978147 0
    outer loop
      vertex 36.6091 -53.014 23.25
      vertex 37.018 -52.9271 1.2
      vertex 36.6091 -53.014 1.2
    endloop
  endfacet
  facet normal -0.406724 0.913551 0
    outer loop
      vertex 37.4 -52.757 1.2
      vertex 37.018 -52.9271 23.25
      vertex 37.4 -52.757 23.25
    endloop
  endfacet
  facet normal -0.406724 0.913551 0
    outer loop
      vertex 37.018 -52.9271 23.25
      vertex 37.4 -52.757 1.2
      vertex 37.018 -52.9271 1.2
    endloop
  endfacet
  facet normal -0.587809 0.809 0
    outer loop
      vertex 37.7383 -52.5113 1.2
      vertex 37.4 -52.757 23.25
      vertex 37.7383 -52.5113 23.25
    endloop
  endfacet
  facet normal -0.587809 0.809 0
    outer loop
      vertex 37.4 -52.757 23.25
      vertex 37.7383 -52.5113 1.2
      vertex 37.4 -52.757 1.2
    endloop
  endfacet
  facet normal -0.743144 0.669132 0
    outer loop
      vertex 37.7383 -52.5113 1.2
      vertex 38.018 -52.2006 23.25
      vertex 38.018 -52.2006 1.2
    endloop
  endfacet
  facet normal -0.743144 0.669132 0
    outer loop
      vertex 38.018 -52.2006 23.25
      vertex 37.7383 -52.5113 1.2
      vertex 37.7383 -52.5113 23.25
    endloop
  endfacet
  facet normal -0.866018 0.500013 0
    outer loop
      vertex 38.018 -52.2006 1.2
      vertex 38.2271 -51.8385 23.25
      vertex 38.2271 -51.8385 1.2
    endloop
  endfacet
  facet normal -0.866018 0.500013 0
    outer loop
      vertex 38.2271 -51.8385 23.25
      vertex 38.018 -52.2006 1.2
      vertex 38.018 -52.2006 23.25
    endloop
  endfacet
  facet normal -0.951054 0.309026 0
    outer loop
      vertex 38.2271 -51.8385 1.2
      vertex 38.3563 -51.4408 23.25
      vertex 38.3563 -51.4408 1.2
    endloop
  endfacet
  facet normal -0.951054 0.309026 0
    outer loop
      vertex 38.3563 -51.4408 23.25
      vertex 38.2271 -51.8385 1.2
      vertex 38.2271 -51.8385 23.25
    endloop
  endfacet
  facet normal -0.994523 0.104521 0
    outer loop
      vertex 38.3563 -51.4408 1.2
      vertex 38.4 -51.025 23.25
      vertex 38.4 -51.025 1.2
    endloop
  endfacet
  facet normal -0.994523 0.104521 0
    outer loop
      vertex 38.4 -51.025 23.25
      vertex 38.3563 -51.4408 1.2
      vertex 38.3563 -51.4408 23.25
    endloop
  endfacet
  facet normal -1 0 0
    outer loop
      vertex 38.4 -51.025 1.2
      vertex 38.4 51.025 23.25
      vertex 38.4 51.025 1.2
    endloop
  endfacet
  facet normal -1 -0 0
    outer loop
      vertex 38.4 51.025 23.25
      vertex 38.4 -51.025 1.2
      vertex 38.4 -51.025 23.25
    endloop
  endfacet
  facet normal -0.994523 -0.104521 0
    outer loop
      vertex 38.4 51.025 1.2
      vertex 38.3563 51.4408 23.25
      vertex 38.3563 51.4408 1.2
    endloop
  endfacet
  facet normal -0.994523 -0.104521 0
    outer loop
      vertex 38.3563 51.4408 23.25
      vertex 38.4 51.025 1.2
      vertex 38.4 51.025 23.25
    endloop
  endfacet
  facet normal -0.951054 -0.309026 0
    outer loop
      vertex 38.3563 51.4408 1.2
      vertex 38.2271 51.8385 23.25
      vertex 38.2271 51.8385 1.2
    endloop
  endfacet
  facet normal -0.951054 -0.309026 0
    outer loop
      vertex 38.2271 51.8385 23.25
      vertex 38.3563 51.4408 1.2
      vertex 38.3563 51.4408 23.25
    endloop
  endfacet
  facet normal -0.866018 -0.500013 0
    outer loop
      vertex 38.2271 51.8385 1.2
      vertex 38.018 52.2006 23.25
      vertex 38.018 52.2006 1.2
    endloop
  endfacet
  facet normal -0.866018 -0.500013 0
    outer loop
      vertex 38.018 52.2006 23.25
      vertex 38.2271 51.8385 1.2
      vertex 38.2271 51.8385 23.25
    endloop
  endfacet
  facet normal -0.743144 -0.669132 0
    outer loop
      vertex 38.018 52.2006 1.2
      vertex 37.7383 52.5113 23.25
      vertex 37.7383 52.5113 1.2
    endloop
  endfacet
  facet normal -0.743144 -0.669132 0
    outer loop
      vertex 37.7383 52.5113 23.25
      vertex 38.018 52.2006 1.2
      vertex 38.018 52.2006 23.25
    endloop
  endfacet
  facet normal -0.587809 -0.809 0
    outer loop
      vertex 37.4 52.757 1.2
      vertex 37.7383 52.5113 23.25
      vertex 37.4 52.757 23.25
    endloop
  endfacet
  facet normal -0.587809 -0.809 -0
    outer loop
      vertex 37.7383 52.5113 23.25
      vertex 37.4 52.757 1.2
      vertex 37.7383 52.5113 1.2
    endloop
  endfacet
  facet normal -0.406724 -0.913551 0
    outer loop
      vertex 37.018 52.9271 1.2
      vertex 37.4 52.757 23.25
      vertex 37.018 52.9271 23.25
    endloop
  endfacet
  facet normal -0.406724 -0.913551 -0
    outer loop
      vertex 37.4 52.757 23.25
      vertex 37.018 52.9271 1.2
      vertex 37.4 52.757 1.2
    endloop
  endfacet
  facet normal -0.207914 -0.978147 0
    outer loop
      vertex 36.6091 53.014 1.2
      vertex 37.018 52.9271 23.25
      vertex 36.6091 53.014 23.25
    endloop
  endfacet
  facet normal -0.207914 -0.978147 -0
    outer loop
      vertex 37.018 52.9271 23.25
      vertex 36.6091 53.014 1.2
      vertex 37.018 52.9271 1.2
    endloop
  endfacet
  facet normal 0 -1 0
    outer loop
      vertex -36.6091 53.014 1.2
      vertex 36.6091 53.014 23.25
      vertex -36.6091 53.014 23.25
    endloop
  endfacet
  facet normal 0 -1 -0
    outer loop
      vertex 36.6091 53.014 23.25
      vertex -36.6091 53.014 1.2
      vertex 36.6091 53.014 1.2
    endloop
  endfacet
  facet normal -0.951057 0.309015 0
    outer loop
      vertex -39.9563 53.0408 -6.49563e-15
      vertex -39.8271 53.4385 1.2
      vertex -39.8271 53.4385 -6.54433e-15
    endloop
  endfacet
  facet normal -0.951057 0.309015 0
    outer loop
      vertex -39.8271 53.4385 1.2
      vertex -39.9563 53.0408 -6.49563e-15
      vertex -39.9563 53.0408 1.2
    endloop
  endfacet
  facet normal -0.866026 0.499998 0
    outer loop
      vertex -39.8271 53.4385 -6.54433e-15
      vertex -39.618 53.8006 1.2
      vertex -39.618 53.8006 -6.58867e-15
    endloop
  endfacet
  facet normal -0.866026 0.499998 0
    outer loop
      vertex -39.618 53.8006 1.2
      vertex -39.8271 53.4385 -6.54433e-15
      vertex -39.8271 53.4385 1.2
    endloop
  endfacet
  facet normal -0.994522 0.104529 0
    outer loop
      vertex -40 52.625 -6.4447e-15
      vertex -39.9563 53.0408 1.2
      vertex -39.9563 53.0408 -6.49563e-15
    endloop
  endfacet
  facet normal -0.994522 0.104529 0
    outer loop
      vertex -39.9563 53.0408 1.2
      vertex -40 52.625 -6.4447e-15
      vertex -40 52.625 1.2
    endloop
  endfacet
  facet normal 0 1 -0
    outer loop
      vertex 38.2091 54.614 -6.68829e-15
      vertex -38.2091 54.614 1.2
      vertex 38.2091 54.614 1.2
    endloop
  endfacet
  facet normal 0 1 0
    outer loop
      vertex -38.2091 54.614 1.2
      vertex 38.2091 54.614 -6.68829e-15
      vertex -38.2091 54.614 -6.68829e-15
    endloop
  endfacet
  facet normal 0.207917 0.978146 -0
    outer loop
      vertex 38.618 54.5271 -6.67765e-15
      vertex 38.2091 54.614 1.2
      vertex 38.618 54.5271 1.2
    endloop
  endfacet
  facet normal 0.207917 0.978146 0
    outer loop
      vertex 38.2091 54.614 1.2
      vertex 38.618 54.5271 -6.67765e-15
      vertex 38.2091 54.614 -6.68829e-15
    endloop
  endfacet
  facet normal -0.406739 0.913545 0
    outer loop
      vertex -38.618 54.5271 1.2
      vertex -39 54.357 -6.65682e-15
      vertex -39 54.357 1.2
    endloop
  endfacet
  facet normal -0.406739 0.913545 0
    outer loop
      vertex -39 54.357 -6.65682e-15
      vertex -38.618 54.5271 1.2
      vertex -38.618 54.5271 -6.67765e-15
    endloop
  endfacet
  facet normal 0 0 1
    outer loop
      vertex 38.2091 54.614 1.2
      vertex 38.209 54.614 1.2
      vertex 38.618 54.5271 1.2
    endloop
  endfacet
  facet normal 0 0 1
    outer loop
      vertex 38.2091 54.614 1.2
      vertex -38.209 54.614 1.2
      vertex 38.209 54.614 1.2
    endloop
  endfacet
  facet normal -0 0 1
    outer loop
      vertex -38.2091 54.614 1.2
      vertex -38.209 54.614 1.2
      vertex 38.2091 54.614 1.2
    endloop
  endfacet
  facet normal 0 0 1
    outer loop
      vertex -38.2091 54.614 1.2
      vertex -38.618 54.5271 1.2
      vertex -38.209 54.614 1.2
    endloop
  endfacet
  facet normal -0 0 1
    outer loop
      vertex 38.209 -54.614 1.2
      vertex 38.2091 -54.614 1.2
      vertex 38.618 -54.5271 1.2
    endloop
  endfacet
  facet normal -0 0 1
    outer loop
      vertex -38.209 -54.614 1.2
      vertex 38.2091 -54.614 1.2
      vertex 38.209 -54.614 1.2
    endloop
  endfacet
  facet normal 0 0 1
    outer loop
      vertex -38.209 -54.614 1.2
      vertex -38.2091 -54.614 1.2
      vertex 38.2091 -54.614 1.2
    endloop
  endfacet
  facet normal 0 0 1
    outer loop
      vertex -38.618 -54.5271 1.2
      vertex -38.2091 -54.614 1.2
      vertex -38.209 -54.614 1.2
    endloop
  endfacet
  facet normal 0 0 1
    outer loop
      vertex 36.6091 53.014 1.2
      vertex 38.4 51.025 1.2
      vertex 38.3563 51.4408 1.2
    endloop
  endfacet
  facet normal 0 0 1
    outer loop
      vertex 38.4 51.025 1.2
      vertex -38.4 51.025 1.2
      vertex 38.4 -51.025 1.2
    endloop
  endfacet
  facet normal 0 0 1
    outer loop
      vertex 36.6091 53.014 1.2
      vertex 38.3563 51.4408 1.2
      vertex 38.2271 51.8385 1.2
    endloop
  endfacet
  facet normal 0 0 1
    outer loop
      vertex -38.4 -51.025 1.2
      vertex 38.4 -51.025 1.2
      vertex -38.4 51.025 1.2
    endloop
  endfacet
  facet normal 0 0 1
    outer loop
      vertex 36.6091 53.014 1.2
      vertex 38.2271 51.8385 1.2
      vertex 38.018 52.2006 1.2
    endloop
  endfacet
  facet normal 0 0 1
    outer loop
      vertex 38.4 51.025 1.2
      vertex 36.6091 53.014 1.2
      vertex -38.4 51.025 1.2
    endloop
  endfacet
  facet normal 0 0 1
    outer loop
      vertex 36.6091 53.014 1.2
      vertex 38.018 52.2006 1.2
      vertex 37.7383 52.5113 1.2
    endloop
  endfacet
  facet normal 0 -0 1
    outer loop
      vertex 36.6091 -53.014 1.2
      vertex 38.4 -51.025 1.2
      vertex -38.4 -51.025 1.2
    endloop
  endfacet
  facet normal 0 0 1
    outer loop
      vertex 36.6091 53.014 1.2
      vertex 37.7383 52.5113 1.2
      vertex 37.4 52.757 1.2
    endloop
  endfacet
  facet normal 0 0 1
    outer loop
      vertex 38.2271 -51.8385 1.2
      vertex 36.6091 -53.014 1.2
      vertex 38.018 -52.2006 1.2
    endloop
  endfacet
  facet normal 0 0 1
    outer loop
      vertex 36.6091 53.014 1.2
      vertex 37.4 52.757 1.2
      vertex 37.018 52.9271 1.2
    endloop
  endfacet
  facet normal 0 0 1
    outer loop
      vertex 38.018 -52.2006 1.2
      vertex 36.6091 -53.014 1.2
      vertex 37.7383 -52.5113 1.2
    endloop
  endfacet
  facet normal 0 0 1
    outer loop
      vertex 37.7383 -52.5113 1.2
      vertex 36.6091 -53.014 1.2
      vertex 37.4 -52.757 1.2
    endloop
  endfacet
  facet normal 0 0 1
    outer loop
      vertex 37.4 -52.757 1.2
      vertex 36.6091 -53.014 1.2
      vertex 37.018 -52.9271 1.2
    endloop
  endfacet
  facet normal 0 0 1
    outer loop
      vertex -38.4 51.025 1.2
      vertex 36.6091 53.014 1.2
      vertex -36.6091 53.014 1.2
    endloop
  endfacet
  facet normal 0 0 1
    outer loop
      vertex 38.4 -51.025 1.2
      vertex 36.6091 -53.014 1.2
      vertex 38.3563 -51.4408 1.2
    endloop
  endfacet
  facet normal 0 0 1
    outer loop
      vertex -38.4 51.025 1.2
      vertex -36.6091 53.014 1.2
      vertex -37.018 52.9271 1.2
    endloop
  endfacet
  facet normal 0 0 1
    outer loop
      vertex 38.3563 -51.4408 1.2
      vertex 36.6091 -53.014 1.2
      vertex 38.2271 -51.8385 1.2
    endloop
  endfacet
  facet normal 0 0 1
    outer loop
      vertex -38.4 51.025 1.2
      vertex -37.018 52.9271 1.2
      vertex -37.4 52.757 1.2
    endloop
  endfacet
  facet normal 0 0 1
    outer loop
      vertex 36.6091 -53.014 1.2
      vertex -38.4 -51.025 1.2
      vertex -36.6091 -53.014 1.2
    endloop
  endfacet
  facet normal 0 0 1
    outer loop
      vertex -38.4 51.025 1.2
      vertex -37.4 52.757 1.2
      vertex -37.7383 52.5113 1.2
    endloop
  endfacet
  facet normal 0 0 1
    outer loop
      vertex -36.6091 -53.014 1.2
      vertex -38.4 -51.025 1.2
      vertex -37.018 -52.9271 1.2
    endloop
  endfacet
  facet normal 0 0 1
    outer loop
      vertex -38.4 51.025 1.2
      vertex -37.7383 52.5113 1.2
      vertex -38.018 52.2006 1.2
    endloop
  endfacet
  facet normal 0 0 1
    outer loop
      vertex -37.018 -52.9271 1.2
      vertex -38.4 -51.025 1.2
      vertex -37.4 -52.757 1.2
    endloop
  endfacet
  facet normal 0 0 1
    outer loop
      vertex -38.4 51.025 1.2
      vertex -38.018 52.2006 1.2
      vertex -38.2271 51.8385 1.2
    endloop
  endfacet
  facet normal 0 0 1
    outer loop
      vertex -37.4 -52.757 1.2
      vertex -38.4 -51.025 1.2
      vertex -37.7383 -52.5113 1.2
    endloop
  endfacet
  facet normal 0 0 1
    outer loop
      vertex -38.4 51.025 1.2
      vertex -38.2271 51.8385 1.2
      vertex -38.3563 51.4408 1.2
    endloop
  endfacet
  facet normal 0 0 1
    outer loop
      vertex -37.7383 -52.5113 1.2
      vertex -38.4 -51.025 1.2
      vertex -38.018 -52.2006 1.2
    endloop
  endfacet
  facet normal 0 0 1
    outer loop
      vertex -38.018 -52.2006 1.2
      vertex -38.4 -51.025 1.2
      vertex -38.2271 -51.8385 1.2
    endloop
  endfacet
  facet normal 0 0 1
    outer loop
      vertex -38.2271 -51.8385 1.2
      vertex -38.4 -51.025 1.2
      vertex -38.3563 -51.4408 1.2
    endloop
  endfacet
  facet normal -0.994522 -0.104529 0
    outer loop
      vertex -39.9563 -53.0408 6.49563e-15
      vertex -40 -52.625 1.2
      vertex -40 -52.625 6.4447e-15
    endloop
  endfacet
  facet normal -0.994522 -0.104529 0
    outer loop
      vertex -40 -52.625 1.2
      vertex -39.9563 -53.0408 6.49563e-15
      vertex -39.9563 -53.0408 1.2
    endloop
  endfacet
  facet normal 0.207908 -0.978148 0
    outer loop
      vertex 38.2091 -54.614 6.68829e-15
      vertex 38.618 -54.5271 1.2
      vertex 38.2091 -54.614 1.2
    endloop
  endfacet
  facet normal 0.207908 -0.978148 0
    outer loop
      vertex 38.618 -54.5271 1.2
      vertex 38.2091 -54.614 6.68829e-15
      vertex 38.618 -54.5271 6.67765e-15
    endloop
  endfacet
  facet normal 0 -1 0
    outer loop
      vertex -38.2091 -54.614 6.68829e-15
      vertex 38.2091 -54.614 1.2
      vertex -38.2091 -54.614 1.2
    endloop
  endfacet
  facet normal 0 -1 -0
    outer loop
      vertex 38.2091 -54.614 1.2
      vertex -38.2091 -54.614 6.68829e-15
      vertex 38.2091 -54.614 6.68829e-15
    endloop
  endfacet
  facet normal 0.951056 -0.309017 0
    outer loop
      vertex 39.8271 -53.4385 1.2
      vertex 39.9563 -53.0408 6.49563e-15
      vertex 39.9563 -53.0408 1.2
    endloop
  endfacet
  facet normal 0.951056 -0.309017 0
    outer loop
      vertex 39.9563 -53.0408 6.49563e-15
      vertex 39.8271 -53.4385 1.2
      vertex 39.8271 -53.4385 6.54433e-15
    endloop
  endfacet
  facet normal 0.994522 -0.104529 0
    outer loop
      vertex 39.9563 -53.0408 1.2
      vertex 40 -52.625 6.4447e-15
      vertex 40 -52.625 1.2
    endloop
  endfacet
  facet normal 0.994522 -0.104529 0
    outer loop
      vertex 40 -52.625 6.4447e-15
      vertex 39.9563 -53.0408 1.2
      vertex 39.9563 -53.0408 6.49563e-15
    endloop
  endfacet
  facet normal 0.994522 0.104529 0
    outer loop
      vertex 40 52.625 1.2
      vertex 39.9563 53.0408 -6.49563e-15
      vertex 39.9563 53.0408 1.2
    endloop
  endfacet
  facet normal 0.994522 0.104529 0
    outer loop
      vertex 39.9563 53.0408 -6.49563e-15
      vertex 40 52.625 1.2
      vertex 40 52.625 -6.4447e-15
    endloop
  endfacet
  facet normal 0.866026 0.499998 0
    outer loop
      vertex 39.8271 53.4385 1.2
      vertex 39.618 53.8006 -6.58867e-15
      vertex 39.618 53.8006 1.2
    endloop
  endfacet
  facet normal 0.866026 0.499998 0
    outer loop
      vertex 39.618 53.8006 -6.58867e-15
      vertex 39.8271 53.4385 1.2
      vertex 39.8271 53.4385 -6.54433e-15
    endloop
  endfacet
  facet normal -0.951056 -0.309017 0
    outer loop
      vertex -39.8271 -53.4385 6.54433e-15
      vertex -39.9563 -53.0408 1.2
      vertex -39.9563 -53.0408 6.49563e-15
    endloop
  endfacet
  facet normal -0.951056 -0.309017 0
    outer loop
      vertex -39.9563 -53.0408 1.2
      vertex -39.8271 -53.4385 6.54433e-15
      vertex -39.8271 -53.4385 1.2
    endloop
  endfacet
  facet normal -0.866026 -0.499998 0
    outer loop
      vertex -39.618 -53.8006 6.58867e-15
      vertex -39.8271 -53.4385 1.2
      vertex -39.8271 -53.4385 6.54433e-15
    endloop
  endfacet
  facet normal -0.866026 -0.499998 0
    outer loop
      vertex -39.8271 -53.4385 1.2
      vertex -39.618 -53.8006 6.58867e-15
      vertex -39.618 -53.8006 1.2
    endloop
  endfacet
  facet normal 0.406746 -0.913541 0
    outer loop
      vertex 38.618 -54.5271 6.67765e-15
      vertex 39 -54.357 1.2
      vertex 38.618 -54.5271 1.2
    endloop
  endfacet
  facet normal 0.406746 -0.913541 0
    outer loop
      vertex 39 -54.357 1.2
      vertex 38.618 -54.5271 6.67765e-15
      vertex 39 -54.357 6.65682e-15
    endloop
  endfacet
  facet normal 0.743143 -0.669133 0
    outer loop
      vertex 39.3383 -54.1113 1.2
      vertex 39.618 -53.8006 6.58867e-15
      vertex 39.618 -53.8006 1.2
    endloop
  endfacet
  facet normal 0.743143 -0.669133 0
    outer loop
      vertex 39.618 -53.8006 6.58867e-15
      vertex 39.3383 -54.1113 1.2
      vertex 39.3383 -54.1113 6.62672e-15
    endloop
  endfacet
  facet normal 0.866026 -0.499998 0
    outer loop
      vertex 39.618 -53.8006 1.2
      vertex 39.8271 -53.4385 6.54433e-15
      vertex 39.8271 -53.4385 1.2
    endloop
  endfacet
  facet normal 0.866026 -0.499998 0
    outer loop
      vertex 39.8271 -53.4385 6.54433e-15
      vertex 39.618 -53.8006 1.2
      vertex 39.618 -53.8006 6.58867e-15
    endloop
  endfacet
  facet normal -0.406746 -0.913541 0
    outer loop
      vertex -39 -54.357 1.2
      vertex -38.618 -54.5271 6.67765e-15
      vertex -38.618 -54.5271 1.2
    endloop
  endfacet
  facet normal -0.406746 -0.913541 0
    outer loop
      vertex -38.618 -54.5271 6.67765e-15
      vertex -39 -54.357 1.2
      vertex -39 -54.357 6.65682e-15
    endloop
  endfacet
  facet normal -0.207908 -0.978148 0
    outer loop
      vertex -38.618 -54.5271 1.2
      vertex -38.2091 -54.614 6.68829e-15
      vertex -38.2091 -54.614 1.2
    endloop
  endfacet
  facet normal -0.207908 -0.978148 0
    outer loop
      vertex -38.2091 -54.614 6.68829e-15
      vertex -38.618 -54.5271 1.2
      vertex -38.618 -54.5271 6.67765e-15
    endloop
  endfacet
  facet normal -0.743143 -0.669133 0
    outer loop
      vertex -39.3383 -54.1113 6.62672e-15
      vertex -39.618 -53.8006 1.2
      vertex -39.618 -53.8006 6.58867e-15
    endloop
  endfacet
  facet normal -0.743143 -0.669133 0
    outer loop
      vertex -39.618 -53.8006 1.2
      vertex -39.3383 -54.1113 6.62672e-15
      vertex -39.3383 -54.1113 1.2
    endloop
  endfacet
  facet normal 0.951057 0.309015 0
    outer loop
      vertex 39.9563 53.0408 1.2
      vertex 39.8271 53.4385 -6.54433e-15
      vertex 39.8271 53.4385 1.2
    endloop
  endfacet
  facet normal 0.951057 0.309015 0
    outer loop
      vertex 39.8271 53.4385 -6.54433e-15
      vertex 39.9563 53.0408 1.2
      vertex 39.9563 53.0408 -6.49563e-15
    endloop
  endfacet
  facet normal 0.587781 0.80902 -0
    outer loop
      vertex 39.3383 54.1113 -6.62672e-15
      vertex 39 54.357 1.2
      vertex 39.3383 54.1113 1.2
    endloop
  endfacet
  facet normal 0.587781 0.80902 0
    outer loop
      vertex 39 54.357 1.2
      vertex 39.3383 54.1113 -6.62672e-15
      vertex 39 54.357 -6.65682e-15
    endloop
  endfacet
  facet normal 0.587781 -0.80902 0
    outer loop
      vertex 39 -54.357 6.65682e-15
      vertex 39.3383 -54.1113 1.2
      vertex 39 -54.357 1.2
    endloop
  endfacet
  facet normal 0.587781 -0.80902 0
    outer loop
      vertex 39.3383 -54.1113 1.2
      vertex 39 -54.357 6.65682e-15
      vertex 39.3383 -54.1113 6.62672e-15
    endloop
  endfacet
  facet normal -0.587781 -0.80902 0
    outer loop
      vertex -39.3383 -54.1113 1.2
      vertex -39 -54.357 6.65682e-15
      vertex -39 -54.357 1.2
    endloop
  endfacet
  facet normal -0.587781 -0.80902 0
    outer loop
      vertex -39 -54.357 6.65682e-15
      vertex -39.3383 -54.1113 1.2
      vertex -39.3383 -54.1113 6.62672e-15
    endloop
  endfacet
  facet normal 0.406739 0.913545 -0
    outer loop
      vertex 39 54.357 -6.65682e-15
      vertex 38.618 54.5271 1.2
      vertex 39 54.357 1.2
    endloop
  endfacet
  facet normal 0.406739 0.913545 0
    outer loop
      vertex 38.618 54.5271 1.2
      vertex 39 54.357 -6.65682e-15
      vertex 38.618 54.5271 -6.67765e-15
    endloop
  endfacet
  facet normal 0.743143 0.669133 0
    outer loop
      vertex 39.618 53.8006 1.2
      vertex 39.3383 54.1113 -6.62672e-15
      vertex 39.3383 54.1113 1.2
    endloop
  endfacet
  facet normal 0.743143 0.669133 0
    outer loop
      vertex 39.3383 54.1113 -6.62672e-15
      vertex 39.618 53.8006 1.2
      vertex 39.618 53.8006 -6.58867e-15
    endloop
  endfacet
  facet normal -0.207917 0.978146 0
    outer loop
      vertex -38.2091 54.614 1.2
      vertex -38.618 54.5271 -6.67765e-15
      vertex -38.618 54.5271 1.2
    endloop
  endfacet
  facet normal -0.207917 0.978146 0
    outer loop
      vertex -38.618 54.5271 -6.67765e-15
      vertex -38.2091 54.614 1.2
      vertex -38.2091 54.614 -6.68829e-15
    endloop
  endfacet
  facet normal -0.587781 0.80902 0
    outer loop
      vertex -39 54.357 1.2
      vertex -39.3383 54.1113 -6.62672e-15
      vertex -39.3383 54.1113 1.2
    endloop
  endfacet
  facet normal -0.587781 0.80902 0
    outer loop
      vertex -39.3383 54.1113 -6.62672e-15
      vertex -39 54.357 1.2
      vertex -39 54.357 -6.65682e-15
    endloop
  endfacet
  facet normal -0.743143 0.669133 0
    outer loop
      vertex -39.618 53.8006 -6.58867e-15
      vertex -39.3383 54.1113 1.2
      vertex -39.3383 54.1113 -6.62672e-15
    endloop
  endfacet
  facet normal -0.743143 0.669133 0
    outer loop
      vertex -39.3383 54.1113 1.2
      vertex -39.618 53.8006 -6.58867e-15
      vertex -39.618 53.8006 1.2
    endloop
  endfacet
endsolid OpenSCAD_Model
