solid OpenSCAD_Model
  facet normal 0 0 -1
    outer loop
      vertex 23.25 -40 0
      vertex 27 -36.25 0
      vertex 26.9794 -36.642 0
    endloop
  endfacet
  facet normal 0 0 -1
    outer loop
      vertex 27 -36.25 0
      vertex -27 -36.25 0
      vertex 27 36.25 0
    endloop
  endfacet
  facet normal 0 0 -1
    outer loop
      vertex 23.25 -40 0
      vertex 26.9794 -36.642 0
      vertex 26.918 -37.0297 0
    endloop
  endfacet
  facet normal 0 0 -1
    outer loop
      vertex -27 36.25 0
      vertex 27 36.25 0
      vertex -27 -36.25 0
    endloop
  endfacet
  facet normal 0 0 -1
    outer loop
      vertex 23.25 -40 0
      vertex 26.918 -37.0297 0
      vertex 26.8165 -37.4088 0
    endloop
  endfacet
  facet normal 0 -0 -1
    outer loop
      vertex 23.25 40 0
      vertex 27 36.25 0
      vertex -27 36.25 0
    endloop
  endfacet
  facet normal 0 0 -1
    outer loop
      vertex 23.25 -40 0
      vertex 26.8165 -37.4088 0
      vertex 26.6758 -37.7753 0
    endloop
  endfacet
  facet normal 0 0 -1
    outer loop
      vertex 27 36.25 0
      vertex 23.25 40 0
      vertex 26.9794 36.642 0
    endloop
  endfacet
  facet normal 0 0 -1
    outer loop
      vertex 23.25 -40 0
      vertex 26.6758 -37.7753 0
      vertex 26.4976 -38.125 0
    endloop
  endfacet
  facet normal -0 0 -1
    outer loop
      vertex 27 -36.25 0
      vertex 23.25 -40 0
      vertex -27 -36.25 0
    endloop
  endfacet
  facet normal 0 0 -1
    outer loop
      vertex 23.25 -40 0
      vertex 26.4976 -38.125 0
      vertex 26.2838 -38.4542 0
    endloop
  endfacet
  facet normal 0 0 -1
    outer loop
      vertex 26.9794 36.642 0
      vertex 23.25 40 0
      vertex 26.918 37.0297 0
    endloop
  endfacet
  facet normal 0 0 -1
    outer loop
      vertex 23.25 -40 0
      vertex 26.2838 -38.4542 0
      vertex 26.0368 -38.7592 0
    endloop
  endfacet
  facet normal 0 0 -1
    outer loop
      vertex 26.6758 37.7753 0
      vertex 23.25 40 0
      vertex 26.4976 38.125 0
    endloop
  endfacet
  facet normal 0 0 -1
    outer loop
      vertex 23.25 -40 0
      vertex 26.0368 -38.7592 0
      vertex 25.7592 -39.0368 0
    endloop
  endfacet
  facet normal 0 0 -1
    outer loop
      vertex 26.4976 38.125 0
      vertex 23.25 40 0
      vertex 26.2838 38.4542 0
    endloop
  endfacet
  facet normal 0 0 -1
    outer loop
      vertex 23.25 -40 0
      vertex 25.7592 -39.0368 0
      vertex 25.4542 -39.2838 0
    endloop
  endfacet
  facet normal 0 0 -1
    outer loop
      vertex 26.2838 38.4542 0
      vertex 23.25 40 0
      vertex 26.0368 38.7592 0
    endloop
  endfacet
  facet normal 0 0 -1
    outer loop
      vertex 23.25 -40 0
      vertex 25.4542 -39.2838 0
      vertex 25.125 -39.4976 0
    endloop
  endfacet
  facet normal 0 0 -1
    outer loop
      vertex 26.0368 38.7592 0
      vertex 23.25 40 0
      vertex 25.7592 39.0368 0
    endloop
  endfacet
  facet normal 0 0 -1
    outer loop
      vertex 23.25 -40 0
      vertex 25.125 -39.4976 0
      vertex 24.7753 -39.6758 0
    endloop
  endfacet
  facet normal 0 0 -1
    outer loop
      vertex 25.7592 39.0368 0
      vertex 23.25 40 0
      vertex 25.4542 39.2838 0
    endloop
  endfacet
  facet normal 0 0 -1
    outer loop
      vertex 23.25 -40 0
      vertex 24.7753 -39.6758 0
      vertex 24.4088 -39.8165 0
    endloop
  endfacet
  facet normal 0 0 -1
    outer loop
      vertex 25.4542 39.2838 0
      vertex 23.25 40 0
      vertex 25.125 39.4976 0
    endloop
  endfacet
  facet normal 0 0 -1
    outer loop
      vertex 23.25 -40 0
      vertex 24.4088 -39.8165 0
      vertex 24.0297 -39.918 0
    endloop
  endfacet
  facet normal 0 0 -1
    outer loop
      vertex 25.125 39.4976 0
      vertex 23.25 40 0
      vertex 24.7753 39.6758 0
    endloop
  endfacet
  facet normal 0 0 -1
    outer loop
      vertex 23.25 -40 0
      vertex 24.0297 -39.918 0
      vertex 23.642 -39.9794 0
    endloop
  endfacet
  facet normal 0 0 -1
    outer loop
      vertex 24.7753 39.6758 0
      vertex 23.25 40 0
      vertex 24.4088 39.8165 0
    endloop
  endfacet
  facet normal 0 0 -1
    outer loop
      vertex 24.4088 39.8165 0
      vertex 23.25 40 0
      vertex 24.0297 39.918 0
    endloop
  endfacet
  facet normal 0 0 -1
    outer loop
      vertex 24.0297 39.918 0
      vertex 23.25 40 0
      vertex 23.642 39.9794 0
    endloop
  endfacet
  facet normal 0 0 -1
    outer loop
      vertex -27 -36.25 0
      vertex 23.25 -40 0
      vertex -23.25 -40 0
    endloop
  endfacet
  facet normal 0 0 -1
    outer loop
      vertex 26.918 37.0297 0
      vertex 23.25 40 0
      vertex 26.8165 37.4088 0
    endloop
  endfacet
  facet normal 0 0 -1
    outer loop
      vertex -27 -36.25 0
      vertex -23.25 -40 0
      vertex -23.642 -39.9794 0
    endloop
  endfacet
  facet normal 0 0 -1
    outer loop
      vertex 26.8165 37.4088 0
      vertex 23.25 40 0
      vertex 26.6758 37.7753 0
    endloop
  endfacet
  facet normal 0 0 -1
    outer loop
      vertex -27 -36.25 0
      vertex -23.642 -39.9794 0
      vertex -24.0297 -39.918 0
    endloop
  endfacet
  facet normal -0 0 -1
    outer loop
      vertex 23.25 40 0
      vertex -27 36.25 0
      vertex -23.25 40 0
    endloop
  endfacet
  facet normal 0 0 -1
    outer loop
      vertex -27 -36.25 0
      vertex -24.0297 -39.918 0
      vertex -24.4088 -39.8165 0
    endloop
  endfacet
  facet normal 0 0 -1
    outer loop
      vertex -23.25 40 0
      vertex -27 36.25 0
      vertex -23.642 39.9794 0
    endloop
  endfacet
  facet normal 0 0 -1
    outer loop
      vertex -27 -36.25 0
      vertex -24.4088 -39.8165 0
      vertex -24.7753 -39.6758 0
    endloop
  endfacet
  facet normal 0 0 -1
    outer loop
      vertex -23.642 39.9794 0
      vertex -27 36.25 0
      vertex -24.0297 39.918 0
    endloop
  endfacet
  facet normal 0 0 -1
    outer loop
      vertex -27 -36.25 0
      vertex -24.7753 -39.6758 0
      vertex -25.125 -39.4976 0
    endloop
  endfacet
  facet normal 0 0 -1
    outer loop
      vertex -24.0297 39.918 0
      vertex -27 36.25 0
      vertex -24.4088 39.8165 0
    endloop
  endfacet
  facet normal 0 0 -1
    outer loop
      vertex -27 -36.25 0
      vertex -25.125 -39.4976 0
      vertex -25.4542 -39.2838 0
    endloop
  endfacet
  facet normal 0 0 -1
    outer loop
      vertex -24.4088 39.8165 0
      vertex -27 36.25 0
      vertex -24.7753 39.6758 0
    endloop
  endfacet
  facet normal 0 0 -1
    outer loop
      vertex -27 -36.25 0
      vertex -25.4542 -39.2838 0
      vertex -25.7592 -39.0368 0
    endloop
  endfacet
  facet normal 0 0 -1
    outer loop
      vertex -24.7753 39.6758 0
      vertex -27 36.25 0
      vertex -25.125 39.4976 0
    endloop
  endfacet
  facet normal 0 0 -1
    outer loop
      vertex -27 -36.25 0
      vertex -25.7592 -39.0368 0
      vertex -26.0368 -38.7592 0
    endloop
  endfacet
  facet normal 0 0 -1
    outer loop
      vertex -25.125 39.4976 0
      vertex -27 36.25 0
      vertex -25.4542 39.2838 0
    endloop
  endfacet
  facet normal 0 0 -1
    outer loop
      vertex -27 -36.25 0
      vertex -26.0368 -38.7592 0
      vertex -26.2838 -38.4542 0
    endloop
  endfacet
  facet normal 0 0 -1
    outer loop
      vertex -25.4542 39.2838 0
      vertex -27 36.25 0
      vertex -25.7592 39.0368 0
    endloop
  endfacet
  facet normal 0 0 -1
    outer loop
      vertex -27 -36.25 0
      vertex -26.2838 -38.4542 0
      vertex -26.4976 -38.125 0
    endloop
  endfacet
  facet normal 0 0 -1
    outer loop
      vertex -25.7592 39.0368 0
      vertex -27 36.25 0
      vertex -26.0368 38.7592 0
    endloop
  endfacet
  facet normal 0 0 -1
    outer loop
      vertex -27 -36.25 0
      vertex -26.4976 -38.125 0
      vertex -26.6758 -37.7753 0
    endloop
  endfacet
  facet normal 0 0 -1
    outer loop
      vertex -26.0368 38.7592 0
      vertex -27 36.25 0
      vertex -26.2838 38.4542 0
    endloop
  endfacet
  facet normal 0 0 -1
    outer loop
      vertex -27 -36.25 0
      vertex -26.6758 -37.7753 0
      vertex -26.8165 -37.4088 0
    endloop
  endfacet
  facet normal 0 0 -1
    outer loop
      vertex -26.2838 38.4542 0
      vertex -27 36.25 0
      vertex -26.4976 38.125 0
    endloop
  endfacet
  facet normal 0 0 -1
    outer loop
      vertex -27 -36.25 0
      vertex -26.8165 -37.4088 0
      vertex -26.918 -37.0297 0
    endloop
  endfacet
  facet normal 0 0 -1
    outer loop
      vertex -26.4976 38.125 0
      vertex -27 36.25 0
      vertex -26.6758 37.7753 0
    endloop
  endfacet
  facet normal 0 0 -1
    outer loop
      vertex -27 -36.25 0
      vertex -26.918 -37.0297 0
      vertex -26.9794 -36.642 0
    endloop
  endfacet
  facet normal 0 0 -1
    outer loop
      vertex -26.6758 37.7753 0
      vertex -27 36.25 0
      vertex -26.8165 37.4088 0
    endloop
  endfacet
  facet normal 0 0 -1
    outer loop
      vertex -26.8165 37.4088 0
      vertex -27 36.25 0
      vertex -26.918 37.0297 0
    endloop
  endfacet
  facet normal 0 0 -1
    outer loop
      vertex -26.918 37.0297 0
      vertex -27 36.25 0
      vertex -26.9794 36.642 0
    endloop
  endfacet
  facet normal 0 0 1
    outer loop
      vertex 25.0758 36.1752 23.25
      vertex 27 36.25 23.25
      vertex 26.9794 36.642 23.25
    endloop
  endfacet
  facet normal 0 0 1
    outer loop
      vertex 27 36.25 23.25
      vertex 25.4 34.65 23.25
      vertex 27 -36.25 23.25
    endloop
  endfacet
  facet normal 0 0 1
    outer loop
      vertex 25.0758 36.1752 23.25
      vertex 26.9794 36.642 23.25
      vertex 26.918 37.0297 23.25
    endloop
  endfacet
  facet normal -0 0 1
    outer loop
      vertex 25.4 -34.65 23.25
      vertex 27 -36.25 23.25
      vertex 25.4 34.65 23.25
    endloop
  endfacet
  facet normal 0 0 1
    outer loop
      vertex 24.8976 36.525 23.25
      vertex 26.918 37.0297 23.25
      vertex 26.8165 37.4088 23.25
    endloop
  endfacet
  facet normal -0 0 1
    outer loop
      vertex 25.3795 -35.042 23.25
      vertex 27 -36.25 23.25
      vertex 25.4 -34.65 23.25
    endloop
  endfacet
  facet normal 0 0 1
    outer loop
      vertex 24.8976 36.525 23.25
      vertex 26.8165 37.4088 23.25
      vertex 26.6758 37.7753 23.25
    endloop
  endfacet
  facet normal -0 0 1
    outer loop
      vertex 25.318 -35.4297 23.25
      vertex 27 -36.25 23.25
      vertex 25.3795 -35.042 23.25
    endloop
  endfacet
  facet normal 0 0 1
    outer loop
      vertex 24.6838 36.8542 23.25
      vertex 26.6758 37.7753 23.25
      vertex 26.4976 38.125 23.25
    endloop
  endfacet
  facet normal -0 0 1
    outer loop
      vertex 25.2165 -35.8088 23.25
      vertex 27 -36.25 23.25
      vertex 25.318 -35.4297 23.25
    endloop
  endfacet
  facet normal 0 0 1
    outer loop
      vertex 24.6838 36.8542 23.25
      vertex 26.4976 38.125 23.25
      vertex 26.2838 38.4542 23.25
    endloop
  endfacet
  facet normal -0 0 1
    outer loop
      vertex 25.0758 -36.1752 23.25
      vertex 27 -36.25 23.25
      vertex 25.2165 -35.8088 23.25
    endloop
  endfacet
  facet normal 0 0 1
    outer loop
      vertex 24.4368 37.1592 23.25
      vertex 26.2838 38.4542 23.25
      vertex 26.0368 38.7592 23.25
    endloop
  endfacet
  facet normal 0 0 1
    outer loop
      vertex 27 -36.25 23.25
      vertex 25.0758 -36.1752 23.25
      vertex 26.9794 -36.642 23.25
    endloop
  endfacet
  facet normal 0 0 1
    outer loop
      vertex 24.4368 37.1592 23.25
      vertex 26.0368 38.7592 23.25
      vertex 25.7592 39.0368 23.25
    endloop
  endfacet
  facet normal 0 0 1
    outer loop
      vertex 26.9794 -36.642 23.25
      vertex 25.0758 -36.1752 23.25
      vertex 26.918 -37.0297 23.25
    endloop
  endfacet
  facet normal 0 0 1
    outer loop
      vertex 24.1592 37.4368 23.25
      vertex 25.7592 39.0368 23.25
      vertex 25.4542 39.2838 23.25
    endloop
  endfacet
  facet normal -0 0 1
    outer loop
      vertex 24.8976 -36.525 23.25
      vertex 26.918 -37.0297 23.25
      vertex 25.0758 -36.1752 23.25
    endloop
  endfacet
  facet normal 0 0 1
    outer loop
      vertex 26.918 -37.0297 23.25
      vertex 24.8976 -36.525 23.25
      vertex 26.8165 -37.4088 23.25
    endloop
  endfacet
  facet normal 0 0 1
    outer loop
      vertex 27 36.25 23.25
      vertex 25.3795 35.042 23.25
      vertex 25.4 34.65 23.25
    endloop
  endfacet
  facet normal 0 0 1
    outer loop
      vertex 27 36.25 23.25
      vertex 25.318 35.4297 23.25
      vertex 25.3795 35.042 23.25
    endloop
  endfacet
  facet normal 0 0 1
    outer loop
      vertex 27 36.25 23.25
      vertex 25.2165 35.8088 23.25
      vertex 25.318 35.4297 23.25
    endloop
  endfacet
  facet normal 0 0 1
    outer loop
      vertex 23.8542 37.6838 23.25
      vertex 25.4542 39.2838 23.25
      vertex 25.125 39.4976 23.25
    endloop
  endfacet
  facet normal 0 0 1
    outer loop
      vertex 27 36.25 23.25
      vertex 25.0758 36.1752 23.25
      vertex 25.2165 35.8088 23.25
    endloop
  endfacet
  facet normal 0 0 1
    outer loop
      vertex 26.918 37.0297 23.25
      vertex 24.8976 36.525 23.25
      vertex 25.0758 36.1752 23.25
    endloop
  endfacet
  facet normal 0 0 1
    outer loop
      vertex 23.8542 37.6838 23.25
      vertex 25.125 39.4976 23.25
      vertex 24.7753 39.6758 23.25
    endloop
  endfacet
  facet normal 0 0 1
    outer loop
      vertex 26.6758 37.7753 23.25
      vertex 24.6838 36.8542 23.25
      vertex 24.8976 36.525 23.25
    endloop
  endfacet
  facet normal 0 0 1
    outer loop
      vertex 26.2838 38.4542 23.25
      vertex 24.4368 37.1592 23.25
      vertex 24.6838 36.8542 23.25
    endloop
  endfacet
  facet normal 0 0 1
    outer loop
      vertex 23.525 37.8976 23.25
      vertex 24.7753 39.6758 23.25
      vertex 24.4088 39.8165 23.25
    endloop
  endfacet
  facet normal 0 0 1
    outer loop
      vertex 25.7592 39.0368 23.25
      vertex 24.1592 37.4368 23.25
      vertex 24.4368 37.1592 23.25
    endloop
  endfacet
  facet normal 0 0 1
    outer loop
      vertex 23.525 37.8976 23.25
      vertex 24.4088 39.8165 23.25
      vertex 24.0297 39.918 23.25
    endloop
  endfacet
  facet normal 0 0 1
    outer loop
      vertex 25.4542 39.2838 23.25
      vertex 23.8542 37.6838 23.25
      vertex 24.1592 37.4368 23.25
    endloop
  endfacet
  facet normal 0 0 1
    outer loop
      vertex 23.1752 38.0758 23.25
      vertex 24.0297 39.918 23.25
      vertex 23.642 39.9794 23.25
    endloop
  endfacet
  facet normal 0 0 1
    outer loop
      vertex 24.7753 39.6758 23.25
      vertex 23.525 37.8976 23.25
      vertex 23.8542 37.6838 23.25
    endloop
  endfacet
  facet normal 0 0 1
    outer loop
      vertex 23.1752 38.0758 23.25
      vertex 23.642 39.9794 23.25
      vertex 23.25 40 23.25
    endloop
  endfacet
  facet normal 0 0 1
    outer loop
      vertex 24.0297 39.918 23.25
      vertex 23.1752 38.0758 23.25
      vertex 23.525 37.8976 23.25
    endloop
  endfacet
  facet normal 0 0 1
    outer loop
      vertex 23.25 40 23.25
      vertex 22.8088 38.2165 23.25
      vertex 23.1752 38.0758 23.25
    endloop
  endfacet
  facet normal 0 0 1
    outer loop
      vertex 23.25 40 23.25
      vertex 22.4297 38.318 23.25
      vertex 22.8088 38.2165 23.25
    endloop
  endfacet
  facet normal 0 0 1
    outer loop
      vertex 23.25 40 23.25
      vertex 22.042 38.3795 23.25
      vertex 22.4297 38.318 23.25
    endloop
  endfacet
  facet normal 0 0 1
    outer loop
      vertex 23.25 40 23.25
      vertex 21.65 38.4 23.25
      vertex 22.042 38.3795 23.25
    endloop
  endfacet
  facet normal 0 0 1
    outer loop
      vertex 23.25 40 23.25
      vertex -21.65 38.4 23.25
      vertex 21.65 38.4 23.25
    endloop
  endfacet
  facet normal -0 0 1
    outer loop
      vertex -23.25 40 23.25
      vertex -21.65 38.4 23.25
      vertex 23.25 40 23.25
    endloop
  endfacet
  facet normal 0 0 1
    outer loop
      vertex -23.25 40 23.25
      vertex -22.042 38.3795 23.25
      vertex -21.65 38.4 23.25
    endloop
  endfacet
  facet normal 0 0 1
    outer loop
      vertex -23.25 40 23.25
      vertex -22.4297 38.318 23.25
      vertex -22.042 38.3795 23.25
    endloop
  endfacet
  facet normal 0 0 1
    outer loop
      vertex -23.25 40 23.25
      vertex -22.8088 38.2165 23.25
      vertex -22.4297 38.318 23.25
    endloop
  endfacet
  facet normal 0 0 1
    outer loop
      vertex -23.25 40 23.25
      vertex -23.1752 38.0758 23.25
      vertex -22.8088 38.2165 23.25
    endloop
  endfacet
  facet normal -0 0 1
    outer loop
      vertex -23.642 39.9794 23.25
      vertex -23.1752 38.0758 23.25
      vertex -23.25 40 23.25
    endloop
  endfacet
  facet normal -0 0 1
    outer loop
      vertex -24.0297 39.918 23.25
      vertex -23.1752 38.0758 23.25
      vertex -23.642 39.9794 23.25
    endloop
  endfacet
  facet normal 0 0 1
    outer loop
      vertex -23.1752 38.0758 23.25
      vertex -24.0297 39.918 23.25
      vertex -23.525 37.8976 23.25
    endloop
  endfacet
  facet normal -0 0 1
    outer loop
      vertex -24.4088 39.8165 23.25
      vertex -23.525 37.8976 23.25
      vertex -24.0297 39.918 23.25
    endloop
  endfacet
  facet normal -0 0 1
    outer loop
      vertex -24.7753 39.6758 23.25
      vertex -23.525 37.8976 23.25
      vertex -24.4088 39.8165 23.25
    endloop
  endfacet
  facet normal 0 0 1
    outer loop
      vertex -23.525 37.8976 23.25
      vertex -24.7753 39.6758 23.25
      vertex -23.8542 37.6838 23.25
    endloop
  endfacet
  facet normal -0 0 1
    outer loop
      vertex -25.125 39.4976 23.25
      vertex -23.8542 37.6838 23.25
      vertex -24.7753 39.6758 23.25
    endloop
  endfacet
  facet normal -0 0 1
    outer loop
      vertex -25.4542 39.2838 23.25
      vertex -23.8542 37.6838 23.25
      vertex -25.125 39.4976 23.25
    endloop
  endfacet
  facet normal 0 0 1
    outer loop
      vertex -23.8542 37.6838 23.25
      vertex -25.4542 39.2838 23.25
      vertex -24.1592 37.4368 23.25
    endloop
  endfacet
  facet normal -0 0 1
    outer loop
      vertex -25.7592 39.0368 23.25
      vertex -24.1592 37.4368 23.25
      vertex -25.4542 39.2838 23.25
    endloop
  endfacet
  facet normal 0 0 1
    outer loop
      vertex -24.1592 37.4368 23.25
      vertex -25.7592 39.0368 23.25
      vertex -24.4368 37.1592 23.25
    endloop
  endfacet
  facet normal -0 0 1
    outer loop
      vertex -26.0368 38.7592 23.25
      vertex -24.4368 37.1592 23.25
      vertex -25.7592 39.0368 23.25
    endloop
  endfacet
  facet normal -0 0 1
    outer loop
      vertex -26.2838 38.4542 23.25
      vertex -24.4368 37.1592 23.25
      vertex -26.0368 38.7592 23.25
    endloop
  endfacet
  facet normal 0 0 1
    outer loop
      vertex -24.4368 37.1592 23.25
      vertex -26.2838 38.4542 23.25
      vertex -24.6838 36.8542 23.25
    endloop
  endfacet
  facet normal -0 0 1
    outer loop
      vertex -26.4976 38.125 23.25
      vertex -24.6838 36.8542 23.25
      vertex -26.2838 38.4542 23.25
    endloop
  endfacet
  facet normal -0 0 1
    outer loop
      vertex -26.8165 37.4088 23.25
      vertex -24.8976 36.525 23.25
      vertex -26.6758 37.7753 23.25
    endloop
  endfacet
  facet normal 0 0 1
    outer loop
      vertex -24.6838 36.8542 23.25
      vertex -26.6758 37.7753 23.25
      vertex -24.8976 36.525 23.25
    endloop
  endfacet
  facet normal -0 0 1
    outer loop
      vertex -26.6758 37.7753 23.25
      vertex -24.6838 36.8542 23.25
      vertex -26.4976 38.125 23.25
    endloop
  endfacet
  facet normal 0 0 1
    outer loop
      vertex 26.8165 -37.4088 23.25
      vertex 24.8976 -36.525 23.25
      vertex 26.6758 -37.7753 23.25
    endloop
  endfacet
  facet normal -0 0 1
    outer loop
      vertex 24.6838 -36.8542 23.25
      vertex 26.6758 -37.7753 23.25
      vertex 24.8976 -36.525 23.25
    endloop
  endfacet
  facet normal 0 0 1
    outer loop
      vertex 26.6758 -37.7753 23.25
      vertex 24.6838 -36.8542 23.25
      vertex 26.4976 -38.125 23.25
    endloop
  endfacet
  facet normal 0 0 1
    outer loop
      vertex 26.4976 -38.125 23.25
      vertex 24.6838 -36.8542 23.25
      vertex 26.2838 -38.4542 23.25
    endloop
  endfacet
  facet normal -0 0 1
    outer loop
      vertex 24.4368 -37.1592 23.25
      vertex 26.2838 -38.4542 23.25
      vertex 24.6838 -36.8542 23.25
    endloop
  endfacet
  facet normal 0 0 1
    outer loop
      vertex 26.2838 -38.4542 23.25
      vertex 24.4368 -37.1592 23.25
      vertex 26.0368 -38.7592 23.25
    endloop
  endfacet
  facet normal 0 0 1
    outer loop
      vertex 26.0368 -38.7592 23.25
      vertex 24.4368 -37.1592 23.25
      vertex 25.7592 -39.0368 23.25
    endloop
  endfacet
  facet normal -0 0 1
    outer loop
      vertex 24.1592 -37.4368 23.25
      vertex 25.7592 -39.0368 23.25
      vertex 24.4368 -37.1592 23.25
    endloop
  endfacet
  facet normal 0 0 1
    outer loop
      vertex 25.7592 -39.0368 23.25
      vertex 24.1592 -37.4368 23.25
      vertex 25.4542 -39.2838 23.25
    endloop
  endfacet
  facet normal -0 0 1
    outer loop
      vertex 23.8542 -37.6838 23.25
      vertex 25.4542 -39.2838 23.25
      vertex 24.1592 -37.4368 23.25
    endloop
  endfacet
  facet normal 0 0 1
    outer loop
      vertex 25.4542 -39.2838 23.25
      vertex 23.8542 -37.6838 23.25
      vertex 25.125 -39.4976 23.25
    endloop
  endfacet
  facet normal 0 0 1
    outer loop
      vertex 25.125 -39.4976 23.25
      vertex 23.8542 -37.6838 23.25
      vertex 24.7753 -39.6758 23.25
    endloop
  endfacet
  facet normal -0 0 1
    outer loop
      vertex 23.525 -37.8976 23.25
      vertex 24.7753 -39.6758 23.25
      vertex 23.8542 -37.6838 23.25
    endloop
  endfacet
  facet normal 0 0 1
    outer loop
      vertex 24.7753 -39.6758 23.25
      vertex 23.525 -37.8976 23.25
      vertex 24.4088 -39.8165 23.25
    endloop
  endfacet
  facet normal 0 0 1
    outer loop
      vertex 24.4088 -39.8165 23.25
      vertex 23.525 -37.8976 23.25
      vertex 24.0297 -39.918 23.25
    endloop
  endfacet
  facet normal -0 0 1
    outer loop
      vertex 23.1752 -38.0758 23.25
      vertex 24.0297 -39.918 23.25
      vertex 23.525 -37.8976 23.25
    endloop
  endfacet
  facet normal 0 0 1
    outer loop
      vertex 24.0297 -39.918 23.25
      vertex 23.1752 -38.0758 23.25
      vertex 23.642 -39.9794 23.25
    endloop
  endfacet
  facet normal 0 0 1
    outer loop
      vertex 23.642 -39.9794 23.25
      vertex 23.1752 -38.0758 23.25
      vertex 23.25 -40 23.25
    endloop
  endfacet
  facet normal -0 0 1
    outer loop
      vertex 22.8088 -38.2165 23.25
      vertex 23.25 -40 23.25
      vertex 23.1752 -38.0758 23.25
    endloop
  endfacet
  facet normal -0 0 1
    outer loop
      vertex 22.4297 -38.318 23.25
      vertex 23.25 -40 23.25
      vertex 22.8088 -38.2165 23.25
    endloop
  endfacet
  facet normal -0 0 1
    outer loop
      vertex 22.042 -38.3795 23.25
      vertex 23.25 -40 23.25
      vertex 22.4297 -38.318 23.25
    endloop
  endfacet
  facet normal -0 0 1
    outer loop
      vertex 21.65 -38.4 23.25
      vertex 23.25 -40 23.25
      vertex 22.042 -38.3795 23.25
    endloop
  endfacet
  facet normal -0 0 1
    outer loop
      vertex -21.65 -38.4 23.25
      vertex 23.25 -40 23.25
      vertex 21.65 -38.4 23.25
    endloop
  endfacet
  facet normal 0 0 1
    outer loop
      vertex -21.65 -38.4 23.25
      vertex -23.25 -40 23.25
      vertex 23.25 -40 23.25
    endloop
  endfacet
  facet normal 0 0 1
    outer loop
      vertex -22.042 -38.3795 23.25
      vertex -23.25 -40 23.25
      vertex -21.65 -38.4 23.25
    endloop
  endfacet
  facet normal 0 0 1
    outer loop
      vertex -22.4297 -38.318 23.25
      vertex -23.25 -40 23.25
      vertex -22.042 -38.3795 23.25
    endloop
  endfacet
  facet normal 0 0 1
    outer loop
      vertex -22.8088 -38.2165 23.25
      vertex -23.25 -40 23.25
      vertex -22.4297 -38.318 23.25
    endloop
  endfacet
  facet normal 0 0 1
    outer loop
      vertex -23.1752 -38.0758 23.25
      vertex -23.25 -40 23.25
      vertex -22.8088 -38.2165 23.25
    endloop
  endfacet
  facet normal 0 0 1
    outer loop
      vertex -24.0297 -39.918 23.25
      vertex -23.1752 -38.0758 23.25
      vertex -23.525 -37.8976 23.25
    endloop
  endfacet
  facet normal 0 0 1
    outer loop
      vertex -23.1752 -38.0758 23.25
      vertex -23.642 -39.9794 23.25
      vertex -23.25 -40 23.25
    endloop
  endfacet
  facet normal 0 0 1
    outer loop
      vertex -24.7753 -39.6758 23.25
      vertex -23.525 -37.8976 23.25
      vertex -23.8542 -37.6838 23.25
    endloop
  endfacet
  facet normal 0 0 1
    outer loop
      vertex -23.1752 -38.0758 23.25
      vertex -24.0297 -39.918 23.25
      vertex -23.642 -39.9794 23.25
    endloop
  endfacet
  facet normal 0 0 1
    outer loop
      vertex -25.4542 -39.2838 23.25
      vertex -23.8542 -37.6838 23.25
      vertex -24.1592 -37.4368 23.25
    endloop
  endfacet
  facet normal 0 0 1
    outer loop
      vertex -23.525 -37.8976 23.25
      vertex -24.4088 -39.8165 23.25
      vertex -24.0297 -39.918 23.25
    endloop
  endfacet
  facet normal 0 0 1
    outer loop
      vertex -25.7592 -39.0368 23.25
      vertex -24.1592 -37.4368 23.25
      vertex -24.4368 -37.1592 23.25
    endloop
  endfacet
  facet normal 0 0 1
    outer loop
      vertex -26.2838 -38.4542 23.25
      vertex -24.4368 -37.1592 23.25
      vertex -24.6838 -36.8542 23.25
    endloop
  endfacet
  facet normal 0 0 1
    outer loop
      vertex -23.525 -37.8976 23.25
      vertex -24.7753 -39.6758 23.25
      vertex -24.4088 -39.8165 23.25
    endloop
  endfacet
  facet normal 0 0 1
    outer loop
      vertex -26.6758 -37.7753 23.25
      vertex -24.6838 -36.8542 23.25
      vertex -24.8976 -36.525 23.25
    endloop
  endfacet
  facet normal 0 0 1
    outer loop
      vertex -26.918 -37.0297 23.25
      vertex -24.8976 -36.525 23.25
      vertex -25.0758 -36.1752 23.25
    endloop
  endfacet
  facet normal 0 0 1
    outer loop
      vertex -23.8542 -37.6838 23.25
      vertex -25.125 -39.4976 23.25
      vertex -24.7753 -39.6758 23.25
    endloop
  endfacet
  facet normal 0 0 1
    outer loop
      vertex -27 -36.25 23.25
      vertex -25.0758 -36.1752 23.25
      vertex -25.2165 -35.8088 23.25
    endloop
  endfacet
  facet normal 0 0 1
    outer loop
      vertex -27 -36.25 23.25
      vertex -25.2165 -35.8088 23.25
      vertex -25.318 -35.4297 23.25
    endloop
  endfacet
  facet normal 0 0 1
    outer loop
      vertex -27 -36.25 23.25
      vertex -25.318 -35.4297 23.25
      vertex -25.3795 -35.042 23.25
    endloop
  endfacet
  facet normal 0 0 1
    outer loop
      vertex -23.8542 -37.6838 23.25
      vertex -25.4542 -39.2838 23.25
      vertex -25.125 -39.4976 23.25
    endloop
  endfacet
  facet normal 0 0 1
    outer loop
      vertex -27 -36.25 23.25
      vertex -25.3795 -35.042 23.25
      vertex -25.4 -34.65 23.25
    endloop
  endfacet
  facet normal 0 0 1
    outer loop
      vertex -25.4 34.65 23.25
      vertex -27 36.25 23.25
      vertex -25.4 -34.65 23.25
    endloop
  endfacet
  facet normal -0 0 1
    outer loop
      vertex -26.918 37.0297 23.25
      vertex -24.8976 36.525 23.25
      vertex -26.8165 37.4088 23.25
    endloop
  endfacet
  facet normal 0 0 1
    outer loop
      vertex -27 -36.25 23.25
      vertex -25.4 -34.65 23.25
      vertex -27 36.25 23.25
    endloop
  endfacet
  facet normal 0 0 1
    outer loop
      vertex -24.8976 36.525 23.25
      vertex -26.918 37.0297 23.25
      vertex -25.0758 36.1752 23.25
    endloop
  endfacet
  facet normal 0 0 1
    outer loop
      vertex -25.0758 -36.1752 23.25
      vertex -27 -36.25 23.25
      vertex -26.9794 -36.642 23.25
    endloop
  endfacet
  facet normal -0 0 1
    outer loop
      vertex -26.9794 36.642 23.25
      vertex -25.0758 36.1752 23.25
      vertex -26.918 37.0297 23.25
    endloop
  endfacet
  facet normal 0 0 1
    outer loop
      vertex -24.1592 -37.4368 23.25
      vertex -25.7592 -39.0368 23.25
      vertex -25.4542 -39.2838 23.25
    endloop
  endfacet
  facet normal -0 0 1
    outer loop
      vertex -27 36.25 23.25
      vertex -25.0758 36.1752 23.25
      vertex -26.9794 36.642 23.25
    endloop
  endfacet
  facet normal 0 0 1
    outer loop
      vertex -24.4368 -37.1592 23.25
      vertex -26.0368 -38.7592 23.25
      vertex -25.7592 -39.0368 23.25
    endloop
  endfacet
  facet normal 0 0 1
    outer loop
      vertex -25.0758 36.1752 23.25
      vertex -27 36.25 23.25
      vertex -25.2165 35.8088 23.25
    endloop
  endfacet
  facet normal 0 0 1
    outer loop
      vertex -24.4368 -37.1592 23.25
      vertex -26.2838 -38.4542 23.25
      vertex -26.0368 -38.7592 23.25
    endloop
  endfacet
  facet normal 0 0 1
    outer loop
      vertex -25.2165 35.8088 23.25
      vertex -27 36.25 23.25
      vertex -25.318 35.4297 23.25
    endloop
  endfacet
  facet normal 0 0 1
    outer loop
      vertex -24.6838 -36.8542 23.25
      vertex -26.4976 -38.125 23.25
      vertex -26.2838 -38.4542 23.25
    endloop
  endfacet
  facet normal 0 0 1
    outer loop
      vertex -25.318 35.4297 23.25
      vertex -27 36.25 23.25
      vertex -25.3795 35.042 23.25
    endloop
  endfacet
  facet normal 0 0 1
    outer loop
      vertex -24.6838 -36.8542 23.25
      vertex -26.6758 -37.7753 23.25
      vertex -26.4976 -38.125 23.25
    endloop
  endfacet
  facet normal 0 0 1
    outer loop
      vertex -25.3795 35.042 23.25
      vertex -27 36.25 23.25
      vertex -25.4 34.65 23.25
    endloop
  endfacet
  facet normal 0 0 1
    outer loop
      vertex -24.8976 -36.525 23.25
      vertex -26.8165 -37.4088 23.25
      vertex -26.6758 -37.7753 23.25
    endloop
  endfacet
  facet normal 0 0 1
    outer loop
      vertex -24.8976 -36.525 23.25
      vertex -26.918 -37.0297 23.25
      vertex -26.8165 -37.4088 23.25
    endloop
  endfacet
  facet normal 0 0 1
    outer loop
      vertex -25.0758 -36.1752 23.25
      vertex -26.9794 -36.642 23.25
      vertex -26.918 -37.0297 23.25
    endloop
  endfacet
  facet normal 0.156426 -0.98769 0
    outer loop
      vertex 23.642 -39.9794 0
      vertex 24.0297 -39.918 23.25
      vertex 23.642 -39.9794 23.25
    endloop
  endfacet
  facet normal 0.156426 -0.98769 0
    outer loop
      vertex 24.0297 -39.918 23.25
      vertex 23.642 -39.9794 0
      vertex 24.0297 -39.918 0
    endloop
  endfacet
  facet normal 0.258819 -0.965926 0
    outer loop
      vertex 24.0297 -39.918 0
      vertex 24.4088 -39.8165 23.25
      vertex 24.0297 -39.918 23.25
    endloop
  endfacet
  facet normal 0.258819 -0.965926 0
    outer loop
      vertex 24.4088 -39.8165 23.25
      vertex 24.0297 -39.918 0
      vertex 24.4088 -39.8165 0
    endloop
  endfacet
  facet normal 0.358385 -0.933574 0
    outer loop
      vertex 24.4088 -39.8165 0
      vertex 24.7753 -39.6758 23.25
      vertex 24.4088 -39.8165 23.25
    endloop
  endfacet
  facet normal 0.358385 -0.933574 0
    outer loop
      vertex 24.7753 -39.6758 23.25
      vertex 24.4088 -39.8165 0
      vertex 24.7753 -39.6758 0
    endloop
  endfacet
  facet normal 0.453965 -0.89102 0
    outer loop
      vertex 24.7753 -39.6758 0
      vertex 25.125 -39.4976 23.25
      vertex 24.7753 -39.6758 23.25
    endloop
  endfacet
  facet normal 0.453965 -0.89102 0
    outer loop
      vertex 25.125 -39.4976 23.25
      vertex 24.7753 -39.6758 0
      vertex 25.125 -39.4976 0
    endloop
  endfacet
  facet normal 0.54463 -0.838676 0
    outer loop
      vertex 25.125 -39.4976 0
      vertex 25.4542 -39.2838 23.25
      vertex 25.125 -39.4976 23.25
    endloop
  endfacet
  facet normal 0.54463 -0.838676 0
    outer loop
      vertex 25.4542 -39.2838 23.25
      vertex 25.125 -39.4976 0
      vertex 25.4542 -39.2838 0
    endloop
  endfacet
  facet normal 0.629335 -0.777134 0
    outer loop
      vertex 25.4542 -39.2838 0
      vertex 25.7592 -39.0368 23.25
      vertex 25.4542 -39.2838 23.25
    endloop
  endfacet
  facet normal 0.629335 -0.777134 0
    outer loop
      vertex 25.7592 -39.0368 23.25
      vertex 25.4542 -39.2838 0
      vertex 25.7592 -39.0368 0
    endloop
  endfacet
  facet normal 0.707107 -0.707107 0
    outer loop
      vertex 25.7592 -39.0368 23.25
      vertex 26.0368 -38.7592 0
      vertex 26.0368 -38.7592 23.25
    endloop
  endfacet
  facet normal 0.707107 -0.707107 0
    outer loop
      vertex 26.0368 -38.7592 0
      vertex 25.7592 -39.0368 23.25
      vertex 25.7592 -39.0368 0
    endloop
  endfacet
  facet normal 0.777134 -0.629335 0
    outer loop
      vertex 26.0368 -38.7592 23.25
      vertex 26.2838 -38.4542 0
      vertex 26.2838 -38.4542 23.25
    endloop
  endfacet
  facet normal 0.777134 -0.629335 0
    outer loop
      vertex 26.2838 -38.4542 0
      vertex 26.0368 -38.7592 23.25
      vertex 26.0368 -38.7592 0
    endloop
  endfacet
  facet normal 0.838676 -0.54463 0
    outer loop
      vertex 26.2838 -38.4542 23.25
      vertex 26.4976 -38.125 0
      vertex 26.4976 -38.125 23.25
    endloop
  endfacet
  facet normal 0.838676 -0.54463 0
    outer loop
      vertex 26.4976 -38.125 0
      vertex 26.2838 -38.4542 23.25
      vertex 26.2838 -38.4542 0
    endloop
  endfacet
  facet normal 0.89102 -0.453965 0
    outer loop
      vertex 26.4976 -38.125 23.25
      vertex 26.6758 -37.7753 0
      vertex 26.6758 -37.7753 23.25
    endloop
  endfacet
  facet normal 0.89102 -0.453965 0
    outer loop
      vertex 26.6758 -37.7753 0
      vertex 26.4976 -38.125 23.25
      vertex 26.4976 -38.125 0
    endloop
  endfacet
  facet normal 0.933574 -0.358385 0
    outer loop
      vertex 26.6758 -37.7753 23.25
      vertex 26.8165 -37.4088 0
      vertex 26.8165 -37.4088 23.25
    endloop
  endfacet
  facet normal 0.933574 -0.358385 0
    outer loop
      vertex 26.8165 -37.4088 0
      vertex 26.6758 -37.7753 23.25
      vertex 26.6758 -37.7753 0
    endloop
  endfacet
  facet normal 0.965926 -0.258819 0
    outer loop
      vertex 26.8165 -37.4088 23.25
      vertex 26.918 -37.0297 0
      vertex 26.918 -37.0297 23.25
    endloop
  endfacet
  facet normal 0.965926 -0.258819 0
    outer loop
      vertex 26.918 -37.0297 0
      vertex 26.8165 -37.4088 23.25
      vertex 26.8165 -37.4088 0
    endloop
  endfacet
  facet normal 0.98769 -0.156426 0
    outer loop
      vertex 26.918 -37.0297 23.25
      vertex 26.9794 -36.642 0
      vertex 26.9794 -36.642 23.25
    endloop
  endfacet
  facet normal 0.98769 -0.156426 0
    outer loop
      vertex 26.9794 -36.642 0
      vertex 26.918 -37.0297 23.25
      vertex 26.918 -37.0297 0
    endloop
  endfacet
  facet normal 0.998628 -0.052365 0
    outer loop
      vertex 26.9794 -36.642 23.25
      vertex 27 -36.25 0
      vertex 27 -36.25 23.25
    endloop
  endfacet
  facet normal 0.998628 -0.052365 0
    outer loop
      vertex 27 -36.25 0
      vertex 26.9794 -36.642 23.25
      vertex 26.9794 -36.642 0
    endloop
  endfacet
  facet normal 1 -0 0
    outer loop
      vertex 27 -36.25 23.25
      vertex 27 36.25 0
      vertex 27 36.25 23.25
    endloop
  endfacet
  facet normal 1 0 0
    outer loop
      vertex 27 36.25 0
      vertex 27 -36.25 23.25
      vertex 27 -36.25 0
    endloop
  endfacet
  facet normal 0.998628 0.052365 0
    outer loop
      vertex 27 36.25 23.25
      vertex 26.9794 36.642 0
      vertex 26.9794 36.642 23.25
    endloop
  endfacet
  facet normal 0.998628 0.052365 0
    outer loop
      vertex 26.9794 36.642 0
      vertex 27 36.25 23.25
      vertex 27 36.25 0
    endloop
  endfacet
  facet normal 0.98769 0.156426 0
    outer loop
      vertex 26.9794 36.642 23.25
      vertex 26.918 37.0297 0
      vertex 26.918 37.0297 23.25
    endloop
  endfacet
  facet normal 0.98769 0.156426 0
    outer loop
      vertex 26.918 37.0297 0
      vertex 26.9794 36.642 23.25
      vertex 26.9794 36.642 0
    endloop
  endfacet
  facet normal 0.965926 0.258819 0
    outer loop
      vertex 26.918 37.0297 23.25
      vertex 26.8165 37.4088 0
      vertex 26.8165 37.4088 23.25
    endloop
  endfacet
  facet normal 0.965926 0.258819 0
    outer loop
      vertex 26.8165 37.4088 0
      vertex 26.918 37.0297 23.25
      vertex 26.918 37.0297 0
    endloop
  endfacet
  facet normal 0.933574 0.358385 0
    outer loop
      vertex 26.8165 37.4088 23.25
      vertex 26.6758 37.7753 0
      vertex 26.6758 37.7753 23.25
    endloop
  endfacet
  facet normal 0.933574 0.358385 0
    outer loop
      vertex 26.6758 37.7753 0
      vertex 26.8165 37.4088 23.25
      vertex 26.8165 37.4088 0
    endloop
  endfacet
  facet normal 0.89102 0.453965 0
    outer loop
      vertex 26.6758 37.7753 23.25
      vertex 26.4976 38.125 0
      vertex 26.4976 38.125 23.25
    endloop
  endfacet
  facet normal 0.89102 0.453965 0
    outer loop
      vertex 26.4976 38.125 0
      vertex 26.6758 37.7753 23.25
      vertex 26.6758 37.7753 0
    endloop
  endfacet
  facet normal 0.838676 0.54463 0
    outer loop
      vertex 26.4976 38.125 23.25
      vertex 26.2838 38.4542 0
      vertex 26.2838 38.4542 23.25
    endloop
  endfacet
  facet normal 0.838676 0.54463 0
    outer loop
      vertex 26.2838 38.4542 0
      vertex 26.4976 38.125 23.25
      vertex 26.4976 38.125 0
    endloop
  endfacet
  facet normal 0.777134 0.629335 0
    outer loop
      vertex 26.2838 38.4542 23.25
      vertex 26.0368 38.7592 0
      vertex 26.0368 38.7592 23.25
    endloop
  endfacet
  facet normal 0.777134 0.629335 0
    outer loop
      vertex 26.0368 38.7592 0
      vertex 26.2838 38.4542 23.25
      vertex 26.2838 38.4542 0
    endloop
  endfacet
  facet normal 0.707107 0.707107 0
    outer loop
      vertex 26.0368 38.7592 23.25
      vertex 25.7592 39.0368 0
      vertex 25.7592 39.0368 23.25
    endloop
  endfacet
  facet normal 0.707107 0.707107 0
    outer loop
      vertex 25.7592 39.0368 0
      vertex 26.0368 38.7592 23.25
      vertex 26.0368 38.7592 0
    endloop
  endfacet
  facet normal 0.629335 0.777134 -0
    outer loop
      vertex 25.7592 39.0368 0
      vertex 25.4542 39.2838 23.25
      vertex 25.7592 39.0368 23.25
    endloop
  endfacet
  facet normal 0.629335 0.777134 0
    outer loop
      vertex 25.4542 39.2838 23.25
      vertex 25.7592 39.0368 0
      vertex 25.4542 39.2838 0
    endloop
  endfacet
  facet normal 0.54463 0.838676 -0
    outer loop
      vertex 25.4542 39.2838 0
      vertex 25.125 39.4976 23.25
      vertex 25.4542 39.2838 23.25
    endloop
  endfacet
  facet normal 0.54463 0.838676 0
    outer loop
      vertex 25.125 39.4976 23.25
      vertex 25.4542 39.2838 0
      vertex 25.125 39.4976 0
    endloop
  endfacet
  facet normal 0.453965 0.89102 -0
    outer loop
      vertex 25.125 39.4976 0
      vertex 24.7753 39.6758 23.25
      vertex 25.125 39.4976 23.25
    endloop
  endfacet
  facet normal 0.453965 0.89102 0
    outer loop
      vertex 24.7753 39.6758 23.25
      vertex 25.125 39.4976 0
      vertex 24.7753 39.6758 0
    endloop
  endfacet
  facet normal 0.358385 0.933574 -0
    outer loop
      vertex 24.7753 39.6758 0
      vertex 24.4088 39.8165 23.25
      vertex 24.7753 39.6758 23.25
    endloop
  endfacet
  facet normal 0.358385 0.933574 0
    outer loop
      vertex 24.4088 39.8165 23.25
      vertex 24.7753 39.6758 0
      vertex 24.4088 39.8165 0
    endloop
  endfacet
  facet normal 0.258819 0.965926 -0
    outer loop
      vertex 24.4088 39.8165 0
      vertex 24.0297 39.918 23.25
      vertex 24.4088 39.8165 23.25
    endloop
  endfacet
  facet normal 0.258819 0.965926 0
    outer loop
      vertex 24.0297 39.918 23.25
      vertex 24.4088 39.8165 0
      vertex 24.0297 39.918 0
    endloop
  endfacet
  facet normal 0.156426 0.98769 -0
    outer loop
      vertex 24.0297 39.918 0
      vertex 23.642 39.9794 23.25
      vertex 24.0297 39.918 23.25
    endloop
  endfacet
  facet normal 0.156426 0.98769 0
    outer loop
      vertex 23.642 39.9794 23.25
      vertex 24.0297 39.918 0
      vertex 23.642 39.9794 0
    endloop
  endfacet
  facet normal 0.052365 0.998628 -0
    outer loop
      vertex 23.642 39.9794 0
      vertex 23.25 40 23.25
      vertex 23.642 39.9794 23.25
    endloop
  endfacet
  facet normal 0.052365 0.998628 0
    outer loop
      vertex 23.25 40 23.25
      vertex 23.642 39.9794 0
      vertex 23.25 40 0
    endloop
  endfacet
  facet normal 0 1 -0
    outer loop
      vertex 23.25 40 0
      vertex -23.25 40 23.25
      vertex 23.25 40 23.25
    endloop
  endfacet
  facet normal 0 1 0
    outer loop
      vertex -23.25 40 23.25
      vertex 23.25 40 0
      vertex -23.25 40 0
    endloop
  endfacet
  facet normal -0.052365 0.998628 0
    outer loop
      vertex -23.25 40 0
      vertex -23.642 39.9794 23.25
      vertex -23.25 40 23.25
    endloop
  endfacet
  facet normal -0.052365 0.998628 0
    outer loop
      vertex -23.642 39.9794 23.25
      vertex -23.25 40 0
      vertex -23.642 39.9794 0
    endloop
  endfacet
  facet normal -0.156426 0.98769 0
    outer loop
      vertex -23.642 39.9794 0
      vertex -24.0297 39.918 23.25
      vertex -23.642 39.9794 23.25
    endloop
  endfacet
  facet normal -0.156426 0.98769 0
    outer loop
      vertex -24.0297 39.918 23.25
      vertex -23.642 39.9794 0
      vertex -24.0297 39.918 0
    endloop
  endfacet
  facet normal -0.258819 0.965926 0
    outer loop
      vertex -24.0297 39.918 0
      vertex -24.4088 39.8165 23.25
      vertex -24.0297 39.918 23.25
    endloop
  endfacet
  facet normal -0.258819 0.965926 0
    outer loop
      vertex -24.4088 39.8165 23.25
      vertex -24.0297 39.918 0
      vertex -24.4088 39.8165 0
    endloop
  endfacet
  facet normal -0.358385 0.933574 0
    outer loop
      vertex -24.4088 39.8165 0
      vertex -24.7753 39.6758 23.25
      vertex -24.4088 39.8165 23.25
    endloop
  endfacet
  facet normal -0.358385 0.933574 0
    outer loop
      vertex -24.7753 39.6758 23.25
      vertex -24.4088 39.8165 0
      vertex -24.7753 39.6758 0
    endloop
  endfacet
  facet normal -0.453965 0.89102 0
    outer loop
      vertex -24.7753 39.6758 0
      vertex -25.125 39.4976 23.25
      vertex -24.7753 39.6758 23.25
    endloop
  endfacet
  facet normal -0.453965 0.89102 0
    outer loop
      vertex -25.125 39.4976 23.25
      vertex -24.7753 39.6758 0
      vertex -25.125 39.4976 0
    endloop
  endfacet
  facet normal -0.54463 0.838676 0
    outer loop
      vertex -25.125 39.4976 0
      vertex -25.4542 39.2838 23.25
      vertex -25.125 39.4976 23.25
    endloop
  endfacet
  facet normal -0.54463 0.838676 0
    outer loop
      vertex -25.4542 39.2838 23.25
      vertex -25.125 39.4976 0
      vertex -25.4542 39.2838 0
    endloop
  endfacet
  facet normal -0.629335 0.777134 0
    outer loop
      vertex -25.4542 39.2838 0
      vertex -25.7592 39.0368 23.25
      vertex -25.4542 39.2838 23.25
    endloop
  endfacet
  facet normal -0.629335 0.777134 0
    outer loop
      vertex -25.7592 39.0368 23.25
      vertex -25.4542 39.2838 0
      vertex -25.7592 39.0368 0
    endloop
  endfacet
  facet normal -0.707107 0.707107 0
    outer loop
      vertex -26.0368 38.7592 0
      vertex -25.7592 39.0368 23.25
      vertex -25.7592 39.0368 0
    endloop
  endfacet
  facet normal -0.707107 0.707107 0
    outer loop
      vertex -25.7592 39.0368 23.25
      vertex -26.0368 38.7592 0
      vertex -26.0368 38.7592 23.25
    endloop
  endfacet
  facet normal -0.777134 0.629335 0
    outer loop
      vertex -26.2838 38.4542 0
      vertex -26.0368 38.7592 23.25
      vertex -26.0368 38.7592 0
    endloop
  endfacet
  facet normal -0.777134 0.629335 0
    outer loop
      vertex -26.0368 38.7592 23.25
      vertex -26.2838 38.4542 0
      vertex -26.2838 38.4542 23.25
    endloop
  endfacet
  facet normal -0.838676 0.54463 0
    outer loop
      vertex -26.4976 38.125 0
      vertex -26.2838 38.4542 23.25
      vertex -26.2838 38.4542 0
    endloop
  endfacet
  facet normal -0.838676 0.54463 0
    outer loop
      vertex -26.2838 38.4542 23.25
      vertex -26.4976 38.125 0
      vertex -26.4976 38.125 23.25
    endloop
  endfacet
  facet normal -0.89102 0.453965 0
    outer loop
      vertex -26.6758 37.7753 0
      vertex -26.4976 38.125 23.25
      vertex -26.4976 38.125 0
    endloop
  endfacet
  facet normal -0.89102 0.453965 0
    outer loop
      vertex -26.4976 38.125 23.25
      vertex -26.6758 37.7753 0
      vertex -26.6758 37.7753 23.25
    endloop
  endfacet
  facet normal -0.933574 0.358385 0
    outer loop
      vertex -26.8165 37.4088 0
      vertex -26.6758 37.7753 23.25
      vertex -26.6758 37.7753 0
    endloop
  endfacet
  facet normal -0.933574 0.358385 0
    outer loop
      vertex -26.6758 37.7753 23.25
      vertex -26.8165 37.4088 0
      vertex -26.8165 37.4088 23.25
    endloop
  endfacet
  facet normal -0.965926 0.258819 0
    outer loop
      vertex -26.918 37.0297 0
      vertex -26.8165 37.4088 23.25
      vertex -26.8165 37.4088 0
    endloop
  endfacet
  facet normal -0.965926 0.258819 0
    outer loop
      vertex -26.8165 37.4088 23.25
      vertex -26.918 37.0297 0
      vertex -26.918 37.0297 23.25
    endloop
  endfacet
  facet normal -0.98769 0.156426 0
    outer loop
      vertex -26.9794 36.642 0
      vertex -26.918 37.0297 23.25
      vertex -26.918 37.0297 0
    endloop
  endfacet
  facet normal -0.98769 0.156426 0
    outer loop
      vertex -26.918 37.0297 23.25
      vertex -26.9794 36.642 0
      vertex -26.9794 36.642 23.25
    endloop
  endfacet
  facet normal -0.998628 0.052365 0
    outer loop
      vertex -27 36.25 0
      vertex -26.9794 36.642 23.25
      vertex -26.9794 36.642 0
    endloop
  endfacet
  facet normal -0.998628 0.052365 0
    outer loop
      vertex -26.9794 36.642 23.25
      vertex -27 36.25 0
      vertex -27 36.25 23.25
    endloop
  endfacet
  facet normal -1 0 0
    outer loop
      vertex -27 -36.25 0
      vertex -27 36.25 23.25
      vertex -27 36.25 0
    endloop
  endfacet
  facet normal -1 -0 0
    outer loop
      vertex -27 36.25 23.25
      vertex -27 -36.25 0
      vertex -27 -36.25 23.25
    endloop
  endfacet
  facet normal -0.998628 -0.052365 0
    outer loop
      vertex -26.9794 -36.642 0
      vertex -27 -36.25 23.25
      vertex -27 -36.25 0
    endloop
  endfacet
  facet normal -0.998628 -0.052365 0
    outer loop
      vertex -27 -36.25 23.25
      vertex -26.9794 -36.642 0
      vertex -26.9794 -36.642 23.25
    endloop
  endfacet
  facet normal -0.98769 -0.156426 0
    outer loop
      vertex -26.918 -37.0297 0
      vertex -26.9794 -36.642 23.25
      vertex -26.9794 -36.642 0
    endloop
  endfacet
  facet normal -0.98769 -0.156426 0
    outer loop
      vertex -26.9794 -36.642 23.25
      vertex -26.918 -37.0297 0
      vertex -26.918 -37.0297 23.25
    endloop
  endfacet
  facet normal -0.965926 -0.258819 0
    outer loop
      vertex -26.8165 -37.4088 0
      vertex -26.918 -37.0297 23.25
      vertex -26.918 -37.0297 0
    endloop
  endfacet
  facet normal -0.965926 -0.258819 0
    outer loop
      vertex -26.918 -37.0297 23.25
      vertex -26.8165 -37.4088 0
      vertex -26.8165 -37.4088 23.25
    endloop
  endfacet
  facet normal -0.933574 -0.358385 0
    outer loop
      vertex -26.6758 -37.7753 0
      vertex -26.8165 -37.4088 23.25
      vertex -26.8165 -37.4088 0
    endloop
  endfacet
  facet normal -0.933574 -0.358385 0
    outer loop
      vertex -26.8165 -37.4088 23.25
      vertex -26.6758 -37.7753 0
      vertex -26.6758 -37.7753 23.25
    endloop
  endfacet
  facet normal -0.89102 -0.453965 0
    outer loop
      vertex -26.4976 -38.125 0
      vertex -26.6758 -37.7753 23.25
      vertex -26.6758 -37.7753 0
    endloop
  endfacet
  facet normal -0.89102 -0.453965 0
    outer loop
      vertex -26.6758 -37.7753 23.25
      vertex -26.4976 -38.125 0
      vertex -26.4976 -38.125 23.25
    endloop
  endfacet
  facet normal -0.838676 -0.54463 0
    outer loop
      vertex -26.2838 -38.4542 0
      vertex -26.4976 -38.125 23.25
      vertex -26.4976 -38.125 0
    endloop
  endfacet
  facet normal -0.838676 -0.54463 0
    outer loop
      vertex -26.4976 -38.125 23.25
      vertex -26.2838 -38.4542 0
      vertex -26.2838 -38.4542 23.25
    endloop
  endfacet
  facet normal -0.777134 -0.629335 0
    outer loop
      vertex -26.0368 -38.7592 0
      vertex -26.2838 -38.4542 23.25
      vertex -26.2838 -38.4542 0
    endloop
  endfacet
  facet normal -0.777134 -0.629335 0
    outer loop
      vertex -26.2838 -38.4542 23.25
      vertex -26.0368 -38.7592 0
      vertex -26.0368 -38.7592 23.25
    endloop
  endfacet
  facet normal -0.707107 -0.707107 0
    outer loop
      vertex -25.7592 -39.0368 0
      vertex -26.0368 -38.7592 23.25
      vertex -26.0368 -38.7592 0
    endloop
  endfacet
  facet normal -0.707107 -0.707107 0
    outer loop
      vertex -26.0368 -38.7592 23.25
      vertex -25.7592 -39.0368 0
      vertex -25.7592 -39.0368 23.25
    endloop
  endfacet
  facet normal -0.629335 -0.777134 0
    outer loop
      vertex -25.7592 -39.0368 0
      vertex -25.4542 -39.2838 23.25
      vertex -25.7592 -39.0368 23.25
    endloop
  endfacet
  facet normal -0.629335 -0.777134 -0
    outer loop
      vertex -25.4542 -39.2838 23.25
      vertex -25.7592 -39.0368 0
      vertex -25.4542 -39.2838 0
    endloop
  endfacet
  facet normal -0.54463 -0.838676 0
    outer loop
      vertex -25.4542 -39.2838 0
      vertex -25.125 -39.4976 23.25
      vertex -25.4542 -39.2838 23.25
    endloop
  endfacet
  facet normal -0.54463 -0.838676 -0
    outer loop
      vertex -25.125 -39.4976 23.25
      vertex -25.4542 -39.2838 0
      vertex -25.125 -39.4976 0
    endloop
  endfacet
  facet normal -0.453965 -0.89102 0
    outer loop
      vertex -25.125 -39.4976 0
      vertex -24.7753 -39.6758 23.25
      vertex -25.125 -39.4976 23.25
    endloop
  endfacet
  facet normal -0.453965 -0.89102 -0
    outer loop
      vertex -24.7753 -39.6758 23.25
      vertex -25.125 -39.4976 0
      vertex -24.7753 -39.6758 0
    endloop
  endfacet
  facet normal -0.358385 -0.933574 0
    outer loop
      vertex -24.7753 -39.6758 0
      vertex -24.4088 -39.8165 23.25
      vertex -24.7753 -39.6758 23.25
    endloop
  endfacet
  facet normal -0.358385 -0.933574 -0
    outer loop
      vertex -24.4088 -39.8165 23.25
      vertex -24.7753 -39.6758 0
      vertex -24.4088 -39.8165 0
    endloop
  endfacet
  facet normal -0.258819 -0.965926 0
    outer loop
      vertex -24.4088 -39.8165 0
      vertex -24.0297 -39.918 23.25
      vertex -24.4088 -39.8165 23.25
    endloop
  endfacet
  facet normal -0.258819 -0.965926 -0
    outer loop
      vertex -24.0297 -39.918 23.25
      vertex -24.4088 -39.8165 0
      vertex -24.0297 -39.918 0
    endloop
  endfacet
  facet normal -0.156426 -0.98769 0
    outer loop
      vertex -24.0297 -39.918 0
      vertex -23.642 -39.9794 23.25
      vertex -24.0297 -39.918 23.25
    endloop
  endfacet
  facet normal -0.156426 -0.98769 -0
    outer loop
      vertex -23.642 -39.9794 23.25
      vertex -24.0297 -39.918 0
      vertex -23.642 -39.9794 0
    endloop
  endfacet
  facet normal -0.052365 -0.998628 0
    outer loop
      vertex -23.642 -39.9794 0
      vertex -23.25 -40 23.25
      vertex -23.642 -39.9794 23.25
    endloop
  endfacet
  facet normal -0.052365 -0.998628 -0
    outer loop
      vertex -23.25 -40 23.25
      vertex -23.642 -39.9794 0
      vertex -23.25 -40 0
    endloop
  endfacet
  facet normal 0 -1 0
    outer loop
      vertex -23.25 -40 0
      vertex 23.25 -40 23.25
      vertex -23.25 -40 23.25
    endloop
  endfacet
  facet normal 0 -1 -0
    outer loop
      vertex 23.25 -40 23.25
      vertex -23.25 -40 0
      vertex 23.25 -40 0
    endloop
  endfacet
  facet normal 0.052365 -0.998628 0
    outer loop
      vertex 23.25 -40 0
      vertex 23.642 -39.9794 23.25
      vertex 23.25 -40 23.25
    endloop
  endfacet
  facet normal 0.052365 -0.998628 0
    outer loop
      vertex 23.642 -39.9794 23.25
      vertex 23.25 -40 0
      vertex 23.642 -39.9794 0
    endloop
  endfacet
  facet normal 0.0523242 0.99863 -0
    outer loop
      vertex -21.65 -38.4 1.2
      vertex -22.042 -38.3795 23.25
      vertex -21.65 -38.4 23.25
    endloop
  endfacet
  facet normal 0.0523242 0.99863 0
    outer loop
      vertex -22.042 -38.3795 23.25
      vertex -21.65 -38.4 1.2
      vertex -22.042 -38.3795 1.2
    endloop
  endfacet
  facet normal 0.15647 0.987683 -0
    outer loop
      vertex -22.042 -38.3795 1.2
      vertex -22.4297 -38.318 23.25
      vertex -22.042 -38.3795 23.25
    endloop
  endfacet
  facet normal 0.15647 0.987683 0
    outer loop
      vertex -22.4297 -38.318 23.25
      vertex -22.042 -38.3795 1.2
      vertex -22.4297 -38.318 1.2
    endloop
  endfacet
  facet normal 0.258783 0.965936 -0
    outer loop
      vertex -22.4297 -38.318 1.2
      vertex -22.8088 -38.2165 23.25
      vertex -22.4297 -38.318 23.25
    endloop
  endfacet
  facet normal 0.258783 0.965936 0
    outer loop
      vertex -22.8088 -38.2165 23.25
      vertex -22.4297 -38.318 1.2
      vertex -22.8088 -38.2165 1.2
    endloop
  endfacet
  facet normal 0.358385 0.933574 -0
    outer loop
      vertex -22.8088 -38.2165 1.2
      vertex -23.1752 -38.0758 23.25
      vertex -22.8088 -38.2165 23.25
    endloop
  endfacet
  facet normal 0.358385 0.933574 0
    outer loop
      vertex -23.1752 -38.0758 23.25
      vertex -22.8088 -38.2165 1.2
      vertex -23.1752 -38.0758 1.2
    endloop
  endfacet
  facet normal 0.453996 0.891004 -0
    outer loop
      vertex -23.1752 -38.0758 1.2
      vertex -23.525 -37.8976 23.25
      vertex -23.1752 -38.0758 23.25
    endloop
  endfacet
  facet normal 0.453996 0.891004 0
    outer loop
      vertex -23.525 -37.8976 23.25
      vertex -23.1752 -38.0758 1.2
      vertex -23.525 -37.8976 1.2
    endloop
  endfacet
  facet normal 0.54463 0.838676 -0
    outer loop
      vertex -23.525 -37.8976 1.2
      vertex -23.8542 -37.6838 23.25
      vertex -23.525 -37.8976 23.25
    endloop
  endfacet
  facet normal 0.54463 0.838676 0
    outer loop
      vertex -23.8542 -37.6838 23.25
      vertex -23.525 -37.8976 1.2
      vertex -23.8542 -37.6838 1.2
    endloop
  endfacet
  facet normal 0.629335 0.777134 -0
    outer loop
      vertex -23.8542 -37.6838 1.2
      vertex -24.1592 -37.4368 23.25
      vertex -23.8542 -37.6838 23.25
    endloop
  endfacet
  facet normal 0.629335 0.777134 0
    outer loop
      vertex -24.1592 -37.4368 23.25
      vertex -23.8542 -37.6838 1.2
      vertex -24.1592 -37.4368 1.2
    endloop
  endfacet
  facet normal 0.707107 0.707107 0
    outer loop
      vertex -24.1592 -37.4368 23.25
      vertex -24.4368 -37.1592 1.2
      vertex -24.4368 -37.1592 23.25
    endloop
  endfacet
  facet normal 0.707107 0.707107 0
    outer loop
      vertex -24.4368 -37.1592 1.2
      vertex -24.1592 -37.4368 23.25
      vertex -24.1592 -37.4368 1.2
    endloop
  endfacet
  facet normal 0.777134 0.629335 0
    outer loop
      vertex -24.4368 -37.1592 23.25
      vertex -24.6838 -36.8542 1.2
      vertex -24.6838 -36.8542 23.25
    endloop
  endfacet
  facet normal 0.777134 0.629335 0
    outer loop
      vertex -24.6838 -36.8542 1.2
      vertex -24.4368 -37.1592 23.25
      vertex -24.4368 -37.1592 1.2
    endloop
  endfacet
  facet normal 0.838676 0.54463 0
    outer loop
      vertex -24.6838 -36.8542 23.25
      vertex -24.8976 -36.525 1.2
      vertex -24.8976 -36.525 23.25
    endloop
  endfacet
  facet normal 0.838676 0.54463 0
    outer loop
      vertex -24.8976 -36.525 1.2
      vertex -24.6838 -36.8542 23.25
      vertex -24.6838 -36.8542 1.2
    endloop
  endfacet
  facet normal 0.891004 0.453996 0
    outer loop
      vertex -24.8976 -36.525 23.25
      vertex -25.0758 -36.1752 1.2
      vertex -25.0758 -36.1752 23.25
    endloop
  endfacet
  facet normal 0.891004 0.453996 0
    outer loop
      vertex -25.0758 -36.1752 1.2
      vertex -24.8976 -36.525 23.25
      vertex -24.8976 -36.525 1.2
    endloop
  endfacet
  facet normal 0.933574 0.358385 0
    outer loop
      vertex -25.0758 -36.1752 23.25
      vertex -25.2165 -35.8088 1.2
      vertex -25.2165 -35.8088 23.25
    endloop
  endfacet
  facet normal 0.933574 0.358385 0
    outer loop
      vertex -25.2165 -35.8088 1.2
      vertex -25.0758 -36.1752 23.25
      vertex -25.0758 -36.1752 1.2
    endloop
  endfacet
  facet normal 0.965936 0.258783 0
    outer loop
      vertex -25.2165 -35.8088 23.25
      vertex -25.318 -35.4297 1.2
      vertex -25.318 -35.4297 23.25
    endloop
  endfacet
  facet normal 0.965936 0.258783 0
    outer loop
      vertex -25.318 -35.4297 1.2
      vertex -25.2165 -35.8088 23.25
      vertex -25.2165 -35.8088 1.2
    endloop
  endfacet
  facet normal 0.987683 0.15647 0
    outer loop
      vertex -25.318 -35.4297 23.25
      vertex -25.3795 -35.042 1.2
      vertex -25.3795 -35.042 23.25
    endloop
  endfacet
  facet normal 0.987683 0.15647 0
    outer loop
      vertex -25.3795 -35.042 1.2
      vertex -25.318 -35.4297 23.25
      vertex -25.318 -35.4297 1.2
    endloop
  endfacet
  facet normal 0.99863 0.0523242 0
    outer loop
      vertex -25.3795 -35.042 23.25
      vertex -25.4 -34.65 1.2
      vertex -25.4 -34.65 23.25
    endloop
  endfacet
  facet normal 0.99863 0.0523242 0
    outer loop
      vertex -25.4 -34.65 1.2
      vertex -25.3795 -35.042 23.25
      vertex -25.3795 -35.042 1.2
    endloop
  endfacet
  facet normal 1 -0 0
    outer loop
      vertex -25.4 -34.65 23.25
      vertex -25.4 34.65 1.2
      vertex -25.4 34.65 23.25
    endloop
  endfacet
  facet normal 1 0 0
    outer loop
      vertex -25.4 34.65 1.2
      vertex -25.4 -34.65 23.25
      vertex -25.4 -34.65 1.2
    endloop
  endfacet
  facet normal 0.99863 -0.0523242 0
    outer loop
      vertex -25.4 34.65 23.25
      vertex -25.3795 35.042 1.2
      vertex -25.3795 35.042 23.25
    endloop
  endfacet
  facet normal 0.99863 -0.0523242 0
    outer loop
      vertex -25.3795 35.042 1.2
      vertex -25.4 34.65 23.25
      vertex -25.4 34.65 1.2
    endloop
  endfacet
  facet normal 0.987683 -0.15647 0
    outer loop
      vertex -25.3795 35.042 23.25
      vertex -25.318 35.4297 1.2
      vertex -25.318 35.4297 23.25
    endloop
  endfacet
  facet normal 0.987683 -0.15647 0
    outer loop
      vertex -25.318 35.4297 1.2
      vertex -25.3795 35.042 23.25
      vertex -25.3795 35.042 1.2
    endloop
  endfacet
  facet normal 0.965936 -0.258783 0
    outer loop
      vertex -25.318 35.4297 23.25
      vertex -25.2165 35.8088 1.2
      vertex -25.2165 35.8088 23.25
    endloop
  endfacet
  facet normal 0.965936 -0.258783 0
    outer loop
      vertex -25.2165 35.8088 1.2
      vertex -25.318 35.4297 23.25
      vertex -25.318 35.4297 1.2
    endloop
  endfacet
  facet normal 0.933574 -0.358385 0
    outer loop
      vertex -25.2165 35.8088 23.25
      vertex -25.0758 36.1752 1.2
      vertex -25.0758 36.1752 23.25
    endloop
  endfacet
  facet normal 0.933574 -0.358385 0
    outer loop
      vertex -25.0758 36.1752 1.2
      vertex -25.2165 35.8088 23.25
      vertex -25.2165 35.8088 1.2
    endloop
  endfacet
  facet normal 0.891004 -0.453996 0
    outer loop
      vertex -25.0758 36.1752 23.25
      vertex -24.8976 36.525 1.2
      vertex -24.8976 36.525 23.25
    endloop
  endfacet
  facet normal 0.891004 -0.453996 0
    outer loop
      vertex -24.8976 36.525 1.2
      vertex -25.0758 36.1752 23.25
      vertex -25.0758 36.1752 1.2
    endloop
  endfacet
  facet normal 0.838676 -0.54463 0
    outer loop
      vertex -24.8976 36.525 23.25
      vertex -24.6838 36.8542 1.2
      vertex -24.6838 36.8542 23.25
    endloop
  endfacet
  facet normal 0.838676 -0.54463 0
    outer loop
      vertex -24.6838 36.8542 1.2
      vertex -24.8976 36.525 23.25
      vertex -24.8976 36.525 1.2
    endloop
  endfacet
  facet normal 0.777134 -0.629335 0
    outer loop
      vertex -24.6838 36.8542 23.25
      vertex -24.4368 37.1592 1.2
      vertex -24.4368 37.1592 23.25
    endloop
  endfacet
  facet normal 0.777134 -0.629335 0
    outer loop
      vertex -24.4368 37.1592 1.2
      vertex -24.6838 36.8542 23.25
      vertex -24.6838 36.8542 1.2
    endloop
  endfacet
  facet normal 0.707107 -0.707107 0
    outer loop
      vertex -24.4368 37.1592 23.25
      vertex -24.1592 37.4368 1.2
      vertex -24.1592 37.4368 23.25
    endloop
  endfacet
  facet normal 0.707107 -0.707107 0
    outer loop
      vertex -24.1592 37.4368 1.2
      vertex -24.4368 37.1592 23.25
      vertex -24.4368 37.1592 1.2
    endloop
  endfacet
  facet normal 0.629335 -0.777134 0
    outer loop
      vertex -24.1592 37.4368 1.2
      vertex -23.8542 37.6838 23.25
      vertex -24.1592 37.4368 23.25
    endloop
  endfacet
  facet normal 0.629335 -0.777134 0
    outer loop
      vertex -23.8542 37.6838 23.25
      vertex -24.1592 37.4368 1.2
      vertex -23.8542 37.6838 1.2
    endloop
  endfacet
  facet normal 0.54463 -0.838676 0
    outer loop
      vertex -23.8542 37.6838 1.2
      vertex -23.525 37.8976 23.25
      vertex -23.8542 37.6838 23.25
    endloop
  endfacet
  facet normal 0.54463 -0.838676 0
    outer loop
      vertex -23.525 37.8976 23.25
      vertex -23.8542 37.6838 1.2
      vertex -23.525 37.8976 1.2
    endloop
  endfacet
  facet normal 0.453996 -0.891004 0
    outer loop
      vertex -23.525 37.8976 1.2
      vertex -23.1752 38.0758 23.25
      vertex -23.525 37.8976 23.25
    endloop
  endfacet
  facet normal 0.453996 -0.891004 0
    outer loop
      vertex -23.1752 38.0758 23.25
      vertex -23.525 37.8976 1.2
      vertex -23.1752 38.0758 1.2
    endloop
  endfacet
  facet normal 0.358385 -0.933574 0
    outer loop
      vertex -23.1752 38.0758 1.2
      vertex -22.8088 38.2165 23.25
      vertex -23.1752 38.0758 23.25
    endloop
  endfacet
  facet normal 0.358385 -0.933574 0
    outer loop
      vertex -22.8088 38.2165 23.25
      vertex -23.1752 38.0758 1.2
      vertex -22.8088 38.2165 1.2
    endloop
  endfacet
  facet normal 0.258783 -0.965936 0
    outer loop
      vertex -22.8088 38.2165 1.2
      vertex -22.4297 38.318 23.25
      vertex -22.8088 38.2165 23.25
    endloop
  endfacet
  facet normal 0.258783 -0.965936 0
    outer loop
      vertex -22.4297 38.318 23.25
      vertex -22.8088 38.2165 1.2
      vertex -22.4297 38.318 1.2
    endloop
  endfacet
  facet normal 0.15647 -0.987683 0
    outer loop
      vertex -22.4297 38.318 1.2
      vertex -22.042 38.3795 23.25
      vertex -22.4297 38.318 23.25
    endloop
  endfacet
  facet normal 0.15647 -0.987683 0
    outer loop
      vertex -22.042 38.3795 23.25
      vertex -22.4297 38.318 1.2
      vertex -22.042 38.3795 1.2
    endloop
  endfacet
  facet normal 0.0523242 -0.99863 0
    outer loop
      vertex -22.042 38.3795 1.2
      vertex -21.65 38.4 23.25
      vertex -22.042 38.3795 23.25
    endloop
  endfacet
  facet normal 0.0523242 -0.99863 0
    outer loop
      vertex -21.65 38.4 23.25
      vertex -22.042 38.3795 1.2
      vertex -21.65 38.4 1.2
    endloop
  endfacet
  facet normal 0 -1 0
    outer loop
      vertex -21.65 38.4 1.2
      vertex 21.65 38.4 23.25
      vertex -21.65 38.4 23.25
    endloop
  endfacet
  facet normal 0 -1 -0
    outer loop
      vertex 21.65 38.4 23.25
      vertex -21.65 38.4 1.2
      vertex 21.65 38.4 1.2
    endloop
  endfacet
  facet normal -0.0523242 -0.99863 0
    outer loop
      vertex 21.65 38.4 1.2
      vertex 22.042 38.3795 23.25
      vertex 21.65 38.4 23.25
    endloop
  endfacet
  facet normal -0.0523242 -0.99863 -0
    outer loop
      vertex 22.042 38.3795 23.25
      vertex 21.65 38.4 1.2
      vertex 22.042 38.3795 1.2
    endloop
  endfacet
  facet normal -0.15647 -0.987683 0
    outer loop
      vertex 22.042 38.3795 1.2
      vertex 22.4297 38.318 23.25
      vertex 22.042 38.3795 23.25
    endloop
  endfacet
  facet normal -0.15647 -0.987683 -0
    outer loop
      vertex 22.4297 38.318 23.25
      vertex 22.042 38.3795 1.2
      vertex 22.4297 38.318 1.2
    endloop
  endfacet
  facet normal -0.258783 -0.965936 0
    outer loop
      vertex 22.4297 38.318 1.2
      vertex 22.8088 38.2165 23.25
      vertex 22.4297 38.318 23.25
    endloop
  endfacet
  facet normal -0.258783 -0.965936 -0
    outer loop
      vertex 22.8088 38.2165 23.25
      vertex 22.4297 38.318 1.2
      vertex 22.8088 38.2165 1.2
    endloop
  endfacet
  facet normal -0.358385 -0.933574 0
    outer loop
      vertex 22.8088 38.2165 1.2
      vertex 23.1752 38.0758 23.25
      vertex 22.8088 38.2165 23.25
    endloop
  endfacet
  facet normal -0.358385 -0.933574 -0
    outer loop
      vertex 23.1752 38.0758 23.25
      vertex 22.8088 38.2165 1.2
      vertex 23.1752 38.0758 1.2
    endloop
  endfacet
  facet normal -0.453996 -0.891004 0
    outer loop
      vertex 23.1752 38.0758 1.2
      vertex 23.525 37.8976 23.25
      vertex 23.1752 38.0758 23.25
    endloop
  endfacet
  facet normal -0.453996 -0.891004 -0
    outer loop
      vertex 23.525 37.8976 23.25
      vertex 23.1752 38.0758 1.2
      vertex 23.525 37.8976 1.2
    endloop
  endfacet
  facet normal -0.54463 -0.838676 0
    outer loop
      vertex 23.525 37.8976 1.2
      vertex 23.8542 37.6838 23.25
      vertex 23.525 37.8976 23.25
    endloop
  endfacet
  facet normal -0.54463 -0.838676 -0
    outer loop
      vertex 23.8542 37.6838 23.25
      vertex 23.525 37.8976 1.2
      vertex 23.8542 37.6838 1.2
    endloop
  endfacet
  facet normal -0.629335 -0.777134 0
    outer loop
      vertex 23.8542 37.6838 1.2
      vertex 24.1592 37.4368 23.25
      vertex 23.8542 37.6838 23.25
    endloop
  endfacet
  facet normal -0.629335 -0.777134 -0
    outer loop
      vertex 24.1592 37.4368 23.25
      vertex 23.8542 37.6838 1.2
      vertex 24.1592 37.4368 1.2
    endloop
  endfacet
  facet normal -0.707107 -0.707107 0
    outer loop
      vertex 24.4368 37.1592 1.2
      vertex 24.1592 37.4368 23.25
      vertex 24.1592 37.4368 1.2
    endloop
  endfacet
  facet normal -0.707107 -0.707107 0
    outer loop
      vertex 24.1592 37.4368 23.25
      vertex 24.4368 37.1592 1.2
      vertex 24.4368 37.1592 23.25
    endloop
  endfacet
  facet normal -0.777134 -0.629335 0
    outer loop
      vertex 24.6838 36.8542 1.2
      vertex 24.4368 37.1592 23.25
      vertex 24.4368 37.1592 1.2
    endloop
  endfacet
  facet normal -0.777134 -0.629335 0
    outer loop
      vertex 24.4368 37.1592 23.25
      vertex 24.6838 36.8542 1.2
      vertex 24.6838 36.8542 23.25
    endloop
  endfacet
  facet normal -0.838676 -0.54463 0
    outer loop
      vertex 24.8976 36.525 1.2
      vertex 24.6838 36.8542 23.25
      vertex 24.6838 36.8542 1.2
    endloop
  endfacet
  facet normal -0.838676 -0.54463 0
    outer loop
      vertex 24.6838 36.8542 23.25
      vertex 24.8976 36.525 1.2
      vertex 24.8976 36.525 23.25
    endloop
  endfacet
  facet normal -0.891004 -0.453996 0
    outer loop
      vertex 25.0758 36.1752 1.2
      vertex 24.8976 36.525 23.25
      vertex 24.8976 36.525 1.2
    endloop
  endfacet
  facet normal -0.891004 -0.453996 0
    outer loop
      vertex 24.8976 36.525 23.25
      vertex 25.0758 36.1752 1.2
      vertex 25.0758 36.1752 23.25
    endloop
  endfacet
  facet normal -0.933574 -0.358385 0
    outer loop
      vertex 25.2165 35.8088 1.2
      vertex 25.0758 36.1752 23.25
      vertex 25.0758 36.1752 1.2
    endloop
  endfacet
  facet normal -0.933574 -0.358385 0
    outer loop
      vertex 25.0758 36.1752 23.25
      vertex 25.2165 35.8088 1.2
      vertex 25.2165 35.8088 23.25
    endloop
  endfacet
  facet normal -0.965936 -0.258783 0
    outer loop
      vertex 25.318 35.4297 1.2
      vertex 25.2165 35.8088 23.25
      vertex 25.2165 35.8088 1.2
    endloop
  endfacet
  facet normal -0.965936 -0.258783 0
    outer loop
      vertex 25.2165 35.8088 23.25
      vertex 25.318 35.4297 1.2
      vertex 25.318 35.4297 23.25
    endloop
  endfacet
  facet normal -0.987683 -0.15647 0
    outer loop
      vertex 25.3795 35.042 1.2
      vertex 25.318 35.4297 23.25
      vertex 25.318 35.4297 1.2
    endloop
  endfacet
  facet normal -0.987683 -0.15647 0
    outer loop
      vertex 25.318 35.4297 23.25
      vertex 25.3795 35.042 1.2
      vertex 25.3795 35.042 23.25
    endloop
  endfacet
  facet normal -0.99863 -0.0523242 0
    outer loop
      vertex 25.4 34.65 1.2
      vertex 25.3795 35.042 23.25
      vertex 25.3795 35.042 1.2
    endloop
  endfacet
  facet normal -0.99863 -0.0523242 0
    outer loop
      vertex 25.3795 35.042 23.25
      vertex 25.4 34.65 1.2
      vertex 25.4 34.65 23.25
    endloop
  endfacet
  facet normal -1 0 0
    outer loop
      vertex 25.4 -34.65 1.2
      vertex 25.4 34.65 23.25
      vertex 25.4 34.65 1.2
    endloop
  endfacet
  facet normal -1 -0 0
    outer loop
      vertex 25.4 34.65 23.25
      vertex 25.4 -34.65 1.2
      vertex 25.4 -34.65 23.25
    endloop
  endfacet
  facet normal -0.99863 0.0523242 0
    outer loop
      vertex 25.3795 -35.042 1.2
      vertex 25.4 -34.65 23.25
      vertex 25.4 -34.65 1.2
    endloop
  endfacet
  facet normal -0.99863 0.0523242 0
    outer loop
      vertex 25.4 -34.65 23.25
      vertex 25.3795 -35.042 1.2
      vertex 25.3795 -35.042 23.25
    endloop
  endfacet
  facet normal -0.987683 0.15647 0
    outer loop
      vertex 25.318 -35.4297 1.2
      vertex 25.3795 -35.042 23.25
      vertex 25.3795 -35.042 1.2
    endloop
  endfacet
  facet normal -0.987683 0.15647 0
    outer loop
      vertex 25.3795 -35.042 23.25
      vertex 25.318 -35.4297 1.2
      vertex 25.318 -35.4297 23.25
    endloop
  endfacet
  facet normal -0.965936 0.258783 0
    outer loop
      vertex 25.2165 -35.8088 1.2
      vertex 25.318 -35.4297 23.25
      vertex 25.318 -35.4297 1.2
    endloop
  endfacet
  facet normal -0.965936 0.258783 0
    outer loop
      vertex 25.318 -35.4297 23.25
      vertex 25.2165 -35.8088 1.2
      vertex 25.2165 -35.8088 23.25
    endloop
  endfacet
  facet normal -0.933574 0.358385 0
    outer loop
      vertex 25.0758 -36.1752 1.2
      vertex 25.2165 -35.8088 23.25
      vertex 25.2165 -35.8088 1.2
    endloop
  endfacet
  facet normal -0.933574 0.358385 0
    outer loop
      vertex 25.2165 -35.8088 23.25
      vertex 25.0758 -36.1752 1.2
      vertex 25.0758 -36.1752 23.25
    endloop
  endfacet
  facet normal -0.891004 0.453996 0
    outer loop
      vertex 24.8976 -36.525 1.2
      vertex 25.0758 -36.1752 23.25
      vertex 25.0758 -36.1752 1.2
    endloop
  endfacet
  facet normal -0.891004 0.453996 0
    outer loop
      vertex 25.0758 -36.1752 23.25
      vertex 24.8976 -36.525 1.2
      vertex 24.8976 -36.525 23.25
    endloop
  endfacet
  facet normal -0.838676 0.54463 0
    outer loop
      vertex 24.6838 -36.8542 1.2
      vertex 24.8976 -36.525 23.25
      vertex 24.8976 -36.525 1.2
    endloop
  endfacet
  facet normal -0.838676 0.54463 0
    outer loop
      vertex 24.8976 -36.525 23.25
      vertex 24.6838 -36.8542 1.2
      vertex 24.6838 -36.8542 23.25
    endloop
  endfacet
  facet normal -0.777134 0.629335 0
    outer loop
      vertex 24.4368 -37.1592 1.2
      vertex 24.6838 -36.8542 23.25
      vertex 24.6838 -36.8542 1.2
    endloop
  endfacet
  facet normal -0.777134 0.629335 0
    outer loop
      vertex 24.6838 -36.8542 23.25
      vertex 24.4368 -37.1592 1.2
      vertex 24.4368 -37.1592 23.25
    endloop
  endfacet
  facet normal -0.707107 0.707107 0
    outer loop
      vertex 24.1592 -37.4368 1.2
      vertex 24.4368 -37.1592 23.25
      vertex 24.4368 -37.1592 1.2
    endloop
  endfacet
  facet normal -0.707107 0.707107 0
    outer loop
      vertex 24.4368 -37.1592 23.25
      vertex 24.1592 -37.4368 1.2
      vertex 24.1592 -37.4368 23.25
    endloop
  endfacet
  facet normal -0.629335 0.777134 0
    outer loop
      vertex 24.1592 -37.4368 1.2
      vertex 23.8542 -37.6838 23.25
      vertex 24.1592 -37.4368 23.25
    endloop
  endfacet
  facet normal -0.629335 0.777134 0
    outer loop
      vertex 23.8542 -37.6838 23.25
      vertex 24.1592 -37.4368 1.2
      vertex 23.8542 -37.6838 1.2
    endloop
  endfacet
  facet normal -0.54463 0.838676 0
    outer loop
      vertex 23.8542 -37.6838 1.2
      vertex 23.525 -37.8976 23.25
      vertex 23.8542 -37.6838 23.25
    endloop
  endfacet
  facet normal -0.54463 0.838676 0
    outer loop
      vertex 23.525 -37.8976 23.25
      vertex 23.8542 -37.6838 1.2
      vertex 23.525 -37.8976 1.2
    endloop
  endfacet
  facet normal -0.453996 0.891004 0
    outer loop
      vertex 23.525 -37.8976 1.2
      vertex 23.1752 -38.0758 23.25
      vertex 23.525 -37.8976 23.25
    endloop
  endfacet
  facet normal -0.453996 0.891004 0
    outer loop
      vertex 23.1752 -38.0758 23.25
      vertex 23.525 -37.8976 1.2
      vertex 23.1752 -38.0758 1.2
    endloop
  endfacet
  facet normal -0.358385 0.933574 0
    outer loop
      vertex 23.1752 -38.0758 1.2
      vertex 22.8088 -38.2165 23.25
      vertex 23.1752 -38.0758 23.25
    endloop
  endfacet
  facet normal -0.358385 0.933574 0
    outer loop
      vertex 22.8088 -38.2165 23.25
      vertex 23.1752 -38.0758 1.2
      vertex 22.8088 -38.2165 1.2
    endloop
  endfacet
  facet normal -0.258783 0.965936 0
    outer loop
      vertex 22.8088 -38.2165 1.2
      vertex 22.4297 -38.318 23.25
      vertex 22.8088 -38.2165 23.25
    endloop
  endfacet
  facet normal -0.258783 0.965936 0
    outer loop
      vertex 22.4297 -38.318 23.25
      vertex 22.8088 -38.2165 1.2
      vertex 22.4297 -38.318 1.2
    endloop
  endfacet
  facet normal -0.15647 0.987683 0
    outer loop
      vertex 22.4297 -38.318 1.2
      vertex 22.042 -38.3795 23.25
      vertex 22.4297 -38.318 23.25
    endloop
  endfacet
  facet normal -0.15647 0.987683 0
    outer loop
      vertex 22.042 -38.3795 23.25
      vertex 22.4297 -38.318 1.2
      vertex 22.042 -38.3795 1.2
    endloop
  endfacet
  facet normal -0.0523242 0.99863 0
    outer loop
      vertex 22.042 -38.3795 1.2
      vertex 21.65 -38.4 23.25
      vertex 22.042 -38.3795 23.25
    endloop
  endfacet
  facet normal -0.0523242 0.99863 0
    outer loop
      vertex 21.65 -38.4 23.25
      vertex 22.042 -38.3795 1.2
      vertex 21.65 -38.4 1.2
    endloop
  endfacet
  facet normal 0 1 -0
    outer loop
      vertex 21.65 -38.4 1.2
      vertex -21.65 -38.4 23.25
      vertex 21.65 -38.4 23.25
    endloop
  endfacet
  facet normal 0 1 0
    outer loop
      vertex -21.65 -38.4 23.25
      vertex 21.65 -38.4 1.2
      vertex -21.65 -38.4 1.2
    endloop
  endfacet
  facet normal 0 0 1
    outer loop
      vertex 21.65 38.4 1.2
      vertex 25.4 34.65 1.2
      vertex 25.3795 35.042 1.2
    endloop
  endfacet
  facet normal 0 0 1
    outer loop
      vertex 25.4 34.65 1.2
      vertex -25.4 34.65 1.2
      vertex 25.4 -34.65 1.2
    endloop
  endfacet
  facet normal 0 0 1
    outer loop
      vertex 21.65 38.4 1.2
      vertex 25.3795 35.042 1.2
      vertex 25.318 35.4297 1.2
    endloop
  endfacet
  facet normal 0 0 1
    outer loop
      vertex -25.4 -34.65 1.2
      vertex 25.4 -34.65 1.2
      vertex -25.4 34.65 1.2
    endloop
  endfacet
  facet normal 0 0 1
    outer loop
      vertex 21.65 38.4 1.2
      vertex 25.318 35.4297 1.2
      vertex 25.2165 35.8088 1.2
    endloop
  endfacet
  facet normal 0 -0 1
    outer loop
      vertex 21.65 -38.4 1.2
      vertex 25.4 -34.65 1.2
      vertex -25.4 -34.65 1.2
    endloop
  endfacet
  facet normal 0 0 1
    outer loop
      vertex 21.65 38.4 1.2
      vertex 25.2165 35.8088 1.2
      vertex 25.0758 36.1752 1.2
    endloop
  endfacet
  facet normal 0 0 1
    outer loop
      vertex 25.4 -34.65 1.2
      vertex 21.65 -38.4 1.2
      vertex 25.3795 -35.042 1.2
    endloop
  endfacet
  facet normal 0 0 1
    outer loop
      vertex 21.65 38.4 1.2
      vertex 25.0758 36.1752 1.2
      vertex 24.8976 36.525 1.2
    endloop
  endfacet
  facet normal 0 0 1
    outer loop
      vertex 25.4 34.65 1.2
      vertex 21.65 38.4 1.2
      vertex -25.4 34.65 1.2
    endloop
  endfacet
  facet normal 0 0 1
    outer loop
      vertex 21.65 38.4 1.2
      vertex 24.8976 36.525 1.2
      vertex 24.6838 36.8542 1.2
    endloop
  endfacet
  facet normal 0 0 1
    outer loop
      vertex 25.3795 -35.042 1.2
      vertex 21.65 -38.4 1.2
      vertex 25.318 -35.4297 1.2
    endloop
  endfacet
  facet normal 0 0 1
    outer loop
      vertex 21.65 38.4 1.2
      vertex 24.6838 36.8542 1.2
      vertex 24.4368 37.1592 1.2
    endloop
  endfacet
  facet normal 0 0 1
    outer loop
      vertex 25.0758 -36.1752 1.2
      vertex 21.65 -38.4 1.2
      vertex 24.8976 -36.525 1.2
    endloop
  endfacet
  facet normal 0 0 1
    outer loop
      vertex 21.65 38.4 1.2
      vertex 24.4368 37.1592 1.2
      vertex 24.1592 37.4368 1.2
    endloop
  endfacet
  facet normal 0 0 1
    outer loop
      vertex 24.8976 -36.525 1.2
      vertex 21.65 -38.4 1.2
      vertex 24.6838 -36.8542 1.2
    endloop
  endfacet
  facet normal 0 0 1
    outer loop
      vertex 21.65 38.4 1.2
      vertex 24.1592 37.4368 1.2
      vertex 23.8542 37.6838 1.2
    endloop
  endfacet
  facet normal 0 0 1
    outer loop
      vertex 24.6838 -36.8542 1.2
      vertex 21.65 -38.4 1.2
      vertex 24.4368 -37.1592 1.2
    endloop
  endfacet
  facet normal 0 0 1
    outer loop
      vertex 21.65 38.4 1.2
      vertex 23.8542 37.6838 1.2
      vertex 23.525 37.8976 1.2
    endloop
  endfacet
  facet normal 0 0 1
    outer loop
      vertex 24.4368 -37.1592 1.2
      vertex 21.65 -38.4 1.2
      vertex 24.1592 -37.4368 1.2
    endloop
  endfacet
  facet normal 0 0 1
    outer loop
      vertex 21.65 38.4 1.2
      vertex 23.525 37.8976 1.2
      vertex 23.1752 38.0758 1.2
    endloop
  endfacet
  facet normal 0 0 1
    outer loop
      vertex 24.1592 -37.4368 1.2
      vertex 21.65 -38.4 1.2
      vertex 23.8542 -37.6838 1.2
    endloop
  endfacet
  facet normal 0 0 1
    outer loop
      vertex 21.65 38.4 1.2
      vertex 23.1752 38.0758 1.2
      vertex 22.8088 38.2165 1.2
    endloop
  endfacet
  facet normal 0 0 1
    outer loop
      vertex 23.8542 -37.6838 1.2
      vertex 21.65 -38.4 1.2
      vertex 23.525 -37.8976 1.2
    endloop
  endfacet
  facet normal 0 0 1
    outer loop
      vertex 21.65 38.4 1.2
      vertex 22.8088 38.2165 1.2
      vertex 22.4297 38.318 1.2
    endloop
  endfacet
  facet normal 0 0 1
    outer loop
      vertex 23.525 -37.8976 1.2
      vertex 21.65 -38.4 1.2
      vertex 23.1752 -38.0758 1.2
    endloop
  endfacet
  facet normal 0 0 1
    outer loop
      vertex 21.65 38.4 1.2
      vertex 22.4297 38.318 1.2
      vertex 22.042 38.3795 1.2
    endloop
  endfacet
  facet normal 0 0 1
    outer loop
      vertex 23.1752 -38.0758 1.2
      vertex 21.65 -38.4 1.2
      vertex 22.8088 -38.2165 1.2
    endloop
  endfacet
  facet normal 0 0 1
    outer loop
      vertex 22.8088 -38.2165 1.2
      vertex 21.65 -38.4 1.2
      vertex 22.4297 -38.318 1.2
    endloop
  endfacet
  facet normal 0 0 1
    outer loop
      vertex 22.4297 -38.318 1.2
      vertex 21.65 -38.4 1.2
      vertex 22.042 -38.3795 1.2
    endloop
  endfacet
  facet normal 0 0 1
    outer loop
      vertex -25.4 34.65 1.2
      vertex 21.65 38.4 1.2
      vertex -21.65 38.4 1.2
    endloop
  endfacet
  facet normal 0 0 1
    outer loop
      vertex 25.318 -35.4297 1.2
      vertex 21.65 -38.4 1.2
      vertex 25.2165 -35.8088 1.2
    endloop
  endfacet
  facet normal 0 0 1
    outer loop
      vertex -25.4 34.65 1.2
      vertex -21.65 38.4 1.2
      vertex -22.042 38.3795 1.2
    endloop
  endfacet
  facet normal 0 0 1
    outer loop
      vertex 25.2165 -35.8088 1.2
      vertex 21.65 -38.4 1.2
      vertex 25.0758 -36.1752 1.2
    endloop
  endfacet
  facet normal 0 0 1
    outer loop
      vertex -25.4 34.65 1.2
      vertex -22.042 38.3795 1.2
      vertex -22.4297 38.318 1.2
    endloop
  endfacet
  facet normal 0 0 1
    outer loop
      vertex 21.65 -38.4 1.2
      vertex -25.4 -34.65 1.2
      vertex -21.65 -38.4 1.2
    endloop
  endfacet
  facet normal 0 0 1
    outer loop
      vertex -25.4 34.65 1.2
      vertex -22.4297 38.318 1.2
      vertex -22.8088 38.2165 1.2
    endloop
  endfacet
  facet normal 0 0 1
    outer loop
      vertex -21.65 -38.4 1.2
      vertex -25.4 -34.65 1.2
      vertex -22.042 -38.3795 1.2
    endloop
  endfacet
  facet normal 0 0 1
    outer loop
      vertex -25.4 34.65 1.2
      vertex -22.8088 38.2165 1.2
      vertex -23.1752 38.0758 1.2
    endloop
  endfacet
  facet normal 0 0 1
    outer loop
      vertex -22.042 -38.3795 1.2
      vertex -25.4 -34.65 1.2
      vertex -22.4297 -38.318 1.2
    endloop
  endfacet
  facet normal 0 0 1
    outer loop
      vertex -25.4 34.65 1.2
      vertex -23.1752 38.0758 1.2
      vertex -23.525 37.8976 1.2
    endloop
  endfacet
  facet normal 0 0 1
    outer loop
      vertex -22.4297 -38.318 1.2
      vertex -25.4 -34.65 1.2
      vertex -22.8088 -38.2165 1.2
    endloop
  endfacet
  facet normal 0 0 1
    outer loop
      vertex -25.4 34.65 1.2
      vertex -23.525 37.8976 1.2
      vertex -23.8542 37.6838 1.2
    endloop
  endfacet
  facet normal 0 0 1
    outer loop
      vertex -22.8088 -38.2165 1.2
      vertex -25.4 -34.65 1.2
      vertex -23.1752 -38.0758 1.2
    endloop
  endfacet
  facet normal 0 0 1
    outer loop
      vertex -25.4 34.65 1.2
      vertex -23.8542 37.6838 1.2
      vertex -24.1592 37.4368 1.2
    endloop
  endfacet
  facet normal 0 0 1
    outer loop
      vertex -23.1752 -38.0758 1.2
      vertex -25.4 -34.65 1.2
      vertex -23.525 -37.8976 1.2
    endloop
  endfacet
  facet normal 0 0 1
    outer loop
      vertex -25.4 34.65 1.2
      vertex -24.1592 37.4368 1.2
      vertex -24.4368 37.1592 1.2
    endloop
  endfacet
  facet normal 0 0 1
    outer loop
      vertex -23.525 -37.8976 1.2
      vertex -25.4 -34.65 1.2
      vertex -23.8542 -37.6838 1.2
    endloop
  endfacet
  facet normal 0 0 1
    outer loop
      vertex -25.4 34.65 1.2
      vertex -24.4368 37.1592 1.2
      vertex -24.6838 36.8542 1.2
    endloop
  endfacet
  facet normal 0 0 1
    outer loop
      vertex -23.8542 -37.6838 1.2
      vertex -25.4 -34.65 1.2
      vertex -24.1592 -37.4368 1.2
    endloop
  endfacet
  facet normal 0 0 1
    outer loop
      vertex -25.4 34.65 1.2
      vertex -24.6838 36.8542 1.2
      vertex -24.8976 36.525 1.2
    endloop
  endfacet
  facet normal 0 0 1
    outer loop
      vertex -24.1592 -37.4368 1.2
      vertex -25.4 -34.65 1.2
      vertex -24.4368 -37.1592 1.2
    endloop
  endfacet
  facet normal 0 0 1
    outer loop
      vertex -25.4 34.65 1.2
      vertex -24.8976 36.525 1.2
      vertex -25.0758 36.1752 1.2
    endloop
  endfacet
  facet normal 0 0 1
    outer loop
      vertex -24.4368 -37.1592 1.2
      vertex -25.4 -34.65 1.2
      vertex -24.6838 -36.8542 1.2
    endloop
  endfacet
  facet normal 0 0 1
    outer loop
      vertex -25.4 34.65 1.2
      vertex -25.0758 36.1752 1.2
      vertex -25.2165 35.8088 1.2
    endloop
  endfacet
  facet normal 0 0 1
    outer loop
      vertex -24.6838 -36.8542 1.2
      vertex -25.4 -34.65 1.2
      vertex -24.8976 -36.525 1.2
    endloop
  endfacet
  facet normal 0 0 1
    outer loop
      vertex -25.4 34.65 1.2
      vertex -25.2165 35.8088 1.2
      vertex -25.318 35.4297 1.2
    endloop
  endfacet
  facet normal 0 0 1
    outer loop
      vertex -24.8976 -36.525 1.2
      vertex -25.4 -34.65 1.2
      vertex -25.0758 -36.1752 1.2
    endloop
  endfacet
  facet normal 0 0 1
    outer loop
      vertex -25.4 34.65 1.2
      vertex -25.318 35.4297 1.2
      vertex -25.3795 35.042 1.2
    endloop
  endfacet
  facet normal 0 0 1
    outer loop
      vertex -25.0758 -36.1752 1.2
      vertex -25.4 -34.65 1.2
      vertex -25.2165 -35.8088 1.2
    endloop
  endfacet
  facet normal 0 0 1
    outer loop
      vertex -25.2165 -35.8088 1.2
      vertex -25.4 -34.65 1.2
      vertex -25.318 -35.4297 1.2
    endloop
  endfacet
  facet normal 0 0 1
    outer loop
      vertex -25.318 -35.4297 1.2
      vertex -25.4 -34.65 1.2
      vertex -25.3795 -35.042 1.2
    endloop
  endfacet
endsolid OpenSCAD_Model
