solid OpenSCAD_Model
  facet normal 0 0 -1
    outer loop
      vertex -39 40 0
      vertex -34 15 0
      vertex -39 16 0
    endloop
  endfacet
  facet normal 0 0 -1
    outer loop
      vertex -34 15 0
      vertex -39 40 0
      vertex -31 41 0
    endloop
  endfacet
  facet normal -0 0 -1
    outer loop
      vertex -31 41 0
      vertex -39 40 0
      vertex -37 42 0
    endloop
  endfacet
  facet normal 0 0 -1
    outer loop
      vertex 12 4.5 0
      vertex 16 7.66667 0
      vertex 16 5.5 0
    endloop
  endfacet
  facet normal 0 0 -1
    outer loop
      vertex -16 7.66667 0
      vertex 16 7.66667 0
      vertex 12 4.5 0
    endloop
  endfacet
  facet normal 0 0 -1
    outer loop
      vertex 16 7.66667 0
      vertex 8 50 0
      vertex 14 49 0
    endloop
  endfacet
  facet normal 0 0 -1
    outer loop
      vertex -12 4.5 0
      vertex 12 4.5 0
      vertex 8 1 0
    endloop
  endfacet
  facet normal 0 0 -1
    outer loop
      vertex 14 49 0
      vertex 8 50 0
      vertex 11 50.5 0
    endloop
  endfacet
  facet normal 0 0 -1
    outer loop
      vertex -12 4.5 0
      vertex 8 1 0
      vertex -8 1 0
    endloop
  endfacet
  facet normal 0 0 -1
    outer loop
      vertex -16 7.66667 0
      vertex 12 4.5 0
      vertex -12 4.5 0
    endloop
  endfacet
  facet normal 0 0 -1
    outer loop
      vertex 16 7.66667 0
      vertex -16 7.66667 0
      vertex 8 50 0
    endloop
  endfacet
  facet normal -0 0 -1
    outer loop
      vertex 8 50 0
      vertex -16 7.66667 0
      vertex -8 50 0
    endloop
  endfacet
  facet normal 0 0 -1
    outer loop
      vertex -24 14 0
      vertex -8 50 0
      vertex -16 7.66667 0
    endloop
  endfacet
  facet normal 0 0 -1
    outer loop
      vertex -16 7.66667 0
      vertex -12 4.5 0
      vertex -16 5.5 0
    endloop
  endfacet
  facet normal -0 0 -1
    outer loop
      vertex -8 50 0
      vertex -14 49 0
      vertex -11 50.5 0
    endloop
  endfacet
  facet normal 0 0 -1
    outer loop
      vertex -8 50 0
      vertex -24 14 0
      vertex -14 49 0
    endloop
  endfacet
  facet normal 0 0 -1
    outer loop
      vertex -31 41 0
      vertex -24 14 0
      vertex -30 15 0
    endloop
  endfacet
  facet normal 0 0 -1
    outer loop
      vertex -24 14 0
      vertex -31 41 0
      vertex -14 49 0
    endloop
  endfacet
  facet normal 0 0 -1
    outer loop
      vertex -34 15 0
      vertex -31 41 0
      vertex -30 15 0
    endloop
  endfacet
  facet normal 0 -0 -1
    outer loop
      vertex -33.5 49 0
      vertex -31 41 0
      vertex -37 42 0
    endloop
  endfacet
  facet normal 0 0 -1
    outer loop
      vertex -39 16 0
      vertex -34 15 0
      vertex -38 15 0
    endloop
  endfacet
  facet normal 0 0 -1
    outer loop
      vertex -31 41 0
      vertex -33.5 49 0
      vertex -32 49 0
    endloop
  endfacet
  facet normal 0 0 -1
    outer loop
      vertex -37 13 0
      vertex -34 15 0
      vertex -35 13 0
    endloop
  endfacet
  facet normal 0 0 -1
    outer loop
      vertex -38 15 0
      vertex -34 15 0
      vertex -37 13 0
    endloop
  endfacet
  facet normal 0 0 -1
    outer loop
      vertex -37 53 0
      vertex -33.5 49 0
      vertex -37 42 0
    endloop
  endfacet
  facet normal 0 0 -1
    outer loop
      vertex -33.5 49 0
      vertex -37 53 0
      vertex -33.5 53 0
    endloop
  endfacet
  facet normal 0 0 -1
    outer loop
      vertex 37 42 0
      vertex 32 49 0
      vertex 33.5 49 0
    endloop
  endfacet
  facet normal -0 0 -1
    outer loop
      vertex 37 42 0
      vertex 31 41 0
      vertex 32 49 0
    endloop
  endfacet
  facet normal 0 0 -1
    outer loop
      vertex 30 15 0
      vertex 31 41 0
      vertex 34 15 0
    endloop
  endfacet
  facet normal 0 0 -1
    outer loop
      vertex 24 14 0
      vertex 31 41 0
      vertex 30 15 0
    endloop
  endfacet
  facet normal 0 0 -1
    outer loop
      vertex 14 49 0
      vertex 24 14 0
      vertex 16 7.66667 0
    endloop
  endfacet
  facet normal 0 0 -1
    outer loop
      vertex 24 14 0
      vertex 14 49 0
      vertex 31 41 0
    endloop
  endfacet
  facet normal 0 0 -1
    outer loop
      vertex 34 15 0
      vertex 39 16 0
      vertex 38 15 0
    endloop
  endfacet
  facet normal 0 0 -1
    outer loop
      vertex 34 15 0
      vertex 38 15 0
      vertex 37 13 0
    endloop
  endfacet
  facet normal -0 0 -1
    outer loop
      vertex 39 16 0
      vertex 34 15 0
      vertex 39 40 0
    endloop
  endfacet
  facet normal 0 0 -1
    outer loop
      vertex 31 41 0
      vertex 39 40 0
      vertex 34 15 0
    endloop
  endfacet
  facet normal 0 0 -1
    outer loop
      vertex 34 15 0
      vertex 37 13 0
      vertex 35 13 0
    endloop
  endfacet
  facet normal 0 0 -1
    outer loop
      vertex 39 40 0
      vertex 31 41 0
      vertex 37 42 0
    endloop
  endfacet
  facet normal 0 0 -1
    outer loop
      vertex 37 42 0
      vertex 33.5 49 0
      vertex 37 53 0
    endloop
  endfacet
  facet normal -0 0 -1
    outer loop
      vertex 37 53 0
      vertex 33.5 49 0
      vertex 33.5 53 0
    endloop
  endfacet
  facet normal 0 0 1
    outer loop
      vertex -33.5 53 14
      vertex -37 53 14
      vertex -33.5 49 14
    endloop
  endfacet
  facet normal 0 0 1
    outer loop
      vertex -31 41 14
      vertex -16 48 14
      vertex -14 49 14
    endloop
  endfacet
  facet normal -0 0 1
    outer loop
      vertex -31 41 14
      vertex -16 38.2 14
      vertex -16 48 14
    endloop
  endfacet
  facet normal -0 0 1
    outer loop
      vertex -33.5 49 14
      vertex -31 41 14
      vertex -32 49 14
    endloop
  endfacet
  facet normal 0 0 1
    outer loop
      vertex -37 42 14
      vertex -33.5 49 14
      vertex -37 53 14
    endloop
  endfacet
  facet normal 0 0 1
    outer loop
      vertex -33.5 49 14
      vertex -37 42 14
      vertex -31 41 14
    endloop
  endfacet
  facet normal 0 0 1
    outer loop
      vertex -39 38.2 14
      vertex -31 41 14
      vertex -37 42 14
    endloop
  endfacet
  facet normal 0 0 1
    outer loop
      vertex -39 38.2 14
      vertex -37 42 14
      vertex -39 40 14
    endloop
  endfacet
  facet normal 0 0 1
    outer loop
      vertex -31 41 14
      vertex -39 38.2 14
      vertex -16 38.2 14
    endloop
  endfacet
  facet normal 0 0 1
    outer loop
      vertex 33.5 49 14
      vertex 37 53 14
      vertex 33.5 53 14
    endloop
  endfacet
  facet normal 0 0 1
    outer loop
      vertex 37 42 14
      vertex 39 38.2 14
      vertex 39 40 14
    endloop
  endfacet
  facet normal 0 0 1
    outer loop
      vertex 37 53 14
      vertex 33.5 49 14
      vertex 37 42 14
    endloop
  endfacet
  facet normal 0 0 1
    outer loop
      vertex 31 41 14
      vertex 33.5 49 14
      vertex 32 49 14
    endloop
  endfacet
  facet normal 0 0 1
    outer loop
      vertex 33.5 49 14
      vertex 31 41 14
      vertex 37 42 14
    endloop
  endfacet
  facet normal 0 0 1
    outer loop
      vertex 37 42 14
      vertex 31 41 14
      vertex 39 38.2 14
    endloop
  endfacet
  facet normal 0 0 1
    outer loop
      vertex 31 41 14
      vertex 16 38.2 14
      vertex 39 38.2 14
    endloop
  endfacet
  facet normal 0 0 1
    outer loop
      vertex 16 38.2 14
      vertex 31 41 14
      vertex 16 48 14
    endloop
  endfacet
  facet normal 0 0 1
    outer loop
      vertex 31 41 14
      vertex 14 49 14
      vertex 16 48 14
    endloop
  endfacet
  facet normal -0.447214 0.894427 0
    outer loop
      vertex -11 50.5 23.25
      vertex -14 49 14
      vertex -16 48 23.25
    endloop
  endfacet
  facet normal -0.447214 0.894427 0
    outer loop
      vertex -11 50.5 0
      vertex -14 49 14
      vertex -11 50.5 23.25
    endloop
  endfacet
  facet normal -0.447214 0.894427 0
    outer loop
      vertex -14 49 14
      vertex -11 50.5 0
      vertex -14 49 0
    endloop
  endfacet
  facet normal -0.447214 0.894427 0
    outer loop
      vertex -16 48 23.25
      vertex -14 49 14
      vertex -16 48 14
    endloop
  endfacet
  facet normal -0.425797 0.904819 0
    outer loop
      vertex -14 49 0
      vertex -31 41 14
      vertex -14 49 14
    endloop
  endfacet
  facet normal -0.425797 0.904819 0
    outer loop
      vertex -31 41 14
      vertex -14 49 0
      vertex -31 41 0
    endloop
  endfacet
  facet normal 0.992278 0.124035 0
    outer loop
      vertex -31 41 14
      vertex -32 49 0
      vertex -32 49 14
    endloop
  endfacet
  facet normal 0.992278 0.124035 0
    outer loop
      vertex -32 49 0
      vertex -31 41 14
      vertex -31 41 0
    endloop
  endfacet
  facet normal 0 1 -0
    outer loop
      vertex -32 49 0
      vertex -33.5 49 14
      vertex -32 49 14
    endloop
  endfacet
  facet normal 0 1 0
    outer loop
      vertex -33.5 49 14
      vertex -32 49 0
      vertex -33.5 49 0
    endloop
  endfacet
  facet normal 1 -0 0
    outer loop
      vertex -33.5 49 14
      vertex -33.5 53 0
      vertex -33.5 53 14
    endloop
  endfacet
  facet normal 1 0 0
    outer loop
      vertex -33.5 53 0
      vertex -33.5 49 14
      vertex -33.5 49 0
    endloop
  endfacet
  facet normal 0 1 -0
    outer loop
      vertex -33.5 53 0
      vertex -37 53 14
      vertex -33.5 53 14
    endloop
  endfacet
  facet normal 0 1 0
    outer loop
      vertex -37 53 14
      vertex -33.5 53 0
      vertex -37 53 0
    endloop
  endfacet
  facet normal -1 0 0
    outer loop
      vertex -37 42 0
      vertex -37 53 14
      vertex -37 53 0
    endloop
  endfacet
  facet normal -1 -0 0
    outer loop
      vertex -37 53 14
      vertex -37 42 0
      vertex -37 42 14
    endloop
  endfacet
  facet normal -0.707107 0.707107 0
    outer loop
      vertex -39 40 0
      vertex -37 42 14
      vertex -37 42 0
    endloop
  endfacet
  facet normal -0.707107 0.707107 0
    outer loop
      vertex -37 42 14
      vertex -39 40 0
      vertex -39 40 14
    endloop
  endfacet
  facet normal -1 0 0
    outer loop
      vertex -39 40 0
      vertex -39 38.2 14
      vertex -39 40 14
    endloop
  endfacet
  facet normal -1 0 0
    outer loop
      vertex -39 40 0
      vertex -39 16.08 10.05
      vertex -39 38.2 14
    endloop
  endfacet
  facet normal -1 0 0
    outer loop
      vertex -39 16 0
      vertex -39 16.08 10.05
      vertex -39 40 0
    endloop
  endfacet
  facet normal -1 0 0
    outer loop
      vertex -39 16.08 10.05
      vertex -39 16 0
      vertex -39 16 10.0357
    endloop
  endfacet
  facet normal -0.707107 -0.707107 -0
    outer loop
      vertex -38 15 9.85714
      vertex -39 16 0
      vertex -38 15 0
    endloop
  endfacet
  facet normal -0.707107 -0.707107 0
    outer loop
      vertex -39 16 0
      vertex -38 15 9.85714
      vertex -39 16 10.0357
    endloop
  endfacet
  facet normal -0.894427 -0.447214 -0
    outer loop
      vertex -37 13 9.5
      vertex -38 15 0
      vertex -37 13 0
    endloop
  endfacet
  facet normal -0.894427 -0.447214 0
    outer loop
      vertex -38 15 0
      vertex -37 13 9.5
      vertex -38 15 9.85714
    endloop
  endfacet
  facet normal 0 -1 0
    outer loop
      vertex -37 13 0
      vertex -35 13 9.5
      vertex -37 13 9.5
    endloop
  endfacet
  facet normal 0 -1 -0
    outer loop
      vertex -35 13 9.5
      vertex -37 13 0
      vertex -35 13 0
    endloop
  endfacet
  facet normal 0.894427 -0.447214 0
    outer loop
      vertex -35 13 9.5
      vertex -34 15 0
      vertex -34 15 9.85714
    endloop
  endfacet
  facet normal 0.894427 -0.447214 0
    outer loop
      vertex -34 15 0
      vertex -35 13 9.5
      vertex -35 13 0
    endloop
  endfacet
  facet normal 0 -1 0
    outer loop
      vertex -34 15 0
      vertex -30 15 9.85714
      vertex -34 15 9.85714
    endloop
  endfacet
  facet normal 0 -1 -0
    outer loop
      vertex -30 15 9.85714
      vertex -34 15 0
      vertex -30 15 0
    endloop
  endfacet
  facet normal -0.164399 -0.986394 0
    outer loop
      vertex -30 15 0
      vertex -24 14 9.67857
      vertex -30 15 9.85714
    endloop
  endfacet
  facet normal -0.164399 -0.986394 -0
    outer loop
      vertex -24 14 9.67857
      vertex -30 15 0
      vertex -24 14 0
    endloop
  endfacet
  facet normal -0.620703 -0.784046 0
    outer loop
      vertex -24 14 0
      vertex -16 7.66667 8.54762
      vertex -24 14 9.67857
    endloop
  endfacet
  facet normal -0.620703 -0.784046 -0
    outer loop
      vertex -16 7.66667 8.54762
      vertex -24 14 0
      vertex -16 7.66667 0
    endloop
  endfacet
  facet normal -0.658505 -0.752577 0
    outer loop
      vertex -12 4.5 0
      vertex -8 1 23.25
      vertex -12 4.5 23.25
    endloop
  endfacet
  facet normal -0.658505 -0.752577 -0
    outer loop
      vertex -8 1 23.25
      vertex -12 4.5 0
      vertex -8 1 0
    endloop
  endfacet
  facet normal 0 -1 0
    outer loop
      vertex -8 1 0
      vertex 8 1 23.25
      vertex -8 1 23.25
    endloop
  endfacet
  facet normal 0 -1 -0
    outer loop
      vertex 8 1 23.25
      vertex -8 1 0
      vertex 8 1 0
    endloop
  endfacet
  facet normal 0.658505 -0.752577 0
    outer loop
      vertex 8 1 0
      vertex 12 4.5 23.25
      vertex 8 1 23.25
    endloop
  endfacet
  facet normal 0.658505 -0.752577 0
    outer loop
      vertex 12 4.5 23.25
      vertex 8 1 0
      vertex 12 4.5 0
    endloop
  endfacet
  facet normal 0.620703 -0.784046 0
    outer loop
      vertex 24 14 0
      vertex 16 7.66667 8.54762
      vertex 16 7.66667 0
    endloop
  endfacet
  facet normal 0.620703 -0.784046 0
    outer loop
      vertex 16 7.66667 8.54762
      vertex 24 14 0
      vertex 24 14 9.67857
    endloop
  endfacet
  facet normal 0.164399 -0.986394 0
    outer loop
      vertex 30 15 0
      vertex 24 14 9.67857
      vertex 24 14 0
    endloop
  endfacet
  facet normal 0.164399 -0.986394 0
    outer loop
      vertex 24 14 9.67857
      vertex 30 15 0
      vertex 30 15 9.85714
    endloop
  endfacet
  facet normal 0 -1 0
    outer loop
      vertex 30 15 0
      vertex 34 15 9.85714
      vertex 30 15 9.85714
    endloop
  endfacet
  facet normal 0 -1 -0
    outer loop
      vertex 34 15 9.85714
      vertex 30 15 0
      vertex 34 15 0
    endloop
  endfacet
  facet normal -0.894427 -0.447214 -0
    outer loop
      vertex 35 13 9.5
      vertex 34 15 0
      vertex 35 13 0
    endloop
  endfacet
  facet normal -0.894427 -0.447214 0
    outer loop
      vertex 34 15 0
      vertex 35 13 9.5
      vertex 34 15 9.85714
    endloop
  endfacet
  facet normal 0 -1 0
    outer loop
      vertex 35 13 0
      vertex 37 13 9.5
      vertex 35 13 9.5
    endloop
  endfacet
  facet normal 0 -1 -0
    outer loop
      vertex 37 13 9.5
      vertex 35 13 0
      vertex 37 13 0
    endloop
  endfacet
  facet normal 0.894427 -0.447214 0
    outer loop
      vertex 37 13 9.5
      vertex 38 15 0
      vertex 38 15 9.85714
    endloop
  endfacet
  facet normal 0.894427 -0.447214 0
    outer loop
      vertex 38 15 0
      vertex 37 13 9.5
      vertex 37 13 0
    endloop
  endfacet
  facet normal 0.707107 -0.707107 0
    outer loop
      vertex 38 15 9.85714
      vertex 39 16 0
      vertex 39 16 10.0357
    endloop
  endfacet
  facet normal 0.707107 -0.707107 0
    outer loop
      vertex 39 16 0
      vertex 38 15 9.85714
      vertex 38 15 0
    endloop
  endfacet
  facet normal 1 0 0
    outer loop
      vertex 39 37.92 13.95
      vertex 39 40 14
      vertex 39 38.2 14
    endloop
  endfacet
  facet normal 1 0 0
    outer loop
      vertex 39 40 14
      vertex 39 37.92 13.95
      vertex 39 40 0
    endloop
  endfacet
  facet normal 1 -0 0
    outer loop
      vertex 39 16 10.0357
      vertex 39 40 0
      vertex 39 37.92 13.95
    endloop
  endfacet
  facet normal 1 0 0
    outer loop
      vertex 39 40 0
      vertex 39 16 10.0357
      vertex 39 16 0
    endloop
  endfacet
  facet normal 0.707107 0.707107 0
    outer loop
      vertex 39 40 14
      vertex 37 42 0
      vertex 37 42 14
    endloop
  endfacet
  facet normal 0.707107 0.707107 0
    outer loop
      vertex 37 42 0
      vertex 39 40 14
      vertex 39 40 0
    endloop
  endfacet
  facet normal 1 -0 0
    outer loop
      vertex 37 42 14
      vertex 37 53 0
      vertex 37 53 14
    endloop
  endfacet
  facet normal 1 0 0
    outer loop
      vertex 37 53 0
      vertex 37 42 14
      vertex 37 42 0
    endloop
  endfacet
  facet normal 0 1 -0
    outer loop
      vertex 37 53 0
      vertex 33.5 53 14
      vertex 37 53 14
    endloop
  endfacet
  facet normal 0 1 0
    outer loop
      vertex 33.5 53 14
      vertex 37 53 0
      vertex 33.5 53 0
    endloop
  endfacet
  facet normal -1 0 0
    outer loop
      vertex 33.5 49 0
      vertex 33.5 53 14
      vertex 33.5 53 0
    endloop
  endfacet
  facet normal -1 -0 0
    outer loop
      vertex 33.5 53 14
      vertex 33.5 49 0
      vertex 33.5 49 14
    endloop
  endfacet
  facet normal 0 1 -0
    outer loop
      vertex 33.5 49 0
      vertex 32 49 14
      vertex 33.5 49 14
    endloop
  endfacet
  facet normal 0 1 0
    outer loop
      vertex 32 49 14
      vertex 33.5 49 0
      vertex 32 49 0
    endloop
  endfacet
  facet normal -0.992278 0.124035 0
    outer loop
      vertex 31 41 0
      vertex 32 49 14
      vertex 32 49 0
    endloop
  endfacet
  facet normal -0.992278 0.124035 0
    outer loop
      vertex 32 49 14
      vertex 31 41 0
      vertex 31 41 14
    endloop
  endfacet
  facet normal 0.425797 0.904819 -0
    outer loop
      vertex 31 41 0
      vertex 14 49 14
      vertex 31 41 14
    endloop
  endfacet
  facet normal 0.425797 0.904819 0
    outer loop
      vertex 14 49 14
      vertex 31 41 0
      vertex 14 49 0
    endloop
  endfacet
  facet normal 0.447214 0.894427 0
    outer loop
      vertex 14 49 14
      vertex 16 48 23.25
      vertex 16 48 14
    endloop
  endfacet
  facet normal 0.447214 0.894427 0
    outer loop
      vertex 16 48 23.25
      vertex 14 49 14
      vertex 11 50.5 23.25
    endloop
  endfacet
  facet normal 0.447214 0.894427 0
    outer loop
      vertex 11 50.5 0
      vertex 14 49 14
      vertex 14 49 0
    endloop
  endfacet
  facet normal 0.447214 0.894427 0
    outer loop
      vertex 14 49 14
      vertex 11 50.5 0
      vertex 11 50.5 23.25
    endloop
  endfacet
  facet normal -0.164399 0.986394 0
    outer loop
      vertex 11 50.5 0
      vertex 8 50 23.25
      vertex 11 50.5 23.25
    endloop
  endfacet
  facet normal -0.164399 0.986394 0
    outer loop
      vertex 8 50 23.25
      vertex 11 50.5 0
      vertex 8 50 0
    endloop
  endfacet
  facet normal 0 1 -0
    outer loop
      vertex 8 50 0
      vertex -8 50 23.25
      vertex 8 50 23.25
    endloop
  endfacet
  facet normal 0 1 0
    outer loop
      vertex -8 50 23.25
      vertex 8 50 0
      vertex -8 50 0
    endloop
  endfacet
  facet normal 0.164399 0.986394 -0
    outer loop
      vertex -8 50 0
      vertex -11 50.5 23.25
      vertex -8 50 23.25
    endloop
  endfacet
  facet normal 0.164399 0.986394 0
    outer loop
      vertex -11 50.5 23.25
      vertex -8 50 0
      vertex -11 50.5 0
    endloop
  endfacet
  facet normal 5.86445e-08 -0.175791 0.984428
    outer loop
      vertex -16 22.52 11.2
      vertex -24 14 9.67857
      vertex -16 7.66667 8.54762
    endloop
  endfacet
  facet normal -8.75666e-08 -0.17579 0.984428
    outer loop
      vertex -16 22.52 11.2
      vertex -30 15 9.85714
      vertex -24 14 9.67857
    endloop
  endfacet
  facet normal 0 -0.175791 0.984428
    outer loop
      vertex -16 22.52 11.2
      vertex -34 15 9.85714
      vertex -30 15 9.85714
    endloop
  endfacet
  facet normal 0 -0.17579 0.984428
    outer loop
      vertex -34 15 9.85714
      vertex -37 13 9.5
      vertex -35 13 9.5
    endloop
  endfacet
  facet normal 0 -0.17579 0.984428
    outer loop
      vertex -34 15 9.85714
      vertex -38 15 9.85714
      vertex -37 13 9.5
    endloop
  endfacet
  facet normal 7.70283e-08 -0.175791 0.984428
    outer loop
      vertex -39 16.08 10.05
      vertex -34 15 9.85714
      vertex -16 22.52 11.2
    endloop
  endfacet
  facet normal 0 -0.175791 0.984427
    outer loop
      vertex -34 15 9.85714
      vertex -39 16.08 10.05
      vertex -38 15 9.85714
    endloop
  endfacet
  facet normal -3.92294e-06 -0.175795 0.984427
    outer loop
      vertex -38 15 9.85714
      vertex -39 16.08 10.05
      vertex -39 16 10.0357
    endloop
  endfacet
  facet normal -5.11996e-08 -0.175791 0.984428
    outer loop
      vertex 34 15 9.85714
      vertex 39 16 10.0357
      vertex 39 37.92 13.95
    endloop
  endfacet
  facet normal 0 -0.175791 0.984428
    outer loop
      vertex 39 16 10.0357
      vertex 34 15 9.85714
      vertex 38 15 9.85714
    endloop
  endfacet
  facet normal 0 -0.17579 0.984428
    outer loop
      vertex 38 15 9.85714
      vertex 34 15 9.85714
      vertex 37 13 9.5
    endloop
  endfacet
  facet normal 0 -0.17579 0.984428
    outer loop
      vertex 37 13 9.5
      vertex 34 15 9.85714
      vertex 35 13 9.5
    endloop
  endfacet
  facet normal 0 -0.175791 0.984428
    outer loop
      vertex 39 37.92 13.95
      vertex 30 15 9.85714
      vertex 34 15 9.85714
    endloop
  endfacet
  facet normal 1.39148e-08 -0.175791 0.984428
    outer loop
      vertex 16 31.48 12.8
      vertex 30 15 9.85714
      vertex 39 37.92 13.95
    endloop
  endfacet
  facet normal 1.03844e-07 -0.175791 0.984428
    outer loop
      vertex 30 15 9.85714
      vertex 16 31.48 12.8
      vertex 24 14 9.67857
    endloop
  endfacet
  facet normal -3.84563e-08 -0.175791 0.984428
    outer loop
      vertex 24 14 9.67857
      vertex 16 31.48 12.8
      vertex 16 7.66667 8.54762
    endloop
  endfacet
  facet normal 0 -0.175791 0.984428
    outer loop
      vertex -39 38.2 14
      vertex -16 22.52 11.2
      vertex -16 38.2 14
    endloop
  endfacet
  facet normal 1.6165e-08 -0.175791 0.984428
    outer loop
      vertex -16 22.52 11.2
      vertex -39 38.2 14
      vertex -39 16.08 10.05
    endloop
  endfacet
  facet normal 0 -0.17579 0.984428
    outer loop
      vertex 16 38.2 14
      vertex 39 37.92 13.95
      vertex 39 38.2 14
    endloop
  endfacet
  facet normal -1.09335e-08 -0.175791 0.984428
    outer loop
      vertex 39 37.92 13.95
      vertex 16 38.2 14
      vertex 16 31.48 12.8
    endloop
  endfacet
  facet normal 0 0 1
    outer loop
      vertex 16 48 23.25
      vertex 12 4.5 23.25
      vertex 16 5.5 23.25
    endloop
  endfacet
  facet normal -0 0 1
    outer loop
      vertex 8 50 23.25
      vertex 16 48 23.25
      vertex 11 50.5 23.25
    endloop
  endfacet
  facet normal 0 0 1
    outer loop
      vertex 16 48 23.25
      vertex 8 50 23.25
      vertex 12 4.5 23.25
    endloop
  endfacet
  facet normal 0 0 1
    outer loop
      vertex -12 4.5 23.25
      vertex 12 4.5 23.25
      vertex 8 50 23.25
    endloop
  endfacet
  facet normal 0 0 1
    outer loop
      vertex -12 4.5 23.25
      vertex 8 50 23.25
      vertex -8 50 23.25
    endloop
  endfacet
  facet normal 0 0 1
    outer loop
      vertex 12 4.5 23.25
      vertex -12 4.5 23.25
      vertex 8 1 23.25
    endloop
  endfacet
  facet normal 0 0 1
    outer loop
      vertex -16 48 23.25
      vertex -8 50 23.25
      vertex -11 50.5 23.25
    endloop
  endfacet
  facet normal 0 0 1
    outer loop
      vertex 8 1 23.25
      vertex -12 4.5 23.25
      vertex -8 1 23.25
    endloop
  endfacet
  facet normal 0 0 1
    outer loop
      vertex -8 50 23.25
      vertex -16 48 23.25
      vertex -12 4.5 23.25
    endloop
  endfacet
  facet normal 0 0 1
    outer loop
      vertex -12 4.5 23.25
      vertex -16 48 23.25
      vertex -16 5.5 23.25
    endloop
  endfacet
  facet normal -1 0 0
    outer loop
      vertex -16 7.66667 0
      vertex -16 5.5 0
      vertex -16 7.66667 8.54762
    endloop
  endfacet
  facet normal -1 0 0
    outer loop
      vertex -16 38.2 14
      vertex -16 48 23.25
      vertex -16 48 14
    endloop
  endfacet
  facet normal -1 0 0
    outer loop
      vertex -16 5.5 23.25
      vertex -16 38.2 14
      vertex -16 22.52 11.2
    endloop
  endfacet
  facet normal -1 0 0
    outer loop
      vertex -16 5.5 23.25
      vertex -16 22.52 11.2
      vertex -16 7.66667 8.54762
    endloop
  endfacet
  facet normal -1 0 0
    outer loop
      vertex -16 38.2 14
      vertex -16 5.5 23.25
      vertex -16 48 23.25
    endloop
  endfacet
  facet normal -1 0 0
    outer loop
      vertex -16 5.5 23.25
      vertex -16 7.66667 8.54762
      vertex -16 5.5 0
    endloop
  endfacet
  facet normal -0.242536 -0.970143 0
    outer loop
      vertex -16 5.5 0
      vertex -12 4.5 23.25
      vertex -16 5.5 23.25
    endloop
  endfacet
  facet normal -0.242536 -0.970143 -0
    outer loop
      vertex -12 4.5 23.25
      vertex -16 5.5 0
      vertex -12 4.5 0
    endloop
  endfacet
  facet normal 0.242536 -0.970143 0
    outer loop
      vertex 12 4.5 0
      vertex 16 5.5 23.25
      vertex 12 4.5 23.25
    endloop
  endfacet
  facet normal 0.242536 -0.970143 0
    outer loop
      vertex 16 5.5 23.25
      vertex 12 4.5 0
      vertex 16 5.5 0
    endloop
  endfacet
  facet normal 1 0 0
    outer loop
      vertex 16 48 23.25
      vertex 16 38.2 14
      vertex 16 48 14
    endloop
  endfacet
  facet normal 1 0 0
    outer loop
      vertex 16 48 23.25
      vertex 16 31.48 12.8
      vertex 16 38.2 14
    endloop
  endfacet
  facet normal 1 -0 0
    outer loop
      vertex 16 5.5 23.25
      vertex 16 31.48 12.8
      vertex 16 48 23.25
    endloop
  endfacet
  facet normal 1 0 0
    outer loop
      vertex 16 31.48 12.8
      vertex 16 5.5 23.25
      vertex 16 7.66667 8.54762
    endloop
  endfacet
  facet normal 1 0 0
    outer loop
      vertex 16 5.5 0
      vertex 16 7.66667 8.54762
      vertex 16 5.5 23.25
    endloop
  endfacet
  facet normal 1 0 0
    outer loop
      vertex 16 7.66667 8.54762
      vertex 16 5.5 0
      vertex 16 7.66667 0
    endloop
  endfacet
endsolid OpenSCAD_Model
