solid OpenSCAD_Model
  facet normal 0 -1 0
    outer loop
      vertex 45 -27 0
      vertex 123 -27 23.25
      vertex 45 -27 23.25
    endloop
  endfacet
  facet normal 0 -1 -0
    outer loop
      vertex 123 -27 23.25
      vertex 45 -27 0
      vertex 123 -27 0
    endloop
  endfacet
  facet normal 0 0 1
    outer loop
      vertex 47 -20 23.25
      vertex 45 -20 23.25
      vertex 47 -23 23.25
    endloop
  endfacet
  facet normal 0 0 1
    outer loop
      vertex 125 25 23.25
      vertex 122.902 23.618 23.25
      vertex 123 23 23.25
    endloop
  endfacet
  facet normal 0 0 1
    outer loop
      vertex 123.618 26.9021 23.25
      vertex 122.618 24.1756 23.25
      vertex 122.902 23.618 23.25
    endloop
  endfacet
  facet normal 0 0 1
    outer loop
      vertex 123.618 26.9021 23.25
      vertex 122.176 24.618 23.25
      vertex 122.618 24.1756 23.25
    endloop
  endfacet
  facet normal 0 0 1
    outer loop
      vertex 123 27 23.25
      vertex 121.618 24.9021 23.25
      vertex 122.176 24.618 23.25
    endloop
  endfacet
  facet normal 0 0 1
    outer loop
      vertex 123 27 23.25
      vertex 121 25 23.25
      vertex 121.618 24.9021 23.25
    endloop
  endfacet
  facet normal 0 0 1
    outer loop
      vertex 123 27 23.25
      vertex 49 25 23.25
      vertex 121 25 23.25
    endloop
  endfacet
  facet normal -0 0 1
    outer loop
      vertex 45 27 23.25
      vertex 49 25 23.25
      vertex 123 27 23.25
    endloop
  endfacet
  facet normal 0 0 1
    outer loop
      vertex 45 27 23.25
      vertex 48.382 24.9021 23.25
      vertex 49 25 23.25
    endloop
  endfacet
  facet normal 0 0 1
    outer loop
      vertex 45 27 23.25
      vertex 47.8244 24.618 23.25
      vertex 48.382 24.9021 23.25
    endloop
  endfacet
  facet normal 0 0 1
    outer loop
      vertex 45 27 23.25
      vertex 47.382 24.1756 23.25
      vertex 47.8244 24.618 23.25
    endloop
  endfacet
  facet normal 0 0 1
    outer loop
      vertex 45 27 23.25
      vertex 47.0979 23.618 23.25
      vertex 47.382 24.1756 23.25
    endloop
  endfacet
  facet normal 0 0 1
    outer loop
      vertex 45 27 23.25
      vertex 47 23 23.25
      vertex 47.0979 23.618 23.25
    endloop
  endfacet
  facet normal 0 0 1
    outer loop
      vertex 45 20 23.25
      vertex 47 23 23.25
      vertex 45 27 23.25
    endloop
  endfacet
  facet normal 0 0 1
    outer loop
      vertex 47 23 23.25
      vertex 45 20 23.25
      vertex 47 20 23.25
    endloop
  endfacet
  facet normal 0 0 1
    outer loop
      vertex 122.902 23.618 23.25
      vertex 125 25 23.25
      vertex 124.902 25.618 23.25
    endloop
  endfacet
  facet normal 0 0 1
    outer loop
      vertex 125 25 23.25
      vertex 123 23 23.25
      vertex 125 -25 23.25
    endloop
  endfacet
  facet normal 0 0 1
    outer loop
      vertex 122.902 23.618 23.25
      vertex 124.902 25.618 23.25
      vertex 124.618 26.1756 23.25
    endloop
  endfacet
  facet normal -0 0 1
    outer loop
      vertex 123 -23 23.25
      vertex 125 -25 23.25
      vertex 123 23 23.25
    endloop
  endfacet
  facet normal 0 0 1
    outer loop
      vertex 122.902 23.618 23.25
      vertex 124.618 26.1756 23.25
      vertex 124.176 26.618 23.25
    endloop
  endfacet
  facet normal -0 0 1
    outer loop
      vertex 122.902 -23.618 23.25
      vertex 125 -25 23.25
      vertex 123 -23 23.25
    endloop
  endfacet
  facet normal 0 0 1
    outer loop
      vertex 122.902 23.618 23.25
      vertex 124.176 26.618 23.25
      vertex 123.618 26.9021 23.25
    endloop
  endfacet
  facet normal -0 0 1
    outer loop
      vertex 122.618 -24.1756 23.25
      vertex 125 -25 23.25
      vertex 122.902 -23.618 23.25
    endloop
  endfacet
  facet normal 0 0 1
    outer loop
      vertex 122.176 24.618 23.25
      vertex 123.618 26.9021 23.25
      vertex 123 27 23.25
    endloop
  endfacet
  facet normal 0 0 1
    outer loop
      vertex 125 -25 23.25
      vertex 122.618 -24.1756 23.25
      vertex 124.902 -25.618 23.25
    endloop
  endfacet
  facet normal 0 0 1
    outer loop
      vertex 124.902 -25.618 23.25
      vertex 122.618 -24.1756 23.25
      vertex 124.618 -26.1756 23.25
    endloop
  endfacet
  facet normal 0 0 1
    outer loop
      vertex 124.618 -26.1756 23.25
      vertex 122.618 -24.1756 23.25
      vertex 124.176 -26.618 23.25
    endloop
  endfacet
  facet normal -0 0 1
    outer loop
      vertex 122.176 -24.618 23.25
      vertex 124.176 -26.618 23.25
      vertex 122.618 -24.1756 23.25
    endloop
  endfacet
  facet normal 0 0 1
    outer loop
      vertex 124.176 -26.618 23.25
      vertex 122.176 -24.618 23.25
      vertex 123.618 -26.9021 23.25
    endloop
  endfacet
  facet normal 0 0 1
    outer loop
      vertex 123.618 -26.9021 23.25
      vertex 122.176 -24.618 23.25
      vertex 123 -27 23.25
    endloop
  endfacet
  facet normal -0 0 1
    outer loop
      vertex 121.618 -24.9021 23.25
      vertex 123 -27 23.25
      vertex 122.176 -24.618 23.25
    endloop
  endfacet
  facet normal -0 0 1
    outer loop
      vertex 121 -25 23.25
      vertex 123 -27 23.25
      vertex 121.618 -24.9021 23.25
    endloop
  endfacet
  facet normal -0 0 1
    outer loop
      vertex 49 -25 23.25
      vertex 123 -27 23.25
      vertex 121 -25 23.25
    endloop
  endfacet
  facet normal 0 0 1
    outer loop
      vertex 45 -27 23.25
      vertex 47 -23 23.25
      vertex 45 -20 23.25
    endloop
  endfacet
  facet normal 0 0 1
    outer loop
      vertex 47 -23 23.25
      vertex 45 -27 23.25
      vertex 47.0979 -23.618 23.25
    endloop
  endfacet
  facet normal 0 0 1
    outer loop
      vertex 49 -25 23.25
      vertex 45 -27 23.25
      vertex 123 -27 23.25
    endloop
  endfacet
  facet normal 0 0 1
    outer loop
      vertex 48.382 -24.9021 23.25
      vertex 45 -27 23.25
      vertex 49 -25 23.25
    endloop
  endfacet
  facet normal 0 0 1
    outer loop
      vertex 47.8244 -24.618 23.25
      vertex 45 -27 23.25
      vertex 48.382 -24.9021 23.25
    endloop
  endfacet
  facet normal 0 0 1
    outer loop
      vertex 47.382 -24.1756 23.25
      vertex 45 -27 23.25
      vertex 47.8244 -24.618 23.25
    endloop
  endfacet
  facet normal 0 0 1
    outer loop
      vertex 47.0979 -23.618 23.25
      vertex 45 -27 23.25
      vertex 47.382 -24.1756 23.25
    endloop
  endfacet
  facet normal 0.156434 -0.987688 0
    outer loop
      vertex 123 -27 0
      vertex 123.618 -26.9021 23.25
      vertex 123 -27 23.25
    endloop
  endfacet
  facet normal 0.156434 -0.987688 0
    outer loop
      vertex 123.618 -26.9021 23.25
      vertex 123 -27 0
      vertex 123.618 -26.9021 0
    endloop
  endfacet
  facet normal 1 -0 0
    outer loop
      vertex 125 -25 23.25
      vertex 125 25 0
      vertex 125 25 23.25
    endloop
  endfacet
  facet normal 1 0 0
    outer loop
      vertex 125 25 0
      vertex 125 -25 23.25
      vertex 125 -25 0
    endloop
  endfacet
  facet normal 0 0 -1
    outer loop
      vertex 123 -27 0
      vertex 125 -25 0
      vertex 124.902 -25.618 0
    endloop
  endfacet
  facet normal -0 0 -1
    outer loop
      vertex 125 -25 0
      vertex 123 -27 0
      vertex 125 25 0
    endloop
  endfacet
  facet normal 0 0 -1
    outer loop
      vertex 123 -27 0
      vertex 124.902 -25.618 0
      vertex 124.618 -26.1756 0
    endloop
  endfacet
  facet normal 0 0 -1
    outer loop
      vertex 123 27 0
      vertex 125 25 0
      vertex 123 -27 0
    endloop
  endfacet
  facet normal 0 0 -1
    outer loop
      vertex 123 -27 0
      vertex 124.618 -26.1756 0
      vertex 124.176 -26.618 0
    endloop
  endfacet
  facet normal 0 0 -1
    outer loop
      vertex 125 25 0
      vertex 123 27 0
      vertex 124.902 25.618 0
    endloop
  endfacet
  facet normal 0 0 -1
    outer loop
      vertex 123 -27 0
      vertex 124.176 -26.618 0
      vertex 123.618 -26.9021 0
    endloop
  endfacet
  facet normal 0 0 -1
    outer loop
      vertex 124.902 25.618 0
      vertex 123 27 0
      vertex 124.618 26.1756 0
    endloop
  endfacet
  facet normal 0 0 -1
    outer loop
      vertex 124.618 26.1756 0
      vertex 123 27 0
      vertex 124.176 26.618 0
    endloop
  endfacet
  facet normal 0 0 -1
    outer loop
      vertex 124.176 26.618 0
      vertex 123 27 0
      vertex 123.618 26.9021 0
    endloop
  endfacet
  facet normal 0 0 -1
    outer loop
      vertex 45 -27 0
      vertex 123 27 0
      vertex 123 -27 0
    endloop
  endfacet
  facet normal -0 0 -1
    outer loop
      vertex 123 27 0
      vertex 45 -27 0
      vertex 45 27 0
    endloop
  endfacet
  facet normal 0.156434 0.987688 -0
    outer loop
      vertex 123.618 26.9021 0
      vertex 123 27 23.25
      vertex 123.618 26.9021 23.25
    endloop
  endfacet
  facet normal 0.156434 0.987688 0
    outer loop
      vertex 123 27 23.25
      vertex 123.618 26.9021 0
      vertex 123 27 0
    endloop
  endfacet
  facet normal 0 1 -0
    outer loop
      vertex 123 27 0
      vertex 45 27 23.25
      vertex 123 27 23.25
    endloop
  endfacet
  facet normal 0 1 0
    outer loop
      vertex 45 27 23.25
      vertex 123 27 0
      vertex 45 27 0
    endloop
  endfacet
  facet normal 0.891006 0.453992 0
    outer loop
      vertex 124.902 25.618 23.25
      vertex 124.618 26.1756 0
      vertex 124.618 26.1756 23.25
    endloop
  endfacet
  facet normal 0.891006 0.453992 0
    outer loop
      vertex 124.618 26.1756 0
      vertex 124.902 25.618 23.25
      vertex 124.902 25.618 0
    endloop
  endfacet
  facet normal 0.987689 0.156432 0
    outer loop
      vertex 125 25 23.25
      vertex 124.902 25.618 0
      vertex 124.902 25.618 23.25
    endloop
  endfacet
  facet normal 0.987689 0.156432 0
    outer loop
      vertex 124.902 25.618 0
      vertex 125 25 23.25
      vertex 125 25 0
    endloop
  endfacet
  facet normal 0.453992 0.891006 -0
    outer loop
      vertex 124.176 26.618 0
      vertex 123.618 26.9021 23.25
      vertex 124.176 26.618 23.25
    endloop
  endfacet
  facet normal 0.453992 0.891006 0
    outer loop
      vertex 123.618 26.9021 23.25
      vertex 124.176 26.618 0
      vertex 123.618 26.9021 0
    endloop
  endfacet
  facet normal 0.707104 0.70711 -0
    outer loop
      vertex 124.618 26.1756 0
      vertex 124.176 26.618 23.25
      vertex 124.618 26.1756 23.25
    endloop
  endfacet
  facet normal 0.707104 0.70711 0
    outer loop
      vertex 124.176 26.618 23.25
      vertex 124.618 26.1756 0
      vertex 124.176 26.618 0
    endloop
  endfacet
  facet normal 0.987689 -0.156432 0
    outer loop
      vertex 124.902 -25.618 23.25
      vertex 125 -25 0
      vertex 125 -25 23.25
    endloop
  endfacet
  facet normal 0.987689 -0.156432 0
    outer loop
      vertex 125 -25 0
      vertex 124.902 -25.618 23.25
      vertex 124.902 -25.618 0
    endloop
  endfacet
  facet normal 0.891006 -0.453992 0
    outer loop
      vertex 124.618 -26.1756 23.25
      vertex 124.902 -25.618 0
      vertex 124.902 -25.618 23.25
    endloop
  endfacet
  facet normal 0.891006 -0.453992 0
    outer loop
      vertex 124.902 -25.618 0
      vertex 124.618 -26.1756 23.25
      vertex 124.618 -26.1756 0
    endloop
  endfacet
  facet normal 0.453992 -0.891006 0
    outer loop
      vertex 123.618 -26.9021 0
      vertex 124.176 -26.618 23.25
      vertex 123.618 -26.9021 23.25
    endloop
  endfacet
  facet normal 0.453992 -0.891006 0
    outer loop
      vertex 124.176 -26.618 23.25
      vertex 123.618 -26.9021 0
      vertex 124.176 -26.618 0
    endloop
  endfacet
  facet normal 0.707104 -0.70711 0
    outer loop
      vertex 124.176 -26.618 0
      vertex 124.618 -26.1756 23.25
      vertex 124.176 -26.618 23.25
    endloop
  endfacet
  facet normal 0.707104 -0.70711 0
    outer loop
      vertex 124.618 -26.1756 23.25
      vertex 124.176 -26.618 0
      vertex 124.618 -26.1756 0
    endloop
  endfacet
  facet normal -0 0 1
    outer loop
      vertex 45 20 1.2
      vertex 47 -20 1.2
      vertex 47 20 1.2
    endloop
  endfacet
  facet normal 0 0 1
    outer loop
      vertex 47 -20 1.2
      vertex 45 20 1.2
      vertex 45 -20 1.2
    endloop
  endfacet
  facet normal 0 0 1
    outer loop
      vertex 121 25 1.2
      vertex 123 23 1.2
      vertex 122.902 23.618 1.2
    endloop
  endfacet
  facet normal 0 0 1
    outer loop
      vertex 123 23 1.2
      vertex 121 25 1.2
      vertex 123 -23 1.2
    endloop
  endfacet
  facet normal 0 0 1
    outer loop
      vertex 121 25 1.2
      vertex 122.902 23.618 1.2
      vertex 122.618 24.1756 1.2
    endloop
  endfacet
  facet normal 0 0 1
    outer loop
      vertex 121 -25 1.2
      vertex 123 -23 1.2
      vertex 121 25 1.2
    endloop
  endfacet
  facet normal 0 0 1
    outer loop
      vertex 121 25 1.2
      vertex 122.618 24.1756 1.2
      vertex 122.176 24.618 1.2
    endloop
  endfacet
  facet normal 0 0 1
    outer loop
      vertex 123 -23 1.2
      vertex 121 -25 1.2
      vertex 122.902 -23.618 1.2
    endloop
  endfacet
  facet normal 0 0 1
    outer loop
      vertex 121 25 1.2
      vertex 122.176 24.618 1.2
      vertex 121.618 24.9021 1.2
    endloop
  endfacet
  facet normal 0 0 1
    outer loop
      vertex 122.902 -23.618 1.2
      vertex 121 -25 1.2
      vertex 122.618 -24.1756 1.2
    endloop
  endfacet
  facet normal 0 0 1
    outer loop
      vertex 122.618 -24.1756 1.2
      vertex 121 -25 1.2
      vertex 122.176 -24.618 1.2
    endloop
  endfacet
  facet normal 0 0 1
    outer loop
      vertex 122.176 -24.618 1.2
      vertex 121 -25 1.2
      vertex 121.618 -24.9021 1.2
    endloop
  endfacet
  facet normal 0 0 1
    outer loop
      vertex 47 20 1.2
      vertex 121 25 1.2
      vertex 49 25 1.2
    endloop
  endfacet
  facet normal 0 0 1
    outer loop
      vertex 121 25 1.2
      vertex 47 20 1.2
      vertex 121 -25 1.2
    endloop
  endfacet
  facet normal 0 0 1
    outer loop
      vertex 47 23 1.2
      vertex 49 25 1.2
      vertex 48.382 24.9021 1.2
    endloop
  endfacet
  facet normal -0 0 1
    outer loop
      vertex 47 -20 1.2
      vertex 121 -25 1.2
      vertex 47 20 1.2
    endloop
  endfacet
  facet normal 0 0 1
    outer loop
      vertex 47 23 1.2
      vertex 48.382 24.9021 1.2
      vertex 47.8244 24.618 1.2
    endloop
  endfacet
  facet normal 0 0 1
    outer loop
      vertex 121 -25 1.2
      vertex 47 -20 1.2
      vertex 49 -25 1.2
    endloop
  endfacet
  facet normal 0 0 1
    outer loop
      vertex 47 23 1.2
      vertex 47.8244 24.618 1.2
      vertex 47.382 24.1756 1.2
    endloop
  endfacet
  facet normal -0 0 1
    outer loop
      vertex 47 -23 1.2
      vertex 49 -25 1.2
      vertex 47 -20 1.2
    endloop
  endfacet
  facet normal 0 0 1
    outer loop
      vertex 47 23 1.2
      vertex 47.382 24.1756 1.2
      vertex 47.0979 23.618 1.2
    endloop
  endfacet
  facet normal 0 0 1
    outer loop
      vertex 49 -25 1.2
      vertex 47 -23 1.2
      vertex 48.382 -24.9021 1.2
    endloop
  endfacet
  facet normal 0 0 1
    outer loop
      vertex 49 25 1.2
      vertex 47 23 1.2
      vertex 47 20 1.2
    endloop
  endfacet
  facet normal 0 0 1
    outer loop
      vertex 48.382 -24.9021 1.2
      vertex 47 -23 1.2
      vertex 47.8244 -24.618 1.2
    endloop
  endfacet
  facet normal 0 0 1
    outer loop
      vertex 47.8244 -24.618 1.2
      vertex 47 -23 1.2
      vertex 47.382 -24.1756 1.2
    endloop
  endfacet
  facet normal 0 0 1
    outer loop
      vertex 47.382 -24.1756 1.2
      vertex 47 -23 1.2
      vertex 47.0979 -23.618 1.2
    endloop
  endfacet
  facet normal 0.891006 0.453992 0
    outer loop
      vertex 47.382 -24.1756 23.25
      vertex 47.0979 -23.618 1.2
      vertex 47.0979 -23.618 23.25
    endloop
  endfacet
  facet normal 0.891006 0.453992 0
    outer loop
      vertex 47.0979 -23.618 1.2
      vertex 47.382 -24.1756 23.25
      vertex 47.382 -24.1756 1.2
    endloop
  endfacet
  facet normal 1 -0 0
    outer loop
      vertex 47 -23 23.25
      vertex 47 -20 1.2
      vertex 47 -20 23.25
    endloop
  endfacet
  facet normal 1 0 0
    outer loop
      vertex 47 -20 1.2
      vertex 47 -23 23.25
      vertex 47 -23 1.2
    endloop
  endfacet
  facet normal 1 -0 0
    outer loop
      vertex 47 20 23.25
      vertex 47 23 1.2
      vertex 47 23 23.25
    endloop
  endfacet
  facet normal 1 0 0
    outer loop
      vertex 47 23 1.2
      vertex 47 20 23.25
      vertex 47 20 1.2
    endloop
  endfacet
  facet normal -0.987689 -0.156432 0
    outer loop
      vertex 123 23 1.2
      vertex 122.902 23.618 23.25
      vertex 122.902 23.618 1.2
    endloop
  endfacet
  facet normal -0.987689 -0.156432 0
    outer loop
      vertex 122.902 23.618 23.25
      vertex 123 23 1.2
      vertex 123 23 23.25
    endloop
  endfacet
  facet normal 0.987689 0.156432 0
    outer loop
      vertex 47.0979 -23.618 23.25
      vertex 47 -23 1.2
      vertex 47 -23 23.25
    endloop
  endfacet
  facet normal 0.987689 0.156432 0
    outer loop
      vertex 47 -23 1.2
      vertex 47.0979 -23.618 23.25
      vertex 47.0979 -23.618 1.2
    endloop
  endfacet
  facet normal 0.45399 -0.891007 0
    outer loop
      vertex 47.8244 24.618 1.2
      vertex 48.382 24.9021 23.25
      vertex 47.8244 24.618 23.25
    endloop
  endfacet
  facet normal 0.45399 -0.891007 0
    outer loop
      vertex 48.382 24.9021 23.25
      vertex 47.8244 24.618 1.2
      vertex 48.382 24.9021 1.2
    endloop
  endfacet
  facet normal -0.156434 -0.987688 0
    outer loop
      vertex 121 25 1.2
      vertex 121.618 24.9021 23.25
      vertex 121 25 23.25
    endloop
  endfacet
  facet normal -0.156434 -0.987688 -0
    outer loop
      vertex 121.618 24.9021 23.25
      vertex 121 25 1.2
      vertex 121.618 24.9021 1.2
    endloop
  endfacet
  facet normal 0 -1 0
    outer loop
      vertex 49 25 1.2
      vertex 121 25 23.25
      vertex 49 25 23.25
    endloop
  endfacet
  facet normal 0 -1 -0
    outer loop
      vertex 121 25 23.25
      vertex 49 25 1.2
      vertex 121 25 1.2
    endloop
  endfacet
  facet normal 0.987689 -0.156432 0
    outer loop
      vertex 47 23 23.25
      vertex 47.0979 23.618 1.2
      vertex 47.0979 23.618 23.25
    endloop
  endfacet
  facet normal 0.987689 -0.156432 0
    outer loop
      vertex 47.0979 23.618 1.2
      vertex 47 23 23.25
      vertex 47 23 1.2
    endloop
  endfacet
  facet normal -1 0 0
    outer loop
      vertex 123 -23 1.2
      vertex 123 23 23.25
      vertex 123 23 1.2
    endloop
  endfacet
  facet normal -1 -0 0
    outer loop
      vertex 123 23 23.25
      vertex 123 -23 1.2
      vertex 123 -23 23.25
    endloop
  endfacet
  facet normal 0 1 -0
    outer loop
      vertex 121 -25 1.2
      vertex 49 -25 23.25
      vertex 121 -25 23.25
    endloop
  endfacet
  facet normal 0 1 0
    outer loop
      vertex 49 -25 23.25
      vertex 121 -25 1.2
      vertex 49 -25 1.2
    endloop
  endfacet
  facet normal -0.707104 -0.70711 0
    outer loop
      vertex 122.176 24.618 1.2
      vertex 122.618 24.1756 23.25
      vertex 122.176 24.618 23.25
    endloop
  endfacet
  facet normal -0.707104 -0.70711 -0
    outer loop
      vertex 122.618 24.1756 23.25
      vertex 122.176 24.618 1.2
      vertex 122.618 24.1756 1.2
    endloop
  endfacet
  facet normal -0.891006 -0.453992 0
    outer loop
      vertex 122.902 23.618 1.2
      vertex 122.618 24.1756 23.25
      vertex 122.618 24.1756 1.2
    endloop
  endfacet
  facet normal -0.891006 -0.453992 0
    outer loop
      vertex 122.618 24.1756 23.25
      vertex 122.902 23.618 1.2
      vertex 122.902 23.618 23.25
    endloop
  endfacet
  facet normal -0.453992 -0.891006 0
    outer loop
      vertex 121.618 24.9021 1.2
      vertex 122.176 24.618 23.25
      vertex 121.618 24.9021 23.25
    endloop
  endfacet
  facet normal -0.453992 -0.891006 -0
    outer loop
      vertex 122.176 24.618 23.25
      vertex 121.618 24.9021 1.2
      vertex 122.176 24.618 1.2
    endloop
  endfacet
  facet normal 0.156434 -0.987688 0
    outer loop
      vertex 48.382 24.9021 1.2
      vertex 49 25 23.25
      vertex 48.382 24.9021 23.25
    endloop
  endfacet
  facet normal 0.156434 -0.987688 0
    outer loop
      vertex 49 25 23.25
      vertex 48.382 24.9021 1.2
      vertex 49 25 1.2
    endloop
  endfacet
  facet normal 0.891006 -0.453992 0
    outer loop
      vertex 47.0979 23.618 23.25
      vertex 47.382 24.1756 1.2
      vertex 47.382 24.1756 23.25
    endloop
  endfacet
  facet normal 0.891006 -0.453992 0
    outer loop
      vertex 47.382 24.1756 1.2
      vertex 47.0979 23.618 23.25
      vertex 47.0979 23.618 1.2
    endloop
  endfacet
  facet normal 0.707107 -0.707107 0
    outer loop
      vertex 47.382 24.1756 23.25
      vertex 47.8244 24.618 1.2
      vertex 47.8244 24.618 23.25
    endloop
  endfacet
  facet normal 0.707107 -0.707107 0
    outer loop
      vertex 47.8244 24.618 1.2
      vertex 47.382 24.1756 23.25
      vertex 47.382 24.1756 1.2
    endloop
  endfacet
  facet normal -0.707104 0.70711 0
    outer loop
      vertex 122.618 -24.1756 1.2
      vertex 122.176 -24.618 23.25
      vertex 122.618 -24.1756 23.25
    endloop
  endfacet
  facet normal -0.707104 0.70711 0
    outer loop
      vertex 122.176 -24.618 23.25
      vertex 122.618 -24.1756 1.2
      vertex 122.176 -24.618 1.2
    endloop
  endfacet
  facet normal -0.987689 0.156432 0
    outer loop
      vertex 122.902 -23.618 1.2
      vertex 123 -23 23.25
      vertex 123 -23 1.2
    endloop
  endfacet
  facet normal -0.987689 0.156432 0
    outer loop
      vertex 123 -23 23.25
      vertex 122.902 -23.618 1.2
      vertex 122.902 -23.618 23.25
    endloop
  endfacet
  facet normal -0.156434 0.987688 0
    outer loop
      vertex 121.618 -24.9021 1.2
      vertex 121 -25 23.25
      vertex 121.618 -24.9021 23.25
    endloop
  endfacet
  facet normal -0.156434 0.987688 0
    outer loop
      vertex 121 -25 23.25
      vertex 121.618 -24.9021 1.2
      vertex 121 -25 1.2
    endloop
  endfacet
  facet normal 0.156434 0.987688 -0
    outer loop
      vertex 49 -25 1.2
      vertex 48.382 -24.9021 23.25
      vertex 49 -25 23.25
    endloop
  endfacet
  facet normal 0.156434 0.987688 0
    outer loop
      vertex 48.382 -24.9021 23.25
      vertex 49 -25 1.2
      vertex 48.382 -24.9021 1.2
    endloop
  endfacet
  facet normal 0.707107 0.707107 0
    outer loop
      vertex 47.8244 -24.618 23.25
      vertex 47.382 -24.1756 1.2
      vertex 47.382 -24.1756 23.25
    endloop
  endfacet
  facet normal 0.707107 0.707107 0
    outer loop
      vertex 47.382 -24.1756 1.2
      vertex 47.8244 -24.618 23.25
      vertex 47.8244 -24.618 1.2
    endloop
  endfacet
  facet normal -0.891006 0.453992 0
    outer loop
      vertex 122.618 -24.1756 1.2
      vertex 122.902 -23.618 23.25
      vertex 122.902 -23.618 1.2
    endloop
  endfacet
  facet normal -0.891006 0.453992 0
    outer loop
      vertex 122.902 -23.618 23.25
      vertex 122.618 -24.1756 1.2
      vertex 122.618 -24.1756 23.25
    endloop
  endfacet
  facet normal -0.453992 0.891006 0
    outer loop
      vertex 122.176 -24.618 1.2
      vertex 121.618 -24.9021 23.25
      vertex 122.176 -24.618 23.25
    endloop
  endfacet
  facet normal -0.453992 0.891006 0
    outer loop
      vertex 121.618 -24.9021 23.25
      vertex 122.176 -24.618 1.2
      vertex 121.618 -24.9021 1.2
    endloop
  endfacet
  facet normal 0.45399 0.891007 -0
    outer loop
      vertex 48.382 -24.9021 1.2
      vertex 47.8244 -24.618 23.25
      vertex 48.382 -24.9021 23.25
    endloop
  endfacet
  facet normal 0.45399 0.891007 0
    outer loop
      vertex 47.8244 -24.618 23.25
      vertex 48.382 -24.9021 1.2
      vertex 47.8244 -24.618 1.2
    endloop
  endfacet
  facet normal 0 1 -0
    outer loop
      vertex 47 -20 1.2
      vertex 45 -20 23.25
      vertex 47 -20 23.25
    endloop
  endfacet
  facet normal 0 1 0
    outer loop
      vertex 45 -20 23.25
      vertex 47 -20 1.2
      vertex 45 -20 1.2
    endloop
  endfacet
  facet normal 0 -1 0
    outer loop
      vertex 45 20 1.2
      vertex 47 20 23.25
      vertex 45 20 23.25
    endloop
  endfacet
  facet normal 0 -1 -0
    outer loop
      vertex 47 20 23.25
      vertex 45 20 1.2
      vertex 47 20 1.2
    endloop
  endfacet
  facet normal -1 0 0
    outer loop
      vertex 45 27 0
      vertex 45 20 1.2
      vertex 45 27 23.25
    endloop
  endfacet
  facet normal -1 0 0
    outer loop
      vertex 45 27 0
      vertex 45 -20 1.2
      vertex 45 20 1.2
    endloop
  endfacet
  facet normal -1 0 0
    outer loop
      vertex 45 -27 0
      vertex 45 -20 1.2
      vertex 45 27 0
    endloop
  endfacet
  facet normal -1 0 0
    outer loop
      vertex 45 -27 23.25
      vertex 45 -20 1.2
      vertex 45 -27 0
    endloop
  endfacet
  facet normal -1 0 0
    outer loop
      vertex 45 -20 1.2
      vertex 45 -27 23.25
      vertex 45 -20 23.25
    endloop
  endfacet
  facet normal -1 -0 0
    outer loop
      vertex 45 27 23.25
      vertex 45 20 1.2
      vertex 45 20 23.25
    endloop
  endfacet
endsolid OpenSCAD_Model
