<?xml version="1.0" encoding="UTF-8" standalone="no"?>
<svg
   xmlns:osb="http://www.openswatchbook.org/uri/2009/osb"
   xmlns:dc="http://purl.org/dc/elements/1.1/"
   xmlns:cc="http://creativecommons.org/ns#"
   xmlns:rdf="http://www.w3.org/1999/02/22-rdf-syntax-ns#"
   xmlns:svg="http://www.w3.org/2000/svg"
   xmlns="http://www.w3.org/2000/svg"
   xmlns:sodipodi="http://sodipodi.sourceforge.net/DTD/sodipodi-0.dtd"
   xmlns:inkscape="http://www.inkscape.org/namespaces/inkscape"
   version="1.1"
   id="svg2"
   viewBox="0 0 348.85928 491.50426"
   height="138.71342mm"
   width="98.455841mm"
   inkscape:version="0.91 r13725"
   sodipodi:docname="water-outlines-2.svg">
  <sodipodi:namedview
     pagecolor="#ffffff"
     bordercolor="#666666"
     borderopacity="1"
     objecttolerance="10"
     gridtolerance="10"
     guidetolerance="10"
     inkscape:pageopacity="0"
     inkscape:pageshadow="2"
     inkscape:window-width="2076"
     inkscape:window-height="942"
     id="namedview3343"
     showgrid="false"
     fit-margin-top="5"
     fit-margin-left="5"
     fit-margin-right="5"
     fit-margin-bottom="5"
     inkscape:zoom="1.21"
     inkscape:cx="246.38686"
     inkscape:cy="290.47299"
     inkscape:window-x="0"
     inkscape:window-y="0"
     inkscape:window-maximized="0"
     inkscape:current-layer="svg2" />
  <defs
     id="defs4">
    <linearGradient
       id="linearGradient4153"
       osb:paint="solid">
      <stop
         style="stop-color:#000000;stop-opacity:1;"
         offset="0"
         id="stop4155" />
    </linearGradient>
  </defs>
  <metadata
     id="metadata7">
    <rdf:RDF>
      <cc:Work
         rdf:about="">
        <dc:format>image/svg+xml</dc:format>
        <dc:type
           rdf:resource="http://purl.org/dc/dcmitype/StillImage" />
        <dc:title></dc:title>
      </cc:Work>
    </rdf:RDF>
  </metadata>
  <g
     id="layer1"
     transform="translate(-1269.9023,-1077.175)">
    <path
       id="path3399"
       d="m 1307.4257,1123.1543 c 0,-0.165 -0.1166,-0.3784 0,-0.4951 2.2346,-2.2346 -0.4377,2.791 2.9703,-1.9802 0.3955,-0.5536 0.1908,-1.3716 0.4951,-1.9802 0.074,-0.1476 0.3662,0.1031 0.495,0 0.729,-0.5831 1.3826,-1.263 1.9802,-1.9802 0.2363,-0.2834 0.2646,-0.7019 0.4951,-0.9901 0.7289,-0.9111 1.7751,-1.5417 2.4752,-2.4752 0.1284,-0.1711 0.9173,-1.9256 0.9901,-1.9802 0.4175,-0.3131 1.0777,-0.1691 1.4852,-0.4951 0.8766,-0.7013 0.9213,-1.6295 1.4851,-2.4752 0.4577,-0.6865 0.9018,-1.3968 1.4852,-1.9802 0.1167,-0.1167 0.3783,0.1167 0.495,0 0.2609,-0.2609 0.2342,-0.7292 0.4951,-0.9901 0.3032,-0.3033 1.2956,-0.4214 1.4851,-0.9901 0.1044,-0.3131 -0.2746,-0.807 0,-0.9901 0.4119,-0.2746 1.0733,0.2746 1.4852,0 0.2746,-0.1831 -0.1831,-0.7155 0,-0.9901 0.031,-1.3939 1.1161,-0.1261 1.4851,-0.495 0.2609,-0.261 0.2342,-0.7292 0.4951,-0.9901 0.4207,-0.4208 0.953,-0.7241 1.4851,-0.9901 0.1476,-0.074 0.3784,0.1166 0.4951,0 0.2609,-0.261 0.2341,-0.7292 0.495,-0.9901 0.1167,-0.1167 -0.1476,0.4212 0,0.495 0.2952,0.1476 0.6601,0 0.9901,0 0.165,0 -0.495,0.165 -0.495,0 0,-0.165 0.33,0 0.495,0 0.165,0 0.4951,-0.165 0.4951,0 0,0.165 -0.6601,0 -0.4951,0 l 2.4753,0 5.9406,0 c 0.4787,0 3.2523,-0.071 3.4653,0 0.1566,0.052 -0.052,0.3385 0,0.4951 0.1167,0.35 0.165,0.825 0.4951,0.9901 0.2087,0.1043 0.2863,-0.5995 0.495,-0.4951 0.33,0.165 0.145,0.8734 0.4951,0.9901 1.1056,0.3686 1.111,-2.1124 1.9802,0.4951 0.074,0.2213 -0.5995,0.2863 -0.4951,0.495 1.1953,2.3906 0.7314,-0.3769 1.4852,0 0.33,0.165 0.2903,0.6831 0.495,0.9901 0.1295,0.1942 0.3009,0.3656 0.4951,0.4951 0.307,0.2046 0.6321,0.4055 0.9901,0.495 0.3201,0.08 0.7567,-0.2334 0.9901,0 0.2333,0.2334 -0.1044,0.677 0,0.9901 0.1895,0.5687 1.1818,0.6868 1.4851,0.9901 0.2609,0.2609 0.2341,0.7292 0.4951,0.9901 1.0242,1.0243 -0.04,-1.5652 0.9901,0.4951 0.3414,0.6828 -0.5996,0.4428 0.495,0.99 0.1476,0.074 0.3784,-0.1166 0.4951,0 0.6029,0.603 0.2318,1.1061 0.99,1.4852 0.311,0.1555 1.6693,-0.1555 1.9802,0 0.6262,0.3131 0.9027,1.0968 1.4852,1.4851 0.1373,0.092 -0.1476,-0.5688 0,-0.495 0.7216,0.3608 0.9912,1.4851 1.9802,1.4851 0.5218,0 0.9704,-0.5808 1.4851,-0.495 0.5869,0.098 0.953,0.724 1.4852,0.9901 0.1476,0.074 0.3385,-0.052 0.495,0 0.3501,0.1167 0.6401,0.3784 0.9901,0.495 0.6601,0.1651 1.3202,0.3301 1.9802,0.4951 0.3301,-0.165 0.6262,-0.5557 0.9901,-0.4951 0.728,0.1214 1.2643,0.8112 1.9802,0.9901 0.1601,0.04 -0.1476,-0.4212 0,-0.495 0.2952,-0.1476 0.67,-0.08 0.9901,0 0.358,0.089 0.6283,0.4227 0.9901,0.495 0.014,0 2.2972,-0.089 2.4753,0 0.2087,0.1044 0.2617,0.4951 0.495,0.4951 0.2334,0 0.2737,-0.4213 0.4951,-0.4951 0.3131,-0.1043 0.66,0 0.9901,0 0.33,0 0.677,-0.1043 0.9901,0 0.4428,0.1476 0.5233,0.9901 0.9901,0.9901 0.5218,0 1.1161,-0.864 1.4851,-0.495 0.2609,0.2609 0.165,0.8251 0.4951,0.9901 0.44,-0.4401 0.6695,-0.9029 1.4851,-0.4951 0.1476,0.074 0,0.3301 0,0.4951 0.3301,0.165 0.6211,0.495 0.9901,0.495 0.2334,0 -0.2617,-0.495 -0.495,-0.495 -0.165,0 -0.1476,0.4212 0,0.495 0.2952,0.1476 0.66,0 0.9901,0 0.165,0 -0.3784,-0.1166 -0.4951,0 -0.1167,0.1167 -0.165,0.4951 0,0.4951 2.322,0 -1.7585,-1.7586 0.4951,0.495 0.2333,0.2334 0.677,-0.1043 0.9901,0 0.2214,0.074 0.33,0.3301 0.495,0.4951 0.165,0.165 0.3656,0.3009 0.4951,0.495 0.2046,0.3071 0.3783,0.6401 0.495,0.9901 0.3048,0.9145 -0.7554,0.2347 0.4951,1.4852 0.1167,0.1167 0.33,0 0.495,0 0.3301,0.33 0.7814,0.5726 0.9901,0.9901 0.1476,0.2952 -0.1831,0.7155 0,0.9901 0.2047,0.307 0.8251,0.165 0.9901,0.495 0.1044,0.2088 -0.495,0.2617 -0.495,0.4951 0,0.165 0.4212,-0.1476 0.495,0 0.1476,0.2952 -0.1043,0.677 0,0.9901 0.074,0.2214 0.3907,0.2863 0.4951,0.495 0.198,0.3961 -0.1981,1.0891 0,1.4852 0.074,0.1476 0.3783,-0.1167 0.495,0 0.1167,0.1167 0,0.33 0,0.495 0,0.3301 -0.1831,0.7155 0,0.9901 0.2047,0.307 0.8251,0.165 0.9901,0.4951 0.1044,0.2087 -0.4212,0.2736 -0.495,0.495 -0.1044,0.3131 -0.1476,0.6949 0,0.9901 0.074,0.1476 0.33,0 0.495,0 0.165,0.3301 0.4951,0.6211 0.4951,0.9901 0,0.2334 -0.3301,-0.66 -0.4951,-0.495 -0.7512,0.7512 0.2978,1.0906 0.4951,1.4851 0.1476,0.2952 -0.3301,0.9901 0,0.9901 0.369,0 0.7291,-0.7559 0.9901,-0.495 0.2609,0.2609 -0.4951,0.6211 -0.4951,0.9901 0,0.2333 0.33,-0.6601 0.4951,-0.4951 0,2.7687 -0.2334,0.1309 0.495,0.4951 0.33,0.165 0.2341,0.7292 0.4951,0.9901 0.1166,0.1167 0,-0.6601 0,-0.4951 0,0.3301 -0.2952,0.8425 0,0.9901 0.33,0.165 0.7291,-0.7559 0.9901,-0.495 0.2609,0.2609 -0.756,0.7292 -0.4951,0.9901 0.2609,0.2609 0.6211,-0.4951 0.9901,-0.4951 0.2334,0 -0.3907,0.2863 -0.495,0.4951 -0.074,0.1476 -0.1651,0.495 0,0.495 0.3689,0 0.6211,-0.495 0.9901,-0.495 0.2333,0 -0.3907,0.2863 -0.4951,0.495 -0.074,0.1476 -0.165,0.4951 0,0.4951 0.2334,0 0.33,-0.6601 0.4951,-0.4951 0.2333,0.2334 0,0.6601 0,0.9901 0,0.165 -0.1651,0.4951 0,0.4951 0.3689,0 0.66,-0.6601 0.9901,-0.4951 0.2951,0.1476 0,0.6601 0,0.9901 l 0,-0.495 c 0,0.33 -0.2952,0.8425 0,0.9901 2.2282,1.1141 0.8713,-1.2477 0.495,-0.4951 -0.1476,0.2952 0,0.6601 0,0.9901 0,0.165 -0.1476,-0.4212 0,-0.495 0.2952,-0.1476 0.6601,0 0.9901,0 0.165,0 -0.4212,-0.1476 -0.495,0 -0.1476,0.2952 0,0.66 0,0.9901 l 0,-0.4951 c 0,0.3301 -0.1831,0.7155 0,0.9901 0.2046,0.307 0.7291,0.2342 0.9901,0.4951 0.1166,0.1167 -0.6118,-0.1167 -0.4951,0 0.2609,0.2609 0.8251,0.165 0.9901,0.495 0.1044,0.2087 -0.5688,0.2737 -0.495,0.4951 0.1476,0.4428 0.8425,0.5473 0.9901,0.9901 0.074,0.2214 -0.3301,0.66 -0.4951,0.495 -0.165,-0.165 0.33,-0.6601 0.4951,-0.495 0.2333,0.2333 0,0.66 0,0.9901 0,0.165 -0.1651,-0.4951 0,-0.4951 0.165,0 0,0.33 0,0.4951 0,0.165 0.165,0.495 0,0.495 -0.1651,0 0,-0.6601 0,-0.495 l 0,2.4752 0,-0.495 c 0,0.33 0.1476,0.6949 0,0.9901 -0.2088,0.4174 -0.6601,0.66 -0.9901,0.9901 -0.1651,0.165 -0.3009,0.3656 -0.4951,0.495 -0.307,0.2047 -0.7292,0.2341 -0.9901,0.4951 -0.2334,0.2333 0.2334,0.7567 0,0.9901 -0.603,0.6029 -1.106,0.2319 -1.4851,0.9901 -0.074,0.1476 0.1166,0.3783 0,0.495 -0.1167,0.1167 -0.3475,-0.074 -0.4951,0 -0.2087,0.1044 -0.3009,0.3656 -0.495,0.4951 -0.3071,0.2046 -0.6949,0.2736 -0.9901,0.495 -0.3734,0.28 -0.6601,0.6601 -0.9901,0.9901 -0.1651,0.165 -0.2864,0.3907 -0.4951,0.4951 -0.1476,0.074 -0.3577,-0.092 -0.495,0 -0.3884,0.2589 -0.6601,0.66 -0.9901,0.9901 -0.1651,0.165 -0.2864,0.3906 -0.4951,0.495 -0.1476,0.074 -0.495,0.165 -0.495,0 0,-0.165 0.495,-0.165 0.495,0 0,0.2334 -0.2863,0.3907 -0.495,0.4951 -0.1476,0.074 -0.3784,-0.1167 -0.4951,0 -0.1167,0.1166 0.074,0.3474 0,0.495 -1.0301,2.0603 -0.1992,-0.2959 -0.495,0 -0.2609,0.2609 -0.2904,0.6831 -0.4951,0.9901 -0.7552,1.1328 -0.3918,-0.3095 -0.9901,1.4851 -0.052,0.1566 0.074,0.3475 0,0.4951 -0.1043,0.2087 -0.3907,0.2863 -0.495,0.495 -0.074,0.1476 0,0.3301 0,0.4951 l 0,1.4851 0,1.9802 0,9.406 0,-0.4951 0,0.9901 0,2.9703 0,0.4951 c 0,0.165 0.074,0.3474 0,0.495 -0.1044,0.2088 -0.3907,0.2863 -0.4951,0.4951 -0.074,0.1476 0,0.33 0,0.495 l 0,0.9901 c 0,0.165 0.165,-0.495 0,-0.495 -1.0301,0 -0.1992,0.6942 -0.495,0.9901 -0.2609,0.2609 -0.6949,0.2736 -0.9901,0.495 -0.3734,0.2801 -0.6257,0.6986 -0.9901,0.9901 -0.4646,0.3717 -1.0645,0.5694 -1.4852,0.9901 -0.2609,0.2609 -0.2903,0.6831 -0.495,0.9901 -0.1295,0.1942 -0.3301,0.3301 -0.4951,0.4951 -0.33,0.33 -0.6017,0.7312 -0.9901,0.9901 -0.2746,0.183 -0.7567,-0.2334 -0.9901,0 -0.2609,0.2609 -0.2341,0.7292 -0.495,0.9901 -0.1167,0.1167 -0.165,-0.4951 0,-0.4951 0.165,0 0.1167,0.3784 0,0.4951 -0.1167,0.1167 -0.3784,-0.1167 -0.4951,0 -0.077,0.077 0.064,1.2925 0,1.4851 -0.1167,0.3501 -0.2341,0.7292 -0.495,0.9901 -0.1167,0.1167 0,-0.66 0,-0.495 l 0,3.4653 0,-0.495 0,0.9901 c 0,0.165 0.1167,0.3783 0,0.495 -0.2609,0.2609 -0.7292,0.2342 -0.9901,0.4951 -0.2609,0.2609 -0.2342,0.7292 -0.4951,0.9901 -0.1167,0.1166 -0.3783,-0.1167 -0.495,0 -0.2609,0.2609 -0.2342,0.7291 -0.4951,0.9901 -0.66,0.66 -0.475,-1.0502 -0.9901,0.495 -7e-4,0 5e-4,1.4847 0,1.4852 -0.1167,0.1166 -0.33,0 -0.495,0 -0.165,0 -0.4951,0.165 -0.4951,0 0,-0.1651 0.6601,0 0.4951,0 l -3.9604,0 -1.4852,0 c -0.33,0 -0.677,-0.1044 -0.9901,0 -1.9279,0.6426 -0.046,0.495 -1.9802,0.495 -0.2062,0 -2.8333,-0.091 -2.9703,0 -0.3883,0.2589 -0.5473,0.8425 -0.9901,0.9901 -2.4151,0.8051 1.0136,-1.4969 -0.9901,-0.495 -0.2087,0.1043 -0.2863,0.3906 -0.495,0.495 -0.1476,0.074 -0.3475,-0.074 -0.4951,0 -0.2087,0.1044 -0.2863,0.3907 -0.495,0.4951 -0.1476,0.074 -0.3475,-0.074 -0.4951,0 -0.2087,0.1043 -0.2736,0.4212 -0.495,0.495 -0.3131,0.1044 -0.6949,-0.1476 -0.9901,0 -0.4175,0.2087 -0.5726,0.7814 -0.9901,0.9901 -0.4951,0.2475 1.1551,-2.6403 -0.9901,-0.495 -0.2334,0.2333 0.2334,0.7567 0,0.9901 -0.165,0.165 -0.2863,-0.3907 -0.495,-0.4951 -0.1476,-0.074 -0.3301,0 -0.4951,0 l -0.495,0 c -1.6273,0 1.2852,-0.1476 -0.9901,0.9901 -0.2088,0.1044 -0.2864,-0.3907 -0.4951,-0.495 -0.6096,-0.3049 -0.9901,0.534 -0.9901,0.9901 0,0.2333 0.7284,-0.4951 0.4951,-0.4951 -1.2853,0 -0.9901,0.7009 -0.9901,1.4852 0,0.165 0.1166,-0.3784 0,-0.4951 -0.016,-0.016 -1.3651,0 -1.4852,0 l -2.4752,0 c -0.3301,0 -0.6665,0.065 -0.9901,0 -4.1682,-0.8336 -0.015,-0.01 -1.9802,-0.9901 -0.2952,-0.1476 -0.677,0.1044 -0.9901,0 -1.7066,-0.5688 -0.3668,-0.495 -1.4852,-0.495 l -8.4158,0 0.495,0 -0.9901,0 c -0.165,0 -0.3474,0.074 -0.495,0 -0.2088,-0.1044 -0.2737,-0.4213 -0.4951,-0.4951 -0.4696,-0.1565 -1.0155,0.1566 -1.4851,0 -0.3501,-0.1167 -0.6322,-0.4055 -0.9901,-0.495 -0.3202,-0.08 -0.677,0.1043 -0.9901,0 -0.2214,-0.074 -0.2863,-0.3907 -0.4951,-0.4951 -0.1476,-0.074 -0.3474,0.074 -0.495,0 -0.2088,-0.1044 -0.2617,-0.495 -0.4951,-0.495 -0.2333,0 -0.2736,0.5688 -0.495,0.495 -0.4428,-0.1476 -0.5727,-0.7814 -0.9901,-0.9901 -0.1476,-0.074 0.1167,0.6117 0,0.4951 -0.2609,-0.261 -0.2342,-0.7292 -0.4951,-0.9901 -0.1167,-0.1167 -0.3783,0.1166 -0.495,0 -0.1167,-0.1167 0.1167,-0.3784 0,-0.4951 -0.2609,-0.2609 -0.6949,-0.2736 -0.9901,-0.495 -0.3734,-0.2801 -0.6018,-0.7312 -0.9901,-0.9901 -0.1373,-0.092 -0.3784,0.1166 -0.4951,0 -0.2609,-0.261 -0.2341,-0.7292 -0.495,-0.9901 -0.2609,-0.261 -0.7292,-0.2342 -0.9901,-0.4951 -1.0243,-1.0243 1.5652,0.04 -0.4951,-0.9901 -0.1476,-0.074 -0.3474,0.074 -0.495,0 -0.2087,-0.1044 -0.2863,-0.3907 -0.4951,-0.495 -0.1476,-0.074 -0.3783,0.1166 -0.495,0 -0.2334,-0.2334 0.2952,-0.8425 0,-0.9901 -0.2952,-0.1476 -0.7567,0.2333 -0.9901,0 -0.165,-0.1651 0.495,-0.2617 0.495,-0.4951 0,-1.0301 -0.6942,-0.1992 -0.9901,-0.495 -0.1166,-0.1167 0.074,-0.3475 0,-0.4951 -0.3958,-0.7917 -0.5942,-0.1983 -0.9901,-0.9901 -0.1555,-0.3111 0.1556,-1.669 0,-1.9802 -0.1043,-0.2087 -0.3906,-0.2863 -0.495,-0.495 -0.074,-0.1476 0,-0.3301 0,-0.4951 0,-0.4249 0.096,-2.6806 0,-2.9703 -0.074,-0.2214 -0.3907,-0.2863 -0.4951,-0.495 -0.074,-0.1476 0.052,-0.3385 0,-0.4951 -0.1166,-0.35 -0.3783,-0.64 -0.495,-0.9901 -0.1485,-0.4455 0.1485,-1.0396 0,-1.4851 -0.1167,-0.3501 -0.3784,-0.6401 -0.4951,-0.9901 -0.092,-0.2757 0.1273,-1.2943 0,-1.4852 -0.2589,-0.3883 -0.8425,-0.5473 -0.9901,-0.9901 -0.074,-0.2214 0.3301,-0.33 0.4951,-0.495 0,-0.3301 0.1476,-0.6949 0,-0.9901 -0.2087,-0.4175 -0.7814,-0.5727 -0.9901,-0.9901 -0.1476,-0.2952 0.08,-0.6699 0,-0.9901 -0.089,-0.358 -0.358,-0.6475 -0.4951,-0.9901 -0.1938,-0.4845 -0.2616,-1.0184 -0.495,-1.4852 -0.2661,-0.5321 -0.684,-0.9749 -0.9901,-1.4851 -0.9066,-1.511 -0.047,-0.929 -1.9802,-2.4753 -0.2881,-0.2305 -0.7854,-0.188 -0.9901,-0.495 -0.1831,-0.2746 0.2334,-0.7567 0,-0.9901 -0.5218,-0.5218 -1.5192,-0.4138 -1.9802,-0.9901 -0.3093,-0.3866 0.1839,-1.0255 0,-1.4852 -0.9568,-2.3919 -0.5764,-0.5357 -1.4851,-0.9901 -0.4388,-0.2193 -1.0345,-1.1847 -1.4852,-1.4851 -0.307,-0.2047 -0.6831,-0.2904 -0.9901,-0.4951 -0.4506,-0.3004 -1.0464,-1.2657 -1.4851,-1.4851 -0.1476,-0.074 -0.3784,0.1167 -0.4951,0 -0.1167,-0.1167 0.1476,-0.4213 0,-0.495 -0.2952,-0.1476 -0.6949,0.1475 -0.9901,0 -0.1476,-0.074 0.074,-0.3475 0,-0.4951 -0.1044,-0.2087 -0.2863,-0.3907 -0.495,-0.495 -0.1476,-0.074 -0.3475,0.074 -0.4951,0 -0.2087,-0.1044 -0.2863,-0.3907 -0.495,-0.4951 -0.1476,-0.074 -0.3475,0.074 -0.4951,0 -0.2087,-0.1044 -0.2736,-0.4213 -0.495,-0.495 -0.3131,-0.1044 -0.7568,0.2333 -0.9901,0 -0.1651,-0.1651 0.5994,-0.2864 0.495,-0.4951 -0.165,-0.33 -0.7292,-0.2341 -0.9901,-0.495 -0.1167,-0.1167 0.6117,0.1166 0.4951,0 -0.261,-0.261 -0.8251,-0.1651 -0.9901,-0.4951 -0.1044,-0.2087 0.5994,-0.2863 0.495,-0.495 -0.165,-0.3301 -0.7854,-0.1881 -0.9901,-0.4951 -0.1831,-0.2746 0.1476,-0.6949 0,-0.9901 -0.074,-0.1476 -0.3784,0.1167 -0.495,0 -0.1167,-0.1167 0.1166,-0.3784 0,-0.495 -0.261,-0.261 -0.8251,-0.1651 -0.9901,-0.4951 -0.1044,-0.2087 0.5994,-0.2863 0.495,-0.495 -0.165,-0.3301 -0.8734,-0.145 -0.9901,-0.4951 -0.1167,-0.35 0.6117,-0.64 0.4951,-0.9901 -0.1167,-0.35 -0.7687,-0.1999 -0.9901,-0.495 -0.3131,-0.4175 -0.4951,-0.9634 -0.4951,-1.4852 0,-0.165 0.6117,0.1167 0.4951,0 -0.2609,-0.2609 -0.8251,-0.165 -0.9901,-0.495 -0.1044,-0.2088 0.3906,-0.2864 0.495,-0.4951 0.074,-0.1476 0,-0.33 0,-0.495 0,-0.1651 0.074,-0.3475 0,-0.4951 -0.1044,-0.2087 -0.3907,-0.2863 -0.495,-0.495 -0.055,-0.111 0,-1.8626 0,-1.9802 l 0,-2.4753 c 0,-0.33 -0.08,-0.6699 0,-0.9901 1.4024,-2.8048 -0.1845,0.738 0.495,-1.9802 0.054,-0.2176 0.9901,-1.865 0.9901,-1.9802 0,-0.2333 -0.495,-0.2617 -0.495,-0.495 0,-0.5219 0.2056,-1.051 0.495,-1.4852 0.091,-0.1373 0.4951,0.165 0.4951,0 0,-0.2333 -0.4951,-0.2617 -0.4951,-0.495 0,-0.3301 0.9901,0.33 0.9901,0 0,-0.369 -0.2341,-0.7292 -0.495,-0.9901 -0.1167,-0.1167 -0.1167,0.3783 0,0.495 0.2333,0.2334 0.9901,-0.33 0.9901,0 0,0.165 -0.4951,0.165 -0.4951,0 0,-0.165 0.33,0 0.4951,0 0.165,0 0.495,-0.165 0.495,0 0,0.165 -0.5688,0.1476 -0.495,0 0.2087,-0.4174 0.66,-0.66 0.9901,-0.9901 0.165,-0.165 -0.6601,0.3301 -0.4951,0.4951 0.2334,0.2333 0.8425,0.2952 0.9901,0 0.165,-0.3301 -0.495,-0.6211 -0.495,-0.9901 0,-0.2334 0.2863,0.3907 0.495,0.495 0.1476,0.074 0.4951,0.165 0.4951,0 0,-0.369 -0.4951,-0.6211 -0.4951,-0.9901 0,-0.2333 0.2617,0.4951 0.4951,0.4951 0.2333,0 0.33,-0.3301 0.495,-0.4951 0.165,-0.165 0.2863,-0.3907 0.4951,-0.495 0.1476,-0.074 0.495,0.165 0.495,0 0,-0.7284 -1.7585,-0.4951 0.4951,-0.4951 0.165,0 -0.4951,0.165 -0.4951,0 0,-0.369 0.165,-0.8251 0.4951,-0.9901 0.2087,-0.1043 0.495,0.2617 0.495,0.4951 0,0.165 -0.495,0.165 -0.495,0 0,-0.369 0.165,-0.8251 0.495,-0.9901 1.6419,-0.821 0,1.5081 0,0.495 0,-0.165 0.33,0 0.4951,0 0.165,0 0.495,-0.165 0.495,0 0,0.165 -0.495,0.165 -0.495,0 0,-0.33 0.9901,0.3301 0.9901,0 0,-0.369 -0.756,-0.7292 -0.4951,-0.9901 0.2609,-0.2609 0.6401,0.6118 0.9901,0.4951 0.3501,-0.1167 0.4951,-0.6211 0.4951,-0.9901 0,-0.2334 -0.3301,0.33 -0.4951,0.495 0.33,0 0.8425,0.2952 0.9901,0 0.165,-0.33 -0.756,-0.7292 -0.495,-0.9901 0.2609,-0.2609 0.7291,0.2342 0.9901,0.4951 0.1166,0.1167 -0.4951,0.165 -0.4951,0 0,-0.165 0.33,0 0.4951,0 0.165,0 0.495,-0.165 0.495,0 0,0.165 -0.495,0.165 -0.495,0 0,-0.165 0.33,0 0.495,0 0.165,0 0.4951,-0.165 0.4951,0 0,0.165 -0.6601,0 -0.4951,0 l 0.9901,0 c 0.165,0 -0.495,0.165 -0.495,0 0,-0.165 0.33,0 0.495,0 0.3252,0 1.8638,0.058 1.9802,0 0.1476,-0.074 -0.1476,-0.4213 0,-0.4951 0.2952,-0.1476 0.7567,0.2334 0.9901,0 0.165,-0.165 -0.6601,-0.33 -0.495,-0.495 0.165,-0.165 0.2863,0.3907 0.495,0.495 0.1476,0.074 0.33,0 0.495,0 0,0 1.9802,-0.9331 1.9802,-3.4653 z"
       style="fill:none;fill-rule:evenodd;stroke:#000000;stroke-width:1px;stroke-linecap:butt;stroke-linejoin:miter;stroke-opacity:1"
       inkscape:connector-curvature="0" />
    <path
       id="path3401"
       d="m 1500,1131.5701 c 0.4803,-0.9309 -0.2401,-2.0097 0,-2.9703 0.3589,-1.4357 0.3862,-0.5793 0.9901,-1.4851 0.2047,-0.307 0.33,-0.6601 0.495,-0.9901 0.4951,-0.8251 0.9259,-1.6923 1.4852,-2.4753 0.4069,-0.5697 1.0968,-0.9026 1.4851,-1.4851 0.2047,-0.307 0.2737,-0.6949 0.4951,-0.9901 0.4201,-0.5601 1.0968,-0.9026 1.4851,-1.4852 1.7947,-3.5894 -0.5218,0.7828 0.9901,-1.4851 0.2047,-0.307 0.2342,-0.7292 0.4951,-0.9901 0.1167,-0.1167 0.3474,0.074 0.495,0 0.2088,-0.1044 0.3084,-0.355 0.4951,-0.4951 0.476,-0.3569 1.0644,-0.5693 1.4851,-0.9901 0.1167,-0.1166 -0.1373,-0.4035 0,-0.495 0.4342,-0.2895 1.051,-0.2056 1.4852,-0.4951 0.1373,-0.091 -0.074,-0.3474 0,-0.495 0.1044,-0.2087 0.3009,-0.3656 0.495,-0.4951 0.3071,-0.2046 0.6211,-0.495 0.9901,-0.495 0.2334,0 -0.5994,0.7038 -0.495,0.495 0.2661,-0.5321 0.5141,-1.1281 0.9901,-1.4851 0.264,-0.198 0.8425,0.2952 0.9901,0 0.2952,-0.5904 -0.1601,-1.3398 0,-1.9802 0.04,-0.1601 0.3784,0.1167 0.495,0 0.2609,-0.2609 0.2904,-0.6831 0.4951,-0.9901 0.3883,-0.5825 1.0968,-0.9026 1.4851,-1.4852 0.1831,-0.2746 -0.2952,-0.8425 0,-0.99 0.2952,-0.1476 0.7568,0.2333 0.9901,0 0.165,-0.1651 -0.2616,-0.4951 -0.495,-0.4951 -0.165,0 -0.1167,0.6117 0,0.4951 0.2609,-0.261 0.3783,-0.6401 0.495,-0.9901 0.064,-0.1927 -0.077,-1.4084 0,-1.4852 0.2609,-0.2609 0.7292,-0.2341 0.9901,-0.495 0.1167,-0.1167 -0.66,0 -0.495,0 0.33,0 0.8425,0.2951 0.9901,0 0.165,-0.3301 -0.2342,-0.7292 -0.4951,-0.9901 -0.1167,-0.1167 -0.1167,0.6117 0,0.495 0.2609,-0.2609 0.3784,-0.64 0.4951,-0.9901 0.052,-0.1565 -0.1167,-0.3784 0,-0.495 0.2609,-0.261 0.8734,-0.145 0.9901,-0.4951 0.1167,-0.35 -0.6118,-0.64 -0.4951,-0.9901 0.1167,-0.35 0.6211,-0.495 0.9901,-0.495 0.2334,0 -0.66,0.66 -0.495,0.495 0.33,-0.33 0.66,-0.6601 0.9901,-0.9901 0.165,-0.165 -0.3301,0.6601 -0.4951,0.4951 -0.2333,-0.2334 -0.2952,-0.8425 0,-0.9901 0.3301,-0.1651 0.6601,0.66 0.9901,0.495 0.2952,-0.1476 -0.2333,-0.7567 0,-0.9901 0.165,-0.165 0.3301,0.33 0.4951,0.4951 0,-0.3301 -0.1044,-0.677 0,-0.9901 0.074,-0.2214 0.2617,-0.4951 0.495,-0.4951 0.165,0 -0.1167,0.3784 0,0.4951 0.1167,0.1166 0.3784,0.1166 0.4951,0 0.6096,-0.6097 -1.5108,-0.9901 0.9901,-0.9901 0.2333,0 -0.6601,0.33 -0.4951,0.495 0.4835,0.4835 1.6739,-0.3929 1.9802,-0.495 0.1566,-0.052 0.3475,0.074 0.4951,0 0.5321,-0.2661 0.9079,-0.8458 1.4851,-0.9901 0.2264,-0.057 0.2863,0.3906 0.4951,0.495 1.0561,0.5281 0.099,-0.363 0.495,-0.495 0.4697,-0.1566 0.9901,0 1.4852,0 0.165,0 -0.4951,0.165 -0.4951,0 0,-0.1651 0.3301,0 0.4951,0 0.165,0 0.33,0 0.495,0 1.6502,0 3.3003,0 4.9505,0 0.4191,0 1.7141,0.089 1.9802,0 0.2214,-0.074 0.2617,-0.4951 0.4951,-0.4951 1.6937,0 0.2558,1.0699 1.9802,0.4951 0.2214,-0.074 0.2686,-0.4385 0.495,-0.4951 0.31,-0.077 4.2993,0 4.4555,0 0.165,0 -0.6601,0 -0.4951,0 0.1917,0 3.7799,-0.09 3.9604,0 0.2087,0.1044 0.2686,0.4385 0.4951,0.4951 0.4408,0.1102 2.8079,0 3.4653,0 0.165,0 0.3475,-0.074 0.495,0 0.2088,0.1043 0.2737,0.4212 0.4951,0.495 0.3131,0.1044 0.6949,-0.1476 0.9901,0 0.1476,0.074 -0.165,0.4951 0,0.4951 0.2334,0 0.2863,-0.3907 0.495,-0.4951 0.1476,-0.074 0.3301,0 0.4951,0 0.4052,0 2.8254,-0.072 2.9703,0 0.1476,0.074 0,0.33 0,0.4951 0.33,0.165 0.6211,0.495 0.9901,0.495 0.8051,0 0.125,-0.9276 0.9901,-0.495 0.2087,0.1043 0.2736,0.4212 0.495,0.495 0.3131,0.1044 0.7568,-0.2334 0.9901,0 0.1651,0.165 -0.33,0.6601 -0.495,0.4951 -0.165,-0.1651 0.2863,-0.3907 0.495,-0.4951 0.1476,-0.074 0.3301,0 0.4951,0 0.495,0 1.0423,-0.2214 1.4851,0 0.4175,0.2087 0.5473,0.8425 0.9901,0.9901 0.2214,0.074 0.2737,-0.4212 0.4951,-0.495 0.9669,-0.3224 1.1333,0.2127 1.9802,0.495 0.3131,0.1044 0.6949,-0.1476 0.9901,0 0.2087,0.1044 0.2617,0.4951 0.495,0.4951 0.165,0 -0.1167,-0.3784 0,-0.4951 0.1167,-0.1167 0.3301,0 0.4951,0 0.33,0 0.7155,-0.1831 0.9901,0 0.307,0.2047 0.165,0.8251 0.495,0.9901 0.3867,0.1933 0.4209,-1.0643 0.9901,-0.495 0.2609,0.2609 0.165,0.825 0.4951,0.9901 0.2087,0.1043 0.2863,-0.3907 0.495,-0.4951 0.1476,-0.074 0.4213,-0.1476 0.4951,0 0.1476,0.2952 -0.2334,0.7567 0,0.9901 0.165,0.165 0.2863,-0.3907 0.495,-0.495 0.1476,-0.074 0.4213,-0.1476 0.4951,0 0.1476,0.2951 -0.1476,0.6949 0,0.9901 0.074,0.1476 0.3474,-0.074 0.495,0 0.1315,0.066 1.4195,1.3537 1.4852,1.4851 0.074,0.1476 -0.074,0.3475 0,0.4951 0.4557,0.9113 1.0294,0.079 1.4851,0.9901 0.074,0.1475 -0.074,0.3474 0,0.495 0.1044,0.2087 0.3656,0.3009 0.4951,0.4951 0.4093,0.614 0.5807,1.3661 0.9901,1.9802 0.1294,0.1941 0.2863,0.3906 0.495,0.495 0.1476,0.074 0.4951,-0.165 0.4951,0 0,0.369 -0.4951,0.6211 -0.4951,0.9901 0,0.2334 0.3301,-0.6601 0.4951,-0.4951 0.2333,0.2334 -0.2334,0.7568 0,0.9901 0.165,0.1651 0.2617,-0.495 0.495,-0.495 0.165,0 0,0.33 0,0.495 0,0.3301 -0.1476,0.695 0,0.9901 0.074,0.1476 0.4213,-0.1475 0.4951,0 0,2.2537 -0.2334,0.028 0.495,1.4852 0.074,0.1476 -0.1167,0.3784 0,0.495 0.1167,0.1167 0.4213,-0.1475 0.4951,0 0.2214,0.4428 -0.2214,1.0424 0,1.4852 0.1043,0.2087 0.3907,0.2863 0.495,0.495 0.074,0.1476 0,0.3301 0,0.4951 0,0.165 -0.074,0.3474 0,0.495 1.6419,1.6419 -0.2334,-0.4667 0.4951,0.9901 0.1043,0.2088 0.3907,0.2864 0.495,0.4951 0.1476,0.2952 -0.1476,0.6949 0,0.9901 0.1044,0.2087 0.4213,0.2736 0.4951,0.495 0.1043,0.3131 -0.1476,0.6949 0,0.9901 0.074,0.1476 0.3783,-0.1166 0.495,0 0.1167,0.1167 -0.052,0.3385 0,0.4951 0.1167,0.35 0.4056,0.6321 0.4951,0.9901 0.08,0.3202 -0.1476,0.6949 0,0.9901 0.074,0.1476 0.3783,-0.1167 0.495,0 0.1167,0.1167 -0.1167,0.3784 0,0.495 0.1167,0.1167 0.4213,-0.1476 0.4951,0 0.1476,0.2952 -0.1044,0.677 0,0.9901 0.074,0.2214 0.3906,0.2864 0.495,0.4951 0.074,0.1476 0,0.33 0,0.495 0,0.3301 0,0.6601 0,0.9901 0,0.165 -0.165,-0.495 0,-0.495 0.165,0 -0.1167,0.3783 0,0.495 0.1167,0.1167 0.4951,-0.165 0.4951,0 0,0.369 -0.2342,0.7292 -0.4951,0.9901 -0.1167,0.1167 0,-0.66 0,-0.495 0,0.33 0,0.66 0,0.9901 0,0.165 -0.165,-0.4951 0,-0.4951 0.165,0 -0.074,0.3475 0,0.4951 0.1044,0.2087 0.2617,0.495 0.4951,0.495 0.165,0 -0.1167,-0.3783 0,-0.495 0.1166,-0.1167 0.495,-0.165 0.495,0 0,0.369 -0.756,0.7292 -0.495,0.9901 0.2609,0.2609 0.6211,-0.4951 0.9901,-0.4951 0.165,0 -0.1167,0.3784 0,0.4951 0.1166,0.1167 0.3783,-0.1167 0.495,0 0.2609,0.2609 0.165,0.8251 0.4951,0.9901 0.2087,0.1043 0.495,-0.7284 0.495,-0.4951 0,0.369 -0.495,0.6211 -0.495,0.9901 0,0.2334 0.2863,-0.5994 0.495,-0.495 0.33,0.165 0.165,0.8251 0.4951,0.9901 0.2087,0.1043 0.33,-0.3301 0.495,-0.4951 -0.165,0.3301 -0.756,0.7292 -0.495,0.9901 0.2609,0.2609 0.66,-0.66 0.9901,-0.495 0.2951,0.1476 -0.2334,0.7567 0,0.9901 0.165,0.165 0.495,-0.7284 0.495,-0.4951 0,0.369 -0.495,0.6211 -0.495,0.9901 0,0.2334 0.2863,-0.5994 0.495,-0.495 0.33,0.165 0.2341,0.7292 0.4951,0.9901 0.1166,0.1167 0,-0.3301 0,-0.4951 0,0.3301 -0.2334,0.7568 0,0.9901 0.3768,0.3769 0.9901,-2.4949 0.9901,0.4951 0,0.2333 -0.7285,-0.4951 -0.4951,-0.4951 2.5009,0 0.3805,0.3805 0.9901,0.9901 0.1167,0.1167 0.4951,-0.165 0.4951,0 0,0.2334 -0.4951,0.2617 -0.4951,0.4951 0,0.165 0.3475,-0.074 0.4951,0 0.2087,0.1043 0.3656,0.3008 0.495,0.495 0.2047,0.307 0.4951,0.6211 0.4951,0.9901 0,0.165 -0.6601,0 -0.4951,0 0.7843,0 1.4852,-0.2952 1.4852,0.9901 0,0.2334 -0.6601,-0.33 -0.4951,-0.495 0.165,-0.165 0.2863,0.3907 0.4951,0.495 0.1475,0.074 0.4212,-0.1476 0.495,0 0.1476,0.2952 -0.2334,0.7568 0,0.9901 0.165,0.165 0.33,-0.66 0.4951,-0.495 0.165,0.165 -0.5995,0.2863 -0.4951,0.495 0.165,0.3301 0.6831,0.2904 0.9901,0.4951 0.1942,0.1294 0.33,0.33 0.4951,0.495 0.165,0.165 0.4212,0.2737 0.495,0.4951 0,2.8052 -0.33,0.165 0.4951,0.9901 0.1166,0.1167 -0.1167,0.3783 0,0.495 0.1166,0.1167 0.3783,-0.1167 0.495,0 0.1191,0.1191 -0.1191,1.8611 0,1.9802 0.1167,0.1167 0.495,-0.165 0.495,0 0,1.3201 -1.5251,-0.5751 -0.495,1.4852 0.074,0.1476 0.3784,-0.1167 0.495,0 0.1167,0.1166 0,0.33 0,0.495 0,0.6601 0,1.3201 0,1.9802 0,0.165 0,0.33 0,0.4951 0,0.165 0.074,0.3474 0,0.495 -0.297,0.5941 -1.1881,0.8911 -1.4851,1.4852 -0.1476,0.2951 0.2334,0.7567 0,0.9901 -0.2609,0.2609 -0.7292,0.2341 -0.9901,0.495 -0.1167,0.1167 0.1167,0.3784 0,0.4951 -0.1167,0.1166 -0.4212,-0.1476 -0.495,0 -0.1476,0.2951 0.1043,0.677 0,0.9901 -0.1118,0.3352 -1.2961,1.1069 -1.4852,1.4851 -0.4382,0.8764 0.7364,0.1692 -0.495,0.9901 -0.3071,0.2047 -0.7292,0.2341 -0.9901,0.4951 -0.2334,0.2333 0.1476,0.6949 0,0.9901 -0.1044,0.2087 -0.3907,0.2863 -0.4951,0.495 -0.1476,0.2952 0.2334,0.7567 0,0.9901 -0.2609,0.2609 -0.8251,0.165 -0.9901,0.4951 -0.1044,0.2087 0.3907,0.2863 0.4951,0.495 0.2236,0.4474 -0.4264,1.2791 -0.4951,1.4851 -0.099,0.2958 0.1307,0.9248 0,0.9901 -0.2952,0.1476 -0.7567,-0.2333 -0.9901,0 -0.495,0.4951 0.2475,0.9901 0,1.4852 -0.1044,0.2087 -0.3907,0.2863 -0.495,0.495 -0.1476,0.2952 0.2333,0.7568 0,0.9901 -0.261,0.261 -0.7292,0.2342 -0.9901,0.4951 -0.1167,0.1167 0.3783,-0.1167 0.495,0 0.1167,0.1167 0.074,0.3474 0,0.495 -0.1044,0.2088 -0.3907,0.2864 -0.495,0.4951 -0.1476,0.2952 0.2951,0.8425 0,0.9901 -0.2952,0.1476 -0.7568,-0.2334 -0.9901,0 -0.1651,0.165 0.495,0.2617 0.495,0.495 0,0.4668 -0.9901,0.5234 -0.9901,0.9901 0,0.1651 0.3784,-0.1166 0.4951,0 0.016,0.016 0,1.3651 0,1.4852 0,0.165 0.1166,0.3784 0,0.495 -0.1167,0.1167 -0.3784,-0.1166 -0.4951,0 -0.1167,0.1167 0,0.3301 0,0.4951 0,0.165 0,0.33 0,0.495 0,0.3509 0.064,2.8423 0,2.9703 -0.1044,0.2088 -0.495,0.2617 -0.495,0.4951 0,0.1933 0.9276,0.5575 0.495,0.9901 -0.2334,0.2334 -0.9901,-0.3301 -0.9901,0 0,0.2334 0.3907,0.2863 0.4951,0.495 0.074,0.1476 0,0.3301 0,0.4951 0,0.165 0.1166,0.3783 0,0.495 -0.2959,0.2959 -0.9901,-0.5351 -0.9901,0.4951 0,0.165 0.3783,-0.1167 0.495,0 0.1167,0.1167 0,0.33 0,0.495 0,0.165 0.074,0.3475 0,0.4951 -0.1044,0.2087 -0.2863,0.3907 -0.495,0.495 -0.1476,0.074 -0.4951,-0.165 -0.4951,0 0,0.1934 0.9276,0.5576 0.4951,0.9901 -0.261,0.2609 -0.8251,0.165 -0.9901,0.4951 -0.1044,0.2087 0.495,0.2617 0.495,0.495 0,0.2334 -0.2863,0.3907 -0.495,0.4951 -0.1476,0.074 -0.4951,-0.165 -0.4951,0 0,0.2333 0.2617,0.495 0.4951,0.495 0.165,0 -0.1651,-0.495 0,-0.495 0.165,0 0.1166,0.3783 0,0.495 -0.261,0.2609 -0.7292,0.2342 -0.9901,0.4951 -0.1167,0.1167 0.66,0 0.495,0 -0.33,0 -0.6601,0 -0.9901,0 -0.165,0 0.4951,-0.165 0.4951,0 0,0.369 -0.9901,0.864 -0.9901,0.495 0,-0.165 0.66,0 0.495,0 -0.33,0 -0.7567,-0.2333 -0.9901,0 -0.165,0.165 0.4951,0.2617 0.4951,0.4951 0,0.165 -0.3784,-0.1167 -0.4951,0 -0.1167,0.1167 0.165,0.495 0,0.495 -0.6601,0 0.6601,-1.3201 0,0 -0.1891,0.3782 -1.3734,1.15 -1.4851,1.4852 -0.1044,0.3131 0,0.66 0,0.9901 0,0.165 0.074,0.3474 0,0.495 -0.1044,0.2088 -0.3907,0.2863 -0.4951,0.4951 -0.1476,0.2952 0.1476,0.6949 0,0.9901 -0.297,0.594 -1.1881,0.8911 -1.4851,1.4851 -0.074,0.1476 0.1476,0.4213 0,0.4951 -0.2952,0.1476 -0.7568,-0.2334 -0.9901,0 -0.3769,0.3768 2.4949,0.9901 -0.4951,0.9901 -0.2333,0 0.4951,-0.7285 0.4951,-0.4951 0,0.369 -0.3784,0.6401 -0.4951,0.9901 -0.052,0.1566 0.1167,0.3784 0,0.4951 -0.2609,0.2609 -0.7292,0.2341 -0.9901,0.495 -0.4207,0.4207 -0.684,0.975 -0.9901,1.4852 -0.1898,0.3164 -0.2341,0.7291 -0.495,0.9901 -0.2609,0.2609 -0.7292,0.2341 -0.9901,0.495 -0.2609,0.2609 -0.2342,0.7292 -0.4951,0.9901 -0.4207,0.4207 -1.0644,0.5694 -1.4851,0.9901 -0.2334,0.2334 0.2952,0.8425 0,0.9901 -0.2952,0.1476 -0.6949,-0.1476 -0.9901,0 -0.2952,0.1476 0.3131,0.8857 0,0.9901 -0.4697,0.1566 -1.1351,-0.35 -1.4852,0 -0.2609,0.2609 0.6601,0.6601 0.4951,0.9901 -0.1476,0.2952 -0.7155,-0.1831 -0.9901,0 -0.307,0.2047 -0.2342,0.7292 -0.4951,0.9901 -0.1167,0.1167 -0.495,-0.165 -0.495,0 0,0.2334 0.5994,0.2863 0.495,0.4951 -0.165,0.33 -0.64,0.3783 -0.9901,0.495 -0.1565,0.052 -0.495,-0.165 -0.495,0 0,0.2334 0.66,0.33 0.495,0.4951 -0.2333,0.2333 -0.66,0 -0.9901,0 -0.165,0 0.3784,-0.1167 0.4951,0 0.1167,0.1166 0,0.33 0,0.495 0,0.165 0,0.33 0,0.4951 0,0.165 0.165,0.495 0,0.495 -0.165,0 -0.165,-0.495 0,-0.495 0.165,0 0,0.33 0,0.495 0,0.165 0,0.33 0,0.4951 0,0.1381 0,3.0741 0,1.4851 4.3303,-1.2322 -1.8396,2.6159 -0.9901,3.4653 0.1167,0.1167 0.33,0 0.495,0 0,0.3301 -0.183,0.7155 0,0.9901 0.2047,0.3071 0.7855,0.1881 0.9901,0.4951 0.1831,0.2746 -0.183,0.7155 0,0.9901 0.2047,0.307 0.7292,0.2341 0.9901,0.495 0.2334,0.2334 -0.183,0.7155 0,0.9901 0.2589,0.3884 0.6601,0.6601 0.9901,0.9901 0.165,0.1651 0.2863,0.3907 0.4951,0.4951 0.1476,0.074 0.4428,-0.1566 0.495,0 0.1566,0.4696 -0.2214,1.0424 0,1.4851 0.165,0.3301 0.7687,0.1999 0.9901,0.4951 1.7407,0.2162 0.1177,1.4141 0.4951,1.9802 0.5178,0.7767 1.4999,1.1797 1.9802,1.9802 0.2685,0.4475 0.3685,0.9789 0.495,1.4851 0.04,0.1601 -0.1167,0.3784 0,0.4951 0.2609,0.2609 0.7292,0.2341 0.9901,0.495 0.1167,0.1167 -0.074,0.3475 0,0.4951 0.1044,0.2087 0.3907,0.2863 0.4951,0.495 0.074,0.1476 -0.1167,0.3784 0,0.4951 0.6029,0.6029 1.106,0.2319 1.4851,0.9901 0.1476,0.2952 -0.2333,0.7567 0,0.9901 0.2609,0.2609 0.7292,0.2341 0.9901,0.495 0.1167,0.1167 -0.1476,0.4213 0,0.4951 0.2952,0.1476 0.8425,-0.2952 0.9901,0 0.165,0.33 -0.6117,0.64 -0.495,0.9901 0.1167,0.35 0.7292,0.2341 0.9901,0.495 0.2958,0.2959 -0.5351,0.9901 0.495,0.9901 0.2334,0 0.3301,-0.66 0.4951,-0.495 0.165,0.165 -0.4951,0.2617 -0.4951,0.495 0,0.2334 0.2617,0.4951 0.4951,0.4951 0.2333,0 0.33,-0.6601 0.495,-0.4951 0.165,0.165 -0.3907,0.2863 -0.495,0.4951 -0.074,0.1476 -0.165,0.495 0,0.495 2.2536,0 -0.666,-1.161 0.495,0 0.1167,0.1167 0.4951,-0.165 0.4951,0 0,0.165 -0.3784,-0.1167 -0.4951,0 -0.1167,0.1167 -0.165,0.4951 0,0.4951 0.369,0 0.6211,-0.4951 0.9901,-0.4951 0.2334,0 -0.5994,0.2863 -0.495,0.4951 0.165,0.33 0.6211,0.495 0.9901,0.495 0.2333,0 -0.6601,-0.66 -0.4951,-0.495 -0.4236,2.2967 1.0645,0.5694 1.4852,0.9901 0.3809,0.3809 -0.7701,1.4851 0.9901,1.4851 0.2333,0 -0.6601,-0.66 -0.4951,-0.495 0.33,0.33 0.7814,0.5726 0.9901,0.9901 0.074,0.1476 -0.6117,-0.1167 -0.495,0 0.2609,0.2609 0.825,0.165 0.9901,0.495 0.1043,0.2088 -0.2617,0.4951 -0.4951,0.4951 -0.165,0 -0.165,-0.4951 0,-0.4951 0.369,0 0.7292,0.2342 0.9901,0.4951 0.1167,0.1167 -0.3784,-0.1167 -0.495,0 -0.1167,0.1167 0.165,0.495 0,0.495 -0.1651,0 0,-0.66 0,-0.495 0,0.33 0,0.66 0,0.9901 0,0.165 -0.1476,-0.5689 0,-0.4951 0.4174,0.2088 0.8425,0.5473 0.9901,0.9901 0.074,0.2214 -0.3907,0.2863 -0.4951,0.4951 -0.074,0.1476 0,0.33 0,0.495 0,0.165 -0.1167,0.3784 0,0.4951 0.2609,0.2609 0.8251,0.165 0.9901,0.495 0.1933,0.3867 -1.0643,0.4209 -0.495,0.9901 0.1166,0.1167 0.3783,-0.1167 0.495,0 0.1167,0.1167 0,0.3301 0,0.4951 0,0.165 0.165,0.495 0,0.495 -0.165,0 0,-0.66 0,-0.495 0,0.33 0,0.66 0,0.9901 0,0.165 -0.052,0.3385 0,0.495 0.1167,0.3501 0.4951,0.6211 0.4951,0.9901 0,0.165 -0.4951,-0.165 -0.4951,0 0,0.738 0.9901,1.2422 0.9901,1.9802 0,0.369 -0.4055,0.6321 -0.495,0.9901 -0.5783,2.313 0.5844,-0.454 0.9901,1.9802 0.1118,0.6711 -0.6069,1.3091 -0.4951,1.9802 0.077,0.4604 0.8986,0.5324 0.9901,0.9901 0.1023,0.5117 -0.495,0.9633 -0.495,1.4852 0,0.5218 0.3927,0.9734 0.495,1.4851 0.065,0.3236 -0.1226,0.6837 0,0.9901 0.221,0.5524 0.802,0.9207 0.9901,1.4852 0.1566,0.4696 0,0.9901 0,1.4851 0,0.33 -0.2334,0.7567 0,0.9901 0.2334,0.2334 0.8425,-0.2952 0.9901,0 0.165,0.33 -0.3784,0.64 -0.495,0.9901 -0.052,0.1565 -0.1651,0.495 0,0.495 0.2333,0 0.2616,-0.495 0.495,-0.495 0.165,0 0,0.33 0,0.495 0,0.1651 0,0.3301 0,0.4951 0,0.33 0,0.6601 0,0.9901 0,0.165 0,-0.6601 0,-0.4951 0,0.4951 0.097,0.9998 0,1.4852 -0.072,0.3618 -0.4055,0.6321 -0.495,0.9901 -0.08,0.3202 0.183,0.7155 0,0.9901 -0.2047,0.307 -0.7687,0.1999 -0.9901,0.495 -3.161,1.0947 0.2951,1.3899 0,1.9802 -0.1651,0.3301 -0.9006,0.1371 -0.9901,0.4951 -0.1266,0.5062 0.495,0.9633 0.495,1.4851 0,0.1651 -0.4212,-0.1476 -0.495,0 -0.1476,0.2952 0,0.6601 0,0.9901 0,0.8251 0,1.6502 0,2.4753 0,0.165 0,0.33 0,0.495 0,0.1651 0.165,0.4951 0,0.4951 -0.1651,0 0,-0.6601 0,-0.4951 0,1.7812 0,1.212 0,3.4654 0,3.3003 0,6.6006 0,9.901 0,3.0606 0.12,-0.2254 -0.4951,3.4653 -0.1085,0.6511 0.2087,1.354 0,1.9802 -0.074,0.2214 -0.4212,0.2737 -0.495,0.4951 -0.097,0.2901 0.1138,2.8565 0,2.9703 -0.1651,0.165 -0.4951,-0.2617 -0.4951,-0.4951 0,-0.165 0.4213,-0.1476 0.4951,0 0.1476,0.2952 0,0.6601 0,0.9901 0,0.165 0,-0.6601 0,-0.495 0,0.33 0,0.66 0,0.9901 0,0.165 0.1476,-0.5689 0,-0.4951 -0.4175,0.2087 -0.7312,0.6018 -0.9901,0.9901 -0.092,0.1373 0.074,0.3475 0,0.4951 -0.1044,0.2087 -0.3907,0.2863 -0.4951,0.495 -0.074,0.1476 0.1167,0.3784 0,0.4951 -0.2609,0.2609 -0.8251,0.165 -0.9901,0.495 -0.1044,0.2087 0.6601,0.33 0.4951,0.4951 -0.2334,0.2333 -0.8425,-0.2952 -0.9901,0 -0.1651,0.33 0.495,0.6211 0.495,0.9901 0,0.3689 -0.2341,0.7291 -0.495,0.9901 -0.1167,0.1166 -0.4951,-0.1651 -0.4951,0 0,0.3689 0.3784,0.64 0.4951,0.9901 0.052,0.1565 0,0.33 0,0.495 0,0.165 0.165,0.4951 0,0.4951 -0.1651,0 0,-0.6601 0,-0.4951 0,0.33 0.183,0.7155 0,0.9901 -0.2047,0.307 -0.6322,0.4056 -0.9901,0.4951 -0.3202,0.08 -0.8425,-0.2952 -0.9901,0 -0.1651,0.33 0.7559,0.7291 0.495,0.9901 -0.35,0.35 -1.1351,-0.3501 -1.4851,0 -0.3501,0.35 0.12,1.0048 0,1.4851 -0.015,0.059 -1.8608,1.9205 -1.9802,1.9802 -0.1476,0.074 -0.4429,-0.1565 -0.4951,0 -0.1565,0.4696 0.1566,1.0155 0,1.4851 -0.052,0.1566 -0.33,0 -0.495,0 -0.165,0.3301 -0.4951,0.6212 -0.4951,0.9901 0,0.2334 0.4951,-0.7284 0.4951,-0.495 0,0 -0.6133,1.4851 -0.9901,1.4851 -0.165,0 0,-0.33 0,-0.495 -0.4951,0.33 -1.0645,0.5694 -1.4852,0.9901 -0.8438,0.8438 2.825,0.9901 -1.4851,0.9901 -0.2334,0 -0.2617,-0.4951 -0.4951,-0.4951 -0.165,0 0.074,0.3475 0,0.4951 -0.1043,0.2087 -0.2617,0.495 -0.495,0.495 -0.2334,0 -0.4951,-0.2616 -0.4951,-0.495 0,-0.165 0.6601,0 0.4951,0 -9.406,0 -18.8119,0 -28.2178,0 -2.3103,0 -4.6205,0 -6.9307,0 -0.5183,0 -2.5678,-0.1006 -2.9703,0 -0.358,0.089 -0.6601,0.33 -0.9901,0.495 -0.4951,0.1651 -0.9735,0.3928 -1.4852,0.4951 -0.3236,0.065 -0.6699,-0.08 -0.9901,0 -0.358,0.09 -0.6211,0.495 -0.9901,0.495 -0.9559,0 0.06,-1.5251 -1.4851,-0.495 -0.307,0.2047 -0.2342,0.7292 -0.4951,0.9901 -0.1167,0.1167 0.1167,-0.3784 0,-0.4951 -0.2333,-0.2333 -0.9901,0.3301 -0.9901,0 0,-0.165 0.6601,0 0.4951,0 -3.0835,0 1.0854,0.2952 -1.4852,-0.9901 -0.2087,-0.1043 -0.33,0.6601 -0.495,0.4951 -0.1934,-0.1933 0.37,-1.4852 -0.4951,-1.4852 -0.165,0 0.1476,0.5689 0,0.4951 -0.33,-0.33 -0.66,-0.6601 -0.9901,-0.9901 0,0.165 0.165,0.495 0,0.495 -0.165,0 0.074,-0.3474 0,-0.495 -0.1043,-0.2087 -0.495,-0.2617 -0.495,-0.4951 0,-0.165 0.6426,0.074 0.495,0 -0.4667,-0.2333 -1.0184,-0.2616 -1.4851,-0.495 -0.2751,-0.1375 -0.8305,-0.9901 -0.9901,-0.9901 -0.165,0 0.1167,0.6117 0,0.495 -0.2609,-0.2609 -0.2342,-0.7291 -0.4951,-0.9901 -0.2609,-0.2609 -0.6831,-0.2903 -0.9901,-0.495 -0.1941,-0.1295 -0.2863,-0.3907 -0.495,-0.4951 -0.1476,-0.074 -0.4951,0.1651 -0.4951,0 0,-0.2333 0.4951,-0.2616 0.4951,-0.495 0,-0.165 -0.3784,0.1167 -0.4951,0 -0.1167,-0.1167 0,-0.33 0,-0.4951 -0.33,-0.33 -0.5726,-0.7813 -0.9901,-0.99 -0.1476,-0.074 0.165,0.495 0,0.495 -0.2333,0 -0.2863,-0.3907 -0.495,-0.495 -0.1476,-0.074 -0.4213,0.1475 -0.4951,0 -0.1476,-0.2952 0,-0.6601 0,-0.9901 0,-0.1651 0.1167,-0.3784 0,-0.4951 -0.1167,-0.1167 -0.3783,0.1167 -0.495,0 -0.1167,-0.1167 0.074,-0.3475 0,-0.495 -0.1044,-0.2088 -0.3907,-0.2864 -0.4951,-0.4951 -0.074,-0.1476 0.165,-0.495 0,-0.495 -0.2333,0 -0.33,0.66 -0.495,0.495 -0.2334,-0.2334 0.2333,-0.7567 0,-0.9901 -0.165,-0.165 -0.3301,0.6601 -0.4951,0.4951 -0.2475,-0.2476 0.2476,-1.2377 0,-1.4852 -0.1167,-0.1167 -0.3783,0.1167 -0.495,0 -0.1167,-0.1167 -0.165,-0.495 0,-0.495 0.165,0 0,0.66 0,0.495 0,-3.1758 0,-5.9561 0,-9.901 0,-0.3896 0.04,-2.4355 0,-2.4752 -0.1167,-0.1167 -0.4951,0.165 -0.4951,0 0,-0.369 0.4951,-0.6211 0.4951,-0.9901 0,-0.2334 -0.2617,0.495 -0.4951,0.495 -0.33,0 0.2334,-0.7567 0,-0.9901 -0.1167,-0.1167 -0.3783,0.1167 -0.495,0 -0.1167,-0.1167 0.052,-0.3385 0,-0.495 -0.1167,-0.3501 -0.3784,-0.6401 -0.4951,-0.9901 -0.052,-0.1566 0.074,-0.3475 0,-0.4951 -0.2087,-0.4174 -0.7813,-0.5726 -0.9901,-0.9901 -0.074,-0.1476 0.074,-0.3474 0,-0.495 -0.1043,-0.2088 -0.33,-0.3301 -0.495,-0.4951 -0.33,-0.33 -0.7101,-0.6167 -0.9901,-0.9901 -0.2214,-0.2952 -0.2341,-0.7292 -0.4951,-0.9901 -0.1166,-0.1167 -0.4212,0.1476 -0.495,0 -0.1476,-0.2952 0.1831,-0.7155 0,-0.9901 -0.2047,-0.307 -0.7292,-0.2341 -0.9901,-0.495 -0.2609,-0.2609 -0.2904,-0.6831 -0.4951,-0.9901 0.05,-0.9807 -0.7291,-0.2342 -0.9901,-0.4951 -1.0513,-1.0513 3.0905,-0.1249 -0.9901,-1.4851 -0.2214,-0.074 -0.2863,0.5994 -0.495,0.495 -0.33,-0.165 -0.2904,-0.6831 -0.4951,-0.9901 -0.1294,-0.1941 -0.33,-0.33 -0.495,-0.495 -0.33,-0.3301 -0.6018,-0.7312 -0.9901,-0.9901 -0.2746,-0.1831 -0.8425,0.2952 -0.9901,0 -0.1476,-0.2952 0.1476,-0.6949 0,-0.9901 -0.074,-0.1476 -0.3475,0.074 -0.4951,0 -0.2087,-0.1044 -0.2863,-0.3907 -0.495,-0.4951 -1.2193,-0.6096 0.4469,1.437 -1.4852,-0.495 -0.2609,-0.2609 -0.145,-0.8734 -0.495,-0.9901 -0.3501,-0.1167 -0.64,0.6117 -0.9901,0.495 -0.3501,-0.1167 -0.2341,-0.7292 -0.4951,-0.9901 -1.081,-1.081 -0.8037,-0.1029 -1.9801,-0.495 -0.4428,-0.1476 -0.5727,-0.7814 -0.9901,-0.9901 -0.1476,-0.074 -0.3475,0.074 -0.4951,0 -0.2087,-0.1044 -0.2617,-0.4951 -0.495,-0.4951 -0.2334,0 -0.2617,0.4951 -0.4951,0.4951 -0.2334,0 -0.2863,-0.3907 -0.495,-0.4951 -0.1476,-0.074 -0.3475,0.074 -0.4951,0 -0.2087,-0.1043 -0.2617,-0.495 -0.495,-0.495 -0.1651,0 0.165,0.495 0,0.495 -0.2334,0 -0.2864,-0.3906 -0.4951,-0.495 -0.1476,-0.074 -0.3784,0.1167 -0.495,0 -0.1167,-0.1167 -0.1651,-0.4951 0,-0.4951 0.165,0 0.165,0.4951 0,0.4951 -0.369,0 -0.8641,-0.9901 -0.4951,-0.9901 0.165,0 0.165,0.495 0,0.495 -0.2334,0 -0.2863,-0.3906 -0.495,-0.495 -0.1476,-0.074 -0.4951,0.165 -0.4951,0 0,-0.1933 0.9276,-0.5576 0.4951,-0.9901 -0.1167,-0.1167 -0.3784,0.1167 -0.4951,0 -0.1167,-0.1167 0.074,-0.3475 0,-0.4951 -0.2087,-0.4174 -0.7814,-0.5726 -0.9901,-0.9901 -0.198,-0.396 0.198,-1.0891 0,-1.4851 -0.1044,-0.2087 -0.3907,-0.2863 -0.495,-0.4951 -0.065,-0.1301 0,-1.7213 0,-1.9802 0,-0.2588 -0.065,-1.85 0,-1.9802 1.6418,-1.6418 -0.2334,0.4668 0.495,-0.9901 0.1044,-0.2087 0.4213,-0.2736 0.4951,-0.495 0.1043,-0.3131 -0.08,-0.6699 0,-0.9901 0.09,-0.358 0.495,-0.6211 0.495,-0.9901 0,-0.2334 -0.495,-0.2617 -0.495,-0.495 0,-0.1597 0.8525,-0.7151 0.9901,-0.9901 0.1476,-0.2952 -0.1476,-0.695 0,-0.9901 0.1043,-0.2088 0.3906,-0.2864 0.495,-0.4951 0.074,-0.1476 -0.074,-0.3475 0,-0.495 0.1044,-0.2088 0.3907,-0.2864 0.4951,-0.4951 0.074,-0.1476 -0.052,-0.3385 0,-0.495 0.1166,-0.3501 0.3783,-0.6401 0.495,-0.9901 0.052,-0.1566 -0.074,-0.3475 0,-0.4951 0.1044,-0.2087 0.4951,-0.2617 0.4951,-0.495 0,-0.2334 -0.5995,-0.2864 -0.4951,-0.4951 0.165,-0.33 0.8251,-0.165 0.9901,-0.495 0.1044,-0.2088 -0.5994,-0.2864 -0.495,-0.4951 0.165,-0.33 0.66,-0.33 0.9901,-0.495 -0.1651,-0.1651 -0.5995,-0.2864 -0.4951,-0.4951 0.165,-0.33 0.7292,-0.2341 0.9901,-0.495 0.1167,-0.1167 -0.074,-0.3475 0,-0.4951 0.1044,-0.2087 0.33,-0.33 0.4951,-0.495 0.165,-0.1651 0.33,-0.3301 0.495,-0.4951 0.165,-0.165 0.4951,-0.2617 0.4951,-0.495 0,-0.1651 -0.4951,0.165 -0.4951,0 0,-0.2334 0.33,-0.3301 0.4951,-0.4951 0.165,-0.165 0.2863,-0.3907 0.495,-0.495 0.1476,-0.074 0.3784,0.1166 0.4951,0 0.2333,-0.2334 -0.2334,-0.7568 0,-0.9901 0.6029,-0.603 1.106,-0.2319 1.4851,-0.9901 0.074,-0.1476 -0.1167,-0.3784 0,-0.4951 0.1167,-0.1167 0.3784,0.1167 0.495,0 0.1167,-0.1167 -0.074,-0.3474 0,-0.495 0.2088,-0.4175 0.7312,-0.6018 0.9901,-0.9901 0.2047,-0.3071 0.2342,-0.7292 0.4951,-0.9901 0.1167,-0.1167 0.495,0.165 0.495,0 0,-0.2334 -0.66,-0.3301 -0.495,-0.4951 0.2334,-0.2334 0.677,0.1044 0.9901,0 0.2214,-0.074 0.495,-0.2617 0.495,-0.495 0,-0.165 -0.495,0.165 -0.495,0 0,-0.165 0.3475,0.074 0.495,0 0.2088,-0.1044 0.4951,-0.2617 0.4951,-0.4951 0,-0.165 -0.4951,0.165 -0.4951,0 0,-0.165 0.3475,0.074 0.4951,0 0.2087,-0.1043 0.2863,-0.3907 0.495,-0.495 0.1476,-0.074 0.4213,0.1476 0.4951,0 0.2462,-0.4925 -0.1959,-1.3872 0,-1.4852 0.2952,-0.1476 0.677,0.1044 0.9901,0 0.2214,-0.074 0.2863,-0.3907 0.495,-0.495 0.1476,-0.074 0.3784,0.1167 0.4951,0 0.1167,-0.1167 -0.1167,-0.3784 0,-0.4951 0.8251,-0.8251 0.495,1.8152 0.495,-0.9901 0,-0.165 -0.165,0.4951 0,0.4951 1.0302,0 0.1992,-0.6943 0.4951,-0.9901 0.1167,-0.1167 0.3784,0.1167 0.495,0 0.261,-0.2609 0.2904,-0.6831 0.4951,-0.9901 0.1294,-0.1942 0.3907,-0.2863 0.495,-0.4951 0.074,-0.1476 -0.1166,-0.3783 0,-0.495 0.261,-0.2609 0.7292,-0.2342 0.9901,-0.4951 0.5219,-0.5218 0.4683,-1.4583 0.9901,-1.9802 0.2334,-0.2333 0.9901,0.3301 0.9901,0 0,-0.2333 -0.495,-0.2617 -0.495,-0.495 0,-0.4668 0.8425,-0.5473 0.9901,-0.9901 0.1044,-0.3131 -0.1044,-0.677 0,-0.9901 0.5151,-1.5452 0.33,0.165 0.9901,-0.4951 0.1167,-0.1167 -0.052,-0.3385 0,-0.495 0.1167,-0.3501 0.495,-0.6211 0.495,-0.9901 0,-0.2334 -0.495,0.2617 -0.495,0.495 0,0.165 0.3784,0.1167 0.495,0 0.1167,-0.1167 -0.1166,-0.3783 0,-0.495 0.1167,-0.1167 0.4951,0.165 0.4951,0 0,-0.2334 -0.4951,-0.2617 -0.4951,-0.4951 0,-0.4667 0.9901,-0.5233 0.9901,-0.9901 0,-0.2333 -0.495,-0.2616 -0.495,-0.495 0,-0.165 0.4212,0.1476 0.495,0 0.1476,-0.2952 0,-0.6601 0,-0.9901 0.1651,0 0.4213,0.1476 0.4951,0 0.1843,-0.3687 -0.1844,-3.5917 0,-3.9604 0.074,-0.1476 0.4212,0.1476 0.495,0 0.1476,-0.2952 -0.1476,-0.6949 0,-0.9901 0.074,-0.1476 0.4951,0.165 0.4951,0 0,-0.369 -0.6601,-0.6601 -0.4951,-0.9901 0.1476,-0.2952 0.6949,0.1476 0.9901,0 0,-0.5121 -0.1167,-0.6842 0.4951,-0.9901 0.1476,-0.074 0.495,0.165 0.495,0 0,-0.2334 -0.33,-0.33 -0.495,-0.4951 0.33,-0.165 0.8734,-0.145 0.9901,-0.495 0.1167,-0.3501 -0.6118,-0.6401 -0.4951,-0.9901 0.1167,-0.3501 0.7292,-0.2341 0.9901,-0.4951 0.2609,-0.2609 0.165,-0.825 0.4951,-0.9901 0.2087,-0.1043 0.495,0.7285 0.495,0.4951 0,-0.369 -0.495,-0.6211 -0.495,-0.9901 0,-0.33 0.9901,0.33 0.9901,0 0,-0.2334 -0.4951,-0.2617 -0.4951,-0.4951 0,-0.2333 0.3301,-0.33 0.4951,-0.495 0.165,-0.165 0.495,-0.2617 0.495,-0.4951 0,-0.165 -0.495,0.1651 -0.495,0 0,-0.4667 0.9901,-0.5233 0.9901,-0.9901 0,-0.165 -0.4213,0.1476 -0.4951,0 -0.2214,-0.4427 0,-0.9901 0,-1.4851 0,-0.165 -0.074,-0.3475 0,-0.495 0.1044,-0.2088 0.3907,-0.2864 0.4951,-0.4951 0.055,-0.111 0,-1.8626 0,-1.9802 0,-1.7322 0,-2.0592 0,-2.9703 0,-0.165 0.165,0.4951 0,0.4951 -0.5,0 -0.7451,-0.9901 -0.4951,-0.9901 0.165,0 0.165,0.495 0,0.495 -0.2333,0 -0.33,-0.33 -0.495,-0.495 -0.165,-0.1651 -0.4951,-0.2617 -0.4951,-0.4951 0,-0.165 0.4213,0.1476 0.4951,0 0.1476,-0.2952 0.2952,-0.8425 0,-0.9901 -0.3301,-0.165 -0.7292,0.2341 -0.9901,0.4951 -0.1167,0.1166 0.5688,0.1476 0.495,0 -0.2087,-0.4175 -0.8425,-0.5474 -0.9901,-0.9901 -0.074,-0.2214 0.6601,-0.3301 0.4951,-0.4951 -0.2334,-0.2334 -0.6601,0 -0.9901,0 -0.165,0 0.4428,0.1566 0.495,0 0.1566,-0.4696 0.1566,-1.0155 0,-1.4851 -0.1881,-0.5645 -0.8019,-0.9207 -0.9901,-1.4852 -0.052,-0.1565 0.3784,0.1167 0.4951,0 0.1167,-0.1167 0,-0.33 0,-0.495 0,-0.1651 0.1167,-0.3784 0,-0.4951 -0.6097,-0.6096 -0.9901,1.5108 -0.9901,-0.9901 0,-0.2334 0.3907,-0.2863 0.495,-0.495 0.2903,-0.5805 -0.2938,-0.5876 -0.495,-0.9901 -0.074,-0.1476 0.052,-0.3385 0,-0.4951 -0.1167,-0.35 -0.3784,-0.64 -0.4951,-0.9901 -0.052,-0.1565 0.092,-0.3577 0,-0.495 1.2216,-1.4988 -1.3465,-0.8515 -1.4851,-0.9901 -0.4207,-0.4207 -0.7691,-0.9328 -0.9901,-1.4852 -0.1226,-0.3064 0.2334,-0.7567 0,-0.9901 -0.165,-0.165 -0.33,0.6601 -0.4951,0.4951 -0.369,-0.369 -0.2616,-1.0184 -0.495,-1.4852 -0.1044,-0.2087 -0.3656,-0.3009 -0.4951,-0.495 -0.2046,-0.307 -0.2341,-0.7292 -0.495,-0.9901 -0.1167,-0.1167 -0.3784,0.1167 -0.4951,0 -0.4207,-0.4207 -0.5694,-1.0645 -0.9901,-1.4852 -0.1166,-0.1167 -0.3783,0.1167 -0.495,0 -0.4951,-0.495 0.9901,-0.9901 0,-1.4851 -0.33,-0.165 -0.6211,0.495 -0.9901,0.495 -0.2334,0 0.495,-0.2617 0.495,-0.495 0,-0.2334 -0.3906,-0.2863 -0.495,-0.4951 -0.074,-0.1476 0.1167,-0.3783 0,-0.495 -0.2609,-0.2609 -0.6831,-0.2904 -0.9901,-0.4951 -1.6419,-1.0946 0,-0.1536 0,-0.495 0,-0.2334 -0.33,-0.3301 -0.4951,-0.4951 -0.33,-0.33 -0.7312,-0.6017 -0.9901,-0.9901 -0.495,-0.7425 0.9901,-0.495 0,-1.4851 -0.2333,-0.2334 -0.7155,0.1831 -0.9901,0 -0.307,-0.2047 -0.2341,-0.7292 -0.495,-0.9901 -0.1167,-0.1167 -0.4951,0.165 -0.4951,0 0,-0.2334 0.6601,-0.3301 0.4951,-0.4951 -0.2475,-0.2475 -1.2376,0.2476 -1.4852,0 -0.2333,-0.2333 0.2952,-0.8425 0,-0.9901 -0.2951,-0.1476 -0.66,0 -0.9901,0 -0.165,-0.33 -0.165,-0.825 -0.495,-0.9901 -0.2087,-0.1043 -0.2737,0.5689 -0.4951,0.4951 -0.4427,-0.1476 -0.66,-0.6601 -0.9901,-0.9901 -0.165,-0.165 -0.33,-0.33 -0.495,-0.4951 -0.165,-0.165 -0.6601,-0.33 -0.4951,-0.495 0.1651,-0.165 0.4951,0.2617 0.4951,0.495 0,0.1651 -0.3784,0.1167 -0.4951,0 -0.825,-0.825 1.8152,-0.495 -0.9901,-0.495 -0.165,0 0.5689,0.1476 0.4951,0 -0.2087,-0.4175 -0.5473,-0.8425 -0.9901,-0.9901 -0.2214,-0.074 -0.33,0.6601 -0.495,0.495 -0.1651,-0.165 0.5994,-0.2863 0.495,-0.495 -0.165,-0.33 -0.6211,-0.4951 -0.9901,-0.4951 -0.2334,0 0.6601,0.3301 0.4951,0.4951 -0.2334,0.2334 -0.7568,0.2334 -0.9901,0 -0.1651,-0.165 0.5688,-0.2737 0.495,-0.4951 -0.1476,-0.4427 -0.6601,-0.66 -0.9901,-0.9901 -0.165,-0.165 -0.495,-0.2616 -0.495,-0.495 0,-0.369 0.7559,-0.7292 0.495,-0.9901 -0.2609,-0.2609 -0.7292,0.756 -0.9901,0.495 -0.2609,-0.2609 0.4951,-0.6211 0.4951,-0.9901 0,-0.2333 -0.2617,-0.495 -0.4951,-0.495 -0.2334,0 -0.33,0.6601 -0.495,0.495 -0.1651,-0.165 0.3906,-0.2863 0.495,-0.495 0.074,-0.1476 0,-0.33 0,-0.4951 0,-0.825 0,-1.6501 0,-2.4752 0,-0.165 0,-0.33 0,-0.4951 0,-0.165 0.074,-0.3474 0,-0.495 -0.2661,-0.5322 -0.724,-0.953 -0.9901,-1.4852 -0.1644,-0.3288 0.1827,-1.7062 0,-1.9802 -0.2047,-0.307 -0.8734,-0.1449 -0.9901,-0.495 -0.1167,-0.3501 0.4056,-0.6321 0.4951,-0.9901 0.08,-0.3202 0.1043,-0.677 0,-0.9901 -0.074,-0.2214 -0.4213,-0.2737 -0.4951,-0.495 -0.076,-0.2267 0,-2.199 0,-2.4753 0,-0.165 -0.165,-0.495 0,-0.495 0.165,0 0,0.66 0,0.495 0,-0.33 0,-0.6601 0,-0.9901 0,-0.33 0,-0.6601 0,-0.9901 0,-0.165 0,0.6601 0,0.4951 0,-0.3301 0,-0.6601 0,-0.9901 0,-0.1651 0,0.66 0,0.495 0,-0.33 0.1476,-0.6949 0,-0.9901 -0.074,-0.1476 -0.495,0.165 -0.495,0 0,-0.369 0.2341,-0.7292 0.495,-0.9901 0.1167,-0.1167 0,0.6601 0,0.4951 0,-0.6601 0,-1.3202 0,-1.9802 0,-0.1651 0,0.66 0,0.495 0,-3.5714 0,-4.2392 0,-7.9208 0,-0.165 0,0.6601 0,0.4951 0,-2.5371 0,-1.3408 0,-2.9703 0,-0.165 -0.165,-0.4951 0,-0.4951 0.165,0 0.165,0.4951 0,0.4951 -0.165,0 0,-0.3301 0,-0.4951 0,-0.1626 -0.049,-1.4114 0,-1.4851 0.2589,-0.3884 0.7312,-0.6018 0.9901,-0.9901 0.091,-0.1373 -0.165,-0.4951 0,-0.4951 0.2334,0 0.4951,0.2617 0.4951,0.4951 0,0.165 -0.5689,0.1476 -0.4951,0 0.2087,-0.4175 0.8425,-0.5473 0.9901,-0.9901 0.2428,-0.7284 -2.1019,-0.4951 0.4951,-0.4951 0.165,0 -0.6601,0 -0.4951,0 0.33,0 0.6601,0 0.9901,0 0.165,0 0.3784,0.1167 0.4951,0 0.1166,-0.1167 -0.1651,-0.495 0,-0.495 0.3689,0 0.64,0.3783 0.9901,0.495 0.1565,0.052 0.33,0 0.495,0 0.165,0 0.495,0.165 0.495,0 0,-3.3003 -1.8151,-1.4852 1.4852,-1.4851 0.165,0 -0.1167,-0.3784 0,-0.4951 0.1167,-0.1167 0.33,0 0.495,0"
       style="fill:none;fill-rule:evenodd;stroke:#000000;stroke-width:1px;stroke-linecap:butt;stroke-linejoin:miter;stroke-opacity:1"
       inkscape:connector-curvature="0" />
    <path
       id="path3403"
       d="m 1312.3762,1340.9761 c 0.7853,-1.369 1.8814,-2.3765 2.9703,-3.4654 0.1651,-0.165 0.2864,-0.3907 0.4951,-0.495 0.1476,-0.074 0.3474,0.074 0.495,0 0.2088,-0.1044 0.2864,-0.3907 0.4951,-0.4951 0.1476,-0.074 0.3783,0.1167 0.495,0 0.1167,-0.1167 -0.1167,-0.3783 0,-0.495 0.1167,-0.1167 0.3475,0.074 0.4951,0 1.6419,-1.6419 -0.4668,0.2333 0.9901,-0.4951 0.2087,-0.1043 0.2863,-0.3907 0.495,-0.495 0.1476,-0.074 0.3475,0.074 0.4951,0 0.2087,-0.1044 0.2863,-0.3907 0.495,-0.4951 0.2952,-0.1476 0.6949,0.1476 0.9901,0 0.2088,-0.1043 0.2863,-0.3907 0.4951,-0.495 0.2952,-0.1476 0.6949,0.1476 0.9901,0 0.2087,-0.1044 0.2863,-0.3907 0.495,-0.4951 0.2952,-0.1476 0.7568,0.2334 0.9901,0 0.1167,-0.1167 -0.1167,-0.3783 0,-0.495 0.1632,-0.1632 1.622,0.1194 1.9802,0 0.2214,-0.074 0.2863,-0.3907 0.4951,-0.4951 0.2685,-0.1343 1.8447,0.1355 1.9802,0 0.1167,-0.1167 -0.1167,-0.3783 0,-0.495 0.1167,-0.1167 0.33,0 0.495,0 0.165,0 0.3301,0 0.4951,0 0.2229,0 1.3345,0.075 1.4851,0 0.2088,-0.1044 0.2737,-0.4213 0.4951,-0.4951 0,-7e-4 1.4846,5e-4 1.4851,0 0.2609,-0.2609 0.165,-0.8251 0.4951,-0.9901 0.2087,-0.1043 0.2863,0.3907 0.495,0.4951 0.1476,0.074 0.3475,0.074 0.4951,0 0.2087,-0.1044 0.2863,-0.3907 0.495,-0.4951 0.3961,-0.198 1.0891,0.198 1.4852,0 0.2087,-0.1043 0.2863,-0.3907 0.495,-0.495 0.3961,-0.198 1.0891,0.198 1.4852,0 0.2087,-0.1044 0.2863,-0.3907 0.495,-0.4951 0.128,-0.064 2.6194,0 2.9703,0 2.1452,0 4.2904,0 6.4357,0 1.1551,0 2.3102,0 3.4653,0 0.165,0 0.33,0 0.495,0 0.1651,0 0.4951,-0.165 0.4951,0 0,0.165 -0.6601,0 -0.4951,0 0.3301,0 0.6601,0 0.9901,0 0.4951,0 0.9901,0 1.4852,0 0.165,0 0.495,-0.165 0.495,0 0,0.165 -0.66,0 -0.495,0 0.1176,0 1.8692,-0.055 1.9802,0 0.2087,0.1044 0.2863,0.3907 0.495,0.4951 0.1476,0.074 0.3301,0 0.4951,0 0.165,0 0.33,0 0.495,0 0.8251,0 1.6502,0 2.4753,0 0.165,0 0.3474,-0.074 0.495,0 0.2088,0.1043 0.2864,0.3907 0.4951,0.495 0.2685,0.1343 1.8447,-0.1354 1.9802,0 0.1167,0.1167 -0.165,0.4951 0,0.4951 0.2334,0 0.2617,-0.4951 0.495,-0.4951 0.1651,0 -0.1166,0.3784 0,0.4951 0.2334,0.2333 0.6949,-0.1476 0.9901,0 0.2088,0.1043 0.2864,0.3907 0.4951,0.495 0.3111,0.1556 1.669,-0.1555 1.9802,0 0.1476,0.074 -0.1476,0.4213 0,0.4951 2.2536,0 0.028,-0.2334 1.4851,0.495 0.5281,0.2641 0.4621,-0.264 0.9901,0 0.2088,0.1044 0.2863,0.3907 0.4951,0.4951 0.1476,0.074 0.3474,-0.074 0.495,0 0.2088,0.1043 0.2617,0.495 0.4951,0.495 0.2333,0 0.33,-0.66 0.495,-0.495 0.165,0.165 -0.5994,0.2863 -0.495,0.495 0,0.01 1.4851,0.6088 1.4851,0.9901 0,0.165 -0.6117,-0.1167 -0.495,0 0.2609,0.2609 0.7292,0.2342 0.9901,0.4951 0.1167,0.1167 -0.165,0.495 0,0.495 0.2333,0 0.2863,-0.5994 0.495,-0.495 2.3906,1.1953 -0.3768,0.7314 0,1.4851 0.165,0.3301 0.6831,0.2904 0.9901,0.4951 0.1942,0.1294 0.3301,0.33 0.4951,0.495 0.165,0.165 0.3656,0.3009 0.495,0.4951 0.9829,0.4461 0.1908,1.3716 0.4951,1.9802 0.2087,0.4174 0.66,0.66 0.9901,0.9901 0.165,0.165 0.4212,0.2736 0.495,0.495 0.1044,0.3131 -0.1476,0.6949 0,0.9901 0.074,0.1476 0.3784,-0.1167 0.4951,0 0.2609,0.2609 0.2903,0.6831 0.495,0.9901 0.1295,0.1942 0.4951,0.2617 0.4951,0.4951 0,0.2333 -0.7284,0.495 -0.4951,0.495 0.369,0 0.7292,-0.756 0.9901,-0.495 0.2609,0.2609 -0.495,0.6211 -0.495,0.9901 0,0.2333 0.33,0.33 0.495,0.495 0.165,0.165 0.2863,0.3907 0.4951,0.4951 0.1476,0.074 0.495,-0.1651 0.495,0 0,0.2333 -0.5688,0.2736 -0.495,0.495 0.1476,0.4428 0.71,0.6167 0.9901,0.9901 0.2214,0.2952 0.2903,0.6831 0.495,0.9901 0.1295,0.1942 0.3656,0.3009 0.4951,0.4951 0.2046,0.307 0.2341,0.7291 0.495,0.9901 0.1167,0.1166 0.4951,-0.1651 0.4951,0 0,0.5218 -0.5974,0.9734 -0.4951,1.4851 0.092,0.4577 0.7814,0.5726 0.9901,0.9901 0.074,0.1476 -0.5472,-0.1565 -0.495,0 0.1881,0.5644 0.7691,0.9327 0.9901,1.4852 0.1225,0.3064 -0.1044,0.677 0,0.9901 0.074,0.2213 0.495,0.2616 0.495,0.495 0,0.2334 -0.495,0.2617 -0.495,0.4951 0,0.2333 0.3906,0.2863 0.495,0.495 0.1476,0.2952 -0.1476,0.6949 0,0.9901 0.1044,0.2087 0.4951,0.2617 0.4951,0.495 0,0.1651 -0.5689,-0.1475 -0.4951,0 2.8053,2.8053 0.4951,-0.165 0.4951,1.4852 0,0.165 0.3474,-0.074 0.495,0 0.2087,0.1044 0.4951,0.2617 0.4951,0.495 0,0.2334 -0.4951,0.2617 -0.4951,0.4951 0,0.369 0.3784,0.64 0.4951,0.9901 0.052,0.1565 -0.074,0.3475 0,0.495 0.1043,0.2088 0.3906,0.2864 0.495,0.4951 0.074,0.1476 -0.074,0.3474 0,0.495 0.1044,0.2088 0.4951,0.2617 0.4951,0.4951 0,0.2334 -0.5689,0.2737 -0.4951,0.495 0.1476,0.4428 0.8425,0.5474 0.9901,0.9901 0.074,0.2214 -0.495,0.2617 -0.495,0.4951 0,0.2334 0.2863,0.3907 0.495,0.495 0.1476,0.074 0.4951,-0.165 0.4951,0 0,0.369 -0.6118,0.6401 -0.4951,0.9901 0,0.011 1.4852,0.6065 1.4852,0.9901 0,0.369 -0.6601,0.6601 -0.4951,0.9901 0.1476,0.2952 0.677,-0.1043 0.9901,0 0.6974,0.2325 0.7939,1.6859 0.9901,1.9802 0.091,0.1373 0.4035,-0.1373 0.4951,0 0.2894,0.4342 0.126,1.1162 0.495,1.4852 0.165,0.165 0.33,-0.6601 0.4951,-0.4951 0.3689,0.369 0.2616,1.0184 0.495,1.4852 0.1044,0.2087 0.3907,0.2863 0.4951,0.495 0.074,0.1476 0.165,0.4951 0,0.4951 -0.1651,0 0,-0.6601 0,-0.4951 0,0.3301 0,0.6601 0,0.9901 0,0.165 -0.1167,0.3784 0,0.4951 0.1166,0.1167 0.3474,-0.074 0.495,0 0.2087,0.1043 0.2617,0.495 0.4951,0.495 0.165,0 -0.1651,-0.495 0,-0.495 0.33,0 -0.2334,0.7567 0,0.9901 0.1166,0.1167 0.3783,-0.1167 0.495,0 0.1167,0.1167 -0.1167,0.3783 0,0.495 0.1167,0.1167 0.4951,-0.165 0.4951,0 0,0.165 -0.4951,-0.165 -0.4951,0 0,0.2334 0.2863,0.3907 0.4951,0.4951 0.1475,0.074 0.495,-0.165 0.495,0 0,0.165 -0.495,-0.165 -0.495,0 0,0.1596 0.8525,0.715 0.9901,0.9901 0.074,0.1476 -0.1651,0.495 0,0.495 0.2333,0 0.33,-0.66 0.495,-0.495 0.165,0.165 -0.495,0.2617 -0.495,0.495 0,0.2334 0.2616,0.4951 0.495,0.4951 0.165,0 -0.165,-0.4951 0,-0.4951 0.2334,0 0.4951,0.2617 0.4951,0.4951 0,0.2333 -0.3301,0.66 -0.4951,0.495 -0.165,-0.165 0.33,-0.66 0.4951,-0.495 0.2333,0.2333 0,0.66 0,0.9901 0,0.165 0,-0.6601 0,-0.4951 0,0.3301 -0.1476,0.6949 0,0.9901 0.074,0.1476 0.495,-0.165 0.495,0 0,1.6419 -0.9276,0 -0.495,0 0.33,0 -0.3301,0.9901 0,0.9901 0.2333,0 0.33,-0.66 0.495,-0.495 0.2334,0.2333 0,0.66 0,0.9901 0,0.165 -0.165,0.495 0,0.495 0.2334,0 0.4951,-0.7284 0.4951,-0.495 -0.1999,3.4387 -0.6601,0.33 -0.4951,0.495 0.2609,0.2609 0.2904,0.6831 0.4951,0.9901 0.1294,0.1942 0.495,0.2617 0.495,0.4951 0,0.2333 -0.6601,0.33 -0.495,0.495 0.2333,0.2334 0.66,0 0.9901,0 0.165,0 -0.5689,-0.1476 -0.4951,0 0.2087,0.4175 0.7814,0.5727 0.9901,0.9901 0.074,0.1476 -0.6601,0 -0.495,0 0.33,0 0.8425,-0.2952 0.99,0 0.1651,0.3301 -0.495,0.6211 -0.495,0.9901 0,0.2334 0.2617,-0.495 0.495,-0.495 0.2334,0 0.4951,0.2617 0.4951,0.495 0,0.165 -0.4951,-0.165 -0.4951,0 0,0.2334 0.2617,0.4951 0.4951,0.4951 0.165,0 -0.165,-0.4951 0,-0.4951 0.2334,0 0.495,0.2617 0.495,0.4951 0,0.165 -0.495,0.165 -0.495,0 0,-0.165 0.33,0 0.495,0 0.1651,0 0.3784,-0.1167 0.4951,0 0.1167,0.1167 -0.165,0.495 0,0.495 0.2334,0 0.33,-0.66 0.495,-0.495 0.1651,0.165 -0.5994,0.2863 -0.495,0.495 1.2504,2.5009 0.9397,0 0.9901,0 0.1864,0 1.2987,1.4852 1.4851,1.4852 0.369,0 0.6322,-0.5846 0.9901,-0.4951 0.4528,0.1132 0.6168,0.7101 0.9901,0.9901 0.2952,0.2214 0.6601,0.3301 0.9901,0.4951 0.3301,0.165 0.6212,0.495 0.9901,0.495 0.1651,0 0,-0.33 0,-0.495 0.4951,0.165 1.051,0.2056 1.4852,0.495 0.1373,0.092 -0.165,0.4951 0,0.4951 0.5917,0 0.455,-1.5252 1.4851,-0.4951 0.1651,0.165 -0.66,0.33 -0.495,0.4951 0.2334,0.2333 0.6601,0 0.9901,0 0.165,0 0.33,0 0.495,0 0.1651,0 0.3475,-0.074 0.4951,0 0.2087,0.1043 0.2617,0.495 0.495,0.495 0.6601,0 -0.825,-1.1551 0.4951,-0.495 0.2087,0.1043 0.495,0.2616 0.495,0.495 0,0.165 -0.66,0 -0.495,0 0.33,0 0.6601,0 0.9901,0 0.495,0 0.9901,0 1.4851,0 0.1651,0 0.4951,-0.165 0.4951,0 0,0.165 -0.6118,-0.1167 -0.4951,0 0.2609,0.2609 0.6211,0.4951 0.9901,0.4951 0.165,0 -0.1167,-0.3784 0,-0.4951 0.1167,-0.1167 0.3301,0 0.4951,0 0.495,0 0.9901,0 1.4851,0 0.165,0 -0.495,0.165 -0.495,0 0,-0.165 0.33,0 0.495,0 0.6601,0 1.3202,0 1.9802,0 1.9802,0 3.9604,0 5.9406,0 1.1551,0 2.3103,0 3.4654,0 0.165,0 0.33,0 0.495,0 0.165,0 0.3475,-0.074 0.4951,0 0.2087,0.1044 0.33,0.33 0.495,0.4951 0.4951,0 1.0049,-0.1201 1.4852,0 0.2264,0.057 0.2616,0.495 0.495,0.495 0.2334,0 0.2737,-0.4212 0.4951,-0.495 2.8052,-0.9351 0.495,0.4675 0.495,0 0,-0.1651 0.33,0 0.4951,0 0.165,0 0.495,-0.1651 0.495,0 0,0.165 -0.3784,-0.1167 -0.495,0 -0.1167,0.1166 -0.1476,0.4212 0,0.495 0.2952,0.1476 0.7567,-0.2334 0.9901,0 0.8906,0.8907 -1.5574,0.5312 -0.4951,0 1.1268,-0.5634 0.8251,0.165 1.4852,0.4951 0.1476,0.074 0.3474,-0.074 0.495,0 0.2087,0.1043 0.2617,0.495 0.4951,0.495 0.165,0 -0.1167,-0.3784 0,-0.495 0.1166,-0.1167 0.495,-0.1651 0.495,0 0,0.165 -0.33,0 -0.495,0 3.4653,0 1.9802,0 4.4554,0 0.33,0 0.6837,-0.1226 0.9901,0 0.6852,0.274 1.2523,0.8687 1.9802,0.9901 0.364,0.061 0.6211,-0.4951 0.9901,-0.4951 0.2334,0 0.3009,0.3656 0.4951,0.4951 0.307,0.2046 0.6211,0.495 0.9901,0.495 0.2333,0 0.2616,-0.495 0.495,-0.495 0.738,0 1.2422,0.9901 1.9802,0.9901 0.165,0 -0.165,-0.4951 0,-0.4951 0.369,0 0.6831,0.2904 0.9901,0.4951 0.1942,0.1294 0.2617,0.495 0.495,0.495 0.369,0 0.6212,-0.495 0.9901,-0.495 0.1651,0 -0.074,0.3474 0,0.495 0.1044,0.2087 0.2617,0.4951 0.4951,0.4951 0.5218,0 0.9704,-0.5809 1.4851,-0.4951 0.5869,0.098 0.908,0.8458 1.4852,0.9901 0.2264,0.057 0.2863,-0.5994 0.495,-0.495 0.3301,0.165 0.1371,0.9006 0.4951,0.9901 0.5062,0.1265 0.9901,-0.6601 1.4851,-0.4951 0.3131,0.1044 0,0.6601 0,0.9901 0.4951,-0.165 0.9634,-0.495 1.4852,-0.495 0.2334,0 -0.5994,0.2863 -0.4951,0.495 0.1651,0.33 0.6212,0.4951 0.9901,0.4951 0.2334,0 -0.66,-0.3301 -0.495,-0.4951 1.4026,-1.4026 0.8663,0.3713 0.9901,0.4951 0.1167,0.1166 0.3474,-0.074 0.495,0 0.2088,0.1043 0.2617,0.495 0.4951,0.495 0.2334,0 0.2617,-0.495 0.495,-0.495 0.369,0 0.6401,0.3783 0.9901,0.495 0.1566,0.052 0.3475,-0.074 0.4951,0 0.2087,0.1044 0.2617,0.4951 0.495,0.4951 0.1651,0 -0.165,-0.4951 0,-0.4951 0.2334,0 0.2864,0.3907 0.4951,0.4951 0.3111,0.1555 1.669,-0.1556 1.9802,0 0.2087,0.1043 0.2617,0.495 0.495,0.495 0.2334,0 0.2617,-0.495 0.4951,-0.495 0.369,0 0.64,0.3783 0.9901,0.495 0.1565,0.052 0.3474,-0.074 0.495,0 0.2088,0.1044 0.2617,0.4951 0.4951,0.4951 0.165,0 -0.165,-0.4951 0,-0.4951 0.165,0 -0.1167,0.3784 0,0.4951 0.2609,0.2609 0.6211,0.495 0.9901,0.495 0.805,0 0.125,-0.9276 0.9901,-0.495 0.2087,0.1043 0.495,0.2616 0.495,0.495 0,0.2334 -0.2617,0.4951 -0.495,0.4951 -0.165,0 -0.165,-0.4951 0,-0.4951 0.369,0 0.8251,0.165 0.9901,0.4951 0.1043,0.2087 -0.7284,0.495 -0.4951,0.495 0.369,0 0.7292,-0.756 0.9901,-0.495 0.2609,0.2609 -0.6117,0.64 -0.495,0.9901 -0.2725,1.6125 1.2518,0.028 1.4851,0.495 0.7843,1.5686 -1.0244,0.4607 0.4951,1.9802 0.1167,0.1167 0.3474,-0.074 0.495,0 1.336,0.668 -0.017,0.2219 0.4951,0.9901 0.2589,0.3884 0.7813,0.5726 0.9901,0.9901 0.074,0.1476 -0.5689,-0.1476 -0.4951,0 0.2088,0.4175 0.8425,0.5473 0.9901,0.9901 0.074,0.2214 -0.66,0.33 -0.495,0.495 0.2333,0.2334 0.8425,-0.2951 0.9901,0 -0.086,0.1717 -0.7111,1.0532 -0.4951,1.4852 0.1044,0.2087 0.2617,0.495 0.4951,0.495 0.165,0 0,-0.66 0,-0.495 0,0.33 -0.2334,0.7567 0,0.9901 0.165,0.165 0.495,-0.7284 0.495,-0.4951 0,0.5219 -0.864,1.1162 -0.495,1.4852 0.2609,0.2609 0.8251,0.165 0.9901,0.495 0.5917,1.1835 -2.362,-0.3818 -0.4951,1.4852 0.2334,0.2334 0.8071,-0.2746 0.9901,0 0.8801,1.3201 -0.2933,1.1001 0,1.9802 0.1167,0.35 0.3784,0.64 0.4951,0.9901 0.052,0.1565 -0.1167,0.3784 0,0.495 0.2609,0.261 0.7292,0.2342 0.9901,0.4951 0.1167,0.1167 0,0.33 0,0.495 0,0.4951 -0.2746,1.0733 0,1.4852 0.183,0.2746 0.7567,-0.2334 0.9901,0 0.165,0.165 -0.5994,0.2863 -0.4951,0.495 0.165,0.3301 0.7292,0.2342 0.9901,0.4951 0.1167,0.1167 -0.5688,-0.1476 -0.495,0 0.2087,0.4174 0.7312,0.6017 0.9901,0.9901 0.091,0.1373 -0.1167,0.3784 0,0.495 0.2609,0.2609 0.7292,0.2342 0.9901,0.4951 0.1166,0.1167 -0.5689,-0.1476 -0.4951,0 0.2087,0.4174 0.6601,0.6601 0.9901,0.9901 0.165,0.165 0.6601,0.33 0.4951,0.495 -0.1651,0.165 -0.6601,-0.66 -0.4951,-0.495 0.33,0.33 0.6018,0.7312 0.9901,0.9901 0.1373,0.091 0.3784,-0.1167 0.4951,0 0,0 0.611,1.4851 0.9901,1.4851 0.2333,0 0.33,-0.66 0.495,-0.495 0.2334,0.2334 -0.2334,0.7567 0,0.9901 0.165,0.165 0.33,-0.6601 0.4951,-0.4951 0.2333,0.2334 -0.2952,0.8425 0,0.9901 0.33,0.165 0.66,-0.66 0.9901,-0.495 0.2952,0.1476 -0.1476,0.6949 0,0.9901 0.1476,0.2952 0.7567,-0.2334 0.9901,0 0.2609,0.2609 0.165,0.8251 0.495,0.9901 0.2087,0.1043 0.33,-0.6601 0.4951,-0.4951 0.2333,0.2334 -0.2334,0.7568 0,0.9901 0.165,0.165 0.33,-0.66 0.495,-0.495 0.2334,0.2333 -0.2952,0.8425 0,0.9901 1.6673,0.8336 1.1223,-1.1223 0.4951,-0.4951 -0.2959,0.2959 0.3017,0.9901 0.495,0.9901 0.165,0 -0.165,-0.495 0,-0.495 0.165,0 -0.1167,0.3783 0,0.495 0.2609,0.2609 0.8251,0.165 0.9901,0.4951 0.1044,0.2087 -0.7284,0.495 -0.495,0.495 0.3689,0 0.7291,-0.2341 0.9901,-0.495 0.1166,-0.1167 -0.4213,-0.1476 -0.4951,0 -0.1476,0.2952 -0.2334,0.7567 0,0.9901 0.165,0.165 0.33,-0.6601 0.4951,-0.4951 0.2333,0.2334 0,0.6601 0,0.9901 0,0.165 -0.1476,-0.5688 0,-0.495 0.4174,0.2087 0.66,0.66 0.9901,0.9901 0.165,0.165 -0.3301,-0.6601 -0.4951,-0.4951 -0.2334,0.2334 0,0.6601 0,0.9901 0,0.165 -0.165,-0.495 0,-0.495 0.165,0 0,0.33 0,0.495 0,0.3301 -0.1044,0.677 0,0.9901 0.074,0.2214 0.2863,0.3907 0.4951,0.4951 0.1475,0.074 0.495,-0.165 0.495,0 0,0.369 -0.4056,0.6321 -0.495,0.9901 -0.1201,0.4802 0,0.9901 0,1.4851 0,1.1551 0,2.3103 0,3.4654 0,0.495 0.2213,1.0423 0,1.4851 -0.1651,0.33 -0.8251,0.165 -0.9901,0.4951 -0.1044,0.2087 0.495,0.2616 0.495,0.495 0,0.1596 -0.8526,0.715 -0.9901,0.9901 -0.074,0.1476 0,0.33 0,0.4951 0,0.33 0.08,0.6699 0,0.9901 -0.09,0.3579 -0.4056,0.6321 -0.495,0.9901 -0.08,0.3201 0.1476,0.6949 0,0.9901 -0.074,0.1476 -0.4951,-0.1651 -0.4951,0 0,0.5218 0.6216,0.9789 0.4951,1.4851 -0.09,0.358 -0.7292,0.2341 -0.9901,0.4951 -2.831,1.7977 0.1476,0.6949 0,0.9901 -0.2088,0.4174 -0.7312,0.6017 -0.9901,0.9901 -0.1831,0.2746 0.1476,0.6949 0,0.9901 -0.1285,0.2568 -1.4852,1.3315 -1.4852,1.4851 0,0.2334 0.5994,0.2863 0.4951,0.4951 -0.1651,0.33 -0.6831,0.2903 -0.9901,0.495 -0.3884,0.2589 -0.5727,0.7814 -0.9901,0.9901 -0.1476,0.074 -0.4951,-0.165 -0.4951,0 0,0.369 0.6117,0.64 0.4951,0.9901 -0.1167,0.3501 -0.6831,0.2904 -0.9901,0.4951 -0.4272,0.2847 -1.0985,1.0984 -1.4852,1.4851 -0.165,0.165 -0.2863,0.3907 -0.495,0.495 -0.1476,0.074 -0.3475,-0.074 -0.4951,0 -0.2087,0.1044 -0.2863,0.3907 -0.495,0.4951 -0.2952,0.1476 -0.8425,-0.2952 -0.9901,0 -0.1476,0.2952 0,0.6601 0,0.9901 0,0.165 0,-0.6601 0,-0.4951 0,0.3301 0,0.6601 0,0.9901 0,0.1651 0,-0.66 0,-0.495 0,0.33 0.2333,0.7567 0,0.9901 -0.1651,0.165 -0.3009,-0.6245 -0.4951,-0.4951 -0.495,0.3301 -0.495,1.1552 -0.9901,1.4852 -0.1942,0.1294 -0.2863,-0.3907 -0.495,-0.4951 -0.1476,-0.074 -0.4213,-0.1475 -0.4951,0 -0.1476,0.2952 0.2334,0.7568 0,0.9901 -0.165,0.1651 -0.2863,-0.5994 -0.495,-0.495 -0.3301,0.165 -0.4951,0.6211 -0.4951,0.9901 1.5375,-0.403 0.074,-0.6427 0,-0.4951 -0.1476,0.2952 0,0.6601 0,0.9901 0,0.1651 0.1167,-0.3783 0,-0.495 -0.1167,-0.1167 -0.3783,-0.1167 -0.495,0 -0.2609,0.2609 -0.165,0.8251 -0.4951,0.9901 -0.2087,0.1044 -0.33,-0.6601 -0.495,-0.4951 -0.2334,0.2334 0.2333,0.7568 0,0.9901 -0.165,0.1651 -0.3301,-0.66 -0.4951,-0.495 -0.2333,0.2334 0.2334,0.7567 0,0.9901 -0.165,0.165 -0.33,-0.6601 -0.495,-0.4951 -0.2334,0.2334 0.2333,0.7568 0,0.9901 -0.165,0.1651 -0.6601,-0.33 -0.4951,-0.495 0.165,-0.165 0.5994,0.2863 0.4951,0.495 -0.165,0.3301 -0.7292,0.2342 -0.9901,0.4951 -0.1167,0.1167 0.1167,0.3784 0,0.495 -0.1167,0.1167 -0.3784,-0.1166 -0.4951,0 -0.2609,0.261 -0.2903,0.6831 -0.495,0.9901 -0.1295,0.1942 -0.4213,0.2737 -0.4951,0.4951 -0.1043,0.3131 0.1476,0.6949 0,0.9901 -0.074,0.1476 -0.495,0.165 -0.495,0 0,-0.165 0.495,-0.165 0.495,0 0,0.369 -0.2341,0.7292 -0.495,0.9901 -0.1167,0.1167 0.1167,-0.6117 0,-0.4951 -0.2609,0.261 -0.2342,0.7292 -0.4951,0.9901 -0.1167,0.1167 0,-0.66 0,-0.495 0,0.2947 0.093,2.7846 0,2.9703 -0.074,0.1476 -0.33,0 -0.495,0 0,0.33 0,0.66 0,0.9901 0,1.9339 0.1476,0.052 -0.4951,1.9802 -0.052,0.1565 0.074,0.3474 0,0.495 -0.1043,0.2088 -0.3907,0.2863 -0.495,0.4951 -0.074,0.1476 0,0.33 0,0.495 0,0.4951 0.1565,1.0155 0,1.4852 -0.052,0.1565 -0.3475,-0.074 -0.4951,0 -0.2087,0.1043 -0.3907,0.2863 -0.495,0.495 -0.074,0.1476 0.165,0.4951 0,0.4951 -0.7284,0 -0.4951,-1.7586 -0.4951,0.495 0,0.165 0.1167,-0.3783 0,-0.495 -0.1167,-0.1167 -0.3783,-0.1167 -0.495,0 -0.1167,0.1167 0.1167,0.3783 0,0.495 -0.2334,0.2334 -0.8425,-0.2952 -0.9901,0 -0.1476,0.2952 0.2333,0.7568 0,0.9901 -0.2051,0.7001 -1.1351,-0.35 -1.4852,0 -0.2609,0.2609 -0.165,0.8251 -0.495,0.9901 -1.166,0.583 0.1759,-1.078 -0.9901,-0.495 -0.7537,0.3768 -0.2899,0.9901 -1.4852,0.9901 -0.2141,0 -1.6478,-0.7166 -1.9802,-0.4951 -0.3883,0.2589 -0.5567,0.8168 -0.9901,0.9901 -0.4596,0.1839 -0.9901,0 -1.4851,0 -0.33,0 -0.7155,-0.183 -0.9901,0 -0.307,0.2047 -0.165,0.8251 -0.4951,0.9901 -0.2087,0.1044 -0.2736,-0.5688 -0.495,-0.495 -0.4428,0.1476 -0.5473,0.8425 -0.9901,0.9901 -0.9984,0.3328 0.012,-1.163 -0.9901,-0.4951 -0.3884,0.2589 -0.5373,0.8769 -0.9901,0.9901 -0.358,0.089 -0.6211,-0.495 -0.9901,-0.495 -0.369,0 -0.6321,0.4055 -0.9901,0.495 -0.3202,0.08 -0.6601,0 -0.9901,0 -0.33,0 -0.6601,0 -0.9901,0 -1.1551,0 -2.3102,0 -3.4653,0 -4.4555,0 -8.9109,0 -13.3664,0 -3.6303,0 -7.2607,0 -10.8911,0 -1.3201,0 -2.6402,0 -3.9604,0 -0.2763,0 -2.2486,0.076 -2.4752,0 -0.2214,-0.074 -0.2863,-0.3907 -0.4951,-0.495 -0.1476,-0.074 -0.3474,0.074 -0.495,0 -0.2087,-0.1044 -0.2863,-0.3907 -0.4951,-0.4951 -0.1476,-0.074 -0.3474,0.074 -0.495,0 -0.2087,-0.1043 -0.2617,-0.495 -0.4951,-0.495 -0.165,0 0.1476,0.4212 0,0.495 -0.2952,0.1476 -0.66,0 -0.9901,0 -0.9901,0 -1.9802,0 -2.9703,0 -0.33,0 -0.6699,-0.08 -0.9901,0 -0.896,-0.2984 -0.9207,0.802 -1.4851,0.9901 -0.3131,0.1044 -0.6601,0 -0.9901,0 -0.33,0.3301 -0.6018,0.7312 -0.9901,0.9901 -0.1373,0.092 -0.3385,-0.052 -0.4951,0 -0.35,0.1167 -0.683,0.2904 -0.9901,0.4951 -0.2033,0.1356 -1.3495,1.2817 -1.4851,1.4851 -0.2047,0.307 -0.3052,0.6737 -0.4951,0.9901 -0.3061,0.5102 -0.724,0.953 -0.9901,1.4852 -0.074,0.1476 0.1167,0.3783 0,0.495 -0.1166,0.1167 -0.3474,-0.074 -0.495,0 -0.2087,0.1044 -0.33,0.33 -0.4951,0.4951 -0.165,0.165 -0.33,0.33 -0.495,0.495 -0.165,0.165 -0.3907,0.2863 -0.4951,0.4951 -0.074,0.1476 0.1476,0.4212 0,0.495 -0.2951,0.1476 -0.7567,-0.2334 -0.99,0 -0.1651,0.165 0.495,0.2617 0.495,0.4951 0,0.2333 -0.3656,0.3008 -0.495,0.495 -0.2047,0.307 -0.2342,0.7292 -0.4951,0.9901 -0.1167,0.1167 0,-0.6601 0,-0.495 0,0.66 0,1.3201 0,1.9802 0,0.165 0,-0.6601 0,-0.4951 0,0.33 0,0.6601 0,0.9901 0,0.165 0.165,-0.495 0,-0.495 -0.2334,0 -0.2863,0.3906 -0.495,0.495 -0.1784,0.089 -2.4915,0 -0.9901,0 0,0.6601 0.1601,1.3398 0,1.9802 -0.04,0.1601 -0.3475,-0.074 -0.4951,0 -2.0603,1.0301 0.5292,-0.034 -0.495,0.9901 -0.1167,0.1167 -0.3784,-0.1167 -0.4951,0 -0.1167,0.1167 0.074,0.3475 0,0.4951 -0.1044,0.2087 -0.3656,0.3008 -0.495,0.495 -0.2047,0.307 -0.2342,0.7292 -0.4951,0.9901 -0.1167,0.1167 -0.4035,-0.1373 -0.495,0 -0.2895,0.4342 -0.2056,1.051 -0.4951,1.4852 -0.6464,0.9695 -0.4944,-1.4879 -0.9901,0.495 -0.1201,0.4803 0.3501,1.1351 0,1.4852 -0.35,0.35 -1.1351,-0.3501 -1.4851,0 -0.261,0.2609 0.495,0.6211 0.495,0.9901 0,0.3791 -1.4816,0.9865 -1.4851,0.99 -5e-4,5e-4 7e-4,1.483 0,1.4852 -0.1476,0.4428 -0.7312,0.6017 -0.9901,0.9901 -0.2047,0.307 -0.2904,0.6831 -0.4951,0.9901 -0.2589,0.3883 -0.8425,0.5473 -0.9901,0.9901 0,2.2536 0.2334,0.028 -0.495,1.4851 -0.074,0.1476 0.1166,0.3784 0,0.4951 -0.261,0.2609 -0.8251,0.165 -0.9901,0.495 -0.1044,0.2088 0.5994,0.2864 0.495,0.4951 -0.165,0.33 -0.8251,0.165 -0.9901,0.495 -0.1044,0.2088 0.4951,0.2617 0.4951,0.4951 0,0.369 -0.3784,0.64 -0.4951,0.9901 -0.052,0.1565 0.1167,0.3784 0,0.495 -0.2609,0.261 -0.7854,0.1881 -0.9901,0.4951 -0.1347,0.202 0.1455,2.1843 0,2.4752 -0.1044,0.2088 -0.4212,0.2737 -0.495,0.4951 -0.1044,0.3131 0.1476,0.6949 0,0.9901 -0.074,0.1476 -0.3784,-0.1167 -0.4951,0 -0.2334,0.2334 0.2334,0.7567 0,0.9901 -0.2609,0.2609 -0.8251,0.165 -0.9901,0.495 -0.1043,0.2088 0.6601,0.3301 0.4951,0.4951 -0.2334,0.2334 -0.7568,-0.2334 -0.9901,0 -0.165,0.165 0.5994,0.2863 0.495,0.495 -0.165,0.3301 -0.8734,0.145 -0.9901,0.4951 -0.1167,0.35 0.6118,0.64 0.4951,0.9901 -0.1167,0.35 -0.8251,0.165 -0.9901,0.495 -0.1044,0.2088 0.495,0.2617 0.495,0.4951 0,0.2333 -0.33,0.33 -0.495,0.495 -0.3301,0.3301 -0.7312,0.6018 -0.9901,0.9901 -0.4951,0.7426 0.9901,0.4951 0,1.4852 -0.2334,0.2333 -0.7568,-0.2334 -0.9901,0 -0.165,0.165 0.5994,0.2863 0.495,0.495 -0.165,0.3301 -0.7292,0.2342 -0.9901,0.4951 -0.1167,0.1167 0.3784,-0.1167 0.4951,0 0.1167,0.1167 0.1167,0.3783 0,0.495 -0.2334,0.2334 -0.9901,-0.33 -0.9901,0 0,0.2334 0.33,0.3301 0.495,0.4951 -0.33,0.165 -0.8251,0.165 -0.9901,0.495 -0.1043,0.2088 0.4951,0.2617 0.4951,0.4951 0,0.165 -0.3784,-0.1167 -0.4951,0 -0.2333,0.2333 0.1831,0.7155 0,0.9901 -0.2589,0.3883 -0.7312,0.6017 -0.9901,0.9901 -0.091,0.1373 0,0.33 0,0.495 0,0.3301 0.1476,0.6949 0,0.9901 -0.2087,0.4175 -0.8769,0.5373 -0.9901,0.9901 -0.089,0.358 0.3784,0.6401 0.4951,0.9901 0.052,0.1566 0,0.3301 0,0.4951 0,0.165 0.074,0.3474 0,0.495 -0.1044,0.2087 -0.3907,0.2863 -0.4951,0.4951 -0.074,0.1476 0.1167,0.3783 0,0.495 -0.1167,0.1167 -0.495,-0.165 -0.495,0 0,0.2334 0.3907,0.2863 0.495,0.4951 0.074,0.1476 0,0.33 0,0.495 0,0.165 0.1167,0.3784 0,0.4951 -0.2609,0.2609 -0.8251,0.165 -0.9901,0.495 -0.1043,0.2087 0.4951,0.2617 0.4951,0.4951 0,0.2333 -0.3907,0.2863 -0.4951,0.495 -0.074,0.1476 0.1167,0.3784 0,0.4951 -0.2609,0.2609 -0.8251,0.165 -0.9901,0.495 -0.1043,0.2087 0.4951,0.2617 0.4951,0.4951 0,0.3802 -1.4816,0.9847 -1.4852,0.9901 -0.9901,1.4851 0.4951,0.495 0,1.4851 -0.1043,0.2087 -0.3907,0.2863 -0.495,0.4951 -0.074,0.1476 0.1167,0.3783 0,0.495 -0.1167,0.1167 -0.4951,0.165 -0.4951,0 0,-0.165 0.6601,0 0.4951,0 -0.3301,0 -0.6601,0 -0.9901,0 -0.165,0 0.495,-0.165 0.495,0 0,0.165 -0.3385,-0.052 -0.495,0 -1.9802,0.6601 0.1001,0.475 -2.4753,0.9901 -0.3236,0.065 -0.6699,-0.08 -0.9901,0 -0.3579,0.089 -0.6211,0.4951 -0.9901,0.4951 -0.165,0 0.165,-0.4951 0,-0.4951 -0.5218,0 -1.0509,0.2056 -1.4851,0.4951 -0.1373,0.091 0.165,0.495 0,0.495 -0.2334,0 -0.2617,-0.495 -0.4951,-0.495 -0.165,0 0.1566,0.4428 0,0.495 -0.4696,0.1566 -0.9901,0 -1.4851,0 -0.165,0 0.6601,0 0.495,0 -2.3102,0 -4.6204,0 -6.9307,0 -1.1551,0 -2.3102,0 -3.4653,0 -0.33,0 -0.6601,0 -0.9901,0 -0.33,0 -0.677,0.1044 -0.9901,0 -0.2214,-0.074 -0.2863,-0.3907 -0.4951,-0.495 -0.1475,-0.074 -0.3474,0.074 -0.495,0 -0.5322,-0.2661 -0.9207,-0.802 -1.4851,-0.9901 -0.1566,-0.052 0.1166,0.3783 0,0.495 -0.1167,0.1167 -0.4213,0.1476 -0.4951,0 -0.1476,-0.2952 0.2952,-0.8425 0,-0.9901 -0.33,-0.165 -0.6211,0.4951 -0.9901,0.4951 -0.165,0 0.1476,-0.4213 0,-0.4951 -0.2952,-0.1476 -0.6949,0.1476 -0.9901,0 -0.1476,-0.074 0.1167,-0.3784 0,-0.495 -0.2609,-0.261 -0.7292,-0.2342 -0.9901,-0.4951 -0.2609,-0.2609 -0.188,-0.7854 -0.495,-0.9901 -0.2746,-0.1831 -0.677,0.1044 -0.9901,0 -0.2214,-0.074 -0.4951,-0.2617 -0.4951,-0.495 0,-0.1651 0.3784,0.1166 0.4951,0 0.1166,-0.1167 0.1476,-0.4213 0,-0.4951 -0.2952,-0.1476 -0.7568,0.2334 -0.9901,0 -0.1651,-0.165 0.66,-0.33 0.495,-0.495 -0.2334,-0.2334 -0.7567,0.2333 -0.9901,0 -0.165,-0.1651 0.33,-0.3301 0.4951,-0.4951 -0.3301,-0.165 -0.6401,-0.3784 -0.9901,-0.495 -0.1566,-0.052 -0.4951,0.165 -0.4951,0 0,-0.2334 0.6601,-0.3301 0.4951,-0.4951 -0.2334,-0.2334 -0.7568,0.2334 -0.9901,0 -0.1651,-0.165 0.495,-0.2617 0.495,-0.495 0,-0.3301 -0.7567,0.2333 -0.9901,0 -0.9824,-0.9825 2.3444,-0.1565 -0.9901,-0.9901 -0.3202,-0.08 -0.7567,0.2333 -0.9901,0 -0.2334,-0.2334 0.2334,-0.7568 0,-0.9901 -0.165,-0.1651 -0.2863,0.3907 -0.495,0.495 -0.1476,0.074 -0.3784,0.1167 -0.4951,0 -0.1167,-0.1167 0.1476,-0.4212 0,-0.495 -0.077,-0.039 -2.3368,0 -2.4752,0 -1.6502,0 -3.3004,0 -4.9505,0 -0.1384,0 -2.3978,-0.039 -2.4753,0 -0.1476,0.074 0.1167,0.3783 0,0.495 -0.1167,0.1167 -0.495,0.165 -0.495,0 0,-0.165 0.66,0 0.495,0 -0.33,0 -0.66,0 -0.9901,0 -0.165,0 0.4951,-0.165 0.4951,0 0,0.165 -0.3301,0 -0.4951,0 -0.165,0 -0.495,0.165 -0.495,0 0,-0.165 0.495,-0.165 0.495,0 0,0.165 -0.33,0 -0.495,0 -0.3301,0 -0.6601,0 -0.9901,0 -0.3301,0 -0.6601,0 -0.9901,0 -0.4951,0 -1.0155,-0.1565 -1.4852,0 -0.1565,0.052 0.165,0.4951 0,0.4951 -2.0485,0 1.6053,-1.5252 -1.4851,-0.4951 -0.2214,0.074 -0.2737,0.4213 -0.4951,0.4951 -2.8053,0.9351 -0.495,-0.4676 -0.495,0 0,0.165 -0.3301,0 -0.4951,0 -0.165,0 -0.495,0.165 -0.495,0 0,-0.1651 0.66,0 0.495,0 -0.33,0 -0.66,0 -0.9901,0 -0.165,0 0.6601,0 0.4951,0 -4.9339,0 -0.5517,0.4667 -2.4753,-0.4951 -0.4667,-0.2334 -1.0006,-0.3012 -1.4851,-0.495 -0.3426,-0.1371 -0.6401,-0.3784 -0.9901,-0.4951 -0.3874,-0.1291 -0.9901,0.2072 -0.9901,0 0,-0.369 0.7559,-0.7292 0.495,-0.9901 -0.2609,-0.2609 -0.7291,0.2342 -0.9901,0.4951 -0.1166,0.1167 0.6601,0 0.4951,0 -1.9339,0 -0.4951,0.2952 -0.4951,-0.9901 0,-0.2334 -0.2863,0.3907 -0.495,0.495 -0.1476,0.074 -0.3784,0.1167 -0.4951,0 -1.7947,-1.7947 0,-0.8741 0,-0.495 0,0.165 -0.33,0 -0.495,0 -0.165,0 -0.4951,0.165 -0.4951,0 0,-0.369 0.4951,-0.6211 0.4951,-0.9901 0,-0.2334 -0.2863,0.3907 -0.4951,0.495 -0.1476,0.074 -0.495,0.165 -0.495,0 0,-0.2333 0.6601,-0.33 0.495,-0.495 -1.778,-1.7781 -0.2264,2.1355 -1.9802,-0.4951 -0.183,-0.2746 0.2952,-0.8425 0,-0.9901 -0.33,-0.165 -0.64,0.6118 -0.9901,0.4951 -0.35,-0.1167 -0.165,-0.8251 -0.495,-0.9901 -0.2087,-0.1044 -0.4951,0.2617 -0.4951,0.495 0,0.165 0.4951,0.165 0.4951,0 0,-0.369 -0.165,-0.8251 -0.4951,-0.9901 -0.2087,-0.1043 -0.495,0.2617 -0.495,0.4951 0,0.165 0.495,0.165 0.495,0 0,-0.369 -0.165,-0.8251 -0.495,-0.9901 -0.2087,-0.1044 -0.4951,0.7284 -0.4951,0.495 0,-0.369 0.4951,-0.6211 0.4951,-0.9901 0,-0.2333 -0.2617,0.4951 -0.4951,0.4951 -0.2333,0 -0.4212,-0.2737 -0.495,-0.4951 -0.1044,-0.3131 0,-0.66 0,-0.9901 0,-0.165 0.165,0.4951 0,0.4951 -0.3769,0 -0.9901,-1.4816 -0.9901,-1.4852 0,-0.369 0.6601,-0.66 0.495,-0.9901 -0.1476,-0.2952 -0.7567,0.2334 -0.9901,0 -0.3689,-0.369 -0.2055,-1.0509 -0.495,-1.4851 -0.091,-0.1373 -0.4951,0.165 -0.4951,0 0,-0.2334 0.4951,-0.2617 0.4951,-0.4951 0,-0.2333 -0.3656,-0.3008 -0.4951,-0.495 -0.2046,-0.307 -0.2903,-0.6831 -0.495,-0.9901 -0.1295,-0.1942 -0.3907,-0.2863 -0.4951,-0.4951 -0.88,-1.7601 2.6403,1.9802 0,-1.9802 -0.183,-0.2746 -0.8857,0.3131 -0.9901,0 -0.165,-0.495 0.6601,-0.9901 0.4951,-1.4851 -0.1044,-0.3131 -0.7567,0.2334 -0.9901,0 -0.165,-0.165 0.5516,-0.2687 0.495,-0.4951 -0.33,-0.495 -0.66,-0.9901 -0.9901,-1.4851 0.1651,0 0.4951,0.165 0.4951,0 -0.165,-0.4951 -0.33,-0.9901 -0.4951,-1.4852 -0.165,0 -0.4212,0.1476 -0.495,0 -0.2475,-0.495 0.1238,-0.9901 0,-1.4851 -0.1266,-0.5063 -0.2617,-1.0184 -0.495,-1.4852 -0.1044,-0.2087 -0.4951,-0.2616 -0.4951,-0.495 0,-0.2334 0.33,-0.33 0.4951,-0.4951 -0.3301,-0.495 -0.802,-0.9207 -0.9901,-1.4851 -0.052,-0.1566 0.6117,0.1167 0.495,0 -0.2609,-0.2609 -0.9006,-0.1371 -0.9901,-0.4951 -0.1266,-0.5062 0.4951,-0.9633 0.4951,-1.4851 0,-0.369 -0.2342,-0.7292 -0.4951,-0.9901 -0.1167,-0.1167 -0.495,0.165 -0.495,0 0,-0.369 0.6117,-0.6401 0.495,-0.9901 -0.1167,-0.3501 -0.7292,-0.2341 -0.9901,-0.4951 -0.1167,-0.1166 0.04,-0.3349 0,-0.495 -0.1266,-0.5063 -0.2617,-1.0184 -0.495,-1.4852 -0.1044,-0.2087 -0.4213,-0.2736 -0.4951,-0.495 -0.1044,-0.3131 0.1476,-0.6949 0,-0.9901 -0.074,-0.1476 -0.3784,0.1167 -0.495,0 -0.1167,-0.1167 0.074,-0.3475 0,-0.495 -0.2088,-0.4175 -0.7814,-0.5727 -0.9901,-0.9901 -0.074,-0.1476 0.052,-0.3385 0,-0.4951 -0.1167,-0.3501 -0.3784,-0.64 -0.4951,-0.9901 -0.052,-0.1565 0.165,-0.495 0,-0.495 -0.2334,0 -0.33,0.66 -0.495,0.495 -0.1651,-0.165 0.5994,-0.2863 0.495,-0.495 -1.2853,-2.5706 -0.9901,1.5983 -0.9901,-1.4852 0,-0.165 0.1167,0.6117 0,0.4951 -0.2609,-0.261 -0.165,-0.8251 -0.495,-0.9901 -0.2088,-0.1044 -0.3301,0.66 -0.4951,0.495 -0.2334,-0.2334 0,-0.6601 0,-0.9901 0,-0.165 0.165,0.4951 0,0.4951 -0.165,0 0.1167,-0.3784 0,-0.4951 -0.1167,-0.1167 -0.3784,0.1167 -0.495,0 -0.1167,-0.1167 0.074,-0.3474 0,-0.495 -0.1044,-0.2088 -0.3907,-0.2864 -0.4951,-0.4951 0,-0.165 -0.165,-0.495 0,-0.495 0.165,0 0.1167,0.6117 0,0.495 -0.2609,-0.2609 -0.2341,-0.7292 -0.495,-0.9901 -0.1167,-0.1167 0,0.6601 0,0.4951 0,-3.2454 0,1.7601 0,-1.4852 0,-0.165 0.165,0.4951 0,0.4951 -0.1651,0 0,-0.3301 0,-0.4951 0,-0.165 -0.1651,-0.495 0,-0.495 0.165,0 0,0.66 0,0.495 0,-0.33 0,-0.6601 0,-0.9901 0,-0.5405 -0.1068,-2.1551 0,-2.4752 0.1166,-0.3501 0.3783,-0.6401 0.495,-0.9901 0.052,-0.1566 -0.165,-0.4951 0,-0.4951 0.165,0 0,0.6601 0,0.4951 0,-0.3301 0,-0.6601 0,-0.9901 0,-0.1651 0,0.66 0,0.495 0,-0.33 -0.1044,-0.677 0,-0.9901 0.074,-0.2214 0.3907,-0.2863 0.4951,-0.495 0.1476,-0.2952 -0.3301,-0.9901 0,-0.9901 0.165,0 0,0.33 0,0.495 0.33,-0.33 0.7813,-0.5726 0.9901,-0.9901 0.074,-0.1476 -0.4213,0.1476 -0.4951,0 -0.1476,-0.2952 0,-0.66 0,-0.9901 0,-0.165 -0.165,-0.495 0,-0.495 0.165,0 0,0.66 0,0.495 0,-0.495 0,-0.9901 0,-1.4851 0,-0.165 -0.1167,-0.3784 0,-0.4951 0.1167,-0.1167 0.4213,0.1476 0.4951,0 0.2951,-0.5904 -0.2088,-1.354 0,-1.9802 0.074,-0.2214 0.495,-0.2617 0.495,-0.495 0,-0.2334 -0.5516,-0.2687 -0.495,-0.4951 0.1443,-0.5772 0.724,-0.953 0.9901,-1.4851 0.146,-0.2921 -0.1135,-1.1447 0,-1.4852 0.1166,-0.35 0.4055,-0.6321 0.495,-0.9901 0.08,-0.3202 0,-0.66 0,-0.9901 0,-0.165 0,0.6601 0,0.4951 0,-0.3301 0,-0.6601 0,-0.9901 0,-0.3301 -0.08,-0.6699 0,-0.9901 0.089,-0.358 0.2904,-0.6831 0.4951,-0.9901 0.1294,-0.1942 0.495,-0.2617 0.495,-0.4951 0,-0.805 -0.9276,-0.1249 -0.495,-0.9901 0.1043,-0.2087 0.3906,-0.2863 0.495,-0.495 0.074,-0.1476 -0.1167,-0.3784 0,-0.4951 0.1167,-0.1167 0.4951,0.165 0.4951,0 0,-0.369 -0.4951,-0.6211 -0.4951,-0.9901 0,-0.1596 0.8526,-0.715 0.9901,-0.9901 0.074,-0.1476 -0.074,-0.3474 0,-0.495 1.1547,-2.3093 -0.4417,2.8637 1.4852,-0.9901 0.074,-0.1476 -0.4951,0.165 -0.4951,0 0,-0.165 0.33,0 0.4951,0 0.33,0 0.66,0 0.9901,0 0.165,0 -0.4951,0.165 -0.4951,0 0,-0.165 0.3784,0.1167 0.4951,0 0.1166,-0.1167 -0.1651,-0.4951 0,-0.4951 0.2333,0 0.2616,0.4951 0.495,0.4951 0.165,0 -0.1476,-0.4213 0,-0.4951 2.8053,-1.4026 0.4951,0.7014 0.4951,0 0,-0.2333 0.3906,-0.2863 0.495,-0.495 0.074,-0.1476 -0.1167,-0.3784 0,-0.4951 0.1167,-0.1166 0.3784,0.1167 0.495,0 0.6601,-0.66 -0.66,-0.66 0,0 0.1167,0.1167 0.4213,0.1476 0.4951,0 0.1476,-0.2952 -0.2334,-0.7567 0,-0.9901 0.165,-0.165 0.2617,0.4951 0.495,0.4951 0.1651,0 -0.074,-0.3475 0,-0.4951 0.1044,-0.2087 0.3301,-0.33 0.4951,-0.495 0.165,-0.165 0.2617,-0.4951 0.495,-0.4951 0.1651,0 0,0.3301 0,0.4951 0.3301,-0.4951 0.4951,-1.1551 0.9901,-1.4852 0.1942,-0.1294 0.3301,0.6601 0.4951,0.4951 1.4168,-1.4168 -1.2352,-0.62 0.495,-1.4852 0.1476,-0.074 0.3578,0.092 0.4951,0 0.3883,-0.2589 0.6601,-0.66 0.9901,-0.9901 0.9901,-0.9901 1.9802,-1.9802 2.9703,-2.9703 0.6601,-0.66 1.2334,-1.4201 1.9802,-1.9802 0.132,-0.099 0,0.6601 0,0.4951 0,-0.6601 0,-1.3201 0,-1.9802 0,-0.165 -0.1476,0.4213 0,0.495 0.2952,0.1476 0.6601,0 0.9901,0 0.165,0 -0.4951,0.1651 -0.4951,0 0,-0.3689 0.4056,-0.6321 0.4951,-0.9901 0.08,-0.3201 -0.08,-0.6699 0,-0.99 -0.8965,-2.0712 0.7814,-0.5727 0.9901,-0.9901 0,-2.2537 -0.2334,-0.028 0.495,-1.4852 0.074,-0.1476 -0.165,-0.495 0,-0.495 0.1651,0 -0.165,0.495 0,0.495 0.2334,0 0.2864,-0.3907 0.4951,-0.495 0.528,-0.2641 0.462,0.264 0.9901,0 0.2087,-0.1044 0.2617,-0.4951 0.495,-0.4951 0.2334,0 0.2737,0.5689 0.4951,0.4951 0.4428,-0.1476 0.6601,-0.6601 0.9901,-0.9901 0.165,-0.1651 0.33,-0.3301 0.495,-0.4951 0.4951,-0.495 0.9901,-0.9901 1.4852,-1.4851 0.165,-0.1651 0.3656,-0.3009 0.495,-0.4951 0.2047,-0.307 0.165,-0.8251 0.4951,-0.9901 0.4428,-0.2214 1.1351,0.3501 1.4851,0 0.2609,-0.2609 -0.495,-0.6211 -0.495,-0.9901 0,-0.2334 0.2617,-0.495 0.495,-0.495 0.2032,0 -0.5282,2.5747 0.4951,-0.4951 0.052,-0.1565 -0.165,-0.495 0,-0.495 0.165,0 0,0.66 0,0.495 0,-1.1551 0,-2.3102 0,-3.4653 0,-0.1651 0,-0.3301 0,-0.4951 0,-0.165 -0.165,-0.495 0,-0.495 0.165,0 0.1167,0.6117 0,0.495 -0.2609,-0.2609 -0.2342,-0.7292 -0.4951,-0.9901 -0.66,-0.6601 -0.495,0.8251 -0.495,-0.495 0,-2.6363 0,-7.7842 0,-11.8812 0,-0.9901 0,-1.9802 0,-2.9703 0,-0.165 -0.165,-0.4951 0,-0.4951 0.165,0 0.1167,0.6118 0,0.4951 -0.2609,-0.2609 -0.3784,-0.6401 -0.4951,-0.9901 -0.052,-0.1566 0,-0.3301 0,-0.4951 -0.165,-0.165 -0.3907,-0.2863 -0.495,-0.495 -0.1476,-0.2952 0.1476,-0.6949 0,-0.9901 -0.1044,-0.2087 -0.3907,-0.2863 -0.4951,-0.4951 -0.1476,-0.2952 0.1476,-0.6949 0,-0.9901 -1.053,-2.1061 0.1081,2.3043 -0.9901,-0.9901 -0.052,-0.1565 0.165,-0.495 0,-0.495 -0.369,0 -0.66,0.6601 -0.9901,0.495 -0.2952,-0.1476 0.1044,-0.677 0,-0.9901 -0.074,-0.2214 -0.33,-0.33 -0.495,-0.495 -0.165,-0.165 -0.33,-0.33 -0.4951,-0.4951 -0.165,-0.165 -0.2616,-0.495 -0.495,-0.495 -0.2334,0 -0.2863,0.5994 -0.4951,0.495 -0.33,-0.165 -0.2341,-0.7291 -0.495,-0.9901 -0.1167,-0.1166 0.1167,0.6118 0,0.4951 -0.2609,-0.2609 -0.2342,-0.7292 -0.4951,-0.9901 -0.1166,-0.1167 -0.3474,0.074 -0.495,0 -0.4175,-0.2087 -0.5727,-0.7814 -0.9901,-0.9901 -0.1476,-0.074 -0.3784,0.1167 -0.4951,0 -0.1166,-0.1167 0.1167,-0.3784 0,-0.4951 -0.1166,-0.1166 -0.3474,0.074 -0.495,0 -0.2751,-0.1375 -0.8305,-0.9901 -0.9901,-0.9901 -0.2334,0 -0.2863,0.5995 -0.4951,0.4951 -2.7264,-1.3632 0.4699,-0.5203 -0.495,-1.4852 -0.1167,-0.1166 -0.3784,0.1167 -0.4951,0 -0.1166,-0.1166 0.1167,-0.3783 0,-0.495 -1.3201,0 0.1651,0.165 -0.495,-0.4951 -0.2609,-0.2609 -0.7292,-0.2341 -0.9901,-0.495 -0.1167,-0.1167 0.495,0.165 0.495,0 0,-0.2334 -0.3906,-0.2863 -0.495,-0.4951 -0.074,-0.1476 0.1476,-0.4212 0,-0.495 -0.2952,-0.1476 -0.6949,0.1476 -0.9901,0 -0.2952,-0.1476 0.2334,-0.7567 0,-0.9901 -0.1167,-0.1167 -0.3784,0.1167 -0.4951,0 -0.1166,-0.1167 0,-0.33 0,-0.4951 -0.165,0 -0.3474,0.074 -0.495,0 -0.2087,-0.1043 -0.3907,-0.2863 -0.4951,-0.495 -0.074,-0.1476 0.1651,-0.4951 0,-0.4951 -0.2333,0 -0.33,0.6601 -0.495,0.4951 -0.2334,-0.2334 0.1044,-0.677 0,-0.9901 -0.5151,-1.5452 -0.33,0.165 -0.9901,-0.4951 -0.1167,-0.1166 0.074,-0.3474 0,-0.495 -0.297,-0.5941 -1.1881,-0.8911 -1.4852,-1.4851 -0.074,-0.1476 0.1476,-0.4213 0,-0.4951 -0.2951,-0.1476 -0.6949,0.1476 -0.9901,0 -0.1475,-0.074 0.074,-0.3475 0,-0.495 -0.1043,-0.2088 -0.3906,-0.2864 -0.495,-0.4951 -0.074,-0.1476 0.1167,-0.3784 0,-0.495 -3.0697,-1.5349 -0.4951,-0.063 -0.4951,-0.4951 0,-0.2334 -0.3906,-0.2863 -0.495,-0.495 -0.089,-0.1771 0.1529,-1.4087 0,-1.4852 -2.7687,0 -0.1308,0.2334 -0.495,-0.495 -0.1651,-0.3301 -0.8251,-0.1651 -0.9901,-0.4951 -0.1934,-0.3867 1.0643,-0.4208 0.495,-0.9901 -0.2609,-0.2609 -0.8251,-0.165 -0.9901,-0.495 -0.1044,-0.2088 0.4951,-0.2617 0.4951,-0.4951 0,-0.165 -0.3784,0.1167 -0.4951,0 -0.2334,-0.2334 0.2334,-0.7567 0,-0.9901 -0.1167,-0.1167 -0.3784,0.1167 -0.495,0 -0.1167,-0.1167 0,-0.33 0,-0.495 -0.3301,-0.1651 -0.7292,-0.2342 -0.9901,-0.4951 -0.1167,-0.1167 0.6117,0.1167 0.495,0 -0.2609,-0.2609 -0.7292,-0.2341 -0.9901,-0.495 -0.1167,-0.1167 0.6117,0.1166 0.4951,0 -0.261,-0.261 -0.7292,-0.2342 -0.9901,-0.4951 -0.1167,-0.1167 0.3783,0.1167 0.495,0 0.1167,-0.1167 0.1167,-0.3784 0,-0.495 -0.2609,-0.261 -0.7292,-0.2342 -0.9901,-0.4951 -0.1167,-0.1167 0.6117,0.1167 0.4951,0 0,0 -1.4852,-0.611 -1.4852,-0.9901 0,-0.2334 0.6601,-0.33 0.4951,-0.495 -0.2334,-0.2334 -0.7568,0.2333 -0.9901,0 -0.1651,-0.1651 0.5994,-0.2864 0.495,-0.4951 -0.165,-0.33 -0.7292,-0.2341 -0.9901,-0.495 -0.2334,-0.2334 0.2334,-0.7568 0,-0.9901 -0.2609,-0.2609 -0.7292,-0.2342 -0.9901,-0.4951 -0.1167,-0.1167 0.091,-0.3577 0,-0.495 -0.2589,-0.3884 -0.8425,-0.5473 -0.9901,-0.9901 -0.074,-0.2214 0.4951,-0.2617 0.4951,-0.4951 0,-0.165 -0.3784,0.1167 -0.4951,0 -0.1167,-0.1167 0.1167,-0.3783 0,-0.495 -0.2609,-0.2609 -0.7292,-0.2342 -0.9901,-0.4951 -0.1167,-0.1167 0.3784,0.1167 0.4951,0 0.1166,-0.1167 0.1166,-0.3783 0,-0.495 -0.2959,-0.2959 -0.9901,0.5351 -0.9901,-0.4951 0,-0.165 0.3783,0.1167 0.495,0 0.1167,-0.1167 0,-0.33 0,-0.495 0,-0.165 0.1167,-0.3784 0,-0.4951 -0.8251,-0.8251 -0.495,1.8152 -0.495,-0.9901 0,-0.165 0.165,0.4951 0,0.4951 -0.2334,0 -0.4951,-0.2617 -0.4951,-0.4951 0,-0.9559 1.5252,0.06 0.4951,-1.4851 -0.2047,-0.307 -0.8251,-0.165 -0.9901,-0.4951 -0.1044,-0.2087 0.3906,-0.2863 0.495,-0.495 0.074,-0.1476 0,-0.3301 0,-0.4951 0,-0.165 0.074,-0.3474 0,-0.495 -0.1044,-0.2088 -0.3907,-0.2863 -0.495,-0.4951 -0.074,-0.1476 0.074,-0.3474 0,-0.495 -0.1044,-0.2088 -0.4951,-0.2617 -0.4951,-0.4951 0,-0.165 0.3784,0.1167 0.4951,0 0.1166,-0.1167 0,-0.33 0,-0.495 0,-0.3301 0,-0.6601 0,-0.9901 0,-0.1201 -0.016,-1.4692 0,-1.4852 0.1166,-0.1167 0.33,0 0.495,0 0.165,0 0.4951,-0.165 0.4951,0 0,0.165 -0.4213,0.1476 -0.4951,0 -0.1476,-0.2952 -0.2334,-0.7567 0,-0.9901 0.165,-0.165 0.2863,0.3907 0.4951,0.4951 0.1476,0.074 0.495,0.165 0.495,0 0,-0.369 -0.6601,-0.6601 -0.495,-0.9901 0.1476,-0.2952 0.66,0 0.9901,0 0.165,0 -0.4951,0.165 -0.4951,0 0,-0.165 0.3475,0.074 0.4951,0 0.2087,-0.1044 0.495,-0.2617 0.495,-0.4951 0,-0.165 -0.495,0.165 -0.495,0 0,-0.165 0.4212,0.1476 0.495,0 0.1476,-0.2952 0,-0.66 0,-0.9901 0,-0.165 0.165,0.4951 0,0.4951 -0.165,0 0,-0.3301 0,-0.4951 0,-0.33 -0.1476,-0.6949 0,-0.9901 0.074,-0.1476 0.4951,0.165 0.4951,0 0,-0.2333 -0.4951,-0.2616 -0.4951,-0.495 0,-0.33 0.9901,0.33 0.9901,0 0,-0.369 -0.495,-0.6211 -0.495,-0.9901 0,-0.2334 0.33,0.6601 0.495,0.495 0.2334,-0.2333 0,-0.66 0,-0.9901 0,-0.165 0,0.6601 0,0.4951 0,-0.6601 0,-1.3201 0,-1.9802 0,-0.1957 -0.1057,-2.2638 0,-2.4753 0.1044,-0.2087 0.4951,-0.2616 0.4951,-0.495 0,-0.2334 -0.4951,-0.2617 -0.4951,-0.4951 0,-0.165 0.4213,0.1476 0.4951,0 0.1476,-0.2952 0,-0.66 0,-0.9901 0,-0.165 0,0.6601 0,0.4951 0,-0.33 0,-0.6601 0,-0.9901 0,-0.165 0,0.6601 0,0.495 0,-3.2453 0,1.7602 0,-1.4851 0,-0.165 0.165,0.495 0,0.495 -0.1651,0 0,-0.33 0,-0.495 0,-0.33 0,-0.6601 0,-0.9901 0,-0.165 -0.1167,0.3784 0,0.495 0.1166,0.1167 0.3783,0.1167 0.495,0 0.1167,-0.1166 -0.074,-0.3474 0,-0.495 0.1044,-0.2087 0.33,-0.33 0.4951,-0.4951 0.165,-0.165 0.33,-0.66 0.495,-0.495 0.165,0.165 -0.7284,0.495 -0.495,0.495 0.3689,0 0.64,-0.3783 0.9901,-0.495 0.1565,-0.052 0.3783,0.1167 0.495,0 0.1167,-0.1167 -0.165,-0.4951 0,-0.4951 0.2334,0 0.4951,0.2617 0.4951,0.4951 0,0.165 -0.6118,0.1167 -0.4951,0 0.2609,-0.2609 0.7292,-0.2341 0.9901,-0.4951 0.1167,-0.1166 -0.165,-0.495 0,-0.495 0.369,0 0.6401,0.3784 0.9901,0.495 0.9901,0.3301 0.165,-0.165 0.4951,-0.495 0.2333,-0.2334 0.6949,0.1476 0.9901,0 0.2087,-0.1044 0.33,-0.33 0.495,-0.4951 0.165,-0.165 0.2617,-0.495 0.4951,-0.495 0.2333,0 0.2863,0.3907 0.495,0.495 0.2952,0.1476 0.9901,-0.33 0.9901,0 0,0.1651 -0.6601,0 -0.4951,0 0.3301,0 0.6601,0 0.9901,0 0.1651,0 0.4213,0.1476 0.4951,0 0.1476,-0.2951 -0.2952,-0.8425 0,-0.9901 0.33,-0.165 0.64,0.3784 0.9901,0.4951 1.2204,0.4068 -0.2281,-0.7621 0,-0.9901 0.2609,-0.2609 0.7292,0.2341 0.9901,0.495 0.1167,0.1167 -0.6426,0.074 -0.4951,0 0.4951,-0.165 0.9901,-0.33 1.4852,-0.495 -0.165,-0.165 -0.5994,-0.2863 -0.4951,-0.4951 0.1651,-0.33 0.8251,-0.165 0.9901,-0.495 0.1044,-0.2087 -0.495,-0.2617 -0.495,-0.4951 0,-2.3941 0.6132,-0.495 0.9901,-0.495 0.165,0 0,-0.33 0,-0.495 0,-0.4951 0,-0.9901 0,-1.4852 0,-2.1684 0,-1.0168 0,-2.4752 0,-0.1651 0,0.66 0,0.495 0,-0.33 0,-0.6601 0,-0.9901 0,-0.3252 -0.058,-1.8638 0,-1.9802 0.074,-0.1476 0.3784,0.1167 0.495,0 0.1167,-0.1167 -0.074,-0.3474 0,-0.495 0.1044,-0.2088 0.3907,-0.2864 0.4951,-0.4951 0.074,-0.1476 -0.1476,-0.4212 0,-0.495 0.2952,-0.1476 0.7567,0.2333 0.9901,0 0.165,-0.1651 -0.5689,-0.2737 -0.4951,-0.4951 0.1476,-0.4428 0.6601,-0.6601 0.9901,-0.9901 0.1651,-0.165 -0.495,0.2617 -0.495,0.4951 0,0.165 0.4212,0.1476 0.495,0 0.1476,-0.2952 0,-0.6601 0,-0.9901 0,-0.1651 -0.1166,0.3783 0,0.495 0.1167,0.1167 0.4951,0.165 0.4951,0 0,-0.369 -0.2341,-0.7292 -0.4951,-0.9901 -0.1166,-0.1167 0,0.6601 0,0.4951 0,-0.3301 0,-0.6601 0,-0.9901 0,-0.1651 -0.1166,-0.3784 0,-0.4951 0.261,-0.2609 0.8251,-0.165 0.9901,-0.495 0.1044,-0.2088 -0.495,-0.2617 -0.495,-0.4951 0,-1.0301 0.6942,-0.1992 0.9901,-0.495 0.2609,-0.261 0.2341,-0.7292 0.495,-0.9901 0.1167,-0.1167 -0.165,0.495 0,0.495 0.2334,0 0.4951,-0.2617 0.4951,-0.495 0,-0.2334 -0.6351,-0.3084 -0.4951,-0.4951 0.4951,-0.66 1.452,-0.8513 1.9802,-1.4851 0.3341,-0.4009 0.4951,-0.9633 0.4951,-1.4852 0,-0.165 -0.3784,0.1167 -0.4951,0 -0.1166,-0.1167 -0.165,-0.495 0,-0.495 0.2334,0 0.3301,0.33 0.4951,0.495"
       style="fill:none;fill-rule:evenodd;stroke:#000000;stroke-width:1px;stroke-linecap:butt;stroke-linejoin:miter;stroke-opacity:1"
       inkscape:connector-curvature="0" />
  </g>
  <path
     style="fill:#000000;stroke:none;stroke-width:1px;stroke-linecap:butt;stroke-linejoin:miter;stroke-opacity:1"
     d="m 254.56173,230.72093 c -5.81425,-5.45871 -5.93318,-5.7093 -5.93318,-12.50116 0,-11.44865 -5.6039,-18.09306 -22.38714,-26.5439 -7.1457,-3.59806 -1.98399,-17.64423 11.73099,-31.9227 5.98506,-6.23095 9.44975,-11.65687 9.5062,-14.8873 0.0227,-1.30067 1.35222,-4.49323 2.95443,-7.09457 2.94257,-4.77753 4.13056,-15.0783 1.89812,-16.45802 -0.56491,-0.34914 -1.36221,-2.73034 -1.77176,-5.29156 -0.40956,-2.56121 -1.16246,-4.8344 -1.67312,-5.05153 -0.51066,-0.21712 -3.43364,-3.67425 -6.49552,-7.68251 -3.06188,-4.008252 -7.37648,-8.406017 -9.58799,-9.772809 -4.60566,-2.846454 -5.22634,-5.06686 -6.23101,-22.290695 -0.44863,-7.691188 -0.21186,-11.488893 0.79169,-12.698098 0.78747,-0.948837 1.84327,-1.470828 2.34623,-1.159982 0.50297,0.310847 1.60567,-0.267658 2.45046,-1.285568 1.264,-1.523021 1.2501,-2.027428 -0.0785,-2.848527 -1.94949,-1.204848 2.09592,-7.069848 10.60565,-15.375991 2.99824,-2.926513 6.66513,-7.83165 8.14863,-10.900306 2.94626,-6.094374 2.91297,-6.080511 17.65455,-7.351865 6.43334,-0.554829 15.68245,0.224667 27.67005,2.331971 6.26769,1.101801 9.17661,2.885776 11.90595,7.301658 2.93215,4.744033 7.96052,16.382017 7.96052,18.424359 0,0.667397 2.92652,4.281592 6.50337,8.031545 7.80541,8.183166 8.09473,10.502904 2.47219,19.822156 -4.03389,6.686088 -5.27367,10.007939 -7.70236,20.63765 -0.71366,3.123482 -2.35626,6.815442 -3.65024,8.204362 -1.29397,1.38891 -2.35507,3.09008 -2.35799,3.78037 -0.003,0.6903 -3.00252,4.615 -6.66578,8.72157 -9.20871,10.3231 -9.28285,13.01457 -0.70513,25.59699 3.5635,5.22719 7.97576,11.10026 9.80502,13.05127 2.62535,2.80006 3.70131,5.66442 5.10789,13.59794 0.98008,5.52786 2.14619,11.77995 2.59137,13.89354 0.49745,2.36177 0.34249,3.8429 -0.40207,3.8429 -0.7379,0 -1.40429,5.89344 -1.70469,15.07598 -0.36004,11.0054 -1.01428,16.01086 -2.42309,18.53848 -1.06144,1.90437 -1.65967,3.89972 -1.3294,4.43411 0.33026,0.53437 0.10769,0.9716 -0.4946,0.9716 -0.6023,0 -2.47386,2.08347 -4.15902,4.62992 l -3.06394,4.62992 -20.44617,0.18566 c -11.2454,0.10204 -21.89997,0.36517 -23.67682,0.58458 -2.51469,0.31052 -4.54552,-0.83554 -9.16383,-5.17144 z"
     id="path3345"
     inkscape:connector-curvature="0" />
  <path
     style="fill:#000000"
     d="m 255.46145,230.46781 c -5.32125,-4.95344 -5.63609,-5.60576 -6.72477,-13.93315 -1.41177,-10.79863 -4.38911,-14.86725 -16.07093,-21.96132 -7.02972,-4.26897 -8.33178,-5.57233 -8.64048,-8.64907 -0.51585,-5.14146 4.18231,-13.70313 13.67965,-24.92901 11.80167,-13.94961 18.35047,-31.49734 15.05093,-40.3295 -0.85849,-2.298 -1.86752,-5.58205 -2.24228,-7.29787 -0.37687,-1.72547 -5.2506,-7.80251 -10.90543,-13.597941 -11.57203,-11.859768 -12.12708,-13.23755 -12.21183,-30.313217 -0.0502,-10.11059 0.0272,-10.405423 3.0283,-11.546461 2.47325,-0.940327 2.94161,-1.721536 2.37812,-3.966637 -0.77694,-3.095582 0.99606,-5.862901 9.94087,-15.515842 3.02304,-3.262369 6.78106,-8.175088 8.35116,-10.917153 1.57009,-2.742065 3.65286,-5.30749 4.62836,-5.700943 0.97551,-0.393454 6.82853,-0.995472 13.00673,-1.337817 12.58213,-0.6972 30.16512,1.769493 34.94694,4.902658 2.89012,1.893682 8.48323,11.835698 11.01295,19.57605 0.7439,2.276177 4.00958,7.241121 7.25707,11.033209 3.59306,4.195624 5.90451,8.026002 5.90451,9.784561 0,1.58942 -1.82523,6.514272 -4.05606,10.944114 -2.23083,4.429843 -4.93503,11.466795 -6.00932,15.637672 -2.01313,7.815867 -6.2725,15.187157 -14.59561,25.259287 -2.63223,3.18536 -4.51405,6.2314 -4.18182,6.76896 0.33224,0.53757 0.0406,0.9774 -0.64814,0.9774 -0.68872,0 -1.25222,1.49456 -1.25222,3.32124 0,3.77557 5.90047,14.14117 13.77414,24.19763 4.68724,5.98666 5.62723,8.20944 7.64164,18.07019 1.95253,9.55776 2.11485,12.69627 1.08246,20.92971 -0.66798,5.32724 -1.21451,12.43223 -1.21451,15.78888 0,8.10077 -2.89174,16.60375 -7.48846,22.0193 l -3.74462,4.41168 -23.05737,0.78506 -23.05738,0.78505 -5.5826,-5.19672 z"
     id="path3347"
     inkscape:connector-curvature="0" />
  <path
     style="fill:#000000"
     d="m 71.264129,123.38861 c -12.97331,-1.2736 -14.440597,-1.76318 -19.63551,-6.55168 -2.980592,-2.74741 -5.200965,-5.85905 -5.208307,-7.29893 C 46.403347,106.21114 43.533305,96.882051 41.22929,92.664539 38.755181,88.135671 36.241665,85.390945 29.689714,80.063469 19.49065,71.77048 17.897199,60.410929 26.049732,54.114415 c 2.315598,-1.788424 5.358773,-3.251681 6.762612,-3.251681 2.568647,0 5.650721,-2.901322 11.430431,-10.760082 1.721828,-2.341196 5.870889,-6.997012 9.220134,-10.346257 5.774386,-5.774387 6.40871,-6.089538 12.256769,-6.089538 5.098291,0 7.240463,0.722755 12.359203,4.169917 3.405585,2.293454 6.191972,4.557984 6.191972,5.032288 0,1.864229 9.460456,4.740541 18.918867,5.752001 6.98081,0.746513 11.8243,2.671461 11.8243,4.699332 0,0.896606 0.51148,1.630192 1.13662,1.630192 0.62514,0 1.94021,2.705972 2.92237,6.013271 0.98216,3.307299 3.3972,7.848607 5.36674,10.091794 1.96955,2.243188 3.58099,5.044939 3.58099,6.226114 0,1.181175 -2.66046,4.598299 -5.91214,7.593608 l -5.91215,5.446018 0,9.913522 0,9.913526 -4.72972,4.82503 c -2.60134,2.65376 -4.72972,5.84853 -4.72972,7.09948 0,3.65011 -3.58541,5.81255 -12.014334,7.2461 -4.33171,0.73671 -9.768575,2.13031 -12.081925,3.09689 -2.313349,0.96658 -4.888296,1.67226 -5.722104,1.56819 -0.833809,-0.10408 -3.378341,-0.37206 -5.654518,-0.59552 z"
     id="path3349"
     inkscape:connector-curvature="0" />
  <path
     style="fill:#000000;stroke-width:2;stroke-miterlimit:4;stroke-dasharray:none;fill-opacity:1"
     d="m 75.235772,466.99706 -5.745287,-4.81056 -10.802227,0.77226 c -10.153509,0.7259 -11.081455,0.596 -15.451846,-2.16291 -5.983253,-3.77706 -7.442475,-6.14462 -12.08355,-19.6054 -2.106255,-6.1089 -5.16619,-13.12688 -6.799856,-15.59551 -2.412804,-3.646 -2.795794,-5.22316 -2.04054,-8.40301 0.511368,-2.15301 0.98322,-4.18062 1.04856,-4.50579 0.06534,-0.32516 0.828079,-4.22171 1.694976,-8.65897 1.227966,-6.28543 2.130748,-8.2863 4.086458,-9.05698 3.402715,-1.34086 13.301407,-11.79922 14.288607,-15.09646 0.4381,-1.46326 1.425807,-2.67817 2.194903,-2.69981 0.769095,-0.0216 2.645344,-1.0784 4.16944,-2.34836 2.571553,-2.14275 2.762513,-3.12579 2.652019,-13.65212 -0.06548,-6.2387 -0.716523,-12.49822 -1.446749,-13.91004 -0.730226,-1.41182 -5.007129,-5.9575 -9.504228,-10.10151 -4.497099,-4.144 -9.503314,-9.99703 -11.12492,-13.00672 -1.621607,-3.00969 -4.252553,-7.2719 -5.846546,-9.47158 -4.201625,-5.79815 -5.688144,-11.92596 -3.48392,-14.3616 0.958901,-1.05957 1.743456,-3.0153 1.743456,-4.34606 0,-6.82838 1.390037,-9.5855 5.192288,-10.2988 6.014654,-1.12836 8.996865,-3.84965 8.996865,-8.20972 0,-2.10923 0.665117,-4.50009 1.478037,-5.31301 0.81292,-0.81292 1.478037,-1.91379 1.478037,-2.44638 0,-1.93199 5.907767,-8.61558 9.053287,-10.24219 4.776462,-2.47001 22.723179,-6.40766 29.204296,-6.40766 7.737824,0 19.111884,2.17997 22.397228,4.29269 4.16916,2.68108 10.65853,13.68638 14.04514,23.81913 1.67918,5.02409 5.11305,12.08434 7.63083,15.68944 2.51778,3.6051 4.57778,7.37002 4.57778,8.3665 0,2.23918 4.14855,5.99673 8.86822,8.03239 1.95101,0.84149 11.1038,2.00738 20.33953,2.59085 9.23572,0.58347 20.14363,1.89792 24.2398,2.92098 4.09616,1.02306 10.5206,2.55605 14.27651,3.40663 7.25695,1.64345 12.68115,5.96467 12.68115,10.10251 0,3.98022 5.58489,12.89107 11.73897,18.72984 4.70734,4.46617 5.99747,6.48263 5.99747,9.37402 0,2.0261 -0.5321,4.01267 -1.18243,4.4146 -0.65034,0.40193 -1.18243,2.02961 -1.18243,3.61707 0,1.58746 -0.5321,2.88629 -1.18243,2.88629 -0.65034,0 -1.18243,0.85258 -1.18243,1.89462 0,1.04205 -3.67717,5.43182 -8.17148,9.75504 -6.21876,5.98206 -8.36594,8.90156 -8.9853,12.21724 -1.76385,9.44257 -8.58932,11.55571 -37.23498,11.52785 -11.38088,-0.0106 -22.48329,0.002 -24.672,0.029 -3.14071,0.0388 -4.94763,1.10825 -8.57262,5.07392 -2.52621,2.76368 -4.59312,5.6902 -4.59312,6.50341 0,0.81321 -0.53209,1.47856 -1.18243,1.47856 -0.65033,0 -1.18243,0.56759 -1.18243,1.26132 0,0.69373 -1.25526,2.95513 -2.78947,5.02533 -4.66502,6.29478 -17.31183,32.10446 -17.31183,35.33008 0,3.16207 -3.92171,9.04849 -6.487857,9.73814 -1.309199,0.35186 -5.914054,0.64701 -10.233012,0.65589 -7.463709,0.0154 -8.137217,-0.22214 -13.597939,-4.79442 z"
     id="path3351"
     inkscape:connector-curvature="0" />
</svg>
