solid 7W Duel Organizer
facet normal -0.999999999999996 -9.126603939756986e-08 -1.0527874259001276e-13
  outer loop
    vertex 77.24999994276689 -166.3114925080337 39.99999999941493
    vertex 77.24999411691282 -102.48651100492427 38.49999999941495
    vertex 77.2500000000003 -167.43649250803387 38.49999999941495
  endloop
endfacet
facet normal -0.999999999999996 -9.126603939756986e-08 -1.0527874259001276e-13
  outer loop
    vertex 77.24999411691282 -102.48651100492427 38.49999999941495
    vertex 77.24999994276689 -166.3114925080337 39.99999999941493
    vertex 77.24999417414591 -103.61151100492421 39.99999999941493
  endloop
endfacet
facet normal -2.9313282167601103e-14 -2.6969259293534143e-21 1.0
  outer loop
    vertex 77.24999994276689 -166.3114925080337 39.99999999941493
    vertex 95.26111260566444 -138.84378047815736 39.999999999415564
    vertex 94.75000000000044 -134.96149480161955 39.99999999941554
  endloop
endfacet
facet normal -2.9313282167601103e-14 -2.6969259293534143e-21 1.0
  outer loop
    vertex 95.26111260566444 -138.84378047815736 39.999999999415564
    vertex 77.24999994276689 -166.3114925080337 39.99999999941493
    vertex 96.75961894323387 -142.46149480161955 39.9999999994156
  endloop
endfacet
facet normal -2.9313282167601103e-14 -2.6969259293534143e-21 1.0
  outer loop
    vertex 96.75961894323387 -142.46149480161955 39.9999999994156
    vertex 77.24999994276689 -166.3114925080337 39.99999999941493
    vertex 99.14339828220223 -145.56809651941774 39.99999999941568
  endloop
endfacet
facet normal -2.9313282167601103e-14 -2.6969259293534143e-21 1.0
  outer loop
    vertex 99.14339828220223 -145.56809651941774 39.99999999941568
    vertex 77.24999994276689 -166.3114925080337 39.99999999941493
    vertex 102.25000000000045 -147.95187585838613 39.99999999941576
  endloop
endfacet
facet normal -2.9313282167601103e-14 -2.6969259293534143e-21 1.0
  outer loop
    vertex 102.25000000000045 -147.95187585838613 39.99999999941576
    vertex 77.24999994276689 -166.3114925080337 39.99999999941493
    vertex 105.86771432346264 -149.45038219595557 39.99999999941587
  endloop
endfacet
facet normal -2.9313282167601103e-14 -2.6969259293534143e-21 1.0
  outer loop
    vertex 105.86771432346264 -149.45038219595557 39.99999999941587
    vertex 77.24999994276689 -166.3114925080337 39.99999999941493
    vertex 194.99999992242007 -166.3114851302439 39.999999999418385
  endloop
endfacet
facet normal -2.9313282167601103e-14 -2.6969259293534143e-21 1.0
  outer loop
    vertex 105.86771432346264 -149.45038219595557 39.99999999941587
    vertex 194.99999992242007 -166.3114851302439 39.999999999418385
    vertex 109.75000000000044 -149.96149480161952 39.999999999415984
  endloop
endfacet
facet normal -2.9313282167601103e-14 -2.6969259293534143e-21 1.0
  outer loop
    vertex 109.75000000000044 -149.96149480161952 39.999999999415984
    vertex 194.99999992242007 -166.3114851302439 39.999999999418385
    vertex 154.25000792805605 -149.96149705724753 39.999999999417184
  endloop
endfacet
facet normal -2.9313282167601103e-14 -2.6969259293534143e-21 1.0
  outer loop
    vertex 109.75000000000044 -149.96149480161952 39.999999999415984
    vertex 154.25000792805605 -149.96149705724753 39.999999999417184
    vertex 109.75000000000044 -119.96149480161952 39.999999999415984
  endloop
endfacet
facet normal -2.9313282167601103e-14 -2.6969259293534143e-21 1.0
  outer loop
    vertex 109.75000000000044 -119.96149480161952 39.999999999415984
    vertex 154.25000792805605 -149.96149705724753 39.999999999417184
    vertex 154.2499920719431 -119.96149705725173 39.999999999417184
  endloop
endfacet
facet normal -2.9313282167601103e-14 -2.6969259293534143e-21 1.0
  outer loop
    vertex 154.25000792805605 -149.96149705724753 39.999999999417184
    vertex 194.99999992242007 -166.3114851302439 39.999999999418385
    vertex 158.13229333445136 -149.45038239965163 39.9999999994173
  endloop
endfacet
facet normal -2.9313282167601103e-14 -2.6969259293534143e-21 1.0
  outer loop
    vertex 158.13229333445136 -149.45038239965163 39.9999999994173
    vertex 194.99999992242007 -166.3114851302439 39.999999999418385
    vertex 161.75000686589686 -147.95187414998614 39.999999999417405
  endloop
endfacet
facet normal -2.9313282167601103e-14 -2.6969259293534143e-21 1.0
  outer loop
    vertex 161.75000686589686 -147.95187414998614 39.999999999417405
    vertex 194.99999992242007 -166.3114851302439 39.999999999418385
    vertex 164.85660732377877 -145.56809316906387 39.9999999994175
  endloop
endfacet
facet normal -2.9313282167601103e-14 -2.6969259293534143e-21 1.0
  outer loop
    vertex 164.85660732377877 -145.56809316906387 39.9999999994175
    vertex 194.99999992242007 -166.3114851302439 39.999999999418385
    vertex 167.24038502079256 -142.4614901913503 39.99999999941757
  endloop
endfacet
facet normal -2.9313282167601103e-14 -2.6969259293534143e-21 1.0
  outer loop
    vertex 167.24038502079256 -142.4614901913503 39.99999999941757
    vertex 194.99999992242007 -166.3114851302439 39.999999999418385
    vertex 168.73888944626557 -138.8437750758724 39.99999999941761
  endloop
endfacet
facet normal -2.9313282167601103e-14 -2.6969259293534143e-21 1.0
  outer loop
    vertex 168.73888944626557 -138.8437750758724 39.99999999941761
    vertex 194.99999992242007 -166.3114851302439 39.999999999418385
    vertex 169.24999999999747 -134.96148912919315 39.999999999417625
  endloop
endfacet
facet normal -2.9313282167601103e-14 -2.6969259293534143e-21 1.0
  outer loop
    vertex 169.24999999999747 -134.96148912919315 39.999999999417625
    vertex 194.99999992242007 -166.3114851302439 39.999999999418385
    vertex 194.99999415379966 -103.61150362713465 39.999999999418385
  endloop
endfacet
facet normal -2.9313282167601103e-14 -2.6969259293534143e-21 1.0
  outer loop
    vertex 77.24999417414591 -103.61151100492421 39.99999999941493
    vertex 105.86771432346264 -120.47260740728352 39.99999999941587
    vertex 194.99999415379966 -103.61150362713465 39.999999999418385
  endloop
endfacet
facet normal -2.9313282167601103e-14 -2.6969259293534143e-21 1.0
  outer loop
    vertex 105.86771432346264 -120.47260740728352 39.99999999941587
    vertex 77.24999417414591 -103.61151100492421 39.99999999941493
    vertex 102.25000000000043 -121.97111374485294 39.99999999941576
  endloop
endfacet
facet normal -2.9313282167601103e-14 -2.6969259293534143e-21 1.0
  outer loop
    vertex 102.25000000000043 -121.97111374485294 39.99999999941576
    vertex 77.24999417414591 -103.61151100492421 39.99999999941493
    vertex 99.14339828220223 -124.3548930838213 39.99999999941568
  endloop
endfacet
facet normal -2.9313282167601103e-14 -2.6969259293534143e-21 1.0
  outer loop
    vertex 99.14339828220223 -124.3548930838213 39.99999999941568
    vertex 77.24999417414591 -103.61151100492421 39.99999999941493
    vertex 96.75961894323387 -127.46149480161952 39.9999999994156
  endloop
endfacet
facet normal -2.9313282167601103e-14 -2.6969259293534143e-21 1.0
  outer loop
    vertex 96.75961894323387 -127.46149480161952 39.9999999994156
    vertex 77.24999417414591 -103.61151100492421 39.99999999941493
    vertex 77.24999994276689 -166.3114925080337 39.99999999941493
  endloop
endfacet
facet normal -2.9313282167601103e-14 -2.6969259293534143e-21 1.0
  outer loop
    vertex 96.75961894323387 -127.46149480161952 39.9999999994156
    vertex 77.24999994276689 -166.3114925080337 39.99999999941493
    vertex 95.26111260566442 -131.07920912508172 39.999999999415564
  endloop
endfacet
facet normal -2.9313282167601103e-14 -2.6969259293534143e-21 1.0
  outer loop
    vertex 95.26111260566442 -131.07920912508172 39.999999999415564
    vertex 77.24999994276689 -166.3114925080337 39.99999999941493
    vertex 94.75000000000044 -134.96149480161955 39.99999999941554
  endloop
endfacet
facet normal -2.9313282167601103e-14 -2.6969259293534143e-21 1.0
  outer loop
    vertex 194.99999415379966 -103.61150362713465 39.999999999418385
    vertex 105.86771432346264 -120.47260740728352 39.99999999941587
    vertex 109.75000000000044 -119.96149480161952 39.999999999415984
  endloop
endfacet
facet normal -2.9313282167601103e-14 -2.6969259293534143e-21 1.0
  outer loop
    vertex 194.99999415379966 -103.61150362713465 39.999999999418385
    vertex 109.75000000000044 -119.96149480161952 39.999999999415984
    vertex 154.2499920719431 -119.96149705725173 39.999999999417184
  endloop
endfacet
facet normal -2.9313282167601103e-14 -2.6969259293534143e-21 1.0
  outer loop
    vertex 194.99999415379966 -103.61150362713465 39.999999999418385
    vertex 154.2499920719431 -119.96149705725173 39.999999999417184
    vertex 158.13227801862234 -120.47260761098363 39.9999999994173
  endloop
endfacet
facet normal -2.9313282167601103e-14 -2.6969259293534143e-21 1.0
  outer loop
    vertex 194.99999415379966 -103.61150362713465 39.999999999418385
    vertex 158.13227801862234 -120.47260761098363 39.9999999994173
    vertex 161.7499931341002 -121.97111203645666 39.999999999417405
  endloop
endfacet
facet normal -2.9313282167601103e-14 -2.6969259293534143e-21 1.0
  outer loop
    vertex 194.99999415379966 -103.61150362713465 39.999999999418385
    vertex 161.7499931341002 -121.97111203645666 39.999999999417405
    vertex 164.85659611181376 -124.35488973347042 39.9999999994175
  endloop
endfacet
facet normal -2.9313282167601103e-14 -2.6969259293534143e-21 1.0
  outer loop
    vertex 194.99999415379966 -103.61150362713465 39.999999999418385
    vertex 164.85659611181376 -124.35488973347042 39.9999999994175
    vertex 167.24037709273608 -127.46149019135238 39.99999999941757
  endloop
endfacet
facet normal -2.9313282167601103e-14 -2.6969259293534143e-21 1.0
  outer loop
    vertex 194.99999415379966 -103.61150362713465 39.999999999418385
    vertex 167.24037709273608 -127.46149019135238 39.99999999941757
    vertex 168.73888534240155 -131.07920372279787 39.99999999941761
  endloop
endfacet
facet normal -2.9313282167601103e-14 -2.6969259293534143e-21 1.0
  outer loop
    vertex 194.99999415379966 -103.61150362713465 39.999999999418385
    vertex 168.73888534240155 -131.07920372279787 39.99999999941761
    vertex 169.24999999999747 -134.96148912919315 39.999999999417625
  endloop
endfacet
facet normal -5.012512716063131e-08 0.8000000000000053 0.5999999999999908
  outer loop
    vertex 77.24999417414591 -103.61151100492421 39.99999999941493
    vertex 194.99999409656616 -102.48650362713467 38.499999999418364
    vertex 77.24999411691282 -102.48651100492427 38.49999999941495
  endloop
endfacet
facet normal -5.012512716063131e-08 0.8000000000000053 0.5999999999999908
  outer loop
    vertex 194.99999409656616 -102.48650362713467 38.499999999418364
    vertex 77.24999417414591 -103.61151100492421 39.99999999941493
    vertex 194.99999415379966 -103.61150362713465 39.999999999418385
  endloop
endfacet
facet normal 5.012509344061462e-08 -0.7999999999999534 0.6000000000000602
  outer loop
    vertex 194.99999997965375 -167.4364851302441 38.499999999418364
    vertex 77.24999994276689 -166.3114925080337 39.99999999941493
    vertex 77.2500000000003 -167.43649250803387 38.49999999941495
  endloop
endfacet
facet normal 5.012509344061462e-08 -0.7999999999999534 0.6000000000000602
  outer loop
    vertex 77.24999994276689 -166.3114925080337 39.99999999941493
    vertex 194.99999997965375 -167.4364851302441 38.499999999418364
    vertex 194.99999992242007 -166.3114851302439 39.999999999418385
  endloop
endfacet
facet normal 2.8930102008547526e-14 2.6204522069759135e-21 -1.0
  outer loop
    vertex 77.24999411691282 -102.48651100492427 38.49999999941495
    vertex 96.75961894323385 -127.46149480161952 38.499999999415664
    vertex 77.2500000000003 -167.43649250803387 38.49999999941495
  endloop
endfacet
facet normal 2.8930102008547526e-14 2.6204522069759135e-21 -1.0
  outer loop
    vertex 96.75961894323385 -127.46149480161952 38.499999999415664
    vertex 77.24999411691282 -102.48651100492427 38.49999999941495
    vertex 99.14339828220207 -124.3548930838213 38.49999999941574
  endloop
endfacet
facet normal 2.8930102008547526e-14 2.6204522069759135e-21 -1.0
  outer loop
    vertex 99.14339828220207 -124.3548930838213 38.49999999941574
    vertex 77.24999411691282 -102.48651100492427 38.49999999941495
    vertex 102.25000000000027 -121.97111374485294 38.49999999941583
  endloop
endfacet
facet normal 2.8930102008547526e-14 2.6204522069759135e-21 -1.0
  outer loop
    vertex 102.25000000000027 -121.97111374485294 38.49999999941583
    vertex 77.24999411691282 -102.48651100492427 38.49999999941495
    vertex 105.86771432346248 -120.47260740728352 38.499999999415934
  endloop
endfacet
facet normal 2.8930102008547526e-14 2.6204522069759135e-21 -1.0
  outer loop
    vertex 105.86771432346248 -120.47260740728352 38.499999999415934
    vertex 77.24999411691282 -102.48651100492427 38.49999999941495
    vertex 194.99999409656616 -102.48650362713467 38.499999999418364
  endloop
endfacet
facet normal 2.8930102008547526e-14 2.6204522069759135e-21 -1.0
  outer loop
    vertex 77.2500000000003 -167.43649250803387 38.49999999941495
    vertex 96.75961894323385 -127.46149480161952 38.499999999415664
    vertex 95.2611126056644 -131.07920912508172 38.49999999941563
  endloop
endfacet
facet normal 2.8930102008547526e-14 2.6204522069759135e-21 -1.0
  outer loop
    vertex 77.2500000000003 -167.43649250803387 38.49999999941495
    vertex 95.2611126056644 -131.07920912508172 38.49999999941563
    vertex 94.7500000000004 -134.96149480161955 38.49999999941561
  endloop
endfacet
facet normal 2.8930102008547526e-14 2.6204522069759135e-21 -1.0
  outer loop
    vertex 105.86771432346248 -120.47260740728352 38.499999999415934
    vertex 194.99999409656616 -102.48650362713467 38.499999999418364
    vertex 109.75000000000028 -119.96149480161952 38.49999999941605
  endloop
endfacet
facet normal 2.8930102008547526e-14 2.6204522069759135e-21 -1.0
  outer loop
    vertex 109.75000000000028 -119.96149480161952 38.49999999941605
    vertex 194.99999409656616 -102.48650362713467 38.499999999418364
    vertex 154.24999207194318 -119.96149705725173 38.49999999941713
  endloop
endfacet
facet normal 2.8930102008547526e-14 2.6204522069759135e-21 -1.0
  outer loop
    vertex 109.75000000000028 -119.96149480161952 38.49999999941605
    vertex 154.24999207194318 -119.96149705725173 38.49999999941713
    vertex 109.75000000000028 -149.96149480161952 38.49999999941605
  endloop
endfacet
facet normal 2.8930102008547526e-14 2.6204522069759135e-21 -1.0
  outer loop
    vertex 154.24999207194318 -119.96149705725173 38.49999999941713
    vertex 194.99999409656616 -102.48650362713467 38.499999999418364
    vertex 158.13227801862234 -120.47260761098363 38.49999999941724
  endloop
endfacet
facet normal 2.8930102008547526e-14 2.6204522069759135e-21 -1.0
  outer loop
    vertex 158.13227801862234 -120.47260761098363 38.49999999941724
    vertex 194.99999409656616 -102.48650362713467 38.499999999418364
    vertex 161.74999313410032 -121.97111203645666 38.49999999941735
  endloop
endfacet
facet normal 2.8930102008547526e-14 2.6204522069759135e-21 -1.0
  outer loop
    vertex 161.74999313410032 -121.97111203645666 38.49999999941735
    vertex 194.99999409656616 -102.48650362713467 38.499999999418364
    vertex 164.85659611181387 -124.35488973347042 38.49999999941744
  endloop
endfacet
facet normal 2.8930102008547526e-14 2.6204522069759135e-21 -1.0
  outer loop
    vertex 164.85659611181387 -124.35488973347042 38.49999999941744
    vertex 194.99999409656616 -102.48650362713467 38.499999999418364
    vertex 167.24037709273617 -127.46149019135238 38.49999999941751
  endloop
endfacet
facet normal 2.8930102008547526e-14 2.6204522069759135e-21 -1.0
  outer loop
    vertex 167.24037709273617 -127.46149019135238 38.49999999941751
    vertex 194.99999409656616 -102.48650362713467 38.499999999418364
    vertex 168.73888534240166 -131.07920372279787 38.49999999941755
  endloop
endfacet
facet normal 2.8930102008547526e-14 2.6204522069759135e-21 -1.0
  outer loop
    vertex 168.73888534240166 -131.07920372279787 38.49999999941755
    vertex 194.99999409656616 -102.48650362713467 38.499999999418364
    vertex 169.2499999999975 -134.96148912919315 38.49999999941757
  endloop
endfacet
facet normal 2.8930102008547526e-14 2.6204522069759135e-21 -1.0
  outer loop
    vertex 77.2500000000003 -167.43649250803387 38.49999999941495
    vertex 105.86771432346248 -149.45038219595557 38.499999999415934
    vertex 194.99999997965375 -167.4364851302441 38.499999999418364
  endloop
endfacet
facet normal 2.8930102008547526e-14 2.6204522069759135e-21 -1.0
  outer loop
    vertex 105.86771432346248 -149.45038219595557 38.499999999415934
    vertex 77.2500000000003 -167.43649250803387 38.49999999941495
    vertex 102.2500000000003 -147.95187585838613 38.49999999941583
  endloop
endfacet
facet normal 2.8930102008547526e-14 2.6204522069759135e-21 -1.0
  outer loop
    vertex 102.2500000000003 -147.95187585838613 38.49999999941583
    vertex 77.2500000000003 -167.43649250803387 38.49999999941495
    vertex 99.14339828220207 -145.56809651941774 38.49999999941574
  endloop
endfacet
facet normal 2.8930102008547526e-14 2.6204522069759135e-21 -1.0
  outer loop
    vertex 99.14339828220207 -145.56809651941774 38.49999999941574
    vertex 77.2500000000003 -167.43649250803387 38.49999999941495
    vertex 96.75961894323385 -142.46149480161955 38.499999999415664
  endloop
endfacet
facet normal 2.8930102008547526e-14 2.6204522069759135e-21 -1.0
  outer loop
    vertex 96.75961894323385 -142.46149480161955 38.499999999415664
    vertex 77.2500000000003 -167.43649250803387 38.49999999941495
    vertex 95.2611126056644 -138.84378047815736 38.49999999941563
  endloop
endfacet
facet normal 2.8930102008547526e-14 2.6204522069759135e-21 -1.0
  outer loop
    vertex 95.2611126056644 -138.84378047815736 38.49999999941563
    vertex 77.2500000000003 -167.43649250803387 38.49999999941495
    vertex 94.7500000000004 -134.96149480161955 38.49999999941561
  endloop
endfacet
facet normal 2.8930102008547526e-14 2.6204522069759135e-21 -1.0
  outer loop
    vertex 194.99999997965375 -167.4364851302441 38.499999999418364
    vertex 105.86771432346248 -149.45038219595557 38.499999999415934
    vertex 109.75000000000028 -149.96149480161952 38.49999999941605
  endloop
endfacet
facet normal 2.8930102008547526e-14 2.6204522069759135e-21 -1.0
  outer loop
    vertex 194.99999997965375 -167.4364851302441 38.499999999418364
    vertex 109.75000000000028 -149.96149480161952 38.49999999941605
    vertex 154.25000792805605 -149.96149705724753 38.49999999941713
  endloop
endfacet
facet normal 2.8930102008547526e-14 2.6204522069759135e-21 -1.0
  outer loop
    vertex 154.25000792805605 -149.96149705724753 38.49999999941713
    vertex 109.75000000000028 -149.96149480161952 38.49999999941605
    vertex 154.24999207194318 -119.96149705725173 38.49999999941713
  endloop
endfacet
facet normal 2.8930102008547526e-14 2.6204522069759135e-21 -1.0
  outer loop
    vertex 194.99999997965375 -167.4364851302441 38.499999999418364
    vertex 154.25000792805605 -149.96149705724753 38.49999999941713
    vertex 158.13229333445136 -149.45038239965163 38.49999999941724
  endloop
endfacet
facet normal 2.8930102008547526e-14 2.6204522069759135e-21 -1.0
  outer loop
    vertex 194.99999997965375 -167.4364851302441 38.499999999418364
    vertex 158.13229333445136 -149.45038239965163 38.49999999941724
    vertex 161.75000686589686 -147.95187414998614 38.49999999941735
  endloop
endfacet
facet normal 2.8930102008547526e-14 2.6204522069759135e-21 -1.0
  outer loop
    vertex 194.99999997965375 -167.4364851302441 38.499999999418364
    vertex 161.75000686589686 -147.95187414998614 38.49999999941735
    vertex 164.8566073237789 -145.56809316906387 38.49999999941744
  endloop
endfacet
facet normal 2.8930102008547526e-14 2.6204522069759135e-21 -1.0
  outer loop
    vertex 194.99999997965375 -167.4364851302441 38.499999999418364
    vertex 164.8566073237789 -145.56809316906387 38.49999999941744
    vertex 167.24038502079256 -142.4614901913503 38.49999999941751
  endloop
endfacet
facet normal 2.8930102008547526e-14 2.6204522069759135e-21 -1.0
  outer loop
    vertex 194.99999997965375 -167.4364851302441 38.499999999418364
    vertex 167.24038502079256 -142.4614901913503 38.49999999941751
    vertex 168.73888944626557 -138.8437750758724 38.49999999941755
  endloop
endfacet
facet normal 2.8930102008547526e-14 2.6204522069759135e-21 -1.0
  outer loop
    vertex 194.99999997965375 -167.4364851302441 38.499999999418364
    vertex 168.73888944626557 -138.8437750758724 38.49999999941755
    vertex 169.2499999999975 -134.96148912919315 38.49999999941757
  endloop
endfacet
facet normal 2.8930102008547526e-14 2.6204522069759135e-21 -1.0
  outer loop
    vertex 194.99999997965375 -167.4364851302441 38.499999999418364
    vertex 169.2499999999975 -134.96148912919315 38.49999999941757
    vertex 194.99999409656616 -102.48650362713467 38.499999999418364
  endloop
endfacet
facet normal 0.999999999999996 9.126603560411582e-08 6.015927880014087e-14
  outer loop
    vertex 194.99999409656616 -102.48650362713467 38.499999999418364
    vertex 194.99999992242007 -166.3114851302439 39.999999999418385
    vertex 194.99999997965375 -167.4364851302441 38.499999999418364
  endloop
endfacet
facet normal 0.999999999999996 9.126603560411582e-08 6.015927880014087e-14
  outer loop
    vertex 194.99999992242007 -166.3114851302439 39.999999999418385
    vertex 194.99999409656616 -102.48650362713467 38.499999999418364
    vertex 194.99999415379966 -103.61150362713465 39.999999999418385
  endloop
endfacet
facet normal 0.13052619222004477 0.9914448613738114 -1.3736943513312719e-14
  outer loop
    vertex 105.86771432346264 -149.45038219595557 39.99999999941587
    vertex 109.75000000000028 -149.96149480161952 38.49999999941605
    vertex 105.86771432346248 -149.45038219595557 38.499999999415934
  endloop
endfacet
facet normal 0.13052619222004477 0.9914448613738114 -1.3736943513312719e-14
  outer loop
    vertex 109.75000000000028 -149.96149480161952 38.49999999941605
    vertex 105.86771432346264 -149.45038219595557 39.99999999941587
    vertex 109.75000000000044 -149.96149480161952 39.999999999415984
  endloop
endfacet
facet normal -1.0 0.0 1.0527874868179232e-13
  outer loop
    vertex 109.75000000000044 -119.96149480161952 39.999999999415984
    vertex 109.75000000000028 -149.96149480161952 38.49999999941605
    vertex 109.75000000000044 -149.96149480161952 39.999999999415984
  endloop
endfacet
facet normal -1.0 0.0 1.0527874868179232e-13
  outer loop
    vertex 109.75000000000028 -149.96149480161952 38.49999999941605
    vertex 109.75000000000044 -119.96149480161952 39.999999999415984
    vertex 109.75000000000028 -119.96149480161952 38.49999999941605
  endloop
endfacet
facet normal 0.1305261922200561 -0.9914448613738098 -1.3721532409047368e-14
  outer loop
    vertex 109.75000000000028 -119.96149480161952 38.49999999941605
    vertex 105.86771432346264 -120.47260740728352 39.99999999941587
    vertex 105.86771432346248 -120.47260740728352 38.499999999415934
  endloop
endfacet
facet normal 0.1305261922200561 -0.9914448613738098 -1.3721532409047368e-14
  outer loop
    vertex 105.86771432346264 -120.47260740728352 39.99999999941587
    vertex 109.75000000000028 -119.96149480161952 38.49999999941605
    vertex 109.75000000000044 -119.96149480161952 39.999999999415984
  endloop
endfacet
facet normal 0.3826834323650857 -0.9238795325112884 -4.032842777597914e-14
  outer loop
    vertex 105.86771432346248 -120.47260740728352 38.499999999415934
    vertex 102.25000000000043 -121.97111374485294 39.99999999941576
    vertex 102.25000000000027 -121.97111374485294 38.49999999941583
  endloop
endfacet
facet normal 0.3826834323650857 -0.9238795325112884 -4.032842777597914e-14
  outer loop
    vertex 102.25000000000043 -121.97111374485294 39.99999999941576
    vertex 105.86771432346248 -120.47260740728352 38.499999999415934
    vertex 105.86771432346264 -120.47260740728352 39.99999999941587
  endloop
endfacet
facet normal 0.6087614290087192 -0.7933533402912365 -6.411667646207905e-14
  outer loop
    vertex 102.25000000000027 -121.97111374485294 38.49999999941583
    vertex 99.14339828220223 -124.3548930838213 39.99999999941568
    vertex 99.14339828220207 -124.3548930838213 38.49999999941574
  endloop
endfacet
facet normal 0.6087614290087192 -0.7933533402912365 -6.411667646207905e-14
  outer loop
    vertex 99.14339828220223 -124.3548930838213 39.99999999941568
    vertex 102.25000000000027 -121.97111374485294 38.49999999941583
    vertex 102.25000000000043 -121.97111374485294 39.99999999941576
  endloop
endfacet
facet normal 0.7933533402912468 -0.6087614290087054 -4.771071609674716e-14
  outer loop
    vertex 99.14339828220207 -124.3548930838213 38.49999999941574
    vertex 96.75961894323387 -127.46149480161952 39.9999999994156
    vertex 96.75961894323385 -127.46149480161952 38.499999999415664
  endloop
endfacet
facet normal 0.7933533402912468 -0.6087614290087054 -4.771071609674716e-14
  outer loop
    vertex 96.75961894323387 -127.46149480161952 39.9999999994156
    vertex 99.14339828220207 -124.3548930838213 38.49999999941574
    vertex 99.14339828220223 -124.3548930838213 39.99999999941568
  endloop
endfacet
facet normal 0.9238795325112855 -0.38268343236509267 -1.3891293945790088e-14
  outer loop
    vertex 96.75961894323385 -127.46149480161952 38.499999999415664
    vertex 95.26111260566442 -131.07920912508172 39.999999999415564
    vertex 95.2611126056644 -131.07920912508172 38.49999999941563
  endloop
endfacet
facet normal 0.9238795325112855 -0.38268343236509267 -1.3891293945790088e-14
  outer loop
    vertex 95.26111260566442 -131.07920912508172 39.999999999415564
    vertex 96.75961894323385 -127.46149480161952 38.499999999415664
    vertex 96.75961894323387 -127.46149480161952 39.9999999994156
  endloop
endfacet
facet normal 0.9914448613738103 -0.13052619222005252 -2.239959228919332e-14
  outer loop
    vertex 95.2611126056644 -131.07920912508172 38.49999999941563
    vertex 94.75000000000044 -134.96149480161955 39.99999999941554
    vertex 94.7500000000004 -134.96149480161955 38.49999999941561
  endloop
endfacet
facet normal 0.9914448613738103 -0.13052619222005252 -2.239959228919332e-14
  outer loop
    vertex 94.75000000000044 -134.96149480161955 39.99999999941554
    vertex 95.2611126056644 -131.07920912508172 38.49999999941563
    vertex 95.26111260566442 -131.07920912508172 39.999999999415564
  endloop
endfacet
facet normal 0.99144486137381 0.13052619222005538 -2.984315565101683e-14
  outer loop
    vertex 94.7500000000004 -134.96149480161955 38.49999999941561
    vertex 95.26111260566444 -138.84378047815736 39.999999999415564
    vertex 95.2611126056644 -138.84378047815736 38.49999999941563
  endloop
endfacet
facet normal 0.99144486137381 0.13052619222005538 -2.984315565101683e-14
  outer loop
    vertex 95.26111260566444 -138.84378047815736 39.999999999415564
    vertex 94.7500000000004 -134.96149480161955 38.49999999941561
    vertex 94.75000000000044 -134.96149480161955 39.99999999941554
  endloop
endfacet
facet normal 0.9238795325112867 0.3826834323650902 -2.084195162855661e-14
  outer loop
    vertex 95.2611126056644 -138.84378047815736 38.49999999941563
    vertex 96.75961894323387 -142.46149480161955 39.9999999994156
    vertex 96.75961894323385 -142.46149480161955 38.499999999415664
  endloop
endfacet
facet normal 0.9238795325112867 0.3826834323650902 -2.084195162855661e-14
  outer loop
    vertex 96.75961894323387 -142.46149480161955 39.9999999994156
    vertex 95.2611126056644 -138.84378047815736 38.49999999941563
    vertex 95.26111260566444 -138.84378047815736 39.999999999415564
  endloop
endfacet
facet normal 0.7933533402912425 0.6087614290087111 -4.7672865536527136e-14
  outer loop
    vertex 96.75961894323385 -142.46149480161955 38.499999999415664
    vertex 99.14339828220223 -145.56809651941774 39.99999999941568
    vertex 99.14339828220207 -145.56809651941774 38.49999999941574
  endloop
endfacet
facet normal 0.7933533402912425 0.6087614290087111 -4.7672865536527136e-14
  outer loop
    vertex 99.14339828220223 -145.56809651941774 39.99999999941568
    vertex 96.75961894323385 -142.46149480161955 38.499999999415664
    vertex 96.75961894323387 -142.46149480161955 39.9999999994156
  endloop
endfacet
facet normal 0.6087614290087237 0.7933533402912331 -6.406734865162688e-14
  outer loop
    vertex 99.14339828220223 -145.56809651941774 39.99999999941568
    vertex 102.2500000000003 -147.95187585838613 38.49999999941583
    vertex 99.14339828220207 -145.56809651941774 38.49999999941574
  endloop
endfacet
facet normal 0.6087614290087237 0.7933533402912331 -6.406734865162688e-14
  outer loop
    vertex 102.2500000000003 -147.95187585838613 38.49999999941583
    vertex 99.14339828220223 -145.56809651941774 39.99999999941568
    vertex 102.25000000000045 -147.95187585838613 39.99999999941576
  endloop
endfacet
facet normal 0.3826834323650878 0.9238795325112876 -4.032842777597977e-14
  outer loop
    vertex 102.25000000000045 -147.95187585838613 39.99999999941576
    vertex 105.86771432346248 -149.45038219595557 38.499999999415934
    vertex 102.2500000000003 -147.95187585838613 38.49999999941583
  endloop
endfacet
facet normal 0.3826834323650878 0.9238795325112876 -4.032842777597977e-14
  outer loop
    vertex 105.86771432346248 -149.45038219595557 38.499999999415934
    vertex 102.25000000000045 -147.95187585838613 39.99999999941576
    vertex 105.86771432346264 -149.45038219595557 39.99999999941587
  endloop
endfacet
facet normal -0.13052566820464395 -0.9914449303616069 -3.939831699945145e-15
  outer loop
    vertex 158.13227801862234 -120.47260761098363 38.49999999941724
    vertex 154.2499920719431 -119.96149705725173 39.999999999417184
    vertex 154.24999207194318 -119.96149705725173 38.49999999941713
  endloop
endfacet
facet normal -0.13052566820464395 -0.9914449303616069 -3.939831699945145e-15
  outer loop
    vertex 154.2499920719431 -119.96149705725173 39.999999999417184
    vertex 158.13227801862234 -120.47260761098363 38.49999999941724
    vertex 158.13227801862234 -120.47260761098363 39.9999999994173
  endloop
endfacet
facet normal 0.9999999999998603 5.285370969095503e-07 3.0079642368448925e-14
  outer loop
    vertex 154.24999207194318 -119.96149705725173 38.49999999941713
    vertex 154.25000792805605 -149.96149705724753 39.999999999417184
    vertex 154.25000792805605 -149.96149705724753 38.49999999941713
  endloop
endfacet
facet normal 0.9999999999998603 5.285370969095503e-07 3.0079642368448925e-14
  outer loop
    vertex 154.25000792805605 -149.96149705724753 39.999999999417184
    vertex 154.24999207194318 -119.96149705725173 38.49999999941713
    vertex 154.2499920719431 -119.96149705725173 39.999999999417184
  endloop
endfacet
facet normal -0.13052671623542228 0.9914447923857372 4.561713860925189e-18
  outer loop
    vertex 154.25000792805605 -149.96149705724753 39.999999999417184
    vertex 158.13229333445136 -149.45038239965163 38.49999999941724
    vertex 154.25000792805605 -149.96149705724753 38.49999999941713
  endloop
endfacet
facet normal -0.13052671623542228 0.9914447923857372 4.561713860925189e-18
  outer loop
    vertex 158.13229333445136 -149.45038239965163 38.49999999941724
    vertex 154.25000792805605 -149.96149705724753 39.999999999417184
    vertex 158.13229333445136 -149.45038239965163 39.9999999994173
  endloop
endfacet
facet normal -0.3826839206696471 0.9238793302487653 6.903043452312921e-17
  outer loop
    vertex 158.13229333445136 -149.45038239965163 39.9999999994173
    vertex 161.75000686589686 -147.95187414998614 38.49999999941735
    vertex 158.13229333445136 -149.45038239965163 38.49999999941724
  endloop
endfacet
facet normal -0.3826839206696471 0.9238793302487653 6.903043452312921e-17
  outer loop
    vertex 161.75000686589686 -147.95187414998614 38.49999999941735
    vertex 158.13229333445136 -149.45038239965163 39.9999999994173
    vertex 161.75000686589686 -147.95187414998614 39.999999999417405
  endloop
endfacet
facet normal -0.6087618483253036 0.7933530185381288 -1.8333250547609325e-14
  outer loop
    vertex 161.75000686589686 -147.95187414998614 39.999999999417405
    vertex 164.8566073237789 -145.56809316906387 38.49999999941744
    vertex 161.75000686589686 -147.95187414998614 38.49999999941735
  endloop
endfacet
facet normal -0.6087618483253036 0.7933530185381288 -1.8333250547609325e-14
  outer loop
    vertex 164.8566073237789 -145.56809316906387 38.49999999941744
    vertex 161.75000686589686 -147.95187414998614 39.999999999417405
    vertex 164.85660732377877 -145.56809316906387 39.9999999994175
  endloop
endfacet
facet normal -0.7933536620441305 0.6087610096919546 -2.3835551460229466e-14
  outer loop
    vertex 167.24038502079256 -142.4614901913503 39.99999999941757
    vertex 164.8566073237789 -145.56809316906387 38.49999999941744
    vertex 164.85660732377877 -145.56809316906387 39.9999999994175
  endloop
endfacet
facet normal -0.7933536620441305 0.6087610096919546 -2.3835551460229466e-14
  outer loop
    vertex 164.8566073237789 -145.56809316906387 38.49999999941744
    vertex 167.24038502079256 -142.4614901913503 39.99999999941757
    vertex 167.24038502079256 -142.4614901913503 38.49999999941751
  endloop
endfacet
facet normal -0.9238797347735473 0.3826829440604326 2.8882458111224493e-17
  outer loop
    vertex 168.73888944626557 -138.8437750758724 39.99999999941761
    vertex 167.24038502079256 -142.4614901913503 38.49999999941751
    vertex 167.24038502079256 -142.4614901913503 39.99999999941757
  endloop
endfacet
facet normal -0.9238797347735473 0.3826829440604326 2.8882458111224493e-17
  outer loop
    vertex 167.24038502079256 -142.4614901913503 38.49999999941751
    vertex 168.73888944626557 -138.8437750758724 39.99999999941761
    vertex 168.73888944626557 -138.8437750758724 38.49999999941755
  endloop
endfacet
facet normal -0.9914449303616062 0.1305256682046481 -1.4941974346518823e-14
  outer loop
    vertex 169.24999999999747 -134.96148912919315 39.999999999417625
    vertex 168.73888944626557 -138.8437750758724 38.49999999941755
    vertex 168.73888944626557 -138.8437750758724 39.99999999941761
  endloop
endfacet
facet normal -0.9914449303616062 0.1305256682046481 -1.4941974346518823e-14
  outer loop
    vertex 168.73888944626557 -138.8437750758724 38.49999999941755
    vertex 169.24999999999747 -134.96148912919315 39.999999999417625
    vertex 169.2499999999975 -134.96148912919315 38.49999999941757
  endloop
endfacet
facet normal -0.9914447923857379 -0.13052671623541814 -4.474707713887822e-14
  outer loop
    vertex 168.73888534240155 -131.07920372279787 39.99999999941761
    vertex 169.2499999999975 -134.96148912919315 38.49999999941757
    vertex 169.24999999999747 -134.96148912919315 39.999999999417625
  endloop
endfacet
facet normal -0.9914447923857379 -0.13052671623541814 -4.474707713887822e-14
  outer loop
    vertex 169.2499999999975 -134.96148912919315 38.49999999941757
    vertex 168.73888534240155 -131.07920372279787 39.99999999941761
    vertex 168.73888534240166 -131.07920372279787 38.49999999941755
  endloop
endfacet
facet normal -0.9238793302487653 -0.3826839206696471 -5.557643940616889e-14
  outer loop
    vertex 167.24037709273608 -127.46149019135238 39.99999999941757
    vertex 168.73888534240166 -131.07920372279787 38.49999999941755
    vertex 168.73888534240155 -131.07920372279787 39.99999999941761
  endloop
endfacet
facet normal -0.9238793302487653 -0.3826839206696471 -5.557643940616889e-14
  outer loop
    vertex 168.73888534240166 -131.07920372279787 38.49999999941755
    vertex 167.24037709273608 -127.46149019135238 39.99999999941757
    vertex 167.24037709273617 -127.46149019135238 38.49999999941751
  endloop
endfacet
facet normal -0.7933530185381231 -0.6087618483253109 -4.771031757442538e-14
  outer loop
    vertex 164.85659611181376 -124.35488973347042 39.9999999994175
    vertex 167.24037709273617 -127.46149019135238 38.49999999941751
    vertex 167.24037709273608 -127.46149019135238 39.99999999941757
  endloop
endfacet
facet normal -0.7933530185381231 -0.6087618483253109 -4.771031757442538e-14
  outer loop
    vertex 167.24037709273617 -127.46149019135238 38.49999999941751
    vertex 164.85659611181376 -124.35488973347042 39.9999999994175
    vertex 164.85659611181387 -124.35488973347042 38.49999999941744
  endloop
endfacet
facet normal -0.6087610096919673 -0.7933536620441204 -3.661519933500746e-14
  outer loop
    vertex 164.85659611181387 -124.35488973347042 38.49999999941744
    vertex 161.7499931341002 -121.97111203645666 39.999999999417405
    vertex 161.74999313410032 -121.97111203645666 38.49999999941735
  endloop
endfacet
facet normal -0.6087610096919673 -0.7933536620441204 -3.661519933500746e-14
  outer loop
    vertex 161.7499931341002 -121.97111203645666 39.999999999417405
    vertex 164.85659611181387 -124.35488973347042 38.49999999941744
    vertex 164.85659611181376 -124.35488973347042 39.9999999994175
  endloop
endfacet
facet normal -0.38268294406042835 -0.923879734773549 -1.1504822224266098e-14
  outer loop
    vertex 161.74999313410032 -121.97111203645666 38.49999999941735
    vertex 158.13227801862234 -120.47260761098363 39.9999999994173
    vertex 158.13227801862234 -120.47260761098363 38.49999999941724
  endloop
endfacet
facet normal -0.38268294406042835 -0.923879734773549 -1.1504822224266098e-14
  outer loop
    vertex 158.13227801862234 -120.47260761098363 39.9999999994173
    vertex 161.74999313410032 -121.97111203645666 38.49999999941735
    vertex 161.7499931341002 -121.97111203645666 39.999999999417405
  endloop
endfacet
endsolid 7W Duel Organizer
