solid OpenSCAD_Model
  facet normal 0 -1 0
    outer loop
      vertex -0.445 -1.95 0
      vertex 30.555 -1.95 0
      vertex 30.555 -1.95 0.3
    endloop
  endfacet
  facet normal 0 -1 0
    outer loop
      vertex -0.445 -1.95 0.3
      vertex -0.445 -1.95 0
      vertex 30.555 -1.95 0.3
    endloop
  endfacet
  facet normal 0 0 -1
    outer loop
      vertex -1.802 26.868 0
      vertex -0.445 27.95 0
      vertex -1.802 -0.868 0
    endloop
  endfacet
  facet normal 0 0 -1
    outer loop
      vertex -1.802 -0.868 0
      vertex -0.445 27.95 0
      vertex 30.555 27.95 0
    endloop
  endfacet
  facet normal 0 0 -1
    outer loop
      vertex -1.802 -0.868 0
      vertex 30.555 27.95 0
      vertex 32.247 27.564 0
    endloop
  endfacet
  facet normal 0 0 -1
    outer loop
      vertex -1.802 -0.868 0
      vertex 32.247 27.564 0
      vertex 33 26 0
    endloop
  endfacet
  facet normal 0 0 -1
    outer loop
      vertex -1.802 -0.868 0
      vertex 33 26 0
      vertex 33 0 0
    endloop
  endfacet
  facet normal 0 0 -1
    outer loop
      vertex -1.802 -0.868 0
      vertex 33 0 0
      vertex 32.247 -1.564 0
    endloop
  endfacet
  facet normal 0 0 -1
    outer loop
      vertex -1.802 -0.868 0
      vertex 32.247 -1.564 0
      vertex 30.555 -1.95 0
    endloop
  endfacet
  facet normal 0 0 -1
    outer loop
      vertex -1.802 -0.868 0
      vertex 30.555 -1.95 0
      vertex -0.445 -1.95 0
    endloop
  endfacet
  facet normal -0.623429 -0.78188 0
    outer loop
      vertex -1.802 -0.868 0
      vertex -0.445 -1.95 0
      vertex -0.445 -1.95 0.3
    endloop
  endfacet
  facet normal -0.623429 -0.78188 0
    outer loop
      vertex -1.802 -0.868 0.3
      vertex -1.802 -0.868 0
      vertex -0.445 -1.95 0.3
    endloop
  endfacet
  facet normal 0 0 1
    outer loop
      vertex -1.802 -0.868 0.3
      vertex -0.445 -1.95 0.3
      vertex 30.555 -1.95 0.3
    endloop
  endfacet
  facet normal 0 0 1
    outer loop
      vertex 33 0 0.3
      vertex -1.802 -0.868 0.3
      vertex 32.247 -1.564 0.3
    endloop
  endfacet
  facet normal 0 0 1
    outer loop
      vertex 32.247 -1.564 0.3
      vertex -1.802 -0.868 0.3
      vertex 30.555 -1.95 0.3
    endloop
  endfacet
  facet normal 0 0 1
    outer loop
      vertex 33 26 0.3
      vertex -1.802 -0.868 0.3
      vertex 33 0 0.3
    endloop
  endfacet
  facet normal 0 0 1
    outer loop
      vertex 32.247 27.564 0.3
      vertex -1.802 -0.868 0.3
      vertex 33 26 0.3
    endloop
  endfacet
  facet normal 0 0 1
    outer loop
      vertex 30.555 27.95 0.3
      vertex -1.802 -0.868 0.3
      vertex 32.247 27.564 0.3
    endloop
  endfacet
  facet normal 0 0 1
    outer loop
      vertex -0.445 27.95 0.3
      vertex -1.802 -0.868 0.3
      vertex 30.555 27.95 0.3
    endloop
  endfacet
  facet normal 0 0 1
    outer loop
      vertex -1.802 26.868 0.3
      vertex -1.802 -0.868 0.3
      vertex -0.445 27.95 0.3
    endloop
  endfacet
  facet normal 0.222418 -0.974951 0
    outer loop
      vertex 30.555 -1.95 0
      vertex 32.247 -1.564 0
      vertex 32.247 -1.564 0.3
    endloop
  endfacet
  facet normal 0.222418 -0.974951 0
    outer loop
      vertex 30.555 -1.95 0.3
      vertex 30.555 -1.95 0
      vertex 32.247 -1.564 0.3
    endloop
  endfacet
  facet normal -1 0 0
    outer loop
      vertex -1.802 -0.868 0.3
      vertex -1.802 26.868 0.3
      vertex -1.802 -0.868 0
    endloop
  endfacet
  facet normal -1 0 0
    outer loop
      vertex -1.802 -0.868 0
      vertex -1.802 26.868 0.3
      vertex -1.802 26.868 0
    endloop
  endfacet
  facet normal 0.90101 -0.433798 0
    outer loop
      vertex 32.247 -1.564 0
      vertex 33 0 0
      vertex 33 0 0.3
    endloop
  endfacet
  facet normal 0.90101 -0.433798 0
    outer loop
      vertex 32.247 -1.564 0.3
      vertex 32.247 -1.564 0
      vertex 33 0 0.3
    endloop
  endfacet
  facet normal 1 0 0
    outer loop
      vertex 33 0 0
      vertex 33 26 0
      vertex 33 26 0.3
    endloop
  endfacet
  facet normal 1 0 0
    outer loop
      vertex 33 0 0.3
      vertex 33 0 0
      vertex 33 26 0.3
    endloop
  endfacet
  facet normal 0.90101 0.433798 0
    outer loop
      vertex 32.247 27.564 0
      vertex 32.247 27.564 0.3
      vertex 33 26 0.3
    endloop
  endfacet
  facet normal 0.90101 0.433798 0
    outer loop
      vertex 33 26 0
      vertex 32.247 27.564 0
      vertex 33 26 0.3
    endloop
  endfacet
  facet normal 0.222418 0.974951 0
    outer loop
      vertex 30.555 27.95 0.3
      vertex 32.247 27.564 0.3
      vertex 30.555 27.95 0
    endloop
  endfacet
  facet normal 0.222418 0.974951 0
    outer loop
      vertex 30.555 27.95 0
      vertex 32.247 27.564 0.3
      vertex 32.247 27.564 0
    endloop
  endfacet
  facet normal 0 1 0
    outer loop
      vertex -0.445 27.95 0.3
      vertex 30.555 27.95 0.3
      vertex -0.445 27.95 0
    endloop
  endfacet
  facet normal 0 1 0
    outer loop
      vertex -0.445 27.95 0
      vertex 30.555 27.95 0.3
      vertex 30.555 27.95 0
    endloop
  endfacet
  facet normal -0.623429 0.78188 0
    outer loop
      vertex -1.802 26.868 0.3
      vertex -0.445 27.95 0.3
      vertex -1.802 26.868 0
    endloop
  endfacet
  facet normal -0.623429 0.78188 0
    outer loop
      vertex -1.802 26.868 0
      vertex -0.445 27.95 0.3
      vertex -0.445 27.95 0
    endloop
  endfacet
endsolid OpenSCAD_Model
