solid OpenSCAD_Model
  facet normal 0 1.22465e-16 1
    outer loop
      vertex 0 23 4
      vertex 0.049332 21.4302 4
      vertex 0.197132 19.8667 4
    endloop
  endfacet
  facet normal 0 1.22465e-16 1
    outer loop
      vertex 0.785421 16.7828 4
      vertex 0 23 4
      vertex 0.442819 18.3155 4
    endloop
  endfacet
  facet normal 0 1.22465e-16 1
    outer loop
      vertex 0.442819 18.3155 4
      vertex 0 23 4
      vertex 0.197132 19.8667 4
    endloop
  endfacet
  facet normal 0 1.22465e-16 1
    outer loop
      vertex 1.22359 15.2746 4
      vertex 0 23 4
      vertex 0.785421 16.7828 4
    endloop
  endfacet
  facet normal 0 1.22465e-16 1
    outer loop
      vertex 1.75559 13.7969 4
      vertex 0 23 4
      vertex 1.22359 15.2746 4
    endloop
  endfacet
  facet normal 0 1.22465e-16 1
    outer loop
      vertex 2.37932 12.3555 4
      vertex 0 23 4
      vertex 1.75559 13.7969 4
    endloop
  endfacet
  facet normal 0 1.22465e-16 1
    outer loop
      vertex 3.09233 10.9562 4
      vertex 0 23 4
      vertex 2.37932 12.3555 4
    endloop
  endfacet
  facet normal 0 1.22465e-16 1
    outer loop
      vertex 3.8918 9.60433 4
      vertex 0 23 4
      vertex 3.09233 10.9562 4
    endloop
  endfacet
  facet normal 0 1.22465e-16 1
    outer loop
      vertex 4.77458 8.30537 4
      vertex 0 23 4
      vertex 3.8918 9.60433 4
    endloop
  endfacet
  facet normal 0 1.22465e-16 1
    outer loop
      vertex 5.73717 7.0644 4
      vertex 0 23 4
      vertex 4.77458 8.30537 4
    endloop
  endfacet
  facet normal 0 1.22465e-16 1
    outer loop
      vertex 6.77578 5.88632 4
      vertex 0 23 4
      vertex 5.73717 7.0644 4
    endloop
  endfacet
  facet normal 0 1.22465e-16 1
    outer loop
      vertex 7.88632 4.77578 4
      vertex 0 23 4
      vertex 6.77578 5.88632 4
    endloop
  endfacet
  facet normal 0 1.22465e-16 1
    outer loop
      vertex 9.0644 3.73717 4
      vertex 0 23 4
      vertex 7.88632 4.77578 4
    endloop
  endfacet
  facet normal 0 1.22465e-16 1
    outer loop
      vertex 10.3054 2.77458 4
      vertex 0 23 4
      vertex 9.0644 3.73717 4
    endloop
  endfacet
  facet normal 0 1.22465e-16 1
    outer loop
      vertex 11.6043 1.8918 4
      vertex 0 23 4
      vertex 10.3054 2.77458 4
    endloop
  endfacet
  facet normal 0 1.22465e-16 1
    outer loop
      vertex 12.9562 1.09233 4
      vertex 0 23 4
      vertex 11.6043 1.8918 4
    endloop
  endfacet
  facet normal 0 1.22465e-16 1
    outer loop
      vertex 14.3555 0.379324 4
      vertex 0 23 4
      vertex 12.9562 1.09233 4
    endloop
  endfacet
  facet normal 0 1.22465e-16 1
    outer loop
      vertex 15.7969 -0.244412 4
      vertex 0 23 4
      vertex 14.3555 0.379324 4
    endloop
  endfacet
  facet normal 0 1.22465e-16 1
    outer loop
      vertex 17.2746 -0.776413 4
      vertex 0 23 4
      vertex 15.7969 -0.244412 4
    endloop
  endfacet
  facet normal 0 1.22465e-16 1
    outer loop
      vertex 18.7828 -1.21458 4
      vertex 0 23 4
      vertex 17.2746 -0.776413 4
    endloop
  endfacet
  facet normal 0 1.22465e-16 1
    outer loop
      vertex 20.3155 -1.55718 4
      vertex 0 23 4
      vertex 18.7828 -1.21458 4
    endloop
  endfacet
  facet normal 0 1.22465e-16 1
    outer loop
      vertex 21.8667 -1.80287 4
      vertex 0 23 4
      vertex 20.3155 -1.55718 4
    endloop
  endfacet
  facet normal 0 1.22465e-16 1
    outer loop
      vertex 23.4302 -1.95067 4
      vertex 0 23 4
      vertex 21.8667 -1.80287 4
    endloop
  endfacet
  facet normal 0 1.22465e-16 1
    outer loop
      vertex 25 -2 4
      vertex 0 23 4
      vertex 23.4302 -1.95067 4
    endloop
  endfacet
  facet normal 0 1.22465e-16 1
    outer loop
      vertex 26.5698 -1.95067 4
      vertex 0 23 4
      vertex 25 -2 4
    endloop
  endfacet
  facet normal 0 1.22465e-16 1
    outer loop
      vertex 28.1333 -1.80287 4
      vertex 0 23 4
      vertex 26.5698 -1.95067 4
    endloop
  endfacet
  facet normal 0 1.22465e-16 1
    outer loop
      vertex 29.6845 -1.55718 4
      vertex 0 23 4
      vertex 28.1333 -1.80287 4
    endloop
  endfacet
  facet normal 0 1.22465e-16 1
    outer loop
      vertex 31.2172 -1.21458 4
      vertex 0 23 4
      vertex 29.6845 -1.55718 4
    endloop
  endfacet
  facet normal 0 1.22465e-16 1
    outer loop
      vertex 32.7254 -0.776413 4
      vertex 0 23 4
      vertex 31.2172 -1.21458 4
    endloop
  endfacet
  facet normal 0 1.22465e-16 1
    outer loop
      vertex 34.2031 -0.244412 4
      vertex 0 23 4
      vertex 32.7254 -0.776413 4
    endloop
  endfacet
  facet normal 0 1.22465e-16 1
    outer loop
      vertex 35.6445 0.379324 4
      vertex 0 23 4
      vertex 34.2031 -0.244412 4
    endloop
  endfacet
  facet normal 0 1.22465e-16 1
    outer loop
      vertex 37.0438 1.09233 4
      vertex 0 23 4
      vertex 35.6445 0.379324 4
    endloop
  endfacet
  facet normal 0 1.22465e-16 1
    outer loop
      vertex 38.3957 1.8918 4
      vertex 0 23 4
      vertex 37.0438 1.09233 4
    endloop
  endfacet
  facet normal 0 1.22465e-16 1
    outer loop
      vertex 39.6946 2.77458 4
      vertex 0 23 4
      vertex 38.3957 1.8918 4
    endloop
  endfacet
  facet normal 0 1.22465e-16 1
    outer loop
      vertex 40.9356 3.73717 4
      vertex 0 23 4
      vertex 39.6946 2.77458 4
    endloop
  endfacet
  facet normal 0 1.22465e-16 1
    outer loop
      vertex 42.1137 4.77578 4
      vertex 0 23 4
      vertex 40.9356 3.73717 4
    endloop
  endfacet
  facet normal 0 1.22465e-16 1
    outer loop
      vertex 43.2242 5.88632 4
      vertex 0 23 4
      vertex 42.1137 4.77578 4
    endloop
  endfacet
  facet normal 0 1.22465e-16 1
    outer loop
      vertex 44.2628 7.0644 4
      vertex 0 23 4
      vertex 43.2242 5.88632 4
    endloop
  endfacet
  facet normal 0 1.22465e-16 1
    outer loop
      vertex 45.2254 8.30537 4
      vertex 0 23 4
      vertex 44.2628 7.0644 4
    endloop
  endfacet
  facet normal 0 1.22465e-16 1
    outer loop
      vertex 46.1082 9.60433 4
      vertex 0 23 4
      vertex 45.2254 8.30537 4
    endloop
  endfacet
  facet normal 0 1.22465e-16 1
    outer loop
      vertex 46.9077 10.9562 4
      vertex 0 23 4
      vertex 46.1082 9.60433 4
    endloop
  endfacet
  facet normal 0 1.22465e-16 1
    outer loop
      vertex 47.6207 12.3555 4
      vertex 0 23 4
      vertex 46.9077 10.9562 4
    endloop
  endfacet
  facet normal 0 1.22465e-16 1
    outer loop
      vertex 48.2444 13.7969 4
      vertex 0 23 4
      vertex 47.6207 12.3555 4
    endloop
  endfacet
  facet normal 0 1.22465e-16 1
    outer loop
      vertex 48.7764 15.2746 4
      vertex 0 23 4
      vertex 48.2444 13.7969 4
    endloop
  endfacet
  facet normal 0 1.22465e-16 1
    outer loop
      vertex 49.2146 16.7828 4
      vertex 0 23 4
      vertex 48.7764 15.2746 4
    endloop
  endfacet
  facet normal 0 1.22465e-16 1
    outer loop
      vertex 49.5572 18.3155 4
      vertex 0 23 4
      vertex 49.2146 16.7828 4
    endloop
  endfacet
  facet normal 0 1.22465e-16 1
    outer loop
      vertex 49.8029 19.8667 4
      vertex 0 23 4
      vertex 49.5572 18.3155 4
    endloop
  endfacet
  facet normal 0 1.22465e-16 1
    outer loop
      vertex 49.9507 21.4302 4
      vertex 0 23 4
      vertex 49.8029 19.8667 4
    endloop
  endfacet
  facet normal 0 1.22465e-16 1
    outer loop
      vertex 50 23 4
      vertex 0 23 4
      vertex 49.9507 21.4302 4
    endloop
  endfacet
  facet normal 0 1.22465e-16 1
    outer loop
      vertex 49.9507 24.5698 4
      vertex 0 23 4
      vertex 50 23 4
    endloop
  endfacet
  facet normal 0 1.22465e-16 1
    outer loop
      vertex 49.8029 26.1333 4
      vertex 0 23 4
      vertex 49.9507 24.5698 4
    endloop
  endfacet
  facet normal 0 1.22465e-16 1
    outer loop
      vertex 49.5572 27.6845 4
      vertex 0 23 4
      vertex 49.8029 26.1333 4
    endloop
  endfacet
  facet normal 0 1.22465e-16 1
    outer loop
      vertex 49.2146 29.2172 4
      vertex 0 23 4
      vertex 49.5572 27.6845 4
    endloop
  endfacet
  facet normal 0 1.22465e-16 1
    outer loop
      vertex 48.7764 30.7254 4
      vertex 0 23 4
      vertex 49.2146 29.2172 4
    endloop
  endfacet
  facet normal 0 1.22465e-16 1
    outer loop
      vertex 48.2444 32.2031 4
      vertex 0 23 4
      vertex 48.7764 30.7254 4
    endloop
  endfacet
  facet normal 0 1.22465e-16 1
    outer loop
      vertex 47.6207 33.6445 4
      vertex 0 23 4
      vertex 48.2444 32.2031 4
    endloop
  endfacet
  facet normal 0 1.22465e-16 1
    outer loop
      vertex 46.9077 35.0438 4
      vertex 0 23 4
      vertex 47.6207 33.6445 4
    endloop
  endfacet
  facet normal 0 1.22465e-16 1
    outer loop
      vertex 46.1082 36.3957 4
      vertex 0 23 4
      vertex 46.9077 35.0438 4
    endloop
  endfacet
  facet normal 0 1.22465e-16 1
    outer loop
      vertex 45.2254 37.6946 4
      vertex 0 23 4
      vertex 46.1082 36.3957 4
    endloop
  endfacet
  facet normal 0 1.22465e-16 1
    outer loop
      vertex 44.2628 38.9356 4
      vertex 0 23 4
      vertex 45.2254 37.6946 4
    endloop
  endfacet
  facet normal 0 1.22465e-16 1
    outer loop
      vertex 43.2242 40.1137 4
      vertex 0 23 4
      vertex 44.2628 38.9356 4
    endloop
  endfacet
  facet normal 0 1.22465e-16 1
    outer loop
      vertex 42.1137 41.2242 4
      vertex 0 23 4
      vertex 43.2242 40.1137 4
    endloop
  endfacet
  facet normal 0 1.22465e-16 1
    outer loop
      vertex 40.9356 42.2628 4
      vertex 0 23 4
      vertex 42.1137 41.2242 4
    endloop
  endfacet
  facet normal 0 1.22465e-16 1
    outer loop
      vertex 39.6946 43.2254 4
      vertex 0 23 4
      vertex 40.9356 42.2628 4
    endloop
  endfacet
  facet normal 0 1.22465e-16 1
    outer loop
      vertex 38.3957 44.1082 4
      vertex 0 23 4
      vertex 39.6946 43.2254 4
    endloop
  endfacet
  facet normal 0 1.22465e-16 1
    outer loop
      vertex 37.0438 44.9077 4
      vertex 0 23 4
      vertex 38.3957 44.1082 4
    endloop
  endfacet
  facet normal 0 1.22465e-16 1
    outer loop
      vertex 35.6445 45.6207 4
      vertex 0 23 4
      vertex 37.0438 44.9077 4
    endloop
  endfacet
  facet normal 0 1.22465e-16 1
    outer loop
      vertex 34.2031 46.2444 4
      vertex 0 23 4
      vertex 35.6445 45.6207 4
    endloop
  endfacet
  facet normal 0 1.22465e-16 1
    outer loop
      vertex 32.7254 46.7764 4
      vertex 0 23 4
      vertex 34.2031 46.2444 4
    endloop
  endfacet
  facet normal 0 1.22465e-16 1
    outer loop
      vertex 31.2172 47.2146 4
      vertex 0 23 4
      vertex 32.7254 46.7764 4
    endloop
  endfacet
  facet normal 0 1.22465e-16 1
    outer loop
      vertex 29.6845 47.5572 4
      vertex 0 23 4
      vertex 31.2172 47.2146 4
    endloop
  endfacet
  facet normal 0 1.22465e-16 1
    outer loop
      vertex 28.1333 47.8029 4
      vertex 0 23 4
      vertex 29.6845 47.5572 4
    endloop
  endfacet
  facet normal 0 1.22465e-16 1
    outer loop
      vertex 26.5698 47.9507 4
      vertex 0 23 4
      vertex 28.1333 47.8029 4
    endloop
  endfacet
  facet normal 0 1.22465e-16 1
    outer loop
      vertex 25 48 4
      vertex 0 23 4
      vertex 26.5698 47.9507 4
    endloop
  endfacet
  facet normal 0 1.22465e-16 1
    outer loop
      vertex 23.4302 47.9507 4
      vertex 0 23 4
      vertex 25 48 4
    endloop
  endfacet
  facet normal 0 1.22465e-16 1
    outer loop
      vertex 21.8667 47.8029 4
      vertex 0 23 4
      vertex 23.4302 47.9507 4
    endloop
  endfacet
  facet normal 0 1.22465e-16 1
    outer loop
      vertex 20.3155 47.5572 4
      vertex 0 23 4
      vertex 21.8667 47.8029 4
    endloop
  endfacet
  facet normal 0 1.22465e-16 1
    outer loop
      vertex 18.7828 47.2146 4
      vertex 0 23 4
      vertex 20.3155 47.5572 4
    endloop
  endfacet
  facet normal 0 1.22465e-16 1
    outer loop
      vertex 17.2746 46.7764 4
      vertex 0 23 4
      vertex 18.7828 47.2146 4
    endloop
  endfacet
  facet normal 0 1.22465e-16 1
    outer loop
      vertex 15.7969 46.2444 4
      vertex 0 23 4
      vertex 17.2746 46.7764 4
    endloop
  endfacet
  facet normal 0 1.22465e-16 1
    outer loop
      vertex 14.3555 45.6207 4
      vertex 0 23 4
      vertex 15.7969 46.2444 4
    endloop
  endfacet
  facet normal 0 1.22465e-16 1
    outer loop
      vertex 12.9562 44.9077 4
      vertex 0 23 4
      vertex 14.3555 45.6207 4
    endloop
  endfacet
  facet normal 0 1.22465e-16 1
    outer loop
      vertex 11.6043 44.1082 4
      vertex 0 23 4
      vertex 12.9562 44.9077 4
    endloop
  endfacet
  facet normal 0 1.22465e-16 1
    outer loop
      vertex 10.3054 43.2254 4
      vertex 0 23 4
      vertex 11.6043 44.1082 4
    endloop
  endfacet
  facet normal 0 1.22465e-16 1
    outer loop
      vertex 9.0644 42.2628 4
      vertex 0 23 4
      vertex 10.3054 43.2254 4
    endloop
  endfacet
  facet normal 0 1.22465e-16 1
    outer loop
      vertex 7.88632 41.2242 4
      vertex 0 23 4
      vertex 9.0644 42.2628 4
    endloop
  endfacet
  facet normal 0 1.22465e-16 1
    outer loop
      vertex 6.77578 40.1137 4
      vertex 0 23 4
      vertex 7.88632 41.2242 4
    endloop
  endfacet
  facet normal 0 1.22465e-16 1
    outer loop
      vertex 5.73717 38.9356 4
      vertex 0 23 4
      vertex 6.77578 40.1137 4
    endloop
  endfacet
  facet normal 0 1.22465e-16 1
    outer loop
      vertex 4.77458 37.6946 4
      vertex 0 23 4
      vertex 5.73717 38.9356 4
    endloop
  endfacet
  facet normal 0 1.22465e-16 1
    outer loop
      vertex 3.8918 36.3957 4
      vertex 0 23 4
      vertex 4.77458 37.6946 4
    endloop
  endfacet
  facet normal 0 1.22465e-16 1
    outer loop
      vertex 3.09233 35.0438 4
      vertex 0 23 4
      vertex 3.8918 36.3957 4
    endloop
  endfacet
  facet normal 0 1.22465e-16 1
    outer loop
      vertex 2.37932 33.6445 4
      vertex 0 23 4
      vertex 3.09233 35.0438 4
    endloop
  endfacet
  facet normal 0 1.22465e-16 1
    outer loop
      vertex 1.75559 32.2031 4
      vertex 0 23 4
      vertex 2.37932 33.6445 4
    endloop
  endfacet
  facet normal 0 1.22465e-16 1
    outer loop
      vertex 1.22359 30.7254 4
      vertex 0 23 4
      vertex 1.75559 32.2031 4
    endloop
  endfacet
  facet normal 0 1.22465e-16 1
    outer loop
      vertex 0.785421 29.2172 4
      vertex 0 23 4
      vertex 1.22359 30.7254 4
    endloop
  endfacet
  facet normal 0 1.22465e-16 1
    outer loop
      vertex 0.442819 27.6845 4
      vertex 0 23 4
      vertex 0.785421 29.2172 4
    endloop
  endfacet
  facet normal 0 1.22465e-16 1
    outer loop
      vertex 0.197132 26.1333 4
      vertex 0 23 4
      vertex 0.442819 27.6845 4
    endloop
  endfacet
  facet normal 0 1.22465e-16 1
    outer loop
      vertex 0.049332 24.5698 4
      vertex 0 23 4
      vertex 0.197132 26.1333 4
    endloop
  endfacet
  facet normal 0.920733 -0.0289353 -0.389119
    outer loop
      vertex 48.3095 23 3.06162e-15
      vertex 50 23 4
      vertex 49.9507 21.4302 4
    endloop
  endfacet
  facet normal 0.920733 -0.0289352 -0.389119
    outer loop
      vertex 48.2635 21.5364 3.24086e-15
      vertex 48.3095 23 3.06162e-15
      vertex 49.9507 21.4302 4
    endloop
  endfacet
  facet normal 0.917099 -0.086691 -0.389119
    outer loop
      vertex 48.2635 21.5364 3.24086e-15
      vertex 49.9507 21.4302 4
      vertex 49.8029 19.8667 4
    endloop
  endfacet
  facet normal -0.920733 -0.0289353 -0.389119
    outer loop
      vertex 0 23 4
      vertex 1.73647 21.5364 3.24086e-15
      vertex 0.049332 21.4302 4
    endloop
  endfacet
  facet normal -0.920733 -0.0289352 -0.389119
    outer loop
      vertex 0 23 4
      vertex 1.69047 23 3.06162e-15
      vertex 1.73647 21.5364 3.24086e-15
    endloop
  endfacet
  facet normal -0.920733 0.0289353 -0.389119
    outer loop
      vertex 0 23 4
      vertex 0.049332 24.5698 4
      vertex 1.69047 23 3.06162e-15
    endloop
  endfacet
  facet normal -0.920733 0.0289352 -0.389119
    outer loop
      vertex 0.049332 24.5698 4
      vertex 1.73647 24.4636 2.88238e-15
      vertex 1.69047 23 3.06162e-15
    endloop
  endfacet
  facet normal -0.917099 0.086691 -0.389119
    outer loop
      vertex 0.049332 24.5698 4
      vertex 0.197132 26.1333 4
      vertex 1.73647 24.4636 2.88238e-15
    endloop
  endfacet
  facet normal -0.917099 0.0866917 -0.389119
    outer loop
      vertex 0.197132 26.1333 4
      vertex 1.87428 25.9215 2.70384e-15
      vertex 1.73647 24.4636 2.88238e-15
    endloop
  endfacet
  facet normal -0.909846 0.144106 -0.389119
    outer loop
      vertex 0.197132 26.1333 4
      vertex 0.442819 27.6845 4
      vertex 1.87428 25.9215 2.70384e-15
    endloop
  endfacet
  facet normal -0.909846 0.144105 -0.389119
    outer loop
      vertex 0.442819 27.6845 4
      vertex 2.10335 27.3678 2.52672e-15
      vertex 1.87428 25.9215 2.70384e-15
    endloop
  endfacet
  facet normal -0.899003 0.200951 -0.389119
    outer loop
      vertex 0.442819 27.6845 4
      vertex 0.785421 29.2172 4
      vertex 2.10335 27.3678 2.52672e-15
    endloop
  endfacet
  facet normal -0.899002 0.200951 -0.389119
    outer loop
      vertex 0.785421 29.2172 4
      vertex 2.42279 28.7968 2.35171e-15
      vertex 2.10335 27.3678 2.52672e-15
    endloop
  endfacet
  facet normal -0.884611 0.257003 -0.389119
    outer loop
      vertex 0.785421 29.2172 4
      vertex 1.22359 30.7254 4
      vertex 2.42279 28.7968 2.35171e-15
    endloop
  endfacet
  facet normal -0.884611 0.257003 -0.389119
    outer loop
      vertex 1.22359 30.7254 4
      vertex 2.83132 30.203 2.1795e-15
      vertex 2.42279 28.7968 2.35171e-15
    endloop
  endfacet
  facet normal -0.866728 0.312041 -0.389119
    outer loop
      vertex 1.22359 30.7254 4
      vertex 1.75559 32.2031 4
      vertex 2.83132 30.203 2.1795e-15
    endloop
  endfacet
  facet normal -0.866728 0.312042 -0.389119
    outer loop
      vertex 1.75559 32.2031 4
      vertex 3.32735 31.5808 2.01077e-15
      vertex 2.83132 30.203 2.1795e-15
    endloop
  endfacet
  facet normal -0.845424 0.365848 -0.389119
    outer loop
      vertex 1.75559 32.2031 4
      vertex 2.37932 33.6445 4
      vertex 3.32735 31.5808 2.01077e-15
    endloop
  endfacet
  facet normal -0.845424 0.365847 -0.389118
    outer loop
      vertex 2.37932 33.6445 4
      vertex 3.90891 32.9247 1.84619e-15
      vertex 3.32735 31.5808 2.01077e-15
    endloop
  endfacet
  facet normal -0.820784 0.41821 -0.389118
    outer loop
      vertex 2.37932 33.6445 4
      vertex 3.09233 35.0438 4
      vertex 3.90891 32.9247 1.84619e-15
    endloop
  endfacet
  facet normal -0.820784 0.418211 -0.389119
    outer loop
      vertex 3.09233 35.0438 4
      vertex 4.57371 34.2294 1.68641e-15
      vertex 3.90891 32.9247 1.84619e-15
    endloop
  endfacet
  facet normal -0.792905 0.468923 -0.389119
    outer loop
      vertex 3.09233 35.0438 4
      vertex 3.8918 36.3957 4
      vertex 4.57371 34.2294 1.68641e-15
    endloop
  endfacet
  facet normal -0.792905 0.468922 -0.389119
    outer loop
      vertex 3.8918 36.3957 4
      vertex 5.31912 35.4899 1.53205e-15
      vertex 4.57371 34.2294 1.68641e-15
    endloop
  endfacet
  facet normal -0.761896 0.517784 -0.389119
    outer loop
      vertex 3.8918 36.3957 4
      vertex 4.77458 37.6946 4
      vertex 5.31912 35.4899 1.53205e-15
    endloop
  endfacet
  facet normal -0.761896 0.517785 -0.389119
    outer loop
      vertex 4.77458 37.6946 4
      vertex 6.1422 36.701 1.38373e-15
      vertex 5.31912 35.4899 1.53205e-15
    endloop
  endfacet
  facet normal -0.727881 0.564602 -0.389119
    outer loop
      vertex 4.77458 37.6946 4
      vertex 5.73717 38.9356 4
      vertex 6.1422 36.701 1.38373e-15
    endloop
  endfacet
  facet normal -0.727881 0.564602 -0.389119
    outer loop
      vertex 5.73717 38.9356 4
      vertex 7.0397 37.8581 1.24203e-15
      vertex 6.1422 36.701 1.38373e-15
    endloop
  endfacet
  facet normal -0.690993 0.609192 -0.389119
    outer loop
      vertex 5.73717 38.9356 4
      vertex 6.77578 40.1137 4
      vertex 7.0397 37.8581 1.24203e-15
    endloop
  endfacet
  facet normal -0.690993 0.609192 -0.389119
    outer loop
      vertex 6.77578 40.1137 4
      vertex 8.00809 38.9565 1.10751e-15
      vertex 7.0397 37.8581 1.24203e-15
    endloop
  endfacet
  facet normal -0.651378 0.651378 -0.389119
    outer loop
      vertex 7.88632 41.2242 4
      vertex 9.04353 39.9919 9.80708e-16
      vertex 6.77578 40.1137 4
    endloop
  endfacet
  facet normal -0.651378 0.651378 -0.389119
    outer loop
      vertex 6.77578 40.1137 4
      vertex 9.04353 39.9919 9.80708e-16
      vertex 8.00809 38.9565 1.10751e-15
    endloop
  endfacet
  facet normal -0.609192 0.690993 -0.389119
    outer loop
      vertex 7.88632 41.2242 4
      vertex 9.0644 42.2628 4
      vertex 9.04353 39.9919 9.80708e-16
    endloop
  endfacet
  facet normal -0.609192 0.690993 -0.389119
    outer loop
      vertex 9.04353 39.9919 9.80708e-16
      vertex 9.0644 42.2628 4
      vertex 10.1419 40.9603 8.62115e-16
    endloop
  endfacet
  facet normal -0.564602 0.727881 -0.389119
    outer loop
      vertex 9.0644 42.2628 4
      vertex 10.3054 43.2254 4
      vertex 10.1419 40.9603 8.62115e-16
    endloop
  endfacet
  facet normal -0.564602 0.727881 -0.389119
    outer loop
      vertex 10.1419 40.9603 8.62115e-16
      vertex 10.3054 43.2254 4
      vertex 11.299 41.8578 7.52202e-16
    endloop
  endfacet
  facet normal -0.517784 0.761896 -0.389119
    outer loop
      vertex 10.3054 43.2254 4
      vertex 11.6043 44.1082 4
      vertex 11.299 41.8578 7.52202e-16
    endloop
  endfacet
  facet normal -0.517785 0.761896 -0.389119
    outer loop
      vertex 11.299 41.8578 7.52202e-16
      vertex 11.6043 44.1082 4
      vertex 12.5101 42.6809 6.51404e-16
    endloop
  endfacet
  facet normal -0.468923 0.792905 -0.389119
    outer loop
      vertex 11.6043 44.1082 4
      vertex 12.9562 44.9077 4
      vertex 12.5101 42.6809 6.51404e-16
    endloop
  endfacet
  facet normal -0.468922 0.792905 -0.389119
    outer loop
      vertex 12.5101 42.6809 6.51404e-16
      vertex 12.9562 44.9077 4
      vertex 13.7706 43.4263 5.60117e-16
    endloop
  endfacet
  facet normal -0.41821 0.820784 -0.389119
    outer loop
      vertex 12.9562 44.9077 4
      vertex 14.3555 45.6207 4
      vertex 13.7706 43.4263 5.60117e-16
    endloop
  endfacet
  facet normal -0.418211 0.820784 -0.389118
    outer loop
      vertex 13.7706 43.4263 5.60117e-16
      vertex 14.3555 45.6207 4
      vertex 15.0753 44.0911 4.78703e-16
    endloop
  endfacet
  facet normal -0.365848 0.845424 -0.389118
    outer loop
      vertex 14.3555 45.6207 4
      vertex 15.7969 46.2444 4
      vertex 15.0753 44.0911 4.78703e-16
    endloop
  endfacet
  facet normal -0.365847 0.845424 -0.389119
    outer loop
      vertex 15.0753 44.0911 4.78703e-16
      vertex 15.7969 46.2444 4
      vertex 16.4192 44.6726 4.07483e-16
    endloop
  endfacet
  facet normal -0.312041 0.866728 -0.389119
    outer loop
      vertex 15.7969 46.2444 4
      vertex 17.2746 46.7764 4
      vertex 16.4192 44.6726 4.07483e-16
    endloop
  endfacet
  facet normal -0.312042 0.866728 -0.389119
    outer loop
      vertex 16.4192 44.6726 4.07483e-16
      vertex 17.2746 46.7764 4
      vertex 17.797 45.1687 3.46737e-16
    endloop
  endfacet
  facet normal -0.257003 0.884611 -0.389119
    outer loop
      vertex 17.2746 46.7764 4
      vertex 18.7828 47.2146 4
      vertex 17.797 45.1687 3.46737e-16
    endloop
  endfacet
  facet normal -0.257003 0.884611 -0.389119
    outer loop
      vertex 17.797 45.1687 3.46737e-16
      vertex 18.7828 47.2146 4
      vertex 19.2032 45.5772 2.96706e-16
    endloop
  endfacet
  facet normal -0.200951 0.899002 -0.389119
    outer loop
      vertex 18.7828 47.2146 4
      vertex 20.3155 47.5572 4
      vertex 19.2032 45.5772 2.96706e-16
    endloop
  endfacet
  facet normal -0.200951 0.899002 -0.389119
    outer loop
      vertex 19.2032 45.5772 2.96706e-16
      vertex 20.3155 47.5572 4
      vertex 20.6322 45.8967 2.57586e-16
    endloop
  endfacet
  facet normal -0.144106 0.909846 -0.389119
    outer loop
      vertex 20.3155 47.5572 4
      vertex 21.8667 47.8029 4
      vertex 20.6322 45.8967 2.57586e-16
    endloop
  endfacet
  facet normal -0.144105 0.909846 -0.389119
    outer loop
      vertex 20.6322 45.8967 2.57586e-16
      vertex 21.8667 47.8029 4
      vertex 22.0785 46.1257 2.29533e-16
    endloop
  endfacet
  facet normal -0.086691 0.917099 -0.389119
    outer loop
      vertex 21.8667 47.8029 4
      vertex 23.4302 47.9507 4
      vertex 22.0785 46.1257 2.29533e-16
    endloop
  endfacet
  facet normal -0.0866917 0.917099 -0.389119
    outer loop
      vertex 22.0785 46.1257 2.29533e-16
      vertex 23.4302 47.9507 4
      vertex 23.5364 46.2635 2.12656e-16
    endloop
  endfacet
  facet normal -0.0289353 0.920733 -0.389119
    outer loop
      vertex 23.4302 47.9507 4
      vertex 25 48 4
      vertex 23.5364 46.2635 2.12656e-16
    endloop
  endfacet
  facet normal -0.0289352 0.920733 -0.389119
    outer loop
      vertex 23.5364 46.2635 2.12656e-16
      vertex 25 48 4
      vertex 25 46.3095 2.07023e-16
    endloop
  endfacet
  facet normal 0.0289353 0.920733 -0.389119
    outer loop
      vertex 25 48 4
      vertex 26.5698 47.9507 4
      vertex 25 46.3095 2.07023e-16
    endloop
  endfacet
  facet normal 0.0289352 0.920733 -0.389119
    outer loop
      vertex 25 46.3095 2.07023e-16
      vertex 26.5698 47.9507 4
      vertex 26.4636 46.2635 2.12656e-16
    endloop
  endfacet
  facet normal 0.086691 0.917099 -0.389119
    outer loop
      vertex 26.4636 46.2635 2.12656e-16
      vertex 26.5698 47.9507 4
      vertex 28.1333 47.8029 4
    endloop
  endfacet
  facet normal 0.0866917 0.917099 -0.389119
    outer loop
      vertex 26.4636 46.2635 2.12656e-16
      vertex 28.1333 47.8029 4
      vertex 27.9215 46.1257 2.29533e-16
    endloop
  endfacet
  facet normal 0.144106 0.909846 -0.389119
    outer loop
      vertex 27.9215 46.1257 2.29533e-16
      vertex 28.1333 47.8029 4
      vertex 29.6845 47.5572 4
    endloop
  endfacet
  facet normal 0.144105 0.909846 -0.389119
    outer loop
      vertex 27.9215 46.1257 2.29533e-16
      vertex 29.6845 47.5572 4
      vertex 29.3678 45.8967 2.57586e-16
    endloop
  endfacet
  facet normal 0.200951 0.899003 -0.389119
    outer loop
      vertex 29.3678 45.8967 2.57586e-16
      vertex 29.6845 47.5572 4
      vertex 31.2172 47.2146 4
    endloop
  endfacet
  facet normal 0.200951 0.899002 -0.389119
    outer loop
      vertex 29.3678 45.8967 2.57586e-16
      vertex 31.2172 47.2146 4
      vertex 30.7968 45.5772 2.96706e-16
    endloop
  endfacet
  facet normal 0.257003 0.884611 -0.389119
    outer loop
      vertex 30.7968 45.5772 2.96706e-16
      vertex 31.2172 47.2146 4
      vertex 32.7254 46.7764 4
    endloop
  endfacet
  facet normal 0.257003 0.884611 -0.389119
    outer loop
      vertex 30.7968 45.5772 2.96706e-16
      vertex 32.7254 46.7764 4
      vertex 32.203 45.1687 3.46737e-16
    endloop
  endfacet
  facet normal 0.312041 0.866728 -0.389119
    outer loop
      vertex 32.203 45.1687 3.46737e-16
      vertex 32.7254 46.7764 4
      vertex 34.2031 46.2444 4
    endloop
  endfacet
  facet normal 0.312042 0.866728 -0.389119
    outer loop
      vertex 32.203 45.1687 3.46737e-16
      vertex 34.2031 46.2444 4
      vertex 33.5808 44.6726 4.07483e-16
    endloop
  endfacet
  facet normal 0.365848 0.845424 -0.389119
    outer loop
      vertex 33.5808 44.6726 4.07483e-16
      vertex 34.2031 46.2444 4
      vertex 35.6445 45.6207 4
    endloop
  endfacet
  facet normal 0.365847 0.845424 -0.389118
    outer loop
      vertex 33.5808 44.6726 4.07483e-16
      vertex 35.6445 45.6207 4
      vertex 34.9247 44.0911 4.78703e-16
    endloop
  endfacet
  facet normal 0.41821 0.820784 -0.389118
    outer loop
      vertex 34.9247 44.0911 4.78703e-16
      vertex 35.6445 45.6207 4
      vertex 37.0438 44.9077 4
    endloop
  endfacet
  facet normal 0.418211 0.820784 -0.389119
    outer loop
      vertex 34.9247 44.0911 4.78703e-16
      vertex 37.0438 44.9077 4
      vertex 36.2294 43.4263 5.60117e-16
    endloop
  endfacet
  facet normal 0.468923 0.792905 -0.389119
    outer loop
      vertex 36.2294 43.4263 5.60117e-16
      vertex 37.0438 44.9077 4
      vertex 38.3957 44.1082 4
    endloop
  endfacet
  facet normal 0.468922 0.792905 -0.389119
    outer loop
      vertex 36.2294 43.4263 5.60117e-16
      vertex 38.3957 44.1082 4
      vertex 37.4899 42.6809 6.51404e-16
    endloop
  endfacet
  facet normal 0.517784 0.761896 -0.389119
    outer loop
      vertex 37.4899 42.6809 6.51404e-16
      vertex 38.3957 44.1082 4
      vertex 39.6946 43.2254 4
    endloop
  endfacet
  facet normal 0.517785 0.761896 -0.389119
    outer loop
      vertex 37.4899 42.6809 6.51404e-16
      vertex 39.6946 43.2254 4
      vertex 38.701 41.8578 7.52202e-16
    endloop
  endfacet
  facet normal 0.564602 0.727881 -0.389119
    outer loop
      vertex 38.701 41.8578 7.52202e-16
      vertex 39.6946 43.2254 4
      vertex 40.9356 42.2628 4
    endloop
  endfacet
  facet normal 0.564602 0.727881 -0.389119
    outer loop
      vertex 38.701 41.8578 7.52202e-16
      vertex 40.9356 42.2628 4
      vertex 39.8581 40.9603 8.62115e-16
    endloop
  endfacet
  facet normal 0.609192 0.690993 -0.389119
    outer loop
      vertex 39.8581 40.9603 8.62115e-16
      vertex 40.9356 42.2628 4
      vertex 42.1137 41.2242 4
    endloop
  endfacet
  facet normal 0.609192 0.690993 -0.389119
    outer loop
      vertex 39.8581 40.9603 8.62115e-16
      vertex 42.1137 41.2242 4
      vertex 40.9565 39.9919 9.80708e-16
    endloop
  endfacet
  facet normal 0.651378 0.651378 -0.389119
    outer loop
      vertex 40.9565 39.9919 9.80708e-16
      vertex 42.1137 41.2242 4
      vertex 43.2242 40.1137 4
    endloop
  endfacet
  facet normal 0.651378 0.651378 -0.389119
    outer loop
      vertex 41.9919 38.9565 1.10751e-15
      vertex 40.9565 39.9919 9.80708e-16
      vertex 43.2242 40.1137 4
    endloop
  endfacet
  facet normal 0.690993 0.609192 -0.389119
    outer loop
      vertex 41.9919 38.9565 1.10751e-15
      vertex 43.2242 40.1137 4
      vertex 44.2628 38.9356 4
    endloop
  endfacet
  facet normal 0.690993 0.609192 -0.389119
    outer loop
      vertex 41.9919 38.9565 1.10751e-15
      vertex 44.2628 38.9356 4
      vertex 42.9603 37.8581 1.24203e-15
    endloop
  endfacet
  facet normal 0.727881 0.564602 -0.389119
    outer loop
      vertex 42.9603 37.8581 1.24203e-15
      vertex 44.2628 38.9356 4
      vertex 45.2254 37.6946 4
    endloop
  endfacet
  facet normal 0.727881 0.564602 -0.389119
    outer loop
      vertex 42.9603 37.8581 1.24203e-15
      vertex 45.2254 37.6946 4
      vertex 43.8578 36.701 1.38373e-15
    endloop
  endfacet
  facet normal 0.761896 0.517784 -0.389119
    outer loop
      vertex 43.8578 36.701 1.38373e-15
      vertex 45.2254 37.6946 4
      vertex 46.1082 36.3957 4
    endloop
  endfacet
  facet normal 0.761896 0.517785 -0.389119
    outer loop
      vertex 43.8578 36.701 1.38373e-15
      vertex 46.1082 36.3957 4
      vertex 44.6809 35.4899 1.53205e-15
    endloop
  endfacet
  facet normal 0.792905 0.468923 -0.389119
    outer loop
      vertex 44.6809 35.4899 1.53205e-15
      vertex 46.1082 36.3957 4
      vertex 46.9077 35.0438 4
    endloop
  endfacet
  facet normal 0.792905 0.468922 -0.389119
    outer loop
      vertex 44.6809 35.4899 1.53205e-15
      vertex 46.9077 35.0438 4
      vertex 45.4263 34.2294 1.68641e-15
    endloop
  endfacet
  facet normal 0.820784 0.41821 -0.389119
    outer loop
      vertex 45.4263 34.2294 1.68641e-15
      vertex 46.9077 35.0438 4
      vertex 47.6207 33.6445 4
    endloop
  endfacet
  facet normal 0.820784 0.418211 -0.389118
    outer loop
      vertex 45.4263 34.2294 1.68641e-15
      vertex 47.6207 33.6445 4
      vertex 46.0911 32.9247 1.84619e-15
    endloop
  endfacet
  facet normal 0.845424 0.365848 -0.389118
    outer loop
      vertex 46.0911 32.9247 1.84619e-15
      vertex 47.6207 33.6445 4
      vertex 48.2444 32.2031 4
    endloop
  endfacet
  facet normal 0.845424 0.365847 -0.389119
    outer loop
      vertex 46.0911 32.9247 1.84619e-15
      vertex 48.2444 32.2031 4
      vertex 46.6726 31.5808 2.01077e-15
    endloop
  endfacet
  facet normal 0.866728 0.312041 -0.389119
    outer loop
      vertex 46.6726 31.5808 2.01077e-15
      vertex 48.2444 32.2031 4
      vertex 48.7764 30.7254 4
    endloop
  endfacet
  facet normal 0.866728 0.312042 -0.389119
    outer loop
      vertex 46.6726 31.5808 2.01077e-15
      vertex 48.7764 30.7254 4
      vertex 47.1687 30.203 2.1795e-15
    endloop
  endfacet
  facet normal 0.884611 0.257003 -0.389119
    outer loop
      vertex 47.1687 30.203 2.1795e-15
      vertex 48.7764 30.7254 4
      vertex 49.2146 29.2172 4
    endloop
  endfacet
  facet normal 0.884611 0.257003 -0.389119
    outer loop
      vertex 47.1687 30.203 2.1795e-15
      vertex 49.2146 29.2172 4
      vertex 47.5772 28.7968 2.35171e-15
    endloop
  endfacet
  facet normal 0.899002 0.200951 -0.389119
    outer loop
      vertex 47.5772 28.7968 2.35171e-15
      vertex 49.2146 29.2172 4
      vertex 49.5572 27.6845 4
    endloop
  endfacet
  facet normal 0.899002 0.200951 -0.389119
    outer loop
      vertex 47.5772 28.7968 2.35171e-15
      vertex 49.5572 27.6845 4
      vertex 47.8967 27.3678 2.52672e-15
    endloop
  endfacet
  facet normal 0.909846 0.144106 -0.389119
    outer loop
      vertex 47.8967 27.3678 2.52672e-15
      vertex 49.5572 27.6845 4
      vertex 49.8029 26.1333 4
    endloop
  endfacet
  facet normal 0.909846 0.144105 -0.389119
    outer loop
      vertex 47.8967 27.3678 2.52672e-15
      vertex 49.8029 26.1333 4
      vertex 48.1257 25.9215 2.70384e-15
    endloop
  endfacet
  facet normal 0.917099 0.086691 -0.389119
    outer loop
      vertex 48.1257 25.9215 2.70384e-15
      vertex 49.8029 26.1333 4
      vertex 49.9507 24.5698 4
    endloop
  endfacet
  facet normal 0.917099 0.0866917 -0.389119
    outer loop
      vertex 48.1257 25.9215 2.70384e-15
      vertex 49.9507 24.5698 4
      vertex 48.2635 24.4636 2.88238e-15
    endloop
  endfacet
  facet normal 0.920733 0.0289353 -0.389119
    outer loop
      vertex 48.2635 24.4636 2.88238e-15
      vertex 49.9507 24.5698 4
      vertex 50 23 4
    endloop
  endfacet
  facet normal 0.920733 0.0289352 -0.389119
    outer loop
      vertex 48.2635 24.4636 2.88238e-15
      vertex 50 23 4
      vertex 48.3095 23 3.06162e-15
    endloop
  endfacet
  facet normal 0.917099 -0.0866917 -0.389119
    outer loop
      vertex 48.1257 20.0785 3.41939e-15
      vertex 48.2635 21.5364 3.24086e-15
      vertex 49.8029 19.8667 4
    endloop
  endfacet
  facet normal 0.909846 -0.144106 -0.389119
    outer loop
      vertex 48.1257 20.0785 3.41939e-15
      vertex 49.8029 19.8667 4
      vertex 49.5572 18.3155 4
    endloop
  endfacet
  facet normal 0.909846 -0.144105 -0.389119
    outer loop
      vertex 47.8967 18.6322 3.59651e-15
      vertex 48.1257 20.0785 3.41939e-15
      vertex 49.5572 18.3155 4
    endloop
  endfacet
  facet normal 0.899003 -0.200951 -0.389119
    outer loop
      vertex 47.8967 18.6322 3.59651e-15
      vertex 49.5572 18.3155 4
      vertex 49.2146 16.7828 4
    endloop
  endfacet
  facet normal 0.899002 -0.200951 -0.389119
    outer loop
      vertex 47.5772 17.2032 3.77153e-15
      vertex 47.8967 18.6322 3.59651e-15
      vertex 49.2146 16.7828 4
    endloop
  endfacet
  facet normal 0.884611 -0.257003 -0.389119
    outer loop
      vertex 47.5772 17.2032 3.77153e-15
      vertex 49.2146 16.7828 4
      vertex 48.7764 15.2746 4
    endloop
  endfacet
  facet normal 0.884611 -0.257003 -0.389119
    outer loop
      vertex 47.1687 15.797 3.94373e-15
      vertex 47.5772 17.2032 3.77153e-15
      vertex 48.7764 15.2746 4
    endloop
  endfacet
  facet normal 0.866728 -0.312041 -0.389119
    outer loop
      vertex 47.1687 15.797 3.94373e-15
      vertex 48.7764 15.2746 4
      vertex 48.2444 13.7969 4
    endloop
  endfacet
  facet normal 0.866728 -0.312042 -0.389119
    outer loop
      vertex 46.6726 14.4192 4.11246e-15
      vertex 47.1687 15.797 3.94373e-15
      vertex 48.2444 13.7969 4
    endloop
  endfacet
  facet normal 0.845424 -0.365848 -0.389119
    outer loop
      vertex 46.6726 14.4192 4.11246e-15
      vertex 48.2444 13.7969 4
      vertex 47.6207 12.3555 4
    endloop
  endfacet
  facet normal 0.845424 -0.365847 -0.389118
    outer loop
      vertex 46.0911 13.0753 4.27704e-15
      vertex 46.6726 14.4192 4.11246e-15
      vertex 47.6207 12.3555 4
    endloop
  endfacet
  facet normal 0.820784 -0.41821 -0.389118
    outer loop
      vertex 46.0911 13.0753 4.27704e-15
      vertex 47.6207 12.3555 4
      vertex 46.9077 10.9562 4
    endloop
  endfacet
  facet normal 0.820784 -0.418211 -0.389119
    outer loop
      vertex 45.4263 11.7705 4.43683e-15
      vertex 46.0911 13.0753 4.27704e-15
      vertex 46.9077 10.9562 4
    endloop
  endfacet
  facet normal 0.792905 -0.468923 -0.389119
    outer loop
      vertex 45.4263 11.7705 4.43683e-15
      vertex 46.9077 10.9562 4
      vertex 46.1082 9.60433 4
    endloop
  endfacet
  facet normal 0.792905 -0.468922 -0.389119
    outer loop
      vertex 44.6809 10.5101 4.59118e-15
      vertex 45.4263 11.7705 4.43683e-15
      vertex 46.1082 9.60433 4
    endloop
  endfacet
  facet normal 0.761896 -0.517784 -0.389119
    outer loop
      vertex 44.6809 10.5101 4.59118e-15
      vertex 46.1082 9.60433 4
      vertex 45.2254 8.30537 4
    endloop
  endfacet
  facet normal 0.761896 -0.517785 -0.389119
    outer loop
      vertex 43.8578 9.299 4.73951e-15
      vertex 44.6809 10.5101 4.59118e-15
      vertex 45.2254 8.30537 4
    endloop
  endfacet
  facet normal 0.727881 -0.564602 -0.389119
    outer loop
      vertex 43.8578 9.299 4.73951e-15
      vertex 45.2254 8.30537 4
      vertex 44.2628 7.0644 4
    endloop
  endfacet
  facet normal 0.727881 -0.564602 -0.389119
    outer loop
      vertex 42.9603 8.14195 4.8812e-15
      vertex 43.8578 9.299 4.73951e-15
      vertex 44.2628 7.0644 4
    endloop
  endfacet
  facet normal 0.690993 -0.609192 -0.389119
    outer loop
      vertex 42.9603 8.14195 4.8812e-15
      vertex 44.2628 7.0644 4
      vertex 43.2242 5.88632 4
    endloop
  endfacet
  facet normal 0.690993 -0.609192 -0.389119
    outer loop
      vertex 41.9919 7.04353 5.01572e-15
      vertex 42.9603 8.14195 4.8812e-15
      vertex 43.2242 5.88632 4
    endloop
  endfacet
  facet normal 0.651378 -0.651378 -0.389119
    outer loop
      vertex 40.9565 6.00809 5.14253e-15
      vertex 41.9919 7.04353 5.01572e-15
      vertex 43.2242 5.88632 4
    endloop
  endfacet
  facet normal 0.651378 -0.651378 -0.389119
    outer loop
      vertex 42.1137 4.77578 4
      vertex 40.9565 6.00809 5.14253e-15
      vertex 43.2242 5.88632 4
    endloop
  endfacet
  facet normal 0.609192 -0.690993 -0.389119
    outer loop
      vertex 40.9356 3.73717 4
      vertex 40.9565 6.00809 5.14253e-15
      vertex 42.1137 4.77578 4
    endloop
  endfacet
  facet normal 0.609192 -0.690993 -0.389119
    outer loop
      vertex 39.8581 5.0397 5.26112e-15
      vertex 40.9565 6.00809 5.14253e-15
      vertex 40.9356 3.73717 4
    endloop
  endfacet
  facet normal 0.564602 -0.727881 -0.389119
    outer loop
      vertex 39.6946 2.77458 4
      vertex 39.8581 5.0397 5.26112e-15
      vertex 40.9356 3.73717 4
    endloop
  endfacet
  facet normal 0.564602 -0.727881 -0.389119
    outer loop
      vertex 38.701 4.1422 5.37103e-15
      vertex 39.8581 5.0397 5.26112e-15
      vertex 39.6946 2.77458 4
    endloop
  endfacet
  facet normal 0.517784 -0.761896 -0.389119
    outer loop
      vertex 38.3957 1.8918 4
      vertex 38.701 4.1422 5.37103e-15
      vertex 39.6946 2.77458 4
    endloop
  endfacet
  facet normal 0.517785 -0.761896 -0.389119
    outer loop
      vertex 37.4899 3.31911 5.47183e-15
      vertex 38.701 4.1422 5.37103e-15
      vertex 38.3957 1.8918 4
    endloop
  endfacet
  facet normal 0.468923 -0.792905 -0.389119
    outer loop
      vertex 37.0438 1.09233 4
      vertex 37.4899 3.31911 5.47183e-15
      vertex 38.3957 1.8918 4
    endloop
  endfacet
  facet normal 0.468922 -0.792905 -0.389119
    outer loop
      vertex 36.2294 2.57371 5.56312e-15
      vertex 37.4899 3.31911 5.47183e-15
      vertex 37.0438 1.09233 4
    endloop
  endfacet
  facet normal 0.41821 -0.820784 -0.389119
    outer loop
      vertex 35.6445 0.379324 4
      vertex 36.2294 2.57371 5.56312e-15
      vertex 37.0438 1.09233 4
    endloop
  endfacet
  facet normal 0.418211 -0.820784 -0.389118
    outer loop
      vertex 34.9247 1.90891 5.64453e-15
      vertex 36.2294 2.57371 5.56312e-15
      vertex 35.6445 0.379324 4
    endloop
  endfacet
  facet normal 0.365848 -0.845424 -0.389118
    outer loop
      vertex 34.2031 -0.244412 4
      vertex 34.9247 1.90891 5.64453e-15
      vertex 35.6445 0.379324 4
    endloop
  endfacet
  facet normal 0.365847 -0.845424 -0.389119
    outer loop
      vertex 33.5808 1.32735 5.71575e-15
      vertex 34.9247 1.90891 5.64453e-15
      vertex 34.2031 -0.244412 4
    endloop
  endfacet
  facet normal 0.312041 -0.866728 -0.389119
    outer loop
      vertex 32.7254 -0.776413 4
      vertex 33.5808 1.32735 5.71575e-15
      vertex 34.2031 -0.244412 4
    endloop
  endfacet
  facet normal 0.312042 -0.866728 -0.389119
    outer loop
      vertex 32.203 0.831322 5.7765e-15
      vertex 33.5808 1.32735 5.71575e-15
      vertex 32.7254 -0.776413 4
    endloop
  endfacet
  facet normal 0.257003 -0.884611 -0.389119
    outer loop
      vertex 31.2172 -1.21458 4
      vertex 32.203 0.831322 5.7765e-15
      vertex 32.7254 -0.776413 4
    endloop
  endfacet
  facet normal 0.257003 -0.884611 -0.389119
    outer loop
      vertex 30.7968 0.422785 5.82653e-15
      vertex 32.203 0.831322 5.7765e-15
      vertex 31.2172 -1.21458 4
    endloop
  endfacet
  facet normal 0.200951 -0.899002 -0.389119
    outer loop
      vertex 29.6845 -1.55718 4
      vertex 30.7968 0.422785 5.82653e-15
      vertex 31.2172 -1.21458 4
    endloop
  endfacet
  facet normal 0.200951 -0.899002 -0.389119
    outer loop
      vertex 29.3678 0.103349 5.86565e-15
      vertex 30.7968 0.422785 5.82653e-15
      vertex 29.6845 -1.55718 4
    endloop
  endfacet
  facet normal 0.144106 -0.909846 -0.389119
    outer loop
      vertex 28.1333 -1.80287 4
      vertex 29.3678 0.103349 5.86565e-15
      vertex 29.6845 -1.55718 4
    endloop
  endfacet
  facet normal 0.144105 -0.909846 -0.389119
    outer loop
      vertex 27.9215 -0.125724 5.8937e-15
      vertex 29.3678 0.103349 5.86565e-15
      vertex 28.1333 -1.80287 4
    endloop
  endfacet
  facet normal 0.086691 -0.917099 -0.389119
    outer loop
      vertex 26.5698 -1.95067 4
      vertex 27.9215 -0.125724 5.8937e-15
      vertex 28.1333 -1.80287 4
    endloop
  endfacet
  facet normal 0.0866917 -0.917099 -0.389119
    outer loop
      vertex 26.4636 -0.263531 5.91058e-15
      vertex 27.9215 -0.125724 5.8937e-15
      vertex 26.5698 -1.95067 4
    endloop
  endfacet
  facet normal 0.0289353 -0.920733 -0.389119
    outer loop
      vertex 25 -2 4
      vertex 26.4636 -0.263531 5.91058e-15
      vertex 26.5698 -1.95067 4
    endloop
  endfacet
  facet normal 0.0289352 -0.920733 -0.389119
    outer loop
      vertex 25 -0.309527 5.91621e-15
      vertex 26.4636 -0.263531 5.91058e-15
      vertex 25 -2 4
    endloop
  endfacet
  facet normal -0.0289353 -0.920733 -0.389119
    outer loop
      vertex 23.4302 -1.95067 4
      vertex 25 -0.309527 5.91621e-15
      vertex 25 -2 4
    endloop
  endfacet
  facet normal -0.0289352 -0.920733 -0.389119
    outer loop
      vertex 23.4302 -1.95067 4
      vertex 23.5364 -0.263531 5.91058e-15
      vertex 25 -0.309527 5.91621e-15
    endloop
  endfacet
  facet normal -0.086691 -0.917099 -0.389119
    outer loop
      vertex 21.8667 -1.80287 4
      vertex 23.5364 -0.263531 5.91058e-15
      vertex 23.4302 -1.95067 4
    endloop
  endfacet
  facet normal -0.0866917 -0.917099 -0.389119
    outer loop
      vertex 21.8667 -1.80287 4
      vertex 22.0785 -0.125724 5.8937e-15
      vertex 23.5364 -0.263531 5.91058e-15
    endloop
  endfacet
  facet normal -0.144106 -0.909846 -0.389119
    outer loop
      vertex 20.3155 -1.55718 4
      vertex 22.0785 -0.125724 5.8937e-15
      vertex 21.8667 -1.80287 4
    endloop
  endfacet
  facet normal -0.144105 -0.909846 -0.389119
    outer loop
      vertex 20.3155 -1.55718 4
      vertex 20.6322 0.103349 5.86565e-15
      vertex 22.0785 -0.125724 5.8937e-15
    endloop
  endfacet
  facet normal -0.200951 -0.899003 -0.389119
    outer loop
      vertex 18.7828 -1.21458 4
      vertex 20.6322 0.103349 5.86565e-15
      vertex 20.3155 -1.55718 4
    endloop
  endfacet
  facet normal -0.200951 -0.899002 -0.389119
    outer loop
      vertex 18.7828 -1.21458 4
      vertex 19.2032 0.422785 5.82653e-15
      vertex 20.6322 0.103349 5.86565e-15
    endloop
  endfacet
  facet normal -0.257003 -0.884611 -0.389119
    outer loop
      vertex 17.2746 -0.776413 4
      vertex 19.2032 0.422785 5.82653e-15
      vertex 18.7828 -1.21458 4
    endloop
  endfacet
  facet normal -0.257003 -0.884611 -0.389119
    outer loop
      vertex 17.2746 -0.776413 4
      vertex 17.797 0.831322 5.7765e-15
      vertex 19.2032 0.422785 5.82653e-15
    endloop
  endfacet
  facet normal -0.312041 -0.866728 -0.389119
    outer loop
      vertex 15.7969 -0.244412 4
      vertex 17.797 0.831322 5.7765e-15
      vertex 17.2746 -0.776413 4
    endloop
  endfacet
  facet normal -0.312042 -0.866728 -0.389119
    outer loop
      vertex 15.7969 -0.244412 4
      vertex 16.4192 1.32735 5.71575e-15
      vertex 17.797 0.831322 5.7765e-15
    endloop
  endfacet
  facet normal -0.365848 -0.845424 -0.389119
    outer loop
      vertex 14.3555 0.379324 4
      vertex 16.4192 1.32735 5.71575e-15
      vertex 15.7969 -0.244412 4
    endloop
  endfacet
  facet normal -0.365847 -0.845424 -0.389118
    outer loop
      vertex 14.3555 0.379324 4
      vertex 15.0753 1.90891 5.64453e-15
      vertex 16.4192 1.32735 5.71575e-15
    endloop
  endfacet
  facet normal -0.41821 -0.820784 -0.389118
    outer loop
      vertex 12.9562 1.09233 4
      vertex 15.0753 1.90891 5.64453e-15
      vertex 14.3555 0.379324 4
    endloop
  endfacet
  facet normal -0.418211 -0.820784 -0.389119
    outer loop
      vertex 12.9562 1.09233 4
      vertex 13.7706 2.57371 5.56312e-15
      vertex 15.0753 1.90891 5.64453e-15
    endloop
  endfacet
  facet normal -0.468923 -0.792905 -0.389119
    outer loop
      vertex 11.6043 1.8918 4
      vertex 13.7706 2.57371 5.56312e-15
      vertex 12.9562 1.09233 4
    endloop
  endfacet
  facet normal -0.468922 -0.792905 -0.389119
    outer loop
      vertex 11.6043 1.8918 4
      vertex 12.5101 3.31911 5.47183e-15
      vertex 13.7706 2.57371 5.56312e-15
    endloop
  endfacet
  facet normal -0.517784 -0.761896 -0.389119
    outer loop
      vertex 10.3054 2.77458 4
      vertex 12.5101 3.31911 5.47183e-15
      vertex 11.6043 1.8918 4
    endloop
  endfacet
  facet normal -0.517785 -0.761896 -0.389119
    outer loop
      vertex 10.3054 2.77458 4
      vertex 11.299 4.1422 5.37103e-15
      vertex 12.5101 3.31911 5.47183e-15
    endloop
  endfacet
  facet normal -0.564602 -0.727881 -0.389119
    outer loop
      vertex 9.0644 3.73717 4
      vertex 11.299 4.1422 5.37103e-15
      vertex 10.3054 2.77458 4
    endloop
  endfacet
  facet normal -0.564602 -0.727881 -0.389119
    outer loop
      vertex 9.0644 3.73717 4
      vertex 10.1419 5.0397 5.26112e-15
      vertex 11.299 4.1422 5.37103e-15
    endloop
  endfacet
  facet normal -0.609192 -0.690993 -0.389119
    outer loop
      vertex 7.88632 4.77578 4
      vertex 10.1419 5.0397 5.26112e-15
      vertex 9.0644 3.73717 4
    endloop
  endfacet
  facet normal -0.609192 -0.690993 -0.389119
    outer loop
      vertex 7.88632 4.77578 4
      vertex 9.04353 6.00809 5.14253e-15
      vertex 10.1419 5.0397 5.26112e-15
    endloop
  endfacet
  facet normal -0.651378 -0.651378 -0.389119
    outer loop
      vertex 6.77578 5.88632 4
      vertex 8.00809 7.04353 5.01572e-15
      vertex 9.04353 6.00809 5.14253e-15
    endloop
  endfacet
  facet normal -0.651378 -0.651378 -0.389119
    outer loop
      vertex 7.88632 4.77578 4
      vertex 6.77578 5.88632 4
      vertex 9.04353 6.00809 5.14253e-15
    endloop
  endfacet
  facet normal -0.690993 -0.609192 -0.389119
    outer loop
      vertex 5.73717 7.0644 4
      vertex 8.00809 7.04353 5.01572e-15
      vertex 6.77578 5.88632 4
    endloop
  endfacet
  facet normal -0.690993 -0.609192 -0.389119
    outer loop
      vertex 5.73717 7.0644 4
      vertex 7.0397 8.14195 4.8812e-15
      vertex 8.00809 7.04353 5.01572e-15
    endloop
  endfacet
  facet normal -0.727881 -0.564602 -0.389119
    outer loop
      vertex 4.77458 8.30537 4
      vertex 7.0397 8.14195 4.8812e-15
      vertex 5.73717 7.0644 4
    endloop
  endfacet
  facet normal -0.727881 -0.564602 -0.389119
    outer loop
      vertex 4.77458 8.30537 4
      vertex 6.1422 9.299 4.73951e-15
      vertex 7.0397 8.14195 4.8812e-15
    endloop
  endfacet
  facet normal -0.761896 -0.517784 -0.389119
    outer loop
      vertex 3.8918 9.60433 4
      vertex 6.1422 9.299 4.73951e-15
      vertex 4.77458 8.30537 4
    endloop
  endfacet
  facet normal -0.761896 -0.517785 -0.389119
    outer loop
      vertex 3.8918 9.60433 4
      vertex 5.31912 10.5101 4.59118e-15
      vertex 6.1422 9.299 4.73951e-15
    endloop
  endfacet
  facet normal -0.792905 -0.468923 -0.389119
    outer loop
      vertex 3.09233 10.9562 4
      vertex 5.31912 10.5101 4.59118e-15
      vertex 3.8918 9.60433 4
    endloop
  endfacet
  facet normal -0.792905 -0.468922 -0.389119
    outer loop
      vertex 3.09233 10.9562 4
      vertex 4.57371 11.7705 4.43683e-15
      vertex 5.31912 10.5101 4.59118e-15
    endloop
  endfacet
  facet normal -0.820784 -0.41821 -0.389119
    outer loop
      vertex 2.37932 12.3555 4
      vertex 4.57371 11.7705 4.43683e-15
      vertex 3.09233 10.9562 4
    endloop
  endfacet
  facet normal -0.820784 -0.418211 -0.389118
    outer loop
      vertex 2.37932 12.3555 4
      vertex 3.90891 13.0753 4.27704e-15
      vertex 4.57371 11.7705 4.43683e-15
    endloop
  endfacet
  facet normal -0.845424 -0.365848 -0.389118
    outer loop
      vertex 1.75559 13.7969 4
      vertex 3.90891 13.0753 4.27704e-15
      vertex 2.37932 12.3555 4
    endloop
  endfacet
  facet normal -0.845424 -0.365847 -0.389119
    outer loop
      vertex 1.75559 13.7969 4
      vertex 3.32735 14.4192 4.11246e-15
      vertex 3.90891 13.0753 4.27704e-15
    endloop
  endfacet
  facet normal -0.866728 -0.312041 -0.389119
    outer loop
      vertex 1.22359 15.2746 4
      vertex 3.32735 14.4192 4.11246e-15
      vertex 1.75559 13.7969 4
    endloop
  endfacet
  facet normal -0.866728 -0.312042 -0.389119
    outer loop
      vertex 1.22359 15.2746 4
      vertex 2.83132 15.797 3.94373e-15
      vertex 3.32735 14.4192 4.11246e-15
    endloop
  endfacet
  facet normal -0.884611 -0.257003 -0.389119
    outer loop
      vertex 0.785421 16.7828 4
      vertex 2.83132 15.797 3.94373e-15
      vertex 1.22359 15.2746 4
    endloop
  endfacet
  facet normal -0.884611 -0.257003 -0.389119
    outer loop
      vertex 0.785421 16.7828 4
      vertex 2.42279 17.2032 3.77153e-15
      vertex 2.83132 15.797 3.94373e-15
    endloop
  endfacet
  facet normal -0.899002 -0.200951 -0.389119
    outer loop
      vertex 0.442819 18.3155 4
      vertex 2.42279 17.2032 3.77153e-15
      vertex 0.785421 16.7828 4
    endloop
  endfacet
  facet normal -0.899002 -0.200951 -0.389119
    outer loop
      vertex 0.442819 18.3155 4
      vertex 2.10335 18.6322 3.59651e-15
      vertex 2.42279 17.2032 3.77153e-15
    endloop
  endfacet
  facet normal -0.909846 -0.144106 -0.389119
    outer loop
      vertex 0.197132 19.8667 4
      vertex 2.10335 18.6322 3.59651e-15
      vertex 0.442819 18.3155 4
    endloop
  endfacet
  facet normal -0.909846 -0.144105 -0.389119
    outer loop
      vertex 0.197132 19.8667 4
      vertex 1.87428 20.0785 3.41939e-15
      vertex 2.10335 18.6322 3.59651e-15
    endloop
  endfacet
  facet normal -0.917099 -0.086691 -0.389119
    outer loop
      vertex 0.049332 21.4302 4
      vertex 1.87428 20.0785 3.41939e-15
      vertex 0.197132 19.8667 4
    endloop
  endfacet
  facet normal -0.917099 -0.0866917 -0.389119
    outer loop
      vertex 0.049332 21.4302 4
      vertex 1.73647 21.5364 3.24086e-15
      vertex 1.87428 20.0785 3.41939e-15
    endloop
  endfacet
  facet normal 0 -1.22465e-16 -1
    outer loop
      vertex 1.73647 24.4636 2.88238e-15
      vertex 1.87428 25.9215 2.70384e-15
      vertex 1.69047 23 3.06162e-15
    endloop
  endfacet
  facet normal 0 -1.22465e-16 -1
    outer loop
      vertex 1.69047 23 3.06162e-15
      vertex 1.87428 25.9215 2.70384e-15
      vertex 2.10335 27.3678 2.52672e-15
    endloop
  endfacet
  facet normal 0 -1.22465e-16 -1
    outer loop
      vertex 1.69047 23 3.06162e-15
      vertex 2.10335 27.3678 2.52672e-15
      vertex 2.42279 28.7968 2.35171e-15
    endloop
  endfacet
  facet normal 0 -1.22465e-16 -1
    outer loop
      vertex 1.69047 23 3.06162e-15
      vertex 2.42279 28.7968 2.35171e-15
      vertex 2.83132 30.203 2.1795e-15
    endloop
  endfacet
  facet normal 0 -1.22465e-16 -1
    outer loop
      vertex 1.69047 23 3.06162e-15
      vertex 2.83132 30.203 2.1795e-15
      vertex 3.32735 31.5808 2.01077e-15
    endloop
  endfacet
  facet normal 0 -1.22465e-16 -1
    outer loop
      vertex 1.69047 23 3.06162e-15
      vertex 3.32735 31.5808 2.01077e-15
      vertex 3.90891 32.9247 1.84619e-15
    endloop
  endfacet
  facet normal 0 -1.22465e-16 -1
    outer loop
      vertex 1.69047 23 3.06162e-15
      vertex 3.90891 32.9247 1.84619e-15
      vertex 4.57371 34.2294 1.68641e-15
    endloop
  endfacet
  facet normal 0 -1.22465e-16 -1
    outer loop
      vertex 1.69047 23 3.06162e-15
      vertex 4.57371 34.2294 1.68641e-15
      vertex 5.31912 35.4899 1.53205e-15
    endloop
  endfacet
  facet normal 0 -1.22465e-16 -1
    outer loop
      vertex 1.69047 23 3.06162e-15
      vertex 5.31912 35.4899 1.53205e-15
      vertex 6.1422 36.701 1.38373e-15
    endloop
  endfacet
  facet normal 0 -1.22465e-16 -1
    outer loop
      vertex 1.69047 23 3.06162e-15
      vertex 6.1422 36.701 1.38373e-15
      vertex 7.0397 37.8581 1.24203e-15
    endloop
  endfacet
  facet normal 0 -1.22465e-16 -1
    outer loop
      vertex 1.69047 23 3.06162e-15
      vertex 7.0397 37.8581 1.24203e-15
      vertex 8.00809 38.9565 1.10751e-15
    endloop
  endfacet
  facet normal 0 -1.22465e-16 -1
    outer loop
      vertex 1.69047 23 3.06162e-15
      vertex 8.00809 38.9565 1.10751e-15
      vertex 9.04353 39.9919 9.80708e-16
    endloop
  endfacet
  facet normal 0 -1.22465e-16 -1
    outer loop
      vertex 1.69047 23 3.06162e-15
      vertex 9.04353 39.9919 9.80708e-16
      vertex 10.1419 40.9603 8.62115e-16
    endloop
  endfacet
  facet normal 0 -1.22465e-16 -1
    outer loop
      vertex 1.69047 23 3.06162e-15
      vertex 10.1419 40.9603 8.62115e-16
      vertex 11.299 41.8578 7.52202e-16
    endloop
  endfacet
  facet normal 0 -1.22465e-16 -1
    outer loop
      vertex 1.69047 23 3.06162e-15
      vertex 11.299 41.8578 7.52202e-16
      vertex 12.5101 42.6809 6.51404e-16
    endloop
  endfacet
  facet normal 0 -1.22465e-16 -1
    outer loop
      vertex 1.69047 23 3.06162e-15
      vertex 12.5101 42.6809 6.51404e-16
      vertex 13.7706 43.4263 5.60117e-16
    endloop
  endfacet
  facet normal 0 -1.22465e-16 -1
    outer loop
      vertex 1.69047 23 3.06162e-15
      vertex 13.7706 43.4263 5.60117e-16
      vertex 15.0753 44.0911 4.78703e-16
    endloop
  endfacet
  facet normal 0 -1.22465e-16 -1
    outer loop
      vertex 1.69047 23 3.06162e-15
      vertex 15.0753 44.0911 4.78703e-16
      vertex 16.4192 44.6726 4.07483e-16
    endloop
  endfacet
  facet normal 0 -1.22465e-16 -1
    outer loop
      vertex 1.69047 23 3.06162e-15
      vertex 16.4192 44.6726 4.07483e-16
      vertex 17.797 45.1687 3.46737e-16
    endloop
  endfacet
  facet normal 0 -1.22465e-16 -1
    outer loop
      vertex 1.69047 23 3.06162e-15
      vertex 17.797 45.1687 3.46737e-16
      vertex 19.2032 45.5772 2.96706e-16
    endloop
  endfacet
  facet normal 0 -1.22465e-16 -1
    outer loop
      vertex 1.69047 23 3.06162e-15
      vertex 19.2032 45.5772 2.96706e-16
      vertex 20.6322 45.8967 2.57586e-16
    endloop
  endfacet
  facet normal 0 -1.22465e-16 -1
    outer loop
      vertex 1.69047 23 3.06162e-15
      vertex 20.6322 45.8967 2.57586e-16
      vertex 22.0785 46.1257 2.29533e-16
    endloop
  endfacet
  facet normal 0 -1.22465e-16 -1
    outer loop
      vertex 1.69047 23 3.06162e-15
      vertex 22.0785 46.1257 2.29533e-16
      vertex 23.5364 46.2635 2.12656e-16
    endloop
  endfacet
  facet normal 0 -1.22465e-16 -1
    outer loop
      vertex 1.69047 23 3.06162e-15
      vertex 23.5364 46.2635 2.12656e-16
      vertex 25 46.3095 2.07023e-16
    endloop
  endfacet
  facet normal 0 -1.22465e-16 -1
    outer loop
      vertex 1.69047 23 3.06162e-15
      vertex 25 46.3095 2.07023e-16
      vertex 26.4636 46.2635 2.12656e-16
    endloop
  endfacet
  facet normal 0 -1.22465e-16 -1
    outer loop
      vertex 1.69047 23 3.06162e-15
      vertex 26.4636 46.2635 2.12656e-16
      vertex 27.9215 46.1257 2.29533e-16
    endloop
  endfacet
  facet normal 0 -1.22465e-16 -1
    outer loop
      vertex 1.69047 23 3.06162e-15
      vertex 27.9215 46.1257 2.29533e-16
      vertex 29.3678 45.8967 2.57586e-16
    endloop
  endfacet
  facet normal 0 -1.22465e-16 -1
    outer loop
      vertex 1.69047 23 3.06162e-15
      vertex 29.3678 45.8967 2.57586e-16
      vertex 30.7968 45.5772 2.96706e-16
    endloop
  endfacet
  facet normal 0 -1.22465e-16 -1
    outer loop
      vertex 1.69047 23 3.06162e-15
      vertex 30.7968 45.5772 2.96706e-16
      vertex 32.203 45.1687 3.46737e-16
    endloop
  endfacet
  facet normal 0 -1.22465e-16 -1
    outer loop
      vertex 1.69047 23 3.06162e-15
      vertex 32.203 45.1687 3.46737e-16
      vertex 33.5808 44.6726 4.07483e-16
    endloop
  endfacet
  facet normal 0 -1.22465e-16 -1
    outer loop
      vertex 1.69047 23 3.06162e-15
      vertex 33.5808 44.6726 4.07483e-16
      vertex 34.9247 44.0911 4.78703e-16
    endloop
  endfacet
  facet normal 0 -1.22465e-16 -1
    outer loop
      vertex 1.69047 23 3.06162e-15
      vertex 34.9247 44.0911 4.78703e-16
      vertex 36.2294 43.4263 5.60117e-16
    endloop
  endfacet
  facet normal 0 -1.22465e-16 -1
    outer loop
      vertex 1.69047 23 3.06162e-15
      vertex 36.2294 43.4263 5.60117e-16
      vertex 37.4899 42.6809 6.51404e-16
    endloop
  endfacet
  facet normal 0 -1.22465e-16 -1
    outer loop
      vertex 1.69047 23 3.06162e-15
      vertex 37.4899 42.6809 6.51404e-16
      vertex 38.701 41.8578 7.52202e-16
    endloop
  endfacet
  facet normal 0 -1.22465e-16 -1
    outer loop
      vertex 1.69047 23 3.06162e-15
      vertex 38.701 41.8578 7.52202e-16
      vertex 39.8581 40.9603 8.62115e-16
    endloop
  endfacet
  facet normal 0 -1.22465e-16 -1
    outer loop
      vertex 1.69047 23 3.06162e-15
      vertex 39.8581 40.9603 8.62115e-16
      vertex 40.9565 39.9919 9.80708e-16
    endloop
  endfacet
  facet normal 0 -1.22465e-16 -1
    outer loop
      vertex 1.69047 23 3.06162e-15
      vertex 40.9565 39.9919 9.80708e-16
      vertex 41.9919 38.9565 1.10751e-15
    endloop
  endfacet
  facet normal 0 -1.22465e-16 -1
    outer loop
      vertex 1.69047 23 3.06162e-15
      vertex 41.9919 38.9565 1.10751e-15
      vertex 42.9603 37.8581 1.24203e-15
    endloop
  endfacet
  facet normal 0 -1.22465e-16 -1
    outer loop
      vertex 1.69047 23 3.06162e-15
      vertex 42.9603 37.8581 1.24203e-15
      vertex 43.8578 36.701 1.38373e-15
    endloop
  endfacet
  facet normal 0 -1.22465e-16 -1
    outer loop
      vertex 1.69047 23 3.06162e-15
      vertex 43.8578 36.701 1.38373e-15
      vertex 44.6809 35.4899 1.53205e-15
    endloop
  endfacet
  facet normal 0 -1.22465e-16 -1
    outer loop
      vertex 1.69047 23 3.06162e-15
      vertex 44.6809 35.4899 1.53205e-15
      vertex 45.4263 34.2294 1.68641e-15
    endloop
  endfacet
  facet normal 0 -1.22465e-16 -1
    outer loop
      vertex 1.69047 23 3.06162e-15
      vertex 45.4263 34.2294 1.68641e-15
      vertex 46.0911 32.9247 1.84619e-15
    endloop
  endfacet
  facet normal 0 -1.22465e-16 -1
    outer loop
      vertex 1.69047 23 3.06162e-15
      vertex 46.0911 32.9247 1.84619e-15
      vertex 46.6726 31.5808 2.01077e-15
    endloop
  endfacet
  facet normal 0 -1.22465e-16 -1
    outer loop
      vertex 1.69047 23 3.06162e-15
      vertex 46.6726 31.5808 2.01077e-15
      vertex 47.1687 30.203 2.1795e-15
    endloop
  endfacet
  facet normal 0 -1.22465e-16 -1
    outer loop
      vertex 1.69047 23 3.06162e-15
      vertex 47.1687 30.203 2.1795e-15
      vertex 47.5772 28.7968 2.35171e-15
    endloop
  endfacet
  facet normal 0 -1.22465e-16 -1
    outer loop
      vertex 1.69047 23 3.06162e-15
      vertex 47.5772 28.7968 2.35171e-15
      vertex 47.8967 27.3678 2.52672e-15
    endloop
  endfacet
  facet normal 0 -1.22465e-16 -1
    outer loop
      vertex 1.69047 23 3.06162e-15
      vertex 47.8967 27.3678 2.52672e-15
      vertex 48.1257 25.9215 2.70384e-15
    endloop
  endfacet
  facet normal 0 -1.22465e-16 -1
    outer loop
      vertex 1.69047 23 3.06162e-15
      vertex 48.1257 25.9215 2.70384e-15
      vertex 48.2635 24.4636 2.88238e-15
    endloop
  endfacet
  facet normal 0 -1.22465e-16 -1
    outer loop
      vertex 1.69047 23 3.06162e-15
      vertex 48.2635 24.4636 2.88238e-15
      vertex 48.3095 23 3.06162e-15
    endloop
  endfacet
  facet normal 0 -1.22465e-16 -1
    outer loop
      vertex 1.69047 23 3.06162e-15
      vertex 48.3095 23 3.06162e-15
      vertex 48.2635 21.5364 3.24086e-15
    endloop
  endfacet
  facet normal 0 -1.22465e-16 -1
    outer loop
      vertex 1.69047 23 3.06162e-15
      vertex 48.2635 21.5364 3.24086e-15
      vertex 48.1257 20.0785 3.41939e-15
    endloop
  endfacet
  facet normal 0 -1.22465e-16 -1
    outer loop
      vertex 1.69047 23 3.06162e-15
      vertex 48.1257 20.0785 3.41939e-15
      vertex 47.8967 18.6322 3.59651e-15
    endloop
  endfacet
  facet normal 0 -1.22465e-16 -1
    outer loop
      vertex 1.69047 23 3.06162e-15
      vertex 47.8967 18.6322 3.59651e-15
      vertex 47.5772 17.2032 3.77153e-15
    endloop
  endfacet
  facet normal 0 -1.22465e-16 -1
    outer loop
      vertex 1.69047 23 3.06162e-15
      vertex 47.5772 17.2032 3.77153e-15
      vertex 47.1687 15.797 3.94373e-15
    endloop
  endfacet
  facet normal 0 -1.22465e-16 -1
    outer loop
      vertex 1.69047 23 3.06162e-15
      vertex 47.1687 15.797 3.94373e-15
      vertex 46.6726 14.4192 4.11246e-15
    endloop
  endfacet
  facet normal 0 -1.22465e-16 -1
    outer loop
      vertex 1.69047 23 3.06162e-15
      vertex 46.6726 14.4192 4.11246e-15
      vertex 46.0911 13.0753 4.27704e-15
    endloop
  endfacet
  facet normal 0 -1.22465e-16 -1
    outer loop
      vertex 1.69047 23 3.06162e-15
      vertex 46.0911 13.0753 4.27704e-15
      vertex 45.4263 11.7705 4.43683e-15
    endloop
  endfacet
  facet normal 0 -1.22465e-16 -1
    outer loop
      vertex 1.69047 23 3.06162e-15
      vertex 45.4263 11.7705 4.43683e-15
      vertex 44.6809 10.5101 4.59118e-15
    endloop
  endfacet
  facet normal 0 -1.22465e-16 -1
    outer loop
      vertex 1.69047 23 3.06162e-15
      vertex 44.6809 10.5101 4.59118e-15
      vertex 43.8578 9.299 4.73951e-15
    endloop
  endfacet
  facet normal 0 -1.22465e-16 -1
    outer loop
      vertex 1.69047 23 3.06162e-15
      vertex 43.8578 9.299 4.73951e-15
      vertex 42.9603 8.14195 4.8812e-15
    endloop
  endfacet
  facet normal 0 -1.22465e-16 -1
    outer loop
      vertex 1.69047 23 3.06162e-15
      vertex 42.9603 8.14195 4.8812e-15
      vertex 41.9919 7.04353 5.01572e-15
    endloop
  endfacet
  facet normal 0 -1.22465e-16 -1
    outer loop
      vertex 1.69047 23 3.06162e-15
      vertex 41.9919 7.04353 5.01572e-15
      vertex 40.9565 6.00809 5.14253e-15
    endloop
  endfacet
  facet normal 0 -1.22465e-16 -1
    outer loop
      vertex 1.69047 23 3.06162e-15
      vertex 40.9565 6.00809 5.14253e-15
      vertex 39.8581 5.0397 5.26112e-15
    endloop
  endfacet
  facet normal 0 -1.22465e-16 -1
    outer loop
      vertex 1.69047 23 3.06162e-15
      vertex 39.8581 5.0397 5.26112e-15
      vertex 38.701 4.1422 5.37103e-15
    endloop
  endfacet
  facet normal 0 -1.22465e-16 -1
    outer loop
      vertex 1.69047 23 3.06162e-15
      vertex 38.701 4.1422 5.37103e-15
      vertex 37.4899 3.31911 5.47183e-15
    endloop
  endfacet
  facet normal 0 -1.22465e-16 -1
    outer loop
      vertex 1.69047 23 3.06162e-15
      vertex 37.4899 3.31911 5.47183e-15
      vertex 36.2294 2.57371 5.56312e-15
    endloop
  endfacet
  facet normal 0 -1.22465e-16 -1
    outer loop
      vertex 1.69047 23 3.06162e-15
      vertex 36.2294 2.57371 5.56312e-15
      vertex 34.9247 1.90891 5.64453e-15
    endloop
  endfacet
  facet normal 0 -1.22465e-16 -1
    outer loop
      vertex 1.69047 23 3.06162e-15
      vertex 34.9247 1.90891 5.64453e-15
      vertex 33.5808 1.32735 5.71575e-15
    endloop
  endfacet
  facet normal 0 -1.22465e-16 -1
    outer loop
      vertex 1.69047 23 3.06162e-15
      vertex 33.5808 1.32735 5.71575e-15
      vertex 32.203 0.831322 5.7765e-15
    endloop
  endfacet
  facet normal 0 -1.22465e-16 -1
    outer loop
      vertex 1.69047 23 3.06162e-15
      vertex 32.203 0.831322 5.7765e-15
      vertex 30.7968 0.422785 5.82653e-15
    endloop
  endfacet
  facet normal 0 -1.22465e-16 -1
    outer loop
      vertex 1.69047 23 3.06162e-15
      vertex 30.7968 0.422785 5.82653e-15
      vertex 29.3678 0.103349 5.86565e-15
    endloop
  endfacet
  facet normal 0 -1.22465e-16 -1
    outer loop
      vertex 1.69047 23 3.06162e-15
      vertex 29.3678 0.103349 5.86565e-15
      vertex 27.9215 -0.125724 5.8937e-15
    endloop
  endfacet
  facet normal 0 -1.22465e-16 -1
    outer loop
      vertex 1.69047 23 3.06162e-15
      vertex 27.9215 -0.125724 5.8937e-15
      vertex 26.4636 -0.263531 5.91058e-15
    endloop
  endfacet
  facet normal 0 -1.22465e-16 -1
    outer loop
      vertex 1.69047 23 3.06162e-15
      vertex 26.4636 -0.263531 5.91058e-15
      vertex 25 -0.309527 5.91621e-15
    endloop
  endfacet
  facet normal 0 -1.22465e-16 -1
    outer loop
      vertex 1.69047 23 3.06162e-15
      vertex 25 -0.309527 5.91621e-15
      vertex 23.5364 -0.263531 5.91058e-15
    endloop
  endfacet
  facet normal 0 -1.22465e-16 -1
    outer loop
      vertex 1.69047 23 3.06162e-15
      vertex 23.5364 -0.263531 5.91058e-15
      vertex 22.0785 -0.125724 5.8937e-15
    endloop
  endfacet
  facet normal 0 -1.22465e-16 -1
    outer loop
      vertex 1.69047 23 3.06162e-15
      vertex 22.0785 -0.125724 5.8937e-15
      vertex 20.6322 0.103349 5.86565e-15
    endloop
  endfacet
  facet normal 0 -1.22465e-16 -1
    outer loop
      vertex 1.69047 23 3.06162e-15
      vertex 20.6322 0.103349 5.86565e-15
      vertex 19.2032 0.422785 5.82653e-15
    endloop
  endfacet
  facet normal 0 -1.22465e-16 -1
    outer loop
      vertex 1.69047 23 3.06162e-15
      vertex 19.2032 0.422785 5.82653e-15
      vertex 17.797 0.831322 5.7765e-15
    endloop
  endfacet
  facet normal 0 -1.22465e-16 -1
    outer loop
      vertex 1.69047 23 3.06162e-15
      vertex 17.797 0.831322 5.7765e-15
      vertex 16.4192 1.32735 5.71575e-15
    endloop
  endfacet
  facet normal 0 -1.22465e-16 -1
    outer loop
      vertex 1.69047 23 3.06162e-15
      vertex 16.4192 1.32735 5.71575e-15
      vertex 15.0753 1.90891 5.64453e-15
    endloop
  endfacet
  facet normal 0 -1.22465e-16 -1
    outer loop
      vertex 1.69047 23 3.06162e-15
      vertex 15.0753 1.90891 5.64453e-15
      vertex 13.7706 2.57371 5.56312e-15
    endloop
  endfacet
  facet normal 0 -1.22465e-16 -1
    outer loop
      vertex 1.69047 23 3.06162e-15
      vertex 13.7706 2.57371 5.56312e-15
      vertex 12.5101 3.31911 5.47183e-15
    endloop
  endfacet
  facet normal 0 -1.22465e-16 -1
    outer loop
      vertex 1.69047 23 3.06162e-15
      vertex 12.5101 3.31911 5.47183e-15
      vertex 11.299 4.1422 5.37103e-15
    endloop
  endfacet
  facet normal 0 -1.22465e-16 -1
    outer loop
      vertex 1.69047 23 3.06162e-15
      vertex 11.299 4.1422 5.37103e-15
      vertex 10.1419 5.0397 5.26112e-15
    endloop
  endfacet
  facet normal 0 -1.22465e-16 -1
    outer loop
      vertex 1.69047 23 3.06162e-15
      vertex 10.1419 5.0397 5.26112e-15
      vertex 9.04353 6.00809 5.14253e-15
    endloop
  endfacet
  facet normal 0 -1.22465e-16 -1
    outer loop
      vertex 1.69047 23 3.06162e-15
      vertex 9.04353 6.00809 5.14253e-15
      vertex 8.00809 7.04353 5.01572e-15
    endloop
  endfacet
  facet normal 0 -1.22465e-16 -1
    outer loop
      vertex 1.69047 23 3.06162e-15
      vertex 8.00809 7.04353 5.01572e-15
      vertex 7.0397 8.14195 4.8812e-15
    endloop
  endfacet
  facet normal 0 -1.22465e-16 -1
    outer loop
      vertex 1.69047 23 3.06162e-15
      vertex 7.0397 8.14195 4.8812e-15
      vertex 6.1422 9.299 4.73951e-15
    endloop
  endfacet
  facet normal 0 -1.22465e-16 -1
    outer loop
      vertex 1.69047 23 3.06162e-15
      vertex 6.1422 9.299 4.73951e-15
      vertex 5.31912 10.5101 4.59118e-15
    endloop
  endfacet
  facet normal 0 -1.22465e-16 -1
    outer loop
      vertex 1.69047 23 3.06162e-15
      vertex 5.31912 10.5101 4.59118e-15
      vertex 4.57371 11.7705 4.43683e-15
    endloop
  endfacet
  facet normal 0 -1.22465e-16 -1
    outer loop
      vertex 1.69047 23 3.06162e-15
      vertex 4.57371 11.7705 4.43683e-15
      vertex 3.90891 13.0753 4.27704e-15
    endloop
  endfacet
  facet normal 0 -1.22465e-16 -1
    outer loop
      vertex 1.69047 23 3.06162e-15
      vertex 3.90891 13.0753 4.27704e-15
      vertex 3.32735 14.4192 4.11246e-15
    endloop
  endfacet
  facet normal 0 -1.22465e-16 -1
    outer loop
      vertex 1.69047 23 3.06162e-15
      vertex 3.32735 14.4192 4.11246e-15
      vertex 2.83132 15.797 3.94373e-15
    endloop
  endfacet
  facet normal 0 -1.22465e-16 -1
    outer loop
      vertex 1.69047 23 3.06162e-15
      vertex 2.83132 15.797 3.94373e-15
      vertex 2.42279 17.2032 3.77153e-15
    endloop
  endfacet
  facet normal 0 -1.22465e-16 -1
    outer loop
      vertex 1.69047 23 3.06162e-15
      vertex 2.42279 17.2032 3.77153e-15
      vertex 2.10335 18.6322 3.59651e-15
    endloop
  endfacet
  facet normal 0 -1.22465e-16 -1
    outer loop
      vertex 1.69047 23 3.06162e-15
      vertex 2.10335 18.6322 3.59651e-15
      vertex 1.87428 20.0785 3.41939e-15
    endloop
  endfacet
  facet normal 0 -1.22465e-16 -1
    outer loop
      vertex 1.69047 23 3.06162e-15
      vertex 1.87428 20.0785 3.41939e-15
      vertex 1.73647 21.5364 3.24086e-15
    endloop
  endfacet
endsolid OpenSCAD_Model
