solid OpenSCAD_Model
  facet normal 0 1.22465e-16 1
    outer loop
      vertex 0 18 4
      vertex 0.039465 16.7442 4
      vertex 0.157706 15.4933 4
    endloop
  endfacet
  facet normal 0 1.22465e-16 1
    outer loop
      vertex 0.628337 13.0262 4
      vertex 0 18 4
      vertex 0.354255 14.2524 4
    endloop
  endfacet
  facet normal 0 1.22465e-16 1
    outer loop
      vertex 0.354255 14.2524 4
      vertex 0 18 4
      vertex 0.157706 15.4933 4
    endloop
  endfacet
  facet normal 0 1.22465e-16 1
    outer loop
      vertex 0.97887 11.8197 4
      vertex 0 18 4
      vertex 0.628337 13.0262 4
    endloop
  endfacet
  facet normal 0 1.22465e-16 1
    outer loop
      vertex 1.40447 10.6375 4
      vertex 0 18 4
      vertex 0.97887 11.8197 4
    endloop
  endfacet
  facet normal 0 1.22465e-16 1
    outer loop
      vertex 1.90346 9.48441 4
      vertex 0 18 4
      vertex 1.40447 10.6375 4
    endloop
  endfacet
  facet normal 0 1.22465e-16 1
    outer loop
      vertex 2.47387 8.36493 4
      vertex 0 18 4
      vertex 1.90346 9.48441 4
    endloop
  endfacet
  facet normal 0 1.22465e-16 1
    outer loop
      vertex 3.11344 7.28346 4
      vertex 0 18 4
      vertex 2.47387 8.36493 4
    endloop
  endfacet
  facet normal 0 1.22465e-16 1
    outer loop
      vertex 3.81966 6.2443 4
      vertex 0 18 4
      vertex 3.11344 7.28346 4
    endloop
  endfacet
  facet normal 0 1.22465e-16 1
    outer loop
      vertex 4.58974 5.25152 4
      vertex 0 18 4
      vertex 3.81966 6.2443 4
    endloop
  endfacet
  facet normal 0 1.22465e-16 1
    outer loop
      vertex 5.42063 4.30906 4
      vertex 0 18 4
      vertex 4.58974 5.25152 4
    endloop
  endfacet
  facet normal 0 1.22465e-16 1
    outer loop
      vertex 6.30906 3.42063 4
      vertex 0 18 4
      vertex 5.42063 4.30906 4
    endloop
  endfacet
  facet normal 0 1.22465e-16 1
    outer loop
      vertex 7.25152 2.58974 4
      vertex 0 18 4
      vertex 6.30906 3.42063 4
    endloop
  endfacet
  facet normal 0 1.22465e-16 1
    outer loop
      vertex 8.2443 1.81966 4
      vertex 0 18 4
      vertex 7.25152 2.58974 4
    endloop
  endfacet
  facet normal 0 1.22465e-16 1
    outer loop
      vertex 9.28346 1.11344 4
      vertex 0 18 4
      vertex 8.2443 1.81966 4
    endloop
  endfacet
  facet normal 0 1.22465e-16 1
    outer loop
      vertex 10.3649 0.473866 4
      vertex 0 18 4
      vertex 9.28346 1.11344 4
    endloop
  endfacet
  facet normal 0 1.22465e-16 1
    outer loop
      vertex 11.4844 -0.096541 4
      vertex 0 18 4
      vertex 10.3649 0.473866 4
    endloop
  endfacet
  facet normal 0 1.22465e-16 1
    outer loop
      vertex 12.6375 -0.59553 4
      vertex 0 18 4
      vertex 11.4844 -0.096541 4
    endloop
  endfacet
  facet normal 0 1.22465e-16 1
    outer loop
      vertex 13.8197 -1.02113 4
      vertex 0 18 4
      vertex 12.6375 -0.59553 4
    endloop
  endfacet
  facet normal 0 1.22465e-16 1
    outer loop
      vertex 15.0262 -1.37166 4
      vertex 0 18 4
      vertex 13.8197 -1.02113 4
    endloop
  endfacet
  facet normal 0 1.22465e-16 1
    outer loop
      vertex 16.2524 -1.64574 4
      vertex 0 18 4
      vertex 15.0262 -1.37166 4
    endloop
  endfacet
  facet normal 0 1.22465e-16 1
    outer loop
      vertex 17.4933 -1.84229 4
      vertex 0 18 4
      vertex 16.2524 -1.64574 4
    endloop
  endfacet
  facet normal 0 1.22465e-16 1
    outer loop
      vertex 18.7442 -1.96054 4
      vertex 0 18 4
      vertex 17.4933 -1.84229 4
    endloop
  endfacet
  facet normal 0 1.22465e-16 1
    outer loop
      vertex 20 -2 4
      vertex 0 18 4
      vertex 18.7442 -1.96054 4
    endloop
  endfacet
  facet normal 0 1.22465e-16 1
    outer loop
      vertex 21.2558 -1.96054 4
      vertex 0 18 4
      vertex 20 -2 4
    endloop
  endfacet
  facet normal 0 1.22465e-16 1
    outer loop
      vertex 22.5067 -1.84229 4
      vertex 0 18 4
      vertex 21.2558 -1.96054 4
    endloop
  endfacet
  facet normal 0 1.22465e-16 1
    outer loop
      vertex 23.7476 -1.64574 4
      vertex 0 18 4
      vertex 22.5067 -1.84229 4
    endloop
  endfacet
  facet normal 0 1.22465e-16 1
    outer loop
      vertex 24.9738 -1.37166 4
      vertex 0 18 4
      vertex 23.7476 -1.64574 4
    endloop
  endfacet
  facet normal 0 1.22465e-16 1
    outer loop
      vertex 26.1803 -1.02113 4
      vertex 0 18 4
      vertex 24.9738 -1.37166 4
    endloop
  endfacet
  facet normal 0 1.22465e-16 1
    outer loop
      vertex 27.3625 -0.59553 4
      vertex 0 18 4
      vertex 26.1803 -1.02113 4
    endloop
  endfacet
  facet normal 0 1.22465e-16 1
    outer loop
      vertex 28.5156 -0.096541 4
      vertex 0 18 4
      vertex 27.3625 -0.59553 4
    endloop
  endfacet
  facet normal 0 1.22465e-16 1
    outer loop
      vertex 29.6351 0.473866 4
      vertex 0 18 4
      vertex 28.5156 -0.096541 4
    endloop
  endfacet
  facet normal 0 1.22465e-16 1
    outer loop
      vertex 30.7165 1.11344 4
      vertex 0 18 4
      vertex 29.6351 0.473866 4
    endloop
  endfacet
  facet normal 0 1.22465e-16 1
    outer loop
      vertex 31.7557 1.81966 4
      vertex 0 18 4
      vertex 30.7165 1.11344 4
    endloop
  endfacet
  facet normal 0 1.22465e-16 1
    outer loop
      vertex 32.7485 2.58974 4
      vertex 0 18 4
      vertex 31.7557 1.81966 4
    endloop
  endfacet
  facet normal 0 1.22465e-16 1
    outer loop
      vertex 33.6909 3.42063 4
      vertex 0 18 4
      vertex 32.7485 2.58974 4
    endloop
  endfacet
  facet normal 0 1.22465e-16 1
    outer loop
      vertex 34.5794 4.30906 4
      vertex 0 18 4
      vertex 33.6909 3.42063 4
    endloop
  endfacet
  facet normal 0 1.22465e-16 1
    outer loop
      vertex 35.4103 5.25152 4
      vertex 0 18 4
      vertex 34.5794 4.30906 4
    endloop
  endfacet
  facet normal 0 1.22465e-16 1
    outer loop
      vertex 36.1803 6.2443 4
      vertex 0 18 4
      vertex 35.4103 5.25152 4
    endloop
  endfacet
  facet normal 0 1.22465e-16 1
    outer loop
      vertex 36.8866 7.28346 4
      vertex 0 18 4
      vertex 36.1803 6.2443 4
    endloop
  endfacet
  facet normal 0 1.22465e-16 1
    outer loop
      vertex 37.5261 8.36493 4
      vertex 0 18 4
      vertex 36.8866 7.28346 4
    endloop
  endfacet
  facet normal 0 1.22465e-16 1
    outer loop
      vertex 38.0965 9.48441 4
      vertex 0 18 4
      vertex 37.5261 8.36493 4
    endloop
  endfacet
  facet normal 0 1.22465e-16 1
    outer loop
      vertex 38.5955 10.6375 4
      vertex 0 18 4
      vertex 38.0965 9.48441 4
    endloop
  endfacet
  facet normal 0 1.22465e-16 1
    outer loop
      vertex 39.0211 11.8197 4
      vertex 0 18 4
      vertex 38.5955 10.6375 4
    endloop
  endfacet
  facet normal 0 1.22465e-16 1
    outer loop
      vertex 39.3717 13.0262 4
      vertex 0 18 4
      vertex 39.0211 11.8197 4
    endloop
  endfacet
  facet normal 0 1.22465e-16 1
    outer loop
      vertex 39.6457 14.2524 4
      vertex 0 18 4
      vertex 39.3717 13.0262 4
    endloop
  endfacet
  facet normal 0 1.22465e-16 1
    outer loop
      vertex 39.8423 15.4933 4
      vertex 0 18 4
      vertex 39.6457 14.2524 4
    endloop
  endfacet
  facet normal 0 1.22465e-16 1
    outer loop
      vertex 39.9605 16.7442 4
      vertex 0 18 4
      vertex 39.8423 15.4933 4
    endloop
  endfacet
  facet normal 0 1.22465e-16 1
    outer loop
      vertex 40 18 4
      vertex 0 18 4
      vertex 39.9605 16.7442 4
    endloop
  endfacet
  facet normal 0 1.22465e-16 1
    outer loop
      vertex 39.9605 19.2558 4
      vertex 0 18 4
      vertex 40 18 4
    endloop
  endfacet
  facet normal 0 1.22465e-16 1
    outer loop
      vertex 39.8423 20.5067 4
      vertex 0 18 4
      vertex 39.9605 19.2558 4
    endloop
  endfacet
  facet normal 0 1.22465e-16 1
    outer loop
      vertex 39.6457 21.7476 4
      vertex 0 18 4
      vertex 39.8423 20.5067 4
    endloop
  endfacet
  facet normal 0 1.22465e-16 1
    outer loop
      vertex 39.3717 22.9738 4
      vertex 0 18 4
      vertex 39.6457 21.7476 4
    endloop
  endfacet
  facet normal 0 1.22465e-16 1
    outer loop
      vertex 39.0211 24.1803 4
      vertex 0 18 4
      vertex 39.3717 22.9738 4
    endloop
  endfacet
  facet normal 0 1.22465e-16 1
    outer loop
      vertex 38.5955 25.3625 4
      vertex 0 18 4
      vertex 39.0211 24.1803 4
    endloop
  endfacet
  facet normal 0 1.22465e-16 1
    outer loop
      vertex 38.0965 26.5156 4
      vertex 0 18 4
      vertex 38.5955 25.3625 4
    endloop
  endfacet
  facet normal 0 1.22465e-16 1
    outer loop
      vertex 37.5261 27.6351 4
      vertex 0 18 4
      vertex 38.0965 26.5156 4
    endloop
  endfacet
  facet normal 0 1.22465e-16 1
    outer loop
      vertex 36.8866 28.7165 4
      vertex 0 18 4
      vertex 37.5261 27.6351 4
    endloop
  endfacet
  facet normal 0 1.22465e-16 1
    outer loop
      vertex 36.1803 29.7557 4
      vertex 0 18 4
      vertex 36.8866 28.7165 4
    endloop
  endfacet
  facet normal 0 1.22465e-16 1
    outer loop
      vertex 35.4103 30.7485 4
      vertex 0 18 4
      vertex 36.1803 29.7557 4
    endloop
  endfacet
  facet normal 0 1.22465e-16 1
    outer loop
      vertex 34.5794 31.6909 4
      vertex 0 18 4
      vertex 35.4103 30.7485 4
    endloop
  endfacet
  facet normal 0 1.22465e-16 1
    outer loop
      vertex 33.6909 32.5794 4
      vertex 0 18 4
      vertex 34.5794 31.6909 4
    endloop
  endfacet
  facet normal 0 1.22465e-16 1
    outer loop
      vertex 32.7485 33.4103 4
      vertex 0 18 4
      vertex 33.6909 32.5794 4
    endloop
  endfacet
  facet normal 0 1.22465e-16 1
    outer loop
      vertex 31.7557 34.1803 4
      vertex 0 18 4
      vertex 32.7485 33.4103 4
    endloop
  endfacet
  facet normal 0 1.22465e-16 1
    outer loop
      vertex 30.7165 34.8866 4
      vertex 0 18 4
      vertex 31.7557 34.1803 4
    endloop
  endfacet
  facet normal 0 1.22465e-16 1
    outer loop
      vertex 29.6351 35.5261 4
      vertex 0 18 4
      vertex 30.7165 34.8866 4
    endloop
  endfacet
  facet normal 0 1.22465e-16 1
    outer loop
      vertex 28.5156 36.0965 4
      vertex 0 18 4
      vertex 29.6351 35.5261 4
    endloop
  endfacet
  facet normal 0 1.22465e-16 1
    outer loop
      vertex 27.3625 36.5955 4
      vertex 0 18 4
      vertex 28.5156 36.0965 4
    endloop
  endfacet
  facet normal 0 1.22465e-16 1
    outer loop
      vertex 26.1803 37.0211 4
      vertex 0 18 4
      vertex 27.3625 36.5955 4
    endloop
  endfacet
  facet normal 0 1.22465e-16 1
    outer loop
      vertex 24.9738 37.3717 4
      vertex 0 18 4
      vertex 26.1803 37.0211 4
    endloop
  endfacet
  facet normal 0 1.22465e-16 1
    outer loop
      vertex 23.7476 37.6457 4
      vertex 0 18 4
      vertex 24.9738 37.3717 4
    endloop
  endfacet
  facet normal 0 1.22465e-16 1
    outer loop
      vertex 22.5067 37.8423 4
      vertex 0 18 4
      vertex 23.7476 37.6457 4
    endloop
  endfacet
  facet normal 0 1.22465e-16 1
    outer loop
      vertex 21.2558 37.9605 4
      vertex 0 18 4
      vertex 22.5067 37.8423 4
    endloop
  endfacet
  facet normal 0 1.22465e-16 1
    outer loop
      vertex 20 38 4
      vertex 0 18 4
      vertex 21.2558 37.9605 4
    endloop
  endfacet
  facet normal 0 1.22465e-16 1
    outer loop
      vertex 18.7442 37.9605 4
      vertex 0 18 4
      vertex 20 38 4
    endloop
  endfacet
  facet normal 0 1.22465e-16 1
    outer loop
      vertex 17.4933 37.8423 4
      vertex 0 18 4
      vertex 18.7442 37.9605 4
    endloop
  endfacet
  facet normal 0 1.22465e-16 1
    outer loop
      vertex 16.2524 37.6457 4
      vertex 0 18 4
      vertex 17.4933 37.8423 4
    endloop
  endfacet
  facet normal 0 1.22465e-16 1
    outer loop
      vertex 15.0262 37.3717 4
      vertex 0 18 4
      vertex 16.2524 37.6457 4
    endloop
  endfacet
  facet normal 0 1.22465e-16 1
    outer loop
      vertex 13.8197 37.0211 4
      vertex 0 18 4
      vertex 15.0262 37.3717 4
    endloop
  endfacet
  facet normal 0 1.22465e-16 1
    outer loop
      vertex 12.6375 36.5955 4
      vertex 0 18 4
      vertex 13.8197 37.0211 4
    endloop
  endfacet
  facet normal 0 1.22465e-16 1
    outer loop
      vertex 11.4844 36.0965 4
      vertex 0 18 4
      vertex 12.6375 36.5955 4
    endloop
  endfacet
  facet normal 0 1.22465e-16 1
    outer loop
      vertex 10.3649 35.5261 4
      vertex 0 18 4
      vertex 11.4844 36.0965 4
    endloop
  endfacet
  facet normal 0 1.22465e-16 1
    outer loop
      vertex 9.28346 34.8866 4
      vertex 0 18 4
      vertex 10.3649 35.5261 4
    endloop
  endfacet
  facet normal 0 1.22465e-16 1
    outer loop
      vertex 8.2443 34.1803 4
      vertex 0 18 4
      vertex 9.28346 34.8866 4
    endloop
  endfacet
  facet normal 0 1.22465e-16 1
    outer loop
      vertex 7.25152 33.4103 4
      vertex 0 18 4
      vertex 8.2443 34.1803 4
    endloop
  endfacet
  facet normal 0 1.22465e-16 1
    outer loop
      vertex 6.30906 32.5794 4
      vertex 0 18 4
      vertex 7.25152 33.4103 4
    endloop
  endfacet
  facet normal 0 1.22465e-16 1
    outer loop
      vertex 5.42063 31.6909 4
      vertex 0 18 4
      vertex 6.30906 32.5794 4
    endloop
  endfacet
  facet normal 0 1.22465e-16 1
    outer loop
      vertex 4.58974 30.7485 4
      vertex 0 18 4
      vertex 5.42063 31.6909 4
    endloop
  endfacet
  facet normal 0 1.22465e-16 1
    outer loop
      vertex 3.81966 29.7557 4
      vertex 0 18 4
      vertex 4.58974 30.7485 4
    endloop
  endfacet
  facet normal 0 1.22465e-16 1
    outer loop
      vertex 3.11344 28.7165 4
      vertex 0 18 4
      vertex 3.81966 29.7557 4
    endloop
  endfacet
  facet normal 0 1.22465e-16 1
    outer loop
      vertex 2.47387 27.6351 4
      vertex 0 18 4
      vertex 3.11344 28.7165 4
    endloop
  endfacet
  facet normal 0 1.22465e-16 1
    outer loop
      vertex 1.90346 26.5156 4
      vertex 0 18 4
      vertex 2.47387 27.6351 4
    endloop
  endfacet
  facet normal 0 1.22465e-16 1
    outer loop
      vertex 1.40447 25.3625 4
      vertex 0 18 4
      vertex 1.90346 26.5156 4
    endloop
  endfacet
  facet normal 0 1.22465e-16 1
    outer loop
      vertex 0.97887 24.1803 4
      vertex 0 18 4
      vertex 1.40447 25.3625 4
    endloop
  endfacet
  facet normal 0 1.22465e-16 1
    outer loop
      vertex 0.628337 22.9738 4
      vertex 0 18 4
      vertex 0.97887 24.1803 4
    endloop
  endfacet
  facet normal 0 1.22465e-16 1
    outer loop
      vertex 0.354255 21.7476 4
      vertex 0 18 4
      vertex 0.628337 22.9738 4
    endloop
  endfacet
  facet normal 0 1.22465e-16 1
    outer loop
      vertex 0.157706 20.5067 4
      vertex 0 18 4
      vertex 0.354255 21.7476 4
    endloop
  endfacet
  facet normal 0 1.22465e-16 1
    outer loop
      vertex 0.039465 19.2558 4
      vertex 0 18 4
      vertex 0.157706 20.5067 4
    endloop
  endfacet
  facet normal 0.920733 -0.0289349 -0.389119
    outer loop
      vertex 38.3095 18 2.44929e-15
      vertex 40 18 4
      vertex 39.9605 16.7442 4
    endloop
  endfacet
  facet normal 0.920733 -0.0289355 -0.389119
    outer loop
      vertex 38.2734 16.8503 2.59009e-15
      vertex 38.3095 18 2.44929e-15
      vertex 39.9605 16.7442 4
    endloop
  endfacet
  facet normal 0.917099 -0.0866917 -0.389119
    outer loop
      vertex 38.2734 16.8503 2.59009e-15
      vertex 39.9605 16.7442 4
      vertex 39.8423 15.4933 4
    endloop
  endfacet
  facet normal -0.920733 -0.0289349 -0.389119
    outer loop
      vertex 0 18 4
      vertex 1.7266 16.8503 2.59009e-15
      vertex 0.039465 16.7442 4
    endloop
  endfacet
  facet normal -0.920733 -0.0289355 -0.389119
    outer loop
      vertex 0 18 4
      vertex 1.69047 18 2.44929e-15
      vertex 1.7266 16.8503 2.59009e-15
    endloop
  endfacet
  facet normal -0.920733 0.0289349 -0.389119
    outer loop
      vertex 0 18 4
      vertex 0.039465 19.2558 4
      vertex 1.69047 18 2.44929e-15
    endloop
  endfacet
  facet normal -0.920733 0.0289355 -0.389119
    outer loop
      vertex 0.039465 19.2558 4
      vertex 1.7266 19.1497 2.3085e-15
      vertex 1.69047 18 2.44929e-15
    endloop
  endfacet
  facet normal -0.917099 0.0866917 -0.389119
    outer loop
      vertex 0.039465 19.2558 4
      vertex 0.157706 20.5067 4
      vertex 1.7266 19.1497 2.3085e-15
    endloop
  endfacet
  facet normal -0.917099 0.0866911 -0.389119
    outer loop
      vertex 0.157706 20.5067 4
      vertex 1.83485 20.2948 2.16826e-15
      vertex 1.7266 19.1497 2.3085e-15
    endloop
  endfacet
  facet normal -0.909846 0.144106 -0.389119
    outer loop
      vertex 0.157706 20.5067 4
      vertex 0.354255 21.7476 4
      vertex 1.83485 20.2948 2.16826e-15
    endloop
  endfacet
  facet normal -0.909846 0.144106 -0.389119
    outer loop
      vertex 0.354255 21.7476 4
      vertex 2.01478 21.4309 2.02913e-15
      vertex 1.83485 20.2948 2.16826e-15
    endloop
  endfacet
  facet normal -0.899002 0.200951 -0.389119
    outer loop
      vertex 0.354255 21.7476 4
      vertex 0.628337 22.9738 4
      vertex 2.01478 21.4309 2.02913e-15
    endloop
  endfacet
  facet normal -0.899002 0.200951 -0.389119
    outer loop
      vertex 0.628337 22.9738 4
      vertex 2.2657 22.5534 1.89166e-15
      vertex 2.01478 21.4309 2.02913e-15
    endloop
  endfacet
  facet normal -0.884611 0.257003 -0.389119
    outer loop
      vertex 0.628337 22.9738 4
      vertex 0.97887 24.1803 4
      vertex 2.2657 22.5534 1.89166e-15
    endloop
  endfacet
  facet normal -0.884611 0.257003 -0.389119
    outer loop
      vertex 0.97887 24.1803 4
      vertex 2.58661 23.658 1.75639e-15
      vertex 2.2657 22.5534 1.89166e-15
    endloop
  endfacet
  facet normal -0.866728 0.312041 -0.389119
    outer loop
      vertex 0.97887 24.1803 4
      vertex 1.40447 25.3625 4
      vertex 2.58661 23.658 1.75639e-15
    endloop
  endfacet
  facet normal -0.866728 0.312041 -0.389119
    outer loop
      vertex 1.40447 25.3625 4
      vertex 2.97623 24.7402 1.62386e-15
      vertex 2.58661 23.658 1.75639e-15
    endloop
  endfacet
  facet normal -0.845424 0.365848 -0.389119
    outer loop
      vertex 1.40447 25.3625 4
      vertex 1.90346 26.5156 4
      vertex 2.97623 24.7402 1.62386e-15
    endloop
  endfacet
  facet normal -0.845424 0.365848 -0.389119
    outer loop
      vertex 1.90346 26.5156 4
      vertex 3.43304 25.7958 1.49458e-15
      vertex 2.97623 24.7402 1.62386e-15
    endloop
  endfacet
  facet normal -0.820784 0.41821 -0.389119
    outer loop
      vertex 1.90346 26.5156 4
      vertex 2.47387 27.6351 4
      vertex 3.43304 25.7958 1.49458e-15
    endloop
  endfacet
  facet normal -0.820784 0.41821 -0.389119
    outer loop
      vertex 2.47387 27.6351 4
      vertex 3.95524 26.8207 1.36907e-15
      vertex 3.43304 25.7958 1.49458e-15
    endloop
  endfacet
  facet normal -0.792905 0.468922 -0.389119
    outer loop
      vertex 2.47387 27.6351 4
      vertex 3.11344 28.7165 4
      vertex 3.95524 26.8207 1.36907e-15
    endloop
  endfacet
  facet normal -0.792905 0.468923 -0.389119
    outer loop
      vertex 3.11344 28.7165 4
      vertex 4.54076 27.8107 1.24783e-15
      vertex 3.95524 26.8207 1.36907e-15
    endloop
  endfacet
  facet normal -0.761896 0.517784 -0.389119
    outer loop
      vertex 3.11344 28.7165 4
      vertex 3.81966 29.7557 4
      vertex 4.54076 27.8107 1.24783e-15
    endloop
  endfacet
  facet normal -0.761896 0.517784 -0.389119
    outer loop
      vertex 3.81966 29.7557 4
      vertex 5.18728 28.7621 1.13132e-15
      vertex 4.54076 27.8107 1.24783e-15
    endloop
  endfacet
  facet normal -0.727881 0.564602 -0.389119
    outer loop
      vertex 3.81966 29.7557 4
      vertex 4.58974 30.7485 4
      vertex 5.18728 28.7621 1.13132e-15
    endloop
  endfacet
  facet normal -0.727881 0.564602 -0.389119
    outer loop
      vertex 4.58974 30.7485 4
      vertex 5.89227 29.6709 1.02002e-15
      vertex 5.18728 28.7621 1.13132e-15
    endloop
  endfacet
  facet normal -0.690993 0.609192 -0.389119
    outer loop
      vertex 4.58974 30.7485 4
      vertex 5.42063 31.6909 4
      vertex 5.89227 29.6709 1.02002e-15
    endloop
  endfacet
  facet normal -0.690993 0.609192 -0.389119
    outer loop
      vertex 5.42063 31.6909 4
      vertex 6.65293 30.5337 9.14354e-16
      vertex 5.89227 29.6709 1.02002e-15
    endloop
  endfacet
  facet normal -0.651378 0.651378 -0.389119
    outer loop
      vertex 6.30906 32.5794 4
      vertex 7.46627 31.3471 8.14749e-16
      vertex 5.42063 31.6909 4
    endloop
  endfacet
  facet normal -0.651378 0.651378 -0.389119
    outer loop
      vertex 5.42063 31.6909 4
      vertex 7.46627 31.3471 8.14749e-16
      vertex 6.65293 30.5337 9.14354e-16
    endloop
  endfacet
  facet normal -0.609192 0.690993 -0.389119
    outer loop
      vertex 6.30906 32.5794 4
      vertex 7.25152 33.4103 4
      vertex 7.46627 31.3471 8.14749e-16
    endloop
  endfacet
  facet normal -0.609192 0.690993 -0.389119
    outer loop
      vertex 7.25152 33.4103 4
      vertex 8.32907 32.1077 7.21595e-16
      vertex 7.46627 31.3471 8.14749e-16
    endloop
  endfacet
  facet normal -0.564602 0.727881 -0.389119
    outer loop
      vertex 7.25152 33.4103 4
      vertex 8.2443 34.1803 4
      vertex 8.32907 32.1077 7.21595e-16
    endloop
  endfacet
  facet normal -0.564602 0.727881 -0.389119
    outer loop
      vertex 8.2443 34.1803 4
      vertex 9.23793 32.8127 6.35259e-16
      vertex 8.32907 32.1077 7.21595e-16
    endloop
  endfacet
  facet normal -0.517784 0.761896 -0.389119
    outer loop
      vertex 8.2443 34.1803 4
      vertex 9.28346 34.8866 4
      vertex 9.23793 32.8127 6.35259e-16
    endloop
  endfacet
  facet normal -0.517784 0.761896 -0.389119
    outer loop
      vertex 9.23793 32.8127 6.35259e-16
      vertex 9.28346 34.8866 4
      vertex 10.1893 33.4592 5.56082e-16
    endloop
  endfacet
  facet normal -0.468922 0.792905 -0.389119
    outer loop
      vertex 9.28346 34.8866 4
      vertex 10.3649 35.5261 4
      vertex 10.1893 33.4592 5.56082e-16
    endloop
  endfacet
  facet normal -0.468923 0.792905 -0.389119
    outer loop
      vertex 10.1893 33.4592 5.56082e-16
      vertex 10.3649 35.5261 4
      vertex 11.1793 34.0448 4.84377e-16
    endloop
  endfacet
  facet normal -0.41821 0.820784 -0.389119
    outer loop
      vertex 10.3649 35.5261 4
      vertex 11.4844 36.0965 4
      vertex 11.1793 34.0448 4.84377e-16
    endloop
  endfacet
  facet normal -0.41821 0.820784 -0.389119
    outer loop
      vertex 11.1793 34.0448 4.84377e-16
      vertex 11.4844 36.0965 4
      vertex 12.2042 34.567 4.20427e-16
    endloop
  endfacet
  facet normal -0.365848 0.845424 -0.389119
    outer loop
      vertex 11.4844 36.0965 4
      vertex 12.6375 36.5955 4
      vertex 12.2042 34.567 4.20427e-16
    endloop
  endfacet
  facet normal -0.365848 0.845424 -0.389119
    outer loop
      vertex 12.2042 34.567 4.20427e-16
      vertex 12.6375 36.5955 4
      vertex 13.2598 35.0238 3.64483e-16
    endloop
  endfacet
  facet normal -0.312041 0.866728 -0.389119
    outer loop
      vertex 12.6375 36.5955 4
      vertex 13.8197 37.0211 4
      vertex 13.2598 35.0238 3.64483e-16
    endloop
  endfacet
  facet normal -0.312041 0.866728 -0.389119
    outer loop
      vertex 13.2598 35.0238 3.64483e-16
      vertex 13.8197 37.0211 4
      vertex 14.342 35.4134 3.16768e-16
    endloop
  endfacet
  facet normal -0.257003 0.884611 -0.389119
    outer loop
      vertex 13.8197 37.0211 4
      vertex 15.0262 37.3717 4
      vertex 14.342 35.4134 3.16768e-16
    endloop
  endfacet
  facet normal -0.257003 0.884611 -0.389119
    outer loop
      vertex 14.342 35.4134 3.16768e-16
      vertex 15.0262 37.3717 4
      vertex 15.4466 35.7343 2.77468e-16
    endloop
  endfacet
  facet normal -0.200951 0.899002 -0.389119
    outer loop
      vertex 15.0262 37.3717 4
      vertex 16.2524 37.6457 4
      vertex 15.4466 35.7343 2.77468e-16
    endloop
  endfacet
  facet normal -0.200951 0.899002 -0.389119
    outer loop
      vertex 15.4466 35.7343 2.77468e-16
      vertex 16.2524 37.6457 4
      vertex 16.5691 35.9852 2.4674e-16
    endloop
  endfacet
  facet normal -0.144106 0.909846 -0.389119
    outer loop
      vertex 16.2524 37.6457 4
      vertex 17.4933 37.8423 4
      vertex 16.5691 35.9852 2.4674e-16
    endloop
  endfacet
  facet normal -0.144106 0.909846 -0.389119
    outer loop
      vertex 16.5691 35.9852 2.4674e-16
      vertex 17.4933 37.8423 4
      vertex 17.7052 36.1652 2.24704e-16
    endloop
  endfacet
  facet normal -0.0866917 0.917099 -0.389119
    outer loop
      vertex 17.4933 37.8423 4
      vertex 18.7442 37.9605 4
      vertex 17.7052 36.1652 2.24704e-16
    endloop
  endfacet
  facet normal -0.0866911 0.917099 -0.389119
    outer loop
      vertex 17.7052 36.1652 2.24704e-16
      vertex 18.7442 37.9605 4
      vertex 18.8503 36.2734 2.11448e-16
    endloop
  endfacet
  facet normal -0.0289349 0.920733 -0.389119
    outer loop
      vertex 18.7442 37.9605 4
      vertex 20 38 4
      vertex 18.8503 36.2734 2.11448e-16
    endloop
  endfacet
  facet normal -0.0289355 0.920733 -0.389119
    outer loop
      vertex 18.8503 36.2734 2.11448e-16
      vertex 20 38 4
      vertex 20 36.3095 2.07023e-16
    endloop
  endfacet
  facet normal 0.0289349 0.920733 -0.389119
    outer loop
      vertex 20 38 4
      vertex 21.2558 37.9605 4
      vertex 20 36.3095 2.07023e-16
    endloop
  endfacet
  facet normal 0.0289355 0.920733 -0.389119
    outer loop
      vertex 20 36.3095 2.07023e-16
      vertex 21.2558 37.9605 4
      vertex 21.1497 36.2734 2.11448e-16
    endloop
  endfacet
  facet normal 0.0866917 0.917099 -0.389119
    outer loop
      vertex 21.1497 36.2734 2.11448e-16
      vertex 21.2558 37.9605 4
      vertex 22.5067 37.8423 4
    endloop
  endfacet
  facet normal 0.0866911 0.917099 -0.389119
    outer loop
      vertex 21.1497 36.2734 2.11448e-16
      vertex 22.5067 37.8423 4
      vertex 22.2948 36.1652 2.24704e-16
    endloop
  endfacet
  facet normal 0.144106 0.909846 -0.389119
    outer loop
      vertex 22.2948 36.1652 2.24704e-16
      vertex 22.5067 37.8423 4
      vertex 23.7476 37.6457 4
    endloop
  endfacet
  facet normal 0.144106 0.909846 -0.389119
    outer loop
      vertex 22.2948 36.1652 2.24704e-16
      vertex 23.7476 37.6457 4
      vertex 23.4309 35.9852 2.4674e-16
    endloop
  endfacet
  facet normal 0.200951 0.899002 -0.389119
    outer loop
      vertex 23.4309 35.9852 2.4674e-16
      vertex 23.7476 37.6457 4
      vertex 24.9738 37.3717 4
    endloop
  endfacet
  facet normal 0.200951 0.899002 -0.389119
    outer loop
      vertex 23.4309 35.9852 2.4674e-16
      vertex 24.9738 37.3717 4
      vertex 24.5534 35.7343 2.77468e-16
    endloop
  endfacet
  facet normal 0.257003 0.884611 -0.389119
    outer loop
      vertex 24.5534 35.7343 2.77468e-16
      vertex 24.9738 37.3717 4
      vertex 26.1803 37.0211 4
    endloop
  endfacet
  facet normal 0.257003 0.884611 -0.389119
    outer loop
      vertex 24.5534 35.7343 2.77468e-16
      vertex 26.1803 37.0211 4
      vertex 25.658 35.4134 3.16768e-16
    endloop
  endfacet
  facet normal 0.312041 0.866728 -0.389119
    outer loop
      vertex 25.658 35.4134 3.16768e-16
      vertex 26.1803 37.0211 4
      vertex 27.3625 36.5955 4
    endloop
  endfacet
  facet normal 0.312041 0.866728 -0.389119
    outer loop
      vertex 25.658 35.4134 3.16768e-16
      vertex 27.3625 36.5955 4
      vertex 26.7402 35.0238 3.64483e-16
    endloop
  endfacet
  facet normal 0.365848 0.845424 -0.389119
    outer loop
      vertex 26.7402 35.0238 3.64483e-16
      vertex 27.3625 36.5955 4
      vertex 28.5156 36.0965 4
    endloop
  endfacet
  facet normal 0.365848 0.845424 -0.389119
    outer loop
      vertex 26.7402 35.0238 3.64483e-16
      vertex 28.5156 36.0965 4
      vertex 27.7958 34.567 4.20427e-16
    endloop
  endfacet
  facet normal 0.41821 0.820784 -0.389119
    outer loop
      vertex 27.7958 34.567 4.20427e-16
      vertex 28.5156 36.0965 4
      vertex 29.6351 35.5261 4
    endloop
  endfacet
  facet normal 0.41821 0.820784 -0.389119
    outer loop
      vertex 27.7958 34.567 4.20427e-16
      vertex 29.6351 35.5261 4
      vertex 28.8207 34.0448 4.84377e-16
    endloop
  endfacet
  facet normal 0.468922 0.792905 -0.389119
    outer loop
      vertex 28.8207 34.0448 4.84377e-16
      vertex 29.6351 35.5261 4
      vertex 30.7165 34.8866 4
    endloop
  endfacet
  facet normal 0.468923 0.792905 -0.389119
    outer loop
      vertex 28.8207 34.0448 4.84377e-16
      vertex 30.7165 34.8866 4
      vertex 29.8107 33.4592 5.56082e-16
    endloop
  endfacet
  facet normal 0.517784 0.761896 -0.389119
    outer loop
      vertex 29.8107 33.4592 5.56082e-16
      vertex 30.7165 34.8866 4
      vertex 31.7557 34.1803 4
    endloop
  endfacet
  facet normal 0.517784 0.761896 -0.389119
    outer loop
      vertex 29.8107 33.4592 5.56082e-16
      vertex 31.7557 34.1803 4
      vertex 30.7621 32.8127 6.35259e-16
    endloop
  endfacet
  facet normal 0.564602 0.727881 -0.389119
    outer loop
      vertex 30.7621 32.8127 6.35259e-16
      vertex 31.7557 34.1803 4
      vertex 32.7485 33.4103 4
    endloop
  endfacet
  facet normal 0.564602 0.727881 -0.389119
    outer loop
      vertex 30.7621 32.8127 6.35259e-16
      vertex 32.7485 33.4103 4
      vertex 31.6709 32.1077 7.21595e-16
    endloop
  endfacet
  facet normal 0.609192 0.690993 -0.389119
    outer loop
      vertex 31.6709 32.1077 7.21595e-16
      vertex 32.7485 33.4103 4
      vertex 33.6909 32.5794 4
    endloop
  endfacet
  facet normal 0.609192 0.690993 -0.389119
    outer loop
      vertex 31.6709 32.1077 7.21595e-16
      vertex 33.6909 32.5794 4
      vertex 32.5337 31.3471 8.14749e-16
    endloop
  endfacet
  facet normal 0.651378 0.651378 -0.389119
    outer loop
      vertex 32.5337 31.3471 8.14749e-16
      vertex 33.6909 32.5794 4
      vertex 34.5794 31.6909 4
    endloop
  endfacet
  facet normal 0.651378 0.651378 -0.389119
    outer loop
      vertex 33.3471 30.5337 9.14354e-16
      vertex 32.5337 31.3471 8.14749e-16
      vertex 34.5794 31.6909 4
    endloop
  endfacet
  facet normal 0.690993 0.609192 -0.389119
    outer loop
      vertex 33.3471 30.5337 9.14354e-16
      vertex 34.5794 31.6909 4
      vertex 35.4103 30.7485 4
    endloop
  endfacet
  facet normal 0.690993 0.609192 -0.389119
    outer loop
      vertex 33.3471 30.5337 9.14354e-16
      vertex 35.4103 30.7485 4
      vertex 34.1077 29.6709 1.02002e-15
    endloop
  endfacet
  facet normal 0.727881 0.564602 -0.389119
    outer loop
      vertex 34.1077 29.6709 1.02002e-15
      vertex 35.4103 30.7485 4
      vertex 36.1803 29.7557 4
    endloop
  endfacet
  facet normal 0.727881 0.564602 -0.389119
    outer loop
      vertex 34.1077 29.6709 1.02002e-15
      vertex 36.1803 29.7557 4
      vertex 34.8127 28.7621 1.13132e-15
    endloop
  endfacet
  facet normal 0.761896 0.517784 -0.389119
    outer loop
      vertex 34.8127 28.7621 1.13132e-15
      vertex 36.1803 29.7557 4
      vertex 36.8866 28.7165 4
    endloop
  endfacet
  facet normal 0.761896 0.517784 -0.389119
    outer loop
      vertex 34.8127 28.7621 1.13132e-15
      vertex 36.8866 28.7165 4
      vertex 35.4592 27.8107 1.24783e-15
    endloop
  endfacet
  facet normal 0.792905 0.468922 -0.389119
    outer loop
      vertex 35.4592 27.8107 1.24783e-15
      vertex 36.8866 28.7165 4
      vertex 37.5261 27.6351 4
    endloop
  endfacet
  facet normal 0.792905 0.468923 -0.389119
    outer loop
      vertex 35.4592 27.8107 1.24783e-15
      vertex 37.5261 27.6351 4
      vertex 36.0448 26.8207 1.36907e-15
    endloop
  endfacet
  facet normal 0.820784 0.41821 -0.389119
    outer loop
      vertex 36.0448 26.8207 1.36907e-15
      vertex 37.5261 27.6351 4
      vertex 38.0965 26.5156 4
    endloop
  endfacet
  facet normal 0.820784 0.41821 -0.389119
    outer loop
      vertex 36.0448 26.8207 1.36907e-15
      vertex 38.0965 26.5156 4
      vertex 36.567 25.7958 1.49458e-15
    endloop
  endfacet
  facet normal 0.845424 0.365848 -0.389119
    outer loop
      vertex 36.567 25.7958 1.49458e-15
      vertex 38.0965 26.5156 4
      vertex 38.5955 25.3625 4
    endloop
  endfacet
  facet normal 0.845424 0.365848 -0.389119
    outer loop
      vertex 36.567 25.7958 1.49458e-15
      vertex 38.5955 25.3625 4
      vertex 37.0238 24.7402 1.62386e-15
    endloop
  endfacet
  facet normal 0.866728 0.312041 -0.389119
    outer loop
      vertex 37.0238 24.7402 1.62386e-15
      vertex 38.5955 25.3625 4
      vertex 39.0211 24.1803 4
    endloop
  endfacet
  facet normal 0.866728 0.312041 -0.389119
    outer loop
      vertex 37.0238 24.7402 1.62386e-15
      vertex 39.0211 24.1803 4
      vertex 37.4134 23.658 1.75639e-15
    endloop
  endfacet
  facet normal 0.884611 0.257003 -0.389119
    outer loop
      vertex 37.4134 23.658 1.75639e-15
      vertex 39.0211 24.1803 4
      vertex 39.3717 22.9738 4
    endloop
  endfacet
  facet normal 0.884611 0.257003 -0.389119
    outer loop
      vertex 37.4134 23.658 1.75639e-15
      vertex 39.3717 22.9738 4
      vertex 37.7343 22.5534 1.89166e-15
    endloop
  endfacet
  facet normal 0.899002 0.200951 -0.389119
    outer loop
      vertex 37.7343 22.5534 1.89166e-15
      vertex 39.3717 22.9738 4
      vertex 39.6457 21.7476 4
    endloop
  endfacet
  facet normal 0.899002 0.200951 -0.389119
    outer loop
      vertex 37.7343 22.5534 1.89166e-15
      vertex 39.6457 21.7476 4
      vertex 37.9852 21.4309 2.02913e-15
    endloop
  endfacet
  facet normal 0.909846 0.144106 -0.389119
    outer loop
      vertex 37.9852 21.4309 2.02913e-15
      vertex 39.6457 21.7476 4
      vertex 39.8423 20.5067 4
    endloop
  endfacet
  facet normal 0.909846 0.144106 -0.389119
    outer loop
      vertex 37.9852 21.4309 2.02913e-15
      vertex 39.8423 20.5067 4
      vertex 38.1652 20.2948 2.16826e-15
    endloop
  endfacet
  facet normal 0.917099 0.0866917 -0.389119
    outer loop
      vertex 38.1652 20.2948 2.16826e-15
      vertex 39.8423 20.5067 4
      vertex 39.9605 19.2558 4
    endloop
  endfacet
  facet normal 0.917099 0.0866911 -0.389119
    outer loop
      vertex 38.1652 20.2948 2.16826e-15
      vertex 39.9605 19.2558 4
      vertex 38.2734 19.1497 2.3085e-15
    endloop
  endfacet
  facet normal 0.920733 0.0289349 -0.389119
    outer loop
      vertex 38.2734 19.1497 2.3085e-15
      vertex 39.9605 19.2558 4
      vertex 40 18 4
    endloop
  endfacet
  facet normal 0.920733 0.0289355 -0.389119
    outer loop
      vertex 38.2734 19.1497 2.3085e-15
      vertex 40 18 4
      vertex 38.3095 18 2.44929e-15
    endloop
  endfacet
  facet normal 0.917099 -0.0866911 -0.389119
    outer loop
      vertex 38.1652 15.7052 2.73032e-15
      vertex 38.2734 16.8503 2.59009e-15
      vertex 39.8423 15.4933 4
    endloop
  endfacet
  facet normal 0.909846 -0.144106 -0.389119
    outer loop
      vertex 38.1652 15.7052 2.73032e-15
      vertex 39.8423 15.4933 4
      vertex 39.6457 14.2524 4
    endloop
  endfacet
  facet normal 0.909846 -0.144106 -0.389119
    outer loop
      vertex 37.9852 14.5691 2.86945e-15
      vertex 38.1652 15.7052 2.73032e-15
      vertex 39.6457 14.2524 4
    endloop
  endfacet
  facet normal 0.899002 -0.200951 -0.389119
    outer loop
      vertex 37.9852 14.5691 2.86945e-15
      vertex 39.6457 14.2524 4
      vertex 39.3717 13.0262 4
    endloop
  endfacet
  facet normal 0.899002 -0.200951 -0.389119
    outer loop
      vertex 37.7343 13.4466 3.00692e-15
      vertex 37.9852 14.5691 2.86945e-15
      vertex 39.3717 13.0262 4
    endloop
  endfacet
  facet normal 0.884611 -0.257003 -0.389119
    outer loop
      vertex 37.7343 13.4466 3.00692e-15
      vertex 39.3717 13.0262 4
      vertex 39.0211 11.8197 4
    endloop
  endfacet
  facet normal 0.884611 -0.257003 -0.389119
    outer loop
      vertex 37.4134 12.342 3.14219e-15
      vertex 37.7343 13.4466 3.00692e-15
      vertex 39.0211 11.8197 4
    endloop
  endfacet
  facet normal 0.866728 -0.312041 -0.389119
    outer loop
      vertex 37.4134 12.342 3.14219e-15
      vertex 39.0211 11.8197 4
      vertex 38.5955 10.6375 4
    endloop
  endfacet
  facet normal 0.866728 -0.312041 -0.389119
    outer loop
      vertex 37.0238 11.2598 3.27473e-15
      vertex 37.4134 12.342 3.14219e-15
      vertex 38.5955 10.6375 4
    endloop
  endfacet
  facet normal 0.845424 -0.365848 -0.389119
    outer loop
      vertex 37.0238 11.2598 3.27473e-15
      vertex 38.5955 10.6375 4
      vertex 38.0965 9.48441 4
    endloop
  endfacet
  facet normal 0.845424 -0.365848 -0.389119
    outer loop
      vertex 36.567 10.2042 3.40401e-15
      vertex 37.0238 11.2598 3.27473e-15
      vertex 38.0965 9.48441 4
    endloop
  endfacet
  facet normal 0.820784 -0.41821 -0.389119
    outer loop
      vertex 36.567 10.2042 3.40401e-15
      vertex 38.0965 9.48441 4
      vertex 37.5261 8.36493 4
    endloop
  endfacet
  facet normal 0.820784 -0.41821 -0.389119
    outer loop
      vertex 36.0448 9.17932 3.52952e-15
      vertex 36.567 10.2042 3.40401e-15
      vertex 37.5261 8.36493 4
    endloop
  endfacet
  facet normal 0.792905 -0.468922 -0.389119
    outer loop
      vertex 36.0448 9.17932 3.52952e-15
      vertex 37.5261 8.36493 4
      vertex 36.8866 7.28346 4
    endloop
  endfacet
  facet normal 0.792905 -0.468923 -0.389119
    outer loop
      vertex 35.4592 8.18926 3.65076e-15
      vertex 36.0448 9.17932 3.52952e-15
      vertex 36.8866 7.28346 4
    endloop
  endfacet
  facet normal 0.761896 -0.517784 -0.389119
    outer loop
      vertex 35.4592 8.18926 3.65076e-15
      vertex 36.8866 7.28346 4
      vertex 36.1803 6.2443 4
    endloop
  endfacet
  facet normal 0.761896 -0.517784 -0.389119
    outer loop
      vertex 34.8127 7.23793 3.76727e-15
      vertex 35.4592 8.18926 3.65076e-15
      vertex 36.1803 6.2443 4
    endloop
  endfacet
  facet normal 0.727881 -0.564602 -0.389119
    outer loop
      vertex 34.8127 7.23793 3.76727e-15
      vertex 36.1803 6.2443 4
      vertex 35.4103 5.25152 4
    endloop
  endfacet
  facet normal 0.727881 -0.564602 -0.389119
    outer loop
      vertex 34.1077 6.32907 3.87857e-15
      vertex 34.8127 7.23793 3.76727e-15
      vertex 35.4103 5.25152 4
    endloop
  endfacet
  facet normal 0.690993 -0.609192 -0.389119
    outer loop
      vertex 34.1077 6.32907 3.87857e-15
      vertex 35.4103 5.25152 4
      vertex 34.5794 4.30906 4
    endloop
  endfacet
  facet normal 0.690993 -0.609192 -0.389119
    outer loop
      vertex 33.3471 5.46627 3.98423e-15
      vertex 34.1077 6.32907 3.87857e-15
      vertex 34.5794 4.30906 4
    endloop
  endfacet
  facet normal 0.651378 -0.651378 -0.389119
    outer loop
      vertex 32.5337 4.65293 4.08384e-15
      vertex 33.3471 5.46627 3.98423e-15
      vertex 34.5794 4.30906 4
    endloop
  endfacet
  facet normal 0.651378 -0.651378 -0.389119
    outer loop
      vertex 33.6909 3.42063 4
      vertex 32.5337 4.65293 4.08384e-15
      vertex 34.5794 4.30906 4
    endloop
  endfacet
  facet normal 0.609192 -0.690993 -0.389119
    outer loop
      vertex 32.5337 4.65293 4.08384e-15
      vertex 33.6909 3.42063 4
      vertex 32.7485 2.58974 4
    endloop
  endfacet
  facet normal 0.609192 -0.690993 -0.389119
    outer loop
      vertex 31.6709 3.89227 4.17699e-15
      vertex 32.5337 4.65293 4.08384e-15
      vertex 32.7485 2.58974 4
    endloop
  endfacet
  facet normal 0.564602 -0.727881 -0.389119
    outer loop
      vertex 31.6709 3.89227 4.17699e-15
      vertex 32.7485 2.58974 4
      vertex 31.7557 1.81966 4
    endloop
  endfacet
  facet normal 0.564602 -0.727881 -0.389119
    outer loop
      vertex 30.7621 3.18728 4.26333e-15
      vertex 31.6709 3.89227 4.17699e-15
      vertex 31.7557 1.81966 4
    endloop
  endfacet
  facet normal 0.517784 -0.761896 -0.389119
    outer loop
      vertex 30.7165 1.11344 4
      vertex 30.7621 3.18728 4.26333e-15
      vertex 31.7557 1.81966 4
    endloop
  endfacet
  facet normal 0.517784 -0.761896 -0.389119
    outer loop
      vertex 29.8107 2.54075 4.34251e-15
      vertex 30.7621 3.18728 4.26333e-15
      vertex 30.7165 1.11344 4
    endloop
  endfacet
  facet normal 0.468922 -0.792905 -0.389119
    outer loop
      vertex 29.6351 0.473866 4
      vertex 29.8107 2.54075 4.34251e-15
      vertex 30.7165 1.11344 4
    endloop
  endfacet
  facet normal 0.468923 -0.792905 -0.389119
    outer loop
      vertex 28.8207 1.95524 4.41421e-15
      vertex 29.8107 2.54075 4.34251e-15
      vertex 29.6351 0.473866 4
    endloop
  endfacet
  facet normal 0.41821 -0.820784 -0.389119
    outer loop
      vertex 28.5156 -0.096541 4
      vertex 28.8207 1.95524 4.41421e-15
      vertex 29.6351 0.473866 4
    endloop
  endfacet
  facet normal 0.41821 -0.820784 -0.389119
    outer loop
      vertex 27.7958 1.43304 4.47816e-15
      vertex 28.8207 1.95524 4.41421e-15
      vertex 28.5156 -0.096541 4
    endloop
  endfacet
  facet normal 0.365848 -0.845424 -0.389119
    outer loop
      vertex 27.3625 -0.59553 4
      vertex 27.7958 1.43304 4.47816e-15
      vertex 28.5156 -0.096541 4
    endloop
  endfacet
  facet normal 0.365848 -0.845424 -0.389119
    outer loop
      vertex 26.7402 0.976232 4.5341e-15
      vertex 27.7958 1.43304 4.47816e-15
      vertex 27.3625 -0.59553 4
    endloop
  endfacet
  facet normal 0.312041 -0.866728 -0.389119
    outer loop
      vertex 26.1803 -1.02113 4
      vertex 26.7402 0.976232 4.5341e-15
      vertex 27.3625 -0.59553 4
    endloop
  endfacet
  facet normal 0.312041 -0.866728 -0.389119
    outer loop
      vertex 25.658 0.586605 4.58182e-15
      vertex 26.7402 0.976232 4.5341e-15
      vertex 26.1803 -1.02113 4
    endloop
  endfacet
  facet normal 0.257003 -0.884611 -0.389119
    outer loop
      vertex 24.9738 -1.37166 4
      vertex 25.658 0.586605 4.58182e-15
      vertex 26.1803 -1.02113 4
    endloop
  endfacet
  facet normal 0.257003 -0.884611 -0.389119
    outer loop
      vertex 24.5534 0.265701 4.62112e-15
      vertex 25.658 0.586605 4.58182e-15
      vertex 24.9738 -1.37166 4
    endloop
  endfacet
  facet normal 0.200951 -0.899002 -0.389119
    outer loop
      vertex 23.7476 -1.64574 4
      vertex 24.5534 0.265701 4.62112e-15
      vertex 24.9738 -1.37166 4
    endloop
  endfacet
  facet normal 0.200951 -0.899002 -0.389119
    outer loop
      vertex 23.4309 0.014785 4.65185e-15
      vertex 24.5534 0.265701 4.62112e-15
      vertex 23.7476 -1.64574 4
    endloop
  endfacet
  facet normal 0.144106 -0.909846 -0.389119
    outer loop
      vertex 22.5067 -1.84229 4
      vertex 23.4309 0.014785 4.65185e-15
      vertex 23.7476 -1.64574 4
    endloop
  endfacet
  facet normal 0.144106 -0.909846 -0.389119
    outer loop
      vertex 22.2948 -0.165151 4.67388e-15
      vertex 23.4309 0.014785 4.65185e-15
      vertex 22.5067 -1.84229 4
    endloop
  endfacet
  facet normal 0.0866917 -0.917099 -0.389119
    outer loop
      vertex 21.2558 -1.96054 4
      vertex 22.2948 -0.165151 4.67388e-15
      vertex 22.5067 -1.84229 4
    endloop
  endfacet
  facet normal 0.0866911 -0.917099 -0.389119
    outer loop
      vertex 21.1497 -0.273397 4.68714e-15
      vertex 22.2948 -0.165151 4.67388e-15
      vertex 21.2558 -1.96054 4
    endloop
  endfacet
  facet normal 0.0289349 -0.920733 -0.389119
    outer loop
      vertex 20 -2 4
      vertex 21.1497 -0.273397 4.68714e-15
      vertex 21.2558 -1.96054 4
    endloop
  endfacet
  facet normal 0.0289355 -0.920733 -0.389119
    outer loop
      vertex 20 -0.309527 4.69156e-15
      vertex 21.1497 -0.273397 4.68714e-15
      vertex 20 -2 4
    endloop
  endfacet
  facet normal -0.0289349 -0.920733 -0.389119
    outer loop
      vertex 18.7442 -1.96054 4
      vertex 20 -0.309527 4.69156e-15
      vertex 20 -2 4
    endloop
  endfacet
  facet normal -0.0289355 -0.920733 -0.389119
    outer loop
      vertex 18.7442 -1.96054 4
      vertex 18.8503 -0.273397 4.68714e-15
      vertex 20 -0.309527 4.69156e-15
    endloop
  endfacet
  facet normal -0.0866917 -0.917099 -0.389119
    outer loop
      vertex 17.4933 -1.84229 4
      vertex 18.8503 -0.273397 4.68714e-15
      vertex 18.7442 -1.96054 4
    endloop
  endfacet
  facet normal -0.0866911 -0.917099 -0.389119
    outer loop
      vertex 17.4933 -1.84229 4
      vertex 17.7052 -0.165151 4.67388e-15
      vertex 18.8503 -0.273397 4.68714e-15
    endloop
  endfacet
  facet normal -0.144106 -0.909846 -0.389119
    outer loop
      vertex 16.2524 -1.64574 4
      vertex 17.7052 -0.165151 4.67388e-15
      vertex 17.4933 -1.84229 4
    endloop
  endfacet
  facet normal -0.144106 -0.909846 -0.389119
    outer loop
      vertex 16.2524 -1.64574 4
      vertex 16.5691 0.014785 4.65185e-15
      vertex 17.7052 -0.165151 4.67388e-15
    endloop
  endfacet
  facet normal -0.200951 -0.899002 -0.389119
    outer loop
      vertex 15.0262 -1.37166 4
      vertex 16.5691 0.014785 4.65185e-15
      vertex 16.2524 -1.64574 4
    endloop
  endfacet
  facet normal -0.200951 -0.899002 -0.389119
    outer loop
      vertex 15.0262 -1.37166 4
      vertex 15.4466 0.265701 4.62112e-15
      vertex 16.5691 0.014785 4.65185e-15
    endloop
  endfacet
  facet normal -0.257003 -0.884611 -0.389119
    outer loop
      vertex 13.8197 -1.02113 4
      vertex 15.4466 0.265701 4.62112e-15
      vertex 15.0262 -1.37166 4
    endloop
  endfacet
  facet normal -0.257003 -0.884611 -0.389119
    outer loop
      vertex 13.8197 -1.02113 4
      vertex 14.342 0.586605 4.58182e-15
      vertex 15.4466 0.265701 4.62112e-15
    endloop
  endfacet
  facet normal -0.312041 -0.866728 -0.389119
    outer loop
      vertex 12.6375 -0.59553 4
      vertex 14.342 0.586605 4.58182e-15
      vertex 13.8197 -1.02113 4
    endloop
  endfacet
  facet normal -0.312041 -0.866728 -0.389119
    outer loop
      vertex 12.6375 -0.59553 4
      vertex 13.2598 0.976232 4.5341e-15
      vertex 14.342 0.586605 4.58182e-15
    endloop
  endfacet
  facet normal -0.365848 -0.845424 -0.389119
    outer loop
      vertex 11.4844 -0.096541 4
      vertex 13.2598 0.976232 4.5341e-15
      vertex 12.6375 -0.59553 4
    endloop
  endfacet
  facet normal -0.365848 -0.845424 -0.389119
    outer loop
      vertex 11.4844 -0.096541 4
      vertex 12.2042 1.43304 4.47816e-15
      vertex 13.2598 0.976232 4.5341e-15
    endloop
  endfacet
  facet normal -0.41821 -0.820784 -0.389119
    outer loop
      vertex 10.3649 0.473866 4
      vertex 12.2042 1.43304 4.47816e-15
      vertex 11.4844 -0.096541 4
    endloop
  endfacet
  facet normal -0.41821 -0.820784 -0.389119
    outer loop
      vertex 10.3649 0.473866 4
      vertex 11.1793 1.95524 4.41421e-15
      vertex 12.2042 1.43304 4.47816e-15
    endloop
  endfacet
  facet normal -0.468922 -0.792905 -0.389119
    outer loop
      vertex 9.28346 1.11344 4
      vertex 11.1793 1.95524 4.41421e-15
      vertex 10.3649 0.473866 4
    endloop
  endfacet
  facet normal -0.468923 -0.792905 -0.389119
    outer loop
      vertex 9.28346 1.11344 4
      vertex 10.1893 2.54075 4.34251e-15
      vertex 11.1793 1.95524 4.41421e-15
    endloop
  endfacet
  facet normal -0.517784 -0.761896 -0.389119
    outer loop
      vertex 8.2443 1.81966 4
      vertex 10.1893 2.54075 4.34251e-15
      vertex 9.28346 1.11344 4
    endloop
  endfacet
  facet normal -0.517784 -0.761896 -0.389119
    outer loop
      vertex 8.2443 1.81966 4
      vertex 9.23793 3.18728 4.26333e-15
      vertex 10.1893 2.54075 4.34251e-15
    endloop
  endfacet
  facet normal -0.564602 -0.727881 -0.389119
    outer loop
      vertex 7.25152 2.58974 4
      vertex 9.23793 3.18728 4.26333e-15
      vertex 8.2443 1.81966 4
    endloop
  endfacet
  facet normal -0.564602 -0.727881 -0.389119
    outer loop
      vertex 7.25152 2.58974 4
      vertex 8.32907 3.89227 4.17699e-15
      vertex 9.23793 3.18728 4.26333e-15
    endloop
  endfacet
  facet normal -0.609192 -0.690993 -0.389119
    outer loop
      vertex 6.30906 3.42063 4
      vertex 8.32907 3.89227 4.17699e-15
      vertex 7.25152 2.58974 4
    endloop
  endfacet
  facet normal -0.609192 -0.690993 -0.389119
    outer loop
      vertex 6.30906 3.42063 4
      vertex 7.46627 4.65293 4.08384e-15
      vertex 8.32907 3.89227 4.17699e-15
    endloop
  endfacet
  facet normal -0.651378 -0.651378 -0.389119
    outer loop
      vertex 5.42063 4.30906 4
      vertex 6.65293 5.46627 3.98423e-15
      vertex 7.46627 4.65293 4.08384e-15
    endloop
  endfacet
  facet normal -0.651378 -0.651378 -0.389119
    outer loop
      vertex 6.30906 3.42063 4
      vertex 5.42063 4.30906 4
      vertex 7.46627 4.65293 4.08384e-15
    endloop
  endfacet
  facet normal -0.690993 -0.609192 -0.389119
    outer loop
      vertex 4.58974 5.25152 4
      vertex 6.65293 5.46627 3.98423e-15
      vertex 5.42063 4.30906 4
    endloop
  endfacet
  facet normal -0.690993 -0.609192 -0.389119
    outer loop
      vertex 4.58974 5.25152 4
      vertex 5.89227 6.32907 3.87857e-15
      vertex 6.65293 5.46627 3.98423e-15
    endloop
  endfacet
  facet normal -0.727881 -0.564602 -0.389119
    outer loop
      vertex 3.81966 6.2443 4
      vertex 5.89227 6.32907 3.87857e-15
      vertex 4.58974 5.25152 4
    endloop
  endfacet
  facet normal -0.727881 -0.564602 -0.389119
    outer loop
      vertex 3.81966 6.2443 4
      vertex 5.18728 7.23793 3.76727e-15
      vertex 5.89227 6.32907 3.87857e-15
    endloop
  endfacet
  facet normal -0.761896 -0.517784 -0.389119
    outer loop
      vertex 3.11344 7.28346 4
      vertex 5.18728 7.23793 3.76727e-15
      vertex 3.81966 6.2443 4
    endloop
  endfacet
  facet normal -0.761896 -0.517784 -0.389119
    outer loop
      vertex 3.11344 7.28346 4
      vertex 4.54076 8.18926 3.65076e-15
      vertex 5.18728 7.23793 3.76727e-15
    endloop
  endfacet
  facet normal -0.792905 -0.468922 -0.389119
    outer loop
      vertex 2.47387 8.36493 4
      vertex 4.54076 8.18926 3.65076e-15
      vertex 3.11344 7.28346 4
    endloop
  endfacet
  facet normal -0.792905 -0.468923 -0.389119
    outer loop
      vertex 2.47387 8.36493 4
      vertex 3.95524 9.17932 3.52952e-15
      vertex 4.54076 8.18926 3.65076e-15
    endloop
  endfacet
  facet normal -0.820784 -0.41821 -0.389119
    outer loop
      vertex 1.90346 9.48441 4
      vertex 3.95524 9.17932 3.52952e-15
      vertex 2.47387 8.36493 4
    endloop
  endfacet
  facet normal -0.820784 -0.41821 -0.389119
    outer loop
      vertex 1.90346 9.48441 4
      vertex 3.43304 10.2042 3.40401e-15
      vertex 3.95524 9.17932 3.52952e-15
    endloop
  endfacet
  facet normal -0.845424 -0.365848 -0.389119
    outer loop
      vertex 1.40447 10.6375 4
      vertex 3.43304 10.2042 3.40401e-15
      vertex 1.90346 9.48441 4
    endloop
  endfacet
  facet normal -0.845424 -0.365848 -0.389119
    outer loop
      vertex 1.40447 10.6375 4
      vertex 2.97623 11.2598 3.27473e-15
      vertex 3.43304 10.2042 3.40401e-15
    endloop
  endfacet
  facet normal -0.866728 -0.312041 -0.389119
    outer loop
      vertex 0.97887 11.8197 4
      vertex 2.97623 11.2598 3.27473e-15
      vertex 1.40447 10.6375 4
    endloop
  endfacet
  facet normal -0.866728 -0.312041 -0.389119
    outer loop
      vertex 0.97887 11.8197 4
      vertex 2.58661 12.342 3.14219e-15
      vertex 2.97623 11.2598 3.27473e-15
    endloop
  endfacet
  facet normal -0.884611 -0.257003 -0.389119
    outer loop
      vertex 0.628337 13.0262 4
      vertex 2.58661 12.342 3.14219e-15
      vertex 0.97887 11.8197 4
    endloop
  endfacet
  facet normal -0.884611 -0.257003 -0.389119
    outer loop
      vertex 0.628337 13.0262 4
      vertex 2.2657 13.4466 3.00692e-15
      vertex 2.58661 12.342 3.14219e-15
    endloop
  endfacet
  facet normal -0.899002 -0.200951 -0.389119
    outer loop
      vertex 0.354255 14.2524 4
      vertex 2.2657 13.4466 3.00692e-15
      vertex 0.628337 13.0262 4
    endloop
  endfacet
  facet normal -0.899002 -0.200951 -0.389119
    outer loop
      vertex 0.354255 14.2524 4
      vertex 2.01478 14.5691 2.86945e-15
      vertex 2.2657 13.4466 3.00692e-15
    endloop
  endfacet
  facet normal -0.909846 -0.144106 -0.389119
    outer loop
      vertex 0.157706 15.4933 4
      vertex 2.01478 14.5691 2.86945e-15
      vertex 0.354255 14.2524 4
    endloop
  endfacet
  facet normal -0.909846 -0.144106 -0.389119
    outer loop
      vertex 0.157706 15.4933 4
      vertex 1.83485 15.7052 2.73032e-15
      vertex 2.01478 14.5691 2.86945e-15
    endloop
  endfacet
  facet normal -0.917099 -0.0866917 -0.389119
    outer loop
      vertex 0.039465 16.7442 4
      vertex 1.83485 15.7052 2.73032e-15
      vertex 0.157706 15.4933 4
    endloop
  endfacet
  facet normal -0.917099 -0.0866911 -0.389119
    outer loop
      vertex 0.039465 16.7442 4
      vertex 1.7266 16.8503 2.59009e-15
      vertex 1.83485 15.7052 2.73032e-15
    endloop
  endfacet
  facet normal 0 -1.22465e-16 -1
    outer loop
      vertex 1.7266 19.1497 2.3085e-15
      vertex 1.83485 20.2948 2.16826e-15
      vertex 1.69047 18 2.44929e-15
    endloop
  endfacet
  facet normal 0 -1.22465e-16 -1
    outer loop
      vertex 1.69047 18 2.44929e-15
      vertex 1.83485 20.2948 2.16826e-15
      vertex 2.01478 21.4309 2.02913e-15
    endloop
  endfacet
  facet normal 0 -1.22465e-16 -1
    outer loop
      vertex 1.69047 18 2.44929e-15
      vertex 2.01478 21.4309 2.02913e-15
      vertex 2.2657 22.5534 1.89166e-15
    endloop
  endfacet
  facet normal 0 -1.22465e-16 -1
    outer loop
      vertex 1.69047 18 2.44929e-15
      vertex 2.2657 22.5534 1.89166e-15
      vertex 2.58661 23.658 1.75639e-15
    endloop
  endfacet
  facet normal 0 -1.22465e-16 -1
    outer loop
      vertex 1.69047 18 2.44929e-15
      vertex 2.58661 23.658 1.75639e-15
      vertex 2.97623 24.7402 1.62386e-15
    endloop
  endfacet
  facet normal 0 -1.22465e-16 -1
    outer loop
      vertex 1.69047 18 2.44929e-15
      vertex 2.97623 24.7402 1.62386e-15
      vertex 3.43304 25.7958 1.49458e-15
    endloop
  endfacet
  facet normal 0 -1.22465e-16 -1
    outer loop
      vertex 1.69047 18 2.44929e-15
      vertex 3.43304 25.7958 1.49458e-15
      vertex 3.95524 26.8207 1.36907e-15
    endloop
  endfacet
  facet normal 0 -1.22465e-16 -1
    outer loop
      vertex 1.69047 18 2.44929e-15
      vertex 3.95524 26.8207 1.36907e-15
      vertex 4.54076 27.8107 1.24783e-15
    endloop
  endfacet
  facet normal 0 -1.22465e-16 -1
    outer loop
      vertex 1.69047 18 2.44929e-15
      vertex 4.54076 27.8107 1.24783e-15
      vertex 5.18728 28.7621 1.13132e-15
    endloop
  endfacet
  facet normal 0 -1.22465e-16 -1
    outer loop
      vertex 1.69047 18 2.44929e-15
      vertex 5.18728 28.7621 1.13132e-15
      vertex 5.89227 29.6709 1.02002e-15
    endloop
  endfacet
  facet normal 0 -1.22465e-16 -1
    outer loop
      vertex 1.69047 18 2.44929e-15
      vertex 5.89227 29.6709 1.02002e-15
      vertex 6.65293 30.5337 9.14354e-16
    endloop
  endfacet
  facet normal 0 -1.22465e-16 -1
    outer loop
      vertex 1.69047 18 2.44929e-15
      vertex 6.65293 30.5337 9.14354e-16
      vertex 7.46627 31.3471 8.14749e-16
    endloop
  endfacet
  facet normal 0 -1.22465e-16 -1
    outer loop
      vertex 1.69047 18 2.44929e-15
      vertex 7.46627 31.3471 8.14749e-16
      vertex 8.32907 32.1077 7.21595e-16
    endloop
  endfacet
  facet normal 0 -1.22465e-16 -1
    outer loop
      vertex 1.69047 18 2.44929e-15
      vertex 8.32907 32.1077 7.21595e-16
      vertex 9.23793 32.8127 6.35259e-16
    endloop
  endfacet
  facet normal 0 -1.22465e-16 -1
    outer loop
      vertex 1.69047 18 2.44929e-15
      vertex 9.23793 32.8127 6.35259e-16
      vertex 10.1893 33.4592 5.56082e-16
    endloop
  endfacet
  facet normal 0 -1.22465e-16 -1
    outer loop
      vertex 1.69047 18 2.44929e-15
      vertex 10.1893 33.4592 5.56082e-16
      vertex 11.1793 34.0448 4.84377e-16
    endloop
  endfacet
  facet normal 0 -1.22465e-16 -1
    outer loop
      vertex 1.69047 18 2.44929e-15
      vertex 11.1793 34.0448 4.84377e-16
      vertex 12.2042 34.567 4.20427e-16
    endloop
  endfacet
  facet normal 0 -1.22465e-16 -1
    outer loop
      vertex 1.69047 18 2.44929e-15
      vertex 12.2042 34.567 4.20427e-16
      vertex 13.2598 35.0238 3.64483e-16
    endloop
  endfacet
  facet normal 0 -1.22465e-16 -1
    outer loop
      vertex 1.69047 18 2.44929e-15
      vertex 13.2598 35.0238 3.64483e-16
      vertex 14.342 35.4134 3.16768e-16
    endloop
  endfacet
  facet normal 0 -1.22465e-16 -1
    outer loop
      vertex 1.69047 18 2.44929e-15
      vertex 14.342 35.4134 3.16768e-16
      vertex 15.4466 35.7343 2.77468e-16
    endloop
  endfacet
  facet normal 0 -1.22465e-16 -1
    outer loop
      vertex 1.69047 18 2.44929e-15
      vertex 15.4466 35.7343 2.77468e-16
      vertex 16.5691 35.9852 2.4674e-16
    endloop
  endfacet
  facet normal 0 -1.22465e-16 -1
    outer loop
      vertex 1.69047 18 2.44929e-15
      vertex 16.5691 35.9852 2.4674e-16
      vertex 17.7052 36.1652 2.24704e-16
    endloop
  endfacet
  facet normal 0 -1.22465e-16 -1
    outer loop
      vertex 1.69047 18 2.44929e-15
      vertex 17.7052 36.1652 2.24704e-16
      vertex 18.8503 36.2734 2.11448e-16
    endloop
  endfacet
  facet normal 0 -1.22465e-16 -1
    outer loop
      vertex 1.69047 18 2.44929e-15
      vertex 18.8503 36.2734 2.11448e-16
      vertex 20 36.3095 2.07023e-16
    endloop
  endfacet
  facet normal 0 -1.22465e-16 -1
    outer loop
      vertex 1.69047 18 2.44929e-15
      vertex 20 36.3095 2.07023e-16
      vertex 21.1497 36.2734 2.11448e-16
    endloop
  endfacet
  facet normal 0 -1.22465e-16 -1
    outer loop
      vertex 1.69047 18 2.44929e-15
      vertex 21.1497 36.2734 2.11448e-16
      vertex 22.2948 36.1652 2.24704e-16
    endloop
  endfacet
  facet normal 0 -1.22465e-16 -1
    outer loop
      vertex 1.69047 18 2.44929e-15
      vertex 22.2948 36.1652 2.24704e-16
      vertex 23.4309 35.9852 2.4674e-16
    endloop
  endfacet
  facet normal 0 -1.22465e-16 -1
    outer loop
      vertex 1.69047 18 2.44929e-15
      vertex 23.4309 35.9852 2.4674e-16
      vertex 24.5534 35.7343 2.77468e-16
    endloop
  endfacet
  facet normal 0 -1.22465e-16 -1
    outer loop
      vertex 1.69047 18 2.44929e-15
      vertex 24.5534 35.7343 2.77468e-16
      vertex 25.658 35.4134 3.16768e-16
    endloop
  endfacet
  facet normal 0 -1.22465e-16 -1
    outer loop
      vertex 1.69047 18 2.44929e-15
      vertex 25.658 35.4134 3.16768e-16
      vertex 26.7402 35.0238 3.64483e-16
    endloop
  endfacet
  facet normal 0 -1.22465e-16 -1
    outer loop
      vertex 1.69047 18 2.44929e-15
      vertex 26.7402 35.0238 3.64483e-16
      vertex 27.7958 34.567 4.20427e-16
    endloop
  endfacet
  facet normal 0 -1.22465e-16 -1
    outer loop
      vertex 1.69047 18 2.44929e-15
      vertex 27.7958 34.567 4.20427e-16
      vertex 28.8207 34.0448 4.84377e-16
    endloop
  endfacet
  facet normal 0 -1.22465e-16 -1
    outer loop
      vertex 1.69047 18 2.44929e-15
      vertex 28.8207 34.0448 4.84377e-16
      vertex 29.8107 33.4592 5.56082e-16
    endloop
  endfacet
  facet normal 0 -1.22465e-16 -1
    outer loop
      vertex 1.69047 18 2.44929e-15
      vertex 29.8107 33.4592 5.56082e-16
      vertex 30.7621 32.8127 6.35259e-16
    endloop
  endfacet
  facet normal 0 -1.22465e-16 -1
    outer loop
      vertex 1.69047 18 2.44929e-15
      vertex 30.7621 32.8127 6.35259e-16
      vertex 31.6709 32.1077 7.21595e-16
    endloop
  endfacet
  facet normal 0 -1.22465e-16 -1
    outer loop
      vertex 1.69047 18 2.44929e-15
      vertex 31.6709 32.1077 7.21595e-16
      vertex 32.5337 31.3471 8.14749e-16
    endloop
  endfacet
  facet normal 0 -1.22465e-16 -1
    outer loop
      vertex 1.69047 18 2.44929e-15
      vertex 32.5337 31.3471 8.14749e-16
      vertex 33.3471 30.5337 9.14354e-16
    endloop
  endfacet
  facet normal 0 -1.22465e-16 -1
    outer loop
      vertex 1.69047 18 2.44929e-15
      vertex 33.3471 30.5337 9.14354e-16
      vertex 34.1077 29.6709 1.02002e-15
    endloop
  endfacet
  facet normal 0 -1.22465e-16 -1
    outer loop
      vertex 1.69047 18 2.44929e-15
      vertex 34.1077 29.6709 1.02002e-15
      vertex 34.8127 28.7621 1.13132e-15
    endloop
  endfacet
  facet normal 0 -1.22465e-16 -1
    outer loop
      vertex 1.69047 18 2.44929e-15
      vertex 34.8127 28.7621 1.13132e-15
      vertex 35.4592 27.8107 1.24783e-15
    endloop
  endfacet
  facet normal 0 -1.22465e-16 -1
    outer loop
      vertex 1.69047 18 2.44929e-15
      vertex 35.4592 27.8107 1.24783e-15
      vertex 36.0448 26.8207 1.36907e-15
    endloop
  endfacet
  facet normal 0 -1.22465e-16 -1
    outer loop
      vertex 1.69047 18 2.44929e-15
      vertex 36.0448 26.8207 1.36907e-15
      vertex 36.567 25.7958 1.49458e-15
    endloop
  endfacet
  facet normal 0 -1.22465e-16 -1
    outer loop
      vertex 1.69047 18 2.44929e-15
      vertex 36.567 25.7958 1.49458e-15
      vertex 37.0238 24.7402 1.62386e-15
    endloop
  endfacet
  facet normal 0 -1.22465e-16 -1
    outer loop
      vertex 1.69047 18 2.44929e-15
      vertex 37.0238 24.7402 1.62386e-15
      vertex 37.4134 23.658 1.75639e-15
    endloop
  endfacet
  facet normal 0 -1.22465e-16 -1
    outer loop
      vertex 1.69047 18 2.44929e-15
      vertex 37.4134 23.658 1.75639e-15
      vertex 37.7343 22.5534 1.89166e-15
    endloop
  endfacet
  facet normal 0 -1.22465e-16 -1
    outer loop
      vertex 1.69047 18 2.44929e-15
      vertex 37.7343 22.5534 1.89166e-15
      vertex 37.9852 21.4309 2.02913e-15
    endloop
  endfacet
  facet normal 0 -1.22465e-16 -1
    outer loop
      vertex 1.69047 18 2.44929e-15
      vertex 37.9852 21.4309 2.02913e-15
      vertex 38.1652 20.2948 2.16826e-15
    endloop
  endfacet
  facet normal 0 -1.22465e-16 -1
    outer loop
      vertex 1.69047 18 2.44929e-15
      vertex 38.1652 20.2948 2.16826e-15
      vertex 38.2734 19.1497 2.3085e-15
    endloop
  endfacet
  facet normal 0 -1.22465e-16 -1
    outer loop
      vertex 1.69047 18 2.44929e-15
      vertex 38.2734 19.1497 2.3085e-15
      vertex 38.3095 18 2.44929e-15
    endloop
  endfacet
  facet normal 0 -1.22465e-16 -1
    outer loop
      vertex 1.69047 18 2.44929e-15
      vertex 38.3095 18 2.44929e-15
      vertex 38.2734 16.8503 2.59009e-15
    endloop
  endfacet
  facet normal 0 -1.22465e-16 -1
    outer loop
      vertex 1.69047 18 2.44929e-15
      vertex 38.2734 16.8503 2.59009e-15
      vertex 38.1652 15.7052 2.73032e-15
    endloop
  endfacet
  facet normal 0 -1.22465e-16 -1
    outer loop
      vertex 1.69047 18 2.44929e-15
      vertex 38.1652 15.7052 2.73032e-15
      vertex 37.9852 14.5691 2.86945e-15
    endloop
  endfacet
  facet normal 0 -1.22465e-16 -1
    outer loop
      vertex 1.69047 18 2.44929e-15
      vertex 37.9852 14.5691 2.86945e-15
      vertex 37.7343 13.4466 3.00692e-15
    endloop
  endfacet
  facet normal 0 -1.22465e-16 -1
    outer loop
      vertex 1.69047 18 2.44929e-15
      vertex 37.7343 13.4466 3.00692e-15
      vertex 37.4134 12.342 3.14219e-15
    endloop
  endfacet
  facet normal 0 -1.22465e-16 -1
    outer loop
      vertex 1.69047 18 2.44929e-15
      vertex 37.4134 12.342 3.14219e-15
      vertex 37.0238 11.2598 3.27473e-15
    endloop
  endfacet
  facet normal 0 -1.22465e-16 -1
    outer loop
      vertex 1.69047 18 2.44929e-15
      vertex 37.0238 11.2598 3.27473e-15
      vertex 36.567 10.2042 3.40401e-15
    endloop
  endfacet
  facet normal 0 -1.22465e-16 -1
    outer loop
      vertex 1.69047 18 2.44929e-15
      vertex 36.567 10.2042 3.40401e-15
      vertex 36.0448 9.17932 3.52952e-15
    endloop
  endfacet
  facet normal 0 -1.22465e-16 -1
    outer loop
      vertex 1.69047 18 2.44929e-15
      vertex 36.0448 9.17932 3.52952e-15
      vertex 35.4592 8.18926 3.65076e-15
    endloop
  endfacet
  facet normal 0 -1.22465e-16 -1
    outer loop
      vertex 1.69047 18 2.44929e-15
      vertex 35.4592 8.18926 3.65076e-15
      vertex 34.8127 7.23793 3.76727e-15
    endloop
  endfacet
  facet normal 0 -1.22465e-16 -1
    outer loop
      vertex 1.69047 18 2.44929e-15
      vertex 34.8127 7.23793 3.76727e-15
      vertex 34.1077 6.32907 3.87857e-15
    endloop
  endfacet
  facet normal 0 -1.22465e-16 -1
    outer loop
      vertex 1.69047 18 2.44929e-15
      vertex 34.1077 6.32907 3.87857e-15
      vertex 33.3471 5.46627 3.98423e-15
    endloop
  endfacet
  facet normal 0 -1.22465e-16 -1
    outer loop
      vertex 1.69047 18 2.44929e-15
      vertex 33.3471 5.46627 3.98423e-15
      vertex 32.5337 4.65293 4.08384e-15
    endloop
  endfacet
  facet normal 0 -1.22465e-16 -1
    outer loop
      vertex 1.69047 18 2.44929e-15
      vertex 32.5337 4.65293 4.08384e-15
      vertex 31.6709 3.89227 4.17699e-15
    endloop
  endfacet
  facet normal 0 -1.22465e-16 -1
    outer loop
      vertex 1.69047 18 2.44929e-15
      vertex 31.6709 3.89227 4.17699e-15
      vertex 30.7621 3.18728 4.26333e-15
    endloop
  endfacet
  facet normal 0 -1.22465e-16 -1
    outer loop
      vertex 1.69047 18 2.44929e-15
      vertex 30.7621 3.18728 4.26333e-15
      vertex 29.8107 2.54075 4.34251e-15
    endloop
  endfacet
  facet normal 0 -1.22465e-16 -1
    outer loop
      vertex 1.69047 18 2.44929e-15
      vertex 29.8107 2.54075 4.34251e-15
      vertex 28.8207 1.95524 4.41421e-15
    endloop
  endfacet
  facet normal 0 -1.22465e-16 -1
    outer loop
      vertex 1.69047 18 2.44929e-15
      vertex 28.8207 1.95524 4.41421e-15
      vertex 27.7958 1.43304 4.47816e-15
    endloop
  endfacet
  facet normal 0 -1.22465e-16 -1
    outer loop
      vertex 1.69047 18 2.44929e-15
      vertex 27.7958 1.43304 4.47816e-15
      vertex 26.7402 0.976232 4.5341e-15
    endloop
  endfacet
  facet normal 0 -1.22465e-16 -1
    outer loop
      vertex 1.69047 18 2.44929e-15
      vertex 26.7402 0.976232 4.5341e-15
      vertex 25.658 0.586605 4.58182e-15
    endloop
  endfacet
  facet normal 0 -1.22465e-16 -1
    outer loop
      vertex 1.69047 18 2.44929e-15
      vertex 25.658 0.586605 4.58182e-15
      vertex 24.5534 0.265701 4.62112e-15
    endloop
  endfacet
  facet normal 0 -1.22465e-16 -1
    outer loop
      vertex 1.69047 18 2.44929e-15
      vertex 24.5534 0.265701 4.62112e-15
      vertex 23.4309 0.014785 4.65185e-15
    endloop
  endfacet
  facet normal 0 -1.22465e-16 -1
    outer loop
      vertex 1.69047 18 2.44929e-15
      vertex 23.4309 0.014785 4.65185e-15
      vertex 22.2948 -0.165151 4.67388e-15
    endloop
  endfacet
  facet normal 0 -1.22465e-16 -1
    outer loop
      vertex 1.69047 18 2.44929e-15
      vertex 22.2948 -0.165151 4.67388e-15
      vertex 21.1497 -0.273397 4.68714e-15
    endloop
  endfacet
  facet normal 0 -1.22465e-16 -1
    outer loop
      vertex 1.69047 18 2.44929e-15
      vertex 21.1497 -0.273397 4.68714e-15
      vertex 20 -0.309527 4.69156e-15
    endloop
  endfacet
  facet normal 0 -1.22465e-16 -1
    outer loop
      vertex 1.69047 18 2.44929e-15
      vertex 20 -0.309527 4.69156e-15
      vertex 18.8503 -0.273397 4.68714e-15
    endloop
  endfacet
  facet normal 0 -1.22465e-16 -1
    outer loop
      vertex 1.69047 18 2.44929e-15
      vertex 18.8503 -0.273397 4.68714e-15
      vertex 17.7052 -0.165151 4.67388e-15
    endloop
  endfacet
  facet normal 0 -1.22465e-16 -1
    outer loop
      vertex 1.69047 18 2.44929e-15
      vertex 17.7052 -0.165151 4.67388e-15
      vertex 16.5691 0.014785 4.65185e-15
    endloop
  endfacet
  facet normal 0 -1.22465e-16 -1
    outer loop
      vertex 1.69047 18 2.44929e-15
      vertex 16.5691 0.014785 4.65185e-15
      vertex 15.4466 0.265701 4.62112e-15
    endloop
  endfacet
  facet normal 0 -1.22465e-16 -1
    outer loop
      vertex 1.69047 18 2.44929e-15
      vertex 15.4466 0.265701 4.62112e-15
      vertex 14.342 0.586605 4.58182e-15
    endloop
  endfacet
  facet normal 0 -1.22465e-16 -1
    outer loop
      vertex 1.69047 18 2.44929e-15
      vertex 14.342 0.586605 4.58182e-15
      vertex 13.2598 0.976232 4.5341e-15
    endloop
  endfacet
  facet normal 0 -1.22465e-16 -1
    outer loop
      vertex 1.69047 18 2.44929e-15
      vertex 13.2598 0.976232 4.5341e-15
      vertex 12.2042 1.43304 4.47816e-15
    endloop
  endfacet
  facet normal 0 -1.22465e-16 -1
    outer loop
      vertex 1.69047 18 2.44929e-15
      vertex 12.2042 1.43304 4.47816e-15
      vertex 11.1793 1.95524 4.41421e-15
    endloop
  endfacet
  facet normal 0 -1.22465e-16 -1
    outer loop
      vertex 1.69047 18 2.44929e-15
      vertex 11.1793 1.95524 4.41421e-15
      vertex 10.1893 2.54075 4.34251e-15
    endloop
  endfacet
  facet normal 0 -1.22465e-16 -1
    outer loop
      vertex 1.69047 18 2.44929e-15
      vertex 10.1893 2.54075 4.34251e-15
      vertex 9.23793 3.18728 4.26333e-15
    endloop
  endfacet
  facet normal 0 -1.22465e-16 -1
    outer loop
      vertex 1.69047 18 2.44929e-15
      vertex 9.23793 3.18728 4.26333e-15
      vertex 8.32907 3.89227 4.17699e-15
    endloop
  endfacet
  facet normal 0 -1.22465e-16 -1
    outer loop
      vertex 1.69047 18 2.44929e-15
      vertex 8.32907 3.89227 4.17699e-15
      vertex 7.46627 4.65293 4.08384e-15
    endloop
  endfacet
  facet normal 0 -1.22465e-16 -1
    outer loop
      vertex 1.69047 18 2.44929e-15
      vertex 7.46627 4.65293 4.08384e-15
      vertex 6.65293 5.46627 3.98423e-15
    endloop
  endfacet
  facet normal 0 -1.22465e-16 -1
    outer loop
      vertex 1.69047 18 2.44929e-15
      vertex 6.65293 5.46627 3.98423e-15
      vertex 5.89227 6.32907 3.87857e-15
    endloop
  endfacet
  facet normal 0 -1.22465e-16 -1
    outer loop
      vertex 1.69047 18 2.44929e-15
      vertex 5.89227 6.32907 3.87857e-15
      vertex 5.18728 7.23793 3.76727e-15
    endloop
  endfacet
  facet normal 0 -1.22465e-16 -1
    outer loop
      vertex 1.69047 18 2.44929e-15
      vertex 5.18728 7.23793 3.76727e-15
      vertex 4.54076 8.18926 3.65076e-15
    endloop
  endfacet
  facet normal 0 -1.22465e-16 -1
    outer loop
      vertex 1.69047 18 2.44929e-15
      vertex 4.54076 8.18926 3.65076e-15
      vertex 3.95524 9.17932 3.52952e-15
    endloop
  endfacet
  facet normal 0 -1.22465e-16 -1
    outer loop
      vertex 1.69047 18 2.44929e-15
      vertex 3.95524 9.17932 3.52952e-15
      vertex 3.43304 10.2042 3.40401e-15
    endloop
  endfacet
  facet normal 0 -1.22465e-16 -1
    outer loop
      vertex 1.69047 18 2.44929e-15
      vertex 3.43304 10.2042 3.40401e-15
      vertex 2.97623 11.2598 3.27473e-15
    endloop
  endfacet
  facet normal 0 -1.22465e-16 -1
    outer loop
      vertex 1.69047 18 2.44929e-15
      vertex 2.97623 11.2598 3.27473e-15
      vertex 2.58661 12.342 3.14219e-15
    endloop
  endfacet
  facet normal 0 -1.22465e-16 -1
    outer loop
      vertex 1.69047 18 2.44929e-15
      vertex 2.58661 12.342 3.14219e-15
      vertex 2.2657 13.4466 3.00692e-15
    endloop
  endfacet
  facet normal 0 -1.22465e-16 -1
    outer loop
      vertex 1.69047 18 2.44929e-15
      vertex 2.2657 13.4466 3.00692e-15
      vertex 2.01478 14.5691 2.86945e-15
    endloop
  endfacet
  facet normal 0 -1.22465e-16 -1
    outer loop
      vertex 1.69047 18 2.44929e-15
      vertex 2.01478 14.5691 2.86945e-15
      vertex 1.83485 15.7052 2.73032e-15
    endloop
  endfacet
  facet normal 0 -1.22465e-16 -1
    outer loop
      vertex 1.69047 18 2.44929e-15
      vertex 1.83485 15.7052 2.73032e-15
      vertex 1.7266 16.8503 2.59009e-15
    endloop
  endfacet
endsolid OpenSCAD_Model
