solid OpenSCAD_Model
  facet normal 0 1.22465e-16 1
    outer loop
      vertex 0 13 4
      vertex 0.029599 12.0581 4
      vertex 0.118279 11.12 4
    endloop
  endfacet
  facet normal 0 1.22465e-16 1
    outer loop
      vertex 0.471253 9.26965 4
      vertex 0 13 4
      vertex 0.265691 10.1893 4
    endloop
  endfacet
  facet normal 0 1.22465e-16 1
    outer loop
      vertex 0.265691 10.1893 4
      vertex 0 13 4
      vertex 0.118279 11.12 4
    endloop
  endfacet
  facet normal 0 1.22465e-16 1
    outer loop
      vertex 0.734152 8.36474 4
      vertex 0 13 4
      vertex 0.471253 9.26965 4
    endloop
  endfacet
  facet normal 0 1.22465e-16 1
    outer loop
      vertex 1.05335 7.47813 4
      vertex 0 13 4
      vertex 0.734152 8.36474 4
    endloop
  endfacet
  facet normal 0 1.22465e-16 1
    outer loop
      vertex 1.42759 6.61331 4
      vertex 0 13 4
      vertex 1.05335 7.47813 4
    endloop
  endfacet
  facet normal 0 1.22465e-16 1
    outer loop
      vertex 1.8554 5.7737 4
      vertex 0 13 4
      vertex 1.42759 6.61331 4
    endloop
  endfacet
  facet normal 0 1.22465e-16 1
    outer loop
      vertex 2.33508 4.9626 4
      vertex 0 13 4
      vertex 1.8554 5.7737 4
    endloop
  endfacet
  facet normal 0 1.22465e-16 1
    outer loop
      vertex 2.86475 4.18322 4
      vertex 0 13 4
      vertex 2.33508 4.9626 4
    endloop
  endfacet
  facet normal 0 1.22465e-16 1
    outer loop
      vertex 3.4423 3.43864 4
      vertex 0 13 4
      vertex 2.86475 4.18322 4
    endloop
  endfacet
  facet normal 0 1.22465e-16 1
    outer loop
      vertex 4.06547 2.73179 4
      vertex 0 13 4
      vertex 3.4423 3.43864 4
    endloop
  endfacet
  facet normal 0 1.22465e-16 1
    outer loop
      vertex 4.73179 2.06547 4
      vertex 0 13 4
      vertex 4.06547 2.73179 4
    endloop
  endfacet
  facet normal 0 1.22465e-16 1
    outer loop
      vertex 5.43864 1.4423 4
      vertex 0 13 4
      vertex 4.73179 2.06547 4
    endloop
  endfacet
  facet normal 0 1.22465e-16 1
    outer loop
      vertex 6.18322 0.864745 4
      vertex 0 13 4
      vertex 5.43864 1.4423 4
    endloop
  endfacet
  facet normal 0 1.22465e-16 1
    outer loop
      vertex 6.9626 0.335081 4
      vertex 0 13 4
      vertex 6.18322 0.864745 4
    endloop
  endfacet
  facet normal 0 1.22465e-16 1
    outer loop
      vertex 7.7737 -0.1446 4
      vertex 0 13 4
      vertex 6.9626 0.335081 4
    endloop
  endfacet
  facet normal 0 1.22465e-16 1
    outer loop
      vertex 8.61331 -0.572406 4
      vertex 0 13 4
      vertex 7.7737 -0.1446 4
    endloop
  endfacet
  facet normal 0 1.22465e-16 1
    outer loop
      vertex 9.47813 -0.946647 4
      vertex 0 13 4
      vertex 8.61331 -0.572406 4
    endloop
  endfacet
  facet normal 0 1.22465e-16 1
    outer loop
      vertex 10.3647 -1.26585 4
      vertex 0 13 4
      vertex 9.47813 -0.946647 4
    endloop
  endfacet
  facet normal 0 1.22465e-16 1
    outer loop
      vertex 11.2697 -1.52875 4
      vertex 0 13 4
      vertex 10.3647 -1.26585 4
    endloop
  endfacet
  facet normal 0 1.22465e-16 1
    outer loop
      vertex 12.1893 -1.73431 4
      vertex 0 13 4
      vertex 11.2697 -1.52875 4
    endloop
  endfacet
  facet normal 0 1.22465e-16 1
    outer loop
      vertex 13.12 -1.88172 4
      vertex 0 13 4
      vertex 12.1893 -1.73431 4
    endloop
  endfacet
  facet normal 0 1.22465e-16 1
    outer loop
      vertex 14.0581 -1.9704 4
      vertex 0 13 4
      vertex 13.12 -1.88172 4
    endloop
  endfacet
  facet normal 0 1.22465e-16 1
    outer loop
      vertex 15 -2 4
      vertex 0 13 4
      vertex 14.0581 -1.9704 4
    endloop
  endfacet
  facet normal 0 1.22465e-16 1
    outer loop
      vertex 15.9419 -1.9704 4
      vertex 0 13 4
      vertex 15 -2 4
    endloop
  endfacet
  facet normal 0 1.22465e-16 1
    outer loop
      vertex 16.88 -1.88172 4
      vertex 0 13 4
      vertex 15.9419 -1.9704 4
    endloop
  endfacet
  facet normal 0 1.22465e-16 1
    outer loop
      vertex 17.8107 -1.73431 4
      vertex 0 13 4
      vertex 16.88 -1.88172 4
    endloop
  endfacet
  facet normal 0 1.22465e-16 1
    outer loop
      vertex 18.7303 -1.52875 4
      vertex 0 13 4
      vertex 17.8107 -1.73431 4
    endloop
  endfacet
  facet normal 0 1.22465e-16 1
    outer loop
      vertex 19.6353 -1.26585 4
      vertex 0 13 4
      vertex 18.7303 -1.52875 4
    endloop
  endfacet
  facet normal 0 1.22465e-16 1
    outer loop
      vertex 20.5219 -0.946647 4
      vertex 0 13 4
      vertex 19.6353 -1.26585 4
    endloop
  endfacet
  facet normal 0 1.22465e-16 1
    outer loop
      vertex 21.3867 -0.572406 4
      vertex 0 13 4
      vertex 20.5219 -0.946647 4
    endloop
  endfacet
  facet normal 0 1.22465e-16 1
    outer loop
      vertex 22.2263 -0.1446 4
      vertex 0 13 4
      vertex 21.3867 -0.572406 4
    endloop
  endfacet
  facet normal 0 1.22465e-16 1
    outer loop
      vertex 23.0374 0.335081 4
      vertex 0 13 4
      vertex 22.2263 -0.1446 4
    endloop
  endfacet
  facet normal 0 1.22465e-16 1
    outer loop
      vertex 23.8168 0.864745 4
      vertex 0 13 4
      vertex 23.0374 0.335081 4
    endloop
  endfacet
  facet normal 0 1.22465e-16 1
    outer loop
      vertex 24.5614 1.4423 4
      vertex 0 13 4
      vertex 23.8168 0.864745 4
    endloop
  endfacet
  facet normal 0 1.22465e-16 1
    outer loop
      vertex 25.2682 2.06547 4
      vertex 0 13 4
      vertex 24.5614 1.4423 4
    endloop
  endfacet
  facet normal 0 1.22465e-16 1
    outer loop
      vertex 25.9345 2.73179 4
      vertex 0 13 4
      vertex 25.2682 2.06547 4
    endloop
  endfacet
  facet normal 0 1.22465e-16 1
    outer loop
      vertex 26.5577 3.43864 4
      vertex 0 13 4
      vertex 25.9345 2.73179 4
    endloop
  endfacet
  facet normal 0 1.22465e-16 1
    outer loop
      vertex 27.1353 4.18322 4
      vertex 0 13 4
      vertex 26.5577 3.43864 4
    endloop
  endfacet
  facet normal 0 1.22465e-16 1
    outer loop
      vertex 27.6649 4.9626 4
      vertex 0 13 4
      vertex 27.1353 4.18322 4
    endloop
  endfacet
  facet normal 0 1.22465e-16 1
    outer loop
      vertex 28.1446 5.7737 4
      vertex 0 13 4
      vertex 27.6649 4.9626 4
    endloop
  endfacet
  facet normal 0 1.22465e-16 1
    outer loop
      vertex 28.5724 6.61331 4
      vertex 0 13 4
      vertex 28.1446 5.7737 4
    endloop
  endfacet
  facet normal 0 1.22465e-16 1
    outer loop
      vertex 28.9466 7.47813 4
      vertex 0 13 4
      vertex 28.5724 6.61331 4
    endloop
  endfacet
  facet normal 0 1.22465e-16 1
    outer loop
      vertex 29.2658 8.36474 4
      vertex 0 13 4
      vertex 28.9466 7.47813 4
    endloop
  endfacet
  facet normal 0 1.22465e-16 1
    outer loop
      vertex 29.5287 9.26965 4
      vertex 0 13 4
      vertex 29.2658 8.36474 4
    endloop
  endfacet
  facet normal 0 1.22465e-16 1
    outer loop
      vertex 29.7343 10.1893 4
      vertex 0 13 4
      vertex 29.5287 9.26965 4
    endloop
  endfacet
  facet normal 0 1.22465e-16 1
    outer loop
      vertex 29.8817 11.12 4
      vertex 0 13 4
      vertex 29.7343 10.1893 4
    endloop
  endfacet
  facet normal 0 1.22465e-16 1
    outer loop
      vertex 29.9704 12.0581 4
      vertex 0 13 4
      vertex 29.8817 11.12 4
    endloop
  endfacet
  facet normal 0 1.22465e-16 1
    outer loop
      vertex 30 13 4
      vertex 0 13 4
      vertex 29.9704 12.0581 4
    endloop
  endfacet
  facet normal 0 1.22465e-16 1
    outer loop
      vertex 29.9704 13.9419 4
      vertex 0 13 4
      vertex 30 13 4
    endloop
  endfacet
  facet normal 0 1.22465e-16 1
    outer loop
      vertex 29.8817 14.88 4
      vertex 0 13 4
      vertex 29.9704 13.9419 4
    endloop
  endfacet
  facet normal 0 1.22465e-16 1
    outer loop
      vertex 29.7343 15.8107 4
      vertex 0 13 4
      vertex 29.8817 14.88 4
    endloop
  endfacet
  facet normal 0 1.22465e-16 1
    outer loop
      vertex 29.5287 16.7303 4
      vertex 0 13 4
      vertex 29.7343 15.8107 4
    endloop
  endfacet
  facet normal 0 1.22465e-16 1
    outer loop
      vertex 29.2658 17.6353 4
      vertex 0 13 4
      vertex 29.5287 16.7303 4
    endloop
  endfacet
  facet normal 0 1.22465e-16 1
    outer loop
      vertex 28.9466 18.5219 4
      vertex 0 13 4
      vertex 29.2658 17.6353 4
    endloop
  endfacet
  facet normal 0 1.22465e-16 1
    outer loop
      vertex 28.5724 19.3867 4
      vertex 0 13 4
      vertex 28.9466 18.5219 4
    endloop
  endfacet
  facet normal 0 1.22465e-16 1
    outer loop
      vertex 28.1446 20.2263 4
      vertex 0 13 4
      vertex 28.5724 19.3867 4
    endloop
  endfacet
  facet normal 0 1.22465e-16 1
    outer loop
      vertex 27.6649 21.0374 4
      vertex 0 13 4
      vertex 28.1446 20.2263 4
    endloop
  endfacet
  facet normal 0 1.22465e-16 1
    outer loop
      vertex 27.1353 21.8168 4
      vertex 0 13 4
      vertex 27.6649 21.0374 4
    endloop
  endfacet
  facet normal 0 1.22465e-16 1
    outer loop
      vertex 26.5577 22.5614 4
      vertex 0 13 4
      vertex 27.1353 21.8168 4
    endloop
  endfacet
  facet normal 0 1.22465e-16 1
    outer loop
      vertex 25.9345 23.2682 4
      vertex 0 13 4
      vertex 26.5577 22.5614 4
    endloop
  endfacet
  facet normal 0 1.22465e-16 1
    outer loop
      vertex 25.2682 23.9345 4
      vertex 0 13 4
      vertex 25.9345 23.2682 4
    endloop
  endfacet
  facet normal 0 1.22465e-16 1
    outer loop
      vertex 24.5614 24.5577 4
      vertex 0 13 4
      vertex 25.2682 23.9345 4
    endloop
  endfacet
  facet normal 0 1.22465e-16 1
    outer loop
      vertex 23.8168 25.1353 4
      vertex 0 13 4
      vertex 24.5614 24.5577 4
    endloop
  endfacet
  facet normal 0 1.22465e-16 1
    outer loop
      vertex 23.0374 25.6649 4
      vertex 0 13 4
      vertex 23.8168 25.1353 4
    endloop
  endfacet
  facet normal 0 1.22465e-16 1
    outer loop
      vertex 22.2263 26.1446 4
      vertex 0 13 4
      vertex 23.0374 25.6649 4
    endloop
  endfacet
  facet normal 0 1.22465e-16 1
    outer loop
      vertex 21.3867 26.5724 4
      vertex 0 13 4
      vertex 22.2263 26.1446 4
    endloop
  endfacet
  facet normal 0 1.22465e-16 1
    outer loop
      vertex 20.5219 26.9466 4
      vertex 0 13 4
      vertex 21.3867 26.5724 4
    endloop
  endfacet
  facet normal 0 1.22465e-16 1
    outer loop
      vertex 19.6353 27.2658 4
      vertex 0 13 4
      vertex 20.5219 26.9466 4
    endloop
  endfacet
  facet normal 0 1.22465e-16 1
    outer loop
      vertex 18.7303 27.5287 4
      vertex 0 13 4
      vertex 19.6353 27.2658 4
    endloop
  endfacet
  facet normal 0 1.22465e-16 1
    outer loop
      vertex 17.8107 27.7343 4
      vertex 0 13 4
      vertex 18.7303 27.5287 4
    endloop
  endfacet
  facet normal 0 1.22465e-16 1
    outer loop
      vertex 16.88 27.8817 4
      vertex 0 13 4
      vertex 17.8107 27.7343 4
    endloop
  endfacet
  facet normal 0 1.22465e-16 1
    outer loop
      vertex 15.9419 27.9704 4
      vertex 0 13 4
      vertex 16.88 27.8817 4
    endloop
  endfacet
  facet normal 0 1.22465e-16 1
    outer loop
      vertex 15 28 4
      vertex 0 13 4
      vertex 15.9419 27.9704 4
    endloop
  endfacet
  facet normal 0 1.22465e-16 1
    outer loop
      vertex 14.0581 27.9704 4
      vertex 0 13 4
      vertex 15 28 4
    endloop
  endfacet
  facet normal 0 1.22465e-16 1
    outer loop
      vertex 13.12 27.8817 4
      vertex 0 13 4
      vertex 14.0581 27.9704 4
    endloop
  endfacet
  facet normal 0 1.22465e-16 1
    outer loop
      vertex 12.1893 27.7343 4
      vertex 0 13 4
      vertex 13.12 27.8817 4
    endloop
  endfacet
  facet normal 0 1.22465e-16 1
    outer loop
      vertex 11.2697 27.5287 4
      vertex 0 13 4
      vertex 12.1893 27.7343 4
    endloop
  endfacet
  facet normal 0 1.22465e-16 1
    outer loop
      vertex 10.3647 27.2658 4
      vertex 0 13 4
      vertex 11.2697 27.5287 4
    endloop
  endfacet
  facet normal 0 1.22465e-16 1
    outer loop
      vertex 9.47813 26.9466 4
      vertex 0 13 4
      vertex 10.3647 27.2658 4
    endloop
  endfacet
  facet normal 0 1.22465e-16 1
    outer loop
      vertex 8.61331 26.5724 4
      vertex 0 13 4
      vertex 9.47813 26.9466 4
    endloop
  endfacet
  facet normal 0 1.22465e-16 1
    outer loop
      vertex 7.7737 26.1446 4
      vertex 0 13 4
      vertex 8.61331 26.5724 4
    endloop
  endfacet
  facet normal 0 1.22465e-16 1
    outer loop
      vertex 6.9626 25.6649 4
      vertex 0 13 4
      vertex 7.7737 26.1446 4
    endloop
  endfacet
  facet normal 0 1.22465e-16 1
    outer loop
      vertex 6.18322 25.1353 4
      vertex 0 13 4
      vertex 6.9626 25.6649 4
    endloop
  endfacet
  facet normal 0 1.22465e-16 1
    outer loop
      vertex 5.43864 24.5577 4
      vertex 0 13 4
      vertex 6.18322 25.1353 4
    endloop
  endfacet
  facet normal 0 1.22465e-16 1
    outer loop
      vertex 4.73179 23.9345 4
      vertex 0 13 4
      vertex 5.43864 24.5577 4
    endloop
  endfacet
  facet normal 0 1.22465e-16 1
    outer loop
      vertex 4.06547 23.2682 4
      vertex 0 13 4
      vertex 4.73179 23.9345 4
    endloop
  endfacet
  facet normal 0 1.22465e-16 1
    outer loop
      vertex 3.4423 22.5614 4
      vertex 0 13 4
      vertex 4.06547 23.2682 4
    endloop
  endfacet
  facet normal 0 1.22465e-16 1
    outer loop
      vertex 2.86475 21.8168 4
      vertex 0 13 4
      vertex 3.4423 22.5614 4
    endloop
  endfacet
  facet normal 0 1.22465e-16 1
    outer loop
      vertex 2.33508 21.0374 4
      vertex 0 13 4
      vertex 2.86475 21.8168 4
    endloop
  endfacet
  facet normal 0 1.22465e-16 1
    outer loop
      vertex 1.8554 20.2263 4
      vertex 0 13 4
      vertex 2.33508 21.0374 4
    endloop
  endfacet
  facet normal 0 1.22465e-16 1
    outer loop
      vertex 1.42759 19.3867 4
      vertex 0 13 4
      vertex 1.8554 20.2263 4
    endloop
  endfacet
  facet normal 0 1.22465e-16 1
    outer loop
      vertex 1.05335 18.5219 4
      vertex 0 13 4
      vertex 1.42759 19.3867 4
    endloop
  endfacet
  facet normal 0 1.22465e-16 1
    outer loop
      vertex 0.734152 17.6353 4
      vertex 0 13 4
      vertex 1.05335 18.5219 4
    endloop
  endfacet
  facet normal 0 1.22465e-16 1
    outer loop
      vertex 0.471253 16.7303 4
      vertex 0 13 4
      vertex 0.734152 17.6353 4
    endloop
  endfacet
  facet normal 0 1.22465e-16 1
    outer loop
      vertex 0.265691 15.8107 4
      vertex 0 13 4
      vertex 0.471253 16.7303 4
    endloop
  endfacet
  facet normal 0 1.22465e-16 1
    outer loop
      vertex 0.118279 14.88 4
      vertex 0 13 4
      vertex 0.265691 15.8107 4
    endloop
  endfacet
  facet normal 0 1.22465e-16 1
    outer loop
      vertex 0.029599 13.9419 4
      vertex 0 13 4
      vertex 0.118279 14.88 4
    endloop
  endfacet
  facet normal 0.920733 -0.0289351 -0.389119
    outer loop
      vertex 28.3095 13 1.83697e-15
      vertex 30 13 4
      vertex 29.9704 12.0581 4
    endloop
  endfacet
  facet normal 0.920733 -0.0289349 -0.389119
    outer loop
      vertex 28.2833 12.1643 1.93932e-15
      vertex 28.3095 13 1.83697e-15
      vertex 29.9704 12.0581 4
    endloop
  endfacet
  facet normal 0.917099 -0.086691 -0.389119
    outer loop
      vertex 28.2833 12.1643 1.93932e-15
      vertex 29.9704 12.0581 4
      vertex 29.8817 11.12 4
    endloop
  endfacet
  facet normal -0.920733 -0.0289351 -0.389119
    outer loop
      vertex 0 13 4
      vertex 1.71674 12.1643 1.93932e-15
      vertex 0.029599 12.0581 4
    endloop
  endfacet
  facet normal -0.920733 -0.0289349 -0.389119
    outer loop
      vertex 0 13 4
      vertex 1.69047 13 1.83697e-15
      vertex 1.71674 12.1643 1.93932e-15
    endloop
  endfacet
  facet normal -0.920733 0.0289351 -0.389119
    outer loop
      vertex 0 13 4
      vertex 0.029599 13.9419 4
      vertex 1.69047 13 1.83697e-15
    endloop
  endfacet
  facet normal -0.920733 0.0289349 -0.389119
    outer loop
      vertex 0.029599 13.9419 4
      vertex 1.71674 13.8357 1.73462e-15
      vertex 1.69047 13 1.83697e-15
    endloop
  endfacet
  facet normal -0.917099 0.086691 -0.389119
    outer loop
      vertex 0.029599 13.9419 4
      vertex 0.118279 14.88 4
      vertex 1.71674 13.8357 1.73462e-15
    endloop
  endfacet
  facet normal -0.917099 0.0866922 -0.389119
    outer loop
      vertex 0.118279 14.88 4
      vertex 1.79542 14.6681 1.63268e-15
      vertex 1.71674 13.8357 1.73462e-15
    endloop
  endfacet
  facet normal -0.909846 0.144106 -0.389119
    outer loop
      vertex 0.118279 14.88 4
      vertex 0.265691 15.8107 4
      vertex 1.79542 14.6681 1.63268e-15
    endloop
  endfacet
  facet normal -0.909846 0.144105 -0.389119
    outer loop
      vertex 0.265691 15.8107 4
      vertex 1.92622 15.494 1.53155e-15
      vertex 1.79542 14.6681 1.63268e-15
    endloop
  endfacet
  facet normal -0.899002 0.200952 -0.389119
    outer loop
      vertex 0.265691 15.8107 4
      vertex 0.471253 16.7303 4
      vertex 1.92622 15.494 1.53155e-15
    endloop
  endfacet
  facet normal -0.899003 0.200951 -0.389118
    outer loop
      vertex 0.471253 16.7303 4
      vertex 2.10862 16.3099 1.43162e-15
      vertex 1.92622 15.494 1.53155e-15
    endloop
  endfacet
  facet normal -0.884611 0.257002 -0.389118
    outer loop
      vertex 0.471253 16.7303 4
      vertex 0.734152 17.6353 4
      vertex 2.10862 16.3099 1.43162e-15
    endloop
  endfacet
  facet normal -0.88461 0.257004 -0.389119
    outer loop
      vertex 0.734152 17.6353 4
      vertex 2.34189 17.1129 1.33329e-15
      vertex 2.10862 16.3099 1.43162e-15
    endloop
  endfacet
  facet normal -0.866727 0.312042 -0.389119
    outer loop
      vertex 0.734152 17.6353 4
      vertex 1.05335 18.5219 4
      vertex 2.34189 17.1129 1.33329e-15
    endloop
  endfacet
  facet normal -0.866728 0.312041 -0.389119
    outer loop
      vertex 1.05335 18.5219 4
      vertex 2.62512 17.8996 1.23695e-15
      vertex 2.34189 17.1129 1.33329e-15
    endloop
  endfacet
  facet normal -0.845424 0.365847 -0.389119
    outer loop
      vertex 1.05335 18.5219 4
      vertex 1.42759 19.3867 4
      vertex 2.62512 17.8996 1.23695e-15
    endloop
  endfacet
  facet normal -0.845424 0.365848 -0.389119
    outer loop
      vertex 1.42759 19.3867 4
      vertex 2.95718 18.6669 1.14297e-15
      vertex 2.62512 17.8996 1.23695e-15
    endloop
  endfacet
  facet normal -0.820784 0.418211 -0.389119
    outer loop
      vertex 1.42759 19.3867 4
      vertex 1.8554 20.2263 4
      vertex 2.95718 18.6669 1.14297e-15
    endloop
  endfacet
  facet normal -0.820784 0.418211 -0.389119
    outer loop
      vertex 1.8554 20.2263 4
      vertex 3.33677 19.4119 1.05174e-15
      vertex 2.95718 18.6669 1.14297e-15
    endloop
  endfacet
  facet normal -0.792905 0.468922 -0.389119
    outer loop
      vertex 1.8554 20.2263 4
      vertex 2.33508 21.0374 4
      vertex 3.33677 19.4119 1.05174e-15
    endloop
  endfacet
  facet normal -0.792905 0.468923 -0.389119
    outer loop
      vertex 2.33508 21.0374 4
      vertex 3.76239 20.1316 9.63601e-16
      vertex 3.33677 19.4119 1.05174e-15
    endloop
  endfacet
  facet normal -0.761896 0.517784 -0.389119
    outer loop
      vertex 2.33508 21.0374 4
      vertex 2.86475 21.8168 4
      vertex 3.76239 20.1316 9.63601e-16
    endloop
  endfacet
  facet normal -0.761896 0.517784 -0.389119
    outer loop
      vertex 2.86475 21.8168 4
      vertex 4.23237 20.8231 8.78911e-16
      vertex 3.76239 20.1316 9.63601e-16
    endloop
  endfacet
  facet normal -0.727881 0.564602 -0.389119
    outer loop
      vertex 2.86475 21.8168 4
      vertex 3.4423 22.5614 4
      vertex 4.23237 20.8231 8.78911e-16
    endloop
  endfacet
  facet normal -0.727881 0.564602 -0.389119
    outer loop
      vertex 3.4423 22.5614 4
      vertex 4.74483 21.4838 7.98003e-16
      vertex 4.23237 20.8231 8.78911e-16
    endloop
  endfacet
  facet normal -0.690993 0.609193 -0.389119
    outer loop
      vertex 3.4423 22.5614 4
      vertex 4.06547 23.2682 4
      vertex 4.74483 21.4838 7.98003e-16
    endloop
  endfacet
  facet normal -0.690993 0.609192 -0.389119
    outer loop
      vertex 4.06547 23.2682 4
      vertex 5.29777 22.111 7.21195e-16
      vertex 4.74483 21.4838 7.98003e-16
    endloop
  endfacet
  facet normal -0.651378 0.651378 -0.389119
    outer loop
      vertex 4.73179 23.9345 4
      vertex 5.889 22.7022 6.4879e-16
      vertex 4.06547 23.2682 4
    endloop
  endfacet
  facet normal -0.651378 0.651378 -0.389119
    outer loop
      vertex 4.06547 23.2682 4
      vertex 5.889 22.7022 6.4879e-16
      vertex 5.29777 22.111 7.21195e-16
    endloop
  endfacet
  facet normal -0.609193 0.690993 -0.389119
    outer loop
      vertex 4.73179 23.9345 4
      vertex 5.43864 24.5577 4
      vertex 5.889 22.7022 6.4879e-16
    endloop
  endfacet
  facet normal -0.609192 0.690993 -0.389119
    outer loop
      vertex 5.43864 24.5577 4
      vertex 6.51619 23.2552 5.81074e-16
      vertex 5.889 22.7022 6.4879e-16
    endloop
  endfacet
  facet normal -0.564602 0.727881 -0.389119
    outer loop
      vertex 5.43864 24.5577 4
      vertex 6.18322 25.1353 4
      vertex 6.51619 23.2552 5.81074e-16
    endloop
  endfacet
  facet normal -0.564602 0.727881 -0.389119
    outer loop
      vertex 6.18322 25.1353 4
      vertex 7.17686 23.7676 5.18315e-16
      vertex 6.51619 23.2552 5.81074e-16
    endloop
  endfacet
  facet normal -0.517784 0.761896 -0.389119
    outer loop
      vertex 6.18322 25.1353 4
      vertex 6.9626 25.6649 4
      vertex 7.17686 23.7676 5.18315e-16
    endloop
  endfacet
  facet normal -0.517784 0.761896 -0.389119
    outer loop
      vertex 6.9626 25.6649 4
      vertex 7.8684 24.2376 4.6076e-16
      vertex 7.17686 23.7676 5.18315e-16
    endloop
  endfacet
  facet normal -0.468922 0.792905 -0.389119
    outer loop
      vertex 6.9626 25.6649 4
      vertex 7.7737 26.1446 4
      vertex 7.8684 24.2376 4.6076e-16
    endloop
  endfacet
  facet normal -0.468923 0.792905 -0.389119
    outer loop
      vertex 7.7737 26.1446 4
      vertex 8.58809 24.6632 4.08637e-16
      vertex 7.8684 24.2376 4.6076e-16
    endloop
  endfacet
  facet normal -0.418211 0.820784 -0.389119
    outer loop
      vertex 7.7737 26.1446 4
      vertex 8.61331 26.5724 4
      vertex 8.58809 24.6632 4.08637e-16
    endloop
  endfacet
  facet normal -0.418211 0.820784 -0.389119
    outer loop
      vertex 8.58809 24.6632 4.08637e-16
      vertex 8.61331 26.5724 4
      vertex 9.33308 25.0428 3.6215e-16
    endloop
  endfacet
  facet normal -0.365847 0.845424 -0.389119
    outer loop
      vertex 8.61331 26.5724 4
      vertex 9.47813 26.9466 4
      vertex 9.33308 25.0428 3.6215e-16
    endloop
  endfacet
  facet normal -0.365848 0.845424 -0.389119
    outer loop
      vertex 9.33308 25.0428 3.6215e-16
      vertex 9.47813 26.9466 4
      vertex 10.1004 25.3749 3.21484e-16
    endloop
  endfacet
  facet normal -0.312042 0.866728 -0.389119
    outer loop
      vertex 9.47813 26.9466 4
      vertex 10.3647 27.2658 4
      vertex 10.1004 25.3749 3.21484e-16
    endloop
  endfacet
  facet normal -0.312041 0.866728 -0.389119
    outer loop
      vertex 10.1004 25.3749 3.21484e-16
      vertex 10.3647 27.2658 4
      vertex 10.8871 25.6581 2.86799e-16
    endloop
  endfacet
  facet normal -0.257002 0.884611 -0.389119
    outer loop
      vertex 10.3647 27.2658 4
      vertex 11.2697 27.5287 4
      vertex 10.8871 25.6581 2.86799e-16
    endloop
  endfacet
  facet normal -0.257004 0.884611 -0.389118
    outer loop
      vertex 10.8871 25.6581 2.86799e-16
      vertex 11.2697 27.5287 4
      vertex 11.6901 25.8914 2.58231e-16
    endloop
  endfacet
  facet normal -0.200952 0.899002 -0.389118
    outer loop
      vertex 11.2697 27.5287 4
      vertex 12.1893 27.7343 4
      vertex 11.6901 25.8914 2.58231e-16
    endloop
  endfacet
  facet normal -0.200951 0.899002 -0.389119
    outer loop
      vertex 11.6901 25.8914 2.58231e-16
      vertex 12.1893 27.7343 4
      vertex 12.506 26.0738 2.35894e-16
    endloop
  endfacet
  facet normal -0.144106 0.909846 -0.389119
    outer loop
      vertex 12.1893 27.7343 4
      vertex 13.12 27.8817 4
      vertex 12.506 26.0738 2.35894e-16
    endloop
  endfacet
  facet normal -0.144105 0.909846 -0.389119
    outer loop
      vertex 12.506 26.0738 2.35894e-16
      vertex 13.12 27.8817 4
      vertex 13.3319 26.2046 2.19876e-16
    endloop
  endfacet
  facet normal -0.086691 0.917099 -0.389119
    outer loop
      vertex 13.12 27.8817 4
      vertex 14.0581 27.9704 4
      vertex 13.3319 26.2046 2.19876e-16
    endloop
  endfacet
  facet normal -0.0866922 0.917099 -0.389119
    outer loop
      vertex 13.3319 26.2046 2.19876e-16
      vertex 14.0581 27.9704 4
      vertex 14.1643 26.2833 2.1024e-16
    endloop
  endfacet
  facet normal -0.0289351 0.920733 -0.389119
    outer loop
      vertex 14.0581 27.9704 4
      vertex 15 28 4
      vertex 14.1643 26.2833 2.1024e-16
    endloop
  endfacet
  facet normal -0.0289349 0.920733 -0.389119
    outer loop
      vertex 14.1643 26.2833 2.1024e-16
      vertex 15 28 4
      vertex 15 26.3095 2.07023e-16
    endloop
  endfacet
  facet normal 0.0289351 0.920733 -0.389119
    outer loop
      vertex 15 28 4
      vertex 15.9419 27.9704 4
      vertex 15 26.3095 2.07023e-16
    endloop
  endfacet
  facet normal 0.0289349 0.920733 -0.389119
    outer loop
      vertex 15 26.3095 2.07023e-16
      vertex 15.9419 27.9704 4
      vertex 15.8357 26.2833 2.1024e-16
    endloop
  endfacet
  facet normal 0.086691 0.917099 -0.389119
    outer loop
      vertex 15.8357 26.2833 2.1024e-16
      vertex 15.9419 27.9704 4
      vertex 16.88 27.8817 4
    endloop
  endfacet
  facet normal 0.0866922 0.917099 -0.389119
    outer loop
      vertex 15.8357 26.2833 2.1024e-16
      vertex 16.88 27.8817 4
      vertex 16.6681 26.2046 2.19876e-16
    endloop
  endfacet
  facet normal 0.144106 0.909846 -0.389119
    outer loop
      vertex 16.6681 26.2046 2.19876e-16
      vertex 16.88 27.8817 4
      vertex 17.8107 27.7343 4
    endloop
  endfacet
  facet normal 0.144105 0.909846 -0.389119
    outer loop
      vertex 16.6681 26.2046 2.19876e-16
      vertex 17.8107 27.7343 4
      vertex 17.494 26.0738 2.35894e-16
    endloop
  endfacet
  facet normal 0.200952 0.899002 -0.389119
    outer loop
      vertex 17.494 26.0738 2.35894e-16
      vertex 17.8107 27.7343 4
      vertex 18.7303 27.5287 4
    endloop
  endfacet
  facet normal 0.200951 0.899003 -0.389118
    outer loop
      vertex 17.494 26.0738 2.35894e-16
      vertex 18.7303 27.5287 4
      vertex 18.3099 25.8914 2.58231e-16
    endloop
  endfacet
  facet normal 0.257002 0.884611 -0.389118
    outer loop
      vertex 18.3099 25.8914 2.58231e-16
      vertex 18.7303 27.5287 4
      vertex 19.6353 27.2658 4
    endloop
  endfacet
  facet normal 0.257004 0.88461 -0.389119
    outer loop
      vertex 18.3099 25.8914 2.58231e-16
      vertex 19.6353 27.2658 4
      vertex 19.1129 25.6581 2.86799e-16
    endloop
  endfacet
  facet normal 0.312042 0.866727 -0.389119
    outer loop
      vertex 19.1129 25.6581 2.86799e-16
      vertex 19.6353 27.2658 4
      vertex 20.5219 26.9466 4
    endloop
  endfacet
  facet normal 0.312041 0.866728 -0.389119
    outer loop
      vertex 19.1129 25.6581 2.86799e-16
      vertex 20.5219 26.9466 4
      vertex 19.8996 25.3749 3.21484e-16
    endloop
  endfacet
  facet normal 0.365847 0.845424 -0.389119
    outer loop
      vertex 19.8996 25.3749 3.21484e-16
      vertex 20.5219 26.9466 4
      vertex 21.3867 26.5724 4
    endloop
  endfacet
  facet normal 0.365848 0.845424 -0.389119
    outer loop
      vertex 19.8996 25.3749 3.21484e-16
      vertex 21.3867 26.5724 4
      vertex 20.6669 25.0428 3.6215e-16
    endloop
  endfacet
  facet normal 0.418211 0.820784 -0.389119
    outer loop
      vertex 20.6669 25.0428 3.6215e-16
      vertex 21.3867 26.5724 4
      vertex 22.2263 26.1446 4
    endloop
  endfacet
  facet normal 0.418211 0.820784 -0.389119
    outer loop
      vertex 20.6669 25.0428 3.6215e-16
      vertex 22.2263 26.1446 4
      vertex 21.4119 24.6632 4.08637e-16
    endloop
  endfacet
  facet normal 0.468922 0.792905 -0.389119
    outer loop
      vertex 21.4119 24.6632 4.08637e-16
      vertex 22.2263 26.1446 4
      vertex 23.0374 25.6649 4
    endloop
  endfacet
  facet normal 0.468923 0.792905 -0.389119
    outer loop
      vertex 21.4119 24.6632 4.08637e-16
      vertex 23.0374 25.6649 4
      vertex 22.1316 24.2376 4.6076e-16
    endloop
  endfacet
  facet normal 0.517784 0.761896 -0.389119
    outer loop
      vertex 22.1316 24.2376 4.6076e-16
      vertex 23.0374 25.6649 4
      vertex 23.8168 25.1353 4
    endloop
  endfacet
  facet normal 0.517784 0.761896 -0.389119
    outer loop
      vertex 22.1316 24.2376 4.6076e-16
      vertex 23.8168 25.1353 4
      vertex 22.8231 23.7676 5.18315e-16
    endloop
  endfacet
  facet normal 0.564602 0.727881 -0.389119
    outer loop
      vertex 22.8231 23.7676 5.18315e-16
      vertex 23.8168 25.1353 4
      vertex 24.5614 24.5577 4
    endloop
  endfacet
  facet normal 0.564602 0.727881 -0.389119
    outer loop
      vertex 22.8231 23.7676 5.18315e-16
      vertex 24.5614 24.5577 4
      vertex 23.4838 23.2552 5.81074e-16
    endloop
  endfacet
  facet normal 0.609193 0.690993 -0.389119
    outer loop
      vertex 23.4838 23.2552 5.81074e-16
      vertex 24.5614 24.5577 4
      vertex 25.2682 23.9345 4
    endloop
  endfacet
  facet normal 0.609192 0.690993 -0.389119
    outer loop
      vertex 23.4838 23.2552 5.81074e-16
      vertex 25.2682 23.9345 4
      vertex 24.111 22.7022 6.4879e-16
    endloop
  endfacet
  facet normal 0.651378 0.651378 -0.389119
    outer loop
      vertex 24.111 22.7022 6.4879e-16
      vertex 25.2682 23.9345 4
      vertex 25.9345 23.2682 4
    endloop
  endfacet
  facet normal 0.651378 0.651378 -0.389119
    outer loop
      vertex 24.7022 22.111 7.21195e-16
      vertex 24.111 22.7022 6.4879e-16
      vertex 25.9345 23.2682 4
    endloop
  endfacet
  facet normal 0.690993 0.609193 -0.389119
    outer loop
      vertex 24.7022 22.111 7.21195e-16
      vertex 25.9345 23.2682 4
      vertex 26.5577 22.5614 4
    endloop
  endfacet
  facet normal 0.690993 0.609192 -0.389119
    outer loop
      vertex 24.7022 22.111 7.21195e-16
      vertex 26.5577 22.5614 4
      vertex 25.2552 21.4838 7.98003e-16
    endloop
  endfacet
  facet normal 0.727881 0.564602 -0.389119
    outer loop
      vertex 25.2552 21.4838 7.98003e-16
      vertex 26.5577 22.5614 4
      vertex 27.1353 21.8168 4
    endloop
  endfacet
  facet normal 0.727881 0.564602 -0.389119
    outer loop
      vertex 25.2552 21.4838 7.98003e-16
      vertex 27.1353 21.8168 4
      vertex 25.7676 20.8231 8.78911e-16
    endloop
  endfacet
  facet normal 0.761896 0.517784 -0.389119
    outer loop
      vertex 25.7676 20.8231 8.78911e-16
      vertex 27.1353 21.8168 4
      vertex 27.6649 21.0374 4
    endloop
  endfacet
  facet normal 0.761896 0.517784 -0.389119
    outer loop
      vertex 25.7676 20.8231 8.78911e-16
      vertex 27.6649 21.0374 4
      vertex 26.2376 20.1316 9.63601e-16
    endloop
  endfacet
  facet normal 0.792905 0.468922 -0.389119
    outer loop
      vertex 26.2376 20.1316 9.63601e-16
      vertex 27.6649 21.0374 4
      vertex 28.1446 20.2263 4
    endloop
  endfacet
  facet normal 0.792905 0.468923 -0.389119
    outer loop
      vertex 26.2376 20.1316 9.63601e-16
      vertex 28.1446 20.2263 4
      vertex 26.6632 19.4119 1.05174e-15
    endloop
  endfacet
  facet normal 0.820784 0.418211 -0.389119
    outer loop
      vertex 26.6632 19.4119 1.05174e-15
      vertex 28.1446 20.2263 4
      vertex 28.5724 19.3867 4
    endloop
  endfacet
  facet normal 0.820784 0.418211 -0.389119
    outer loop
      vertex 26.6632 19.4119 1.05174e-15
      vertex 28.5724 19.3867 4
      vertex 27.0428 18.6669 1.14297e-15
    endloop
  endfacet
  facet normal 0.845424 0.365847 -0.389119
    outer loop
      vertex 27.0428 18.6669 1.14297e-15
      vertex 28.5724 19.3867 4
      vertex 28.9466 18.5219 4
    endloop
  endfacet
  facet normal 0.845424 0.365848 -0.389119
    outer loop
      vertex 27.0428 18.6669 1.14297e-15
      vertex 28.9466 18.5219 4
      vertex 27.3749 17.8996 1.23695e-15
    endloop
  endfacet
  facet normal 0.866728 0.312042 -0.389119
    outer loop
      vertex 27.3749 17.8996 1.23695e-15
      vertex 28.9466 18.5219 4
      vertex 29.2658 17.6353 4
    endloop
  endfacet
  facet normal 0.866728 0.312041 -0.389119
    outer loop
      vertex 27.3749 17.8996 1.23695e-15
      vertex 29.2658 17.6353 4
      vertex 27.6581 17.1129 1.33329e-15
    endloop
  endfacet
  facet normal 0.884611 0.257002 -0.389119
    outer loop
      vertex 27.6581 17.1129 1.33329e-15
      vertex 29.2658 17.6353 4
      vertex 29.5287 16.7303 4
    endloop
  endfacet
  facet normal 0.884611 0.257004 -0.389118
    outer loop
      vertex 27.6581 17.1129 1.33329e-15
      vertex 29.5287 16.7303 4
      vertex 27.8914 16.3099 1.43162e-15
    endloop
  endfacet
  facet normal 0.899002 0.200952 -0.389118
    outer loop
      vertex 27.8914 16.3099 1.43162e-15
      vertex 29.5287 16.7303 4
      vertex 29.7343 15.8107 4
    endloop
  endfacet
  facet normal 0.899002 0.200951 -0.389119
    outer loop
      vertex 27.8914 16.3099 1.43162e-15
      vertex 29.7343 15.8107 4
      vertex 28.0738 15.494 1.53155e-15
    endloop
  endfacet
  facet normal 0.909846 0.144106 -0.389119
    outer loop
      vertex 28.0738 15.494 1.53155e-15
      vertex 29.7343 15.8107 4
      vertex 29.8817 14.88 4
    endloop
  endfacet
  facet normal 0.909846 0.144105 -0.389119
    outer loop
      vertex 28.0738 15.494 1.53155e-15
      vertex 29.8817 14.88 4
      vertex 28.2046 14.6681 1.63268e-15
    endloop
  endfacet
  facet normal 0.917099 0.086691 -0.389119
    outer loop
      vertex 28.2046 14.6681 1.63268e-15
      vertex 29.8817 14.88 4
      vertex 29.9704 13.9419 4
    endloop
  endfacet
  facet normal 0.917099 0.0866922 -0.389119
    outer loop
      vertex 28.2046 14.6681 1.63268e-15
      vertex 29.9704 13.9419 4
      vertex 28.2833 13.8357 1.73462e-15
    endloop
  endfacet
  facet normal 0.920733 0.0289351 -0.389119
    outer loop
      vertex 28.2833 13.8357 1.73462e-15
      vertex 29.9704 13.9419 4
      vertex 30 13 4
    endloop
  endfacet
  facet normal 0.920733 0.0289349 -0.389119
    outer loop
      vertex 28.2833 13.8357 1.73462e-15
      vertex 30 13 4
      vertex 28.3095 13 1.83697e-15
    endloop
  endfacet
  facet normal 0.917099 -0.0866922 -0.389119
    outer loop
      vertex 28.2046 11.3319 2.04126e-15
      vertex 28.2833 12.1643 1.93932e-15
      vertex 29.8817 11.12 4
    endloop
  endfacet
  facet normal 0.909846 -0.144106 -0.389119
    outer loop
      vertex 28.2046 11.3319 2.04126e-15
      vertex 29.8817 11.12 4
      vertex 29.7343 10.1893 4
    endloop
  endfacet
  facet normal 0.909846 -0.144105 -0.389119
    outer loop
      vertex 28.0738 10.506 2.14239e-15
      vertex 28.2046 11.3319 2.04126e-15
      vertex 29.7343 10.1893 4
    endloop
  endfacet
  facet normal 0.899002 -0.200952 -0.389119
    outer loop
      vertex 28.0738 10.506 2.14239e-15
      vertex 29.7343 10.1893 4
      vertex 29.5287 9.26965 4
    endloop
  endfacet
  facet normal 0.899003 -0.200951 -0.389118
    outer loop
      vertex 27.8914 9.69005 2.24232e-15
      vertex 28.0738 10.506 2.14239e-15
      vertex 29.5287 9.26965 4
    endloop
  endfacet
  facet normal 0.884611 -0.257002 -0.389118
    outer loop
      vertex 27.8914 9.69005 2.24232e-15
      vertex 29.5287 9.26965 4
      vertex 29.2658 8.36474 4
    endloop
  endfacet
  facet normal 0.88461 -0.257004 -0.389119
    outer loop
      vertex 27.6581 8.88713 2.34065e-15
      vertex 27.8914 9.69005 2.24232e-15
      vertex 29.2658 8.36474 4
    endloop
  endfacet
  facet normal 0.866727 -0.312042 -0.389119
    outer loop
      vertex 27.6581 8.88713 2.34065e-15
      vertex 29.2658 8.36474 4
      vertex 28.9466 7.47813 4
    endloop
  endfacet
  facet normal 0.866728 -0.312041 -0.389119
    outer loop
      vertex 27.3749 8.10044 2.43699e-15
      vertex 27.6581 8.88713 2.34065e-15
      vertex 28.9466 7.47813 4
    endloop
  endfacet
  facet normal 0.845424 -0.365847 -0.389119
    outer loop
      vertex 27.3749 8.10044 2.43699e-15
      vertex 28.9466 7.47813 4
      vertex 28.5724 6.61331 4
    endloop
  endfacet
  facet normal 0.845424 -0.365848 -0.389119
    outer loop
      vertex 27.0428 7.33308 2.53097e-15
      vertex 27.3749 8.10044 2.43699e-15
      vertex 28.5724 6.61331 4
    endloop
  endfacet
  facet normal 0.820784 -0.418211 -0.389119
    outer loop
      vertex 27.0428 7.33308 2.53097e-15
      vertex 28.5724 6.61331 4
      vertex 28.1446 5.7737 4
    endloop
  endfacet
  facet normal 0.820784 -0.418211 -0.389119
    outer loop
      vertex 26.6632 6.58809 2.6222e-15
      vertex 27.0428 7.33308 2.53097e-15
      vertex 28.1446 5.7737 4
    endloop
  endfacet
  facet normal 0.792905 -0.468922 -0.389119
    outer loop
      vertex 26.6632 6.58809 2.6222e-15
      vertex 28.1446 5.7737 4
      vertex 27.6649 4.9626 4
    endloop
  endfacet
  facet normal 0.792905 -0.468923 -0.389119
    outer loop
      vertex 26.2376 5.8684 2.71034e-15
      vertex 26.6632 6.58809 2.6222e-15
      vertex 27.6649 4.9626 4
    endloop
  endfacet
  facet normal 0.761896 -0.517784 -0.389119
    outer loop
      vertex 26.2376 5.8684 2.71034e-15
      vertex 27.6649 4.9626 4
      vertex 27.1353 4.18322 4
    endloop
  endfacet
  facet normal 0.761896 -0.517784 -0.389119
    outer loop
      vertex 25.7676 5.17686 2.79503e-15
      vertex 26.2376 5.8684 2.71034e-15
      vertex 27.1353 4.18322 4
    endloop
  endfacet
  facet normal 0.727881 -0.564602 -0.389119
    outer loop
      vertex 25.7676 5.17686 2.79503e-15
      vertex 27.1353 4.18322 4
      vertex 26.5577 3.43864 4
    endloop
  endfacet
  facet normal 0.727881 -0.564602 -0.389119
    outer loop
      vertex 25.2552 4.51619 2.87594e-15
      vertex 25.7676 5.17686 2.79503e-15
      vertex 26.5577 3.43864 4
    endloop
  endfacet
  facet normal 0.690993 -0.609193 -0.389119
    outer loop
      vertex 25.2552 4.51619 2.87594e-15
      vertex 26.5577 3.43864 4
      vertex 25.9345 2.73179 4
    endloop
  endfacet
  facet normal 0.690993 -0.609192 -0.389119
    outer loop
      vertex 24.7022 3.889 2.95275e-15
      vertex 25.2552 4.51619 2.87594e-15
      vertex 25.9345 2.73179 4
    endloop
  endfacet
  facet normal 0.651378 -0.651378 -0.389119
    outer loop
      vertex 24.111 3.29777 3.02515e-15
      vertex 24.7022 3.889 2.95275e-15
      vertex 25.9345 2.73179 4
    endloop
  endfacet
  facet normal 0.651378 -0.651378 -0.389119
    outer loop
      vertex 25.2682 2.06547 4
      vertex 24.111 3.29777 3.02515e-15
      vertex 25.9345 2.73179 4
    endloop
  endfacet
  facet normal 0.609193 -0.690993 -0.389119
    outer loop
      vertex 24.111 3.29777 3.02515e-15
      vertex 25.2682 2.06547 4
      vertex 24.5614 1.4423 4
    endloop
  endfacet
  facet normal 0.609192 -0.690993 -0.389119
    outer loop
      vertex 23.4838 2.74483 3.09287e-15
      vertex 24.111 3.29777 3.02515e-15
      vertex 24.5614 1.4423 4
    endloop
  endfacet
  facet normal 0.564602 -0.727881 -0.389119
    outer loop
      vertex 23.4838 2.74483 3.09287e-15
      vertex 24.5614 1.4423 4
      vertex 23.8168 0.864745 4
    endloop
  endfacet
  facet normal 0.564602 -0.727881 -0.389119
    outer loop
      vertex 22.8231 2.23237 3.15562e-15
      vertex 23.4838 2.74483 3.09287e-15
      vertex 23.8168 0.864745 4
    endloop
  endfacet
  facet normal 0.517784 -0.761896 -0.389119
    outer loop
      vertex 22.8231 2.23237 3.15562e-15
      vertex 23.8168 0.864745 4
      vertex 23.0374 0.335081 4
    endloop
  endfacet
  facet normal 0.517784 -0.761896 -0.389119
    outer loop
      vertex 22.1316 1.76239 3.21318e-15
      vertex 22.8231 2.23237 3.15562e-15
      vertex 23.0374 0.335081 4
    endloop
  endfacet
  facet normal 0.468922 -0.792905 -0.389119
    outer loop
      vertex 22.1316 1.76239 3.21318e-15
      vertex 23.0374 0.335081 4
      vertex 22.2263 -0.1446 4
    endloop
  endfacet
  facet normal 0.468923 -0.792905 -0.389119
    outer loop
      vertex 21.4119 1.33677 3.2653e-15
      vertex 22.1316 1.76239 3.21318e-15
      vertex 22.2263 -0.1446 4
    endloop
  endfacet
  facet normal 0.418211 -0.820784 -0.389119
    outer loop
      vertex 21.3867 -0.572406 4
      vertex 21.4119 1.33677 3.2653e-15
      vertex 22.2263 -0.1446 4
    endloop
  endfacet
  facet normal 0.418211 -0.820784 -0.389119
    outer loop
      vertex 20.6669 0.95718 3.31179e-15
      vertex 21.4119 1.33677 3.2653e-15
      vertex 21.3867 -0.572406 4
    endloop
  endfacet
  facet normal 0.365847 -0.845424 -0.389119
    outer loop
      vertex 20.5219 -0.946647 4
      vertex 20.6669 0.95718 3.31179e-15
      vertex 21.3867 -0.572406 4
    endloop
  endfacet
  facet normal 0.365848 -0.845424 -0.389119
    outer loop
      vertex 19.8996 0.625115 3.35246e-15
      vertex 20.6669 0.95718 3.31179e-15
      vertex 20.5219 -0.946647 4
    endloop
  endfacet
  facet normal 0.312042 -0.866728 -0.389119
    outer loop
      vertex 19.6353 -1.26585 4
      vertex 19.8996 0.625115 3.35246e-15
      vertex 20.5219 -0.946647 4
    endloop
  endfacet
  facet normal 0.312041 -0.866728 -0.389119
    outer loop
      vertex 19.1129 0.341888 3.38714e-15
      vertex 19.8996 0.625115 3.35246e-15
      vertex 19.6353 -1.26585 4
    endloop
  endfacet
  facet normal 0.257002 -0.884611 -0.389119
    outer loop
      vertex 18.7303 -1.52875 4
      vertex 19.1129 0.341888 3.38714e-15
      vertex 19.6353 -1.26585 4
    endloop
  endfacet
  facet normal 0.257004 -0.884611 -0.389118
    outer loop
      vertex 18.3099 0.108616 3.41571e-15
      vertex 19.1129 0.341888 3.38714e-15
      vertex 18.7303 -1.52875 4
    endloop
  endfacet
  facet normal 0.200952 -0.899002 -0.389118
    outer loop
      vertex 17.8107 -1.73431 4
      vertex 18.3099 0.108616 3.41571e-15
      vertex 18.7303 -1.52875 4
    endloop
  endfacet
  facet normal 0.200951 -0.899002 -0.389119
    outer loop
      vertex 17.494 -0.073779 3.43805e-15
      vertex 18.3099 0.108616 3.41571e-15
      vertex 17.8107 -1.73431 4
    endloop
  endfacet
  facet normal 0.144106 -0.909846 -0.389119
    outer loop
      vertex 16.88 -1.88172 4
      vertex 17.494 -0.073779 3.43805e-15
      vertex 17.8107 -1.73431 4
    endloop
  endfacet
  facet normal 0.144105 -0.909846 -0.389119
    outer loop
      vertex 16.6681 -0.204577 3.45406e-15
      vertex 17.494 -0.073779 3.43805e-15
      vertex 16.88 -1.88172 4
    endloop
  endfacet
  facet normal 0.086691 -0.917099 -0.389119
    outer loop
      vertex 15.9419 -1.9704 4
      vertex 16.6681 -0.204577 3.45406e-15
      vertex 16.88 -1.88172 4
    endloop
  endfacet
  facet normal 0.0866922 -0.917099 -0.389119
    outer loop
      vertex 15.8357 -0.283264 3.4637e-15
      vertex 16.6681 -0.204577 3.45406e-15
      vertex 15.9419 -1.9704 4
    endloop
  endfacet
  facet normal 0.0289351 -0.920733 -0.389119
    outer loop
      vertex 15 -2 4
      vertex 15.8357 -0.283264 3.4637e-15
      vertex 15.9419 -1.9704 4
    endloop
  endfacet
  facet normal 0.0289349 -0.920733 -0.389119
    outer loop
      vertex 15 -0.309527 3.46692e-15
      vertex 15.8357 -0.283264 3.4637e-15
      vertex 15 -2 4
    endloop
  endfacet
  facet normal -0.0289351 -0.920733 -0.389119
    outer loop
      vertex 14.0581 -1.9704 4
      vertex 15 -0.309527 3.46692e-15
      vertex 15 -2 4
    endloop
  endfacet
  facet normal -0.0289349 -0.920733 -0.389119
    outer loop
      vertex 14.0581 -1.9704 4
      vertex 14.1643 -0.283264 3.4637e-15
      vertex 15 -0.309527 3.46692e-15
    endloop
  endfacet
  facet normal -0.086691 -0.917099 -0.389119
    outer loop
      vertex 13.12 -1.88172 4
      vertex 14.1643 -0.283264 3.4637e-15
      vertex 14.0581 -1.9704 4
    endloop
  endfacet
  facet normal -0.0866922 -0.917099 -0.389119
    outer loop
      vertex 13.12 -1.88172 4
      vertex 13.3319 -0.204577 3.45406e-15
      vertex 14.1643 -0.283264 3.4637e-15
    endloop
  endfacet
  facet normal -0.144106 -0.909846 -0.389119
    outer loop
      vertex 12.1893 -1.73431 4
      vertex 13.3319 -0.204577 3.45406e-15
      vertex 13.12 -1.88172 4
    endloop
  endfacet
  facet normal -0.144105 -0.909846 -0.389119
    outer loop
      vertex 12.1893 -1.73431 4
      vertex 12.506 -0.073779 3.43805e-15
      vertex 13.3319 -0.204577 3.45406e-15
    endloop
  endfacet
  facet normal -0.200952 -0.899002 -0.389119
    outer loop
      vertex 11.2697 -1.52875 4
      vertex 12.506 -0.073779 3.43805e-15
      vertex 12.1893 -1.73431 4
    endloop
  endfacet
  facet normal -0.200951 -0.899003 -0.389118
    outer loop
      vertex 11.2697 -1.52875 4
      vertex 11.6901 0.108616 3.41571e-15
      vertex 12.506 -0.073779 3.43805e-15
    endloop
  endfacet
  facet normal -0.257002 -0.884611 -0.389118
    outer loop
      vertex 10.3647 -1.26585 4
      vertex 11.6901 0.108616 3.41571e-15
      vertex 11.2697 -1.52875 4
    endloop
  endfacet
  facet normal -0.257004 -0.88461 -0.389119
    outer loop
      vertex 10.3647 -1.26585 4
      vertex 10.8871 0.341888 3.38714e-15
      vertex 11.6901 0.108616 3.41571e-15
    endloop
  endfacet
  facet normal -0.312042 -0.866727 -0.389119
    outer loop
      vertex 9.47813 -0.946647 4
      vertex 10.8871 0.341888 3.38714e-15
      vertex 10.3647 -1.26585 4
    endloop
  endfacet
  facet normal -0.312041 -0.866728 -0.389119
    outer loop
      vertex 9.47813 -0.946647 4
      vertex 10.1004 0.625115 3.35246e-15
      vertex 10.8871 0.341888 3.38714e-15
    endloop
  endfacet
  facet normal -0.365847 -0.845424 -0.389119
    outer loop
      vertex 8.61331 -0.572406 4
      vertex 10.1004 0.625115 3.35246e-15
      vertex 9.47813 -0.946647 4
    endloop
  endfacet
  facet normal -0.365848 -0.845424 -0.389119
    outer loop
      vertex 8.61331 -0.572406 4
      vertex 9.33308 0.95718 3.31179e-15
      vertex 10.1004 0.625115 3.35246e-15
    endloop
  endfacet
  facet normal -0.418211 -0.820784 -0.389119
    outer loop
      vertex 7.7737 -0.1446 4
      vertex 9.33308 0.95718 3.31179e-15
      vertex 8.61331 -0.572406 4
    endloop
  endfacet
  facet normal -0.418211 -0.820784 -0.389119
    outer loop
      vertex 7.7737 -0.1446 4
      vertex 8.58809 1.33677 3.2653e-15
      vertex 9.33308 0.95718 3.31179e-15
    endloop
  endfacet
  facet normal -0.468922 -0.792905 -0.389119
    outer loop
      vertex 6.9626 0.335081 4
      vertex 8.58809 1.33677 3.2653e-15
      vertex 7.7737 -0.1446 4
    endloop
  endfacet
  facet normal -0.468923 -0.792905 -0.389119
    outer loop
      vertex 6.9626 0.335081 4
      vertex 7.8684 1.76239 3.21318e-15
      vertex 8.58809 1.33677 3.2653e-15
    endloop
  endfacet
  facet normal -0.517784 -0.761896 -0.389119
    outer loop
      vertex 6.18322 0.864745 4
      vertex 7.8684 1.76239 3.21318e-15
      vertex 6.9626 0.335081 4
    endloop
  endfacet
  facet normal -0.517784 -0.761896 -0.389119
    outer loop
      vertex 6.18322 0.864745 4
      vertex 7.17686 2.23237 3.15562e-15
      vertex 7.8684 1.76239 3.21318e-15
    endloop
  endfacet
  facet normal -0.564602 -0.727881 -0.389119
    outer loop
      vertex 5.43864 1.4423 4
      vertex 7.17686 2.23237 3.15562e-15
      vertex 6.18322 0.864745 4
    endloop
  endfacet
  facet normal -0.564602 -0.727881 -0.389119
    outer loop
      vertex 5.43864 1.4423 4
      vertex 6.51619 2.74483 3.09287e-15
      vertex 7.17686 2.23237 3.15562e-15
    endloop
  endfacet
  facet normal -0.609193 -0.690993 -0.389119
    outer loop
      vertex 4.73179 2.06547 4
      vertex 6.51619 2.74483 3.09287e-15
      vertex 5.43864 1.4423 4
    endloop
  endfacet
  facet normal -0.609192 -0.690993 -0.389119
    outer loop
      vertex 4.73179 2.06547 4
      vertex 5.889 3.29777 3.02515e-15
      vertex 6.51619 2.74483 3.09287e-15
    endloop
  endfacet
  facet normal -0.651378 -0.651378 -0.389119
    outer loop
      vertex 4.06547 2.73179 4
      vertex 5.29777 3.889 2.95275e-15
      vertex 5.889 3.29777 3.02515e-15
    endloop
  endfacet
  facet normal -0.651378 -0.651378 -0.389119
    outer loop
      vertex 4.73179 2.06547 4
      vertex 4.06547 2.73179 4
      vertex 5.889 3.29777 3.02515e-15
    endloop
  endfacet
  facet normal -0.690993 -0.609193 -0.389119
    outer loop
      vertex 3.4423 3.43864 4
      vertex 5.29777 3.889 2.95275e-15
      vertex 4.06547 2.73179 4
    endloop
  endfacet
  facet normal -0.690993 -0.609192 -0.389119
    outer loop
      vertex 3.4423 3.43864 4
      vertex 4.74483 4.51619 2.87594e-15
      vertex 5.29777 3.889 2.95275e-15
    endloop
  endfacet
  facet normal -0.727881 -0.564602 -0.389119
    outer loop
      vertex 2.86475 4.18322 4
      vertex 4.74483 4.51619 2.87594e-15
      vertex 3.4423 3.43864 4
    endloop
  endfacet
  facet normal -0.727881 -0.564602 -0.389119
    outer loop
      vertex 2.86475 4.18322 4
      vertex 4.23237 5.17686 2.79503e-15
      vertex 4.74483 4.51619 2.87594e-15
    endloop
  endfacet
  facet normal -0.761896 -0.517784 -0.389119
    outer loop
      vertex 2.33508 4.9626 4
      vertex 4.23237 5.17686 2.79503e-15
      vertex 2.86475 4.18322 4
    endloop
  endfacet
  facet normal -0.761896 -0.517784 -0.389119
    outer loop
      vertex 2.33508 4.9626 4
      vertex 3.76239 5.8684 2.71034e-15
      vertex 4.23237 5.17686 2.79503e-15
    endloop
  endfacet
  facet normal -0.792905 -0.468922 -0.389119
    outer loop
      vertex 1.8554 5.7737 4
      vertex 3.76239 5.8684 2.71034e-15
      vertex 2.33508 4.9626 4
    endloop
  endfacet
  facet normal -0.792905 -0.468923 -0.389119
    outer loop
      vertex 1.8554 5.7737 4
      vertex 3.33677 6.58809 2.6222e-15
      vertex 3.76239 5.8684 2.71034e-15
    endloop
  endfacet
  facet normal -0.820784 -0.418211 -0.389119
    outer loop
      vertex 1.42759 6.61331 4
      vertex 3.33677 6.58809 2.6222e-15
      vertex 1.8554 5.7737 4
    endloop
  endfacet
  facet normal -0.820784 -0.418211 -0.389119
    outer loop
      vertex 1.42759 6.61331 4
      vertex 2.95718 7.33308 2.53097e-15
      vertex 3.33677 6.58809 2.6222e-15
    endloop
  endfacet
  facet normal -0.845424 -0.365847 -0.389119
    outer loop
      vertex 1.05335 7.47813 4
      vertex 2.95718 7.33308 2.53097e-15
      vertex 1.42759 6.61331 4
    endloop
  endfacet
  facet normal -0.845424 -0.365848 -0.389119
    outer loop
      vertex 1.05335 7.47813 4
      vertex 2.62512 8.10044 2.43699e-15
      vertex 2.95718 7.33308 2.53097e-15
    endloop
  endfacet
  facet normal -0.866728 -0.312042 -0.389119
    outer loop
      vertex 0.734152 8.36474 4
      vertex 2.62512 8.10044 2.43699e-15
      vertex 1.05335 7.47813 4
    endloop
  endfacet
  facet normal -0.866728 -0.312041 -0.389119
    outer loop
      vertex 0.734152 8.36474 4
      vertex 2.34189 8.88713 2.34065e-15
      vertex 2.62512 8.10044 2.43699e-15
    endloop
  endfacet
  facet normal -0.884611 -0.257002 -0.389119
    outer loop
      vertex 0.471253 9.26965 4
      vertex 2.34189 8.88713 2.34065e-15
      vertex 0.734152 8.36474 4
    endloop
  endfacet
  facet normal -0.884611 -0.257004 -0.389118
    outer loop
      vertex 0.471253 9.26965 4
      vertex 2.10862 9.69005 2.24232e-15
      vertex 2.34189 8.88713 2.34065e-15
    endloop
  endfacet
  facet normal -0.899002 -0.200952 -0.389118
    outer loop
      vertex 0.265691 10.1893 4
      vertex 2.10862 9.69005 2.24232e-15
      vertex 0.471253 9.26965 4
    endloop
  endfacet
  facet normal -0.899002 -0.200951 -0.389119
    outer loop
      vertex 0.265691 10.1893 4
      vertex 1.92622 10.506 2.14239e-15
      vertex 2.10862 9.69005 2.24232e-15
    endloop
  endfacet
  facet normal -0.909846 -0.144106 -0.389119
    outer loop
      vertex 0.118279 11.12 4
      vertex 1.92622 10.506 2.14239e-15
      vertex 0.265691 10.1893 4
    endloop
  endfacet
  facet normal -0.909846 -0.144105 -0.389119
    outer loop
      vertex 0.118279 11.12 4
      vertex 1.79542 11.3319 2.04126e-15
      vertex 1.92622 10.506 2.14239e-15
    endloop
  endfacet
  facet normal -0.917099 -0.086691 -0.389119
    outer loop
      vertex 0.029599 12.0581 4
      vertex 1.79542 11.3319 2.04126e-15
      vertex 0.118279 11.12 4
    endloop
  endfacet
  facet normal -0.917099 -0.0866922 -0.389119
    outer loop
      vertex 0.029599 12.0581 4
      vertex 1.71674 12.1643 1.93932e-15
      vertex 1.79542 11.3319 2.04126e-15
    endloop
  endfacet
  facet normal 0 -1.22465e-16 -1
    outer loop
      vertex 1.71674 13.8357 1.73462e-15
      vertex 1.79542 14.6681 1.63268e-15
      vertex 1.69047 13 1.83697e-15
    endloop
  endfacet
  facet normal 0 -1.22465e-16 -1
    outer loop
      vertex 1.69047 13 1.83697e-15
      vertex 1.79542 14.6681 1.63268e-15
      vertex 1.92622 15.494 1.53155e-15
    endloop
  endfacet
  facet normal 0 -1.22465e-16 -1
    outer loop
      vertex 1.69047 13 1.83697e-15
      vertex 1.92622 15.494 1.53155e-15
      vertex 2.10862 16.3099 1.43162e-15
    endloop
  endfacet
  facet normal 0 -1.22465e-16 -1
    outer loop
      vertex 1.69047 13 1.83697e-15
      vertex 2.10862 16.3099 1.43162e-15
      vertex 2.34189 17.1129 1.33329e-15
    endloop
  endfacet
  facet normal 0 -1.22465e-16 -1
    outer loop
      vertex 1.69047 13 1.83697e-15
      vertex 2.34189 17.1129 1.33329e-15
      vertex 2.62512 17.8996 1.23695e-15
    endloop
  endfacet
  facet normal 0 -1.22465e-16 -1
    outer loop
      vertex 1.69047 13 1.83697e-15
      vertex 2.62512 17.8996 1.23695e-15
      vertex 2.95718 18.6669 1.14297e-15
    endloop
  endfacet
  facet normal 0 -1.22465e-16 -1
    outer loop
      vertex 1.69047 13 1.83697e-15
      vertex 2.95718 18.6669 1.14297e-15
      vertex 3.33677 19.4119 1.05174e-15
    endloop
  endfacet
  facet normal 0 -1.22465e-16 -1
    outer loop
      vertex 1.69047 13 1.83697e-15
      vertex 3.33677 19.4119 1.05174e-15
      vertex 3.76239 20.1316 9.63601e-16
    endloop
  endfacet
  facet normal 0 -1.22465e-16 -1
    outer loop
      vertex 1.69047 13 1.83697e-15
      vertex 3.76239 20.1316 9.63601e-16
      vertex 4.23237 20.8231 8.78911e-16
    endloop
  endfacet
  facet normal 0 -1.22465e-16 -1
    outer loop
      vertex 1.69047 13 1.83697e-15
      vertex 4.23237 20.8231 8.78911e-16
      vertex 4.74483 21.4838 7.98003e-16
    endloop
  endfacet
  facet normal 0 -1.22465e-16 -1
    outer loop
      vertex 1.69047 13 1.83697e-15
      vertex 4.74483 21.4838 7.98003e-16
      vertex 5.29777 22.111 7.21195e-16
    endloop
  endfacet
  facet normal 0 -1.22465e-16 -1
    outer loop
      vertex 1.69047 13 1.83697e-15
      vertex 5.29777 22.111 7.21195e-16
      vertex 5.889 22.7022 6.4879e-16
    endloop
  endfacet
  facet normal 0 -1.22465e-16 -1
    outer loop
      vertex 1.69047 13 1.83697e-15
      vertex 5.889 22.7022 6.4879e-16
      vertex 6.51619 23.2552 5.81074e-16
    endloop
  endfacet
  facet normal 0 -1.22465e-16 -1
    outer loop
      vertex 1.69047 13 1.83697e-15
      vertex 6.51619 23.2552 5.81074e-16
      vertex 7.17686 23.7676 5.18315e-16
    endloop
  endfacet
  facet normal 0 -1.22465e-16 -1
    outer loop
      vertex 1.69047 13 1.83697e-15
      vertex 7.17686 23.7676 5.18315e-16
      vertex 7.8684 24.2376 4.6076e-16
    endloop
  endfacet
  facet normal 0 -1.22465e-16 -1
    outer loop
      vertex 1.69047 13 1.83697e-15
      vertex 7.8684 24.2376 4.6076e-16
      vertex 8.58809 24.6632 4.08637e-16
    endloop
  endfacet
  facet normal 0 -1.22465e-16 -1
    outer loop
      vertex 1.69047 13 1.83697e-15
      vertex 8.58809 24.6632 4.08637e-16
      vertex 9.33308 25.0428 3.6215e-16
    endloop
  endfacet
  facet normal 0 -1.22465e-16 -1
    outer loop
      vertex 1.69047 13 1.83697e-15
      vertex 9.33308 25.0428 3.6215e-16
      vertex 10.1004 25.3749 3.21484e-16
    endloop
  endfacet
  facet normal 0 -1.22465e-16 -1
    outer loop
      vertex 1.69047 13 1.83697e-15
      vertex 10.1004 25.3749 3.21484e-16
      vertex 10.8871 25.6581 2.86799e-16
    endloop
  endfacet
  facet normal 0 -1.22465e-16 -1
    outer loop
      vertex 1.69047 13 1.83697e-15
      vertex 10.8871 25.6581 2.86799e-16
      vertex 11.6901 25.8914 2.58231e-16
    endloop
  endfacet
  facet normal 0 -1.22465e-16 -1
    outer loop
      vertex 1.69047 13 1.83697e-15
      vertex 11.6901 25.8914 2.58231e-16
      vertex 12.506 26.0738 2.35894e-16
    endloop
  endfacet
  facet normal 0 -1.22465e-16 -1
    outer loop
      vertex 1.69047 13 1.83697e-15
      vertex 12.506 26.0738 2.35894e-16
      vertex 13.3319 26.2046 2.19876e-16
    endloop
  endfacet
  facet normal 0 -1.22465e-16 -1
    outer loop
      vertex 1.69047 13 1.83697e-15
      vertex 13.3319 26.2046 2.19876e-16
      vertex 14.1643 26.2833 2.1024e-16
    endloop
  endfacet
  facet normal 0 -1.22465e-16 -1
    outer loop
      vertex 1.69047 13 1.83697e-15
      vertex 14.1643 26.2833 2.1024e-16
      vertex 15 26.3095 2.07023e-16
    endloop
  endfacet
  facet normal 0 -1.22465e-16 -1
    outer loop
      vertex 1.69047 13 1.83697e-15
      vertex 15 26.3095 2.07023e-16
      vertex 15.8357 26.2833 2.1024e-16
    endloop
  endfacet
  facet normal 0 -1.22465e-16 -1
    outer loop
      vertex 1.69047 13 1.83697e-15
      vertex 15.8357 26.2833 2.1024e-16
      vertex 16.6681 26.2046 2.19876e-16
    endloop
  endfacet
  facet normal 0 -1.22465e-16 -1
    outer loop
      vertex 1.69047 13 1.83697e-15
      vertex 16.6681 26.2046 2.19876e-16
      vertex 17.494 26.0738 2.35894e-16
    endloop
  endfacet
  facet normal 0 -1.22465e-16 -1
    outer loop
      vertex 1.69047 13 1.83697e-15
      vertex 17.494 26.0738 2.35894e-16
      vertex 18.3099 25.8914 2.58231e-16
    endloop
  endfacet
  facet normal 0 -1.22465e-16 -1
    outer loop
      vertex 1.69047 13 1.83697e-15
      vertex 18.3099 25.8914 2.58231e-16
      vertex 19.1129 25.6581 2.86799e-16
    endloop
  endfacet
  facet normal 0 -1.22465e-16 -1
    outer loop
      vertex 1.69047 13 1.83697e-15
      vertex 19.1129 25.6581 2.86799e-16
      vertex 19.8996 25.3749 3.21484e-16
    endloop
  endfacet
  facet normal 0 -1.22465e-16 -1
    outer loop
      vertex 1.69047 13 1.83697e-15
      vertex 19.8996 25.3749 3.21484e-16
      vertex 20.6669 25.0428 3.6215e-16
    endloop
  endfacet
  facet normal 0 -1.22465e-16 -1
    outer loop
      vertex 1.69047 13 1.83697e-15
      vertex 20.6669 25.0428 3.6215e-16
      vertex 21.4119 24.6632 4.08637e-16
    endloop
  endfacet
  facet normal 0 -1.22465e-16 -1
    outer loop
      vertex 1.69047 13 1.83697e-15
      vertex 21.4119 24.6632 4.08637e-16
      vertex 22.1316 24.2376 4.6076e-16
    endloop
  endfacet
  facet normal 0 -1.22465e-16 -1
    outer loop
      vertex 1.69047 13 1.83697e-15
      vertex 22.1316 24.2376 4.6076e-16
      vertex 22.8231 23.7676 5.18315e-16
    endloop
  endfacet
  facet normal 0 -1.22465e-16 -1
    outer loop
      vertex 1.69047 13 1.83697e-15
      vertex 22.8231 23.7676 5.18315e-16
      vertex 23.4838 23.2552 5.81074e-16
    endloop
  endfacet
  facet normal 0 -1.22465e-16 -1
    outer loop
      vertex 1.69047 13 1.83697e-15
      vertex 23.4838 23.2552 5.81074e-16
      vertex 24.111 22.7022 6.4879e-16
    endloop
  endfacet
  facet normal 0 -1.22465e-16 -1
    outer loop
      vertex 1.69047 13 1.83697e-15
      vertex 24.111 22.7022 6.4879e-16
      vertex 24.7022 22.111 7.21195e-16
    endloop
  endfacet
  facet normal 0 -1.22465e-16 -1
    outer loop
      vertex 1.69047 13 1.83697e-15
      vertex 24.7022 22.111 7.21195e-16
      vertex 25.2552 21.4838 7.98003e-16
    endloop
  endfacet
  facet normal 0 -1.22465e-16 -1
    outer loop
      vertex 1.69047 13 1.83697e-15
      vertex 25.2552 21.4838 7.98003e-16
      vertex 25.7676 20.8231 8.78911e-16
    endloop
  endfacet
  facet normal 0 -1.22465e-16 -1
    outer loop
      vertex 1.69047 13 1.83697e-15
      vertex 25.7676 20.8231 8.78911e-16
      vertex 26.2376 20.1316 9.63601e-16
    endloop
  endfacet
  facet normal 0 -1.22465e-16 -1
    outer loop
      vertex 1.69047 13 1.83697e-15
      vertex 26.2376 20.1316 9.63601e-16
      vertex 26.6632 19.4119 1.05174e-15
    endloop
  endfacet
  facet normal 0 -1.22465e-16 -1
    outer loop
      vertex 1.69047 13 1.83697e-15
      vertex 26.6632 19.4119 1.05174e-15
      vertex 27.0428 18.6669 1.14297e-15
    endloop
  endfacet
  facet normal 0 -1.22465e-16 -1
    outer loop
      vertex 1.69047 13 1.83697e-15
      vertex 27.0428 18.6669 1.14297e-15
      vertex 27.3749 17.8996 1.23695e-15
    endloop
  endfacet
  facet normal 0 -1.22465e-16 -1
    outer loop
      vertex 1.69047 13 1.83697e-15
      vertex 27.3749 17.8996 1.23695e-15
      vertex 27.6581 17.1129 1.33329e-15
    endloop
  endfacet
  facet normal 0 -1.22465e-16 -1
    outer loop
      vertex 1.69047 13 1.83697e-15
      vertex 27.6581 17.1129 1.33329e-15
      vertex 27.8914 16.3099 1.43162e-15
    endloop
  endfacet
  facet normal 0 -1.22465e-16 -1
    outer loop
      vertex 1.69047 13 1.83697e-15
      vertex 27.8914 16.3099 1.43162e-15
      vertex 28.0738 15.494 1.53155e-15
    endloop
  endfacet
  facet normal 0 -1.22465e-16 -1
    outer loop
      vertex 1.69047 13 1.83697e-15
      vertex 28.0738 15.494 1.53155e-15
      vertex 28.2046 14.6681 1.63268e-15
    endloop
  endfacet
  facet normal 0 -1.22465e-16 -1
    outer loop
      vertex 1.69047 13 1.83697e-15
      vertex 28.2046 14.6681 1.63268e-15
      vertex 28.2833 13.8357 1.73462e-15
    endloop
  endfacet
  facet normal 0 -1.22465e-16 -1
    outer loop
      vertex 1.69047 13 1.83697e-15
      vertex 28.2833 13.8357 1.73462e-15
      vertex 28.3095 13 1.83697e-15
    endloop
  endfacet
  facet normal 0 -1.22465e-16 -1
    outer loop
      vertex 1.69047 13 1.83697e-15
      vertex 28.3095 13 1.83697e-15
      vertex 28.2833 12.1643 1.93932e-15
    endloop
  endfacet
  facet normal 0 -1.22465e-16 -1
    outer loop
      vertex 1.69047 13 1.83697e-15
      vertex 28.2833 12.1643 1.93932e-15
      vertex 28.2046 11.3319 2.04126e-15
    endloop
  endfacet
  facet normal 0 -1.22465e-16 -1
    outer loop
      vertex 1.69047 13 1.83697e-15
      vertex 28.2046 11.3319 2.04126e-15
      vertex 28.0738 10.506 2.14239e-15
    endloop
  endfacet
  facet normal 0 -1.22465e-16 -1
    outer loop
      vertex 1.69047 13 1.83697e-15
      vertex 28.0738 10.506 2.14239e-15
      vertex 27.8914 9.69005 2.24232e-15
    endloop
  endfacet
  facet normal 0 -1.22465e-16 -1
    outer loop
      vertex 1.69047 13 1.83697e-15
      vertex 27.8914 9.69005 2.24232e-15
      vertex 27.6581 8.88713 2.34065e-15
    endloop
  endfacet
  facet normal 0 -1.22465e-16 -1
    outer loop
      vertex 1.69047 13 1.83697e-15
      vertex 27.6581 8.88713 2.34065e-15
      vertex 27.3749 8.10044 2.43699e-15
    endloop
  endfacet
  facet normal 0 -1.22465e-16 -1
    outer loop
      vertex 1.69047 13 1.83697e-15
      vertex 27.3749 8.10044 2.43699e-15
      vertex 27.0428 7.33308 2.53097e-15
    endloop
  endfacet
  facet normal 0 -1.22465e-16 -1
    outer loop
      vertex 1.69047 13 1.83697e-15
      vertex 27.0428 7.33308 2.53097e-15
      vertex 26.6632 6.58809 2.6222e-15
    endloop
  endfacet
  facet normal 0 -1.22465e-16 -1
    outer loop
      vertex 1.69047 13 1.83697e-15
      vertex 26.6632 6.58809 2.6222e-15
      vertex 26.2376 5.8684 2.71034e-15
    endloop
  endfacet
  facet normal 0 -1.22465e-16 -1
    outer loop
      vertex 1.69047 13 1.83697e-15
      vertex 26.2376 5.8684 2.71034e-15
      vertex 25.7676 5.17686 2.79503e-15
    endloop
  endfacet
  facet normal 0 -1.22465e-16 -1
    outer loop
      vertex 1.69047 13 1.83697e-15
      vertex 25.7676 5.17686 2.79503e-15
      vertex 25.2552 4.51619 2.87594e-15
    endloop
  endfacet
  facet normal 0 -1.22465e-16 -1
    outer loop
      vertex 1.69047 13 1.83697e-15
      vertex 25.2552 4.51619 2.87594e-15
      vertex 24.7022 3.889 2.95275e-15
    endloop
  endfacet
  facet normal 0 -1.22465e-16 -1
    outer loop
      vertex 1.69047 13 1.83697e-15
      vertex 24.7022 3.889 2.95275e-15
      vertex 24.111 3.29777 3.02515e-15
    endloop
  endfacet
  facet normal 0 -1.22465e-16 -1
    outer loop
      vertex 1.69047 13 1.83697e-15
      vertex 24.111 3.29777 3.02515e-15
      vertex 23.4838 2.74483 3.09287e-15
    endloop
  endfacet
  facet normal 0 -1.22465e-16 -1
    outer loop
      vertex 1.69047 13 1.83697e-15
      vertex 23.4838 2.74483 3.09287e-15
      vertex 22.8231 2.23237 3.15562e-15
    endloop
  endfacet
  facet normal 0 -1.22465e-16 -1
    outer loop
      vertex 1.69047 13 1.83697e-15
      vertex 22.8231 2.23237 3.15562e-15
      vertex 22.1316 1.76239 3.21318e-15
    endloop
  endfacet
  facet normal 0 -1.22465e-16 -1
    outer loop
      vertex 1.69047 13 1.83697e-15
      vertex 22.1316 1.76239 3.21318e-15
      vertex 21.4119 1.33677 3.2653e-15
    endloop
  endfacet
  facet normal 0 -1.22465e-16 -1
    outer loop
      vertex 1.69047 13 1.83697e-15
      vertex 21.4119 1.33677 3.2653e-15
      vertex 20.6669 0.95718 3.31179e-15
    endloop
  endfacet
  facet normal 0 -1.22465e-16 -1
    outer loop
      vertex 1.69047 13 1.83697e-15
      vertex 20.6669 0.95718 3.31179e-15
      vertex 19.8996 0.625115 3.35246e-15
    endloop
  endfacet
  facet normal 0 -1.22465e-16 -1
    outer loop
      vertex 1.69047 13 1.83697e-15
      vertex 19.8996 0.625115 3.35246e-15
      vertex 19.1129 0.341888 3.38714e-15
    endloop
  endfacet
  facet normal 0 -1.22465e-16 -1
    outer loop
      vertex 1.69047 13 1.83697e-15
      vertex 19.1129 0.341888 3.38714e-15
      vertex 18.3099 0.108616 3.41571e-15
    endloop
  endfacet
  facet normal 0 -1.22465e-16 -1
    outer loop
      vertex 1.69047 13 1.83697e-15
      vertex 18.3099 0.108616 3.41571e-15
      vertex 17.494 -0.073779 3.43805e-15
    endloop
  endfacet
  facet normal 0 -1.22465e-16 -1
    outer loop
      vertex 1.69047 13 1.83697e-15
      vertex 17.494 -0.073779 3.43805e-15
      vertex 16.6681 -0.204577 3.45406e-15
    endloop
  endfacet
  facet normal 0 -1.22465e-16 -1
    outer loop
      vertex 1.69047 13 1.83697e-15
      vertex 16.6681 -0.204577 3.45406e-15
      vertex 15.8357 -0.283264 3.4637e-15
    endloop
  endfacet
  facet normal 0 -1.22465e-16 -1
    outer loop
      vertex 1.69047 13 1.83697e-15
      vertex 15.8357 -0.283264 3.4637e-15
      vertex 15 -0.309527 3.46692e-15
    endloop
  endfacet
  facet normal 0 -1.22465e-16 -1
    outer loop
      vertex 1.69047 13 1.83697e-15
      vertex 15 -0.309527 3.46692e-15
      vertex 14.1643 -0.283264 3.4637e-15
    endloop
  endfacet
  facet normal 0 -1.22465e-16 -1
    outer loop
      vertex 1.69047 13 1.83697e-15
      vertex 14.1643 -0.283264 3.4637e-15
      vertex 13.3319 -0.204577 3.45406e-15
    endloop
  endfacet
  facet normal 0 -1.22465e-16 -1
    outer loop
      vertex 1.69047 13 1.83697e-15
      vertex 13.3319 -0.204577 3.45406e-15
      vertex 12.506 -0.073779 3.43805e-15
    endloop
  endfacet
  facet normal 0 -1.22465e-16 -1
    outer loop
      vertex 1.69047 13 1.83697e-15
      vertex 12.506 -0.073779 3.43805e-15
      vertex 11.6901 0.108616 3.41571e-15
    endloop
  endfacet
  facet normal 0 -1.22465e-16 -1
    outer loop
      vertex 1.69047 13 1.83697e-15
      vertex 11.6901 0.108616 3.41571e-15
      vertex 10.8871 0.341888 3.38714e-15
    endloop
  endfacet
  facet normal 0 -1.22465e-16 -1
    outer loop
      vertex 1.69047 13 1.83697e-15
      vertex 10.8871 0.341888 3.38714e-15
      vertex 10.1004 0.625115 3.35246e-15
    endloop
  endfacet
  facet normal 0 -1.22465e-16 -1
    outer loop
      vertex 1.69047 13 1.83697e-15
      vertex 10.1004 0.625115 3.35246e-15
      vertex 9.33308 0.95718 3.31179e-15
    endloop
  endfacet
  facet normal 0 -1.22465e-16 -1
    outer loop
      vertex 1.69047 13 1.83697e-15
      vertex 9.33308 0.95718 3.31179e-15
      vertex 8.58809 1.33677 3.2653e-15
    endloop
  endfacet
  facet normal 0 -1.22465e-16 -1
    outer loop
      vertex 1.69047 13 1.83697e-15
      vertex 8.58809 1.33677 3.2653e-15
      vertex 7.8684 1.76239 3.21318e-15
    endloop
  endfacet
  facet normal 0 -1.22465e-16 -1
    outer loop
      vertex 1.69047 13 1.83697e-15
      vertex 7.8684 1.76239 3.21318e-15
      vertex 7.17686 2.23237 3.15562e-15
    endloop
  endfacet
  facet normal 0 -1.22465e-16 -1
    outer loop
      vertex 1.69047 13 1.83697e-15
      vertex 7.17686 2.23237 3.15562e-15
      vertex 6.51619 2.74483 3.09287e-15
    endloop
  endfacet
  facet normal 0 -1.22465e-16 -1
    outer loop
      vertex 1.69047 13 1.83697e-15
      vertex 6.51619 2.74483 3.09287e-15
      vertex 5.889 3.29777 3.02515e-15
    endloop
  endfacet
  facet normal 0 -1.22465e-16 -1
    outer loop
      vertex 1.69047 13 1.83697e-15
      vertex 5.889 3.29777 3.02515e-15
      vertex 5.29777 3.889 2.95275e-15
    endloop
  endfacet
  facet normal 0 -1.22465e-16 -1
    outer loop
      vertex 1.69047 13 1.83697e-15
      vertex 5.29777 3.889 2.95275e-15
      vertex 4.74483 4.51619 2.87594e-15
    endloop
  endfacet
  facet normal 0 -1.22465e-16 -1
    outer loop
      vertex 1.69047 13 1.83697e-15
      vertex 4.74483 4.51619 2.87594e-15
      vertex 4.23237 5.17686 2.79503e-15
    endloop
  endfacet
  facet normal 0 -1.22465e-16 -1
    outer loop
      vertex 1.69047 13 1.83697e-15
      vertex 4.23237 5.17686 2.79503e-15
      vertex 3.76239 5.8684 2.71034e-15
    endloop
  endfacet
  facet normal 0 -1.22465e-16 -1
    outer loop
      vertex 1.69047 13 1.83697e-15
      vertex 3.76239 5.8684 2.71034e-15
      vertex 3.33677 6.58809 2.6222e-15
    endloop
  endfacet
  facet normal 0 -1.22465e-16 -1
    outer loop
      vertex 1.69047 13 1.83697e-15
      vertex 3.33677 6.58809 2.6222e-15
      vertex 2.95718 7.33308 2.53097e-15
    endloop
  endfacet
  facet normal 0 -1.22465e-16 -1
    outer loop
      vertex 1.69047 13 1.83697e-15
      vertex 2.95718 7.33308 2.53097e-15
      vertex 2.62512 8.10044 2.43699e-15
    endloop
  endfacet
  facet normal 0 -1.22465e-16 -1
    outer loop
      vertex 1.69047 13 1.83697e-15
      vertex 2.62512 8.10044 2.43699e-15
      vertex 2.34189 8.88713 2.34065e-15
    endloop
  endfacet
  facet normal 0 -1.22465e-16 -1
    outer loop
      vertex 1.69047 13 1.83697e-15
      vertex 2.34189 8.88713 2.34065e-15
      vertex 2.10862 9.69005 2.24232e-15
    endloop
  endfacet
  facet normal 0 -1.22465e-16 -1
    outer loop
      vertex 1.69047 13 1.83697e-15
      vertex 2.10862 9.69005 2.24232e-15
      vertex 1.92622 10.506 2.14239e-15
    endloop
  endfacet
  facet normal 0 -1.22465e-16 -1
    outer loop
      vertex 1.69047 13 1.83697e-15
      vertex 1.92622 10.506 2.14239e-15
      vertex 1.79542 11.3319 2.04126e-15
    endloop
  endfacet
  facet normal 0 -1.22465e-16 -1
    outer loop
      vertex 1.69047 13 1.83697e-15
      vertex 1.79542 11.3319 2.04126e-15
      vertex 1.71674 12.1643 1.93932e-15
    endloop
  endfacet
endsolid OpenSCAD_Model
