solid OpenSCAD_Model
  facet normal -1 0 0
    outer loop
      vertex -45 -40 0
      vertex -45 -40 0.3
      vertex -45 65 0
    endloop
  endfacet
  facet normal -1 0 0
    outer loop
      vertex -45 65 0
      vertex -45 -40 0.3
      vertex -45 65 0.3
    endloop
  endfacet
  facet normal 0 -1 0
    outer loop
      vertex -45 -40 0.3
      vertex -45 -40 0
      vertex 45 -40 0
    endloop
  endfacet
  facet normal 0 -1 0
    outer loop
      vertex 45 -40 0.3
      vertex -45 -40 0.3
      vertex 45 -40 0
    endloop
  endfacet
  facet normal 0 0 -1
    outer loop
      vertex -43.8 63.8 0
      vertex -45 65 0
      vertex 45 65 0
    endloop
  endfacet
  facet normal 0 0 -1
    outer loop
      vertex 43.8 63.8 0
      vertex -43.8 63.8 0
      vertex 45 65 0
    endloop
  endfacet
  facet normal 0 0 -1
    outer loop
      vertex -45 -40 0
      vertex -45 65 0
      vertex -43.8 -38.8 0
    endloop
  endfacet
  facet normal 0 0 -1
    outer loop
      vertex -45 -40 0
      vertex -43.8 -38.8 0
      vertex 45 -40 0
    endloop
  endfacet
  facet normal 0 0 -1
    outer loop
      vertex 43.8 63.8 0
      vertex 45 -40 0
      vertex 43.8 -38.8 0
    endloop
  endfacet
  facet normal 0 0 -1
    outer loop
      vertex -43.8 -38.8 0
      vertex 43.8 -38.8 0
      vertex 45 -40 0
    endloop
  endfacet
  facet normal 0 0 -1
    outer loop
      vertex 45 -40 0
      vertex 43.8 63.8 0
      vertex 45 65 0
    endloop
  endfacet
  facet normal 0 0 -1
    outer loop
      vertex -43.8 -38.8 0
      vertex -45 65 0
      vertex -43.8 63.8 0
    endloop
  endfacet
  facet normal 0 1 0
    outer loop
      vertex -45 65 0
      vertex -45 65 0.3
      vertex 45 65 0
    endloop
  endfacet
  facet normal 0 1 0
    outer loop
      vertex 45 65 0
      vertex -45 65 0.3
      vertex 45 65 0.3
    endloop
  endfacet
  facet normal 0 0 1
    outer loop
      vertex -43.8 -38.8 0.3
      vertex -45 -40 0.3
      vertex 45 -40 0.3
    endloop
  endfacet
  facet normal 0 0 1
    outer loop
      vertex 43.8 -38.8 0.3
      vertex -43.8 -38.8 0.3
      vertex 45 -40 0.3
    endloop
  endfacet
  facet normal 0 0 1
    outer loop
      vertex -45 65 0.3
      vertex -45 -40 0.3
      vertex -43.8 -38.8 0.3
    endloop
  endfacet
  facet normal 0 0 1
    outer loop
      vertex 45 65 0.3
      vertex -45 65 0.3
      vertex -43.8 63.8 0.3
    endloop
  endfacet
  facet normal 0 0 1
    outer loop
      vertex 45 65 0.3
      vertex 43.8 63.8 0.3
      vertex 45 -40 0.3
    endloop
  endfacet
  facet normal 0 0 1
    outer loop
      vertex 45 65 0.3
      vertex -43.8 63.8 0.3
      vertex 43.8 63.8 0.3
    endloop
  endfacet
  facet normal 0 0 1
    outer loop
      vertex 43.8 63.8 0.3
      vertex 43.8 -38.8 0.3
      vertex 45 -40 0.3
    endloop
  endfacet
  facet normal 0 0 1
    outer loop
      vertex -43.8 -38.8 0.3
      vertex -43.8 63.8 0.3
      vertex -45 65 0.3
    endloop
  endfacet
  facet normal 1 0 0
    outer loop
      vertex 45 -40 0.3
      vertex 45 -40 0
      vertex 45 65 0
    endloop
  endfacet
  facet normal 1 0 0
    outer loop
      vertex 45 65 0.3
      vertex 45 -40 0.3
      vertex 45 65 0
    endloop
  endfacet
  facet normal 1 0 0
    outer loop
      vertex -43.8 63.8 0
      vertex -43.8 63.8 0.3
      vertex -43.8 -38.8 0.3
    endloop
  endfacet
  facet normal 1 0 0
    outer loop
      vertex -43.8 -38.8 0
      vertex -43.8 63.8 0
      vertex -43.8 -38.8 0.3
    endloop
  endfacet
  facet normal 0 -1 0
    outer loop
      vertex 43.8 63.8 0
      vertex 43.8 63.8 0.3
      vertex -43.8 63.8 0.3
    endloop
  endfacet
  facet normal 0 -1 0
    outer loop
      vertex -43.8 63.8 0
      vertex 43.8 63.8 0
      vertex -43.8 63.8 0.3
    endloop
  endfacet
  facet normal -1 0 0
    outer loop
      vertex 43.8 63.8 0.3
      vertex 43.8 63.8 0
      vertex 43.8 -38.8 0.3
    endloop
  endfacet
  facet normal -1 0 0
    outer loop
      vertex 43.8 -38.8 0.3
      vertex 43.8 63.8 0
      vertex 43.8 -38.8 0
    endloop
  endfacet
  facet normal 0 1 0
    outer loop
      vertex 43.8 -38.8 0.3
      vertex 43.8 -38.8 0
      vertex -43.8 -38.8 0.3
    endloop
  endfacet
  facet normal 0 1 0
    outer loop
      vertex -43.8 -38.8 0.3
      vertex 43.8 -38.8 0
      vertex -43.8 -38.8 0
    endloop
  endfacet
endsolid OpenSCAD_Model
