solid OpenSCAD_Model
  facet normal 0 0 -1
    outer loop
      vertex -25 0 0
      vertex 25 16.5 0
      vertex 25 0 0
    endloop
  endfacet
  facet normal -0 0 -1
    outer loop
      vertex 25 16.5 0
      vertex -25 0 0
      vertex -25 16.5 0
    endloop
  endfacet
  facet normal 0 0 1
    outer loop
      vertex -14.5 16.5 54
      vertex -25 16.5 54
      vertex -14.5 1.5 54
    endloop
  endfacet
  facet normal 0 0 1
    outer loop
      vertex 10 8 54
      vertex 8 3.25 54
      vertex 10 3.25 54
    endloop
  endfacet
  facet normal 0 0 1
    outer loop
      vertex 8 3.25 54
      vertex -8 3.25 54
      vertex 8 1.5 54
    endloop
  endfacet
  facet normal 0 0 1
    outer loop
      vertex 10 8 54
      vertex -8 3.25 54
      vertex 8 3.25 54
    endloop
  endfacet
  facet normal -0 0 1
    outer loop
      vertex -10 8 54
      vertex -8 3.25 54
      vertex 10 8 54
    endloop
  endfacet
  facet normal 0 0 1
    outer loop
      vertex -8 3.25 54
      vertex -10 8 54
      vertex -10 3.25 54
    endloop
  endfacet
  facet normal 0 0 1
    outer loop
      vertex 14.5 1.5 54
      vertex 25 16.5 54
      vertex 14.5 16.5 54
    endloop
  endfacet
  facet normal 0 0 1
    outer loop
      vertex 25 16.5 54
      vertex 14.5 1.5 54
      vertex 25 0 54
    endloop
  endfacet
  facet normal -0 0 1
    outer loop
      vertex 8 1.5 54
      vertex 25 0 54
      vertex 14.5 1.5 54
    endloop
  endfacet
  facet normal 0 0 1
    outer loop
      vertex -8 1.5 54
      vertex 8 1.5 54
      vertex -8 3.25 54
    endloop
  endfacet
  facet normal -0 0 1
    outer loop
      vertex -8 1.5 54
      vertex 25 0 54
      vertex 8 1.5 54
    endloop
  endfacet
  facet normal 0 0 1
    outer loop
      vertex -25 0 54
      vertex -8 1.5 54
      vertex -14.5 1.5 54
    endloop
  endfacet
  facet normal 0 0 1
    outer loop
      vertex -8 1.5 54
      vertex -25 0 54
      vertex 25 0 54
    endloop
  endfacet
  facet normal 0 0 1
    outer loop
      vertex -25 0 54
      vertex -14.5 1.5 54
      vertex -25 16.5 54
    endloop
  endfacet
  facet normal 0 1 0
    outer loop
      vertex 25 16.5 54
      vertex 14.5 16.5 1.5
      vertex 14.5 16.5 54
    endloop
  endfacet
  facet normal 0 1 0
    outer loop
      vertex 14.5 16.5 1.5
      vertex 25 16.5 0
      vertex -14.5 16.5 1.5
    endloop
  endfacet
  facet normal 0 1 -0
    outer loop
      vertex 25 16.5 0
      vertex 14.5 16.5 1.5
      vertex 25 16.5 54
    endloop
  endfacet
  facet normal 0 1 -0
    outer loop
      vertex -14.5 16.5 1.5
      vertex -25 16.5 54
      vertex -14.5 16.5 54
    endloop
  endfacet
  facet normal 0 1 0
    outer loop
      vertex -14.5 16.5 1.5
      vertex -25 16.5 0
      vertex -25 16.5 54
    endloop
  endfacet
  facet normal 0 1 0
    outer loop
      vertex -25 16.5 0
      vertex -14.5 16.5 1.5
      vertex 25 16.5 0
    endloop
  endfacet
  facet normal -1 0 0
    outer loop
      vertex 14.5 1.5 1.5
      vertex 14.5 16.5 54
      vertex 14.5 16.5 1.5
    endloop
  endfacet
  facet normal -1 -0 0
    outer loop
      vertex 14.5 16.5 54
      vertex 14.5 1.5 1.5
      vertex 14.5 1.5 54
    endloop
  endfacet
  facet normal 0 1 -0
    outer loop
      vertex 14.5 1.5 1.5
      vertex 8 1.5 54
      vertex 14.5 1.5 54
    endloop
  endfacet
  facet normal 0 1 0
    outer loop
      vertex 8 1.5 54
      vertex 14.5 1.5 1.5
      vertex 8 1.5 1.5
    endloop
  endfacet
  facet normal 1 -0 0
    outer loop
      vertex 8 1.5 54
      vertex 8 3.25 1.5
      vertex 8 3.25 54
    endloop
  endfacet
  facet normal 1 0 0
    outer loop
      vertex 8 3.25 1.5
      vertex 8 1.5 54
      vertex 8 1.5 1.5
    endloop
  endfacet
  facet normal 0 -1 0
    outer loop
      vertex 8 3.25 1.5
      vertex 10 3.25 54
      vertex 8 3.25 54
    endloop
  endfacet
  facet normal 0 -1 -0
    outer loop
      vertex 10 3.25 54
      vertex 8 3.25 1.5
      vertex 10 3.25 1.5
    endloop
  endfacet
  facet normal 1 -0 0
    outer loop
      vertex 10 3.25 54
      vertex 10 8 1.5
      vertex 10 8 54
    endloop
  endfacet
  facet normal 1 0 0
    outer loop
      vertex 10 8 1.5
      vertex 10 3.25 54
      vertex 10 3.25 1.5
    endloop
  endfacet
  facet normal 0 1 -0
    outer loop
      vertex 10 8 1.5
      vertex -10 8 54
      vertex 10 8 54
    endloop
  endfacet
  facet normal 0 1 0
    outer loop
      vertex -10 8 54
      vertex 10 8 1.5
      vertex -10 8 1.5
    endloop
  endfacet
  facet normal 0 -1 0
    outer loop
      vertex -25 0 0
      vertex 25 0 54
      vertex -25 0 54
    endloop
  endfacet
  facet normal 0 -1 -0
    outer loop
      vertex 25 0 54
      vertex -25 0 0
      vertex 25 0 0
    endloop
  endfacet
  facet normal 1 -0 0
    outer loop
      vertex 25 0 54
      vertex 25 16.5 0
      vertex 25 16.5 54
    endloop
  endfacet
  facet normal 1 0 0
    outer loop
      vertex 25 16.5 0
      vertex 25 0 54
      vertex 25 0 0
    endloop
  endfacet
  facet normal 1 -0 0
    outer loop
      vertex -14.5 1.5 54
      vertex -14.5 16.5 1.5
      vertex -14.5 16.5 54
    endloop
  endfacet
  facet normal 1 0 0
    outer loop
      vertex -14.5 16.5 1.5
      vertex -14.5 1.5 54
      vertex -14.5 1.5 1.5
    endloop
  endfacet
  facet normal 0 1 -0
    outer loop
      vertex -8 1.5 1.5
      vertex -14.5 1.5 54
      vertex -8 1.5 54
    endloop
  endfacet
  facet normal 0 1 0
    outer loop
      vertex -14.5 1.5 54
      vertex -8 1.5 1.5
      vertex -14.5 1.5 1.5
    endloop
  endfacet
  facet normal -1 0 0
    outer loop
      vertex -8 1.5 1.5
      vertex -8 3.25 54
      vertex -8 3.25 1.5
    endloop
  endfacet
  facet normal -1 -0 0
    outer loop
      vertex -8 3.25 54
      vertex -8 1.5 1.5
      vertex -8 1.5 54
    endloop
  endfacet
  facet normal 0 -1 0
    outer loop
      vertex -10 3.25 1.5
      vertex -8 3.25 54
      vertex -10 3.25 54
    endloop
  endfacet
  facet normal 0 -1 -0
    outer loop
      vertex -8 3.25 54
      vertex -10 3.25 1.5
      vertex -8 3.25 1.5
    endloop
  endfacet
  facet normal -1 0 0
    outer loop
      vertex -10 3.25 1.5
      vertex -10 8 54
      vertex -10 8 1.5
    endloop
  endfacet
  facet normal -1 -0 0
    outer loop
      vertex -10 8 54
      vertex -10 3.25 1.5
      vertex -10 3.25 54
    endloop
  endfacet
  facet normal -1 0 0
    outer loop
      vertex -25 0 0
      vertex -25 16.5 54
      vertex -25 16.5 0
    endloop
  endfacet
  facet normal -1 -0 0
    outer loop
      vertex -25 16.5 54
      vertex -25 0 0
      vertex -25 0 54
    endloop
  endfacet
  facet normal 0 0 1
    outer loop
      vertex 14.5 16.5 1.5
      vertex 10 8 1.5
      vertex 14.5 1.5 1.5
    endloop
  endfacet
  facet normal 0 0 1
    outer loop
      vertex 14.5 16.5 1.5
      vertex -10 8 1.5
      vertex 10 8 1.5
    endloop
  endfacet
  facet normal 0 0 1
    outer loop
      vertex -14.5 1.5 1.5
      vertex -10 8 1.5
      vertex -14.5 16.5 1.5
    endloop
  endfacet
  facet normal -0 0 1
    outer loop
      vertex -14.5 16.5 1.5
      vertex -10 8 1.5
      vertex 14.5 16.5 1.5
    endloop
  endfacet
  facet normal -0 0 1
    outer loop
      vertex 10 3.25 1.5
      vertex 14.5 1.5 1.5
      vertex 10 8 1.5
    endloop
  endfacet
  facet normal 0 0 1
    outer loop
      vertex 8 1.5 1.5
      vertex 10 3.25 1.5
      vertex 8 3.25 1.5
    endloop
  endfacet
  facet normal 0 0 1
    outer loop
      vertex 10 3.25 1.5
      vertex 8 1.5 1.5
      vertex 14.5 1.5 1.5
    endloop
  endfacet
  facet normal -0 0 1
    outer loop
      vertex -10 3.25 1.5
      vertex -8 1.5 1.5
      vertex -8 3.25 1.5
    endloop
  endfacet
  facet normal 0 0 1
    outer loop
      vertex -10 3.25 1.5
      vertex -14.5 1.5 1.5
      vertex -8 1.5 1.5
    endloop
  endfacet
  facet normal 0 0 1
    outer loop
      vertex -10 8 1.5
      vertex -14.5 1.5 1.5
      vertex -10 3.25 1.5
    endloop
  endfacet
endsolid OpenSCAD_Model
