solid OpenSCAD_Model
  facet normal 0.207601 0.978214 -0
    outer loop
      vertex 49.309 17.9511 0
      vertex 49.1045 17.9945 35
      vertex 49.309 17.9511 35
    endloop
  endfacet
  facet normal 0.207601 0.978214 0
    outer loop
      vertex 49.1045 17.9945 35
      vertex 49.309 17.9511 0
      vertex 49.1045 17.9945 0
    endloop
  endfacet
  facet normal -0.207909 -0.978148 0
    outer loop
      vertex 0.690983 0.0489426 0
      vertex 0.895471 0.00547791 35
      vertex 0.690983 0.0489426 35
    endloop
  endfacet
  facet normal -0.207909 -0.978148 -0
    outer loop
      vertex 0.895471 0.00547791 35
      vertex 0.690983 0.0489426 0
      vertex 0.895471 0.00547791 0
    endloop
  endfacet
  facet normal -0.407012 0.913423 0
    outer loop
      vertex 0.690983 17.9511 0
      vertex 0.5 17.866 35
      vertex 0.690983 17.9511 35
    endloop
  endfacet
  facet normal -0.407012 0.913423 0
    outer loop
      vertex 0.5 17.866 35
      vertex 0.690983 17.9511 0
      vertex 0.5 17.866 0
    endloop
  endfacet
  facet normal -0.866087 0.499894 0
    outer loop
      vertex 0.0864544 17.4067 0
      vertex 0.190983 17.5878 35
      vertex 0.190983 17.5878 0
    endloop
  endfacet
  facet normal -0.866087 0.499894 0
    outer loop
      vertex 0.190983 17.5878 35
      vertex 0.0864544 17.4067 0
      vertex 0.0864544 17.4067 35
    endloop
  endfacet
  facet normal -0.207613 0.978211 0
    outer loop
      vertex 0.895471 17.9945 0
      vertex 0.690983 17.9511 35
      vertex 0.895471 17.9945 35
    endloop
  endfacet
  facet normal -0.207613 0.978211 0
    outer loop
      vertex 0.690983 17.9511 35
      vertex 0.895471 17.9945 0
      vertex 0.690983 17.9511 0
    endloop
  endfacet
  facet normal -0.743145 -0.669131 0
    outer loop
      vertex 0.330869 0.256855 0
      vertex 0.190983 0.412214 35
      vertex 0.190983 0.412214 0
    endloop
  endfacet
  facet normal -0.743145 -0.669131 0
    outer loop
      vertex 0.190983 0.412214 35
      vertex 0.330869 0.256855 0
      vertex 0.330869 0.256855 35
    endloop
  endfacet
  facet normal 0 -1 0
    outer loop
      vertex 0.895471 0.00547791 0
      vertex 49.1045 0.00547791 35
      vertex 0.895471 0.00547791 35
    endloop
  endfacet
  facet normal 0 -1 -0
    outer loop
      vertex 49.1045 0.00547791 35
      vertex 0.895471 0.00547791 0
      vertex 49.1045 0.00547791 0
    endloop
  endfacet
  facet normal 0.742985 0.669308 0
    outer loop
      vertex 49.809 17.5878 35
      vertex 49.6691 17.7431 0
      vertex 49.6691 17.7431 35
    endloop
  endfacet
  facet normal 0.742985 0.669308 0
    outer loop
      vertex 49.6691 17.7431 0
      vertex 49.809 17.5878 35
      vertex 49.809 17.5878 0
    endloop
  endfacet
  facet normal 0.207897 -0.978151 0
    outer loop
      vertex 49.1045 0.00547791 0
      vertex 49.309 0.0489426 35
      vertex 49.1045 0.00547791 35
    endloop
  endfacet
  facet normal 0.207897 -0.978151 0
    outer loop
      vertex 49.309 0.0489426 35
      vertex 49.1045 0.00547791 0
      vertex 49.309 0.0489426 0
    endloop
  endfacet
  facet normal -0.743018 0.669271 0
    outer loop
      vertex 0.190983 17.5878 0
      vertex 0.330869 17.7431 35
      vertex 0.330869 17.7431 0
    endloop
  endfacet
  facet normal -0.743018 0.669271 0
    outer loop
      vertex 0.330869 17.7431 35
      vertex 0.190983 17.5878 0
      vertex 0.190983 17.5878 35
    endloop
  endfacet
  facet normal -0.587786 -0.809017 0
    outer loop
      vertex 0.330869 0.256855 0
      vertex 0.5 0.133974 35
      vertex 0.330869 0.256855 35
    endloop
  endfacet
  facet normal -0.587786 -0.809017 -0
    outer loop
      vertex 0.5 0.133974 35
      vertex 0.330869 0.256855 0
      vertex 0.5 0.133974 0
    endloop
  endfacet
  facet normal -1 0 0
    outer loop
      vertex 0 1 0
      vertex 0 17 35
      vertex 0 17 0
    endloop
  endfacet
  facet normal -1 -0 0
    outer loop
      vertex 0 17 35
      vertex 0 1 0
      vertex 0 1 35
    endloop
  endfacet
  facet normal 0 0 -1
    outer loop
      vertex 49.1045 0.00547791 0
      vertex 50 1 0
      vertex 49.9781 0.792088 0
    endloop
  endfacet
  facet normal 0 0 -1
    outer loop
      vertex 50 1 0
      vertex 39.5 1.5 0
      vertex 50 17 0
    endloop
  endfacet
  facet normal 0 0 -1
    outer loop
      vertex 49.1045 0.00547791 0
      vertex 49.9781 0.792088 0
      vertex 49.9135 0.593263 0
    endloop
  endfacet
  facet normal 0 0 -1
    outer loop
      vertex 39.5 16.5 0
      vertex 50 17 0
      vertex 39.5 1.5 0
    endloop
  endfacet
  facet normal 0 0 -1
    outer loop
      vertex 49.1045 0.00547791 0
      vertex 49.9135 0.593263 0
      vertex 49.809 0.412214 0
    endloop
  endfacet
  facet normal 0 -0 -1
    outer loop
      vertex 49.1045 17.9945 0
      vertex 50 17 0
      vertex 39.5 16.5 0
    endloop
  endfacet
  facet normal 0 0 -1
    outer loop
      vertex 49.1045 0.00547791 0
      vertex 49.809 0.412214 0
      vertex 49.6691 0.256855 0
    endloop
  endfacet
  facet normal 0 0 -1
    outer loop
      vertex 50 17 0
      vertex 49.1045 17.9945 0
      vertex 49.9781 17.2079 0
    endloop
  endfacet
  facet normal 0 0 -1
    outer loop
      vertex 49.1045 0.00547791 0
      vertex 49.6691 0.256855 0
      vertex 49.5 0.133974 0
    endloop
  endfacet
  facet normal -0 0 -1
    outer loop
      vertex 50 1 0
      vertex 49.1045 0.00547791 0
      vertex 39.5 1.5 0
    endloop
  endfacet
  facet normal 0 0 -1
    outer loop
      vertex 49.1045 0.00547791 0
      vertex 49.5 0.133974 0
      vertex 49.309 0.0489426 0
    endloop
  endfacet
  facet normal 0 0 -1
    outer loop
      vertex 49.9781 17.2079 0
      vertex 49.1045 17.9945 0
      vertex 49.9135 17.4067 0
    endloop
  endfacet
  facet normal 0 0 -1
    outer loop
      vertex 49.6691 17.7431 0
      vertex 49.1045 17.9945 0
      vertex 49.5 17.866 0
    endloop
  endfacet
  facet normal 0 0 -1
    outer loop
      vertex 49.5 17.866 0
      vertex 49.1045 17.9945 0
      vertex 49.309 17.9511 0
    endloop
  endfacet
  facet normal 0 0 -1
    outer loop
      vertex 49.9135 17.4067 0
      vertex 49.1045 17.9945 0
      vertex 49.809 17.5878 0
    endloop
  endfacet
  facet normal 0 0 -1
    outer loop
      vertex 49.1045 0.00547791 0
      vertex 10.5 1.5 0
      vertex 39.5 1.5 0
    endloop
  endfacet
  facet normal 0 0 -1
    outer loop
      vertex 0 1 0
      vertex 10.5 1.5 0
      vertex 0.895471 0.00547791 0
    endloop
  endfacet
  facet normal 0 0 -1
    outer loop
      vertex 0.895471 0.00547791 0
      vertex 10.5 1.5 0
      vertex 49.1045 0.00547791 0
    endloop
  endfacet
  facet normal 0 0 -1
    outer loop
      vertex 49.809 17.5878 0
      vertex 49.1045 17.9945 0
      vertex 49.6691 17.7431 0
    endloop
  endfacet
  facet normal 0 0 -1
    outer loop
      vertex 10.5 16.5 0
      vertex 49.1045 17.9945 0
      vertex 39.5 16.5 0
    endloop
  endfacet
  facet normal 0 0 -1
    outer loop
      vertex 10.5 16.5 0
      vertex 0.895471 17.9945 0
      vertex 49.1045 17.9945 0
    endloop
  endfacet
  facet normal -0 0 -1
    outer loop
      vertex 10.5 1.5 0
      vertex 0 1 0
      vertex 10.5 16.5 0
    endloop
  endfacet
  facet normal 0 0 -1
    outer loop
      vertex 0 1 0
      vertex 0.895471 0.00547791 0
      vertex 0.690983 0.0489426 0
    endloop
  endfacet
  facet normal 0 0 -1
    outer loop
      vertex 0 17 0
      vertex 10.5 16.5 0
      vertex 0 1 0
    endloop
  endfacet
  facet normal 0 0 -1
    outer loop
      vertex 0 1 0
      vertex 0.690983 0.0489426 0
      vertex 0.5 0.133974 0
    endloop
  endfacet
  facet normal 0 0 -1
    outer loop
      vertex 10.5 16.5 0
      vertex 0 17 0
      vertex 0.895471 17.9945 0
    endloop
  endfacet
  facet normal 0 0 -1
    outer loop
      vertex 0 1 0
      vertex 0.5 0.133974 0
      vertex 0.330869 0.256855 0
    endloop
  endfacet
  facet normal 0 0 -1
    outer loop
      vertex 0.895471 17.9945 0
      vertex 0 17 0
      vertex 0.690983 17.9511 0
    endloop
  endfacet
  facet normal 0 0 -1
    outer loop
      vertex 0 1 0
      vertex 0.330869 0.256855 0
      vertex 0.190983 0.412214 0
    endloop
  endfacet
  facet normal 0 0 -1
    outer loop
      vertex 0.690983 17.9511 0
      vertex 0 17 0
      vertex 0.5 17.866 0
    endloop
  endfacet
  facet normal 0 0 -1
    outer loop
      vertex 0 1 0
      vertex 0.190983 0.412214 0
      vertex 0.0864544 0.593263 0
    endloop
  endfacet
  facet normal 0 0 -1
    outer loop
      vertex 0.5 17.866 0
      vertex 0 17 0
      vertex 0.330869 17.7431 0
    endloop
  endfacet
  facet normal 0 0 -1
    outer loop
      vertex 0 1 0
      vertex 0.0864544 0.593263 0
      vertex 0.0218515 0.792088 0
    endloop
  endfacet
  facet normal 0 0 -1
    outer loop
      vertex 0.330869 17.7431 0
      vertex 0 17 0
      vertex 0.190983 17.5878 0
    endloop
  endfacet
  facet normal 0 0 -1
    outer loop
      vertex 0.190983 17.5878 0
      vertex 0 17 0
      vertex 0.0864544 17.4067 0
    endloop
  endfacet
  facet normal 0 0 -1
    outer loop
      vertex 0.0864544 17.4067 0
      vertex 0 17 0
      vertex 0.0218515 17.2079 0
    endloop
  endfacet
  facet normal -0.587845 0.808973 0
    outer loop
      vertex 0.5 17.866 0
      vertex 0.330869 17.7431 35
      vertex 0.5 17.866 35
    endloop
  endfacet
  facet normal -0.587845 0.808973 0
    outer loop
      vertex 0.330869 17.7431 35
      vertex 0.5 17.866 0
      vertex 0.330869 17.7431 0
    endloop
  endfacet
  facet normal 0 1 -0
    outer loop
      vertex 49.1045 17.9945 0
      vertex 0.895471 17.9945 35
      vertex 49.1045 17.9945 35
    endloop
  endfacet
  facet normal 0 1 0
    outer loop
      vertex 0.895471 17.9945 35
      vertex 49.1045 17.9945 0
      vertex 0.895471 17.9945 0
    endloop
  endfacet
  facet normal -0.866026 -0.5 0
    outer loop
      vertex 0.190983 0.412214 0
      vertex 0.0864544 0.593263 35
      vertex 0.0864544 0.593263 0
    endloop
  endfacet
  facet normal -0.866026 -0.5 0
    outer loop
      vertex 0.0864544 0.593263 35
      vertex 0.190983 0.412214 0
      vertex 0.190983 0.412214 35
    endloop
  endfacet
  facet normal -0.951055 -0.30902 0
    outer loop
      vertex 0.0864544 0.593263 0
      vertex 0.0218515 0.792088 35
      vertex 0.0218515 0.792088 0
    endloop
  endfacet
  facet normal -0.951055 -0.30902 0
    outer loop
      vertex 0.0218515 0.792088 35
      vertex 0.0864544 0.593263 0
      vertex 0.0864544 0.593263 35
    endloop
  endfacet
  facet normal 1 -0 0
    outer loop
      vertex 50 1 35
      vertex 50 17 0
      vertex 50 17 35
    endloop
  endfacet
  facet normal 1 0 0
    outer loop
      vertex 50 17 0
      vertex 50 1 35
      vertex 50 1 0
    endloop
  endfacet
  facet normal 0.406981 0.913436 -0
    outer loop
      vertex 49.5 17.866 0
      vertex 49.309 17.9511 35
      vertex 49.5 17.866 35
    endloop
  endfacet
  facet normal 0.406981 0.913436 0
    outer loop
      vertex 49.309 17.9511 35
      vertex 49.5 17.866 0
      vertex 49.309 17.9511 0
    endloop
  endfacet
  facet normal 0.951048 0.309043 0
    outer loop
      vertex 49.9781 17.2079 35
      vertex 49.9135 17.4067 0
      vertex 49.9135 17.4067 35
    endloop
  endfacet
  facet normal 0.951048 0.309043 0
    outer loop
      vertex 49.9135 17.4067 0
      vertex 49.9781 17.2079 35
      vertex 49.9781 17.2079 0
    endloop
  endfacet
  facet normal 0.406708 -0.913558 0
    outer loop
      vertex 49.309 0.0489426 0
      vertex 49.5 0.133974 35
      vertex 49.309 0.0489426 35
    endloop
  endfacet
  facet normal 0.406708 -0.913558 0
    outer loop
      vertex 49.5 0.133974 35
      vertex 49.309 0.0489426 0
      vertex 49.5 0.133974 0
    endloop
  endfacet
  facet normal 0.866146 0.499791 0
    outer loop
      vertex 49.9135 17.4067 35
      vertex 49.809 17.5878 0
      vertex 49.809 17.5878 35
    endloop
  endfacet
  facet normal 0.866146 0.499791 0
    outer loop
      vertex 49.809 17.5878 0
      vertex 49.9135 17.4067 35
      vertex 49.9135 17.4067 0
    endloop
  endfacet
  facet normal 0.994498 0.104759 0
    outer loop
      vertex 50 17 35
      vertex 49.9781 17.2079 0
      vertex 49.9781 17.2079 35
    endloop
  endfacet
  facet normal 0.994498 0.104759 0
    outer loop
      vertex 49.9781 17.2079 0
      vertex 50 17 35
      vertex 50 17 0
    endloop
  endfacet
  facet normal -0.994522 0.10453 0
    outer loop
      vertex 0 17 0
      vertex 0.0218515 17.2079 35
      vertex 0.0218515 17.2079 0
    endloop
  endfacet
  facet normal -0.994522 0.10453 0
    outer loop
      vertex 0.0218515 17.2079 35
      vertex 0 17 0
      vertex 0 17 35
    endloop
  endfacet
  facet normal 0.587856 -0.808965 0
    outer loop
      vertex 49.5 0.133974 0
      vertex 49.6691 0.256855 35
      vertex 49.5 0.133974 35
    endloop
  endfacet
  facet normal 0.587856 -0.808965 0
    outer loop
      vertex 49.6691 0.256855 35
      vertex 49.5 0.133974 0
      vertex 49.6691 0.256855 0
    endloop
  endfacet
  facet normal 0.587916 0.808922 -0
    outer loop
      vertex 49.6691 17.7431 0
      vertex 49.5 17.866 35
      vertex 49.6691 17.7431 35
    endloop
  endfacet
  facet normal 0.587916 0.808922 0
    outer loop
      vertex 49.5 17.866 35
      vertex 49.6691 17.7431 0
      vertex 49.5 17.866 0
    endloop
  endfacet
  facet normal -0.406738 -0.913545 0
    outer loop
      vertex 0.5 0.133974 0
      vertex 0.690983 0.0489426 35
      vertex 0.5 0.133974 35
    endloop
  endfacet
  facet normal -0.406738 -0.913545 -0
    outer loop
      vertex 0.690983 0.0489426 35
      vertex 0.5 0.133974 0
      vertex 0.690983 0.0489426 0
    endloop
  endfacet
  facet normal 0.743111 -0.669168 0
    outer loop
      vertex 49.6691 0.256855 35
      vertex 49.809 0.412214 0
      vertex 49.809 0.412214 35
    endloop
  endfacet
  facet normal 0.743111 -0.669168 0
    outer loop
      vertex 49.809 0.412214 0
      vertex 49.6691 0.256855 35
      vertex 49.6691 0.256855 0
    endloop
  endfacet
  facet normal -0.994522 -0.104524 0
    outer loop
      vertex 0.0218515 0.792088 0
      vertex 0 1 35
      vertex 0 1 0
    endloop
  endfacet
  facet normal -0.994522 -0.104524 0
    outer loop
      vertex 0 1 35
      vertex 0.0218515 0.792088 0
      vertex 0.0218515 0.792088 35
    endloop
  endfacet
  facet normal 0.95106 -0.309008 0
    outer loop
      vertex 49.9135 0.593263 35
      vertex 49.9781 0.792088 0
      vertex 49.9781 0.792088 35
    endloop
  endfacet
  facet normal 0.95106 -0.309008 0
    outer loop
      vertex 49.9781 0.792088 0
      vertex 49.9135 0.593263 35
      vertex 49.9135 0.593263 0
    endloop
  endfacet
  facet normal 0.994498 -0.104754 0
    outer loop
      vertex 49.9781 0.792088 35
      vertex 50 1 0
      vertex 50 1 35
    endloop
  endfacet
  facet normal 0.994498 -0.104754 0
    outer loop
      vertex 50 1 0
      vertex 49.9781 0.792088 35
      vertex 49.9781 0.792088 0
    endloop
  endfacet
  facet normal -0.951044 0.309055 0
    outer loop
      vertex 0.0218515 17.2079 0
      vertex 0.0864544 17.4067 35
      vertex 0.0864544 17.4067 0
    endloop
  endfacet
  facet normal -0.951044 0.309055 0
    outer loop
      vertex 0.0864544 17.4067 35
      vertex 0.0218515 17.2079 0
      vertex 0.0218515 17.2079 35
    endloop
  endfacet
  facet normal 0.866085 -0.499897 0
    outer loop
      vertex 49.809 0.412214 35
      vertex 49.9135 0.593263 0
      vertex 49.9135 0.593263 35
    endloop
  endfacet
  facet normal 0.866085 -0.499897 0
    outer loop
      vertex 49.9135 0.593263 0
      vertex 49.809 0.412214 35
      vertex 49.809 0.412214 0
    endloop
  endfacet
  facet normal 0 0 1
    outer loop
      vertex 49.1045 17.9945 35
      vertex 50 17 35
      vertex 49.9781 17.2079 35
    endloop
  endfacet
  facet normal 0 0 1
    outer loop
      vertex 50 17 35
      vertex 39.5 16.5 35
      vertex 50 1 35
    endloop
  endfacet
  facet normal 0 0 1
    outer loop
      vertex 49.1045 17.9945 35
      vertex 49.9781 17.2079 35
      vertex 49.9135 17.4067 35
    endloop
  endfacet
  facet normal -0 0 1
    outer loop
      vertex 39.5 1.5 35
      vertex 50 1 35
      vertex 39.5 16.5 35
    endloop
  endfacet
  facet normal 0 0 1
    outer loop
      vertex 49.1045 17.9945 35
      vertex 49.9135 17.4067 35
      vertex 49.809 17.5878 35
    endloop
  endfacet
  facet normal 0 -0 1
    outer loop
      vertex 49.1045 0.00547791 35
      vertex 50 1 35
      vertex 39.5 1.5 35
    endloop
  endfacet
  facet normal 0 0 1
    outer loop
      vertex 49.1045 17.9945 35
      vertex 49.809 17.5878 35
      vertex 49.6691 17.7431 35
    endloop
  endfacet
  facet normal 0 0 1
    outer loop
      vertex 50 1 35
      vertex 49.1045 0.00547791 35
      vertex 49.9781 0.792088 35
    endloop
  endfacet
  facet normal 0 0 1
    outer loop
      vertex 49.1045 17.9945 35
      vertex 49.6691 17.7431 35
      vertex 49.5 17.866 35
    endloop
  endfacet
  facet normal 0 0 1
    outer loop
      vertex 50 17 35
      vertex 49.1045 17.9945 35
      vertex 39.5 16.5 35
    endloop
  endfacet
  facet normal 0 0 1
    outer loop
      vertex 49.1045 17.9945 35
      vertex 49.5 17.866 35
      vertex 49.309 17.9511 35
    endloop
  endfacet
  facet normal 0 0 1
    outer loop
      vertex 49.9781 0.792088 35
      vertex 49.1045 0.00547791 35
      vertex 49.9135 0.593263 35
    endloop
  endfacet
  facet normal 0 0 1
    outer loop
      vertex 49.6691 0.256855 35
      vertex 49.1045 0.00547791 35
      vertex 49.5 0.133974 35
    endloop
  endfacet
  facet normal 0 0 1
    outer loop
      vertex 49.5 0.133974 35
      vertex 49.1045 0.00547791 35
      vertex 49.309 0.0489426 35
    endloop
  endfacet
  facet normal 0 0 1
    outer loop
      vertex 49.9135 0.593263 35
      vertex 49.1045 0.00547791 35
      vertex 49.809 0.412214 35
    endloop
  endfacet
  facet normal 0 0 1
    outer loop
      vertex 49.1045 17.9945 35
      vertex 10.5 16.5 35
      vertex 39.5 16.5 35
    endloop
  endfacet
  facet normal -0 0 1
    outer loop
      vertex 0 17 35
      vertex 10.5 16.5 35
      vertex 0.895471 17.9945 35
    endloop
  endfacet
  facet normal -0 0 1
    outer loop
      vertex 0.895471 17.9945 35
      vertex 10.5 16.5 35
      vertex 49.1045 17.9945 35
    endloop
  endfacet
  facet normal 0 0 1
    outer loop
      vertex 49.809 0.412214 35
      vertex 49.1045 0.00547791 35
      vertex 49.6691 0.256855 35
    endloop
  endfacet
  facet normal -0 0 1
    outer loop
      vertex 10.5 1.5 35
      vertex 49.1045 0.00547791 35
      vertex 39.5 1.5 35
    endloop
  endfacet
  facet normal 0 0 1
    outer loop
      vertex 10.5 1.5 35
      vertex 0.895471 0.00547791 35
      vertex 49.1045 0.00547791 35
    endloop
  endfacet
  facet normal 0 0 1
    outer loop
      vertex 10.5 16.5 35
      vertex 0 17 35
      vertex 10.5 1.5 35
    endloop
  endfacet
  facet normal 0 0 1
    outer loop
      vertex 0 17 35
      vertex 0.895471 17.9945 35
      vertex 0.690983 17.9511 35
    endloop
  endfacet
  facet normal 0 0 1
    outer loop
      vertex 0 1 35
      vertex 10.5 1.5 35
      vertex 0 17 35
    endloop
  endfacet
  facet normal 0 0 1
    outer loop
      vertex 0 17 35
      vertex 0.690983 17.9511 35
      vertex 0.5 17.866 35
    endloop
  endfacet
  facet normal 0 0 1
    outer loop
      vertex 10.5 1.5 35
      vertex 0 1 35
      vertex 0.895471 0.00547791 35
    endloop
  endfacet
  facet normal 0 0 1
    outer loop
      vertex 0 17 35
      vertex 0.5 17.866 35
      vertex 0.330869 17.7431 35
    endloop
  endfacet
  facet normal 0 0 1
    outer loop
      vertex 0.895471 0.00547791 35
      vertex 0 1 35
      vertex 0.690983 0.0489426 35
    endloop
  endfacet
  facet normal 0 0 1
    outer loop
      vertex 0 17 35
      vertex 0.330869 17.7431 35
      vertex 0.190983 17.5878 35
    endloop
  endfacet
  facet normal 0 0 1
    outer loop
      vertex 0.690983 0.0489426 35
      vertex 0 1 35
      vertex 0.5 0.133974 35
    endloop
  endfacet
  facet normal 0 0 1
    outer loop
      vertex 0 17 35
      vertex 0.190983 17.5878 35
      vertex 0.0864544 17.4067 35
    endloop
  endfacet
  facet normal 0 0 1
    outer loop
      vertex 0.5 0.133974 35
      vertex 0 1 35
      vertex 0.330869 0.256855 35
    endloop
  endfacet
  facet normal 0 0 1
    outer loop
      vertex 0 17 35
      vertex 0.0864544 17.4067 35
      vertex 0.0218515 17.2079 35
    endloop
  endfacet
  facet normal 0 0 1
    outer loop
      vertex 0.330869 0.256855 35
      vertex 0 1 35
      vertex 0.190983 0.412214 35
    endloop
  endfacet
  facet normal 0 0 1
    outer loop
      vertex 0.190983 0.412214 35
      vertex 0 1 35
      vertex 0.0864544 0.593263 35
    endloop
  endfacet
  facet normal 0 0 1
    outer loop
      vertex 0.0864544 0.593263 35
      vertex 0 1 35
      vertex 0.0218515 0.792088 35
    endloop
  endfacet
  facet normal -1 0 0
    outer loop
      vertex 39.5 1.5 0
      vertex 39.5 16.5 35
      vertex 39.5 16.5 0
    endloop
  endfacet
  facet normal -1 -0 0
    outer loop
      vertex 39.5 16.5 35
      vertex 39.5 1.5 0
      vertex 39.5 1.5 35
    endloop
  endfacet
  facet normal 1 -0 0
    outer loop
      vertex 10.5 1.5 35
      vertex 10.5 16.5 0
      vertex 10.5 16.5 35
    endloop
  endfacet
  facet normal 1 0 0
    outer loop
      vertex 10.5 16.5 0
      vertex 10.5 1.5 35
      vertex 10.5 1.5 0
    endloop
  endfacet
  facet normal 0 -1 0
    outer loop
      vertex 10.5 16.5 0
      vertex 39.5 16.5 35
      vertex 10.5 16.5 35
    endloop
  endfacet
  facet normal 0 -1 -0
    outer loop
      vertex 39.5 16.5 35
      vertex 10.5 16.5 0
      vertex 39.5 16.5 0
    endloop
  endfacet
  facet normal 0 1 -0
    outer loop
      vertex 39.5 1.5 0
      vertex 10.5 1.5 35
      vertex 39.5 1.5 35
    endloop
  endfacet
  facet normal 0 1 0
    outer loop
      vertex 10.5 1.5 35
      vertex 39.5 1.5 0
      vertex 10.5 1.5 0
    endloop
  endfacet
endsolid OpenSCAD_Model
