solid OpenSCAD_Model
  facet normal -0.994453 -0.105183 0
    outer loop
      vertex -8 -4.5 0
      vertex -7.934 -5.124 0
      vertex -8 -4.5 4
    endloop
  endfacet
  facet normal -0.994453 -0.105183 0
    outer loop
      vertex -8 -4.5 4
      vertex -7.934 -5.124 0
      vertex -7.934 -5.124 4
    endloop
  endfacet
  facet normal 0 0 -1
    outer loop
      vertex -8 -4.5 0
      vertex -8 7.5 0
      vertex -7.934 -5.124 0
    endloop
  endfacet
  facet normal 0 0 -1
    outer loop
      vertex -7.934 -5.124 0
      vertex -8 7.5 0
      vertex -7.934 8.124 0
    endloop
  endfacet
  facet normal 0 0 -1
    outer loop
      vertex -7.934 -5.124 0
      vertex -7.934 8.124 0
      vertex -7.741 8.72 0
    endloop
  endfacet
  facet normal 0 0 -1
    outer loop
      vertex -7.934 -5.124 0
      vertex -7.741 8.72 0
      vertex -7.427 9.263 0
    endloop
  endfacet
  facet normal 0 0 -1
    outer loop
      vertex -7.934 -5.124 0
      vertex -7.427 9.263 0
      vertex -7.007 9.729 0
    endloop
  endfacet
  facet normal 0 0 -1
    outer loop
      vertex -7.934 -5.124 0
      vertex -7.007 9.729 0
      vertex -6.5 10.098 0
    endloop
  endfacet
  facet normal 0 0 -1
    outer loop
      vertex -7.934 -5.124 0
      vertex -6.5 10.098 0
      vertex -5.927 10.353 0
    endloop
  endfacet
  facet normal 0 0 -1
    outer loop
      vertex -7.934 -5.124 0
      vertex -5.927 10.353 0
      vertex -5.314 10.484 0
    endloop
  endfacet
  facet normal 0 0 -1
    outer loop
      vertex -7.934 -5.124 0
      vertex -5.314 10.484 0
      vertex 5.314 10.484 0
    endloop
  endfacet
  facet normal 0 0 -1
    outer loop
      vertex -7.934 -5.124 0
      vertex 5.314 10.484 0
      vertex 5.927 10.353 0
    endloop
  endfacet
  facet normal 0 0 -1
    outer loop
      vertex -7.934 -5.124 0
      vertex 5.927 10.353 0
      vertex 6.5 10.098 0
    endloop
  endfacet
  facet normal 0 0 -1
    outer loop
      vertex -7.934 -5.124 0
      vertex 6.5 10.098 0
      vertex 7.007 9.729 0
    endloop
  endfacet
  facet normal 0 0 -1
    outer loop
      vertex -7.934 -5.124 0
      vertex 7.007 9.729 0
      vertex 7.427 9.263 0
    endloop
  endfacet
  facet normal 0 0 -1
    outer loop
      vertex -7.934 -5.124 0
      vertex 7.427 9.263 0
      vertex 7.741 8.72 0
    endloop
  endfacet
  facet normal 0 0 -1
    outer loop
      vertex -7.934 -5.124 0
      vertex 7.741 8.72 0
      vertex 7.934 8.124 0
    endloop
  endfacet
  facet normal 0 0 -1
    outer loop
      vertex -7.934 -5.124 0
      vertex 7.934 8.124 0
      vertex 8 7.5 0
    endloop
  endfacet
  facet normal 0 0 -1
    outer loop
      vertex -7.934 -5.124 0
      vertex 8 7.5 0
      vertex 8 -4.5 0
    endloop
  endfacet
  facet normal 0 0 -1
    outer loop
      vertex -7.934 -5.124 0
      vertex 8 -4.5 0
      vertex 7.934 -5.124 0
    endloop
  endfacet
  facet normal 0 0 -1
    outer loop
      vertex -7.934 -5.124 0
      vertex 7.934 -5.124 0
      vertex 7.741 -5.72 0
    endloop
  endfacet
  facet normal 0 0 -1
    outer loop
      vertex -7.934 -5.124 0
      vertex 7.741 -5.72 0
      vertex 7.427 -6.263 0
    endloop
  endfacet
  facet normal 0 0 -1
    outer loop
      vertex -7.934 -5.124 0
      vertex 7.427 -6.263 0
      vertex 7.007 -6.729 0
    endloop
  endfacet
  facet normal 0 0 -1
    outer loop
      vertex -7.934 -5.124 0
      vertex 7.007 -6.729 0
      vertex 6.5 -7.098 0
    endloop
  endfacet
  facet normal 0 0 -1
    outer loop
      vertex -7.934 -5.124 0
      vertex 6.5 -7.098 0
      vertex 5.927 -7.353 0
    endloop
  endfacet
  facet normal 0 0 -1
    outer loop
      vertex -7.934 -5.124 0
      vertex 5.927 -7.353 0
      vertex 5.314 -7.484 0
    endloop
  endfacet
  facet normal 0 0 -1
    outer loop
      vertex -7.934 -5.124 0
      vertex 5.314 -7.484 0
      vertex -5.314 -7.484 0
    endloop
  endfacet
  facet normal 0 0 -1
    outer loop
      vertex -7.934 -5.124 0
      vertex -5.314 -7.484 0
      vertex -5.927 -7.353 0
    endloop
  endfacet
  facet normal 0 0 -1
    outer loop
      vertex -7.934 -5.124 0
      vertex -5.927 -7.353 0
      vertex -6.5 -7.098 0
    endloop
  endfacet
  facet normal 0 0 -1
    outer loop
      vertex -7.934 -5.124 0
      vertex -6.5 -7.098 0
      vertex -7.007 -6.729 0
    endloop
  endfacet
  facet normal 0 0 -1
    outer loop
      vertex -7.934 -5.124 0
      vertex -7.007 -6.729 0
      vertex -7.427 -6.263 0
    endloop
  endfacet
  facet normal 0 0 -1
    outer loop
      vertex -7.934 -5.124 0
      vertex -7.427 -6.263 0
      vertex -7.741 -5.72 0
    endloop
  endfacet
  facet normal -1 0 0
    outer loop
      vertex -8 -4.5 0
      vertex -8 -4.5 4
      vertex -8 7.5 0
    endloop
  endfacet
  facet normal -1 0 0
    outer loop
      vertex -8 7.5 0
      vertex -8 -4.5 4
      vertex -8 7.5 4
    endloop
  endfacet
  facet normal 0 0 1
    outer loop
      vertex -8 7.5 4
      vertex -8 -4.5 4
      vertex -7.934 -5.124 4
    endloop
  endfacet
  facet normal 0 0 1
    outer loop
      vertex -7.5 -4.7 4
      vertex -8 7.5 4
      vertex -7.741 -5.72 4
    endloop
  endfacet
  facet normal 0 0 1
    outer loop
      vertex -7.741 -5.72 4
      vertex -8 7.5 4
      vertex -7.934 -5.124 4
    endloop
  endfacet
  facet normal 0 0 1
    outer loop
      vertex -7.5 -1.7 4
      vertex 7.5 -1.7 4
      vertex -7.5 1.7 4
    endloop
  endfacet
  facet normal 0 0 1
    outer loop
      vertex 7.934 8.124 4
      vertex -8 7.5 4
      vertex 8 7.5 4
    endloop
  endfacet
  facet normal 0 0 1
    outer loop
      vertex 7.741 8.72 4
      vertex -8 7.5 4
      vertex 7.934 8.124 4
    endloop
  endfacet
  facet normal 0 0 1
    outer loop
      vertex 7.427 9.263 4
      vertex -8 7.5 4
      vertex 7.741 8.72 4
    endloop
  endfacet
  facet normal 0 0 1
    outer loop
      vertex 7.007 9.729 4
      vertex -8 7.5 4
      vertex 7.427 9.263 4
    endloop
  endfacet
  facet normal 0 0 1
    outer loop
      vertex 6.5 10.098 4
      vertex -8 7.5 4
      vertex 7.007 9.729 4
    endloop
  endfacet
  facet normal 0 0 1
    outer loop
      vertex 5.927 10.353 4
      vertex -8 7.5 4
      vertex 6.5 10.098 4
    endloop
  endfacet
  facet normal 0 0 1
    outer loop
      vertex 5.314 10.484 4
      vertex -8 7.5 4
      vertex 5.927 10.353 4
    endloop
  endfacet
  facet normal 0 0 1
    outer loop
      vertex -5.314 10.484 4
      vertex -8 7.5 4
      vertex 5.314 10.484 4
    endloop
  endfacet
  facet normal 0 0 1
    outer loop
      vertex -5.927 10.353 4
      vertex -8 7.5 4
      vertex -5.314 10.484 4
    endloop
  endfacet
  facet normal 0 0 1
    outer loop
      vertex -6.5 10.098 4
      vertex -8 7.5 4
      vertex -5.927 10.353 4
    endloop
  endfacet
  facet normal 0 0 1
    outer loop
      vertex -7.007 9.729 4
      vertex -8 7.5 4
      vertex -6.5 10.098 4
    endloop
  endfacet
  facet normal 0 0 1
    outer loop
      vertex -7.427 9.263 4
      vertex -8 7.5 4
      vertex -7.007 9.729 4
    endloop
  endfacet
  facet normal 0 0 1
    outer loop
      vertex -7.741 8.72 4
      vertex -8 7.5 4
      vertex -7.427 9.263 4
    endloop
  endfacet
  facet normal 0 0 1
    outer loop
      vertex -7.934 8.124 4
      vertex -8 7.5 4
      vertex -7.741 8.72 4
    endloop
  endfacet
  facet normal 0 0 1
    outer loop
      vertex -7.427 -6.263 4
      vertex -7.5 -4.7 4
      vertex -7.741 -5.72 4
    endloop
  endfacet
  facet normal 0 0 1
    outer loop
      vertex 7.5 -1.7 4
      vertex 7.5 -4.7 4
      vertex 8 -4.5 4
    endloop
  endfacet
  facet normal 0 0 1
    outer loop
      vertex -7.5 4.7 4
      vertex 7.5 4.7 4
      vertex -8 7.5 4
    endloop
  endfacet
  facet normal 0 0 1
    outer loop
      vertex 8 7.5 4
      vertex 7.5 -1.7 4
      vertex 8 -4.5 4
    endloop
  endfacet
  facet normal 0 0 1
    outer loop
      vertex 8 -4.5 4
      vertex 7.5 -4.7 4
      vertex 7.934 -5.124 4
    endloop
  endfacet
  facet normal 0 0 1
    outer loop
      vertex 8 7.5 4
      vertex 7.5 4.7 4
      vertex 7.5 1.7 4
    endloop
  endfacet
  facet normal 0 0 1
    outer loop
      vertex 8 7.5 4
      vertex -8 7.5 4
      vertex 7.5 4.7 4
    endloop
  endfacet
  facet normal 0 0 1
    outer loop
      vertex 8 7.5 4
      vertex 7.5 1.7 4
      vertex 7.5 -1.7 4
    endloop
  endfacet
  facet normal 0 0 1
    outer loop
      vertex -7.5 -4.7 4
      vertex -7.5 -1.7 4
      vertex -8 7.5 4
    endloop
  endfacet
  facet normal 0 0 1
    outer loop
      vertex -7.5 -1.7 4
      vertex -7.5 1.7 4
      vertex -8 7.5 4
    endloop
  endfacet
  facet normal 0 0 1
    outer loop
      vertex -7.5 1.7 4
      vertex -7.5 4.7 4
      vertex -8 7.5 4
    endloop
  endfacet
  facet normal 0 0 1
    outer loop
      vertex 7.5 1.7 4
      vertex -7.5 1.7 4
      vertex 7.5 -1.7 4
    endloop
  endfacet
  facet normal 0 0 1
    outer loop
      vertex 7.5 -4.7 4
      vertex 7.741 -5.72 4
      vertex 7.934 -5.124 4
    endloop
  endfacet
  facet normal 0 0 1
    outer loop
      vertex 7.5 -4.7 4
      vertex 7.427 -6.263 4
      vertex 7.741 -5.72 4
    endloop
  endfacet
  facet normal 0 0 1
    outer loop
      vertex 7.5 -4.7 4
      vertex 7.007 -6.729 4
      vertex 7.427 -6.263 4
    endloop
  endfacet
  facet normal 0 0 1
    outer loop
      vertex 7.5 -4.7 4
      vertex 6.5 -7.098 4
      vertex 7.007 -6.729 4
    endloop
  endfacet
  facet normal 0 0 1
    outer loop
      vertex 7.5 -4.7 4
      vertex 5.927 -7.353 4
      vertex 6.5 -7.098 4
    endloop
  endfacet
  facet normal 0 0 1
    outer loop
      vertex 7.5 -4.7 4
      vertex 5.314 -7.484 4
      vertex 5.927 -7.353 4
    endloop
  endfacet
  facet normal 0 0 1
    outer loop
      vertex 7.5 -4.7 4
      vertex -5.314 -7.484 4
      vertex 5.314 -7.484 4
    endloop
  endfacet
  facet normal 0 0 1
    outer loop
      vertex 7.5 -4.7 4
      vertex -5.927 -7.353 4
      vertex -5.314 -7.484 4
    endloop
  endfacet
  facet normal 0 0 1
    outer loop
      vertex 7.5 -4.7 4
      vertex -6.5 -7.098 4
      vertex -5.927 -7.353 4
    endloop
  endfacet
  facet normal 0 0 1
    outer loop
      vertex 7.5 -4.7 4
      vertex -7.007 -6.729 4
      vertex -6.5 -7.098 4
    endloop
  endfacet
  facet normal 0 0 1
    outer loop
      vertex 7.5 -4.7 4
      vertex -7.427 -6.263 4
      vertex -7.007 -6.729 4
    endloop
  endfacet
  facet normal 0 0 1
    outer loop
      vertex 7.5 -4.7 4
      vertex -7.5 -4.7 4
      vertex -7.427 -6.263 4
    endloop
  endfacet
  facet normal -0.951362 -0.308075 0
    outer loop
      vertex -7.934 -5.124 0
      vertex -7.741 -5.72 0
      vertex -7.934 -5.124 4
    endloop
  endfacet
  facet normal -0.951362 -0.308075 0
    outer loop
      vertex -7.934 -5.124 4
      vertex -7.741 -5.72 0
      vertex -7.741 -5.72 4
    endloop
  endfacet
  facet normal -0.865681 -0.500596 0
    outer loop
      vertex -7.741 -5.72 0
      vertex -7.427 -6.263 0
      vertex -7.741 -5.72 4
    endloop
  endfacet
  facet normal -0.865681 -0.500596 0
    outer loop
      vertex -7.741 -5.72 4
      vertex -7.427 -6.263 0
      vertex -7.427 -6.263 4
    endloop
  endfacet
  facet normal -0.742818 -0.669493 0
    outer loop
      vertex -7.427 -6.263 0
      vertex -7.007 -6.729 0
      vertex -7.427 -6.263 4
    endloop
  endfacet
  facet normal -0.742818 -0.669493 0
    outer loop
      vertex -7.427 -6.263 4
      vertex -7.007 -6.729 0
      vertex -7.007 -6.729 4
    endloop
  endfacet
  facet normal -0.588456 -0.808529 0
    outer loop
      vertex -7.007 -6.729 4
      vertex -7.007 -6.729 0
      vertex -6.5 -7.098 0
    endloop
  endfacet
  facet normal -0.588456 -0.808529 0
    outer loop
      vertex -6.5 -7.098 4
      vertex -7.007 -6.729 4
      vertex -6.5 -7.098 0
    endloop
  endfacet
  facet normal -0.406582 -0.913614 0
    outer loop
      vertex -6.5 -7.098 4
      vertex -6.5 -7.098 0
      vertex -5.927 -7.353 0
    endloop
  endfacet
  facet normal -0.406582 -0.913614 0
    outer loop
      vertex -5.927 -7.353 4
      vertex -6.5 -7.098 4
      vertex -5.927 -7.353 0
    endloop
  endfacet
  facet normal -0.208984 -0.977919 0
    outer loop
      vertex -5.927 -7.353 4
      vertex -5.927 -7.353 0
      vertex -5.314 -7.484 0
    endloop
  endfacet
  facet normal -0.208984 -0.977919 0
    outer loop
      vertex -5.314 -7.484 4
      vertex -5.927 -7.353 4
      vertex -5.314 -7.484 0
    endloop
  endfacet
  facet normal 0 -1 0
    outer loop
      vertex -5.314 -7.484 4
      vertex -5.314 -7.484 0
      vertex 5.314 -7.484 0
    endloop
  endfacet
  facet normal 0 -1 0
    outer loop
      vertex 5.314 -7.484 4
      vertex -5.314 -7.484 4
      vertex 5.314 -7.484 0
    endloop
  endfacet
  facet normal 0.208984 -0.977919 0
    outer loop
      vertex 5.314 -7.484 4
      vertex 5.314 -7.484 0
      vertex 5.927 -7.353 0
    endloop
  endfacet
  facet normal 0.208984 -0.977919 0
    outer loop
      vertex 5.927 -7.353 4
      vertex 5.314 -7.484 4
      vertex 5.927 -7.353 0
    endloop
  endfacet
  facet normal 0.406582 -0.913614 0
    outer loop
      vertex 5.927 -7.353 4
      vertex 5.927 -7.353 0
      vertex 6.5 -7.098 0
    endloop
  endfacet
  facet normal 0.406582 -0.913614 0
    outer loop
      vertex 6.5 -7.098 4
      vertex 5.927 -7.353 4
      vertex 6.5 -7.098 0
    endloop
  endfacet
  facet normal 0.588456 -0.808529 0
    outer loop
      vertex 6.5 -7.098 4
      vertex 6.5 -7.098 0
      vertex 7.007 -6.729 0
    endloop
  endfacet
  facet normal 0.588456 -0.808529 0
    outer loop
      vertex 7.007 -6.729 4
      vertex 6.5 -7.098 4
      vertex 7.007 -6.729 0
    endloop
  endfacet
  facet normal 0.742818 -0.669493 0
    outer loop
      vertex 7.007 -6.729 4
      vertex 7.007 -6.729 0
      vertex 7.427 -6.263 0
    endloop
  endfacet
  facet normal 0.742818 -0.669493 0
    outer loop
      vertex 7.427 -6.263 4
      vertex 7.007 -6.729 4
      vertex 7.427 -6.263 0
    endloop
  endfacet
  facet normal 0.865681 -0.500596 0
    outer loop
      vertex 7.427 -6.263 4
      vertex 7.427 -6.263 0
      vertex 7.741 -5.72 0
    endloop
  endfacet
  facet normal 0.865681 -0.500596 0
    outer loop
      vertex 7.741 -5.72 4
      vertex 7.427 -6.263 4
      vertex 7.741 -5.72 0
    endloop
  endfacet
  facet normal 0.951362 -0.308075 0
    outer loop
      vertex 7.741 -5.72 4
      vertex 7.741 -5.72 0
      vertex 7.934 -5.124 0
    endloop
  endfacet
  facet normal 0.951362 -0.308075 0
    outer loop
      vertex 7.934 -5.124 4
      vertex 7.741 -5.72 4
      vertex 7.934 -5.124 0
    endloop
  endfacet
  facet normal 0.994453 -0.105183 0
    outer loop
      vertex 7.934 -5.124 4
      vertex 7.934 -5.124 0
      vertex 8 -4.5 0
    endloop
  endfacet
  facet normal 0.994453 -0.105183 0
    outer loop
      vertex 8 -4.5 4
      vertex 7.934 -5.124 4
      vertex 8 -4.5 0
    endloop
  endfacet
  facet normal 1 0 0
    outer loop
      vertex 8 -4.5 4
      vertex 8 -4.5 0
      vertex 8 7.5 0
    endloop
  endfacet
  facet normal 1 0 0
    outer loop
      vertex 8 7.5 4
      vertex 8 -4.5 4
      vertex 8 7.5 0
    endloop
  endfacet
  facet normal 0.994453 0.105183 0
    outer loop
      vertex 8 7.5 0
      vertex 7.934 8.124 0
      vertex 7.934 8.124 4
    endloop
  endfacet
  facet normal 0.994453 0.105183 0
    outer loop
      vertex 8 7.5 4
      vertex 8 7.5 0
      vertex 7.934 8.124 4
    endloop
  endfacet
  facet normal 0.951362 0.308075 0
    outer loop
      vertex 7.934 8.124 0
      vertex 7.741 8.72 0
      vertex 7.741 8.72 4
    endloop
  endfacet
  facet normal 0.951362 0.308075 0
    outer loop
      vertex 7.934 8.124 4
      vertex 7.934 8.124 0
      vertex 7.741 8.72 4
    endloop
  endfacet
  facet normal 0.865681 0.500596 0
    outer loop
      vertex 7.741 8.72 0
      vertex 7.427 9.263 0
      vertex 7.427 9.263 4
    endloop
  endfacet
  facet normal 0.865681 0.500596 0
    outer loop
      vertex 7.741 8.72 4
      vertex 7.741 8.72 0
      vertex 7.427 9.263 4
    endloop
  endfacet
  facet normal 0.742818 0.669493 0
    outer loop
      vertex 7.427 9.263 0
      vertex 7.007 9.729 0
      vertex 7.007 9.729 4
    endloop
  endfacet
  facet normal 0.742818 0.669493 0
    outer loop
      vertex 7.427 9.263 4
      vertex 7.427 9.263 0
      vertex 7.007 9.729 4
    endloop
  endfacet
  facet normal 0.588456 0.808529 0
    outer loop
      vertex 6.5 10.098 0
      vertex 6.5 10.098 4
      vertex 7.007 9.729 0
    endloop
  endfacet
  facet normal 0.588456 0.808529 0
    outer loop
      vertex 7.007 9.729 0
      vertex 6.5 10.098 4
      vertex 7.007 9.729 4
    endloop
  endfacet
  facet normal 0.406582 0.913614 0
    outer loop
      vertex 5.927 10.353 0
      vertex 5.927 10.353 4
      vertex 6.5 10.098 0
    endloop
  endfacet
  facet normal 0.406582 0.913614 0
    outer loop
      vertex 6.5 10.098 0
      vertex 5.927 10.353 4
      vertex 6.5 10.098 4
    endloop
  endfacet
  facet normal 0.208984 0.977919 0
    outer loop
      vertex 5.314 10.484 0
      vertex 5.314 10.484 4
      vertex 5.927 10.353 0
    endloop
  endfacet
  facet normal 0.208984 0.977919 0
    outer loop
      vertex 5.927 10.353 0
      vertex 5.314 10.484 4
      vertex 5.927 10.353 4
    endloop
  endfacet
  facet normal 0 1 0
    outer loop
      vertex -5.314 10.484 0
      vertex -5.314 10.484 4
      vertex 5.314 10.484 0
    endloop
  endfacet
  facet normal 0 1 0
    outer loop
      vertex 5.314 10.484 0
      vertex -5.314 10.484 4
      vertex 5.314 10.484 4
    endloop
  endfacet
  facet normal -0.208984 0.977919 0
    outer loop
      vertex -5.927 10.353 0
      vertex -5.927 10.353 4
      vertex -5.314 10.484 0
    endloop
  endfacet
  facet normal -0.208984 0.977919 0
    outer loop
      vertex -5.314 10.484 0
      vertex -5.927 10.353 4
      vertex -5.314 10.484 4
    endloop
  endfacet
  facet normal -0.406582 0.913614 0
    outer loop
      vertex -6.5 10.098 0
      vertex -6.5 10.098 4
      vertex -5.927 10.353 0
    endloop
  endfacet
  facet normal -0.406582 0.913614 0
    outer loop
      vertex -5.927 10.353 0
      vertex -6.5 10.098 4
      vertex -5.927 10.353 4
    endloop
  endfacet
  facet normal -0.588456 0.808529 0
    outer loop
      vertex -7.007 9.729 0
      vertex -7.007 9.729 4
      vertex -6.5 10.098 0
    endloop
  endfacet
  facet normal -0.588456 0.808529 0
    outer loop
      vertex -6.5 10.098 0
      vertex -7.007 9.729 4
      vertex -6.5 10.098 4
    endloop
  endfacet
  facet normal -0.742818 0.669493 0
    outer loop
      vertex -7.427 9.263 0
      vertex -7.427 9.263 4
      vertex -7.007 9.729 0
    endloop
  endfacet
  facet normal -0.742818 0.669493 0
    outer loop
      vertex -7.007 9.729 0
      vertex -7.427 9.263 4
      vertex -7.007 9.729 4
    endloop
  endfacet
  facet normal -0.865681 0.500596 0
    outer loop
      vertex -7.741 8.72 0
      vertex -7.741 8.72 4
      vertex -7.427 9.263 0
    endloop
  endfacet
  facet normal -0.865681 0.500596 0
    outer loop
      vertex -7.427 9.263 0
      vertex -7.741 8.72 4
      vertex -7.427 9.263 4
    endloop
  endfacet
  facet normal -0.951362 0.308075 0
    outer loop
      vertex -7.934 8.124 0
      vertex -7.934 8.124 4
      vertex -7.741 8.72 0
    endloop
  endfacet
  facet normal -0.951362 0.308075 0
    outer loop
      vertex -7.741 8.72 0
      vertex -7.934 8.124 4
      vertex -7.741 8.72 4
    endloop
  endfacet
  facet normal -0.994453 0.105183 0
    outer loop
      vertex -8 7.5 0
      vertex -8 7.5 4
      vertex -7.934 8.124 0
    endloop
  endfacet
  facet normal -0.994453 0.105183 0
    outer loop
      vertex -7.934 8.124 0
      vertex -8 7.5 4
      vertex -7.934 8.124 4
    endloop
  endfacet
  facet normal -2.22045e-16 -1 2.22045e-16
    outer loop
      vertex -7.5 -4.7 4.99
      vertex -7.5 -4.7 4
      vertex 7.5 -4.7 4
    endloop
  endfacet
  facet normal -2.22045e-16 -1 2.22045e-16
    outer loop
      vertex 7.459 -4.7 15.274
      vertex -7.5 -4.7 4.99
      vertex 7.5 -4.7 4.99
    endloop
  endfacet
  facet normal -2.22045e-16 -1 2.22045e-16
    outer loop
      vertex 7.5 -4.7 4.99
      vertex -7.5 -4.7 4.99
      vertex 7.5 -4.7 4
    endloop
  endfacet
  facet normal -2.22045e-16 -1 2.22045e-16
    outer loop
      vertex 7.133 -4.7 16.808
      vertex -7.5 -4.7 4.99
      vertex 7.459 -4.7 15.274
    endloop
  endfacet
  facet normal -2.22045e-16 -1 2.22045e-16
    outer loop
      vertex 1.59929 -4.7 12.7138
      vertex -7.5 -4.7 4.99
      vertex 7.133 -4.7 16.808
    endloop
  endfacet
  facet normal -2.22045e-16 -1 2.22045e-16
    outer loop
      vertex 0.738582 -4.7 12.2169
      vertex 0.249833 -4.7 12.113
      vertex -7.5 -4.7 4.99
    endloop
  endfacet
  facet normal -2.22045e-16 -1 2.22045e-16
    outer loop
      vertex 1.93363 -4.7 15.8949
      vertex 2.18346 -4.7 15.4621
      vertex 5.574 -4.7 19.508
    endloop
  endfacet
  facet normal -2.22045e-16 -1 2.22045e-16
    outer loop
      vertex -1.559 -4.7 21.826
      vertex -7.5 -4.7 4.99
      vertex -1.04361e-15 -4.7 21.99
    endloop
  endfacet
  facet normal -2.22045e-16 -1 2.22045e-16
    outer loop
      vertex -3.051 -4.7 21.342
      vertex -7.5 -4.7 4.99
      vertex -1.559 -4.7 21.826
    endloop
  endfacet
  facet normal -2.22045e-16 -1 2.22045e-16
    outer loop
      vertex -4.408 -4.7 20.558
      vertex -7.5 -4.7 4.99
      vertex -3.051 -4.7 21.342
    endloop
  endfacet
  facet normal -2.22045e-16 -1 2.22045e-16
    outer loop
      vertex -5.574 -4.7 19.508
      vertex -7.5 -4.7 4.99
      vertex -4.408 -4.7 20.558
    endloop
  endfacet
  facet normal -2.22045e-16 -1 2.22045e-16
    outer loop
      vertex -6.495 -4.7 18.24
      vertex -7.5 -4.7 4.99
      vertex -5.574 -4.7 19.508
    endloop
  endfacet
  facet normal -2.22045e-16 -1 2.22045e-16
    outer loop
      vertex -7.133 -4.7 16.808
      vertex -7.5 -4.7 4.99
      vertex -6.495 -4.7 18.24
    endloop
  endfacet
  facet normal -2.22045e-16 -1 2.22045e-16
    outer loop
      vertex -7.459 -4.7 15.274
      vertex -7.5 -4.7 4.99
      vertex -7.133 -4.7 16.808
    endloop
  endfacet
  facet normal -2.22045e-16 -1 2.22045e-16
    outer loop
      vertex -2.18347 -4.7 15.4621
      vertex -1.93363 -4.7 15.8949
      vertex -1.04361e-15 -4.7 21.99
    endloop
  endfacet
  facet normal -2.22045e-16 -1 2.22045e-16
    outer loop
      vertex -1.19505 -4.7 16.5599
      vertex -0.738582 -4.7 16.7631
      vertex 1.559 -4.7 21.826
    endloop
  endfacet
  facet normal -2.22045e-16 -1 2.22045e-16
    outer loop
      vertex -2.33787 -4.7 14.9869
      vertex -7.5 -4.7 4.99
      vertex -2.3901 -4.7 14.49
    endloop
  endfacet
  facet normal -2.22045e-16 -1 2.22045e-16
    outer loop
      vertex -1.59929 -4.7 16.2662
      vertex -1.19505 -4.7 16.5599
      vertex 1.559 -4.7 21.826
    endloop
  endfacet
  facet normal -2.22045e-16 -1 2.22045e-16
    outer loop
      vertex -2.18347 -4.7 15.4621
      vertex -7.5 -4.7 4.99
      vertex -2.33787 -4.7 14.9869
    endloop
  endfacet
  facet normal -2.22045e-16 -1 2.22045e-16
    outer loop
      vertex -1.04361e-15 -4.7 21.99
      vertex -7.5 -4.7 4.99
      vertex -2.18347 -4.7 15.4621
    endloop
  endfacet
  facet normal -2.22045e-16 -1 2.22045e-16
    outer loop
      vertex -1.04361e-15 -4.7 21.99
      vertex -1.93363 -4.7 15.8949
      vertex 1.559 -4.7 21.826
    endloop
  endfacet
  facet normal -2.22045e-16 -1 2.22045e-16
    outer loop
      vertex -1.93363 -4.7 15.8949
      vertex -1.59929 -4.7 16.2662
      vertex 1.559 -4.7 21.826
    endloop
  endfacet
  facet normal -2.22045e-16 -1 2.22045e-16
    outer loop
      vertex 1.559 -4.7 21.826
      vertex -0.738582 -4.7 16.7631
      vertex 3.051 -4.7 21.342
    endloop
  endfacet
  facet normal -2.22045e-16 -1 2.22045e-16
    outer loop
      vertex -0.738582 -4.7 16.7631
      vertex -0.249833 -4.7 16.867
      vertex 3.051 -4.7 21.342
    endloop
  endfacet
  facet normal -2.22045e-16 -1 2.22045e-16
    outer loop
      vertex 3.051 -4.7 21.342
      vertex 0.249833 -4.7 16.867
      vertex 4.408 -4.7 20.558
    endloop
  endfacet
  facet normal -2.22045e-16 -1 2.22045e-16
    outer loop
      vertex 0.249833 -4.7 16.867
      vertex 0.738582 -4.7 16.7631
      vertex 4.408 -4.7 20.558
    endloop
  endfacet
  facet normal -2.22045e-16 -1 2.22045e-16
    outer loop
      vertex 0.738582 -4.7 16.7631
      vertex 1.19505 -4.7 16.5599
      vertex 4.408 -4.7 20.558
    endloop
  endfacet
  facet normal -2.22045e-16 -1 2.22045e-16
    outer loop
      vertex -1.93363 -4.7 13.0851
      vertex -2.18347 -4.7 13.5179
      vertex -7.5 -4.7 4.99
    endloop
  endfacet
  facet normal -2.22045e-16 -1 2.22045e-16
    outer loop
      vertex 4.408 -4.7 20.558
      vertex 1.59929 -4.7 16.2662
      vertex 5.574 -4.7 19.508
    endloop
  endfacet
  facet normal -2.22045e-16 -1 2.22045e-16
    outer loop
      vertex -1.19505 -4.7 12.4201
      vertex -1.59929 -4.7 12.7138
      vertex -7.5 -4.7 4.99
    endloop
  endfacet
  facet normal -2.22045e-16 -1 2.22045e-16
    outer loop
      vertex 1.59929 -4.7 16.2662
      vertex 1.93363 -4.7 15.8949
      vertex 5.574 -4.7 19.508
    endloop
  endfacet
  facet normal -2.22045e-16 -1 2.22045e-16
    outer loop
      vertex 5.574 -4.7 19.508
      vertex 2.18346 -4.7 15.4621
      vertex 6.495 -4.7 18.24
    endloop
  endfacet
  facet normal -2.22045e-16 -1 2.22045e-16
    outer loop
      vertex -0.249833 -4.7 12.113
      vertex -0.738582 -4.7 12.2169
      vertex -7.5 -4.7 4.99
    endloop
  endfacet
  facet normal -2.22045e-16 -1 2.22045e-16
    outer loop
      vertex 2.18346 -4.7 15.4621
      vertex 2.33787 -4.7 14.9869
      vertex 6.495 -4.7 18.24
    endloop
  endfacet
  facet normal -2.22045e-16 -1 2.22045e-16
    outer loop
      vertex 2.33787 -4.7 14.9869
      vertex 2.3901 -4.7 14.49
      vertex 6.495 -4.7 18.24
    endloop
  endfacet
  facet normal -2.22045e-16 -1 2.22045e-16
    outer loop
      vertex 6.495 -4.7 18.24
      vertex 2.33787 -4.7 13.9931
      vertex 7.133 -4.7 16.808
    endloop
  endfacet
  facet normal -2.22045e-16 -1 2.22045e-16
    outer loop
      vertex 2.33787 -4.7 13.9931
      vertex 2.18346 -4.7 13.5179
      vertex 7.133 -4.7 16.808
    endloop
  endfacet
  facet normal -2.22045e-16 -1 2.22045e-16
    outer loop
      vertex 0.249833 -4.7 12.113
      vertex -0.249833 -4.7 12.113
      vertex -7.5 -4.7 4.99
    endloop
  endfacet
  facet normal -2.22045e-16 -1 2.22045e-16
    outer loop
      vertex 2.18346 -4.7 13.5179
      vertex 1.93363 -4.7 13.0851
      vertex 7.133 -4.7 16.808
    endloop
  endfacet
  facet normal -2.22045e-16 -1 2.22045e-16
    outer loop
      vertex 1.93363 -4.7 13.0851
      vertex 1.59929 -4.7 12.7138
      vertex 7.133 -4.7 16.808
    endloop
  endfacet
  facet normal -2.22045e-16 -1 2.22045e-16
    outer loop
      vertex 1.19505 -4.7 12.4201
      vertex -7.5 -4.7 4.99
      vertex 1.59929 -4.7 12.7138
    endloop
  endfacet
  facet normal -2.22045e-16 -1 2.22045e-16
    outer loop
      vertex -0.738582 -4.7 12.2169
      vertex -1.19505 -4.7 12.4201
      vertex -7.5 -4.7 4.99
    endloop
  endfacet
  facet normal -2.22045e-16 -1 2.22045e-16
    outer loop
      vertex 1.19505 -4.7 12.4201
      vertex 0.738582 -4.7 12.2169
      vertex -7.5 -4.7 4.99
    endloop
  endfacet
  facet normal -2.22045e-16 -1 2.22045e-16
    outer loop
      vertex -1.59929 -4.7 12.7138
      vertex -1.93363 -4.7 13.0851
      vertex -7.5 -4.7 4.99
    endloop
  endfacet
  facet normal -2.22045e-16 -1 2.22045e-16
    outer loop
      vertex 2.3901 -4.7 14.49
      vertex 2.33787 -4.7 13.9931
      vertex 6.495 -4.7 18.24
    endloop
  endfacet
  facet normal -2.22045e-16 -1 2.22045e-16
    outer loop
      vertex 1.19505 -4.7 16.5599
      vertex 1.59929 -4.7 16.2662
      vertex 4.408 -4.7 20.558
    endloop
  endfacet
  facet normal -2.22045e-16 -1 2.22045e-16
    outer loop
      vertex -2.33787 -4.7 13.9931
      vertex -7.5 -4.7 4.99
      vertex -2.18347 -4.7 13.5179
    endloop
  endfacet
  facet normal -2.22045e-16 -1 2.22045e-16
    outer loop
      vertex -2.33787 -4.7 13.9931
      vertex -2.3901 -4.7 14.49
      vertex -7.5 -4.7 4.99
    endloop
  endfacet
  facet normal -2.22045e-16 -1 2.22045e-16
    outer loop
      vertex -0.249833 -4.7 16.867
      vertex 0.249833 -4.7 16.867
      vertex 3.051 -4.7 21.342
    endloop
  endfacet
  facet normal -1 2.22045e-16 0
    outer loop
      vertex -7.5 -4.7 4
      vertex -7.5 -4.7 4.99
      vertex -7.5 -1.7 4
    endloop
  endfacet
  facet normal -1 2.22045e-16 0
    outer loop
      vertex -7.5 -1.7 4
      vertex -7.5 -4.7 4.99
      vertex -7.5 -1.7 4.99
    endloop
  endfacet
  facet normal 1 -2.22045e-16 0
    outer loop
      vertex 7.5 -4.7 4.99
      vertex 7.5 -4.7 4
      vertex 7.5 -1.7 4
    endloop
  endfacet
  facet normal 1 -2.22045e-16 0
    outer loop
      vertex 7.5 -1.7 4.99
      vertex 7.5 -4.7 4.99
      vertex 7.5 -1.7 4
    endloop
  endfacet
  facet normal 2.22045e-16 1 -2.22045e-16
    outer loop
      vertex -7.5 -1.7 4
      vertex -7.5 -1.7 4.99
      vertex 7.5 -1.7 4
    endloop
  endfacet
  facet normal 2.22045e-16 1 -2.22045e-16
    outer loop
      vertex 7.5 -1.7 4
      vertex -7.5 -1.7 4.99
      vertex -7.459 -1.7 15.274
    endloop
  endfacet
  facet normal 2.22045e-16 1 -2.22045e-16
    outer loop
      vertex 7.5 -1.7 4
      vertex -7.459 -1.7 15.274
      vertex -7.133 -1.7 16.808
    endloop
  endfacet
  facet normal 2.22045e-16 1 -2.22045e-16
    outer loop
      vertex -2.33787 -1.7 13.9931
      vertex -7.133 -1.7 16.808
      vertex -6.495 -1.7 18.24
    endloop
  endfacet
  facet normal 2.22045e-16 1 -2.22045e-16
    outer loop
      vertex -2.3901 -1.7 14.49
      vertex -6.495 -1.7 18.24
      vertex -5.574 -1.7 19.508
    endloop
  endfacet
  facet normal 2.22045e-16 1 -2.22045e-16
    outer loop
      vertex -1.93363 -1.7 15.8949
      vertex -5.574 -1.7 19.508
      vertex -4.408 -1.7 20.558
    endloop
  endfacet
  facet normal 2.22045e-16 1 -2.22045e-16
    outer loop
      vertex -0.738582 -1.7 16.7631
      vertex -4.408 -1.7 20.558
      vertex -3.051 -1.7 21.342
    endloop
  endfacet
  facet normal 2.22045e-16 1 -2.22045e-16
    outer loop
      vertex 0.249833 -1.7 16.867
      vertex -3.051 -1.7 21.342
      vertex -1.559 -1.7 21.826
    endloop
  endfacet
  facet normal 2.22045e-16 1 -2.22045e-16
    outer loop
      vertex 1.93363 -1.7 15.8949
      vertex -1.559 -1.7 21.826
      vertex -3.77476e-16 -1.7 21.99
    endloop
  endfacet
  facet normal 2.22045e-16 1 -2.22045e-16
    outer loop
      vertex 7.5 -1.7 4
      vertex -3.77476e-16 -1.7 21.99
      vertex 1.559 -1.7 21.826
    endloop
  endfacet
  facet normal 2.22045e-16 1 -2.22045e-16
    outer loop
      vertex 7.5 -1.7 4
      vertex 1.559 -1.7 21.826
      vertex 3.051 -1.7 21.342
    endloop
  endfacet
  facet normal 2.22045e-16 1 -2.22045e-16
    outer loop
      vertex 7.5 -1.7 4
      vertex 3.051 -1.7 21.342
      vertex 4.408 -1.7 20.558
    endloop
  endfacet
  facet normal 2.22045e-16 1 -2.22045e-16
    outer loop
      vertex 7.5 -1.7 4
      vertex 4.408 -1.7 20.558
      vertex 5.574 -1.7 19.508
    endloop
  endfacet
  facet normal 2.22045e-16 1 -2.22045e-16
    outer loop
      vertex 7.5 -1.7 4
      vertex 5.574 -1.7 19.508
      vertex 6.495 -1.7 18.24
    endloop
  endfacet
  facet normal 2.22045e-16 1 -2.22045e-16
    outer loop
      vertex 7.5 -1.7 4
      vertex 6.495 -1.7 18.24
      vertex 7.133 -1.7 16.808
    endloop
  endfacet
  facet normal 2.22045e-16 1 -2.22045e-16
    outer loop
      vertex 7.5 -1.7 4
      vertex 7.133 -1.7 16.808
      vertex 7.459 -1.7 15.274
    endloop
  endfacet
  facet normal 2.22045e-16 1 -2.22045e-16
    outer loop
      vertex 7.5 -1.7 4
      vertex 7.459 -1.7 15.274
      vertex 7.5 -1.7 4.99
    endloop
  endfacet
  facet normal 2.22045e-16 1 -2.22045e-16
    outer loop
      vertex -2.33787 -1.7 14.9869
      vertex -2.3901 -1.7 14.49
      vertex -5.574 -1.7 19.508
    endloop
  endfacet
  facet normal 2.22045e-16 1 -2.22045e-16
    outer loop
      vertex -2.18347 -1.7 13.5179
      vertex -7.133 -1.7 16.808
      vertex -2.33787 -1.7 13.9931
    endloop
  endfacet
  facet normal 2.22045e-16 1 -2.22045e-16
    outer loop
      vertex -1.19505 -1.7 12.4201
      vertex 7.5 -1.7 4
      vertex -1.59929 -1.7 12.7138
    endloop
  endfacet
  facet normal 2.22045e-16 1 -2.22045e-16
    outer loop
      vertex -1.93363 -1.7 13.0851
      vertex -7.133 -1.7 16.808
      vertex -2.18347 -1.7 13.5179
    endloop
  endfacet
  facet normal 2.22045e-16 1 -2.22045e-16
    outer loop
      vertex -1.59929 -1.7 12.7138
      vertex -7.133 -1.7 16.808
      vertex -1.93363 -1.7 13.0851
    endloop
  endfacet
  facet normal 2.22045e-16 1 -2.22045e-16
    outer loop
      vertex 7.5 -1.7 4
      vertex -7.133 -1.7 16.808
      vertex -1.59929 -1.7 12.7138
    endloop
  endfacet
  facet normal 2.22045e-16 1 -2.22045e-16
    outer loop
      vertex -0.738582 -1.7 12.2169
      vertex 7.5 -1.7 4
      vertex -1.19505 -1.7 12.4201
    endloop
  endfacet
  facet normal 2.22045e-16 1 -2.22045e-16
    outer loop
      vertex -0.249833 -1.7 12.113
      vertex 7.5 -1.7 4
      vertex -0.738582 -1.7 12.2169
    endloop
  endfacet
  facet normal 2.22045e-16 1 -2.22045e-16
    outer loop
      vertex -2.33787 -1.7 14.9869
      vertex -5.574 -1.7 19.508
      vertex -2.18347 -1.7 15.4621
    endloop
  endfacet
  facet normal 2.22045e-16 1 -2.22045e-16
    outer loop
      vertex 0.738582 -1.7 12.2169
      vertex 7.5 -1.7 4
      vertex 0.249833 -1.7 12.113
    endloop
  endfacet
  facet normal 2.22045e-16 1 -2.22045e-16
    outer loop
      vertex 1.59929 -1.7 12.7138
      vertex 7.5 -1.7 4
      vertex 1.19505 -1.7 12.4201
    endloop
  endfacet
  facet normal 2.22045e-16 1 -2.22045e-16
    outer loop
      vertex 7.5 -1.7 4
      vertex 0.738582 -1.7 12.2169
      vertex 1.19505 -1.7 12.4201
    endloop
  endfacet
  facet normal 2.22045e-16 1 -2.22045e-16
    outer loop
      vertex 2.18346 -1.7 13.5179
      vertex 7.5 -1.7 4
      vertex 1.93363 -1.7 13.0851
    endloop
  endfacet
  facet normal 2.22045e-16 1 -2.22045e-16
    outer loop
      vertex 7.5 -1.7 4
      vertex 1.59929 -1.7 12.7138
      vertex 1.93363 -1.7 13.0851
    endloop
  endfacet
  facet normal 2.22045e-16 1 -2.22045e-16
    outer loop
      vertex -0.738582 -1.7 16.7631
      vertex -3.051 -1.7 21.342
      vertex -0.249833 -1.7 16.867
    endloop
  endfacet
  facet normal 2.22045e-16 1 -2.22045e-16
    outer loop
      vertex 7.5 -1.7 4
      vertex 2.18346 -1.7 13.5179
      vertex 2.33787 -1.7 13.9931
    endloop
  endfacet
  facet normal 2.22045e-16 1 -2.22045e-16
    outer loop
      vertex 0.738582 -1.7 16.7631
      vertex -1.559 -1.7 21.826
      vertex 1.19505 -1.7 16.5599
    endloop
  endfacet
  facet normal 2.22045e-16 1 -2.22045e-16
    outer loop
      vertex 7.5 -1.7 4
      vertex 2.3901 -1.7 14.49
      vertex 2.33787 -1.7 14.9869
    endloop
  endfacet
  facet normal 2.22045e-16 1 -2.22045e-16
    outer loop
      vertex 7.5 -1.7 4
      vertex 2.33787 -1.7 14.9869
      vertex 2.18346 -1.7 15.4621
    endloop
  endfacet
  facet normal 2.22045e-16 1 -2.22045e-16
    outer loop
      vertex 7.5 -1.7 4
      vertex 2.18346 -1.7 15.4621
      vertex -3.77476e-16 -1.7 21.99
    endloop
  endfacet
  facet normal 2.22045e-16 1 -2.22045e-16
    outer loop
      vertex 1.59929 -1.7 16.2662
      vertex -1.559 -1.7 21.826
      vertex 1.93363 -1.7 15.8949
    endloop
  endfacet
  facet normal 2.22045e-16 1 -2.22045e-16
    outer loop
      vertex 1.19505 -1.7 16.5599
      vertex -1.559 -1.7 21.826
      vertex 1.59929 -1.7 16.2662
    endloop
  endfacet
  facet normal 2.22045e-16 1 -2.22045e-16
    outer loop
      vertex 1.93363 -1.7 15.8949
      vertex -3.77476e-16 -1.7 21.99
      vertex 2.18346 -1.7 15.4621
    endloop
  endfacet
  facet normal 2.22045e-16 1 -2.22045e-16
    outer loop
      vertex 0.249833 -1.7 16.867
      vertex -1.559 -1.7 21.826
      vertex 0.738582 -1.7 16.7631
    endloop
  endfacet
  facet normal 2.22045e-16 1 -2.22045e-16
    outer loop
      vertex -0.249833 -1.7 16.867
      vertex -3.051 -1.7 21.342
      vertex 0.249833 -1.7 16.867
    endloop
  endfacet
  facet normal 2.22045e-16 1 -2.22045e-16
    outer loop
      vertex 2.3901 -1.7 14.49
      vertex 7.5 -1.7 4
      vertex 2.33787 -1.7 13.9931
    endloop
  endfacet
  facet normal 2.22045e-16 1 -2.22045e-16
    outer loop
      vertex -1.19505 -1.7 16.5599
      vertex -4.408 -1.7 20.558
      vertex -0.738582 -1.7 16.7631
    endloop
  endfacet
  facet normal 2.22045e-16 1 -2.22045e-16
    outer loop
      vertex -1.59929 -1.7 16.2662
      vertex -4.408 -1.7 20.558
      vertex -1.19505 -1.7 16.5599
    endloop
  endfacet
  facet normal 2.22045e-16 1 -2.22045e-16
    outer loop
      vertex -1.93363 -1.7 15.8949
      vertex -4.408 -1.7 20.558
      vertex -1.59929 -1.7 16.2662
    endloop
  endfacet
  facet normal 2.22045e-16 1 -2.22045e-16
    outer loop
      vertex -2.18347 -1.7 15.4621
      vertex -5.574 -1.7 19.508
      vertex -1.93363 -1.7 15.8949
    endloop
  endfacet
  facet normal 2.22045e-16 1 -2.22045e-16
    outer loop
      vertex -2.33787 -1.7 13.9931
      vertex -6.495 -1.7 18.24
      vertex -2.3901 -1.7 14.49
    endloop
  endfacet
  facet normal 2.22045e-16 1 -2.22045e-16
    outer loop
      vertex 0.249833 -1.7 12.113
      vertex 7.5 -1.7 4
      vertex -0.249833 -1.7 12.113
    endloop
  endfacet
  facet normal -2.22045e-16 -1 2.22045e-16
    outer loop
      vertex -7.5 1.7 4.99
      vertex -7.5 1.7 4
      vertex 7.5 1.7 4
    endloop
  endfacet
  facet normal -2.22045e-16 -1 2.22045e-16
    outer loop
      vertex 7.459 1.7 15.274
      vertex -7.5 1.7 4.99
      vertex 7.5 1.7 4.99
    endloop
  endfacet
  facet normal -2.22045e-16 -1 2.22045e-16
    outer loop
      vertex 7.5 1.7 4.99
      vertex -7.5 1.7 4.99
      vertex 7.5 1.7 4
    endloop
  endfacet
  facet normal -2.22045e-16 -1 2.22045e-16
    outer loop
      vertex 7.133 1.7 16.808
      vertex -7.5 1.7 4.99
      vertex 7.459 1.7 15.274
    endloop
  endfacet
  facet normal -2.22045e-16 -1 2.22045e-16
    outer loop
      vertex 1.59929 1.7 12.7138
      vertex -7.5 1.7 4.99
      vertex 7.133 1.7 16.808
    endloop
  endfacet
  facet normal -2.22045e-16 -1 2.22045e-16
    outer loop
      vertex 0.738582 1.7 12.2169
      vertex 0.249833 1.7 12.113
      vertex -7.5 1.7 4.99
    endloop
  endfacet
  facet normal -2.22045e-16 -1 2.22045e-16
    outer loop
      vertex 1.93363 1.7 15.8949
      vertex 2.18347 1.7 15.4621
      vertex 5.574 1.7 19.508
    endloop
  endfacet
  facet normal -2.22045e-16 -1 2.22045e-16
    outer loop
      vertex -1.559 1.7 21.826
      vertex -7.5 1.7 4.99
      vertex 3.77476e-16 1.7 21.99
    endloop
  endfacet
  facet normal -2.22045e-16 -1 2.22045e-16
    outer loop
      vertex -3.051 1.7 21.342
      vertex -7.5 1.7 4.99
      vertex -1.559 1.7 21.826
    endloop
  endfacet
  facet normal -2.22045e-16 -1 2.22045e-16
    outer loop
      vertex -4.408 1.7 20.558
      vertex -7.5 1.7 4.99
      vertex -3.051 1.7 21.342
    endloop
  endfacet
  facet normal -2.22045e-16 -1 2.22045e-16
    outer loop
      vertex -5.574 1.7 19.508
      vertex -7.5 1.7 4.99
      vertex -4.408 1.7 20.558
    endloop
  endfacet
  facet normal -2.22045e-16 -1 2.22045e-16
    outer loop
      vertex -6.495 1.7 18.24
      vertex -7.5 1.7 4.99
      vertex -5.574 1.7 19.508
    endloop
  endfacet
  facet normal -2.22045e-16 -1 2.22045e-16
    outer loop
      vertex -7.133 1.7 16.808
      vertex -7.5 1.7 4.99
      vertex -6.495 1.7 18.24
    endloop
  endfacet
  facet normal -2.22045e-16 -1 2.22045e-16
    outer loop
      vertex -7.459 1.7 15.274
      vertex -7.5 1.7 4.99
      vertex -7.133 1.7 16.808
    endloop
  endfacet
  facet normal -2.22045e-16 -1 2.22045e-16
    outer loop
      vertex -2.18346 1.7 15.4621
      vertex -1.93363 1.7 15.8949
      vertex 3.77476e-16 1.7 21.99
    endloop
  endfacet
  facet normal -2.22045e-16 -1 2.22045e-16
    outer loop
      vertex -1.19505 1.7 16.5599
      vertex -0.738582 1.7 16.7631
      vertex 1.559 1.7 21.826
    endloop
  endfacet
  facet normal -2.22045e-16 -1 2.22045e-16
    outer loop
      vertex -2.33787 1.7 14.9869
      vertex -7.5 1.7 4.99
      vertex -2.3901 1.7 14.49
    endloop
  endfacet
  facet normal -2.22045e-16 -1 2.22045e-16
    outer loop
      vertex -1.59929 1.7 16.2662
      vertex -1.19505 1.7 16.5599
      vertex 1.559 1.7 21.826
    endloop
  endfacet
  facet normal -2.22045e-16 -1 2.22045e-16
    outer loop
      vertex -2.18346 1.7 15.4621
      vertex -7.5 1.7 4.99
      vertex -2.33787 1.7 14.9869
    endloop
  endfacet
  facet normal -2.22045e-16 -1 2.22045e-16
    outer loop
      vertex 3.77476e-16 1.7 21.99
      vertex -7.5 1.7 4.99
      vertex -2.18346 1.7 15.4621
    endloop
  endfacet
  facet normal -2.22045e-16 -1 2.22045e-16
    outer loop
      vertex 3.77476e-16 1.7 21.99
      vertex -1.93363 1.7 15.8949
      vertex 1.559 1.7 21.826
    endloop
  endfacet
  facet normal -2.22045e-16 -1 2.22045e-16
    outer loop
      vertex -1.93363 1.7 15.8949
      vertex -1.59929 1.7 16.2662
      vertex 1.559 1.7 21.826
    endloop
  endfacet
  facet normal -2.22045e-16 -1 2.22045e-16
    outer loop
      vertex 1.559 1.7 21.826
      vertex -0.738582 1.7 16.7631
      vertex 3.051 1.7 21.342
    endloop
  endfacet
  facet normal -2.22045e-16 -1 2.22045e-16
    outer loop
      vertex -0.738582 1.7 16.7631
      vertex -0.249833 1.7 16.867
      vertex 3.051 1.7 21.342
    endloop
  endfacet
  facet normal -2.22045e-16 -1 2.22045e-16
    outer loop
      vertex 3.051 1.7 21.342
      vertex 0.249833 1.7 16.867
      vertex 4.408 1.7 20.558
    endloop
  endfacet
  facet normal -2.22045e-16 -1 2.22045e-16
    outer loop
      vertex 0.249833 1.7 16.867
      vertex 0.738582 1.7 16.7631
      vertex 4.408 1.7 20.558
    endloop
  endfacet
  facet normal -2.22045e-16 -1 2.22045e-16
    outer loop
      vertex 0.738582 1.7 16.7631
      vertex 1.19505 1.7 16.5599
      vertex 4.408 1.7 20.558
    endloop
  endfacet
  facet normal -2.22045e-16 -1 2.22045e-16
    outer loop
      vertex -1.93363 1.7 13.0851
      vertex -2.18346 1.7 13.5179
      vertex -7.5 1.7 4.99
    endloop
  endfacet
  facet normal -2.22045e-16 -1 2.22045e-16
    outer loop
      vertex 4.408 1.7 20.558
      vertex 1.59929 1.7 16.2662
      vertex 5.574 1.7 19.508
    endloop
  endfacet
  facet normal -2.22045e-16 -1 2.22045e-16
    outer loop
      vertex -1.19505 1.7 12.4201
      vertex -1.59929 1.7 12.7138
      vertex -7.5 1.7 4.99
    endloop
  endfacet
  facet normal -2.22045e-16 -1 2.22045e-16
    outer loop
      vertex 1.59929 1.7 16.2662
      vertex 1.93363 1.7 15.8949
      vertex 5.574 1.7 19.508
    endloop
  endfacet
  facet normal -2.22045e-16 -1 2.22045e-16
    outer loop
      vertex 5.574 1.7 19.508
      vertex 2.18347 1.7 15.4621
      vertex 6.495 1.7 18.24
    endloop
  endfacet
  facet normal -2.22045e-16 -1 2.22045e-16
    outer loop
      vertex -0.249833 1.7 12.113
      vertex -0.738582 1.7 12.2169
      vertex -7.5 1.7 4.99
    endloop
  endfacet
  facet normal -2.22045e-16 -1 2.22045e-16
    outer loop
      vertex 2.18347 1.7 15.4621
      vertex 2.33787 1.7 14.9869
      vertex 6.495 1.7 18.24
    endloop
  endfacet
  facet normal -2.22045e-16 -1 2.22045e-16
    outer loop
      vertex 2.33787 1.7 14.9869
      vertex 2.3901 1.7 14.49
      vertex 6.495 1.7 18.24
    endloop
  endfacet
  facet normal -2.22045e-16 -1 2.22045e-16
    outer loop
      vertex 6.495 1.7 18.24
      vertex 2.33787 1.7 13.9931
      vertex 7.133 1.7 16.808
    endloop
  endfacet
  facet normal -2.22045e-16 -1 2.22045e-16
    outer loop
      vertex 2.33787 1.7 13.9931
      vertex 2.18347 1.7 13.5179
      vertex 7.133 1.7 16.808
    endloop
  endfacet
  facet normal -2.22045e-16 -1 2.22045e-16
    outer loop
      vertex 0.249833 1.7 12.113
      vertex -0.249833 1.7 12.113
      vertex -7.5 1.7 4.99
    endloop
  endfacet
  facet normal -2.22045e-16 -1 2.22045e-16
    outer loop
      vertex 2.18347 1.7 13.5179
      vertex 1.93363 1.7 13.0851
      vertex 7.133 1.7 16.808
    endloop
  endfacet
  facet normal -2.22045e-16 -1 2.22045e-16
    outer loop
      vertex 1.93363 1.7 13.0851
      vertex 1.59929 1.7 12.7138
      vertex 7.133 1.7 16.808
    endloop
  endfacet
  facet normal -2.22045e-16 -1 2.22045e-16
    outer loop
      vertex 1.19505 1.7 12.4201
      vertex -7.5 1.7 4.99
      vertex 1.59929 1.7 12.7138
    endloop
  endfacet
  facet normal -2.22045e-16 -1 2.22045e-16
    outer loop
      vertex -0.738582 1.7 12.2169
      vertex -1.19505 1.7 12.4201
      vertex -7.5 1.7 4.99
    endloop
  endfacet
  facet normal -2.22045e-16 -1 2.22045e-16
    outer loop
      vertex 1.19505 1.7 12.4201
      vertex 0.738582 1.7 12.2169
      vertex -7.5 1.7 4.99
    endloop
  endfacet
  facet normal -2.22045e-16 -1 2.22045e-16
    outer loop
      vertex -1.59929 1.7 12.7138
      vertex -1.93363 1.7 13.0851
      vertex -7.5 1.7 4.99
    endloop
  endfacet
  facet normal -2.22045e-16 -1 2.22045e-16
    outer loop
      vertex 2.3901 1.7 14.49
      vertex 2.33787 1.7 13.9931
      vertex 6.495 1.7 18.24
    endloop
  endfacet
  facet normal -2.22045e-16 -1 2.22045e-16
    outer loop
      vertex 1.19505 1.7 16.5599
      vertex 1.59929 1.7 16.2662
      vertex 4.408 1.7 20.558
    endloop
  endfacet
  facet normal -2.22045e-16 -1 2.22045e-16
    outer loop
      vertex -2.33787 1.7 13.9931
      vertex -7.5 1.7 4.99
      vertex -2.18346 1.7 13.5179
    endloop
  endfacet
  facet normal -2.22045e-16 -1 2.22045e-16
    outer loop
      vertex -2.33787 1.7 13.9931
      vertex -2.3901 1.7 14.49
      vertex -7.5 1.7 4.99
    endloop
  endfacet
  facet normal -2.22045e-16 -1 2.22045e-16
    outer loop
      vertex -0.249833 1.7 16.867
      vertex 0.249833 1.7 16.867
      vertex 3.051 1.7 21.342
    endloop
  endfacet
  facet normal -1 2.22045e-16 0
    outer loop
      vertex -7.5 1.7 4
      vertex -7.5 1.7 4.99
      vertex -7.5 4.7 4
    endloop
  endfacet
  facet normal -1 2.22045e-16 0
    outer loop
      vertex -7.5 4.7 4
      vertex -7.5 1.7 4.99
      vertex -7.5 4.7 4.99
    endloop
  endfacet
  facet normal 1 -2.22045e-16 0
    outer loop
      vertex 7.5 1.7 4.99
      vertex 7.5 1.7 4
      vertex 7.5 4.7 4
    endloop
  endfacet
  facet normal 1 -2.22045e-16 0
    outer loop
      vertex 7.5 4.7 4.99
      vertex 7.5 1.7 4.99
      vertex 7.5 4.7 4
    endloop
  endfacet
  facet normal 2.22045e-16 1 -2.22045e-16
    outer loop
      vertex -7.5 4.7 4
      vertex -7.5 4.7 4.99
      vertex 7.5 4.7 4
    endloop
  endfacet
  facet normal 2.22045e-16 1 -2.22045e-16
    outer loop
      vertex 7.5 4.7 4
      vertex -7.5 4.7 4.99
      vertex -7.459 4.7 15.274
    endloop
  endfacet
  facet normal 2.22045e-16 1 -2.22045e-16
    outer loop
      vertex 7.5 4.7 4
      vertex -7.459 4.7 15.274
      vertex -7.133 4.7 16.808
    endloop
  endfacet
  facet normal 2.22045e-16 1 -2.22045e-16
    outer loop
      vertex -2.33787 4.7 13.9931
      vertex -7.133 4.7 16.808
      vertex -6.495 4.7 18.24
    endloop
  endfacet
  facet normal 2.22045e-16 1 -2.22045e-16
    outer loop
      vertex -2.3901 4.7 14.49
      vertex -6.495 4.7 18.24
      vertex -5.574 4.7 19.508
    endloop
  endfacet
  facet normal 2.22045e-16 1 -2.22045e-16
    outer loop
      vertex -1.93363 4.7 15.8949
      vertex -5.574 4.7 19.508
      vertex -4.408 4.7 20.558
    endloop
  endfacet
  facet normal 2.22045e-16 1 -2.22045e-16
    outer loop
      vertex -0.738582 4.7 16.7631
      vertex -4.408 4.7 20.558
      vertex -3.051 4.7 21.342
    endloop
  endfacet
  facet normal 2.22045e-16 1 -2.22045e-16
    outer loop
      vertex 0.249833 4.7 16.867
      vertex -3.051 4.7 21.342
      vertex -1.559 4.7 21.826
    endloop
  endfacet
  facet normal 2.22045e-16 1 -2.22045e-16
    outer loop
      vertex 1.93363 4.7 15.8949
      vertex -1.559 4.7 21.826
      vertex 1.04361e-15 4.7 21.99
    endloop
  endfacet
  facet normal 2.22045e-16 1 -2.22045e-16
    outer loop
      vertex 7.5 4.7 4
      vertex 1.04361e-15 4.7 21.99
      vertex 1.559 4.7 21.826
    endloop
  endfacet
  facet normal 2.22045e-16 1 -2.22045e-16
    outer loop
      vertex 7.5 4.7 4
      vertex 1.559 4.7 21.826
      vertex 3.051 4.7 21.342
    endloop
  endfacet
  facet normal 2.22045e-16 1 -2.22045e-16
    outer loop
      vertex 7.5 4.7 4
      vertex 3.051 4.7 21.342
      vertex 4.408 4.7 20.558
    endloop
  endfacet
  facet normal 2.22045e-16 1 -2.22045e-16
    outer loop
      vertex 7.5 4.7 4
      vertex 4.408 4.7 20.558
      vertex 5.574 4.7 19.508
    endloop
  endfacet
  facet normal 2.22045e-16 1 -2.22045e-16
    outer loop
      vertex 7.5 4.7 4
      vertex 5.574 4.7 19.508
      vertex 6.495 4.7 18.24
    endloop
  endfacet
  facet normal 2.22045e-16 1 -2.22045e-16
    outer loop
      vertex 7.5 4.7 4
      vertex 6.495 4.7 18.24
      vertex 7.133 4.7 16.808
    endloop
  endfacet
  facet normal 2.22045e-16 1 -2.22045e-16
    outer loop
      vertex 7.5 4.7 4
      vertex 7.133 4.7 16.808
      vertex 7.459 4.7 15.274
    endloop
  endfacet
  facet normal 2.22045e-16 1 -2.22045e-16
    outer loop
      vertex 7.5 4.7 4
      vertex 7.459 4.7 15.274
      vertex 7.5 4.7 4.99
    endloop
  endfacet
  facet normal 2.22045e-16 1 -2.22045e-16
    outer loop
      vertex -2.33787 4.7 14.9869
      vertex -2.3901 4.7 14.49
      vertex -5.574 4.7 19.508
    endloop
  endfacet
  facet normal 2.22045e-16 1 -2.22045e-16
    outer loop
      vertex -2.18346 4.7 13.5179
      vertex -7.133 4.7 16.808
      vertex -2.33787 4.7 13.9931
    endloop
  endfacet
  facet normal 2.22045e-16 1 -2.22045e-16
    outer loop
      vertex -1.19505 4.7 12.4201
      vertex 7.5 4.7 4
      vertex -1.59929 4.7 12.7138
    endloop
  endfacet
  facet normal 2.22045e-16 1 -2.22045e-16
    outer loop
      vertex -1.93363 4.7 13.0851
      vertex -7.133 4.7 16.808
      vertex -2.18346 4.7 13.5179
    endloop
  endfacet
  facet normal 2.22045e-16 1 -2.22045e-16
    outer loop
      vertex -1.59929 4.7 12.7138
      vertex -7.133 4.7 16.808
      vertex -1.93363 4.7 13.0851
    endloop
  endfacet
  facet normal 2.22045e-16 1 -2.22045e-16
    outer loop
      vertex 7.5 4.7 4
      vertex -7.133 4.7 16.808
      vertex -1.59929 4.7 12.7138
    endloop
  endfacet
  facet normal 2.22045e-16 1 -2.22045e-16
    outer loop
      vertex -0.738582 4.7 12.2169
      vertex 7.5 4.7 4
      vertex -1.19505 4.7 12.4201
    endloop
  endfacet
  facet normal 2.22045e-16 1 -2.22045e-16
    outer loop
      vertex -0.249833 4.7 12.113
      vertex 7.5 4.7 4
      vertex -0.738582 4.7 12.2169
    endloop
  endfacet
  facet normal 2.22045e-16 1 -2.22045e-16
    outer loop
      vertex -2.33787 4.7 14.9869
      vertex -5.574 4.7 19.508
      vertex -2.18346 4.7 15.4621
    endloop
  endfacet
  facet normal 2.22045e-16 1 -2.22045e-16
    outer loop
      vertex 0.738582 4.7 12.2169
      vertex 7.5 4.7 4
      vertex 0.249833 4.7 12.113
    endloop
  endfacet
  facet normal 2.22045e-16 1 -2.22045e-16
    outer loop
      vertex 1.59929 4.7 12.7138
      vertex 7.5 4.7 4
      vertex 1.19505 4.7 12.4201
    endloop
  endfacet
  facet normal 2.22045e-16 1 -2.22045e-16
    outer loop
      vertex 7.5 4.7 4
      vertex 0.738582 4.7 12.2169
      vertex 1.19505 4.7 12.4201
    endloop
  endfacet
  facet normal 2.22045e-16 1 -2.22045e-16
    outer loop
      vertex 2.18347 4.7 13.5179
      vertex 7.5 4.7 4
      vertex 1.93363 4.7 13.0851
    endloop
  endfacet
  facet normal 2.22045e-16 1 -2.22045e-16
    outer loop
      vertex 7.5 4.7 4
      vertex 1.59929 4.7 12.7138
      vertex 1.93363 4.7 13.0851
    endloop
  endfacet
  facet normal 2.22045e-16 1 -2.22045e-16
    outer loop
      vertex -0.738582 4.7 16.7631
      vertex -3.051 4.7 21.342
      vertex -0.249833 4.7 16.867
    endloop
  endfacet
  facet normal 2.22045e-16 1 -2.22045e-16
    outer loop
      vertex 7.5 4.7 4
      vertex 2.18347 4.7 13.5179
      vertex 2.33787 4.7 13.9931
    endloop
  endfacet
  facet normal 2.22045e-16 1 -2.22045e-16
    outer loop
      vertex 0.738582 4.7 16.7631
      vertex -1.559 4.7 21.826
      vertex 1.19505 4.7 16.5599
    endloop
  endfacet
  facet normal 2.22045e-16 1 -2.22045e-16
    outer loop
      vertex 7.5 4.7 4
      vertex 2.3901 4.7 14.49
      vertex 2.33787 4.7 14.9869
    endloop
  endfacet
  facet normal 2.22045e-16 1 -2.22045e-16
    outer loop
      vertex 7.5 4.7 4
      vertex 2.33787 4.7 14.9869
      vertex 2.18347 4.7 15.4621
    endloop
  endfacet
  facet normal 2.22045e-16 1 -2.22045e-16
    outer loop
      vertex 7.5 4.7 4
      vertex 2.18347 4.7 15.4621
      vertex 1.04361e-15 4.7 21.99
    endloop
  endfacet
  facet normal 2.22045e-16 1 -2.22045e-16
    outer loop
      vertex 1.59929 4.7 16.2662
      vertex -1.559 4.7 21.826
      vertex 1.93363 4.7 15.8949
    endloop
  endfacet
  facet normal 2.22045e-16 1 -2.22045e-16
    outer loop
      vertex 1.19505 4.7 16.5599
      vertex -1.559 4.7 21.826
      vertex 1.59929 4.7 16.2662
    endloop
  endfacet
  facet normal 2.22045e-16 1 -2.22045e-16
    outer loop
      vertex 1.93363 4.7 15.8949
      vertex 1.04361e-15 4.7 21.99
      vertex 2.18347 4.7 15.4621
    endloop
  endfacet
  facet normal 2.22045e-16 1 -2.22045e-16
    outer loop
      vertex 0.249833 4.7 16.867
      vertex -1.559 4.7 21.826
      vertex 0.738582 4.7 16.7631
    endloop
  endfacet
  facet normal 2.22045e-16 1 -2.22045e-16
    outer loop
      vertex -0.249833 4.7 16.867
      vertex -3.051 4.7 21.342
      vertex 0.249833 4.7 16.867
    endloop
  endfacet
  facet normal 2.22045e-16 1 -2.22045e-16
    outer loop
      vertex 2.3901 4.7 14.49
      vertex 7.5 4.7 4
      vertex 2.33787 4.7 13.9931
    endloop
  endfacet
  facet normal 2.22045e-16 1 -2.22045e-16
    outer loop
      vertex -1.19505 4.7 16.5599
      vertex -4.408 4.7 20.558
      vertex -0.738582 4.7 16.7631
    endloop
  endfacet
  facet normal 2.22045e-16 1 -2.22045e-16
    outer loop
      vertex -1.59929 4.7 16.2662
      vertex -4.408 4.7 20.558
      vertex -1.19505 4.7 16.5599
    endloop
  endfacet
  facet normal 2.22045e-16 1 -2.22045e-16
    outer loop
      vertex -1.93363 4.7 15.8949
      vertex -4.408 4.7 20.558
      vertex -1.59929 4.7 16.2662
    endloop
  endfacet
  facet normal 2.22045e-16 1 -2.22045e-16
    outer loop
      vertex -2.18346 4.7 15.4621
      vertex -5.574 4.7 19.508
      vertex -1.93363 4.7 15.8949
    endloop
  endfacet
  facet normal 2.22045e-16 1 -2.22045e-16
    outer loop
      vertex -2.33787 4.7 13.9931
      vertex -6.495 4.7 18.24
      vertex -2.3901 4.7 14.49
    endloop
  endfacet
  facet normal 2.22045e-16 1 -2.22045e-16
    outer loop
      vertex 0.249833 4.7 12.113
      vertex 7.5 4.7 4
      vertex -0.249833 4.7 12.113
    endloop
  endfacet
  facet normal -0.999992 2.22928e-16 0.00398674
    outer loop
      vertex -7.5 -4.7 4.99
      vertex -7.459 -4.7 15.274
      vertex -7.5 -1.7 4.99
    endloop
  endfacet
  facet normal -0.999992 2.22928e-16 0.00398674
    outer loop
      vertex -7.5 -1.7 4.99
      vertex -7.459 -4.7 15.274
      vertex -7.459 -1.7 15.274
    endloop
  endfacet
  facet normal -0.978156 2.63351e-16 0.207874
    outer loop
      vertex -7.459 -4.7 15.274
      vertex -7.133 -4.7 16.808
      vertex -7.459 -1.7 15.274
    endloop
  endfacet
  facet normal -0.978156 2.63351e-16 0.207874
    outer loop
      vertex -7.459 -1.7 15.274
      vertex -7.133 -4.7 16.808
      vertex -7.133 -1.7 16.808
    endloop
  endfacet
  facet normal -0.913443 2.9319e-16 0.406967
    outer loop
      vertex -7.133 -4.7 16.808
      vertex -6.495 -4.7 18.24
      vertex -7.133 -1.7 16.808
    endloop
  endfacet
  facet normal -0.913443 2.9319e-16 0.406967
    outer loop
      vertex -7.133 -1.7 16.808
      vertex -6.495 -4.7 18.24
      vertex -6.495 -1.7 18.24
    endloop
  endfacet
  facet normal -0.809095 3.10146e-16 0.587678
    outer loop
      vertex -6.495 -4.7 18.24
      vertex -5.574 -4.7 19.508
      vertex -6.495 -1.7 18.24
    endloop
  endfacet
  facet normal -0.809095 3.10146e-16 0.587678
    outer loop
      vertex -6.495 -1.7 18.24
      vertex -5.574 -4.7 19.508
      vertex -5.574 -1.7 19.508
    endloop
  endfacet
  facet normal -0.669176 3.13589e-16 0.743104
    outer loop
      vertex -5.574 -1.7 19.508
      vertex -5.574 -4.7 19.508
      vertex -4.408 -4.7 20.558
    endloop
  endfacet
  facet normal -0.669176 3.13589e-16 0.743104
    outer loop
      vertex -4.408 -1.7 20.558
      vertex -5.574 -1.7 19.508
      vertex -4.408 -4.7 20.558
    endloop
  endfacet
  facet normal -0.500256 3.03343e-16 0.865877
    outer loop
      vertex -4.408 -1.7 20.558
      vertex -4.408 -4.7 20.558
      vertex -3.051 -4.7 21.342
    endloop
  endfacet
  facet normal -0.500256 3.03343e-16 0.865877
    outer loop
      vertex -3.051 -1.7 21.342
      vertex -4.408 -1.7 20.558
      vertex -3.051 -4.7 21.342
    endloop
  endfacet
  facet normal -0.308567 2.79725e-16 0.951203
    outer loop
      vertex -3.051 -1.7 21.342
      vertex -3.051 -4.7 21.342
      vertex -1.559 -4.7 21.826
    endloop
  endfacet
  facet normal -0.308567 2.79725e-16 0.951203
    outer loop
      vertex -1.559 -1.7 21.826
      vertex -3.051 -1.7 21.342
      vertex -1.559 -4.7 21.826
    endloop
  endfacet
  facet normal -0.104618 2.44056e-16 0.994512
    outer loop
      vertex -1.559 -1.7 21.826
      vertex -1.559 -4.7 21.826
      vertex -1.04361e-15 -4.7 21.99
    endloop
  endfacet
  facet normal -0.104618 2.44056e-16 0.994512
    outer loop
      vertex -3.77476e-16 -1.7 21.99
      vertex -1.559 -1.7 21.826
      vertex -1.04361e-15 -4.7 21.99
    endloop
  endfacet
  facet normal 0.104618 1.97596e-16 0.994512
    outer loop
      vertex -3.77476e-16 -1.7 21.99
      vertex -1.04361e-15 -4.7 21.99
      vertex 1.559 -4.7 21.826
    endloop
  endfacet
  facet normal 0.104618 1.97596e-16 0.994512
    outer loop
      vertex 1.559 -1.7 21.826
      vertex -3.77476e-16 -1.7 21.99
      vertex 1.559 -4.7 21.826
    endloop
  endfacet
  facet normal 0.308567 1.42694e-16 0.951203
    outer loop
      vertex 1.559 -1.7 21.826
      vertex 1.559 -4.7 21.826
      vertex 3.051 -4.7 21.342
    endloop
  endfacet
  facet normal 0.308567 1.42694e-16 0.951203
    outer loop
      vertex 3.051 -1.7 21.342
      vertex 1.559 -1.7 21.826
      vertex 3.051 -4.7 21.342
    endloop
  endfacet
  facet normal 0.500256 8.11842e-17 0.865877
    outer loop
      vertex 3.051 -1.7 21.342
      vertex 3.051 -4.7 21.342
      vertex 4.408 -4.7 20.558
    endloop
  endfacet
  facet normal 0.500256 8.11842e-17 0.865877
    outer loop
      vertex 4.408 -1.7 20.558
      vertex 3.051 -1.7 21.342
      vertex 4.408 -4.7 20.558
    endloop
  endfacet
  facet normal 0.669176 1.64153e-17 0.743104
    outer loop
      vertex 4.408 -1.7 20.558
      vertex 4.408 -4.7 20.558
      vertex 5.574 -4.7 19.508
    endloop
  endfacet
  facet normal 0.669176 1.64153e-17 0.743104
    outer loop
      vertex 5.574 -1.7 19.508
      vertex 4.408 -1.7 20.558
      vertex 5.574 -4.7 19.508
    endloop
  endfacet
  facet normal 0.809095 -4.91643e-17 0.587678
    outer loop
      vertex 5.574 -1.7 19.508
      vertex 5.574 -4.7 19.508
      vertex 6.495 -4.7 18.24
    endloop
  endfacet
  facet normal 0.809095 -4.91643e-17 0.587678
    outer loop
      vertex 6.495 -1.7 18.24
      vertex 5.574 -1.7 19.508
      vertex 6.495 -4.7 18.24
    endloop
  endfacet
  facet normal 0.913443 -1.1246e-16 0.406967
    outer loop
      vertex 6.495 -1.7 18.24
      vertex 6.495 -4.7 18.24
      vertex 7.133 -4.7 16.808
    endloop
  endfacet
  facet normal 0.913443 -1.1246e-16 0.406967
    outer loop
      vertex 7.133 -1.7 16.808
      vertex 6.495 -1.7 18.24
      vertex 7.133 -4.7 16.808
    endloop
  endfacet
  facet normal 0.978156 -1.71037e-16 0.207874
    outer loop
      vertex 7.133 -1.7 16.808
      vertex 7.133 -4.7 16.808
      vertex 7.459 -4.7 15.274
    endloop
  endfacet
  facet normal 0.978156 -1.71037e-16 0.207874
    outer loop
      vertex 7.459 -1.7 15.274
      vertex 7.133 -1.7 16.808
      vertex 7.459 -4.7 15.274
    endloop
  endfacet
  facet normal 0.999992 -2.21158e-16 0.00398674
    outer loop
      vertex 7.459 -1.7 15.274
      vertex 7.459 -4.7 15.274
      vertex 7.5 -4.7 4.99
    endloop
  endfacet
  facet normal 0.999992 -2.21158e-16 0.00398674
    outer loop
      vertex 7.5 -1.7 4.99
      vertex 7.459 -1.7 15.274
      vertex 7.5 -4.7 4.99
    endloop
  endfacet
  facet normal 0.951056 -4.9097e-16 0.309018
    outer loop
      vertex -2.18347 -4.7 13.5179
      vertex -2.18347 -1.7 13.5179
      vertex -2.33787 -1.7 13.9931
    endloop
  endfacet
  facet normal 0.951056 -4.9097e-16 0.309018
    outer loop
      vertex -2.33787 -4.7 13.9931
      vertex -2.18347 -4.7 13.5179
      vertex -2.33787 -1.7 13.9931
    endloop
  endfacet
  facet normal 0.994522 -4.64866e-16 0.104528
    outer loop
      vertex -2.33787 -4.7 13.9931
      vertex -2.33787 -1.7 13.9931
      vertex -2.3901 -1.7 14.49
    endloop
  endfacet
  facet normal 0.994522 -4.64866e-16 0.104528
    outer loop
      vertex -2.3901 -4.7 14.49
      vertex -2.33787 -4.7 13.9931
      vertex -2.3901 -1.7 14.49
    endloop
  endfacet
  facet normal 0.866026 -4.95615e-16 0.499999
    outer loop
      vertex -1.93363 -4.7 13.0851
      vertex -1.93363 -1.7 13.0851
      vertex -2.18347 -1.7 13.5179
    endloop
  endfacet
  facet normal 0.866026 -4.95615e-16 0.499999
    outer loop
      vertex -2.18347 -4.7 13.5179
      vertex -1.93363 -4.7 13.0851
      vertex -2.18347 -1.7 13.5179
    endloop
  endfacet
  facet normal 0.743143 -4.78599e-16 0.669132
    outer loop
      vertex -1.59929 -4.7 12.7138
      vertex -1.59929 -1.7 12.7138
      vertex -1.93363 -1.7 13.0851
    endloop
  endfacet
  facet normal 0.743143 -4.78599e-16 0.669132
    outer loop
      vertex -1.93363 -4.7 13.0851
      vertex -1.59929 -4.7 12.7138
      vertex -1.93363 -1.7 13.0851
    endloop
  endfacet
  facet normal 0.587785 -4.40667e-16 0.809017
    outer loop
      vertex -1.19505 -4.7 12.4201
      vertex -1.19505 -1.7 12.4201
      vertex -1.59929 -1.7 12.7138
    endloop
  endfacet
  facet normal 0.587785 -4.40667e-16 0.809017
    outer loop
      vertex -1.59929 -4.7 12.7138
      vertex -1.19505 -4.7 12.4201
      vertex -1.59929 -1.7 12.7138
    endloop
  endfacet
  facet normal 0.406737 -3.83475e-16 0.913545
    outer loop
      vertex -0.738582 -4.7 12.2169
      vertex -0.738582 -1.7 12.2169
      vertex -1.19505 -1.7 12.4201
    endloop
  endfacet
  facet normal 0.406737 -3.83475e-16 0.913545
    outer loop
      vertex -1.19505 -4.7 12.4201
      vertex -0.738582 -4.7 12.2169
      vertex -1.19505 -1.7 12.4201
    endloop
  endfacet
  facet normal 0.207912 -3.09524e-16 0.978148
    outer loop
      vertex -0.249833 -4.7 12.113
      vertex -0.249833 -1.7 12.113
      vertex -0.738582 -1.7 12.2169
    endloop
  endfacet
  facet normal 0.207912 -3.09524e-16 0.978148
    outer loop
      vertex -0.738582 -4.7 12.2169
      vertex -0.249833 -4.7 12.113
      vertex -0.738582 -1.7 12.2169
    endloop
  endfacet
  facet normal -9.86076e-32 -2.22045e-16 1
    outer loop
      vertex 0.249833 -4.7 12.113
      vertex 0.249833 -1.7 12.113
      vertex -0.249833 -1.7 12.113
    endloop
  endfacet
  facet normal -9.86076e-32 -2.22045e-16 1
    outer loop
      vertex -0.249833 -4.7 12.113
      vertex 0.249833 -4.7 12.113
      vertex -0.249833 -1.7 12.113
    endloop
  endfacet
  facet normal -0.207912 -1.24861e-16 0.978148
    outer loop
      vertex 0.738582 -4.7 12.2169
      vertex 0.738582 -1.7 12.2169
      vertex 0.249833 -1.7 12.113
    endloop
  endfacet
  facet normal -0.207912 -1.24861e-16 0.978148
    outer loop
      vertex 0.249833 -4.7 12.113
      vertex 0.738582 -4.7 12.2169
      vertex 0.249833 -1.7 12.113
    endloop
  endfacet
  facet normal -0.406737 -2.22202e-17 0.913545
    outer loop
      vertex 1.19505 -4.7 12.4201
      vertex 1.19505 -1.7 12.4201
      vertex 0.738582 -1.7 12.2169
    endloop
  endfacet
  facet normal -0.406737 -2.22202e-17 0.913545
    outer loop
      vertex 0.738582 -4.7 12.2169
      vertex 1.19505 -4.7 12.4201
      vertex 0.738582 -1.7 12.2169
    endloop
  endfacet
  facet normal -0.587785 8.13914e-17 0.809017
    outer loop
      vertex 1.59929 -4.7 12.7138
      vertex 1.59929 -1.7 12.7138
      vertex 1.19505 -1.7 12.4201
    endloop
  endfacet
  facet normal -0.587785 8.13914e-17 0.809017
    outer loop
      vertex 1.19505 -4.7 12.4201
      vertex 1.59929 -4.7 12.7138
      vertex 1.19505 -1.7 12.4201
    endloop
  endfacet
  facet normal -0.743143 1.81445e-16 0.669132
    outer loop
      vertex 1.93363 -1.7 13.0851
      vertex 1.59929 -1.7 12.7138
      vertex 1.93363 -4.7 13.0851
    endloop
  endfacet
  facet normal -0.743143 1.81445e-16 0.669132
    outer loop
      vertex 1.93363 -4.7 13.0851
      vertex 1.59929 -1.7 12.7138
      vertex 1.59929 -4.7 12.7138
    endloop
  endfacet
  facet normal -0.866026 2.73571e-16 0.499999
    outer loop
      vertex 2.18346 -1.7 13.5179
      vertex 1.93363 -1.7 13.0851
      vertex 2.18346 -4.7 13.5179
    endloop
  endfacet
  facet normal -0.866026 2.73571e-16 0.499999
    outer loop
      vertex 2.18346 -4.7 13.5179
      vertex 1.93363 -1.7 13.0851
      vertex 1.93363 -4.7 13.0851
    endloop
  endfacet
  facet normal -0.951056 3.53738e-16 0.309018
    outer loop
      vertex 2.33787 -1.7 13.9931
      vertex 2.18346 -1.7 13.5179
      vertex 2.33787 -4.7 13.9931
    endloop
  endfacet
  facet normal -0.951056 3.53738e-16 0.309018
    outer loop
      vertex 2.33787 -4.7 13.9931
      vertex 2.18346 -1.7 13.5179
      vertex 2.18346 -4.7 13.5179
    endloop
  endfacet
  facet normal -0.994522 4.18447e-16 0.104528
    outer loop
      vertex 2.3901 -1.7 14.49
      vertex 2.33787 -1.7 13.9931
      vertex 2.3901 -4.7 14.49
    endloop
  endfacet
  facet normal -0.994522 4.18447e-16 0.104528
    outer loop
      vertex 2.3901 -4.7 14.49
      vertex 2.33787 -1.7 13.9931
      vertex 2.33787 -4.7 13.9931
    endloop
  endfacet
  facet normal -0.994522 4.64866e-16 -0.104528
    outer loop
      vertex 2.3901 -1.7 14.49
      vertex 2.3901 -4.7 14.49
      vertex 2.33787 -1.7 14.9869
    endloop
  endfacet
  facet normal -0.994522 4.64866e-16 -0.104528
    outer loop
      vertex 2.33787 -1.7 14.9869
      vertex 2.3901 -4.7 14.49
      vertex 2.33787 -4.7 14.9869
    endloop
  endfacet
  facet normal -0.951056 4.9097e-16 -0.309018
    outer loop
      vertex 2.33787 -1.7 14.9869
      vertex 2.33787 -4.7 14.9869
      vertex 2.18346 -1.7 15.4621
    endloop
  endfacet
  facet normal -0.951056 4.9097e-16 -0.309018
    outer loop
      vertex 2.18346 -1.7 15.4621
      vertex 2.33787 -4.7 14.9869
      vertex 2.18346 -4.7 15.4621
    endloop
  endfacet
  facet normal -0.866026 4.95615e-16 -0.499999
    outer loop
      vertex 2.18346 -1.7 15.4621
      vertex 2.18346 -4.7 15.4621
      vertex 1.93363 -1.7 15.8949
    endloop
  endfacet
  facet normal -0.866026 4.95615e-16 -0.499999
    outer loop
      vertex 1.93363 -1.7 15.8949
      vertex 2.18346 -4.7 15.4621
      vertex 1.93363 -4.7 15.8949
    endloop
  endfacet
  facet normal -0.743143 4.78599e-16 -0.669132
    outer loop
      vertex 1.93363 -1.7 15.8949
      vertex 1.93363 -4.7 15.8949
      vertex 1.59929 -1.7 16.2662
    endloop
  endfacet
  facet normal -0.743143 4.78599e-16 -0.669132
    outer loop
      vertex 1.59929 -1.7 16.2662
      vertex 1.93363 -4.7 15.8949
      vertex 1.59929 -4.7 16.2662
    endloop
  endfacet
  facet normal -0.587785 4.40667e-16 -0.809017
    outer loop
      vertex 1.59929 -1.7 16.2662
      vertex 1.59929 -4.7 16.2662
      vertex 1.19505 -1.7 16.5599
    endloop
  endfacet
  facet normal -0.587785 4.40667e-16 -0.809017
    outer loop
      vertex 1.19505 -1.7 16.5599
      vertex 1.59929 -4.7 16.2662
      vertex 1.19505 -4.7 16.5599
    endloop
  endfacet
  facet normal -0.406737 3.83475e-16 -0.913545
    outer loop
      vertex 1.19505 -1.7 16.5599
      vertex 1.19505 -4.7 16.5599
      vertex 0.738582 -1.7 16.7631
    endloop
  endfacet
  facet normal -0.406737 3.83475e-16 -0.913545
    outer loop
      vertex 0.738582 -1.7 16.7631
      vertex 1.19505 -4.7 16.5599
      vertex 0.738582 -4.7 16.7631
    endloop
  endfacet
  facet normal -0.207912 3.09524e-16 -0.978148
    outer loop
      vertex 0.738582 -1.7 16.7631
      vertex 0.738582 -4.7 16.7631
      vertex 0.249833 -1.7 16.867
    endloop
  endfacet
  facet normal -0.207912 3.09524e-16 -0.978148
    outer loop
      vertex 0.249833 -1.7 16.867
      vertex 0.738582 -4.7 16.7631
      vertex 0.249833 -4.7 16.867
    endloop
  endfacet
  facet normal 9.86076e-32 2.22045e-16 -1
    outer loop
      vertex 0.249833 -1.7 16.867
      vertex 0.249833 -4.7 16.867
      vertex -0.249833 -1.7 16.867
    endloop
  endfacet
  facet normal 9.86076e-32 2.22045e-16 -1
    outer loop
      vertex -0.249833 -1.7 16.867
      vertex 0.249833 -4.7 16.867
      vertex -0.249833 -4.7 16.867
    endloop
  endfacet
  facet normal 0.207912 1.24861e-16 -0.978148
    outer loop
      vertex -0.249833 -1.7 16.867
      vertex -0.249833 -4.7 16.867
      vertex -0.738582 -1.7 16.7631
    endloop
  endfacet
  facet normal 0.207912 1.24861e-16 -0.978148
    outer loop
      vertex -0.738582 -1.7 16.7631
      vertex -0.249833 -4.7 16.867
      vertex -0.738582 -4.7 16.7631
    endloop
  endfacet
  facet normal 0.406737 2.22202e-17 -0.913545
    outer loop
      vertex -0.738582 -1.7 16.7631
      vertex -0.738582 -4.7 16.7631
      vertex -1.19505 -1.7 16.5599
    endloop
  endfacet
  facet normal 0.406737 2.22202e-17 -0.913545
    outer loop
      vertex -1.19505 -1.7 16.5599
      vertex -0.738582 -4.7 16.7631
      vertex -1.19505 -4.7 16.5599
    endloop
  endfacet
  facet normal 0.587785 -8.13914e-17 -0.809017
    outer loop
      vertex -1.19505 -1.7 16.5599
      vertex -1.19505 -4.7 16.5599
      vertex -1.59929 -1.7 16.2662
    endloop
  endfacet
  facet normal 0.587785 -8.13914e-17 -0.809017
    outer loop
      vertex -1.59929 -1.7 16.2662
      vertex -1.19505 -4.7 16.5599
      vertex -1.59929 -4.7 16.2662
    endloop
  endfacet
  facet normal 0.743143 -1.81445e-16 -0.669132
    outer loop
      vertex -1.93363 -1.7 15.8949
      vertex -1.59929 -1.7 16.2662
      vertex -1.59929 -4.7 16.2662
    endloop
  endfacet
  facet normal 0.743143 -1.81445e-16 -0.669132
    outer loop
      vertex -1.93363 -4.7 15.8949
      vertex -1.93363 -1.7 15.8949
      vertex -1.59929 -4.7 16.2662
    endloop
  endfacet
  facet normal 0.866026 -2.73571e-16 -0.499999
    outer loop
      vertex -2.18347 -1.7 15.4621
      vertex -1.93363 -1.7 15.8949
      vertex -1.93363 -4.7 15.8949
    endloop
  endfacet
  facet normal 0.866026 -2.73571e-16 -0.499999
    outer loop
      vertex -2.18347 -4.7 15.4621
      vertex -2.18347 -1.7 15.4621
      vertex -1.93363 -4.7 15.8949
    endloop
  endfacet
  facet normal 0.951056 -3.53738e-16 -0.309018
    outer loop
      vertex -2.33787 -1.7 14.9869
      vertex -2.18347 -1.7 15.4621
      vertex -2.18347 -4.7 15.4621
    endloop
  endfacet
  facet normal 0.951056 -3.53738e-16 -0.309018
    outer loop
      vertex -2.33787 -4.7 14.9869
      vertex -2.33787 -1.7 14.9869
      vertex -2.18347 -4.7 15.4621
    endloop
  endfacet
  facet normal 0.994522 -4.18447e-16 -0.104528
    outer loop
      vertex -2.3901 -1.7 14.49
      vertex -2.33787 -1.7 14.9869
      vertex -2.33787 -4.7 14.9869
    endloop
  endfacet
  facet normal 0.994522 -4.18447e-16 -0.104528
    outer loop
      vertex -2.3901 -4.7 14.49
      vertex -2.3901 -1.7 14.49
      vertex -2.33787 -4.7 14.9869
    endloop
  endfacet
  facet normal -0.999992 2.22928e-16 0.00398674
    outer loop
      vertex -7.5 1.7 4.99
      vertex -7.459 1.7 15.274
      vertex -7.5 4.7 4.99
    endloop
  endfacet
  facet normal -0.999992 2.22928e-16 0.00398674
    outer loop
      vertex -7.5 4.7 4.99
      vertex -7.459 1.7 15.274
      vertex -7.459 4.7 15.274
    endloop
  endfacet
  facet normal -0.978156 2.63351e-16 0.207874
    outer loop
      vertex -7.459 1.7 15.274
      vertex -7.133 1.7 16.808
      vertex -7.459 4.7 15.274
    endloop
  endfacet
  facet normal -0.978156 2.63351e-16 0.207874
    outer loop
      vertex -7.459 4.7 15.274
      vertex -7.133 1.7 16.808
      vertex -7.133 4.7 16.808
    endloop
  endfacet
  facet normal -0.913443 2.9319e-16 0.406967
    outer loop
      vertex -7.133 1.7 16.808
      vertex -6.495 1.7 18.24
      vertex -7.133 4.7 16.808
    endloop
  endfacet
  facet normal -0.913443 2.9319e-16 0.406967
    outer loop
      vertex -7.133 4.7 16.808
      vertex -6.495 1.7 18.24
      vertex -6.495 4.7 18.24
    endloop
  endfacet
  facet normal -0.809095 3.10146e-16 0.587678
    outer loop
      vertex -6.495 1.7 18.24
      vertex -5.574 1.7 19.508
      vertex -6.495 4.7 18.24
    endloop
  endfacet
  facet normal -0.809095 3.10146e-16 0.587678
    outer loop
      vertex -6.495 4.7 18.24
      vertex -5.574 1.7 19.508
      vertex -5.574 4.7 19.508
    endloop
  endfacet
  facet normal -0.669176 3.13589e-16 0.743104
    outer loop
      vertex -5.574 4.7 19.508
      vertex -5.574 1.7 19.508
      vertex -4.408 1.7 20.558
    endloop
  endfacet
  facet normal -0.669176 3.13589e-16 0.743104
    outer loop
      vertex -4.408 4.7 20.558
      vertex -5.574 4.7 19.508
      vertex -4.408 1.7 20.558
    endloop
  endfacet
  facet normal -0.500256 3.03343e-16 0.865877
    outer loop
      vertex -4.408 4.7 20.558
      vertex -4.408 1.7 20.558
      vertex -3.051 1.7 21.342
    endloop
  endfacet
  facet normal -0.500256 3.03343e-16 0.865877
    outer loop
      vertex -3.051 4.7 21.342
      vertex -4.408 4.7 20.558
      vertex -3.051 1.7 21.342
    endloop
  endfacet
  facet normal -0.308567 2.79725e-16 0.951203
    outer loop
      vertex -3.051 4.7 21.342
      vertex -3.051 1.7 21.342
      vertex -1.559 1.7 21.826
    endloop
  endfacet
  facet normal -0.308567 2.79725e-16 0.951203
    outer loop
      vertex -1.559 4.7 21.826
      vertex -3.051 4.7 21.342
      vertex -1.559 1.7 21.826
    endloop
  endfacet
  facet normal -0.104618 2.44056e-16 0.994512
    outer loop
      vertex -1.559 4.7 21.826
      vertex -1.559 1.7 21.826
      vertex 3.77476e-16 1.7 21.99
    endloop
  endfacet
  facet normal -0.104618 2.44056e-16 0.994512
    outer loop
      vertex 1.04361e-15 4.7 21.99
      vertex -1.559 4.7 21.826
      vertex 3.77476e-16 1.7 21.99
    endloop
  endfacet
  facet normal 0.104618 1.97596e-16 0.994512
    outer loop
      vertex 1.04361e-15 4.7 21.99
      vertex 3.77476e-16 1.7 21.99
      vertex 1.559 1.7 21.826
    endloop
  endfacet
  facet normal 0.104618 1.97596e-16 0.994512
    outer loop
      vertex 1.559 4.7 21.826
      vertex 1.04361e-15 4.7 21.99
      vertex 1.559 1.7 21.826
    endloop
  endfacet
  facet normal 0.308567 1.42694e-16 0.951203
    outer loop
      vertex 1.559 4.7 21.826
      vertex 1.559 1.7 21.826
      vertex 3.051 1.7 21.342
    endloop
  endfacet
  facet normal 0.308567 1.42694e-16 0.951203
    outer loop
      vertex 3.051 4.7 21.342
      vertex 1.559 4.7 21.826
      vertex 3.051 1.7 21.342
    endloop
  endfacet
  facet normal 0.500256 8.11842e-17 0.865877
    outer loop
      vertex 3.051 4.7 21.342
      vertex 3.051 1.7 21.342
      vertex 4.408 1.7 20.558
    endloop
  endfacet
  facet normal 0.500256 8.11842e-17 0.865877
    outer loop
      vertex 4.408 4.7 20.558
      vertex 3.051 4.7 21.342
      vertex 4.408 1.7 20.558
    endloop
  endfacet
  facet normal 0.669176 1.64153e-17 0.743104
    outer loop
      vertex 4.408 4.7 20.558
      vertex 4.408 1.7 20.558
      vertex 5.574 1.7 19.508
    endloop
  endfacet
  facet normal 0.669176 1.64153e-17 0.743104
    outer loop
      vertex 5.574 4.7 19.508
      vertex 4.408 4.7 20.558
      vertex 5.574 1.7 19.508
    endloop
  endfacet
  facet normal 0.809095 -4.91643e-17 0.587678
    outer loop
      vertex 5.574 4.7 19.508
      vertex 5.574 1.7 19.508
      vertex 6.495 1.7 18.24
    endloop
  endfacet
  facet normal 0.809095 -4.91643e-17 0.587678
    outer loop
      vertex 6.495 4.7 18.24
      vertex 5.574 4.7 19.508
      vertex 6.495 1.7 18.24
    endloop
  endfacet
  facet normal 0.913443 -1.1246e-16 0.406967
    outer loop
      vertex 6.495 4.7 18.24
      vertex 6.495 1.7 18.24
      vertex 7.133 1.7 16.808
    endloop
  endfacet
  facet normal 0.913443 -1.1246e-16 0.406967
    outer loop
      vertex 7.133 4.7 16.808
      vertex 6.495 4.7 18.24
      vertex 7.133 1.7 16.808
    endloop
  endfacet
  facet normal 0.978156 -1.71037e-16 0.207874
    outer loop
      vertex 7.133 4.7 16.808
      vertex 7.133 1.7 16.808
      vertex 7.459 1.7 15.274
    endloop
  endfacet
  facet normal 0.978156 -1.71037e-16 0.207874
    outer loop
      vertex 7.459 4.7 15.274
      vertex 7.133 4.7 16.808
      vertex 7.459 1.7 15.274
    endloop
  endfacet
  facet normal 0.999992 -2.21158e-16 0.00398674
    outer loop
      vertex 7.459 4.7 15.274
      vertex 7.459 1.7 15.274
      vertex 7.5 1.7 4.99
    endloop
  endfacet
  facet normal 0.999992 -2.21158e-16 0.00398674
    outer loop
      vertex 7.5 4.7 4.99
      vertex 7.459 4.7 15.274
      vertex 7.5 1.7 4.99
    endloop
  endfacet
  facet normal 0.951056 -4.9097e-16 0.309018
    outer loop
      vertex -2.18346 1.7 13.5179
      vertex -2.18346 4.7 13.5179
      vertex -2.33787 4.7 13.9931
    endloop
  endfacet
  facet normal 0.951056 -4.9097e-16 0.309018
    outer loop
      vertex -2.33787 1.7 13.9931
      vertex -2.18346 1.7 13.5179
      vertex -2.33787 4.7 13.9931
    endloop
  endfacet
  facet normal 0.994522 -4.64866e-16 0.104528
    outer loop
      vertex -2.33787 1.7 13.9931
      vertex -2.33787 4.7 13.9931
      vertex -2.3901 4.7 14.49
    endloop
  endfacet
  facet normal 0.994522 -4.64866e-16 0.104528
    outer loop
      vertex -2.3901 1.7 14.49
      vertex -2.33787 1.7 13.9931
      vertex -2.3901 4.7 14.49
    endloop
  endfacet
  facet normal 0.866026 -4.95615e-16 0.499999
    outer loop
      vertex -1.93363 1.7 13.0851
      vertex -1.93363 4.7 13.0851
      vertex -2.18346 4.7 13.5179
    endloop
  endfacet
  facet normal 0.866026 -4.95615e-16 0.499999
    outer loop
      vertex -2.18346 1.7 13.5179
      vertex -1.93363 1.7 13.0851
      vertex -2.18346 4.7 13.5179
    endloop
  endfacet
  facet normal 0.743143 -4.78599e-16 0.669132
    outer loop
      vertex -1.59929 1.7 12.7138
      vertex -1.59929 4.7 12.7138
      vertex -1.93363 4.7 13.0851
    endloop
  endfacet
  facet normal 0.743143 -4.78599e-16 0.669132
    outer loop
      vertex -1.93363 1.7 13.0851
      vertex -1.59929 1.7 12.7138
      vertex -1.93363 4.7 13.0851
    endloop
  endfacet
  facet normal 0.587785 -4.40667e-16 0.809017
    outer loop
      vertex -1.19505 1.7 12.4201
      vertex -1.19505 4.7 12.4201
      vertex -1.59929 4.7 12.7138
    endloop
  endfacet
  facet normal 0.587785 -4.40667e-16 0.809017
    outer loop
      vertex -1.59929 1.7 12.7138
      vertex -1.19505 1.7 12.4201
      vertex -1.59929 4.7 12.7138
    endloop
  endfacet
  facet normal 0.406737 -3.83475e-16 0.913545
    outer loop
      vertex -0.738582 1.7 12.2169
      vertex -0.738582 4.7 12.2169
      vertex -1.19505 4.7 12.4201
    endloop
  endfacet
  facet normal 0.406737 -3.83475e-16 0.913545
    outer loop
      vertex -1.19505 1.7 12.4201
      vertex -0.738582 1.7 12.2169
      vertex -1.19505 4.7 12.4201
    endloop
  endfacet
  facet normal 0.207912 -3.09524e-16 0.978148
    outer loop
      vertex -0.249833 1.7 12.113
      vertex -0.249833 4.7 12.113
      vertex -0.738582 4.7 12.2169
    endloop
  endfacet
  facet normal 0.207912 -3.09524e-16 0.978148
    outer loop
      vertex -0.738582 1.7 12.2169
      vertex -0.249833 1.7 12.113
      vertex -0.738582 4.7 12.2169
    endloop
  endfacet
  facet normal -9.86076e-32 -2.22045e-16 1
    outer loop
      vertex 0.249833 1.7 12.113
      vertex 0.249833 4.7 12.113
      vertex -0.249833 4.7 12.113
    endloop
  endfacet
  facet normal -9.86076e-32 -2.22045e-16 1
    outer loop
      vertex -0.249833 1.7 12.113
      vertex 0.249833 1.7 12.113
      vertex -0.249833 4.7 12.113
    endloop
  endfacet
  facet normal -0.207912 -1.24861e-16 0.978148
    outer loop
      vertex 0.738582 1.7 12.2169
      vertex 0.738582 4.7 12.2169
      vertex 0.249833 4.7 12.113
    endloop
  endfacet
  facet normal -0.207912 -1.24861e-16 0.978148
    outer loop
      vertex 0.249833 1.7 12.113
      vertex 0.738582 1.7 12.2169
      vertex 0.249833 4.7 12.113
    endloop
  endfacet
  facet normal -0.406737 -2.22202e-17 0.913545
    outer loop
      vertex 1.19505 1.7 12.4201
      vertex 1.19505 4.7 12.4201
      vertex 0.738582 4.7 12.2169
    endloop
  endfacet
  facet normal -0.406737 -2.22202e-17 0.913545
    outer loop
      vertex 0.738582 1.7 12.2169
      vertex 1.19505 1.7 12.4201
      vertex 0.738582 4.7 12.2169
    endloop
  endfacet
  facet normal -0.587785 8.13914e-17 0.809017
    outer loop
      vertex 1.59929 1.7 12.7138
      vertex 1.59929 4.7 12.7138
      vertex 1.19505 4.7 12.4201
    endloop
  endfacet
  facet normal -0.587785 8.13914e-17 0.809017
    outer loop
      vertex 1.19505 1.7 12.4201
      vertex 1.59929 1.7 12.7138
      vertex 1.19505 4.7 12.4201
    endloop
  endfacet
  facet normal -0.743143 1.81445e-16 0.669132
    outer loop
      vertex 1.93363 4.7 13.0851
      vertex 1.59929 4.7 12.7138
      vertex 1.93363 1.7 13.0851
    endloop
  endfacet
  facet normal -0.743143 1.81445e-16 0.669132
    outer loop
      vertex 1.93363 1.7 13.0851
      vertex 1.59929 4.7 12.7138
      vertex 1.59929 1.7 12.7138
    endloop
  endfacet
  facet normal -0.866026 2.73571e-16 0.499999
    outer loop
      vertex 2.18347 4.7 13.5179
      vertex 1.93363 4.7 13.0851
      vertex 2.18347 1.7 13.5179
    endloop
  endfacet
  facet normal -0.866026 2.73571e-16 0.499999
    outer loop
      vertex 2.18347 1.7 13.5179
      vertex 1.93363 4.7 13.0851
      vertex 1.93363 1.7 13.0851
    endloop
  endfacet
  facet normal -0.951056 3.53738e-16 0.309018
    outer loop
      vertex 2.33787 4.7 13.9931
      vertex 2.18347 4.7 13.5179
      vertex 2.33787 1.7 13.9931
    endloop
  endfacet
  facet normal -0.951056 3.53738e-16 0.309018
    outer loop
      vertex 2.33787 1.7 13.9931
      vertex 2.18347 4.7 13.5179
      vertex 2.18347 1.7 13.5179
    endloop
  endfacet
  facet normal -0.994522 4.18447e-16 0.104528
    outer loop
      vertex 2.3901 4.7 14.49
      vertex 2.33787 4.7 13.9931
      vertex 2.3901 1.7 14.49
    endloop
  endfacet
  facet normal -0.994522 4.18447e-16 0.104528
    outer loop
      vertex 2.3901 1.7 14.49
      vertex 2.33787 4.7 13.9931
      vertex 2.33787 1.7 13.9931
    endloop
  endfacet
  facet normal -0.994522 4.64866e-16 -0.104528
    outer loop
      vertex 2.3901 4.7 14.49
      vertex 2.3901 1.7 14.49
      vertex 2.33787 4.7 14.9869
    endloop
  endfacet
  facet normal -0.994522 4.64866e-16 -0.104528
    outer loop
      vertex 2.33787 4.7 14.9869
      vertex 2.3901 1.7 14.49
      vertex 2.33787 1.7 14.9869
    endloop
  endfacet
  facet normal -0.951056 4.9097e-16 -0.309018
    outer loop
      vertex 2.33787 4.7 14.9869
      vertex 2.33787 1.7 14.9869
      vertex 2.18347 4.7 15.4621
    endloop
  endfacet
  facet normal -0.951056 4.9097e-16 -0.309018
    outer loop
      vertex 2.18347 4.7 15.4621
      vertex 2.33787 1.7 14.9869
      vertex 2.18347 1.7 15.4621
    endloop
  endfacet
  facet normal -0.866026 4.95615e-16 -0.499999
    outer loop
      vertex 2.18347 4.7 15.4621
      vertex 2.18347 1.7 15.4621
      vertex 1.93363 4.7 15.8949
    endloop
  endfacet
  facet normal -0.866026 4.95615e-16 -0.499999
    outer loop
      vertex 1.93363 4.7 15.8949
      vertex 2.18347 1.7 15.4621
      vertex 1.93363 1.7 15.8949
    endloop
  endfacet
  facet normal -0.743143 4.78599e-16 -0.669132
    outer loop
      vertex 1.93363 4.7 15.8949
      vertex 1.93363 1.7 15.8949
      vertex 1.59929 4.7 16.2662
    endloop
  endfacet
  facet normal -0.743143 4.78599e-16 -0.669132
    outer loop
      vertex 1.59929 4.7 16.2662
      vertex 1.93363 1.7 15.8949
      vertex 1.59929 1.7 16.2662
    endloop
  endfacet
  facet normal -0.587785 4.40667e-16 -0.809017
    outer loop
      vertex 1.59929 4.7 16.2662
      vertex 1.59929 1.7 16.2662
      vertex 1.19505 4.7 16.5599
    endloop
  endfacet
  facet normal -0.587785 4.40667e-16 -0.809017
    outer loop
      vertex 1.19505 4.7 16.5599
      vertex 1.59929 1.7 16.2662
      vertex 1.19505 1.7 16.5599
    endloop
  endfacet
  facet normal -0.406737 3.83475e-16 -0.913545
    outer loop
      vertex 1.19505 4.7 16.5599
      vertex 1.19505 1.7 16.5599
      vertex 0.738582 4.7 16.7631
    endloop
  endfacet
  facet normal -0.406737 3.83475e-16 -0.913545
    outer loop
      vertex 0.738582 4.7 16.7631
      vertex 1.19505 1.7 16.5599
      vertex 0.738582 1.7 16.7631
    endloop
  endfacet
  facet normal -0.207912 3.09524e-16 -0.978148
    outer loop
      vertex 0.738582 4.7 16.7631
      vertex 0.738582 1.7 16.7631
      vertex 0.249833 4.7 16.867
    endloop
  endfacet
  facet normal -0.207912 3.09524e-16 -0.978148
    outer loop
      vertex 0.249833 4.7 16.867
      vertex 0.738582 1.7 16.7631
      vertex 0.249833 1.7 16.867
    endloop
  endfacet
  facet normal 9.86076e-32 2.22045e-16 -1
    outer loop
      vertex 0.249833 4.7 16.867
      vertex 0.249833 1.7 16.867
      vertex -0.249833 4.7 16.867
    endloop
  endfacet
  facet normal 9.86076e-32 2.22045e-16 -1
    outer loop
      vertex -0.249833 4.7 16.867
      vertex 0.249833 1.7 16.867
      vertex -0.249833 1.7 16.867
    endloop
  endfacet
  facet normal 0.207912 1.24861e-16 -0.978148
    outer loop
      vertex -0.249833 4.7 16.867
      vertex -0.249833 1.7 16.867
      vertex -0.738582 4.7 16.7631
    endloop
  endfacet
  facet normal 0.207912 1.24861e-16 -0.978148
    outer loop
      vertex -0.738582 4.7 16.7631
      vertex -0.249833 1.7 16.867
      vertex -0.738582 1.7 16.7631
    endloop
  endfacet
  facet normal 0.406737 2.22202e-17 -0.913545
    outer loop
      vertex -0.738582 4.7 16.7631
      vertex -0.738582 1.7 16.7631
      vertex -1.19505 4.7 16.5599
    endloop
  endfacet
  facet normal 0.406737 2.22202e-17 -0.913545
    outer loop
      vertex -1.19505 4.7 16.5599
      vertex -0.738582 1.7 16.7631
      vertex -1.19505 1.7 16.5599
    endloop
  endfacet
  facet normal 0.587785 -8.13914e-17 -0.809017
    outer loop
      vertex -1.19505 4.7 16.5599
      vertex -1.19505 1.7 16.5599
      vertex -1.59929 4.7 16.2662
    endloop
  endfacet
  facet normal 0.587785 -8.13914e-17 -0.809017
    outer loop
      vertex -1.59929 4.7 16.2662
      vertex -1.19505 1.7 16.5599
      vertex -1.59929 1.7 16.2662
    endloop
  endfacet
  facet normal 0.743143 -1.81445e-16 -0.669132
    outer loop
      vertex -1.93363 4.7 15.8949
      vertex -1.59929 4.7 16.2662
      vertex -1.59929 1.7 16.2662
    endloop
  endfacet
  facet normal 0.743143 -1.81445e-16 -0.669132
    outer loop
      vertex -1.93363 1.7 15.8949
      vertex -1.93363 4.7 15.8949
      vertex -1.59929 1.7 16.2662
    endloop
  endfacet
  facet normal 0.866026 -2.73571e-16 -0.499999
    outer loop
      vertex -2.18346 4.7 15.4621
      vertex -1.93363 4.7 15.8949
      vertex -1.93363 1.7 15.8949
    endloop
  endfacet
  facet normal 0.866026 -2.73571e-16 -0.499999
    outer loop
      vertex -2.18346 1.7 15.4621
      vertex -2.18346 4.7 15.4621
      vertex -1.93363 1.7 15.8949
    endloop
  endfacet
  facet normal 0.951056 -3.53738e-16 -0.309018
    outer loop
      vertex -2.33787 4.7 14.9869
      vertex -2.18346 4.7 15.4621
      vertex -2.18346 1.7 15.4621
    endloop
  endfacet
  facet normal 0.951056 -3.53738e-16 -0.309018
    outer loop
      vertex -2.33787 1.7 14.9869
      vertex -2.33787 4.7 14.9869
      vertex -2.18346 1.7 15.4621
    endloop
  endfacet
  facet normal 0.994522 -4.18447e-16 -0.104528
    outer loop
      vertex -2.3901 4.7 14.49
      vertex -2.33787 4.7 14.9869
      vertex -2.33787 1.7 14.9869
    endloop
  endfacet
  facet normal 0.994522 -4.18447e-16 -0.104528
    outer loop
      vertex -2.3901 1.7 14.49
      vertex -2.3901 4.7 14.49
      vertex -2.33787 1.7 14.9869
    endloop
  endfacet
endsolid OpenSCAD_Model
