solid OpenSCAD_Model
  facet normal 0 -1 -2.22045e-16
    outer loop
      vertex -14.4454 -14 40.5198
      vertex -14.5 -14 40
      vertex -14.4454 -14 39.4802
    endloop
  endfacet
  facet normal 0 -1 -2.22045e-16
    outer loop
      vertex -14.0225 -14 38.5305
      vertex -14.4454 -14 40.5198
      vertex -14.2839 -14 38.9832
    endloop
  endfacet
  facet normal 0 -1 -2.22045e-16
    outer loop
      vertex -14.2839 -14 38.9832
      vertex -14.4454 -14 40.5198
      vertex -14.4454 -14 39.4802
    endloop
  endfacet
  facet normal 0 -1 -2.22045e-16
    outer loop
      vertex -13.6728 -14 38.1421
      vertex -14.4454 -14 40.5198
      vertex -14.0225 -14 38.5305
    endloop
  endfacet
  facet normal 0 -1 -2.22045e-16
    outer loop
      vertex -13.25 -14 37.8349
      vertex -14.4454 -14 40.5198
      vertex -13.6728 -14 38.1421
    endloop
  endfacet
  facet normal 0 -1 -2.22045e-16
    outer loop
      vertex -12.7725 -14 37.6224
      vertex -14.4454 -14 40.5198
      vertex -13.25 -14 37.8349
    endloop
  endfacet
  facet normal 0 -1 -2.22045e-16
    outer loop
      vertex -13.4158 -14 38.9714
      vertex -14.4454 -14 40.5198
      vertex -12.7725 -14 37.6224
    endloop
  endfacet
  facet normal 0 -1 -2.22045e-16
    outer loop
      vertex 3 -14 3
      vertex -3 -14 38
      vertex -3 -14 3
    endloop
  endfacet
  facet normal 0 -1 -2.22045e-16
    outer loop
      vertex 3 -14 42
      vertex -3 -14 38
      vertex 3 -14 3
    endloop
  endfacet
  facet normal 0 -1 -2.22045e-16
    outer loop
      vertex -12.5408 -14 41.6643
      vertex -12.1829 -14 41.7404
      vertex -11.2275 -14 42.3776
    endloop
  endfacet
  facet normal 0 -1 -2.22045e-16
    outer loop
      vertex -11.8171 -14 41.7404
      vertex -11.4592 -14 41.6643
      vertex -10.75 -14 42.1651
    endloop
  endfacet
  facet normal 0 -1 -2.22045e-16
    outer loop
      vertex -12.2613 -14 42.4863
      vertex -14.4454 -14 40.5198
      vertex -11.7387 -14 42.4863
    endloop
  endfacet
  facet normal 0 -1 -2.22045e-16
    outer loop
      vertex -12.7725 -14 42.3776
      vertex -14.4454 -14 40.5198
      vertex -12.2613 -14 42.4863
    endloop
  endfacet
  facet normal 0 -1 -2.22045e-16
    outer loop
      vertex -13.25 -14 42.1651
      vertex -14.4454 -14 40.5198
      vertex -12.7725 -14 42.3776
    endloop
  endfacet
  facet normal 0 -1 -2.22045e-16
    outer loop
      vertex -13.6728 -14 41.8579
      vertex -14.4454 -14 40.5198
      vertex -13.25 -14 42.1651
    endloop
  endfacet
  facet normal 0 -1 -2.22045e-16
    outer loop
      vertex -14.0225 -14 41.4695
      vertex -14.4454 -14 40.5198
      vertex -13.6728 -14 41.8579
    endloop
  endfacet
  facet normal 0 -1 -2.22045e-16
    outer loop
      vertex -14.2839 -14 41.0168
      vertex -14.4454 -14 40.5198
      vertex -14.0225 -14 41.4695
    endloop
  endfacet
  facet normal 0 -1 -2.22045e-16
    outer loop
      vertex -12.1829 -14 38.2596
      vertex -12.5408 -14 38.3357
      vertex -11.7387 -14 37.5137
    endloop
  endfacet
  facet normal 0 -1 -2.22045e-16
    outer loop
      vertex -10.4013 -14 40.7118
      vertex -10.2882 -14 40.3638
      vertex 3 -14 42
    endloop
  endfacet
  facet normal 0 -1 -2.22045e-16
    outer loop
      vertex -11.125 -14 38.4845
      vertex -11.4592 -14 38.3357
      vertex -10.75 -14 37.8349
    endloop
  endfacet
  facet normal 0 -1 -2.22045e-16
    outer loop
      vertex -11.4592 -14 41.6643
      vertex -11.125 -14 41.5155
      vertex -10.5228 -14 42
    endloop
  endfacet
  facet normal 0 -1 -2.22045e-16
    outer loop
      vertex -11.125 -14 38.4845
      vertex -10.75 -14 37.8349
      vertex -10.5228 -14 38
    endloop
  endfacet
  facet normal 0 -1 -2.22045e-16
    outer loop
      vertex -11.7387 -14 42.4863
      vertex -14.4454 -14 40.5198
      vertex -13.171 -14 41.3005
    endloop
  endfacet
  facet normal 0 -1 -2.22045e-16
    outer loop
      vertex -11.7387 -14 42.4863
      vertex -12.875 -14 41.5155
      vertex -11.2275 -14 42.3776
    endloop
  endfacet
  facet normal 0 -1 -2.22045e-16
    outer loop
      vertex -11.7387 -14 42.4863
      vertex -13.171 -14 41.3005
      vertex -12.875 -14 41.5155
    endloop
  endfacet
  facet normal 0 -1 -2.22045e-16
    outer loop
      vertex -12.875 -14 41.5155
      vertex -12.5408 -14 41.6643
      vertex -11.2275 -14 42.3776
    endloop
  endfacet
  facet normal 0 -1 -2.22045e-16
    outer loop
      vertex -11.2275 -14 42.3776
      vertex -12.1829 -14 41.7404
      vertex -10.75 -14 42.1651
    endloop
  endfacet
  facet normal 0 -1 -2.22045e-16
    outer loop
      vertex -12.1829 -14 41.7404
      vertex -11.8171 -14 41.7404
      vertex -10.75 -14 42.1651
    endloop
  endfacet
  facet normal 0 -1 -2.22045e-16
    outer loop
      vertex -10.75 -14 42.1651
      vertex -11.4592 -14 41.6643
      vertex -10.5228 -14 42
    endloop
  endfacet
  facet normal 0 -1 -2.22045e-16
    outer loop
      vertex -13.4158 -14 41.0286
      vertex -13.171 -14 41.3005
      vertex -14.4454 -14 40.5198
    endloop
  endfacet
  facet normal 0 -1 -2.22045e-16
    outer loop
      vertex -10.5228 -14 42
      vertex -11.125 -14 41.5155
      vertex 3 -14 42
    endloop
  endfacet
  facet normal 0 -1 -2.22045e-16
    outer loop
      vertex -11.125 -14 41.5155
      vertex -10.829 -14 41.3005
      vertex 3 -14 42
    endloop
  endfacet
  facet normal 0 -1 -2.22045e-16
    outer loop
      vertex -10.829 -14 41.3005
      vertex -10.5842 -14 41.0286
      vertex 3 -14 42
    endloop
  endfacet
  facet normal 0 -1 -2.22045e-16
    outer loop
      vertex -10.2882 -14 39.6362
      vertex -10.4013 -14 39.2882
      vertex -3 -14 38
    endloop
  endfacet
  facet normal 0 -1 -2.22045e-16
    outer loop
      vertex -10.5842 -14 41.0286
      vertex -10.4013 -14 40.7118
      vertex 3 -14 42
    endloop
  endfacet
  facet normal 0 -1 -2.22045e-16
    outer loop
      vertex 3 -14 42
      vertex -10.2882 -14 40.3638
      vertex -3 -14 38
    endloop
  endfacet
  facet normal 0 -1 -2.22045e-16
    outer loop
      vertex -10.2882 -14 40.3638
      vertex -10.25 -14 40
      vertex -3 -14 38
    endloop
  endfacet
  facet normal 0 -1 -2.22045e-16
    outer loop
      vertex -10.25 -14 40
      vertex -10.2882 -14 39.6362
      vertex -3 -14 38
    endloop
  endfacet
  facet normal 0 -1 -2.22045e-16
    outer loop
      vertex -3 -14 38
      vertex -10.4013 -14 39.2882
      vertex -10.5228 -14 38
    endloop
  endfacet
  facet normal 0 -1 -2.22045e-16
    outer loop
      vertex -10.4013 -14 39.2882
      vertex -10.5842 -14 38.9714
      vertex -10.5228 -14 38
    endloop
  endfacet
  facet normal 0 -1 -2.22045e-16
    outer loop
      vertex -13.7118 -14 40.3638
      vertex -13.5987 -14 40.7118
      vertex -14.4454 -14 40.5198
    endloop
  endfacet
  facet normal 0 -1 -2.22045e-16
    outer loop
      vertex -10.5842 -14 38.9714
      vertex -10.829 -14 38.6995
      vertex -10.5228 -14 38
    endloop
  endfacet
  facet normal 0 -1 -2.22045e-16
    outer loop
      vertex -13.5987 -14 40.7118
      vertex -13.4158 -14 41.0286
      vertex -14.4454 -14 40.5198
    endloop
  endfacet
  facet normal 0 -1 -2.22045e-16
    outer loop
      vertex -10.829 -14 38.6995
      vertex -11.125 -14 38.4845
      vertex -10.5228 -14 38
    endloop
  endfacet
  facet normal 0 -1 -2.22045e-16
    outer loop
      vertex -10.75 -14 37.8349
      vertex -11.4592 -14 38.3357
      vertex -11.2275 -14 37.6224
    endloop
  endfacet
  facet normal 0 -1 -2.22045e-16
    outer loop
      vertex -11.4592 -14 38.3357
      vertex -11.8171 -14 38.2596
      vertex -11.2275 -14 37.6224
    endloop
  endfacet
  facet normal 0 -1 -2.22045e-16
    outer loop
      vertex -11.2275 -14 37.6224
      vertex -12.1829 -14 38.2596
      vertex -11.7387 -14 37.5137
    endloop
  endfacet
  facet normal 0 -1 -2.22045e-16
    outer loop
      vertex -11.7387 -14 37.5137
      vertex -12.5408 -14 38.3357
      vertex -12.2613 -14 37.5137
    endloop
  endfacet
  facet normal 0 -1 -2.22045e-16
    outer loop
      vertex -12.5408 -14 38.3357
      vertex -12.875 -14 38.4845
      vertex -12.2613 -14 37.5137
    endloop
  endfacet
  facet normal 0 -1 -2.22045e-16
    outer loop
      vertex -12.2613 -14 37.5137
      vertex -13.171 -14 38.6995
      vertex -12.7725 -14 37.6224
    endloop
  endfacet
  facet normal 0 -1 -2.22045e-16
    outer loop
      vertex -13.171 -14 38.6995
      vertex -13.4158 -14 38.9714
      vertex -12.7725 -14 37.6224
    endloop
  endfacet
  facet normal 0 -1 -2.22045e-16
    outer loop
      vertex -13.5987 -14 39.2882
      vertex -14.4454 -14 40.5198
      vertex -13.4158 -14 38.9714
    endloop
  endfacet
  facet normal 0 -1 -2.22045e-16
    outer loop
      vertex -12.875 -14 38.4845
      vertex -13.171 -14 38.6995
      vertex -12.2613 -14 37.5137
    endloop
  endfacet
  facet normal 0 -1 -2.22045e-16
    outer loop
      vertex -13.7118 -14 39.6362
      vertex -13.75 -14 40
      vertex -14.4454 -14 40.5198
    endloop
  endfacet
  facet normal 0 -1 -2.22045e-16
    outer loop
      vertex -13.5987 -14 39.2882
      vertex -13.7118 -14 39.6362
      vertex -14.4454 -14 40.5198
    endloop
  endfacet
  facet normal 0 -1 -2.22045e-16
    outer loop
      vertex -11.8171 -14 38.2596
      vertex -12.1829 -14 38.2596
      vertex -11.2275 -14 37.6224
    endloop
  endfacet
  facet normal 0 -1 -2.22045e-16
    outer loop
      vertex -13.75 -14 40
      vertex -13.7118 -14 40.3638
      vertex -14.4454 -14 40.5198
    endloop
  endfacet
  facet normal -0.994522 2.321e-17 -0.104529
    outer loop
      vertex -14.5 -14 40
      vertex -14.5 -4 40
      vertex -14.4454 -14 39.4802
    endloop
  endfacet
  facet normal -0.994522 2.321e-17 -0.104529
    outer loop
      vertex -14.4454 -14 39.4802
      vertex -14.5 -4 40
      vertex -14.4454 -4 39.4802
    endloop
  endfacet
  facet normal -0.994522 -2.321e-17 0.104529
    outer loop
      vertex -14.5 -14 40
      vertex -14.4454 -14 40.5198
      vertex -14.5 -4 40
    endloop
  endfacet
  facet normal -0.994522 -2.321e-17 0.104529
    outer loop
      vertex -14.5 -4 40
      vertex -14.4454 -14 40.5198
      vertex -14.4454 -4 40.5198
    endloop
  endfacet
  facet normal -0.951057 -6.86153e-17 0.309016
    outer loop
      vertex -14.4454 -14 40.5198
      vertex -14.2839 -14 41.0168
      vertex -14.4454 -4 40.5198
    endloop
  endfacet
  facet normal -0.951057 -6.86153e-17 0.309016
    outer loop
      vertex -14.4454 -4 40.5198
      vertex -14.2839 -14 41.0168
      vertex -14.2839 -4 41.0168
    endloop
  endfacet
  facet normal -0.866024 -1.11023e-16 0.500002
    outer loop
      vertex -14.2839 -14 41.0168
      vertex -14.0225 -14 41.4695
      vertex -14.2839 -4 41.0168
    endloop
  endfacet
  facet normal -0.866024 -1.11023e-16 0.500002
    outer loop
      vertex -14.2839 -4 41.0168
      vertex -14.0225 -14 41.4695
      vertex -14.0225 -4 41.4695
    endloop
  endfacet
  facet normal -0.743146 -1.48577e-16 0.66913
    outer loop
      vertex -14.0225 -14 41.4695
      vertex -13.6728 -14 41.8579
      vertex -14.0225 -4 41.4695
    endloop
  endfacet
  facet normal -0.743146 -1.48577e-16 0.66913
    outer loop
      vertex -14.0225 -4 41.4695
      vertex -13.6728 -14 41.8579
      vertex -13.6728 -4 41.8579
    endloop
  endfacet
  facet normal -0.587786 -1.79638e-16 0.809017
    outer loop
      vertex -13.6728 -4 41.8579
      vertex -13.6728 -14 41.8579
      vertex -13.25 -14 42.1651
    endloop
  endfacet
  facet normal -0.587786 -1.79638e-16 0.809017
    outer loop
      vertex -13.25 -4 42.1651
      vertex -13.6728 -4 41.8579
      vertex -13.25 -14 42.1651
    endloop
  endfacet
  facet normal -0.406735 -2.02848e-16 0.913546
    outer loop
      vertex -13.25 -4 42.1651
      vertex -13.25 -14 42.1651
      vertex -12.7725 -14 42.3776
    endloop
  endfacet
  facet normal -0.406735 -2.02848e-16 0.913546
    outer loop
      vertex -12.7725 -4 42.3776
      vertex -13.25 -4 42.1651
      vertex -12.7725 -14 42.3776
    endloop
  endfacet
  facet normal -0.207913 -2.17192e-16 0.978147
    outer loop
      vertex -12.7725 -4 42.3776
      vertex -12.7725 -14 42.3776
      vertex -12.2613 -14 42.4863
    endloop
  endfacet
  facet normal -0.207913 -2.17192e-16 0.978147
    outer loop
      vertex -12.2613 -4 42.4863
      vertex -12.7725 -4 42.3776
      vertex -12.2613 -14 42.4863
    endloop
  endfacet
  facet normal 0 -2.22045e-16 1
    outer loop
      vertex -12.2613 -4 42.4863
      vertex -12.2613 -14 42.4863
      vertex -11.7387 -14 42.4863
    endloop
  endfacet
  facet normal 0 -2.22045e-16 1
    outer loop
      vertex -11.7387 -4 42.4863
      vertex -12.2613 -4 42.4863
      vertex -11.7387 -14 42.4863
    endloop
  endfacet
  facet normal 0.207913 -2.17192e-16 0.978147
    outer loop
      vertex -11.7387 -4 42.4863
      vertex -11.7387 -14 42.4863
      vertex -11.2275 -14 42.3776
    endloop
  endfacet
  facet normal 0.207913 -2.17192e-16 0.978147
    outer loop
      vertex -11.2275 -4 42.3776
      vertex -11.7387 -4 42.4863
      vertex -11.2275 -14 42.3776
    endloop
  endfacet
  facet normal 0.406735 -2.02848e-16 0.913546
    outer loop
      vertex -11.2275 -4 42.3776
      vertex -11.2275 -14 42.3776
      vertex -10.75 -14 42.1651
    endloop
  endfacet
  facet normal 0.406735 -2.02848e-16 0.913546
    outer loop
      vertex -10.75 -4 42.1651
      vertex -11.2275 -4 42.3776
      vertex -10.75 -14 42.1651
    endloop
  endfacet
  facet normal 0.587786 -1.79638e-16 0.809017
    outer loop
      vertex -10.75 -4 42.1651
      vertex -10.75 -14 42.1651
      vertex -10.5228 -14 42
    endloop
  endfacet
  facet normal 0.587786 -1.79638e-16 0.809017
    outer loop
      vertex -10.5228 -4 42
      vertex -10.75 -4 42.1651
      vertex -10.5228 -14 42
    endloop
  endfacet
  facet normal 0 -2.22045e-16 1
    outer loop
      vertex -10.5228 -4 42
      vertex -10.5228 -14 42
      vertex 3 -14 42
    endloop
  endfacet
  facet normal 0 -2.22045e-16 1
    outer loop
      vertex -8.5612 -4 42
      vertex -10.5228 -4 42
      vertex 3 -14 42
    endloop
  endfacet
  facet normal 0 -2.22045e-16 1
    outer loop
      vertex -10.5228 14 42
      vertex -10.5228 4 42
      vertex 3 14 42
    endloop
  endfacet
  facet normal 0 -2.22045e-16 1
    outer loop
      vertex -10.5228 4 42
      vertex -8.5612 4 42
      vertex 3 14 42
    endloop
  endfacet
  facet normal 0 -2.22045e-16 1
    outer loop
      vertex 3 14 42
      vertex -8.5612 -4 42
      vertex 3 -14 42
    endloop
  endfacet
  facet normal 0 -2.22045e-16 1
    outer loop
      vertex -8.5612 4 42
      vertex -8.5612 -4 42
      vertex 3 14 42
    endloop
  endfacet
  facet normal 1 0 0
    outer loop
      vertex 3 14 42
      vertex 3 -14 42
      vertex 3 -14 3
    endloop
  endfacet
  facet normal 1 0 0
    outer loop
      vertex 3 14 6.21725e-15
      vertex 3 14 42
      vertex 3 14 3
    endloop
  endfacet
  facet normal 1 0 0
    outer loop
      vertex 3 14 3
      vertex 3 14 42
      vertex 3 -14 3
    endloop
  endfacet
  facet normal 0 0 1
    outer loop
      vertex 3 -14 3
      vertex -10 -14 3
      vertex 20 -14 3
    endloop
  endfacet
  facet normal 0 0 1
    outer loop
      vertex -3 -14 3
      vertex -3 14 3
      vertex -10 14 3
    endloop
  endfacet
  facet normal 0 0 1
    outer loop
      vertex 20 14 3
      vertex 3 14 3
      vertex 20 -14 3
    endloop
  endfacet
  facet normal 0 0 1
    outer loop
      vertex -3 -14 3
      vertex -10 -14 3
      vertex 3 -14 3
    endloop
  endfacet
  facet normal 0 0 1
    outer loop
      vertex -10 14 3
      vertex -10 -14 3
      vertex -3 -14 3
    endloop
  endfacet
  facet normal 0 0 1
    outer loop
      vertex 3 14 3
      vertex 3 -14 3
      vertex 20 -14 3
    endloop
  endfacet
  facet normal -1 0 0
    outer loop
      vertex -3 -14 38
      vertex -3 14 38
      vertex -3 -14 3
    endloop
  endfacet
  facet normal -1 0 0
    outer loop
      vertex -3 14 3
      vertex -3 14 38
      vertex -3 14 6.21725e-15
    endloop
  endfacet
  facet normal -1 0 0
    outer loop
      vertex -3 -14 3
      vertex -3 14 38
      vertex -3 14 3
    endloop
  endfacet
  facet normal 0 2.22045e-16 -1
    outer loop
      vertex -10.5228 -14 38
      vertex -10.5228 -4 38
      vertex -3 -14 38
    endloop
  endfacet
  facet normal 0 2.22045e-16 -1
    outer loop
      vertex -3 -14 38
      vertex -10.5228 -4 38
      vertex -8.5612 -4 38
    endloop
  endfacet
  facet normal 0 2.22045e-16 -1
    outer loop
      vertex -3 -14 38
      vertex -8.5612 -4 38
      vertex -8.5612 4 38
    endloop
  endfacet
  facet normal 0 2.22045e-16 -1
    outer loop
      vertex -8.5612 4 38
      vertex -10.5228 4 38
      vertex -10.5228 14 38
    endloop
  endfacet
  facet normal 0 2.22045e-16 -1
    outer loop
      vertex -8.5612 4 38
      vertex -10.5228 14 38
      vertex -3 -14 38
    endloop
  endfacet
  facet normal 0 2.22045e-16 -1
    outer loop
      vertex -3 -14 38
      vertex -10.5228 14 38
      vertex -3 14 38
    endloop
  endfacet
  facet normal 0.587786 1.79638e-16 -0.809017
    outer loop
      vertex -10.75 -14 37.8349
      vertex -10.75 -4 37.8349
      vertex -10.5228 -14 38
    endloop
  endfacet
  facet normal 0.587786 1.79638e-16 -0.809017
    outer loop
      vertex -10.5228 -14 38
      vertex -10.75 -4 37.8349
      vertex -10.5228 -4 38
    endloop
  endfacet
  facet normal 0.406735 2.02848e-16 -0.913546
    outer loop
      vertex -11.2275 -14 37.6224
      vertex -11.2275 -4 37.6224
      vertex -10.75 -14 37.8349
    endloop
  endfacet
  facet normal 0.406735 2.02848e-16 -0.913546
    outer loop
      vertex -10.75 -14 37.8349
      vertex -11.2275 -4 37.6224
      vertex -10.75 -4 37.8349
    endloop
  endfacet
  facet normal 0.207913 2.17192e-16 -0.978147
    outer loop
      vertex -11.7387 -14 37.5137
      vertex -11.7387 -4 37.5137
      vertex -11.2275 -14 37.6224
    endloop
  endfacet
  facet normal 0.207913 2.17192e-16 -0.978147
    outer loop
      vertex -11.2275 -14 37.6224
      vertex -11.7387 -4 37.5137
      vertex -11.2275 -4 37.6224
    endloop
  endfacet
  facet normal 0 2.22045e-16 -1
    outer loop
      vertex -12.2613 -14 37.5137
      vertex -12.2613 -4 37.5137
      vertex -11.7387 -14 37.5137
    endloop
  endfacet
  facet normal 0 2.22045e-16 -1
    outer loop
      vertex -11.7387 -14 37.5137
      vertex -12.2613 -4 37.5137
      vertex -11.7387 -4 37.5137
    endloop
  endfacet
  facet normal -0.207913 2.17192e-16 -0.978147
    outer loop
      vertex -12.7725 -14 37.6224
      vertex -12.7725 -4 37.6224
      vertex -12.2613 -14 37.5137
    endloop
  endfacet
  facet normal -0.207913 2.17192e-16 -0.978147
    outer loop
      vertex -12.2613 -14 37.5137
      vertex -12.7725 -4 37.6224
      vertex -12.2613 -4 37.5137
    endloop
  endfacet
  facet normal -0.406735 2.02848e-16 -0.913546
    outer loop
      vertex -13.25 -14 37.8349
      vertex -13.25 -4 37.8349
      vertex -12.7725 -14 37.6224
    endloop
  endfacet
  facet normal -0.406735 2.02848e-16 -0.913546
    outer loop
      vertex -12.7725 -14 37.6224
      vertex -13.25 -4 37.8349
      vertex -12.7725 -4 37.6224
    endloop
  endfacet
  facet normal -0.587786 1.79638e-16 -0.809017
    outer loop
      vertex -13.6728 -14 38.1421
      vertex -13.6728 -4 38.1421
      vertex -13.25 -14 37.8349
    endloop
  endfacet
  facet normal -0.587786 1.79638e-16 -0.809017
    outer loop
      vertex -13.25 -14 37.8349
      vertex -13.6728 -4 38.1421
      vertex -13.25 -4 37.8349
    endloop
  endfacet
  facet normal -0.743146 1.48577e-16 -0.66913
    outer loop
      vertex -14.0225 -14 38.5305
      vertex -14.0225 -4 38.5305
      vertex -13.6728 -14 38.1421
    endloop
  endfacet
  facet normal -0.743146 1.48577e-16 -0.66913
    outer loop
      vertex -13.6728 -14 38.1421
      vertex -14.0225 -4 38.5305
      vertex -13.6728 -4 38.1421
    endloop
  endfacet
  facet normal -0.866024 1.11023e-16 -0.500002
    outer loop
      vertex -14.2839 -14 38.9832
      vertex -14.2839 -4 38.9832
      vertex -14.0225 -14 38.5305
    endloop
  endfacet
  facet normal -0.866024 1.11023e-16 -0.500002
    outer loop
      vertex -14.0225 -14 38.5305
      vertex -14.2839 -4 38.9832
      vertex -14.0225 -4 38.5305
    endloop
  endfacet
  facet normal -0.951057 6.86153e-17 -0.309016
    outer loop
      vertex -14.4454 -14 39.4802
      vertex -14.4454 -4 39.4802
      vertex -14.2839 -14 38.9832
    endloop
  endfacet
  facet normal -0.951057 6.86153e-17 -0.309016
    outer loop
      vertex -14.2839 -14 38.9832
      vertex -14.4454 -4 39.4802
      vertex -14.2839 -4 38.9832
    endloop
  endfacet
  facet normal 0.994522 2.32102e-17 -0.104529
    outer loop
      vertex -13.75 -4 40
      vertex -13.7118 -4 40.3638
      vertex -13.7118 -14 40.3638
    endloop
  endfacet
  facet normal 0.994522 2.32102e-17 -0.104529
    outer loop
      vertex -13.75 -14 40
      vertex -13.75 -4 40
      vertex -13.7118 -14 40.3638
    endloop
  endfacet
  facet normal 0.994522 -2.32102e-17 0.104529
    outer loop
      vertex -13.7118 -14 39.6362
      vertex -13.7118 -4 39.6362
      vertex -13.75 -4 40
    endloop
  endfacet
  facet normal 0.994522 -2.32102e-17 0.104529
    outer loop
      vertex -13.75 -14 40
      vertex -13.7118 -14 39.6362
      vertex -13.75 -4 40
    endloop
  endfacet
  facet normal 0.951057 -6.86151e-17 0.309015
    outer loop
      vertex -13.5987 -14 39.2882
      vertex -13.5987 -4 39.2882
      vertex -13.7118 -4 39.6362
    endloop
  endfacet
  facet normal 0.951057 -6.86151e-17 0.309015
    outer loop
      vertex -13.7118 -14 39.6362
      vertex -13.5987 -14 39.2882
      vertex -13.7118 -4 39.6362
    endloop
  endfacet
  facet normal 0.866025 -1.11022e-16 0.5
    outer loop
      vertex -13.4158 -14 38.9714
      vertex -13.4158 -4 38.9714
      vertex -13.5987 -4 39.2882
    endloop
  endfacet
  facet normal 0.866025 -1.11022e-16 0.5
    outer loop
      vertex -13.5987 -14 39.2882
      vertex -13.4158 -14 38.9714
      vertex -13.5987 -4 39.2882
    endloop
  endfacet
  facet normal 0.743145 -1.48577e-16 0.669131
    outer loop
      vertex -13.171 -14 38.6995
      vertex -13.171 -4 38.6995
      vertex -13.4158 -4 38.9714
    endloop
  endfacet
  facet normal 0.743145 -1.48577e-16 0.669131
    outer loop
      vertex -13.4158 -14 38.9714
      vertex -13.171 -14 38.6995
      vertex -13.4158 -4 38.9714
    endloop
  endfacet
  facet normal 0.587785 -1.79638e-16 0.809017
    outer loop
      vertex -12.875 -14 38.4845
      vertex -12.875 -4 38.4845
      vertex -13.171 -4 38.6995
    endloop
  endfacet
  facet normal 0.587785 -1.79638e-16 0.809017
    outer loop
      vertex -13.171 -14 38.6995
      vertex -12.875 -14 38.4845
      vertex -13.171 -4 38.6995
    endloop
  endfacet
  facet normal 0.406738 -2.02848e-16 0.913545
    outer loop
      vertex -12.5408 -14 38.3357
      vertex -12.5408 -4 38.3357
      vertex -12.875 -4 38.4845
    endloop
  endfacet
  facet normal 0.406738 -2.02848e-16 0.913545
    outer loop
      vertex -12.875 -14 38.4845
      vertex -12.5408 -14 38.3357
      vertex -12.875 -4 38.4845
    endloop
  endfacet
  facet normal 0.207911 -2.17192e-16 0.978148
    outer loop
      vertex -12.1829 -14 38.2596
      vertex -12.1829 -4 38.2596
      vertex -12.5408 -4 38.3357
    endloop
  endfacet
  facet normal 0.207911 -2.17192e-16 0.978148
    outer loop
      vertex -12.5408 -14 38.3357
      vertex -12.1829 -14 38.2596
      vertex -12.5408 -4 38.3357
    endloop
  endfacet
  facet normal 0 -2.22045e-16 1
    outer loop
      vertex -11.8171 -14 38.2596
      vertex -11.8171 -4 38.2596
      vertex -12.1829 -4 38.2596
    endloop
  endfacet
  facet normal 0 -2.22045e-16 1
    outer loop
      vertex -12.1829 -14 38.2596
      vertex -11.8171 -14 38.2596
      vertex -12.1829 -4 38.2596
    endloop
  endfacet
  facet normal -0.207911 -2.17192e-16 0.978148
    outer loop
      vertex -11.4592 -14 38.3357
      vertex -11.4592 -4 38.3357
      vertex -11.8171 -4 38.2596
    endloop
  endfacet
  facet normal -0.207911 -2.17192e-16 0.978148
    outer loop
      vertex -11.8171 -14 38.2596
      vertex -11.4592 -14 38.3357
      vertex -11.8171 -4 38.2596
    endloop
  endfacet
  facet normal -0.406738 -2.02848e-16 0.913545
    outer loop
      vertex -11.125 -14 38.4845
      vertex -11.125 -4 38.4845
      vertex -11.4592 -4 38.3357
    endloop
  endfacet
  facet normal -0.406738 -2.02848e-16 0.913545
    outer loop
      vertex -11.4592 -14 38.3357
      vertex -11.125 -14 38.4845
      vertex -11.4592 -4 38.3357
    endloop
  endfacet
  facet normal -0.587785 -1.79638e-16 0.809017
    outer loop
      vertex -10.829 -14 38.6995
      vertex -10.829 -4 38.6995
      vertex -11.125 -4 38.4845
    endloop
  endfacet
  facet normal -0.587785 -1.79638e-16 0.809017
    outer loop
      vertex -11.125 -14 38.4845
      vertex -10.829 -14 38.6995
      vertex -11.125 -4 38.4845
    endloop
  endfacet
  facet normal -0.743145 -1.48577e-16 0.669131
    outer loop
      vertex -10.5842 -4 38.9714
      vertex -10.829 -4 38.6995
      vertex -10.5842 -14 38.9714
    endloop
  endfacet
  facet normal -0.743145 -1.48577e-16 0.669131
    outer loop
      vertex -10.5842 -14 38.9714
      vertex -10.829 -4 38.6995
      vertex -10.829 -14 38.6995
    endloop
  endfacet
  facet normal -0.866025 -1.11022e-16 0.5
    outer loop
      vertex -10.4013 -4 39.2882
      vertex -10.5842 -4 38.9714
      vertex -10.4013 -14 39.2882
    endloop
  endfacet
  facet normal -0.866025 -1.11022e-16 0.5
    outer loop
      vertex -10.4013 -14 39.2882
      vertex -10.5842 -4 38.9714
      vertex -10.5842 -14 38.9714
    endloop
  endfacet
  facet normal -0.951057 -6.86151e-17 0.309015
    outer loop
      vertex -10.2882 -4 39.6362
      vertex -10.4013 -4 39.2882
      vertex -10.2882 -14 39.6362
    endloop
  endfacet
  facet normal -0.951057 -6.86151e-17 0.309015
    outer loop
      vertex -10.2882 -14 39.6362
      vertex -10.4013 -4 39.2882
      vertex -10.4013 -14 39.2882
    endloop
  endfacet
  facet normal -0.994522 -2.32102e-17 0.104529
    outer loop
      vertex -10.25 -4 40
      vertex -10.2882 -4 39.6362
      vertex -10.25 -14 40
    endloop
  endfacet
  facet normal -0.994522 -2.32102e-17 0.104529
    outer loop
      vertex -10.25 -14 40
      vertex -10.2882 -4 39.6362
      vertex -10.2882 -14 39.6362
    endloop
  endfacet
  facet normal -0.994522 2.32102e-17 -0.104529
    outer loop
      vertex -10.25 -4 40
      vertex -10.25 -14 40
      vertex -10.2882 -4 40.3638
    endloop
  endfacet
  facet normal -0.994522 2.32102e-17 -0.104529
    outer loop
      vertex -10.2882 -4 40.3638
      vertex -10.25 -14 40
      vertex -10.2882 -14 40.3638
    endloop
  endfacet
  facet normal -0.951057 6.86151e-17 -0.309015
    outer loop
      vertex -10.2882 -4 40.3638
      vertex -10.2882 -14 40.3638
      vertex -10.4013 -4 40.7118
    endloop
  endfacet
  facet normal -0.951057 6.86151e-17 -0.309015
    outer loop
      vertex -10.4013 -4 40.7118
      vertex -10.2882 -14 40.3638
      vertex -10.4013 -14 40.7118
    endloop
  endfacet
  facet normal -0.866025 1.11022e-16 -0.5
    outer loop
      vertex -10.4013 -4 40.7118
      vertex -10.4013 -14 40.7118
      vertex -10.5842 -4 41.0286
    endloop
  endfacet
  facet normal -0.866025 1.11022e-16 -0.5
    outer loop
      vertex -10.5842 -4 41.0286
      vertex -10.4013 -14 40.7118
      vertex -10.5842 -14 41.0286
    endloop
  endfacet
  facet normal -0.743145 1.48577e-16 -0.669131
    outer loop
      vertex -10.5842 -4 41.0286
      vertex -10.5842 -14 41.0286
      vertex -10.829 -4 41.3005
    endloop
  endfacet
  facet normal -0.743145 1.48577e-16 -0.669131
    outer loop
      vertex -10.829 -4 41.3005
      vertex -10.5842 -14 41.0286
      vertex -10.829 -14 41.3005
    endloop
  endfacet
  facet normal -0.587785 1.79638e-16 -0.809017
    outer loop
      vertex -10.829 -4 41.3005
      vertex -10.829 -14 41.3005
      vertex -11.125 -4 41.5155
    endloop
  endfacet
  facet normal -0.587785 1.79638e-16 -0.809017
    outer loop
      vertex -11.125 -4 41.5155
      vertex -10.829 -14 41.3005
      vertex -11.125 -14 41.5155
    endloop
  endfacet
  facet normal -0.406738 2.02848e-16 -0.913545
    outer loop
      vertex -11.125 -4 41.5155
      vertex -11.125 -14 41.5155
      vertex -11.4592 -4 41.6643
    endloop
  endfacet
  facet normal -0.406738 2.02848e-16 -0.913545
    outer loop
      vertex -11.4592 -4 41.6643
      vertex -11.125 -14 41.5155
      vertex -11.4592 -14 41.6643
    endloop
  endfacet
  facet normal -0.207911 2.17192e-16 -0.978148
    outer loop
      vertex -11.4592 -4 41.6643
      vertex -11.4592 -14 41.6643
      vertex -11.8171 -4 41.7404
    endloop
  endfacet
  facet normal -0.207911 2.17192e-16 -0.978148
    outer loop
      vertex -11.8171 -4 41.7404
      vertex -11.4592 -14 41.6643
      vertex -11.8171 -14 41.7404
    endloop
  endfacet
  facet normal 0 2.22045e-16 -1
    outer loop
      vertex -11.8171 -4 41.7404
      vertex -11.8171 -14 41.7404
      vertex -12.1829 -4 41.7404
    endloop
  endfacet
  facet normal 0 2.22045e-16 -1
    outer loop
      vertex -12.1829 -4 41.7404
      vertex -11.8171 -14 41.7404
      vertex -12.1829 -14 41.7404
    endloop
  endfacet
  facet normal 0.207911 2.17192e-16 -0.978148
    outer loop
      vertex -12.1829 -4 41.7404
      vertex -12.1829 -14 41.7404
      vertex -12.5408 -4 41.6643
    endloop
  endfacet
  facet normal 0.207911 2.17192e-16 -0.978148
    outer loop
      vertex -12.5408 -4 41.6643
      vertex -12.1829 -14 41.7404
      vertex -12.5408 -14 41.6643
    endloop
  endfacet
  facet normal 0.406738 2.02848e-16 -0.913545
    outer loop
      vertex -12.5408 -4 41.6643
      vertex -12.5408 -14 41.6643
      vertex -12.875 -4 41.5155
    endloop
  endfacet
  facet normal 0.406738 2.02848e-16 -0.913545
    outer loop
      vertex -12.875 -4 41.5155
      vertex -12.5408 -14 41.6643
      vertex -12.875 -14 41.5155
    endloop
  endfacet
  facet normal 0.587785 1.79638e-16 -0.809017
    outer loop
      vertex -12.875 -4 41.5155
      vertex -12.875 -14 41.5155
      vertex -13.171 -4 41.3005
    endloop
  endfacet
  facet normal 0.587785 1.79638e-16 -0.809017
    outer loop
      vertex -13.171 -4 41.3005
      vertex -12.875 -14 41.5155
      vertex -13.171 -14 41.3005
    endloop
  endfacet
  facet normal 0.743145 1.48577e-16 -0.669131
    outer loop
      vertex -13.4158 -4 41.0286
      vertex -13.171 -4 41.3005
      vertex -13.171 -14 41.3005
    endloop
  endfacet
  facet normal 0.743145 1.48577e-16 -0.669131
    outer loop
      vertex -13.4158 -14 41.0286
      vertex -13.4158 -4 41.0286
      vertex -13.171 -14 41.3005
    endloop
  endfacet
  facet normal 0.866025 1.11022e-16 -0.5
    outer loop
      vertex -13.5987 -4 40.7118
      vertex -13.4158 -4 41.0286
      vertex -13.4158 -14 41.0286
    endloop
  endfacet
  facet normal 0.866025 1.11022e-16 -0.5
    outer loop
      vertex -13.5987 -14 40.7118
      vertex -13.5987 -4 40.7118
      vertex -13.4158 -14 41.0286
    endloop
  endfacet
  facet normal 0.951057 6.86151e-17 -0.309015
    outer loop
      vertex -13.7118 -4 40.3638
      vertex -13.5987 -4 40.7118
      vertex -13.5987 -14 40.7118
    endloop
  endfacet
  facet normal 0.951057 6.86151e-17 -0.309015
    outer loop
      vertex -13.7118 -14 40.3638
      vertex -13.7118 -4 40.3638
      vertex -13.5987 -14 40.7118
    endloop
  endfacet
  facet normal 0 1 2.22045e-16
    outer loop
      vertex -14.2839 -4 41.0168
      vertex -14.0225 -4 41.4695
      vertex -14.4454 -4 40.5198
    endloop
  endfacet
  facet normal 0 1 2.22045e-16
    outer loop
      vertex -14.4454 -4 40.5198
      vertex -14.0225 -4 41.4695
      vertex -13.6728 -4 41.8579
    endloop
  endfacet
  facet normal 0 1 2.22045e-16
    outer loop
      vertex -14.4454 -4 40.5198
      vertex -13.6728 -4 41.8579
      vertex -13.25 -4 42.1651
    endloop
  endfacet
  facet normal 0 1 2.22045e-16
    outer loop
      vertex -14.4454 -4 40.5198
      vertex -13.25 -4 42.1651
      vertex -12.7725 -4 42.3776
    endloop
  endfacet
  facet normal 0 1 2.22045e-16
    outer loop
      vertex -14.4454 -4 40.5198
      vertex -12.7725 -4 42.3776
      vertex -12.2613 -4 42.4863
    endloop
  endfacet
  facet normal 0 1 2.22045e-16
    outer loop
      vertex -14.4454 -4 40.5198
      vertex -12.2613 -4 42.4863
      vertex -11.7387 -4 42.4863
    endloop
  endfacet
  facet normal 0 1 2.22045e-16
    outer loop
      vertex -12.5408 -4 41.6643
      vertex -11.7387 -4 42.4863
      vertex -11.2275 -4 42.3776
    endloop
  endfacet
  facet normal 0 1 2.22045e-16
    outer loop
      vertex -11.8171 -4 41.7404
      vertex -11.2275 -4 42.3776
      vertex -10.75 -4 42.1651
    endloop
  endfacet
  facet normal 0 1 2.22045e-16
    outer loop
      vertex -11.4592 -4 41.6643
      vertex -10.75 -4 42.1651
      vertex -10.5228 -4 42
    endloop
  endfacet
  facet normal 0 1 2.22045e-16
    outer loop
      vertex -11.125 -4 41.5155
      vertex -10.5228 -4 42
      vertex -8.5612 -4 42
    endloop
  endfacet
  facet normal 0 1 2.22045e-16
    outer loop
      vertex -10.829 -4 41.3005
      vertex -8.5612 -4 42
      vertex -8.34582 -4 41.6269
    endloop
  endfacet
  facet normal 0 1 2.22045e-16
    outer loop
      vertex -10.5842 -4 41.0286
      vertex -8.34582 -4 41.6269
      vertex -8.08741 -4 40.8316
    endloop
  endfacet
  facet normal 0 1 2.22045e-16
    outer loop
      vertex -10.2882 -4 40.3638
      vertex -8.08741 -4 40.8316
      vertex -8 -4 40
    endloop
  endfacet
  facet normal 0 1 2.22045e-16
    outer loop
      vertex -10.2882 -4 39.6362
      vertex -8 -4 40
      vertex -8.08741 -4 39.1684
    endloop
  endfacet
  facet normal 0 1 2.22045e-16
    outer loop
      vertex -10.4013 -4 39.2882
      vertex -8.08741 -4 39.1684
      vertex -8.34582 -4 38.3731
    endloop
  endfacet
  facet normal 0 1 2.22045e-16
    outer loop
      vertex -10.5842 -4 38.9714
      vertex -8.34582 -4 38.3731
      vertex -8.5612 -4 38
    endloop
  endfacet
  facet normal 0 1 2.22045e-16
    outer loop
      vertex -11.125 -4 38.4845
      vertex -8.5612 -4 38
      vertex -10.5228 -4 38
    endloop
  endfacet
  facet normal 0 1 2.22045e-16
    outer loop
      vertex -11.125 -4 38.4845
      vertex -10.75 -4 37.8349
      vertex -11.4592 -4 38.3357
    endloop
  endfacet
  facet normal 0 1 2.22045e-16
    outer loop
      vertex -11.8171 -4 38.2596
      vertex -10.75 -4 37.8349
      vertex -11.2275 -4 37.6224
    endloop
  endfacet
  facet normal 0 1 2.22045e-16
    outer loop
      vertex -12.1829 -4 38.2596
      vertex -11.2275 -4 37.6224
      vertex -11.7387 -4 37.5137
    endloop
  endfacet
  facet normal 0 1 2.22045e-16
    outer loop
      vertex -12.875 -4 38.4845
      vertex -11.7387 -4 37.5137
      vertex -12.2613 -4 37.5137
    endloop
  endfacet
  facet normal 0 1 2.22045e-16
    outer loop
      vertex -13.4158 -4 38.9714
      vertex -12.2613 -4 37.5137
      vertex -12.7725 -4 37.6224
    endloop
  endfacet
  facet normal 0 1 2.22045e-16
    outer loop
      vertex -14.4454 -4 40.5198
      vertex -12.7725 -4 37.6224
      vertex -13.25 -4 37.8349
    endloop
  endfacet
  facet normal 0 1 2.22045e-16
    outer loop
      vertex -14.4454 -4 40.5198
      vertex -13.25 -4 37.8349
      vertex -13.6728 -4 38.1421
    endloop
  endfacet
  facet normal 0 1 2.22045e-16
    outer loop
      vertex -14.4454 -4 40.5198
      vertex -13.6728 -4 38.1421
      vertex -14.0225 -4 38.5305
    endloop
  endfacet
  facet normal 0 1 2.22045e-16
    outer loop
      vertex -14.4454 -4 40.5198
      vertex -14.0225 -4 38.5305
      vertex -14.2839 -4 38.9832
    endloop
  endfacet
  facet normal 0 1 2.22045e-16
    outer loop
      vertex -14.4454 -4 40.5198
      vertex -14.2839 -4 38.9832
      vertex -14.4454 -4 39.4802
    endloop
  endfacet
  facet normal 0 1 2.22045e-16
    outer loop
      vertex -14.4454 -4 40.5198
      vertex -14.4454 -4 39.4802
      vertex -14.5 -4 40
    endloop
  endfacet
  facet normal 0 1 2.22045e-16
    outer loop
      vertex -13.7118 -4 39.6362
      vertex -14.4454 -4 40.5198
      vertex -13.75 -4 40
    endloop
  endfacet
  facet normal 0 1 2.22045e-16
    outer loop
      vertex -13.5987 -4 39.2882
      vertex -14.4454 -4 40.5198
      vertex -13.7118 -4 39.6362
    endloop
  endfacet
  facet normal 0 1 2.22045e-16
    outer loop
      vertex -12.875 -4 38.4845
      vertex -12.2613 -4 37.5137
      vertex -13.171 -4 38.6995
    endloop
  endfacet
  facet normal 0 1 2.22045e-16
    outer loop
      vertex -14.4454 -4 40.5198
      vertex -13.5987 -4 39.2882
      vertex -12.7725 -4 37.6224
    endloop
  endfacet
  facet normal 0 1 2.22045e-16
    outer loop
      vertex -13.171 -4 38.6995
      vertex -12.2613 -4 37.5137
      vertex -13.4158 -4 38.9714
    endloop
  endfacet
  facet normal 0 1 2.22045e-16
    outer loop
      vertex -13.5987 -4 39.2882
      vertex -13.4158 -4 38.9714
      vertex -12.7725 -4 37.6224
    endloop
  endfacet
  facet normal 0 1 2.22045e-16
    outer loop
      vertex -12.5408 -4 38.3357
      vertex -11.7387 -4 37.5137
      vertex -12.875 -4 38.4845
    endloop
  endfacet
  facet normal 0 1 2.22045e-16
    outer loop
      vertex -12.1829 -4 38.2596
      vertex -11.7387 -4 37.5137
      vertex -12.5408 -4 38.3357
    endloop
  endfacet
  facet normal 0 1 2.22045e-16
    outer loop
      vertex -11.4592 -4 38.3357
      vertex -10.75 -4 37.8349
      vertex -11.8171 -4 38.2596
    endloop
  endfacet
  facet normal 0 1 2.22045e-16
    outer loop
      vertex -11.125 -4 38.4845
      vertex -10.5228 -4 38
      vertex -10.75 -4 37.8349
    endloop
  endfacet
  facet normal 0 1 2.22045e-16
    outer loop
      vertex -10.829 -4 38.6995
      vertex -8.5612 -4 38
      vertex -11.125 -4 38.4845
    endloop
  endfacet
  facet normal 0 1 2.22045e-16
    outer loop
      vertex -11.8171 -4 38.2596
      vertex -11.2275 -4 37.6224
      vertex -12.1829 -4 38.2596
    endloop
  endfacet
  facet normal 0 1 2.22045e-16
    outer loop
      vertex -10.25 -4 40
      vertex -8 -4 40
      vertex -10.2882 -4 39.6362
    endloop
  endfacet
  facet normal 0 1 2.22045e-16
    outer loop
      vertex -10.2882 -4 40.3638
      vertex -8 -4 40
      vertex -10.25 -4 40
    endloop
  endfacet
  facet normal 0 1 2.22045e-16
    outer loop
      vertex -10.4013 -4 40.7118
      vertex -8.08741 -4 40.8316
      vertex -10.2882 -4 40.3638
    endloop
  endfacet
  facet normal 0 1 2.22045e-16
    outer loop
      vertex -10.5842 -4 41.0286
      vertex -8.08741 -4 40.8316
      vertex -10.4013 -4 40.7118
    endloop
  endfacet
  facet normal 0 1 2.22045e-16
    outer loop
      vertex -13.7118 -4 40.3638
      vertex -14.4454 -4 40.5198
      vertex -13.5987 -4 40.7118
    endloop
  endfacet
  facet normal 0 1 2.22045e-16
    outer loop
      vertex -10.829 -4 41.3005
      vertex -8.34582 -4 41.6269
      vertex -10.5842 -4 41.0286
    endloop
  endfacet
  facet normal 0 1 2.22045e-16
    outer loop
      vertex -11.125 -4 41.5155
      vertex -8.5612 -4 42
      vertex -10.829 -4 41.3005
    endloop
  endfacet
  facet normal 0 1 2.22045e-16
    outer loop
      vertex -11.4592 -4 41.6643
      vertex -10.5228 -4 42
      vertex -11.125 -4 41.5155
    endloop
  endfacet
  facet normal 0 1 2.22045e-16
    outer loop
      vertex -11.8171 -4 41.7404
      vertex -10.75 -4 42.1651
      vertex -11.4592 -4 41.6643
    endloop
  endfacet
  facet normal 0 1 2.22045e-16
    outer loop
      vertex -12.1829 -4 41.7404
      vertex -11.2275 -4 42.3776
      vertex -11.8171 -4 41.7404
    endloop
  endfacet
  facet normal 0 1 2.22045e-16
    outer loop
      vertex -12.5408 -4 41.6643
      vertex -11.2275 -4 42.3776
      vertex -12.1829 -4 41.7404
    endloop
  endfacet
  facet normal 0 1 2.22045e-16
    outer loop
      vertex -12.875 -4 41.5155
      vertex -11.7387 -4 42.4863
      vertex -12.5408 -4 41.6643
    endloop
  endfacet
  facet normal 0 1 2.22045e-16
    outer loop
      vertex -13.4158 -4 41.0286
      vertex -14.4454 -4 40.5198
      vertex -13.171 -4 41.3005
    endloop
  endfacet
  facet normal 0 1 2.22045e-16
    outer loop
      vertex -14.4454 -4 40.5198
      vertex -11.7387 -4 42.4863
      vertex -12.875 -4 41.5155
    endloop
  endfacet
  facet normal 0 1 2.22045e-16
    outer loop
      vertex -14.4454 -4 40.5198
      vertex -12.875 -4 41.5155
      vertex -13.171 -4 41.3005
    endloop
  endfacet
  facet normal 0 1 2.22045e-16
    outer loop
      vertex -13.5987 -4 40.7118
      vertex -14.4454 -4 40.5198
      vertex -13.4158 -4 41.0286
    endloop
  endfacet
  facet normal 0 1 2.22045e-16
    outer loop
      vertex -13.75 -4 40
      vertex -14.4454 -4 40.5198
      vertex -13.7118 -4 40.3638
    endloop
  endfacet
  facet normal 0 1 2.22045e-16
    outer loop
      vertex -10.2882 -4 39.6362
      vertex -8.08741 -4 39.1684
      vertex -10.4013 -4 39.2882
    endloop
  endfacet
  facet normal 0 1 2.22045e-16
    outer loop
      vertex -10.4013 -4 39.2882
      vertex -8.34582 -4 38.3731
      vertex -10.5842 -4 38.9714
    endloop
  endfacet
  facet normal 0 1 2.22045e-16
    outer loop
      vertex -10.5842 -4 38.9714
      vertex -8.5612 -4 38
      vertex -10.829 -4 38.6995
    endloop
  endfacet
  facet normal -0.866025 1.11022e-16 -0.5
    outer loop
      vertex -8.34582 4 41.6269
      vertex -8.34582 -4 41.6269
      vertex -8.5612 4 42
    endloop
  endfacet
  facet normal -0.866025 1.11022e-16 -0.5
    outer loop
      vertex -8.5612 4 42
      vertex -8.34582 -4 41.6269
      vertex -8.5612 -4 42
    endloop
  endfacet
  facet normal 0 -1 -2.22045e-16
    outer loop
      vertex -14.4454 4 39.4802
      vertex -14.2839 4 38.9832
      vertex -14.0225 4 38.5305
    endloop
  endfacet
  facet normal 0 -1 -2.22045e-16
    outer loop
      vertex -13.25 4 37.8349
      vertex -14.4454 4 39.4802
      vertex -13.6728 4 38.1421
    endloop
  endfacet
  facet normal 0 -1 -2.22045e-16
    outer loop
      vertex -13.6728 4 38.1421
      vertex -14.4454 4 39.4802
      vertex -14.0225 4 38.5305
    endloop
  endfacet
  facet normal 0 -1 -2.22045e-16
    outer loop
      vertex -12.7725 4 37.6224
      vertex -14.4454 4 39.4802
      vertex -13.25 4 37.8349
    endloop
  endfacet
  facet normal 0 -1 -2.22045e-16
    outer loop
      vertex -12.2613 4 37.5137
      vertex -14.4454 4 39.4802
      vertex -12.7725 4 37.6224
    endloop
  endfacet
  facet normal 0 -1 -2.22045e-16
    outer loop
      vertex -11.7387 4 37.5137
      vertex -14.4454 4 39.4802
      vertex -12.2613 4 37.5137
    endloop
  endfacet
  facet normal 0 -1 -2.22045e-16
    outer loop
      vertex -12.875 4 38.4845
      vertex -14.4454 4 39.4802
      vertex -11.7387 4 37.5137
    endloop
  endfacet
  facet normal 0 -1 -2.22045e-16
    outer loop
      vertex -12.1829 4 38.2596
      vertex -12.5408 4 38.3357
      vertex -11.2275 4 37.6224
    endloop
  endfacet
  facet normal 0 -1 -2.22045e-16
    outer loop
      vertex -11.4592 4 38.3357
      vertex -11.8171 4 38.2596
      vertex -10.75 4 37.8349
    endloop
  endfacet
  facet normal 0 -1 -2.22045e-16
    outer loop
      vertex -11.125 4 38.4845
      vertex -11.4592 4 38.3357
      vertex -10.5228 4 38
    endloop
  endfacet
  facet normal 0 -1 -2.22045e-16
    outer loop
      vertex -10.5842 4 38.9714
      vertex -10.829 4 38.6995
      vertex -8.34582 4 38.3731
    endloop
  endfacet
  facet normal 0 -1 -2.22045e-16
    outer loop
      vertex -10.4013 4 39.2882
      vertex -10.5842 4 38.9714
      vertex -8.08741 4 39.1684
    endloop
  endfacet
  facet normal 0 -1 -2.22045e-16
    outer loop
      vertex -10.25 4 40
      vertex -10.2882 4 39.6362
      vertex -8 4 40
    endloop
  endfacet
  facet normal 0 -1 -2.22045e-16
    outer loop
      vertex -10.5842 4 41.0286
      vertex -10.4013 4 40.7118
      vertex -8.34582 4 41.6269
    endloop
  endfacet
  facet normal 0 -1 -2.22045e-16
    outer loop
      vertex -10.829 4 41.3005
      vertex -10.5842 4 41.0286
      vertex -8.5612 4 42
    endloop
  endfacet
  facet normal 0 -1 -2.22045e-16
    outer loop
      vertex -10.4013 4 40.7118
      vertex -10.2882 4 40.3638
      vertex -8.08741 4 40.8316
    endloop
  endfacet
  facet normal 0 -1 -2.22045e-16
    outer loop
      vertex -13.171 4 41.3005
      vertex -12.875 4 41.5155
      vertex -12.2613 4 42.4863
    endloop
  endfacet
  facet normal 0 -1 -2.22045e-16
    outer loop
      vertex -12.5408 4 41.6643
      vertex -12.1829 4 41.7404
      vertex -11.7387 4 42.4863
    endloop
  endfacet
  facet normal 0 -1 -2.22045e-16
    outer loop
      vertex -13.25 4 42.1651
      vertex -14.4454 4 39.4802
      vertex -12.7725 4 42.3776
    endloop
  endfacet
  facet normal 0 -1 -2.22045e-16
    outer loop
      vertex -13.6728 4 41.8579
      vertex -14.4454 4 39.4802
      vertex -13.25 4 42.1651
    endloop
  endfacet
  facet normal 0 -1 -2.22045e-16
    outer loop
      vertex -14.0225 4 41.4695
      vertex -14.4454 4 39.4802
      vertex -13.6728 4 41.8579
    endloop
  endfacet
  facet normal 0 -1 -2.22045e-16
    outer loop
      vertex -14.2839 4 41.0168
      vertex -14.4454 4 39.4802
      vertex -14.0225 4 41.4695
    endloop
  endfacet
  facet normal 0 -1 -2.22045e-16
    outer loop
      vertex -14.4454 4 40.5198
      vertex -14.4454 4 39.4802
      vertex -14.2839 4 41.0168
    endloop
  endfacet
  facet normal 0 -1 -2.22045e-16
    outer loop
      vertex -14.5 4 40
      vertex -14.4454 4 39.4802
      vertex -14.4454 4 40.5198
    endloop
  endfacet
  facet normal 0 -1 -2.22045e-16
    outer loop
      vertex -12.1829 4 41.7404
      vertex -11.8171 4 41.7404
      vertex -11.2275 4 42.3776
    endloop
  endfacet
  facet normal 0 -1 -2.22045e-16
    outer loop
      vertex -11.4592 4 41.6643
      vertex -11.125 4 41.5155
      vertex -10.5228 4 42
    endloop
  endfacet
  facet normal 0 -1 -2.22045e-16
    outer loop
      vertex -12.7725 4 42.3776
      vertex -14.4454 4 39.4802
      vertex -13.5987 4 40.7118
    endloop
  endfacet
  facet normal 0 -1 -2.22045e-16
    outer loop
      vertex -12.7725 4 42.3776
      vertex -13.4158 4 41.0286
      vertex -12.2613 4 42.4863
    endloop
  endfacet
  facet normal 0 -1 -2.22045e-16
    outer loop
      vertex -12.7725 4 42.3776
      vertex -13.5987 4 40.7118
      vertex -13.4158 4 41.0286
    endloop
  endfacet
  facet normal 0 -1 -2.22045e-16
    outer loop
      vertex -13.4158 4 41.0286
      vertex -13.171 4 41.3005
      vertex -12.2613 4 42.4863
    endloop
  endfacet
  facet normal 0 -1 -2.22045e-16
    outer loop
      vertex -12.2613 4 42.4863
      vertex -12.875 4 41.5155
      vertex -11.7387 4 42.4863
    endloop
  endfacet
  facet normal 0 -1 -2.22045e-16
    outer loop
      vertex -12.875 4 41.5155
      vertex -12.5408 4 41.6643
      vertex -11.7387 4 42.4863
    endloop
  endfacet
  facet normal 0 -1 -2.22045e-16
    outer loop
      vertex -11.7387 4 42.4863
      vertex -12.1829 4 41.7404
      vertex -11.2275 4 42.3776
    endloop
  endfacet
  facet normal 0 -1 -2.22045e-16
    outer loop
      vertex -13.7118 4 40.3638
      vertex -13.5987 4 40.7118
      vertex -14.4454 4 39.4802
    endloop
  endfacet
  facet normal 0 -1 -2.22045e-16
    outer loop
      vertex -11.2275 4 42.3776
      vertex -11.8171 4 41.7404
      vertex -10.75 4 42.1651
    endloop
  endfacet
  facet normal 0 -1 -2.22045e-16
    outer loop
      vertex -13.4158 4 38.9714
      vertex -13.5987 4 39.2882
      vertex -14.4454 4 39.4802
    endloop
  endfacet
  facet normal 0 -1 -2.22045e-16
    outer loop
      vertex -11.8171 4 41.7404
      vertex -11.4592 4 41.6643
      vertex -10.75 4 42.1651
    endloop
  endfacet
  facet normal 0 -1 -2.22045e-16
    outer loop
      vertex -10.5228 4 42
      vertex -11.125 4 41.5155
      vertex -8.5612 4 42
    endloop
  endfacet
  facet normal 0 -1 -2.22045e-16
    outer loop
      vertex -11.125 4 41.5155
      vertex -10.829 4 41.3005
      vertex -8.5612 4 42
    endloop
  endfacet
  facet normal 0 -1 -2.22045e-16
    outer loop
      vertex -8.5612 4 42
      vertex -10.5842 4 41.0286
      vertex -8.34582 4 41.6269
    endloop
  endfacet
  facet normal 0 -1 -2.22045e-16
    outer loop
      vertex -8.34582 4 41.6269
      vertex -10.4013 4 40.7118
      vertex -8.08741 4 40.8316
    endloop
  endfacet
  facet normal 0 -1 -2.22045e-16
    outer loop
      vertex -8.08741 4 40.8316
      vertex -10.2882 4 40.3638
      vertex -8 4 40
    endloop
  endfacet
  facet normal 0 -1 -2.22045e-16
    outer loop
      vertex -10.2882 4 40.3638
      vertex -10.25 4 40
      vertex -8 4 40
    endloop
  endfacet
  facet normal 0 -1 -2.22045e-16
    outer loop
      vertex -8 4 40
      vertex -10.2882 4 39.6362
      vertex -8.08741 4 39.1684
    endloop
  endfacet
  facet normal 0 -1 -2.22045e-16
    outer loop
      vertex -10.2882 4 39.6362
      vertex -10.4013 4 39.2882
      vertex -8.08741 4 39.1684
    endloop
  endfacet
  facet normal 0 -1 -2.22045e-16
    outer loop
      vertex -8.08741 4 39.1684
      vertex -10.5842 4 38.9714
      vertex -8.34582 4 38.3731
    endloop
  endfacet
  facet normal 0 -1 -2.22045e-16
    outer loop
      vertex -13.7118 4 39.6362
      vertex -13.75 4 40
      vertex -14.4454 4 39.4802
    endloop
  endfacet
  facet normal 0 -1 -2.22045e-16
    outer loop
      vertex -8.34582 4 38.3731
      vertex -10.829 4 38.6995
      vertex -8.5612 4 38
    endloop
  endfacet
  facet normal 0 -1 -2.22045e-16
    outer loop
      vertex -8.5612 4 38
      vertex -11.125 4 38.4845
      vertex -10.5228 4 38
    endloop
  endfacet
  facet normal 0 -1 -2.22045e-16
    outer loop
      vertex -10.5228 4 38
      vertex -11.4592 4 38.3357
      vertex -10.75 4 37.8349
    endloop
  endfacet
  facet normal 0 -1 -2.22045e-16
    outer loop
      vertex -10.75 4 37.8349
      vertex -11.8171 4 38.2596
      vertex -11.2275 4 37.6224
    endloop
  endfacet
  facet normal 0 -1 -2.22045e-16
    outer loop
      vertex -11.8171 4 38.2596
      vertex -12.1829 4 38.2596
      vertex -11.2275 4 37.6224
    endloop
  endfacet
  facet normal 0 -1 -2.22045e-16
    outer loop
      vertex -11.2275 4 37.6224
      vertex -12.5408 4 38.3357
      vertex -11.7387 4 37.5137
    endloop
  endfacet
  facet normal 0 -1 -2.22045e-16
    outer loop
      vertex -12.5408 4 38.3357
      vertex -12.875 4 38.4845
      vertex -11.7387 4 37.5137
    endloop
  endfacet
  facet normal 0 -1 -2.22045e-16
    outer loop
      vertex -13.171 4 38.6995
      vertex -14.4454 4 39.4802
      vertex -12.875 4 38.4845
    endloop
  endfacet
  facet normal 0 -1 -2.22045e-16
    outer loop
      vertex -13.171 4 38.6995
      vertex -13.4158 4 38.9714
      vertex -14.4454 4 39.4802
    endloop
  endfacet
  facet normal 0 -1 -2.22045e-16
    outer loop
      vertex -10.829 4 38.6995
      vertex -11.125 4 38.4845
      vertex -8.5612 4 38
    endloop
  endfacet
  facet normal 0 -1 -2.22045e-16
    outer loop
      vertex -11.4592 4 41.6643
      vertex -10.5228 4 42
      vertex -10.75 4 42.1651
    endloop
  endfacet
  facet normal 0 -1 -2.22045e-16
    outer loop
      vertex -13.75 4 40
      vertex -13.7118 4 40.3638
      vertex -14.4454 4 39.4802
    endloop
  endfacet
  facet normal 0 -1 -2.22045e-16
    outer loop
      vertex -13.5987 4 39.2882
      vertex -13.7118 4 39.6362
      vertex -14.4454 4 39.4802
    endloop
  endfacet
  facet normal 0.587786 -1.79638e-16 0.809017
    outer loop
      vertex -10.75 14 42.1651
      vertex -10.75 4 42.1651
      vertex -10.5228 4 42
    endloop
  endfacet
  facet normal 0.587786 -1.79638e-16 0.809017
    outer loop
      vertex -10.5228 14 42
      vertex -10.75 14 42.1651
      vertex -10.5228 4 42
    endloop
  endfacet
  facet normal 0 1 2.22045e-16
    outer loop
      vertex -14.5 14 40
      vertex -14.4454 14 40.5198
      vertex -14.4454 14 39.4802
    endloop
  endfacet
  facet normal 0 1 2.22045e-16
    outer loop
      vertex -14.4454 14 39.4802
      vertex -14.4454 14 40.5198
      vertex -14.2839 14 41.0168
    endloop
  endfacet
  facet normal 0 1 2.22045e-16
    outer loop
      vertex -14.4454 14 39.4802
      vertex -14.2839 14 41.0168
      vertex -14.0225 14 41.4695
    endloop
  endfacet
  facet normal 0 1 2.22045e-16
    outer loop
      vertex -14.4454 14 39.4802
      vertex -14.0225 14 41.4695
      vertex -13.6728 14 41.8579
    endloop
  endfacet
  facet normal 0 1 2.22045e-16
    outer loop
      vertex -14.4454 14 39.4802
      vertex -13.6728 14 41.8579
      vertex -13.25 14 42.1651
    endloop
  endfacet
  facet normal 0 1 2.22045e-16
    outer loop
      vertex -14.4454 14 39.4802
      vertex -13.25 14 42.1651
      vertex -12.7725 14 42.3776
    endloop
  endfacet
  facet normal 0 1 2.22045e-16
    outer loop
      vertex -13.171 14 41.3005
      vertex -12.7725 14 42.3776
      vertex -12.2613 14 42.4863
    endloop
  endfacet
  facet normal 0 1 2.22045e-16
    outer loop
      vertex -12.5408 14 41.6643
      vertex -12.2613 14 42.4863
      vertex -11.7387 14 42.4863
    endloop
  endfacet
  facet normal 0 1 2.22045e-16
    outer loop
      vertex -12.1829 14 41.7404
      vertex -11.7387 14 42.4863
      vertex -11.2275 14 42.3776
    endloop
  endfacet
  facet normal 0 1 2.22045e-16
    outer loop
      vertex -11.4592 14 41.6643
      vertex -11.2275 14 42.3776
      vertex -10.75 14 42.1651
    endloop
  endfacet
  facet normal 0 1 2.22045e-16
    outer loop
      vertex -11.4592 14 41.6643
      vertex -10.5228 14 42
      vertex -11.125 14 41.5155
    endloop
  endfacet
  facet normal 0 1 2.22045e-16
    outer loop
      vertex -10.2882 14 40.3638
      vertex -10.5228 14 42
      vertex 3 14 42
    endloop
  endfacet
  facet normal 0 1 2.22045e-16
    outer loop
      vertex -3 14 38
      vertex 3 14 42
      vertex 3 14 6.21725e-15
    endloop
  endfacet
  facet normal 0 1 2.22045e-16
    outer loop
      vertex -10.4013 14 39.2882
      vertex 3 14 42
      vertex -3 14 38
    endloop
  endfacet
  facet normal 0 1 2.22045e-16
    outer loop
      vertex -13.7118 14 40.3638
      vertex -14.4454 14 39.4802
      vertex -13.5987 14 40.7118
    endloop
  endfacet
  facet normal 0 1 2.22045e-16
    outer loop
      vertex -11.125 14 38.4845
      vertex -3 14 38
      vertex -10.5228 14 38
    endloop
  endfacet
  facet normal 0 1 2.22045e-16
    outer loop
      vertex -11.4592 14 38.3357
      vertex -10.5228 14 38
      vertex -10.75 14 37.8349
    endloop
  endfacet
  facet normal 0 1 2.22045e-16
    outer loop
      vertex -12.1829 14 38.2596
      vertex -10.75 14 37.8349
      vertex -11.2275 14 37.6224
    endloop
  endfacet
  facet normal 0 1 2.22045e-16
    outer loop
      vertex -12.875 14 38.4845
      vertex -11.2275 14 37.6224
      vertex -11.7387 14 37.5137
    endloop
  endfacet
  facet normal 0 1 2.22045e-16
    outer loop
      vertex -10.2882 14 40.3638
      vertex 3 14 42
      vertex -10.25 14 40
    endloop
  endfacet
  facet normal 0 1 2.22045e-16
    outer loop
      vertex -14.4454 14 39.4802
      vertex -11.7387 14 37.5137
      vertex -12.2613 14 37.5137
    endloop
  endfacet
  facet normal 0 1 2.22045e-16
    outer loop
      vertex -14.4454 14 39.4802
      vertex -12.2613 14 37.5137
      vertex -12.7725 14 37.6224
    endloop
  endfacet
  facet normal 0 1 2.22045e-16
    outer loop
      vertex -14.4454 14 39.4802
      vertex -12.7725 14 37.6224
      vertex -13.25 14 37.8349
    endloop
  endfacet
  facet normal 0 1 2.22045e-16
    outer loop
      vertex -14.4454 14 39.4802
      vertex -13.25 14 37.8349
      vertex -13.6728 14 38.1421
    endloop
  endfacet
  facet normal 0 1 2.22045e-16
    outer loop
      vertex -14.4454 14 39.4802
      vertex -13.6728 14 38.1421
      vertex -14.0225 14 38.5305
    endloop
  endfacet
  facet normal 0 1 2.22045e-16
    outer loop
      vertex -13.75 14 40
      vertex -14.4454 14 39.4802
      vertex -13.7118 14 40.3638
    endloop
  endfacet
  facet normal 0 1 2.22045e-16
    outer loop
      vertex -13.7118 14 39.6362
      vertex -14.4454 14 39.4802
      vertex -13.75 14 40
    endloop
  endfacet
  facet normal 0 1 2.22045e-16
    outer loop
      vertex -13.5987 14 39.2882
      vertex -14.4454 14 39.4802
      vertex -13.7118 14 39.6362
    endloop
  endfacet
  facet normal 0 1 2.22045e-16
    outer loop
      vertex -10.4013 14 39.2882
      vertex -3 14 38
      vertex -10.5842 14 38.9714
    endloop
  endfacet
  facet normal 0 1 2.22045e-16
    outer loop
      vertex -13.171 14 38.6995
      vertex -14.4454 14 39.4802
      vertex -13.4158 14 38.9714
    endloop
  endfacet
  facet normal 0 1 2.22045e-16
    outer loop
      vertex -12.1829 14 38.2596
      vertex -11.2275 14 37.6224
      vertex -12.5408 14 38.3357
    endloop
  endfacet
  facet normal 0 1 2.22045e-16
    outer loop
      vertex -14.4454 14 39.4802
      vertex -13.171 14 38.6995
      vertex -11.7387 14 37.5137
    endloop
  endfacet
  facet normal 0 1 2.22045e-16
    outer loop
      vertex -12.5408 14 38.3357
      vertex -11.2275 14 37.6224
      vertex -12.875 14 38.4845
    endloop
  endfacet
  facet normal 0 1 2.22045e-16
    outer loop
      vertex -13.171 14 38.6995
      vertex -12.875 14 38.4845
      vertex -11.7387 14 37.5137
    endloop
  endfacet
  facet normal 0 1 2.22045e-16
    outer loop
      vertex -11.8171 14 38.2596
      vertex -10.75 14 37.8349
      vertex -12.1829 14 38.2596
    endloop
  endfacet
  facet normal 0 1 2.22045e-16
    outer loop
      vertex -11.4592 14 38.3357
      vertex -10.75 14 37.8349
      vertex -11.8171 14 38.2596
    endloop
  endfacet
  facet normal 0 1 2.22045e-16
    outer loop
      vertex -10.829 14 38.6995
      vertex -3 14 38
      vertex -11.125 14 38.4845
    endloop
  endfacet
  facet normal 0 1 2.22045e-16
    outer loop
      vertex -10.5842 14 38.9714
      vertex -3 14 38
      vertex -10.829 14 38.6995
    endloop
  endfacet
  facet normal 0 1 2.22045e-16
    outer loop
      vertex -13.4158 14 38.9714
      vertex -14.4454 14 39.4802
      vertex -13.5987 14 39.2882
    endloop
  endfacet
  facet normal 0 1 2.22045e-16
    outer loop
      vertex -10.2882 14 39.6362
      vertex 3 14 42
      vertex -10.4013 14 39.2882
    endloop
  endfacet
  facet normal 0 1 2.22045e-16
    outer loop
      vertex -11.125 14 38.4845
      vertex -10.5228 14 38
      vertex -11.4592 14 38.3357
    endloop
  endfacet
  facet normal 0 1 2.22045e-16
    outer loop
      vertex -10.25 14 40
      vertex 3 14 42
      vertex -10.2882 14 39.6362
    endloop
  endfacet
  facet normal 0 1 2.22045e-16
    outer loop
      vertex -10.4013 14 40.7118
      vertex -10.5228 14 42
      vertex -10.2882 14 40.3638
    endloop
  endfacet
  facet normal 0 1 2.22045e-16
    outer loop
      vertex -11.4592 14 41.6643
      vertex -10.75 14 42.1651
      vertex -10.5228 14 42
    endloop
  endfacet
  facet normal 0 1 2.22045e-16
    outer loop
      vertex -10.5842 14 41.0286
      vertex -10.5228 14 42
      vertex -10.4013 14 40.7118
    endloop
  endfacet
  facet normal 0 1 2.22045e-16
    outer loop
      vertex -10.829 14 41.3005
      vertex -10.5228 14 42
      vertex -10.5842 14 41.0286
    endloop
  endfacet
  facet normal 0 1 2.22045e-16
    outer loop
      vertex -11.125 14 41.5155
      vertex -10.5228 14 42
      vertex -10.829 14 41.3005
    endloop
  endfacet
  facet normal 0 1 2.22045e-16
    outer loop
      vertex -11.8171 14 41.7404
      vertex -11.2275 14 42.3776
      vertex -11.4592 14 41.6643
    endloop
  endfacet
  facet normal 0 1 2.22045e-16
    outer loop
      vertex -12.1829 14 41.7404
      vertex -11.2275 14 42.3776
      vertex -11.8171 14 41.7404
    endloop
  endfacet
  facet normal 0 1 2.22045e-16
    outer loop
      vertex -12.875 14 41.5155
      vertex -12.2613 14 42.4863
      vertex -12.5408 14 41.6643
    endloop
  endfacet
  facet normal 0 1 2.22045e-16
    outer loop
      vertex -13.171 14 41.3005
      vertex -12.2613 14 42.4863
      vertex -12.875 14 41.5155
    endloop
  endfacet
  facet normal 0 1 2.22045e-16
    outer loop
      vertex -13.4158 14 41.0286
      vertex -12.7725 14 42.3776
      vertex -13.171 14 41.3005
    endloop
  endfacet
  facet normal 0 1 2.22045e-16
    outer loop
      vertex -14.4454 14 39.4802
      vertex -12.7725 14 42.3776
      vertex -13.4158 14 41.0286
    endloop
  endfacet
  facet normal 0 1 2.22045e-16
    outer loop
      vertex -14.4454 14 39.4802
      vertex -13.4158 14 41.0286
      vertex -13.5987 14 40.7118
    endloop
  endfacet
  facet normal 0 1 2.22045e-16
    outer loop
      vertex -12.5408 14 41.6643
      vertex -11.7387 14 42.4863
      vertex -12.1829 14 41.7404
    endloop
  endfacet
  facet normal 0 1 2.22045e-16
    outer loop
      vertex -3 14 38
      vertex 3 14 6.21725e-15
      vertex -3 14 6.21725e-15
    endloop
  endfacet
  facet normal 0 1 2.22045e-16
    outer loop
      vertex -14.2839 14 38.9832
      vertex -14.4454 14 39.4802
      vertex -14.0225 14 38.5305
    endloop
  endfacet
  facet normal 0 1 0
    outer loop
      vertex -10 14 0
      vertex -10 14 3
      vertex -3 14 6.21725e-15
    endloop
  endfacet
  facet normal 0 1 0
    outer loop
      vertex -10 14 0
      vertex -3 14 6.21725e-15
      vertex 20 14 0
    endloop
  endfacet
  facet normal 0 1 0
    outer loop
      vertex 3 14 3
      vertex 20 14 0
      vertex 3 14 6.21725e-15
    endloop
  endfacet
  facet normal 0 1 0
    outer loop
      vertex -3 14 6.21725e-15
      vertex 3 14 6.21725e-15
      vertex 20 14 0
    endloop
  endfacet
  facet normal 0 1 0
    outer loop
      vertex 20 14 0
      vertex 3 14 3
      vertex 20 14 3
    endloop
  endfacet
  facet normal 0 1 0
    outer loop
      vertex -3 14 6.21725e-15
      vertex -10 14 3
      vertex -3 14 3
    endloop
  endfacet
  facet normal -1 0 0
    outer loop
      vertex -10 -14 0
      vertex -10 -14 3
      vertex -10 14 0
    endloop
  endfacet
  facet normal -1 0 0
    outer loop
      vertex -10 14 0
      vertex -10 -14 3
      vertex -10 14 3
    endloop
  endfacet
  facet normal 1 0 0
    outer loop
      vertex 20 -14 3
      vertex 20 -14 0
      vertex 20 14 0
    endloop
  endfacet
  facet normal 1 0 0
    outer loop
      vertex 20 14 3
      vertex 20 -14 3
      vertex 20 14 0
    endloop
  endfacet
  facet normal 0 -1 0
    outer loop
      vertex -10 -14 3
      vertex -10 -14 0
      vertex 20 -14 0
    endloop
  endfacet
  facet normal 0 -1 0
    outer loop
      vertex 20 -14 3
      vertex -10 -14 3
      vertex 20 -14 0
    endloop
  endfacet
  facet normal 0.587786 1.79638e-16 -0.809017
    outer loop
      vertex -10.75 4 37.8349
      vertex -10.75 14 37.8349
      vertex -10.5228 4 38
    endloop
  endfacet
  facet normal 0.587786 1.79638e-16 -0.809017
    outer loop
      vertex -10.5228 4 38
      vertex -10.75 14 37.8349
      vertex -10.5228 14 38
    endloop
  endfacet
  facet normal -0.866025 -1.11022e-16 0.5
    outer loop
      vertex -8.34582 4 38.3731
      vertex -8.5612 4 38
      vertex -8.34582 -4 38.3731
    endloop
  endfacet
  facet normal -0.866025 -1.11022e-16 0.5
    outer loop
      vertex -8.34582 -4 38.3731
      vertex -8.5612 4 38
      vertex -8.5612 -4 38
    endloop
  endfacet
  facet normal -0.951057 -6.86154e-17 0.309016
    outer loop
      vertex -8.08741 4 39.1684
      vertex -8.34582 4 38.3731
      vertex -8.08741 -4 39.1684
    endloop
  endfacet
  facet normal -0.951057 -6.86154e-17 0.309016
    outer loop
      vertex -8.08741 -4 39.1684
      vertex -8.34582 4 38.3731
      vertex -8.34582 -4 38.3731
    endloop
  endfacet
  facet normal -0.994522 -2.32101e-17 0.104529
    outer loop
      vertex -8 4 40
      vertex -8.08741 4 39.1684
      vertex -8 -4 40
    endloop
  endfacet
  facet normal -0.994522 -2.32101e-17 0.104529
    outer loop
      vertex -8 -4 40
      vertex -8.08741 4 39.1684
      vertex -8.08741 -4 39.1684
    endloop
  endfacet
  facet normal -0.994522 2.32101e-17 -0.104529
    outer loop
      vertex -8 4 40
      vertex -8 -4 40
      vertex -8.08741 4 40.8316
    endloop
  endfacet
  facet normal -0.994522 2.32101e-17 -0.104529
    outer loop
      vertex -8.08741 4 40.8316
      vertex -8 -4 40
      vertex -8.08741 -4 40.8316
    endloop
  endfacet
  facet normal -0.951057 6.86154e-17 -0.309016
    outer loop
      vertex -8.08741 4 40.8316
      vertex -8.08741 -4 40.8316
      vertex -8.34582 4 41.6269
    endloop
  endfacet
  facet normal -0.951057 6.86154e-17 -0.309016
    outer loop
      vertex -8.34582 4 41.6269
      vertex -8.08741 -4 40.8316
      vertex -8.34582 -4 41.6269
    endloop
  endfacet
  facet normal -0.951057 6.86153e-17 -0.309016
    outer loop
      vertex -14.4454 4 39.4802
      vertex -14.4454 14 39.4802
      vertex -14.2839 4 38.9832
    endloop
  endfacet
  facet normal -0.951057 6.86153e-17 -0.309016
    outer loop
      vertex -14.2839 4 38.9832
      vertex -14.4454 14 39.4802
      vertex -14.2839 14 38.9832
    endloop
  endfacet
  facet normal -0.994522 2.321e-17 -0.104529
    outer loop
      vertex -14.5 4 40
      vertex -14.5 14 40
      vertex -14.4454 4 39.4802
    endloop
  endfacet
  facet normal -0.994522 2.321e-17 -0.104529
    outer loop
      vertex -14.4454 4 39.4802
      vertex -14.5 14 40
      vertex -14.4454 14 39.4802
    endloop
  endfacet
  facet normal -0.994522 -2.321e-17 0.104529
    outer loop
      vertex -14.5 4 40
      vertex -14.4454 4 40.5198
      vertex -14.5 14 40
    endloop
  endfacet
  facet normal -0.994522 -2.321e-17 0.104529
    outer loop
      vertex -14.5 14 40
      vertex -14.4454 4 40.5198
      vertex -14.4454 14 40.5198
    endloop
  endfacet
  facet normal -0.951057 -6.86153e-17 0.309016
    outer loop
      vertex -14.4454 4 40.5198
      vertex -14.2839 4 41.0168
      vertex -14.4454 14 40.5198
    endloop
  endfacet
  facet normal -0.951057 -6.86153e-17 0.309016
    outer loop
      vertex -14.4454 14 40.5198
      vertex -14.2839 4 41.0168
      vertex -14.2839 14 41.0168
    endloop
  endfacet
  facet normal -0.866024 -1.11023e-16 0.500002
    outer loop
      vertex -14.2839 4 41.0168
      vertex -14.0225 4 41.4695
      vertex -14.2839 14 41.0168
    endloop
  endfacet
  facet normal -0.866024 -1.11023e-16 0.500002
    outer loop
      vertex -14.2839 14 41.0168
      vertex -14.0225 4 41.4695
      vertex -14.0225 14 41.4695
    endloop
  endfacet
  facet normal -0.743146 -1.48577e-16 0.66913
    outer loop
      vertex -14.0225 4 41.4695
      vertex -13.6728 4 41.8579
      vertex -14.0225 14 41.4695
    endloop
  endfacet
  facet normal -0.743146 -1.48577e-16 0.66913
    outer loop
      vertex -14.0225 14 41.4695
      vertex -13.6728 4 41.8579
      vertex -13.6728 14 41.8579
    endloop
  endfacet
  facet normal -0.587786 -1.79638e-16 0.809017
    outer loop
      vertex -13.6728 14 41.8579
      vertex -13.6728 4 41.8579
      vertex -13.25 4 42.1651
    endloop
  endfacet
  facet normal -0.587786 -1.79638e-16 0.809017
    outer loop
      vertex -13.25 14 42.1651
      vertex -13.6728 14 41.8579
      vertex -13.25 4 42.1651
    endloop
  endfacet
  facet normal -0.406735 -2.02848e-16 0.913546
    outer loop
      vertex -13.25 14 42.1651
      vertex -13.25 4 42.1651
      vertex -12.7725 4 42.3776
    endloop
  endfacet
  facet normal -0.406735 -2.02848e-16 0.913546
    outer loop
      vertex -12.7725 14 42.3776
      vertex -13.25 14 42.1651
      vertex -12.7725 4 42.3776
    endloop
  endfacet
  facet normal -0.207913 -2.17192e-16 0.978147
    outer loop
      vertex -12.7725 14 42.3776
      vertex -12.7725 4 42.3776
      vertex -12.2613 4 42.4863
    endloop
  endfacet
  facet normal -0.207913 -2.17192e-16 0.978147
    outer loop
      vertex -12.2613 14 42.4863
      vertex -12.7725 14 42.3776
      vertex -12.2613 4 42.4863
    endloop
  endfacet
  facet normal 0 -2.22045e-16 1
    outer loop
      vertex -12.2613 14 42.4863
      vertex -12.2613 4 42.4863
      vertex -11.7387 4 42.4863
    endloop
  endfacet
  facet normal 0 -2.22045e-16 1
    outer loop
      vertex -11.7387 14 42.4863
      vertex -12.2613 14 42.4863
      vertex -11.7387 4 42.4863
    endloop
  endfacet
  facet normal 0.207913 -2.17192e-16 0.978147
    outer loop
      vertex -11.7387 14 42.4863
      vertex -11.7387 4 42.4863
      vertex -11.2275 4 42.3776
    endloop
  endfacet
  facet normal 0.207913 -2.17192e-16 0.978147
    outer loop
      vertex -11.2275 14 42.3776
      vertex -11.7387 14 42.4863
      vertex -11.2275 4 42.3776
    endloop
  endfacet
  facet normal 0.406735 -2.02848e-16 0.913546
    outer loop
      vertex -11.2275 14 42.3776
      vertex -11.2275 4 42.3776
      vertex -10.75 4 42.1651
    endloop
  endfacet
  facet normal 0.406735 -2.02848e-16 0.913546
    outer loop
      vertex -10.75 14 42.1651
      vertex -11.2275 14 42.3776
      vertex -10.75 4 42.1651
    endloop
  endfacet
  facet normal 0.406735 2.02848e-16 -0.913546
    outer loop
      vertex -11.2275 4 37.6224
      vertex -11.2275 14 37.6224
      vertex -10.75 4 37.8349
    endloop
  endfacet
  facet normal 0.406735 2.02848e-16 -0.913546
    outer loop
      vertex -10.75 4 37.8349
      vertex -11.2275 14 37.6224
      vertex -10.75 14 37.8349
    endloop
  endfacet
  facet normal 0.207913 2.17192e-16 -0.978147
    outer loop
      vertex -11.7387 4 37.5137
      vertex -11.7387 14 37.5137
      vertex -11.2275 4 37.6224
    endloop
  endfacet
  facet normal 0.207913 2.17192e-16 -0.978147
    outer loop
      vertex -11.2275 4 37.6224
      vertex -11.7387 14 37.5137
      vertex -11.2275 14 37.6224
    endloop
  endfacet
  facet normal 0 2.22045e-16 -1
    outer loop
      vertex -12.2613 4 37.5137
      vertex -12.2613 14 37.5137
      vertex -11.7387 4 37.5137
    endloop
  endfacet
  facet normal 0 2.22045e-16 -1
    outer loop
      vertex -11.7387 4 37.5137
      vertex -12.2613 14 37.5137
      vertex -11.7387 14 37.5137
    endloop
  endfacet
  facet normal -0.207913 2.17192e-16 -0.978147
    outer loop
      vertex -12.7725 4 37.6224
      vertex -12.7725 14 37.6224
      vertex -12.2613 4 37.5137
    endloop
  endfacet
  facet normal -0.207913 2.17192e-16 -0.978147
    outer loop
      vertex -12.2613 4 37.5137
      vertex -12.7725 14 37.6224
      vertex -12.2613 14 37.5137
    endloop
  endfacet
  facet normal -0.406735 2.02848e-16 -0.913546
    outer loop
      vertex -13.25 4 37.8349
      vertex -13.25 14 37.8349
      vertex -12.7725 4 37.6224
    endloop
  endfacet
  facet normal -0.406735 2.02848e-16 -0.913546
    outer loop
      vertex -12.7725 4 37.6224
      vertex -13.25 14 37.8349
      vertex -12.7725 14 37.6224
    endloop
  endfacet
  facet normal -0.587786 1.79638e-16 -0.809017
    outer loop
      vertex -13.6728 4 38.1421
      vertex -13.6728 14 38.1421
      vertex -13.25 4 37.8349
    endloop
  endfacet
  facet normal -0.587786 1.79638e-16 -0.809017
    outer loop
      vertex -13.25 4 37.8349
      vertex -13.6728 14 38.1421
      vertex -13.25 14 37.8349
    endloop
  endfacet
  facet normal -0.743146 1.48577e-16 -0.66913
    outer loop
      vertex -14.0225 4 38.5305
      vertex -14.0225 14 38.5305
      vertex -13.6728 4 38.1421
    endloop
  endfacet
  facet normal -0.743146 1.48577e-16 -0.66913
    outer loop
      vertex -13.6728 4 38.1421
      vertex -14.0225 14 38.5305
      vertex -13.6728 14 38.1421
    endloop
  endfacet
  facet normal -0.866024 1.11023e-16 -0.500002
    outer loop
      vertex -14.2839 4 38.9832
      vertex -14.2839 14 38.9832
      vertex -14.0225 4 38.5305
    endloop
  endfacet
  facet normal -0.866024 1.11023e-16 -0.500002
    outer loop
      vertex -14.0225 4 38.5305
      vertex -14.2839 14 38.9832
      vertex -14.0225 14 38.5305
    endloop
  endfacet
  facet normal 0.994522 2.32102e-17 -0.104529
    outer loop
      vertex -13.75 14 40
      vertex -13.7118 14 40.3638
      vertex -13.7118 4 40.3638
    endloop
  endfacet
  facet normal 0.994522 2.32102e-17 -0.104529
    outer loop
      vertex -13.75 4 40
      vertex -13.75 14 40
      vertex -13.7118 4 40.3638
    endloop
  endfacet
  facet normal 0.951057 6.86151e-17 -0.309015
    outer loop
      vertex -13.7118 14 40.3638
      vertex -13.5987 14 40.7118
      vertex -13.5987 4 40.7118
    endloop
  endfacet
  facet normal 0.951057 6.86151e-17 -0.309015
    outer loop
      vertex -13.7118 4 40.3638
      vertex -13.7118 14 40.3638
      vertex -13.5987 4 40.7118
    endloop
  endfacet
  facet normal 0.994522 -2.32102e-17 0.104529
    outer loop
      vertex -13.7118 4 39.6362
      vertex -13.7118 14 39.6362
      vertex -13.75 14 40
    endloop
  endfacet
  facet normal 0.994522 -2.32102e-17 0.104529
    outer loop
      vertex -13.75 4 40
      vertex -13.7118 4 39.6362
      vertex -13.75 14 40
    endloop
  endfacet
  facet normal 0.951057 -6.86151e-17 0.309015
    outer loop
      vertex -13.5987 4 39.2882
      vertex -13.5987 14 39.2882
      vertex -13.7118 14 39.6362
    endloop
  endfacet
  facet normal 0.951057 -6.86151e-17 0.309015
    outer loop
      vertex -13.7118 4 39.6362
      vertex -13.5987 4 39.2882
      vertex -13.7118 14 39.6362
    endloop
  endfacet
  facet normal 0.866025 -1.11022e-16 0.5
    outer loop
      vertex -13.4158 4 38.9714
      vertex -13.4158 14 38.9714
      vertex -13.5987 14 39.2882
    endloop
  endfacet
  facet normal 0.866025 -1.11022e-16 0.5
    outer loop
      vertex -13.5987 4 39.2882
      vertex -13.4158 4 38.9714
      vertex -13.5987 14 39.2882
    endloop
  endfacet
  facet normal 0.743145 -1.48577e-16 0.669131
    outer loop
      vertex -13.171 4 38.6995
      vertex -13.171 14 38.6995
      vertex -13.4158 14 38.9714
    endloop
  endfacet
  facet normal 0.743145 -1.48577e-16 0.669131
    outer loop
      vertex -13.4158 4 38.9714
      vertex -13.171 4 38.6995
      vertex -13.4158 14 38.9714
    endloop
  endfacet
  facet normal 0.587785 -1.79638e-16 0.809017
    outer loop
      vertex -12.875 4 38.4845
      vertex -12.875 14 38.4845
      vertex -13.171 14 38.6995
    endloop
  endfacet
  facet normal 0.587785 -1.79638e-16 0.809017
    outer loop
      vertex -13.171 4 38.6995
      vertex -12.875 4 38.4845
      vertex -13.171 14 38.6995
    endloop
  endfacet
  facet normal 0.406738 -2.02848e-16 0.913545
    outer loop
      vertex -12.5408 4 38.3357
      vertex -12.5408 14 38.3357
      vertex -12.875 14 38.4845
    endloop
  endfacet
  facet normal 0.406738 -2.02848e-16 0.913545
    outer loop
      vertex -12.875 4 38.4845
      vertex -12.5408 4 38.3357
      vertex -12.875 14 38.4845
    endloop
  endfacet
  facet normal 0.207911 -2.17192e-16 0.978148
    outer loop
      vertex -12.1829 4 38.2596
      vertex -12.1829 14 38.2596
      vertex -12.5408 14 38.3357
    endloop
  endfacet
  facet normal 0.207911 -2.17192e-16 0.978148
    outer loop
      vertex -12.5408 4 38.3357
      vertex -12.1829 4 38.2596
      vertex -12.5408 14 38.3357
    endloop
  endfacet
  facet normal 0 -2.22045e-16 1
    outer loop
      vertex -11.8171 4 38.2596
      vertex -11.8171 14 38.2596
      vertex -12.1829 14 38.2596
    endloop
  endfacet
  facet normal 0 -2.22045e-16 1
    outer loop
      vertex -12.1829 4 38.2596
      vertex -11.8171 4 38.2596
      vertex -12.1829 14 38.2596
    endloop
  endfacet
  facet normal -0.207911 -2.17192e-16 0.978148
    outer loop
      vertex -11.4592 4 38.3357
      vertex -11.4592 14 38.3357
      vertex -11.8171 14 38.2596
    endloop
  endfacet
  facet normal -0.207911 -2.17192e-16 0.978148
    outer loop
      vertex -11.8171 4 38.2596
      vertex -11.4592 4 38.3357
      vertex -11.8171 14 38.2596
    endloop
  endfacet
  facet normal -0.406738 -2.02848e-16 0.913545
    outer loop
      vertex -11.125 4 38.4845
      vertex -11.125 14 38.4845
      vertex -11.4592 14 38.3357
    endloop
  endfacet
  facet normal -0.406738 -2.02848e-16 0.913545
    outer loop
      vertex -11.4592 4 38.3357
      vertex -11.125 4 38.4845
      vertex -11.4592 14 38.3357
    endloop
  endfacet
  facet normal -0.587785 -1.79638e-16 0.809017
    outer loop
      vertex -10.829 4 38.6995
      vertex -10.829 14 38.6995
      vertex -11.125 14 38.4845
    endloop
  endfacet
  facet normal -0.587785 -1.79638e-16 0.809017
    outer loop
      vertex -11.125 4 38.4845
      vertex -10.829 4 38.6995
      vertex -11.125 14 38.4845
    endloop
  endfacet
  facet normal -0.743145 -1.48577e-16 0.669131
    outer loop
      vertex -10.5842 14 38.9714
      vertex -10.829 14 38.6995
      vertex -10.5842 4 38.9714
    endloop
  endfacet
  facet normal -0.743145 -1.48577e-16 0.669131
    outer loop
      vertex -10.5842 4 38.9714
      vertex -10.829 14 38.6995
      vertex -10.829 4 38.6995
    endloop
  endfacet
  facet normal -0.866025 -1.11022e-16 0.5
    outer loop
      vertex -10.4013 14 39.2882
      vertex -10.5842 14 38.9714
      vertex -10.4013 4 39.2882
    endloop
  endfacet
  facet normal -0.866025 -1.11022e-16 0.5
    outer loop
      vertex -10.4013 4 39.2882
      vertex -10.5842 14 38.9714
      vertex -10.5842 4 38.9714
    endloop
  endfacet
  facet normal -0.951057 -6.86151e-17 0.309015
    outer loop
      vertex -10.2882 14 39.6362
      vertex -10.4013 14 39.2882
      vertex -10.2882 4 39.6362
    endloop
  endfacet
  facet normal -0.951057 -6.86151e-17 0.309015
    outer loop
      vertex -10.2882 4 39.6362
      vertex -10.4013 14 39.2882
      vertex -10.4013 4 39.2882
    endloop
  endfacet
  facet normal -0.994522 -2.32102e-17 0.104529
    outer loop
      vertex -10.25 14 40
      vertex -10.2882 14 39.6362
      vertex -10.25 4 40
    endloop
  endfacet
  facet normal -0.994522 -2.32102e-17 0.104529
    outer loop
      vertex -10.25 4 40
      vertex -10.2882 14 39.6362
      vertex -10.2882 4 39.6362
    endloop
  endfacet
  facet normal -0.994522 2.32102e-17 -0.104529
    outer loop
      vertex -10.25 14 40
      vertex -10.25 4 40
      vertex -10.2882 14 40.3638
    endloop
  endfacet
  facet normal -0.994522 2.32102e-17 -0.104529
    outer loop
      vertex -10.2882 14 40.3638
      vertex -10.25 4 40
      vertex -10.2882 4 40.3638
    endloop
  endfacet
  facet normal -0.951057 6.86151e-17 -0.309015
    outer loop
      vertex -10.2882 14 40.3638
      vertex -10.2882 4 40.3638
      vertex -10.4013 14 40.7118
    endloop
  endfacet
  facet normal -0.951057 6.86151e-17 -0.309015
    outer loop
      vertex -10.4013 14 40.7118
      vertex -10.2882 4 40.3638
      vertex -10.4013 4 40.7118
    endloop
  endfacet
  facet normal -0.866025 1.11022e-16 -0.5
    outer loop
      vertex -10.4013 14 40.7118
      vertex -10.4013 4 40.7118
      vertex -10.5842 14 41.0286
    endloop
  endfacet
  facet normal -0.866025 1.11022e-16 -0.5
    outer loop
      vertex -10.5842 14 41.0286
      vertex -10.4013 4 40.7118
      vertex -10.5842 4 41.0286
    endloop
  endfacet
  facet normal -0.743145 1.48577e-16 -0.669131
    outer loop
      vertex -10.5842 14 41.0286
      vertex -10.5842 4 41.0286
      vertex -10.829 14 41.3005
    endloop
  endfacet
  facet normal -0.743145 1.48577e-16 -0.669131
    outer loop
      vertex -10.829 14 41.3005
      vertex -10.5842 4 41.0286
      vertex -10.829 4 41.3005
    endloop
  endfacet
  facet normal -0.587785 1.79638e-16 -0.809017
    outer loop
      vertex -10.829 14 41.3005
      vertex -10.829 4 41.3005
      vertex -11.125 14 41.5155
    endloop
  endfacet
  facet normal -0.587785 1.79638e-16 -0.809017
    outer loop
      vertex -11.125 14 41.5155
      vertex -10.829 4 41.3005
      vertex -11.125 4 41.5155
    endloop
  endfacet
  facet normal -0.406738 2.02848e-16 -0.913545
    outer loop
      vertex -11.125 14 41.5155
      vertex -11.125 4 41.5155
      vertex -11.4592 14 41.6643
    endloop
  endfacet
  facet normal -0.406738 2.02848e-16 -0.913545
    outer loop
      vertex -11.4592 14 41.6643
      vertex -11.125 4 41.5155
      vertex -11.4592 4 41.6643
    endloop
  endfacet
  facet normal -0.207911 2.17192e-16 -0.978148
    outer loop
      vertex -11.4592 14 41.6643
      vertex -11.4592 4 41.6643
      vertex -11.8171 14 41.7404
    endloop
  endfacet
  facet normal -0.207911 2.17192e-16 -0.978148
    outer loop
      vertex -11.8171 14 41.7404
      vertex -11.4592 4 41.6643
      vertex -11.8171 4 41.7404
    endloop
  endfacet
  facet normal 0 2.22045e-16 -1
    outer loop
      vertex -11.8171 14 41.7404
      vertex -11.8171 4 41.7404
      vertex -12.1829 14 41.7404
    endloop
  endfacet
  facet normal 0 2.22045e-16 -1
    outer loop
      vertex -12.1829 14 41.7404
      vertex -11.8171 4 41.7404
      vertex -12.1829 4 41.7404
    endloop
  endfacet
  facet normal 0.207911 2.17192e-16 -0.978148
    outer loop
      vertex -12.1829 14 41.7404
      vertex -12.1829 4 41.7404
      vertex -12.5408 14 41.6643
    endloop
  endfacet
  facet normal 0.207911 2.17192e-16 -0.978148
    outer loop
      vertex -12.5408 14 41.6643
      vertex -12.1829 4 41.7404
      vertex -12.5408 4 41.6643
    endloop
  endfacet
  facet normal 0.406738 2.02848e-16 -0.913545
    outer loop
      vertex -12.5408 14 41.6643
      vertex -12.5408 4 41.6643
      vertex -12.875 14 41.5155
    endloop
  endfacet
  facet normal 0.406738 2.02848e-16 -0.913545
    outer loop
      vertex -12.875 14 41.5155
      vertex -12.5408 4 41.6643
      vertex -12.875 4 41.5155
    endloop
  endfacet
  facet normal 0.587785 1.79638e-16 -0.809017
    outer loop
      vertex -12.875 14 41.5155
      vertex -12.875 4 41.5155
      vertex -13.171 14 41.3005
    endloop
  endfacet
  facet normal 0.587785 1.79638e-16 -0.809017
    outer loop
      vertex -13.171 14 41.3005
      vertex -12.875 4 41.5155
      vertex -13.171 4 41.3005
    endloop
  endfacet
  facet normal 0.743145 1.48577e-16 -0.669131
    outer loop
      vertex -13.4158 14 41.0286
      vertex -13.171 14 41.3005
      vertex -13.171 4 41.3005
    endloop
  endfacet
  facet normal 0.743145 1.48577e-16 -0.669131
    outer loop
      vertex -13.4158 4 41.0286
      vertex -13.4158 14 41.0286
      vertex -13.171 4 41.3005
    endloop
  endfacet
  facet normal 0.866025 1.11022e-16 -0.5
    outer loop
      vertex -13.5987 14 40.7118
      vertex -13.4158 14 41.0286
      vertex -13.4158 4 41.0286
    endloop
  endfacet
  facet normal 0.866025 1.11022e-16 -0.5
    outer loop
      vertex -13.5987 4 40.7118
      vertex -13.5987 14 40.7118
      vertex -13.4158 4 41.0286
    endloop
  endfacet
  facet normal 0 0 -1
    outer loop
      vertex -10 -14 0
      vertex -10 14 0
      vertex 20 -14 0
    endloop
  endfacet
  facet normal 0 0 -1
    outer loop
      vertex 20 -14 0
      vertex -10 14 0
      vertex 20 14 0
    endloop
  endfacet
endsolid OpenSCAD_Model
