solid OpenSCAD_Model
  facet normal 0.982279 0.187425 0
    outer loop
      vertex 12.6495 1.598 1.8
      vertex 12.3494 3.1708 0
      vertex 12.3494 3.1708 1.8
    endloop
  endfacet
  facet normal 0.982279 0.187425 0
    outer loop
      vertex 12.3494 3.1708 0
      vertex 12.6495 1.598 1.8
      vertex 12.6495 1.598 0
    endloop
  endfacet
  facet normal 0.998028 0.0627671 0
    outer loop
      vertex 12.75 0 1.8
      vertex 12.6495 1.598 0
      vertex 12.6495 1.598 1.8
    endloop
  endfacet
  facet normal 0.998028 0.0627671 0
    outer loop
      vertex 12.6495 1.598 0
      vertex 12.75 0 1.8
      vertex 12.75 0 0
    endloop
  endfacet
  facet normal -0.368165 0.929761 0
    outer loop
      vertex -3.93997 12.126 0
      vertex -5.42869 11.5365 1.8
      vertex -3.93997 12.126 1.8
    endloop
  endfacet
  facet normal -0.368165 0.929761 0
    outer loop
      vertex -5.42869 11.5365 1.8
      vertex -3.93997 12.126 0
      vertex -5.42869 11.5365 0
    endloop
  endfacet
  facet normal -0.84434 0.535808 0
    outer loop
      vertex -11.1729 6.14236 0
      vertex -10.315 7.49426 1.8
      vertex -10.315 7.49426 0
    endloop
  endfacet
  facet normal -0.84434 0.535808 0
    outer loop
      vertex -10.315 7.49426 1.8
      vertex -11.1729 6.14236 0
      vertex -11.1729 6.14236 1.8
    endloop
  endfacet
  facet normal 0.587793 0.809011 -0
    outer loop
      vertex 8.12716 9.82404 0
      vertex 6.83179 10.7652 1.8
      vertex 8.12716 9.82404 1.8
    endloop
  endfacet
  facet normal 0.587793 0.809011 0
    outer loop
      vertex 6.83179 10.7652 1.8
      vertex 8.12716 9.82404 0
      vertex 6.83179 10.7652 0
    endloop
  endfacet
  facet normal -0.248694 0.968582 0
    outer loop
      vertex -2.38911 12.5242 0
      vertex -3.93997 12.126 1.8
      vertex -2.38911 12.5242 1.8
    endloop
  endfacet
  facet normal -0.248694 0.968582 0
    outer loop
      vertex -3.93997 12.126 1.8
      vertex -2.38911 12.5242 0
      vertex -3.93997 12.126 0
    endloop
  endfacet
  facet normal 0.481725 0.876323 -0
    outer loop
      vertex 6.83179 10.7652 0
      vertex 5.42869 11.5365 1.8
      vertex 6.83179 10.7652 1.8
    endloop
  endfacet
  facet normal 0.481725 0.876323 0
    outer loop
      vertex 5.42869 11.5365 1.8
      vertex 6.83179 10.7652 0
      vertex 5.42869 11.5365 0
    endloop
  endfacet
  facet normal -0.982279 0.187425 0
    outer loop
      vertex -12.6495 1.598 0
      vertex -12.3494 3.1708 1.8
      vertex -12.3494 3.1708 0
    endloop
  endfacet
  facet normal -0.982279 0.187425 0
    outer loop
      vertex -12.3494 3.1708 1.8
      vertex -12.6495 1.598 0
      vertex -12.6495 1.598 1.8
    endloop
  endfacet
  facet normal -0.125285 -0.992121 0
    outer loop
      vertex -2.38911 -12.5242 0
      vertex -0.800579 -12.7248 1.8
      vertex -2.38911 -12.5242 1.8
    endloop
  endfacet
  facet normal -0.125285 -0.992121 -0
    outer loop
      vertex -0.800579 -12.7248 1.8
      vertex -2.38911 -12.5242 0
      vertex -0.800579 -12.7248 0
    endloop
  endfacet
  facet normal -0.951054 0.309026 0
    outer loop
      vertex -12.3494 3.1708 0
      vertex -11.8546 4.69359 1.8
      vertex -11.8546 4.69359 0
    endloop
  endfacet
  facet normal -0.951054 0.309026 0
    outer loop
      vertex -11.8546 4.69359 1.8
      vertex -12.3494 3.1708 0
      vertex -12.3494 3.1708 1.8
    endloop
  endfacet
  facet normal 0.125285 0.992121 -0
    outer loop
      vertex 2.38911 12.5242 0
      vertex 0.800579 12.7248 1.8
      vertex 2.38911 12.5242 1.8
    endloop
  endfacet
  facet normal 0.125285 0.992121 0
    outer loop
      vertex 0.800579 12.7248 1.8
      vertex 2.38911 12.5242 0
      vertex 0.800579 12.7248 0
    endloop
  endfacet
  facet normal -0.770502 0.637437 0
    outer loop
      vertex -10.315 7.49426 0
      vertex -9.29435 8.72797 1.8
      vertex -9.29435 8.72797 0
    endloop
  endfacet
  facet normal -0.770502 0.637437 0
    outer loop
      vertex -9.29435 8.72797 1.8
      vertex -10.315 7.49426 0
      vertex -10.315 7.49426 1.8
    endloop
  endfacet
  facet normal -0.684549 -0.728967 0
    outer loop
      vertex -9.29435 -8.72797 0
      vertex -8.12716 -9.82404 1.8
      vertex -9.29435 -8.72797 1.8
    endloop
  endfacet
  facet normal -0.684549 -0.728967 -0
    outer loop
      vertex -8.12716 -9.82404 1.8
      vertex -9.29435 -8.72797 0
      vertex -8.12716 -9.82404 0
    endloop
  endfacet
  facet normal 0.84434 -0.535808 0
    outer loop
      vertex 10.315 -7.49426 1.8
      vertex 11.1729 -6.14236 0
      vertex 11.1729 -6.14236 1.8
    endloop
  endfacet
  facet normal 0.84434 -0.535808 0
    outer loop
      vertex 11.1729 -6.14236 0
      vertex 10.315 -7.49426 1.8
      vertex 10.315 -7.49426 0
    endloop
  endfacet
  facet normal 0.368165 0.929761 -0
    outer loop
      vertex 5.42869 11.5365 0
      vertex 3.93997 12.126 1.8
      vertex 5.42869 11.5365 1.8
    endloop
  endfacet
  facet normal 0.368165 0.929761 0
    outer loop
      vertex 3.93997 12.126 1.8
      vertex 5.42869 11.5365 0
      vertex 3.93997 12.126 0
    endloop
  endfacet
  facet normal 0.951054 -0.309026 0
    outer loop
      vertex 11.8546 -4.69359 1.8
      vertex 12.3494 -3.1708 0
      vertex 12.3494 -3.1708 1.8
    endloop
  endfacet
  facet normal 0.951054 -0.309026 0
    outer loop
      vertex 12.3494 -3.1708 0
      vertex 11.8546 -4.69359 1.8
      vertex 11.8546 -4.69359 0
    endloop
  endfacet
  facet normal -0.998028 0.0627671 0
    outer loop
      vertex -12.75 0 0
      vertex -12.6495 1.598 1.8
      vertex -12.6495 1.598 0
    endloop
  endfacet
  facet normal -0.998028 0.0627671 0
    outer loop
      vertex -12.6495 1.598 1.8
      vertex -12.75 0 0
      vertex -12.75 0 1.8
    endloop
  endfacet
  facet normal -0.368165 -0.929761 0
    outer loop
      vertex -5.42869 -11.5365 0
      vertex -3.93997 -12.126 1.8
      vertex -5.42869 -11.5365 1.8
    endloop
  endfacet
  facet normal -0.368165 -0.929761 -0
    outer loop
      vertex -3.93997 -12.126 1.8
      vertex -5.42869 -11.5365 0
      vertex -3.93997 -12.126 0
    endloop
  endfacet
  facet normal -0.770502 -0.637437 0
    outer loop
      vertex -9.29435 -8.72797 0
      vertex -10.315 -7.49426 1.8
      vertex -10.315 -7.49426 0
    endloop
  endfacet
  facet normal -0.770502 -0.637437 0
    outer loop
      vertex -10.315 -7.49426 1.8
      vertex -9.29435 -8.72797 0
      vertex -9.29435 -8.72797 1.8
    endloop
  endfacet
  facet normal 0.951054 0.309026 0
    outer loop
      vertex 12.3494 3.1708 1.8
      vertex 11.8546 4.69359 0
      vertex 11.8546 4.69359 1.8
    endloop
  endfacet
  facet normal 0.951054 0.309026 0
    outer loop
      vertex 11.8546 4.69359 0
      vertex 12.3494 3.1708 1.8
      vertex 12.3494 3.1708 0
    endloop
  endfacet
  facet normal 0.125285 -0.992121 0
    outer loop
      vertex 0.800579 -12.7248 0
      vertex 2.38911 -12.5242 1.8
      vertex 0.800579 -12.7248 1.8
    endloop
  endfacet
  facet normal 0.125285 -0.992121 0
    outer loop
      vertex 2.38911 -12.5242 1.8
      vertex 0.800579 -12.7248 0
      vertex 2.38911 -12.5242 0
    endloop
  endfacet
  facet normal 0.248694 -0.968582 0
    outer loop
      vertex 2.38911 -12.5242 0
      vertex 3.93997 -12.126 1.8
      vertex 2.38911 -12.5242 1.8
    endloop
  endfacet
  facet normal 0.248694 -0.968582 0
    outer loop
      vertex 3.93997 -12.126 1.8
      vertex 2.38911 -12.5242 0
      vertex 3.93997 -12.126 0
    endloop
  endfacet
  facet normal -0.951054 -0.309026 0
    outer loop
      vertex -11.8546 -4.69359 0
      vertex -12.3494 -3.1708 1.8
      vertex -12.3494 -3.1708 0
    endloop
  endfacet
  facet normal -0.951054 -0.309026 0
    outer loop
      vertex -12.3494 -3.1708 1.8
      vertex -11.8546 -4.69359 0
      vertex -11.8546 -4.69359 1.8
    endloop
  endfacet
  facet normal 0.998028 -0.0627671 0
    outer loop
      vertex 12.6495 -1.598 1.8
      vertex 12.75 0 0
      vertex 12.75 0 1.8
    endloop
  endfacet
  facet normal 0.998028 -0.0627671 0
    outer loop
      vertex 12.75 0 0
      vertex 12.6495 -1.598 1.8
      vertex 12.6495 -1.598 0
    endloop
  endfacet
  facet normal -0.982279 -0.187425 0
    outer loop
      vertex -12.3494 -3.1708 0
      vertex -12.6495 -1.598 1.8
      vertex -12.6495 -1.598 0
    endloop
  endfacet
  facet normal -0.982279 -0.187425 0
    outer loop
      vertex -12.6495 -1.598 1.8
      vertex -12.3494 -3.1708 0
      vertex -12.3494 -3.1708 1.8
    endloop
  endfacet
  facet normal -0.248694 -0.968582 0
    outer loop
      vertex -3.93997 -12.126 0
      vertex -2.38911 -12.5242 1.8
      vertex -3.93997 -12.126 1.8
    endloop
  endfacet
  facet normal -0.248694 -0.968582 -0
    outer loop
      vertex -2.38911 -12.5242 1.8
      vertex -3.93997 -12.126 0
      vertex -2.38911 -12.5242 0
    endloop
  endfacet
  facet normal -0.684549 0.728967 0
    outer loop
      vertex -8.12716 9.82404 0
      vertex -9.29435 8.72797 1.8
      vertex -8.12716 9.82404 1.8
    endloop
  endfacet
  facet normal -0.684549 0.728967 0
    outer loop
      vertex -9.29435 8.72797 1.8
      vertex -8.12716 9.82404 0
      vertex -9.29435 8.72797 0
    endloop
  endfacet
  facet normal 0.684549 0.728967 -0
    outer loop
      vertex 9.29435 8.72797 0
      vertex 8.12716 9.82404 1.8
      vertex 9.29435 8.72797 1.8
    endloop
  endfacet
  facet normal 0.684549 0.728967 0
    outer loop
      vertex 8.12716 9.82404 1.8
      vertex 9.29435 8.72797 0
      vertex 8.12716 9.82404 0
    endloop
  endfacet
  facet normal 0.84434 0.535808 0
    outer loop
      vertex 11.1729 6.14236 1.8
      vertex 10.315 7.49426 0
      vertex 10.315 7.49426 1.8
    endloop
  endfacet
  facet normal 0.84434 0.535808 0
    outer loop
      vertex 10.315 7.49426 0
      vertex 11.1729 6.14236 1.8
      vertex 11.1729 6.14236 0
    endloop
  endfacet
  facet normal -0.904837 0.425759 0
    outer loop
      vertex -11.8546 4.69359 0
      vertex -11.1729 6.14236 1.8
      vertex -11.1729 6.14236 0
    endloop
  endfacet
  facet normal -0.904837 0.425759 0
    outer loop
      vertex -11.1729 6.14236 1.8
      vertex -11.8546 4.69359 0
      vertex -11.8546 4.69359 1.8
    endloop
  endfacet
  facet normal -0.481725 -0.876323 0
    outer loop
      vertex -6.83179 -10.7652 0
      vertex -5.42869 -11.5365 1.8
      vertex -6.83179 -10.7652 1.8
    endloop
  endfacet
  facet normal -0.481725 -0.876323 -0
    outer loop
      vertex -5.42869 -11.5365 1.8
      vertex -6.83179 -10.7652 0
      vertex -5.42869 -11.5365 0
    endloop
  endfacet
  facet normal 0.904837 0.425759 0
    outer loop
      vertex 11.8546 4.69359 1.8
      vertex 11.1729 6.14236 0
      vertex 11.1729 6.14236 1.8
    endloop
  endfacet
  facet normal 0.904837 0.425759 0
    outer loop
      vertex 11.1729 6.14236 0
      vertex 11.8546 4.69359 1.8
      vertex 11.8546 4.69359 0
    endloop
  endfacet
  facet normal 0.982279 -0.187425 0
    outer loop
      vertex 12.3494 -3.1708 1.8
      vertex 12.6495 -1.598 0
      vertex 12.6495 -1.598 1.8
    endloop
  endfacet
  facet normal 0.982279 -0.187425 0
    outer loop
      vertex 12.6495 -1.598 0
      vertex 12.3494 -3.1708 1.8
      vertex 12.3494 -3.1708 0
    endloop
  endfacet
  facet normal -0.587793 0.809011 0
    outer loop
      vertex -6.83179 10.7652 0
      vertex -8.12716 9.82404 1.8
      vertex -6.83179 10.7652 1.8
    endloop
  endfacet
  facet normal -0.587793 0.809011 0
    outer loop
      vertex -8.12716 9.82404 1.8
      vertex -6.83179 10.7652 0
      vertex -8.12716 9.82404 0
    endloop
  endfacet
  facet normal 0.587793 -0.809011 0
    outer loop
      vertex 6.83179 -10.7652 0
      vertex 8.12716 -9.82404 1.8
      vertex 6.83179 -10.7652 1.8
    endloop
  endfacet
  facet normal 0.587793 -0.809011 0
    outer loop
      vertex 8.12716 -9.82404 1.8
      vertex 6.83179 -10.7652 0
      vertex 8.12716 -9.82404 0
    endloop
  endfacet
  facet normal -0.125285 0.992121 0
    outer loop
      vertex -0.800579 12.7248 0
      vertex -2.38911 12.5242 1.8
      vertex -0.800579 12.7248 1.8
    endloop
  endfacet
  facet normal -0.125285 0.992121 0
    outer loop
      vertex -2.38911 12.5242 1.8
      vertex -0.800579 12.7248 0
      vertex -2.38911 12.5242 0
    endloop
  endfacet
  facet normal -0.481725 0.876323 0
    outer loop
      vertex -5.42869 11.5365 0
      vertex -6.83179 10.7652 1.8
      vertex -5.42869 11.5365 1.8
    endloop
  endfacet
  facet normal -0.481725 0.876323 0
    outer loop
      vertex -6.83179 10.7652 1.8
      vertex -5.42869 11.5365 0
      vertex -6.83179 10.7652 0
    endloop
  endfacet
  facet normal -0.998028 -0.0627671 0
    outer loop
      vertex -12.6495 -1.598 0
      vertex -12.75 0 1.8
      vertex -12.75 0 0
    endloop
  endfacet
  facet normal -0.998028 -0.0627671 0
    outer loop
      vertex -12.75 0 1.8
      vertex -12.6495 -1.598 0
      vertex -12.6495 -1.598 1.8
    endloop
  endfacet
  facet normal 0.248694 0.968582 -0
    outer loop
      vertex 3.93997 12.126 0
      vertex 2.38911 12.5242 1.8
      vertex 3.93997 12.126 1.8
    endloop
  endfacet
  facet normal 0.248694 0.968582 0
    outer loop
      vertex 2.38911 12.5242 1.8
      vertex 3.93997 12.126 0
      vertex 2.38911 12.5242 0
    endloop
  endfacet
  facet normal 0.368165 -0.929761 0
    outer loop
      vertex 3.93997 -12.126 0
      vertex 5.42869 -11.5365 1.8
      vertex 3.93997 -12.126 1.8
    endloop
  endfacet
  facet normal 0.368165 -0.929761 0
    outer loop
      vertex 5.42869 -11.5365 1.8
      vertex 3.93997 -12.126 0
      vertex 5.42869 -11.5365 0
    endloop
  endfacet
  facet normal 0.770502 -0.637437 0
    outer loop
      vertex 9.29435 -8.72797 1.8
      vertex 10.315 -7.49426 0
      vertex 10.315 -7.49426 1.8
    endloop
  endfacet
  facet normal 0.770502 -0.637437 0
    outer loop
      vertex 10.315 -7.49426 0
      vertex 9.29435 -8.72797 1.8
      vertex 9.29435 -8.72797 0
    endloop
  endfacet
  facet normal 0.904837 -0.425759 0
    outer loop
      vertex 11.1729 -6.14236 1.8
      vertex 11.8546 -4.69359 0
      vertex 11.8546 -4.69359 1.8
    endloop
  endfacet
  facet normal 0.904837 -0.425759 0
    outer loop
      vertex 11.8546 -4.69359 0
      vertex 11.1729 -6.14236 1.8
      vertex 11.1729 -6.14236 0
    endloop
  endfacet
  facet normal -0.84434 -0.535808 0
    outer loop
      vertex -10.315 -7.49426 0
      vertex -11.1729 -6.14236 1.8
      vertex -11.1729 -6.14236 0
    endloop
  endfacet
  facet normal -0.84434 -0.535808 0
    outer loop
      vertex -11.1729 -6.14236 1.8
      vertex -10.315 -7.49426 0
      vertex -10.315 -7.49426 1.8
    endloop
  endfacet
  facet normal -0.904837 -0.425759 0
    outer loop
      vertex -11.1729 -6.14236 0
      vertex -11.8546 -4.69359 1.8
      vertex -11.8546 -4.69359 0
    endloop
  endfacet
  facet normal -0.904837 -0.425759 0
    outer loop
      vertex -11.8546 -4.69359 1.8
      vertex -11.1729 -6.14236 0
      vertex -11.1729 -6.14236 1.8
    endloop
  endfacet
  facet normal 0.481725 -0.876323 0
    outer loop
      vertex 5.42869 -11.5365 0
      vertex 6.83179 -10.7652 1.8
      vertex 5.42869 -11.5365 1.8
    endloop
  endfacet
  facet normal 0.481725 -0.876323 0
    outer loop
      vertex 6.83179 -10.7652 1.8
      vertex 5.42869 -11.5365 0
      vertex 6.83179 -10.7652 0
    endloop
  endfacet
  facet normal 0.770502 0.637437 0
    outer loop
      vertex 10.315 7.49426 1.8
      vertex 9.29435 8.72797 0
      vertex 9.29435 8.72797 1.8
    endloop
  endfacet
  facet normal 0.770502 0.637437 0
    outer loop
      vertex 9.29435 8.72797 0
      vertex 10.315 7.49426 1.8
      vertex 10.315 7.49426 0
    endloop
  endfacet
  facet normal 0 -1 0
    outer loop
      vertex -0.800579 -12.7248 0
      vertex 0.800579 -12.7248 1.8
      vertex -0.800579 -12.7248 1.8
    endloop
  endfacet
  facet normal 0 -1 -0
    outer loop
      vertex 0.800579 -12.7248 1.8
      vertex -0.800579 -12.7248 0
      vertex 0.800579 -12.7248 0
    endloop
  endfacet
  facet normal 0 1 -0
    outer loop
      vertex 0.800579 12.7248 0
      vertex -0.800579 12.7248 1.8
      vertex 0.800579 12.7248 1.8
    endloop
  endfacet
  facet normal 0 1 0
    outer loop
      vertex -0.800579 12.7248 1.8
      vertex 0.800579 12.7248 0
      vertex -0.800579 12.7248 0
    endloop
  endfacet
  facet normal 0 0 -1
    outer loop
      vertex 1.75 0 0
      vertex 12.75 0 0
      vertex 12.6495 -1.598 0
    endloop
  endfacet
  facet normal 0 0 -1
    outer loop
      vertex 1.7362 -0.219333 0
      vertex 12.6495 -1.598 0
      vertex 12.3494 -3.1708 0
    endloop
  endfacet
  facet normal 0 0 -1
    outer loop
      vertex 12.75 0 0
      vertex 1.75 0 0
      vertex 12.6495 1.598 0
    endloop
  endfacet
  facet normal 0 0 -1
    outer loop
      vertex 1.69502 -0.435206 0
      vertex 12.3494 -3.1708 0
      vertex 11.8546 -4.69359 0
    endloop
  endfacet
  facet normal 0 0 -1
    outer loop
      vertex 1.7362 0.219333 0
      vertex 12.6495 1.598 0
      vertex 1.75 0 0
    endloop
  endfacet
  facet normal 0 0 -1
    outer loop
      vertex 1.62711 -0.644217 0
      vertex 11.8546 -4.69359 0
      vertex 11.1729 -6.14236 0
    endloop
  endfacet
  facet normal -0 0 -1
    outer loop
      vertex 12.6495 1.598 0
      vertex 1.7362 0.219333 0
      vertex 12.3494 3.1708 0
    endloop
  endfacet
  facet normal 0 0 -1
    outer loop
      vertex 1.53354 -0.843068 0
      vertex 11.1729 -6.14236 0
      vertex 10.315 -7.49426 0
    endloop
  endfacet
  facet normal 0 0 -1
    outer loop
      vertex 1.69502 0.435206 0
      vertex 12.3494 3.1708 0
      vertex 1.7362 0.219333 0
    endloop
  endfacet
  facet normal 0 0 -1
    outer loop
      vertex 1.41578 -1.02862 0
      vertex 10.315 -7.49426 0
      vertex 9.29435 -8.72797 0
    endloop
  endfacet
  facet normal -0 0 -1
    outer loop
      vertex 12.3494 3.1708 0
      vertex 1.69502 0.435206 0
      vertex 11.8546 4.69359 0
    endloop
  endfacet
  facet normal 0 0 -1
    outer loop
      vertex 1.27569 -1.19796 0
      vertex 9.29435 -8.72797 0
      vertex 8.12716 -9.82404 0
    endloop
  endfacet
  facet normal 0 0 -1
    outer loop
      vertex 1.62711 0.644217 0
      vertex 11.8546 4.69359 0
      vertex 1.69502 0.435206 0
    endloop
  endfacet
  facet normal 0 0 -1
    outer loop
      vertex 1.11549 -1.3484 0
      vertex 8.12716 -9.82404 0
      vertex 6.83179 -10.7652 0
    endloop
  endfacet
  facet normal -0 0 -1
    outer loop
      vertex 11.8546 4.69359 0
      vertex 1.62711 0.644217 0
      vertex 11.1729 6.14236 0
    endloop
  endfacet
  facet normal 0 0 -1
    outer loop
      vertex 0.937696 -1.47757 0
      vertex 6.83179 -10.7652 0
      vertex 5.42869 -11.5365 0
    endloop
  endfacet
  facet normal 0 0 -1
    outer loop
      vertex 1.53354 0.843068 0
      vertex 11.1729 6.14236 0
      vertex 1.62711 0.644217 0
    endloop
  endfacet
  facet normal 0 0 -1
    outer loop
      vertex 0.745113 -1.58345 0
      vertex 5.42869 -11.5365 0
      vertex 3.93997 -12.126 0
    endloop
  endfacet
  facet normal -0 0 -1
    outer loop
      vertex 11.1729 6.14236 0
      vertex 1.53354 0.843068 0
      vertex 10.315 7.49426 0
    endloop
  endfacet
  facet normal 0 0 -1
    outer loop
      vertex 0.540779 -1.66435 0
      vertex 3.93997 -12.126 0
      vertex 2.38911 -12.5242 0
    endloop
  endfacet
  facet normal 0 0 -1
    outer loop
      vertex 1.41578 1.02862 0
      vertex 10.315 7.49426 0
      vertex 1.53354 0.843068 0
    endloop
  endfacet
  facet normal -0 0 -1
    outer loop
      vertex 10.315 7.49426 0
      vertex 1.41578 1.02862 0
      vertex 9.29435 8.72797 0
    endloop
  endfacet
  facet normal 0 0 -1
    outer loop
      vertex 12.6495 -1.598 0
      vertex 1.7362 -0.219333 0
      vertex 1.75 0 0
    endloop
  endfacet
  facet normal 0 0 -1
    outer loop
      vertex 12.3494 -3.1708 0
      vertex 1.69502 -0.435206 0
      vertex 1.7362 -0.219333 0
    endloop
  endfacet
  facet normal 0 0 -1
    outer loop
      vertex 11.8546 -4.69359 0
      vertex 1.62711 -0.644217 0
      vertex 1.69502 -0.435206 0
    endloop
  endfacet
  facet normal 0 0 -1
    outer loop
      vertex 11.1729 -6.14236 0
      vertex 1.53354 -0.843068 0
      vertex 1.62711 -0.644217 0
    endloop
  endfacet
  facet normal 0 0 -1
    outer loop
      vertex 10.315 -7.49426 0
      vertex 1.41578 -1.02862 0
      vertex 1.53354 -0.843068 0
    endloop
  endfacet
  facet normal 0 0 -1
    outer loop
      vertex 9.29435 -8.72797 0
      vertex 1.27569 -1.19796 0
      vertex 1.41578 -1.02862 0
    endloop
  endfacet
  facet normal 0 0 -1
    outer loop
      vertex 8.12716 -9.82404 0
      vertex 1.11549 -1.3484 0
      vertex 1.27569 -1.19796 0
    endloop
  endfacet
  facet normal 0 0 -1
    outer loop
      vertex 6.83179 -10.7652 0
      vertex 0.937696 -1.47757 0
      vertex 1.11549 -1.3484 0
    endloop
  endfacet
  facet normal 0 0 -1
    outer loop
      vertex 0.327917 -1.719 0
      vertex 2.38911 -12.5242 0
      vertex 0.800579 -12.7248 0
    endloop
  endfacet
  facet normal 0 0 -1
    outer loop
      vertex 5.42869 -11.5365 0
      vertex 0.745113 -1.58345 0
      vertex 0.937696 -1.47757 0
    endloop
  endfacet
  facet normal 0 0 -1
    outer loop
      vertex 3.93997 -12.126 0
      vertex 0.540779 -1.66435 0
      vertex 0.745113 -1.58345 0
    endloop
  endfacet
  facet normal 0 0 -1
    outer loop
      vertex 2.38911 -12.5242 0
      vertex 0.327917 -1.719 0
      vertex 0.540779 -1.66435 0
    endloop
  endfacet
  facet normal 0 0 -1
    outer loop
      vertex 0.800579 -12.7248 0
      vertex 0.109883 -1.74655 0
      vertex 0.327917 -1.719 0
    endloop
  endfacet
  facet normal 0 0 -1
    outer loop
      vertex 0.800579 -12.7248 0
      vertex -0.109883 -1.74655 0
      vertex 0.109883 -1.74655 0
    endloop
  endfacet
  facet normal 0 0 -1
    outer loop
      vertex -0.800579 -12.7248 0
      vertex -0.109883 -1.74655 0
      vertex 0.800579 -12.7248 0
    endloop
  endfacet
  facet normal -0 0 -1
    outer loop
      vertex -0.109883 -1.74655 0
      vertex -0.800579 -12.7248 0
      vertex -0.327917 -1.719 0
    endloop
  endfacet
  facet normal 0 0 -1
    outer loop
      vertex -2.38911 -12.5242 0
      vertex -0.327917 -1.719 0
      vertex -0.800579 -12.7248 0
    endloop
  endfacet
  facet normal -0 0 -1
    outer loop
      vertex -0.327917 -1.719 0
      vertex -2.38911 -12.5242 0
      vertex -0.540779 -1.66435 0
    endloop
  endfacet
  facet normal 0 0 -1
    outer loop
      vertex -3.93997 -12.126 0
      vertex -0.540779 -1.66435 0
      vertex -2.38911 -12.5242 0
    endloop
  endfacet
  facet normal -0 0 -1
    outer loop
      vertex -0.540779 -1.66435 0
      vertex -3.93997 -12.126 0
      vertex -0.745113 -1.58345 0
    endloop
  endfacet
  facet normal 0 0 -1
    outer loop
      vertex -5.42869 -11.5365 0
      vertex -0.745113 -1.58345 0
      vertex -3.93997 -12.126 0
    endloop
  endfacet
  facet normal -0 0 -1
    outer loop
      vertex -0.745113 -1.58345 0
      vertex -5.42869 -11.5365 0
      vertex -0.937696 -1.47757 0
    endloop
  endfacet
  facet normal 0 0 -1
    outer loop
      vertex -6.83179 -10.7652 0
      vertex -0.937696 -1.47757 0
      vertex -5.42869 -11.5365 0
    endloop
  endfacet
  facet normal -0 0 -1
    outer loop
      vertex -0.937696 -1.47757 0
      vertex -6.83179 -10.7652 0
      vertex -1.11549 -1.3484 0
    endloop
  endfacet
  facet normal 0 0 -1
    outer loop
      vertex -8.12716 -9.82404 0
      vertex -1.11549 -1.3484 0
      vertex -6.83179 -10.7652 0
    endloop
  endfacet
  facet normal -0 0 -1
    outer loop
      vertex -1.11549 -1.3484 0
      vertex -8.12716 -9.82404 0
      vertex -1.27569 -1.19796 0
    endloop
  endfacet
  facet normal -0 0 -1
    outer loop
      vertex -1.27569 -1.19796 0
      vertex -9.29435 -8.72797 0
      vertex -1.41578 -1.02862 0
    endloop
  endfacet
  facet normal 0 0 -1
    outer loop
      vertex -9.29435 -8.72797 0
      vertex -1.27569 -1.19796 0
      vertex -8.12716 -9.82404 0
    endloop
  endfacet
  facet normal 0 0 -1
    outer loop
      vertex 1.27569 1.19796 0
      vertex 9.29435 8.72797 0
      vertex 1.41578 1.02862 0
    endloop
  endfacet
  facet normal -0 0 -1
    outer loop
      vertex 9.29435 8.72797 0
      vertex 1.27569 1.19796 0
      vertex 8.12716 9.82404 0
    endloop
  endfacet
  facet normal 0 0 -1
    outer loop
      vertex 1.11549 1.3484 0
      vertex 8.12716 9.82404 0
      vertex 1.27569 1.19796 0
    endloop
  endfacet
  facet normal -0 0 -1
    outer loop
      vertex 8.12716 9.82404 0
      vertex 1.11549 1.3484 0
      vertex 6.83179 10.7652 0
    endloop
  endfacet
  facet normal 0 0 -1
    outer loop
      vertex 0.937696 1.47757 0
      vertex 6.83179 10.7652 0
      vertex 1.11549 1.3484 0
    endloop
  endfacet
  facet normal -0 0 -1
    outer loop
      vertex 6.83179 10.7652 0
      vertex 0.937696 1.47757 0
      vertex 5.42869 11.5365 0
    endloop
  endfacet
  facet normal 0 0 -1
    outer loop
      vertex 0.745113 1.58345 0
      vertex 5.42869 11.5365 0
      vertex 0.937696 1.47757 0
    endloop
  endfacet
  facet normal -0 0 -1
    outer loop
      vertex 5.42869 11.5365 0
      vertex 0.745113 1.58345 0
      vertex 3.93997 12.126 0
    endloop
  endfacet
  facet normal 0 0 -1
    outer loop
      vertex 0.540779 1.66435 0
      vertex 3.93997 12.126 0
      vertex 0.745113 1.58345 0
    endloop
  endfacet
  facet normal -0 0 -1
    outer loop
      vertex 3.93997 12.126 0
      vertex 0.540779 1.66435 0
      vertex 2.38911 12.5242 0
    endloop
  endfacet
  facet normal 0 0 -1
    outer loop
      vertex 0.327917 1.719 0
      vertex 2.38911 12.5242 0
      vertex 0.540779 1.66435 0
    endloop
  endfacet
  facet normal -0 0 -1
    outer loop
      vertex 2.38911 12.5242 0
      vertex 0.327917 1.719 0
      vertex 0.800579 12.7248 0
    endloop
  endfacet
  facet normal 0 0 -1
    outer loop
      vertex 0.109883 1.74655 0
      vertex 0.800579 12.7248 0
      vertex 0.327917 1.719 0
    endloop
  endfacet
  facet normal 0 0 -1
    outer loop
      vertex -0.109883 1.74655 0
      vertex 0.800579 12.7248 0
      vertex 0.109883 1.74655 0
    endloop
  endfacet
  facet normal 0 0 -1
    outer loop
      vertex -0.800579 12.7248 0
      vertex -0.109883 1.74655 0
      vertex -0.327917 1.719 0
    endloop
  endfacet
  facet normal 0 0 -1
    outer loop
      vertex -2.38911 12.5242 0
      vertex -0.327917 1.719 0
      vertex -0.540779 1.66435 0
    endloop
  endfacet
  facet normal 0 0 -1
    outer loop
      vertex -3.93997 12.126 0
      vertex -0.540779 1.66435 0
      vertex -0.745113 1.58345 0
    endloop
  endfacet
  facet normal 0 0 -1
    outer loop
      vertex -0.109883 1.74655 0
      vertex -0.800579 12.7248 0
      vertex 0.800579 12.7248 0
    endloop
  endfacet
  facet normal 0 0 -1
    outer loop
      vertex -5.42869 11.5365 0
      vertex -0.745113 1.58345 0
      vertex -0.937696 1.47757 0
    endloop
  endfacet
  facet normal 0 0 -1
    outer loop
      vertex -6.83179 10.7652 0
      vertex -0.937696 1.47757 0
      vertex -1.11549 1.3484 0
    endloop
  endfacet
  facet normal 0 0 -1
    outer loop
      vertex -8.12716 9.82404 0
      vertex -1.11549 1.3484 0
      vertex -1.27569 1.19796 0
    endloop
  endfacet
  facet normal 0 0 -1
    outer loop
      vertex -9.29435 8.72797 0
      vertex -1.27569 1.19796 0
      vertex -1.41578 1.02862 0
    endloop
  endfacet
  facet normal 0 0 -1
    outer loop
      vertex -10.315 7.49426 0
      vertex -1.41578 1.02862 0
      vertex -1.53354 0.843068 0
    endloop
  endfacet
  facet normal 0 0 -1
    outer loop
      vertex -11.1729 6.14236 0
      vertex -1.53354 0.843068 0
      vertex -1.62711 0.644217 0
    endloop
  endfacet
  facet normal 0 0 -1
    outer loop
      vertex -11.8546 4.69359 0
      vertex -1.62711 0.644217 0
      vertex -1.69502 0.435206 0
    endloop
  endfacet
  facet normal 0 0 -1
    outer loop
      vertex -12.3494 3.1708 0
      vertex -1.69502 0.435206 0
      vertex -1.7362 0.219333 0
    endloop
  endfacet
  facet normal 0 0 -1
    outer loop
      vertex -0.327917 1.719 0
      vertex -2.38911 12.5242 0
      vertex -0.800579 12.7248 0
    endloop
  endfacet
  facet normal 0 0 -1
    outer loop
      vertex -12.6495 1.598 0
      vertex -1.7362 0.219333 0
      vertex -1.75 0 0
    endloop
  endfacet
  facet normal 0 0 -1
    outer loop
      vertex -10.315 -7.49426 0
      vertex -1.41578 -1.02862 0
      vertex -9.29435 -8.72797 0
    endloop
  endfacet
  facet normal -0 0 -1
    outer loop
      vertex -1.41578 -1.02862 0
      vertex -10.315 -7.49426 0
      vertex -1.53354 -0.843068 0
    endloop
  endfacet
  facet normal 0 0 -1
    outer loop
      vertex -0.540779 1.66435 0
      vertex -3.93997 12.126 0
      vertex -2.38911 12.5242 0
    endloop
  endfacet
  facet normal 0 0 -1
    outer loop
      vertex -11.1729 -6.14236 0
      vertex -1.53354 -0.843068 0
      vertex -10.315 -7.49426 0
    endloop
  endfacet
  facet normal 0 0 -1
    outer loop
      vertex -0.745113 1.58345 0
      vertex -5.42869 11.5365 0
      vertex -3.93997 12.126 0
    endloop
  endfacet
  facet normal -0 0 -1
    outer loop
      vertex -1.53354 -0.843068 0
      vertex -11.1729 -6.14236 0
      vertex -1.62711 -0.644217 0
    endloop
  endfacet
  facet normal 0 0 -1
    outer loop
      vertex -0.937696 1.47757 0
      vertex -6.83179 10.7652 0
      vertex -5.42869 11.5365 0
    endloop
  endfacet
  facet normal 0 0 -1
    outer loop
      vertex -11.8546 -4.69359 0
      vertex -1.62711 -0.644217 0
      vertex -11.1729 -6.14236 0
    endloop
  endfacet
  facet normal 0 0 -1
    outer loop
      vertex -1.11549 1.3484 0
      vertex -8.12716 9.82404 0
      vertex -6.83179 10.7652 0
    endloop
  endfacet
  facet normal -0 0 -1
    outer loop
      vertex -1.62711 -0.644217 0
      vertex -11.8546 -4.69359 0
      vertex -1.69502 -0.435206 0
    endloop
  endfacet
  facet normal 0 0 -1
    outer loop
      vertex -1.27569 1.19796 0
      vertex -9.29435 8.72797 0
      vertex -8.12716 9.82404 0
    endloop
  endfacet
  facet normal 0 0 -1
    outer loop
      vertex -12.3494 -3.1708 0
      vertex -1.69502 -0.435206 0
      vertex -11.8546 -4.69359 0
    endloop
  endfacet
  facet normal 0 0 -1
    outer loop
      vertex -1.41578 1.02862 0
      vertex -10.315 7.49426 0
      vertex -9.29435 8.72797 0
    endloop
  endfacet
  facet normal -0 0 -1
    outer loop
      vertex -1.69502 -0.435206 0
      vertex -12.3494 -3.1708 0
      vertex -1.7362 -0.219333 0
    endloop
  endfacet
  facet normal 0 0 -1
    outer loop
      vertex -1.53354 0.843068 0
      vertex -11.1729 6.14236 0
      vertex -10.315 7.49426 0
    endloop
  endfacet
  facet normal 0 0 -1
    outer loop
      vertex -12.6495 -1.598 0
      vertex -1.7362 -0.219333 0
      vertex -12.3494 -3.1708 0
    endloop
  endfacet
  facet normal 0 0 -1
    outer loop
      vertex -1.62711 0.644217 0
      vertex -11.8546 4.69359 0
      vertex -11.1729 6.14236 0
    endloop
  endfacet
  facet normal -0 0 -1
    outer loop
      vertex -1.7362 -0.219333 0
      vertex -12.6495 -1.598 0
      vertex -1.75 0 0
    endloop
  endfacet
  facet normal 0 0 -1
    outer loop
      vertex -1.69502 0.435206 0
      vertex -12.3494 3.1708 0
      vertex -11.8546 4.69359 0
    endloop
  endfacet
  facet normal 0 0 -1
    outer loop
      vertex -12.75 0 0
      vertex -1.75 0 0
      vertex -12.6495 -1.598 0
    endloop
  endfacet
  facet normal 0 0 -1
    outer loop
      vertex -1.7362 0.219333 0
      vertex -12.6495 1.598 0
      vertex -12.3494 3.1708 0
    endloop
  endfacet
  facet normal 0 0 -1
    outer loop
      vertex -1.75 0 0
      vertex -12.75 0 0
      vertex -12.6495 1.598 0
    endloop
  endfacet
  facet normal 0.684549 -0.728967 0
    outer loop
      vertex 8.12716 -9.82404 0
      vertex 9.29435 -8.72797 1.8
      vertex 8.12716 -9.82404 1.8
    endloop
  endfacet
  facet normal 0.684549 -0.728967 0
    outer loop
      vertex 9.29435 -8.72797 1.8
      vertex 8.12716 -9.82404 0
      vertex 9.29435 -8.72797 0
    endloop
  endfacet
  facet normal -0.587793 -0.809011 0
    outer loop
      vertex -8.12716 -9.82404 0
      vertex -6.83179 -10.7652 1.8
      vertex -8.12716 -9.82404 1.8
    endloop
  endfacet
  facet normal -0.587793 -0.809011 -0
    outer loop
      vertex -6.83179 -10.7652 1.8
      vertex -8.12716 -9.82404 0
      vertex -6.83179 -10.7652 0
    endloop
  endfacet
  facet normal 0 0 1
    outer loop
      vertex 1.75 0 1.8
      vertex 12.75 0 1.8
      vertex 12.6495 1.598 1.8
    endloop
  endfacet
  facet normal 0 0 1
    outer loop
      vertex 1.7362 0.219333 1.8
      vertex 12.6495 1.598 1.8
      vertex 12.3494 3.1708 1.8
    endloop
  endfacet
  facet normal 0 0 1
    outer loop
      vertex 12.75 0 1.8
      vertex 1.75 0 1.8
      vertex 12.6495 -1.598 1.8
    endloop
  endfacet
  facet normal 0 0 1
    outer loop
      vertex 1.69502 0.435206 1.8
      vertex 12.3494 3.1708 1.8
      vertex 11.8546 4.69359 1.8
    endloop
  endfacet
  facet normal -0 0 1
    outer loop
      vertex 1.7362 -0.219333 1.8
      vertex 12.6495 -1.598 1.8
      vertex 1.75 0 1.8
    endloop
  endfacet
  facet normal 0 0 1
    outer loop
      vertex 1.62711 0.644217 1.8
      vertex 11.8546 4.69359 1.8
      vertex 11.1729 6.14236 1.8
    endloop
  endfacet
  facet normal 0 0 1
    outer loop
      vertex 12.6495 -1.598 1.8
      vertex 1.7362 -0.219333 1.8
      vertex 12.3494 -3.1708 1.8
    endloop
  endfacet
  facet normal 0 0 1
    outer loop
      vertex 1.53354 0.843068 1.8
      vertex 11.1729 6.14236 1.8
      vertex 10.315 7.49426 1.8
    endloop
  endfacet
  facet normal -0 0 1
    outer loop
      vertex 1.69502 -0.435206 1.8
      vertex 12.3494 -3.1708 1.8
      vertex 1.7362 -0.219333 1.8
    endloop
  endfacet
  facet normal 0 0 1
    outer loop
      vertex 1.41578 1.02862 1.8
      vertex 10.315 7.49426 1.8
      vertex 9.29435 8.72797 1.8
    endloop
  endfacet
  facet normal 0 0 1
    outer loop
      vertex 12.3494 -3.1708 1.8
      vertex 1.69502 -0.435206 1.8
      vertex 11.8546 -4.69359 1.8
    endloop
  endfacet
  facet normal 0 0 1
    outer loop
      vertex 1.27569 1.19796 1.8
      vertex 9.29435 8.72797 1.8
      vertex 8.12716 9.82404 1.8
    endloop
  endfacet
  facet normal -0 0 1
    outer loop
      vertex 1.62711 -0.644217 1.8
      vertex 11.8546 -4.69359 1.8
      vertex 1.69502 -0.435206 1.8
    endloop
  endfacet
  facet normal 0 0 1
    outer loop
      vertex 1.11549 1.3484 1.8
      vertex 8.12716 9.82404 1.8
      vertex 6.83179 10.7652 1.8
    endloop
  endfacet
  facet normal 0 0 1
    outer loop
      vertex 11.8546 -4.69359 1.8
      vertex 1.62711 -0.644217 1.8
      vertex 11.1729 -6.14236 1.8
    endloop
  endfacet
  facet normal 0 0 1
    outer loop
      vertex 0.937696 1.47757 1.8
      vertex 6.83179 10.7652 1.8
      vertex 5.42869 11.5365 1.8
    endloop
  endfacet
  facet normal -0 0 1
    outer loop
      vertex 1.53354 -0.843068 1.8
      vertex 11.1729 -6.14236 1.8
      vertex 1.62711 -0.644217 1.8
    endloop
  endfacet
  facet normal 0 0 1
    outer loop
      vertex 0.745113 1.58345 1.8
      vertex 5.42869 11.5365 1.8
      vertex 3.93997 12.126 1.8
    endloop
  endfacet
  facet normal 0 0 1
    outer loop
      vertex 11.1729 -6.14236 1.8
      vertex 1.53354 -0.843068 1.8
      vertex 10.315 -7.49426 1.8
    endloop
  endfacet
  facet normal 0 0 1
    outer loop
      vertex 0.540779 1.66435 1.8
      vertex 3.93997 12.126 1.8
      vertex 2.38911 12.5242 1.8
    endloop
  endfacet
  facet normal -0 0 1
    outer loop
      vertex 1.41578 -1.02862 1.8
      vertex 10.315 -7.49426 1.8
      vertex 1.53354 -0.843068 1.8
    endloop
  endfacet
  facet normal 0 0 1
    outer loop
      vertex 10.315 -7.49426 1.8
      vertex 1.41578 -1.02862 1.8
      vertex 9.29435 -8.72797 1.8
    endloop
  endfacet
  facet normal 0 0 1
    outer loop
      vertex 12.6495 1.598 1.8
      vertex 1.7362 0.219333 1.8
      vertex 1.75 0 1.8
    endloop
  endfacet
  facet normal 0 0 1
    outer loop
      vertex 12.3494 3.1708 1.8
      vertex 1.69502 0.435206 1.8
      vertex 1.7362 0.219333 1.8
    endloop
  endfacet
  facet normal 0 0 1
    outer loop
      vertex 11.8546 4.69359 1.8
      vertex 1.62711 0.644217 1.8
      vertex 1.69502 0.435206 1.8
    endloop
  endfacet
  facet normal 0 0 1
    outer loop
      vertex 11.1729 6.14236 1.8
      vertex 1.53354 0.843068 1.8
      vertex 1.62711 0.644217 1.8
    endloop
  endfacet
  facet normal 0 0 1
    outer loop
      vertex 10.315 7.49426 1.8
      vertex 1.41578 1.02862 1.8
      vertex 1.53354 0.843068 1.8
    endloop
  endfacet
  facet normal 0 0 1
    outer loop
      vertex 9.29435 8.72797 1.8
      vertex 1.27569 1.19796 1.8
      vertex 1.41578 1.02862 1.8
    endloop
  endfacet
  facet normal 0 0 1
    outer loop
      vertex 8.12716 9.82404 1.8
      vertex 1.11549 1.3484 1.8
      vertex 1.27569 1.19796 1.8
    endloop
  endfacet
  facet normal 0 0 1
    outer loop
      vertex 6.83179 10.7652 1.8
      vertex 0.937696 1.47757 1.8
      vertex 1.11549 1.3484 1.8
    endloop
  endfacet
  facet normal 0 0 1
    outer loop
      vertex 0.327917 1.719 1.8
      vertex 2.38911 12.5242 1.8
      vertex 0.800579 12.7248 1.8
    endloop
  endfacet
  facet normal 0 0 1
    outer loop
      vertex 5.42869 11.5365 1.8
      vertex 0.745113 1.58345 1.8
      vertex 0.937696 1.47757 1.8
    endloop
  endfacet
  facet normal 0 0 1
    outer loop
      vertex 3.93997 12.126 1.8
      vertex 0.540779 1.66435 1.8
      vertex 0.745113 1.58345 1.8
    endloop
  endfacet
  facet normal 0 0 1
    outer loop
      vertex 2.38911 12.5242 1.8
      vertex 0.327917 1.719 1.8
      vertex 0.540779 1.66435 1.8
    endloop
  endfacet
  facet normal 0 0 1
    outer loop
      vertex 0.800579 12.7248 1.8
      vertex 0.109883 1.74655 1.8
      vertex 0.327917 1.719 1.8
    endloop
  endfacet
  facet normal 0 0 1
    outer loop
      vertex 0.800579 12.7248 1.8
      vertex -0.109883 1.74655 1.8
      vertex 0.109883 1.74655 1.8
    endloop
  endfacet
  facet normal -0 0 1
    outer loop
      vertex -0.800579 12.7248 1.8
      vertex -0.109883 1.74655 1.8
      vertex 0.800579 12.7248 1.8
    endloop
  endfacet
  facet normal 0 0 1
    outer loop
      vertex -0.109883 1.74655 1.8
      vertex -0.800579 12.7248 1.8
      vertex -0.327917 1.719 1.8
    endloop
  endfacet
  facet normal -0 0 1
    outer loop
      vertex -2.38911 12.5242 1.8
      vertex -0.327917 1.719 1.8
      vertex -0.800579 12.7248 1.8
    endloop
  endfacet
  facet normal 0 0 1
    outer loop
      vertex -0.327917 1.719 1.8
      vertex -2.38911 12.5242 1.8
      vertex -0.540779 1.66435 1.8
    endloop
  endfacet
  facet normal -0 0 1
    outer loop
      vertex -3.93997 12.126 1.8
      vertex -0.540779 1.66435 1.8
      vertex -2.38911 12.5242 1.8
    endloop
  endfacet
  facet normal 0 0 1
    outer loop
      vertex -0.540779 1.66435 1.8
      vertex -3.93997 12.126 1.8
      vertex -0.745113 1.58345 1.8
    endloop
  endfacet
  facet normal -0 0 1
    outer loop
      vertex -5.42869 11.5365 1.8
      vertex -0.745113 1.58345 1.8
      vertex -3.93997 12.126 1.8
    endloop
  endfacet
  facet normal 0 0 1
    outer loop
      vertex -0.745113 1.58345 1.8
      vertex -5.42869 11.5365 1.8
      vertex -0.937696 1.47757 1.8
    endloop
  endfacet
  facet normal -0 0 1
    outer loop
      vertex -6.83179 10.7652 1.8
      vertex -0.937696 1.47757 1.8
      vertex -5.42869 11.5365 1.8
    endloop
  endfacet
  facet normal 0 0 1
    outer loop
      vertex -0.937696 1.47757 1.8
      vertex -6.83179 10.7652 1.8
      vertex -1.11549 1.3484 1.8
    endloop
  endfacet
  facet normal -0 0 1
    outer loop
      vertex -8.12716 9.82404 1.8
      vertex -1.11549 1.3484 1.8
      vertex -6.83179 10.7652 1.8
    endloop
  endfacet
  facet normal 0 0 1
    outer loop
      vertex -1.11549 1.3484 1.8
      vertex -8.12716 9.82404 1.8
      vertex -1.27569 1.19796 1.8
    endloop
  endfacet
  facet normal 0 0 1
    outer loop
      vertex -1.27569 1.19796 1.8
      vertex -9.29435 8.72797 1.8
      vertex -1.41578 1.02862 1.8
    endloop
  endfacet
  facet normal -0 0 1
    outer loop
      vertex -9.29435 8.72797 1.8
      vertex -1.27569 1.19796 1.8
      vertex -8.12716 9.82404 1.8
    endloop
  endfacet
  facet normal -0 0 1
    outer loop
      vertex 1.27569 -1.19796 1.8
      vertex 9.29435 -8.72797 1.8
      vertex 1.41578 -1.02862 1.8
    endloop
  endfacet
  facet normal 0 0 1
    outer loop
      vertex 9.29435 -8.72797 1.8
      vertex 1.27569 -1.19796 1.8
      vertex 8.12716 -9.82404 1.8
    endloop
  endfacet
  facet normal -0 0 1
    outer loop
      vertex 1.11549 -1.3484 1.8
      vertex 8.12716 -9.82404 1.8
      vertex 1.27569 -1.19796 1.8
    endloop
  endfacet
  facet normal 0 0 1
    outer loop
      vertex 8.12716 -9.82404 1.8
      vertex 1.11549 -1.3484 1.8
      vertex 6.83179 -10.7652 1.8
    endloop
  endfacet
  facet normal -0 0 1
    outer loop
      vertex 0.937696 -1.47757 1.8
      vertex 6.83179 -10.7652 1.8
      vertex 1.11549 -1.3484 1.8
    endloop
  endfacet
  facet normal 0 0 1
    outer loop
      vertex 6.83179 -10.7652 1.8
      vertex 0.937696 -1.47757 1.8
      vertex 5.42869 -11.5365 1.8
    endloop
  endfacet
  facet normal -0 0 1
    outer loop
      vertex 0.745113 -1.58345 1.8
      vertex 5.42869 -11.5365 1.8
      vertex 0.937696 -1.47757 1.8
    endloop
  endfacet
  facet normal 0 0 1
    outer loop
      vertex 5.42869 -11.5365 1.8
      vertex 0.745113 -1.58345 1.8
      vertex 3.93997 -12.126 1.8
    endloop
  endfacet
  facet normal -0 0 1
    outer loop
      vertex 0.540779 -1.66435 1.8
      vertex 3.93997 -12.126 1.8
      vertex 0.745113 -1.58345 1.8
    endloop
  endfacet
  facet normal 0 0 1
    outer loop
      vertex 3.93997 -12.126 1.8
      vertex 0.540779 -1.66435 1.8
      vertex 2.38911 -12.5242 1.8
    endloop
  endfacet
  facet normal -0 0 1
    outer loop
      vertex 0.327917 -1.719 1.8
      vertex 2.38911 -12.5242 1.8
      vertex 0.540779 -1.66435 1.8
    endloop
  endfacet
  facet normal 0 0 1
    outer loop
      vertex 2.38911 -12.5242 1.8
      vertex 0.327917 -1.719 1.8
      vertex 0.800579 -12.7248 1.8
    endloop
  endfacet
  facet normal -0 0 1
    outer loop
      vertex 0.109883 -1.74655 1.8
      vertex 0.800579 -12.7248 1.8
      vertex 0.327917 -1.719 1.8
    endloop
  endfacet
  facet normal -0 0 1
    outer loop
      vertex -0.109883 -1.74655 1.8
      vertex 0.800579 -12.7248 1.8
      vertex 0.109883 -1.74655 1.8
    endloop
  endfacet
  facet normal 0 0 1
    outer loop
      vertex -0.800579 -12.7248 1.8
      vertex -0.109883 -1.74655 1.8
      vertex -0.327917 -1.719 1.8
    endloop
  endfacet
  facet normal 0 0 1
    outer loop
      vertex -2.38911 -12.5242 1.8
      vertex -0.327917 -1.719 1.8
      vertex -0.540779 -1.66435 1.8
    endloop
  endfacet
  facet normal 0 0 1
    outer loop
      vertex -3.93997 -12.126 1.8
      vertex -0.540779 -1.66435 1.8
      vertex -0.745113 -1.58345 1.8
    endloop
  endfacet
  facet normal 0 0 1
    outer loop
      vertex -0.109883 -1.74655 1.8
      vertex -0.800579 -12.7248 1.8
      vertex 0.800579 -12.7248 1.8
    endloop
  endfacet
  facet normal 0 0 1
    outer loop
      vertex -5.42869 -11.5365 1.8
      vertex -0.745113 -1.58345 1.8
      vertex -0.937696 -1.47757 1.8
    endloop
  endfacet
  facet normal 0 0 1
    outer loop
      vertex -6.83179 -10.7652 1.8
      vertex -0.937696 -1.47757 1.8
      vertex -1.11549 -1.3484 1.8
    endloop
  endfacet
  facet normal 0 0 1
    outer loop
      vertex -8.12716 -9.82404 1.8
      vertex -1.11549 -1.3484 1.8
      vertex -1.27569 -1.19796 1.8
    endloop
  endfacet
  facet normal 0 0 1
    outer loop
      vertex -9.29435 -8.72797 1.8
      vertex -1.27569 -1.19796 1.8
      vertex -1.41578 -1.02862 1.8
    endloop
  endfacet
  facet normal 0 0 1
    outer loop
      vertex -10.315 -7.49426 1.8
      vertex -1.41578 -1.02862 1.8
      vertex -1.53354 -0.843068 1.8
    endloop
  endfacet
  facet normal 0 0 1
    outer loop
      vertex -11.1729 -6.14236 1.8
      vertex -1.53354 -0.843068 1.8
      vertex -1.62711 -0.644217 1.8
    endloop
  endfacet
  facet normal 0 0 1
    outer loop
      vertex -11.8546 -4.69359 1.8
      vertex -1.62711 -0.644217 1.8
      vertex -1.69502 -0.435206 1.8
    endloop
  endfacet
  facet normal 0 0 1
    outer loop
      vertex -12.3494 -3.1708 1.8
      vertex -1.69502 -0.435206 1.8
      vertex -1.7362 -0.219333 1.8
    endloop
  endfacet
  facet normal 0 0 1
    outer loop
      vertex -0.327917 -1.719 1.8
      vertex -2.38911 -12.5242 1.8
      vertex -0.800579 -12.7248 1.8
    endloop
  endfacet
  facet normal 0 0 1
    outer loop
      vertex -12.6495 -1.598 1.8
      vertex -1.7362 -0.219333 1.8
      vertex -1.75 0 1.8
    endloop
  endfacet
  facet normal -0 0 1
    outer loop
      vertex -10.315 7.49426 1.8
      vertex -1.41578 1.02862 1.8
      vertex -9.29435 8.72797 1.8
    endloop
  endfacet
  facet normal 0 0 1
    outer loop
      vertex -1.41578 1.02862 1.8
      vertex -10.315 7.49426 1.8
      vertex -1.53354 0.843068 1.8
    endloop
  endfacet
  facet normal 0 0 1
    outer loop
      vertex -0.540779 -1.66435 1.8
      vertex -3.93997 -12.126 1.8
      vertex -2.38911 -12.5242 1.8
    endloop
  endfacet
  facet normal -0 0 1
    outer loop
      vertex -11.1729 6.14236 1.8
      vertex -1.53354 0.843068 1.8
      vertex -10.315 7.49426 1.8
    endloop
  endfacet
  facet normal 0 0 1
    outer loop
      vertex -0.745113 -1.58345 1.8
      vertex -5.42869 -11.5365 1.8
      vertex -3.93997 -12.126 1.8
    endloop
  endfacet
  facet normal 0 0 1
    outer loop
      vertex -1.53354 0.843068 1.8
      vertex -11.1729 6.14236 1.8
      vertex -1.62711 0.644217 1.8
    endloop
  endfacet
  facet normal 0 0 1
    outer loop
      vertex -0.937696 -1.47757 1.8
      vertex -6.83179 -10.7652 1.8
      vertex -5.42869 -11.5365 1.8
    endloop
  endfacet
  facet normal -0 0 1
    outer loop
      vertex -11.8546 4.69359 1.8
      vertex -1.62711 0.644217 1.8
      vertex -11.1729 6.14236 1.8
    endloop
  endfacet
  facet normal 0 0 1
    outer loop
      vertex -1.11549 -1.3484 1.8
      vertex -8.12716 -9.82404 1.8
      vertex -6.83179 -10.7652 1.8
    endloop
  endfacet
  facet normal 0 0 1
    outer loop
      vertex -1.62711 0.644217 1.8
      vertex -11.8546 4.69359 1.8
      vertex -1.69502 0.435206 1.8
    endloop
  endfacet
  facet normal 0 0 1
    outer loop
      vertex -1.27569 -1.19796 1.8
      vertex -9.29435 -8.72797 1.8
      vertex -8.12716 -9.82404 1.8
    endloop
  endfacet
  facet normal -0 0 1
    outer loop
      vertex -12.3494 3.1708 1.8
      vertex -1.69502 0.435206 1.8
      vertex -11.8546 4.69359 1.8
    endloop
  endfacet
  facet normal 0 0 1
    outer loop
      vertex -1.41578 -1.02862 1.8
      vertex -10.315 -7.49426 1.8
      vertex -9.29435 -8.72797 1.8
    endloop
  endfacet
  facet normal 0 0 1
    outer loop
      vertex -1.69502 0.435206 1.8
      vertex -12.3494 3.1708 1.8
      vertex -1.7362 0.219333 1.8
    endloop
  endfacet
  facet normal 0 0 1
    outer loop
      vertex -1.53354 -0.843068 1.8
      vertex -11.1729 -6.14236 1.8
      vertex -10.315 -7.49426 1.8
    endloop
  endfacet
  facet normal -0 0 1
    outer loop
      vertex -12.6495 1.598 1.8
      vertex -1.7362 0.219333 1.8
      vertex -12.3494 3.1708 1.8
    endloop
  endfacet
  facet normal 0 0 1
    outer loop
      vertex -1.62711 -0.644217 1.8
      vertex -11.8546 -4.69359 1.8
      vertex -11.1729 -6.14236 1.8
    endloop
  endfacet
  facet normal 0 0 1
    outer loop
      vertex -1.7362 0.219333 1.8
      vertex -12.6495 1.598 1.8
      vertex -1.75 0 1.8
    endloop
  endfacet
  facet normal 0 0 1
    outer loop
      vertex -1.69502 -0.435206 1.8
      vertex -12.3494 -3.1708 1.8
      vertex -11.8546 -4.69359 1.8
    endloop
  endfacet
  facet normal 0 0 1
    outer loop
      vertex -12.75 0 1.8
      vertex -1.75 0 1.8
      vertex -12.6495 1.598 1.8
    endloop
  endfacet
  facet normal 0 0 1
    outer loop
      vertex -1.7362 -0.219333 1.8
      vertex -12.6495 -1.598 1.8
      vertex -12.3494 -3.1708 1.8
    endloop
  endfacet
  facet normal 0 0 1
    outer loop
      vertex -1.75 0 1.8
      vertex -12.75 0 1.8
      vertex -12.6495 -1.598 1.8
    endloop
  endfacet
  facet normal -0.982287 -0.187381 0
    outer loop
      vertex 1.7362 0.219333 0
      vertex 1.69502 0.435206 1.8
      vertex 1.69502 0.435206 0
    endloop
  endfacet
  facet normal -0.982287 -0.187381 0
    outer loop
      vertex 1.69502 0.435206 1.8
      vertex 1.7362 0.219333 0
      vertex 1.7362 0.219333 1.8
    endloop
  endfacet
  facet normal -0.998027 -0.0627939 0
    outer loop
      vertex 1.75 0 0
      vertex 1.7362 0.219333 1.8
      vertex 1.7362 0.219333 0
    endloop
  endfacet
  facet normal -0.998027 -0.0627939 0
    outer loop
      vertex 1.7362 0.219333 1.8
      vertex 1.75 0 0
      vertex 1.75 0 1.8
    endloop
  endfacet
  facet normal -0.951059 -0.30901 0
    outer loop
      vertex 1.69502 0.435206 0
      vertex 1.62711 0.644217 1.8
      vertex 1.62711 0.644217 0
    endloop
  endfacet
  facet normal -0.951059 -0.30901 0
    outer loop
      vertex 1.62711 0.644217 1.8
      vertex 1.69502 0.435206 0
      vertex 1.69502 0.435206 1.8
    endloop
  endfacet
  facet normal -0.904831 0.425771 0
    outer loop
      vertex 1.53354 -0.843068 0
      vertex 1.62711 -0.644217 1.8
      vertex 1.62711 -0.644217 0
    endloop
  endfacet
  facet normal -0.904831 0.425771 0
    outer loop
      vertex 1.62711 -0.644217 1.8
      vertex 1.53354 -0.843068 0
      vertex 1.53354 -0.843068 1.8
    endloop
  endfacet
  facet normal -0.368118 -0.929779 0
    outer loop
      vertex 0.540779 1.66435 0
      vertex 0.745113 1.58345 1.8
      vertex 0.540779 1.66435 1.8
    endloop
  endfacet
  facet normal -0.368118 -0.929779 -0
    outer loop
      vertex 0.745113 1.58345 1.8
      vertex 0.540779 1.66435 0
      vertex 0.745113 1.58345 0
    endloop
  endfacet
  facet normal -0.998027 0.0627939 0
    outer loop
      vertex 1.7362 -0.219333 0
      vertex 1.75 0 1.8
      vertex 1.75 0 0
    endloop
  endfacet
  facet normal -0.998027 0.0627939 0
    outer loop
      vertex 1.75 0 1.8
      vertex 1.7362 -0.219333 0
      vertex 1.7362 -0.219333 1.8
    endloop
  endfacet
  facet normal 0.998027 0.0627939 0
    outer loop
      vertex -1.7362 -0.219333 1.8
      vertex -1.75 0 0
      vertex -1.75 0 1.8
    endloop
  endfacet
  facet normal 0.998027 0.0627939 0
    outer loop
      vertex -1.75 0 0
      vertex -1.7362 -0.219333 1.8
      vertex -1.7362 -0.219333 0
    endloop
  endfacet
  facet normal 0.951059 0.30901 0
    outer loop
      vertex -1.62711 -0.644217 1.8
      vertex -1.69502 -0.435206 0
      vertex -1.69502 -0.435206 1.8
    endloop
  endfacet
  facet normal 0.951059 0.30901 0
    outer loop
      vertex -1.69502 -0.435206 0
      vertex -1.62711 -0.644217 1.8
      vertex -1.62711 -0.644217 0
    endloop
  endfacet
  facet normal -0.904831 -0.425771 0
    outer loop
      vertex 1.62711 0.644217 0
      vertex 1.53354 0.843068 1.8
      vertex 1.53354 0.843068 0
    endloop
  endfacet
  facet normal -0.904831 -0.425771 0
    outer loop
      vertex 1.53354 0.843068 1.8
      vertex 1.62711 0.644217 0
      vertex 1.62711 0.644217 1.8
    endloop
  endfacet
  facet normal 0 -1 0
    outer loop
      vertex -0.109883 1.74655 0
      vertex 0.109883 1.74655 1.8
      vertex -0.109883 1.74655 1.8
    endloop
  endfacet
  facet normal 0 -1 -0
    outer loop
      vertex 0.109883 1.74655 1.8
      vertex -0.109883 1.74655 0
      vertex 0.109883 1.74655 0
    endloop
  endfacet
  facet normal 0.248674 0.968587 -0
    outer loop
      vertex -0.327917 -1.719 0
      vertex -0.540779 -1.66435 1.8
      vertex -0.327917 -1.719 1.8
    endloop
  endfacet
  facet normal 0.248674 0.968587 0
    outer loop
      vertex -0.540779 -1.66435 1.8
      vertex -0.327917 -1.719 0
      vertex -0.540779 -1.66435 0
    endloop
  endfacet
  facet normal -0.368118 0.929779 0
    outer loop
      vertex 0.745113 -1.58345 0
      vertex 0.540779 -1.66435 1.8
      vertex 0.745113 -1.58345 1.8
    endloop
  endfacet
  facet normal -0.368118 0.929779 0
    outer loop
      vertex 0.540779 -1.66435 1.8
      vertex 0.745113 -1.58345 0
      vertex 0.540779 -1.66435 0
    endloop
  endfacet
  facet normal 0.904831 0.425771 0
    outer loop
      vertex -1.53354 -0.843068 1.8
      vertex -1.62711 -0.644217 0
      vertex -1.62711 -0.644217 1.8
    endloop
  endfacet
  facet normal 0.904831 0.425771 0
    outer loop
      vertex -1.62711 -0.644217 0
      vertex -1.53354 -0.843068 1.8
      vertex -1.53354 -0.843068 0
    endloop
  endfacet
  facet normal 0.248674 -0.968587 0
    outer loop
      vertex -0.540779 1.66435 0
      vertex -0.327917 1.719 1.8
      vertex -0.540779 1.66435 1.8
    endloop
  endfacet
  facet normal 0.248674 -0.968587 0
    outer loop
      vertex -0.327917 1.719 1.8
      vertex -0.540779 1.66435 0
      vertex -0.327917 1.719 0
    endloop
  endfacet
  facet normal 0.684552 0.728964 -0
    outer loop
      vertex -1.11549 -1.3484 0
      vertex -1.27569 -1.19796 1.8
      vertex -1.11549 -1.3484 1.8
    endloop
  endfacet
  facet normal 0.684552 0.728964 0
    outer loop
      vertex -1.27569 -1.19796 1.8
      vertex -1.11549 -1.3484 0
      vertex -1.27569 -1.19796 0
    endloop
  endfacet
  facet normal 0.770514 -0.637423 0
    outer loop
      vertex -1.41578 1.02862 1.8
      vertex -1.27569 1.19796 0
      vertex -1.27569 1.19796 1.8
    endloop
  endfacet
  facet normal 0.770514 -0.637423 0
    outer loop
      vertex -1.27569 1.19796 0
      vertex -1.41578 1.02862 1.8
      vertex -1.41578 1.02862 0
    endloop
  endfacet
  facet normal 0.12536 0.992111 -0
    outer loop
      vertex -0.109883 -1.74655 0
      vertex -0.327917 -1.719 1.8
      vertex -0.109883 -1.74655 1.8
    endloop
  endfacet
  facet normal 0.12536 0.992111 0
    outer loop
      vertex -0.327917 -1.719 1.8
      vertex -0.109883 -1.74655 0
      vertex -0.327917 -1.719 0
    endloop
  endfacet
  facet normal 0.368118 -0.929779 0
    outer loop
      vertex -0.745113 1.58345 0
      vertex -0.540779 1.66435 1.8
      vertex -0.745113 1.58345 1.8
    endloop
  endfacet
  facet normal 0.368118 -0.929779 0
    outer loop
      vertex -0.540779 1.66435 1.8
      vertex -0.745113 1.58345 0
      vertex -0.540779 1.66435 0
    endloop
  endfacet
  facet normal -0.248674 -0.968587 0
    outer loop
      vertex 0.327917 1.719 0
      vertex 0.540779 1.66435 1.8
      vertex 0.327917 1.719 1.8
    endloop
  endfacet
  facet normal -0.248674 -0.968587 -0
    outer loop
      vertex 0.540779 1.66435 1.8
      vertex 0.327917 1.719 0
      vertex 0.540779 1.66435 0
    endloop
  endfacet
  facet normal -0.844317 -0.535843 0
    outer loop
      vertex 1.53354 0.843068 0
      vertex 1.41578 1.02862 1.8
      vertex 1.41578 1.02862 0
    endloop
  endfacet
  facet normal -0.844317 -0.535843 0
    outer loop
      vertex 1.41578 1.02862 1.8
      vertex 1.53354 0.843068 0
      vertex 1.53354 0.843068 1.8
    endloop
  endfacet
  facet normal -0.587771 -0.809028 0
    outer loop
      vertex 0.937696 1.47757 0
      vertex 1.11549 1.3484 1.8
      vertex 0.937696 1.47757 1.8
    endloop
  endfacet
  facet normal -0.587771 -0.809028 -0
    outer loop
      vertex 1.11549 1.3484 1.8
      vertex 0.937696 1.47757 0
      vertex 1.11549 1.3484 0
    endloop
  endfacet
  facet normal -0.12536 0.992111 0
    outer loop
      vertex 0.327917 -1.719 0
      vertex 0.109883 -1.74655 1.8
      vertex 0.327917 -1.719 1.8
    endloop
  endfacet
  facet normal -0.12536 0.992111 0
    outer loop
      vertex 0.109883 -1.74655 1.8
      vertex 0.327917 -1.719 0
      vertex 0.109883 -1.74655 0
    endloop
  endfacet
  facet normal -0.844317 0.535843 0
    outer loop
      vertex 1.41578 -1.02862 0
      vertex 1.53354 -0.843068 1.8
      vertex 1.53354 -0.843068 0
    endloop
  endfacet
  facet normal -0.844317 0.535843 0
    outer loop
      vertex 1.53354 -0.843068 1.8
      vertex 1.41578 -1.02862 0
      vertex 1.41578 -1.02862 1.8
    endloop
  endfacet
  facet normal -0.770514 0.637423 0
    outer loop
      vertex 1.27569 -1.19796 0
      vertex 1.41578 -1.02862 1.8
      vertex 1.41578 -1.02862 0
    endloop
  endfacet
  facet normal -0.770514 0.637423 0
    outer loop
      vertex 1.41578 -1.02862 1.8
      vertex 1.27569 -1.19796 0
      vertex 1.27569 -1.19796 1.8
    endloop
  endfacet
  facet normal 0.951059 -0.30901 0
    outer loop
      vertex -1.69502 0.435206 1.8
      vertex -1.62711 0.644217 0
      vertex -1.62711 0.644217 1.8
    endloop
  endfacet
  facet normal 0.951059 -0.30901 0
    outer loop
      vertex -1.62711 0.644217 0
      vertex -1.69502 0.435206 1.8
      vertex -1.69502 0.435206 0
    endloop
  endfacet
  facet normal -0.684552 -0.728964 0
    outer loop
      vertex 1.11549 1.3484 0
      vertex 1.27569 1.19796 1.8
      vertex 1.11549 1.3484 1.8
    endloop
  endfacet
  facet normal -0.684552 -0.728964 -0
    outer loop
      vertex 1.27569 1.19796 1.8
      vertex 1.11549 1.3484 0
      vertex 1.27569 1.19796 0
    endloop
  endfacet
  facet normal 0 1 -0
    outer loop
      vertex 0.109883 -1.74655 0
      vertex -0.109883 -1.74655 1.8
      vertex 0.109883 -1.74655 1.8
    endloop
  endfacet
  facet normal 0 1 0
    outer loop
      vertex -0.109883 -1.74655 1.8
      vertex 0.109883 -1.74655 0
      vertex -0.109883 -1.74655 0
    endloop
  endfacet
  facet normal -0.248674 0.968587 0
    outer loop
      vertex 0.540779 -1.66435 0
      vertex 0.327917 -1.719 1.8
      vertex 0.540779 -1.66435 1.8
    endloop
  endfacet
  facet normal -0.248674 0.968587 0
    outer loop
      vertex 0.327917 -1.719 1.8
      vertex 0.540779 -1.66435 0
      vertex 0.327917 -1.719 0
    endloop
  endfacet
  facet normal -0.481777 0.876294 0
    outer loop
      vertex 0.937696 -1.47757 0
      vertex 0.745113 -1.58345 1.8
      vertex 0.937696 -1.47757 1.8
    endloop
  endfacet
  facet normal -0.481777 0.876294 0
    outer loop
      vertex 0.745113 -1.58345 1.8
      vertex 0.937696 -1.47757 0
      vertex 0.745113 -1.58345 0
    endloop
  endfacet
  facet normal 0.844317 0.535843 0
    outer loop
      vertex -1.41578 -1.02862 1.8
      vertex -1.53354 -0.843068 0
      vertex -1.53354 -0.843068 1.8
    endloop
  endfacet
  facet normal 0.844317 0.535843 0
    outer loop
      vertex -1.53354 -0.843068 0
      vertex -1.41578 -1.02862 1.8
      vertex -1.41578 -1.02862 0
    endloop
  endfacet
  facet normal 0.481777 -0.876294 0
    outer loop
      vertex -0.937696 1.47757 0
      vertex -0.745113 1.58345 1.8
      vertex -0.937696 1.47757 1.8
    endloop
  endfacet
  facet normal 0.481777 -0.876294 0
    outer loop
      vertex -0.745113 1.58345 1.8
      vertex -0.937696 1.47757 0
      vertex -0.745113 1.58345 0
    endloop
  endfacet
  facet normal -0.481777 -0.876294 0
    outer loop
      vertex 0.745113 1.58345 0
      vertex 0.937696 1.47757 1.8
      vertex 0.745113 1.58345 1.8
    endloop
  endfacet
  facet normal -0.481777 -0.876294 -0
    outer loop
      vertex 0.937696 1.47757 1.8
      vertex 0.745113 1.58345 0
      vertex 0.937696 1.47757 0
    endloop
  endfacet
  facet normal -0.770514 -0.637423 0
    outer loop
      vertex 1.41578 1.02862 0
      vertex 1.27569 1.19796 1.8
      vertex 1.27569 1.19796 0
    endloop
  endfacet
  facet normal -0.770514 -0.637423 0
    outer loop
      vertex 1.27569 1.19796 1.8
      vertex 1.41578 1.02862 0
      vertex 1.41578 1.02862 1.8
    endloop
  endfacet
  facet normal -0.982287 0.187381 0
    outer loop
      vertex 1.69502 -0.435206 0
      vertex 1.7362 -0.219333 1.8
      vertex 1.7362 -0.219333 0
    endloop
  endfacet
  facet normal -0.982287 0.187381 0
    outer loop
      vertex 1.7362 -0.219333 1.8
      vertex 1.69502 -0.435206 0
      vertex 1.69502 -0.435206 1.8
    endloop
  endfacet
  facet normal 0.904831 -0.425771 0
    outer loop
      vertex -1.62711 0.644217 1.8
      vertex -1.53354 0.843068 0
      vertex -1.53354 0.843068 1.8
    endloop
  endfacet
  facet normal 0.904831 -0.425771 0
    outer loop
      vertex -1.53354 0.843068 0
      vertex -1.62711 0.644217 1.8
      vertex -1.62711 0.644217 0
    endloop
  endfacet
  facet normal -0.684552 0.728964 0
    outer loop
      vertex 1.27569 -1.19796 0
      vertex 1.11549 -1.3484 1.8
      vertex 1.27569 -1.19796 1.8
    endloop
  endfacet
  facet normal -0.684552 0.728964 0
    outer loop
      vertex 1.11549 -1.3484 1.8
      vertex 1.27569 -1.19796 0
      vertex 1.11549 -1.3484 0
    endloop
  endfacet
  facet normal 0.844317 -0.535843 0
    outer loop
      vertex -1.53354 0.843068 1.8
      vertex -1.41578 1.02862 0
      vertex -1.41578 1.02862 1.8
    endloop
  endfacet
  facet normal 0.844317 -0.535843 0
    outer loop
      vertex -1.41578 1.02862 0
      vertex -1.53354 0.843068 1.8
      vertex -1.53354 0.843068 0
    endloop
  endfacet
  facet normal 0.770514 0.637423 0
    outer loop
      vertex -1.27569 -1.19796 1.8
      vertex -1.41578 -1.02862 0
      vertex -1.41578 -1.02862 1.8
    endloop
  endfacet
  facet normal 0.770514 0.637423 0
    outer loop
      vertex -1.41578 -1.02862 0
      vertex -1.27569 -1.19796 1.8
      vertex -1.27569 -1.19796 0
    endloop
  endfacet
  facet normal 0.587771 -0.809028 0
    outer loop
      vertex -1.11549 1.3484 0
      vertex -0.937696 1.47757 1.8
      vertex -1.11549 1.3484 1.8
    endloop
  endfacet
  facet normal 0.587771 -0.809028 0
    outer loop
      vertex -0.937696 1.47757 1.8
      vertex -1.11549 1.3484 0
      vertex -0.937696 1.47757 0
    endloop
  endfacet
  facet normal -0.951059 0.30901 0
    outer loop
      vertex 1.62711 -0.644217 0
      vertex 1.69502 -0.435206 1.8
      vertex 1.69502 -0.435206 0
    endloop
  endfacet
  facet normal -0.951059 0.30901 0
    outer loop
      vertex 1.69502 -0.435206 1.8
      vertex 1.62711 -0.644217 0
      vertex 1.62711 -0.644217 1.8
    endloop
  endfacet
  facet normal 0.481777 0.876294 -0
    outer loop
      vertex -0.745113 -1.58345 0
      vertex -0.937696 -1.47757 1.8
      vertex -0.745113 -1.58345 1.8
    endloop
  endfacet
  facet normal 0.481777 0.876294 0
    outer loop
      vertex -0.937696 -1.47757 1.8
      vertex -0.745113 -1.58345 0
      vertex -0.937696 -1.47757 0
    endloop
  endfacet
  facet normal 0.368118 0.929779 -0
    outer loop
      vertex -0.540779 -1.66435 0
      vertex -0.745113 -1.58345 1.8
      vertex -0.540779 -1.66435 1.8
    endloop
  endfacet
  facet normal 0.368118 0.929779 0
    outer loop
      vertex -0.745113 -1.58345 1.8
      vertex -0.540779 -1.66435 0
      vertex -0.745113 -1.58345 0
    endloop
  endfacet
  facet normal 0.982287 -0.187381 0
    outer loop
      vertex -1.7362 0.219333 1.8
      vertex -1.69502 0.435206 0
      vertex -1.69502 0.435206 1.8
    endloop
  endfacet
  facet normal 0.982287 -0.187381 0
    outer loop
      vertex -1.69502 0.435206 0
      vertex -1.7362 0.219333 1.8
      vertex -1.7362 0.219333 0
    endloop
  endfacet
  facet normal 0.684552 -0.728964 0
    outer loop
      vertex -1.27569 1.19796 0
      vertex -1.11549 1.3484 1.8
      vertex -1.27569 1.19796 1.8
    endloop
  endfacet
  facet normal 0.684552 -0.728964 0
    outer loop
      vertex -1.11549 1.3484 1.8
      vertex -1.27569 1.19796 0
      vertex -1.11549 1.3484 0
    endloop
  endfacet
  facet normal 0.982287 0.187381 0
    outer loop
      vertex -1.69502 -0.435206 1.8
      vertex -1.7362 -0.219333 0
      vertex -1.7362 -0.219333 1.8
    endloop
  endfacet
  facet normal 0.982287 0.187381 0
    outer loop
      vertex -1.7362 -0.219333 0
      vertex -1.69502 -0.435206 1.8
      vertex -1.69502 -0.435206 0
    endloop
  endfacet
  facet normal 0.12536 -0.992111 0
    outer loop
      vertex -0.327917 1.719 0
      vertex -0.109883 1.74655 1.8
      vertex -0.327917 1.719 1.8
    endloop
  endfacet
  facet normal 0.12536 -0.992111 0
    outer loop
      vertex -0.109883 1.74655 1.8
      vertex -0.327917 1.719 0
      vertex -0.109883 1.74655 0
    endloop
  endfacet
  facet normal 0.998027 -0.0627939 0
    outer loop
      vertex -1.75 0 1.8
      vertex -1.7362 0.219333 0
      vertex -1.7362 0.219333 1.8
    endloop
  endfacet
  facet normal 0.998027 -0.0627939 0
    outer loop
      vertex -1.7362 0.219333 0
      vertex -1.75 0 1.8
      vertex -1.75 0 0
    endloop
  endfacet
  facet normal 0.587771 0.809028 -0
    outer loop
      vertex -0.937696 -1.47757 0
      vertex -1.11549 -1.3484 1.8
      vertex -0.937696 -1.47757 1.8
    endloop
  endfacet
  facet normal 0.587771 0.809028 0
    outer loop
      vertex -1.11549 -1.3484 1.8
      vertex -0.937696 -1.47757 0
      vertex -1.11549 -1.3484 0
    endloop
  endfacet
  facet normal -0.12536 -0.992111 0
    outer loop
      vertex 0.109883 1.74655 0
      vertex 0.327917 1.719 1.8
      vertex 0.109883 1.74655 1.8
    endloop
  endfacet
  facet normal -0.12536 -0.992111 -0
    outer loop
      vertex 0.327917 1.719 1.8
      vertex 0.109883 1.74655 0
      vertex 0.327917 1.719 0
    endloop
  endfacet
  facet normal -0.587771 0.809028 0
    outer loop
      vertex 1.11549 -1.3484 0
      vertex 0.937696 -1.47757 1.8
      vertex 1.11549 -1.3484 1.8
    endloop
  endfacet
  facet normal -0.587771 0.809028 0
    outer loop
      vertex 0.937696 -1.47757 1.8
      vertex 1.11549 -1.3484 0
      vertex 0.937696 -1.47757 0
    endloop
  endfacet
endsolid OpenSCAD_Model
