solid OpenSCAD_Model
  facet normal -1 0 0
    outer loop
      vertex 0 0 0
      vertex 0 10 8.5
      vertex 0 10 0
    endloop
  endfacet
  facet normal -1 -0 0
    outer loop
      vertex 0 10 8.5
      vertex 0 0 0
      vertex 0 0 8.5
    endloop
  endfacet
  facet normal -0 0 1
    outer loop
      vertex 0 10 8.5
      vertex 5 8.5 8.5
      vertex 5 10 8.5
    endloop
  endfacet
  facet normal 0 0 1
    outer loop
      vertex 5 8.5 8.5
      vertex 0 10 8.5
      vertex 5 1.5 8.5
    endloop
  endfacet
  facet normal 0 0 1
    outer loop
      vertex 0 0 8.5
      vertex 5 1.5 8.5
      vertex 0 10 8.5
    endloop
  endfacet
  facet normal 0 0 1
    outer loop
      vertex 5 1.5 8.5
      vertex 0 0 8.5
      vertex 5 0 8.5
    endloop
  endfacet
  facet normal -0 0 1
    outer loop
      vertex 5 8.5 8.5
      vertex 15 1.5 8.5
      vertex 15 8.5 8.5
    endloop
  endfacet
  facet normal 0 0 1
    outer loop
      vertex 15 1.5 8.5
      vertex 5 8.5 8.5
      vertex 5 1.5 8.5
    endloop
  endfacet
  facet normal 0 0 1
    outer loop
      vertex 15 8.5 8.5
      vertex 20 10 8.5
      vertex 15 10 8.5
    endloop
  endfacet
  facet normal 0 0 1
    outer loop
      vertex 20 10 8.5
      vertex 15 8.5 8.5
      vertex 20 0 8.5
    endloop
  endfacet
  facet normal -0 0 1
    outer loop
      vertex 15 1.5 8.5
      vertex 20 0 8.5
      vertex 15 8.5 8.5
    endloop
  endfacet
  facet normal 0 0 1
    outer loop
      vertex 20 0 8.5
      vertex 15 1.5 8.5
      vertex 15 0 8.5
    endloop
  endfacet
  facet normal 1 0 0
    outer loop
      vertex 5 1.5 8.5
      vertex 5 0 8.5
      vertex 5 1.5 7.99
    endloop
  endfacet
  facet normal 1 0 0
    outer loop
      vertex 5 8.5 7.99
      vertex 5 10 8.5
      vertex 5 8.5 8.5
    endloop
  endfacet
  facet normal 1 0 0
    outer loop
      vertex 5 10 8.5
      vertex 5 8.5 7.99
      vertex 5 10 0
    endloop
  endfacet
  facet normal 1 -0 0
    outer loop
      vertex 5 1.5 7.99
      vertex 5 10 0
      vertex 5 8.5 7.99
    endloop
  endfacet
  facet normal 1 0 0
    outer loop
      vertex 5 0 0
      vertex 5 1.5 7.99
      vertex 5 0 8.5
    endloop
  endfacet
  facet normal 1 0 0
    outer loop
      vertex 5 1.5 7.99
      vertex 5 0 0
      vertex 5 10 0
    endloop
  endfacet
  facet normal 0 0 -1
    outer loop
      vertex 0 0 0
      vertex 5 10 0
      vertex 5 0 0
    endloop
  endfacet
  facet normal -0 0 -1
    outer loop
      vertex 5 10 0
      vertex 0 0 0
      vertex 0 10 0
    endloop
  endfacet
  facet normal 0 -1 0
    outer loop
      vertex 0 0 0
      vertex 5 0 8.5
      vertex 0 0 8.5
    endloop
  endfacet
  facet normal 0 -1 -0
    outer loop
      vertex 5 0 8.5
      vertex 0 0 0
      vertex 5 0 0
    endloop
  endfacet
  facet normal 0 1 -0
    outer loop
      vertex 5 10 0
      vertex 0 10 8.5
      vertex 5 10 8.5
    endloop
  endfacet
  facet normal 0 1 0
    outer loop
      vertex 0 10 8.5
      vertex 5 10 0
      vertex 0 10 0
    endloop
  endfacet
  facet normal -1 0 0
    outer loop
      vertex 15 10 0
      vertex 15 8.5 7.99
      vertex 15 10 8.5
    endloop
  endfacet
  facet normal -1 0 0
    outer loop
      vertex 15 10 0
      vertex 15 1.5 7.99
      vertex 15 8.5 7.99
    endloop
  endfacet
  facet normal -1 0 0
    outer loop
      vertex 15 0 0
      vertex 15 1.5 7.99
      vertex 15 10 0
    endloop
  endfacet
  facet normal -1 0 0
    outer loop
      vertex 15 0 8.5
      vertex 15 1.5 7.99
      vertex 15 0 0
    endloop
  endfacet
  facet normal -1 0 0
    outer loop
      vertex 15 1.5 7.99
      vertex 15 0 8.5
      vertex 15 1.5 8.5
    endloop
  endfacet
  facet normal -1 -0 0
    outer loop
      vertex 15 10 8.5
      vertex 15 8.5 7.99
      vertex 15 8.5 8.5
    endloop
  endfacet
  facet normal 1 -0 0
    outer loop
      vertex 20 0 8.5
      vertex 20 10 0
      vertex 20 10 8.5
    endloop
  endfacet
  facet normal 1 0 0
    outer loop
      vertex 20 10 0
      vertex 20 0 8.5
      vertex 20 0 0
    endloop
  endfacet
  facet normal 0 0 -1
    outer loop
      vertex 15 0 0
      vertex 20 10 0
      vertex 20 0 0
    endloop
  endfacet
  facet normal -0 0 -1
    outer loop
      vertex 20 10 0
      vertex 15 0 0
      vertex 15 10 0
    endloop
  endfacet
  facet normal 0 -1 0
    outer loop
      vertex 15 0 0
      vertex 20 0 8.5
      vertex 15 0 8.5
    endloop
  endfacet
  facet normal 0 -1 -0
    outer loop
      vertex 20 0 8.5
      vertex 15 0 0
      vertex 20 0 0
    endloop
  endfacet
  facet normal 0 1 -0
    outer loop
      vertex 20 10 0
      vertex 15 10 8.5
      vertex 20 10 8.5
    endloop
  endfacet
  facet normal 0 1 0
    outer loop
      vertex 15 10 8.5
      vertex 20 10 0
      vertex 15 10 0
    endloop
  endfacet
  facet normal 0 0 -1
    outer loop
      vertex 5 1.5 7.99
      vertex 15 8.5 7.99
      vertex 15 1.5 7.99
    endloop
  endfacet
  facet normal -0 0 -1
    outer loop
      vertex 15 8.5 7.99
      vertex 5 1.5 7.99
      vertex 5 8.5 7.99
    endloop
  endfacet
  facet normal 0 -1 0
    outer loop
      vertex 5 1.5 7.99
      vertex 15 1.5 8.5
      vertex 5 1.5 8.5
    endloop
  endfacet
  facet normal 0 -1 -0
    outer loop
      vertex 15 1.5 8.5
      vertex 5 1.5 7.99
      vertex 15 1.5 7.99
    endloop
  endfacet
  facet normal 0 1 -0
    outer loop
      vertex 15 8.5 7.99
      vertex 5 8.5 8.5
      vertex 15 8.5 8.5
    endloop
  endfacet
  facet normal 0 1 0
    outer loop
      vertex 5 8.5 8.5
      vertex 15 8.5 7.99
      vertex 5 8.5 7.99
    endloop
  endfacet
endsolid OpenSCAD_Model
