solid OpenSCAD_Model
  facet normal 0.866025 0.5 0
    outer loop
      vertex 4.11095 1.83031 4
      vertex 3.64058 2.64503 0
      vertex 3.64058 2.64503 4
    endloop
  endfacet
  facet normal 0.866025 0.5 0
    outer loop
      vertex 3.64058 2.64503 0
      vertex 4.11095 1.83031 4
      vertex 4.11095 1.83031 0
    endloop
  endfacet
  facet normal 0.951057 0.309017 0
    outer loop
      vertex 4.40166 0.935602 4
      vertex 4.11095 1.83031 0
      vertex 4.11095 1.83031 4
    endloop
  endfacet
  facet normal 0.951057 0.309017 0
    outer loop
      vertex 4.11095 1.83031 0
      vertex 4.40166 0.935602 4
      vertex 4.40166 0.935602 0
    endloop
  endfacet
  facet normal 0.207912 0.978147 -0
    outer loop
      vertex 1.39058 4.27975 0
      vertex 0.470378 4.47535 4
      vertex 1.39058 4.27975 4
    endloop
  endfacet
  facet normal 0.207912 0.978147 0
    outer loop
      vertex 0.470378 4.47535 4
      vertex 1.39058 4.27975 0
      vertex 0.470378 4.47535 0
    endloop
  endfacet
  facet normal 0.406736 0.913546 -0
    outer loop
      vertex 2.25 3.89711 0
      vertex 1.39058 4.27975 4
      vertex 2.25 3.89711 4
    endloop
  endfacet
  facet normal 0.406736 0.913546 0
    outer loop
      vertex 1.39058 4.27975 4
      vertex 2.25 3.89711 0
      vertex 1.39058 4.27975 0
    endloop
  endfacet
  facet normal -0.207912 0.978147 0
    outer loop
      vertex -0.470378 4.47535 0
      vertex -1.39058 4.27975 4
      vertex -0.470378 4.47535 4
    endloop
  endfacet
  facet normal -0.207912 0.978147 0
    outer loop
      vertex -1.39058 4.27975 4
      vertex -0.470378 4.47535 0
      vertex -1.39058 4.27975 0
    endloop
  endfacet
  facet normal -0.866025 0.5 0
    outer loop
      vertex -4.11095 1.83031 0
      vertex -3.64058 2.64503 4
      vertex -3.64058 2.64503 0
    endloop
  endfacet
  facet normal -0.866025 0.5 0
    outer loop
      vertex -3.64058 2.64503 4
      vertex -4.11095 1.83031 0
      vertex -4.11095 1.83031 4
    endloop
  endfacet
  facet normal 0.994522 -0.104529 0
    outer loop
      vertex 4.40166 -0.935602 4
      vertex 4.5 0 0
      vertex 4.5 0 4
    endloop
  endfacet
  facet normal 0.994522 -0.104529 0
    outer loop
      vertex 4.5 0 0
      vertex 4.40166 -0.935602 4
      vertex 4.40166 -0.935602 0
    endloop
  endfacet
  facet normal 0.207912 -0.978147 0
    outer loop
      vertex 0.470378 -4.47535 0
      vertex 1.39058 -4.27975 4
      vertex 0.470378 -4.47535 4
    endloop
  endfacet
  facet normal 0.207912 -0.978147 0
    outer loop
      vertex 1.39058 -4.27975 4
      vertex 0.470378 -4.47535 0
      vertex 1.39058 -4.27975 0
    endloop
  endfacet
  facet normal 0.743145 0.66913 0
    outer loop
      vertex 3.64058 2.64503 4
      vertex 3.01109 3.34415 0
      vertex 3.01109 3.34415 4
    endloop
  endfacet
  facet normal 0.743145 0.66913 0
    outer loop
      vertex 3.01109 3.34415 0
      vertex 3.64058 2.64503 4
      vertex 3.64058 2.64503 0
    endloop
  endfacet
  facet normal 0 1 -0
    outer loop
      vertex 0.470378 4.47535 0
      vertex -0.470378 4.47535 4
      vertex 0.470378 4.47535 4
    endloop
  endfacet
  facet normal 0 1 0
    outer loop
      vertex -0.470378 4.47535 4
      vertex 0.470378 4.47535 0
      vertex -0.470378 4.47535 0
    endloop
  endfacet
  facet normal 0.587785 0.809017 -0
    outer loop
      vertex 3.01109 3.34415 0
      vertex 2.25 3.89711 4
      vertex 3.01109 3.34415 4
    endloop
  endfacet
  facet normal 0.587785 0.809017 0
    outer loop
      vertex 2.25 3.89711 4
      vertex 3.01109 3.34415 0
      vertex 2.25 3.89711 0
    endloop
  endfacet
  facet normal -0.994522 0.104529 0
    outer loop
      vertex -4.5 0 0
      vertex -4.40166 0.935602 4
      vertex -4.40166 0.935602 0
    endloop
  endfacet
  facet normal -0.994522 0.104529 0
    outer loop
      vertex -4.40166 0.935602 4
      vertex -4.5 0 0
      vertex -4.5 0 4
    endloop
  endfacet
  facet normal -0.743145 0.66913 0
    outer loop
      vertex -3.64058 2.64503 0
      vertex -3.01109 3.34415 4
      vertex -3.01109 3.34415 0
    endloop
  endfacet
  facet normal -0.743145 0.66913 0
    outer loop
      vertex -3.01109 3.34415 4
      vertex -3.64058 2.64503 0
      vertex -3.64058 2.64503 4
    endloop
  endfacet
  facet normal -0.406737 0.913545 0
    outer loop
      vertex -1.39058 4.27975 0
      vertex -2.25 3.89711 4
      vertex -1.39058 4.27975 4
    endloop
  endfacet
  facet normal -0.406737 0.913545 0
    outer loop
      vertex -2.25 3.89711 4
      vertex -1.39058 4.27975 0
      vertex -2.25 3.89711 0
    endloop
  endfacet
  facet normal -0.587785 0.809017 0
    outer loop
      vertex -2.25 3.89711 0
      vertex -3.01109 3.34415 4
      vertex -2.25 3.89711 4
    endloop
  endfacet
  facet normal -0.587785 0.809017 0
    outer loop
      vertex -3.01109 3.34415 4
      vertex -2.25 3.89711 0
      vertex -3.01109 3.34415 0
    endloop
  endfacet
  facet normal 0.994522 0.104529 0
    outer loop
      vertex 4.5 0 4
      vertex 4.40166 0.935602 0
      vertex 4.40166 0.935602 4
    endloop
  endfacet
  facet normal 0.994522 0.104529 0
    outer loop
      vertex 4.40166 0.935602 0
      vertex 4.5 0 4
      vertex 4.5 0 0
    endloop
  endfacet
  facet normal -0.587785 -0.809017 0
    outer loop
      vertex -3.01109 -3.34415 0
      vertex -2.25 -3.89711 4
      vertex -3.01109 -3.34415 4
    endloop
  endfacet
  facet normal -0.587785 -0.809017 -0
    outer loop
      vertex -2.25 -3.89711 4
      vertex -3.01109 -3.34415 0
      vertex -2.25 -3.89711 0
    endloop
  endfacet
  facet normal -0.866025 -0.5 0
    outer loop
      vertex -3.64058 -2.64503 0
      vertex -4.11095 -1.83031 4
      vertex -4.11095 -1.83031 0
    endloop
  endfacet
  facet normal -0.866025 -0.5 0
    outer loop
      vertex -4.11095 -1.83031 4
      vertex -3.64058 -2.64503 0
      vertex -3.64058 -2.64503 4
    endloop
  endfacet
  facet normal 0.587785 -0.809017 0
    outer loop
      vertex 2.25 -3.89711 0
      vertex 3.01109 -3.34415 4
      vertex 2.25 -3.89711 4
    endloop
  endfacet
  facet normal 0.587785 -0.809017 0
    outer loop
      vertex 3.01109 -3.34415 4
      vertex 2.25 -3.89711 0
      vertex 3.01109 -3.34415 0
    endloop
  endfacet
  facet normal 0 0 1
    outer loop
      vertex 3.6 0 4
      vertex 4.5 0 4
      vertex 4.40166 0.935602 4
    endloop
  endfacet
  facet normal 0 0 1
    outer loop
      vertex 3.52133 0.748482 4
      vertex 4.40166 0.935602 4
      vertex 4.11095 1.83031 4
    endloop
  endfacet
  facet normal 0 0 1
    outer loop
      vertex 4.5 0 4
      vertex 3.6 0 4
      vertex 4.40166 -0.935602 4
    endloop
  endfacet
  facet normal 0 0 1
    outer loop
      vertex 3.28876 1.46425 4
      vertex 4.11095 1.83031 4
      vertex 3.64058 2.64503 4
    endloop
  endfacet
  facet normal -0 0 1
    outer loop
      vertex 3.52133 -0.748482 4
      vertex 4.40166 -0.935602 4
      vertex 3.6 0 4
    endloop
  endfacet
  facet normal 0 0 1
    outer loop
      vertex 4.40166 -0.935602 4
      vertex 3.52133 -0.748482 4
      vertex 4.11095 -1.83031 4
    endloop
  endfacet
  facet normal 0 0 1
    outer loop
      vertex 4.40166 0.935602 4
      vertex 3.52133 0.748482 4
      vertex 3.6 0 4
    endloop
  endfacet
  facet normal 0 0 1
    outer loop
      vertex 4.11095 1.83031 4
      vertex 3.28876 1.46425 4
      vertex 3.52133 0.748482 4
    endloop
  endfacet
  facet normal 0 0 1
    outer loop
      vertex 2.91246 2.11603 4
      vertex 3.64058 2.64503 4
      vertex 3.01109 3.34415 4
    endloop
  endfacet
  facet normal 0 0 1
    outer loop
      vertex 3.64058 2.64503 4
      vertex 2.91246 2.11603 4
      vertex 3.28876 1.46425 4
    endloop
  endfacet
  facet normal 0 0 1
    outer loop
      vertex 3.01109 3.34415 4
      vertex 2.40887 2.67532 4
      vertex 2.91246 2.11603 4
    endloop
  endfacet
  facet normal 0 0 1
    outer loop
      vertex 2.25 3.89711 4
      vertex 2.40887 2.67532 4
      vertex 3.01109 3.34415 4
    endloop
  endfacet
  facet normal 0 0 1
    outer loop
      vertex 2.25 3.89711 4
      vertex 1.8 3.11769 4
      vertex 2.40887 2.67532 4
    endloop
  endfacet
  facet normal 0 0 1
    outer loop
      vertex 1.39058 4.27975 4
      vertex 1.8 3.11769 4
      vertex 2.25 3.89711 4
    endloop
  endfacet
  facet normal 0 0 1
    outer loop
      vertex 1.39058 4.27975 4
      vertex 1.11246 3.4238 4
      vertex 1.8 3.11769 4
    endloop
  endfacet
  facet normal 0 0 1
    outer loop
      vertex 0.470378 4.47535 4
      vertex 1.11246 3.4238 4
      vertex 1.39058 4.27975 4
    endloop
  endfacet
  facet normal 0 0 1
    outer loop
      vertex 0.470378 4.47535 4
      vertex 0.376302 3.58028 4
      vertex 1.11246 3.4238 4
    endloop
  endfacet
  facet normal 0 0 1
    outer loop
      vertex 0.470378 4.47535 4
      vertex -0.376302 3.58028 4
      vertex 0.376302 3.58028 4
    endloop
  endfacet
  facet normal -0 0 1
    outer loop
      vertex -0.470378 4.47535 4
      vertex -0.376302 3.58028 4
      vertex 0.470378 4.47535 4
    endloop
  endfacet
  facet normal 0 0 1
    outer loop
      vertex -0.470378 4.47535 4
      vertex -1.11246 3.4238 4
      vertex -0.376302 3.58028 4
    endloop
  endfacet
  facet normal -0 0 1
    outer loop
      vertex -1.39058 4.27975 4
      vertex -1.11246 3.4238 4
      vertex -0.470378 4.47535 4
    endloop
  endfacet
  facet normal 0 0 1
    outer loop
      vertex -1.39058 4.27975 4
      vertex -1.8 3.11769 4
      vertex -1.11246 3.4238 4
    endloop
  endfacet
  facet normal -0 0 1
    outer loop
      vertex -2.25 3.89711 4
      vertex -1.8 3.11769 4
      vertex -1.39058 4.27975 4
    endloop
  endfacet
  facet normal 0 0 1
    outer loop
      vertex -2.25 3.89711 4
      vertex -2.40887 2.67532 4
      vertex -1.8 3.11769 4
    endloop
  endfacet
  facet normal -0 0 1
    outer loop
      vertex -3.01109 3.34415 4
      vertex -2.40887 2.67532 4
      vertex -2.25 3.89711 4
    endloop
  endfacet
  facet normal 0 0 1
    outer loop
      vertex -2.40887 2.67532 4
      vertex -3.01109 3.34415 4
      vertex -2.91246 2.11603 4
    endloop
  endfacet
  facet normal -0 0 1
    outer loop
      vertex -3.64058 2.64503 4
      vertex -2.91246 2.11603 4
      vertex -3.01109 3.34415 4
    endloop
  endfacet
  facet normal 0 0 1
    outer loop
      vertex -2.91246 2.11603 4
      vertex -3.64058 2.64503 4
      vertex -3.28876 1.46425 4
    endloop
  endfacet
  facet normal 0 0 1
    outer loop
      vertex -3.28876 1.46425 4
      vertex -4.11095 1.83031 4
      vertex -3.52133 0.748482 4
    endloop
  endfacet
  facet normal -0 0 1
    outer loop
      vertex -4.11095 1.83031 4
      vertex -3.28876 1.46425 4
      vertex -3.64058 2.64503 4
    endloop
  endfacet
  facet normal -0 0 1
    outer loop
      vertex 3.28876 -1.46425 4
      vertex 4.11095 -1.83031 4
      vertex 3.52133 -0.748482 4
    endloop
  endfacet
  facet normal 0 0 1
    outer loop
      vertex 4.11095 -1.83031 4
      vertex 3.28876 -1.46425 4
      vertex 3.64058 -2.64503 4
    endloop
  endfacet
  facet normal -0 0 1
    outer loop
      vertex 2.91246 -2.11603 4
      vertex 3.64058 -2.64503 4
      vertex 3.28876 -1.46425 4
    endloop
  endfacet
  facet normal 0 0 1
    outer loop
      vertex 3.64058 -2.64503 4
      vertex 2.91246 -2.11603 4
      vertex 3.01109 -3.34415 4
    endloop
  endfacet
  facet normal -0 0 1
    outer loop
      vertex 2.40887 -2.67532 4
      vertex 3.01109 -3.34415 4
      vertex 2.91246 -2.11603 4
    endloop
  endfacet
  facet normal 0 0 1
    outer loop
      vertex 2.40887 -2.67532 4
      vertex 2.25 -3.89711 4
      vertex 3.01109 -3.34415 4
    endloop
  endfacet
  facet normal -0 0 1
    outer loop
      vertex 1.8 -3.11769 4
      vertex 2.25 -3.89711 4
      vertex 2.40887 -2.67532 4
    endloop
  endfacet
  facet normal 0 0 1
    outer loop
      vertex 1.8 -3.11769 4
      vertex 1.39058 -4.27975 4
      vertex 2.25 -3.89711 4
    endloop
  endfacet
  facet normal -0 0 1
    outer loop
      vertex 1.11246 -3.4238 4
      vertex 1.39058 -4.27975 4
      vertex 1.8 -3.11769 4
    endloop
  endfacet
  facet normal 0 0 1
    outer loop
      vertex 1.11246 -3.4238 4
      vertex 0.470378 -4.47535 4
      vertex 1.39058 -4.27975 4
    endloop
  endfacet
  facet normal -0 0 1
    outer loop
      vertex 0.376302 -3.58028 4
      vertex 0.470378 -4.47535 4
      vertex 1.11246 -3.4238 4
    endloop
  endfacet
  facet normal -0 0 1
    outer loop
      vertex -0.376302 -3.58028 4
      vertex 0.470378 -4.47535 4
      vertex 0.376302 -3.58028 4
    endloop
  endfacet
  facet normal 0 0 1
    outer loop
      vertex -0.376302 -3.58028 4
      vertex -0.470378 -4.47535 4
      vertex 0.470378 -4.47535 4
    endloop
  endfacet
  facet normal 0 0 1
    outer loop
      vertex -1.11246 -3.4238 4
      vertex -0.470378 -4.47535 4
      vertex -0.376302 -3.58028 4
    endloop
  endfacet
  facet normal 0 0 1
    outer loop
      vertex -1.11246 -3.4238 4
      vertex -1.39058 -4.27975 4
      vertex -0.470378 -4.47535 4
    endloop
  endfacet
  facet normal 0 0 1
    outer loop
      vertex -1.8 -3.11769 4
      vertex -1.39058 -4.27975 4
      vertex -1.11246 -3.4238 4
    endloop
  endfacet
  facet normal 0 0 1
    outer loop
      vertex -1.8 -3.11769 4
      vertex -2.25 -3.89711 4
      vertex -1.39058 -4.27975 4
    endloop
  endfacet
  facet normal 0 0 1
    outer loop
      vertex -2.40887 -2.67532 4
      vertex -2.25 -3.89711 4
      vertex -1.8 -3.11769 4
    endloop
  endfacet
  facet normal 0 0 1
    outer loop
      vertex -3.01109 -3.34415 4
      vertex -2.40887 -2.67532 4
      vertex -2.91246 -2.11603 4
    endloop
  endfacet
  facet normal 0 0 1
    outer loop
      vertex -2.40887 -2.67532 4
      vertex -3.01109 -3.34415 4
      vertex -2.25 -3.89711 4
    endloop
  endfacet
  facet normal 0 0 1
    outer loop
      vertex -3.64058 -2.64503 4
      vertex -2.91246 -2.11603 4
      vertex -3.28876 -1.46425 4
    endloop
  endfacet
  facet normal 0 0 1
    outer loop
      vertex -4.11095 -1.83031 4
      vertex -3.28876 -1.46425 4
      vertex -3.52133 -0.748482 4
    endloop
  endfacet
  facet normal 0 0 1
    outer loop
      vertex -2.91246 -2.11603 4
      vertex -3.64058 -2.64503 4
      vertex -3.01109 -3.34415 4
    endloop
  endfacet
  facet normal 0 0 1
    outer loop
      vertex -4.40166 -0.935602 4
      vertex -3.52133 -0.748482 4
      vertex -3.6 0 4
    endloop
  endfacet
  facet normal -0 0 1
    outer loop
      vertex -4.40166 0.935602 4
      vertex -3.52133 0.748482 4
      vertex -4.11095 1.83031 4
    endloop
  endfacet
  facet normal 0 0 1
    outer loop
      vertex -3.52133 0.748482 4
      vertex -4.40166 0.935602 4
      vertex -3.6 0 4
    endloop
  endfacet
  facet normal 0 0 1
    outer loop
      vertex -3.28876 -1.46425 4
      vertex -4.11095 -1.83031 4
      vertex -3.64058 -2.64503 4
    endloop
  endfacet
  facet normal 0 0 1
    outer loop
      vertex -4.5 0 4
      vertex -3.6 0 4
      vertex -4.40166 0.935602 4
    endloop
  endfacet
  facet normal 0 0 1
    outer loop
      vertex -3.52133 -0.748482 4
      vertex -4.40166 -0.935602 4
      vertex -4.11095 -1.83031 4
    endloop
  endfacet
  facet normal 0 0 1
    outer loop
      vertex -3.6 0 4
      vertex -4.5 0 4
      vertex -4.40166 -0.935602 4
    endloop
  endfacet
  facet normal -0.951057 0.309017 0
    outer loop
      vertex -4.40166 0.935602 0
      vertex -4.11095 1.83031 4
      vertex -4.11095 1.83031 0
    endloop
  endfacet
  facet normal -0.951057 0.309017 0
    outer loop
      vertex -4.11095 1.83031 4
      vertex -4.40166 0.935602 0
      vertex -4.40166 0.935602 4
    endloop
  endfacet
  facet normal 0.866025 -0.5 0
    outer loop
      vertex 3.64058 -2.64503 4
      vertex 4.11095 -1.83031 0
      vertex 4.11095 -1.83031 4
    endloop
  endfacet
  facet normal 0.866025 -0.5 0
    outer loop
      vertex 4.11095 -1.83031 0
      vertex 3.64058 -2.64503 4
      vertex 3.64058 -2.64503 0
    endloop
  endfacet
  facet normal -0.994522 -0.104529 0
    outer loop
      vertex -4.40166 -0.935602 0
      vertex -4.5 0 4
      vertex -4.5 0 0
    endloop
  endfacet
  facet normal -0.994522 -0.104529 0
    outer loop
      vertex -4.5 0 4
      vertex -4.40166 -0.935602 0
      vertex -4.40166 -0.935602 4
    endloop
  endfacet
  facet normal -0.743145 -0.66913 0
    outer loop
      vertex -3.01109 -3.34415 0
      vertex -3.64058 -2.64503 4
      vertex -3.64058 -2.64503 0
    endloop
  endfacet
  facet normal -0.743145 -0.66913 0
    outer loop
      vertex -3.64058 -2.64503 4
      vertex -3.01109 -3.34415 0
      vertex -3.01109 -3.34415 4
    endloop
  endfacet
  facet normal 0.406736 -0.913546 0
    outer loop
      vertex 1.39058 -4.27975 0
      vertex 2.25 -3.89711 4
      vertex 1.39058 -4.27975 4
    endloop
  endfacet
  facet normal 0.406736 -0.913546 0
    outer loop
      vertex 2.25 -3.89711 4
      vertex 1.39058 -4.27975 0
      vertex 2.25 -3.89711 0
    endloop
  endfacet
  facet normal 0.951057 -0.309017 0
    outer loop
      vertex 4.11095 -1.83031 4
      vertex 4.40166 -0.935602 0
      vertex 4.40166 -0.935602 4
    endloop
  endfacet
  facet normal 0.951057 -0.309017 0
    outer loop
      vertex 4.40166 -0.935602 0
      vertex 4.11095 -1.83031 4
      vertex 4.11095 -1.83031 0
    endloop
  endfacet
  facet normal -0.406736 -0.913546 0
    outer loop
      vertex -2.25 -3.89711 0
      vertex -1.39058 -4.27975 4
      vertex -2.25 -3.89711 4
    endloop
  endfacet
  facet normal -0.406736 -0.913546 -0
    outer loop
      vertex -1.39058 -4.27975 4
      vertex -2.25 -3.89711 0
      vertex -1.39058 -4.27975 0
    endloop
  endfacet
  facet normal 0 -1 0
    outer loop
      vertex -0.470378 -4.47535 0
      vertex 0.470378 -4.47535 4
      vertex -0.470378 -4.47535 4
    endloop
  endfacet
  facet normal 0 -1 -0
    outer loop
      vertex 0.470378 -4.47535 4
      vertex -0.470378 -4.47535 0
      vertex 0.470378 -4.47535 0
    endloop
  endfacet
  facet normal 0 0 -1
    outer loop
      vertex 1.6 0 0
      vertex 4.5 0 0
      vertex 4.40166 -0.935602 0
    endloop
  endfacet
  facet normal 0 0 -1
    outer loop
      vertex 1.56504 -0.332658 0
      vertex 4.40166 -0.935602 0
      vertex 4.11095 -1.83031 0
    endloop
  endfacet
  facet normal 0 0 -1
    outer loop
      vertex 4.5 0 0
      vertex 1.6 0 0
      vertex 4.40166 0.935602 0
    endloop
  endfacet
  facet normal 0 0 -1
    outer loop
      vertex 1.46167 -0.650778 0
      vertex 4.11095 -1.83031 0
      vertex 3.64058 -2.64503 0
    endloop
  endfacet
  facet normal 0 0 -1
    outer loop
      vertex 1.56504 0.332658 0
      vertex 4.40166 0.935602 0
      vertex 1.6 0 0
    endloop
  endfacet
  facet normal 0 0 -1
    outer loop
      vertex 1.29443 -0.940456 0
      vertex 3.64058 -2.64503 0
      vertex 3.01109 -3.34415 0
    endloop
  endfacet
  facet normal -0 0 -1
    outer loop
      vertex 4.40166 0.935602 0
      vertex 1.56504 0.332658 0
      vertex 4.11095 1.83031 0
    endloop
  endfacet
  facet normal 0 0 -1
    outer loop
      vertex 1.07061 -1.18903 0
      vertex 3.01109 -3.34415 0
      vertex 2.25 -3.89711 0
    endloop
  endfacet
  facet normal 0 0 -1
    outer loop
      vertex 1.46167 0.650778 0
      vertex 4.11095 1.83031 0
      vertex 1.56504 0.332658 0
    endloop
  endfacet
  facet normal -0 0 -1
    outer loop
      vertex 4.11095 1.83031 0
      vertex 1.46167 0.650778 0
      vertex 3.64058 2.64503 0
    endloop
  endfacet
  facet normal 0 0 -1
    outer loop
      vertex 4.40166 -0.935602 0
      vertex 1.56504 -0.332658 0
      vertex 1.6 0 0
    endloop
  endfacet
  facet normal 0 0 -1
    outer loop
      vertex 4.11095 -1.83031 0
      vertex 1.46167 -0.650778 0
      vertex 1.56504 -0.332658 0
    endloop
  endfacet
  facet normal 0 0 -1
    outer loop
      vertex 0.799999 -1.38564 0
      vertex 2.25 -3.89711 0
      vertex 1.39058 -4.27975 0
    endloop
  endfacet
  facet normal 0 0 -1
    outer loop
      vertex 3.64058 -2.64503 0
      vertex 1.29443 -0.940456 0
      vertex 1.46167 -0.650778 0
    endloop
  endfacet
  facet normal 0 0 -1
    outer loop
      vertex 3.01109 -3.34415 0
      vertex 1.07061 -1.18903 0
      vertex 1.29443 -0.940456 0
    endloop
  endfacet
  facet normal 0 0 -1
    outer loop
      vertex 2.25 -3.89711 0
      vertex 0.799999 -1.38564 0
      vertex 1.07061 -1.18903 0
    endloop
  endfacet
  facet normal 0 0 -1
    outer loop
      vertex 1.39058 -4.27975 0
      vertex 0.494427 -1.52169 0
      vertex 0.799999 -1.38564 0
    endloop
  endfacet
  facet normal 0 0 -1
    outer loop
      vertex 0.470378 -4.47535 0
      vertex 0.494427 -1.52169 0
      vertex 1.39058 -4.27975 0
    endloop
  endfacet
  facet normal 0 0 -1
    outer loop
      vertex 0.470378 -4.47535 0
      vertex 0.167245 -1.59123 0
      vertex 0.494427 -1.52169 0
    endloop
  endfacet
  facet normal 0 0 -1
    outer loop
      vertex 0.470378 -4.47535 0
      vertex -0.167245 -1.59123 0
      vertex 0.167245 -1.59123 0
    endloop
  endfacet
  facet normal 0 0 -1
    outer loop
      vertex -0.470378 -4.47535 0
      vertex -0.167245 -1.59123 0
      vertex 0.470378 -4.47535 0
    endloop
  endfacet
  facet normal 0 0 -1
    outer loop
      vertex -0.470378 -4.47535 0
      vertex -0.494427 -1.52169 0
      vertex -0.167245 -1.59123 0
    endloop
  endfacet
  facet normal 0 0 -1
    outer loop
      vertex -1.39058 -4.27975 0
      vertex -0.494427 -1.52169 0
      vertex -0.470378 -4.47535 0
    endloop
  endfacet
  facet normal -0 0 -1
    outer loop
      vertex -0.494427 -1.52169 0
      vertex -1.39058 -4.27975 0
      vertex -0.799999 -1.38564 0
    endloop
  endfacet
  facet normal 0 0 -1
    outer loop
      vertex -2.25 -3.89711 0
      vertex -0.799999 -1.38564 0
      vertex -1.39058 -4.27975 0
    endloop
  endfacet
  facet normal -0 0 -1
    outer loop
      vertex -0.799999 -1.38564 0
      vertex -2.25 -3.89711 0
      vertex -1.07061 -1.18903 0
    endloop
  endfacet
  facet normal 0 0 -1
    outer loop
      vertex -3.01109 -3.34415 0
      vertex -1.07061 -1.18903 0
      vertex -2.25 -3.89711 0
    endloop
  endfacet
  facet normal -0 0 -1
    outer loop
      vertex -1.07061 -1.18903 0
      vertex -3.01109 -3.34415 0
      vertex -1.29443 -0.940456 0
    endloop
  endfacet
  facet normal 0 0 -1
    outer loop
      vertex -3.64058 -2.64503 0
      vertex -1.29443 -0.940456 0
      vertex -3.01109 -3.34415 0
    endloop
  endfacet
  facet normal -0 0 -1
    outer loop
      vertex -1.29443 -0.940456 0
      vertex -3.64058 -2.64503 0
      vertex -1.46167 -0.650778 0
    endloop
  endfacet
  facet normal 0 0 -1
    outer loop
      vertex -4.11095 -1.83031 0
      vertex -1.46167 -0.650778 0
      vertex -3.64058 -2.64503 0
    endloop
  endfacet
  facet normal -0 0 -1
    outer loop
      vertex -1.46167 -0.650778 0
      vertex -4.11095 -1.83031 0
      vertex -1.56504 -0.332658 0
    endloop
  endfacet
  facet normal 0 0 -1
    outer loop
      vertex -1.6 0 0
      vertex -3.01109 3.34415 0
      vertex -2.25 3.89711 0
    endloop
  endfacet
  facet normal 0 0 -1
    outer loop
      vertex -4.40166 -0.935602 0
      vertex -1.56504 -0.332658 0
      vertex -4.11095 -1.83031 0
    endloop
  endfacet
  facet normal 0 0 -1
    outer loop
      vertex -1.6 0 0
      vertex -3.64058 2.64503 0
      vertex -3.01109 3.34415 0
    endloop
  endfacet
  facet normal -0 0 -1
    outer loop
      vertex -1.56504 -0.332658 0
      vertex -4.40166 -0.935602 0
      vertex -1.6 0 0
    endloop
  endfacet
  facet normal 0 0 -1
    outer loop
      vertex -1.6 0 0
      vertex -4.11095 1.83031 0
      vertex -3.64058 2.64503 0
    endloop
  endfacet
  facet normal 0 0 -1
    outer loop
      vertex -4.5 0 0
      vertex -1.6 0 0
      vertex -4.40166 -0.935602 0
    endloop
  endfacet
  facet normal 0 0 -1
    outer loop
      vertex -1.6 0 0
      vertex -4.40166 0.935602 0
      vertex -4.11095 1.83031 0
    endloop
  endfacet
  facet normal 0 0 -1
    outer loop
      vertex -1.6 0 0
      vertex -4.5 0 0
      vertex -4.40166 0.935602 0
    endloop
  endfacet
  facet normal 0 0 -1
    outer loop
      vertex 1.29443 0.940456 0
      vertex 3.64058 2.64503 0
      vertex 1.46167 0.650778 0
    endloop
  endfacet
  facet normal -0 0 -1
    outer loop
      vertex 3.64058 2.64503 0
      vertex 1.29443 0.940456 0
      vertex 3.01109 3.34415 0
    endloop
  endfacet
  facet normal 0 0 -1
    outer loop
      vertex 1.07061 1.18903 0
      vertex 3.01109 3.34415 0
      vertex 1.29443 0.940456 0
    endloop
  endfacet
  facet normal -0 0 -1
    outer loop
      vertex 3.01109 3.34415 0
      vertex 1.07061 1.18903 0
      vertex 2.25 3.89711 0
    endloop
  endfacet
  facet normal 0 0 -1
    outer loop
      vertex 0.799999 1.38564 0
      vertex 2.25 3.89711 0
      vertex 1.07061 1.18903 0
    endloop
  endfacet
  facet normal -0 0 -1
    outer loop
      vertex 2.25 3.89711 0
      vertex 0.799999 1.38564 0
      vertex 1.39058 4.27975 0
    endloop
  endfacet
  facet normal 0 0 -1
    outer loop
      vertex 0.494427 1.52169 0
      vertex 1.39058 4.27975 0
      vertex 0.799999 1.38564 0
    endloop
  endfacet
  facet normal 0 0 -1
    outer loop
      vertex 0.494427 1.52169 0
      vertex 0.470378 4.47535 0
      vertex 1.39058 4.27975 0
    endloop
  endfacet
  facet normal 0 0 -1
    outer loop
      vertex 0.167245 1.59123 0
      vertex 0.470378 4.47535 0
      vertex 0.494427 1.52169 0
    endloop
  endfacet
  facet normal 0 0 -1
    outer loop
      vertex -0.167245 1.59123 0
      vertex 0.470378 4.47535 0
      vertex 0.167245 1.59123 0
    endloop
  endfacet
  facet normal 0 0 -1
    outer loop
      vertex -0.167245 1.59123 0
      vertex -0.470378 4.47535 0
      vertex 0.470378 4.47535 0
    endloop
  endfacet
  facet normal 0 0 -1
    outer loop
      vertex -0.494427 1.52169 0
      vertex -0.470378 4.47535 0
      vertex -0.167245 1.59123 0
    endloop
  endfacet
  facet normal 0 0 -1
    outer loop
      vertex -1.39058 4.27975 0
      vertex -0.494427 1.52169 0
      vertex -0.799999 1.38564 0
    endloop
  endfacet
  facet normal 0 0 -1
    outer loop
      vertex -2.25 3.89711 0
      vertex -0.799999 1.38564 0
      vertex -1.07061 1.18903 0
    endloop
  endfacet
  facet normal 0 0 -1
    outer loop
      vertex -2.25 3.89711 0
      vertex -1.07061 1.18903 0
      vertex -1.29443 0.940456 0
    endloop
  endfacet
  facet normal 0 0 -1
    outer loop
      vertex -0.494427 1.52169 0
      vertex -1.39058 4.27975 0
      vertex -0.470378 4.47535 0
    endloop
  endfacet
  facet normal 0 0 -1
    outer loop
      vertex -2.25 3.89711 0
      vertex -1.29443 0.940456 0
      vertex -1.46167 0.650778 0
    endloop
  endfacet
  facet normal 0 0 -1
    outer loop
      vertex -2.25 3.89711 0
      vertex -1.46167 0.650778 0
      vertex -1.56504 0.332658 0
    endloop
  endfacet
  facet normal 0 0 -1
    outer loop
      vertex -2.25 3.89711 0
      vertex -1.56504 0.332658 0
      vertex -1.6 0 0
    endloop
  endfacet
  facet normal 0 0 -1
    outer loop
      vertex -0.799999 1.38564 0
      vertex -2.25 3.89711 0
      vertex -1.39058 4.27975 0
    endloop
  endfacet
  facet normal -0.951057 -0.309017 0
    outer loop
      vertex -4.11095 -1.83031 0
      vertex -4.40166 -0.935602 4
      vertex -4.40166 -0.935602 0
    endloop
  endfacet
  facet normal -0.951057 -0.309017 0
    outer loop
      vertex -4.40166 -0.935602 4
      vertex -4.11095 -1.83031 0
      vertex -4.11095 -1.83031 4
    endloop
  endfacet
  facet normal 0.743145 -0.66913 0
    outer loop
      vertex 3.01109 -3.34415 4
      vertex 3.64058 -2.64503 0
      vertex 3.64058 -2.64503 4
    endloop
  endfacet
  facet normal 0.743145 -0.66913 0
    outer loop
      vertex 3.64058 -2.64503 0
      vertex 3.01109 -3.34415 4
      vertex 3.01109 -3.34415 0
    endloop
  endfacet
  facet normal -0.207912 -0.978147 0
    outer loop
      vertex -1.39058 -4.27975 0
      vertex -0.470378 -4.47535 4
      vertex -1.39058 -4.27975 4
    endloop
  endfacet
  facet normal -0.207912 -0.978147 -0
    outer loop
      vertex -0.470378 -4.47535 4
      vertex -1.39058 -4.27975 0
      vertex -0.470378 -4.47535 0
    endloop
  endfacet
  facet normal -0.994522 -0.104528 0
    outer loop
      vertex 3.6 0 0.849999
      vertex 3.52133 0.748482 4
      vertex 3.52133 0.748482 0.849999
    endloop
  endfacet
  facet normal -0.994522 -0.104528 0
    outer loop
      vertex 3.52133 0.748482 4
      vertex 3.6 0 0.849999
      vertex 3.6 0 4
    endloop
  endfacet
  facet normal 0.994522 -0.104528 0
    outer loop
      vertex -3.6 0 4
      vertex -3.52133 0.748482 0.849999
      vertex -3.52133 0.748482 4
    endloop
  endfacet
  facet normal 0.994522 -0.104528 0
    outer loop
      vertex -3.52133 0.748482 0.849999
      vertex -3.6 0 4
      vertex -3.6 0 0.849999
    endloop
  endfacet
  facet normal 0 -1 0
    outer loop
      vertex -0.376302 3.58028 0.849999
      vertex 0.376302 3.58028 4
      vertex -0.376302 3.58028 4
    endloop
  endfacet
  facet normal 0 -1 -0
    outer loop
      vertex 0.376302 3.58028 4
      vertex -0.376302 3.58028 0.849999
      vertex 0.376302 3.58028 0.849999
    endloop
  endfacet
  facet normal 0 1 -0
    outer loop
      vertex 0.376302 -3.58028 0.849999
      vertex -0.376302 -3.58028 4
      vertex 0.376302 -3.58028 4
    endloop
  endfacet
  facet normal 0 1 0
    outer loop
      vertex -0.376302 -3.58028 4
      vertex 0.376302 -3.58028 0.849999
      vertex -0.376302 -3.58028 0.849999
    endloop
  endfacet
  facet normal -0.743145 -0.669131 0
    outer loop
      vertex 2.91246 2.11603 0.849999
      vertex 2.40887 2.67532 4
      vertex 2.40887 2.67532 0.849999
    endloop
  endfacet
  facet normal -0.743145 -0.669131 0
    outer loop
      vertex 2.40887 2.67532 4
      vertex 2.91246 2.11603 0.849999
      vertex 2.91246 2.11603 4
    endloop
  endfacet
  facet normal 0.743145 -0.669131 0
    outer loop
      vertex -2.91246 2.11603 4
      vertex -2.40887 2.67532 0.849999
      vertex -2.40887 2.67532 4
    endloop
  endfacet
  facet normal 0.743145 -0.669131 0
    outer loop
      vertex -2.40887 2.67532 0.849999
      vertex -2.91246 2.11603 4
      vertex -2.91246 2.11603 0.849999
    endloop
  endfacet
  facet normal 0.866025 -0.5 0
    outer loop
      vertex -3.28876 1.46425 4
      vertex -2.91246 2.11603 0.849999
      vertex -2.91246 2.11603 4
    endloop
  endfacet
  facet normal 0.866025 -0.5 0
    outer loop
      vertex -2.91246 2.11603 0.849999
      vertex -3.28876 1.46425 4
      vertex -3.28876 1.46425 0.849999
    endloop
  endfacet
  facet normal 0.406737 -0.913545 0
    outer loop
      vertex -1.8 3.11769 0.849999
      vertex -1.11246 3.4238 4
      vertex -1.8 3.11769 4
    endloop
  endfacet
  facet normal 0.406737 -0.913545 0
    outer loop
      vertex -1.11246 3.4238 4
      vertex -1.8 3.11769 0.849999
      vertex -1.11246 3.4238 0.849999
    endloop
  endfacet
  facet normal -0.866025 0.5 0
    outer loop
      vertex 2.91246 -2.11603 0.849999
      vertex 3.28876 -1.46425 4
      vertex 3.28876 -1.46425 0.849999
    endloop
  endfacet
  facet normal -0.866025 0.5 0
    outer loop
      vertex 3.28876 -1.46425 4
      vertex 2.91246 -2.11603 0.849999
      vertex 2.91246 -2.11603 4
    endloop
  endfacet
  facet normal -0.866025 -0.5 0
    outer loop
      vertex 3.28876 1.46425 0.849999
      vertex 2.91246 2.11603 4
      vertex 2.91246 2.11603 0.849999
    endloop
  endfacet
  facet normal -0.866025 -0.5 0
    outer loop
      vertex 2.91246 2.11603 4
      vertex 3.28876 1.46425 0.849999
      vertex 3.28876 1.46425 4
    endloop
  endfacet
  facet normal -0.951056 -0.309017 0
    outer loop
      vertex 3.52133 0.748482 0.849999
      vertex 3.28876 1.46425 4
      vertex 3.28876 1.46425 0.849999
    endloop
  endfacet
  facet normal -0.951056 -0.309017 0
    outer loop
      vertex 3.28876 1.46425 4
      vertex 3.52133 0.748482 0.849999
      vertex 3.52133 0.748482 4
    endloop
  endfacet
  facet normal -0.406737 -0.913545 0
    outer loop
      vertex 1.11246 3.4238 0.849999
      vertex 1.8 3.11769 4
      vertex 1.11246 3.4238 4
    endloop
  endfacet
  facet normal -0.406737 -0.913545 -0
    outer loop
      vertex 1.8 3.11769 4
      vertex 1.11246 3.4238 0.849999
      vertex 1.8 3.11769 0.849999
    endloop
  endfacet
  facet normal -0.207911 -0.978148 0
    outer loop
      vertex 0.376302 3.58028 0.849999
      vertex 1.11246 3.4238 4
      vertex 0.376302 3.58028 4
    endloop
  endfacet
  facet normal -0.207911 -0.978148 -0
    outer loop
      vertex 1.11246 3.4238 4
      vertex 0.376302 3.58028 0.849999
      vertex 1.11246 3.4238 0.849999
    endloop
  endfacet
  facet normal -0.587785 -0.809017 0
    outer loop
      vertex 1.8 3.11769 0.849999
      vertex 2.40887 2.67532 4
      vertex 1.8 3.11769 4
    endloop
  endfacet
  facet normal -0.587785 -0.809017 -0
    outer loop
      vertex 2.40887 2.67532 4
      vertex 1.8 3.11769 0.849999
      vertex 2.40887 2.67532 0.849999
    endloop
  endfacet
  facet normal 0.951056 -0.309017 0
    outer loop
      vertex -3.52133 0.748482 4
      vertex -3.28876 1.46425 0.849999
      vertex -3.28876 1.46425 4
    endloop
  endfacet
  facet normal 0.951056 -0.309017 0
    outer loop
      vertex -3.28876 1.46425 0.849999
      vertex -3.52133 0.748482 4
      vertex -3.52133 0.748482 0.849999
    endloop
  endfacet
  facet normal 0.587785 -0.809017 0
    outer loop
      vertex -2.40887 2.67532 0.849999
      vertex -1.8 3.11769 4
      vertex -2.40887 2.67532 4
    endloop
  endfacet
  facet normal 0.587785 -0.809017 0
    outer loop
      vertex -1.8 3.11769 4
      vertex -2.40887 2.67532 0.849999
      vertex -1.8 3.11769 0.849999
    endloop
  endfacet
  facet normal 0.207911 -0.978148 0
    outer loop
      vertex -1.11246 3.4238 0.849999
      vertex -0.376302 3.58028 4
      vertex -1.11246 3.4238 4
    endloop
  endfacet
  facet normal 0.207911 -0.978148 0
    outer loop
      vertex -0.376302 3.58028 4
      vertex -1.11246 3.4238 0.849999
      vertex -0.376302 3.58028 0.849999
    endloop
  endfacet
  facet normal 0 0 1
    outer loop
      vertex 1.6 0 0.849999
      vertex 3.6 0 0.849999
      vertex 3.52133 0.748482 0.849999
    endloop
  endfacet
  facet normal 0 0 1
    outer loop
      vertex 1.56504 0.332658 0.849999
      vertex 3.52133 0.748482 0.849999
      vertex 3.28876 1.46425 0.849999
    endloop
  endfacet
  facet normal 0 0 1
    outer loop
      vertex 3.6 0 0.849999
      vertex 1.6 0 0.849999
      vertex 3.52133 -0.748482 0.849999
    endloop
  endfacet
  facet normal 0 0 1
    outer loop
      vertex 1.46167 0.650778 0.849999
      vertex 3.28876 1.46425 0.849999
      vertex 2.91246 2.11603 0.849999
    endloop
  endfacet
  facet normal -0 0 1
    outer loop
      vertex 1.56504 -0.332658 0.849999
      vertex 3.52133 -0.748482 0.849999
      vertex 1.6 0 0.849999
    endloop
  endfacet
  facet normal 0 0 1
    outer loop
      vertex 1.29443 0.940456 0.849999
      vertex 2.91246 2.11603 0.849999
      vertex 2.40887 2.67532 0.849999
    endloop
  endfacet
  facet normal 0 0 1
    outer loop
      vertex 3.52133 -0.748482 0.849999
      vertex 1.56504 -0.332658 0.849999
      vertex 3.28876 -1.46425 0.849999
    endloop
  endfacet
  facet normal 0 0 1
    outer loop
      vertex 1.07061 1.18903 0.849999
      vertex 2.40887 2.67532 0.849999
      vertex 1.8 3.11769 0.849999
    endloop
  endfacet
  facet normal -0 0 1
    outer loop
      vertex 1.46167 -0.650778 0.849999
      vertex 3.28876 -1.46425 0.849999
      vertex 1.56504 -0.332658 0.849999
    endloop
  endfacet
  facet normal 0 0 1
    outer loop
      vertex 3.28876 -1.46425 0.849999
      vertex 1.46167 -0.650778 0.849999
      vertex 2.91246 -2.11603 0.849999
    endloop
  endfacet
  facet normal 0 0 1
    outer loop
      vertex 3.52133 0.748482 0.849999
      vertex 1.56504 0.332658 0.849999
      vertex 1.6 0 0.849999
    endloop
  endfacet
  facet normal 0 0 1
    outer loop
      vertex 3.28876 1.46425 0.849999
      vertex 1.46167 0.650778 0.849999
      vertex 1.56504 0.332658 0.849999
    endloop
  endfacet
  facet normal 0 0 1
    outer loop
      vertex 2.91246 2.11603 0.849999
      vertex 1.29443 0.940456 0.849999
      vertex 1.46167 0.650778 0.849999
    endloop
  endfacet
  facet normal 0 0 1
    outer loop
      vertex 0.799999 1.38564 0.849999
      vertex 1.8 3.11769 0.849999
      vertex 1.11246 3.4238 0.849999
    endloop
  endfacet
  facet normal 0 0 1
    outer loop
      vertex 2.40887 2.67532 0.849999
      vertex 1.07061 1.18903 0.849999
      vertex 1.29443 0.940456 0.849999
    endloop
  endfacet
  facet normal 0 0 1
    outer loop
      vertex 1.8 3.11769 0.849999
      vertex 0.799999 1.38564 0.849999
      vertex 1.07061 1.18903 0.849999
    endloop
  endfacet
  facet normal 0 0 1
    outer loop
      vertex 1.11246 3.4238 0.849999
      vertex 0.494427 1.52169 0.849999
      vertex 0.799999 1.38564 0.849999
    endloop
  endfacet
  facet normal 0 0 1
    outer loop
      vertex 0.376302 3.58028 0.849999
      vertex 0.494427 1.52169 0.849999
      vertex 1.11246 3.4238 0.849999
    endloop
  endfacet
  facet normal 0 0 1
    outer loop
      vertex 0.376302 3.58028 0.849999
      vertex 0.167245 1.59123 0.849999
      vertex 0.494427 1.52169 0.849999
    endloop
  endfacet
  facet normal 0 0 1
    outer loop
      vertex 0.376302 3.58028 0.849999
      vertex -0.167245 1.59123 0.849999
      vertex 0.167245 1.59123 0.849999
    endloop
  endfacet
  facet normal -0 0 1
    outer loop
      vertex -0.376302 3.58028 0.849999
      vertex -0.167245 1.59123 0.849999
      vertex 0.376302 3.58028 0.849999
    endloop
  endfacet
  facet normal 0 0 1
    outer loop
      vertex -0.376302 3.58028 0.849999
      vertex -0.494427 1.52169 0.849999
      vertex -0.167245 1.59123 0.849999
    endloop
  endfacet
  facet normal -0 0 1
    outer loop
      vertex -1.11246 3.4238 0.849999
      vertex -0.494427 1.52169 0.849999
      vertex -0.376302 3.58028 0.849999
    endloop
  endfacet
  facet normal 0 0 1
    outer loop
      vertex -0.494427 1.52169 0.849999
      vertex -1.11246 3.4238 0.849999
      vertex -0.799999 1.38564 0.849999
    endloop
  endfacet
  facet normal -0 0 1
    outer loop
      vertex -1.8 3.11769 0.849999
      vertex -0.799999 1.38564 0.849999
      vertex -1.11246 3.4238 0.849999
    endloop
  endfacet
  facet normal 0 0 1
    outer loop
      vertex -0.799999 1.38564 0.849999
      vertex -1.8 3.11769 0.849999
      vertex -1.07061 1.18903 0.849999
    endloop
  endfacet
  facet normal -0 0 1
    outer loop
      vertex -2.40887 2.67532 0.849999
      vertex -1.07061 1.18903 0.849999
      vertex -1.8 3.11769 0.849999
    endloop
  endfacet
  facet normal 0 0 1
    outer loop
      vertex -1.07061 1.18903 0.849999
      vertex -2.40887 2.67532 0.849999
      vertex -1.29443 0.940456 0.849999
    endloop
  endfacet
  facet normal 0 0 1
    outer loop
      vertex -1.29443 0.940456 0.849999
      vertex -2.91246 2.11603 0.849999
      vertex -1.46167 0.650778 0.849999
    endloop
  endfacet
  facet normal -0 0 1
    outer loop
      vertex -2.91246 2.11603 0.849999
      vertex -1.29443 0.940456 0.849999
      vertex -2.40887 2.67532 0.849999
    endloop
  endfacet
  facet normal -0 0 1
    outer loop
      vertex 1.29443 -0.940456 0.849999
      vertex 2.91246 -2.11603 0.849999
      vertex 1.46167 -0.650778 0.849999
    endloop
  endfacet
  facet normal 0 0 1
    outer loop
      vertex 2.91246 -2.11603 0.849999
      vertex 1.29443 -0.940456 0.849999
      vertex 2.40887 -2.67532 0.849999
    endloop
  endfacet
  facet normal -0 0 1
    outer loop
      vertex 1.07061 -1.18903 0.849999
      vertex 2.40887 -2.67532 0.849999
      vertex 1.29443 -0.940456 0.849999
    endloop
  endfacet
  facet normal 0 0 1
    outer loop
      vertex 2.40887 -2.67532 0.849999
      vertex 1.07061 -1.18903 0.849999
      vertex 1.8 -3.11769 0.849999
    endloop
  endfacet
  facet normal -0 0 1
    outer loop
      vertex 0.799999 -1.38564 0.849999
      vertex 1.8 -3.11769 0.849999
      vertex 1.07061 -1.18903 0.849999
    endloop
  endfacet
  facet normal 0 0 1
    outer loop
      vertex 1.8 -3.11769 0.849999
      vertex 0.799999 -1.38564 0.849999
      vertex 1.11246 -3.4238 0.849999
    endloop
  endfacet
  facet normal -0 0 1
    outer loop
      vertex 0.494427 -1.52169 0.849999
      vertex 1.11246 -3.4238 0.849999
      vertex 0.799999 -1.38564 0.849999
    endloop
  endfacet
  facet normal 0 0 1
    outer loop
      vertex 0.494427 -1.52169 0.849999
      vertex 0.376302 -3.58028 0.849999
      vertex 1.11246 -3.4238 0.849999
    endloop
  endfacet
  facet normal -0 0 1
    outer loop
      vertex 0.167245 -1.59123 0.849999
      vertex 0.376302 -3.58028 0.849999
      vertex 0.494427 -1.52169 0.849999
    endloop
  endfacet
  facet normal -0 0 1
    outer loop
      vertex -0.167245 -1.59123 0.849999
      vertex 0.376302 -3.58028 0.849999
      vertex 0.167245 -1.59123 0.849999
    endloop
  endfacet
  facet normal 0 0 1
    outer loop
      vertex -0.167245 -1.59123 0.849999
      vertex -0.376302 -3.58028 0.849999
      vertex 0.376302 -3.58028 0.849999
    endloop
  endfacet
  facet normal 0 0 1
    outer loop
      vertex -0.494427 -1.52169 0.849999
      vertex -0.376302 -3.58028 0.849999
      vertex -0.167245 -1.59123 0.849999
    endloop
  endfacet
  facet normal 0 0 1
    outer loop
      vertex -1.11246 -3.4238 0.849999
      vertex -0.494427 -1.52169 0.849999
      vertex -0.799999 -1.38564 0.849999
    endloop
  endfacet
  facet normal 0 0 1
    outer loop
      vertex -1.8 -3.11769 0.849999
      vertex -0.799999 -1.38564 0.849999
      vertex -1.07061 -1.18903 0.849999
    endloop
  endfacet
  facet normal 0 0 1
    outer loop
      vertex -0.494427 -1.52169 0.849999
      vertex -1.11246 -3.4238 0.849999
      vertex -0.376302 -3.58028 0.849999
    endloop
  endfacet
  facet normal 0 0 1
    outer loop
      vertex -2.40887 -2.67532 0.849999
      vertex -1.07061 -1.18903 0.849999
      vertex -1.29443 -0.940456 0.849999
    endloop
  endfacet
  facet normal 0 0 1
    outer loop
      vertex -2.91246 -2.11603 0.849999
      vertex -1.29443 -0.940456 0.849999
      vertex -1.46167 -0.650778 0.849999
    endloop
  endfacet
  facet normal 0 0 1
    outer loop
      vertex -3.28876 -1.46425 0.849999
      vertex -1.46167 -0.650778 0.849999
      vertex -1.56504 -0.332658 0.849999
    endloop
  endfacet
  facet normal 0 0 1
    outer loop
      vertex -0.799999 -1.38564 0.849999
      vertex -1.8 -3.11769 0.849999
      vertex -1.11246 -3.4238 0.849999
    endloop
  endfacet
  facet normal 0 0 1
    outer loop
      vertex -3.52133 -0.748482 0.849999
      vertex -1.56504 -0.332658 0.849999
      vertex -1.6 0 0.849999
    endloop
  endfacet
  facet normal -0 0 1
    outer loop
      vertex -3.28876 1.46425 0.849999
      vertex -1.46167 0.650778 0.849999
      vertex -2.91246 2.11603 0.849999
    endloop
  endfacet
  facet normal 0 0 1
    outer loop
      vertex -1.46167 0.650778 0.849999
      vertex -3.28876 1.46425 0.849999
      vertex -1.56504 0.332658 0.849999
    endloop
  endfacet
  facet normal 0 0 1
    outer loop
      vertex -1.07061 -1.18903 0.849999
      vertex -2.40887 -2.67532 0.849999
      vertex -1.8 -3.11769 0.849999
    endloop
  endfacet
  facet normal -0 0 1
    outer loop
      vertex -3.52133 0.748482 0.849999
      vertex -1.56504 0.332658 0.849999
      vertex -3.28876 1.46425 0.849999
    endloop
  endfacet
  facet normal 0 0 1
    outer loop
      vertex -1.29443 -0.940456 0.849999
      vertex -2.91246 -2.11603 0.849999
      vertex -2.40887 -2.67532 0.849999
    endloop
  endfacet
  facet normal 0 0 1
    outer loop
      vertex -1.56504 0.332658 0.849999
      vertex -3.52133 0.748482 0.849999
      vertex -1.6 0 0.849999
    endloop
  endfacet
  facet normal 0 0 1
    outer loop
      vertex -1.46167 -0.650778 0.849999
      vertex -3.28876 -1.46425 0.849999
      vertex -2.91246 -2.11603 0.849999
    endloop
  endfacet
  facet normal 0 0 1
    outer loop
      vertex -3.6 0 0.849999
      vertex -1.6 0 0.849999
      vertex -3.52133 0.748482 0.849999
    endloop
  endfacet
  facet normal 0 0 1
    outer loop
      vertex -1.56504 -0.332658 0.849999
      vertex -3.52133 -0.748482 0.849999
      vertex -3.28876 -1.46425 0.849999
    endloop
  endfacet
  facet normal 0 0 1
    outer loop
      vertex -1.6 0 0.849999
      vertex -3.6 0 0.849999
      vertex -3.52133 -0.748482 0.849999
    endloop
  endfacet
  facet normal -0.207911 0.978148 0
    outer loop
      vertex 1.11246 -3.4238 0.849999
      vertex 0.376302 -3.58028 4
      vertex 1.11246 -3.4238 4
    endloop
  endfacet
  facet normal -0.207911 0.978148 0
    outer loop
      vertex 0.376302 -3.58028 4
      vertex 1.11246 -3.4238 0.849999
      vertex 0.376302 -3.58028 0.849999
    endloop
  endfacet
  facet normal -0.951056 0.309017 0
    outer loop
      vertex 3.28876 -1.46425 0.849999
      vertex 3.52133 -0.748482 4
      vertex 3.52133 -0.748482 0.849999
    endloop
  endfacet
  facet normal -0.951056 0.309017 0
    outer loop
      vertex 3.52133 -0.748482 4
      vertex 3.28876 -1.46425 0.849999
      vertex 3.28876 -1.46425 4
    endloop
  endfacet
  facet normal -0.994522 0.104528 0
    outer loop
      vertex 3.52133 -0.748482 0.849999
      vertex 3.6 0 4
      vertex 3.6 0 0.849999
    endloop
  endfacet
  facet normal -0.994522 0.104528 0
    outer loop
      vertex 3.6 0 4
      vertex 3.52133 -0.748482 0.849999
      vertex 3.52133 -0.748482 4
    endloop
  endfacet
  facet normal 0.866025 0.5 0
    outer loop
      vertex -2.91246 -2.11603 4
      vertex -3.28876 -1.46425 0.849999
      vertex -3.28876 -1.46425 4
    endloop
  endfacet
  facet normal 0.866025 0.5 0
    outer loop
      vertex -3.28876 -1.46425 0.849999
      vertex -2.91246 -2.11603 4
      vertex -2.91246 -2.11603 0.849999
    endloop
  endfacet
  facet normal -0.587785 0.809017 0
    outer loop
      vertex 2.40887 -2.67532 0.849999
      vertex 1.8 -3.11769 4
      vertex 2.40887 -2.67532 4
    endloop
  endfacet
  facet normal -0.587785 0.809017 0
    outer loop
      vertex 1.8 -3.11769 4
      vertex 2.40887 -2.67532 0.849999
      vertex 1.8 -3.11769 0.849999
    endloop
  endfacet
  facet normal -0.406737 0.913545 0
    outer loop
      vertex 1.8 -3.11769 0.849999
      vertex 1.11246 -3.4238 4
      vertex 1.8 -3.11769 4
    endloop
  endfacet
  facet normal -0.406737 0.913545 0
    outer loop
      vertex 1.11246 -3.4238 4
      vertex 1.8 -3.11769 0.849999
      vertex 1.11246 -3.4238 0.849999
    endloop
  endfacet
  facet normal 0.743145 0.669131 0
    outer loop
      vertex -2.40887 -2.67532 4
      vertex -2.91246 -2.11603 0.849999
      vertex -2.91246 -2.11603 4
    endloop
  endfacet
  facet normal 0.743145 0.669131 0
    outer loop
      vertex -2.91246 -2.11603 0.849999
      vertex -2.40887 -2.67532 4
      vertex -2.40887 -2.67532 0.849999
    endloop
  endfacet
  facet normal 0.951056 0.309017 0
    outer loop
      vertex -3.28876 -1.46425 4
      vertex -3.52133 -0.748482 0.849999
      vertex -3.52133 -0.748482 4
    endloop
  endfacet
  facet normal 0.951056 0.309017 0
    outer loop
      vertex -3.52133 -0.748482 0.849999
      vertex -3.28876 -1.46425 4
      vertex -3.28876 -1.46425 0.849999
    endloop
  endfacet
  facet normal 0.994522 0.104528 0
    outer loop
      vertex -3.52133 -0.748482 4
      vertex -3.6 0 0.849999
      vertex -3.6 0 4
    endloop
  endfacet
  facet normal 0.994522 0.104528 0
    outer loop
      vertex -3.6 0 0.849999
      vertex -3.52133 -0.748482 4
      vertex -3.52133 -0.748482 0.849999
    endloop
  endfacet
  facet normal -0.743145 0.669131 0
    outer loop
      vertex 2.40887 -2.67532 0.849999
      vertex 2.91246 -2.11603 4
      vertex 2.91246 -2.11603 0.849999
    endloop
  endfacet
  facet normal -0.743145 0.669131 0
    outer loop
      vertex 2.91246 -2.11603 4
      vertex 2.40887 -2.67532 0.849999
      vertex 2.40887 -2.67532 4
    endloop
  endfacet
  facet normal 0.587785 0.809017 -0
    outer loop
      vertex -1.8 -3.11769 0.849999
      vertex -2.40887 -2.67532 4
      vertex -1.8 -3.11769 4
    endloop
  endfacet
  facet normal 0.587785 0.809017 0
    outer loop
      vertex -2.40887 -2.67532 4
      vertex -1.8 -3.11769 0.849999
      vertex -2.40887 -2.67532 0.849999
    endloop
  endfacet
  facet normal 0.406737 0.913545 -0
    outer loop
      vertex -1.11246 -3.4238 0.849999
      vertex -1.8 -3.11769 4
      vertex -1.11246 -3.4238 4
    endloop
  endfacet
  facet normal 0.406737 0.913545 0
    outer loop
      vertex -1.8 -3.11769 4
      vertex -1.11246 -3.4238 0.849999
      vertex -1.8 -3.11769 0.849999
    endloop
  endfacet
  facet normal 0.207911 0.978148 -0
    outer loop
      vertex -0.376302 -3.58028 0.849999
      vertex -1.11246 -3.4238 4
      vertex -0.376302 -3.58028 4
    endloop
  endfacet
  facet normal 0.207911 0.978148 0
    outer loop
      vertex -1.11246 -3.4238 4
      vertex -0.376302 -3.58028 0.849999
      vertex -1.11246 -3.4238 0.849999
    endloop
  endfacet
  facet normal -0.994522 -0.104528 0
    outer loop
      vertex 1.6 0 0
      vertex 1.56504 0.332658 0.849999
      vertex 1.56504 0.332658 0
    endloop
  endfacet
  facet normal -0.994522 -0.104528 0
    outer loop
      vertex 1.56504 0.332658 0.849999
      vertex 1.6 0 0
      vertex 1.6 0 0.849999
    endloop
  endfacet
  facet normal 0.994522 -0.104528 0
    outer loop
      vertex -1.6 0 0.849999
      vertex -1.56504 0.332658 0
      vertex -1.56504 0.332658 0.849999
    endloop
  endfacet
  facet normal 0.994522 -0.104528 0
    outer loop
      vertex -1.56504 0.332658 0
      vertex -1.6 0 0.849999
      vertex -1.6 0 0
    endloop
  endfacet
  facet normal 0 -1 0
    outer loop
      vertex -0.167245 1.59123 0
      vertex 0.167245 1.59123 0.849999
      vertex -0.167245 1.59123 0.849999
    endloop
  endfacet
  facet normal 0 -1 -0
    outer loop
      vertex 0.167245 1.59123 0.849999
      vertex -0.167245 1.59123 0
      vertex 0.167245 1.59123 0
    endloop
  endfacet
  facet normal -0.743144 -0.669132 0
    outer loop
      vertex 1.29443 0.940456 0
      vertex 1.07061 1.18903 0.849999
      vertex 1.07061 1.18903 0
    endloop
  endfacet
  facet normal -0.743144 -0.669132 0
    outer loop
      vertex 1.07061 1.18903 0.849999
      vertex 1.29443 0.940456 0
      vertex 1.29443 0.940456 0.849999
    endloop
  endfacet
  facet normal 0.743144 -0.669132 0
    outer loop
      vertex -1.29443 0.940456 0.849999
      vertex -1.07061 1.18903 0
      vertex -1.07061 1.18903 0.849999
    endloop
  endfacet
  facet normal 0.743144 -0.669132 0
    outer loop
      vertex -1.07061 1.18903 0
      vertex -1.29443 0.940456 0.849999
      vertex -1.29443 0.940456 0
    endloop
  endfacet
  facet normal 0.406738 -0.913545 0
    outer loop
      vertex -0.799999 1.38564 0
      vertex -0.494427 1.52169 0.849999
      vertex -0.799999 1.38564 0.849999
    endloop
  endfacet
  facet normal 0.406738 -0.913545 0
    outer loop
      vertex -0.494427 1.52169 0.849999
      vertex -0.799999 1.38564 0
      vertex -0.494427 1.52169 0
    endloop
  endfacet
  facet normal -0.866027 -0.499998 0
    outer loop
      vertex 1.46167 0.650778 0
      vertex 1.29443 0.940456 0.849999
      vertex 1.29443 0.940456 0
    endloop
  endfacet
  facet normal -0.866027 -0.499998 0
    outer loop
      vertex 1.29443 0.940456 0.849999
      vertex 1.46167 0.650778 0
      vertex 1.46167 0.650778 0.849999
    endloop
  endfacet
  facet normal -0.951056 -0.309018 0
    outer loop
      vertex 1.56504 0.332658 0
      vertex 1.46167 0.650778 0.849999
      vertex 1.46167 0.650778 0
    endloop
  endfacet
  facet normal -0.951056 -0.309018 0
    outer loop
      vertex 1.46167 0.650778 0.849999
      vertex 1.56504 0.332658 0
      vertex 1.56504 0.332658 0.849999
    endloop
  endfacet
  facet normal -0.406738 -0.913545 0
    outer loop
      vertex 0.494427 1.52169 0
      vertex 0.799999 1.38564 0.849999
      vertex 0.494427 1.52169 0.849999
    endloop
  endfacet
  facet normal -0.406738 -0.913545 -0
    outer loop
      vertex 0.799999 1.38564 0.849999
      vertex 0.494427 1.52169 0
      vertex 0.799999 1.38564 0
    endloop
  endfacet
  facet normal -0.207909 -0.978148 0
    outer loop
      vertex 0.167245 1.59123 0
      vertex 0.494427 1.52169 0.849999
      vertex 0.167245 1.59123 0.849999
    endloop
  endfacet
  facet normal -0.207909 -0.978148 -0
    outer loop
      vertex 0.494427 1.52169 0.849999
      vertex 0.167245 1.59123 0
      vertex 0.494427 1.52169 0
    endloop
  endfacet
  facet normal -0.587785 -0.809017 0
    outer loop
      vertex 0.799999 1.38564 0
      vertex 1.07061 1.18903 0.849999
      vertex 0.799999 1.38564 0.849999
    endloop
  endfacet
  facet normal -0.587785 -0.809017 -0
    outer loop
      vertex 1.07061 1.18903 0.849999
      vertex 0.799999 1.38564 0
      vertex 1.07061 1.18903 0
    endloop
  endfacet
  facet normal 0.866027 -0.499998 0
    outer loop
      vertex -1.46167 0.650778 0.849999
      vertex -1.29443 0.940456 0
      vertex -1.29443 0.940456 0.849999
    endloop
  endfacet
  facet normal 0.866027 -0.499998 0
    outer loop
      vertex -1.29443 0.940456 0
      vertex -1.46167 0.650778 0.849999
      vertex -1.46167 0.650778 0
    endloop
  endfacet
  facet normal 0.951056 -0.309018 0
    outer loop
      vertex -1.56504 0.332658 0.849999
      vertex -1.46167 0.650778 0
      vertex -1.46167 0.650778 0.849999
    endloop
  endfacet
  facet normal 0.951056 -0.309018 0
    outer loop
      vertex -1.46167 0.650778 0
      vertex -1.56504 0.332658 0.849999
      vertex -1.56504 0.332658 0
    endloop
  endfacet
  facet normal 0.587785 -0.809017 0
    outer loop
      vertex -1.07061 1.18903 0
      vertex -0.799999 1.38564 0.849999
      vertex -1.07061 1.18903 0.849999
    endloop
  endfacet
  facet normal 0.587785 -0.809017 0
    outer loop
      vertex -0.799999 1.38564 0.849999
      vertex -1.07061 1.18903 0
      vertex -0.799999 1.38564 0
    endloop
  endfacet
  facet normal 0.207909 -0.978148 0
    outer loop
      vertex -0.494427 1.52169 0
      vertex -0.167245 1.59123 0.849999
      vertex -0.494427 1.52169 0.849999
    endloop
  endfacet
  facet normal 0.207909 -0.978148 0
    outer loop
      vertex -0.167245 1.59123 0.849999
      vertex -0.494427 1.52169 0
      vertex -0.167245 1.59123 0
    endloop
  endfacet
  facet normal -0.994522 0.104528 0
    outer loop
      vertex 1.56504 -0.332658 0
      vertex 1.6 0 0.849999
      vertex 1.6 0 0
    endloop
  endfacet
  facet normal -0.994522 0.104528 0
    outer loop
      vertex 1.6 0 0.849999
      vertex 1.56504 -0.332658 0
      vertex 1.56504 -0.332658 0.849999
    endloop
  endfacet
  facet normal 0.207909 0.978148 -0
    outer loop
      vertex -0.167245 -1.59123 0
      vertex -0.494427 -1.52169 0.849999
      vertex -0.167245 -1.59123 0.849999
    endloop
  endfacet
  facet normal 0.207909 0.978148 0
    outer loop
      vertex -0.494427 -1.52169 0.849999
      vertex -0.167245 -1.59123 0
      vertex -0.494427 -1.52169 0
    endloop
  endfacet
  facet normal 0.994522 0.104528 0
    outer loop
      vertex -1.56504 -0.332658 0.849999
      vertex -1.6 0 0
      vertex -1.6 0 0.849999
    endloop
  endfacet
  facet normal 0.994522 0.104528 0
    outer loop
      vertex -1.6 0 0
      vertex -1.56504 -0.332658 0.849999
      vertex -1.56504 -0.332658 0
    endloop
  endfacet
  facet normal -0.207909 0.978148 0
    outer loop
      vertex 0.494427 -1.52169 0
      vertex 0.167245 -1.59123 0.849999
      vertex 0.494427 -1.52169 0.849999
    endloop
  endfacet
  facet normal -0.207909 0.978148 0
    outer loop
      vertex 0.167245 -1.59123 0.849999
      vertex 0.494427 -1.52169 0
      vertex 0.167245 -1.59123 0
    endloop
  endfacet
  facet normal -0.743144 0.669132 0
    outer loop
      vertex 1.07061 -1.18903 0
      vertex 1.29443 -0.940456 0.849999
      vertex 1.29443 -0.940456 0
    endloop
  endfacet
  facet normal -0.743144 0.669132 0
    outer loop
      vertex 1.29443 -0.940456 0.849999
      vertex 1.07061 -1.18903 0
      vertex 1.07061 -1.18903 0.849999
    endloop
  endfacet
  facet normal -0.951056 0.309018 0
    outer loop
      vertex 1.46167 -0.650778 0
      vertex 1.56504 -0.332658 0.849999
      vertex 1.56504 -0.332658 0
    endloop
  endfacet
  facet normal -0.951056 0.309018 0
    outer loop
      vertex 1.56504 -0.332658 0.849999
      vertex 1.46167 -0.650778 0
      vertex 1.46167 -0.650778 0.849999
    endloop
  endfacet
  facet normal -0.866027 0.499998 0
    outer loop
      vertex 1.29443 -0.940456 0
      vertex 1.46167 -0.650778 0.849999
      vertex 1.46167 -0.650778 0
    endloop
  endfacet
  facet normal -0.866027 0.499998 0
    outer loop
      vertex 1.46167 -0.650778 0.849999
      vertex 1.29443 -0.940456 0
      vertex 1.29443 -0.940456 0.849999
    endloop
  endfacet
  facet normal 0.866027 0.499998 0
    outer loop
      vertex -1.29443 -0.940456 0.849999
      vertex -1.46167 -0.650778 0
      vertex -1.46167 -0.650778 0.849999
    endloop
  endfacet
  facet normal 0.866027 0.499998 0
    outer loop
      vertex -1.46167 -0.650778 0
      vertex -1.29443 -0.940456 0.849999
      vertex -1.29443 -0.940456 0
    endloop
  endfacet
  facet normal 0.951056 0.309018 0
    outer loop
      vertex -1.46167 -0.650778 0.849999
      vertex -1.56504 -0.332658 0
      vertex -1.56504 -0.332658 0.849999
    endloop
  endfacet
  facet normal 0.951056 0.309018 0
    outer loop
      vertex -1.56504 -0.332658 0
      vertex -1.46167 -0.650778 0.849999
      vertex -1.46167 -0.650778 0
    endloop
  endfacet
  facet normal -0.587785 0.809017 0
    outer loop
      vertex 1.07061 -1.18903 0
      vertex 0.799999 -1.38564 0.849999
      vertex 1.07061 -1.18903 0.849999
    endloop
  endfacet
  facet normal -0.587785 0.809017 0
    outer loop
      vertex 0.799999 -1.38564 0.849999
      vertex 1.07061 -1.18903 0
      vertex 0.799999 -1.38564 0
    endloop
  endfacet
  facet normal -0.406738 0.913545 0
    outer loop
      vertex 0.799999 -1.38564 0
      vertex 0.494427 -1.52169 0.849999
      vertex 0.799999 -1.38564 0.849999
    endloop
  endfacet
  facet normal -0.406738 0.913545 0
    outer loop
      vertex 0.494427 -1.52169 0.849999
      vertex 0.799999 -1.38564 0
      vertex 0.494427 -1.52169 0
    endloop
  endfacet
  facet normal 0 1 -0
    outer loop
      vertex 0.167245 -1.59123 0
      vertex -0.167245 -1.59123 0.849999
      vertex 0.167245 -1.59123 0.849999
    endloop
  endfacet
  facet normal 0 1 0
    outer loop
      vertex -0.167245 -1.59123 0.849999
      vertex 0.167245 -1.59123 0
      vertex -0.167245 -1.59123 0
    endloop
  endfacet
  facet normal 0.406738 0.913545 -0
    outer loop
      vertex -0.494427 -1.52169 0
      vertex -0.799999 -1.38564 0.849999
      vertex -0.494427 -1.52169 0.849999
    endloop
  endfacet
  facet normal 0.406738 0.913545 0
    outer loop
      vertex -0.799999 -1.38564 0.849999
      vertex -0.494427 -1.52169 0
      vertex -0.799999 -1.38564 0
    endloop
  endfacet
  facet normal 0.743144 0.669132 0
    outer loop
      vertex -1.07061 -1.18903 0.849999
      vertex -1.29443 -0.940456 0
      vertex -1.29443 -0.940456 0.849999
    endloop
  endfacet
  facet normal 0.743144 0.669132 0
    outer loop
      vertex -1.29443 -0.940456 0
      vertex -1.07061 -1.18903 0.849999
      vertex -1.07061 -1.18903 0
    endloop
  endfacet
  facet normal 0.587785 0.809017 -0
    outer loop
      vertex -0.799999 -1.38564 0
      vertex -1.07061 -1.18903 0.849999
      vertex -0.799999 -1.38564 0.849999
    endloop
  endfacet
  facet normal 0.587785 0.809017 0
    outer loop
      vertex -1.07061 -1.18903 0.849999
      vertex -0.799999 -1.38564 0
      vertex -1.07061 -1.18903 0
    endloop
  endfacet
endsolid OpenSCAD_Model
