solid OpenSCAD_Model
  facet normal 0 0 -1
    outer loop
      vertex -3 0 0
      vertex -3 21 0
      vertex -2.42705 -1.76336 0
    endloop
  endfacet
  facet normal 0 0 -1
    outer loop
      vertex -2.42705 -1.76336 0
      vertex -3 21 0
      vertex -2.42705 22.7634 0
    endloop
  endfacet
  facet normal 0 0 -1
    outer loop
      vertex -2.42705 -1.76336 0
      vertex -2.42705 22.7634 0
      vertex -0.927051 23.8532 0
    endloop
  endfacet
  facet normal 0 0 -1
    outer loop
      vertex -2.42705 -1.76336 0
      vertex -0.927051 23.8532 0
      vertex 0.927051 23.8532 0
    endloop
  endfacet
  facet normal 0 0 -1
    outer loop
      vertex -2.42705 -1.76336 0
      vertex 0.927051 23.8532 0
      vertex 2.42705 22.7634 0
    endloop
  endfacet
  facet normal 0 0 -1
    outer loop
      vertex -2.42705 -1.76336 0
      vertex 2.42705 22.7634 0
      vertex 3 21 0
    endloop
  endfacet
  facet normal 0 0 -1
    outer loop
      vertex -2.42705 -1.76336 0
      vertex 3 21 0
      vertex 3 16 0
    endloop
  endfacet
  facet normal 0 0 -1
    outer loop
      vertex 3 6 0
      vertex 3 16 0
      vertex 29 16 0
    endloop
  endfacet
  facet normal 0 0 -1
    outer loop
      vertex 29 16 0
      vertex 29 21 0
      vertex 29.5729 22.7634 0
    endloop
  endfacet
  facet normal 0 0 -1
    outer loop
      vertex 29 16 0
      vertex 29.5729 22.7634 0
      vertex 31.0729 23.8532 0
    endloop
  endfacet
  facet normal 0 0 -1
    outer loop
      vertex 29 16 0
      vertex 31.0729 23.8532 0
      vertex 32.9271 23.8532 0
    endloop
  endfacet
  facet normal 0 0 -1
    outer loop
      vertex 29 16 0
      vertex 32.9271 23.8532 0
      vertex 34.4271 22.7634 0
    endloop
  endfacet
  facet normal 0 0 -1
    outer loop
      vertex 29 16 0
      vertex 34.4271 22.7634 0
      vertex 35 21 0
    endloop
  endfacet
  facet normal 0 0 -1
    outer loop
      vertex 29 16 0
      vertex 35 21 0
      vertex 35 0 0
    endloop
  endfacet
  facet normal 0 0 -1
    outer loop
      vertex 3 6 0
      vertex 29 16 0
      vertex 29 6 0
    endloop
  endfacet
  facet normal 0 0 -1
    outer loop
      vertex 3 0 0
      vertex -2.42705 -1.76336 0
      vertex 3 6 0
    endloop
  endfacet
  facet normal 0 0 -1
    outer loop
      vertex 29.5729 -1.76336 0
      vertex 34.4271 -1.76336 0
      vertex 32.9271 -2.85317 0
    endloop
  endfacet
  facet normal 0 0 -1
    outer loop
      vertex 35 0 0
      vertex 34.4271 -1.76336 0
      vertex 29.5729 -1.76336 0
    endloop
  endfacet
  facet normal 0 0 -1
    outer loop
      vertex 29 0 0
      vertex 35 0 0
      vertex 29.5729 -1.76336 0
    endloop
  endfacet
  facet normal 0 0 -1
    outer loop
      vertex 29 16 0
      vertex 35 0 0
      vertex 29 6 0
    endloop
  endfacet
  facet normal 0 0 -1
    outer loop
      vertex 35 0 0
      vertex 29 0 0
      vertex 29 6 0
    endloop
  endfacet
  facet normal 0 0 -1
    outer loop
      vertex -2.42705 -1.76336 0
      vertex 3 16 0
      vertex 3 6 0
    endloop
  endfacet
  facet normal 0 0 -1
    outer loop
      vertex 2.42705 -1.76336 0
      vertex -2.42705 -1.76336 0
      vertex 3 0 0
    endloop
  endfacet
  facet normal 0 0 -1
    outer loop
      vertex 0.927051 -2.85317 0
      vertex -2.42705 -1.76336 0
      vertex 2.42705 -1.76336 0
    endloop
  endfacet
  facet normal 0 0 -1
    outer loop
      vertex -2.42705 -1.76336 0
      vertex 0.927051 -2.85317 0
      vertex -0.927051 -2.85317 0
    endloop
  endfacet
  facet normal 0 0 -1
    outer loop
      vertex 29.5729 -1.76336 0
      vertex 32.9271 -2.85317 0
      vertex 31.0729 -2.85317 0
    endloop
  endfacet
  facet normal -1 0 0
    outer loop
      vertex -3 0 0
      vertex -3 0 0.3
      vertex -3 21 0
    endloop
  endfacet
  facet normal -1 0 0
    outer loop
      vertex -3 21 0
      vertex -3 0 0.3
      vertex -3 21 0.3
    endloop
  endfacet
  facet normal -0.951057 -0.309017 0
    outer loop
      vertex -3 0 0
      vertex -2.42705 -1.76336 0
      vertex -3 0 0.3
    endloop
  endfacet
  facet normal -0.951057 -0.309017 0
    outer loop
      vertex -3 0 0.3
      vertex -2.42705 -1.76336 0
      vertex -2.42705 -1.76336 0.3
    endloop
  endfacet
  facet normal -0.587785 -0.809017 0
    outer loop
      vertex -2.42705 -1.76336 0.3
      vertex -2.42705 -1.76336 0
      vertex -0.927051 -2.85317 0
    endloop
  endfacet
  facet normal -0.587785 -0.809017 0
    outer loop
      vertex -0.927051 -2.85317 0.3
      vertex -2.42705 -1.76336 0.3
      vertex -0.927051 -2.85317 0
    endloop
  endfacet
  facet normal 0 -1 0
    outer loop
      vertex -0.927051 -2.85317 0.3
      vertex -0.927051 -2.85317 0
      vertex 0.927051 -2.85317 0
    endloop
  endfacet
  facet normal 0 -1 0
    outer loop
      vertex 0.927051 -2.85317 0.3
      vertex -0.927051 -2.85317 0.3
      vertex 0.927051 -2.85317 0
    endloop
  endfacet
  facet normal 0.587785 -0.809017 0
    outer loop
      vertex 0.927051 -2.85317 0.3
      vertex 0.927051 -2.85317 0
      vertex 2.42705 -1.76336 0
    endloop
  endfacet
  facet normal 0.587785 -0.809017 0
    outer loop
      vertex 2.42705 -1.76336 0.3
      vertex 0.927051 -2.85317 0.3
      vertex 2.42705 -1.76336 0
    endloop
  endfacet
  facet normal 0.951057 -0.309017 0
    outer loop
      vertex 2.42705 -1.76336 0.3
      vertex 2.42705 -1.76336 0
      vertex 3 0 0
    endloop
  endfacet
  facet normal 0.951057 -0.309017 0
    outer loop
      vertex 3 0 0.3
      vertex 2.42705 -1.76336 0.3
      vertex 3 0 0
    endloop
  endfacet
  facet normal 1 0 0
    outer loop
      vertex 3 0 0.3
      vertex 3 0 0
      vertex 3 6 0
    endloop
  endfacet
  facet normal 1 0 0
    outer loop
      vertex 3 6 0.3
      vertex 3 0 0.3
      vertex 3 6 0
    endloop
  endfacet
  facet normal 0 -1 0
    outer loop
      vertex 3 6 0.3
      vertex 3 6 0
      vertex 29 6 0
    endloop
  endfacet
  facet normal 0 -1 0
    outer loop
      vertex 29 6 0.3
      vertex 3 6 0.3
      vertex 29 6 0
    endloop
  endfacet
  facet normal -1 0 0
    outer loop
      vertex 29 0 0
      vertex 29 0 0.3
      vertex 29 6 0
    endloop
  endfacet
  facet normal -1 0 0
    outer loop
      vertex 29 6 0
      vertex 29 0 0.3
      vertex 29 6 0.3
    endloop
  endfacet
  facet normal -0.951057 -0.309017 0
    outer loop
      vertex 29 0 0
      vertex 29.5729 -1.76336 0
      vertex 29 0 0.3
    endloop
  endfacet
  facet normal -0.951057 -0.309017 0
    outer loop
      vertex 29 0 0.3
      vertex 29.5729 -1.76336 0
      vertex 29.5729 -1.76336 0.3
    endloop
  endfacet
  facet normal -0.587785 -0.809017 0
    outer loop
      vertex 29.5729 -1.76336 0.3
      vertex 29.5729 -1.76336 0
      vertex 31.0729 -2.85317 0
    endloop
  endfacet
  facet normal -0.587785 -0.809017 0
    outer loop
      vertex 31.0729 -2.85317 0.3
      vertex 29.5729 -1.76336 0.3
      vertex 31.0729 -2.85317 0
    endloop
  endfacet
  facet normal 0 -1 0
    outer loop
      vertex 31.0729 -2.85317 0.3
      vertex 31.0729 -2.85317 0
      vertex 32.9271 -2.85317 0
    endloop
  endfacet
  facet normal 0 -1 0
    outer loop
      vertex 32.9271 -2.85317 0.3
      vertex 31.0729 -2.85317 0.3
      vertex 32.9271 -2.85317 0
    endloop
  endfacet
  facet normal 0.587785 -0.809017 0
    outer loop
      vertex 32.9271 -2.85317 0.3
      vertex 32.9271 -2.85317 0
      vertex 34.4271 -1.76336 0
    endloop
  endfacet
  facet normal 0.587785 -0.809017 0
    outer loop
      vertex 34.4271 -1.76336 0.3
      vertex 32.9271 -2.85317 0.3
      vertex 34.4271 -1.76336 0
    endloop
  endfacet
  facet normal 0.951057 -0.309017 0
    outer loop
      vertex 34.4271 -1.76336 0.3
      vertex 34.4271 -1.76336 0
      vertex 35 0 0
    endloop
  endfacet
  facet normal 0.951057 -0.309017 0
    outer loop
      vertex 35 0 0.3
      vertex 34.4271 -1.76336 0.3
      vertex 35 0 0
    endloop
  endfacet
  facet normal 1 0 0
    outer loop
      vertex 35 0 0.3
      vertex 35 0 0
      vertex 35 21 0
    endloop
  endfacet
  facet normal 1 0 0
    outer loop
      vertex 35 21 0.3
      vertex 35 0 0.3
      vertex 35 21 0
    endloop
  endfacet
  facet normal 0.951057 0.309017 0
    outer loop
      vertex 35 21 0
      vertex 34.4271 22.7634 0
      vertex 34.4271 22.7634 0.3
    endloop
  endfacet
  facet normal 0.951057 0.309017 0
    outer loop
      vertex 35 21 0.3
      vertex 35 21 0
      vertex 34.4271 22.7634 0.3
    endloop
  endfacet
  facet normal 0.587785 0.809017 0
    outer loop
      vertex 32.9271 23.8532 0
      vertex 32.9271 23.8532 0.3
      vertex 34.4271 22.7634 0
    endloop
  endfacet
  facet normal 0.587785 0.809017 0
    outer loop
      vertex 34.4271 22.7634 0
      vertex 32.9271 23.8532 0.3
      vertex 34.4271 22.7634 0.3
    endloop
  endfacet
  facet normal 0 1 0
    outer loop
      vertex 31.0729 23.8532 0
      vertex 31.0729 23.8532 0.3
      vertex 32.9271 23.8532 0
    endloop
  endfacet
  facet normal 0 1 0
    outer loop
      vertex 32.9271 23.8532 0
      vertex 31.0729 23.8532 0.3
      vertex 32.9271 23.8532 0.3
    endloop
  endfacet
  facet normal -0.587785 0.809017 0
    outer loop
      vertex 29.5729 22.7634 0
      vertex 29.5729 22.7634 0.3
      vertex 31.0729 23.8532 0
    endloop
  endfacet
  facet normal -0.587785 0.809017 0
    outer loop
      vertex 31.0729 23.8532 0
      vertex 29.5729 22.7634 0.3
      vertex 31.0729 23.8532 0.3
    endloop
  endfacet
  facet normal -0.951057 0.309017 0
    outer loop
      vertex 29 21 0
      vertex 29 21 0.3
      vertex 29.5729 22.7634 0
    endloop
  endfacet
  facet normal -0.951057 0.309017 0
    outer loop
      vertex 29.5729 22.7634 0
      vertex 29 21 0.3
      vertex 29.5729 22.7634 0.3
    endloop
  endfacet
  facet normal -1 0 0
    outer loop
      vertex 29 16 0
      vertex 29 16 0.3
      vertex 29 21 0
    endloop
  endfacet
  facet normal -1 0 0
    outer loop
      vertex 29 21 0
      vertex 29 16 0.3
      vertex 29 21 0.3
    endloop
  endfacet
  facet normal 0 1 0
    outer loop
      vertex 3 16 0
      vertex 3 16 0.3
      vertex 29 16 0
    endloop
  endfacet
  facet normal 0 1 0
    outer loop
      vertex 29 16 0
      vertex 3 16 0.3
      vertex 29 16 0.3
    endloop
  endfacet
  facet normal 1 0 0
    outer loop
      vertex 3 16 0.3
      vertex 3 16 0
      vertex 3 21 0
    endloop
  endfacet
  facet normal 1 0 0
    outer loop
      vertex 3 21 0.3
      vertex 3 16 0.3
      vertex 3 21 0
    endloop
  endfacet
  facet normal 0.951057 0.309017 0
    outer loop
      vertex 3 21 0
      vertex 2.42705 22.7634 0
      vertex 2.42705 22.7634 0.3
    endloop
  endfacet
  facet normal 0.951057 0.309017 0
    outer loop
      vertex 3 21 0.3
      vertex 3 21 0
      vertex 2.42705 22.7634 0.3
    endloop
  endfacet
  facet normal 0.587785 0.809017 0
    outer loop
      vertex 0.927051 23.8532 0
      vertex 0.927051 23.8532 0.3
      vertex 2.42705 22.7634 0
    endloop
  endfacet
  facet normal 0.587785 0.809017 0
    outer loop
      vertex 2.42705 22.7634 0
      vertex 0.927051 23.8532 0.3
      vertex 2.42705 22.7634 0.3
    endloop
  endfacet
  facet normal 0 1 0
    outer loop
      vertex -0.927051 23.8532 0
      vertex -0.927051 23.8532 0.3
      vertex 0.927051 23.8532 0
    endloop
  endfacet
  facet normal 0 1 0
    outer loop
      vertex 0.927051 23.8532 0
      vertex -0.927051 23.8532 0.3
      vertex 0.927051 23.8532 0.3
    endloop
  endfacet
  facet normal -0.587785 0.809017 0
    outer loop
      vertex -2.42705 22.7634 0
      vertex -2.42705 22.7634 0.3
      vertex -0.927051 23.8532 0
    endloop
  endfacet
  facet normal -0.587785 0.809017 0
    outer loop
      vertex -0.927051 23.8532 0
      vertex -2.42705 22.7634 0.3
      vertex -0.927051 23.8532 0.3
    endloop
  endfacet
  facet normal -0.951057 0.309017 0
    outer loop
      vertex -3 21 0
      vertex -3 21 0.3
      vertex -2.42705 22.7634 0
    endloop
  endfacet
  facet normal -0.951057 0.309017 0
    outer loop
      vertex -2.42705 22.7634 0
      vertex -3 21 0.3
      vertex -2.42705 22.7634 0.3
    endloop
  endfacet
  facet normal 0 0 1
    outer loop
      vertex -3 21 0.3
      vertex -3 0 0.3
      vertex -2.42705 -1.76336 0.3
    endloop
  endfacet
  facet normal 0 0 1
    outer loop
      vertex 0.927051 -2.85317 0.3
      vertex -3 21 0.3
      vertex -0.927051 -2.85317 0.3
    endloop
  endfacet
  facet normal 0 0 1
    outer loop
      vertex -0.927051 -2.85317 0.3
      vertex -3 21 0.3
      vertex -2.42705 -1.76336 0.3
    endloop
  endfacet
  facet normal 0 0 1
    outer loop
      vertex 2.42705 -1.76336 0.3
      vertex -3 21 0.3
      vertex 0.927051 -2.85317 0.3
    endloop
  endfacet
  facet normal 0 0 1
    outer loop
      vertex 3 0 0.3
      vertex -3 21 0.3
      vertex 2.42705 -1.76336 0.3
    endloop
  endfacet
  facet normal 0 0 1
    outer loop
      vertex 3 6 0.3
      vertex -3 21 0.3
      vertex 3 0 0.3
    endloop
  endfacet
  facet normal 0 0 1
    outer loop
      vertex 3 16 0.3
      vertex -3 21 0.3
      vertex 3 6 0.3
    endloop
  endfacet
  facet normal 0 0 1
    outer loop
      vertex 29.5729 -1.76336 0.3
      vertex 29 6 0.3
      vertex 29 0 0.3
    endloop
  endfacet
  facet normal 0 0 1
    outer loop
      vertex 31.0729 -2.85317 0.3
      vertex 29 6 0.3
      vertex 29.5729 -1.76336 0.3
    endloop
  endfacet
  facet normal 0 0 1
    outer loop
      vertex 32.9271 -2.85317 0.3
      vertex 29 6 0.3
      vertex 31.0729 -2.85317 0.3
    endloop
  endfacet
  facet normal 0 0 1
    outer loop
      vertex 34.4271 -1.76336 0.3
      vertex 29 6 0.3
      vertex 32.9271 -2.85317 0.3
    endloop
  endfacet
  facet normal 0 0 1
    outer loop
      vertex 35 0 0.3
      vertex 29 6 0.3
      vertex 34.4271 -1.76336 0.3
    endloop
  endfacet
  facet normal 0 0 1
    outer loop
      vertex 35 21 0.3
      vertex 29 6 0.3
      vertex 35 0 0.3
    endloop
  endfacet
  facet normal 0 0 1
    outer loop
      vertex 3 16 0.3
      vertex 3 21 0.3
      vertex -3 21 0.3
    endloop
  endfacet
  facet normal 0 0 1
    outer loop
      vertex 3 21 0.3
      vertex 2.42705 22.7634 0.3
      vertex -3 21 0.3
    endloop
  endfacet
  facet normal 0 0 1
    outer loop
      vertex 32.9271 23.8532 0.3
      vertex 29.5729 22.7634 0.3
      vertex 34.4271 22.7634 0.3
    endloop
  endfacet
  facet normal 0 0 1
    outer loop
      vertex 34.4271 22.7634 0.3
      vertex 29 21 0.3
      vertex 35 21 0.3
    endloop
  endfacet
  facet normal 0 0 1
    outer loop
      vertex 35 21 0.3
      vertex 29 16 0.3
      vertex 29 6 0.3
    endloop
  endfacet
  facet normal 0 0 1
    outer loop
      vertex 35 21 0.3
      vertex 29 21 0.3
      vertex 29 16 0.3
    endloop
  endfacet
  facet normal 0 0 1
    outer loop
      vertex 29 6 0.3
      vertex 3 16 0.3
      vertex 3 6 0.3
    endloop
  endfacet
  facet normal 0 0 1
    outer loop
      vertex 29 16 0.3
      vertex 3 16 0.3
      vertex 29 6 0.3
    endloop
  endfacet
  facet normal 0 0 1
    outer loop
      vertex 0.927051 23.8532 0.3
      vertex -3 21 0.3
      vertex 2.42705 22.7634 0.3
    endloop
  endfacet
  facet normal 0 0 1
    outer loop
      vertex -0.927051 23.8532 0.3
      vertex -3 21 0.3
      vertex 0.927051 23.8532 0.3
    endloop
  endfacet
  facet normal 0 0 1
    outer loop
      vertex -2.42705 22.7634 0.3
      vertex -3 21 0.3
      vertex -0.927051 23.8532 0.3
    endloop
  endfacet
  facet normal 0 0 1
    outer loop
      vertex 31.0729 23.8532 0.3
      vertex 29.5729 22.7634 0.3
      vertex 32.9271 23.8532 0.3
    endloop
  endfacet
  facet normal 0 0 1
    outer loop
      vertex 29.5729 22.7634 0.3
      vertex 29 21 0.3
      vertex 34.4271 22.7634 0.3
    endloop
  endfacet
endsolid OpenSCAD_Model
