<?xml version="1.0" encoding="UTF-8" standalone="no"?>
<!-- Created with Inkscape (http://www.inkscape.org/) -->

<svg
   xmlns:dc="http://purl.org/dc/elements/1.1/"
   xmlns:cc="http://creativecommons.org/ns#"
   xmlns:rdf="http://www.w3.org/1999/02/22-rdf-syntax-ns#"
   xmlns:svg="http://www.w3.org/2000/svg"
   xmlns="http://www.w3.org/2000/svg"
   xmlns:sodipodi="http://sodipodi.sourceforge.net/DTD/sodipodi-0.dtd"
   xmlns:inkscape="http://www.inkscape.org/namespaces/inkscape"
   width="210mm"
   height="297mm"
   viewBox="0 0 744.09448819 1052.3622047"
   id="svg2"
   version="1.1"
   inkscape:version="0.91 r13725"
   sodipodi:docname="bridge-support-v0.svg">
  <defs
     id="defs4" />
  <sodipodi:namedview
     id="base"
     pagecolor="#ffffff"
     bordercolor="#666666"
     borderopacity="1.0"
     inkscape:pageopacity="0.0"
     inkscape:pageshadow="2"
     inkscape:zoom="0.58"
     inkscape:cx="-33.352861"
     inkscape:cy="595.76616"
     inkscape:document-units="px"
     inkscape:current-layer="layer1"
     showgrid="true"
     showguides="false"
     inkscape:window-width="1440"
     inkscape:window-height="851"
     inkscape:window-x="0"
     inkscape:window-y="1"
     inkscape:window-maximized="1">
    <inkscape:grid
       type="xygrid"
       id="grid3336" />
  </sodipodi:namedview>
  <metadata
     id="metadata7">
    <rdf:RDF>
      <cc:Work
         rdf:about="">
        <dc:format>image/svg+xml</dc:format>
        <dc:type
           rdf:resource="http://purl.org/dc/dcmitype/StillImage" />
        <dc:title />
      </cc:Work>
    </rdf:RDF>
  </metadata>
  <g
     inkscape:label="Layer 1"
     inkscape:groupmode="layer"
     id="layer1">
    <path
       style="fill:none;fill-rule:evenodd;stroke:#000000;stroke-width:1px;stroke-linecap:butt;stroke-linejoin:miter;stroke-opacity:1"
       d="m 100,1011.5054 0,-121.579 -19.736842,-20.26316 0,-16.31579 L 100,851.50534 l 20,-58.96552 0,-598.19227 -18.96552,-61.98536 -19.999997,-20 0,-19.999985 19.999997,0 0,-100 -19.999997,-20 0,-20 19.999997,0 178.96552,0 0,20 -20,20 0,100 20,0 0,19.999985 -20,20 219.9164,0 0,159.75279 C 459.31034,289.99377 260,432.36219 260.3367,611.32019 L 260.48821,791.6644 280,851.50534 l 19.73684,0.52632 0,18.94737 L 280,889.9264 l 0,121.579 z"
       id="path3340"
       inkscape:connector-curvature="0"
       sodipodi:nodetypes="cccccccccccccccccccccccccccccccc" />
    <path
       sodipodi:nodetypes="cccccccccccccccccccccccccccccccc"
       inkscape:connector-curvature="0"
       id="path3363"
       d="m 512.06897,1011.5054 0,-121.579 -19.73684,-20.26316 0,-16.31579 19.73684,-1.84211 20,-58.96552 0,-598.19227 -18.96552,-61.98536 -20,-20 0,-19.999985 20,0 0,-100 -20,-20 0,-20 20,0 254.82759,0 0,20 -20,20 0,100 20,0 0,19.999985 -20,20 200.95088,0 0,159.75279 C 928.27586,289.99377 747.93104,432.36219 748.26774,611.32019 l 0.15151,180.34421 19.51179,59.84094 19.73684,0.52632 0,18.94737 -19.73684,18.94737 0,121.579 z"
       style="fill:none;fill-rule:evenodd;stroke:#000000;stroke-width:1px;stroke-linecap:butt;stroke-linejoin:miter;stroke-opacity:1" />
    <path
       sodipodi:nodetypes="cccccccccccccccccccccccccccccccc"
       inkscape:connector-curvature="0"
       id="path3365"
       d="m -341.37931,1013.2295 0,-121.57896 -19.73684,-20.26316 0,-16.31579 19.73684,-1.84211 20,-58.96552 0,-598.19227 -18.96552,-61.98536 -20,-20 0,-19.999987 20,0 0,-100.0000001 -20,-19.9999999 0,-20 20,0 268.92372,0 0,20 0,19.9999999 0,100.0000001 0,0 0,19.999987 0,20 0,0 0,159.75279 0,319.20521 0,180.34421 0,59.84094 0,0.52632 0,18.94737 0,18.94737 0,121.57896 z"
       style="fill:none;fill-rule:evenodd;stroke:#000000;stroke-width:1px;stroke-linecap:butt;stroke-linejoin:miter;stroke-opacity:1" />
  </g>
</svg>
