solid OpenSCAD_Model
  facet normal 0.972369 -0.233448 0
    outer loop
      vertex 1.47414 -0.478976 5.59
      vertex 1.53092 -0.242473 1.6
      vertex 1.53092 -0.242473 5.59
    endloop
  endfacet
  facet normal 0.972369 -0.233448 0
    outer loop
      vertex 1.53092 -0.242473 1.6
      vertex 1.47414 -0.478976 5.59
      vertex 1.47414 -0.478976 1.6
    endloop
  endfacet
  facet normal 0.972369 0.233448 0
    outer loop
      vertex 1.53092 0.242473 5.59
      vertex 1.47414 0.478976 1.6
      vertex 1.47414 0.478976 5.59
    endloop
  endfacet
  facet normal 0.972369 0.233448 0
    outer loop
      vertex 1.47414 0.478976 1.6
      vertex 1.53092 0.242473 5.59
      vertex 1.53092 0.242473 1.6
    endloop
  endfacet
  facet normal 0.996918 0.0784467 0
    outer loop
      vertex 1.55 0 5.59
      vertex 1.53092 0.242473 1.6
      vertex 1.53092 0.242473 5.59
    endloop
  endfacet
  facet normal 0.996918 0.0784467 0
    outer loop
      vertex 1.53092 0.242473 1.6
      vertex 1.55 0 5.59
      vertex 1.55 0 1.6
    endloop
  endfacet
  facet normal -0.852647 0.522487 0
    outer loop
      vertex -1.38106 0.703685 1.6
      vertex -1.25398 0.911067 5.59
      vertex -1.25398 0.911067 1.6
    endloop
  endfacet
  facet normal -0.852647 0.522487 0
    outer loop
      vertex -1.25398 0.911067 5.59
      vertex -1.38106 0.703685 1.6
      vertex -1.38106 0.703685 5.59
    endloop
  endfacet
  facet normal 0.0784467 0.996918 -0
    outer loop
      vertex 0.242473 1.53092 1.6
      vertex 0 1.55 5.59
      vertex 0.242473 1.53092 5.59
    endloop
  endfacet
  facet normal 0.0784467 0.996918 0
    outer loop
      vertex 0 1.55 5.59
      vertex 0.242473 1.53092 1.6
      vertex 0 1.55 1.6
    endloop
  endfacet
  facet normal -0.852647 -0.522487 0
    outer loop
      vertex -1.25398 -0.911067 1.6
      vertex -1.38106 -0.703685 5.59
      vertex -1.38106 -0.703685 1.6
    endloop
  endfacet
  facet normal -0.852647 -0.522487 0
    outer loop
      vertex -1.38106 -0.703685 5.59
      vertex -1.25398 -0.911067 1.6
      vertex -1.25398 -0.911067 5.59
    endloop
  endfacet
  facet normal -0.972369 -0.233448 0
    outer loop
      vertex -1.47414 -0.478976 1.6
      vertex -1.53092 -0.242473 5.59
      vertex -1.53092 -0.242473 1.6
    endloop
  endfacet
  facet normal -0.972369 -0.233448 0
    outer loop
      vertex -1.53092 -0.242473 5.59
      vertex -1.47414 -0.478976 1.6
      vertex -1.47414 -0.478976 5.59
    endloop
  endfacet
  facet normal 0.760378 -0.649481 0
    outer loop
      vertex 1.09601 -1.09601 5.59
      vertex 1.25398 -0.911067 1.6
      vertex 1.25398 -0.911067 5.59
    endloop
  endfacet
  facet normal 0.760378 -0.649481 0
    outer loop
      vertex 1.25398 -0.911067 1.6
      vertex 1.09601 -1.09601 5.59
      vertex 1.09601 -1.09601 1.6
    endloop
  endfacet
  facet normal 0.233448 -0.972369 0
    outer loop
      vertex 0.242473 -1.53092 1.6
      vertex 0.478976 -1.47414 5.59
      vertex 0.242473 -1.53092 5.59
    endloop
  endfacet
  facet normal 0.233448 -0.972369 0
    outer loop
      vertex 0.478976 -1.47414 5.59
      vertex 0.242473 -1.53092 1.6
      vertex 0.478976 -1.47414 1.6
    endloop
  endfacet
  facet normal -0.649481 -0.760378 0
    outer loop
      vertex -1.09601 -1.09601 1.6
      vertex -0.911067 -1.25398 5.59
      vertex -1.09601 -1.09601 5.59
    endloop
  endfacet
  facet normal -0.649481 -0.760378 -0
    outer loop
      vertex -0.911067 -1.25398 5.59
      vertex -1.09601 -1.09601 1.6
      vertex -0.911067 -1.25398 1.6
    endloop
  endfacet
  facet normal 0.923876 -0.382692 0
    outer loop
      vertex 1.38106 -0.703685 5.59
      vertex 1.47414 -0.478976 1.6
      vertex 1.47414 -0.478976 5.59
    endloop
  endfacet
  facet normal 0.923876 -0.382692 0
    outer loop
      vertex 1.47414 -0.478976 1.6
      vertex 1.38106 -0.703685 5.59
      vertex 1.38106 -0.703685 1.6
    endloop
  endfacet
  facet normal -0.972369 0.233448 0
    outer loop
      vertex -1.53092 0.242473 1.6
      vertex -1.47414 0.478976 5.59
      vertex -1.47414 0.478976 1.6
    endloop
  endfacet
  facet normal -0.972369 0.233448 0
    outer loop
      vertex -1.47414 0.478976 5.59
      vertex -1.53092 0.242473 1.6
      vertex -1.53092 0.242473 5.59
    endloop
  endfacet
  facet normal 0.649481 0.760378 -0
    outer loop
      vertex 1.09601 1.09601 1.6
      vertex 0.911067 1.25398 5.59
      vertex 1.09601 1.09601 5.59
    endloop
  endfacet
  facet normal 0.649481 0.760378 0
    outer loop
      vertex 0.911067 1.25398 5.59
      vertex 1.09601 1.09601 1.6
      vertex 0.911067 1.25398 1.6
    endloop
  endfacet
  facet normal -0.996918 -0.0784467 0
    outer loop
      vertex -1.53092 -0.242473 1.6
      vertex -1.55 0 5.59
      vertex -1.55 0 1.6
    endloop
  endfacet
  facet normal -0.996918 -0.0784467 0
    outer loop
      vertex -1.55 0 5.59
      vertex -1.53092 -0.242473 1.6
      vertex -1.53092 -0.242473 5.59
    endloop
  endfacet
  facet normal 0.852647 -0.522487 0
    outer loop
      vertex 1.25398 -0.911067 5.59
      vertex 1.38106 -0.703685 1.6
      vertex 1.38106 -0.703685 5.59
    endloop
  endfacet
  facet normal 0.852647 -0.522487 0
    outer loop
      vertex 1.38106 -0.703685 1.6
      vertex 1.25398 -0.911067 5.59
      vertex 1.25398 -0.911067 1.6
    endloop
  endfacet
  facet normal 0.382692 -0.923876 0
    outer loop
      vertex 0.478976 -1.47414 1.6
      vertex 0.703685 -1.38106 5.59
      vertex 0.478976 -1.47414 5.59
    endloop
  endfacet
  facet normal 0.382692 -0.923876 0
    outer loop
      vertex 0.703685 -1.38106 5.59
      vertex 0.478976 -1.47414 1.6
      vertex 0.703685 -1.38106 1.6
    endloop
  endfacet
  facet normal -0.382692 -0.923876 0
    outer loop
      vertex -0.703685 -1.38106 1.6
      vertex -0.478976 -1.47414 5.59
      vertex -0.703685 -1.38106 5.59
    endloop
  endfacet
  facet normal -0.382692 -0.923876 -0
    outer loop
      vertex -0.478976 -1.47414 5.59
      vertex -0.703685 -1.38106 1.6
      vertex -0.478976 -1.47414 1.6
    endloop
  endfacet
  facet normal -0.760378 0.649481 0
    outer loop
      vertex -1.25398 0.911067 1.6
      vertex -1.09601 1.09601 5.59
      vertex -1.09601 1.09601 1.6
    endloop
  endfacet
  facet normal -0.760378 0.649481 0
    outer loop
      vertex -1.09601 1.09601 5.59
      vertex -1.25398 0.911067 1.6
      vertex -1.25398 0.911067 5.59
    endloop
  endfacet
  facet normal -0.233448 -0.972369 0
    outer loop
      vertex -0.478976 -1.47414 1.6
      vertex -0.242473 -1.53092 5.59
      vertex -0.478976 -1.47414 5.59
    endloop
  endfacet
  facet normal -0.233448 -0.972369 -0
    outer loop
      vertex -0.242473 -1.53092 5.59
      vertex -0.478976 -1.47414 1.6
      vertex -0.242473 -1.53092 1.6
    endloop
  endfacet
  facet normal -0.649481 0.760378 0
    outer loop
      vertex -0.911067 1.25398 1.6
      vertex -1.09601 1.09601 5.59
      vertex -0.911067 1.25398 5.59
    endloop
  endfacet
  facet normal -0.649481 0.760378 0
    outer loop
      vertex -1.09601 1.09601 5.59
      vertex -0.911067 1.25398 1.6
      vertex -1.09601 1.09601 1.6
    endloop
  endfacet
  facet normal -0.0784467 -0.996918 0
    outer loop
      vertex -0.242473 -1.53092 1.6
      vertex 0 -1.55 5.59
      vertex -0.242473 -1.53092 5.59
    endloop
  endfacet
  facet normal -0.0784467 -0.996918 -0
    outer loop
      vertex 0 -1.55 5.59
      vertex -0.242473 -1.53092 1.6
      vertex 0 -1.55 1.6
    endloop
  endfacet
  facet normal 0.760378 0.649481 0
    outer loop
      vertex 1.25398 0.911067 5.59
      vertex 1.09601 1.09601 1.6
      vertex 1.09601 1.09601 5.59
    endloop
  endfacet
  facet normal 0.760378 0.649481 0
    outer loop
      vertex 1.09601 1.09601 1.6
      vertex 1.25398 0.911067 5.59
      vertex 1.25398 0.911067 1.6
    endloop
  endfacet
  facet normal 0.382692 0.923876 -0
    outer loop
      vertex 0.703685 1.38106 1.6
      vertex 0.478976 1.47414 5.59
      vertex 0.703685 1.38106 5.59
    endloop
  endfacet
  facet normal 0.382692 0.923876 0
    outer loop
      vertex 0.478976 1.47414 5.59
      vertex 0.703685 1.38106 1.6
      vertex 0.478976 1.47414 1.6
    endloop
  endfacet
  facet normal 0.0784467 -0.996918 0
    outer loop
      vertex 0 -1.55 1.6
      vertex 0.242473 -1.53092 5.59
      vertex 0 -1.55 5.59
    endloop
  endfacet
  facet normal 0.0784467 -0.996918 0
    outer loop
      vertex 0.242473 -1.53092 5.59
      vertex 0 -1.55 1.6
      vertex 0.242473 -1.53092 1.6
    endloop
  endfacet
  facet normal -0.382692 0.923876 0
    outer loop
      vertex -0.478976 1.47414 1.6
      vertex -0.703685 1.38106 5.59
      vertex -0.478976 1.47414 5.59
    endloop
  endfacet
  facet normal -0.382692 0.923876 0
    outer loop
      vertex -0.703685 1.38106 5.59
      vertex -0.478976 1.47414 1.6
      vertex -0.703685 1.38106 1.6
    endloop
  endfacet
  facet normal -0.996918 0.0784467 0
    outer loop
      vertex -1.55 0 1.6
      vertex -1.53092 0.242473 5.59
      vertex -1.53092 0.242473 1.6
    endloop
  endfacet
  facet normal -0.996918 0.0784467 0
    outer loop
      vertex -1.53092 0.242473 5.59
      vertex -1.55 0 1.6
      vertex -1.55 0 5.59
    endloop
  endfacet
  facet normal 0.522487 -0.852647 0
    outer loop
      vertex 0.703685 -1.38106 1.6
      vertex 0.911067 -1.25398 5.59
      vertex 0.703685 -1.38106 5.59
    endloop
  endfacet
  facet normal 0.522487 -0.852647 0
    outer loop
      vertex 0.911067 -1.25398 5.59
      vertex 0.703685 -1.38106 1.6
      vertex 0.911067 -1.25398 1.6
    endloop
  endfacet
  facet normal 0.996918 -0.0784467 0
    outer loop
      vertex 1.53092 -0.242473 5.59
      vertex 1.55 0 1.6
      vertex 1.55 0 5.59
    endloop
  endfacet
  facet normal 0.996918 -0.0784467 0
    outer loop
      vertex 1.55 0 1.6
      vertex 1.53092 -0.242473 5.59
      vertex 1.53092 -0.242473 1.6
    endloop
  endfacet
  facet normal 0.522487 0.852647 -0
    outer loop
      vertex 0.911067 1.25398 1.6
      vertex 0.703685 1.38106 5.59
      vertex 0.911067 1.25398 5.59
    endloop
  endfacet
  facet normal 0.522487 0.852647 0
    outer loop
      vertex 0.703685 1.38106 5.59
      vertex 0.911067 1.25398 1.6
      vertex 0.703685 1.38106 1.6
    endloop
  endfacet
  facet normal 0.649481 -0.760378 0
    outer loop
      vertex 0.911067 -1.25398 1.6
      vertex 1.09601 -1.09601 5.59
      vertex 0.911067 -1.25398 5.59
    endloop
  endfacet
  facet normal 0.649481 -0.760378 0
    outer loop
      vertex 1.09601 -1.09601 5.59
      vertex 0.911067 -1.25398 1.6
      vertex 1.09601 -1.09601 1.6
    endloop
  endfacet
  facet normal -0.923876 0.382692 0
    outer loop
      vertex -1.47414 0.478976 1.6
      vertex -1.38106 0.703685 5.59
      vertex -1.38106 0.703685 1.6
    endloop
  endfacet
  facet normal -0.923876 0.382692 0
    outer loop
      vertex -1.38106 0.703685 5.59
      vertex -1.47414 0.478976 1.6
      vertex -1.47414 0.478976 5.59
    endloop
  endfacet
  facet normal -0.233448 0.972369 0
    outer loop
      vertex -0.242473 1.53092 1.6
      vertex -0.478976 1.47414 5.59
      vertex -0.242473 1.53092 5.59
    endloop
  endfacet
  facet normal -0.233448 0.972369 0
    outer loop
      vertex -0.478976 1.47414 5.59
      vertex -0.242473 1.53092 1.6
      vertex -0.478976 1.47414 1.6
    endloop
  endfacet
  facet normal -0.0784467 0.996918 0
    outer loop
      vertex 0 1.55 1.6
      vertex -0.242473 1.53092 5.59
      vertex 0 1.55 5.59
    endloop
  endfacet
  facet normal -0.0784467 0.996918 0
    outer loop
      vertex -0.242473 1.53092 5.59
      vertex 0 1.55 1.6
      vertex -0.242473 1.53092 1.6
    endloop
  endfacet
  facet normal -0.760378 -0.649481 0
    outer loop
      vertex -1.09601 -1.09601 1.6
      vertex -1.25398 -0.911067 5.59
      vertex -1.25398 -0.911067 1.6
    endloop
  endfacet
  facet normal -0.760378 -0.649481 0
    outer loop
      vertex -1.25398 -0.911067 5.59
      vertex -1.09601 -1.09601 1.6
      vertex -1.09601 -1.09601 5.59
    endloop
  endfacet
  facet normal 0.233448 0.972369 -0
    outer loop
      vertex 0.478976 1.47414 1.6
      vertex 0.242473 1.53092 5.59
      vertex 0.478976 1.47414 5.59
    endloop
  endfacet
  facet normal 0.233448 0.972369 0
    outer loop
      vertex 0.242473 1.53092 5.59
      vertex 0.478976 1.47414 1.6
      vertex 0.242473 1.53092 1.6
    endloop
  endfacet
  facet normal 0.852647 0.522487 0
    outer loop
      vertex 1.38106 0.703685 5.59
      vertex 1.25398 0.911067 1.6
      vertex 1.25398 0.911067 5.59
    endloop
  endfacet
  facet normal 0.852647 0.522487 0
    outer loop
      vertex 1.25398 0.911067 1.6
      vertex 1.38106 0.703685 5.59
      vertex 1.38106 0.703685 1.6
    endloop
  endfacet
  facet normal 0.923876 0.382692 0
    outer loop
      vertex 1.47414 0.478976 5.59
      vertex 1.38106 0.703685 1.6
      vertex 1.38106 0.703685 5.59
    endloop
  endfacet
  facet normal 0.923876 0.382692 0
    outer loop
      vertex 1.38106 0.703685 1.6
      vertex 1.47414 0.478976 5.59
      vertex 1.47414 0.478976 1.6
    endloop
  endfacet
  facet normal -0.522487 0.852647 0
    outer loop
      vertex -0.703685 1.38106 1.6
      vertex -0.911067 1.25398 5.59
      vertex -0.703685 1.38106 5.59
    endloop
  endfacet
  facet normal -0.522487 0.852647 0
    outer loop
      vertex -0.911067 1.25398 5.59
      vertex -0.703685 1.38106 1.6
      vertex -0.911067 1.25398 1.6
    endloop
  endfacet
  facet normal -0.923876 -0.382692 0
    outer loop
      vertex -1.38106 -0.703685 1.6
      vertex -1.47414 -0.478976 5.59
      vertex -1.47414 -0.478976 1.6
    endloop
  endfacet
  facet normal -0.923876 -0.382692 0
    outer loop
      vertex -1.47414 -0.478976 5.59
      vertex -1.38106 -0.703685 1.6
      vertex -1.38106 -0.703685 5.59
    endloop
  endfacet
  facet normal 0 0 -1
    outer loop
      vertex 1.53092 -0.242473 1.6
      vertex 1.53092 0.242473 1.6
      vertex 1.55 0 1.6
    endloop
  endfacet
  facet normal 0 0 -1
    outer loop
      vertex 1.47414 -0.478976 1.6
      vertex 1.53092 0.242473 1.6
      vertex 1.53092 -0.242473 1.6
    endloop
  endfacet
  facet normal 0 0 -1
    outer loop
      vertex 1.47414 -0.478976 1.6
      vertex 1.47414 0.478976 1.6
      vertex 1.53092 0.242473 1.6
    endloop
  endfacet
  facet normal 0 0 -1
    outer loop
      vertex 1.38106 -0.703685 1.6
      vertex 1.47414 0.478976 1.6
      vertex 1.47414 -0.478976 1.6
    endloop
  endfacet
  facet normal 0 0 -1
    outer loop
      vertex 1.38106 -0.703685 1.6
      vertex 1.38106 0.703685 1.6
      vertex 1.47414 0.478976 1.6
    endloop
  endfacet
  facet normal 0 0 -1
    outer loop
      vertex 1.25398 -0.911067 1.6
      vertex 1.38106 0.703685 1.6
      vertex 1.38106 -0.703685 1.6
    endloop
  endfacet
  facet normal 0 0 -1
    outer loop
      vertex 1.25398 -0.911067 1.6
      vertex 1.25398 0.911067 1.6
      vertex 1.38106 0.703685 1.6
    endloop
  endfacet
  facet normal 0 0 -1
    outer loop
      vertex 1.09601 -1.09601 1.6
      vertex 1.25398 0.911067 1.6
      vertex 1.25398 -0.911067 1.6
    endloop
  endfacet
  facet normal 0 0 -1
    outer loop
      vertex 1.09601 -1.09601 1.6
      vertex 1.09601 1.09601 1.6
      vertex 1.25398 0.911067 1.6
    endloop
  endfacet
  facet normal 0 0 -1
    outer loop
      vertex 0.911067 -1.25398 1.6
      vertex 1.09601 1.09601 1.6
      vertex 1.09601 -1.09601 1.6
    endloop
  endfacet
  facet normal 0 0 -1
    outer loop
      vertex 0.911067 -1.25398 1.6
      vertex 0.911067 1.25398 1.6
      vertex 1.09601 1.09601 1.6
    endloop
  endfacet
  facet normal 0 0 -1
    outer loop
      vertex 0.703685 -1.38106 1.6
      vertex 0.911067 1.25398 1.6
      vertex 0.911067 -1.25398 1.6
    endloop
  endfacet
  facet normal 0 0 -1
    outer loop
      vertex 0.703685 -1.38106 1.6
      vertex 0.703685 1.38106 1.6
      vertex 0.911067 1.25398 1.6
    endloop
  endfacet
  facet normal 0 0 -1
    outer loop
      vertex 0.478976 -1.47414 1.6
      vertex 0.703685 1.38106 1.6
      vertex 0.703685 -1.38106 1.6
    endloop
  endfacet
  facet normal 0 0 -1
    outer loop
      vertex 0.478976 -1.47414 1.6
      vertex 0.478976 1.47414 1.6
      vertex 0.703685 1.38106 1.6
    endloop
  endfacet
  facet normal 0 0 -1
    outer loop
      vertex 0.242473 -1.53092 1.6
      vertex 0.478976 1.47414 1.6
      vertex 0.478976 -1.47414 1.6
    endloop
  endfacet
  facet normal 0 0 -1
    outer loop
      vertex 0.242473 -1.53092 1.6
      vertex 0.242473 1.53092 1.6
      vertex 0.478976 1.47414 1.6
    endloop
  endfacet
  facet normal 0 0 -1
    outer loop
      vertex 0 -1.55 1.6
      vertex 0.242473 1.53092 1.6
      vertex 0.242473 -1.53092 1.6
    endloop
  endfacet
  facet normal 0 0 -1
    outer loop
      vertex 0 -1.55 1.6
      vertex 0 1.55 1.6
      vertex 0.242473 1.53092 1.6
    endloop
  endfacet
  facet normal 0 0 -1
    outer loop
      vertex -0.242473 -1.53092 1.6
      vertex 0 1.55 1.6
      vertex 0 -1.55 1.6
    endloop
  endfacet
  facet normal 0 0 -1
    outer loop
      vertex -0.242473 -1.53092 1.6
      vertex -0.242473 1.53092 1.6
      vertex 0 1.55 1.6
    endloop
  endfacet
  facet normal 0 0 -1
    outer loop
      vertex -0.478976 -1.47414 1.6
      vertex -0.242473 1.53092 1.6
      vertex -0.242473 -1.53092 1.6
    endloop
  endfacet
  facet normal 0 0 -1
    outer loop
      vertex -0.478976 -1.47414 1.6
      vertex -0.478976 1.47414 1.6
      vertex -0.242473 1.53092 1.6
    endloop
  endfacet
  facet normal 0 0 -1
    outer loop
      vertex -0.703685 -1.38106 1.6
      vertex -0.478976 1.47414 1.6
      vertex -0.478976 -1.47414 1.6
    endloop
  endfacet
  facet normal 0 0 -1
    outer loop
      vertex -0.703685 -1.38106 1.6
      vertex -0.703685 1.38106 1.6
      vertex -0.478976 1.47414 1.6
    endloop
  endfacet
  facet normal 0 0 -1
    outer loop
      vertex -0.911067 -1.25398 1.6
      vertex -0.703685 1.38106 1.6
      vertex -0.703685 -1.38106 1.6
    endloop
  endfacet
  facet normal 0 0 -1
    outer loop
      vertex -0.911067 -1.25398 1.6
      vertex -0.911067 1.25398 1.6
      vertex -0.703685 1.38106 1.6
    endloop
  endfacet
  facet normal 0 0 -1
    outer loop
      vertex -1.09601 -1.09601 1.6
      vertex -0.911067 1.25398 1.6
      vertex -0.911067 -1.25398 1.6
    endloop
  endfacet
  facet normal 0 0 -1
    outer loop
      vertex -1.09601 -1.09601 1.6
      vertex -1.09601 1.09601 1.6
      vertex -0.911067 1.25398 1.6
    endloop
  endfacet
  facet normal 0 0 -1
    outer loop
      vertex -1.25398 -0.911067 1.6
      vertex -1.09601 1.09601 1.6
      vertex -1.09601 -1.09601 1.6
    endloop
  endfacet
  facet normal 0 0 -1
    outer loop
      vertex -1.25398 -0.911067 1.6
      vertex -1.25398 0.911067 1.6
      vertex -1.09601 1.09601 1.6
    endloop
  endfacet
  facet normal 0 0 -1
    outer loop
      vertex -1.38106 -0.703685 1.6
      vertex -1.25398 0.911067 1.6
      vertex -1.25398 -0.911067 1.6
    endloop
  endfacet
  facet normal 0 0 -1
    outer loop
      vertex -1.38106 -0.703685 1.6
      vertex -1.38106 0.703685 1.6
      vertex -1.25398 0.911067 1.6
    endloop
  endfacet
  facet normal 0 0 -1
    outer loop
      vertex -1.47414 -0.478976 1.6
      vertex -1.38106 0.703685 1.6
      vertex -1.38106 -0.703685 1.6
    endloop
  endfacet
  facet normal 0 0 -1
    outer loop
      vertex -1.47414 -0.478976 1.6
      vertex -1.47414 0.478976 1.6
      vertex -1.38106 0.703685 1.6
    endloop
  endfacet
  facet normal 0 0 -1
    outer loop
      vertex -1.53092 -0.242473 1.6
      vertex -1.47414 0.478976 1.6
      vertex -1.47414 -0.478976 1.6
    endloop
  endfacet
  facet normal 0 0 -1
    outer loop
      vertex -1.53092 -0.242473 1.6
      vertex -1.53092 0.242473 1.6
      vertex -1.47414 0.478976 1.6
    endloop
  endfacet
  facet normal 0 -0 -1
    outer loop
      vertex -1.53092 0.242473 1.6
      vertex -1.53092 -0.242473 1.6
      vertex -1.55 0 1.6
    endloop
  endfacet
  facet normal -0.522487 -0.852647 0
    outer loop
      vertex -0.911067 -1.25398 1.6
      vertex -0.703685 -1.38106 5.59
      vertex -0.911067 -1.25398 5.59
    endloop
  endfacet
  facet normal -0.522487 -0.852647 -0
    outer loop
      vertex -0.703685 -1.38106 5.59
      vertex -0.911067 -1.25398 1.6
      vertex -0.703685 -1.38106 1.6
    endloop
  endfacet
  facet normal 0.972372 0.233439 0
    outer loop
      vertex 2.56799 0.406729 41.59
      vertex 2.47275 0.803444 5.59
      vertex 2.47275 0.803444 41.59
    endloop
  endfacet
  facet normal 0.972372 0.233439 0
    outer loop
      vertex 2.47275 0.803444 5.59
      vertex 2.56799 0.406729 41.59
      vertex 2.56799 0.406729 5.59
    endloop
  endfacet
  facet normal 0.996917 0.0784584 0
    outer loop
      vertex 2.6 0 41.59
      vertex 2.56799 0.406729 5.59
      vertex 2.56799 0.406729 41.59
    endloop
  endfacet
  facet normal 0.996917 0.0784584 0
    outer loop
      vertex 2.56799 0.406729 5.59
      vertex 2.6 0 41.59
      vertex 2.6 0 5.59
    endloop
  endfacet
  facet normal 0.522518 -0.852628 0
    outer loop
      vertex 1.18038 -2.31662 5.59
      vertex 1.52824 -2.10344 41.59
      vertex 1.18038 -2.31662 41.59
    endloop
  endfacet
  facet normal 0.522518 -0.852628 0
    outer loop
      vertex 1.52824 -2.10344 41.59
      vertex 1.18038 -2.31662 5.59
      vertex 1.52824 -2.10344 5.59
    endloop
  endfacet
  facet normal 0.760418 0.649434 0
    outer loop
      vertex 2.10344 1.52824 41.59
      vertex 1.83848 1.83848 5.59
      vertex 1.83848 1.83848 41.59
    endloop
  endfacet
  facet normal 0.760418 0.649434 0
    outer loop
      vertex 1.83848 1.83848 5.59
      vertex 2.10344 1.52824 41.59
      vertex 2.10344 1.52824 5.59
    endloop
  endfacet
  facet normal 0.0784584 -0.996917 0
    outer loop
      vertex 0 -2.6 5.59
      vertex 0.406729 -2.56799 41.59
      vertex 0 -2.6 41.59
    endloop
  endfacet
  facet normal 0.0784584 -0.996917 0
    outer loop
      vertex 0.406729 -2.56799 41.59
      vertex 0 -2.6 5.59
      vertex 0.406729 -2.56799 5.59
    endloop
  endfacet
  facet normal 0.996917 -0.0784584 0
    outer loop
      vertex 2.56799 -0.406729 41.59
      vertex 2.6 0 5.59
      vertex 2.6 0 41.59
    endloop
  endfacet
  facet normal 0.996917 -0.0784584 0
    outer loop
      vertex 2.6 0 5.59
      vertex 2.56799 -0.406729 41.59
      vertex 2.56799 -0.406729 5.59
    endloop
  endfacet
  facet normal -0.852628 -0.522518 0
    outer loop
      vertex -2.10344 -1.52824 5.59
      vertex -2.31662 -1.18038 41.59
      vertex -2.31662 -1.18038 5.59
    endloop
  endfacet
  facet normal -0.852628 -0.522518 0
    outer loop
      vertex -2.31662 -1.18038 41.59
      vertex -2.10344 -1.52824 5.59
      vertex -2.10344 -1.52824 41.59
    endloop
  endfacet
  facet normal 0.233439 -0.972372 0
    outer loop
      vertex 0.406729 -2.56799 5.59
      vertex 0.803444 -2.47275 41.59
      vertex 0.406729 -2.56799 41.59
    endloop
  endfacet
  facet normal 0.233439 -0.972372 0
    outer loop
      vertex 0.803444 -2.47275 41.59
      vertex 0.406729 -2.56799 5.59
      vertex 0.803444 -2.47275 5.59
    endloop
  endfacet
  facet normal -0.972372 -0.233439 0
    outer loop
      vertex -2.47275 -0.803444 5.59
      vertex -2.56799 -0.406729 41.59
      vertex -2.56799 -0.406729 5.59
    endloop
  endfacet
  facet normal -0.972372 -0.233439 0
    outer loop
      vertex -2.56799 -0.406729 41.59
      vertex -2.47275 -0.803444 5.59
      vertex -2.47275 -0.803444 41.59
    endloop
  endfacet
  facet normal -0.649434 0.760418 0
    outer loop
      vertex -1.52824 2.10344 5.59
      vertex -1.83848 1.83848 41.59
      vertex -1.52824 2.10344 41.59
    endloop
  endfacet
  facet normal -0.649434 0.760418 0
    outer loop
      vertex -1.83848 1.83848 41.59
      vertex -1.52824 2.10344 5.59
      vertex -1.83848 1.83848 5.59
    endloop
  endfacet
  facet normal 0.382679 0.923881 -0
    outer loop
      vertex 1.18038 2.31662 5.59
      vertex 0.803444 2.47275 41.59
      vertex 1.18038 2.31662 41.59
    endloop
  endfacet
  facet normal 0.382679 0.923881 0
    outer loop
      vertex 0.803444 2.47275 41.59
      vertex 1.18038 2.31662 5.59
      vertex 0.803444 2.47275 5.59
    endloop
  endfacet
  facet normal 0.972372 -0.233439 0
    outer loop
      vertex 2.47275 -0.803444 41.59
      vertex 2.56799 -0.406729 5.59
      vertex 2.56799 -0.406729 41.59
    endloop
  endfacet
  facet normal 0.972372 -0.233439 0
    outer loop
      vertex 2.56799 -0.406729 5.59
      vertex 2.47275 -0.803444 41.59
      vertex 2.47275 -0.803444 5.59
    endloop
  endfacet
  facet normal 0.649434 -0.760418 0
    outer loop
      vertex 1.52824 -2.10344 5.59
      vertex 1.83848 -1.83848 41.59
      vertex 1.52824 -2.10344 41.59
    endloop
  endfacet
  facet normal 0.649434 -0.760418 0
    outer loop
      vertex 1.83848 -1.83848 41.59
      vertex 1.52824 -2.10344 5.59
      vertex 1.83848 -1.83848 5.59
    endloop
  endfacet
  facet normal 0.0784584 0.996917 -0
    outer loop
      vertex 0.406729 2.56799 5.59
      vertex 0 2.6 41.59
      vertex 0.406729 2.56799 41.59
    endloop
  endfacet
  facet normal 0.0784584 0.996917 0
    outer loop
      vertex 0 2.6 41.59
      vertex 0.406729 2.56799 5.59
      vertex 0 2.6 5.59
    endloop
  endfacet
  facet normal -0.852628 0.522518 0
    outer loop
      vertex -2.31662 1.18038 5.59
      vertex -2.10344 1.52824 41.59
      vertex -2.10344 1.52824 5.59
    endloop
  endfacet
  facet normal -0.852628 0.522518 0
    outer loop
      vertex -2.10344 1.52824 41.59
      vertex -2.31662 1.18038 5.59
      vertex -2.31662 1.18038 41.59
    endloop
  endfacet
  facet normal -0.996917 0.0784584 0
    outer loop
      vertex -2.6 0 5.59
      vertex -2.56799 0.406729 41.59
      vertex -2.56799 0.406729 5.59
    endloop
  endfacet
  facet normal -0.996917 0.0784584 0
    outer loop
      vertex -2.56799 0.406729 41.59
      vertex -2.6 0 5.59
      vertex -2.6 0 41.59
    endloop
  endfacet
  facet normal 0.760418 -0.649434 0
    outer loop
      vertex 1.83848 -1.83848 41.59
      vertex 2.10344 -1.52824 5.59
      vertex 2.10344 -1.52824 41.59
    endloop
  endfacet
  facet normal 0.760418 -0.649434 0
    outer loop
      vertex 2.10344 -1.52824 5.59
      vertex 1.83848 -1.83848 41.59
      vertex 1.83848 -1.83848 5.59
    endloop
  endfacet
  facet normal -0.760418 -0.649434 0
    outer loop
      vertex -1.83848 -1.83848 5.59
      vertex -2.10344 -1.52824 41.59
      vertex -2.10344 -1.52824 5.59
    endloop
  endfacet
  facet normal -0.760418 -0.649434 0
    outer loop
      vertex -2.10344 -1.52824 41.59
      vertex -1.83848 -1.83848 5.59
      vertex -1.83848 -1.83848 41.59
    endloop
  endfacet
  facet normal 0.852628 0.522518 0
    outer loop
      vertex 2.31662 1.18038 41.59
      vertex 2.10344 1.52824 5.59
      vertex 2.10344 1.52824 41.59
    endloop
  endfacet
  facet normal 0.852628 0.522518 0
    outer loop
      vertex 2.10344 1.52824 5.59
      vertex 2.31662 1.18038 41.59
      vertex 2.31662 1.18038 5.59
    endloop
  endfacet
  facet normal -0.0784584 0.996917 0
    outer loop
      vertex 0 2.6 5.59
      vertex -0.406729 2.56799 41.59
      vertex 0 2.6 41.59
    endloop
  endfacet
  facet normal -0.0784584 0.996917 0
    outer loop
      vertex -0.406729 2.56799 41.59
      vertex 0 2.6 5.59
      vertex -0.406729 2.56799 5.59
    endloop
  endfacet
  facet normal -0.233439 -0.972372 0
    outer loop
      vertex -0.803444 -2.47275 5.59
      vertex -0.406729 -2.56799 41.59
      vertex -0.803444 -2.47275 41.59
    endloop
  endfacet
  facet normal -0.233439 -0.972372 -0
    outer loop
      vertex -0.406729 -2.56799 41.59
      vertex -0.803444 -2.47275 5.59
      vertex -0.406729 -2.56799 5.59
    endloop
  endfacet
  facet normal -0.649434 -0.760418 0
    outer loop
      vertex -1.83848 -1.83848 5.59
      vertex -1.52824 -2.10344 41.59
      vertex -1.83848 -1.83848 41.59
    endloop
  endfacet
  facet normal -0.649434 -0.760418 -0
    outer loop
      vertex -1.52824 -2.10344 41.59
      vertex -1.83848 -1.83848 5.59
      vertex -1.52824 -2.10344 5.59
    endloop
  endfacet
  facet normal -0.923881 0.382679 0
    outer loop
      vertex -2.47275 0.803444 5.59
      vertex -2.31662 1.18038 41.59
      vertex -2.31662 1.18038 5.59
    endloop
  endfacet
  facet normal -0.923881 0.382679 0
    outer loop
      vertex -2.31662 1.18038 41.59
      vertex -2.47275 0.803444 5.59
      vertex -2.47275 0.803444 41.59
    endloop
  endfacet
  facet normal -0.996917 -0.0784584 0
    outer loop
      vertex -2.56799 -0.406729 5.59
      vertex -2.6 0 41.59
      vertex -2.6 0 5.59
    endloop
  endfacet
  facet normal -0.996917 -0.0784584 0
    outer loop
      vertex -2.6 0 41.59
      vertex -2.56799 -0.406729 5.59
      vertex -2.56799 -0.406729 41.59
    endloop
  endfacet
  facet normal 0.233439 0.972372 -0
    outer loop
      vertex 0.803444 2.47275 5.59
      vertex 0.406729 2.56799 41.59
      vertex 0.803444 2.47275 41.59
    endloop
  endfacet
  facet normal 0.233439 0.972372 0
    outer loop
      vertex 0.406729 2.56799 41.59
      vertex 0.803444 2.47275 5.59
      vertex 0.406729 2.56799 5.59
    endloop
  endfacet
  facet normal 0.852628 -0.522518 0
    outer loop
      vertex 2.10344 -1.52824 41.59
      vertex 2.31662 -1.18038 5.59
      vertex 2.31662 -1.18038 41.59
    endloop
  endfacet
  facet normal 0.852628 -0.522518 0
    outer loop
      vertex 2.31662 -1.18038 5.59
      vertex 2.10344 -1.52824 41.59
      vertex 2.10344 -1.52824 5.59
    endloop
  endfacet
  facet normal -0.972372 0.233439 0
    outer loop
      vertex -2.56799 0.406729 5.59
      vertex -2.47275 0.803444 41.59
      vertex -2.47275 0.803444 5.59
    endloop
  endfacet
  facet normal -0.972372 0.233439 0
    outer loop
      vertex -2.47275 0.803444 41.59
      vertex -2.56799 0.406729 5.59
      vertex -2.56799 0.406729 41.59
    endloop
  endfacet
  facet normal -0.760418 0.649434 0
    outer loop
      vertex -2.10344 1.52824 5.59
      vertex -1.83848 1.83848 41.59
      vertex -1.83848 1.83848 5.59
    endloop
  endfacet
  facet normal -0.760418 0.649434 0
    outer loop
      vertex -1.83848 1.83848 41.59
      vertex -2.10344 1.52824 5.59
      vertex -2.10344 1.52824 41.59
    endloop
  endfacet
  facet normal 0.649434 0.760418 -0
    outer loop
      vertex 1.83848 1.83848 5.59
      vertex 1.52824 2.10344 41.59
      vertex 1.83848 1.83848 41.59
    endloop
  endfacet
  facet normal 0.649434 0.760418 0
    outer loop
      vertex 1.52824 2.10344 41.59
      vertex 1.83848 1.83848 5.59
      vertex 1.52824 2.10344 5.59
    endloop
  endfacet
  facet normal 0.382679 -0.923881 0
    outer loop
      vertex 0.803444 -2.47275 5.59
      vertex 1.18038 -2.31662 41.59
      vertex 0.803444 -2.47275 41.59
    endloop
  endfacet
  facet normal 0.382679 -0.923881 0
    outer loop
      vertex 1.18038 -2.31662 41.59
      vertex 0.803444 -2.47275 5.59
      vertex 1.18038 -2.31662 5.59
    endloop
  endfacet
  facet normal 0.522518 0.852628 -0
    outer loop
      vertex 1.52824 2.10344 5.59
      vertex 1.18038 2.31662 41.59
      vertex 1.52824 2.10344 41.59
    endloop
  endfacet
  facet normal 0.522518 0.852628 0
    outer loop
      vertex 1.18038 2.31662 41.59
      vertex 1.52824 2.10344 5.59
      vertex 1.18038 2.31662 5.59
    endloop
  endfacet
  facet normal -0.382679 -0.923881 0
    outer loop
      vertex -1.18038 -2.31662 5.59
      vertex -0.803444 -2.47275 41.59
      vertex -1.18038 -2.31662 41.59
    endloop
  endfacet
  facet normal -0.382679 -0.923881 -0
    outer loop
      vertex -0.803444 -2.47275 41.59
      vertex -1.18038 -2.31662 5.59
      vertex -0.803444 -2.47275 5.59
    endloop
  endfacet
  facet normal -0.233439 0.972372 0
    outer loop
      vertex -0.406729 2.56799 5.59
      vertex -0.803444 2.47275 41.59
      vertex -0.406729 2.56799 41.59
    endloop
  endfacet
  facet normal -0.233439 0.972372 0
    outer loop
      vertex -0.803444 2.47275 41.59
      vertex -0.406729 2.56799 5.59
      vertex -0.803444 2.47275 5.59
    endloop
  endfacet
  facet normal 0.923881 -0.382679 0
    outer loop
      vertex 2.31662 -1.18038 41.59
      vertex 2.47275 -0.803444 5.59
      vertex 2.47275 -0.803444 41.59
    endloop
  endfacet
  facet normal 0.923881 -0.382679 0
    outer loop
      vertex 2.47275 -0.803444 5.59
      vertex 2.31662 -1.18038 41.59
      vertex 2.31662 -1.18038 5.59
    endloop
  endfacet
  facet normal -0.382679 0.923881 0
    outer loop
      vertex -0.803444 2.47275 5.59
      vertex -1.18038 2.31662 41.59
      vertex -0.803444 2.47275 41.59
    endloop
  endfacet
  facet normal -0.382679 0.923881 0
    outer loop
      vertex -1.18038 2.31662 41.59
      vertex -0.803444 2.47275 5.59
      vertex -1.18038 2.31662 5.59
    endloop
  endfacet
  facet normal -0.522518 0.852628 0
    outer loop
      vertex -1.18038 2.31662 5.59
      vertex -1.52824 2.10344 41.59
      vertex -1.18038 2.31662 41.59
    endloop
  endfacet
  facet normal -0.522518 0.852628 0
    outer loop
      vertex -1.52824 2.10344 41.59
      vertex -1.18038 2.31662 5.59
      vertex -1.52824 2.10344 5.59
    endloop
  endfacet
  facet normal -0.923881 -0.382679 0
    outer loop
      vertex -2.31662 -1.18038 5.59
      vertex -2.47275 -0.803444 41.59
      vertex -2.47275 -0.803444 5.59
    endloop
  endfacet
  facet normal -0.923881 -0.382679 0
    outer loop
      vertex -2.47275 -0.803444 41.59
      vertex -2.31662 -1.18038 5.59
      vertex -2.31662 -1.18038 41.59
    endloop
  endfacet
  facet normal 0.923881 0.382679 0
    outer loop
      vertex 2.47275 0.803444 41.59
      vertex 2.31662 1.18038 5.59
      vertex 2.31662 1.18038 41.59
    endloop
  endfacet
  facet normal 0.923881 0.382679 0
    outer loop
      vertex 2.31662 1.18038 5.59
      vertex 2.47275 0.803444 41.59
      vertex 2.47275 0.803444 5.59
    endloop
  endfacet
  facet normal -0.0784584 -0.996917 0
    outer loop
      vertex -0.406729 -2.56799 5.59
      vertex 0 -2.6 41.59
      vertex -0.406729 -2.56799 41.59
    endloop
  endfacet
  facet normal -0.0784584 -0.996917 -0
    outer loop
      vertex 0 -2.6 41.59
      vertex -0.406729 -2.56799 5.59
      vertex 0 -2.6 5.59
    endloop
  endfacet
  facet normal -0.522518 -0.852628 0
    outer loop
      vertex -1.52824 -2.10344 5.59
      vertex -1.18038 -2.31662 41.59
      vertex -1.52824 -2.10344 41.59
    endloop
  endfacet
  facet normal -0.522518 -0.852628 -0
    outer loop
      vertex -1.18038 -2.31662 41.59
      vertex -1.52824 -2.10344 5.59
      vertex -1.18038 -2.31662 5.59
    endloop
  endfacet
  facet normal 0 0 -1
    outer loop
      vertex 1.55 0 5.59
      vertex 2.6 0 5.59
      vertex 2.56799 -0.406729 5.59
    endloop
  endfacet
  facet normal 0 0 -1
    outer loop
      vertex 1.53092 -0.242473 5.59
      vertex 2.56799 -0.406729 5.59
      vertex 2.47275 -0.803444 5.59
    endloop
  endfacet
  facet normal 0 0 -1
    outer loop
      vertex 2.6 0 5.59
      vertex 1.55 0 5.59
      vertex 2.56799 0.406729 5.59
    endloop
  endfacet
  facet normal 0 0 -1
    outer loop
      vertex 1.47414 -0.478976 5.59
      vertex 2.47275 -0.803444 5.59
      vertex 2.31662 -1.18038 5.59
    endloop
  endfacet
  facet normal 0 0 -1
    outer loop
      vertex 1.53092 0.242473 5.59
      vertex 2.56799 0.406729 5.59
      vertex 1.55 0 5.59
    endloop
  endfacet
  facet normal 0 0 -1
    outer loop
      vertex 1.38106 -0.703685 5.59
      vertex 2.31662 -1.18038 5.59
      vertex 2.10344 -1.52824 5.59
    endloop
  endfacet
  facet normal -0 0 -1
    outer loop
      vertex 2.56799 0.406729 5.59
      vertex 1.53092 0.242473 5.59
      vertex 2.47275 0.803444 5.59
    endloop
  endfacet
  facet normal 0 0 -1
    outer loop
      vertex 1.25398 -0.911067 5.59
      vertex 2.10344 -1.52824 5.59
      vertex 1.83848 -1.83848 5.59
    endloop
  endfacet
  facet normal 0 0 -1
    outer loop
      vertex 1.47414 0.478976 5.59
      vertex 2.47275 0.803444 5.59
      vertex 1.53092 0.242473 5.59
    endloop
  endfacet
  facet normal -0 0 -1
    outer loop
      vertex 2.47275 0.803444 5.59
      vertex 1.47414 0.478976 5.59
      vertex 2.31662 1.18038 5.59
    endloop
  endfacet
  facet normal 0 0 -1
    outer loop
      vertex 2.56799 -0.406729 5.59
      vertex 1.53092 -0.242473 5.59
      vertex 1.55 0 5.59
    endloop
  endfacet
  facet normal 0 0 -1
    outer loop
      vertex 1.09601 -1.09601 5.59
      vertex 1.83848 -1.83848 5.59
      vertex 1.52824 -2.10344 5.59
    endloop
  endfacet
  facet normal 0 0 -1
    outer loop
      vertex 2.47275 -0.803444 5.59
      vertex 1.47414 -0.478976 5.59
      vertex 1.53092 -0.242473 5.59
    endloop
  endfacet
  facet normal 0 0 -1
    outer loop
      vertex 2.31662 -1.18038 5.59
      vertex 1.38106 -0.703685 5.59
      vertex 1.47414 -0.478976 5.59
    endloop
  endfacet
  facet normal 0 0 -1
    outer loop
      vertex 2.10344 -1.52824 5.59
      vertex 1.25398 -0.911067 5.59
      vertex 1.38106 -0.703685 5.59
    endloop
  endfacet
  facet normal 0 0 -1
    outer loop
      vertex 0.911067 -1.25398 5.59
      vertex 1.52824 -2.10344 5.59
      vertex 1.18038 -2.31662 5.59
    endloop
  endfacet
  facet normal 0 0 -1
    outer loop
      vertex 1.83848 -1.83848 5.59
      vertex 1.09601 -1.09601 5.59
      vertex 1.25398 -0.911067 5.59
    endloop
  endfacet
  facet normal 0 0 -1
    outer loop
      vertex 1.52824 -2.10344 5.59
      vertex 0.911067 -1.25398 5.59
      vertex 1.09601 -1.09601 5.59
    endloop
  endfacet
  facet normal 0 0 -1
    outer loop
      vertex 0.703685 -1.38106 5.59
      vertex 1.18038 -2.31662 5.59
      vertex 0.803444 -2.47275 5.59
    endloop
  endfacet
  facet normal 0 0 -1
    outer loop
      vertex 1.18038 -2.31662 5.59
      vertex 0.703685 -1.38106 5.59
      vertex 0.911067 -1.25398 5.59
    endloop
  endfacet
  facet normal 0 0 -1
    outer loop
      vertex 0.803444 -2.47275 5.59
      vertex 0.478976 -1.47414 5.59
      vertex 0.703685 -1.38106 5.59
    endloop
  endfacet
  facet normal 0 0 -1
    outer loop
      vertex 0.406729 -2.56799 5.59
      vertex 0.478976 -1.47414 5.59
      vertex 0.803444 -2.47275 5.59
    endloop
  endfacet
  facet normal 0 0 -1
    outer loop
      vertex 0.406729 -2.56799 5.59
      vertex 0.242473 -1.53092 5.59
      vertex 0.478976 -1.47414 5.59
    endloop
  endfacet
  facet normal 0 0 -1
    outer loop
      vertex 0 -2.6 5.59
      vertex 0.242473 -1.53092 5.59
      vertex 0.406729 -2.56799 5.59
    endloop
  endfacet
  facet normal 0 0 -1
    outer loop
      vertex 0 -2.6 5.59
      vertex 0 -1.55 5.59
      vertex 0.242473 -1.53092 5.59
    endloop
  endfacet
  facet normal 0 0 -1
    outer loop
      vertex 0 -2.6 5.59
      vertex -0.242473 -1.53092 5.59
      vertex 0 -1.55 5.59
    endloop
  endfacet
  facet normal 0 0 -1
    outer loop
      vertex -0.406729 -2.56799 5.59
      vertex -0.242473 -1.53092 5.59
      vertex 0 -2.6 5.59
    endloop
  endfacet
  facet normal 0 0 -1
    outer loop
      vertex -0.406729 -2.56799 5.59
      vertex -0.478976 -1.47414 5.59
      vertex -0.242473 -1.53092 5.59
    endloop
  endfacet
  facet normal 0 0 -1
    outer loop
      vertex -0.803444 -2.47275 5.59
      vertex -0.478976 -1.47414 5.59
      vertex -0.406729 -2.56799 5.59
    endloop
  endfacet
  facet normal -0 0 -1
    outer loop
      vertex -0.478976 -1.47414 5.59
      vertex -0.803444 -2.47275 5.59
      vertex -0.703685 -1.38106 5.59
    endloop
  endfacet
  facet normal 0 0 -1
    outer loop
      vertex -1.18038 -2.31662 5.59
      vertex -0.703685 -1.38106 5.59
      vertex -0.803444 -2.47275 5.59
    endloop
  endfacet
  facet normal -0 0 -1
    outer loop
      vertex -0.703685 -1.38106 5.59
      vertex -1.18038 -2.31662 5.59
      vertex -0.911067 -1.25398 5.59
    endloop
  endfacet
  facet normal 0 0 -1
    outer loop
      vertex -1.52824 -2.10344 5.59
      vertex -0.911067 -1.25398 5.59
      vertex -1.18038 -2.31662 5.59
    endloop
  endfacet
  facet normal -0 0 -1
    outer loop
      vertex -0.911067 -1.25398 5.59
      vertex -1.52824 -2.10344 5.59
      vertex -1.09601 -1.09601 5.59
    endloop
  endfacet
  facet normal 0 0 -1
    outer loop
      vertex -1.83848 -1.83848 5.59
      vertex -1.09601 -1.09601 5.59
      vertex -1.52824 -2.10344 5.59
    endloop
  endfacet
  facet normal -0 0 -1
    outer loop
      vertex -1.09601 -1.09601 5.59
      vertex -1.83848 -1.83848 5.59
      vertex -1.25398 -0.911067 5.59
    endloop
  endfacet
  facet normal 0 0 -1
    outer loop
      vertex -2.10344 -1.52824 5.59
      vertex -1.25398 -0.911067 5.59
      vertex -1.83848 -1.83848 5.59
    endloop
  endfacet
  facet normal -0 0 -1
    outer loop
      vertex -1.25398 -0.911067 5.59
      vertex -2.10344 -1.52824 5.59
      vertex -1.38106 -0.703685 5.59
    endloop
  endfacet
  facet normal 0 0 -1
    outer loop
      vertex -2.31662 -1.18038 5.59
      vertex -1.38106 -0.703685 5.59
      vertex -2.10344 -1.52824 5.59
    endloop
  endfacet
  facet normal -0 0 -1
    outer loop
      vertex -1.38106 -0.703685 5.59
      vertex -2.31662 -1.18038 5.59
      vertex -1.47414 -0.478976 5.59
    endloop
  endfacet
  facet normal 0 0 -1
    outer loop
      vertex 1.38106 0.703685 5.59
      vertex 2.31662 1.18038 5.59
      vertex 1.47414 0.478976 5.59
    endloop
  endfacet
  facet normal -0 0 -1
    outer loop
      vertex 2.31662 1.18038 5.59
      vertex 1.38106 0.703685 5.59
      vertex 2.10344 1.52824 5.59
    endloop
  endfacet
  facet normal 0 0 -1
    outer loop
      vertex 1.25398 0.911067 5.59
      vertex 2.10344 1.52824 5.59
      vertex 1.38106 0.703685 5.59
    endloop
  endfacet
  facet normal -0 0 -1
    outer loop
      vertex 2.10344 1.52824 5.59
      vertex 1.25398 0.911067 5.59
      vertex 1.83848 1.83848 5.59
    endloop
  endfacet
  facet normal 0 0 -1
    outer loop
      vertex 1.09601 1.09601 5.59
      vertex 1.83848 1.83848 5.59
      vertex 1.25398 0.911067 5.59
    endloop
  endfacet
  facet normal -0 0 -1
    outer loop
      vertex 1.83848 1.83848 5.59
      vertex 1.09601 1.09601 5.59
      vertex 1.52824 2.10344 5.59
    endloop
  endfacet
  facet normal 0 0 -1
    outer loop
      vertex 0.911067 1.25398 5.59
      vertex 1.52824 2.10344 5.59
      vertex 1.09601 1.09601 5.59
    endloop
  endfacet
  facet normal -0 0 -1
    outer loop
      vertex 1.52824 2.10344 5.59
      vertex 0.911067 1.25398 5.59
      vertex 1.18038 2.31662 5.59
    endloop
  endfacet
  facet normal 0 0 -1
    outer loop
      vertex 0.703685 1.38106 5.59
      vertex 1.18038 2.31662 5.59
      vertex 0.911067 1.25398 5.59
    endloop
  endfacet
  facet normal -0 0 -1
    outer loop
      vertex 1.18038 2.31662 5.59
      vertex 0.703685 1.38106 5.59
      vertex 0.803444 2.47275 5.59
    endloop
  endfacet
  facet normal 0 0 -1
    outer loop
      vertex 0.478976 1.47414 5.59
      vertex 0.803444 2.47275 5.59
      vertex 0.703685 1.38106 5.59
    endloop
  endfacet
  facet normal 0 0 -1
    outer loop
      vertex 0.478976 1.47414 5.59
      vertex 0.406729 2.56799 5.59
      vertex 0.803444 2.47275 5.59
    endloop
  endfacet
  facet normal 0 0 -1
    outer loop
      vertex 0.242473 1.53092 5.59
      vertex 0.406729 2.56799 5.59
      vertex 0.478976 1.47414 5.59
    endloop
  endfacet
  facet normal 0 0 -1
    outer loop
      vertex 0 1.55 5.59
      vertex 0.406729 2.56799 5.59
      vertex 0.242473 1.53092 5.59
    endloop
  endfacet
  facet normal 0 0 -1
    outer loop
      vertex 0 1.55 5.59
      vertex 0 2.6 5.59
      vertex 0.406729 2.56799 5.59
    endloop
  endfacet
  facet normal 0 0 -1
    outer loop
      vertex -0.242473 1.53092 5.59
      vertex 0 2.6 5.59
      vertex 0 1.55 5.59
    endloop
  endfacet
  facet normal 0 0 -1
    outer loop
      vertex -0.242473 1.53092 5.59
      vertex -0.406729 2.56799 5.59
      vertex 0 2.6 5.59
    endloop
  endfacet
  facet normal 0 0 -1
    outer loop
      vertex -0.478976 1.47414 5.59
      vertex -0.406729 2.56799 5.59
      vertex -0.242473 1.53092 5.59
    endloop
  endfacet
  facet normal 0 0 -1
    outer loop
      vertex -0.803444 2.47275 5.59
      vertex -0.478976 1.47414 5.59
      vertex -0.703685 1.38106 5.59
    endloop
  endfacet
  facet normal 0 0 -1
    outer loop
      vertex -0.478976 1.47414 5.59
      vertex -0.803444 2.47275 5.59
      vertex -0.406729 2.56799 5.59
    endloop
  endfacet
  facet normal 0 0 -1
    outer loop
      vertex -1.18038 2.31662 5.59
      vertex -0.703685 1.38106 5.59
      vertex -0.911067 1.25398 5.59
    endloop
  endfacet
  facet normal 0 0 -1
    outer loop
      vertex -1.52824 2.10344 5.59
      vertex -0.911067 1.25398 5.59
      vertex -1.09601 1.09601 5.59
    endloop
  endfacet
  facet normal 0 0 -1
    outer loop
      vertex -0.703685 1.38106 5.59
      vertex -1.18038 2.31662 5.59
      vertex -0.803444 2.47275 5.59
    endloop
  endfacet
  facet normal 0 0 -1
    outer loop
      vertex -1.83848 1.83848 5.59
      vertex -1.09601 1.09601 5.59
      vertex -1.25398 0.911067 5.59
    endloop
  endfacet
  facet normal 0 0 -1
    outer loop
      vertex -2.10344 1.52824 5.59
      vertex -1.25398 0.911067 5.59
      vertex -1.38106 0.703685 5.59
    endloop
  endfacet
  facet normal 0 0 -1
    outer loop
      vertex -2.31662 1.18038 5.59
      vertex -1.38106 0.703685 5.59
      vertex -1.47414 0.478976 5.59
    endloop
  endfacet
  facet normal 0 0 -1
    outer loop
      vertex -0.911067 1.25398 5.59
      vertex -1.52824 2.10344 5.59
      vertex -1.18038 2.31662 5.59
    endloop
  endfacet
  facet normal 0 0 -1
    outer loop
      vertex -2.47275 0.803444 5.59
      vertex -1.47414 0.478976 5.59
      vertex -1.53092 0.242473 5.59
    endloop
  endfacet
  facet normal 0 0 -1
    outer loop
      vertex -2.56799 0.406729 5.59
      vertex -1.53092 0.242473 5.59
      vertex -1.55 0 5.59
    endloop
  endfacet
  facet normal 0 0 -1
    outer loop
      vertex -2.47275 -0.803444 5.59
      vertex -1.47414 -0.478976 5.59
      vertex -2.31662 -1.18038 5.59
    endloop
  endfacet
  facet normal 0 0 -1
    outer loop
      vertex -1.09601 1.09601 5.59
      vertex -1.83848 1.83848 5.59
      vertex -1.52824 2.10344 5.59
    endloop
  endfacet
  facet normal -0 0 -1
    outer loop
      vertex -1.47414 -0.478976 5.59
      vertex -2.47275 -0.803444 5.59
      vertex -1.53092 -0.242473 5.59
    endloop
  endfacet
  facet normal 0 0 -1
    outer loop
      vertex -1.25398 0.911067 5.59
      vertex -2.10344 1.52824 5.59
      vertex -1.83848 1.83848 5.59
    endloop
  endfacet
  facet normal 0 0 -1
    outer loop
      vertex -2.56799 -0.406729 5.59
      vertex -1.53092 -0.242473 5.59
      vertex -2.47275 -0.803444 5.59
    endloop
  endfacet
  facet normal 0 0 -1
    outer loop
      vertex -1.38106 0.703685 5.59
      vertex -2.31662 1.18038 5.59
      vertex -2.10344 1.52824 5.59
    endloop
  endfacet
  facet normal -0 0 -1
    outer loop
      vertex -1.53092 -0.242473 5.59
      vertex -2.56799 -0.406729 5.59
      vertex -1.55 0 5.59
    endloop
  endfacet
  facet normal 0 0 -1
    outer loop
      vertex -1.47414 0.478976 5.59
      vertex -2.47275 0.803444 5.59
      vertex -2.31662 1.18038 5.59
    endloop
  endfacet
  facet normal 0 0 -1
    outer loop
      vertex -2.6 0 5.59
      vertex -1.55 0 5.59
      vertex -2.56799 -0.406729 5.59
    endloop
  endfacet
  facet normal 0 0 -1
    outer loop
      vertex -1.53092 0.242473 5.59
      vertex -2.56799 0.406729 5.59
      vertex -2.47275 0.803444 5.59
    endloop
  endfacet
  facet normal 0 0 -1
    outer loop
      vertex -1.55 0 5.59
      vertex -2.6 0 5.59
      vertex -2.56799 0.406729 5.59
    endloop
  endfacet
  facet normal 0 0 1
    outer loop
      vertex 2.56799 0.406729 41.59
      vertex 2.56799 -0.406729 41.59
      vertex 2.6 0 41.59
    endloop
  endfacet
  facet normal 0 0 1
    outer loop
      vertex 2.47275 0.803444 41.59
      vertex 2.56799 -0.406729 41.59
      vertex 2.56799 0.406729 41.59
    endloop
  endfacet
  facet normal 0 0 1
    outer loop
      vertex 2.47275 0.803444 41.59
      vertex 2.47275 -0.803444 41.59
      vertex 2.56799 -0.406729 41.59
    endloop
  endfacet
  facet normal 0 0 1
    outer loop
      vertex 2.31662 1.18038 41.59
      vertex 2.47275 -0.803444 41.59
      vertex 2.47275 0.803444 41.59
    endloop
  endfacet
  facet normal 0 0 1
    outer loop
      vertex 2.31662 1.18038 41.59
      vertex 2.31662 -1.18038 41.59
      vertex 2.47275 -0.803444 41.59
    endloop
  endfacet
  facet normal 0 0 1
    outer loop
      vertex 2.10344 1.52824 41.59
      vertex 2.31662 -1.18038 41.59
      vertex 2.31662 1.18038 41.59
    endloop
  endfacet
  facet normal 0 0 1
    outer loop
      vertex 2.10344 1.52824 41.59
      vertex 2.10344 -1.52824 41.59
      vertex 2.31662 -1.18038 41.59
    endloop
  endfacet
  facet normal 0 0 1
    outer loop
      vertex 1.83848 1.83848 41.59
      vertex 2.10344 -1.52824 41.59
      vertex 2.10344 1.52824 41.59
    endloop
  endfacet
  facet normal 0 0 1
    outer loop
      vertex 1.83848 1.83848 41.59
      vertex 1.83848 -1.83848 41.59
      vertex 2.10344 -1.52824 41.59
    endloop
  endfacet
  facet normal 0 0 1
    outer loop
      vertex 1.52824 2.10344 41.59
      vertex 1.83848 -1.83848 41.59
      vertex 1.83848 1.83848 41.59
    endloop
  endfacet
  facet normal 0 0 1
    outer loop
      vertex 1.52824 2.10344 41.59
      vertex 1.52824 -2.10344 41.59
      vertex 1.83848 -1.83848 41.59
    endloop
  endfacet
  facet normal 0 0 1
    outer loop
      vertex 1.18038 2.31662 41.59
      vertex 1.52824 -2.10344 41.59
      vertex 1.52824 2.10344 41.59
    endloop
  endfacet
  facet normal 0 0 1
    outer loop
      vertex 1.18038 2.31662 41.59
      vertex 1.18038 -2.31662 41.59
      vertex 1.52824 -2.10344 41.59
    endloop
  endfacet
  facet normal 0 0 1
    outer loop
      vertex 0.803444 2.47275 41.59
      vertex 1.18038 -2.31662 41.59
      vertex 1.18038 2.31662 41.59
    endloop
  endfacet
  facet normal 0 0 1
    outer loop
      vertex 0.803444 2.47275 41.59
      vertex 0.803444 -2.47275 41.59
      vertex 1.18038 -2.31662 41.59
    endloop
  endfacet
  facet normal 0 0 1
    outer loop
      vertex 0.406729 2.56799 41.59
      vertex 0.803444 -2.47275 41.59
      vertex 0.803444 2.47275 41.59
    endloop
  endfacet
  facet normal 0 0 1
    outer loop
      vertex 0.406729 2.56799 41.59
      vertex 0.406729 -2.56799 41.59
      vertex 0.803444 -2.47275 41.59
    endloop
  endfacet
  facet normal 0 0 1
    outer loop
      vertex 0 2.6 41.59
      vertex 0.406729 -2.56799 41.59
      vertex 0.406729 2.56799 41.59
    endloop
  endfacet
  facet normal 0 0 1
    outer loop
      vertex 0 2.6 41.59
      vertex 0 -2.6 41.59
      vertex 0.406729 -2.56799 41.59
    endloop
  endfacet
  facet normal -0 0 1
    outer loop
      vertex -0.406729 2.56799 41.59
      vertex 0 -2.6 41.59
      vertex 0 2.6 41.59
    endloop
  endfacet
  facet normal 0 0 1
    outer loop
      vertex -0.406729 2.56799 41.59
      vertex -0.406729 -2.56799 41.59
      vertex 0 -2.6 41.59
    endloop
  endfacet
  facet normal -0 0 1
    outer loop
      vertex -0.803444 2.47275 41.59
      vertex -0.406729 -2.56799 41.59
      vertex -0.406729 2.56799 41.59
    endloop
  endfacet
  facet normal 0 0 1
    outer loop
      vertex -0.803444 2.47275 41.59
      vertex -0.803444 -2.47275 41.59
      vertex -0.406729 -2.56799 41.59
    endloop
  endfacet
  facet normal -0 0 1
    outer loop
      vertex -1.18038 2.31662 41.59
      vertex -0.803444 -2.47275 41.59
      vertex -0.803444 2.47275 41.59
    endloop
  endfacet
  facet normal 0 0 1
    outer loop
      vertex -1.18038 2.31662 41.59
      vertex -1.18038 -2.31662 41.59
      vertex -0.803444 -2.47275 41.59
    endloop
  endfacet
  facet normal -0 0 1
    outer loop
      vertex -1.52824 2.10344 41.59
      vertex -1.18038 -2.31662 41.59
      vertex -1.18038 2.31662 41.59
    endloop
  endfacet
  facet normal 0 0 1
    outer loop
      vertex -1.52824 2.10344 41.59
      vertex -1.52824 -2.10344 41.59
      vertex -1.18038 -2.31662 41.59
    endloop
  endfacet
  facet normal -0 0 1
    outer loop
      vertex -1.83848 1.83848 41.59
      vertex -1.52824 -2.10344 41.59
      vertex -1.52824 2.10344 41.59
    endloop
  endfacet
  facet normal 0 0 1
    outer loop
      vertex -1.83848 1.83848 41.59
      vertex -1.83848 -1.83848 41.59
      vertex -1.52824 -2.10344 41.59
    endloop
  endfacet
  facet normal -0 0 1
    outer loop
      vertex -2.10344 1.52824 41.59
      vertex -1.83848 -1.83848 41.59
      vertex -1.83848 1.83848 41.59
    endloop
  endfacet
  facet normal 0 0 1
    outer loop
      vertex -2.10344 1.52824 41.59
      vertex -2.10344 -1.52824 41.59
      vertex -1.83848 -1.83848 41.59
    endloop
  endfacet
  facet normal -0 0 1
    outer loop
      vertex -2.31662 1.18038 41.59
      vertex -2.10344 -1.52824 41.59
      vertex -2.10344 1.52824 41.59
    endloop
  endfacet
  facet normal 0 0 1
    outer loop
      vertex -2.31662 1.18038 41.59
      vertex -2.31662 -1.18038 41.59
      vertex -2.10344 -1.52824 41.59
    endloop
  endfacet
  facet normal -0 0 1
    outer loop
      vertex -2.47275 0.803444 41.59
      vertex -2.31662 -1.18038 41.59
      vertex -2.31662 1.18038 41.59
    endloop
  endfacet
  facet normal 0 0 1
    outer loop
      vertex -2.47275 0.803444 41.59
      vertex -2.47275 -0.803444 41.59
      vertex -2.31662 -1.18038 41.59
    endloop
  endfacet
  facet normal -0 0 1
    outer loop
      vertex -2.56799 0.406729 41.59
      vertex -2.47275 -0.803444 41.59
      vertex -2.47275 0.803444 41.59
    endloop
  endfacet
  facet normal 0 0 1
    outer loop
      vertex -2.56799 0.406729 41.59
      vertex -2.56799 -0.406729 41.59
      vertex -2.47275 -0.803444 41.59
    endloop
  endfacet
  facet normal 0 -0 1
    outer loop
      vertex -2.56799 -0.406729 41.59
      vertex -2.56799 0.406729 41.59
      vertex -2.6 0 41.59
    endloop
  endfacet
endsolid OpenSCAD_Model
