<?xml version="1.0" encoding="UTF-8" standalone="no"?>
<!-- Created with Inkscape (http://www.inkscape.org/) -->

<svg
   xmlns:dc="http://purl.org/dc/elements/1.1/"
   xmlns:cc="http://creativecommons.org/ns#"
   xmlns:rdf="http://www.w3.org/1999/02/22-rdf-syntax-ns#"
   xmlns:svg="http://www.w3.org/2000/svg"
   xmlns="http://www.w3.org/2000/svg"
   xmlns:sodipodi="http://sodipodi.sourceforge.net/DTD/sodipodi-0.dtd"
   xmlns:inkscape="http://www.inkscape.org/namespaces/inkscape"
   width="279.39999mm"
   height="215.89999mm"
   viewBox="0 0 990.00001 765"
   id="svg2"
   version="1.1"
   inkscape:version="0.91 r13725"
   sodipodi:docname="scifi-big-door.svg">
  <defs
     id="defs4" />
  <sodipodi:namedview
     id="base"
     pagecolor="#ffffff"
     bordercolor="#666666"
     borderopacity="1.0"
     inkscape:pageopacity="0.0"
     inkscape:pageshadow="2"
     inkscape:zoom="1.7469907"
     inkscape:cx="249.352"
     inkscape:cy="159.31384"
     inkscape:document-units="mm"
     inkscape:current-layer="layer1"
     showgrid="true"
     units="mm"
     inkscape:window-width="1440"
     inkscape:window-height="852"
     inkscape:window-x="0"
     inkscape:window-y="0"
     inkscape:window-maximized="1">
    <inkscape:grid
       type="xygrid"
       id="grid4000"
       units="mm"
       spacingx="7.0866142"
       spacingy="7.0866142"
       dotted="false"
       empspacing="5" />
  </sodipodi:namedview>
  <metadata
     id="metadata7">
    <rdf:RDF>
      <cc:Work
         rdf:about="">
        <dc:format>image/svg+xml</dc:format>
        <dc:type
           rdf:resource="http://purl.org/dc/dcmitype/StillImage" />
        <dc:title />
      </cc:Work>
    </rdf:RDF>
  </metadata>
  <g
     inkscape:label="Layer 1"
     inkscape:groupmode="layer"
     id="layer1"
     transform="translate(0,-287.36218)">
    <path
       style="fill:none;fill-rule:evenodd;stroke:#000000;stroke-width:1px;stroke-linecap:butt;stroke-linejoin:miter;stroke-opacity:1"
       d="m 0,1052.3622 0,-49.937 7.2277204,-6.57066 0,-34.82446 L 0,953.14529 0,910.6299 l 35.433071,-35.43307 70.866139,0 14.17323,14.17322 63.77953,0 14.17323,-14.17322 99.21259,0 14.17323,14.17322 63.77953,0 14.17323,-14.17322 70.86614,0 35.43307,35.43307 0,42.51968 -7.08662,7.08662 0,35.43307 7.08662,7.08663 0,49.6063 z"
       id="outline"
       inkscape:connector-curvature="0"
       sodipodi:nodetypes="ccccccccccccccccccccccc"
       inkscape:label="#path4040" />
    <path
       style="fill:none;fill-rule:evenodd;stroke:#000000;stroke-width:1px;stroke-linecap:butt;stroke-linejoin:miter;stroke-opacity:1"
       d="m 28.346457,1052.3622 0,-49.6063 7.086614,-7.08663 0,-35.43307 -7.086614,-7.08662 0,-35.43307 14.173228,-14.17323 56.692913,0 14.173232,14.17323 269.29133,0 14.17323,-14.17323 56.69291,0 14.17323,14.17323 0,35.43307 -7.08661,7.08662 0,35.43307 7.08661,7.08663 0,49.6063 z"
       id="doorinside"
       inkscape:connector-curvature="0"
       inkscape:label="#path4042" />
    <path
       style="fill:none;fill-rule:evenodd;stroke:#000000;stroke-width:1px;stroke-linecap:butt;stroke-linejoin:miter;stroke-opacity:1"
       d="m 42.519685,953.14958 0,-28.34646 7.086614,-7.08661 49.606299,0 7.086612,7.08661 0,21.34041 -28.838301,28.26589 -27.85461,0 -7.086614,-7.08661 z"
       id="doordetail7"
       inkscape:connector-curvature="0"
       sodipodi:nodetypes="cccccccccc"
       inkscape:label="#path4044" />
    <path
       style="fill:none;fill-rule:evenodd;stroke:#000000;stroke-width:1px;stroke-linecap:butt;stroke-linejoin:miter;stroke-opacity:1"
       d="m 49.606299,981.49604 -7.086614,7.08661 0,14.17325 -7.086614,7.0866 0,35.4331 134.645669,0 7.08661,-7.0866 0,-106.29926 -7.08661,-7.08662 -49.6063,0 -7.08661,7.08662 0,21.25984 -28.34646,28.34646 z"
       id="doordetail5"
       inkscape:connector-curvature="0"
       inkscape:label="#path4046" />
    <path
       style="fill:none;fill-rule:evenodd;stroke:#000000;stroke-width:1px;stroke-linecap:butt;stroke-linejoin:miter;stroke-opacity:1"
       d="m 233.85827,917.71651 0,42.51969 21.25984,21.25984 0,70.86616 7.08661,0 0,-71.08383 -21.25984,-21.04217 0,-42.51969 z"
       id="doorsplit"
       inkscape:connector-curvature="0"
       sodipodi:nodetypes="ccccccccc"
       inkscape:label="#path4048" />
    <path
       style="fill:none;fill-rule:evenodd;stroke:#000000;stroke-width:1px;stroke-linecap:butt;stroke-linejoin:miter;stroke-opacity:1"
       d="m 191.33858,924.80312 -7.08661,7.08662 0,106.29926 7.08661,7.0866 56.69291,0 0,-56.69295 -21.25984,-21.25984 0,-35.43307 -7.08661,-7.08662 z"
       id="doordetail4"
       inkscape:connector-curvature="0"
       inkscape:label="#path4050" />
    <path
       style="fill:none;fill-rule:evenodd;stroke:#000000;stroke-width:1px;stroke-linecap:butt;stroke-linejoin:miter;stroke-opacity:1"
       d="m 248.03149,932.24449 0,20.90509 21.25985,21.25984 0,63.77958 -0.35476,7.0866 35.78783,0 7.08661,-7.0866 0,-106.29926 -7.08661,-7.08662 -50.00068,0 z"
       id="doordetail3"
       inkscape:connector-curvature="0"
       sodipodi:nodetypes="ccccccccccc"
       inkscape:label="#path4052" />
    <path
       style="fill:none;fill-rule:evenodd;stroke:#000000;stroke-width:1px;stroke-linecap:butt;stroke-linejoin:miter;stroke-opacity:1"
       d="m 446.36053,981.82675 7.08662,7.08661 0,14.17324 7.08661,7.0866 0,35.4331 -134.64567,0 -7.08661,-7.0866 0,-106.29925 7.08661,-7.08662 49.6063,0 7.08661,7.08662 0,21.25984 28.34646,28.34646 z"
       id="doordetail2"
       inkscape:connector-curvature="0"
       inkscape:label="#path4046-8" />
    <path
       style="fill:none;fill-rule:evenodd;stroke:#000000;stroke-width:1px;stroke-linecap:butt;stroke-linejoin:miter;stroke-opacity:1"
       d="m 453.61674,952.85135 0,-28.34646 -7.08661,-7.08661 -49.60631,0 -7.08661,7.08661 0,21.34041 28.8383,28.26589 27.85462,0 7.08661,-7.08661 z"
       id="doordetail1"
       inkscape:connector-curvature="0"
       sodipodi:nodetypes="cccccccccc"
       inkscape:label="#path4044-7" />
    <path
       style="fill:none;fill-rule:evenodd;stroke:#000000;stroke-width:1px;stroke-linecap:butt;stroke-linejoin:miter;stroke-opacity:1"
       d="m 198.4252,889.37005 7.08661,-7.08661 85.03937,0 7.08661,7.08661 0,21.25985 -99.21259,0 z"
       id="box2"
       inkscape:connector-curvature="0"
       inkscape:label="#path4084" />
    <path
       style="fill:none;fill-rule:evenodd;stroke:#000000;stroke-width:1px;stroke-linecap:butt;stroke-linejoin:miter;stroke-opacity:1"
       d="m 396.85039,882.28344 56.69291,0 0,14.17323 -56.69291,0 0,-14.17323 z"
       id="box3"
       inkscape:connector-curvature="0"
       inkscape:label="#path4086" />
    <path
       style="fill:none;fill-rule:evenodd;stroke:#000000;stroke-width:1px;stroke-linecap:butt;stroke-linejoin:miter;stroke-opacity:1"
       d="m 42.519685,882.28344 56.692913,0 0,14.17323 -56.692913,0 z"
       id="box1"
       inkscape:connector-curvature="0"
       inkscape:label="#path4088" />
    <path
       style="fill:none;fill-rule:evenodd;stroke:#000000;stroke-width:1px;stroke-linecap:butt;stroke-linejoin:miter;stroke-opacity:1"
       d="m 481.88976,910.6299 -7.08661,0 0,42.51968 7.08661,0 z"
       id="box4"
       inkscape:connector-curvature="0"
       inkscape:label="#path4090" />
    <path
       style="fill:none;fill-rule:evenodd;stroke:#000000;stroke-width:1px;stroke-linecap:butt;stroke-linejoin:miter;stroke-opacity:1"
       d="m 488.97637,1009.8425 0,42.5197 -7.08661,0 0,-42.5197 z"
       id="box5"
       inkscape:connector-curvature="0"
       inkscape:label="#path4092" />
    <path
       style="fill:none;fill-rule:evenodd;stroke:#000000;stroke-width:1px;stroke-linecap:butt;stroke-linejoin:miter;stroke-opacity:1"
       d="m 7.0866141,1052.3622 0,-42.5197 7.0866139,0 0,42.5197 z"
       id="box6"
       inkscape:connector-curvature="0"
       inkscape:label="#path4094" />
    <path
       style="fill:none;fill-rule:evenodd;stroke:#000000;stroke-width:1px;stroke-linecap:butt;stroke-linejoin:miter;stroke-opacity:1"
       d="m 21.259842,953.14958 0,-42.51968 -7.086614,0 0,42.51968 z"
       id="box7"
       inkscape:connector-curvature="0"
       inkscape:label="#path4096" />
  </g>
</svg>
