solid OpenSCAD_Model
  facet normal 0.278435 -0.949919 -0.14187
    outer loop
      vertex -0.159192 -0.373174 26.0517
      vertex -0.135417 -0.373174 26.0984
      vertex -0.392996 -0.476624 26.2855
    endloop
  endfacet
  facet normal -0.574497 -0.583014 0.574497
    outer loop
      vertex 0.44472 -0.673396 25.3879
      vertex 0.771297 -0.944231 25.4396
      vertex 0.612105 -0.673396 25.5553
    endloop
  endfacet
  facet normal -0.574498 -0.583015 0.574496
    outer loop
      vertex 0.771297 -0.944231 25.4396
      vertex 0.44472 -0.673396 25.3879
      vertex 0.56038 -0.944231 25.2287
    endloop
  endfacet
  facet normal -0.673287 -0.305571 -0.673284
    outer loop
      vertex 0.85499 -1.26262 26.6212
      vertex 0.56038 -0.944231 26.7713
      vertex 0.771297 -0.944231 26.5604
    endloop
  endfacet
  facet normal -0.673287 -0.305571 -0.673284
    outer loop
      vertex 0.56038 -0.944231 26.7713
      vertex 0.85499 -1.26262 26.6212
      vertex 0.621186 -1.26262 26.855
    endloop
  endfacet
  facet normal -0.0488849 -0.949919 0.308648
    outer loop
      vertex 0.15011 -0.476624 25.538
      vertex 0.0517244 -0.373174 25.8408
      vertex 0 -0.476624 25.5142
    endloop
  endfacet
  facet normal 0.269009 -0.805535 -0.527965
    outer loop
      vertex -0.15011 -0.476624 26.462
      vertex -0.233803 -0.673396 26.7196
      vertex -0.285528 -0.476624 26.393
    endloop
  endfacet
  facet normal -0.940447 -0.305569 -0.148952
    outer loop
      vertex 1.05683 -1.26262 26
      vertex 1.0051 -1.26262 26.3266
      vertex 0.953377 -0.944231 26
    endloop
  endfacet
  facet normal -0.987688 0 -0.156434
    outer loop
      vertex 1.05683 -1.43 26
      vertex 1.0051 -1.26262 26.3266
      vertex 1.05683 -1.26262 26
    endloop
  endfacet
  facet normal -0.987688 -0 -0.156434
    outer loop
      vertex 1.0051 -1.26262 26.3266
      vertex 1.05683 -1.43 26
      vertex 1.0051 -1.43 26.3266
    endloop
  endfacet
  facet normal 0.940446 -0.305571 -0.148955
    outer loop
      vertex -0.953377 -0.944231 26
      vertex -0.906714 -0.944231 26.2946
      vertex -1.0051 -1.26262 26.3266
    endloop
  endfacet
  facet normal -0.127092 -0.58302 0.802456
    outer loop
      vertex 0 -0.944231 25.0466
      vertex 0.233803 -0.673396 25.2804
      vertex 0 -0.673396 25.2434
    endloop
  endfacet
  facet normal 0.527966 -0.805534 0.26901
    outer loop
      vertex -0.392996 -0.476624 25.7145
      vertex -0.461994 -0.476624 25.8499
      vertex -0.719573 -0.673396 25.7662
    endloop
  endfacet
  facet normal 0.585254 -0.805534 -0.0926962
    outer loop
      vertex -0.461994 -0.476624 26.1501
      vertex -0.719573 -0.673396 26.2338
      vertex -0.756604 -0.673396 26
    endloop
  endfacet
  facet normal 0.368852 -0.583015 0.723907
    outer loop
      vertex -0.294609 -0.944231 25.0933
      vertex -0.44472 -0.673396 25.3879
      vertex -0.56038 -0.944231 25.2287
    endloop
  endfacet
  facet normal -0.673287 -0.305571 0.673284
    outer loop
      vertex 0.85499 -1.26262 25.3788
      vertex 0.56038 -0.944231 25.2287
      vertex 0.621186 -1.26262 25.145
    endloop
  endfacet
  facet normal -0.673287 -0.305571 0.673284
    outer loop
      vertex 0.56038 -0.944231 25.2287
      vertex 0.85499 -1.26262 25.3788
      vertex 0.771297 -0.944231 25.4396
    endloop
  endfacet
  facet normal 0.368852 -0.583015 -0.723907
    outer loop
      vertex -0.44472 -0.673396 26.6121
      vertex -0.294609 -0.944231 26.9067
      vertex -0.56038 -0.944231 26.7713
    endloop
  endfacet
  facet normal 0.148954 -0.305569 0.940447
    outer loop
      vertex 0 -1.26262 24.9432
      vertex 0 -0.944231 25.0466
      vertex -0.326577 -1.26262 24.9949
    endloop
  endfacet
  facet normal -0.802457 -0.583017 0.127098
    outer loop
      vertex 0.953377 -0.944231 26
      vertex 0.756604 -0.673396 26
      vertex 0.719573 -0.673396 25.7662
    endloop
  endfacet
  facet normal -0.723908 -0.583015 0.368851
    outer loop
      vertex 0.771297 -0.944231 25.4396
      vertex 0.906714 -0.944231 25.7054
      vertex 0.612105 -0.673396 25.5553
    endloop
  endfacet
  facet normal -0.585254 -0.805535 0.092695
    outer loop
      vertex 0.756604 -0.673396 26
      vertex 0.485769 -0.476624 26
      vertex 0.461994 -0.476624 25.8499
    endloop
  endfacet
  facet normal 0.723908 -0.583017 -0.368847
    outer loop
      vertex -0.719573 -0.673396 26.2338
      vertex -0.612105 -0.673396 26.4447
      vertex -0.906714 -0.944231 26.2946
    endloop
  endfacet
  facet normal -0.141869 -0.949919 -0.278435
    outer loop
      vertex 0.285528 -0.476624 26.393
      vertex 0.15011 -0.476624 26.462
      vertex 0.0517244 -0.373174 26.1592
    endloop
  endfacet
  facet normal 0.453989 0 -0.891007
    outer loop
      vertex -0.621186 -1.43 26.855
      vertex -0.326577 -1.26262 27.0051
      vertex -0.326577 -1.43 27.0051
    endloop
  endfacet
  facet normal 0.453989 0 -0.891007
    outer loop
      vertex -0.326577 -1.26262 27.0051
      vertex -0.621186 -1.43 26.855
      vertex -0.621186 -1.26262 26.855
    endloop
  endfacet
  facet normal -0.940446 -0.305571 -0.148955
    outer loop
      vertex 0.953377 -0.944231 26
      vertex 1.0051 -1.26262 26.3266
      vertex 0.906714 -0.944231 26.2946
    endloop
  endfacet
  facet normal -0.0926914 -0.805535 -0.585254
    outer loop
      vertex 0.15011 -0.476624 26.462
      vertex 0.233803 -0.673396 26.7196
      vertex 0 -0.673396 26.7566
    endloop
  endfacet
  facet normal -0.308648 -0.949919 0.048885
    outer loop
      vertex 0.461994 -0.476624 25.8499
      vertex 0.485769 -0.476624 26
      vertex 0.159192 -0.373174 25.9483
    endloop
  endfacet
  facet normal -0.308648 -0.949919 0.0488843
    outer loop
      vertex 0.485769 -0.476624 26
      vertex 0.167384 -0.373174 26
      vertex 0.159192 -0.373174 25.9483
    endloop
  endfacet
  facet normal -0.432279 -0.305567 0.848389
    outer loop
      vertex 0.326577 -1.26262 24.9949
      vertex 0.56038 -0.944231 25.2287
      vertex 0.294609 -0.944231 25.0933
    endloop
  endfacet
  facet normal -0.987688 0 0.156434
    outer loop
      vertex 1.0051 -1.43 25.6734
      vertex 1.05683 -1.26262 26
      vertex 1.0051 -1.26262 25.6734
    endloop
  endfacet
  facet normal -0.987688 0 0.156434
    outer loop
      vertex 1.05683 -1.26262 26
      vertex 1.0051 -1.43 25.6734
      vertex 1.05683 -1.43 26
    endloop
  endfacet
  facet normal -0.527966 -0.805534 0.269011
    outer loop
      vertex 0.612105 -0.673396 25.5553
      vertex 0.719573 -0.673396 25.7662
      vertex 0.392996 -0.476624 25.7145
    endloop
  endfacet
  facet normal 0.673287 -0.305571 0.673284
    outer loop
      vertex -0.85499 -1.26262 25.3788
      vertex -0.56038 -0.944231 25.2287
      vertex -0.771297 -0.944231 25.4396
    endloop
  endfacet
  facet normal 0.673287 -0.305571 0.673284
    outer loop
      vertex -0.56038 -0.944231 25.2287
      vertex -0.85499 -1.26262 25.3788
      vertex -0.621186 -1.26262 25.145
    endloop
  endfacet
  facet normal 0.148952 -0.305567 0.940448
    outer loop
      vertex 0 -0.944231 25.0466
      vertex -0.294609 -0.944231 25.0933
      vertex -0.326577 -1.26262 24.9949
    endloop
  endfacet
  facet normal 0.940446 -0.305571 0.148955
    outer loop
      vertex -0.906714 -0.944231 25.7054
      vertex -0.953377 -0.944231 26
      vertex -1.0051 -1.26262 25.6734
    endloop
  endfacet
  facet normal -0.278436 -0.949919 0.141869
    outer loop
      vertex 0.392996 -0.476624 25.7145
      vertex 0.461994 -0.476624 25.8499
      vertex 0.159192 -0.373174 25.9483
    endloop
  endfacet
  facet normal -0.723908 -0.583017 0.368847
    outer loop
      vertex 0.906714 -0.944231 25.7054
      vertex 0.719573 -0.673396 25.7662
      vertex 0.612105 -0.673396 25.5553
    endloop
  endfacet
  facet normal 0.156436 0 -0.987688
    outer loop
      vertex -0.326577 -1.43 27.0051
      vertex 0 -1.26262 27.0568
      vertex 0 -1.43 27.0568
    endloop
  endfacet
  facet normal 0.156436 0 -0.987688
    outer loop
      vertex 0 -1.26262 27.0568
      vertex -0.326577 -1.43 27.0051
      vertex -0.326577 -1.26262 27.0051
    endloop
  endfacet
  facet normal 0.574498 -0.583015 -0.574496
    outer loop
      vertex -0.771297 -0.944231 26.5604
      vertex -0.44472 -0.673396 26.6121
      vertex -0.56038 -0.944231 26.7713
    endloop
  endfacet
  facet normal 0.574497 -0.583014 -0.574497
    outer loop
      vertex -0.44472 -0.673396 26.6121
      vertex -0.771297 -0.944231 26.5604
      vertex -0.612105 -0.673396 26.4447
    endloop
  endfacet
  facet normal 0.848389 -0.305571 -0.432277
    outer loop
      vertex -0.906714 -0.944231 26.2946
      vertex -0.771297 -0.944231 26.5604
      vertex -1.0051 -1.26262 26.3266
    endloop
  endfacet
  facet normal -0.707108 0 -0.707105
    outer loop
      vertex 0.85499 -1.43 26.6212
      vertex 0.621186 -1.26262 26.855
      vertex 0.85499 -1.26262 26.6212
    endloop
  endfacet
  facet normal -0.707108 -0 -0.707105
    outer loop
      vertex 0.621186 -1.26262 26.855
      vertex 0.85499 -1.43 26.6212
      vertex 0.621186 -1.43 26.855
    endloop
  endfacet
  facet normal 0.848389 -0.305571 0.432277
    outer loop
      vertex -0.85499 -1.26262 25.3788
      vertex -0.771297 -0.944231 25.4396
      vertex -1.0051 -1.26262 25.6734
    endloop
  endfacet
  facet normal -0.940446 -0.305571 0.148955
    outer loop
      vertex 1.0051 -1.26262 25.6734
      vertex 0.953377 -0.944231 26
      vertex 0.906714 -0.944231 25.7054
    endloop
  endfacet
  facet normal -0.940447 -0.305569 0.148952
    outer loop
      vertex 1.0051 -1.26262 25.6734
      vertex 1.05683 -1.26262 26
      vertex 0.953377 -0.944231 26
    endloop
  endfacet
  facet normal 0.848389 -0.305571 0.432277
    outer loop
      vertex -0.771297 -0.944231 25.4396
      vertex -0.906714 -0.944231 25.7054
      vertex -1.0051 -1.26262 25.6734
    endloop
  endfacet
  facet normal -0.148952 -0.305567 0.940448
    outer loop
      vertex 0.326577 -1.26262 24.9949
      vertex 0.294609 -0.944231 25.0933
      vertex 0 -0.944231 25.0466
    endloop
  endfacet
  facet normal -0.269009 -0.805535 0.527965
    outer loop
      vertex 0.233803 -0.673396 25.2804
      vertex 0.285528 -0.476624 25.607
      vertex 0.15011 -0.476624 25.538
    endloop
  endfacet
  facet normal 0.723908 -0.583017 0.368847
    outer loop
      vertex -0.612105 -0.673396 25.5553
      vertex -0.719573 -0.673396 25.7662
      vertex -0.906714 -0.944231 25.7054
    endloop
  endfacet
  facet normal 0.987688 0 -0.156434
    outer loop
      vertex -1.0051 -1.43 26.3266
      vertex -1.05683 -1.26262 26
      vertex -1.0051 -1.26262 26.3266
    endloop
  endfacet
  facet normal 0.987688 0 -0.156434
    outer loop
      vertex -1.05683 -1.26262 26
      vertex -1.0051 -1.43 26.3266
      vertex -1.05683 -1.43 26
    endloop
  endfacet
  facet normal 0.987688 -0 0.156434
    outer loop
      vertex -1.05683 -1.43 26
      vertex -1.0051 -1.26262 25.6734
      vertex -1.05683 -1.26262 26
    endloop
  endfacet
  facet normal 0.987688 0 0.156434
    outer loop
      vertex -1.0051 -1.26262 25.6734
      vertex -1.05683 -1.43 26
      vertex -1.0051 -1.43 25.6734
    endloop
  endfacet
  facet normal 0.802457 -0.583017 -0.127099
    outer loop
      vertex -0.719573 -0.673396 26.2338
      vertex -0.906714 -0.944231 26.2946
      vertex -0.953377 -0.944231 26
    endloop
  endfacet
  facet normal 0.141862 -0.949919 0.278442
    outer loop
      vertex -0.0517244 -0.373174 25.8408
      vertex -0.0983858 -0.373174 25.8646
      vertex -0.285528 -0.476624 25.607
    endloop
  endfacet
  facet normal -0.848389 -0.305571 0.432277
    outer loop
      vertex 1.0051 -1.26262 25.6734
      vertex 0.906714 -0.944231 25.7054
      vertex 0.771297 -0.944231 25.4396
    endloop
  endfacet
  facet normal -0.802457 -0.583017 0.127099
    outer loop
      vertex 0.906714 -0.944231 25.7054
      vertex 0.953377 -0.944231 26
      vertex 0.719573 -0.673396 25.7662
    endloop
  endfacet
  facet normal -0.220972 -0.94992 0.220961
    outer loop
      vertex 0.0983858 -0.373174 25.8646
      vertex 0.392996 -0.476624 25.7145
      vertex 0.135417 -0.373174 25.9016
    endloop
  endfacet
  facet normal -0.220968 -0.949919 0.220968
    outer loop
      vertex 0.392996 -0.476624 25.7145
      vertex 0.0983858 -0.373174 25.8646
      vertex 0.285528 -0.476624 25.607
    endloop
  endfacet
  facet normal -0.278435 -0.949919 0.14187
    outer loop
      vertex 0.392996 -0.476624 25.7145
      vertex 0.159192 -0.373174 25.9483
      vertex 0.135417 -0.373174 25.9016
    endloop
  endfacet
  facet normal 0.0488949 -0.949919 0.308649
    outer loop
      vertex 0 -0.476624 25.5142
      vertex 0 -0.373174 25.8326
      vertex -0.0517244 -0.373174 25.8408
    endloop
  endfacet
  facet normal 0.308648 -0.949919 -0.048885
    outer loop
      vertex -0.159192 -0.373174 26.0517
      vertex -0.461994 -0.476624 26.1501
      vertex -0.485769 -0.476624 26
    endloop
  endfacet
  facet normal 0.0488849 -0.949919 0.308648
    outer loop
      vertex 0 -0.476624 25.5142
      vertex -0.0517244 -0.373174 25.8408
      vertex -0.15011 -0.476624 25.538
    endloop
  endfacet
  facet normal -0.0926952 -0.805534 -0.585255
    outer loop
      vertex 0 -0.476624 26.4858
      vertex 0.15011 -0.476624 26.462
      vertex 0 -0.673396 26.7566
    endloop
  endfacet
  facet normal -0.723908 -0.583017 -0.368847
    outer loop
      vertex 0.719573 -0.673396 26.2338
      vertex 0.906714 -0.944231 26.2946
      vertex 0.612105 -0.673396 26.4447
    endloop
  endfacet
  facet normal 0.723908 -0.583015 -0.368851
    outer loop
      vertex -0.612105 -0.673396 26.4447
      vertex -0.771297 -0.944231 26.5604
      vertex -0.906714 -0.944231 26.2946
    endloop
  endfacet
  facet normal -0.585254 -0.805535 -0.092695
    outer loop
      vertex 0.485769 -0.476624 26
      vertex 0.756604 -0.673396 26
      vertex 0.461994 -0.476624 26.1501
    endloop
  endfacet
  facet normal -0.278436 -0.949919 -0.141869
    outer loop
      vertex 0.461994 -0.476624 26.1501
      vertex 0.392996 -0.476624 26.2855
      vertex 0.159192 -0.373174 26.0517
    endloop
  endfacet
  facet normal -0.585254 -0.805534 -0.0926962
    outer loop
      vertex 0.756604 -0.673396 26
      vertex 0.719573 -0.673396 26.2338
      vertex 0.461994 -0.476624 26.1501
    endloop
  endfacet
  facet normal -0.141862 -0.949919 -0.278442
    outer loop
      vertex 0.0983858 -0.373174 26.1354
      vertex 0.285528 -0.476624 26.393
      vertex 0.0517244 -0.373174 26.1592
    endloop
  endfacet
  facet normal 0.891006 -0 0.453991
    outer loop
      vertex -1.0051 -1.43 25.6734
      vertex -0.85499 -1.26262 25.3788
      vertex -1.0051 -1.26262 25.6734
    endloop
  endfacet
  facet normal 0.891006 0 0.453991
    outer loop
      vertex -0.85499 -1.26262 25.3788
      vertex -1.0051 -1.43 25.6734
      vertex -0.85499 -1.43 25.3788
    endloop
  endfacet
  facet normal -0.156436 0 -0.987688
    outer loop
      vertex 0 -1.43 27.0568
      vertex 0.326577 -1.26262 27.0051
      vertex 0.326577 -1.43 27.0051
    endloop
  endfacet
  facet normal -0.156436 0 -0.987688
    outer loop
      vertex 0.326577 -1.26262 27.0051
      vertex 0 -1.43 27.0568
      vertex 0 -1.26262 27.0568
    endloop
  endfacet
  facet normal 0.127096 -0.583017 -0.802457
    outer loop
      vertex -0.233803 -0.673396 26.7196
      vertex 0 -0.944231 26.9534
      vertex -0.294609 -0.944231 26.9067
    endloop
  endfacet
  facet normal -0.707108 0 0.707105
    outer loop
      vertex 0.621186 -1.43 25.145
      vertex 0.85499 -1.26262 25.3788
      vertex 0.621186 -1.26262 25.145
    endloop
  endfacet
  facet normal -0.707108 0 0.707105
    outer loop
      vertex 0.85499 -1.26262 25.3788
      vertex 0.621186 -1.43 25.145
      vertex 0.85499 -1.43 25.3788
    endloop
  endfacet
  facet normal -0.453989 0 0.891007
    outer loop
      vertex 0.326577 -1.26262 24.9949
      vertex 0.621186 -1.43 25.145
      vertex 0.621186 -1.26262 25.145
    endloop
  endfacet
  facet normal -0.453989 0 0.891007
    outer loop
      vertex 0.621186 -1.43 25.145
      vertex 0.326577 -1.26262 24.9949
      vertex 0.326577 -1.43 24.9949
    endloop
  endfacet
  facet normal 0.432275 -0.305571 0.84839
    outer loop
      vertex -0.326577 -1.26262 24.9949
      vertex -0.56038 -0.944231 25.2287
      vertex -0.621186 -1.26262 25.145
    endloop
  endfacet
  facet normal 0.156436 0 0.987688
    outer loop
      vertex -0.326577 -1.26262 24.9949
      vertex 0 -1.43 24.9432
      vertex 0 -1.26262 24.9432
    endloop
  endfacet
  facet normal 0.156436 0 0.987688
    outer loop
      vertex 0 -1.43 24.9432
      vertex -0.326577 -1.26262 24.9949
      vertex -0.326577 -1.43 24.9949
    endloop
  endfacet
  facet normal 0.432279 -0.305567 0.848389
    outer loop
      vertex -0.326577 -1.26262 24.9949
      vertex -0.294609 -0.944231 25.0933
      vertex -0.56038 -0.944231 25.2287
    endloop
  endfacet
  facet normal -0.127096 -0.583017 0.802457
    outer loop
      vertex 0.294609 -0.944231 25.0933
      vertex 0.233803 -0.673396 25.2804
      vertex 0 -0.944231 25.0466
    endloop
  endfacet
  facet normal -0.368852 -0.583015 0.723907
    outer loop
      vertex 0.56038 -0.944231 25.2287
      vertex 0.44472 -0.673396 25.3879
      vertex 0.294609 -0.944231 25.0933
    endloop
  endfacet
  facet normal 0.269011 -0.805535 0.527965
    outer loop
      vertex -0.233803 -0.673396 25.2804
      vertex -0.285528 -0.476624 25.607
      vertex -0.44472 -0.673396 25.3879
    endloop
  endfacet
  facet normal 0.0926952 -0.805534 0.585255
    outer loop
      vertex 0 -0.673396 25.2434
      vertex 0 -0.476624 25.5142
      vertex -0.15011 -0.476624 25.538
    endloop
  endfacet
  facet normal 0.940447 -0.305569 0.148952
    outer loop
      vertex -1.0051 -1.26262 25.6734
      vertex -0.953377 -0.944231 26
      vertex -1.05683 -1.26262 26
    endloop
  endfacet
  facet normal 0.940447 -0.305569 -0.148952
    outer loop
      vertex -0.953377 -0.944231 26
      vertex -1.0051 -1.26262 26.3266
      vertex -1.05683 -1.26262 26
    endloop
  endfacet
  facet normal 0.802457 -0.583017 0.127099
    outer loop
      vertex -0.906714 -0.944231 25.7054
      vertex -0.719573 -0.673396 25.7662
      vertex -0.953377 -0.944231 26
    endloop
  endfacet
  facet normal 0.278435 -0.949919 0.14187
    outer loop
      vertex -0.135417 -0.373174 25.9016
      vertex -0.159192 -0.373174 25.9483
      vertex -0.392996 -0.476624 25.7145
    endloop
  endfacet
  facet normal -0.527966 -0.805534 0.26901
    outer loop
      vertex 0.719573 -0.673396 25.7662
      vertex 0.461994 -0.476624 25.8499
      vertex 0.392996 -0.476624 25.7145
    endloop
  endfacet
  facet normal -0.585254 -0.805534 0.0926962
    outer loop
      vertex 0.719573 -0.673396 25.7662
      vertex 0.756604 -0.673396 26
      vertex 0.461994 -0.476624 25.8499
    endloop
  endfacet
  facet normal -0.848389 -0.305571 0.432277
    outer loop
      vertex 0.85499 -1.26262 25.3788
      vertex 1.0051 -1.26262 25.6734
      vertex 0.771297 -0.944231 25.4396
    endloop
  endfacet
  facet normal -0.368849 -0.583017 0.723907
    outer loop
      vertex 0.294609 -0.944231 25.0933
      vertex 0.44472 -0.673396 25.3879
      vertex 0.233803 -0.673396 25.2804
    endloop
  endfacet
  facet normal -0.141862 -0.949919 0.278442
    outer loop
      vertex 0.285528 -0.476624 25.607
      vertex 0.0983858 -0.373174 25.8646
      vertex 0.0517244 -0.373174 25.8408
    endloop
  endfacet
  facet normal -0.418995 -0.805534 0.418995
    outer loop
      vertex 0.285528 -0.476624 25.607
      vertex 0.612105 -0.673396 25.5553
      vertex 0.392996 -0.476624 25.7145
    endloop
  endfacet
  facet normal -0.418995 -0.805534 0.418995
    outer loop
      vertex 0.612105 -0.673396 25.5553
      vertex 0.285528 -0.476624 25.607
      vertex 0.44472 -0.673396 25.3879
    endloop
  endfacet
  facet normal -0.0488949 -0.949919 0.308649
    outer loop
      vertex 0 -0.476624 25.5142
      vertex 0.0517244 -0.373174 25.8408
      vertex 0 -0.373174 25.8326
    endloop
  endfacet
  facet normal 0.723908 -0.583015 0.368851
    outer loop
      vertex -0.771297 -0.944231 25.4396
      vertex -0.612105 -0.673396 25.5553
      vertex -0.906714 -0.944231 25.7054
    endloop
  endfacet
  facet normal -0.453989 0 -0.891007
    outer loop
      vertex 0.326577 -1.43 27.0051
      vertex 0.621186 -1.26262 26.855
      vertex 0.621186 -1.43 26.855
    endloop
  endfacet
  facet normal -0.453989 0 -0.891007
    outer loop
      vertex 0.621186 -1.26262 26.855
      vertex 0.326577 -1.43 27.0051
      vertex 0.326577 -1.26262 27.0051
    endloop
  endfacet
  facet normal -0.0488949 -0.949919 -0.308649
    outer loop
      vertex 0 -0.373174 26.1674
      vertex 0.0517244 -0.373174 26.1592
      vertex 0 -0.476624 26.4858
    endloop
  endfacet
  facet normal 0.278436 -0.949919 -0.141869
    outer loop
      vertex -0.159192 -0.373174 26.0517
      vertex -0.392996 -0.476624 26.2855
      vertex -0.461994 -0.476624 26.1501
    endloop
  endfacet
  facet normal 0.527966 -0.805534 -0.26901
    outer loop
      vertex -0.461994 -0.476624 26.1501
      vertex -0.392996 -0.476624 26.2855
      vertex -0.719573 -0.673396 26.2338
    endloop
  endfacet
  facet normal 0.432275 -0.305571 -0.84839
    outer loop
      vertex -0.56038 -0.944231 26.7713
      vertex -0.326577 -1.26262 27.0051
      vertex -0.621186 -1.26262 26.855
    endloop
  endfacet
  facet normal 0.432279 -0.305567 -0.848389
    outer loop
      vertex -0.294609 -0.944231 26.9067
      vertex -0.326577 -1.26262 27.0051
      vertex -0.56038 -0.944231 26.7713
    endloop
  endfacet
  facet normal 0.707108 0 -0.707105
    outer loop
      vertex -0.621186 -1.43 26.855
      vertex -0.85499 -1.26262 26.6212
      vertex -0.621186 -1.26262 26.855
    endloop
  endfacet
  facet normal 0.707108 0 -0.707105
    outer loop
      vertex -0.85499 -1.26262 26.6212
      vertex -0.621186 -1.43 26.855
      vertex -0.85499 -1.43 26.6212
    endloop
  endfacet
  facet normal -0.278435 -0.949919 -0.14187
    outer loop
      vertex 0.159192 -0.373174 26.0517
      vertex 0.392996 -0.476624 26.2855
      vertex 0.135417 -0.373174 26.0984
    endloop
  endfacet
  facet normal -0.0488849 -0.949919 -0.308648
    outer loop
      vertex 0.0517244 -0.373174 26.1592
      vertex 0.15011 -0.476624 26.462
      vertex 0 -0.476624 26.4858
    endloop
  endfacet
  facet normal -0.269009 -0.805535 -0.527965
    outer loop
      vertex 0.285528 -0.476624 26.393
      vertex 0.233803 -0.673396 26.7196
      vertex 0.15011 -0.476624 26.462
    endloop
  endfacet
  facet normal -0.802457 -0.583017 -0.127099
    outer loop
      vertex 0.953377 -0.944231 26
      vertex 0.906714 -0.944231 26.2946
      vertex 0.719573 -0.673396 26.2338
    endloop
  endfacet
  facet normal -0.802457 -0.583017 -0.127098
    outer loop
      vertex 0.756604 -0.673396 26
      vertex 0.953377 -0.944231 26
      vertex 0.719573 -0.673396 26.2338
    endloop
  endfacet
  facet normal -0.891006 0 -0.453991
    outer loop
      vertex 1.0051 -1.43 26.3266
      vertex 0.85499 -1.26262 26.6212
      vertex 1.0051 -1.26262 26.3266
    endloop
  endfacet
  facet normal -0.891006 -0 -0.453991
    outer loop
      vertex 0.85499 -1.26262 26.6212
      vertex 1.0051 -1.43 26.3266
      vertex 0.85499 -1.43 26.6212
    endloop
  endfacet
  facet normal -0.148954 -0.305569 0.940447
    outer loop
      vertex 0 -1.26262 24.9432
      vertex 0.326577 -1.26262 24.9949
      vertex 0 -0.944231 25.0466
    endloop
  endfacet
  facet normal -0.156436 0 0.987688
    outer loop
      vertex 0 -1.26262 24.9432
      vertex 0.326577 -1.43 24.9949
      vertex 0.326577 -1.26262 24.9949
    endloop
  endfacet
  facet normal -0.156436 0 0.987688
    outer loop
      vertex 0.326577 -1.43 24.9949
      vertex 0 -1.26262 24.9432
      vertex 0 -1.43 24.9432
    endloop
  endfacet
  facet normal -0.432275 -0.305571 0.84839
    outer loop
      vertex 0.621186 -1.26262 25.145
      vertex 0.56038 -0.944231 25.2287
      vertex 0.326577 -1.26262 24.9949
    endloop
  endfacet
  facet normal 0.707108 -0 0.707105
    outer loop
      vertex -0.85499 -1.43 25.3788
      vertex -0.621186 -1.26262 25.145
      vertex -0.85499 -1.26262 25.3788
    endloop
  endfacet
  facet normal 0.707108 0 0.707105
    outer loop
      vertex -0.621186 -1.26262 25.145
      vertex -0.85499 -1.43 25.3788
      vertex -0.621186 -1.43 25.145
    endloop
  endfacet
  facet normal 0.574497 -0.583014 0.574497
    outer loop
      vertex -0.771297 -0.944231 25.4396
      vertex -0.44472 -0.673396 25.3879
      vertex -0.612105 -0.673396 25.5553
    endloop
  endfacet
  facet normal 0.574498 -0.583015 0.574496
    outer loop
      vertex -0.44472 -0.673396 25.3879
      vertex -0.771297 -0.944231 25.4396
      vertex -0.56038 -0.944231 25.2287
    endloop
  endfacet
  facet normal 0.127096 -0.583017 0.802457
    outer loop
      vertex 0 -0.944231 25.0466
      vertex -0.233803 -0.673396 25.2804
      vertex -0.294609 -0.944231 25.0933
    endloop
  endfacet
  facet normal 0.368849 -0.583017 0.723907
    outer loop
      vertex -0.294609 -0.944231 25.0933
      vertex -0.233803 -0.673396 25.2804
      vertex -0.44472 -0.673396 25.3879
    endloop
  endfacet
  facet normal 0.802457 -0.583017 0.127098
    outer loop
      vertex -0.719573 -0.673396 25.7662
      vertex -0.756604 -0.673396 26
      vertex -0.953377 -0.944231 26
    endloop
  endfacet
  facet normal 0.802457 -0.583017 -0.127098
    outer loop
      vertex -0.756604 -0.673396 26
      vertex -0.719573 -0.673396 26.2338
      vertex -0.953377 -0.944231 26
    endloop
  endfacet
  facet normal -0.269011 -0.805535 0.527965
    outer loop
      vertex 0.44472 -0.673396 25.3879
      vertex 0.285528 -0.476624 25.607
      vertex 0.233803 -0.673396 25.2804
    endloop
  endfacet
  facet normal -0.141869 -0.949919 0.278435
    outer loop
      vertex 0.15011 -0.476624 25.538
      vertex 0.285528 -0.476624 25.607
      vertex 0.0517244 -0.373174 25.8408
    endloop
  endfacet
  facet normal 0.585254 -0.805534 0.0926962
    outer loop
      vertex -0.719573 -0.673396 25.7662
      vertex -0.461994 -0.476624 25.8499
      vertex -0.756604 -0.673396 26
    endloop
  endfacet
  facet normal 0.220972 -0.94992 0.220961
    outer loop
      vertex -0.392996 -0.476624 25.7145
      vertex -0.0983858 -0.373174 25.8646
      vertex -0.135417 -0.373174 25.9016
    endloop
  endfacet
  facet normal 0.220968 -0.949919 0.220968
    outer loop
      vertex -0.0983858 -0.373174 25.8646
      vertex -0.392996 -0.476624 25.7145
      vertex -0.285528 -0.476624 25.607
    endloop
  endfacet
  facet normal 0.141869 -0.949919 0.278435
    outer loop
      vertex -0.15011 -0.476624 25.538
      vertex -0.0517244 -0.373174 25.8408
      vertex -0.285528 -0.476624 25.607
    endloop
  endfacet
  facet normal 0.269009 -0.805535 0.527965
    outer loop
      vertex -0.233803 -0.673396 25.2804
      vertex -0.15011 -0.476624 25.538
      vertex -0.285528 -0.476624 25.607
    endloop
  endfacet
  facet normal 0.418995 -0.805534 -0.418995
    outer loop
      vertex -0.612105 -0.673396 26.4447
      vertex -0.285528 -0.476624 26.393
      vertex -0.44472 -0.673396 26.6121
    endloop
  endfacet
  facet normal 0.418995 -0.805534 -0.418995
    outer loop
      vertex -0.285528 -0.476624 26.393
      vertex -0.612105 -0.673396 26.4447
      vertex -0.392996 -0.476624 26.2855
    endloop
  endfacet
  facet normal 0.527966 -0.805534 -0.269011
    outer loop
      vertex -0.392996 -0.476624 26.2855
      vertex -0.612105 -0.673396 26.4447
      vertex -0.719573 -0.673396 26.2338
    endloop
  endfacet
  facet normal 0.127092 -0.58302 -0.802456
    outer loop
      vertex 0 -0.673396 26.7566
      vertex 0 -0.944231 26.9534
      vertex -0.233803 -0.673396 26.7196
    endloop
  endfacet
  facet normal 0.0488849 -0.949919 -0.308648
    outer loop
      vertex -0.0517244 -0.373174 26.1592
      vertex 0 -0.476624 26.4858
      vertex -0.15011 -0.476624 26.462
    endloop
  endfacet
  facet normal 0.141862 -0.949919 -0.278442
    outer loop
      vertex -0.0983858 -0.373174 26.1354
      vertex -0.0517244 -0.373174 26.1592
      vertex -0.285528 -0.476624 26.393
    endloop
  endfacet
  facet normal 0.0488949 -0.949919 -0.308649
    outer loop
      vertex 0 -0.373174 26.1674
      vertex 0 -0.476624 26.4858
      vertex -0.0517244 -0.373174 26.1592
    endloop
  endfacet
  facet normal 0.673287 -0.305571 -0.673284
    outer loop
      vertex -0.85499 -1.26262 26.6212
      vertex -0.56038 -0.944231 26.7713
      vertex -0.621186 -1.26262 26.855
    endloop
  endfacet
  facet normal 0.673287 -0.305571 -0.673284
    outer loop
      vertex -0.56038 -0.944231 26.7713
      vertex -0.85499 -1.26262 26.6212
      vertex -0.771297 -0.944231 26.5604
    endloop
  endfacet
  facet normal 0.848389 -0.305571 -0.432277
    outer loop
      vertex -0.771297 -0.944231 26.5604
      vertex -0.85499 -1.26262 26.6212
      vertex -1.0051 -1.26262 26.3266
    endloop
  endfacet
  facet normal -0.220968 -0.949919 -0.220968
    outer loop
      vertex 0.0983858 -0.373174 26.1354
      vertex 0.392996 -0.476624 26.2855
      vertex 0.285528 -0.476624 26.393
    endloop
  endfacet
  facet normal -0.220972 -0.94992 -0.220961
    outer loop
      vertex 0.392996 -0.476624 26.2855
      vertex 0.0983858 -0.373174 26.1354
      vertex 0.135417 -0.373174 26.0984
    endloop
  endfacet
  facet normal -0.418995 -0.805534 -0.418995
    outer loop
      vertex 0.285528 -0.476624 26.393
      vertex 0.612105 -0.673396 26.4447
      vertex 0.44472 -0.673396 26.6121
    endloop
  endfacet
  facet normal -0.418995 -0.805534 -0.418995
    outer loop
      vertex 0.612105 -0.673396 26.4447
      vertex 0.285528 -0.476624 26.393
      vertex 0.392996 -0.476624 26.2855
    endloop
  endfacet
  facet normal -0.527966 -0.805534 -0.26901
    outer loop
      vertex 0.461994 -0.476624 26.1501
      vertex 0.719573 -0.673396 26.2338
      vertex 0.392996 -0.476624 26.2855
    endloop
  endfacet
  facet normal -0.308648 -0.949919 -0.048885
    outer loop
      vertex 0.485769 -0.476624 26
      vertex 0.461994 -0.476624 26.1501
      vertex 0.159192 -0.373174 26.0517
    endloop
  endfacet
  facet normal -0.308648 -0.949919 -0.0488843
    outer loop
      vertex 0.167384 -0.373174 26
      vertex 0.485769 -0.476624 26
      vertex 0.159192 -0.373174 26.0517
    endloop
  endfacet
  facet normal -0.368849 -0.583017 -0.723907
    outer loop
      vertex 0.44472 -0.673396 26.6121
      vertex 0.294609 -0.944231 26.9067
      vertex 0.233803 -0.673396 26.7196
    endloop
  endfacet
  facet normal -0.527966 -0.805534 -0.269011
    outer loop
      vertex 0.719573 -0.673396 26.2338
      vertex 0.612105 -0.673396 26.4447
      vertex 0.392996 -0.476624 26.2855
    endloop
  endfacet
  facet normal 0.891006 0 -0.453991
    outer loop
      vertex -0.85499 -1.43 26.6212
      vertex -1.0051 -1.26262 26.3266
      vertex -0.85499 -1.26262 26.6212
    endloop
  endfacet
  facet normal 0.891006 0 -0.453991
    outer loop
      vertex -1.0051 -1.26262 26.3266
      vertex -0.85499 -1.43 26.6212
      vertex -1.0051 -1.43 26.3266
    endloop
  endfacet
  facet normal -0.891006 0 0.453991
    outer loop
      vertex 0.85499 -1.43 25.3788
      vertex 1.0051 -1.26262 25.6734
      vertex 0.85499 -1.26262 25.3788
    endloop
  endfacet
  facet normal -0.891006 0 0.453991
    outer loop
      vertex 1.0051 -1.26262 25.6734
      vertex 0.85499 -1.43 25.3788
      vertex 1.0051 -1.43 25.6734
    endloop
  endfacet
  facet normal 0.0926914 -0.805535 0.585254
    outer loop
      vertex 0 -0.673396 25.2434
      vertex -0.15011 -0.476624 25.538
      vertex -0.233803 -0.673396 25.2804
    endloop
  endfacet
  facet normal 0.127092 -0.58302 0.802456
    outer loop
      vertex 0 -0.944231 25.0466
      vertex 0 -0.673396 25.2434
      vertex -0.233803 -0.673396 25.2804
    endloop
  endfacet
  facet normal -0.0926914 -0.805535 0.585254
    outer loop
      vertex 0.233803 -0.673396 25.2804
      vertex 0.15011 -0.476624 25.538
      vertex 0 -0.673396 25.2434
    endloop
  endfacet
  facet normal -0.0926952 -0.805534 0.585255
    outer loop
      vertex 0 -0.673396 25.2434
      vertex 0.15011 -0.476624 25.538
      vertex 0 -0.476624 25.5142
    endloop
  endfacet
  facet normal 0.585254 -0.805535 0.092695
    outer loop
      vertex -0.461994 -0.476624 25.8499
      vertex -0.485769 -0.476624 26
      vertex -0.756604 -0.673396 26
    endloop
  endfacet
  facet normal 0.585254 -0.805535 -0.092695
    outer loop
      vertex -0.485769 -0.476624 26
      vertex -0.461994 -0.476624 26.1501
      vertex -0.756604 -0.673396 26
    endloop
  endfacet
  facet normal 0.308648 -0.949919 0.048885
    outer loop
      vertex -0.461994 -0.476624 25.8499
      vertex -0.159192 -0.373174 25.9483
      vertex -0.485769 -0.476624 26
    endloop
  endfacet
  facet normal 0 -1 0
    outer loop
      vertex -0.0517244 -0.373174 26.1592
      vertex 0.0517244 -0.373174 26.1592
      vertex 0 -0.373174 26.1674
    endloop
  endfacet
  facet normal 0 -1 0
    outer loop
      vertex -0.0983858 -0.373174 26.1354
      vertex 0.0517244 -0.373174 26.1592
      vertex -0.0517244 -0.373174 26.1592
    endloop
  endfacet
  facet normal 0 -1 0
    outer loop
      vertex -0.0983858 -0.373174 26.1354
      vertex 0.0983858 -0.373174 26.1354
      vertex 0.0517244 -0.373174 26.1592
    endloop
  endfacet
  facet normal 0 -1 0
    outer loop
      vertex -0.135417 -0.373174 26.0984
      vertex 0.0983858 -0.373174 26.1354
      vertex -0.0983858 -0.373174 26.1354
    endloop
  endfacet
  facet normal 0 -1 0
    outer loop
      vertex -0.135417 -0.373174 26.0984
      vertex 0.135417 -0.373174 26.0984
      vertex 0.0983858 -0.373174 26.1354
    endloop
  endfacet
  facet normal 0 -1 0
    outer loop
      vertex -0.159192 -0.373174 26.0517
      vertex 0.135417 -0.373174 26.0984
      vertex -0.135417 -0.373174 26.0984
    endloop
  endfacet
  facet normal 0 -1 0
    outer loop
      vertex -0.159192 -0.373174 26.0517
      vertex 0.159192 -0.373174 26.0517
      vertex 0.135417 -0.373174 26.0984
    endloop
  endfacet
  facet normal 0 -1 0
    outer loop
      vertex -0.167384 -0.373174 26
      vertex 0.159192 -0.373174 26.0517
      vertex -0.159192 -0.373174 26.0517
    endloop
  endfacet
  facet normal 0 -1 0
    outer loop
      vertex -0.167384 -0.373174 26
      vertex 0.167384 -0.373174 26
      vertex 0.159192 -0.373174 26.0517
    endloop
  endfacet
  facet normal 0 -1 0
    outer loop
      vertex -0.159192 -0.373174 25.9483
      vertex 0.167384 -0.373174 26
      vertex -0.167384 -0.373174 26
    endloop
  endfacet
  facet normal 0 -1 0
    outer loop
      vertex -0.159192 -0.373174 25.9483
      vertex 0.159192 -0.373174 25.9483
      vertex 0.167384 -0.373174 26
    endloop
  endfacet
  facet normal 0 -1 0
    outer loop
      vertex -0.135417 -0.373174 25.9016
      vertex 0.159192 -0.373174 25.9483
      vertex -0.159192 -0.373174 25.9483
    endloop
  endfacet
  facet normal 0 -1 0
    outer loop
      vertex -0.135417 -0.373174 25.9016
      vertex 0.135417 -0.373174 25.9016
      vertex 0.159192 -0.373174 25.9483
    endloop
  endfacet
  facet normal 0 -1 0
    outer loop
      vertex -0.0983858 -0.373174 25.8646
      vertex 0.135417 -0.373174 25.9016
      vertex -0.135417 -0.373174 25.9016
    endloop
  endfacet
  facet normal 0 -1 0
    outer loop
      vertex -0.0983858 -0.373174 25.8646
      vertex 0.0983858 -0.373174 25.8646
      vertex 0.135417 -0.373174 25.9016
    endloop
  endfacet
  facet normal 0 -1 0
    outer loop
      vertex -0.0517244 -0.373174 25.8408
      vertex 0.0983858 -0.373174 25.8646
      vertex -0.0983858 -0.373174 25.8646
    endloop
  endfacet
  facet normal 0 -1 0
    outer loop
      vertex -0.0517244 -0.373174 25.8408
      vertex 0.0517244 -0.373174 25.8408
      vertex 0.0983858 -0.373174 25.8646
    endloop
  endfacet
  facet normal -0 -1 0
    outer loop
      vertex 0.0517244 -0.373174 25.8408
      vertex -0.0517244 -0.373174 25.8408
      vertex 0 -0.373174 25.8326
    endloop
  endfacet
  facet normal 0.278436 -0.949919 0.141869
    outer loop
      vertex -0.392996 -0.476624 25.7145
      vertex -0.159192 -0.373174 25.9483
      vertex -0.461994 -0.476624 25.8499
    endloop
  endfacet
  facet normal 0.418995 -0.805534 0.418995
    outer loop
      vertex -0.612105 -0.673396 25.5553
      vertex -0.285528 -0.476624 25.607
      vertex -0.392996 -0.476624 25.7145
    endloop
  endfacet
  facet normal 0.418995 -0.805534 0.418995
    outer loop
      vertex -0.285528 -0.476624 25.607
      vertex -0.612105 -0.673396 25.5553
      vertex -0.44472 -0.673396 25.3879
    endloop
  endfacet
  facet normal -0.127092 -0.58302 -0.802456
    outer loop
      vertex 0 -0.673396 26.7566
      vertex 0.233803 -0.673396 26.7196
      vertex 0 -0.944231 26.9534
    endloop
  endfacet
  facet normal 0.141869 -0.949919 -0.278435
    outer loop
      vertex -0.0517244 -0.373174 26.1592
      vertex -0.15011 -0.476624 26.462
      vertex -0.285528 -0.476624 26.393
    endloop
  endfacet
  facet normal 0.269011 -0.805535 -0.527965
    outer loop
      vertex -0.285528 -0.476624 26.393
      vertex -0.233803 -0.673396 26.7196
      vertex -0.44472 -0.673396 26.6121
    endloop
  endfacet
  facet normal 0.368849 -0.583017 -0.723907
    outer loop
      vertex -0.233803 -0.673396 26.7196
      vertex -0.294609 -0.944231 26.9067
      vertex -0.44472 -0.673396 26.6121
    endloop
  endfacet
  facet normal 0.220968 -0.949919 -0.220968
    outer loop
      vertex -0.392996 -0.476624 26.2855
      vertex -0.0983858 -0.373174 26.1354
      vertex -0.285528 -0.476624 26.393
    endloop
  endfacet
  facet normal 0.220972 -0.94992 -0.220961
    outer loop
      vertex -0.0983858 -0.373174 26.1354
      vertex -0.392996 -0.476624 26.2855
      vertex -0.135417 -0.373174 26.0984
    endloop
  endfacet
  facet normal 0.148954 -0.305569 -0.940447
    outer loop
      vertex 0 -0.944231 26.9534
      vertex 0 -1.26262 27.0568
      vertex -0.326577 -1.26262 27.0051
    endloop
  endfacet
  facet normal 0.148952 -0.305567 -0.940448
    outer loop
      vertex -0.294609 -0.944231 26.9067
      vertex 0 -0.944231 26.9534
      vertex -0.326577 -1.26262 27.0051
    endloop
  endfacet
  facet normal -0.848389 -0.305571 -0.432277
    outer loop
      vertex 1.0051 -1.26262 26.3266
      vertex 0.85499 -1.26262 26.6212
      vertex 0.771297 -0.944231 26.5604
    endloop
  endfacet
  facet normal -0.848389 -0.305571 -0.432277
    outer loop
      vertex 0.906714 -0.944231 26.2946
      vertex 1.0051 -1.26262 26.3266
      vertex 0.771297 -0.944231 26.5604
    endloop
  endfacet
  facet normal -0.127096 -0.583017 -0.802457
    outer loop
      vertex 0.233803 -0.673396 26.7196
      vertex 0.294609 -0.944231 26.9067
      vertex 0 -0.944231 26.9534
    endloop
  endfacet
  facet normal -0.269011 -0.805535 -0.527965
    outer loop
      vertex 0.285528 -0.476624 26.393
      vertex 0.44472 -0.673396 26.6121
      vertex 0.233803 -0.673396 26.7196
    endloop
  endfacet
  facet normal 0.453989 0 0.891007
    outer loop
      vertex -0.621186 -1.26262 25.145
      vertex -0.326577 -1.43 24.9949
      vertex -0.326577 -1.26262 24.9949
    endloop
  endfacet
  facet normal 0.453989 0 0.891007
    outer loop
      vertex -0.326577 -1.43 24.9949
      vertex -0.621186 -1.26262 25.145
      vertex -0.621186 -1.43 25.145
    endloop
  endfacet
  facet normal 0.308648 -0.949919 0.0488843
    outer loop
      vertex -0.159192 -0.373174 25.9483
      vertex -0.167384 -0.373174 26
      vertex -0.485769 -0.476624 26
    endloop
  endfacet
  facet normal 0.308648 -0.949919 -0.0488843
    outer loop
      vertex -0.167384 -0.373174 26
      vertex -0.159192 -0.373174 26.0517
      vertex -0.485769 -0.476624 26
    endloop
  endfacet
  facet normal 0.527966 -0.805534 0.269011
    outer loop
      vertex -0.612105 -0.673396 25.5553
      vertex -0.392996 -0.476624 25.7145
      vertex -0.719573 -0.673396 25.7662
    endloop
  endfacet
  facet normal -0.148954 -0.305569 -0.940447
    outer loop
      vertex 0 -0.944231 26.9534
      vertex 0.326577 -1.26262 27.0051
      vertex 0 -1.26262 27.0568
    endloop
  endfacet
  facet normal 0.0926914 -0.805535 -0.585254
    outer loop
      vertex -0.15011 -0.476624 26.462
      vertex 0 -0.673396 26.7566
      vertex -0.233803 -0.673396 26.7196
    endloop
  endfacet
  facet normal 0.0926952 -0.805534 -0.585255
    outer loop
      vertex 0 -0.476624 26.4858
      vertex 0 -0.673396 26.7566
      vertex -0.15011 -0.476624 26.462
    endloop
  endfacet
  facet normal -0.574498 -0.583015 -0.574496
    outer loop
      vertex 0.44472 -0.673396 26.6121
      vertex 0.771297 -0.944231 26.5604
      vertex 0.56038 -0.944231 26.7713
    endloop
  endfacet
  facet normal -0.574497 -0.583014 -0.574497
    outer loop
      vertex 0.771297 -0.944231 26.5604
      vertex 0.44472 -0.673396 26.6121
      vertex 0.612105 -0.673396 26.4447
    endloop
  endfacet
  facet normal -0.723908 -0.583015 -0.368851
    outer loop
      vertex 0.906714 -0.944231 26.2946
      vertex 0.771297 -0.944231 26.5604
      vertex 0.612105 -0.673396 26.4447
    endloop
  endfacet
  facet normal -0.148952 -0.305567 -0.940448
    outer loop
      vertex 0.294609 -0.944231 26.9067
      vertex 0.326577 -1.26262 27.0051
      vertex 0 -0.944231 26.9534
    endloop
  endfacet
  facet normal -0.432275 -0.305571 -0.84839
    outer loop
      vertex 0.56038 -0.944231 26.7713
      vertex 0.621186 -1.26262 26.855
      vertex 0.326577 -1.26262 27.0051
    endloop
  endfacet
  facet normal -0.432279 -0.305567 -0.848389
    outer loop
      vertex 0.56038 -0.944231 26.7713
      vertex 0.326577 -1.26262 27.0051
      vertex 0.294609 -0.944231 26.9067
    endloop
  endfacet
  facet normal -0.368852 -0.583015 -0.723907
    outer loop
      vertex 0.44472 -0.673396 26.6121
      vertex 0.56038 -0.944231 26.7713
      vertex 0.294609 -0.944231 26.9067
    endloop
  endfacet
  facet normal -0.987688 0 0.156437
    outer loop
      vertex 1.01763 -5.75 25.6694
      vertex 1.07 -1.43 26
      vertex 1.01763 -1.43 25.6694
    endloop
  endfacet
  facet normal -0.987688 0 0.156437
    outer loop
      vertex 1.07 -1.43 26
      vertex 1.01763 -5.75 25.6694
      vertex 1.07 -5.75 26
    endloop
  endfacet
  facet normal 0.987688 -0 0.156437
    outer loop
      vertex -1.07 -5.75 26
      vertex -1.01763 -1.43 25.6694
      vertex -1.07 -1.43 26
    endloop
  endfacet
  facet normal 0.987688 0 0.156437
    outer loop
      vertex -1.01763 -1.43 25.6694
      vertex -1.07 -5.75 26
      vertex -1.01763 -5.75 25.6694
    endloop
  endfacet
  facet normal -0.156436 0 0.987688
    outer loop
      vertex 0 -1.43 24.93
      vertex 0.330647 -5.75 24.9824
      vertex 0.330647 -1.43 24.9824
    endloop
  endfacet
  facet normal -0.156436 0 0.987688
    outer loop
      vertex 0.330647 -5.75 24.9824
      vertex 0 -1.43 24.93
      vertex 0 -5.75 24.93
    endloop
  endfacet
  facet normal 0.156436 0 -0.987688
    outer loop
      vertex -0.330647 -5.75 27.0176
      vertex 0 -1.43 27.07
      vertex 0 -5.75 27.07
    endloop
  endfacet
  facet normal 0.156436 0 -0.987688
    outer loop
      vertex 0 -1.43 27.07
      vertex -0.330647 -5.75 27.0176
      vertex -0.330647 -1.43 27.0176
    endloop
  endfacet
  facet normal 0 -1 0
    outer loop
      vertex 0 -5.75 27.07
      vertex 0 -5.75 28.24
      vertex -0.692198 -5.75 28.1304
    endloop
  endfacet
  facet normal 0 -1 0
    outer loop
      vertex -0.330647 -5.75 27.0176
      vertex -0.692198 -5.75 28.1304
      vertex -1.31664 -5.75 27.8122
    endloop
  endfacet
  facet normal 0 -1 0
    outer loop
      vertex 0 -5.75 28.24
      vertex 0 -5.75 27.07
      vertex 0.692198 -5.75 28.1304
    endloop
  endfacet
  facet normal 0 -1 0
    outer loop
      vertex -0.62893 -5.75 26.8656
      vertex -1.31664 -5.75 27.8122
      vertex -1.8122 -5.75 27.3166
    endloop
  endfacet
  facet normal 0 -1 0
    outer loop
      vertex 0.330647 -5.75 27.0176
      vertex 0.692198 -5.75 28.1304
      vertex 0 -5.75 27.07
    endloop
  endfacet
  facet normal 0 -1 -0
    outer loop
      vertex 0.692198 -5.75 28.1304
      vertex 0.330647 -5.75 27.0176
      vertex 1.31664 -5.75 27.8122
    endloop
  endfacet
  facet normal 0 -1 0
    outer loop
      vertex -0.692198 -5.75 28.1304
      vertex -0.330647 -5.75 27.0176
      vertex 0 -5.75 27.07
    endloop
  endfacet
  facet normal 0 -1 0
    outer loop
      vertex -1.31664 -5.75 27.8122
      vertex -0.62893 -5.75 26.8656
      vertex -0.330647 -5.75 27.0176
    endloop
  endfacet
  facet normal 0 -1 0
    outer loop
      vertex -0.865647 -5.75 26.6289
      vertex -1.8122 -5.75 27.3166
      vertex -2.13037 -5.75 26.6922
    endloop
  endfacet
  facet normal 0 -1 0
    outer loop
      vertex -1.8122 -5.75 27.3166
      vertex -0.865647 -5.75 26.6289
      vertex -0.62893 -5.75 26.8656
    endloop
  endfacet
  facet normal 0 -1 0
    outer loop
      vertex -2.13037 -5.75 26.6922
      vertex -1.01763 -5.75 26.3306
      vertex -0.865647 -5.75 26.6289
    endloop
  endfacet
  facet normal 0 -1 0
    outer loop
      vertex -2.24 -5.75 26
      vertex -1.01763 -5.75 26.3306
      vertex -2.13037 -5.75 26.6922
    endloop
  endfacet
  facet normal 0 -1 0
    outer loop
      vertex -2.24 -5.75 26
      vertex -1.07 -5.75 26
      vertex -1.01763 -5.75 26.3306
    endloop
  endfacet
  facet normal 0 -1 0
    outer loop
      vertex -2.24 -5.75 26
      vertex -1.01763 -5.75 25.6694
      vertex -1.07 -5.75 26
    endloop
  endfacet
  facet normal 0 -1 0
    outer loop
      vertex -2.13037 -5.75 25.3078
      vertex -1.01763 -5.75 25.6694
      vertex -2.24 -5.75 26
    endloop
  endfacet
  facet normal 0 -1 -0
    outer loop
      vertex -1.01763 -5.75 25.6694
      vertex -2.13037 -5.75 25.3078
      vertex -0.865647 -5.75 25.3711
    endloop
  endfacet
  facet normal 0 -1 0
    outer loop
      vertex -1.8122 -5.75 24.6834
      vertex -0.865647 -5.75 25.3711
      vertex -2.13037 -5.75 25.3078
    endloop
  endfacet
  facet normal 0 -1 -0
    outer loop
      vertex -0.865647 -5.75 25.3711
      vertex -1.8122 -5.75 24.6834
      vertex -0.62893 -5.75 25.1344
    endloop
  endfacet
  facet normal 0 -1 -0
    outer loop
      vertex -0.62893 -5.75 25.1344
      vertex -1.31664 -5.75 24.1878
      vertex -0.330647 -5.75 24.9824
    endloop
  endfacet
  facet normal 0 -1 0
    outer loop
      vertex -1.31664 -5.75 24.1878
      vertex -0.62893 -5.75 25.1344
      vertex -1.8122 -5.75 24.6834
    endloop
  endfacet
  facet normal 0 -1 0
    outer loop
      vertex 0.62893 -5.75 26.8656
      vertex 1.31664 -5.75 27.8122
      vertex 0.330647 -5.75 27.0176
    endloop
  endfacet
  facet normal 0 -1 -0
    outer loop
      vertex 1.31664 -5.75 27.8122
      vertex 0.62893 -5.75 26.8656
      vertex 1.8122 -5.75 27.3166
    endloop
  endfacet
  facet normal 0 -1 0
    outer loop
      vertex 0.865647 -5.75 26.6289
      vertex 1.8122 -5.75 27.3166
      vertex 0.62893 -5.75 26.8656
    endloop
  endfacet
  facet normal 0 -1 -0
    outer loop
      vertex 1.8122 -5.75 27.3166
      vertex 0.865647 -5.75 26.6289
      vertex 2.13037 -5.75 26.6922
    endloop
  endfacet
  facet normal 0 -1 0
    outer loop
      vertex 1.01763 -5.75 26.3306
      vertex 2.13037 -5.75 26.6922
      vertex 0.865647 -5.75 26.6289
    endloop
  endfacet
  facet normal 0 -1 0
    outer loop
      vertex 1.07 -5.75 26
      vertex 2.13037 -5.75 26.6922
      vertex 1.01763 -5.75 26.3306
    endloop
  endfacet
  facet normal 0 -1 0
    outer loop
      vertex 1.07 -5.75 26
      vertex 2.24 -5.75 26
      vertex 2.13037 -5.75 26.6922
    endloop
  endfacet
  facet normal 0 -1 0
    outer loop
      vertex 1.01763 -5.75 25.6694
      vertex 2.24 -5.75 26
      vertex 1.07 -5.75 26
    endloop
  endfacet
  facet normal 0 -1 0
    outer loop
      vertex 2.13037 -5.75 25.3078
      vertex 1.01763 -5.75 25.6694
      vertex 0.865647 -5.75 25.3711
    endloop
  endfacet
  facet normal 0 -1 0
    outer loop
      vertex 1.01763 -5.75 25.6694
      vertex 2.13037 -5.75 25.3078
      vertex 2.24 -5.75 26
    endloop
  endfacet
  facet normal 0 -1 0
    outer loop
      vertex 1.8122 -5.75 24.6834
      vertex 0.865647 -5.75 25.3711
      vertex 0.62893 -5.75 25.1344
    endloop
  endfacet
  facet normal 0 -1 0
    outer loop
      vertex 1.31664 -5.75 24.1878
      vertex 0.62893 -5.75 25.1344
      vertex 0.330647 -5.75 24.9824
    endloop
  endfacet
  facet normal 0 -1 0
    outer loop
      vertex 0.865647 -5.75 25.3711
      vertex 1.8122 -5.75 24.6834
      vertex 2.13037 -5.75 25.3078
    endloop
  endfacet
  facet normal 0 -1 0
    outer loop
      vertex 0.692198 -5.75 23.8696
      vertex 0.330647 -5.75 24.9824
      vertex 0 -5.75 24.93
    endloop
  endfacet
  facet normal 0 -1 0
    outer loop
      vertex -0.692198 -5.75 23.8696
      vertex -0.330647 -5.75 24.9824
      vertex -1.31664 -5.75 24.1878
    endloop
  endfacet
  facet normal 0 -1 -0
    outer loop
      vertex -0.330647 -5.75 24.9824
      vertex -0.692198 -5.75 23.8696
      vertex 0 -5.75 24.93
    endloop
  endfacet
  facet normal 0 -1 0
    outer loop
      vertex 0.62893 -5.75 25.1344
      vertex 1.31664 -5.75 24.1878
      vertex 1.8122 -5.75 24.6834
    endloop
  endfacet
  facet normal 0 -1 0
    outer loop
      vertex 0 -5.75 23.76
      vertex 0 -5.75 24.93
      vertex -0.692198 -5.75 23.8696
    endloop
  endfacet
  facet normal 0 -1 0
    outer loop
      vertex 0.330647 -5.75 24.9824
      vertex 0.692198 -5.75 23.8696
      vertex 1.31664 -5.75 24.1878
    endloop
  endfacet
  facet normal 0 -1 0
    outer loop
      vertex 0 -5.75 24.93
      vertex 0 -5.75 23.76
      vertex 0.692198 -5.75 23.8696
    endloop
  endfacet
  facet normal -0.707107 0 0.707107
    outer loop
      vertex 0.62893 -5.75 25.1344
      vertex 0.865647 -1.43 25.3711
      vertex 0.62893 -1.43 25.1344
    endloop
  endfacet
  facet normal -0.707107 0 0.707107
    outer loop
      vertex 0.865647 -1.43 25.3711
      vertex 0.62893 -5.75 25.1344
      vertex 0.865647 -5.75 25.3711
    endloop
  endfacet
  facet normal -0.891007 0 0.45399
    outer loop
      vertex 0.865647 -5.75 25.3711
      vertex 1.01763 -1.43 25.6694
      vertex 0.865647 -1.43 25.3711
    endloop
  endfacet
  facet normal -0.891007 0 0.45399
    outer loop
      vertex 1.01763 -1.43 25.6694
      vertex 0.865647 -5.75 25.3711
      vertex 1.01763 -5.75 25.6694
    endloop
  endfacet
  facet normal -0.453992 0 0.891006
    outer loop
      vertex 0.330647 -1.43 24.9824
      vertex 0.62893 -5.75 25.1344
      vertex 0.62893 -1.43 25.1344
    endloop
  endfacet
  facet normal -0.453992 0 0.891006
    outer loop
      vertex 0.62893 -5.75 25.1344
      vertex 0.330647 -1.43 24.9824
      vertex 0.330647 -5.75 24.9824
    endloop
  endfacet
  facet normal 0.453992 0 0.891006
    outer loop
      vertex -0.62893 -1.43 25.1344
      vertex -0.330647 -5.75 24.9824
      vertex -0.330647 -1.43 24.9824
    endloop
  endfacet
  facet normal 0.453992 0 0.891006
    outer loop
      vertex -0.330647 -5.75 24.9824
      vertex -0.62893 -1.43 25.1344
      vertex -0.62893 -5.75 25.1344
    endloop
  endfacet
  facet normal 0.707107 -0 0.707107
    outer loop
      vertex -0.865647 -5.75 25.3711
      vertex -0.62893 -1.43 25.1344
      vertex -0.865647 -1.43 25.3711
    endloop
  endfacet
  facet normal 0.707107 0 0.707107
    outer loop
      vertex -0.62893 -1.43 25.1344
      vertex -0.865647 -5.75 25.3711
      vertex -0.62893 -5.75 25.1344
    endloop
  endfacet
  facet normal 0.156436 0 0.987688
    outer loop
      vertex -0.330647 -1.43 24.9824
      vertex 0 -5.75 24.93
      vertex 0 -1.43 24.93
    endloop
  endfacet
  facet normal 0.156436 0 0.987688
    outer loop
      vertex 0 -5.75 24.93
      vertex -0.330647 -1.43 24.9824
      vertex -0.330647 -5.75 24.9824
    endloop
  endfacet
  facet normal -0.891007 0 -0.45399
    outer loop
      vertex 1.01763 -5.75 26.3306
      vertex 0.865647 -1.43 26.6289
      vertex 1.01763 -1.43 26.3306
    endloop
  endfacet
  facet normal -0.891007 -0 -0.45399
    outer loop
      vertex 0.865647 -1.43 26.6289
      vertex 1.01763 -5.75 26.3306
      vertex 0.865647 -5.75 26.6289
    endloop
  endfacet
  facet normal 0.707107 0 -0.707107
    outer loop
      vertex -0.62893 -5.75 26.8656
      vertex -0.865647 -1.43 26.6289
      vertex -0.62893 -1.43 26.8656
    endloop
  endfacet
  facet normal 0.707107 0 -0.707107
    outer loop
      vertex -0.865647 -1.43 26.6289
      vertex -0.62893 -5.75 26.8656
      vertex -0.865647 -5.75 26.6289
    endloop
  endfacet
  facet normal 0.987688 0 -0.156437
    outer loop
      vertex -1.01763 -5.75 26.3306
      vertex -1.07 -1.43 26
      vertex -1.01763 -1.43 26.3306
    endloop
  endfacet
  facet normal 0.987688 0 -0.156437
    outer loop
      vertex -1.07 -1.43 26
      vertex -1.01763 -5.75 26.3306
      vertex -1.07 -5.75 26
    endloop
  endfacet
  facet normal 0.891007 -0 0.45399
    outer loop
      vertex -1.01763 -5.75 25.6694
      vertex -0.865647 -1.43 25.3711
      vertex -1.01763 -1.43 25.6694
    endloop
  endfacet
  facet normal 0.891007 0 0.45399
    outer loop
      vertex -0.865647 -1.43 25.3711
      vertex -1.01763 -5.75 25.6694
      vertex -0.865647 -5.75 25.3711
    endloop
  endfacet
  facet normal 0 -1 0
    outer loop
      vertex -0.330647 -1.43 27.0176
      vertex 0 -1.43 27.0568
      vertex 0 -1.43 27.07
    endloop
  endfacet
  facet normal 0 -1 0
    outer loop
      vertex -0.330647 -1.43 27.0176
      vertex -0.326577 -1.43 27.0051
      vertex 0 -1.43 27.0568
    endloop
  endfacet
  facet normal 0 -1 0
    outer loop
      vertex -0.62893 -1.43 26.8656
      vertex -0.326577 -1.43 27.0051
      vertex -0.330647 -1.43 27.0176
    endloop
  endfacet
  facet normal 0 -1 0
    outer loop
      vertex -0.62893 -1.43 26.8656
      vertex -0.621186 -1.43 26.855
      vertex -0.326577 -1.43 27.0051
    endloop
  endfacet
  facet normal 0 -1 0
    outer loop
      vertex -0.865647 -1.43 26.6289
      vertex -0.621186 -1.43 26.855
      vertex -0.62893 -1.43 26.8656
    endloop
  endfacet
  facet normal 0 -1 0
    outer loop
      vertex -0.865647 -1.43 26.6289
      vertex -0.85499 -1.43 26.6212
      vertex -0.621186 -1.43 26.855
    endloop
  endfacet
  facet normal 0 -1 0
    outer loop
      vertex -1.01763 -1.43 26.3306
      vertex -0.85499 -1.43 26.6212
      vertex -0.865647 -1.43 26.6289
    endloop
  endfacet
  facet normal 0 -1 0
    outer loop
      vertex -1.01763 -1.43 26.3306
      vertex -1.0051 -1.43 26.3266
      vertex -0.85499 -1.43 26.6212
    endloop
  endfacet
  facet normal 0 -1 0
    outer loop
      vertex -1.07 -1.43 26
      vertex -1.0051 -1.43 26.3266
      vertex -1.01763 -1.43 26.3306
    endloop
  endfacet
  facet normal 0 -1 0
    outer loop
      vertex -1.07 -1.43 26
      vertex -1.05683 -1.43 26
      vertex -1.0051 -1.43 26.3266
    endloop
  endfacet
  facet normal 0 -1 0
    outer loop
      vertex -1.07 -1.43 26
      vertex -1.0051 -1.43 25.6734
      vertex -1.05683 -1.43 26
    endloop
  endfacet
  facet normal 0 -1 0
    outer loop
      vertex -1.01763 -1.43 25.6694
      vertex -1.0051 -1.43 25.6734
      vertex -1.07 -1.43 26
    endloop
  endfacet
  facet normal 0 -1 0
    outer loop
      vertex -1.01763 -1.43 25.6694
      vertex -0.85499 -1.43 25.3788
      vertex -1.0051 -1.43 25.6734
    endloop
  endfacet
  facet normal 0 -1 0
    outer loop
      vertex -0.865647 -1.43 25.3711
      vertex -0.85499 -1.43 25.3788
      vertex -1.01763 -1.43 25.6694
    endloop
  endfacet
  facet normal 0 -1 0
    outer loop
      vertex -0.865647 -1.43 25.3711
      vertex -0.621186 -1.43 25.145
      vertex -0.85499 -1.43 25.3788
    endloop
  endfacet
  facet normal 0 -1 0
    outer loop
      vertex -0.62893 -1.43 25.1344
      vertex -0.621186 -1.43 25.145
      vertex -0.865647 -1.43 25.3711
    endloop
  endfacet
  facet normal 0 -1 0
    outer loop
      vertex -0.62893 -1.43 25.1344
      vertex -0.326577 -1.43 24.9949
      vertex -0.621186 -1.43 25.145
    endloop
  endfacet
  facet normal 0 -1 0
    outer loop
      vertex -0.330647 -1.43 24.9824
      vertex -0.326577 -1.43 24.9949
      vertex -0.62893 -1.43 25.1344
    endloop
  endfacet
  facet normal 0 -1 0
    outer loop
      vertex -0.330647 -1.43 24.9824
      vertex 0 -1.43 24.9432
      vertex -0.326577 -1.43 24.9949
    endloop
  endfacet
  facet normal -0 -1 -0
    outer loop
      vertex 0 -1.43 24.9432
      vertex -0.330647 -1.43 24.9824
      vertex 0 -1.43 24.93
    endloop
  endfacet
  facet normal 0 -1 0
    outer loop
      vertex 0 -1.43 27.0568
      vertex 0.330647 -1.43 27.0176
      vertex 0 -1.43 27.07
    endloop
  endfacet
  facet normal 0 -1 0
    outer loop
      vertex 0.326577 -1.43 27.0051
      vertex 0.330647 -1.43 27.0176
      vertex 0 -1.43 27.0568
    endloop
  endfacet
  facet normal 0 -1 0
    outer loop
      vertex 0.326577 -1.43 27.0051
      vertex 0.62893 -1.43 26.8656
      vertex 0.330647 -1.43 27.0176
    endloop
  endfacet
  facet normal 0 -1 0
    outer loop
      vertex 0.621186 -1.43 26.855
      vertex 0.62893 -1.43 26.8656
      vertex 0.326577 -1.43 27.0051
    endloop
  endfacet
  facet normal 0 -1 0
    outer loop
      vertex 0.621186 -1.43 26.855
      vertex 0.865647 -1.43 26.6289
      vertex 0.62893 -1.43 26.8656
    endloop
  endfacet
  facet normal 0 -1 0
    outer loop
      vertex 0.85499 -1.43 26.6212
      vertex 0.865647 -1.43 26.6289
      vertex 0.621186 -1.43 26.855
    endloop
  endfacet
  facet normal 0 -1 0
    outer loop
      vertex 0.85499 -1.43 26.6212
      vertex 1.01763 -1.43 26.3306
      vertex 0.865647 -1.43 26.6289
    endloop
  endfacet
  facet normal 0 -1 0
    outer loop
      vertex 1.0051 -1.43 26.3266
      vertex 1.01763 -1.43 26.3306
      vertex 0.85499 -1.43 26.6212
    endloop
  endfacet
  facet normal 0 -1 0
    outer loop
      vertex 1.05683 -1.43 26
      vertex 1.01763 -1.43 26.3306
      vertex 1.0051 -1.43 26.3266
    endloop
  endfacet
  facet normal 0 -1 0
    outer loop
      vertex 1.05683 -1.43 26
      vertex 1.07 -1.43 26
      vertex 1.01763 -1.43 26.3306
    endloop
  endfacet
  facet normal 0 -1 0
    outer loop
      vertex 1.0051 -1.43 25.6734
      vertex 1.07 -1.43 26
      vertex 1.05683 -1.43 26
    endloop
  endfacet
  facet normal 0 -1 0
    outer loop
      vertex 1.0051 -1.43 25.6734
      vertex 1.01763 -1.43 25.6694
      vertex 1.07 -1.43 26
    endloop
  endfacet
  facet normal 0 -1 0
    outer loop
      vertex 0.85499 -1.43 25.3788
      vertex 1.01763 -1.43 25.6694
      vertex 1.0051 -1.43 25.6734
    endloop
  endfacet
  facet normal 0 -1 0
    outer loop
      vertex 0.85499 -1.43 25.3788
      vertex 0.865647 -1.43 25.3711
      vertex 1.01763 -1.43 25.6694
    endloop
  endfacet
  facet normal 0 -1 0
    outer loop
      vertex 0.621186 -1.43 25.145
      vertex 0.865647 -1.43 25.3711
      vertex 0.85499 -1.43 25.3788
    endloop
  endfacet
  facet normal 0 -1 0
    outer loop
      vertex 0.621186 -1.43 25.145
      vertex 0.62893 -1.43 25.1344
      vertex 0.865647 -1.43 25.3711
    endloop
  endfacet
  facet normal 0 -1 0
    outer loop
      vertex 0.326577 -1.43 24.9949
      vertex 0.62893 -1.43 25.1344
      vertex 0.621186 -1.43 25.145
    endloop
  endfacet
  facet normal 0 -1 0
    outer loop
      vertex 0.326577 -1.43 24.9949
      vertex 0.330647 -1.43 24.9824
      vertex 0.62893 -1.43 25.1344
    endloop
  endfacet
  facet normal 0 -1 0
    outer loop
      vertex 0 -1.43 24.9432
      vertex 0.330647 -1.43 24.9824
      vertex 0.326577 -1.43 24.9949
    endloop
  endfacet
  facet normal 0 -1 0
    outer loop
      vertex 0.330647 -1.43 24.9824
      vertex 0 -1.43 24.9432
      vertex 0 -1.43 24.93
    endloop
  endfacet
  facet normal -0.987688 0 -0.156437
    outer loop
      vertex 1.07 -5.75 26
      vertex 1.01763 -1.43 26.3306
      vertex 1.07 -1.43 26
    endloop
  endfacet
  facet normal -0.987688 -0 -0.156437
    outer loop
      vertex 1.01763 -1.43 26.3306
      vertex 1.07 -5.75 26
      vertex 1.01763 -5.75 26.3306
    endloop
  endfacet
  facet normal -0.156436 0 -0.987688
    outer loop
      vertex 0 -5.75 27.07
      vertex 0.330647 -1.43 27.0176
      vertex 0.330647 -5.75 27.0176
    endloop
  endfacet
  facet normal -0.156436 0 -0.987688
    outer loop
      vertex 0.330647 -1.43 27.0176
      vertex 0 -5.75 27.07
      vertex 0 -1.43 27.07
    endloop
  endfacet
  facet normal -0.707107 0 -0.707107
    outer loop
      vertex 0.865647 -5.75 26.6289
      vertex 0.62893 -1.43 26.8656
      vertex 0.865647 -1.43 26.6289
    endloop
  endfacet
  facet normal -0.707107 -0 -0.707107
    outer loop
      vertex 0.62893 -1.43 26.8656
      vertex 0.865647 -5.75 26.6289
      vertex 0.62893 -5.75 26.8656
    endloop
  endfacet
  facet normal 0.453992 0 -0.891006
    outer loop
      vertex -0.62893 -5.75 26.8656
      vertex -0.330647 -1.43 27.0176
      vertex -0.330647 -5.75 27.0176
    endloop
  endfacet
  facet normal 0.453992 0 -0.891006
    outer loop
      vertex -0.330647 -1.43 27.0176
      vertex -0.62893 -5.75 26.8656
      vertex -0.62893 -1.43 26.8656
    endloop
  endfacet
  facet normal 0.891007 0 -0.45399
    outer loop
      vertex -0.865647 -5.75 26.6289
      vertex -1.01763 -1.43 26.3306
      vertex -0.865647 -1.43 26.6289
    endloop
  endfacet
  facet normal 0.891007 0 -0.45399
    outer loop
      vertex -1.01763 -1.43 26.3306
      vertex -0.865647 -5.75 26.6289
      vertex -1.01763 -5.75 26.3306
    endloop
  endfacet
  facet normal -0.453992 0 -0.891006
    outer loop
      vertex 0.330647 -5.75 27.0176
      vertex 0.62893 -1.43 26.8656
      vertex 0.62893 -5.75 26.8656
    endloop
  endfacet
  facet normal -0.453992 0 -0.891006
    outer loop
      vertex 0.62893 -1.43 26.8656
      vertex 0.330647 -5.75 27.0176
      vertex 0.330647 -1.43 27.0176
    endloop
  endfacet
  facet normal -0.987688 0 0.156435
    outer loop
      vertex 2.13037 -9 25.3078
      vertex 2.24 -5.75 26
      vertex 2.13037 -5.75 25.3078
    endloop
  endfacet
  facet normal -0.987688 0 0.156435
    outer loop
      vertex 2.24 -5.75 26
      vertex 2.13037 -9 25.3078
      vertex 2.24 -9 26
    endloop
  endfacet
  facet normal 0.987688 -0 0.156435
    outer loop
      vertex -2.24 -9 26
      vertex -2.13037 -5.75 25.3078
      vertex -2.24 -5.75 26
    endloop
  endfacet
  facet normal 0.987688 0 0.156435
    outer loop
      vertex -2.13037 -5.75 25.3078
      vertex -2.24 -9 26
      vertex -2.13037 -9 25.3078
    endloop
  endfacet
  facet normal -0.156433 0 0.987689
    outer loop
      vertex 0 -5.75 23.76
      vertex 0.692198 -9 23.8696
      vertex 0.692198 -5.75 23.8696
    endloop
  endfacet
  facet normal -0.156433 0 0.987689
    outer loop
      vertex 0.692198 -9 23.8696
      vertex 0 -5.75 23.76
      vertex 0 -9 23.76
    endloop
  endfacet
  facet normal -0.707107 0 0.707106
    outer loop
      vertex 1.31664 -9 24.1878
      vertex 1.8122 -5.75 24.6834
      vertex 1.31664 -5.75 24.1878
    endloop
  endfacet
  facet normal -0.707107 0 0.707106
    outer loop
      vertex 1.8122 -5.75 24.6834
      vertex 1.31664 -9 24.1878
      vertex 1.8122 -9 24.6834
    endloop
  endfacet
  facet normal -0.891007 0 0.45399
    outer loop
      vertex 1.8122 -9 24.6834
      vertex 2.13037 -5.75 25.3078
      vertex 1.8122 -5.75 24.6834
    endloop
  endfacet
  facet normal -0.891007 0 0.45399
    outer loop
      vertex 2.13037 -5.75 25.3078
      vertex 1.8122 -9 24.6834
      vertex 2.13037 -9 25.3078
    endloop
  endfacet
  facet normal -0.45399 0 0.891007
    outer loop
      vertex 0.692198 -5.75 23.8696
      vertex 1.31664 -9 24.1878
      vertex 1.31664 -5.75 24.1878
    endloop
  endfacet
  facet normal -0.45399 0 0.891007
    outer loop
      vertex 1.31664 -9 24.1878
      vertex 0.692198 -5.75 23.8696
      vertex 0.692198 -9 23.8696
    endloop
  endfacet
  facet normal 0.45399 0 0.891007
    outer loop
      vertex -1.31664 -5.75 24.1878
      vertex -0.692198 -9 23.8696
      vertex -0.692198 -5.75 23.8696
    endloop
  endfacet
  facet normal 0.45399 0 0.891007
    outer loop
      vertex -0.692198 -9 23.8696
      vertex -1.31664 -5.75 24.1878
      vertex -1.31664 -9 24.1878
    endloop
  endfacet
  facet normal 0.707107 -0 0.707106
    outer loop
      vertex -1.8122 -9 24.6834
      vertex -1.31664 -5.75 24.1878
      vertex -1.8122 -5.75 24.6834
    endloop
  endfacet
  facet normal 0.707107 0 0.707106
    outer loop
      vertex -1.31664 -5.75 24.1878
      vertex -1.8122 -9 24.6834
      vertex -1.31664 -9 24.1878
    endloop
  endfacet
  facet normal 0.156433 0 0.987689
    outer loop
      vertex -0.692198 -5.75 23.8696
      vertex 0 -9 23.76
      vertex 0 -5.75 23.76
    endloop
  endfacet
  facet normal 0.156433 0 0.987689
    outer loop
      vertex 0 -9 23.76
      vertex -0.692198 -5.75 23.8696
      vertex -0.692198 -9 23.8696
    endloop
  endfacet
  facet normal -0.891007 0 -0.45399
    outer loop
      vertex 2.13037 -9 26.6922
      vertex 1.8122 -5.75 27.3166
      vertex 2.13037 -5.75 26.6922
    endloop
  endfacet
  facet normal -0.891007 -0 -0.45399
    outer loop
      vertex 1.8122 -5.75 27.3166
      vertex 2.13037 -9 26.6922
      vertex 1.8122 -9 27.3166
    endloop
  endfacet
  facet normal 0.707107 0 -0.707106
    outer loop
      vertex -1.31664 -9 27.8122
      vertex -1.8122 -5.75 27.3166
      vertex -1.31664 -5.75 27.8122
    endloop
  endfacet
  facet normal 0.707107 0 -0.707106
    outer loop
      vertex -1.8122 -5.75 27.3166
      vertex -1.31664 -9 27.8122
      vertex -1.8122 -9 27.3166
    endloop
  endfacet
  facet normal 0.987688 0 -0.156435
    outer loop
      vertex -2.13037 -9 26.6922
      vertex -2.24 -5.75 26
      vertex -2.13037 -5.75 26.6922
    endloop
  endfacet
  facet normal 0.987688 0 -0.156435
    outer loop
      vertex -2.24 -5.75 26
      vertex -2.13037 -9 26.6922
      vertex -2.24 -9 26
    endloop
  endfacet
  facet normal 0.891007 -0 0.45399
    outer loop
      vertex -2.13037 -9 25.3078
      vertex -1.8122 -5.75 24.6834
      vertex -2.13037 -5.75 25.3078
    endloop
  endfacet
  facet normal 0.891007 0 0.45399
    outer loop
      vertex -1.8122 -5.75 24.6834
      vertex -2.13037 -9 25.3078
      vertex -1.8122 -9 24.6834
    endloop
  endfacet
  facet normal -0.156433 0 -0.987689
    outer loop
      vertex 0 -9 28.24
      vertex 0.692198 -5.75 28.1304
      vertex 0.692198 -9 28.1304
    endloop
  endfacet
  facet normal -0.156433 0 -0.987689
    outer loop
      vertex 0.692198 -5.75 28.1304
      vertex 0 -9 28.24
      vertex 0 -5.75 28.24
    endloop
  endfacet
  facet normal -0.707107 0 -0.707106
    outer loop
      vertex 1.8122 -9 27.3166
      vertex 1.31664 -5.75 27.8122
      vertex 1.8122 -5.75 27.3166
    endloop
  endfacet
  facet normal -0.707107 -0 -0.707106
    outer loop
      vertex 1.31664 -5.75 27.8122
      vertex 1.8122 -9 27.3166
      vertex 1.31664 -9 27.8122
    endloop
  endfacet
  facet normal 0.45399 0 -0.891007
    outer loop
      vertex -1.31664 -9 27.8122
      vertex -0.692198 -5.75 28.1304
      vertex -0.692198 -9 28.1304
    endloop
  endfacet
  facet normal 0.45399 0 -0.891007
    outer loop
      vertex -0.692198 -5.75 28.1304
      vertex -1.31664 -9 27.8122
      vertex -1.31664 -5.75 27.8122
    endloop
  endfacet
  facet normal 0.891007 0 -0.45399
    outer loop
      vertex -1.8122 -9 27.3166
      vertex -2.13037 -5.75 26.6922
      vertex -1.8122 -5.75 27.3166
    endloop
  endfacet
  facet normal 0.891007 0 -0.45399
    outer loop
      vertex -2.13037 -5.75 26.6922
      vertex -1.8122 -9 27.3166
      vertex -2.13037 -9 26.6922
    endloop
  endfacet
  facet normal -0.987688 0 -0.156435
    outer loop
      vertex 2.24 -9 26
      vertex 2.13037 -5.75 26.6922
      vertex 2.24 -5.75 26
    endloop
  endfacet
  facet normal -0.987688 -0 -0.156435
    outer loop
      vertex 2.13037 -5.75 26.6922
      vertex 2.24 -9 26
      vertex 2.13037 -9 26.6922
    endloop
  endfacet
  facet normal -0.45399 0 -0.891007
    outer loop
      vertex 0.692198 -9 28.1304
      vertex 1.31664 -5.75 27.8122
      vertex 1.31664 -9 27.8122
    endloop
  endfacet
  facet normal -0.45399 0 -0.891007
    outer loop
      vertex 1.31664 -5.75 27.8122
      vertex 0.692198 -9 28.1304
      vertex 0.692198 -5.75 28.1304
    endloop
  endfacet
  facet normal 0.156433 0 -0.987689
    outer loop
      vertex -0.692198 -9 28.1304
      vertex 0 -5.75 28.24
      vertex 0 -9 28.24
    endloop
  endfacet
  facet normal 0.156433 0 -0.987689
    outer loop
      vertex 0 -5.75 28.24
      vertex -0.692198 -9 28.1304
      vertex -0.692198 -5.75 28.1304
    endloop
  endfacet
  facet normal 0.986868 -0.0407377 -0.156304
    outer loop
      vertex 2.64 -9 26
      vertex 2.51079 -9 25.1842
      vertex 3.04 0.69 26
    endloop
  endfacet
  facet normal -0.986868 -0.0407377 0.156304
    outer loop
      vertex -2.51079 -9 26.8158
      vertex -3.04 0.69 26
      vertex -2.64 -9 26
    endloop
  endfacet
  facet normal -0.156305 -0.0407378 -0.986868
    outer loop
      vertex 0 -9 23.36
      vertex -0.815804 -9 23.4892
      vertex 0 0.69 22.96
    endloop
  endfacet
  facet normal 0.986868 -0.0407376 0.156305
    outer loop
      vertex 2.89121 0.69 26.9394
      vertex 2.51079 -9 26.8158
      vertex 3.04 0.69 26
    endloop
  endfacet
  facet normal 0.890267 -0.0407376 -0.453613
    outer loop
      vertex 2.51079 -9 25.1842
      vertex 2.45941 0.69 24.2131
      vertex 2.89121 0.69 25.0606
    endloop
  endfacet
  facet normal 0.156305 -0.0407378 0.986868
    outer loop
      vertex 0.815804 -9 28.5108
      vertex 0 0.69 29.04
      vertex 0 -9 28.64
    endloop
  endfacet
  facet normal -0.890267 -0.0407376 0.453613
    outer loop
      vertex -2.45941 0.69 27.7869
      vertex -2.51079 -9 26.8158
      vertex -2.1358 -9 27.5518
    endloop
  endfacet
  facet normal -0.986868 -0.0407376 -0.156305
    outer loop
      vertex -2.51079 -9 25.1842
      vertex -3.04 0.69 26
      vertex -2.89121 0.69 25.0606
    endloop
  endfacet
  facet normal 0.986868 -0.0407376 -0.156305
    outer loop
      vertex 3.04 0.69 26
      vertex 2.51079 -9 25.1842
      vertex 2.89121 0.69 25.0606
    endloop
  endfacet
  facet normal 0.70652 -0.0407377 0.70652
    outer loop
      vertex 1.55175 -9 28.1358
      vertex 2.45941 0.69 27.7869
      vertex 1.78687 0.69 28.4594
    endloop
  endfacet
  facet normal 0.706519 -0.0407376 0.706521
    outer loop
      vertex 2.45941 0.69 27.7869
      vertex 1.55175 -9 28.1358
      vertex 2.1358 -9 27.5518
    endloop
  endfacet
  facet normal 0.453614 -0.0407378 0.890267
    outer loop
      vertex 1.78687 0.69 28.4594
      vertex 0.815804 -9 28.5108
      vertex 1.55175 -9 28.1358
    endloop
  endfacet
  facet normal 0 -1 0
    outer loop
      vertex 0 -9 28.24
      vertex 0 -9 28.64
      vertex -0.815804 -9 28.5108
    endloop
  endfacet
  facet normal 0 -1 0
    outer loop
      vertex 0 -9 28.64
      vertex 0 -9 28.24
      vertex 0.815804 -9 28.5108
    endloop
  endfacet
  facet normal 0 -1 0
    outer loop
      vertex -0.692198 -9 28.1304
      vertex -0.815804 -9 28.5108
      vertex -1.55175 -9 28.1358
    endloop
  endfacet
  facet normal 0 -1 0
    outer loop
      vertex -0.815804 -9 28.5108
      vertex -0.692198 -9 28.1304
      vertex 0 -9 28.24
    endloop
  endfacet
  facet normal 0 -1 0
    outer loop
      vertex -1.55175 -9 28.1358
      vertex -1.31664 -9 27.8122
      vertex -0.692198 -9 28.1304
    endloop
  endfacet
  facet normal 0 -1 0
    outer loop
      vertex -2.1358 -9 27.5518
      vertex -1.31664 -9 27.8122
      vertex -1.55175 -9 28.1358
    endloop
  endfacet
  facet normal 0 -1 0
    outer loop
      vertex -2.1358 -9 27.5518
      vertex -1.8122 -9 27.3166
      vertex -1.31664 -9 27.8122
    endloop
  endfacet
  facet normal 0 -1 0
    outer loop
      vertex -2.51079 -9 26.8158
      vertex -1.8122 -9 27.3166
      vertex -2.1358 -9 27.5518
    endloop
  endfacet
  facet normal 0 -1 0
    outer loop
      vertex -2.51079 -9 26.8158
      vertex -2.13037 -9 26.6922
      vertex -1.8122 -9 27.3166
    endloop
  endfacet
  facet normal 0 -1 0
    outer loop
      vertex -2.64 -9 26
      vertex -2.13037 -9 26.6922
      vertex -2.51079 -9 26.8158
    endloop
  endfacet
  facet normal 0 -1 0
    outer loop
      vertex -2.64 -9 26
      vertex -2.24 -9 26
      vertex -2.13037 -9 26.6922
    endloop
  endfacet
  facet normal 0 -1 0
    outer loop
      vertex -2.64 -9 26
      vertex -2.13037 -9 25.3078
      vertex -2.24 -9 26
    endloop
  endfacet
  facet normal 0 -1 0
    outer loop
      vertex -2.51079 -9 25.1842
      vertex -2.13037 -9 25.3078
      vertex -2.64 -9 26
    endloop
  endfacet
  facet normal 0 -1 0
    outer loop
      vertex -2.51079 -9 25.1842
      vertex -1.8122 -9 24.6834
      vertex -2.13037 -9 25.3078
    endloop
  endfacet
  facet normal 0 -1 0
    outer loop
      vertex -2.1358 -9 24.4482
      vertex -1.8122 -9 24.6834
      vertex -2.51079 -9 25.1842
    endloop
  endfacet
  facet normal 0 -1 0
    outer loop
      vertex -2.1358 -9 24.4482
      vertex -1.31664 -9 24.1878
      vertex -1.8122 -9 24.6834
    endloop
  endfacet
  facet normal 0 -1 0
    outer loop
      vertex -1.55175 -9 23.8642
      vertex -1.31664 -9 24.1878
      vertex -2.1358 -9 24.4482
    endloop
  endfacet
  facet normal 0 -1 -0
    outer loop
      vertex -1.31664 -9 24.1878
      vertex -1.55175 -9 23.8642
      vertex -0.692198 -9 23.8696
    endloop
  endfacet
  facet normal 0 -1 0
    outer loop
      vertex -0.815804 -9 23.4892
      vertex -0.692198 -9 23.8696
      vertex -1.55175 -9 23.8642
    endloop
  endfacet
  facet normal 0 -1 -0
    outer loop
      vertex -0.692198 -9 23.8696
      vertex -0.815804 -9 23.4892
      vertex 0 -9 23.76
    endloop
  endfacet
  facet normal 0 -1 0
    outer loop
      vertex 0.692198 -9 28.1304
      vertex 0.815804 -9 28.5108
      vertex 0 -9 28.24
    endloop
  endfacet
  facet normal 0 -1 -0
    outer loop
      vertex 0.815804 -9 28.5108
      vertex 0.692198 -9 28.1304
      vertex 1.55175 -9 28.1358
    endloop
  endfacet
  facet normal 0 -1 0
    outer loop
      vertex 1.31664 -9 27.8122
      vertex 1.55175 -9 28.1358
      vertex 0.692198 -9 28.1304
    endloop
  endfacet
  facet normal 0 -1 0
    outer loop
      vertex 1.31664 -9 27.8122
      vertex 2.1358 -9 27.5518
      vertex 1.55175 -9 28.1358
    endloop
  endfacet
  facet normal 0 -1 0
    outer loop
      vertex 1.8122 -9 27.3166
      vertex 2.1358 -9 27.5518
      vertex 1.31664 -9 27.8122
    endloop
  endfacet
  facet normal 0 -1 0
    outer loop
      vertex 1.8122 -9 27.3166
      vertex 2.51079 -9 26.8158
      vertex 2.1358 -9 27.5518
    endloop
  endfacet
  facet normal 0 -1 0
    outer loop
      vertex 2.13037 -9 26.6922
      vertex 2.51079 -9 26.8158
      vertex 1.8122 -9 27.3166
    endloop
  endfacet
  facet normal 0 -1 0
    outer loop
      vertex 2.24 -9 26
      vertex 2.51079 -9 26.8158
      vertex 2.13037 -9 26.6922
    endloop
  endfacet
  facet normal 0 -1 0
    outer loop
      vertex 2.24 -9 26
      vertex 2.64 -9 26
      vertex 2.51079 -9 26.8158
    endloop
  endfacet
  facet normal 0 -1 0
    outer loop
      vertex 2.13037 -9 25.3078
      vertex 2.64 -9 26
      vertex 2.24 -9 26
    endloop
  endfacet
  facet normal 0 -1 0
    outer loop
      vertex 2.13037 -9 25.3078
      vertex 2.51079 -9 25.1842
      vertex 2.64 -9 26
    endloop
  endfacet
  facet normal 0 -1 0
    outer loop
      vertex 1.8122 -9 24.6834
      vertex 2.51079 -9 25.1842
      vertex 2.13037 -9 25.3078
    endloop
  endfacet
  facet normal 0 -1 0
    outer loop
      vertex 1.8122 -9 24.6834
      vertex 2.1358 -9 24.4482
      vertex 2.51079 -9 25.1842
    endloop
  endfacet
  facet normal 0 -1 0
    outer loop
      vertex 1.31664 -9 24.1878
      vertex 2.1358 -9 24.4482
      vertex 1.8122 -9 24.6834
    endloop
  endfacet
  facet normal 0 -1 0
    outer loop
      vertex 1.55175 -9 23.8642
      vertex 1.31664 -9 24.1878
      vertex 0.692198 -9 23.8696
    endloop
  endfacet
  facet normal 0 -1 0
    outer loop
      vertex 1.31664 -9 24.1878
      vertex 1.55175 -9 23.8642
      vertex 2.1358 -9 24.4482
    endloop
  endfacet
  facet normal 0 -1 0
    outer loop
      vertex 0.815804 -9 23.4892
      vertex 0.692198 -9 23.8696
      vertex 0 -9 23.76
    endloop
  endfacet
  facet normal 0 -1 0
    outer loop
      vertex 0 -9 23.36
      vertex 0 -9 23.76
      vertex -0.815804 -9 23.4892
    endloop
  endfacet
  facet normal 0 -1 0
    outer loop
      vertex 0.692198 -9 23.8696
      vertex 0.815804 -9 23.4892
      vertex 1.55175 -9 23.8642
    endloop
  endfacet
  facet normal 0 -1 0
    outer loop
      vertex 0 -9 23.76
      vertex 0 -9 23.36
      vertex 0.815804 -9 23.4892
    endloop
  endfacet
  facet normal -0.706519 -0.0407376 0.706521
    outer loop
      vertex -1.55175 -9 28.1358
      vertex -2.45941 0.69 27.7869
      vertex -2.1358 -9 27.5518
    endloop
  endfacet
  facet normal -0.70652 -0.0407377 0.70652
    outer loop
      vertex -2.45941 0.69 27.7869
      vertex -1.55175 -9 28.1358
      vertex -1.78687 0.69 28.4594
    endloop
  endfacet
  facet normal 0 1 0
    outer loop
      vertex 0.939411 0.69 28.8912
      vertex -0.939411 0.69 28.8912
      vertex 0 0.69 29.04
    endloop
  endfacet
  facet normal 0 1 0
    outer loop
      vertex 1.78687 0.69 28.4594
      vertex -0.939411 0.69 28.8912
      vertex 0.939411 0.69 28.8912
    endloop
  endfacet
  facet normal 0 1 0
    outer loop
      vertex 1.78687 0.69 28.4594
      vertex -1.78687 0.69 28.4594
      vertex -0.939411 0.69 28.8912
    endloop
  endfacet
  facet normal 0 1 0
    outer loop
      vertex 2.45941 0.69 27.7869
      vertex -1.78687 0.69 28.4594
      vertex 1.78687 0.69 28.4594
    endloop
  endfacet
  facet normal 0 1 0
    outer loop
      vertex 2.45941 0.69 27.7869
      vertex -2.45941 0.69 27.7869
      vertex -1.78687 0.69 28.4594
    endloop
  endfacet
  facet normal 0 1 0
    outer loop
      vertex 2.89121 0.69 26.9394
      vertex -2.45941 0.69 27.7869
      vertex 2.45941 0.69 27.7869
    endloop
  endfacet
  facet normal 0 1 0
    outer loop
      vertex 2.89121 0.69 26.9394
      vertex -2.89121 0.69 26.9394
      vertex -2.45941 0.69 27.7869
    endloop
  endfacet
  facet normal 0 1 0
    outer loop
      vertex 3.04 0.69 26
      vertex -2.89121 0.69 26.9394
      vertex 2.89121 0.69 26.9394
    endloop
  endfacet
  facet normal 0 1 0
    outer loop
      vertex 3.04 0.69 26
      vertex -3.04 0.69 26
      vertex -2.89121 0.69 26.9394
    endloop
  endfacet
  facet normal 0 1 -0
    outer loop
      vertex 2.89121 0.69 25.0606
      vertex -3.04 0.69 26
      vertex 3.04 0.69 26
    endloop
  endfacet
  facet normal 0 1 0
    outer loop
      vertex 2.89121 0.69 25.0606
      vertex -2.89121 0.69 25.0606
      vertex -3.04 0.69 26
    endloop
  endfacet
  facet normal 0 1 -0
    outer loop
      vertex 2.45941 0.69 24.2131
      vertex -2.89121 0.69 25.0606
      vertex 2.89121 0.69 25.0606
    endloop
  endfacet
  facet normal 0 1 0
    outer loop
      vertex 2.45941 0.69 24.2131
      vertex -2.45941 0.69 24.2131
      vertex -2.89121 0.69 25.0606
    endloop
  endfacet
  facet normal 0 1 -0
    outer loop
      vertex 1.78687 0.69 23.5406
      vertex -2.45941 0.69 24.2131
      vertex 2.45941 0.69 24.2131
    endloop
  endfacet
  facet normal 0 1 0
    outer loop
      vertex 1.78687 0.69 23.5406
      vertex -1.78687 0.69 23.5406
      vertex -2.45941 0.69 24.2131
    endloop
  endfacet
  facet normal 0 1 -0
    outer loop
      vertex 0.939411 0.69 23.1088
      vertex -1.78687 0.69 23.5406
      vertex 1.78687 0.69 23.5406
    endloop
  endfacet
  facet normal 0 1 0
    outer loop
      vertex 0.939411 0.69 23.1088
      vertex -0.939411 0.69 23.1088
      vertex -1.78687 0.69 23.5406
    endloop
  endfacet
  facet normal -0 1 0
    outer loop
      vertex -0.939411 0.69 23.1088
      vertex 0.939411 0.69 23.1088
      vertex 0 0.69 22.96
    endloop
  endfacet
  facet normal -0.453614 -0.0407378 -0.890267
    outer loop
      vertex -1.55175 -9 23.8642
      vertex -1.78687 0.69 23.5406
      vertex -0.815804 -9 23.4892
    endloop
  endfacet
  facet normal 0.156305 -0.0407378 -0.986868
    outer loop
      vertex 0.815804 -9 23.4892
      vertex 0 0.69 22.96
      vertex 0.939411 0.69 23.1088
    endloop
  endfacet
  facet normal 0.890267 -0.0407376 0.453613
    outer loop
      vertex 2.89121 0.69 26.9394
      vertex 2.45941 0.69 27.7869
      vertex 2.51079 -9 26.8158
    endloop
  endfacet
  facet normal 0.986868 -0.0407377 0.156304
    outer loop
      vertex 3.04 0.69 26
      vertex 2.51079 -9 26.8158
      vertex 2.64 -9 26
    endloop
  endfacet
  facet normal 0.453614 -0.0407378 0.890267
    outer loop
      vertex 0.939411 0.69 28.8912
      vertex 0.815804 -9 28.5108
      vertex 1.78687 0.69 28.4594
    endloop
  endfacet
  facet normal 0.156305 -0.0407378 0.986868
    outer loop
      vertex 0.939411 0.69 28.8912
      vertex 0 0.69 29.04
      vertex 0.815804 -9 28.5108
    endloop
  endfacet
  facet normal -0.890267 -0.0407376 0.453613
    outer loop
      vertex -2.45941 0.69 27.7869
      vertex -2.89121 0.69 26.9394
      vertex -2.51079 -9 26.8158
    endloop
  endfacet
  facet normal -0.986868 -0.0407376 0.156305
    outer loop
      vertex -2.89121 0.69 26.9394
      vertex -3.04 0.69 26
      vertex -2.51079 -9 26.8158
    endloop
  endfacet
  facet normal -0.890267 -0.0407376 -0.453613
    outer loop
      vertex -2.51079 -9 25.1842
      vertex -2.89121 0.69 25.0606
      vertex -2.45941 0.69 24.2131
    endloop
  endfacet
  facet normal -0.70652 -0.0407377 -0.70652
    outer loop
      vertex -1.55175 -9 23.8642
      vertex -2.45941 0.69 24.2131
      vertex -1.78687 0.69 23.5406
    endloop
  endfacet
  facet normal -0.706519 -0.0407376 -0.706521
    outer loop
      vertex -2.45941 0.69 24.2131
      vertex -1.55175 -9 23.8642
      vertex -2.1358 -9 24.4482
    endloop
  endfacet
  facet normal -0.986868 -0.0407377 -0.156304
    outer loop
      vertex -2.64 -9 26
      vertex -3.04 0.69 26
      vertex -2.51079 -9 25.1842
    endloop
  endfacet
  facet normal -0.453614 -0.0407378 -0.890267
    outer loop
      vertex -0.815804 -9 23.4892
      vertex -1.78687 0.69 23.5406
      vertex -0.939411 0.69 23.1088
    endloop
  endfacet
  facet normal -0.156305 -0.0407378 -0.986868
    outer loop
      vertex -0.815804 -9 23.4892
      vertex -0.939411 0.69 23.1088
      vertex 0 0.69 22.96
    endloop
  endfacet
  facet normal 0.453614 -0.0407378 -0.890267
    outer loop
      vertex 1.78687 0.69 23.5406
      vertex 0.815804 -9 23.4892
      vertex 0.939411 0.69 23.1088
    endloop
  endfacet
  facet normal 0.453614 -0.0407378 -0.890267
    outer loop
      vertex 1.55175 -9 23.8642
      vertex 0.815804 -9 23.4892
      vertex 1.78687 0.69 23.5406
    endloop
  endfacet
  facet normal 0.890267 -0.0407376 0.453613
    outer loop
      vertex 2.45941 0.69 27.7869
      vertex 2.1358 -9 27.5518
      vertex 2.51079 -9 26.8158
    endloop
  endfacet
  facet normal -0.156305 -0.0407378 0.986868
    outer loop
      vertex 0 0.69 29.04
      vertex -0.815804 -9 28.5108
      vertex 0 -9 28.64
    endloop
  endfacet
  facet normal -0.890267 -0.0407376 -0.453613
    outer loop
      vertex -2.1358 -9 24.4482
      vertex -2.51079 -9 25.1842
      vertex -2.45941 0.69 24.2131
    endloop
  endfacet
  facet normal 0.706519 -0.0407376 -0.706521
    outer loop
      vertex 1.55175 -9 23.8642
      vertex 2.45941 0.69 24.2131
      vertex 2.1358 -9 24.4482
    endloop
  endfacet
  facet normal 0.70652 -0.0407377 -0.70652
    outer loop
      vertex 2.45941 0.69 24.2131
      vertex 1.55175 -9 23.8642
      vertex 1.78687 0.69 23.5406
    endloop
  endfacet
  facet normal 0.890267 -0.0407376 -0.453613
    outer loop
      vertex 2.51079 -9 25.1842
      vertex 2.1358 -9 24.4482
      vertex 2.45941 0.69 24.2131
    endloop
  endfacet
  facet normal 0.156305 -0.0407378 -0.986868
    outer loop
      vertex 0.815804 -9 23.4892
      vertex 0 -9 23.36
      vertex 0 0.69 22.96
    endloop
  endfacet
  facet normal -0.453614 -0.0407378 0.890267
    outer loop
      vertex -0.939411 0.69 28.8912
      vertex -1.78687 0.69 28.4594
      vertex -0.815804 -9 28.5108
    endloop
  endfacet
  facet normal -0.156305 -0.0407378 0.986868
    outer loop
      vertex 0 0.69 29.04
      vertex -0.939411 0.69 28.8912
      vertex -0.815804 -9 28.5108
    endloop
  endfacet
  facet normal -0.453614 -0.0407378 0.890267
    outer loop
      vertex -0.815804 -9 28.5108
      vertex -1.78687 0.69 28.4594
      vertex -1.55175 -9 28.1358
    endloop
  endfacet
endsolid OpenSCAD_Model
