solid OpenSCAD_Model
  facet normal -0 0 1
    outer loop
      vertex 18 9.5 39.5
      vertex 38 -6.5 39.5
      vertex 38 9.5 39.5
    endloop
  endfacet
  facet normal 0 0 1
    outer loop
      vertex 38 -6.5 39.5
      vertex 18 9.5 39.5
      vertex 18 -6.5 39.5
    endloop
  endfacet
  facet normal 0 0.707107 -0.707107
    outer loop
      vertex 38 9.5 13.9
      vertex 18 11 15.4
      vertex 38 11 15.4
    endloop
  endfacet
  facet normal 0 0.707107 -0.707107
    outer loop
      vertex 18 11 15.4
      vertex 38 9.5 13.9
      vertex 18 9.5 13.9
    endloop
  endfacet
  facet normal 0 -1 0
    outer loop
      vertex 18 -8 15.4
      vertex 38 -8 38
      vertex 18 -8 38
    endloop
  endfacet
  facet normal 0 -1 -0
    outer loop
      vertex 38 -8 38
      vertex 18 -8 15.4
      vertex 38 -8 15.4
    endloop
  endfacet
  facet normal 0 -0.707107 0.707107
    outer loop
      vertex 18 -8 38
      vertex 38 -6.5 39.5
      vertex 18 -6.5 39.5
    endloop
  endfacet
  facet normal 0 -0.707107 0.707107
    outer loop
      vertex 38 -6.5 39.5
      vertex 18 -8 38
      vertex 38 -8 38
    endloop
  endfacet
  facet normal 1 0 0
    outer loop
      vertex 38 -8 38
      vertex 38 11 38
      vertex 38 9.5 39.5
    endloop
  endfacet
  facet normal 1 0 0
    outer loop
      vertex 38 11 38
      vertex 38 -8 38
      vertex 38 11 15.4
    endloop
  endfacet
  facet normal 1 0 0
    outer loop
      vertex 38 -8 38
      vertex 38 9.5 39.5
      vertex 38 -6.5 39.5
    endloop
  endfacet
  facet normal 1 0 0
    outer loop
      vertex 38 -8 15.4
      vertex 38 11 15.4
      vertex 38 -8 38
    endloop
  endfacet
  facet normal 1 0 0
    outer loop
      vertex 38 11 15.4
      vertex 38 -8 15.4
      vertex 38 9.5 13.9
    endloop
  endfacet
  facet normal 1 0 0
    outer loop
      vertex 38 9.5 13.9
      vertex 38 -8 15.4
      vertex 38 -6.5 13.9
    endloop
  endfacet
  facet normal 0 -0.707107 -0.707107
    outer loop
      vertex 18 -6.5 13.9
      vertex 38 -8 15.4
      vertex 18 -8 15.4
    endloop
  endfacet
  facet normal 0 -0.707107 -0.707107
    outer loop
      vertex 38 -8 15.4
      vertex 18 -6.5 13.9
      vertex 38 -6.5 13.9
    endloop
  endfacet
  facet normal -1 0 0
    outer loop
      vertex 18 -8 15.4
      vertex 18 11 15.4
      vertex 18 9.5 13.9
    endloop
  endfacet
  facet normal -1 0 0
    outer loop
      vertex 18 11 15.4
      vertex 18 -8 15.4
      vertex 18 11 38
    endloop
  endfacet
  facet normal -1 0 0
    outer loop
      vertex 18 -8 15.4
      vertex 18 9.5 13.9
      vertex 18 -6.5 13.9
    endloop
  endfacet
  facet normal -1 0 0
    outer loop
      vertex 18 -8 38
      vertex 18 11 38
      vertex 18 -8 15.4
    endloop
  endfacet
  facet normal -1 0 0
    outer loop
      vertex 18 11 38
      vertex 18 -8 38
      vertex 18 9.5 39.5
    endloop
  endfacet
  facet normal -1 -0 0
    outer loop
      vertex 18 9.5 39.5
      vertex 18 -8 38
      vertex 18 -6.5 39.5
    endloop
  endfacet
  facet normal 0 0.707107 0.707107
    outer loop
      vertex 38 11 38
      vertex 18 9.5 39.5
      vertex 38 9.5 39.5
    endloop
  endfacet
  facet normal 0 0.707107 0.707107
    outer loop
      vertex 18 9.5 39.5
      vertex 38 11 38
      vertex 18 11 38
    endloop
  endfacet
  facet normal 0 0 -1
    outer loop
      vertex 18 -6.5 13.9
      vertex 38 9.5 13.9
      vertex 38 -6.5 13.9
    endloop
  endfacet
  facet normal -0 0 -1
    outer loop
      vertex 38 9.5 13.9
      vertex 18 -6.5 13.9
      vertex 18 9.5 13.9
    endloop
  endfacet
  facet normal 0 1 -0
    outer loop
      vertex 38 11 15.4
      vertex 18 11 38
      vertex 38 11 38
    endloop
  endfacet
  facet normal 0 1 0
    outer loop
      vertex 18 11 38
      vertex 38 11 15.4
      vertex 18 11 15.4
    endloop
  endfacet
  facet normal -0 0 1
    outer loop
      vertex -38 9.5 39.5
      vertex -18 -6.5 39.5
      vertex -18 9.5 39.5
    endloop
  endfacet
  facet normal 0 0 1
    outer loop
      vertex -18 -6.5 39.5
      vertex -38 9.5 39.5
      vertex -38 -6.5 39.5
    endloop
  endfacet
  facet normal 0 0 -1
    outer loop
      vertex -38 -6.5 13.9
      vertex -18 9.5 13.9
      vertex -18 -6.5 13.9
    endloop
  endfacet
  facet normal -0 0 -1
    outer loop
      vertex -18 9.5 13.9
      vertex -38 -6.5 13.9
      vertex -38 9.5 13.9
    endloop
  endfacet
  facet normal 0 -1 0
    outer loop
      vertex -38 -8 15.4
      vertex -18 -8 38
      vertex -38 -8 38
    endloop
  endfacet
  facet normal 0 -1 -0
    outer loop
      vertex -18 -8 38
      vertex -38 -8 15.4
      vertex -18 -8 15.4
    endloop
  endfacet
  facet normal 0 -0.707107 0.707107
    outer loop
      vertex -38 -8 38
      vertex -18 -6.5 39.5
      vertex -38 -6.5 39.5
    endloop
  endfacet
  facet normal 0 -0.707107 0.707107
    outer loop
      vertex -18 -6.5 39.5
      vertex -38 -8 38
      vertex -18 -8 38
    endloop
  endfacet
  facet normal 1 0 0
    outer loop
      vertex -18 -8 38
      vertex -18 11 38
      vertex -18 9.5 39.5
    endloop
  endfacet
  facet normal 1 0 0
    outer loop
      vertex -18 11 38
      vertex -18 -8 38
      vertex -18 11 15.4
    endloop
  endfacet
  facet normal 1 0 0
    outer loop
      vertex -18 -8 38
      vertex -18 9.5 39.5
      vertex -18 -6.5 39.5
    endloop
  endfacet
  facet normal 1 0 0
    outer loop
      vertex -18 -8 15.4
      vertex -18 11 15.4
      vertex -18 -8 38
    endloop
  endfacet
  facet normal 1 0 0
    outer loop
      vertex -18 11 15.4
      vertex -18 -8 15.4
      vertex -18 9.5 13.9
    endloop
  endfacet
  facet normal 1 0 0
    outer loop
      vertex -18 9.5 13.9
      vertex -18 -8 15.4
      vertex -18 -6.5 13.9
    endloop
  endfacet
  facet normal 0 -0.707107 -0.707107
    outer loop
      vertex -38 -6.5 13.9
      vertex -18 -8 15.4
      vertex -38 -8 15.4
    endloop
  endfacet
  facet normal 0 -0.707107 -0.707107
    outer loop
      vertex -18 -8 15.4
      vertex -38 -6.5 13.9
      vertex -18 -6.5 13.9
    endloop
  endfacet
  facet normal -1 0 0
    outer loop
      vertex -38 -8 15.4
      vertex -38 11 15.4
      vertex -38 9.5 13.9
    endloop
  endfacet
  facet normal -1 0 0
    outer loop
      vertex -38 11 15.4
      vertex -38 -8 15.4
      vertex -38 11 38
    endloop
  endfacet
  facet normal -1 0 0
    outer loop
      vertex -38 -8 15.4
      vertex -38 9.5 13.9
      vertex -38 -6.5 13.9
    endloop
  endfacet
  facet normal -1 0 0
    outer loop
      vertex -38 -8 38
      vertex -38 11 38
      vertex -38 -8 15.4
    endloop
  endfacet
  facet normal -1 0 0
    outer loop
      vertex -38 11 38
      vertex -38 -8 38
      vertex -38 9.5 39.5
    endloop
  endfacet
  facet normal -1 -0 0
    outer loop
      vertex -38 9.5 39.5
      vertex -38 -8 38
      vertex -38 -6.5 39.5
    endloop
  endfacet
  facet normal 0 0.707107 0.707107
    outer loop
      vertex -18 11 38
      vertex -38 9.5 39.5
      vertex -18 9.5 39.5
    endloop
  endfacet
  facet normal 0 0.707107 0.707107
    outer loop
      vertex -38 9.5 39.5
      vertex -18 11 38
      vertex -38 11 38
    endloop
  endfacet
  facet normal 0 1 -0
    outer loop
      vertex -18 11 15.4
      vertex -38 11 38
      vertex -18 11 38
    endloop
  endfacet
  facet normal 0 1 0
    outer loop
      vertex -38 11 38
      vertex -18 11 15.4
      vertex -38 11 15.4
    endloop
  endfacet
  facet normal 0 0.707107 -0.707107
    outer loop
      vertex -18 9.5 13.9
      vertex -38 11 15.4
      vertex -18 11 15.4
    endloop
  endfacet
  facet normal 0 0.707107 -0.707107
    outer loop
      vertex -38 11 15.4
      vertex -18 9.5 13.9
      vertex -38 9.5 13.9
    endloop
  endfacet
endsolid OpenSCAD_Model
