solid OpenSCAD_Model
  facet normal 0 0 1
    outer loop
      vertex -20.0644 35.5439 44.75
      vertex -20.177 5.68181 44.75
      vertex -20.0644 35.5434 44.75
    endloop
  endfacet
  facet normal 0 -0 1
    outer loop
      vertex -20.177 5.68181 44.75
      vertex -20.0644 35.5439 44.75
      vertex -20.177 5.68131 44.75
    endloop
  endfacet
  facet normal 0.978744 -0 0.205085
    outer loop
      vertex 20.0198 -4.78185 45.5
      vertex 20.177 -1.20606 44.75
      vertex 20.0198 -1.20606 45.5
    endloop
  endfacet
  facet normal 0.978744 0 0.205085
    outer loop
      vertex 20.177 -1.20606 44.75
      vertex 20.0198 -4.78185 45.5
      vertex 20.177 -4.93131 44.75
    endloop
  endfacet
  facet normal -0.064859 -0.977837 0.199067
    outer loop
      vertex 20.1854 -1.20662 44.75
      vertex 21.7178 -1.15558 45.5
      vertex 20.234 -1.05716 45.5
    endloop
  endfacet
  facet normal -0.064859 -0.977837 0.199067
    outer loop
      vertex 21.7178 -1.15558 45.5
      vertex 20.1854 -1.20662 44.75
      vertex 21.875 -1.31869 44.75
    endloop
  endfacet
  facet normal -0.0648619 -0.977837 0.199067
    outer loop
      vertex 20.1854 -1.20662 44.75
      vertex 20.2256 -1.0566 45.5
      vertex 20.177 -1.20606 44.75
    endloop
  endfacet
  facet normal -0.0648765 -0.977836 0.199068
    outer loop
      vertex 20.2256 -1.0566 45.5
      vertex 20.1854 -1.20662 44.75
      vertex 20.234 -1.05716 45.5
    endloop
  endfacet
  facet normal 0.932715 -0.30306 0.19544
    outer loop
      vertex 20.0499 -1.11369 45.5
      vertex 20.0198 -1.20606 45.5
      vertex 20.177 -1.20606 44.75
    endloop
  endfacet
  facet normal 0 -0.980716 0.195441
    outer loop
      vertex 20.2256 -1.0566 45.5
      vertex 20.1284 -1.0566 45.5
      vertex 20.177 -1.20606 44.75
    endloop
  endfacet
  facet normal 0.576452 -0.793414 0.19544
    outer loop
      vertex 20.1284 -1.0566 45.5
      vertex 20.0499 -1.11369 45.5
      vertex 20.177 -1.20606 44.75
    endloop
  endfacet
  facet normal 0.978744 -0 0.205085
    outer loop
      vertex 21.7178 -1.15558 45.5
      vertex 21.875 5.68131 44.75
      vertex 21.7178 5.53185 45.5
    endloop
  endfacet
  facet normal 0.978744 0 0.205085
    outer loop
      vertex 21.875 5.68131 44.75
      vertex 21.7178 -1.15558 45.5
      vertex 21.875 -1.31869 44.75
    endloop
  endfacet
  facet normal 0.978744 0 0.205085
    outer loop
      vertex 20.177 42.4313 44.75
      vertex 20.0198 45.6696 45.5
      vertex 20.0198 42.4313 45.5
    endloop
  endfacet
  facet normal 0.978744 0 0.205085
    outer loop
      vertex 20.0198 45.6696 45.5
      vertex 20.177 42.4313 44.75
      vertex 20.177 45.8187 44.75
    endloop
  endfacet
  facet normal -0 0.980715 0.195442
    outer loop
      vertex 20.177 42.4313 44.75
      vertex 21.7178 42.2818 45.5
      vertex 21.875 42.4313 44.75
    endloop
  endfacet
  facet normal 0 0.980715 0.195442
    outer loop
      vertex 21.7178 42.2818 45.5
      vertex 20.177 42.4313 44.75
      vertex 20.1284 42.2818 45.5
    endloop
  endfacet
  facet normal 0.576458 0.79341 0.195441
    outer loop
      vertex 20.177 42.4313 44.75
      vertex 20.0499 42.3389 45.5
      vertex 20.1284 42.2818 45.5
    endloop
  endfacet
  facet normal 0.932715 0.30306 0.19544
    outer loop
      vertex 20.177 42.4313 44.75
      vertex 20.0198 42.4313 45.5
      vertex 20.0499 42.3389 45.5
    endloop
  endfacet
  facet normal 0.00300131 0.980674 0.195626
    outer loop
      vertex 20.0198 45.6696 45.5
      vertex -2.38506 45.875 44.8138
      vertex -2.38506 45.7381 45.5
    endloop
  endfacet
  facet normal 0.00300122 0.980674 0.195628
    outer loop
      vertex -2.38506 45.875 44.8138
      vertex 20.0198 45.6696 45.5
      vertex 20.177 45.8187 44.75
    endloop
  endfacet
  facet normal 0.003001 0.980674 0.195626
    outer loop
      vertex -2.86494 45.875 44.8212
      vertex -16.5847 45.7816 45.5
      vertex -2.86494 45.7396 45.5
    endloop
  endfacet
  facet normal 0.00300105 0.980674 0.195627
    outer loop
      vertex -2.86494 45.875 44.8212
      vertex -16.625 45.9313 44.75
      vertex -16.5847 45.7816 45.5
    endloop
  endfacet
  facet normal 0.00300111 0.980676 0.195617
    outer loop
      vertex -2.38506 45.875 44.8138
      vertex -16.625 45.9313 44.75
      vertex -2.86494 45.875 44.8212
    endloop
  endfacet
  facet normal 0.00300117 0.980678 0.195606
    outer loop
      vertex -16.625 45.9313 44.75
      vertex -2.38506 45.875 44.8138
      vertex 20.177 45.8187 44.75
    endloop
  endfacet
  facet normal -0.0650407 -0.977823 0.199077
    outer loop
      vertex 20.1854 35.5434 44.75
      vertex 20.2256 35.6934 45.5
      vertex 20.177 35.5439 44.75
    endloop
  endfacet
  facet normal -0.0650407 -0.977823 0.199077
    outer loop
      vertex 20.2256 35.6934 45.5
      vertex 20.1854 35.5434 44.75
      vertex 20.234 35.6928 45.5
    endloop
  endfacet
  facet normal 0.978744 -0 0.205085
    outer loop
      vertex 20.0198 5.68131 45.5
      vertex 20.177 35.5439 44.75
      vertex 20.0198 35.5439 45.5
    endloop
  endfacet
  facet normal 0.978744 0 0.205085
    outer loop
      vertex 20.177 35.5439 44.75
      vertex 20.0198 5.68131 45.5
      vertex 20.177 5.68131 44.75
    endloop
  endfacet
  facet normal 0.932715 -0.30306 0.19544
    outer loop
      vertex 20.0499 35.6363 45.5
      vertex 20.0198 35.5439 45.5
      vertex 20.177 35.5439 44.75
    endloop
  endfacet
  facet normal 0 -0.980715 0.195442
    outer loop
      vertex 20.2256 35.6934 45.5
      vertex 20.1284 35.6934 45.5
      vertex 20.177 35.5439 44.75
    endloop
  endfacet
  facet normal 0.576458 -0.79341 0.195441
    outer loop
      vertex 20.1284 35.6934 45.5
      vertex 20.0499 35.6363 45.5
      vertex 20.177 35.5439 44.75
    endloop
  endfacet
  facet normal -0.0648568 -0.977837 0.199068
    outer loop
      vertex 20.1854 35.5434 44.75
      vertex 21.7178 35.5944 45.5
      vertex 20.234 35.6928 45.5
    endloop
  endfacet
  facet normal -0.0648571 -0.977837 0.199068
    outer loop
      vertex 21.7178 35.5944 45.5
      vertex 20.1854 35.5434 44.75
      vertex 21.875 35.4313 44.75
    endloop
  endfacet
  facet normal 0.978744 -0 0.205085
    outer loop
      vertex 21.7178 35.5944 45.5
      vertex 21.875 42.4313 44.75
      vertex 21.7178 42.2818 45.5
    endloop
  endfacet
  facet normal 0.978744 0 0.205085
    outer loop
      vertex 21.875 42.4313 44.75
      vertex 21.7178 35.5944 45.5
      vertex 21.875 35.4313 44.75
    endloop
  endfacet
  facet normal -0.978744 0 0.205085
    outer loop
      vertex -21.875 42.4313 44.75
      vertex -21.7178 35.5936 45.5
      vertex -21.7178 42.2818 45.5
    endloop
  endfacet
  facet normal -0.978744 0 0.205085
    outer loop
      vertex -21.7178 35.5936 45.5
      vertex -21.875 42.4313 44.75
      vertex -21.875 35.4313 44.75
    endloop
  endfacet
  facet normal 0.0608415 -0.978136 0.198865
    outer loop
      vertex -20.0733 35.5434 44.75
      vertex -21.7178 35.5936 45.5
      vertex -21.875 35.4313 44.75
    endloop
  endfacet
  facet normal 0.0608424 -0.978136 0.198867
    outer loop
      vertex -21.7178 35.5936 45.5
      vertex -20.0733 35.5434 44.75
      vertex -20.1219 35.6928 45.5
    endloop
  endfacet
  facet normal -0 0.980716 0.195441
    outer loop
      vertex 20.177 5.68131 44.75
      vertex 21.7178 5.53185 45.5
      vertex 21.875 5.68131 44.75
    endloop
  endfacet
  facet normal 0 0.980716 0.195441
    outer loop
      vertex 21.7178 5.53185 45.5
      vertex 20.177 5.68131 44.75
      vertex 20.1284 5.53185 45.5
    endloop
  endfacet
  facet normal 0.576452 0.793414 0.19544
    outer loop
      vertex 20.177 5.68131 44.75
      vertex 20.0499 5.58894 45.5
      vertex 20.1284 5.53185 45.5
    endloop
  endfacet
  facet normal 0.932715 0.30306 0.19544
    outer loop
      vertex 20.177 5.68131 44.75
      vertex 20.0198 5.68131 45.5
      vertex 20.0499 5.58894 45.5
    endloop
  endfacet
  facet normal -0.978744 0 0.205085
    outer loop
      vertex -21.875 5.68131 44.75
      vertex -21.7178 -1.16923 45.5
      vertex -21.7178 5.53185 45.5
    endloop
  endfacet
  facet normal -0.978744 0 0.205085
    outer loop
      vertex -21.7178 -1.16923 45.5
      vertex -21.875 5.68131 44.75
      vertex -21.875 -1.31869 44.75
    endloop
  endfacet
  facet normal 0 0.980716 0.195441
    outer loop
      vertex -20.177 5.68131 44.75
      vertex -21.7178 5.53185 45.5
      vertex -20.1284 5.53185 45.5
    endloop
  endfacet
  facet normal 0 0.980716 0.195441
    outer loop
      vertex -21.7178 5.53185 45.5
      vertex -20.177 5.68131 44.75
      vertex -21.875 5.68131 44.75
    endloop
  endfacet
  facet normal -0.978737 0.00378256 0.205083
    outer loop
      vertex -20.177 5.68131 44.75
      vertex -20.0198 5.68181 45.5
      vertex -20.177 5.68181 44.75
    endloop
  endfacet
  facet normal -0.978737 0.00378256 0.205083
    outer loop
      vertex -20.0198 5.68181 45.5
      vertex -20.177 5.68131 44.75
      vertex -20.0198 5.68131 45.5
    endloop
  endfacet
  facet normal -0.932715 0.30306 0.19544
    outer loop
      vertex -20.0198 5.68131 45.5
      vertex -20.177 5.68131 44.75
      vertex -20.0499 5.58894 45.5
    endloop
  endfacet
  facet normal -0.576452 0.793414 0.19544
    outer loop
      vertex -20.0499 5.58894 45.5
      vertex -20.177 5.68131 44.75
      vertex -20.1284 5.53185 45.5
    endloop
  endfacet
  facet normal -0.978738 0.00369126 0.205083
    outer loop
      vertex -20.177 5.68181 44.75
      vertex -19.9072 35.5434 45.5
      vertex -20.0644 35.5434 44.75
    endloop
  endfacet
  facet normal -0.978738 0.00369126 0.205083
    outer loop
      vertex -19.9072 35.5434 45.5
      vertex -20.177 5.68181 44.75
      vertex -20.0198 5.68181 45.5
    endloop
  endfacet
  facet normal -0.978744 0 0.205085
    outer loop
      vertex -20.0644 -1.31869 44.75
      vertex -19.9072 -4.78185 45.5
      vertex -19.9072 -1.31869 45.5
    endloop
  endfacet
  facet normal -0.978744 0 0.205085
    outer loop
      vertex -19.9072 -4.78185 45.5
      vertex -20.0644 -1.31869 44.75
      vertex -20.0644 -4.93131 44.75
    endloop
  endfacet
  facet normal 0 -0.980716 0.195441
    outer loop
      vertex -20.0644 -1.31869 44.75
      vertex -21.7178 -1.16923 45.5
      vertex -21.875 -1.31869 44.75
    endloop
  endfacet
  facet normal 0 -0.980716 0.195441
    outer loop
      vertex -21.7178 -1.16923 45.5
      vertex -20.0644 -1.31869 44.75
      vertex -20.0158 -1.16923 45.5
    endloop
  endfacet
  facet normal -0.576451 -0.793415 0.19544
    outer loop
      vertex -20.0158 -1.16923 45.5
      vertex -20.0644 -1.31869 44.75
      vertex -19.9372 -1.22632 45.5
    endloop
  endfacet
  facet normal -0.932715 -0.30306 0.19544
    outer loop
      vertex -19.9372 -1.22632 45.5
      vertex -20.0644 -1.31869 44.75
      vertex -19.9072 -1.31869 45.5
    endloop
  endfacet
  facet normal 0 -0.980716 0.19544
    outer loop
      vertex -19.9072 -4.78185 45.5
      vertex -2.86494 -4.875 45.0326
      vertex -2.86494 -4.78185 45.5
    endloop
  endfacet
  facet normal 0 -0.980715 0.195441
    outer loop
      vertex -2.86494 -4.875 45.0326
      vertex -20.0644 -4.93131 44.75
      vertex -2.38506 -4.875 45.0326
    endloop
  endfacet
  facet normal 9.55432e-09 -0.980716 0.195441
    outer loop
      vertex -20.0644 -4.93131 44.75
      vertex -2.86494 -4.875 45.0326
      vertex -19.9072 -4.78185 45.5
    endloop
  endfacet
  facet normal 0 -0.980716 0.19544
    outer loop
      vertex -2.38506 -4.875 45.0326
      vertex 20.0198 -4.78185 45.5
      vertex -2.38506 -4.78185 45.5
    endloop
  endfacet
  facet normal -7.27744e-09 -0.980716 0.195441
    outer loop
      vertex -2.38506 -4.875 45.0326
      vertex 20.177 -4.93131 44.75
      vertex 20.0198 -4.78185 45.5
    endloop
  endfacet
  facet normal 0 -0.980715 0.195441
    outer loop
      vertex 20.177 -4.93131 44.75
      vertex -2.38506 -4.875 45.0326
      vertex -20.0644 -4.93131 44.75
    endloop
  endfacet
  facet normal 0 -0.980715 0.195442
    outer loop
      vertex -20.0158 35.6934 45.5
      vertex -20.1129 35.6934 45.5
      vertex -20.0644 35.5439 44.75
    endloop
  endfacet
  facet normal -0.932715 -0.30306 0.19544
    outer loop
      vertex -19.9372 35.6363 45.5
      vertex -20.0644 35.5439 44.75
      vertex -19.9072 35.5439 45.5
    endloop
  endfacet
  facet normal -0.576458 -0.79341 0.195441
    outer loop
      vertex -20.0158 35.6934 45.5
      vertex -20.0644 35.5439 44.75
      vertex -19.9372 35.6363 45.5
    endloop
  endfacet
  facet normal -0.978739 0.00335184 0.205084
    outer loop
      vertex -20.0644 35.5434 44.75
      vertex -19.9072 35.5439 45.5
      vertex -20.0644 35.5439 44.75
    endloop
  endfacet
  facet normal -0.978739 0.00335184 0.205084
    outer loop
      vertex -19.9072 35.5439 45.5
      vertex -20.0644 35.5434 44.75
      vertex -19.9072 35.5434 45.5
    endloop
  endfacet
  facet normal 0.0610022 -0.978124 0.198875
    outer loop
      vertex -20.0733 35.5434 44.75
      vertex -20.1129 35.6934 45.5
      vertex -20.1219 35.6928 45.5
    endloop
  endfacet
  facet normal 0.0610022 -0.978124 0.198875
    outer loop
      vertex -20.1129 35.6934 45.5
      vertex -20.0733 35.5434 44.75
      vertex -20.0644 35.5439 44.75
    endloop
  endfacet
  facet normal 0 0.980715 0.195442
    outer loop
      vertex -20.0644 42.4313 44.75
      vertex -21.7178 42.2818 45.5
      vertex -20.0158 42.2818 45.5
    endloop
  endfacet
  facet normal 0 0.980715 0.195442
    outer loop
      vertex -21.7178 42.2818 45.5
      vertex -20.0644 42.4313 44.75
      vertex -21.875 42.4313 44.75
    endloop
  endfacet
  facet normal -0.576458 0.79341 0.195441
    outer loop
      vertex -19.9372 42.3389 45.5
      vertex -20.0644 42.4313 44.75
      vertex -20.0158 42.2818 45.5
    endloop
  endfacet
  facet normal -0.932715 0.30306 0.19544
    outer loop
      vertex -19.9072 42.4313 45.5
      vertex -20.0644 42.4313 44.75
      vertex -19.9372 42.3389 45.5
    endloop
  endfacet
  facet normal -0.978744 0 0.205085
    outer loop
      vertex -20.0644 42.4313 44.75
      vertex -19.9072 45.6728 45.5
      vertex -20.0644 45.8187 44.75
    endloop
  endfacet
  facet normal -0.978744 0 0.205085
    outer loop
      vertex -19.9072 45.6728 45.5
      vertex -20.0644 42.4313 44.75
      vertex -19.9072 42.4313 45.5
    endloop
  endfacet
  facet normal -0.0320852 0.97981 0.197338
    outer loop
      vertex -16.625 45.9313 44.75
      vertex -19.9072 45.6728 45.5
      vertex -16.5847 45.7816 45.5
    endloop
  endfacet
  facet normal -0.0320847 0.97981 0.19734
    outer loop
      vertex -19.9072 45.6728 45.5
      vertex -16.625 45.9313 44.75
      vertex -20.0644 45.8187 44.75
    endloop
  endfacet
  facet normal 0 0 -1
    outer loop
      vertex -21.875 42.4313 44
      vertex -20.0644 35.5439 44
      vertex -21.875 35.4313 44
    endloop
  endfacet
  facet normal 0 0 -1
    outer loop
      vertex -20.0644 35.5439 44
      vertex -21.875 42.4313 44
      vertex -20.0644 42.4313 44
    endloop
  endfacet
  facet normal -0 0 -1
    outer loop
      vertex -2.86494 16.3226 44
      vertex -20.177 5.68131 44
      vertex -20.0644 35.5439 44
    endloop
  endfacet
  facet normal 0 0 -1
    outer loop
      vertex -21.875 -1.31869 44
      vertex -20.177 5.68131 44
      vertex -20.0644 -1.31869 44
    endloop
  endfacet
  facet normal -0 0 -1
    outer loop
      vertex -20.177 5.68131 44
      vertex -21.875 -1.31869 44
      vertex -21.875 5.68131 44
    endloop
  endfacet
  facet normal 0 0 -1
    outer loop
      vertex -2.38506 24.875 44
      vertex 2.86494 35.375 44
      vertex 2.86494 23.125 44
    endloop
  endfacet
  facet normal 0 0 -1
    outer loop
      vertex 2.86494 35.375 44
      vertex -2.38506 24.875 44
      vertex -2.38506 33.625 44
    endloop
  endfacet
  facet normal 0 0 -1
    outer loop
      vertex -2.38506 7.375 44
      vertex 2.86494 17.875 44
      vertex 2.86494 5.625 44
    endloop
  endfacet
  facet normal 0 0 -1
    outer loop
      vertex 2.86494 17.875 44
      vertex -2.38506 7.375 44
      vertex -2.38506 16.125 44
    endloop
  endfacet
  facet normal 0 0 -1
    outer loop
      vertex 2.86494 0.375 44
      vertex 20.177 -1.20606 44
      vertex 20.177 -4.93131 44
    endloop
  endfacet
  facet normal 0 0 -1
    outer loop
      vertex 20.177 -1.20606 44
      vertex 2.86494 0.375 44
      vertex 20.177 5.68131 44
    endloop
  endfacet
  facet normal 0 0 -1
    outer loop
      vertex 20.177 5.68131 44
      vertex 2.86494 17.875 44
      vertex 20.177 35.5439 44
    endloop
  endfacet
  facet normal 0 0 -1
    outer loop
      vertex 2.86494 23.125 44
      vertex 20.177 35.5439 44
      vertex 2.86494 17.875 44
    endloop
  endfacet
  facet normal 0 0 -1
    outer loop
      vertex 20.177 5.68131 44
      vertex 2.86494 0.375 44
      vertex 2.86494 5.625 44
    endloop
  endfacet
  facet normal 0 0 -1
    outer loop
      vertex 20.177 -4.93131 44
      vertex -2.38506 -4.875 44
      vertex 2.86494 0.375 44
    endloop
  endfacet
  facet normal 0 0 -1
    outer loop
      vertex 20.177 -4.93131 44
      vertex -2.86494 -4.875 44
      vertex -2.38506 -4.875 44
    endloop
  endfacet
  facet normal 0 0 -1
    outer loop
      vertex -20.0644 -1.31869 44
      vertex -2.86494 -1.17745 44
      vertex -2.86494 -4.875 44
    endloop
  endfacet
  facet normal 0 0 -1
    outer loop
      vertex -20.177 5.68131 44
      vertex -2.86494 -1.17745 44
      vertex -20.0644 -1.31869 44
    endloop
  endfacet
  facet normal 0 0 -1
    outer loop
      vertex -2.86494 -1.17745 44
      vertex -20.177 5.68131 44
      vertex -2.86494 7.17745 44
    endloop
  endfacet
  facet normal -0 0 -1
    outer loop
      vertex -2.86494 7.17745 44
      vertex -20.177 5.68131 44
      vertex -2.86494 16.3226 44
    endloop
  endfacet
  facet normal 0 0 -1
    outer loop
      vertex -2.86494 16.3226 44
      vertex -20.0644 35.5439 44
      vertex -2.86494 24.6774 44
    endloop
  endfacet
  facet normal 0 0 -1
    outer loop
      vertex -2.86494 33.8226 44
      vertex -20.0644 35.5439 44
      vertex -2.86494 42.1774 44
    endloop
  endfacet
  facet normal 0 -0 -1
    outer loop
      vertex -16.625 45.9313 44
      vertex -2.86494 42.1774 44
      vertex -20.0644 35.5439 44
    endloop
  endfacet
  facet normal 0 0 -1
    outer loop
      vertex -20.0644 -4.93131 44
      vertex -2.86494 -4.875 44
      vertex 20.177 -4.93131 44
    endloop
  endfacet
  facet normal 0 0 -1
    outer loop
      vertex -20.0644 -1.31869 44
      vertex -2.86494 -4.875 44
      vertex -20.0644 -4.93131 44
    endloop
  endfacet
  facet normal 0 0 -1
    outer loop
      vertex -2.86494 24.6774 44
      vertex -20.0644 35.5439 44
      vertex -2.86494 33.8226 44
    endloop
  endfacet
  facet normal 0 0 -1
    outer loop
      vertex -2.86494 42.1774 44
      vertex -16.625 45.9313 44
      vertex -2.86494 45.875 44
    endloop
  endfacet
  facet normal 0 0 -1
    outer loop
      vertex -20.0644 42.4313 44
      vertex -16.625 45.9313 44
      vertex -20.0644 35.5439 44
    endloop
  endfacet
  facet normal 0 0 -1
    outer loop
      vertex -16.625 45.9313 44
      vertex -20.0644 42.4313 44
      vertex -20.0644 45.8187 44
    endloop
  endfacet
  facet normal 0 0 -1
    outer loop
      vertex 20.177 -1.20606 44
      vertex 21.875 5.68131 44
      vertex 21.875 -1.31869 44
    endloop
  endfacet
  facet normal -0 0 -1
    outer loop
      vertex 21.875 5.68131 44
      vertex 20.177 -1.20606 44
      vertex 20.177 5.68131 44
    endloop
  endfacet
  facet normal 0 0 -1
    outer loop
      vertex 20.177 35.5439 44
      vertex 21.875 42.4313 44
      vertex 21.875 35.4313 44
    endloop
  endfacet
  facet normal -0 0 -1
    outer loop
      vertex 21.875 42.4313 44
      vertex 20.177 35.5439 44
      vertex 20.177 42.4313 44
    endloop
  endfacet
  facet normal -0 0 -1
    outer loop
      vertex 20.177 5.68131 44
      vertex 2.86494 5.625 44
      vertex 2.86494 17.875 44
    endloop
  endfacet
  facet normal 0 0 -1
    outer loop
      vertex 2.86494 35.375 44
      vertex 20.177 35.5439 44
      vertex 2.86494 23.125 44
    endloop
  endfacet
  facet normal 0 0 -1
    outer loop
      vertex 2.86494 40.625 44
      vertex 20.177 35.5439 44
      vertex 2.86494 35.375 44
    endloop
  endfacet
  facet normal 0 0 -1
    outer loop
      vertex 20.177 35.5439 44
      vertex 2.86494 40.625 44
      vertex 20.177 42.4313 44
    endloop
  endfacet
  facet normal -0 0 -1
    outer loop
      vertex 20.177 42.4313 44
      vertex 2.86494 40.625 44
      vertex 20.177 45.8187 44
    endloop
  endfacet
  facet normal 0 0 -1
    outer loop
      vertex -2.38506 45.875 44
      vertex 2.86494 40.625 44
      vertex -2.38506 42.375 44
    endloop
  endfacet
  facet normal 0 0 -1
    outer loop
      vertex 2.86494 40.625 44
      vertex -2.38506 45.875 44
      vertex 20.177 45.8187 44
    endloop
  endfacet
  facet normal 0 0 -1
    outer loop
      vertex -2.38506 45.875 44
      vertex -16.625 45.9313 44
      vertex 20.177 45.8187 44
    endloop
  endfacet
  facet normal 0 0 -1
    outer loop
      vertex -16.625 45.9313 44
      vertex -2.38506 45.875 44
      vertex -2.86494 45.875 44
    endloop
  endfacet
  facet normal 0 0 -1
    outer loop
      vertex 2.86494 0.375 44
      vertex -2.38506 -4.875 44
      vertex -2.38506 -1.375 44
    endloop
  endfacet
  facet normal 0 0 -1
    outer loop
      vertex -2.86494 -1.17745 44
      vertex 2.38505 5.42744 44
      vertex 2.38505 0.572556 44
    endloop
  endfacet
  facet normal -0 0 -1
    outer loop
      vertex 2.38505 5.42744 44
      vertex -2.86494 -1.17745 44
      vertex -2.86494 7.17745 44
    endloop
  endfacet
  facet normal 0 0 -1
    outer loop
      vertex -2.86494 16.3226 44
      vertex 2.38505 22.9274 44
      vertex 2.38505 18.0726 44
    endloop
  endfacet
  facet normal -0 0 -1
    outer loop
      vertex 2.38505 22.9274 44
      vertex -2.86494 16.3226 44
      vertex -2.86494 24.6774 44
    endloop
  endfacet
  facet normal 0 0 -1
    outer loop
      vertex -2.86494 33.8226 44
      vertex 2.38505 40.4274 44
      vertex 2.38505 35.5726 44
    endloop
  endfacet
  facet normal -0 0 -1
    outer loop
      vertex 2.38505 40.4274 44
      vertex -2.86494 33.8226 44
      vertex -2.86494 42.1774 44
    endloop
  endfacet
  facet normal 0 0 1
    outer loop
      vertex -20.0198 5.68181 45.5
      vertex -2.86494 16.3226 45.5
      vertex -19.9072 35.5434 45.5
    endloop
  endfacet
  facet normal 0 0 1
    outer loop
      vertex -20.0198 5.68131 45.5
      vertex -2.86494 16.3226 45.5
      vertex -20.0198 5.68181 45.5
    endloop
  endfacet
  facet normal 0 0 1
    outer loop
      vertex -2.86494 16.3226 45.5
      vertex -20.0198 5.68131 45.5
      vertex -19.9072 -1.31869 45.5
    endloop
  endfacet
  facet normal 0 0 1
    outer loop
      vertex -19.9072 -1.31869 45.5
      vertex -20.0198 5.68131 45.5
      vertex -19.9372 -1.22632 45.5
    endloop
  endfacet
  facet normal -0 0 1
    outer loop
      vertex -20.0499 5.58894 45.5
      vertex -19.9372 -1.22632 45.5
      vertex -20.0198 5.68131 45.5
    endloop
  endfacet
  facet normal 0 0 1
    outer loop
      vertex -19.9372 -1.22632 45.5
      vertex -20.0499 5.58894 45.5
      vertex -20.0158 -1.16923 45.5
    endloop
  endfacet
  facet normal -0 0 1
    outer loop
      vertex -20.1284 5.53185 45.5
      vertex -20.0158 -1.16923 45.5
      vertex -20.0499 5.58894 45.5
    endloop
  endfacet
  facet normal 0 0 1
    outer loop
      vertex -21.7178 -1.16923 45.5
      vertex -20.1284 5.53185 45.5
      vertex -21.7178 5.53185 45.5
    endloop
  endfacet
  facet normal 0 0 1
    outer loop
      vertex -20.1284 5.53185 45.5
      vertex -21.7178 -1.16923 45.5
      vertex -20.0158 -1.16923 45.5
    endloop
  endfacet
  facet normal 0 0 1
    outer loop
      vertex -19.9372 35.6363 45.5
      vertex -16.5847 45.7816 45.5
      vertex -19.9372 42.3389 45.5
    endloop
  endfacet
  facet normal 0 0 1
    outer loop
      vertex -16.5847 45.7816 45.5
      vertex -19.9372 35.6363 45.5
      vertex -19.9072 35.5439 45.5
    endloop
  endfacet
  facet normal -0 0 1
    outer loop
      vertex -20.0158 42.2818 45.5
      vertex -19.9372 35.6363 45.5
      vertex -19.9372 42.3389 45.5
    endloop
  endfacet
  facet normal 0 0 1
    outer loop
      vertex -20.0158 42.2818 45.5
      vertex -20.0158 35.6934 45.5
      vertex -19.9372 35.6363 45.5
    endloop
  endfacet
  facet normal 0 0 1
    outer loop
      vertex -20.0158 42.2818 45.5
      vertex -20.1129 35.6934 45.5
      vertex -20.0158 35.6934 45.5
    endloop
  endfacet
  facet normal 0 0 1
    outer loop
      vertex -20.0158 42.2818 45.5
      vertex -20.1219 35.6928 45.5
      vertex -20.1129 35.6934 45.5
    endloop
  endfacet
  facet normal -0 0 1
    outer loop
      vertex -21.7178 42.2818 45.5
      vertex -20.1219 35.6928 45.5
      vertex -20.0158 42.2818 45.5
    endloop
  endfacet
  facet normal 0 0 1
    outer loop
      vertex -20.1219 35.6928 45.5
      vertex -21.7178 42.2818 45.5
      vertex -21.7178 35.5936 45.5
    endloop
  endfacet
  facet normal 0 0 1
    outer loop
      vertex -16.5847 45.7816 45.5
      vertex -2.86494 42.1774 45.5
      vertex -2.86494 45.7396 45.5
    endloop
  endfacet
  facet normal 0 0 1
    outer loop
      vertex -19.9072 35.5439 45.5
      vertex -2.86494 42.1774 45.5
      vertex -16.5847 45.7816 45.5
    endloop
  endfacet
  facet normal -0 0 1
    outer loop
      vertex -19.9072 35.5434 45.5
      vertex -2.86494 33.8226 45.5
      vertex -19.9072 35.5439 45.5
    endloop
  endfacet
  facet normal 0 0 1
    outer loop
      vertex -2.86494 33.8226 45.5
      vertex -19.9072 35.5434 45.5
      vertex -2.86494 24.6774 45.5
    endloop
  endfacet
  facet normal 0 0 1
    outer loop
      vertex -2.86494 24.6774 45.5
      vertex -19.9072 35.5434 45.5
      vertex -2.86494 16.3226 45.5
    endloop
  endfacet
  facet normal 0 0 1
    outer loop
      vertex -2.86494 16.3226 45.5
      vertex -19.9072 -1.31869 45.5
      vertex -2.86494 7.17745 45.5
    endloop
  endfacet
  facet normal 0 0 1
    outer loop
      vertex -2.86494 42.1774 45.5
      vertex -19.9072 35.5439 45.5
      vertex -2.86494 33.8226 45.5
    endloop
  endfacet
  facet normal 0 0 1
    outer loop
      vertex -19.9072 42.4313 45.5
      vertex -16.5847 45.7816 45.5
      vertex -19.9072 45.6728 45.5
    endloop
  endfacet
  facet normal 0 0 1
    outer loop
      vertex -19.9372 42.3389 45.5
      vertex -16.5847 45.7816 45.5
      vertex -19.9072 42.4313 45.5
    endloop
  endfacet
  facet normal 0 0 1
    outer loop
      vertex -2.86494 7.17745 45.5
      vertex -19.9072 -1.31869 45.5
      vertex -2.86494 -1.17745 45.5
    endloop
  endfacet
  facet normal 0 0 1
    outer loop
      vertex -2.86494 -1.17745 45.5
      vertex -19.9072 -1.31869 45.5
      vertex -2.86494 -4.78185 45.5
    endloop
  endfacet
  facet normal 0 0 1
    outer loop
      vertex -2.86494 -4.78185 45.5
      vertex -19.9072 -1.31869 45.5
      vertex -19.9072 -4.78185 45.5
    endloop
  endfacet
  facet normal 0 0 1
    outer loop
      vertex -2.86494 42.1774 45.5
      vertex 2.38505 35.5726 45.5
      vertex 2.38505 40.4274 45.5
    endloop
  endfacet
  facet normal 0 0 1
    outer loop
      vertex 2.38505 35.5726 45.5
      vertex -2.86494 42.1774 45.5
      vertex -2.86494 33.8226 45.5
    endloop
  endfacet
  facet normal 0 0 1
    outer loop
      vertex -2.86494 24.6774 45.5
      vertex 2.38505 18.0726 45.5
      vertex 2.38505 22.9274 45.5
    endloop
  endfacet
  facet normal 0 0 1
    outer loop
      vertex 2.38505 18.0726 45.5
      vertex -2.86494 24.6774 45.5
      vertex -2.86494 16.3226 45.5
    endloop
  endfacet
  facet normal 0 0 1
    outer loop
      vertex -2.86494 7.17745 45.5
      vertex 2.38505 0.572556 45.5
      vertex 2.38505 5.42744 45.5
    endloop
  endfacet
  facet normal 0 0 1
    outer loop
      vertex 2.38505 0.572556 45.5
      vertex -2.86494 7.17745 45.5
      vertex -2.86494 -1.17745 45.5
    endloop
  endfacet
  facet normal -0 0 1
    outer loop
      vertex -2.38506 16.125 45.5
      vertex 2.86494 5.625 45.5
      vertex 2.86494 17.875 45.5
    endloop
  endfacet
  facet normal 0 0 1
    outer loop
      vertex 2.86494 5.625 45.5
      vertex -2.38506 16.125 45.5
      vertex -2.38506 7.375 45.5
    endloop
  endfacet
  facet normal -0 0 1
    outer loop
      vertex -2.38506 33.625 45.5
      vertex 2.86494 23.125 45.5
      vertex 2.86494 35.375 45.5
    endloop
  endfacet
  facet normal 0 0 1
    outer loop
      vertex 2.86494 23.125 45.5
      vertex -2.38506 33.625 45.5
      vertex -2.38506 24.875 45.5
    endloop
  endfacet
  facet normal 0 0 1
    outer loop
      vertex 2.86494 40.625 45.5
      vertex 20.0198 42.4313 45.5
      vertex 20.0198 45.6696 45.5
    endloop
  endfacet
  facet normal 0 0 1
    outer loop
      vertex 20.0198 42.4313 45.5
      vertex 2.86494 40.625 45.5
      vertex 20.0198 35.5439 45.5
    endloop
  endfacet
  facet normal 0 0 1
    outer loop
      vertex 20.0198 35.5439 45.5
      vertex 2.86494 23.125 45.5
      vertex 20.0198 5.68131 45.5
    endloop
  endfacet
  facet normal -0 0 1
    outer loop
      vertex 2.86494 17.875 45.5
      vertex 20.0198 5.68131 45.5
      vertex 2.86494 23.125 45.5
    endloop
  endfacet
  facet normal 0 0 1
    outer loop
      vertex 20.0198 35.5439 45.5
      vertex 2.86494 40.625 45.5
      vertex 2.86494 35.375 45.5
    endloop
  endfacet
  facet normal 0 0 1
    outer loop
      vertex -2.38506 45.7381 45.5
      vertex 2.86494 40.625 45.5
      vertex 20.0198 45.6696 45.5
    endloop
  endfacet
  facet normal 0 0 1
    outer loop
      vertex 2.86494 40.625 45.5
      vertex -2.38506 45.7381 45.5
      vertex -2.38506 42.375 45.5
    endloop
  endfacet
  facet normal 0 0 1
    outer loop
      vertex 21.7178 42.2818 45.5
      vertex 20.234 35.6928 45.5
      vertex 21.7178 35.5944 45.5
    endloop
  endfacet
  facet normal -0 0 1
    outer loop
      vertex 20.1284 42.2818 45.5
      vertex 20.234 35.6928 45.5
      vertex 21.7178 42.2818 45.5
    endloop
  endfacet
  facet normal 0 0 1
    outer loop
      vertex 20.234 35.6928 45.5
      vertex 20.1284 42.2818 45.5
      vertex 20.2256 35.6934 45.5
    endloop
  endfacet
  facet normal 0 0 1
    outer loop
      vertex 20.1284 42.2818 45.5
      vertex 20.1284 35.6934 45.5
      vertex 20.2256 35.6934 45.5
    endloop
  endfacet
  facet normal 0 0 1
    outer loop
      vertex 20.0499 42.3389 45.5
      vertex 20.1284 35.6934 45.5
      vertex 20.1284 42.2818 45.5
    endloop
  endfacet
  facet normal 0 0 1
    outer loop
      vertex 20.0499 42.3389 45.5
      vertex 20.0499 35.6363 45.5
      vertex 20.1284 35.6934 45.5
    endloop
  endfacet
  facet normal 0 0 1
    outer loop
      vertex 20.0198 42.4313 45.5
      vertex 20.0499 35.6363 45.5
      vertex 20.0499 42.3389 45.5
    endloop
  endfacet
  facet normal 0 0 1
    outer loop
      vertex 20.0499 35.6363 45.5
      vertex 20.0198 42.4313 45.5
      vertex 20.0198 35.5439 45.5
    endloop
  endfacet
  facet normal 0 0 1
    outer loop
      vertex 21.7178 5.53185 45.5
      vertex 20.234 -1.05716 45.5
      vertex 21.7178 -1.15558 45.5
    endloop
  endfacet
  facet normal -0 0 1
    outer loop
      vertex 20.1284 5.53185 45.5
      vertex 20.234 -1.05716 45.5
      vertex 21.7178 5.53185 45.5
    endloop
  endfacet
  facet normal 0 0 1
    outer loop
      vertex 20.234 -1.05716 45.5
      vertex 20.1284 5.53185 45.5
      vertex 20.2256 -1.0566 45.5
    endloop
  endfacet
  facet normal 0 0 1
    outer loop
      vertex 20.1284 5.53185 45.5
      vertex 20.1284 -1.0566 45.5
      vertex 20.2256 -1.0566 45.5
    endloop
  endfacet
  facet normal 0 0 1
    outer loop
      vertex 20.0499 5.58894 45.5
      vertex 20.1284 -1.0566 45.5
      vertex 20.1284 5.53185 45.5
    endloop
  endfacet
  facet normal 0 0 1
    outer loop
      vertex 20.0499 5.58894 45.5
      vertex 20.0499 -1.11369 45.5
      vertex 20.1284 -1.0566 45.5
    endloop
  endfacet
  facet normal 0 0 1
    outer loop
      vertex 20.0198 5.68131 45.5
      vertex 20.0499 -1.11369 45.5
      vertex 20.0499 5.58894 45.5
    endloop
  endfacet
  facet normal 0 0 1
    outer loop
      vertex 20.0499 -1.11369 45.5
      vertex 20.0198 5.68131 45.5
      vertex 20.0198 -1.20606 45.5
    endloop
  endfacet
  facet normal 0 0 1
    outer loop
      vertex 20.0198 35.5439 45.5
      vertex 2.86494 35.375 45.5
      vertex 2.86494 23.125 45.5
    endloop
  endfacet
  facet normal 0 0 1
    outer loop
      vertex 2.86494 5.625 45.5
      vertex 20.0198 5.68131 45.5
      vertex 2.86494 17.875 45.5
    endloop
  endfacet
  facet normal 0 0 1
    outer loop
      vertex 2.86494 0.375 45.5
      vertex 20.0198 5.68131 45.5
      vertex 2.86494 5.625 45.5
    endloop
  endfacet
  facet normal 0 0 1
    outer loop
      vertex 20.0198 5.68131 45.5
      vertex 2.86494 0.375 45.5
      vertex 20.0198 -1.20606 45.5
    endloop
  endfacet
  facet normal 0 0 1
    outer loop
      vertex 20.0198 -1.20606 45.5
      vertex 2.86494 0.375 45.5
      vertex 20.0198 -4.78185 45.5
    endloop
  endfacet
  facet normal 0 0 1
    outer loop
      vertex -2.38506 -4.78185 45.5
      vertex 2.86494 0.375 45.5
      vertex -2.38506 -1.375 45.5
    endloop
  endfacet
  facet normal 0 0 1
    outer loop
      vertex 2.86494 0.375 45.5
      vertex -2.38506 -4.78185 45.5
      vertex 20.0198 -4.78185 45.5
    endloop
  endfacet
  facet normal 1 -0 0
    outer loop
      vertex 20.177 42.4313 44.75
      vertex 20.177 45.8187 44
      vertex 20.177 45.8187 44.75
    endloop
  endfacet
  facet normal 1 0 0
    outer loop
      vertex 20.177 45.8187 44
      vertex 20.177 42.4313 44.75
      vertex 20.177 42.4313 44
    endloop
  endfacet
  facet normal 0 1 -0
    outer loop
      vertex 21.875 42.4313 44
      vertex 20.177 42.4313 44.75
      vertex 21.875 42.4313 44.75
    endloop
  endfacet
  facet normal 0 1 0
    outer loop
      vertex 20.177 42.4313 44.75
      vertex 21.875 42.4313 44
      vertex 20.177 42.4313 44
    endloop
  endfacet
  facet normal 1 -0 0
    outer loop
      vertex 21.875 35.4313 44.75
      vertex 21.875 42.4313 44
      vertex 21.875 42.4313 44.75
    endloop
  endfacet
  facet normal 1 0 0
    outer loop
      vertex 21.875 42.4313 44
      vertex 21.875 35.4313 44.75
      vertex 21.875 35.4313 44
    endloop
  endfacet
  facet normal -0.0663692 -0.997795 0
    outer loop
      vertex 20.177 35.5439 44
      vertex 20.1854 35.5434 44.75
      vertex 20.177 35.5439 44.75
    endloop
  endfacet
  facet normal -0.0661826 -0.997808 -2.10642e-06
    outer loop
      vertex 21.875 35.4313 44
      vertex 20.1854 35.5434 44.75
      vertex 20.177 35.5439 44
    endloop
  endfacet
  facet normal -0.0661817 -0.997808 0
    outer loop
      vertex 20.1854 35.5434 44.75
      vertex 21.875 35.4313 44
      vertex 21.875 35.4313 44.75
    endloop
  endfacet
  facet normal 1 -0 0
    outer loop
      vertex 20.177 5.68131 44.75
      vertex 20.177 35.5439 44
      vertex 20.177 35.5439 44.75
    endloop
  endfacet
  facet normal 1 0 0
    outer loop
      vertex 20.177 35.5439 44
      vertex 20.177 5.68131 44.75
      vertex 20.177 5.68131 44
    endloop
  endfacet
  facet normal 0 1 -0
    outer loop
      vertex 21.875 5.68131 44
      vertex 20.177 5.68131 44.75
      vertex 21.875 5.68131 44.75
    endloop
  endfacet
  facet normal 0 1 0
    outer loop
      vertex 20.177 5.68131 44.75
      vertex 21.875 5.68131 44
      vertex 20.177 5.68131 44
    endloop
  endfacet
  facet normal 1 -0 0
    outer loop
      vertex 21.875 -1.31869 44.75
      vertex 21.875 5.68131 44
      vertex 21.875 5.68131 44.75
    endloop
  endfacet
  facet normal 1 0 0
    outer loop
      vertex 21.875 5.68131 44
      vertex 21.875 -1.31869 44.75
      vertex 21.875 -1.31869 44
    endloop
  endfacet
  facet normal -0.0661866 -0.997807 0
    outer loop
      vertex 20.177 -1.20606 44
      vertex 20.1854 -1.20662 44.75
      vertex 20.177 -1.20606 44.75
    endloop
  endfacet
  facet normal -0.0661837 -0.997807 -3.28442e-08
    outer loop
      vertex 21.875 -1.31869 44
      vertex 20.1854 -1.20662 44.75
      vertex 20.177 -1.20606 44
    endloop
  endfacet
  facet normal -0.0661836 -0.997807 0
    outer loop
      vertex 20.1854 -1.20662 44.75
      vertex 21.875 -1.31869 44
      vertex 21.875 -1.31869 44.75
    endloop
  endfacet
  facet normal 1 -0 0
    outer loop
      vertex 20.177 -4.93131 44.75
      vertex 20.177 -1.20606 44
      vertex 20.177 -1.20606 44.75
    endloop
  endfacet
  facet normal 1 0 0
    outer loop
      vertex 20.177 -1.20606 44
      vertex 20.177 -4.93131 44.75
      vertex 20.177 -4.93131 44
    endloop
  endfacet
  facet normal 0 -1 0
    outer loop
      vertex -20.0644 -4.93131 44
      vertex 20.177 -4.93131 44.75
      vertex -20.0644 -4.93131 44.75
    endloop
  endfacet
  facet normal 0 -1 -0
    outer loop
      vertex 20.177 -4.93131 44.75
      vertex -20.0644 -4.93131 44
      vertex 20.177 -4.93131 44
    endloop
  endfacet
  facet normal -1 0 0
    outer loop
      vertex -20.0644 -4.93131 44
      vertex -20.0644 -1.31869 44.75
      vertex -20.0644 -1.31869 44
    endloop
  endfacet
  facet normal -1 -0 0
    outer loop
      vertex -20.0644 -1.31869 44.75
      vertex -20.0644 -4.93131 44
      vertex -20.0644 -4.93131 44.75
    endloop
  endfacet
  facet normal 0 -1 0
    outer loop
      vertex -21.875 -1.31869 44
      vertex -20.0644 -1.31869 44.75
      vertex -21.875 -1.31869 44.75
    endloop
  endfacet
  facet normal 0 -1 -0
    outer loop
      vertex -20.0644 -1.31869 44.75
      vertex -21.875 -1.31869 44
      vertex -20.0644 -1.31869 44
    endloop
  endfacet
  facet normal -1 0 0
    outer loop
      vertex -21.875 -1.31869 44
      vertex -21.875 5.68131 44.75
      vertex -21.875 5.68131 44
    endloop
  endfacet
  facet normal -1 -0 0
    outer loop
      vertex -21.875 5.68131 44.75
      vertex -21.875 -1.31869 44
      vertex -21.875 -1.31869 44.75
    endloop
  endfacet
  facet normal 0 1 -0
    outer loop
      vertex -20.177 5.68131 44
      vertex -21.875 5.68131 44.75
      vertex -20.177 5.68131 44.75
    endloop
  endfacet
  facet normal 0 1 0
    outer loop
      vertex -21.875 5.68131 44.75
      vertex -20.177 5.68131 44
      vertex -21.875 5.68131 44
    endloop
  endfacet
  facet normal -0.999993 0.00377141 0
    outer loop
      vertex -20.177 5.68131 44
      vertex -20.0644 35.5439 44.75
      vertex -20.0644 35.5439 44
    endloop
  endfacet
  facet normal -0.999993 0.00377141 0
    outer loop
      vertex -20.0644 35.5439 44.75
      vertex -20.177 5.68131 44
      vertex -20.177 5.68131 44.75
    endloop
  endfacet
  facet normal 0.0620815 -0.998071 0
    outer loop
      vertex -21.875 35.4313 44
      vertex -20.0733 35.5434 44.75
      vertex -21.875 35.4313 44.75
    endloop
  endfacet
  facet normal 0.0620823 -0.998071 -1.95174e-06
    outer loop
      vertex -20.0644 35.5439 44
      vertex -20.0733 35.5434 44.75
      vertex -21.875 35.4313 44
    endloop
  endfacet
  facet normal 0.0622456 -0.998061 0
    outer loop
      vertex -20.0733 35.5434 44.75
      vertex -20.0644 35.5439 44
      vertex -20.0644 35.5439 44.75
    endloop
  endfacet
  facet normal -1 0 0
    outer loop
      vertex -21.875 35.4313 44
      vertex -21.875 42.4313 44.75
      vertex -21.875 42.4313 44
    endloop
  endfacet
  facet normal -1 -0 0
    outer loop
      vertex -21.875 42.4313 44.75
      vertex -21.875 35.4313 44
      vertex -21.875 35.4313 44.75
    endloop
  endfacet
  facet normal 0 1 -0
    outer loop
      vertex -20.0644 42.4313 44
      vertex -21.875 42.4313 44.75
      vertex -20.0644 42.4313 44.75
    endloop
  endfacet
  facet normal 0 1 0
    outer loop
      vertex -21.875 42.4313 44.75
      vertex -20.0644 42.4313 44
      vertex -21.875 42.4313 44
    endloop
  endfacet
  facet normal -1 0 0
    outer loop
      vertex -20.0644 42.4313 44
      vertex -20.0644 45.8187 44.75
      vertex -20.0644 45.8187 44
    endloop
  endfacet
  facet normal -1 -0 0
    outer loop
      vertex -20.0644 45.8187 44.75
      vertex -20.0644 42.4313 44
      vertex -20.0644 42.4313 44.75
    endloop
  endfacet
  facet normal -0.0327283 0.999464 0
    outer loop
      vertex -16.625 45.9313 44
      vertex -20.0644 45.8187 44.75
      vertex -16.625 45.9313 44.75
    endloop
  endfacet
  facet normal -0.0327283 0.999464 0
    outer loop
      vertex -20.0644 45.8187 44.75
      vertex -16.625 45.9313 44
      vertex -20.0644 45.8187 44
    endloop
  endfacet
  facet normal 0.00306028 0.999995 -0
    outer loop
      vertex 20.177 45.8187 44
      vertex -16.625 45.9313 44.75
      vertex 20.177 45.8187 44.75
    endloop
  endfacet
  facet normal 0.00306028 0.999995 0
    outer loop
      vertex -16.625 45.9313 44.75
      vertex 20.177 45.8187 44
      vertex -16.625 45.9313 44
    endloop
  endfacet
  facet normal -0.316228 -0.948683 0
    outer loop
      vertex -2.38506 42.375 44
      vertex 2.86494 40.625 45.5
      vertex -2.38506 42.375 45.5
    endloop
  endfacet
  facet normal -0.316228 -0.948683 -0
    outer loop
      vertex 2.86494 40.625 45.5
      vertex -2.38506 42.375 44
      vertex 2.86494 40.625 44
    endloop
  endfacet
  facet normal -1 0 0
    outer loop
      vertex 2.86494 35.375 44
      vertex 2.86494 40.625 45.5
      vertex 2.86494 40.625 44
    endloop
  endfacet
  facet normal -1 -0 0
    outer loop
      vertex 2.86494 40.625 45.5
      vertex 2.86494 35.375 44
      vertex 2.86494 35.375 45.5
    endloop
  endfacet
  facet normal -0.316228 0.948683 0
    outer loop
      vertex 2.86494 35.375 44
      vertex -2.38506 33.625 45.5
      vertex 2.86494 35.375 45.5
    endloop
  endfacet
  facet normal -0.316228 0.948683 0
    outer loop
      vertex -2.38506 33.625 45.5
      vertex 2.86494 35.375 44
      vertex -2.38506 33.625 44
    endloop
  endfacet
  facet normal -1 0 0
    outer loop
      vertex -2.38506 24.875 44
      vertex -2.38506 33.625 45.5
      vertex -2.38506 33.625 44
    endloop
  endfacet
  facet normal -1 -0 0
    outer loop
      vertex -2.38506 33.625 45.5
      vertex -2.38506 24.875 44
      vertex -2.38506 24.875 45.5
    endloop
  endfacet
  facet normal -0.316228 -0.948683 0
    outer loop
      vertex -2.38506 24.875 44
      vertex 2.86494 23.125 45.5
      vertex -2.38506 24.875 45.5
    endloop
  endfacet
  facet normal -0.316228 -0.948683 -0
    outer loop
      vertex 2.86494 23.125 45.5
      vertex -2.38506 24.875 44
      vertex 2.86494 23.125 44
    endloop
  endfacet
  facet normal -1 0 0
    outer loop
      vertex 2.86494 17.875 44
      vertex 2.86494 23.125 45.5
      vertex 2.86494 23.125 44
    endloop
  endfacet
  facet normal -1 -0 0
    outer loop
      vertex 2.86494 23.125 45.5
      vertex 2.86494 17.875 44
      vertex 2.86494 17.875 45.5
    endloop
  endfacet
  facet normal -0.316228 0.948683 0
    outer loop
      vertex 2.86494 17.875 44
      vertex -2.38506 16.125 45.5
      vertex 2.86494 17.875 45.5
    endloop
  endfacet
  facet normal -0.316228 0.948683 0
    outer loop
      vertex -2.38506 16.125 45.5
      vertex 2.86494 17.875 44
      vertex -2.38506 16.125 44
    endloop
  endfacet
  facet normal -1 0 0
    outer loop
      vertex -2.38506 7.375 44
      vertex -2.38506 16.125 45.5
      vertex -2.38506 16.125 44
    endloop
  endfacet
  facet normal -1 -0 0
    outer loop
      vertex -2.38506 16.125 45.5
      vertex -2.38506 7.375 44
      vertex -2.38506 7.375 45.5
    endloop
  endfacet
  facet normal -0.316228 -0.948683 0
    outer loop
      vertex -2.38506 7.375 44
      vertex 2.86494 5.625 45.5
      vertex -2.38506 7.375 45.5
    endloop
  endfacet
  facet normal -0.316228 -0.948683 -0
    outer loop
      vertex 2.86494 5.625 45.5
      vertex -2.38506 7.375 44
      vertex 2.86494 5.625 44
    endloop
  endfacet
  facet normal -1 0 0
    outer loop
      vertex 2.86494 0.375 44
      vertex 2.86494 5.625 45.5
      vertex 2.86494 5.625 44
    endloop
  endfacet
  facet normal -1 -0 0
    outer loop
      vertex 2.86494 5.625 45.5
      vertex 2.86494 0.375 44
      vertex 2.86494 0.375 45.5
    endloop
  endfacet
  facet normal -0.316228 0.948683 0
    outer loop
      vertex 2.86494 0.375 44
      vertex -2.38506 -1.375 45.5
      vertex 2.86494 0.375 45.5
    endloop
  endfacet
  facet normal -0.316228 0.948683 0
    outer loop
      vertex -2.38506 -1.375 45.5
      vertex 2.86494 0.375 44
      vertex -2.38506 -1.375 44
    endloop
  endfacet
  facet normal -1 0 0
    outer loop
      vertex -2.38506 -4.875 45.0326
      vertex -2.38506 -1.375 45.5
      vertex -2.38506 -1.375 44
    endloop
  endfacet
  facet normal -1 0 0
    outer loop
      vertex -2.38506 -4.875 45.0326
      vertex -2.38506 -1.375 44
      vertex -2.38506 -4.875 44
    endloop
  endfacet
  facet normal -1 -0 0
    outer loop
      vertex -2.38506 -1.375 45.5
      vertex -2.38506 -4.875 45.0326
      vertex -2.38506 -4.78185 45.5
    endloop
  endfacet
  facet normal 0 1 -0
    outer loop
      vertex -2.38506 -4.875 44
      vertex -2.86494 -4.875 45.0326
      vertex -2.38506 -4.875 45.0326
    endloop
  endfacet
  facet normal 0 1 0
    outer loop
      vertex -2.86494 -4.875 45.0326
      vertex -2.38506 -4.875 44
      vertex -2.86494 -4.875 44
    endloop
  endfacet
  facet normal 1 0 0
    outer loop
      vertex -2.86494 -4.875 45.0326
      vertex -2.86494 -1.17745 45.5
      vertex -2.86494 -4.78185 45.5
    endloop
  endfacet
  facet normal 1 0 0
    outer loop
      vertex -2.86494 -1.17745 45.5
      vertex -2.86494 -4.875 45.0326
      vertex -2.86494 -1.17745 44
    endloop
  endfacet
  facet normal 1 0 0
    outer loop
      vertex -2.86494 -1.17745 44
      vertex -2.86494 -4.875 45.0326
      vertex -2.86494 -4.875 44
    endloop
  endfacet
  facet normal 0.316228 -0.948683 0
    outer loop
      vertex -2.86494 -1.17745 44
      vertex 2.38505 0.572556 45.5
      vertex -2.86494 -1.17745 45.5
    endloop
  endfacet
  facet normal 0.316228 -0.948683 0
    outer loop
      vertex 2.38505 0.572556 45.5
      vertex -2.86494 -1.17745 44
      vertex 2.38505 0.572556 44
    endloop
  endfacet
  facet normal 1 -0 0
    outer loop
      vertex 2.38505 0.572556 45.5
      vertex 2.38505 5.42744 44
      vertex 2.38505 5.42744 45.5
    endloop
  endfacet
  facet normal 1 0 0
    outer loop
      vertex 2.38505 5.42744 44
      vertex 2.38505 0.572556 45.5
      vertex 2.38505 0.572556 44
    endloop
  endfacet
  facet normal 0.316228 0.948683 -0
    outer loop
      vertex 2.38505 5.42744 44
      vertex -2.86494 7.17745 45.5
      vertex 2.38505 5.42744 45.5
    endloop
  endfacet
  facet normal 0.316228 0.948683 0
    outer loop
      vertex -2.86494 7.17745 45.5
      vertex 2.38505 5.42744 44
      vertex -2.86494 7.17745 44
    endloop
  endfacet
  facet normal 1 -0 0
    outer loop
      vertex -2.86494 7.17745 45.5
      vertex -2.86494 16.3226 44
      vertex -2.86494 16.3226 45.5
    endloop
  endfacet
  facet normal 1 0 0
    outer loop
      vertex -2.86494 16.3226 44
      vertex -2.86494 7.17745 45.5
      vertex -2.86494 7.17745 44
    endloop
  endfacet
  facet normal 0.316228 -0.948683 0
    outer loop
      vertex -2.86494 16.3226 44
      vertex 2.38505 18.0726 45.5
      vertex -2.86494 16.3226 45.5
    endloop
  endfacet
  facet normal 0.316228 -0.948683 0
    outer loop
      vertex 2.38505 18.0726 45.5
      vertex -2.86494 16.3226 44
      vertex 2.38505 18.0726 44
    endloop
  endfacet
  facet normal 1 -0 0
    outer loop
      vertex 2.38505 18.0726 45.5
      vertex 2.38505 22.9274 44
      vertex 2.38505 22.9274 45.5
    endloop
  endfacet
  facet normal 1 0 0
    outer loop
      vertex 2.38505 22.9274 44
      vertex 2.38505 18.0726 45.5
      vertex 2.38505 18.0726 44
    endloop
  endfacet
  facet normal 0.316228 0.948683 -0
    outer loop
      vertex 2.38505 22.9274 44
      vertex -2.86494 24.6774 45.5
      vertex 2.38505 22.9274 45.5
    endloop
  endfacet
  facet normal 0.316228 0.948683 0
    outer loop
      vertex -2.86494 24.6774 45.5
      vertex 2.38505 22.9274 44
      vertex -2.86494 24.6774 44
    endloop
  endfacet
  facet normal 1 -0 0
    outer loop
      vertex -2.86494 24.6774 45.5
      vertex -2.86494 33.8226 44
      vertex -2.86494 33.8226 45.5
    endloop
  endfacet
  facet normal 1 0 0
    outer loop
      vertex -2.86494 33.8226 44
      vertex -2.86494 24.6774 45.5
      vertex -2.86494 24.6774 44
    endloop
  endfacet
  facet normal 0.316228 -0.948683 0
    outer loop
      vertex -2.86494 33.8226 44
      vertex 2.38505 35.5726 45.5
      vertex -2.86494 33.8226 45.5
    endloop
  endfacet
  facet normal 0.316228 -0.948683 0
    outer loop
      vertex 2.38505 35.5726 45.5
      vertex -2.86494 33.8226 44
      vertex 2.38505 35.5726 44
    endloop
  endfacet
  facet normal 1 -0 0
    outer loop
      vertex 2.38505 35.5726 45.5
      vertex 2.38505 40.4274 44
      vertex 2.38505 40.4274 45.5
    endloop
  endfacet
  facet normal 1 0 0
    outer loop
      vertex 2.38505 40.4274 44
      vertex 2.38505 35.5726 45.5
      vertex 2.38505 35.5726 44
    endloop
  endfacet
  facet normal 0.316228 0.948683 -0
    outer loop
      vertex 2.38505 40.4274 44
      vertex -2.86494 42.1774 45.5
      vertex 2.38505 40.4274 45.5
    endloop
  endfacet
  facet normal 0.316228 0.948683 0
    outer loop
      vertex -2.86494 42.1774 45.5
      vertex 2.38505 40.4274 44
      vertex -2.86494 42.1774 44
    endloop
  endfacet
  facet normal 1 -0 0
    outer loop
      vertex -2.86494 42.1774 45.5
      vertex -2.86494 45.875 44.8212
      vertex -2.86494 45.7396 45.5
    endloop
  endfacet
  facet normal 1 0 0
    outer loop
      vertex -2.86494 45.875 44.8212
      vertex -2.86494 42.1774 45.5
      vertex -2.86494 42.1774 44
    endloop
  endfacet
  facet normal 1 0 0
    outer loop
      vertex -2.86494 45.875 44.8212
      vertex -2.86494 42.1774 44
      vertex -2.86494 45.875 44
    endloop
  endfacet
  facet normal 0 -1 0
    outer loop
      vertex -2.86494 45.875 44
      vertex -2.38506 45.875 44.8138
      vertex -2.86494 45.875 44.8212
    endloop
  endfacet
  facet normal 0 -1 -0
    outer loop
      vertex -2.38506 45.875 44.8138
      vertex -2.86494 45.875 44
      vertex -2.38506 45.875 44
    endloop
  endfacet
  facet normal -1 0 0
    outer loop
      vertex -2.38506 42.375 44
      vertex -2.38506 45.875 44.8138
      vertex -2.38506 45.875 44
    endloop
  endfacet
  facet normal -1 0 0
    outer loop
      vertex -2.38506 42.375 45.5
      vertex -2.38506 45.875 44.8138
      vertex -2.38506 42.375 44
    endloop
  endfacet
  facet normal -1 0 0
    outer loop
      vertex -2.38506 45.875 44.8138
      vertex -2.38506 42.375 45.5
      vertex -2.38506 45.7381 45.5
    endloop
  endfacet
endsolid OpenSCAD_Model
