solid OpenSCAD_Model
  facet normal 0 0 1
    outer loop
      vertex 27.1 9.5 39.5
      vertex 26.5 0.630755 39.5
      vertex 27.1 0.630755 39.5
    endloop
  endfacet
  facet normal 0 0 1
    outer loop
      vertex 26.5 0.630755 39.5
      vertex 25.7 0.630755 39.5
      vertex 26.5 0.455858 39.5
    endloop
  endfacet
  facet normal 0 0 1
    outer loop
      vertex 27.1 9.5 39.5
      vertex 25.7 0.630755 39.5
      vertex 26.5 0.630755 39.5
    endloop
  endfacet
  facet normal -0 0 1
    outer loop
      vertex 25.1 9.5 39.5
      vertex 25.7 0.630755 39.5
      vertex 27.1 9.5 39.5
    endloop
  endfacet
  facet normal 0 0 1
    outer loop
      vertex 25.7 0.630755 39.5
      vertex 25.1 9.5 39.5
      vertex 25.1 0.630755 39.5
    endloop
  endfacet
  facet normal -0 0 1
    outer loop
      vertex 26.5 0.455858 39.5
      vertex 27.1 -6.5 39.5
      vertex 27.1 0.455858 39.5
    endloop
  endfacet
  facet normal 0 0 1
    outer loop
      vertex 25.7 0.455858 39.5
      vertex 26.5 0.455858 39.5
      vertex 25.7 0.630755 39.5
    endloop
  endfacet
  facet normal 0 0 1
    outer loop
      vertex 26.5 0.455858 39.5
      vertex 25.7 0.455858 39.5
      vertex 27.1 -6.5 39.5
    endloop
  endfacet
  facet normal 0 0 1
    outer loop
      vertex 25.1 -6.5 39.5
      vertex 25.7 0.455858 39.5
      vertex 25.1 0.455858 39.5
    endloop
  endfacet
  facet normal 0 0 1
    outer loop
      vertex 25.7 0.455858 39.5
      vertex 25.1 -6.5 39.5
      vertex 27.1 -6.5 39.5
    endloop
  endfacet
  facet normal 0 0.707107 -0.707107
    outer loop
      vertex 27.1 9.5 13.9
      vertex 25.1 11 15.4
      vertex 27.1 11 15.4
    endloop
  endfacet
  facet normal 0 0.707107 -0.707107
    outer loop
      vertex 25.1 11 15.4
      vertex 27.1 9.5 13.9
      vertex 25.1 9.5 13.9
    endloop
  endfacet
  facet normal 0 -1 0
    outer loop
      vertex 25.1 -8 15.4
      vertex 27.1 -8 38
      vertex 25.1 -8 38
    endloop
  endfacet
  facet normal 0 -1 -0
    outer loop
      vertex 27.1 -8 38
      vertex 25.1 -8 15.4
      vertex 27.1 -8 15.4
    endloop
  endfacet
  facet normal 0 -0.707107 0.707107
    outer loop
      vertex 25.1 -8 38
      vertex 27.1 -6.5 39.5
      vertex 25.1 -6.5 39.5
    endloop
  endfacet
  facet normal 0 -0.707107 0.707107
    outer loop
      vertex 27.1 -6.5 39.5
      vertex 25.1 -8 38
      vertex 27.1 -8 38
    endloop
  endfacet
  facet normal 0 -0.707107 -0.707107
    outer loop
      vertex 25.1 -6.5 13.9
      vertex 27.1 -8 15.4
      vertex 25.1 -8 15.4
    endloop
  endfacet
  facet normal 0 -0.707107 -0.707107
    outer loop
      vertex 27.1 -8 15.4
      vertex 25.1 -6.5 13.9
      vertex 27.1 -6.5 13.9
    endloop
  endfacet
  facet normal -1 0 0
    outer loop
      vertex 25.1 -6.5 13.9
      vertex 25.1 0.455858 15.4883
      vertex 25.1 0.455858 13.9
    endloop
  endfacet
  facet normal -1 -0 0
    outer loop
      vertex 25.1 0.455858 15.4883
      vertex 25.1 -6.5 13.9
      vertex 25.1 0.455858 19.8866
    endloop
  endfacet
  facet normal -1 -0 0
    outer loop
      vertex 25.1 0.455858 19.8866
      vertex 25.1 -8 15.4
      vertex 25.1 0.455858 24.7008
    endloop
  endfacet
  facet normal -1 0 0
    outer loop
      vertex 25.1 -8 38
      vertex 25.1 0.455858 24.7008
      vertex 25.1 -8 15.4
    endloop
  endfacet
  facet normal -1 0 0
    outer loop
      vertex 25.1 0.455858 24.7008
      vertex 25.1 -8 38
      vertex 25.1 0.455858 29.0991
    endloop
  endfacet
  facet normal -1 0 0
    outer loop
      vertex 25.1 0.455858 29.0991
      vertex 25.1 -8 38
      vertex 25.1 0.455858 33.9134
    endloop
  endfacet
  facet normal -1 0 0
    outer loop
      vertex 25.1 0.455858 19.8866
      vertex 25.1 -6.5 13.9
      vertex 25.1 -8 15.4
    endloop
  endfacet
  facet normal -1 0 -0
    outer loop
      vertex 25.1 -6.5 39.5
      vertex 25.1 0.455858 33.9134
      vertex 25.1 -8 38
    endloop
  endfacet
  facet normal -1 0 0
    outer loop
      vertex 25.1 0.455858 33.9134
      vertex 25.1 -6.5 39.5
      vertex 25.1 0.455858 38.3117
    endloop
  endfacet
  facet normal -1 0 0
    outer loop
      vertex 25.1 0.455858 38.3117
      vertex 25.1 -6.5 39.5
      vertex 25.1 0.455858 39.5
    endloop
  endfacet
  facet normal -1 0 0
    outer loop
      vertex 25.1 0.455858 15.4883
      vertex 25.1 2.36924 18.9653
      vertex 25.1 2.36924 16.4095
    endloop
  endfacet
  facet normal -1 -0 0
    outer loop
      vertex 25.1 2.36924 18.9653
      vertex 25.1 0.455858 15.4883
      vertex 25.1 0.455858 19.8866
    endloop
  endfacet
  facet normal -1 0 0
    outer loop
      vertex 25.1 0.455858 24.7008
      vertex 25.1 2.36924 28.1779
      vertex 25.1 2.36924 25.6221
    endloop
  endfacet
  facet normal -1 -0 0
    outer loop
      vertex 25.1 2.36924 28.1779
      vertex 25.1 0.455858 24.7008
      vertex 25.1 0.455858 29.0991
    endloop
  endfacet
  facet normal -1 0 0
    outer loop
      vertex 25.1 0.455858 33.9134
      vertex 25.1 2.36924 37.3905
      vertex 25.1 2.36924 34.8347
    endloop
  endfacet
  facet normal -1 -0 0
    outer loop
      vertex 25.1 2.36924 37.3905
      vertex 25.1 0.455858 33.9134
      vertex 25.1 0.455858 38.3117
    endloop
  endfacet
  facet normal -1 0 0
    outer loop
      vertex 25.1 0.630755 29.2031
      vertex 25.1 2.54414 34.7307
      vertex 25.1 2.54414 28.2819
    endloop
  endfacet
  facet normal -1 0 0
    outer loop
      vertex 25.1 2.54414 34.7307
      vertex 25.1 0.630755 29.2031
      vertex 25.1 0.630755 33.8094
    endloop
  endfacet
  facet normal -1 0 0
    outer loop
      vertex 25.1 0.630755 19.9906
      vertex 25.1 2.54414 25.5181
      vertex 25.1 2.54414 19.0693
    endloop
  endfacet
  facet normal -1 0 0
    outer loop
      vertex 25.1 2.54414 25.5181
      vertex 25.1 0.630755 19.9906
      vertex 25.1 0.630755 24.5968
    endloop
  endfacet
  facet normal -1 0 0
    outer loop
      vertex 25.1 2.54414 19.0693
      vertex 25.1 11 15.4
      vertex 25.1 9.5 13.9
    endloop
  endfacet
  facet normal -1 0 0
    outer loop
      vertex 25.1 11 15.4
      vertex 25.1 2.54414 25.5181
      vertex 25.1 11 38
    endloop
  endfacet
  facet normal -1 0 0
    outer loop
      vertex 25.1 2.54414 19.0693
      vertex 25.1 9.5 13.9
      vertex 25.1 2.54414 16.3055
    endloop
  endfacet
  facet normal -1 0 0
    outer loop
      vertex 25.1 0.630755 13.9
      vertex 25.1 2.54414 16.3055
      vertex 25.1 9.5 13.9
    endloop
  endfacet
  facet normal -1 0 0
    outer loop
      vertex 25.1 2.54414 16.3055
      vertex 25.1 0.630755 13.9
      vertex 25.1 0.630755 15.3843
    endloop
  endfacet
  facet normal -1 0 0
    outer loop
      vertex 25.1 11 15.4
      vertex 25.1 2.54414 19.0693
      vertex 25.1 2.54414 25.5181
    endloop
  endfacet
  facet normal -1 0 0
    outer loop
      vertex 25.1 2.54414 28.2819
      vertex 25.1 11 38
      vertex 25.1 2.54414 25.5181
    endloop
  endfacet
  facet normal -1 0 0
    outer loop
      vertex 25.1 2.54414 34.7307
      vertex 25.1 11 38
      vertex 25.1 2.54414 28.2819
    endloop
  endfacet
  facet normal -1 -0 0
    outer loop
      vertex 25.1 11 38
      vertex 25.1 2.54414 34.7307
      vertex 25.1 9.5 39.5
    endloop
  endfacet
  facet normal -1 0 0
    outer loop
      vertex 25.1 2.54414 37.4945
      vertex 25.1 9.5 39.5
      vertex 25.1 2.54414 34.7307
    endloop
  endfacet
  facet normal -1 0 0
    outer loop
      vertex 25.1 0.630755 39.5
      vertex 25.1 2.54414 37.4945
      vertex 25.1 0.630755 38.4157
    endloop
  endfacet
  facet normal -1 0 0
    outer loop
      vertex 25.1 2.54414 37.4945
      vertex 25.1 0.630755 39.5
      vertex 25.1 9.5 39.5
    endloop
  endfacet
  facet normal 0 0.707107 0.707107
    outer loop
      vertex 27.1 11 38
      vertex 25.1 9.5 39.5
      vertex 27.1 9.5 39.5
    endloop
  endfacet
  facet normal 0 0.707107 0.707107
    outer loop
      vertex 25.1 9.5 39.5
      vertex 27.1 11 38
      vertex 25.1 11 38
    endloop
  endfacet
  facet normal 1 -0 0
    outer loop
      vertex 27.1 -6.5 39.5
      vertex 27.1 0.455858 38.3117
      vertex 27.1 0.455858 39.5
    endloop
  endfacet
  facet normal 1 0 0
    outer loop
      vertex 27.1 0.455858 38.3117
      vertex 27.1 -6.5 39.5
      vertex 27.1 0.455858 33.9134
    endloop
  endfacet
  facet normal 1 0 0
    outer loop
      vertex 27.1 0.455858 33.9134
      vertex 27.1 -8 38
      vertex 27.1 0.455858 29.0991
    endloop
  endfacet
  facet normal 1 0 0
    outer loop
      vertex 27.1 0.455858 29.0991
      vertex 27.1 -8 38
      vertex 27.1 0.455858 24.7008
    endloop
  endfacet
  facet normal 1 0 0
    outer loop
      vertex 27.1 -8 15.4
      vertex 27.1 0.455858 24.7008
      vertex 27.1 -8 38
    endloop
  endfacet
  facet normal 1 0 0
    outer loop
      vertex 27.1 0.455858 24.7008
      vertex 27.1 -8 15.4
      vertex 27.1 0.455858 19.8866
    endloop
  endfacet
  facet normal 1 0 0
    outer loop
      vertex 27.1 0.455858 33.9134
      vertex 27.1 -6.5 39.5
      vertex 27.1 -8 38
    endloop
  endfacet
  facet normal 1 0 -0
    outer loop
      vertex 27.1 -6.5 13.9
      vertex 27.1 0.455858 19.8866
      vertex 27.1 -8 15.4
    endloop
  endfacet
  facet normal 1 0 0
    outer loop
      vertex 27.1 0.455858 19.8866
      vertex 27.1 -6.5 13.9
      vertex 27.1 0.455858 15.4883
    endloop
  endfacet
  facet normal 1 0 0
    outer loop
      vertex 27.1 0.455858 15.4883
      vertex 27.1 -6.5 13.9
      vertex 27.1 0.455858 13.9
    endloop
  endfacet
  facet normal 1 0 0
    outer loop
      vertex 27.1 0.455858 38.3117
      vertex 27.1 2.36924 34.8347
      vertex 27.1 2.36924 37.3905
    endloop
  endfacet
  facet normal 1 0 0
    outer loop
      vertex 27.1 2.36924 34.8347
      vertex 27.1 0.455858 38.3117
      vertex 27.1 0.455858 33.9134
    endloop
  endfacet
  facet normal 1 0 0
    outer loop
      vertex 27.1 0.455858 29.0991
      vertex 27.1 2.36924 25.6221
      vertex 27.1 2.36924 28.1779
    endloop
  endfacet
  facet normal 1 0 0
    outer loop
      vertex 27.1 2.36924 25.6221
      vertex 27.1 0.455858 29.0991
      vertex 27.1 0.455858 24.7008
    endloop
  endfacet
  facet normal 1 0 0
    outer loop
      vertex 27.1 0.455858 19.8866
      vertex 27.1 2.36924 16.4095
      vertex 27.1 2.36924 18.9653
    endloop
  endfacet
  facet normal 1 0 0
    outer loop
      vertex 27.1 2.36924 16.4095
      vertex 27.1 0.455858 19.8866
      vertex 27.1 0.455858 15.4883
    endloop
  endfacet
  facet normal 1 -0 0
    outer loop
      vertex 27.1 0.630755 24.5968
      vertex 27.1 2.54414 19.0693
      vertex 27.1 2.54414 25.5181
    endloop
  endfacet
  facet normal 1 0 0
    outer loop
      vertex 27.1 2.54414 19.0693
      vertex 27.1 0.630755 24.5968
      vertex 27.1 0.630755 19.9906
    endloop
  endfacet
  facet normal 1 -0 0
    outer loop
      vertex 27.1 0.630755 33.8094
      vertex 27.1 2.54414 28.2819
      vertex 27.1 2.54414 34.7307
    endloop
  endfacet
  facet normal 1 0 0
    outer loop
      vertex 27.1 2.54414 28.2819
      vertex 27.1 0.630755 33.8094
      vertex 27.1 0.630755 29.2031
    endloop
  endfacet
  facet normal 1 0 0
    outer loop
      vertex 27.1 2.54414 34.7307
      vertex 27.1 11 38
      vertex 27.1 9.5 39.5
    endloop
  endfacet
  facet normal 1 0 0
    outer loop
      vertex 27.1 2.54414 25.5181
      vertex 27.1 11 38
      vertex 27.1 2.54414 28.2819
    endloop
  endfacet
  facet normal 1 0 0
    outer loop
      vertex 27.1 2.54414 34.7307
      vertex 27.1 9.5 39.5
      vertex 27.1 2.54414 37.4945
    endloop
  endfacet
  facet normal 1 -0 0
    outer loop
      vertex 27.1 0.630755 39.5
      vertex 27.1 2.54414 37.4945
      vertex 27.1 9.5 39.5
    endloop
  endfacet
  facet normal 1 0 0
    outer loop
      vertex 27.1 2.54414 37.4945
      vertex 27.1 0.630755 39.5
      vertex 27.1 0.630755 38.4157
    endloop
  endfacet
  facet normal 1 0 0
    outer loop
      vertex 27.1 11 38
      vertex 27.1 2.54414 34.7307
      vertex 27.1 2.54414 28.2819
    endloop
  endfacet
  facet normal 1 0 0
    outer loop
      vertex 27.1 11 38
      vertex 27.1 2.54414 25.5181
      vertex 27.1 11 15.4
    endloop
  endfacet
  facet normal 1 -0 0
    outer loop
      vertex 27.1 2.54414 19.0693
      vertex 27.1 11 15.4
      vertex 27.1 2.54414 25.5181
    endloop
  endfacet
  facet normal 1 0 0
    outer loop
      vertex 27.1 11 15.4
      vertex 27.1 2.54414 19.0693
      vertex 27.1 9.5 13.9
    endloop
  endfacet
  facet normal 1 -0 0
    outer loop
      vertex 27.1 2.54414 16.3055
      vertex 27.1 9.5 13.9
      vertex 27.1 2.54414 19.0693
    endloop
  endfacet
  facet normal 1 0 0
    outer loop
      vertex 27.1 0.630755 13.9
      vertex 27.1 2.54414 16.3055
      vertex 27.1 0.630755 15.3843
    endloop
  endfacet
  facet normal 1 0 0
    outer loop
      vertex 27.1 2.54414 16.3055
      vertex 27.1 0.630755 13.9
      vertex 27.1 9.5 13.9
    endloop
  endfacet
  facet normal 0 0 -1
    outer loop
      vertex 27.1 -6.5 13.9
      vertex 26.5 0.455858 13.9
      vertex 27.1 0.455858 13.9
    endloop
  endfacet
  facet normal 0 0 -1
    outer loop
      vertex 26.5 0.455858 13.9
      vertex 25.7 0.455858 13.9
      vertex 26.5 0.630755 13.9
    endloop
  endfacet
  facet normal 0 0 -1
    outer loop
      vertex 27.1 -6.5 13.9
      vertex 25.7 0.455858 13.9
      vertex 26.5 0.455858 13.9
    endloop
  endfacet
  facet normal 0 0 -1
    outer loop
      vertex 25.1 -6.5 13.9
      vertex 25.7 0.455858 13.9
      vertex 27.1 -6.5 13.9
    endloop
  endfacet
  facet normal -0 0 -1
    outer loop
      vertex 25.7 0.455858 13.9
      vertex 25.1 -6.5 13.9
      vertex 25.1 0.455858 13.9
    endloop
  endfacet
  facet normal 0 0 -1
    outer loop
      vertex 26.5 0.630755 13.9
      vertex 27.1 9.5 13.9
      vertex 27.1 0.630755 13.9
    endloop
  endfacet
  facet normal 0 0 -1
    outer loop
      vertex 25.7 0.630755 13.9
      vertex 26.5 0.630755 13.9
      vertex 25.7 0.455858 13.9
    endloop
  endfacet
  facet normal 0 0 -1
    outer loop
      vertex 26.5 0.630755 13.9
      vertex 25.7 0.630755 13.9
      vertex 27.1 9.5 13.9
    endloop
  endfacet
  facet normal 0 0 -1
    outer loop
      vertex 25.1 9.5 13.9
      vertex 25.7 0.630755 13.9
      vertex 25.1 0.630755 13.9
    endloop
  endfacet
  facet normal 0 0 -1
    outer loop
      vertex 25.7 0.630755 13.9
      vertex 25.1 9.5 13.9
      vertex 27.1 9.5 13.9
    endloop
  endfacet
  facet normal 0 1 -0
    outer loop
      vertex 27.1 11 15.4
      vertex 25.1 11 38
      vertex 27.1 11 38
    endloop
  endfacet
  facet normal 0 1 0
    outer loop
      vertex 25.1 11 38
      vertex 27.1 11 15.4
      vertex 25.1 11 15.4
    endloop
  endfacet
  facet normal 1 0 0
    outer loop
      vertex 26.5 0.630755 39.5
      vertex 26.5 0.455858 39.5
      vertex 26.5 0.630755 38.4157
    endloop
  endfacet
  facet normal 1 0 0
    outer loop
      vertex 26.5 2.54414 37.4945
      vertex 26.5 2.36924 37.3905
      vertex 26.5 2.54414 34.7307
    endloop
  endfacet
  facet normal 1 0 0
    outer loop
      vertex 26.5 0.630755 38.4157
      vertex 26.5 2.36924 37.3905
      vertex 26.5 2.54414 37.4945
    endloop
  endfacet
  facet normal 1 0 0
    outer loop
      vertex 26.5 0.630755 38.4157
      vertex 26.5 0.455858 38.3117
      vertex 26.5 2.36924 37.3905
    endloop
  endfacet
  facet normal 1 0 0
    outer loop
      vertex 26.5 0.455858 38.3117
      vertex 26.5 0.630755 38.4157
      vertex 26.5 0.455858 39.5
    endloop
  endfacet
  facet normal 1 -0 0
    outer loop
      vertex 26.5 2.36924 34.8347
      vertex 26.5 2.54414 34.7307
      vertex 26.5 2.36924 37.3905
    endloop
  endfacet
  facet normal 1 0 0
    outer loop
      vertex 26.5 2.36924 34.8347
      vertex 26.5 0.630755 33.8094
      vertex 26.5 2.54414 34.7307
    endloop
  endfacet
  facet normal 1 0 0
    outer loop
      vertex 26.5 0.630755 33.8094
      vertex 26.5 0.455858 33.9134
      vertex 26.5 0.630755 29.2031
    endloop
  endfacet
  facet normal 1 -0 0
    outer loop
      vertex 26.5 0.455858 33.9134
      vertex 26.5 0.630755 33.8094
      vertex 26.5 2.36924 34.8347
    endloop
  endfacet
  facet normal 1 0 0
    outer loop
      vertex 26.5 2.54414 28.2819
      vertex 26.5 2.36924 28.1779
      vertex 26.5 2.54414 25.5181
    endloop
  endfacet
  facet normal 1 0 0
    outer loop
      vertex 26.5 0.630755 29.2031
      vertex 26.5 2.36924 28.1779
      vertex 26.5 2.54414 28.2819
    endloop
  endfacet
  facet normal 1 0 0
    outer loop
      vertex 26.5 0.630755 29.2031
      vertex 26.5 0.455858 29.0991
      vertex 26.5 2.36924 28.1779
    endloop
  endfacet
  facet normal 1 0 0
    outer loop
      vertex 26.5 0.455858 29.0991
      vertex 26.5 0.630755 29.2031
      vertex 26.5 0.455858 33.9134
    endloop
  endfacet
  facet normal 1 -0 0
    outer loop
      vertex 26.5 2.36924 25.6221
      vertex 26.5 2.54414 25.5181
      vertex 26.5 2.36924 28.1779
    endloop
  endfacet
  facet normal 1 0 0
    outer loop
      vertex 26.5 2.36924 25.6221
      vertex 26.5 0.630755 24.5968
      vertex 26.5 2.54414 25.5181
    endloop
  endfacet
  facet normal 1 0 0
    outer loop
      vertex 26.5 0.630755 24.5968
      vertex 26.5 0.455858 24.7008
      vertex 26.5 0.630755 19.9906
    endloop
  endfacet
  facet normal 1 -0 0
    outer loop
      vertex 26.5 0.455858 24.7008
      vertex 26.5 0.630755 24.5968
      vertex 26.5 2.36924 25.6221
    endloop
  endfacet
  facet normal 1 0 0
    outer loop
      vertex 26.5 2.54414 19.0693
      vertex 26.5 2.36924 18.9653
      vertex 26.5 2.54414 16.3055
    endloop
  endfacet
  facet normal 1 0 0
    outer loop
      vertex 26.5 0.630755 19.9906
      vertex 26.5 2.36924 18.9653
      vertex 26.5 2.54414 19.0693
    endloop
  endfacet
  facet normal 1 0 0
    outer loop
      vertex 26.5 0.630755 19.9906
      vertex 26.5 0.455858 19.8866
      vertex 26.5 2.36924 18.9653
    endloop
  endfacet
  facet normal 1 0 0
    outer loop
      vertex 26.5 0.455858 19.8866
      vertex 26.5 0.630755 19.9906
      vertex 26.5 0.455858 24.7008
    endloop
  endfacet
  facet normal 1 -0 0
    outer loop
      vertex 26.5 2.36924 16.4095
      vertex 26.5 2.54414 16.3055
      vertex 26.5 2.36924 18.9653
    endloop
  endfacet
  facet normal 1 0 0
    outer loop
      vertex 26.5 2.36924 16.4095
      vertex 26.5 0.630755 15.3843
      vertex 26.5 2.54414 16.3055
    endloop
  endfacet
  facet normal 1 -0 0
    outer loop
      vertex 26.5 0.455858 15.4883
      vertex 26.5 0.630755 15.3843
      vertex 26.5 2.36924 16.4095
    endloop
  endfacet
  facet normal 1 0 0
    outer loop
      vertex 26.5 0.455858 13.9
      vertex 26.5 0.630755 15.3843
      vertex 26.5 0.455858 15.4883
    endloop
  endfacet
  facet normal 1 0 0
    outer loop
      vertex 26.5 0.630755 15.3843
      vertex 26.5 0.455858 13.9
      vertex 26.5 0.630755 13.9
    endloop
  endfacet
  facet normal 0 -0.433816 0.901002
    outer loop
      vertex 26.5 2.54414 16.3055
      vertex 27.1 0.630755 15.3843
      vertex 27.1 2.54414 16.3055
    endloop
  endfacet
  facet normal 0 -0.433816 0.901002
    outer loop
      vertex 27.1 0.630755 15.3843
      vertex 26.5 2.54414 16.3055
      vertex 26.5 0.630755 15.3843
    endloop
  endfacet
  facet normal 0 -1 0
    outer loop
      vertex 26.5 2.54414 16.3055
      vertex 27.1 2.54414 19.0693
      vertex 26.5 2.54414 19.0693
    endloop
  endfacet
  facet normal 0 -1 -0
    outer loop
      vertex 27.1 2.54414 19.0693
      vertex 26.5 2.54414 16.3055
      vertex 27.1 2.54414 16.3055
    endloop
  endfacet
  facet normal 0 -0.433815 -0.901002
    outer loop
      vertex 26.5 0.630755 19.9906
      vertex 27.1 2.54414 19.0693
      vertex 27.1 0.630755 19.9906
    endloop
  endfacet
  facet normal -0 -0.433815 -0.901002
    outer loop
      vertex 27.1 2.54414 19.0693
      vertex 26.5 0.630755 19.9906
      vertex 26.5 2.54414 19.0693
    endloop
  endfacet
  facet normal 0 -1 0
    outer loop
      vertex 26.5 0.630755 19.9906
      vertex 27.1 0.630755 24.5968
      vertex 26.5 0.630755 24.5968
    endloop
  endfacet
  facet normal 0 -1 -0
    outer loop
      vertex 27.1 0.630755 24.5968
      vertex 26.5 0.630755 19.9906
      vertex 27.1 0.630755 19.9906
    endloop
  endfacet
  facet normal 0 -0.433816 0.901001
    outer loop
      vertex 26.5 2.54414 25.5181
      vertex 27.1 0.630755 24.5968
      vertex 27.1 2.54414 25.5181
    endloop
  endfacet
  facet normal 0 -0.433816 0.901001
    outer loop
      vertex 27.1 0.630755 24.5968
      vertex 26.5 2.54414 25.5181
      vertex 26.5 0.630755 24.5968
    endloop
  endfacet
  facet normal 0 -1 0
    outer loop
      vertex 26.5 2.54414 25.5181
      vertex 27.1 2.54414 28.2819
      vertex 26.5 2.54414 28.2819
    endloop
  endfacet
  facet normal 0 -1 -0
    outer loop
      vertex 27.1 2.54414 28.2819
      vertex 26.5 2.54414 25.5181
      vertex 27.1 2.54414 25.5181
    endloop
  endfacet
  facet normal 0 -0.433816 -0.901001
    outer loop
      vertex 26.5 0.630755 29.2031
      vertex 27.1 2.54414 28.2819
      vertex 27.1 0.630755 29.2031
    endloop
  endfacet
  facet normal -0 -0.433816 -0.901001
    outer loop
      vertex 27.1 2.54414 28.2819
      vertex 26.5 0.630755 29.2031
      vertex 26.5 2.54414 28.2819
    endloop
  endfacet
  facet normal 0 -1 0
    outer loop
      vertex 26.5 0.630755 29.2031
      vertex 27.1 0.630755 33.8094
      vertex 26.5 0.630755 33.8094
    endloop
  endfacet
  facet normal 0 -1 -0
    outer loop
      vertex 27.1 0.630755 33.8094
      vertex 26.5 0.630755 29.2031
      vertex 27.1 0.630755 29.2031
    endloop
  endfacet
  facet normal 0 -0.433816 0.901001
    outer loop
      vertex 26.5 2.54414 34.7307
      vertex 27.1 0.630755 33.8094
      vertex 27.1 2.54414 34.7307
    endloop
  endfacet
  facet normal 0 -0.433816 0.901001
    outer loop
      vertex 27.1 0.630755 33.8094
      vertex 26.5 2.54414 34.7307
      vertex 26.5 0.630755 33.8094
    endloop
  endfacet
  facet normal 0 -1 0
    outer loop
      vertex 26.5 2.54414 34.7307
      vertex 27.1 2.54414 37.4945
      vertex 26.5 2.54414 37.4945
    endloop
  endfacet
  facet normal 0 -1 -0
    outer loop
      vertex 27.1 2.54414 37.4945
      vertex 26.5 2.54414 34.7307
      vertex 27.1 2.54414 34.7307
    endloop
  endfacet
  facet normal 0 -0.433816 -0.901001
    outer loop
      vertex 26.5 0.630755 38.4157
      vertex 27.1 2.54414 37.4945
      vertex 27.1 0.630755 38.4157
    endloop
  endfacet
  facet normal -0 -0.433816 -0.901001
    outer loop
      vertex 27.1 2.54414 37.4945
      vertex 26.5 0.630755 38.4157
      vertex 26.5 2.54414 37.4945
    endloop
  endfacet
  facet normal 0 -1 0
    outer loop
      vertex 26.5 0.630755 38.4157
      vertex 27.1 0.630755 39.5
      vertex 26.5 0.630755 39.5
    endloop
  endfacet
  facet normal 0 -1 -0
    outer loop
      vertex 27.1 0.630755 39.5
      vertex 26.5 0.630755 38.4157
      vertex 27.1 0.630755 38.4157
    endloop
  endfacet
  facet normal 0 1 -0
    outer loop
      vertex 27.1 0.455858 38.3117
      vertex 26.5 0.455858 39.5
      vertex 27.1 0.455858 39.5
    endloop
  endfacet
  facet normal 0 1 0
    outer loop
      vertex 26.5 0.455858 39.5
      vertex 27.1 0.455858 38.3117
      vertex 26.5 0.455858 38.3117
    endloop
  endfacet
  facet normal -0 0.433816 0.901001
    outer loop
      vertex 26.5 2.36924 37.3905
      vertex 27.1 0.455858 38.3117
      vertex 27.1 2.36924 37.3905
    endloop
  endfacet
  facet normal 0 0.433816 0.901001
    outer loop
      vertex 27.1 0.455858 38.3117
      vertex 26.5 2.36924 37.3905
      vertex 26.5 0.455858 38.3117
    endloop
  endfacet
  facet normal 0 1 -0
    outer loop
      vertex 27.1 2.36924 34.8347
      vertex 26.5 2.36924 37.3905
      vertex 27.1 2.36924 37.3905
    endloop
  endfacet
  facet normal 0 1 0
    outer loop
      vertex 26.5 2.36924 37.3905
      vertex 27.1 2.36924 34.8347
      vertex 26.5 2.36924 34.8347
    endloop
  endfacet
  facet normal 0 0.433816 -0.901001
    outer loop
      vertex 26.5 0.455858 33.9134
      vertex 27.1 2.36924 34.8347
      vertex 27.1 0.455858 33.9134
    endloop
  endfacet
  facet normal 0 0.433816 -0.901001
    outer loop
      vertex 27.1 2.36924 34.8347
      vertex 26.5 0.455858 33.9134
      vertex 26.5 2.36924 34.8347
    endloop
  endfacet
  facet normal 0 1 -0
    outer loop
      vertex 27.1 0.455858 29.0991
      vertex 26.5 0.455858 33.9134
      vertex 27.1 0.455858 33.9134
    endloop
  endfacet
  facet normal 0 1 0
    outer loop
      vertex 26.5 0.455858 33.9134
      vertex 27.1 0.455858 29.0991
      vertex 26.5 0.455858 29.0991
    endloop
  endfacet
  facet normal -0 0.433816 0.901001
    outer loop
      vertex 26.5 2.36924 28.1779
      vertex 27.1 0.455858 29.0991
      vertex 27.1 2.36924 28.1779
    endloop
  endfacet
  facet normal 0 0.433816 0.901001
    outer loop
      vertex 27.1 0.455858 29.0991
      vertex 26.5 2.36924 28.1779
      vertex 26.5 0.455858 29.0991
    endloop
  endfacet
  facet normal 0 1 -0
    outer loop
      vertex 27.1 2.36924 25.6221
      vertex 26.5 2.36924 28.1779
      vertex 27.1 2.36924 28.1779
    endloop
  endfacet
  facet normal 0 1 0
    outer loop
      vertex 26.5 2.36924 28.1779
      vertex 27.1 2.36924 25.6221
      vertex 26.5 2.36924 25.6221
    endloop
  endfacet
  facet normal 0 0.433816 -0.901001
    outer loop
      vertex 26.5 0.455858 24.7008
      vertex 27.1 2.36924 25.6221
      vertex 27.1 0.455858 24.7008
    endloop
  endfacet
  facet normal 0 0.433816 -0.901001
    outer loop
      vertex 27.1 2.36924 25.6221
      vertex 26.5 0.455858 24.7008
      vertex 26.5 2.36924 25.6221
    endloop
  endfacet
  facet normal 0 1 -0
    outer loop
      vertex 27.1 0.455858 19.8866
      vertex 26.5 0.455858 24.7008
      vertex 27.1 0.455858 24.7008
    endloop
  endfacet
  facet normal 0 1 0
    outer loop
      vertex 26.5 0.455858 24.7008
      vertex 27.1 0.455858 19.8866
      vertex 26.5 0.455858 19.8866
    endloop
  endfacet
  facet normal -0 0.433815 0.901002
    outer loop
      vertex 26.5 2.36924 18.9653
      vertex 27.1 0.455858 19.8866
      vertex 27.1 2.36924 18.9653
    endloop
  endfacet
  facet normal 0 0.433815 0.901002
    outer loop
      vertex 27.1 0.455858 19.8866
      vertex 26.5 2.36924 18.9653
      vertex 26.5 0.455858 19.8866
    endloop
  endfacet
  facet normal 0 1 -0
    outer loop
      vertex 27.1 2.36924 16.4095
      vertex 26.5 2.36924 18.9653
      vertex 27.1 2.36924 18.9653
    endloop
  endfacet
  facet normal 0 1 0
    outer loop
      vertex 26.5 2.36924 18.9653
      vertex 27.1 2.36924 16.4095
      vertex 26.5 2.36924 16.4095
    endloop
  endfacet
  facet normal 0 0.433816 -0.901002
    outer loop
      vertex 26.5 0.455858 15.4883
      vertex 27.1 2.36924 16.4095
      vertex 27.1 0.455858 15.4883
    endloop
  endfacet
  facet normal 0 0.433816 -0.901002
    outer loop
      vertex 27.1 2.36924 16.4095
      vertex 26.5 0.455858 15.4883
      vertex 26.5 2.36924 16.4095
    endloop
  endfacet
  facet normal 0 1 -0
    outer loop
      vertex 27.1 0.455858 13.9
      vertex 26.5 0.455858 15.4883
      vertex 27.1 0.455858 15.4883
    endloop
  endfacet
  facet normal 0 1 0
    outer loop
      vertex 26.5 0.455858 15.4883
      vertex 27.1 0.455858 13.9
      vertex 26.5 0.455858 13.9
    endloop
  endfacet
  facet normal 0 -1 0
    outer loop
      vertex 26.5 0.630755 13.9
      vertex 27.1 0.630755 15.3843
      vertex 26.5 0.630755 15.3843
    endloop
  endfacet
  facet normal 0 -1 -0
    outer loop
      vertex 27.1 0.630755 15.3843
      vertex 26.5 0.630755 13.9
      vertex 27.1 0.630755 13.9
    endloop
  endfacet
  facet normal -1 0 0
    outer loop
      vertex 25.7 0.630755 13.9
      vertex 25.7 0.455858 13.9
      vertex 25.7 0.630755 15.3843
    endloop
  endfacet
  facet normal -1 0 0
    outer loop
      vertex 25.7 2.54414 16.3055
      vertex 25.7 2.36924 16.4095
      vertex 25.7 2.54414 19.0693
    endloop
  endfacet
  facet normal -1 0 0
    outer loop
      vertex 25.7 0.630755 15.3843
      vertex 25.7 2.36924 16.4095
      vertex 25.7 2.54414 16.3055
    endloop
  endfacet
  facet normal -1 0 0
    outer loop
      vertex 25.7 0.630755 15.3843
      vertex 25.7 0.455858 15.4883
      vertex 25.7 2.36924 16.4095
    endloop
  endfacet
  facet normal -1 0 0
    outer loop
      vertex 25.7 0.455858 15.4883
      vertex 25.7 0.630755 15.3843
      vertex 25.7 0.455858 13.9
    endloop
  endfacet
  facet normal -1 0 0
    outer loop
      vertex 25.7 2.36924 18.9653
      vertex 25.7 2.54414 19.0693
      vertex 25.7 2.36924 16.4095
    endloop
  endfacet
  facet normal -1 0 0
    outer loop
      vertex 25.7 2.36924 18.9653
      vertex 25.7 0.630755 19.9906
      vertex 25.7 2.54414 19.0693
    endloop
  endfacet
  facet normal -1 -0 0
    outer loop
      vertex 25.7 0.630755 19.9906
      vertex 25.7 0.455858 19.8866
      vertex 25.7 0.630755 24.5968
    endloop
  endfacet
  facet normal -1 0 0
    outer loop
      vertex 25.7 0.455858 19.8866
      vertex 25.7 0.630755 19.9906
      vertex 25.7 2.36924 18.9653
    endloop
  endfacet
  facet normal -1 0 0
    outer loop
      vertex 25.7 2.54414 25.5181
      vertex 25.7 2.36924 25.6221
      vertex 25.7 2.54414 28.2819
    endloop
  endfacet
  facet normal -1 0 0
    outer loop
      vertex 25.7 0.630755 24.5968
      vertex 25.7 2.36924 25.6221
      vertex 25.7 2.54414 25.5181
    endloop
  endfacet
  facet normal -1 0 0
    outer loop
      vertex 25.7 0.630755 24.5968
      vertex 25.7 0.455858 24.7008
      vertex 25.7 2.36924 25.6221
    endloop
  endfacet
  facet normal -1 0 0
    outer loop
      vertex 25.7 0.455858 24.7008
      vertex 25.7 0.630755 24.5968
      vertex 25.7 0.455858 19.8866
    endloop
  endfacet
  facet normal -1 0 0
    outer loop
      vertex 25.7 2.36924 28.1779
      vertex 25.7 2.54414 28.2819
      vertex 25.7 2.36924 25.6221
    endloop
  endfacet
  facet normal -1 0 0
    outer loop
      vertex 25.7 2.36924 28.1779
      vertex 25.7 0.630755 29.2031
      vertex 25.7 2.54414 28.2819
    endloop
  endfacet
  facet normal -1 -0 0
    outer loop
      vertex 25.7 0.630755 29.2031
      vertex 25.7 0.455858 29.0991
      vertex 25.7 0.630755 33.8094
    endloop
  endfacet
  facet normal -1 0 0
    outer loop
      vertex 25.7 0.455858 29.0991
      vertex 25.7 0.630755 29.2031
      vertex 25.7 2.36924 28.1779
    endloop
  endfacet
  facet normal -1 0 0
    outer loop
      vertex 25.7 2.54414 34.7307
      vertex 25.7 2.36924 34.8347
      vertex 25.7 2.54414 37.4945
    endloop
  endfacet
  facet normal -1 0 0
    outer loop
      vertex 25.7 0.630755 33.8094
      vertex 25.7 2.36924 34.8347
      vertex 25.7 2.54414 34.7307
    endloop
  endfacet
  facet normal -1 0 0
    outer loop
      vertex 25.7 0.630755 33.8094
      vertex 25.7 0.455858 33.9134
      vertex 25.7 2.36924 34.8347
    endloop
  endfacet
  facet normal -1 0 0
    outer loop
      vertex 25.7 0.455858 33.9134
      vertex 25.7 0.630755 33.8094
      vertex 25.7 0.455858 29.0991
    endloop
  endfacet
  facet normal -1 0 0
    outer loop
      vertex 25.7 2.36924 37.3905
      vertex 25.7 2.54414 37.4945
      vertex 25.7 2.36924 34.8347
    endloop
  endfacet
  facet normal -1 0 0
    outer loop
      vertex 25.7 2.36924 37.3905
      vertex 25.7 0.630755 38.4157
      vertex 25.7 2.54414 37.4945
    endloop
  endfacet
  facet normal -1 0 0
    outer loop
      vertex 25.7 0.455858 38.3117
      vertex 25.7 0.630755 38.4157
      vertex 25.7 2.36924 37.3905
    endloop
  endfacet
  facet normal -1 0 0
    outer loop
      vertex 25.7 0.455858 39.5
      vertex 25.7 0.630755 38.4157
      vertex 25.7 0.455858 38.3117
    endloop
  endfacet
  facet normal -1 0 0
    outer loop
      vertex 25.7 0.630755 38.4157
      vertex 25.7 0.455858 39.5
      vertex 25.7 0.630755 39.5
    endloop
  endfacet
  facet normal 0 -0.433816 0.901002
    outer loop
      vertex 25.1 2.54414 16.3055
      vertex 25.7 0.630755 15.3843
      vertex 25.7 2.54414 16.3055
    endloop
  endfacet
  facet normal 0 -0.433816 0.901002
    outer loop
      vertex 25.7 0.630755 15.3843
      vertex 25.1 2.54414 16.3055
      vertex 25.1 0.630755 15.3843
    endloop
  endfacet
  facet normal 0 -1 0
    outer loop
      vertex 25.1 2.54414 16.3055
      vertex 25.7 2.54414 19.0693
      vertex 25.1 2.54414 19.0693
    endloop
  endfacet
  facet normal 0 -1 -0
    outer loop
      vertex 25.7 2.54414 19.0693
      vertex 25.1 2.54414 16.3055
      vertex 25.7 2.54414 16.3055
    endloop
  endfacet
  facet normal 0 -0.433815 -0.901002
    outer loop
      vertex 25.1 0.630755 19.9906
      vertex 25.7 2.54414 19.0693
      vertex 25.7 0.630755 19.9906
    endloop
  endfacet
  facet normal -0 -0.433815 -0.901002
    outer loop
      vertex 25.7 2.54414 19.0693
      vertex 25.1 0.630755 19.9906
      vertex 25.1 2.54414 19.0693
    endloop
  endfacet
  facet normal 0 -1 0
    outer loop
      vertex 25.1 0.630755 19.9906
      vertex 25.7 0.630755 24.5968
      vertex 25.1 0.630755 24.5968
    endloop
  endfacet
  facet normal 0 -1 -0
    outer loop
      vertex 25.7 0.630755 24.5968
      vertex 25.1 0.630755 19.9906
      vertex 25.7 0.630755 19.9906
    endloop
  endfacet
  facet normal 0 -0.433816 0.901001
    outer loop
      vertex 25.1 2.54414 25.5181
      vertex 25.7 0.630755 24.5968
      vertex 25.7 2.54414 25.5181
    endloop
  endfacet
  facet normal 0 -0.433816 0.901001
    outer loop
      vertex 25.7 0.630755 24.5968
      vertex 25.1 2.54414 25.5181
      vertex 25.1 0.630755 24.5968
    endloop
  endfacet
  facet normal 0 -1 0
    outer loop
      vertex 25.1 2.54414 25.5181
      vertex 25.7 2.54414 28.2819
      vertex 25.1 2.54414 28.2819
    endloop
  endfacet
  facet normal 0 -1 -0
    outer loop
      vertex 25.7 2.54414 28.2819
      vertex 25.1 2.54414 25.5181
      vertex 25.7 2.54414 25.5181
    endloop
  endfacet
  facet normal 0 -0.433816 -0.901001
    outer loop
      vertex 25.1 0.630755 29.2031
      vertex 25.7 2.54414 28.2819
      vertex 25.7 0.630755 29.2031
    endloop
  endfacet
  facet normal -0 -0.433816 -0.901001
    outer loop
      vertex 25.7 2.54414 28.2819
      vertex 25.1 0.630755 29.2031
      vertex 25.1 2.54414 28.2819
    endloop
  endfacet
  facet normal 0 -1 0
    outer loop
      vertex 25.1 0.630755 29.2031
      vertex 25.7 0.630755 33.8094
      vertex 25.1 0.630755 33.8094
    endloop
  endfacet
  facet normal 0 -1 -0
    outer loop
      vertex 25.7 0.630755 33.8094
      vertex 25.1 0.630755 29.2031
      vertex 25.7 0.630755 29.2031
    endloop
  endfacet
  facet normal 0 -0.433816 0.901001
    outer loop
      vertex 25.1 2.54414 34.7307
      vertex 25.7 0.630755 33.8094
      vertex 25.7 2.54414 34.7307
    endloop
  endfacet
  facet normal 0 -0.433816 0.901001
    outer loop
      vertex 25.7 0.630755 33.8094
      vertex 25.1 2.54414 34.7307
      vertex 25.1 0.630755 33.8094
    endloop
  endfacet
  facet normal 0 -1 0
    outer loop
      vertex 25.1 2.54414 34.7307
      vertex 25.7 2.54414 37.4945
      vertex 25.1 2.54414 37.4945
    endloop
  endfacet
  facet normal 0 -1 -0
    outer loop
      vertex 25.7 2.54414 37.4945
      vertex 25.1 2.54414 34.7307
      vertex 25.7 2.54414 34.7307
    endloop
  endfacet
  facet normal 0 -0.433816 -0.901001
    outer loop
      vertex 25.1 0.630755 38.4157
      vertex 25.7 2.54414 37.4945
      vertex 25.7 0.630755 38.4157
    endloop
  endfacet
  facet normal -0 -0.433816 -0.901001
    outer loop
      vertex 25.7 2.54414 37.4945
      vertex 25.1 0.630755 38.4157
      vertex 25.1 2.54414 37.4945
    endloop
  endfacet
  facet normal 0 -1 0
    outer loop
      vertex 25.1 0.630755 38.4157
      vertex 25.7 0.630755 39.5
      vertex 25.1 0.630755 39.5
    endloop
  endfacet
  facet normal 0 -1 -0
    outer loop
      vertex 25.7 0.630755 39.5
      vertex 25.1 0.630755 38.4157
      vertex 25.7 0.630755 38.4157
    endloop
  endfacet
  facet normal 0 1 -0
    outer loop
      vertex 25.7 0.455858 38.3117
      vertex 25.1 0.455858 39.5
      vertex 25.7 0.455858 39.5
    endloop
  endfacet
  facet normal 0 1 0
    outer loop
      vertex 25.1 0.455858 39.5
      vertex 25.7 0.455858 38.3117
      vertex 25.1 0.455858 38.3117
    endloop
  endfacet
  facet normal -0 0.433816 0.901001
    outer loop
      vertex 25.1 2.36924 37.3905
      vertex 25.7 0.455858 38.3117
      vertex 25.7 2.36924 37.3905
    endloop
  endfacet
  facet normal 0 0.433816 0.901001
    outer loop
      vertex 25.7 0.455858 38.3117
      vertex 25.1 2.36924 37.3905
      vertex 25.1 0.455858 38.3117
    endloop
  endfacet
  facet normal 0 1 -0
    outer loop
      vertex 25.7 2.36924 34.8347
      vertex 25.1 2.36924 37.3905
      vertex 25.7 2.36924 37.3905
    endloop
  endfacet
  facet normal 0 1 0
    outer loop
      vertex 25.1 2.36924 37.3905
      vertex 25.7 2.36924 34.8347
      vertex 25.1 2.36924 34.8347
    endloop
  endfacet
  facet normal 0 0.433816 -0.901001
    outer loop
      vertex 25.1 0.455858 33.9134
      vertex 25.7 2.36924 34.8347
      vertex 25.7 0.455858 33.9134
    endloop
  endfacet
  facet normal 0 0.433816 -0.901001
    outer loop
      vertex 25.7 2.36924 34.8347
      vertex 25.1 0.455858 33.9134
      vertex 25.1 2.36924 34.8347
    endloop
  endfacet
  facet normal 0 1 -0
    outer loop
      vertex 25.7 0.455858 29.0991
      vertex 25.1 0.455858 33.9134
      vertex 25.7 0.455858 33.9134
    endloop
  endfacet
  facet normal 0 1 0
    outer loop
      vertex 25.1 0.455858 33.9134
      vertex 25.7 0.455858 29.0991
      vertex 25.1 0.455858 29.0991
    endloop
  endfacet
  facet normal -0 0.433816 0.901001
    outer loop
      vertex 25.1 2.36924 28.1779
      vertex 25.7 0.455858 29.0991
      vertex 25.7 2.36924 28.1779
    endloop
  endfacet
  facet normal 0 0.433816 0.901001
    outer loop
      vertex 25.7 0.455858 29.0991
      vertex 25.1 2.36924 28.1779
      vertex 25.1 0.455858 29.0991
    endloop
  endfacet
  facet normal 0 1 -0
    outer loop
      vertex 25.7 2.36924 25.6221
      vertex 25.1 2.36924 28.1779
      vertex 25.7 2.36924 28.1779
    endloop
  endfacet
  facet normal 0 1 0
    outer loop
      vertex 25.1 2.36924 28.1779
      vertex 25.7 2.36924 25.6221
      vertex 25.1 2.36924 25.6221
    endloop
  endfacet
  facet normal 0 0.433816 -0.901001
    outer loop
      vertex 25.1 0.455858 24.7008
      vertex 25.7 2.36924 25.6221
      vertex 25.7 0.455858 24.7008
    endloop
  endfacet
  facet normal 0 0.433816 -0.901001
    outer loop
      vertex 25.7 2.36924 25.6221
      vertex 25.1 0.455858 24.7008
      vertex 25.1 2.36924 25.6221
    endloop
  endfacet
  facet normal 0 1 -0
    outer loop
      vertex 25.7 0.455858 19.8866
      vertex 25.1 0.455858 24.7008
      vertex 25.7 0.455858 24.7008
    endloop
  endfacet
  facet normal 0 1 0
    outer loop
      vertex 25.1 0.455858 24.7008
      vertex 25.7 0.455858 19.8866
      vertex 25.1 0.455858 19.8866
    endloop
  endfacet
  facet normal -0 0.433815 0.901002
    outer loop
      vertex 25.1 2.36924 18.9653
      vertex 25.7 0.455858 19.8866
      vertex 25.7 2.36924 18.9653
    endloop
  endfacet
  facet normal 0 0.433815 0.901002
    outer loop
      vertex 25.7 0.455858 19.8866
      vertex 25.1 2.36924 18.9653
      vertex 25.1 0.455858 19.8866
    endloop
  endfacet
  facet normal 0 1 -0
    outer loop
      vertex 25.7 2.36924 16.4095
      vertex 25.1 2.36924 18.9653
      vertex 25.7 2.36924 18.9653
    endloop
  endfacet
  facet normal 0 1 0
    outer loop
      vertex 25.1 2.36924 18.9653
      vertex 25.7 2.36924 16.4095
      vertex 25.1 2.36924 16.4095
    endloop
  endfacet
  facet normal 0 0.433816 -0.901002
    outer loop
      vertex 25.1 0.455858 15.4883
      vertex 25.7 2.36924 16.4095
      vertex 25.7 0.455858 15.4883
    endloop
  endfacet
  facet normal 0 0.433816 -0.901002
    outer loop
      vertex 25.7 2.36924 16.4095
      vertex 25.1 0.455858 15.4883
      vertex 25.1 2.36924 16.4095
    endloop
  endfacet
  facet normal 0 1 -0
    outer loop
      vertex 25.7 0.455858 13.9
      vertex 25.1 0.455858 15.4883
      vertex 25.7 0.455858 15.4883
    endloop
  endfacet
  facet normal 0 1 0
    outer loop
      vertex 25.1 0.455858 15.4883
      vertex 25.7 0.455858 13.9
      vertex 25.1 0.455858 13.9
    endloop
  endfacet
  facet normal 0 -1 0
    outer loop
      vertex 25.1 0.630755 13.9
      vertex 25.7 0.630755 15.3843
      vertex 25.1 0.630755 15.3843
    endloop
  endfacet
  facet normal 0 -1 -0
    outer loop
      vertex 25.7 0.630755 15.3843
      vertex 25.1 0.630755 13.9
      vertex 25.7 0.630755 13.9
    endloop
  endfacet
  facet normal 0 0 1
    outer loop
      vertex -25.1 9.5 39.1
      vertex -25.7 0.630755 39.1
      vertex -25.1 0.630755 39.1
    endloop
  endfacet
  facet normal 0 0 1
    outer loop
      vertex -25.7 0.630755 39.1
      vertex -26.5 0.630755 39.1
      vertex -25.7 0.455858 39.1
    endloop
  endfacet
  facet normal 0 0 1
    outer loop
      vertex -25.1 9.5 39.1
      vertex -26.5 0.630755 39.1
      vertex -25.7 0.630755 39.1
    endloop
  endfacet
  facet normal -0 0 1
    outer loop
      vertex -27.1 9.5 39.1
      vertex -26.5 0.630755 39.1
      vertex -25.1 9.5 39.1
    endloop
  endfacet
  facet normal 0 0 1
    outer loop
      vertex -26.5 0.630755 39.1
      vertex -27.1 9.5 39.1
      vertex -27.1 0.630755 39.1
    endloop
  endfacet
  facet normal -0 0 1
    outer loop
      vertex -25.7 0.455858 39.1
      vertex -25.1 -6.5 39.1
      vertex -25.1 0.455858 39.1
    endloop
  endfacet
  facet normal 0 0 1
    outer loop
      vertex -26.5 0.455858 39.1
      vertex -25.7 0.455858 39.1
      vertex -26.5 0.630755 39.1
    endloop
  endfacet
  facet normal 0 0 1
    outer loop
      vertex -25.7 0.455858 39.1
      vertex -26.5 0.455858 39.1
      vertex -25.1 -6.5 39.1
    endloop
  endfacet
  facet normal 0 0 1
    outer loop
      vertex -27.1 -6.5 39.1
      vertex -26.5 0.455858 39.1
      vertex -27.1 0.455858 39.1
    endloop
  endfacet
  facet normal 0 0 1
    outer loop
      vertex -26.5 0.455858 39.1
      vertex -27.1 -6.5 39.1
      vertex -25.1 -6.5 39.1
    endloop
  endfacet
  facet normal 0 0.707107 -0.707107
    outer loop
      vertex -25.1 9.5 13.5
      vertex -27.1 11 15
      vertex -25.1 11 15
    endloop
  endfacet
  facet normal 0 0.707107 -0.707107
    outer loop
      vertex -27.1 11 15
      vertex -25.1 9.5 13.5
      vertex -27.1 9.5 13.5
    endloop
  endfacet
  facet normal 0 -1 0
    outer loop
      vertex -27.1 -8 15
      vertex -25.1 -8 37.6
      vertex -27.1 -8 37.6
    endloop
  endfacet
  facet normal 0 -1 -0
    outer loop
      vertex -25.1 -8 37.6
      vertex -27.1 -8 15
      vertex -25.1 -8 15
    endloop
  endfacet
  facet normal 0 -0.707107 0.707107
    outer loop
      vertex -27.1 -8 37.6
      vertex -25.1 -6.5 39.1
      vertex -27.1 -6.5 39.1
    endloop
  endfacet
  facet normal 0 -0.707107 0.707107
    outer loop
      vertex -25.1 -6.5 39.1
      vertex -27.1 -8 37.6
      vertex -25.1 -8 37.6
    endloop
  endfacet
  facet normal 0 -0.707107 -0.707107
    outer loop
      vertex -27.1 -6.5 13.5
      vertex -25.1 -8 15
      vertex -27.1 -8 15
    endloop
  endfacet
  facet normal 0 -0.707107 -0.707107
    outer loop
      vertex -25.1 -8 15
      vertex -27.1 -6.5 13.5
      vertex -25.1 -6.5 13.5
    endloop
  endfacet
  facet normal -1 0 0
    outer loop
      vertex -27.1 -6.5 13.5
      vertex -27.1 0.455858 15.0883
      vertex -27.1 0.455858 13.5
    endloop
  endfacet
  facet normal -1 -0 0
    outer loop
      vertex -27.1 0.455858 15.0883
      vertex -27.1 -6.5 13.5
      vertex -27.1 0.455858 19.4866
    endloop
  endfacet
  facet normal -1 -0 0
    outer loop
      vertex -27.1 0.455858 19.4866
      vertex -27.1 -8 15
      vertex -27.1 0.455858 24.3008
    endloop
  endfacet
  facet normal -1 0 0
    outer loop
      vertex -27.1 -8 37.6
      vertex -27.1 0.455858 24.3008
      vertex -27.1 -8 15
    endloop
  endfacet
  facet normal -1 0 0
    outer loop
      vertex -27.1 0.455858 24.3008
      vertex -27.1 -8 37.6
      vertex -27.1 0.455858 28.6992
    endloop
  endfacet
  facet normal -1 0 0
    outer loop
      vertex -27.1 0.455858 28.6992
      vertex -27.1 -8 37.6
      vertex -27.1 0.455858 33.5134
    endloop
  endfacet
  facet normal -1 0 0
    outer loop
      vertex -27.1 0.455858 19.4866
      vertex -27.1 -6.5 13.5
      vertex -27.1 -8 15
    endloop
  endfacet
  facet normal -1 0 -0
    outer loop
      vertex -27.1 -6.5 39.1
      vertex -27.1 0.455858 33.5134
      vertex -27.1 -8 37.6
    endloop
  endfacet
  facet normal -1 0 0
    outer loop
      vertex -27.1 0.455858 33.5134
      vertex -27.1 -6.5 39.1
      vertex -27.1 0.455858 37.9118
    endloop
  endfacet
  facet normal -1 0 0
    outer loop
      vertex -27.1 0.455858 37.9118
      vertex -27.1 -6.5 39.1
      vertex -27.1 0.455858 39.1
    endloop
  endfacet
  facet normal -1 0 0
    outer loop
      vertex -27.1 0.455858 15.0883
      vertex -27.1 2.36924 18.5653
      vertex -27.1 2.36924 16.0095
    endloop
  endfacet
  facet normal -1 -0 0
    outer loop
      vertex -27.1 2.36924 18.5653
      vertex -27.1 0.455858 15.0883
      vertex -27.1 0.455858 19.4866
    endloop
  endfacet
  facet normal -1 0 0
    outer loop
      vertex -27.1 0.455858 24.3008
      vertex -27.1 2.36924 27.7779
      vertex -27.1 2.36924 25.2221
    endloop
  endfacet
  facet normal -1 -0 0
    outer loop
      vertex -27.1 2.36924 27.7779
      vertex -27.1 0.455858 24.3008
      vertex -27.1 0.455858 28.6992
    endloop
  endfacet
  facet normal -1 0 0
    outer loop
      vertex -27.1 0.455858 33.5134
      vertex -27.1 2.36924 36.9905
      vertex -27.1 2.36924 34.4347
    endloop
  endfacet
  facet normal -1 -0 0
    outer loop
      vertex -27.1 2.36924 36.9905
      vertex -27.1 0.455858 33.5134
      vertex -27.1 0.455858 37.9118
    endloop
  endfacet
  facet normal -1 0 0
    outer loop
      vertex -27.1 0.630755 28.8032
      vertex -27.1 2.54414 34.3307
      vertex -27.1 2.54414 27.8819
    endloop
  endfacet
  facet normal -1 0 0
    outer loop
      vertex -27.1 2.54414 34.3307
      vertex -27.1 0.630755 28.8032
      vertex -27.1 0.630755 33.4094
    endloop
  endfacet
  facet normal -1 0 0
    outer loop
      vertex -27.1 0.630755 19.5906
      vertex -27.1 2.54414 25.1181
      vertex -27.1 2.54414 18.6693
    endloop
  endfacet
  facet normal -1 0 0
    outer loop
      vertex -27.1 2.54414 25.1181
      vertex -27.1 0.630755 19.5906
      vertex -27.1 0.630755 24.1968
    endloop
  endfacet
  facet normal -1 0 0
    outer loop
      vertex -27.1 2.54414 18.6693
      vertex -27.1 11 15
      vertex -27.1 9.5 13.5
    endloop
  endfacet
  facet normal -1 0 0
    outer loop
      vertex -27.1 11 15
      vertex -27.1 2.54414 25.1181
      vertex -27.1 11 37.6
    endloop
  endfacet
  facet normal -1 0 0
    outer loop
      vertex -27.1 2.54414 18.6693
      vertex -27.1 9.5 13.5
      vertex -27.1 2.54414 15.9055
    endloop
  endfacet
  facet normal -1 0 0
    outer loop
      vertex -27.1 0.630755 13.5
      vertex -27.1 2.54414 15.9055
      vertex -27.1 9.5 13.5
    endloop
  endfacet
  facet normal -1 0 0
    outer loop
      vertex -27.1 2.54414 15.9055
      vertex -27.1 0.630755 13.5
      vertex -27.1 0.630755 14.9843
    endloop
  endfacet
  facet normal -1 0 0
    outer loop
      vertex -27.1 11 15
      vertex -27.1 2.54414 18.6693
      vertex -27.1 2.54414 25.1181
    endloop
  endfacet
  facet normal -1 0 0
    outer loop
      vertex -27.1 2.54414 27.8819
      vertex -27.1 11 37.6
      vertex -27.1 2.54414 25.1181
    endloop
  endfacet
  facet normal -1 0 0
    outer loop
      vertex -27.1 2.54414 34.3307
      vertex -27.1 11 37.6
      vertex -27.1 2.54414 27.8819
    endloop
  endfacet
  facet normal -1 -0 0
    outer loop
      vertex -27.1 11 37.6
      vertex -27.1 2.54414 34.3307
      vertex -27.1 9.5 39.1
    endloop
  endfacet
  facet normal -1 0 0
    outer loop
      vertex -27.1 2.54414 37.0945
      vertex -27.1 9.5 39.1
      vertex -27.1 2.54414 34.3307
    endloop
  endfacet
  facet normal -1 0 0
    outer loop
      vertex -27.1 0.630755 39.1
      vertex -27.1 2.54414 37.0945
      vertex -27.1 0.630755 38.0157
    endloop
  endfacet
  facet normal -1 0 0
    outer loop
      vertex -27.1 2.54414 37.0945
      vertex -27.1 0.630755 39.1
      vertex -27.1 9.5 39.1
    endloop
  endfacet
  facet normal 0 0.707107 0.707107
    outer loop
      vertex -25.1 11 37.6
      vertex -27.1 9.5 39.1
      vertex -25.1 9.5 39.1
    endloop
  endfacet
  facet normal 0 0.707107 0.707107
    outer loop
      vertex -27.1 9.5 39.1
      vertex -25.1 11 37.6
      vertex -27.1 11 37.6
    endloop
  endfacet
  facet normal 1 -0 0
    outer loop
      vertex -25.1 -6.5 39.1
      vertex -25.1 0.455858 37.9118
      vertex -25.1 0.455858 39.1
    endloop
  endfacet
  facet normal 1 0 0
    outer loop
      vertex -25.1 0.455858 37.9118
      vertex -25.1 -6.5 39.1
      vertex -25.1 0.455858 33.5134
    endloop
  endfacet
  facet normal 1 0 0
    outer loop
      vertex -25.1 0.455858 33.5134
      vertex -25.1 -8 37.6
      vertex -25.1 0.455858 28.6992
    endloop
  endfacet
  facet normal 1 0 0
    outer loop
      vertex -25.1 0.455858 28.6992
      vertex -25.1 -8 37.6
      vertex -25.1 0.455858 24.3008
    endloop
  endfacet
  facet normal 1 0 0
    outer loop
      vertex -25.1 -8 15
      vertex -25.1 0.455858 24.3008
      vertex -25.1 -8 37.6
    endloop
  endfacet
  facet normal 1 0 0
    outer loop
      vertex -25.1 0.455858 24.3008
      vertex -25.1 -8 15
      vertex -25.1 0.455858 19.4866
    endloop
  endfacet
  facet normal 1 0 0
    outer loop
      vertex -25.1 0.455858 33.5134
      vertex -25.1 -6.5 39.1
      vertex -25.1 -8 37.6
    endloop
  endfacet
  facet normal 1 0 -0
    outer loop
      vertex -25.1 -6.5 13.5
      vertex -25.1 0.455858 19.4866
      vertex -25.1 -8 15
    endloop
  endfacet
  facet normal 1 0 0
    outer loop
      vertex -25.1 0.455858 19.4866
      vertex -25.1 -6.5 13.5
      vertex -25.1 0.455858 15.0883
    endloop
  endfacet
  facet normal 1 0 0
    outer loop
      vertex -25.1 0.455858 15.0883
      vertex -25.1 -6.5 13.5
      vertex -25.1 0.455858 13.5
    endloop
  endfacet
  facet normal 1 0 0
    outer loop
      vertex -25.1 0.455858 37.9118
      vertex -25.1 2.36924 34.4347
      vertex -25.1 2.36924 36.9905
    endloop
  endfacet
  facet normal 1 0 0
    outer loop
      vertex -25.1 2.36924 34.4347
      vertex -25.1 0.455858 37.9118
      vertex -25.1 0.455858 33.5134
    endloop
  endfacet
  facet normal 1 0 0
    outer loop
      vertex -25.1 0.455858 28.6992
      vertex -25.1 2.36924 25.2221
      vertex -25.1 2.36924 27.7779
    endloop
  endfacet
  facet normal 1 0 0
    outer loop
      vertex -25.1 2.36924 25.2221
      vertex -25.1 0.455858 28.6992
      vertex -25.1 0.455858 24.3008
    endloop
  endfacet
  facet normal 1 0 0
    outer loop
      vertex -25.1 0.455858 19.4866
      vertex -25.1 2.36924 16.0095
      vertex -25.1 2.36924 18.5653
    endloop
  endfacet
  facet normal 1 0 0
    outer loop
      vertex -25.1 2.36924 16.0095
      vertex -25.1 0.455858 19.4866
      vertex -25.1 0.455858 15.0883
    endloop
  endfacet
  facet normal 1 -0 0
    outer loop
      vertex -25.1 0.630755 24.1968
      vertex -25.1 2.54414 18.6693
      vertex -25.1 2.54414 25.1181
    endloop
  endfacet
  facet normal 1 0 0
    outer loop
      vertex -25.1 2.54414 18.6693
      vertex -25.1 0.630755 24.1968
      vertex -25.1 0.630755 19.5906
    endloop
  endfacet
  facet normal 1 -0 0
    outer loop
      vertex -25.1 0.630755 33.4094
      vertex -25.1 2.54414 27.8819
      vertex -25.1 2.54414 34.3307
    endloop
  endfacet
  facet normal 1 0 0
    outer loop
      vertex -25.1 2.54414 27.8819
      vertex -25.1 0.630755 33.4094
      vertex -25.1 0.630755 28.8032
    endloop
  endfacet
  facet normal 1 0 0
    outer loop
      vertex -25.1 2.54414 34.3307
      vertex -25.1 11 37.6
      vertex -25.1 9.5 39.1
    endloop
  endfacet
  facet normal 1 0 0
    outer loop
      vertex -25.1 2.54414 25.1181
      vertex -25.1 11 37.6
      vertex -25.1 2.54414 27.8819
    endloop
  endfacet
  facet normal 1 0 0
    outer loop
      vertex -25.1 2.54414 34.3307
      vertex -25.1 9.5 39.1
      vertex -25.1 2.54414 37.0945
    endloop
  endfacet
  facet normal 1 -0 0
    outer loop
      vertex -25.1 0.630755 39.1
      vertex -25.1 2.54414 37.0945
      vertex -25.1 9.5 39.1
    endloop
  endfacet
  facet normal 1 0 0
    outer loop
      vertex -25.1 2.54414 37.0945
      vertex -25.1 0.630755 39.1
      vertex -25.1 0.630755 38.0157
    endloop
  endfacet
  facet normal 1 0 0
    outer loop
      vertex -25.1 11 37.6
      vertex -25.1 2.54414 34.3307
      vertex -25.1 2.54414 27.8819
    endloop
  endfacet
  facet normal 1 0 0
    outer loop
      vertex -25.1 11 37.6
      vertex -25.1 2.54414 25.1181
      vertex -25.1 11 15
    endloop
  endfacet
  facet normal 1 -0 0
    outer loop
      vertex -25.1 2.54414 18.6693
      vertex -25.1 11 15
      vertex -25.1 2.54414 25.1181
    endloop
  endfacet
  facet normal 1 0 0
    outer loop
      vertex -25.1 11 15
      vertex -25.1 2.54414 18.6693
      vertex -25.1 9.5 13.5
    endloop
  endfacet
  facet normal 1 -0 0
    outer loop
      vertex -25.1 2.54414 15.9055
      vertex -25.1 9.5 13.5
      vertex -25.1 2.54414 18.6693
    endloop
  endfacet
  facet normal 1 0 0
    outer loop
      vertex -25.1 0.630755 13.5
      vertex -25.1 2.54414 15.9055
      vertex -25.1 0.630755 14.9843
    endloop
  endfacet
  facet normal 1 0 0
    outer loop
      vertex -25.1 2.54414 15.9055
      vertex -25.1 0.630755 13.5
      vertex -25.1 9.5 13.5
    endloop
  endfacet
  facet normal 0 0 -1
    outer loop
      vertex -25.1 -6.5 13.5
      vertex -25.7 0.455858 13.5
      vertex -25.1 0.455858 13.5
    endloop
  endfacet
  facet normal 0 0 -1
    outer loop
      vertex -25.7 0.455858 13.5
      vertex -26.5 0.455858 13.5
      vertex -25.7 0.630755 13.5
    endloop
  endfacet
  facet normal 0 0 -1
    outer loop
      vertex -25.1 -6.5 13.5
      vertex -26.5 0.455858 13.5
      vertex -25.7 0.455858 13.5
    endloop
  endfacet
  facet normal 0 0 -1
    outer loop
      vertex -27.1 -6.5 13.5
      vertex -26.5 0.455858 13.5
      vertex -25.1 -6.5 13.5
    endloop
  endfacet
  facet normal -0 0 -1
    outer loop
      vertex -26.5 0.455858 13.5
      vertex -27.1 -6.5 13.5
      vertex -27.1 0.455858 13.5
    endloop
  endfacet
  facet normal 0 0 -1
    outer loop
      vertex -25.7 0.630755 13.5
      vertex -25.1 9.5 13.5
      vertex -25.1 0.630755 13.5
    endloop
  endfacet
  facet normal 0 0 -1
    outer loop
      vertex -26.5 0.630755 13.5
      vertex -25.7 0.630755 13.5
      vertex -26.5 0.455858 13.5
    endloop
  endfacet
  facet normal 0 0 -1
    outer loop
      vertex -25.7 0.630755 13.5
      vertex -26.5 0.630755 13.5
      vertex -25.1 9.5 13.5
    endloop
  endfacet
  facet normal 0 0 -1
    outer loop
      vertex -27.1 9.5 13.5
      vertex -26.5 0.630755 13.5
      vertex -27.1 0.630755 13.5
    endloop
  endfacet
  facet normal 0 0 -1
    outer loop
      vertex -26.5 0.630755 13.5
      vertex -27.1 9.5 13.5
      vertex -25.1 9.5 13.5
    endloop
  endfacet
  facet normal 0 1 -0
    outer loop
      vertex -25.1 11 15
      vertex -27.1 11 37.6
      vertex -25.1 11 37.6
    endloop
  endfacet
  facet normal 0 1 0
    outer loop
      vertex -27.1 11 37.6
      vertex -25.1 11 15
      vertex -27.1 11 15
    endloop
  endfacet
  facet normal 1 0 0
    outer loop
      vertex -25.7 0.630755 39.1
      vertex -25.7 0.455858 39.1
      vertex -25.7 0.630755 38.0157
    endloop
  endfacet
  facet normal 1 0 0
    outer loop
      vertex -25.7 2.54414 37.0945
      vertex -25.7 2.36924 36.9905
      vertex -25.7 2.54414 34.3307
    endloop
  endfacet
  facet normal 1 0 0
    outer loop
      vertex -25.7 0.630755 38.0157
      vertex -25.7 2.36924 36.9905
      vertex -25.7 2.54414 37.0945
    endloop
  endfacet
  facet normal 1 0 0
    outer loop
      vertex -25.7 0.630755 38.0157
      vertex -25.7 0.455858 37.9118
      vertex -25.7 2.36924 36.9905
    endloop
  endfacet
  facet normal 1 0 0
    outer loop
      vertex -25.7 0.455858 37.9118
      vertex -25.7 0.630755 38.0157
      vertex -25.7 0.455858 39.1
    endloop
  endfacet
  facet normal 1 -0 0
    outer loop
      vertex -25.7 2.36924 34.4347
      vertex -25.7 2.54414 34.3307
      vertex -25.7 2.36924 36.9905
    endloop
  endfacet
  facet normal 1 0 0
    outer loop
      vertex -25.7 2.36924 34.4347
      vertex -25.7 0.630755 33.4094
      vertex -25.7 2.54414 34.3307
    endloop
  endfacet
  facet normal 1 0 0
    outer loop
      vertex -25.7 0.630755 33.4094
      vertex -25.7 0.455858 33.5134
      vertex -25.7 0.630755 28.8032
    endloop
  endfacet
  facet normal 1 -0 0
    outer loop
      vertex -25.7 0.455858 33.5134
      vertex -25.7 0.630755 33.4094
      vertex -25.7 2.36924 34.4347
    endloop
  endfacet
  facet normal 1 0 0
    outer loop
      vertex -25.7 2.54414 27.8819
      vertex -25.7 2.36924 27.7779
      vertex -25.7 2.54414 25.1181
    endloop
  endfacet
  facet normal 1 0 0
    outer loop
      vertex -25.7 0.630755 28.8032
      vertex -25.7 2.36924 27.7779
      vertex -25.7 2.54414 27.8819
    endloop
  endfacet
  facet normal 1 0 0
    outer loop
      vertex -25.7 0.630755 28.8032
      vertex -25.7 0.455858 28.6992
      vertex -25.7 2.36924 27.7779
    endloop
  endfacet
  facet normal 1 0 0
    outer loop
      vertex -25.7 0.455858 28.6992
      vertex -25.7 0.630755 28.8032
      vertex -25.7 0.455858 33.5134
    endloop
  endfacet
  facet normal 1 -0 0
    outer loop
      vertex -25.7 2.36924 25.2221
      vertex -25.7 2.54414 25.1181
      vertex -25.7 2.36924 27.7779
    endloop
  endfacet
  facet normal 1 0 0
    outer loop
      vertex -25.7 2.36924 25.2221
      vertex -25.7 0.630755 24.1968
      vertex -25.7 2.54414 25.1181
    endloop
  endfacet
  facet normal 1 0 0
    outer loop
      vertex -25.7 0.630755 24.1968
      vertex -25.7 0.455858 24.3008
      vertex -25.7 0.630755 19.5906
    endloop
  endfacet
  facet normal 1 -0 0
    outer loop
      vertex -25.7 0.455858 24.3008
      vertex -25.7 0.630755 24.1968
      vertex -25.7 2.36924 25.2221
    endloop
  endfacet
  facet normal 1 0 0
    outer loop
      vertex -25.7 2.54414 18.6693
      vertex -25.7 2.36924 18.5653
      vertex -25.7 2.54414 15.9055
    endloop
  endfacet
  facet normal 1 0 0
    outer loop
      vertex -25.7 0.630755 19.5906
      vertex -25.7 2.36924 18.5653
      vertex -25.7 2.54414 18.6693
    endloop
  endfacet
  facet normal 1 0 0
    outer loop
      vertex -25.7 0.630755 19.5906
      vertex -25.7 0.455858 19.4866
      vertex -25.7 2.36924 18.5653
    endloop
  endfacet
  facet normal 1 0 0
    outer loop
      vertex -25.7 0.455858 19.4866
      vertex -25.7 0.630755 19.5906
      vertex -25.7 0.455858 24.3008
    endloop
  endfacet
  facet normal 1 -0 0
    outer loop
      vertex -25.7 2.36924 16.0095
      vertex -25.7 2.54414 15.9055
      vertex -25.7 2.36924 18.5653
    endloop
  endfacet
  facet normal 1 0 0
    outer loop
      vertex -25.7 2.36924 16.0095
      vertex -25.7 0.630755 14.9843
      vertex -25.7 2.54414 15.9055
    endloop
  endfacet
  facet normal 1 -0 0
    outer loop
      vertex -25.7 0.455858 15.0883
      vertex -25.7 0.630755 14.9843
      vertex -25.7 2.36924 16.0095
    endloop
  endfacet
  facet normal 1 0 0
    outer loop
      vertex -25.7 0.455858 13.5
      vertex -25.7 0.630755 14.9843
      vertex -25.7 0.455858 15.0883
    endloop
  endfacet
  facet normal 1 0 0
    outer loop
      vertex -25.7 0.630755 14.9843
      vertex -25.7 0.455858 13.5
      vertex -25.7 0.630755 13.5
    endloop
  endfacet
  facet normal 0 -0.433816 0.901002
    outer loop
      vertex -25.7 2.54414 15.9055
      vertex -25.1 0.630755 14.9843
      vertex -25.1 2.54414 15.9055
    endloop
  endfacet
  facet normal 0 -0.433816 0.901002
    outer loop
      vertex -25.1 0.630755 14.9843
      vertex -25.7 2.54414 15.9055
      vertex -25.7 0.630755 14.9843
    endloop
  endfacet
  facet normal 0 -1 0
    outer loop
      vertex -25.7 2.54414 15.9055
      vertex -25.1 2.54414 18.6693
      vertex -25.7 2.54414 18.6693
    endloop
  endfacet
  facet normal 0 -1 -0
    outer loop
      vertex -25.1 2.54414 18.6693
      vertex -25.7 2.54414 15.9055
      vertex -25.1 2.54414 15.9055
    endloop
  endfacet
  facet normal 0 -0.433815 -0.901002
    outer loop
      vertex -25.7 0.630755 19.5906
      vertex -25.1 2.54414 18.6693
      vertex -25.1 0.630755 19.5906
    endloop
  endfacet
  facet normal -0 -0.433815 -0.901002
    outer loop
      vertex -25.1 2.54414 18.6693
      vertex -25.7 0.630755 19.5906
      vertex -25.7 2.54414 18.6693
    endloop
  endfacet
  facet normal 0 -1 0
    outer loop
      vertex -25.7 0.630755 19.5906
      vertex -25.1 0.630755 24.1968
      vertex -25.7 0.630755 24.1968
    endloop
  endfacet
  facet normal 0 -1 -0
    outer loop
      vertex -25.1 0.630755 24.1968
      vertex -25.7 0.630755 19.5906
      vertex -25.1 0.630755 19.5906
    endloop
  endfacet
  facet normal 0 -0.433816 0.901001
    outer loop
      vertex -25.7 2.54414 25.1181
      vertex -25.1 0.630755 24.1968
      vertex -25.1 2.54414 25.1181
    endloop
  endfacet
  facet normal 0 -0.433816 0.901001
    outer loop
      vertex -25.1 0.630755 24.1968
      vertex -25.7 2.54414 25.1181
      vertex -25.7 0.630755 24.1968
    endloop
  endfacet
  facet normal 0 -1 0
    outer loop
      vertex -25.7 2.54414 25.1181
      vertex -25.1 2.54414 27.8819
      vertex -25.7 2.54414 27.8819
    endloop
  endfacet
  facet normal 0 -1 -0
    outer loop
      vertex -25.1 2.54414 27.8819
      vertex -25.7 2.54414 25.1181
      vertex -25.1 2.54414 25.1181
    endloop
  endfacet
  facet normal 0 -0.433816 -0.901001
    outer loop
      vertex -25.7 0.630755 28.8032
      vertex -25.1 2.54414 27.8819
      vertex -25.1 0.630755 28.8032
    endloop
  endfacet
  facet normal -0 -0.433816 -0.901001
    outer loop
      vertex -25.1 2.54414 27.8819
      vertex -25.7 0.630755 28.8032
      vertex -25.7 2.54414 27.8819
    endloop
  endfacet
  facet normal 0 -1 0
    outer loop
      vertex -25.7 0.630755 28.8032
      vertex -25.1 0.630755 33.4094
      vertex -25.7 0.630755 33.4094
    endloop
  endfacet
  facet normal 0 -1 -0
    outer loop
      vertex -25.1 0.630755 33.4094
      vertex -25.7 0.630755 28.8032
      vertex -25.1 0.630755 28.8032
    endloop
  endfacet
  facet normal 0 -0.433816 0.901001
    outer loop
      vertex -25.7 2.54414 34.3307
      vertex -25.1 0.630755 33.4094
      vertex -25.1 2.54414 34.3307
    endloop
  endfacet
  facet normal 0 -0.433816 0.901001
    outer loop
      vertex -25.1 0.630755 33.4094
      vertex -25.7 2.54414 34.3307
      vertex -25.7 0.630755 33.4094
    endloop
  endfacet
  facet normal 0 -1 0
    outer loop
      vertex -25.7 2.54414 34.3307
      vertex -25.1 2.54414 37.0945
      vertex -25.7 2.54414 37.0945
    endloop
  endfacet
  facet normal 0 -1 -0
    outer loop
      vertex -25.1 2.54414 37.0945
      vertex -25.7 2.54414 34.3307
      vertex -25.1 2.54414 34.3307
    endloop
  endfacet
  facet normal 0 -0.433815 -0.901002
    outer loop
      vertex -25.7 0.630755 38.0157
      vertex -25.1 2.54414 37.0945
      vertex -25.1 0.630755 38.0157
    endloop
  endfacet
  facet normal -0 -0.433815 -0.901002
    outer loop
      vertex -25.1 2.54414 37.0945
      vertex -25.7 0.630755 38.0157
      vertex -25.7 2.54414 37.0945
    endloop
  endfacet
  facet normal 0 -1 0
    outer loop
      vertex -25.7 0.630755 38.0157
      vertex -25.1 0.630755 39.1
      vertex -25.7 0.630755 39.1
    endloop
  endfacet
  facet normal 0 -1 -0
    outer loop
      vertex -25.1 0.630755 39.1
      vertex -25.7 0.630755 38.0157
      vertex -25.1 0.630755 38.0157
    endloop
  endfacet
  facet normal 0 1 -0
    outer loop
      vertex -25.1 0.455858 37.9118
      vertex -25.7 0.455858 39.1
      vertex -25.1 0.455858 39.1
    endloop
  endfacet
  facet normal 0 1 0
    outer loop
      vertex -25.7 0.455858 39.1
      vertex -25.1 0.455858 37.9118
      vertex -25.7 0.455858 37.9118
    endloop
  endfacet
  facet normal -0 0.433818 0.901001
    outer loop
      vertex -25.7 2.36924 36.9905
      vertex -25.1 0.455858 37.9118
      vertex -25.1 2.36924 36.9905
    endloop
  endfacet
  facet normal 0 0.433818 0.901001
    outer loop
      vertex -25.1 0.455858 37.9118
      vertex -25.7 2.36924 36.9905
      vertex -25.7 0.455858 37.9118
    endloop
  endfacet
  facet normal 0 1 -0
    outer loop
      vertex -25.1 2.36924 34.4347
      vertex -25.7 2.36924 36.9905
      vertex -25.1 2.36924 36.9905
    endloop
  endfacet
  facet normal 0 1 0
    outer loop
      vertex -25.7 2.36924 36.9905
      vertex -25.1 2.36924 34.4347
      vertex -25.7 2.36924 34.4347
    endloop
  endfacet
  facet normal 0 0.433816 -0.901001
    outer loop
      vertex -25.7 0.455858 33.5134
      vertex -25.1 2.36924 34.4347
      vertex -25.1 0.455858 33.5134
    endloop
  endfacet
  facet normal 0 0.433816 -0.901001
    outer loop
      vertex -25.1 2.36924 34.4347
      vertex -25.7 0.455858 33.5134
      vertex -25.7 2.36924 34.4347
    endloop
  endfacet
  facet normal 0 1 -0
    outer loop
      vertex -25.1 0.455858 28.6992
      vertex -25.7 0.455858 33.5134
      vertex -25.1 0.455858 33.5134
    endloop
  endfacet
  facet normal 0 1 0
    outer loop
      vertex -25.7 0.455858 33.5134
      vertex -25.1 0.455858 28.6992
      vertex -25.7 0.455858 28.6992
    endloop
  endfacet
  facet normal -0 0.433816 0.901001
    outer loop
      vertex -25.7 2.36924 27.7779
      vertex -25.1 0.455858 28.6992
      vertex -25.1 2.36924 27.7779
    endloop
  endfacet
  facet normal 0 0.433816 0.901001
    outer loop
      vertex -25.1 0.455858 28.6992
      vertex -25.7 2.36924 27.7779
      vertex -25.7 0.455858 28.6992
    endloop
  endfacet
  facet normal 0 1 -0
    outer loop
      vertex -25.1 2.36924 25.2221
      vertex -25.7 2.36924 27.7779
      vertex -25.1 2.36924 27.7779
    endloop
  endfacet
  facet normal 0 1 0
    outer loop
      vertex -25.7 2.36924 27.7779
      vertex -25.1 2.36924 25.2221
      vertex -25.7 2.36924 25.2221
    endloop
  endfacet
  facet normal 0 0.433816 -0.901001
    outer loop
      vertex -25.7 0.455858 24.3008
      vertex -25.1 2.36924 25.2221
      vertex -25.1 0.455858 24.3008
    endloop
  endfacet
  facet normal 0 0.433816 -0.901001
    outer loop
      vertex -25.1 2.36924 25.2221
      vertex -25.7 0.455858 24.3008
      vertex -25.7 2.36924 25.2221
    endloop
  endfacet
  facet normal 0 1 -0
    outer loop
      vertex -25.1 0.455858 19.4866
      vertex -25.7 0.455858 24.3008
      vertex -25.1 0.455858 24.3008
    endloop
  endfacet
  facet normal 0 1 0
    outer loop
      vertex -25.7 0.455858 24.3008
      vertex -25.1 0.455858 19.4866
      vertex -25.7 0.455858 19.4866
    endloop
  endfacet
  facet normal -0 0.433815 0.901002
    outer loop
      vertex -25.7 2.36924 18.5653
      vertex -25.1 0.455858 19.4866
      vertex -25.1 2.36924 18.5653
    endloop
  endfacet
  facet normal 0 0.433815 0.901002
    outer loop
      vertex -25.1 0.455858 19.4866
      vertex -25.7 2.36924 18.5653
      vertex -25.7 0.455858 19.4866
    endloop
  endfacet
  facet normal 0 1 -0
    outer loop
      vertex -25.1 2.36924 16.0095
      vertex -25.7 2.36924 18.5653
      vertex -25.1 2.36924 18.5653
    endloop
  endfacet
  facet normal 0 1 0
    outer loop
      vertex -25.7 2.36924 18.5653
      vertex -25.1 2.36924 16.0095
      vertex -25.7 2.36924 16.0095
    endloop
  endfacet
  facet normal 0 0.433816 -0.901002
    outer loop
      vertex -25.7 0.455858 15.0883
      vertex -25.1 2.36924 16.0095
      vertex -25.1 0.455858 15.0883
    endloop
  endfacet
  facet normal 0 0.433816 -0.901002
    outer loop
      vertex -25.1 2.36924 16.0095
      vertex -25.7 0.455858 15.0883
      vertex -25.7 2.36924 16.0095
    endloop
  endfacet
  facet normal 0 1 -0
    outer loop
      vertex -25.1 0.455858 13.5
      vertex -25.7 0.455858 15.0883
      vertex -25.1 0.455858 15.0883
    endloop
  endfacet
  facet normal 0 1 0
    outer loop
      vertex -25.7 0.455858 15.0883
      vertex -25.1 0.455858 13.5
      vertex -25.7 0.455858 13.5
    endloop
  endfacet
  facet normal 0 -1 0
    outer loop
      vertex -25.7 0.630755 13.5
      vertex -25.1 0.630755 14.9843
      vertex -25.7 0.630755 14.9843
    endloop
  endfacet
  facet normal 0 -1 -0
    outer loop
      vertex -25.1 0.630755 14.9843
      vertex -25.7 0.630755 13.5
      vertex -25.1 0.630755 13.5
    endloop
  endfacet
  facet normal -1 0 0
    outer loop
      vertex -26.5 0.630755 13.5
      vertex -26.5 0.455858 13.5
      vertex -26.5 0.630755 14.9843
    endloop
  endfacet
  facet normal -1 0 0
    outer loop
      vertex -26.5 2.54414 15.9055
      vertex -26.5 2.36924 16.0095
      vertex -26.5 2.54414 18.6693
    endloop
  endfacet
  facet normal -1 0 0
    outer loop
      vertex -26.5 0.630755 14.9843
      vertex -26.5 2.36924 16.0095
      vertex -26.5 2.54414 15.9055
    endloop
  endfacet
  facet normal -1 0 0
    outer loop
      vertex -26.5 0.630755 14.9843
      vertex -26.5 0.455858 15.0883
      vertex -26.5 2.36924 16.0095
    endloop
  endfacet
  facet normal -1 0 0
    outer loop
      vertex -26.5 0.455858 15.0883
      vertex -26.5 0.630755 14.9843
      vertex -26.5 0.455858 13.5
    endloop
  endfacet
  facet normal -1 0 0
    outer loop
      vertex -26.5 2.36924 18.5653
      vertex -26.5 2.54414 18.6693
      vertex -26.5 2.36924 16.0095
    endloop
  endfacet
  facet normal -1 0 0
    outer loop
      vertex -26.5 2.36924 18.5653
      vertex -26.5 0.630755 19.5906
      vertex -26.5 2.54414 18.6693
    endloop
  endfacet
  facet normal -1 -0 0
    outer loop
      vertex -26.5 0.630755 19.5906
      vertex -26.5 0.455858 19.4866
      vertex -26.5 0.630755 24.1968
    endloop
  endfacet
  facet normal -1 0 0
    outer loop
      vertex -26.5 0.455858 19.4866
      vertex -26.5 0.630755 19.5906
      vertex -26.5 2.36924 18.5653
    endloop
  endfacet
  facet normal -1 0 0
    outer loop
      vertex -26.5 2.54414 25.1181
      vertex -26.5 2.36924 25.2221
      vertex -26.5 2.54414 27.8819
    endloop
  endfacet
  facet normal -1 0 0
    outer loop
      vertex -26.5 0.630755 24.1968
      vertex -26.5 2.36924 25.2221
      vertex -26.5 2.54414 25.1181
    endloop
  endfacet
  facet normal -1 0 0
    outer loop
      vertex -26.5 0.630755 24.1968
      vertex -26.5 0.455858 24.3008
      vertex -26.5 2.36924 25.2221
    endloop
  endfacet
  facet normal -1 0 0
    outer loop
      vertex -26.5 0.455858 24.3008
      vertex -26.5 0.630755 24.1968
      vertex -26.5 0.455858 19.4866
    endloop
  endfacet
  facet normal -1 0 0
    outer loop
      vertex -26.5 2.36924 27.7779
      vertex -26.5 2.54414 27.8819
      vertex -26.5 2.36924 25.2221
    endloop
  endfacet
  facet normal -1 0 0
    outer loop
      vertex -26.5 2.36924 27.7779
      vertex -26.5 0.630755 28.8032
      vertex -26.5 2.54414 27.8819
    endloop
  endfacet
  facet normal -1 -0 0
    outer loop
      vertex -26.5 0.630755 28.8032
      vertex -26.5 0.455858 28.6992
      vertex -26.5 0.630755 33.4094
    endloop
  endfacet
  facet normal -1 0 0
    outer loop
      vertex -26.5 0.455858 28.6992
      vertex -26.5 0.630755 28.8032
      vertex -26.5 2.36924 27.7779
    endloop
  endfacet
  facet normal -1 0 0
    outer loop
      vertex -26.5 2.54414 34.3307
      vertex -26.5 2.36924 34.4347
      vertex -26.5 2.54414 37.0945
    endloop
  endfacet
  facet normal -1 0 0
    outer loop
      vertex -26.5 0.630755 33.4094
      vertex -26.5 2.36924 34.4347
      vertex -26.5 2.54414 34.3307
    endloop
  endfacet
  facet normal -1 0 0
    outer loop
      vertex -26.5 0.630755 33.4094
      vertex -26.5 0.455858 33.5134
      vertex -26.5 2.36924 34.4347
    endloop
  endfacet
  facet normal -1 0 0
    outer loop
      vertex -26.5 0.455858 33.5134
      vertex -26.5 0.630755 33.4094
      vertex -26.5 0.455858 28.6992
    endloop
  endfacet
  facet normal -1 0 0
    outer loop
      vertex -26.5 2.36924 36.9905
      vertex -26.5 2.54414 37.0945
      vertex -26.5 2.36924 34.4347
    endloop
  endfacet
  facet normal -1 0 0
    outer loop
      vertex -26.5 2.36924 36.9905
      vertex -26.5 0.630755 38.0157
      vertex -26.5 2.54414 37.0945
    endloop
  endfacet
  facet normal -1 0 0
    outer loop
      vertex -26.5 0.455858 37.9118
      vertex -26.5 0.630755 38.0157
      vertex -26.5 2.36924 36.9905
    endloop
  endfacet
  facet normal -1 0 0
    outer loop
      vertex -26.5 0.455858 39.1
      vertex -26.5 0.630755 38.0157
      vertex -26.5 0.455858 37.9118
    endloop
  endfacet
  facet normal -1 0 0
    outer loop
      vertex -26.5 0.630755 38.0157
      vertex -26.5 0.455858 39.1
      vertex -26.5 0.630755 39.1
    endloop
  endfacet
  facet normal 0 -0.433816 0.901002
    outer loop
      vertex -27.1 2.54414 15.9055
      vertex -26.5 0.630755 14.9843
      vertex -26.5 2.54414 15.9055
    endloop
  endfacet
  facet normal 0 -0.433816 0.901002
    outer loop
      vertex -26.5 0.630755 14.9843
      vertex -27.1 2.54414 15.9055
      vertex -27.1 0.630755 14.9843
    endloop
  endfacet
  facet normal 0 -1 0
    outer loop
      vertex -27.1 2.54414 15.9055
      vertex -26.5 2.54414 18.6693
      vertex -27.1 2.54414 18.6693
    endloop
  endfacet
  facet normal 0 -1 -0
    outer loop
      vertex -26.5 2.54414 18.6693
      vertex -27.1 2.54414 15.9055
      vertex -26.5 2.54414 15.9055
    endloop
  endfacet
  facet normal 0 -0.433815 -0.901002
    outer loop
      vertex -27.1 0.630755 19.5906
      vertex -26.5 2.54414 18.6693
      vertex -26.5 0.630755 19.5906
    endloop
  endfacet
  facet normal -0 -0.433815 -0.901002
    outer loop
      vertex -26.5 2.54414 18.6693
      vertex -27.1 0.630755 19.5906
      vertex -27.1 2.54414 18.6693
    endloop
  endfacet
  facet normal 0 -1 0
    outer loop
      vertex -27.1 0.630755 19.5906
      vertex -26.5 0.630755 24.1968
      vertex -27.1 0.630755 24.1968
    endloop
  endfacet
  facet normal 0 -1 -0
    outer loop
      vertex -26.5 0.630755 24.1968
      vertex -27.1 0.630755 19.5906
      vertex -26.5 0.630755 19.5906
    endloop
  endfacet
  facet normal 0 -0.433816 0.901001
    outer loop
      vertex -27.1 2.54414 25.1181
      vertex -26.5 0.630755 24.1968
      vertex -26.5 2.54414 25.1181
    endloop
  endfacet
  facet normal 0 -0.433816 0.901001
    outer loop
      vertex -26.5 0.630755 24.1968
      vertex -27.1 2.54414 25.1181
      vertex -27.1 0.630755 24.1968
    endloop
  endfacet
  facet normal 0 -1 0
    outer loop
      vertex -27.1 2.54414 25.1181
      vertex -26.5 2.54414 27.8819
      vertex -27.1 2.54414 27.8819
    endloop
  endfacet
  facet normal 0 -1 -0
    outer loop
      vertex -26.5 2.54414 27.8819
      vertex -27.1 2.54414 25.1181
      vertex -26.5 2.54414 25.1181
    endloop
  endfacet
  facet normal 0 -0.433816 -0.901001
    outer loop
      vertex -27.1 0.630755 28.8032
      vertex -26.5 2.54414 27.8819
      vertex -26.5 0.630755 28.8032
    endloop
  endfacet
  facet normal -0 -0.433816 -0.901001
    outer loop
      vertex -26.5 2.54414 27.8819
      vertex -27.1 0.630755 28.8032
      vertex -27.1 2.54414 27.8819
    endloop
  endfacet
  facet normal 0 -1 0
    outer loop
      vertex -27.1 0.630755 28.8032
      vertex -26.5 0.630755 33.4094
      vertex -27.1 0.630755 33.4094
    endloop
  endfacet
  facet normal 0 -1 -0
    outer loop
      vertex -26.5 0.630755 33.4094
      vertex -27.1 0.630755 28.8032
      vertex -26.5 0.630755 28.8032
    endloop
  endfacet
  facet normal 0 -0.433816 0.901001
    outer loop
      vertex -27.1 2.54414 34.3307
      vertex -26.5 0.630755 33.4094
      vertex -26.5 2.54414 34.3307
    endloop
  endfacet
  facet normal 0 -0.433816 0.901001
    outer loop
      vertex -26.5 0.630755 33.4094
      vertex -27.1 2.54414 34.3307
      vertex -27.1 0.630755 33.4094
    endloop
  endfacet
  facet normal 0 -1 0
    outer loop
      vertex -27.1 2.54414 34.3307
      vertex -26.5 2.54414 37.0945
      vertex -27.1 2.54414 37.0945
    endloop
  endfacet
  facet normal 0 -1 -0
    outer loop
      vertex -26.5 2.54414 37.0945
      vertex -27.1 2.54414 34.3307
      vertex -26.5 2.54414 34.3307
    endloop
  endfacet
  facet normal 0 -0.433815 -0.901002
    outer loop
      vertex -27.1 0.630755 38.0157
      vertex -26.5 2.54414 37.0945
      vertex -26.5 0.630755 38.0157
    endloop
  endfacet
  facet normal -0 -0.433815 -0.901002
    outer loop
      vertex -26.5 2.54414 37.0945
      vertex -27.1 0.630755 38.0157
      vertex -27.1 2.54414 37.0945
    endloop
  endfacet
  facet normal 0 -1 0
    outer loop
      vertex -27.1 0.630755 38.0157
      vertex -26.5 0.630755 39.1
      vertex -27.1 0.630755 39.1
    endloop
  endfacet
  facet normal 0 -1 -0
    outer loop
      vertex -26.5 0.630755 39.1
      vertex -27.1 0.630755 38.0157
      vertex -26.5 0.630755 38.0157
    endloop
  endfacet
  facet normal 0 1 -0
    outer loop
      vertex -26.5 0.455858 37.9118
      vertex -27.1 0.455858 39.1
      vertex -26.5 0.455858 39.1
    endloop
  endfacet
  facet normal 0 1 0
    outer loop
      vertex -27.1 0.455858 39.1
      vertex -26.5 0.455858 37.9118
      vertex -27.1 0.455858 37.9118
    endloop
  endfacet
  facet normal -0 0.433818 0.901001
    outer loop
      vertex -27.1 2.36924 36.9905
      vertex -26.5 0.455858 37.9118
      vertex -26.5 2.36924 36.9905
    endloop
  endfacet
  facet normal 0 0.433818 0.901001
    outer loop
      vertex -26.5 0.455858 37.9118
      vertex -27.1 2.36924 36.9905
      vertex -27.1 0.455858 37.9118
    endloop
  endfacet
  facet normal 0 1 -0
    outer loop
      vertex -26.5 2.36924 34.4347
      vertex -27.1 2.36924 36.9905
      vertex -26.5 2.36924 36.9905
    endloop
  endfacet
  facet normal 0 1 0
    outer loop
      vertex -27.1 2.36924 36.9905
      vertex -26.5 2.36924 34.4347
      vertex -27.1 2.36924 34.4347
    endloop
  endfacet
  facet normal 0 0.433816 -0.901001
    outer loop
      vertex -27.1 0.455858 33.5134
      vertex -26.5 2.36924 34.4347
      vertex -26.5 0.455858 33.5134
    endloop
  endfacet
  facet normal 0 0.433816 -0.901001
    outer loop
      vertex -26.5 2.36924 34.4347
      vertex -27.1 0.455858 33.5134
      vertex -27.1 2.36924 34.4347
    endloop
  endfacet
  facet normal 0 1 -0
    outer loop
      vertex -26.5 0.455858 28.6992
      vertex -27.1 0.455858 33.5134
      vertex -26.5 0.455858 33.5134
    endloop
  endfacet
  facet normal 0 1 0
    outer loop
      vertex -27.1 0.455858 33.5134
      vertex -26.5 0.455858 28.6992
      vertex -27.1 0.455858 28.6992
    endloop
  endfacet
  facet normal -0 0.433816 0.901001
    outer loop
      vertex -27.1 2.36924 27.7779
      vertex -26.5 0.455858 28.6992
      vertex -26.5 2.36924 27.7779
    endloop
  endfacet
  facet normal 0 0.433816 0.901001
    outer loop
      vertex -26.5 0.455858 28.6992
      vertex -27.1 2.36924 27.7779
      vertex -27.1 0.455858 28.6992
    endloop
  endfacet
  facet normal 0 1 -0
    outer loop
      vertex -26.5 2.36924 25.2221
      vertex -27.1 2.36924 27.7779
      vertex -26.5 2.36924 27.7779
    endloop
  endfacet
  facet normal 0 1 0
    outer loop
      vertex -27.1 2.36924 27.7779
      vertex -26.5 2.36924 25.2221
      vertex -27.1 2.36924 25.2221
    endloop
  endfacet
  facet normal 0 0.433816 -0.901001
    outer loop
      vertex -27.1 0.455858 24.3008
      vertex -26.5 2.36924 25.2221
      vertex -26.5 0.455858 24.3008
    endloop
  endfacet
  facet normal 0 0.433816 -0.901001
    outer loop
      vertex -26.5 2.36924 25.2221
      vertex -27.1 0.455858 24.3008
      vertex -27.1 2.36924 25.2221
    endloop
  endfacet
  facet normal 0 1 -0
    outer loop
      vertex -26.5 0.455858 19.4866
      vertex -27.1 0.455858 24.3008
      vertex -26.5 0.455858 24.3008
    endloop
  endfacet
  facet normal 0 1 0
    outer loop
      vertex -27.1 0.455858 24.3008
      vertex -26.5 0.455858 19.4866
      vertex -27.1 0.455858 19.4866
    endloop
  endfacet
  facet normal -0 0.433815 0.901002
    outer loop
      vertex -27.1 2.36924 18.5653
      vertex -26.5 0.455858 19.4866
      vertex -26.5 2.36924 18.5653
    endloop
  endfacet
  facet normal 0 0.433815 0.901002
    outer loop
      vertex -26.5 0.455858 19.4866
      vertex -27.1 2.36924 18.5653
      vertex -27.1 0.455858 19.4866
    endloop
  endfacet
  facet normal 0 1 -0
    outer loop
      vertex -26.5 2.36924 16.0095
      vertex -27.1 2.36924 18.5653
      vertex -26.5 2.36924 18.5653
    endloop
  endfacet
  facet normal 0 1 0
    outer loop
      vertex -27.1 2.36924 18.5653
      vertex -26.5 2.36924 16.0095
      vertex -27.1 2.36924 16.0095
    endloop
  endfacet
  facet normal 0 0.433816 -0.901002
    outer loop
      vertex -27.1 0.455858 15.0883
      vertex -26.5 2.36924 16.0095
      vertex -26.5 0.455858 15.0883
    endloop
  endfacet
  facet normal 0 0.433816 -0.901002
    outer loop
      vertex -26.5 2.36924 16.0095
      vertex -27.1 0.455858 15.0883
      vertex -27.1 2.36924 16.0095
    endloop
  endfacet
  facet normal 0 1 -0
    outer loop
      vertex -26.5 0.455858 13.5
      vertex -27.1 0.455858 15.0883
      vertex -26.5 0.455858 15.0883
    endloop
  endfacet
  facet normal 0 1 0
    outer loop
      vertex -27.1 0.455858 15.0883
      vertex -26.5 0.455858 13.5
      vertex -27.1 0.455858 13.5
    endloop
  endfacet
  facet normal 0 -1 0
    outer loop
      vertex -27.1 0.630755 13.5
      vertex -26.5 0.630755 14.9843
      vertex -27.1 0.630755 14.9843
    endloop
  endfacet
  facet normal 0 -1 -0
    outer loop
      vertex -26.5 0.630755 14.9843
      vertex -27.1 0.630755 13.5
      vertex -26.5 0.630755 13.5
    endloop
  endfacet
endsolid OpenSCAD_Model
