solid OpenSCAD_Model
  facet normal 0 1.22465e-16 1
    outer loop
      vertex 0 15.5 4
      vertex 0.034532 14.4012 4
      vertex 0.137993 13.3067 4
    endloop
  endfacet
  facet normal 0 1.22465e-16 1
    outer loop
      vertex 0.549795 11.1479 4
      vertex 0 15.5 4
      vertex 0.309973 12.2208 4
    endloop
  endfacet
  facet normal 0 1.22465e-16 1
    outer loop
      vertex 0.309973 12.2208 4
      vertex 0 15.5 4
      vertex 0.137993 13.3067 4
    endloop
  endfacet
  facet normal 0 1.22465e-16 1
    outer loop
      vertex 0.856511 10.0922 4
      vertex 0 15.5 4
      vertex 0.549795 11.1479 4
    endloop
  endfacet
  facet normal 0 1.22465e-16 1
    outer loop
      vertex 1.22891 9.05782 4
      vertex 0 15.5 4
      vertex 0.856511 10.0922 4
    endloop
  endfacet
  facet normal 0 1.22465e-16 1
    outer loop
      vertex 1.66553 8.04886 4
      vertex 0 15.5 4
      vertex 1.22891 9.05782 4
    endloop
  endfacet
  facet normal 0 1.22465e-16 1
    outer loop
      vertex 2.16463 7.06931 4
      vertex 0 15.5 4
      vertex 1.66553 8.04886 4
    endloop
  endfacet
  facet normal 0 1.22465e-16 1
    outer loop
      vertex 2.72426 6.12303 4
      vertex 0 15.5 4
      vertex 2.16463 7.06931 4
    endloop
  endfacet
  facet normal 0 1.22465e-16 1
    outer loop
      vertex 3.3422 5.21376 4
      vertex 0 15.5 4
      vertex 2.72426 6.12303 4
    endloop
  endfacet
  facet normal 0 1.22465e-16 1
    outer loop
      vertex 4.01602 4.34508 4
      vertex 0 15.5 4
      vertex 3.3422 5.21376 4
    endloop
  endfacet
  facet normal 0 1.22465e-16 1
    outer loop
      vertex 4.74305 3.52043 4
      vertex 0 15.5 4
      vertex 4.01602 4.34508 4
    endloop
  endfacet
  facet normal 0 1.22465e-16 1
    outer loop
      vertex 5.52043 2.74305 4
      vertex 0 15.5 4
      vertex 4.74305 3.52043 4
    endloop
  endfacet
  facet normal 0 1.22465e-16 1
    outer loop
      vertex 6.34508 2.01602 4
      vertex 0 15.5 4
      vertex 5.52043 2.74305 4
    endloop
  endfacet
  facet normal 0 1.22465e-16 1
    outer loop
      vertex 7.21376 1.3422 4
      vertex 0 15.5 4
      vertex 6.34508 2.01602 4
    endloop
  endfacet
  facet normal 0 1.22465e-16 1
    outer loop
      vertex 8.12303 0.724261 4
      vertex 0 15.5 4
      vertex 7.21376 1.3422 4
    endloop
  endfacet
  facet normal 0 1.22465e-16 1
    outer loop
      vertex 9.06931 0.164633 4
      vertex 0 15.5 4
      vertex 8.12303 0.724261 4
    endloop
  endfacet
  facet normal 0 1.22465e-16 1
    outer loop
      vertex 10.0489 -0.334473 4
      vertex 0 15.5 4
      vertex 9.06931 0.164633 4
    endloop
  endfacet
  facet normal 0 1.22465e-16 1
    outer loop
      vertex 11.0578 -0.771089 4
      vertex 0 15.5 4
      vertex 10.0489 -0.334473 4
    endloop
  endfacet
  facet normal 0 1.22465e-16 1
    outer loop
      vertex 12.0922 -1.14349 4
      vertex 0 15.5 4
      vertex 11.0578 -0.771089 4
    endloop
  endfacet
  facet normal 0 1.22465e-16 1
    outer loop
      vertex 13.1479 -1.45021 4
      vertex 0 15.5 4
      vertex 12.0922 -1.14349 4
    endloop
  endfacet
  facet normal 0 1.22465e-16 1
    outer loop
      vertex 14.2208 -1.69003 4
      vertex 0 15.5 4
      vertex 13.1479 -1.45021 4
    endloop
  endfacet
  facet normal 0 1.22465e-16 1
    outer loop
      vertex 15.3067 -1.86201 4
      vertex 0 15.5 4
      vertex 14.2208 -1.69003 4
    endloop
  endfacet
  facet normal 0 1.22465e-16 1
    outer loop
      vertex 16.4012 -1.96547 4
      vertex 0 15.5 4
      vertex 15.3067 -1.86201 4
    endloop
  endfacet
  facet normal 0 1.22465e-16 1
    outer loop
      vertex 17.5 -2 4
      vertex 0 15.5 4
      vertex 16.4012 -1.96547 4
    endloop
  endfacet
  facet normal 0 1.22465e-16 1
    outer loop
      vertex 18.5988 -1.96547 4
      vertex 0 15.5 4
      vertex 17.5 -2 4
    endloop
  endfacet
  facet normal 0 1.22465e-16 1
    outer loop
      vertex 19.6933 -1.86201 4
      vertex 0 15.5 4
      vertex 18.5988 -1.96547 4
    endloop
  endfacet
  facet normal 0 1.22465e-16 1
    outer loop
      vertex 20.7792 -1.69003 4
      vertex 0 15.5 4
      vertex 19.6933 -1.86201 4
    endloop
  endfacet
  facet normal 0 1.22465e-16 1
    outer loop
      vertex 21.8521 -1.45021 4
      vertex 0 15.5 4
      vertex 20.7792 -1.69003 4
    endloop
  endfacet
  facet normal 0 1.22465e-16 1
    outer loop
      vertex 22.9078 -1.14349 4
      vertex 0 15.5 4
      vertex 21.8521 -1.45021 4
    endloop
  endfacet
  facet normal 0 1.22465e-16 1
    outer loop
      vertex 23.9422 -0.771089 4
      vertex 0 15.5 4
      vertex 22.9078 -1.14349 4
    endloop
  endfacet
  facet normal 0 1.22465e-16 1
    outer loop
      vertex 24.9511 -0.334473 4
      vertex 0 15.5 4
      vertex 23.9422 -0.771089 4
    endloop
  endfacet
  facet normal 0 1.22465e-16 1
    outer loop
      vertex 25.9307 0.164633 4
      vertex 0 15.5 4
      vertex 24.9511 -0.334473 4
    endloop
  endfacet
  facet normal 0 1.22465e-16 1
    outer loop
      vertex 26.877 0.724261 4
      vertex 0 15.5 4
      vertex 25.9307 0.164633 4
    endloop
  endfacet
  facet normal 0 1.22465e-16 1
    outer loop
      vertex 27.7862 1.3422 4
      vertex 0 15.5 4
      vertex 26.877 0.724261 4
    endloop
  endfacet
  facet normal 0 1.22465e-16 1
    outer loop
      vertex 28.6549 2.01602 4
      vertex 0 15.5 4
      vertex 27.7862 1.3422 4
    endloop
  endfacet
  facet normal 0 1.22465e-16 1
    outer loop
      vertex 29.4796 2.74305 4
      vertex 0 15.5 4
      vertex 28.6549 2.01602 4
    endloop
  endfacet
  facet normal 0 1.22465e-16 1
    outer loop
      vertex 30.257 3.52043 4
      vertex 0 15.5 4
      vertex 29.4796 2.74305 4
    endloop
  endfacet
  facet normal 0 1.22465e-16 1
    outer loop
      vertex 30.984 4.34508 4
      vertex 0 15.5 4
      vertex 30.257 3.52043 4
    endloop
  endfacet
  facet normal 0 1.22465e-16 1
    outer loop
      vertex 31.6578 5.21376 4
      vertex 0 15.5 4
      vertex 30.984 4.34508 4
    endloop
  endfacet
  facet normal 0 1.22465e-16 1
    outer loop
      vertex 32.2757 6.12303 4
      vertex 0 15.5 4
      vertex 31.6578 5.21376 4
    endloop
  endfacet
  facet normal 0 1.22465e-16 1
    outer loop
      vertex 32.8354 7.06931 4
      vertex 0 15.5 4
      vertex 32.2757 6.12303 4
    endloop
  endfacet
  facet normal 0 1.22465e-16 1
    outer loop
      vertex 33.3345 8.04886 4
      vertex 0 15.5 4
      vertex 32.8354 7.06931 4
    endloop
  endfacet
  facet normal 0 1.22465e-16 1
    outer loop
      vertex 33.7711 9.05782 4
      vertex 0 15.5 4
      vertex 33.3345 8.04886 4
    endloop
  endfacet
  facet normal 0 1.22465e-16 1
    outer loop
      vertex 34.1435 10.0922 4
      vertex 0 15.5 4
      vertex 33.7711 9.05782 4
    endloop
  endfacet
  facet normal 0 1.22465e-16 1
    outer loop
      vertex 34.4502 11.1479 4
      vertex 0 15.5 4
      vertex 34.1435 10.0922 4
    endloop
  endfacet
  facet normal 0 1.22465e-16 1
    outer loop
      vertex 34.69 12.2208 4
      vertex 0 15.5 4
      vertex 34.4502 11.1479 4
    endloop
  endfacet
  facet normal 0 1.22465e-16 1
    outer loop
      vertex 34.862 13.3067 4
      vertex 0 15.5 4
      vertex 34.69 12.2208 4
    endloop
  endfacet
  facet normal 0 1.22465e-16 1
    outer loop
      vertex 34.9655 14.4012 4
      vertex 0 15.5 4
      vertex 34.862 13.3067 4
    endloop
  endfacet
  facet normal 0 1.22465e-16 1
    outer loop
      vertex 35 15.5 4
      vertex 0 15.5 4
      vertex 34.9655 14.4012 4
    endloop
  endfacet
  facet normal 0 1.22465e-16 1
    outer loop
      vertex 34.9655 16.5988 4
      vertex 0 15.5 4
      vertex 35 15.5 4
    endloop
  endfacet
  facet normal 0 1.22465e-16 1
    outer loop
      vertex 34.862 17.6933 4
      vertex 0 15.5 4
      vertex 34.9655 16.5988 4
    endloop
  endfacet
  facet normal 0 1.22465e-16 1
    outer loop
      vertex 34.69 18.7792 4
      vertex 0 15.5 4
      vertex 34.862 17.6933 4
    endloop
  endfacet
  facet normal 0 1.22465e-16 1
    outer loop
      vertex 34.4502 19.8521 4
      vertex 0 15.5 4
      vertex 34.69 18.7792 4
    endloop
  endfacet
  facet normal 0 1.22465e-16 1
    outer loop
      vertex 34.1435 20.9078 4
      vertex 0 15.5 4
      vertex 34.4502 19.8521 4
    endloop
  endfacet
  facet normal 0 1.22465e-16 1
    outer loop
      vertex 33.7711 21.9422 4
      vertex 0 15.5 4
      vertex 34.1435 20.9078 4
    endloop
  endfacet
  facet normal 0 1.22465e-16 1
    outer loop
      vertex 33.3345 22.9511 4
      vertex 0 15.5 4
      vertex 33.7711 21.9422 4
    endloop
  endfacet
  facet normal 0 1.22465e-16 1
    outer loop
      vertex 32.8354 23.9307 4
      vertex 0 15.5 4
      vertex 33.3345 22.9511 4
    endloop
  endfacet
  facet normal 0 1.22465e-16 1
    outer loop
      vertex 32.2757 24.877 4
      vertex 0 15.5 4
      vertex 32.8354 23.9307 4
    endloop
  endfacet
  facet normal 0 1.22465e-16 1
    outer loop
      vertex 31.6578 25.7862 4
      vertex 0 15.5 4
      vertex 32.2757 24.877 4
    endloop
  endfacet
  facet normal 0 1.22465e-16 1
    outer loop
      vertex 30.984 26.6549 4
      vertex 0 15.5 4
      vertex 31.6578 25.7862 4
    endloop
  endfacet
  facet normal 0 1.22465e-16 1
    outer loop
      vertex 30.257 27.4796 4
      vertex 0 15.5 4
      vertex 30.984 26.6549 4
    endloop
  endfacet
  facet normal 0 1.22465e-16 1
    outer loop
      vertex 29.4796 28.257 4
      vertex 0 15.5 4
      vertex 30.257 27.4796 4
    endloop
  endfacet
  facet normal 0 1.22465e-16 1
    outer loop
      vertex 28.6549 28.984 4
      vertex 0 15.5 4
      vertex 29.4796 28.257 4
    endloop
  endfacet
  facet normal 0 1.22465e-16 1
    outer loop
      vertex 27.7862 29.6578 4
      vertex 0 15.5 4
      vertex 28.6549 28.984 4
    endloop
  endfacet
  facet normal 0 1.22465e-16 1
    outer loop
      vertex 26.877 30.2757 4
      vertex 0 15.5 4
      vertex 27.7862 29.6578 4
    endloop
  endfacet
  facet normal 0 1.22465e-16 1
    outer loop
      vertex 25.9307 30.8354 4
      vertex 0 15.5 4
      vertex 26.877 30.2757 4
    endloop
  endfacet
  facet normal 0 1.22465e-16 1
    outer loop
      vertex 24.9511 31.3345 4
      vertex 0 15.5 4
      vertex 25.9307 30.8354 4
    endloop
  endfacet
  facet normal 0 1.22465e-16 1
    outer loop
      vertex 23.9422 31.7711 4
      vertex 0 15.5 4
      vertex 24.9511 31.3345 4
    endloop
  endfacet
  facet normal 0 1.22465e-16 1
    outer loop
      vertex 22.9078 32.1435 4
      vertex 0 15.5 4
      vertex 23.9422 31.7711 4
    endloop
  endfacet
  facet normal 0 1.22465e-16 1
    outer loop
      vertex 21.8521 32.4502 4
      vertex 0 15.5 4
      vertex 22.9078 32.1435 4
    endloop
  endfacet
  facet normal 0 1.22465e-16 1
    outer loop
      vertex 20.7792 32.69 4
      vertex 0 15.5 4
      vertex 21.8521 32.4502 4
    endloop
  endfacet
  facet normal 0 1.22465e-16 1
    outer loop
      vertex 19.6933 32.862 4
      vertex 0 15.5 4
      vertex 20.7792 32.69 4
    endloop
  endfacet
  facet normal 0 1.22465e-16 1
    outer loop
      vertex 18.5988 32.9655 4
      vertex 0 15.5 4
      vertex 19.6933 32.862 4
    endloop
  endfacet
  facet normal 0 1.22465e-16 1
    outer loop
      vertex 17.5 33 4
      vertex 0 15.5 4
      vertex 18.5988 32.9655 4
    endloop
  endfacet
  facet normal 0 1.22465e-16 1
    outer loop
      vertex 16.4012 32.9655 4
      vertex 0 15.5 4
      vertex 17.5 33 4
    endloop
  endfacet
  facet normal 0 1.22465e-16 1
    outer loop
      vertex 15.3067 32.862 4
      vertex 0 15.5 4
      vertex 16.4012 32.9655 4
    endloop
  endfacet
  facet normal 0 1.22465e-16 1
    outer loop
      vertex 14.2208 32.69 4
      vertex 0 15.5 4
      vertex 15.3067 32.862 4
    endloop
  endfacet
  facet normal 0 1.22465e-16 1
    outer loop
      vertex 13.1479 32.4502 4
      vertex 0 15.5 4
      vertex 14.2208 32.69 4
    endloop
  endfacet
  facet normal 0 1.22465e-16 1
    outer loop
      vertex 12.0922 32.1435 4
      vertex 0 15.5 4
      vertex 13.1479 32.4502 4
    endloop
  endfacet
  facet normal 0 1.22465e-16 1
    outer loop
      vertex 11.0578 31.7711 4
      vertex 0 15.5 4
      vertex 12.0922 32.1435 4
    endloop
  endfacet
  facet normal 0 1.22465e-16 1
    outer loop
      vertex 10.0489 31.3345 4
      vertex 0 15.5 4
      vertex 11.0578 31.7711 4
    endloop
  endfacet
  facet normal 0 1.22465e-16 1
    outer loop
      vertex 9.06931 30.8354 4
      vertex 0 15.5 4
      vertex 10.0489 31.3345 4
    endloop
  endfacet
  facet normal 0 1.22465e-16 1
    outer loop
      vertex 8.12303 30.2757 4
      vertex 0 15.5 4
      vertex 9.06931 30.8354 4
    endloop
  endfacet
  facet normal 0 1.22465e-16 1
    outer loop
      vertex 7.21376 29.6578 4
      vertex 0 15.5 4
      vertex 8.12303 30.2757 4
    endloop
  endfacet
  facet normal 0 1.22465e-16 1
    outer loop
      vertex 6.34508 28.984 4
      vertex 0 15.5 4
      vertex 7.21376 29.6578 4
    endloop
  endfacet
  facet normal 0 1.22465e-16 1
    outer loop
      vertex 5.52043 28.257 4
      vertex 0 15.5 4
      vertex 6.34508 28.984 4
    endloop
  endfacet
  facet normal 0 1.22465e-16 1
    outer loop
      vertex 4.74305 27.4796 4
      vertex 0 15.5 4
      vertex 5.52043 28.257 4
    endloop
  endfacet
  facet normal 0 1.22465e-16 1
    outer loop
      vertex 4.01602 26.6549 4
      vertex 0 15.5 4
      vertex 4.74305 27.4796 4
    endloop
  endfacet
  facet normal 0 1.22465e-16 1
    outer loop
      vertex 3.3422 25.7862 4
      vertex 0 15.5 4
      vertex 4.01602 26.6549 4
    endloop
  endfacet
  facet normal 0 1.22465e-16 1
    outer loop
      vertex 2.72426 24.877 4
      vertex 0 15.5 4
      vertex 3.3422 25.7862 4
    endloop
  endfacet
  facet normal 0 1.22465e-16 1
    outer loop
      vertex 2.16463 23.9307 4
      vertex 0 15.5 4
      vertex 2.72426 24.877 4
    endloop
  endfacet
  facet normal 0 1.22465e-16 1
    outer loop
      vertex 1.66553 22.9511 4
      vertex 0 15.5 4
      vertex 2.16463 23.9307 4
    endloop
  endfacet
  facet normal 0 1.22465e-16 1
    outer loop
      vertex 1.22891 21.9422 4
      vertex 0 15.5 4
      vertex 1.66553 22.9511 4
    endloop
  endfacet
  facet normal 0 1.22465e-16 1
    outer loop
      vertex 0.856511 20.9078 4
      vertex 0 15.5 4
      vertex 1.22891 21.9422 4
    endloop
  endfacet
  facet normal 0 1.22465e-16 1
    outer loop
      vertex 0.549795 19.8521 4
      vertex 0 15.5 4
      vertex 0.856511 20.9078 4
    endloop
  endfacet
  facet normal 0 1.22465e-16 1
    outer loop
      vertex 0.309973 18.7792 4
      vertex 0 15.5 4
      vertex 0.549795 19.8521 4
    endloop
  endfacet
  facet normal 0 1.22465e-16 1
    outer loop
      vertex 0.137993 17.6933 4
      vertex 0 15.5 4
      vertex 0.309973 18.7792 4
    endloop
  endfacet
  facet normal 0 1.22465e-16 1
    outer loop
      vertex 0.034532 16.5988 4
      vertex 0 15.5 4
      vertex 0.137993 17.6933 4
    endloop
  endfacet
  facet normal 0.920733 -0.028935 -0.389119
    outer loop
      vertex 33.3095 15.5 2.14313e-15
      vertex 35 15.5 4
      vertex 34.9655 14.4012 4
    endloop
  endfacet
  facet normal 0.920733 -0.0289357 -0.389119
    outer loop
      vertex 33.2783 14.5073 2.2647e-15
      vertex 33.3095 15.5 2.14313e-15
      vertex 34.9655 14.4012 4
    endloop
  endfacet
  facet normal 0.917099 -0.0866918 -0.389119
    outer loop
      vertex 33.2783 14.5073 2.2647e-15
      vertex 34.9655 14.4012 4
      vertex 34.862 13.3067 4
    endloop
  endfacet
  facet normal -0.920733 -0.028935 -0.389119
    outer loop
      vertex 0 15.5 4
      vertex 1.72167 14.5073 2.2647e-15
      vertex 0.034532 14.4012 4
    endloop
  endfacet
  facet normal -0.920733 -0.0289357 -0.389119
    outer loop
      vertex 0 15.5 4
      vertex 1.69047 15.5 2.14313e-15
      vertex 1.72167 14.5073 2.2647e-15
    endloop
  endfacet
  facet normal -0.920733 0.028935 -0.389119
    outer loop
      vertex 0 15.5 4
      vertex 0.034532 16.5988 4
      vertex 1.69047 15.5 2.14313e-15
    endloop
  endfacet
  facet normal -0.920733 0.0289357 -0.389119
    outer loop
      vertex 0.034532 16.5988 4
      vertex 1.72167 16.4927 2.02156e-15
      vertex 1.69047 15.5 2.14313e-15
    endloop
  endfacet
  facet normal -0.917099 0.0866918 -0.389119
    outer loop
      vertex 0.034532 16.5988 4
      vertex 0.137993 17.6933 4
      vertex 1.72167 16.4927 2.02156e-15
    endloop
  endfacet
  facet normal -0.917099 0.0866911 -0.389119
    outer loop
      vertex 0.137993 17.6933 4
      vertex 1.81514 17.4815 1.90047e-15
      vertex 1.72167 16.4927 2.02156e-15
    endloop
  endfacet
  facet normal -0.909846 0.144105 -0.389119
    outer loop
      vertex 0.137993 17.6933 4
      vertex 0.309973 18.7792 4
      vertex 1.81514 17.4815 1.90047e-15
    endloop
  endfacet
  facet normal -0.909846 0.144105 -0.389119
    outer loop
      vertex 0.309973 18.7792 4
      vertex 1.9705 18.4624 1.78034e-15
      vertex 1.81514 17.4815 1.90047e-15
    endloop
  endfacet
  facet normal -0.899002 0.200951 -0.389119
    outer loop
      vertex 0.309973 18.7792 4
      vertex 0.549795 19.8521 4
      vertex 1.9705 18.4624 1.78034e-15
    endloop
  endfacet
  facet normal -0.899003 0.200951 -0.389119
    outer loop
      vertex 0.549795 19.8521 4
      vertex 2.18716 19.4317 1.66164e-15
      vertex 1.9705 18.4624 1.78034e-15
    endloop
  endfacet
  facet normal -0.884611 0.257003 -0.389119
    outer loop
      vertex 0.549795 19.8521 4
      vertex 0.856511 20.9078 4
      vertex 2.18716 19.4317 1.66164e-15
    endloop
  endfacet
  facet normal -0.884611 0.257003 -0.389118
    outer loop
      vertex 0.856511 20.9078 4
      vertex 2.46425 20.3854 1.54484e-15
      vertex 2.18716 19.4317 1.66164e-15
    endloop
  endfacet
  facet normal -0.866728 0.312041 -0.389118
    outer loop
      vertex 0.856511 20.9078 4
      vertex 1.22891 21.9422 4
      vertex 2.46425 20.3854 1.54484e-15
    endloop
  endfacet
  facet normal -0.866727 0.312042 -0.389119
    outer loop
      vertex 1.22891 21.9422 4
      vertex 2.80067 21.3199 1.4304e-15
      vertex 2.46425 20.3854 1.54484e-15
    endloop
  endfacet
  facet normal -0.845424 0.365848 -0.389119
    outer loop
      vertex 1.22891 21.9422 4
      vertex 1.66553 22.9511 4
      vertex 2.80067 21.3199 1.4304e-15
    endloop
  endfacet
  facet normal -0.845424 0.365847 -0.389119
    outer loop
      vertex 1.66553 22.9511 4
      vertex 3.19511 22.2314 1.31878e-15
      vertex 2.80067 21.3199 1.4304e-15
    endloop
  endfacet
  facet normal -0.820784 0.41821 -0.389119
    outer loop
      vertex 1.66553 22.9511 4
      vertex 2.16463 23.9307 4
      vertex 3.19511 22.2314 1.31878e-15
    endloop
  endfacet
  facet normal -0.820784 0.418211 -0.389119
    outer loop
      vertex 2.16463 23.9307 4
      vertex 3.64601 23.1163 1.2104e-15
      vertex 3.19511 22.2314 1.31878e-15
    endloop
  endfacet
  facet normal -0.792905 0.468922 -0.389119
    outer loop
      vertex 2.16463 23.9307 4
      vertex 2.72426 24.877 4
      vertex 3.64601 23.1163 1.2104e-15
    endloop
  endfacet
  facet normal -0.792905 0.468923 -0.389119
    outer loop
      vertex 2.72426 24.877 4
      vertex 4.15158 23.9712 1.10571e-15
      vertex 3.64601 23.1163 1.2104e-15
    endloop
  endfacet
  facet normal -0.761896 0.517785 -0.389119
    outer loop
      vertex 2.72426 24.877 4
      vertex 3.3422 25.7862 4
      vertex 4.15158 23.9712 1.10571e-15
    endloop
  endfacet
  facet normal -0.761897 0.517784 -0.389119
    outer loop
      vertex 3.3422 25.7862 4
      vertex 4.70982 24.7926 1.00512e-15
      vertex 4.15158 23.9712 1.10571e-15
    endloop
  endfacet
  facet normal -0.727881 0.564602 -0.389119
    outer loop
      vertex 3.3422 25.7862 4
      vertex 4.01602 26.6549 4
      vertex 4.70982 24.7926 1.00512e-15
    endloop
  endfacet
  facet normal -0.727881 0.564602 -0.389119
    outer loop
      vertex 4.01602 26.6549 4
      vertex 5.31855 25.5774 9.0901e-16
      vertex 4.70982 24.7926 1.00512e-15
    endloop
  endfacet
  facet normal -0.690993 0.609193 -0.389119
    outer loop
      vertex 4.01602 26.6549 4
      vertex 4.74305 27.4796 4
      vertex 5.31855 25.5774 9.0901e-16
    endloop
  endfacet
  facet normal -0.690993 0.609193 -0.389119
    outer loop
      vertex 4.74305 27.4796 4
      vertex 5.97535 26.3224 8.17774e-16
      vertex 5.31855 25.5774 9.0901e-16
    endloop
  endfacet
  facet normal -0.651378 0.651378 -0.389119
    outer loop
      vertex 5.52043 28.257 4
      vertex 6.67763 27.0246 7.31769e-16
      vertex 4.74305 27.4796 4
    endloop
  endfacet
  facet normal -0.651378 0.651378 -0.389119
    outer loop
      vertex 4.74305 27.4796 4
      vertex 6.67763 27.0246 7.31769e-16
      vertex 5.97535 26.3224 8.17774e-16
    endloop
  endfacet
  facet normal -0.609193 0.690993 -0.389119
    outer loop
      vertex 5.52043 28.257 4
      vertex 6.34508 28.984 4
      vertex 6.67763 27.0246 7.31769e-16
    endloop
  endfacet
  facet normal -0.609193 0.690993 -0.389119
    outer loop
      vertex 6.34508 28.984 4
      vertex 7.42263 27.6814 6.51335e-16
      vertex 6.67763 27.0246 7.31769e-16
    endloop
  endfacet
  facet normal -0.564602 0.727881 -0.389119
    outer loop
      vertex 6.34508 28.984 4
      vertex 7.21376 29.6578 4
      vertex 7.42263 27.6814 6.51335e-16
    endloop
  endfacet
  facet normal -0.564602 0.727881 -0.389119
    outer loop
      vertex 7.21376 29.6578 4
      vertex 8.20739 28.2902 5.76787e-16
      vertex 7.42263 27.6814 6.51335e-16
    endloop
  endfacet
  facet normal -0.517785 0.761896 -0.389119
    outer loop
      vertex 7.21376 29.6578 4
      vertex 8.12303 30.2757 4
      vertex 8.20739 28.2902 5.76787e-16
    endloop
  endfacet
  facet normal -0.517784 0.761897 -0.389119
    outer loop
      vertex 8.12303 30.2757 4
      vertex 9.02883 28.8484 5.08421e-16
      vertex 8.20739 28.2902 5.76787e-16
    endloop
  endfacet
  facet normal -0.468922 0.792905 -0.389119
    outer loop
      vertex 8.12303 30.2757 4
      vertex 9.06931 30.8354 4
      vertex 9.02883 28.8484 5.08421e-16
    endloop
  endfacet
  facet normal -0.468923 0.792905 -0.389119
    outer loop
      vertex 9.02883 28.8484 5.08421e-16
      vertex 9.06931 30.8354 4
      vertex 9.8837 29.354 4.46507e-16
    endloop
  endfacet
  facet normal -0.41821 0.820784 -0.389119
    outer loop
      vertex 9.06931 30.8354 4
      vertex 10.0489 31.3345 4
      vertex 9.8837 29.354 4.46507e-16
    endloop
  endfacet
  facet normal -0.418211 0.820784 -0.389119
    outer loop
      vertex 9.8837 29.354 4.46507e-16
      vertex 10.0489 31.3345 4
      vertex 10.7686 29.8049 3.91288e-16
    endloop
  endfacet
  facet normal -0.365848 0.845424 -0.389119
    outer loop
      vertex 10.0489 31.3345 4
      vertex 11.0578 31.7711 4
      vertex 10.7686 29.8049 3.91288e-16
    endloop
  endfacet
  facet normal -0.365847 0.845424 -0.389119
    outer loop
      vertex 10.7686 29.8049 3.91288e-16
      vertex 11.0578 31.7711 4
      vertex 11.6801 30.1993 3.42984e-16
    endloop
  endfacet
  facet normal -0.312041 0.866728 -0.389119
    outer loop
      vertex 11.0578 31.7711 4
      vertex 12.0922 32.1435 4
      vertex 11.6801 30.1993 3.42984e-16
    endloop
  endfacet
  facet normal -0.312042 0.866728 -0.389118
    outer loop
      vertex 11.6801 30.1993 3.42984e-16
      vertex 12.0922 32.1435 4
      vertex 12.6146 30.5358 3.01783e-16
    endloop
  endfacet
  facet normal -0.257003 0.884611 -0.389118
    outer loop
      vertex 12.0922 32.1435 4
      vertex 13.1479 32.4502 4
      vertex 12.6146 30.5358 3.01783e-16
    endloop
  endfacet
  facet normal -0.257003 0.884611 -0.389119
    outer loop
      vertex 12.6146 30.5358 3.01783e-16
      vertex 13.1479 32.4502 4
      vertex 13.5683 30.8128 2.6785e-16
    endloop
  endfacet
  facet normal -0.200951 0.899002 -0.389119
    outer loop
      vertex 13.1479 32.4502 4
      vertex 14.2208 32.69 4
      vertex 13.5683 30.8128 2.6785e-16
    endloop
  endfacet
  facet normal -0.200951 0.899002 -0.389119
    outer loop
      vertex 13.5683 30.8128 2.6785e-16
      vertex 14.2208 32.69 4
      vertex 14.5376 31.0295 2.41317e-16
    endloop
  endfacet
  facet normal -0.144105 0.909846 -0.389119
    outer loop
      vertex 14.2208 32.69 4
      vertex 15.3067 32.862 4
      vertex 14.5376 31.0295 2.41317e-16
    endloop
  endfacet
  facet normal -0.144105 0.909846 -0.389119
    outer loop
      vertex 14.5376 31.0295 2.41317e-16
      vertex 15.3067 32.862 4
      vertex 15.5185 31.1849 2.2229e-16
    endloop
  endfacet
  facet normal -0.0866918 0.917099 -0.389119
    outer loop
      vertex 15.3067 32.862 4
      vertex 16.4012 32.9655 4
      vertex 15.5185 31.1849 2.2229e-16
    endloop
  endfacet
  facet normal -0.0866911 0.917099 -0.389119
    outer loop
      vertex 15.5185 31.1849 2.2229e-16
      vertex 16.4012 32.9655 4
      vertex 16.5073 31.2783 2.10844e-16
    endloop
  endfacet
  facet normal -0.028935 0.920733 -0.389119
    outer loop
      vertex 16.4012 32.9655 4
      vertex 17.5 33 4
      vertex 16.5073 31.2783 2.10844e-16
    endloop
  endfacet
  facet normal -0.0289357 0.920733 -0.389119
    outer loop
      vertex 16.5073 31.2783 2.10844e-16
      vertex 17.5 33 4
      vertex 17.5 31.3095 2.07023e-16
    endloop
  endfacet
  facet normal 0.028935 0.920733 -0.389119
    outer loop
      vertex 17.5 33 4
      vertex 18.5988 32.9655 4
      vertex 17.5 31.3095 2.07023e-16
    endloop
  endfacet
  facet normal 0.0289357 0.920733 -0.389119
    outer loop
      vertex 17.5 31.3095 2.07023e-16
      vertex 18.5988 32.9655 4
      vertex 18.4927 31.2783 2.10844e-16
    endloop
  endfacet
  facet normal 0.0866918 0.917099 -0.389119
    outer loop
      vertex 18.4927 31.2783 2.10844e-16
      vertex 18.5988 32.9655 4
      vertex 19.6933 32.862 4
    endloop
  endfacet
  facet normal 0.0866911 0.917099 -0.389119
    outer loop
      vertex 18.4927 31.2783 2.10844e-16
      vertex 19.6933 32.862 4
      vertex 19.4815 31.1849 2.2229e-16
    endloop
  endfacet
  facet normal 0.144105 0.909846 -0.389119
    outer loop
      vertex 19.4815 31.1849 2.2229e-16
      vertex 19.6933 32.862 4
      vertex 20.7792 32.69 4
    endloop
  endfacet
  facet normal 0.144105 0.909846 -0.389119
    outer loop
      vertex 19.4815 31.1849 2.2229e-16
      vertex 20.7792 32.69 4
      vertex 20.4624 31.0295 2.41317e-16
    endloop
  endfacet
  facet normal 0.200951 0.899002 -0.389119
    outer loop
      vertex 20.4624 31.0295 2.41317e-16
      vertex 20.7792 32.69 4
      vertex 21.8521 32.4502 4
    endloop
  endfacet
  facet normal 0.200951 0.899003 -0.389119
    outer loop
      vertex 20.4624 31.0295 2.41317e-16
      vertex 21.8521 32.4502 4
      vertex 21.4317 30.8128 2.6785e-16
    endloop
  endfacet
  facet normal 0.257003 0.884611 -0.389119
    outer loop
      vertex 21.4317 30.8128 2.6785e-16
      vertex 21.8521 32.4502 4
      vertex 22.9078 32.1435 4
    endloop
  endfacet
  facet normal 0.257003 0.884611 -0.389118
    outer loop
      vertex 21.4317 30.8128 2.6785e-16
      vertex 22.9078 32.1435 4
      vertex 22.3854 30.5358 3.01783e-16
    endloop
  endfacet
  facet normal 0.312041 0.866728 -0.389118
    outer loop
      vertex 22.3854 30.5358 3.01783e-16
      vertex 22.9078 32.1435 4
      vertex 23.9422 31.7711 4
    endloop
  endfacet
  facet normal 0.312042 0.866727 -0.389119
    outer loop
      vertex 22.3854 30.5358 3.01783e-16
      vertex 23.9422 31.7711 4
      vertex 23.3199 30.1993 3.42984e-16
    endloop
  endfacet
  facet normal 0.365848 0.845424 -0.389119
    outer loop
      vertex 23.3199 30.1993 3.42984e-16
      vertex 23.9422 31.7711 4
      vertex 24.9511 31.3345 4
    endloop
  endfacet
  facet normal 0.365847 0.845424 -0.389119
    outer loop
      vertex 23.3199 30.1993 3.42984e-16
      vertex 24.9511 31.3345 4
      vertex 24.2314 29.8049 3.91288e-16
    endloop
  endfacet
  facet normal 0.41821 0.820784 -0.389119
    outer loop
      vertex 24.2314 29.8049 3.91288e-16
      vertex 24.9511 31.3345 4
      vertex 25.9307 30.8354 4
    endloop
  endfacet
  facet normal 0.418211 0.820784 -0.389119
    outer loop
      vertex 24.2314 29.8049 3.91288e-16
      vertex 25.9307 30.8354 4
      vertex 25.1163 29.354 4.46507e-16
    endloop
  endfacet
  facet normal 0.468922 0.792905 -0.389119
    outer loop
      vertex 25.1163 29.354 4.46507e-16
      vertex 25.9307 30.8354 4
      vertex 26.877 30.2757 4
    endloop
  endfacet
  facet normal 0.468923 0.792905 -0.389119
    outer loop
      vertex 25.1163 29.354 4.46507e-16
      vertex 26.877 30.2757 4
      vertex 25.9712 28.8484 5.08421e-16
    endloop
  endfacet
  facet normal 0.517785 0.761896 -0.389119
    outer loop
      vertex 25.9712 28.8484 5.08421e-16
      vertex 26.877 30.2757 4
      vertex 27.7862 29.6578 4
    endloop
  endfacet
  facet normal 0.517784 0.761897 -0.389119
    outer loop
      vertex 25.9712 28.8484 5.08421e-16
      vertex 27.7862 29.6578 4
      vertex 26.7926 28.2902 5.76787e-16
    endloop
  endfacet
  facet normal 0.564602 0.727881 -0.389119
    outer loop
      vertex 26.7926 28.2902 5.76787e-16
      vertex 27.7862 29.6578 4
      vertex 28.6549 28.984 4
    endloop
  endfacet
  facet normal 0.564602 0.727881 -0.389119
    outer loop
      vertex 26.7926 28.2902 5.76787e-16
      vertex 28.6549 28.984 4
      vertex 27.5774 27.6814 6.51335e-16
    endloop
  endfacet
  facet normal 0.609193 0.690993 -0.389119
    outer loop
      vertex 27.5774 27.6814 6.51335e-16
      vertex 28.6549 28.984 4
      vertex 29.4796 28.257 4
    endloop
  endfacet
  facet normal 0.609193 0.690993 -0.389119
    outer loop
      vertex 27.5774 27.6814 6.51335e-16
      vertex 29.4796 28.257 4
      vertex 28.3224 27.0246 7.31769e-16
    endloop
  endfacet
  facet normal 0.651378 0.651378 -0.389119
    outer loop
      vertex 28.3224 27.0246 7.31769e-16
      vertex 29.4796 28.257 4
      vertex 30.257 27.4796 4
    endloop
  endfacet
  facet normal 0.651378 0.651378 -0.389119
    outer loop
      vertex 29.0246 26.3224 8.17774e-16
      vertex 28.3224 27.0246 7.31769e-16
      vertex 30.257 27.4796 4
    endloop
  endfacet
  facet normal 0.690993 0.609193 -0.389119
    outer loop
      vertex 29.0246 26.3224 8.17774e-16
      vertex 30.257 27.4796 4
      vertex 30.984 26.6549 4
    endloop
  endfacet
  facet normal 0.690993 0.609193 -0.389119
    outer loop
      vertex 29.0246 26.3224 8.17774e-16
      vertex 30.984 26.6549 4
      vertex 29.6814 25.5774 9.0901e-16
    endloop
  endfacet
  facet normal 0.727881 0.564602 -0.389119
    outer loop
      vertex 29.6814 25.5774 9.0901e-16
      vertex 30.984 26.6549 4
      vertex 31.6578 25.7862 4
    endloop
  endfacet
  facet normal 0.727881 0.564602 -0.389119
    outer loop
      vertex 29.6814 25.5774 9.0901e-16
      vertex 31.6578 25.7862 4
      vertex 30.2902 24.7926 1.00512e-15
    endloop
  endfacet
  facet normal 0.761896 0.517785 -0.389119
    outer loop
      vertex 30.2902 24.7926 1.00512e-15
      vertex 31.6578 25.7862 4
      vertex 32.2757 24.877 4
    endloop
  endfacet
  facet normal 0.761897 0.517784 -0.389119
    outer loop
      vertex 30.2902 24.7926 1.00512e-15
      vertex 32.2757 24.877 4
      vertex 30.8484 23.9712 1.10571e-15
    endloop
  endfacet
  facet normal 0.792905 0.468922 -0.389119
    outer loop
      vertex 30.8484 23.9712 1.10571e-15
      vertex 32.2757 24.877 4
      vertex 32.8354 23.9307 4
    endloop
  endfacet
  facet normal 0.792905 0.468923 -0.389119
    outer loop
      vertex 30.8484 23.9712 1.10571e-15
      vertex 32.8354 23.9307 4
      vertex 31.354 23.1163 1.2104e-15
    endloop
  endfacet
  facet normal 0.820784 0.41821 -0.389119
    outer loop
      vertex 31.354 23.1163 1.2104e-15
      vertex 32.8354 23.9307 4
      vertex 33.3345 22.9511 4
    endloop
  endfacet
  facet normal 0.820784 0.418211 -0.389119
    outer loop
      vertex 31.354 23.1163 1.2104e-15
      vertex 33.3345 22.9511 4
      vertex 31.8049 22.2314 1.31878e-15
    endloop
  endfacet
  facet normal 0.845424 0.365848 -0.389119
    outer loop
      vertex 31.8049 22.2314 1.31878e-15
      vertex 33.3345 22.9511 4
      vertex 33.7711 21.9422 4
    endloop
  endfacet
  facet normal 0.845424 0.365847 -0.389119
    outer loop
      vertex 31.8049 22.2314 1.31878e-15
      vertex 33.7711 21.9422 4
      vertex 32.1993 21.3199 1.4304e-15
    endloop
  endfacet
  facet normal 0.866728 0.312041 -0.389119
    outer loop
      vertex 32.1993 21.3199 1.4304e-15
      vertex 33.7711 21.9422 4
      vertex 34.1435 20.9078 4
    endloop
  endfacet
  facet normal 0.866728 0.312042 -0.389118
    outer loop
      vertex 32.1993 21.3199 1.4304e-15
      vertex 34.1435 20.9078 4
      vertex 32.5358 20.3854 1.54484e-15
    endloop
  endfacet
  facet normal 0.884611 0.257003 -0.389118
    outer loop
      vertex 32.5358 20.3854 1.54484e-15
      vertex 34.1435 20.9078 4
      vertex 34.4502 19.8521 4
    endloop
  endfacet
  facet normal 0.884611 0.257003 -0.389119
    outer loop
      vertex 32.5358 20.3854 1.54484e-15
      vertex 34.4502 19.8521 4
      vertex 32.8128 19.4317 1.66164e-15
    endloop
  endfacet
  facet normal 0.899002 0.200951 -0.389119
    outer loop
      vertex 32.8128 19.4317 1.66164e-15
      vertex 34.4502 19.8521 4
      vertex 34.69 18.7792 4
    endloop
  endfacet
  facet normal 0.899002 0.200951 -0.389119
    outer loop
      vertex 32.8128 19.4317 1.66164e-15
      vertex 34.69 18.7792 4
      vertex 33.0295 18.4624 1.78034e-15
    endloop
  endfacet
  facet normal 0.909846 0.144105 -0.389119
    outer loop
      vertex 33.0295 18.4624 1.78034e-15
      vertex 34.69 18.7792 4
      vertex 34.862 17.6933 4
    endloop
  endfacet
  facet normal 0.909846 0.144105 -0.389119
    outer loop
      vertex 33.0295 18.4624 1.78034e-15
      vertex 34.862 17.6933 4
      vertex 33.1849 17.4815 1.90047e-15
    endloop
  endfacet
  facet normal 0.917099 0.0866918 -0.389119
    outer loop
      vertex 33.1849 17.4815 1.90047e-15
      vertex 34.862 17.6933 4
      vertex 34.9655 16.5988 4
    endloop
  endfacet
  facet normal 0.917099 0.0866911 -0.389119
    outer loop
      vertex 33.1849 17.4815 1.90047e-15
      vertex 34.9655 16.5988 4
      vertex 33.2783 16.4927 2.02156e-15
    endloop
  endfacet
  facet normal 0.920733 0.028935 -0.389119
    outer loop
      vertex 33.2783 16.4927 2.02156e-15
      vertex 34.9655 16.5988 4
      vertex 35 15.5 4
    endloop
  endfacet
  facet normal 0.920733 0.0289357 -0.389119
    outer loop
      vertex 33.2783 16.4927 2.02156e-15
      vertex 35 15.5 4
      vertex 33.3095 15.5 2.14313e-15
    endloop
  endfacet
  facet normal 0.917099 -0.0866911 -0.389119
    outer loop
      vertex 33.1849 13.5185 2.38579e-15
      vertex 33.2783 14.5073 2.2647e-15
      vertex 34.862 13.3067 4
    endloop
  endfacet
  facet normal 0.909846 -0.144105 -0.389119
    outer loop
      vertex 33.1849 13.5185 2.38579e-15
      vertex 34.862 13.3067 4
      vertex 34.69 12.2208 4
    endloop
  endfacet
  facet normal 0.909846 -0.144105 -0.389119
    outer loop
      vertex 33.0295 12.5376 2.50592e-15
      vertex 33.1849 13.5185 2.38579e-15
      vertex 34.69 12.2208 4
    endloop
  endfacet
  facet normal 0.899002 -0.200951 -0.389119
    outer loop
      vertex 33.0295 12.5376 2.50592e-15
      vertex 34.69 12.2208 4
      vertex 34.4502 11.1479 4
    endloop
  endfacet
  facet normal 0.899003 -0.200951 -0.389119
    outer loop
      vertex 32.8128 11.5683 2.62462e-15
      vertex 33.0295 12.5376 2.50592e-15
      vertex 34.4502 11.1479 4
    endloop
  endfacet
  facet normal 0.884611 -0.257003 -0.389119
    outer loop
      vertex 32.8128 11.5683 2.62462e-15
      vertex 34.4502 11.1479 4
      vertex 34.1435 10.0922 4
    endloop
  endfacet
  facet normal 0.884611 -0.257003 -0.389118
    outer loop
      vertex 32.5358 10.6146 2.74142e-15
      vertex 32.8128 11.5683 2.62462e-15
      vertex 34.1435 10.0922 4
    endloop
  endfacet
  facet normal 0.866728 -0.312041 -0.389118
    outer loop
      vertex 32.5358 10.6146 2.74142e-15
      vertex 34.1435 10.0922 4
      vertex 33.7711 9.05782 4
    endloop
  endfacet
  facet normal 0.866727 -0.312042 -0.389119
    outer loop
      vertex 32.1993 9.68012 2.85586e-15
      vertex 32.5358 10.6146 2.74142e-15
      vertex 33.7711 9.05782 4
    endloop
  endfacet
  facet normal 0.845424 -0.365848 -0.389119
    outer loop
      vertex 32.1993 9.68012 2.85586e-15
      vertex 33.7711 9.05782 4
      vertex 33.3345 8.04886 4
    endloop
  endfacet
  facet normal 0.845424 -0.365847 -0.389119
    outer loop
      vertex 31.8049 8.76863 2.96749e-15
      vertex 32.1993 9.68012 2.85586e-15
      vertex 33.3345 8.04886 4
    endloop
  endfacet
  facet normal 0.820784 -0.41821 -0.389119
    outer loop
      vertex 31.8049 8.76863 2.96749e-15
      vertex 33.3345 8.04886 4
      vertex 32.8354 7.06931 4
    endloop
  endfacet
  facet normal 0.820784 -0.418211 -0.389119
    outer loop
      vertex 31.354 7.8837 3.07586e-15
      vertex 31.8049 8.76863 2.96749e-15
      vertex 32.8354 7.06931 4
    endloop
  endfacet
  facet normal 0.792905 -0.468922 -0.389119
    outer loop
      vertex 31.354 7.8837 3.07586e-15
      vertex 32.8354 7.06931 4
      vertex 32.2757 6.12303 4
    endloop
  endfacet
  facet normal 0.792905 -0.468923 -0.389119
    outer loop
      vertex 30.8484 7.02883 3.18055e-15
      vertex 31.354 7.8837 3.07586e-15
      vertex 32.2757 6.12303 4
    endloop
  endfacet
  facet normal 0.761896 -0.517785 -0.389119
    outer loop
      vertex 30.8484 7.02883 3.18055e-15
      vertex 32.2757 6.12303 4
      vertex 31.6578 5.21376 4
    endloop
  endfacet
  facet normal 0.761897 -0.517784 -0.389119
    outer loop
      vertex 30.2902 6.20739 3.28115e-15
      vertex 30.8484 7.02883 3.18055e-15
      vertex 31.6578 5.21376 4
    endloop
  endfacet
  facet normal 0.727881 -0.564602 -0.389119
    outer loop
      vertex 30.2902 6.20739 3.28115e-15
      vertex 31.6578 5.21376 4
      vertex 30.984 4.34508 4
    endloop
  endfacet
  facet normal 0.727881 -0.564602 -0.389119
    outer loop
      vertex 29.6814 5.42263 3.37725e-15
      vertex 30.2902 6.20739 3.28115e-15
      vertex 30.984 4.34508 4
    endloop
  endfacet
  facet normal 0.690993 -0.609193 -0.389119
    outer loop
      vertex 29.6814 5.42263 3.37725e-15
      vertex 30.984 4.34508 4
      vertex 30.257 3.52043 4
    endloop
  endfacet
  facet normal 0.690993 -0.609193 -0.389119
    outer loop
      vertex 29.0246 4.67763 3.46849e-15
      vertex 29.6814 5.42263 3.37725e-15
      vertex 30.257 3.52043 4
    endloop
  endfacet
  facet normal 0.651378 -0.651378 -0.389119
    outer loop
      vertex 28.3224 3.97535 3.55449e-15
      vertex 29.0246 4.67763 3.46849e-15
      vertex 30.257 3.52043 4
    endloop
  endfacet
  facet normal 0.651378 -0.651378 -0.389119
    outer loop
      vertex 29.4796 2.74305 4
      vertex 28.3224 3.97535 3.55449e-15
      vertex 30.257 3.52043 4
    endloop
  endfacet
  facet normal 0.609193 -0.690993 -0.389119
    outer loop
      vertex 28.3224 3.97535 3.55449e-15
      vertex 29.4796 2.74305 4
      vertex 28.6549 2.01602 4
    endloop
  endfacet
  facet normal 0.609193 -0.690993 -0.389119
    outer loop
      vertex 27.5774 3.31855 3.63493e-15
      vertex 28.3224 3.97535 3.55449e-15
      vertex 28.6549 2.01602 4
    endloop
  endfacet
  facet normal 0.564602 -0.727881 -0.389119
    outer loop
      vertex 27.5774 3.31855 3.63493e-15
      vertex 28.6549 2.01602 4
      vertex 27.7862 1.3422 4
    endloop
  endfacet
  facet normal 0.564602 -0.727881 -0.389119
    outer loop
      vertex 26.7926 2.70982 3.70948e-15
      vertex 27.5774 3.31855 3.63493e-15
      vertex 27.7862 1.3422 4
    endloop
  endfacet
  facet normal 0.517785 -0.761896 -0.389119
    outer loop
      vertex 26.7926 2.70982 3.70948e-15
      vertex 27.7862 1.3422 4
      vertex 26.877 0.724261 4
    endloop
  endfacet
  facet normal 0.517784 -0.761897 -0.389119
    outer loop
      vertex 25.9712 2.15158 3.77784e-15
      vertex 26.7926 2.70982 3.70948e-15
      vertex 26.877 0.724261 4
    endloop
  endfacet
  facet normal 0.468922 -0.792905 -0.389119
    outer loop
      vertex 25.9307 0.164633 4
      vertex 25.9712 2.15158 3.77784e-15
      vertex 26.877 0.724261 4
    endloop
  endfacet
  facet normal 0.468923 -0.792905 -0.389119
    outer loop
      vertex 25.1163 1.64601 3.83976e-15
      vertex 25.9712 2.15158 3.77784e-15
      vertex 25.9307 0.164633 4
    endloop
  endfacet
  facet normal 0.41821 -0.820784 -0.389119
    outer loop
      vertex 24.9511 -0.334473 4
      vertex 25.1163 1.64601 3.83976e-15
      vertex 25.9307 0.164633 4
    endloop
  endfacet
  facet normal 0.418211 -0.820784 -0.389119
    outer loop
      vertex 24.2314 1.19511 3.89498e-15
      vertex 25.1163 1.64601 3.83976e-15
      vertex 24.9511 -0.334473 4
    endloop
  endfacet
  facet normal 0.365848 -0.845424 -0.389119
    outer loop
      vertex 23.9422 -0.771089 4
      vertex 24.2314 1.19511 3.89498e-15
      vertex 24.9511 -0.334473 4
    endloop
  endfacet
  facet normal 0.365847 -0.845424 -0.389119
    outer loop
      vertex 23.3199 0.800674 3.94328e-15
      vertex 24.2314 1.19511 3.89498e-15
      vertex 23.9422 -0.771089 4
    endloop
  endfacet
  facet normal 0.312041 -0.866728 -0.389119
    outer loop
      vertex 22.9078 -1.14349 4
      vertex 23.3199 0.800674 3.94328e-15
      vertex 23.9422 -0.771089 4
    endloop
  endfacet
  facet normal 0.312042 -0.866728 -0.389118
    outer loop
      vertex 22.3854 0.464246 3.98448e-15
      vertex 23.3199 0.800674 3.94328e-15
      vertex 22.9078 -1.14349 4
    endloop
  endfacet
  facet normal 0.257003 -0.884611 -0.389118
    outer loop
      vertex 21.8521 -1.45021 4
      vertex 22.3854 0.464246 3.98448e-15
      vertex 22.9078 -1.14349 4
    endloop
  endfacet
  facet normal 0.257003 -0.884611 -0.389119
    outer loop
      vertex 21.4317 0.187158 4.01841e-15
      vertex 22.3854 0.464246 3.98448e-15
      vertex 21.8521 -1.45021 4
    endloop
  endfacet
  facet normal 0.200951 -0.899002 -0.389119
    outer loop
      vertex 20.7792 -1.69003 4
      vertex 21.4317 0.187158 4.01841e-15
      vertex 21.8521 -1.45021 4
    endloop
  endfacet
  facet normal 0.200951 -0.899002 -0.389119
    outer loop
      vertex 20.4624 -0.029497 4.04495e-15
      vertex 21.4317 0.187158 4.01841e-15
      vertex 20.7792 -1.69003 4
    endloop
  endfacet
  facet normal 0.144105 -0.909846 -0.389119
    outer loop
      vertex 19.6933 -1.86201 4
      vertex 20.4624 -0.029497 4.04495e-15
      vertex 20.7792 -1.69003 4
    endloop
  endfacet
  facet normal 0.144105 -0.909846 -0.389119
    outer loop
      vertex 19.4815 -0.184864 4.06397e-15
      vertex 20.4624 -0.029497 4.04495e-15
      vertex 19.6933 -1.86201 4
    endloop
  endfacet
  facet normal 0.0866918 -0.917099 -0.389119
    outer loop
      vertex 18.5988 -1.96547 4
      vertex 19.4815 -0.184864 4.06397e-15
      vertex 19.6933 -1.86201 4
    endloop
  endfacet
  facet normal 0.0866911 -0.917099 -0.389119
    outer loop
      vertex 18.4927 -0.27833 4.07542e-15
      vertex 19.4815 -0.184864 4.06397e-15
      vertex 18.5988 -1.96547 4
    endloop
  endfacet
  facet normal 0.028935 -0.920733 -0.389119
    outer loop
      vertex 17.5 -2 4
      vertex 18.4927 -0.27833 4.07542e-15
      vertex 18.5988 -1.96547 4
    endloop
  endfacet
  facet normal 0.0289357 -0.920733 -0.389119
    outer loop
      vertex 17.5 -0.309527 4.07924e-15
      vertex 18.4927 -0.27833 4.07542e-15
      vertex 17.5 -2 4
    endloop
  endfacet
  facet normal -0.028935 -0.920733 -0.389119
    outer loop
      vertex 16.4012 -1.96547 4
      vertex 17.5 -0.309527 4.07924e-15
      vertex 17.5 -2 4
    endloop
  endfacet
  facet normal -0.0289357 -0.920733 -0.389119
    outer loop
      vertex 16.4012 -1.96547 4
      vertex 16.5073 -0.27833 4.07542e-15
      vertex 17.5 -0.309527 4.07924e-15
    endloop
  endfacet
  facet normal -0.0866918 -0.917099 -0.389119
    outer loop
      vertex 15.3067 -1.86201 4
      vertex 16.5073 -0.27833 4.07542e-15
      vertex 16.4012 -1.96547 4
    endloop
  endfacet
  facet normal -0.0866911 -0.917099 -0.389119
    outer loop
      vertex 15.3067 -1.86201 4
      vertex 15.5185 -0.184864 4.06397e-15
      vertex 16.5073 -0.27833 4.07542e-15
    endloop
  endfacet
  facet normal -0.144105 -0.909846 -0.389119
    outer loop
      vertex 14.2208 -1.69003 4
      vertex 15.5185 -0.184864 4.06397e-15
      vertex 15.3067 -1.86201 4
    endloop
  endfacet
  facet normal -0.144105 -0.909846 -0.389119
    outer loop
      vertex 14.2208 -1.69003 4
      vertex 14.5376 -0.029497 4.04495e-15
      vertex 15.5185 -0.184864 4.06397e-15
    endloop
  endfacet
  facet normal -0.200951 -0.899002 -0.389119
    outer loop
      vertex 13.1479 -1.45021 4
      vertex 14.5376 -0.029497 4.04495e-15
      vertex 14.2208 -1.69003 4
    endloop
  endfacet
  facet normal -0.200951 -0.899003 -0.389119
    outer loop
      vertex 13.1479 -1.45021 4
      vertex 13.5683 0.187158 4.01841e-15
      vertex 14.5376 -0.029497 4.04495e-15
    endloop
  endfacet
  facet normal -0.257003 -0.884611 -0.389119
    outer loop
      vertex 12.0922 -1.14349 4
      vertex 13.5683 0.187158 4.01841e-15
      vertex 13.1479 -1.45021 4
    endloop
  endfacet
  facet normal -0.257003 -0.884611 -0.389118
    outer loop
      vertex 12.0922 -1.14349 4
      vertex 12.6146 0.464246 3.98448e-15
      vertex 13.5683 0.187158 4.01841e-15
    endloop
  endfacet
  facet normal -0.312041 -0.866728 -0.389118
    outer loop
      vertex 11.0578 -0.771089 4
      vertex 12.6146 0.464246 3.98448e-15
      vertex 12.0922 -1.14349 4
    endloop
  endfacet
  facet normal -0.312042 -0.866727 -0.389119
    outer loop
      vertex 11.0578 -0.771089 4
      vertex 11.6801 0.800674 3.94328e-15
      vertex 12.6146 0.464246 3.98448e-15
    endloop
  endfacet
  facet normal -0.365848 -0.845424 -0.389119
    outer loop
      vertex 10.0489 -0.334473 4
      vertex 11.6801 0.800674 3.94328e-15
      vertex 11.0578 -0.771089 4
    endloop
  endfacet
  facet normal -0.365847 -0.845424 -0.389119
    outer loop
      vertex 10.0489 -0.334473 4
      vertex 10.7686 1.19511 3.89498e-15
      vertex 11.6801 0.800674 3.94328e-15
    endloop
  endfacet
  facet normal -0.41821 -0.820784 -0.389119
    outer loop
      vertex 9.06931 0.164633 4
      vertex 10.7686 1.19511 3.89498e-15
      vertex 10.0489 -0.334473 4
    endloop
  endfacet
  facet normal -0.418211 -0.820784 -0.389119
    outer loop
      vertex 9.06931 0.164633 4
      vertex 9.8837 1.64601 3.83976e-15
      vertex 10.7686 1.19511 3.89498e-15
    endloop
  endfacet
  facet normal -0.468922 -0.792905 -0.389119
    outer loop
      vertex 8.12303 0.724261 4
      vertex 9.8837 1.64601 3.83976e-15
      vertex 9.06931 0.164633 4
    endloop
  endfacet
  facet normal -0.468923 -0.792905 -0.389119
    outer loop
      vertex 8.12303 0.724261 4
      vertex 9.02883 2.15158 3.77784e-15
      vertex 9.8837 1.64601 3.83976e-15
    endloop
  endfacet
  facet normal -0.517785 -0.761896 -0.389119
    outer loop
      vertex 7.21376 1.3422 4
      vertex 9.02883 2.15158 3.77784e-15
      vertex 8.12303 0.724261 4
    endloop
  endfacet
  facet normal -0.517784 -0.761897 -0.389119
    outer loop
      vertex 7.21376 1.3422 4
      vertex 8.20739 2.70982 3.70948e-15
      vertex 9.02883 2.15158 3.77784e-15
    endloop
  endfacet
  facet normal -0.564602 -0.727881 -0.389119
    outer loop
      vertex 6.34508 2.01602 4
      vertex 8.20739 2.70982 3.70948e-15
      vertex 7.21376 1.3422 4
    endloop
  endfacet
  facet normal -0.564602 -0.727881 -0.389119
    outer loop
      vertex 6.34508 2.01602 4
      vertex 7.42263 3.31855 3.63493e-15
      vertex 8.20739 2.70982 3.70948e-15
    endloop
  endfacet
  facet normal -0.609193 -0.690993 -0.389119
    outer loop
      vertex 5.52043 2.74305 4
      vertex 7.42263 3.31855 3.63493e-15
      vertex 6.34508 2.01602 4
    endloop
  endfacet
  facet normal -0.609193 -0.690993 -0.389119
    outer loop
      vertex 5.52043 2.74305 4
      vertex 6.67763 3.97535 3.55449e-15
      vertex 7.42263 3.31855 3.63493e-15
    endloop
  endfacet
  facet normal -0.651378 -0.651378 -0.389119
    outer loop
      vertex 4.74305 3.52043 4
      vertex 5.97535 4.67763 3.46849e-15
      vertex 6.67763 3.97535 3.55449e-15
    endloop
  endfacet
  facet normal -0.651378 -0.651378 -0.389119
    outer loop
      vertex 5.52043 2.74305 4
      vertex 4.74305 3.52043 4
      vertex 6.67763 3.97535 3.55449e-15
    endloop
  endfacet
  facet normal -0.690993 -0.609193 -0.389119
    outer loop
      vertex 4.01602 4.34508 4
      vertex 5.97535 4.67763 3.46849e-15
      vertex 4.74305 3.52043 4
    endloop
  endfacet
  facet normal -0.690993 -0.609193 -0.389119
    outer loop
      vertex 4.01602 4.34508 4
      vertex 5.31855 5.42263 3.37725e-15
      vertex 5.97535 4.67763 3.46849e-15
    endloop
  endfacet
  facet normal -0.727881 -0.564602 -0.389119
    outer loop
      vertex 3.3422 5.21376 4
      vertex 5.31855 5.42263 3.37725e-15
      vertex 4.01602 4.34508 4
    endloop
  endfacet
  facet normal -0.727881 -0.564602 -0.389119
    outer loop
      vertex 3.3422 5.21376 4
      vertex 4.70982 6.20739 3.28115e-15
      vertex 5.31855 5.42263 3.37725e-15
    endloop
  endfacet
  facet normal -0.761896 -0.517785 -0.389119
    outer loop
      vertex 2.72426 6.12303 4
      vertex 4.70982 6.20739 3.28115e-15
      vertex 3.3422 5.21376 4
    endloop
  endfacet
  facet normal -0.761897 -0.517784 -0.389119
    outer loop
      vertex 2.72426 6.12303 4
      vertex 4.15158 7.02883 3.18055e-15
      vertex 4.70982 6.20739 3.28115e-15
    endloop
  endfacet
  facet normal -0.792905 -0.468922 -0.389119
    outer loop
      vertex 2.16463 7.06931 4
      vertex 4.15158 7.02883 3.18055e-15
      vertex 2.72426 6.12303 4
    endloop
  endfacet
  facet normal -0.792905 -0.468923 -0.389119
    outer loop
      vertex 2.16463 7.06931 4
      vertex 3.64601 7.8837 3.07586e-15
      vertex 4.15158 7.02883 3.18055e-15
    endloop
  endfacet
  facet normal -0.820784 -0.41821 -0.389119
    outer loop
      vertex 1.66553 8.04886 4
      vertex 3.64601 7.8837 3.07586e-15
      vertex 2.16463 7.06931 4
    endloop
  endfacet
  facet normal -0.820784 -0.418211 -0.389119
    outer loop
      vertex 1.66553 8.04886 4
      vertex 3.19511 8.76863 2.96749e-15
      vertex 3.64601 7.8837 3.07586e-15
    endloop
  endfacet
  facet normal -0.845424 -0.365848 -0.389119
    outer loop
      vertex 1.22891 9.05782 4
      vertex 3.19511 8.76863 2.96749e-15
      vertex 1.66553 8.04886 4
    endloop
  endfacet
  facet normal -0.845424 -0.365847 -0.389119
    outer loop
      vertex 1.22891 9.05782 4
      vertex 2.80067 9.68012 2.85586e-15
      vertex 3.19511 8.76863 2.96749e-15
    endloop
  endfacet
  facet normal -0.866728 -0.312041 -0.389119
    outer loop
      vertex 0.856511 10.0922 4
      vertex 2.80067 9.68012 2.85586e-15
      vertex 1.22891 9.05782 4
    endloop
  endfacet
  facet normal -0.866728 -0.312042 -0.389118
    outer loop
      vertex 0.856511 10.0922 4
      vertex 2.46425 10.6146 2.74142e-15
      vertex 2.80067 9.68012 2.85586e-15
    endloop
  endfacet
  facet normal -0.884611 -0.257003 -0.389118
    outer loop
      vertex 0.549795 11.1479 4
      vertex 2.46425 10.6146 2.74142e-15
      vertex 0.856511 10.0922 4
    endloop
  endfacet
  facet normal -0.884611 -0.257003 -0.389119
    outer loop
      vertex 0.549795 11.1479 4
      vertex 2.18716 11.5683 2.62462e-15
      vertex 2.46425 10.6146 2.74142e-15
    endloop
  endfacet
  facet normal -0.899002 -0.200951 -0.389119
    outer loop
      vertex 0.309973 12.2208 4
      vertex 2.18716 11.5683 2.62462e-15
      vertex 0.549795 11.1479 4
    endloop
  endfacet
  facet normal -0.899002 -0.200951 -0.389119
    outer loop
      vertex 0.309973 12.2208 4
      vertex 1.9705 12.5376 2.50592e-15
      vertex 2.18716 11.5683 2.62462e-15
    endloop
  endfacet
  facet normal -0.909846 -0.144105 -0.389119
    outer loop
      vertex 0.137993 13.3067 4
      vertex 1.9705 12.5376 2.50592e-15
      vertex 0.309973 12.2208 4
    endloop
  endfacet
  facet normal -0.909846 -0.144105 -0.389119
    outer loop
      vertex 0.137993 13.3067 4
      vertex 1.81514 13.5185 2.38579e-15
      vertex 1.9705 12.5376 2.50592e-15
    endloop
  endfacet
  facet normal -0.917099 -0.0866918 -0.389119
    outer loop
      vertex 0.034532 14.4012 4
      vertex 1.81514 13.5185 2.38579e-15
      vertex 0.137993 13.3067 4
    endloop
  endfacet
  facet normal -0.917099 -0.0866911 -0.389119
    outer loop
      vertex 0.034532 14.4012 4
      vertex 1.72167 14.5073 2.2647e-15
      vertex 1.81514 13.5185 2.38579e-15
    endloop
  endfacet
  facet normal 0 -1.22465e-16 -1
    outer loop
      vertex 1.72167 16.4927 2.02156e-15
      vertex 1.81514 17.4815 1.90047e-15
      vertex 1.69047 15.5 2.14313e-15
    endloop
  endfacet
  facet normal 0 -1.22465e-16 -1
    outer loop
      vertex 1.69047 15.5 2.14313e-15
      vertex 1.81514 17.4815 1.90047e-15
      vertex 1.9705 18.4624 1.78034e-15
    endloop
  endfacet
  facet normal 0 -1.22465e-16 -1
    outer loop
      vertex 1.69047 15.5 2.14313e-15
      vertex 1.9705 18.4624 1.78034e-15
      vertex 2.18716 19.4317 1.66164e-15
    endloop
  endfacet
  facet normal 0 -1.22465e-16 -1
    outer loop
      vertex 1.69047 15.5 2.14313e-15
      vertex 2.18716 19.4317 1.66164e-15
      vertex 2.46425 20.3854 1.54484e-15
    endloop
  endfacet
  facet normal 0 -1.22465e-16 -1
    outer loop
      vertex 1.69047 15.5 2.14313e-15
      vertex 2.46425 20.3854 1.54484e-15
      vertex 2.80067 21.3199 1.4304e-15
    endloop
  endfacet
  facet normal 0 -1.22465e-16 -1
    outer loop
      vertex 1.69047 15.5 2.14313e-15
      vertex 2.80067 21.3199 1.4304e-15
      vertex 3.19511 22.2314 1.31878e-15
    endloop
  endfacet
  facet normal 0 -1.22465e-16 -1
    outer loop
      vertex 1.69047 15.5 2.14313e-15
      vertex 3.19511 22.2314 1.31878e-15
      vertex 3.64601 23.1163 1.2104e-15
    endloop
  endfacet
  facet normal 0 -1.22465e-16 -1
    outer loop
      vertex 1.69047 15.5 2.14313e-15
      vertex 3.64601 23.1163 1.2104e-15
      vertex 4.15158 23.9712 1.10571e-15
    endloop
  endfacet
  facet normal 0 -1.22465e-16 -1
    outer loop
      vertex 1.69047 15.5 2.14313e-15
      vertex 4.15158 23.9712 1.10571e-15
      vertex 4.70982 24.7926 1.00512e-15
    endloop
  endfacet
  facet normal 0 -1.22465e-16 -1
    outer loop
      vertex 1.69047 15.5 2.14313e-15
      vertex 4.70982 24.7926 1.00512e-15
      vertex 5.31855 25.5774 9.0901e-16
    endloop
  endfacet
  facet normal 0 -1.22465e-16 -1
    outer loop
      vertex 1.69047 15.5 2.14313e-15
      vertex 5.31855 25.5774 9.0901e-16
      vertex 5.97535 26.3224 8.17774e-16
    endloop
  endfacet
  facet normal 0 -1.22465e-16 -1
    outer loop
      vertex 1.69047 15.5 2.14313e-15
      vertex 5.97535 26.3224 8.17774e-16
      vertex 6.67763 27.0246 7.31769e-16
    endloop
  endfacet
  facet normal 0 -1.22465e-16 -1
    outer loop
      vertex 1.69047 15.5 2.14313e-15
      vertex 6.67763 27.0246 7.31769e-16
      vertex 7.42263 27.6814 6.51335e-16
    endloop
  endfacet
  facet normal 0 -1.22465e-16 -1
    outer loop
      vertex 1.69047 15.5 2.14313e-15
      vertex 7.42263 27.6814 6.51335e-16
      vertex 8.20739 28.2902 5.76787e-16
    endloop
  endfacet
  facet normal 0 -1.22465e-16 -1
    outer loop
      vertex 1.69047 15.5 2.14313e-15
      vertex 8.20739 28.2902 5.76787e-16
      vertex 9.02883 28.8484 5.08421e-16
    endloop
  endfacet
  facet normal 0 -1.22465e-16 -1
    outer loop
      vertex 1.69047 15.5 2.14313e-15
      vertex 9.02883 28.8484 5.08421e-16
      vertex 9.8837 29.354 4.46507e-16
    endloop
  endfacet
  facet normal 0 -1.22465e-16 -1
    outer loop
      vertex 1.69047 15.5 2.14313e-15
      vertex 9.8837 29.354 4.46507e-16
      vertex 10.7686 29.8049 3.91288e-16
    endloop
  endfacet
  facet normal 0 -1.22465e-16 -1
    outer loop
      vertex 1.69047 15.5 2.14313e-15
      vertex 10.7686 29.8049 3.91288e-16
      vertex 11.6801 30.1993 3.42984e-16
    endloop
  endfacet
  facet normal 0 -1.22465e-16 -1
    outer loop
      vertex 1.69047 15.5 2.14313e-15
      vertex 11.6801 30.1993 3.42984e-16
      vertex 12.6146 30.5358 3.01783e-16
    endloop
  endfacet
  facet normal 0 -1.22465e-16 -1
    outer loop
      vertex 1.69047 15.5 2.14313e-15
      vertex 12.6146 30.5358 3.01783e-16
      vertex 13.5683 30.8128 2.6785e-16
    endloop
  endfacet
  facet normal 0 -1.22465e-16 -1
    outer loop
      vertex 1.69047 15.5 2.14313e-15
      vertex 13.5683 30.8128 2.6785e-16
      vertex 14.5376 31.0295 2.41317e-16
    endloop
  endfacet
  facet normal 0 -1.22465e-16 -1
    outer loop
      vertex 1.69047 15.5 2.14313e-15
      vertex 14.5376 31.0295 2.41317e-16
      vertex 15.5185 31.1849 2.2229e-16
    endloop
  endfacet
  facet normal 0 -1.22465e-16 -1
    outer loop
      vertex 1.69047 15.5 2.14313e-15
      vertex 15.5185 31.1849 2.2229e-16
      vertex 16.5073 31.2783 2.10844e-16
    endloop
  endfacet
  facet normal 0 -1.22465e-16 -1
    outer loop
      vertex 1.69047 15.5 2.14313e-15
      vertex 16.5073 31.2783 2.10844e-16
      vertex 17.5 31.3095 2.07023e-16
    endloop
  endfacet
  facet normal 0 -1.22465e-16 -1
    outer loop
      vertex 1.69047 15.5 2.14313e-15
      vertex 17.5 31.3095 2.07023e-16
      vertex 18.4927 31.2783 2.10844e-16
    endloop
  endfacet
  facet normal 0 -1.22465e-16 -1
    outer loop
      vertex 1.69047 15.5 2.14313e-15
      vertex 18.4927 31.2783 2.10844e-16
      vertex 19.4815 31.1849 2.2229e-16
    endloop
  endfacet
  facet normal 0 -1.22465e-16 -1
    outer loop
      vertex 1.69047 15.5 2.14313e-15
      vertex 19.4815 31.1849 2.2229e-16
      vertex 20.4624 31.0295 2.41317e-16
    endloop
  endfacet
  facet normal 0 -1.22465e-16 -1
    outer loop
      vertex 1.69047 15.5 2.14313e-15
      vertex 20.4624 31.0295 2.41317e-16
      vertex 21.4317 30.8128 2.6785e-16
    endloop
  endfacet
  facet normal 0 -1.22465e-16 -1
    outer loop
      vertex 1.69047 15.5 2.14313e-15
      vertex 21.4317 30.8128 2.6785e-16
      vertex 22.3854 30.5358 3.01783e-16
    endloop
  endfacet
  facet normal 0 -1.22465e-16 -1
    outer loop
      vertex 1.69047 15.5 2.14313e-15
      vertex 22.3854 30.5358 3.01783e-16
      vertex 23.3199 30.1993 3.42984e-16
    endloop
  endfacet
  facet normal 0 -1.22465e-16 -1
    outer loop
      vertex 1.69047 15.5 2.14313e-15
      vertex 23.3199 30.1993 3.42984e-16
      vertex 24.2314 29.8049 3.91288e-16
    endloop
  endfacet
  facet normal 0 -1.22465e-16 -1
    outer loop
      vertex 1.69047 15.5 2.14313e-15
      vertex 24.2314 29.8049 3.91288e-16
      vertex 25.1163 29.354 4.46507e-16
    endloop
  endfacet
  facet normal 0 -1.22465e-16 -1
    outer loop
      vertex 1.69047 15.5 2.14313e-15
      vertex 25.1163 29.354 4.46507e-16
      vertex 25.9712 28.8484 5.08421e-16
    endloop
  endfacet
  facet normal 0 -1.22465e-16 -1
    outer loop
      vertex 1.69047 15.5 2.14313e-15
      vertex 25.9712 28.8484 5.08421e-16
      vertex 26.7926 28.2902 5.76787e-16
    endloop
  endfacet
  facet normal 0 -1.22465e-16 -1
    outer loop
      vertex 1.69047 15.5 2.14313e-15
      vertex 26.7926 28.2902 5.76787e-16
      vertex 27.5774 27.6814 6.51335e-16
    endloop
  endfacet
  facet normal 0 -1.22465e-16 -1
    outer loop
      vertex 1.69047 15.5 2.14313e-15
      vertex 27.5774 27.6814 6.51335e-16
      vertex 28.3224 27.0246 7.31769e-16
    endloop
  endfacet
  facet normal 0 -1.22465e-16 -1
    outer loop
      vertex 1.69047 15.5 2.14313e-15
      vertex 28.3224 27.0246 7.31769e-16
      vertex 29.0246 26.3224 8.17774e-16
    endloop
  endfacet
  facet normal 0 -1.22465e-16 -1
    outer loop
      vertex 1.69047 15.5 2.14313e-15
      vertex 29.0246 26.3224 8.17774e-16
      vertex 29.6814 25.5774 9.0901e-16
    endloop
  endfacet
  facet normal 0 -1.22465e-16 -1
    outer loop
      vertex 1.69047 15.5 2.14313e-15
      vertex 29.6814 25.5774 9.0901e-16
      vertex 30.2902 24.7926 1.00512e-15
    endloop
  endfacet
  facet normal 0 -1.22465e-16 -1
    outer loop
      vertex 1.69047 15.5 2.14313e-15
      vertex 30.2902 24.7926 1.00512e-15
      vertex 30.8484 23.9712 1.10571e-15
    endloop
  endfacet
  facet normal 0 -1.22465e-16 -1
    outer loop
      vertex 1.69047 15.5 2.14313e-15
      vertex 30.8484 23.9712 1.10571e-15
      vertex 31.354 23.1163 1.2104e-15
    endloop
  endfacet
  facet normal 0 -1.22465e-16 -1
    outer loop
      vertex 1.69047 15.5 2.14313e-15
      vertex 31.354 23.1163 1.2104e-15
      vertex 31.8049 22.2314 1.31878e-15
    endloop
  endfacet
  facet normal 0 -1.22465e-16 -1
    outer loop
      vertex 1.69047 15.5 2.14313e-15
      vertex 31.8049 22.2314 1.31878e-15
      vertex 32.1993 21.3199 1.4304e-15
    endloop
  endfacet
  facet normal 0 -1.22465e-16 -1
    outer loop
      vertex 1.69047 15.5 2.14313e-15
      vertex 32.1993 21.3199 1.4304e-15
      vertex 32.5358 20.3854 1.54484e-15
    endloop
  endfacet
  facet normal 0 -1.22465e-16 -1
    outer loop
      vertex 1.69047 15.5 2.14313e-15
      vertex 32.5358 20.3854 1.54484e-15
      vertex 32.8128 19.4317 1.66164e-15
    endloop
  endfacet
  facet normal 0 -1.22465e-16 -1
    outer loop
      vertex 1.69047 15.5 2.14313e-15
      vertex 32.8128 19.4317 1.66164e-15
      vertex 33.0295 18.4624 1.78034e-15
    endloop
  endfacet
  facet normal 0 -1.22465e-16 -1
    outer loop
      vertex 1.69047 15.5 2.14313e-15
      vertex 33.0295 18.4624 1.78034e-15
      vertex 33.1849 17.4815 1.90047e-15
    endloop
  endfacet
  facet normal 0 -1.22465e-16 -1
    outer loop
      vertex 1.69047 15.5 2.14313e-15
      vertex 33.1849 17.4815 1.90047e-15
      vertex 33.2783 16.4927 2.02156e-15
    endloop
  endfacet
  facet normal 0 -1.22465e-16 -1
    outer loop
      vertex 1.69047 15.5 2.14313e-15
      vertex 33.2783 16.4927 2.02156e-15
      vertex 33.3095 15.5 2.14313e-15
    endloop
  endfacet
  facet normal 0 -1.22465e-16 -1
    outer loop
      vertex 1.69047 15.5 2.14313e-15
      vertex 33.3095 15.5 2.14313e-15
      vertex 33.2783 14.5073 2.2647e-15
    endloop
  endfacet
  facet normal 0 -1.22465e-16 -1
    outer loop
      vertex 1.69047 15.5 2.14313e-15
      vertex 33.2783 14.5073 2.2647e-15
      vertex 33.1849 13.5185 2.38579e-15
    endloop
  endfacet
  facet normal 0 -1.22465e-16 -1
    outer loop
      vertex 1.69047 15.5 2.14313e-15
      vertex 33.1849 13.5185 2.38579e-15
      vertex 33.0295 12.5376 2.50592e-15
    endloop
  endfacet
  facet normal 0 -1.22465e-16 -1
    outer loop
      vertex 1.69047 15.5 2.14313e-15
      vertex 33.0295 12.5376 2.50592e-15
      vertex 32.8128 11.5683 2.62462e-15
    endloop
  endfacet
  facet normal 0 -1.22465e-16 -1
    outer loop
      vertex 1.69047 15.5 2.14313e-15
      vertex 32.8128 11.5683 2.62462e-15
      vertex 32.5358 10.6146 2.74142e-15
    endloop
  endfacet
  facet normal 0 -1.22465e-16 -1
    outer loop
      vertex 1.69047 15.5 2.14313e-15
      vertex 32.5358 10.6146 2.74142e-15
      vertex 32.1993 9.68012 2.85586e-15
    endloop
  endfacet
  facet normal 0 -1.22465e-16 -1
    outer loop
      vertex 1.69047 15.5 2.14313e-15
      vertex 32.1993 9.68012 2.85586e-15
      vertex 31.8049 8.76863 2.96749e-15
    endloop
  endfacet
  facet normal 0 -1.22465e-16 -1
    outer loop
      vertex 1.69047 15.5 2.14313e-15
      vertex 31.8049 8.76863 2.96749e-15
      vertex 31.354 7.8837 3.07586e-15
    endloop
  endfacet
  facet normal 0 -1.22465e-16 -1
    outer loop
      vertex 1.69047 15.5 2.14313e-15
      vertex 31.354 7.8837 3.07586e-15
      vertex 30.8484 7.02883 3.18055e-15
    endloop
  endfacet
  facet normal 0 -1.22465e-16 -1
    outer loop
      vertex 1.69047 15.5 2.14313e-15
      vertex 30.8484 7.02883 3.18055e-15
      vertex 30.2902 6.20739 3.28115e-15
    endloop
  endfacet
  facet normal 0 -1.22465e-16 -1
    outer loop
      vertex 1.69047 15.5 2.14313e-15
      vertex 30.2902 6.20739 3.28115e-15
      vertex 29.6814 5.42263 3.37725e-15
    endloop
  endfacet
  facet normal 0 -1.22465e-16 -1
    outer loop
      vertex 1.69047 15.5 2.14313e-15
      vertex 29.6814 5.42263 3.37725e-15
      vertex 29.0246 4.67763 3.46849e-15
    endloop
  endfacet
  facet normal 0 -1.22465e-16 -1
    outer loop
      vertex 1.69047 15.5 2.14313e-15
      vertex 29.0246 4.67763 3.46849e-15
      vertex 28.3224 3.97535 3.55449e-15
    endloop
  endfacet
  facet normal 0 -1.22465e-16 -1
    outer loop
      vertex 1.69047 15.5 2.14313e-15
      vertex 28.3224 3.97535 3.55449e-15
      vertex 27.5774 3.31855 3.63493e-15
    endloop
  endfacet
  facet normal 0 -1.22465e-16 -1
    outer loop
      vertex 1.69047 15.5 2.14313e-15
      vertex 27.5774 3.31855 3.63493e-15
      vertex 26.7926 2.70982 3.70948e-15
    endloop
  endfacet
  facet normal 0 -1.22465e-16 -1
    outer loop
      vertex 1.69047 15.5 2.14313e-15
      vertex 26.7926 2.70982 3.70948e-15
      vertex 25.9712 2.15158 3.77784e-15
    endloop
  endfacet
  facet normal 0 -1.22465e-16 -1
    outer loop
      vertex 1.69047 15.5 2.14313e-15
      vertex 25.9712 2.15158 3.77784e-15
      vertex 25.1163 1.64601 3.83976e-15
    endloop
  endfacet
  facet normal 0 -1.22465e-16 -1
    outer loop
      vertex 1.69047 15.5 2.14313e-15
      vertex 25.1163 1.64601 3.83976e-15
      vertex 24.2314 1.19511 3.89498e-15
    endloop
  endfacet
  facet normal 0 -1.22465e-16 -1
    outer loop
      vertex 1.69047 15.5 2.14313e-15
      vertex 24.2314 1.19511 3.89498e-15
      vertex 23.3199 0.800674 3.94328e-15
    endloop
  endfacet
  facet normal 0 -1.22465e-16 -1
    outer loop
      vertex 1.69047 15.5 2.14313e-15
      vertex 23.3199 0.800674 3.94328e-15
      vertex 22.3854 0.464246 3.98448e-15
    endloop
  endfacet
  facet normal 0 -1.22465e-16 -1
    outer loop
      vertex 1.69047 15.5 2.14313e-15
      vertex 22.3854 0.464246 3.98448e-15
      vertex 21.4317 0.187158 4.01841e-15
    endloop
  endfacet
  facet normal 0 -1.22465e-16 -1
    outer loop
      vertex 1.69047 15.5 2.14313e-15
      vertex 21.4317 0.187158 4.01841e-15
      vertex 20.4624 -0.029497 4.04495e-15
    endloop
  endfacet
  facet normal 0 -1.22465e-16 -1
    outer loop
      vertex 1.69047 15.5 2.14313e-15
      vertex 20.4624 -0.029497 4.04495e-15
      vertex 19.4815 -0.184864 4.06397e-15
    endloop
  endfacet
  facet normal 0 -1.22465e-16 -1
    outer loop
      vertex 1.69047 15.5 2.14313e-15
      vertex 19.4815 -0.184864 4.06397e-15
      vertex 18.4927 -0.27833 4.07542e-15
    endloop
  endfacet
  facet normal 0 -1.22465e-16 -1
    outer loop
      vertex 1.69047 15.5 2.14313e-15
      vertex 18.4927 -0.27833 4.07542e-15
      vertex 17.5 -0.309527 4.07924e-15
    endloop
  endfacet
  facet normal 0 -1.22465e-16 -1
    outer loop
      vertex 1.69047 15.5 2.14313e-15
      vertex 17.5 -0.309527 4.07924e-15
      vertex 16.5073 -0.27833 4.07542e-15
    endloop
  endfacet
  facet normal 0 -1.22465e-16 -1
    outer loop
      vertex 1.69047 15.5 2.14313e-15
      vertex 16.5073 -0.27833 4.07542e-15
      vertex 15.5185 -0.184864 4.06397e-15
    endloop
  endfacet
  facet normal 0 -1.22465e-16 -1
    outer loop
      vertex 1.69047 15.5 2.14313e-15
      vertex 15.5185 -0.184864 4.06397e-15
      vertex 14.5376 -0.029497 4.04495e-15
    endloop
  endfacet
  facet normal 0 -1.22465e-16 -1
    outer loop
      vertex 1.69047 15.5 2.14313e-15
      vertex 14.5376 -0.029497 4.04495e-15
      vertex 13.5683 0.187158 4.01841e-15
    endloop
  endfacet
  facet normal 0 -1.22465e-16 -1
    outer loop
      vertex 1.69047 15.5 2.14313e-15
      vertex 13.5683 0.187158 4.01841e-15
      vertex 12.6146 0.464246 3.98448e-15
    endloop
  endfacet
  facet normal 0 -1.22465e-16 -1
    outer loop
      vertex 1.69047 15.5 2.14313e-15
      vertex 12.6146 0.464246 3.98448e-15
      vertex 11.6801 0.800674 3.94328e-15
    endloop
  endfacet
  facet normal 0 -1.22465e-16 -1
    outer loop
      vertex 1.69047 15.5 2.14313e-15
      vertex 11.6801 0.800674 3.94328e-15
      vertex 10.7686 1.19511 3.89498e-15
    endloop
  endfacet
  facet normal 0 -1.22465e-16 -1
    outer loop
      vertex 1.69047 15.5 2.14313e-15
      vertex 10.7686 1.19511 3.89498e-15
      vertex 9.8837 1.64601 3.83976e-15
    endloop
  endfacet
  facet normal 0 -1.22465e-16 -1
    outer loop
      vertex 1.69047 15.5 2.14313e-15
      vertex 9.8837 1.64601 3.83976e-15
      vertex 9.02883 2.15158 3.77784e-15
    endloop
  endfacet
  facet normal 0 -1.22465e-16 -1
    outer loop
      vertex 1.69047 15.5 2.14313e-15
      vertex 9.02883 2.15158 3.77784e-15
      vertex 8.20739 2.70982 3.70948e-15
    endloop
  endfacet
  facet normal 0 -1.22465e-16 -1
    outer loop
      vertex 1.69047 15.5 2.14313e-15
      vertex 8.20739 2.70982 3.70948e-15
      vertex 7.42263 3.31855 3.63493e-15
    endloop
  endfacet
  facet normal 0 -1.22465e-16 -1
    outer loop
      vertex 1.69047 15.5 2.14313e-15
      vertex 7.42263 3.31855 3.63493e-15
      vertex 6.67763 3.97535 3.55449e-15
    endloop
  endfacet
  facet normal 0 -1.22465e-16 -1
    outer loop
      vertex 1.69047 15.5 2.14313e-15
      vertex 6.67763 3.97535 3.55449e-15
      vertex 5.97535 4.67763 3.46849e-15
    endloop
  endfacet
  facet normal 0 -1.22465e-16 -1
    outer loop
      vertex 1.69047 15.5 2.14313e-15
      vertex 5.97535 4.67763 3.46849e-15
      vertex 5.31855 5.42263 3.37725e-15
    endloop
  endfacet
  facet normal 0 -1.22465e-16 -1
    outer loop
      vertex 1.69047 15.5 2.14313e-15
      vertex 5.31855 5.42263 3.37725e-15
      vertex 4.70982 6.20739 3.28115e-15
    endloop
  endfacet
  facet normal 0 -1.22465e-16 -1
    outer loop
      vertex 1.69047 15.5 2.14313e-15
      vertex 4.70982 6.20739 3.28115e-15
      vertex 4.15158 7.02883 3.18055e-15
    endloop
  endfacet
  facet normal 0 -1.22465e-16 -1
    outer loop
      vertex 1.69047 15.5 2.14313e-15
      vertex 4.15158 7.02883 3.18055e-15
      vertex 3.64601 7.8837 3.07586e-15
    endloop
  endfacet
  facet normal 0 -1.22465e-16 -1
    outer loop
      vertex 1.69047 15.5 2.14313e-15
      vertex 3.64601 7.8837 3.07586e-15
      vertex 3.19511 8.76863 2.96749e-15
    endloop
  endfacet
  facet normal 0 -1.22465e-16 -1
    outer loop
      vertex 1.69047 15.5 2.14313e-15
      vertex 3.19511 8.76863 2.96749e-15
      vertex 2.80067 9.68012 2.85586e-15
    endloop
  endfacet
  facet normal 0 -1.22465e-16 -1
    outer loop
      vertex 1.69047 15.5 2.14313e-15
      vertex 2.80067 9.68012 2.85586e-15
      vertex 2.46425 10.6146 2.74142e-15
    endloop
  endfacet
  facet normal 0 -1.22465e-16 -1
    outer loop
      vertex 1.69047 15.5 2.14313e-15
      vertex 2.46425 10.6146 2.74142e-15
      vertex 2.18716 11.5683 2.62462e-15
    endloop
  endfacet
  facet normal 0 -1.22465e-16 -1
    outer loop
      vertex 1.69047 15.5 2.14313e-15
      vertex 2.18716 11.5683 2.62462e-15
      vertex 1.9705 12.5376 2.50592e-15
    endloop
  endfacet
  facet normal 0 -1.22465e-16 -1
    outer loop
      vertex 1.69047 15.5 2.14313e-15
      vertex 1.9705 12.5376 2.50592e-15
      vertex 1.81514 13.5185 2.38579e-15
    endloop
  endfacet
  facet normal 0 -1.22465e-16 -1
    outer loop
      vertex 1.69047 15.5 2.14313e-15
      vertex 1.81514 13.5185 2.38579e-15
      vertex 1.72167 14.5073 2.2647e-15
    endloop
  endfacet
endsolid OpenSCAD_Model
