solid OpenSCAD_Model
  facet normal -0.994522 -0.104528 0
    outer loop
      vertex 8 18 0
      vertex 8.21852 15.9209 0
      vertex 8 18 2
    endloop
  endfacet
  facet normal -0.994522 -0.104528 0
    outer loop
      vertex 8 18 2
      vertex 8.21852 15.9209 0
      vertex 8.21852 15.9209 2
    endloop
  endfacet
  facet normal 0 0 -1
    outer loop
      vertex 8 18 0
      vertex 8 82 0
      vertex 8.21852 15.9209 0
    endloop
  endfacet
  facet normal 0 0 -1
    outer loop
      vertex 8.21852 15.9209 0
      vertex 8 82 0
      vertex 8.21852 84.0791 0
    endloop
  endfacet
  facet normal 0 0 -1
    outer loop
      vertex 8.21852 15.9209 0
      vertex 8.21852 84.0791 0
      vertex 8.86454 86.0674 0
    endloop
  endfacet
  facet normal 0 0 -1
    outer loop
      vertex 8.21852 15.9209 0
      vertex 8.86454 86.0674 0
      vertex 9.90983 87.8779 0
    endloop
  endfacet
  facet normal 0 0 -1
    outer loop
      vertex 8.21852 15.9209 0
      vertex 9.90983 87.8779 0
      vertex 11.3087 89.4314 0
    endloop
  endfacet
  facet normal 0 0 -1
    outer loop
      vertex 8.21852 15.9209 0
      vertex 11.3087 89.4314 0
      vertex 13 90.6603 0
    endloop
  endfacet
  facet normal 0 0 -1
    outer loop
      vertex 8.21852 15.9209 0
      vertex 13 90.6603 0
      vertex 14.9098 91.5106 0
    endloop
  endfacet
  facet normal 0 0 -1
    outer loop
      vertex 8.21852 15.9209 0
      vertex 14.9098 91.5106 0
      vertex 16.9547 91.9452 0
    endloop
  endfacet
  facet normal 0 0 -1
    outer loop
      vertex 26.9547 81.9452 0
      vertex 16.9547 91.9452 0
      vertex 135.445 91.9452 0
    endloop
  endfacet
  facet normal 0 0 -1
    outer loop
      vertex 125.445 81.9452 0
      vertex 139.4 90.6603 0
      vertex 141.091 89.4314 0
    endloop
  endfacet
  facet normal 0 0 -1
    outer loop
      vertex 127.49 81.5106 0
      vertex 141.091 89.4314 0
      vertex 142.49 87.8779 0
    endloop
  endfacet
  facet normal 0 0 -1
    outer loop
      vertex 129.4 80.6603 0
      vertex 142.49 87.8779 0
      vertex 143.535 86.0674 0
    endloop
  endfacet
  facet normal 0 0 -1
    outer loop
      vertex 131.091 79.4314 0
      vertex 143.535 86.0674 0
      vertex 144.181 84.0791 0
    endloop
  endfacet
  facet normal 0 0 -1
    outer loop
      vertex 132.49 77.8779 0
      vertex 144.181 84.0791 0
      vertex 144.4 82 0
    endloop
  endfacet
  facet normal 0 0 -1
    outer loop
      vertex 134.181 25.9209 0
      vertex 144.4 82 0
      vertex 144.4 18 0
    endloop
  endfacet
  facet normal 0 0 -1
    outer loop
      vertex 8.21852 15.9209 0
      vertex 144.4 18 0
      vertex 144.181 15.9209 0
    endloop
  endfacet
  facet normal 0 0 -1
    outer loop
      vertex 8.21852 15.9209 0
      vertex 144.181 15.9209 0
      vertex 143.535 13.9326 0
    endloop
  endfacet
  facet normal 0 0 -1
    outer loop
      vertex 8.21852 15.9209 0
      vertex 143.535 13.9326 0
      vertex 142.49 12.1221 0
    endloop
  endfacet
  facet normal 0 0 -1
    outer loop
      vertex 8.21852 15.9209 0
      vertex 142.49 12.1221 0
      vertex 141.091 10.5686 0
    endloop
  endfacet
  facet normal 0 0 -1
    outer loop
      vertex 8.21852 15.9209 0
      vertex 141.091 10.5686 0
      vertex 139.4 9.33975 0
    endloop
  endfacet
  facet normal 0 0 -1
    outer loop
      vertex 8.21852 15.9209 0
      vertex 139.4 9.33975 0
      vertex 137.49 8.48944 0
    endloop
  endfacet
  facet normal 0 0 -1
    outer loop
      vertex 8.21852 15.9209 0
      vertex 137.49 8.48944 0
      vertex 135.445 8.05478 0
    endloop
  endfacet
  facet normal 0 0 -1
    outer loop
      vertex 8.21852 15.9209 0
      vertex 135.445 8.05478 0
      vertex 16.9547 8.05478 0
    endloop
  endfacet
  facet normal 0 0 -1
    outer loop
      vertex 8.21852 15.9209 0
      vertex 16.9547 8.05478 0
      vertex 14.9098 8.48944 0
    endloop
  endfacet
  facet normal 0 0 -1
    outer loop
      vertex 8.21852 15.9209 0
      vertex 14.9098 8.48944 0
      vertex 13 9.33975 0
    endloop
  endfacet
  facet normal 0 0 -1
    outer loop
      vertex 8.21852 15.9209 0
      vertex 13 9.33975 0
      vertex 11.3087 10.5686 0
    endloop
  endfacet
  facet normal 0 0 -1
    outer loop
      vertex 8.21852 15.9209 0
      vertex 11.3087 10.5686 0
      vertex 9.90983 12.1221 0
    endloop
  endfacet
  facet normal 0 0 -1
    outer loop
      vertex 8.21852 15.9209 0
      vertex 9.90983 12.1221 0
      vertex 8.86454 13.9326 0
    endloop
  endfacet
  facet normal 0 0 -1
    outer loop
      vertex 8.21852 15.9209 0
      vertex 16.9547 91.9452 0
      vertex 18 72 0
    endloop
  endfacet
  facet normal 0 0 -1
    outer loop
      vertex 8.21852 15.9209 0
      vertex 18 72 0
      vertex 18 28 0
    endloop
  endfacet
  facet normal 0 0 -1
    outer loop
      vertex 8.21852 15.9209 0
      vertex 18 28 0
      vertex 18.2185 25.9209 0
    endloop
  endfacet
  facet normal 0 0 -1
    outer loop
      vertex 8.21852 15.9209 0
      vertex 18.2185 25.9209 0
      vertex 18.8645 23.9326 0
    endloop
  endfacet
  facet normal 0 0 -1
    outer loop
      vertex 21.3087 20.5686 0
      vertex 8.21852 15.9209 0
      vertex 19.9098 22.1221 0
    endloop
  endfacet
  facet normal 0 0 -1
    outer loop
      vertex 127.49 18.4894 0
      vertex 144.4 18 0
      vertex 125.445 18.0548 0
    endloop
  endfacet
  facet normal 0 0 -1
    outer loop
      vertex 8.21852 15.9209 0
      vertex 21.3087 20.5686 0
      vertex 23 19.3397 0
    endloop
  endfacet
  facet normal 0 0 -1
    outer loop
      vertex 8.21852 15.9209 0
      vertex 23 19.3397 0
      vertex 24.9098 18.4894 0
    endloop
  endfacet
  facet normal 0 0 -1
    outer loop
      vertex 8.21852 15.9209 0
      vertex 24.9098 18.4894 0
      vertex 26.9547 18.0548 0
    endloop
  endfacet
  facet normal 0 0 -1
    outer loop
      vertex 8.21852 15.9209 0
      vertex 26.9547 18.0548 0
      vertex 144.4 18 0
    endloop
  endfacet
  facet normal 0 0 -1
    outer loop
      vertex 26.9547 18.0548 0
      vertex 125.445 18.0548 0
      vertex 144.4 18 0
    endloop
  endfacet
  facet normal 0 0 -1
    outer loop
      vertex 132.49 77.8779 0
      vertex 144.4 82 0
      vertex 133.535 76.0674 0
    endloop
  endfacet
  facet normal 0 0 -1
    outer loop
      vertex 134.4 72 0
      vertex 144.4 82 0
      vertex 134.4 28 0
    endloop
  endfacet
  facet normal 0 0 -1
    outer loop
      vertex 127.49 18.4894 0
      vertex 129.4 19.3397 0
      vertex 144.4 18 0
    endloop
  endfacet
  facet normal 0 0 -1
    outer loop
      vertex 129.4 19.3397 0
      vertex 131.091 20.5686 0
      vertex 144.4 18 0
    endloop
  endfacet
  facet normal 0 0 -1
    outer loop
      vertex 131.091 20.5686 0
      vertex 132.49 22.1221 0
      vertex 144.4 18 0
    endloop
  endfacet
  facet normal 0 0 -1
    outer loop
      vertex 132.49 22.1221 0
      vertex 133.535 23.9326 0
      vertex 144.4 18 0
    endloop
  endfacet
  facet normal 0 0 -1
    outer loop
      vertex 134.4 28 0
      vertex 144.4 82 0
      vertex 134.181 25.9209 0
    endloop
  endfacet
  facet normal 0 0 -1
    outer loop
      vertex 133.535 23.9326 0
      vertex 134.181 25.9209 0
      vertex 144.4 18 0
    endloop
  endfacet
  facet normal 0 0 -1
    outer loop
      vertex 134.181 74.0791 0
      vertex 144.4 82 0
      vertex 134.4 72 0
    endloop
  endfacet
  facet normal 0 0 -1
    outer loop
      vertex 133.535 76.0674 0
      vertex 144.4 82 0
      vertex 134.181 74.0791 0
    endloop
  endfacet
  facet normal 0 0 -1
    outer loop
      vertex 26.9547 81.9452 0
      vertex 139.4 90.6603 0
      vertex 125.445 81.9452 0
    endloop
  endfacet
  facet normal 0 0 -1
    outer loop
      vertex 127.49 81.5106 0
      vertex 142.49 87.8779 0
      vertex 129.4 80.6603 0
    endloop
  endfacet
  facet normal 0 0 -1
    outer loop
      vertex 129.4 80.6603 0
      vertex 143.535 86.0674 0
      vertex 131.091 79.4314 0
    endloop
  endfacet
  facet normal 0 0 -1
    outer loop
      vertex 131.091 79.4314 0
      vertex 144.181 84.0791 0
      vertex 132.49 77.8779 0
    endloop
  endfacet
  facet normal 0 0 -1
    outer loop
      vertex 24.9098 81.5106 0
      vertex 16.9547 91.9452 0
      vertex 26.9547 81.9452 0
    endloop
  endfacet
  facet normal 0 0 -1
    outer loop
      vertex 23 80.6603 0
      vertex 16.9547 91.9452 0
      vertex 24.9098 81.5106 0
    endloop
  endfacet
  facet normal 0 0 -1
    outer loop
      vertex 21.3087 79.4314 0
      vertex 16.9547 91.9452 0
      vertex 23 80.6603 0
    endloop
  endfacet
  facet normal 0 0 -1
    outer loop
      vertex 19.9098 77.8779 0
      vertex 16.9547 91.9452 0
      vertex 21.3087 79.4314 0
    endloop
  endfacet
  facet normal 0 0 -1
    outer loop
      vertex 18.8645 76.0674 0
      vertex 16.9547 91.9452 0
      vertex 19.9098 77.8779 0
    endloop
  endfacet
  facet normal 0 0 -1
    outer loop
      vertex 18.2185 74.0791 0
      vertex 16.9547 91.9452 0
      vertex 18.8645 76.0674 0
    endloop
  endfacet
  facet normal 0 0 -1
    outer loop
      vertex 18 72 0
      vertex 16.9547 91.9452 0
      vertex 18.2185 74.0791 0
    endloop
  endfacet
  facet normal 0 0 -1
    outer loop
      vertex 19.9098 22.1221 0
      vertex 8.21852 15.9209 0
      vertex 18.8645 23.9326 0
    endloop
  endfacet
  facet normal 0 0 -1
    outer loop
      vertex 26.9547 81.9452 0
      vertex 135.445 91.9452 0
      vertex 137.49 91.5106 0
    endloop
  endfacet
  facet normal 0 0 -1
    outer loop
      vertex 26.9547 81.9452 0
      vertex 137.49 91.5106 0
      vertex 139.4 90.6603 0
    endloop
  endfacet
  facet normal 0 0 -1
    outer loop
      vertex 125.445 81.9452 0
      vertex 141.091 89.4314 0
      vertex 127.49 81.5106 0
    endloop
  endfacet
  facet normal -1 0 0
    outer loop
      vertex 8 18 0
      vertex 8 18 2
      vertex 8 82 0
    endloop
  endfacet
  facet normal -1 0 0
    outer loop
      vertex 8 82 0
      vertex 8 18 2
      vertex 8 82 2
    endloop
  endfacet
  facet normal 0 0 1
    outer loop
      vertex 8 82 2
      vertex 8 18 2
      vertex 8.21852 15.9209 2
    endloop
  endfacet
  facet normal 0 0 1
    outer loop
      vertex 9.90983 12.1221 2
      vertex 8 82 2
      vertex 8.86454 13.9326 2
    endloop
  endfacet
  facet normal 0 0 1
    outer loop
      vertex 8.86454 13.9326 2
      vertex 8 82 2
      vertex 8.21852 15.9209 2
    endloop
  endfacet
  facet normal 0 0 1
    outer loop
      vertex 11.3087 10.5686 2
      vertex 8 82 2
      vertex 9.90983 12.1221 2
    endloop
  endfacet
  facet normal 0 0 1
    outer loop
      vertex 13 9.33975 2
      vertex 8 82 2
      vertex 11.3087 10.5686 2
    endloop
  endfacet
  facet normal 0 0 1
    outer loop
      vertex 14.9098 8.48944 2
      vertex 8 82 2
      vertex 13 9.33975 2
    endloop
  endfacet
  facet normal 0 0 1
    outer loop
      vertex 16.9547 8.05478 2
      vertex 8 82 2
      vertex 14.9098 8.48944 2
    endloop
  endfacet
  facet normal 0 0 1
    outer loop
      vertex 18 28 2
      vertex 8 82 2
      vertex 16.9547 8.05478 2
    endloop
  endfacet
  facet normal 0 0 1
    outer loop
      vertex 131.091 20.5686 2
      vertex 129.4 19.3397 2
      vertex 143.535 13.9326 2
    endloop
  endfacet
  facet normal 0 0 1
    outer loop
      vertex 125.445 18.0548 2
      vertex 26.9547 18.0548 2
      vertex 135.445 8.05478 2
    endloop
  endfacet
  facet normal 0 0 1
    outer loop
      vertex 134.4 72 2
      vertex 134.4 28 2
      vertex 144.4 18 2
    endloop
  endfacet
  facet normal 0 0 1
    outer loop
      vertex 144.181 84.0791 2
      vertex 8 82 2
      vertex 144.4 82 2
    endloop
  endfacet
  facet normal 0 0 1
    outer loop
      vertex 143.535 86.0674 2
      vertex 8 82 2
      vertex 144.181 84.0791 2
    endloop
  endfacet
  facet normal 0 0 1
    outer loop
      vertex 142.49 87.8779 2
      vertex 8 82 2
      vertex 143.535 86.0674 2
    endloop
  endfacet
  facet normal 0 0 1
    outer loop
      vertex 141.091 89.4314 2
      vertex 8 82 2
      vertex 142.49 87.8779 2
    endloop
  endfacet
  facet normal 0 0 1
    outer loop
      vertex 139.4 90.6603 2
      vertex 8 82 2
      vertex 141.091 89.4314 2
    endloop
  endfacet
  facet normal 0 0 1
    outer loop
      vertex 137.49 91.5106 2
      vertex 8 82 2
      vertex 139.4 90.6603 2
    endloop
  endfacet
  facet normal 0 0 1
    outer loop
      vertex 135.445 91.9452 2
      vertex 8 82 2
      vertex 137.49 91.5106 2
    endloop
  endfacet
  facet normal 0 0 1
    outer loop
      vertex 16.9547 91.9452 2
      vertex 8 82 2
      vertex 135.445 91.9452 2
    endloop
  endfacet
  facet normal 0 0 1
    outer loop
      vertex 14.9098 91.5106 2
      vertex 8 82 2
      vertex 16.9547 91.9452 2
    endloop
  endfacet
  facet normal 0 0 1
    outer loop
      vertex 13 90.6603 2
      vertex 8 82 2
      vertex 14.9098 91.5106 2
    endloop
  endfacet
  facet normal 0 0 1
    outer loop
      vertex 11.3087 89.4314 2
      vertex 8 82 2
      vertex 13 90.6603 2
    endloop
  endfacet
  facet normal 0 0 1
    outer loop
      vertex 9.90983 87.8779 2
      vertex 8 82 2
      vertex 11.3087 89.4314 2
    endloop
  endfacet
  facet normal 0 0 1
    outer loop
      vertex 8.86454 86.0674 2
      vertex 8 82 2
      vertex 9.90983 87.8779 2
    endloop
  endfacet
  facet normal 0 0 1
    outer loop
      vertex 8.21852 84.0791 2
      vertex 8 82 2
      vertex 8.86454 86.0674 2
    endloop
  endfacet
  facet normal 0 0 1
    outer loop
      vertex 18.2185 25.9209 2
      vertex 18 28 2
      vertex 16.9547 8.05478 2
    endloop
  endfacet
  facet normal 0 0 1
    outer loop
      vertex 18 72 2
      vertex 8 82 2
      vertex 18 28 2
    endloop
  endfacet
  facet normal 0 0 1
    outer loop
      vertex 18.2185 74.0791 2
      vertex 8 82 2
      vertex 18 72 2
    endloop
  endfacet
  facet normal 0 0 1
    outer loop
      vertex 129.4 19.3397 2
      vertex 127.49 18.4894 2
      vertex 142.49 12.1221 2
    endloop
  endfacet
  facet normal 0 0 1
    outer loop
      vertex 132.49 22.1221 2
      vertex 131.091 20.5686 2
      vertex 144.181 15.9209 2
    endloop
  endfacet
  facet normal 0 0 1
    outer loop
      vertex 21.3087 79.4314 2
      vertex 8 82 2
      vertex 19.9098 77.8779 2
    endloop
  endfacet
  facet normal 0 0 1
    outer loop
      vertex 23 80.6603 2
      vertex 8 82 2
      vertex 21.3087 79.4314 2
    endloop
  endfacet
  facet normal 0 0 1
    outer loop
      vertex 127.49 81.5106 2
      vertex 129.4 80.6603 2
      vertex 144.4 82 2
    endloop
  endfacet
  facet normal 0 0 1
    outer loop
      vertex 24.9098 81.5106 2
      vertex 8 82 2
      vertex 23 80.6603 2
    endloop
  endfacet
  facet normal 0 0 1
    outer loop
      vertex 26.9547 81.9452 2
      vertex 8 82 2
      vertex 24.9098 81.5106 2
    endloop
  endfacet
  facet normal 0 0 1
    outer loop
      vertex 144.4 82 2
      vertex 8 82 2
      vertex 26.9547 81.9452 2
    endloop
  endfacet
  facet normal 0 0 1
    outer loop
      vertex 144.4 82 2
      vertex 26.9547 81.9452 2
      vertex 125.445 81.9452 2
    endloop
  endfacet
  facet normal 0 0 1
    outer loop
      vertex 133.535 23.9326 2
      vertex 132.49 22.1221 2
      vertex 144.4 18 2
    endloop
  endfacet
  facet normal 0 0 1
    outer loop
      vertex 127.49 18.4894 2
      vertex 125.445 18.0548 2
      vertex 141.091 10.5686 2
    endloop
  endfacet
  facet normal 0 0 1
    outer loop
      vertex 144.4 82 2
      vertex 129.4 80.6603 2
      vertex 131.091 79.4314 2
    endloop
  endfacet
  facet normal 0 0 1
    outer loop
      vertex 144.4 82 2
      vertex 131.091 79.4314 2
      vertex 132.49 77.8779 2
    endloop
  endfacet
  facet normal 0 0 1
    outer loop
      vertex 125.445 18.0548 2
      vertex 137.49 8.48944 2
      vertex 139.4 9.33975 2
    endloop
  endfacet
  facet normal 0 0 1
    outer loop
      vertex 144.4 82 2
      vertex 132.49 77.8779 2
      vertex 133.535 76.0674 2
    endloop
  endfacet
  facet normal 0 0 1
    outer loop
      vertex 144.4 82 2
      vertex 134.181 74.0791 2
      vertex 144.4 18 2
    endloop
  endfacet
  facet normal 0 0 1
    outer loop
      vertex 144.4 82 2
      vertex 133.535 76.0674 2
      vertex 134.181 74.0791 2
    endloop
  endfacet
  facet normal 0 0 1
    outer loop
      vertex 134.181 74.0791 2
      vertex 134.4 72 2
      vertex 144.4 18 2
    endloop
  endfacet
  facet normal 0 0 1
    outer loop
      vertex 134.4 28 2
      vertex 134.181 25.9209 2
      vertex 144.4 18 2
    endloop
  endfacet
  facet normal 0 0 1
    outer loop
      vertex 134.181 25.9209 2
      vertex 133.535 23.9326 2
      vertex 144.4 18 2
    endloop
  endfacet
  facet normal 0 0 1
    outer loop
      vertex 144.4 18 2
      vertex 132.49 22.1221 2
      vertex 144.181 15.9209 2
    endloop
  endfacet
  facet normal 0 0 1
    outer loop
      vertex 144.181 15.9209 2
      vertex 131.091 20.5686 2
      vertex 143.535 13.9326 2
    endloop
  endfacet
  facet normal 0 0 1
    outer loop
      vertex 125.445 81.9452 2
      vertex 127.49 81.5106 2
      vertex 144.4 82 2
    endloop
  endfacet
  facet normal 0 0 1
    outer loop
      vertex 143.535 13.9326 2
      vertex 129.4 19.3397 2
      vertex 142.49 12.1221 2
    endloop
  endfacet
  facet normal 0 0 1
    outer loop
      vertex 125.445 18.0548 2
      vertex 135.445 8.05478 2
      vertex 137.49 8.48944 2
    endloop
  endfacet
  facet normal 0 0 1
    outer loop
      vertex 142.49 12.1221 2
      vertex 127.49 18.4894 2
      vertex 141.091 10.5686 2
    endloop
  endfacet
  facet normal 0 0 1
    outer loop
      vertex 141.091 10.5686 2
      vertex 125.445 18.0548 2
      vertex 139.4 9.33975 2
    endloop
  endfacet
  facet normal 0 0 1
    outer loop
      vertex 135.445 8.05478 2
      vertex 26.9547 18.0548 2
      vertex 16.9547 8.05478 2
    endloop
  endfacet
  facet normal 0 0 1
    outer loop
      vertex 26.9547 18.0548 2
      vertex 24.9098 18.4894 2
      vertex 16.9547 8.05478 2
    endloop
  endfacet
  facet normal 0 0 1
    outer loop
      vertex 24.9098 18.4894 2
      vertex 23 19.3397 2
      vertex 16.9547 8.05478 2
    endloop
  endfacet
  facet normal 0 0 1
    outer loop
      vertex 23 19.3397 2
      vertex 21.3087 20.5686 2
      vertex 16.9547 8.05478 2
    endloop
  endfacet
  facet normal 0 0 1
    outer loop
      vertex 21.3087 20.5686 2
      vertex 19.9098 22.1221 2
      vertex 16.9547 8.05478 2
    endloop
  endfacet
  facet normal 0 0 1
    outer loop
      vertex 19.9098 22.1221 2
      vertex 18.8645 23.9326 2
      vertex 16.9547 8.05478 2
    endloop
  endfacet
  facet normal 0 0 1
    outer loop
      vertex 18.8645 23.9326 2
      vertex 18.2185 25.9209 2
      vertex 16.9547 8.05478 2
    endloop
  endfacet
  facet normal 0 0 1
    outer loop
      vertex 18.2185 74.0791 2
      vertex 18.8645 76.0674 2
      vertex 8 82 2
    endloop
  endfacet
  facet normal 0 0 1
    outer loop
      vertex 18.8645 76.0674 2
      vertex 19.9098 77.8779 2
      vertex 8 82 2
    endloop
  endfacet
  facet normal -0.951057 -0.309017 0
    outer loop
      vertex 8.21852 15.9209 0
      vertex 8.86454 13.9326 0
      vertex 8.21852 15.9209 2
    endloop
  endfacet
  facet normal -0.951057 -0.309017 0
    outer loop
      vertex 8.21852 15.9209 2
      vertex 8.86454 13.9326 0
      vertex 8.86454 13.9326 2
    endloop
  endfacet
  facet normal -0.866025 -0.5 0
    outer loop
      vertex 8.86454 13.9326 0
      vertex 9.90983 12.1221 0
      vertex 8.86454 13.9326 2
    endloop
  endfacet
  facet normal -0.866025 -0.5 0
    outer loop
      vertex 8.86454 13.9326 2
      vertex 9.90983 12.1221 0
      vertex 9.90983 12.1221 2
    endloop
  endfacet
  facet normal -0.743145 -0.669131 0
    outer loop
      vertex 9.90983 12.1221 0
      vertex 11.3087 10.5686 0
      vertex 9.90983 12.1221 2
    endloop
  endfacet
  facet normal -0.743145 -0.669131 0
    outer loop
      vertex 9.90983 12.1221 2
      vertex 11.3087 10.5686 0
      vertex 11.3087 10.5686 2
    endloop
  endfacet
  facet normal -0.587785 -0.809017 0
    outer loop
      vertex 11.3087 10.5686 2
      vertex 11.3087 10.5686 0
      vertex 13 9.33975 0
    endloop
  endfacet
  facet normal -0.587785 -0.809017 0
    outer loop
      vertex 13 9.33975 2
      vertex 11.3087 10.5686 2
      vertex 13 9.33975 0
    endloop
  endfacet
  facet normal -0.406737 -0.913545 0
    outer loop
      vertex 13 9.33975 2
      vertex 13 9.33975 0
      vertex 14.9098 8.48944 0
    endloop
  endfacet
  facet normal -0.406737 -0.913545 0
    outer loop
      vertex 14.9098 8.48944 2
      vertex 13 9.33975 2
      vertex 14.9098 8.48944 0
    endloop
  endfacet
  facet normal -0.207912 -0.978148 0
    outer loop
      vertex 14.9098 8.48944 2
      vertex 14.9098 8.48944 0
      vertex 16.9547 8.05478 0
    endloop
  endfacet
  facet normal -0.207912 -0.978148 0
    outer loop
      vertex 16.9547 8.05478 2
      vertex 14.9098 8.48944 2
      vertex 16.9547 8.05478 0
    endloop
  endfacet
  facet normal 0 -1 0
    outer loop
      vertex 16.9547 8.05478 2
      vertex 16.9547 8.05478 0
      vertex 135.445 8.05478 0
    endloop
  endfacet
  facet normal 0 -1 0
    outer loop
      vertex 135.445 8.05478 2
      vertex 16.9547 8.05478 2
      vertex 135.445 8.05478 0
    endloop
  endfacet
  facet normal 0.207912 -0.978148 0
    outer loop
      vertex 135.445 8.05478 2
      vertex 135.445 8.05478 0
      vertex 137.49 8.48944 0
    endloop
  endfacet
  facet normal 0.207912 -0.978148 0
    outer loop
      vertex 137.49 8.48944 2
      vertex 135.445 8.05478 2
      vertex 137.49 8.48944 0
    endloop
  endfacet
  facet normal 0.406737 -0.913545 0
    outer loop
      vertex 137.49 8.48944 2
      vertex 137.49 8.48944 0
      vertex 139.4 9.33975 0
    endloop
  endfacet
  facet normal 0.406737 -0.913545 0
    outer loop
      vertex 139.4 9.33975 2
      vertex 137.49 8.48944 2
      vertex 139.4 9.33975 0
    endloop
  endfacet
  facet normal 0.587785 -0.809017 0
    outer loop
      vertex 139.4 9.33975 2
      vertex 139.4 9.33975 0
      vertex 141.091 10.5686 0
    endloop
  endfacet
  facet normal 0.587785 -0.809017 0
    outer loop
      vertex 141.091 10.5686 2
      vertex 139.4 9.33975 2
      vertex 141.091 10.5686 0
    endloop
  endfacet
  facet normal 0.743145 -0.669131 0
    outer loop
      vertex 141.091 10.5686 2
      vertex 141.091 10.5686 0
      vertex 142.49 12.1221 0
    endloop
  endfacet
  facet normal 0.743145 -0.669131 0
    outer loop
      vertex 142.49 12.1221 2
      vertex 141.091 10.5686 2
      vertex 142.49 12.1221 0
    endloop
  endfacet
  facet normal 0.866025 -0.5 0
    outer loop
      vertex 142.49 12.1221 2
      vertex 142.49 12.1221 0
      vertex 143.535 13.9326 0
    endloop
  endfacet
  facet normal 0.866025 -0.5 0
    outer loop
      vertex 143.535 13.9326 2
      vertex 142.49 12.1221 2
      vertex 143.535 13.9326 0
    endloop
  endfacet
  facet normal 0.951057 -0.309017 0
    outer loop
      vertex 143.535 13.9326 2
      vertex 143.535 13.9326 0
      vertex 144.181 15.9209 0
    endloop
  endfacet
  facet normal 0.951057 -0.309017 0
    outer loop
      vertex 144.181 15.9209 2
      vertex 143.535 13.9326 2
      vertex 144.181 15.9209 0
    endloop
  endfacet
  facet normal 0.994522 -0.104528 0
    outer loop
      vertex 144.181 15.9209 2
      vertex 144.181 15.9209 0
      vertex 144.4 18 0
    endloop
  endfacet
  facet normal 0.994522 -0.104528 0
    outer loop
      vertex 144.4 18 2
      vertex 144.181 15.9209 2
      vertex 144.4 18 0
    endloop
  endfacet
  facet normal 1 0 0
    outer loop
      vertex 144.4 18 2
      vertex 144.4 18 0
      vertex 144.4 82 0
    endloop
  endfacet
  facet normal 1 0 0
    outer loop
      vertex 144.4 82 2
      vertex 144.4 18 2
      vertex 144.4 82 0
    endloop
  endfacet
  facet normal 0.994522 0.104528 0
    outer loop
      vertex 144.4 82 0
      vertex 144.181 84.0791 0
      vertex 144.181 84.0791 2
    endloop
  endfacet
  facet normal 0.994522 0.104528 0
    outer loop
      vertex 144.4 82 2
      vertex 144.4 82 0
      vertex 144.181 84.0791 2
    endloop
  endfacet
  facet normal 0.951057 0.309017 0
    outer loop
      vertex 144.181 84.0791 0
      vertex 143.535 86.0674 0
      vertex 143.535 86.0674 2
    endloop
  endfacet
  facet normal 0.951057 0.309017 0
    outer loop
      vertex 144.181 84.0791 2
      vertex 144.181 84.0791 0
      vertex 143.535 86.0674 2
    endloop
  endfacet
  facet normal 0.866025 0.5 0
    outer loop
      vertex 143.535 86.0674 0
      vertex 142.49 87.8779 0
      vertex 142.49 87.8779 2
    endloop
  endfacet
  facet normal 0.866025 0.5 0
    outer loop
      vertex 143.535 86.0674 2
      vertex 143.535 86.0674 0
      vertex 142.49 87.8779 2
    endloop
  endfacet
  facet normal 0.743145 0.669131 0
    outer loop
      vertex 142.49 87.8779 0
      vertex 141.091 89.4314 0
      vertex 141.091 89.4314 2
    endloop
  endfacet
  facet normal 0.743145 0.669131 0
    outer loop
      vertex 142.49 87.8779 2
      vertex 142.49 87.8779 0
      vertex 141.091 89.4314 2
    endloop
  endfacet
  facet normal 0.587785 0.809017 0
    outer loop
      vertex 139.4 90.6603 0
      vertex 139.4 90.6603 2
      vertex 141.091 89.4314 0
    endloop
  endfacet
  facet normal 0.587785 0.809017 0
    outer loop
      vertex 141.091 89.4314 0
      vertex 139.4 90.6603 2
      vertex 141.091 89.4314 2
    endloop
  endfacet
  facet normal 0.406737 0.913545 0
    outer loop
      vertex 137.49 91.5106 0
      vertex 137.49 91.5106 2
      vertex 139.4 90.6603 0
    endloop
  endfacet
  facet normal 0.406737 0.913545 0
    outer loop
      vertex 139.4 90.6603 0
      vertex 137.49 91.5106 2
      vertex 139.4 90.6603 2
    endloop
  endfacet
  facet normal 0.207912 0.978148 0
    outer loop
      vertex 135.445 91.9452 0
      vertex 135.445 91.9452 2
      vertex 137.49 91.5106 0
    endloop
  endfacet
  facet normal 0.207912 0.978148 0
    outer loop
      vertex 137.49 91.5106 0
      vertex 135.445 91.9452 2
      vertex 137.49 91.5106 2
    endloop
  endfacet
  facet normal 0 1 0
    outer loop
      vertex 16.9547 91.9452 0
      vertex 16.9547 91.9452 2
      vertex 135.445 91.9452 0
    endloop
  endfacet
  facet normal 0 1 0
    outer loop
      vertex 135.445 91.9452 0
      vertex 16.9547 91.9452 2
      vertex 135.445 91.9452 2
    endloop
  endfacet
  facet normal -0.207912 0.978148 0
    outer loop
      vertex 14.9098 91.5106 0
      vertex 14.9098 91.5106 2
      vertex 16.9547 91.9452 0
    endloop
  endfacet
  facet normal -0.207912 0.978148 0
    outer loop
      vertex 16.9547 91.9452 0
      vertex 14.9098 91.5106 2
      vertex 16.9547 91.9452 2
    endloop
  endfacet
  facet normal -0.406737 0.913545 0
    outer loop
      vertex 13 90.6603 0
      vertex 13 90.6603 2
      vertex 14.9098 91.5106 0
    endloop
  endfacet
  facet normal -0.406737 0.913545 0
    outer loop
      vertex 14.9098 91.5106 0
      vertex 13 90.6603 2
      vertex 14.9098 91.5106 2
    endloop
  endfacet
  facet normal -0.587785 0.809017 0
    outer loop
      vertex 11.3087 89.4314 0
      vertex 11.3087 89.4314 2
      vertex 13 90.6603 0
    endloop
  endfacet
  facet normal -0.587785 0.809017 0
    outer loop
      vertex 13 90.6603 0
      vertex 11.3087 89.4314 2
      vertex 13 90.6603 2
    endloop
  endfacet
  facet normal -0.743145 0.669131 0
    outer loop
      vertex 9.90983 87.8779 0
      vertex 9.90983 87.8779 2
      vertex 11.3087 89.4314 0
    endloop
  endfacet
  facet normal -0.743145 0.669131 0
    outer loop
      vertex 11.3087 89.4314 0
      vertex 9.90983 87.8779 2
      vertex 11.3087 89.4314 2
    endloop
  endfacet
  facet normal -0.866025 0.5 0
    outer loop
      vertex 8.86454 86.0674 0
      vertex 8.86454 86.0674 2
      vertex 9.90983 87.8779 0
    endloop
  endfacet
  facet normal -0.866025 0.5 0
    outer loop
      vertex 9.90983 87.8779 0
      vertex 8.86454 86.0674 2
      vertex 9.90983 87.8779 2
    endloop
  endfacet
  facet normal -0.951057 0.309017 0
    outer loop
      vertex 8.21852 84.0791 0
      vertex 8.21852 84.0791 2
      vertex 8.86454 86.0674 0
    endloop
  endfacet
  facet normal -0.951057 0.309017 0
    outer loop
      vertex 8.86454 86.0674 0
      vertex 8.21852 84.0791 2
      vertex 8.86454 86.0674 2
    endloop
  endfacet
  facet normal -0.994522 0.104528 0
    outer loop
      vertex 8 82 0
      vertex 8 82 2
      vertex 8.21852 84.0791 0
    endloop
  endfacet
  facet normal -0.994522 0.104528 0
    outer loop
      vertex 8.21852 84.0791 0
      vertex 8 82 2
      vertex 8.21852 84.0791 2
    endloop
  endfacet
  facet normal 1 0 0
    outer loop
      vertex 18 72 0
      vertex 18 72 2
      vertex 18 28 2
    endloop
  endfacet
  facet normal 1 0 0
    outer loop
      vertex 18 28 0
      vertex 18 72 0
      vertex 18 28 2
    endloop
  endfacet
  facet normal 0.994522 -0.104528 0
    outer loop
      vertex 18.2185 74.0791 0
      vertex 18.2185 74.0791 2
      vertex 18 72 2
    endloop
  endfacet
  facet normal 0.994522 -0.104528 0
    outer loop
      vertex 18 72 0
      vertex 18.2185 74.0791 0
      vertex 18 72 2
    endloop
  endfacet
  facet normal 0.951057 -0.309017 0
    outer loop
      vertex 18.8645 76.0674 0
      vertex 18.8645 76.0674 2
      vertex 18.2185 74.0791 2
    endloop
  endfacet
  facet normal 0.951057 -0.309017 0
    outer loop
      vertex 18.2185 74.0791 0
      vertex 18.8645 76.0674 0
      vertex 18.2185 74.0791 2
    endloop
  endfacet
  facet normal 0.866025 -0.5 0
    outer loop
      vertex 19.9098 77.8779 0
      vertex 19.9098 77.8779 2
      vertex 18.8645 76.0674 2
    endloop
  endfacet
  facet normal 0.866025 -0.5 0
    outer loop
      vertex 18.8645 76.0674 0
      vertex 19.9098 77.8779 0
      vertex 18.8645 76.0674 2
    endloop
  endfacet
  facet normal 0.743145 -0.669131 0
    outer loop
      vertex 21.3087 79.4314 0
      vertex 21.3087 79.4314 2
      vertex 19.9098 77.8779 2
    endloop
  endfacet
  facet normal 0.743145 -0.669131 0
    outer loop
      vertex 19.9098 77.8779 0
      vertex 21.3087 79.4314 0
      vertex 19.9098 77.8779 2
    endloop
  endfacet
  facet normal 0.587785 -0.809017 0
    outer loop
      vertex 23 80.6603 0
      vertex 23 80.6603 2
      vertex 21.3087 79.4314 2
    endloop
  endfacet
  facet normal 0.587785 -0.809017 0
    outer loop
      vertex 21.3087 79.4314 0
      vertex 23 80.6603 0
      vertex 21.3087 79.4314 2
    endloop
  endfacet
  facet normal 0.406737 -0.913545 0
    outer loop
      vertex 24.9098 81.5106 0
      vertex 24.9098 81.5106 2
      vertex 23 80.6603 2
    endloop
  endfacet
  facet normal 0.406737 -0.913545 0
    outer loop
      vertex 23 80.6603 0
      vertex 24.9098 81.5106 0
      vertex 23 80.6603 2
    endloop
  endfacet
  facet normal 0.207912 -0.978148 0
    outer loop
      vertex 26.9547 81.9452 0
      vertex 26.9547 81.9452 2
      vertex 24.9098 81.5106 2
    endloop
  endfacet
  facet normal 0.207912 -0.978148 0
    outer loop
      vertex 24.9098 81.5106 0
      vertex 26.9547 81.9452 0
      vertex 24.9098 81.5106 2
    endloop
  endfacet
  facet normal 0 -1 0
    outer loop
      vertex 125.445 81.9452 0
      vertex 125.445 81.9452 2
      vertex 26.9547 81.9452 2
    endloop
  endfacet
  facet normal 0 -1 0
    outer loop
      vertex 26.9547 81.9452 0
      vertex 125.445 81.9452 0
      vertex 26.9547 81.9452 2
    endloop
  endfacet
  facet normal -0.207912 -0.978148 0
    outer loop
      vertex 127.49 81.5106 0
      vertex 127.49 81.5106 2
      vertex 125.445 81.9452 2
    endloop
  endfacet
  facet normal -0.207912 -0.978148 0
    outer loop
      vertex 125.445 81.9452 0
      vertex 127.49 81.5106 0
      vertex 125.445 81.9452 2
    endloop
  endfacet
  facet normal -0.406737 -0.913545 0
    outer loop
      vertex 129.4 80.6603 0
      vertex 129.4 80.6603 2
      vertex 127.49 81.5106 2
    endloop
  endfacet
  facet normal -0.406737 -0.913545 0
    outer loop
      vertex 127.49 81.5106 0
      vertex 129.4 80.6603 0
      vertex 127.49 81.5106 2
    endloop
  endfacet
  facet normal -0.587785 -0.809017 0
    outer loop
      vertex 131.091 79.4314 0
      vertex 131.091 79.4314 2
      vertex 129.4 80.6603 2
    endloop
  endfacet
  facet normal -0.587785 -0.809017 0
    outer loop
      vertex 129.4 80.6603 0
      vertex 131.091 79.4314 0
      vertex 129.4 80.6603 2
    endloop
  endfacet
  facet normal -0.743145 -0.669131 0
    outer loop
      vertex 132.49 77.8779 2
      vertex 131.091 79.4314 2
      vertex 132.49 77.8779 0
    endloop
  endfacet
  facet normal -0.743145 -0.669131 0
    outer loop
      vertex 132.49 77.8779 0
      vertex 131.091 79.4314 2
      vertex 131.091 79.4314 0
    endloop
  endfacet
  facet normal -0.866025 -0.5 0
    outer loop
      vertex 133.535 76.0674 2
      vertex 132.49 77.8779 2
      vertex 133.535 76.0674 0
    endloop
  endfacet
  facet normal -0.866025 -0.5 0
    outer loop
      vertex 133.535 76.0674 0
      vertex 132.49 77.8779 2
      vertex 132.49 77.8779 0
    endloop
  endfacet
  facet normal -0.951057 -0.309017 0
    outer loop
      vertex 134.181 74.0791 2
      vertex 133.535 76.0674 2
      vertex 134.181 74.0791 0
    endloop
  endfacet
  facet normal -0.951057 -0.309017 0
    outer loop
      vertex 134.181 74.0791 0
      vertex 133.535 76.0674 2
      vertex 133.535 76.0674 0
    endloop
  endfacet
  facet normal -0.994522 -0.104528 0
    outer loop
      vertex 134.4 72 2
      vertex 134.181 74.0791 2
      vertex 134.4 72 0
    endloop
  endfacet
  facet normal -0.994522 -0.104528 0
    outer loop
      vertex 134.4 72 0
      vertex 134.181 74.0791 2
      vertex 134.181 74.0791 0
    endloop
  endfacet
  facet normal -1 0 0
    outer loop
      vertex 134.4 72 2
      vertex 134.4 72 0
      vertex 134.4 28 2
    endloop
  endfacet
  facet normal -1 0 0
    outer loop
      vertex 134.4 28 2
      vertex 134.4 72 0
      vertex 134.4 28 0
    endloop
  endfacet
  facet normal -0.994522 0.104528 0
    outer loop
      vertex 134.4 28 2
      vertex 134.4 28 0
      vertex 134.181 25.9209 2
    endloop
  endfacet
  facet normal -0.994522 0.104528 0
    outer loop
      vertex 134.181 25.9209 2
      vertex 134.4 28 0
      vertex 134.181 25.9209 0
    endloop
  endfacet
  facet normal -0.951057 0.309017 0
    outer loop
      vertex 134.181 25.9209 2
      vertex 134.181 25.9209 0
      vertex 133.535 23.9326 2
    endloop
  endfacet
  facet normal -0.951057 0.309017 0
    outer loop
      vertex 133.535 23.9326 2
      vertex 134.181 25.9209 0
      vertex 133.535 23.9326 0
    endloop
  endfacet
  facet normal -0.866025 0.5 0
    outer loop
      vertex 133.535 23.9326 2
      vertex 133.535 23.9326 0
      vertex 132.49 22.1221 2
    endloop
  endfacet
  facet normal -0.866025 0.5 0
    outer loop
      vertex 132.49 22.1221 2
      vertex 133.535 23.9326 0
      vertex 132.49 22.1221 0
    endloop
  endfacet
  facet normal -0.743145 0.669131 0
    outer loop
      vertex 132.49 22.1221 2
      vertex 132.49 22.1221 0
      vertex 131.091 20.5686 2
    endloop
  endfacet
  facet normal -0.743145 0.669131 0
    outer loop
      vertex 131.091 20.5686 2
      vertex 132.49 22.1221 0
      vertex 131.091 20.5686 0
    endloop
  endfacet
  facet normal -0.587785 0.809017 0
    outer loop
      vertex 131.091 20.5686 2
      vertex 131.091 20.5686 0
      vertex 129.4 19.3397 2
    endloop
  endfacet
  facet normal -0.587785 0.809017 0
    outer loop
      vertex 129.4 19.3397 2
      vertex 131.091 20.5686 0
      vertex 129.4 19.3397 0
    endloop
  endfacet
  facet normal -0.406737 0.913545 0
    outer loop
      vertex 129.4 19.3397 2
      vertex 129.4 19.3397 0
      vertex 127.49 18.4894 2
    endloop
  endfacet
  facet normal -0.406737 0.913545 0
    outer loop
      vertex 127.49 18.4894 2
      vertex 129.4 19.3397 0
      vertex 127.49 18.4894 0
    endloop
  endfacet
  facet normal -0.207912 0.978148 0
    outer loop
      vertex 127.49 18.4894 2
      vertex 127.49 18.4894 0
      vertex 125.445 18.0548 2
    endloop
  endfacet
  facet normal -0.207912 0.978148 0
    outer loop
      vertex 125.445 18.0548 2
      vertex 127.49 18.4894 0
      vertex 125.445 18.0548 0
    endloop
  endfacet
  facet normal 0 1 0
    outer loop
      vertex 125.445 18.0548 2
      vertex 125.445 18.0548 0
      vertex 26.9547 18.0548 2
    endloop
  endfacet
  facet normal 0 1 0
    outer loop
      vertex 26.9547 18.0548 2
      vertex 125.445 18.0548 0
      vertex 26.9547 18.0548 0
    endloop
  endfacet
  facet normal 0.207912 0.978148 0
    outer loop
      vertex 26.9547 18.0548 2
      vertex 26.9547 18.0548 0
      vertex 24.9098 18.4894 2
    endloop
  endfacet
  facet normal 0.207912 0.978148 0
    outer loop
      vertex 24.9098 18.4894 2
      vertex 26.9547 18.0548 0
      vertex 24.9098 18.4894 0
    endloop
  endfacet
  facet normal 0.406737 0.913545 0
    outer loop
      vertex 24.9098 18.4894 2
      vertex 24.9098 18.4894 0
      vertex 23 19.3397 2
    endloop
  endfacet
  facet normal 0.406737 0.913545 0
    outer loop
      vertex 23 19.3397 2
      vertex 24.9098 18.4894 0
      vertex 23 19.3397 0
    endloop
  endfacet
  facet normal 0.587785 0.809017 0
    outer loop
      vertex 23 19.3397 2
      vertex 23 19.3397 0
      vertex 21.3087 20.5686 2
    endloop
  endfacet
  facet normal 0.587785 0.809017 0
    outer loop
      vertex 21.3087 20.5686 2
      vertex 23 19.3397 0
      vertex 21.3087 20.5686 0
    endloop
  endfacet
  facet normal 0.743145 0.669131 0
    outer loop
      vertex 19.9098 22.1221 2
      vertex 21.3087 20.5686 2
      vertex 21.3087 20.5686 0
    endloop
  endfacet
  facet normal 0.743145 0.669131 0
    outer loop
      vertex 19.9098 22.1221 0
      vertex 19.9098 22.1221 2
      vertex 21.3087 20.5686 0
    endloop
  endfacet
  facet normal 0.866025 0.5 0
    outer loop
      vertex 18.8645 23.9326 2
      vertex 19.9098 22.1221 2
      vertex 19.9098 22.1221 0
    endloop
  endfacet
  facet normal 0.866025 0.5 0
    outer loop
      vertex 18.8645 23.9326 0
      vertex 18.8645 23.9326 2
      vertex 19.9098 22.1221 0
    endloop
  endfacet
  facet normal 0.951057 0.309017 0
    outer loop
      vertex 18.2185 25.9209 2
      vertex 18.8645 23.9326 2
      vertex 18.8645 23.9326 0
    endloop
  endfacet
  facet normal 0.951057 0.309017 0
    outer loop
      vertex 18.2185 25.9209 0
      vertex 18.2185 25.9209 2
      vertex 18.8645 23.9326 0
    endloop
  endfacet
  facet normal 0.994522 0.104528 0
    outer loop
      vertex 18 28 2
      vertex 18.2185 25.9209 2
      vertex 18.2185 25.9209 0
    endloop
  endfacet
  facet normal 0.994522 0.104528 0
    outer loop
      vertex 18 28 0
      vertex 18 28 2
      vertex 18.2185 25.9209 0
    endloop
  endfacet
endsolid OpenSCAD_Model
