solid OpenSCAD_Model
  facet normal -9.86076e-32 -1 2.22045e-16
    outer loop
      vertex 68.9999 58.2857 7.001
      vertex 68.9999 58.2857 42
      vertex 66.1429 58.2857 42
    endloop
  endfacet
  facet normal -9.86076e-32 -1 2.22045e-16
    outer loop
      vertex 66.1429 58.2857 7.001
      vertex 68.9999 58.2857 7.001
      vertex 66.1429 58.2857 42
    endloop
  endfacet
  facet normal -4.44089e-16 2.22045e-16 1
    outer loop
      vertex 66.1429 58.2857 42
      vertex 68.9999 58.2857 42
      vertex 68.9999 79.999 42
    endloop
  endfacet
  facet normal -4.44089e-16 2.22045e-16 1
    outer loop
      vertex 66.1429 70.2857 42
      vertex 66.1429 58.2857 42
      vertex 68.9999 79.999 42
    endloop
  endfacet
  facet normal -4.44089e-16 2.22045e-16 1
    outer loop
      vertex 59.1429 80.0007 42
      vertex 65 79.999 42
      vertex 65 80.0007 42
    endloop
  endfacet
  facet normal -4.44089e-16 2.22045e-16 1
    outer loop
      vertex 65 79.999 42
      vertex 66.1429 70.2857 42
      vertex 68.9999 79.999 42
    endloop
  endfacet
  facet normal -4.44089e-16 2.22045e-16 1
    outer loop
      vertex 59.1429 70.2857 42
      vertex 65 79.999 42
      vertex 59.1429 80.0007 42
    endloop
  endfacet
  facet normal -4.44089e-16 2.22045e-16 1
    outer loop
      vertex 59.1429 70.2857 42
      vertex 66.1429 70.2857 42
      vertex 65 79.999 42
    endloop
  endfacet
  facet normal 1 4.93038e-32 4.44089e-16
    outer loop
      vertex 68.9999 79.999 42
      vertex 68.9999 58.2857 42
      vertex 68.9999 58.2857 7.001
    endloop
  endfacet
  facet normal 1 4.93038e-32 4.44089e-16
    outer loop
      vertex 68.9999 79.999 7.001
      vertex 68.9999 79.999 42
      vertex 68.9999 58.2857 7.001
    endloop
  endfacet
  facet normal -4.44089e-16 2.22045e-16 1
    outer loop
      vertex 29.857 0 7.001
      vertex 89 58.286 7.001
      vertex 89 80 7.001
    endloop
  endfacet
  facet normal -4.44089e-16 2.22045e-16 1
    outer loop
      vertex 49.2856 38.8571 7.001
      vertex 46.4286 38.8571 7.001
      vertex 29.857 0 7.001
    endloop
  endfacet
  facet normal -4.44089e-16 2.22045e-16 1
    outer loop
      vertex 68.9999 58.2857 7.001
      vertex 29.857 0 7.001
      vertex 89 80 7.001
    endloop
  endfacet
  facet normal -4.44089e-16 2.22045e-16 1
    outer loop
      vertex 69 80 7.001
      vertex 69 79.999 7.001
      vertex 89 80 7.001
    endloop
  endfacet
  facet normal -4.44089e-16 2.22045e-16 1
    outer loop
      vertex 39.4284 50.8579 7.001
      vertex 39.4284 29.1429 7.001
      vertex 39.4286 50.8571 7.001
    endloop
  endfacet
  facet normal -4.44089e-16 2.22045e-16 1
    outer loop
      vertex 69 79.999 7.001
      vertex 68.9999 58.2857 7.001
      vertex 89 80 7.001
    endloop
  endfacet
  facet normal -4.44089e-16 2.22045e-16 1
    outer loop
      vertex 66.1429 58.2857 7.001
      vertex 29.857 0 7.001
      vertex 68.9999 58.2857 7.001
    endloop
  endfacet
  facet normal -4.44089e-16 2.22045e-16 1
    outer loop
      vertex 59.1427 48.5714 7.001
      vertex 29.857 0 7.001
      vertex 66.1429 58.2857 7.001
    endloop
  endfacet
  facet normal -4.44089e-16 2.22045e-16 1
    outer loop
      vertex 29.5713 41.1436 7.001
      vertex 29.5713 19.4286 7.001
      vertex 29.5714 41.1429 7.001
    endloop
  endfacet
  facet normal -4.44089e-16 2.22045e-16 1
    outer loop
      vertex 56.2857 48.5714 7.001
      vertex 56.2857 60.5714 7.001
      vertex 49.2856 38.8571 7.001
    endloop
  endfacet
  facet normal -4.44089e-16 2.22045e-16 1
    outer loop
      vertex 36.5714 41.1429 7.001
      vertex 29.5714 41.1429 7.001
      vertex 29.857 0 7.001
    endloop
  endfacet
  facet normal -4.44089e-16 2.22045e-16 1
    outer loop
      vertex 59.1429 79.9999 7.001
      vertex 59.1427 70.2864 7.001
      vertex 59.1429 70.2857 7.001
    endloop
  endfacet
  facet normal -4.44089e-16 2.22045e-16 1
    outer loop
      vertex 56.2857 48.5714 7.001
      vertex 49.2856 38.8571 7.001
      vertex 29.857 0 7.001
    endloop
  endfacet
  facet normal -4.44089e-16 2.22045e-16 1
    outer loop
      vertex 66.1429 70.2857 7.001
      vertex 59.1427 48.5714 7.001
      vertex 66.1429 58.2857 7.001
    endloop
  endfacet
  facet normal -4.44089e-16 2.22045e-16 1
    outer loop
      vertex 56.2857 48.5714 7.001
      vertex 29.857 0 7.001
      vertex 59.1427 48.5714 7.001
    endloop
  endfacet
  facet normal -4.44089e-16 2.22045e-16 1
    outer loop
      vertex 46.4286 38.8571 7.001
      vertex 39.4284 29.1429 7.001
      vertex 29.857 0 7.001
    endloop
  endfacet
  facet normal -4.44089e-16 2.22045e-16 1
    outer loop
      vertex 49.2857 60.5714 7.001
      vertex 49.2857 70.2855 7.001
      vertex 49.2856 60.5721 7.001
    endloop
  endfacet
  facet normal -4.44089e-16 2.22045e-16 1
    outer loop
      vertex 36.5714 29.1429 7.001
      vertex 36.5714 41.1429 7.001
      vertex 29.857 0 7.001
    endloop
  endfacet
  facet normal -4.44089e-16 2.22045e-16 1
    outer loop
      vertex 46.4286 38.8571 7.001
      vertex 46.4286 50.8571 7.001
      vertex 39.4284 29.1429 7.001
    endloop
  endfacet
  facet normal -4.44089e-16 2.22045e-16 1
    outer loop
      vertex 39.4286 50.8571 7.001
      vertex 39.4286 60.5712 7.001
      vertex 39.4284 50.8579 7.001
    endloop
  endfacet
  facet normal -4.44089e-16 2.22045e-16 1
    outer loop
      vertex 49.2857 60.5714 7.001
      vertex 49.2856 38.8571 7.001
      vertex 56.2857 60.5714 7.001
    endloop
  endfacet
  facet normal -4.44089e-16 2.22045e-16 1
    outer loop
      vertex 49.2856 60.5721 7.001
      vertex 49.2856 38.8571 7.001
      vertex 49.2857 60.5714 7.001
    endloop
  endfacet
  facet normal -4.44089e-16 2.22045e-16 1
    outer loop
      vertex 39.4295 60.5721 7.001
      vertex 49.2856 60.5721 7.001
      vertex 49.2857 70.2855 7.001
    endloop
  endfacet
  facet normal -4.44089e-16 2.22045e-16 1
    outer loop
      vertex 39.4284 29.1429 7.001
      vertex 36.5714 29.1429 7.001
      vertex 29.857 0 7.001
    endloop
  endfacet
  facet normal -4.44089e-16 2.22045e-16 1
    outer loop
      vertex 19.7141 31.4293 7.001
      vertex 19.7141 9.71429 7.001
      vertex 19.7143 31.4286 7.001
    endloop
  endfacet
  facet normal -4.44089e-16 2.22045e-16 1
    outer loop
      vertex 39.4286 50.8571 7.001
      vertex 39.4284 29.1429 7.001
      vertex 46.4286 50.8571 7.001
    endloop
  endfacet
  facet normal -4.44089e-16 2.22045e-16 1
    outer loop
      vertex 19.7143 31.4286 7.001
      vertex 19.7141 9.71429 7.001
      vertex 29.857 0 7.001
    endloop
  endfacet
  facet normal -4.44089e-16 2.22045e-16 1
    outer loop
      vertex 29.5724 50.8579 7.001
      vertex 39.4284 50.8579 7.001
      vertex 39.4286 60.5712 7.001
    endloop
  endfacet
  facet normal -4.44089e-16 2.22045e-16 1
    outer loop
      vertex 29.5713 19.4286 7.001
      vertex 29.857 0 7.001
      vertex 29.5714 41.1429 7.001
    endloop
  endfacet
  facet normal -4.44089e-16 2.22045e-16 1
    outer loop
      vertex 29.5713 41.1436 7.001
      vertex 29.5714 41.1429 7.001
      vertex 29.5714 50.8569 7.001
    endloop
  endfacet
  facet normal -4.44089e-16 2.22045e-16 1
    outer loop
      vertex 19.7153 41.1436 7.001
      vertex 29.5713 41.1436 7.001
      vertex 29.5714 50.8569 7.001
    endloop
  endfacet
  facet normal -4.44089e-16 2.22045e-16 1
    outer loop
      vertex 26.7143 31.4286 7.001
      vertex 19.7143 31.4286 7.001
      vertex 26.7143 19.4286 7.001
    endloop
  endfacet
  facet normal -4.44089e-16 2.22045e-16 1
    outer loop
      vertex 26.7143 19.4286 7.001
      vertex 29.857 0 7.001
      vertex 29.5713 19.4286 7.001
    endloop
  endfacet
  facet normal -4.44089e-16 2.22045e-16 1
    outer loop
      vertex 26.7143 19.4286 7.001
      vertex 19.7143 31.4286 7.001
      vertex 29.857 0 7.001
    endloop
  endfacet
  facet normal -4.44089e-16 2.22045e-16 1
    outer loop
      vertex 9.85714 21.7143 7.001
      vertex 9.857 0 7.001
      vertex 16.8571 9.71429 7.001
    endloop
  endfacet
  facet normal -4.44089e-16 2.22045e-16 1
    outer loop
      vertex 19.7141 31.4293 7.001
      vertex 19.7143 31.4286 7.001
      vertex 19.7143 41.1426 7.001
    endloop
  endfacet
  facet normal -4.44089e-16 2.22045e-16 1
    outer loop
      vertex 9.85813 31.4293 7.001
      vertex 19.7141 31.4293 7.001
      vertex 19.7143 41.1426 7.001
    endloop
  endfacet
  facet normal -4.44089e-16 2.22045e-16 1
    outer loop
      vertex 16.8571 9.71429 7.001
      vertex 29.857 0 7.001
      vertex 19.7141 9.71429 7.001
    endloop
  endfacet
  facet normal -4.44089e-16 2.22045e-16 1
    outer loop
      vertex 16.8571 21.7143 7.001
      vertex 9.85714 21.7143 7.001
      vertex 16.8571 9.71429 7.001
    endloop
  endfacet
  facet normal -4.44089e-16 2.22045e-16 1
    outer loop
      vertex 9.857 21.715 7.001
      vertex 9.857 0 7.001
      vertex 9.85714 21.7143 7.001
    endloop
  endfacet
  facet normal -4.44089e-16 2.22045e-16 1
    outer loop
      vertex 16.8571 9.71429 7.001
      vertex 9.857 0 7.001
      vertex 29.857 0 7.001
    endloop
  endfacet
  facet normal -4.44089e-16 2.22045e-16 1
    outer loop
      vertex 9.857 21.715 7.001
      vertex 9.85714 21.7143 7.001
      vertex 9.85714 31.4283 7.001
    endloop
  endfacet
  facet normal -4.44089e-16 2.22045e-16 1
    outer loop
      vertex 0.0010147 21.715 7.001
      vertex 9.857 21.715 7.001
      vertex 9.85714 31.4283 7.001
    endloop
  endfacet
  facet normal -4.44089e-16 2.22045e-16 1
    outer loop
      vertex 49.2866 70.2864 7.001
      vertex 59.1427 70.2864 7.001
      vertex 59.1429 79.9999 7.001
    endloop
  endfacet
  facet normal -4.44089e-16 2.22045e-16 1
    outer loop
      vertex 68.9999 79.999 7.001
      vertex 68.9999 58.2857 7.001
      vertex 69 79.999 7.001
    endloop
  endfacet
  facet normal -4.44089e-16 2.22045e-16 1
    outer loop
      vertex 59.1429 70.2857 7.001
      vertex 59.1427 48.5714 7.001
      vertex 66.1429 70.2857 7.001
    endloop
  endfacet
  facet normal -4.44089e-16 2.22045e-16 1
    outer loop
      vertex 59.1427 70.2864 7.001
      vertex 59.1427 48.5714 7.001
      vertex 59.1429 70.2857 7.001
    endloop
  endfacet
  facet normal -1 -4.93038e-32 -4.44089e-16
    outer loop
      vertex 66.1429 58.2857 42
      vertex 66.1429 70.2857 42
      vertex 66.1429 58.2857 7.001
    endloop
  endfacet
  facet normal -1 -4.93038e-32 -4.44089e-16
    outer loop
      vertex 66.1429 58.2857 7.001
      vertex 66.1429 70.2857 42
      vertex 66.1429 70.2857 7.001
    endloop
  endfacet
  facet normal -9.86076e-32 -1 2.22045e-16
    outer loop
      vertex 66.1429 70.2857 7.001
      vertex 66.1429 70.2857 42
      vertex 59.1429 70.2857 42
    endloop
  endfacet
  facet normal -9.86076e-32 -1 2.22045e-16
    outer loop
      vertex 59.1429 70.2857 7.001
      vertex 66.1429 70.2857 7.001
      vertex 59.1429 70.2857 42
    endloop
  endfacet
  facet normal -1 -4.93038e-32 -4.44089e-16
    outer loop
      vertex 59.1429 70.2857 42
      vertex 59.1429 80.0007 42
      vertex 59.1429 70.2857 7.001
    endloop
  endfacet
  facet normal -1 -4.93038e-32 -4.44089e-16
    outer loop
      vertex 59.1429 79.9999 7.001
      vertex 59.1429 80.0007 42
      vertex 59.1429 80.0007 7
    endloop
  endfacet
  facet normal -1 -4.93038e-32 -4.44089e-16
    outer loop
      vertex 59.1429 70.2857 7.001
      vertex 59.1429 80.0007 42
      vertex 59.1429 79.9999 7.001
    endloop
  endfacet
  facet normal -1 -4.93038e-32 -4.44089e-16
    outer loop
      vertex 59.1429 79.9999 7.001
      vertex 59.1429 80.0007 7
      vertex 59.1429 80 7
    endloop
  endfacet
  facet normal -1 -4.93038e-32 -4.44089e-16
    outer loop
      vertex 59.1429 79.9999 7.001
      vertex 59.1429 80 7
      vertex 59.1429 79.9999 7
    endloop
  endfacet
  facet normal 9.86076e-32 1 -2.22045e-16
    outer loop
      vertex 65 80.0007 42
      vertex 65 80.0007 7
      vertex 59.1429 80.0007 42
    endloop
  endfacet
  facet normal 9.86076e-32 1 -2.22045e-16
    outer loop
      vertex 59.1429 80.0007 42
      vertex 65 80.0007 7
      vertex 59.1429 80.0007 7
    endloop
  endfacet
  facet normal -1 0 -2.22045e-16
    outer loop
      vertex 65 80.0007 42
      vertex 65 93 42
      vertex 65 93 7
    endloop
  endfacet
  facet normal -1 0 -2.22045e-16
    outer loop
      vertex 65 79.999 42
      vertex 65 93 42
      vertex 65 80.0007 42
    endloop
  endfacet
  facet normal -1 0 -2.22045e-16
    outer loop
      vertex 65 80.0007 42
      vertex 65 93 7
      vertex 65 80.0007 7
    endloop
  endfacet
  facet normal 0 -1 0
    outer loop
      vertex 68.9999 79.999 7.001
      vertex 69 79.999 42
      vertex 68.9999 79.999 42
    endloop
  endfacet
  facet normal 0 -1 0
    outer loop
      vertex 68.9999 79.999 42
      vertex 69 79.999 42
      vertex 65 79.999 42
    endloop
  endfacet
  facet normal 0 -1 0
    outer loop
      vertex 69 79.999 7.001
      vertex 69 79.999 42
      vertex 68.9999 79.999 7.001
    endloop
  endfacet
  facet normal 0.701928 -0.712248 4.69869e-16
    outer loop
      vertex 89 58.286 2.48055e-14
      vertex 89 58.286 7.001
      vertex 29.857 0 7.001
    endloop
  endfacet
  facet normal 0.701928 -0.712248 4.69869e-16
    outer loop
      vertex 29.857 -1.55453e-15 1.14828e-14
      vertex 89 58.286 2.48055e-14
      vertex 29.857 0 7.001
    endloop
  endfacet
  facet normal -9.86076e-32 -1 2.22045e-16
    outer loop
      vertex 29.857 -1.55453e-15 1.14828e-14
      vertex 29.857 0 7.001
      vertex 9.857 0 7.001
    endloop
  endfacet
  facet normal -9.86076e-32 -1 2.22045e-16
    outer loop
      vertex 7 -2.22045e-19 7
      vertex 29.857 -1.55453e-15 1.14828e-14
      vertex 9.857 -2.22045e-19 7
    endloop
  endfacet
  facet normal -9.86076e-32 -1 2.22045e-16
    outer loop
      vertex 9.857 -2.22045e-19 7
      vertex 29.857 -1.55453e-15 1.14828e-14
      vertex 9.857 0 7.001
    endloop
  endfacet
  facet normal -9.86076e-32 -1 2.22045e-16
    outer loop
      vertex -1.55453e-15 0 7.001
      vertex 29.857 -1.55453e-15 1.14828e-14
      vertex 7 -2.22045e-19 7
    endloop
  endfacet
  facet normal -9.86076e-32 -1 2.22045e-16
    outer loop
      vertex -1.55453e-15 0 7.001
      vertex 7 -2.22045e-19 7
      vertex 7 0 7.001
    endloop
  endfacet
  facet normal -9.86076e-32 -1 2.22045e-16
    outer loop
      vertex 1.55453e-15 -1.55453e-15 -1.77636e-15
      vertex 29.857 -1.55453e-15 1.14828e-14
      vertex -1.55453e-15 0 7.001
    endloop
  endfacet
  facet normal 1 4.93038e-32 4.44089e-16
    outer loop
      vertex 9.857 0 7.001
      vertex 9.857 0 42
      vertex 9.857 -7.77156e-15 7
    endloop
  endfacet
  facet normal 1 4.93038e-32 4.44089e-16
    outer loop
      vertex 9.857 0 7.001
      vertex 9.857 21.715 7.001
      vertex 9.857 21.715 42
    endloop
  endfacet
  facet normal 1 4.93038e-32 4.44089e-16
    outer loop
      vertex 9.857 21.715 42
      vertex 9.857 0 42
      vertex 9.857 0 7.001
    endloop
  endfacet
  facet normal 1 4.93038e-32 4.44089e-16
    outer loop
      vertex 9.857 -2.22045e-19 7
      vertex 9.857 0 7.001
      vertex 9.857 -7.77156e-15 7
    endloop
  endfacet
  facet normal 9.86076e-32 1 -2.22045e-16
    outer loop
      vertex 9.857 21.715 42
      vertex 9.857 21.715 7.001
      vertex -9.32587e-15 21.715 42
    endloop
  endfacet
  facet normal 9.86076e-32 1 -2.22045e-16
    outer loop
      vertex -9.32587e-15 21.715 42
      vertex 9.857 21.715 7.001
      vertex 0.0010147 21.715 7.001
    endloop
  endfacet
  facet normal 9.86076e-32 1 -2.22045e-16
    outer loop
      vertex -9.32587e-15 21.715 42
      vertex 0.0010147 21.715 7.001
      vertex 0.0010147 21.715 7
    endloop
  endfacet
  facet normal 9.86076e-32 1 -2.22045e-16
    outer loop
      vertex -9.32587e-15 21.715 42
      vertex 0.0010147 21.715 7
      vertex 6.21725e-15 21.715 7
    endloop
  endfacet
  facet normal -0.701928 0.712248 -4.69869e-16
    outer loop
      vertex 59.1429 79.9999 7.001
      vertex 59.1429 79.9999 7
      vertex 49.2866 70.2864 7.001
    endloop
  endfacet
  facet normal -0.701928 0.712248 -4.69869e-16
    outer loop
      vertex 59.143 80 6.72484e-15
      vertex 59.1429 79.9999 7
      vertex 59.143 80 7
    endloop
  endfacet
  facet normal -0.701928 0.712248 -4.69869e-16
    outer loop
      vertex 49.2866 70.2864 7.001
      vertex 59.1429 79.9999 7
      vertex 59.143 80 6.72484e-15
    endloop
  endfacet
  facet normal -0.701928 0.712248 -4.69869e-16
    outer loop
      vertex 49.2857 70.2855 7
      vertex 59.143 80 6.72484e-15
      vertex 1.55453e-15 21.714 -6.59783e-15
    endloop
  endfacet
  facet normal -0.701928 0.712248 -4.69869e-16
    outer loop
      vertex 6.2168e-15 21.714 7.001
      vertex 1.55453e-15 21.714 -6.59783e-15
      vertex -1.55453e-15 21.714 7.001
    endloop
  endfacet
  facet normal -0.701928 0.712248 -4.69869e-16
    outer loop
      vertex 6.21725e-15 21.714 7
      vertex 1.55453e-15 21.714 -6.59783e-15
      vertex 6.2168e-15 21.714 7.001
    endloop
  endfacet
  facet normal -0.701928 0.712248 -4.69869e-16
    outer loop
      vertex 0.0010147 21.715 7
      vertex 1.55453e-15 21.714 -6.59783e-15
      vertex 6.21725e-15 21.714 7
    endloop
  endfacet
  facet normal -0.701928 0.712248 -4.69869e-16
    outer loop
      vertex 9.85714 31.4283 7
      vertex 1.55453e-15 21.714 -6.59783e-15
      vertex 0.0010147 21.715 7
    endloop
  endfacet
  facet normal -0.701928 0.712248 -4.69869e-16
    outer loop
      vertex 9.85714 31.4283 7
      vertex 0.0010147 21.715 7
      vertex 9.85714 31.4283 7.001
    endloop
  endfacet
  facet normal -0.701928 0.712248 -4.69869e-16
    outer loop
      vertex 9.85813 31.4293 7
      vertex 1.55453e-15 21.714 -6.59783e-15
      vertex 9.85714 31.4283 7
    endloop
  endfacet
  facet normal -0.701928 0.712248 -4.69869e-16
    outer loop
      vertex 19.7143 41.1426 7
      vertex 1.55453e-15 21.714 -6.59783e-15
      vertex 9.85813 31.4293 7
    endloop
  endfacet
  facet normal -0.701928 0.712248 -4.69869e-16
    outer loop
      vertex 29.5714 50.8569 7
      vertex 19.7153 41.1436 7
      vertex 29.5714 50.8569 7.001
    endloop
  endfacet
  facet normal -0.701928 0.712248 -4.69869e-16
    outer loop
      vertex 19.7153 41.1436 7
      vertex 1.55453e-15 21.714 -6.59783e-15
      vertex 19.7143 41.1426 7
    endloop
  endfacet
  facet normal -0.701928 0.712248 -4.69869e-16
    outer loop
      vertex 29.5714 50.8569 7
      vertex 1.55453e-15 21.714 -6.59783e-15
      vertex 19.7153 41.1436 7
    endloop
  endfacet
  facet normal -0.701928 0.712248 -4.69869e-16
    outer loop
      vertex 49.2857 70.2855 7
      vertex 1.55453e-15 21.714 -6.59783e-15
      vertex 39.4295 60.5721 7
    endloop
  endfacet
  facet normal -0.701928 0.712248 -4.69869e-16
    outer loop
      vertex 49.2857 70.2855 7
      vertex 39.4295 60.5721 7
      vertex 49.2857 70.2855 7.001
    endloop
  endfacet
  facet normal -0.701928 0.712248 -4.69869e-16
    outer loop
      vertex 29.5724 50.8579 7
      vertex 1.55453e-15 21.714 -6.59783e-15
      vertex 29.5714 50.8569 7
    endloop
  endfacet
  facet normal -0.701928 0.712248 -4.69869e-16
    outer loop
      vertex 39.4295 60.5721 7.001
      vertex 49.2857 70.2855 7.001
      vertex 39.4295 60.5721 7
    endloop
  endfacet
  facet normal -0.701928 0.712248 -4.69869e-16
    outer loop
      vertex 39.4286 60.5712 7
      vertex 1.55453e-15 21.714 -6.59783e-15
      vertex 29.5724 50.8579 7
    endloop
  endfacet
  facet normal -0.701928 0.712248 -4.69869e-16
    outer loop
      vertex 39.4286 60.5712 7
      vertex 29.5724 50.8579 7
      vertex 39.4286 60.5712 7.001
    endloop
  endfacet
  facet normal -0.701928 0.712248 -4.69869e-16
    outer loop
      vertex 39.4295 60.5721 7
      vertex 1.55453e-15 21.714 -6.59783e-15
      vertex 39.4286 60.5712 7
    endloop
  endfacet
  facet normal -0.701928 0.712248 -4.69869e-16
    outer loop
      vertex 19.7143 41.1426 7
      vertex 9.85813 31.4293 7
      vertex 19.7143 41.1426 7.001
    endloop
  endfacet
  facet normal -0.701928 0.712248 -4.69869e-16
    outer loop
      vertex 49.2866 70.2864 7
      vertex 59.143 80 6.72484e-15
      vertex 49.2857 70.2855 7
    endloop
  endfacet
  facet normal -0.701928 0.712248 -4.69869e-16
    outer loop
      vertex 49.2866 70.2864 7.001
      vertex 59.143 80 6.72484e-15
      vertex 49.2866 70.2864 7
    endloop
  endfacet
  facet normal -0.701928 0.712248 -4.69869e-16
    outer loop
      vertex 29.5724 50.8579 7.001
      vertex 39.4286 60.5712 7.001
      vertex 29.5724 50.8579 7
    endloop
  endfacet
  facet normal -0.701928 0.712248 -4.69869e-16
    outer loop
      vertex 19.7153 41.1436 7.001
      vertex 29.5714 50.8569 7.001
      vertex 19.7153 41.1436 7
    endloop
  endfacet
  facet normal -0.701928 0.712248 -4.69869e-16
    outer loop
      vertex 9.85813 31.4293 7.001
      vertex 19.7143 41.1426 7.001
      vertex 9.85813 31.4293 7
    endloop
  endfacet
  facet normal -0.701928 0.712248 -4.69869e-16
    outer loop
      vertex 0.0010147 21.715 7.001
      vertex 9.85714 31.4283 7.001
      vertex 0.0010147 21.715 7
    endloop
  endfacet
  facet normal -1 -4.93038e-32 -4.44089e-16
    outer loop
      vertex 9.85714 21.7143 42
      vertex 9.85714 31.4293 42
      vertex 9.85714 21.7143 7.001
    endloop
  endfacet
  facet normal -1 -4.93038e-32 -4.44089e-16
    outer loop
      vertex 9.85714 31.4283 7.001
      vertex 9.85714 31.4293 42
      vertex 9.85714 31.4293 7
    endloop
  endfacet
  facet normal -1 -4.93038e-32 -4.44089e-16
    outer loop
      vertex 9.85714 21.7143 7.001
      vertex 9.85714 31.4293 42
      vertex 9.85714 31.4283 7.001
    endloop
  endfacet
  facet normal -1 -4.93038e-32 -4.44089e-16
    outer loop
      vertex 9.85714 31.4283 7.001
      vertex 9.85714 31.4293 7
      vertex 9.85714 31.4283 7
    endloop
  endfacet
  facet normal -9.86076e-32 -1 2.22045e-16
    outer loop
      vertex 16.8571 21.7143 7.001
      vertex 16.8571 21.7143 42
      vertex 9.85714 21.7143 42
    endloop
  endfacet
  facet normal -9.86076e-32 -1 2.22045e-16
    outer loop
      vertex 9.85714 21.7143 7.001
      vertex 16.8571 21.7143 7.001
      vertex 9.85714 21.7143 42
    endloop
  endfacet
  facet normal -1 -4.93038e-32 -4.44089e-16
    outer loop
      vertex 16.8571 9.71429 42
      vertex 16.8571 21.7143 42
      vertex 16.8571 9.71429 7.001
    endloop
  endfacet
  facet normal -1 -4.93038e-32 -4.44089e-16
    outer loop
      vertex 16.8571 9.71429 7.001
      vertex 16.8571 21.7143 42
      vertex 16.8571 21.7143 7.001
    endloop
  endfacet
  facet normal -9.86076e-32 -1 2.22045e-16
    outer loop
      vertex 19.7141 9.71429 7.001
      vertex 19.7141 9.71429 42
      vertex 16.8571 9.71429 42
    endloop
  endfacet
  facet normal -9.86076e-32 -1 2.22045e-16
    outer loop
      vertex 16.8571 9.71429 7.001
      vertex 19.7141 9.71429 7.001
      vertex 16.8571 9.71429 42
    endloop
  endfacet
  facet normal 1 4.93038e-32 4.44089e-16
    outer loop
      vertex 19.7141 31.4293 42
      vertex 19.7141 9.71429 42
      vertex 19.7141 9.71429 7.001
    endloop
  endfacet
  facet normal 1 4.93038e-32 4.44089e-16
    outer loop
      vertex 19.7141 31.4293 7.001
      vertex 19.7141 31.4293 42
      vertex 19.7141 9.71429 7.001
    endloop
  endfacet
  facet normal 9.86076e-32 1 -2.22045e-16
    outer loop
      vertex 19.7141 31.4293 42
      vertex 19.7141 31.4293 7.001
      vertex 9.85714 31.4293 42
    endloop
  endfacet
  facet normal 9.86076e-32 1 -2.22045e-16
    outer loop
      vertex 9.85714 31.4293 42
      vertex 19.7141 31.4293 7.001
      vertex 9.85813 31.4293 7.001
    endloop
  endfacet
  facet normal 9.86076e-32 1 -2.22045e-16
    outer loop
      vertex 9.85714 31.4293 42
      vertex 9.85813 31.4293 7.001
      vertex 9.85813 31.4293 7
    endloop
  endfacet
  facet normal 9.86076e-32 1 -2.22045e-16
    outer loop
      vertex 9.85714 31.4293 42
      vertex 9.85813 31.4293 7
      vertex 9.85714 31.4293 7
    endloop
  endfacet
  facet normal -1 -4.93038e-32 -4.44089e-16
    outer loop
      vertex 19.7143 31.4286 42
      vertex 19.7143 41.1436 42
      vertex 19.7143 31.4286 7.001
    endloop
  endfacet
  facet normal -1 -4.93038e-32 -4.44089e-16
    outer loop
      vertex 19.7143 41.1426 7.001
      vertex 19.7143 41.1436 42
      vertex 19.7143 41.1436 7
    endloop
  endfacet
  facet normal -1 -4.93038e-32 -4.44089e-16
    outer loop
      vertex 19.7143 31.4286 7.001
      vertex 19.7143 41.1436 42
      vertex 19.7143 41.1426 7.001
    endloop
  endfacet
  facet normal -1 -4.93038e-32 -4.44089e-16
    outer loop
      vertex 19.7143 41.1426 7.001
      vertex 19.7143 41.1436 7
      vertex 19.7143 41.1426 7
    endloop
  endfacet
  facet normal -9.86076e-32 -1 2.22045e-16
    outer loop
      vertex 26.7143 31.4286 7.001
      vertex 26.7143 31.4286 42
      vertex 19.7143 31.4286 42
    endloop
  endfacet
  facet normal -9.86076e-32 -1 2.22045e-16
    outer loop
      vertex 19.7143 31.4286 7.001
      vertex 26.7143 31.4286 7.001
      vertex 19.7143 31.4286 42
    endloop
  endfacet
  facet normal -1 -4.93038e-32 -4.44089e-16
    outer loop
      vertex 26.7143 19.4286 42
      vertex 26.7143 31.4286 42
      vertex 26.7143 19.4286 7.001
    endloop
  endfacet
  facet normal -1 -4.93038e-32 -4.44089e-16
    outer loop
      vertex 26.7143 19.4286 7.001
      vertex 26.7143 31.4286 42
      vertex 26.7143 31.4286 7.001
    endloop
  endfacet
  facet normal -9.86076e-32 -1 2.22045e-16
    outer loop
      vertex 29.5713 19.4286 7.001
      vertex 29.5713 19.4286 42
      vertex 26.7143 19.4286 42
    endloop
  endfacet
  facet normal -9.86076e-32 -1 2.22045e-16
    outer loop
      vertex 26.7143 19.4286 7.001
      vertex 29.5713 19.4286 7.001
      vertex 26.7143 19.4286 42
    endloop
  endfacet
  facet normal 1 4.93038e-32 4.44089e-16
    outer loop
      vertex 29.5713 41.1436 42
      vertex 29.5713 19.4286 42
      vertex 29.5713 19.4286 7.001
    endloop
  endfacet
  facet normal 1 4.93038e-32 4.44089e-16
    outer loop
      vertex 29.5713 41.1436 7.001
      vertex 29.5713 41.1436 42
      vertex 29.5713 19.4286 7.001
    endloop
  endfacet
  facet normal 9.86076e-32 1 -2.22045e-16
    outer loop
      vertex 29.5713 41.1436 42
      vertex 29.5713 41.1436 7.001
      vertex 19.7143 41.1436 42
    endloop
  endfacet
  facet normal 9.86076e-32 1 -2.22045e-16
    outer loop
      vertex 19.7143 41.1436 42
      vertex 29.5713 41.1436 7.001
      vertex 19.7153 41.1436 7.001
    endloop
  endfacet
  facet normal 9.86076e-32 1 -2.22045e-16
    outer loop
      vertex 19.7143 41.1436 42
      vertex 19.7153 41.1436 7.001
      vertex 19.7153 41.1436 7
    endloop
  endfacet
  facet normal 9.86076e-32 1 -2.22045e-16
    outer loop
      vertex 19.7143 41.1436 42
      vertex 19.7153 41.1436 7
      vertex 19.7143 41.1436 7
    endloop
  endfacet
  facet normal -1 -4.93038e-32 -4.44089e-16
    outer loop
      vertex 29.5714 41.1429 42
      vertex 29.5714 50.8579 42
      vertex 29.5714 41.1429 7.001
    endloop
  endfacet
  facet normal -1 -4.93038e-32 -4.44089e-16
    outer loop
      vertex 29.5714 50.8569 7.001
      vertex 29.5714 50.8579 42
      vertex 29.5714 50.8579 7
    endloop
  endfacet
  facet normal -1 -4.93038e-32 -4.44089e-16
    outer loop
      vertex 29.5714 41.1429 7.001
      vertex 29.5714 50.8579 42
      vertex 29.5714 50.8569 7.001
    endloop
  endfacet
  facet normal -1 -4.93038e-32 -4.44089e-16
    outer loop
      vertex 29.5714 50.8569 7.001
      vertex 29.5714 50.8579 7
      vertex 29.5714 50.8569 7
    endloop
  endfacet
  facet normal -9.86076e-32 -1 2.22045e-16
    outer loop
      vertex 36.5714 41.1429 7.001
      vertex 36.5714 41.1429 42
      vertex 29.5714 41.1429 42
    endloop
  endfacet
  facet normal -9.86076e-32 -1 2.22045e-16
    outer loop
      vertex 29.5714 41.1429 7.001
      vertex 36.5714 41.1429 7.001
      vertex 29.5714 41.1429 42
    endloop
  endfacet
  facet normal -1 -4.93038e-32 -4.44089e-16
    outer loop
      vertex 36.5714 29.1429 42
      vertex 36.5714 41.1429 42
      vertex 36.5714 29.1429 7.001
    endloop
  endfacet
  facet normal -1 -4.93038e-32 -4.44089e-16
    outer loop
      vertex 36.5714 29.1429 7.001
      vertex 36.5714 41.1429 42
      vertex 36.5714 41.1429 7.001
    endloop
  endfacet
  facet normal -9.86076e-32 -1 2.22045e-16
    outer loop
      vertex 39.4284 29.1429 7.001
      vertex 39.4284 29.1429 42
      vertex 36.5714 29.1429 42
    endloop
  endfacet
  facet normal -9.86076e-32 -1 2.22045e-16
    outer loop
      vertex 36.5714 29.1429 7.001
      vertex 39.4284 29.1429 7.001
      vertex 36.5714 29.1429 42
    endloop
  endfacet
  facet normal 1 4.93038e-32 4.44089e-16
    outer loop
      vertex 39.4284 50.8579 42
      vertex 39.4284 29.1429 42
      vertex 39.4284 29.1429 7.001
    endloop
  endfacet
  facet normal 1 4.93038e-32 4.44089e-16
    outer loop
      vertex 39.4284 50.8579 7.001
      vertex 39.4284 50.8579 42
      vertex 39.4284 29.1429 7.001
    endloop
  endfacet
  facet normal 9.86076e-32 1 -2.22045e-16
    outer loop
      vertex 39.4284 50.8579 42
      vertex 39.4284 50.8579 7.001
      vertex 29.5714 50.8579 42
    endloop
  endfacet
  facet normal 9.86076e-32 1 -2.22045e-16
    outer loop
      vertex 29.5714 50.8579 42
      vertex 39.4284 50.8579 7.001
      vertex 29.5724 50.8579 7.001
    endloop
  endfacet
  facet normal 9.86076e-32 1 -2.22045e-16
    outer loop
      vertex 29.5714 50.8579 42
      vertex 29.5724 50.8579 7.001
      vertex 29.5724 50.8579 7
    endloop
  endfacet
  facet normal 9.86076e-32 1 -2.22045e-16
    outer loop
      vertex 29.5714 50.8579 42
      vertex 29.5724 50.8579 7
      vertex 29.5714 50.8579 7
    endloop
  endfacet
  facet normal -1 -4.93038e-32 -4.44089e-16
    outer loop
      vertex 39.4286 50.8571 42
      vertex 39.4286 60.5721 42
      vertex 39.4286 50.8571 7.001
    endloop
  endfacet
  facet normal -1 -4.93038e-32 -4.44089e-16
    outer loop
      vertex 39.4286 60.5712 7.001
      vertex 39.4286 60.5721 42
      vertex 39.4286 60.5721 7
    endloop
  endfacet
  facet normal -1 -4.93038e-32 -4.44089e-16
    outer loop
      vertex 39.4286 50.8571 7.001
      vertex 39.4286 60.5721 42
      vertex 39.4286 60.5712 7.001
    endloop
  endfacet
  facet normal -1 -4.93038e-32 -4.44089e-16
    outer loop
      vertex 39.4286 60.5712 7.001
      vertex 39.4286 60.5721 7
      vertex 39.4286 60.5712 7
    endloop
  endfacet
  facet normal -9.86076e-32 -1 2.22045e-16
    outer loop
      vertex 46.4286 50.8571 7.001
      vertex 46.4286 50.8571 42
      vertex 39.4286 50.8571 42
    endloop
  endfacet
  facet normal -9.86076e-32 -1 2.22045e-16
    outer loop
      vertex 39.4286 50.8571 7.001
      vertex 46.4286 50.8571 7.001
      vertex 39.4286 50.8571 42
    endloop
  endfacet
  facet normal -1 -4.93038e-32 -4.44089e-16
    outer loop
      vertex 46.4286 38.8571 42
      vertex 46.4286 50.8571 42
      vertex 46.4286 38.8571 7.001
    endloop
  endfacet
  facet normal -1 -4.93038e-32 -4.44089e-16
    outer loop
      vertex 46.4286 38.8571 7.001
      vertex 46.4286 50.8571 42
      vertex 46.4286 50.8571 7.001
    endloop
  endfacet
  facet normal -9.86076e-32 -1 2.22045e-16
    outer loop
      vertex 49.2856 38.8571 7.001
      vertex 49.2856 38.8571 42
      vertex 46.4286 38.8571 42
    endloop
  endfacet
  facet normal -9.86076e-32 -1 2.22045e-16
    outer loop
      vertex 46.4286 38.8571 7.001
      vertex 49.2856 38.8571 7.001
      vertex 46.4286 38.8571 42
    endloop
  endfacet
  facet normal 1 4.93038e-32 4.44089e-16
    outer loop
      vertex 49.2856 60.5721 42
      vertex 49.2856 38.8571 42
      vertex 49.2856 38.8571 7.001
    endloop
  endfacet
  facet normal 1 4.93038e-32 4.44089e-16
    outer loop
      vertex 49.2856 60.5721 7.001
      vertex 49.2856 60.5721 42
      vertex 49.2856 38.8571 7.001
    endloop
  endfacet
  facet normal 9.86076e-32 1 -2.22045e-16
    outer loop
      vertex 49.2856 60.5721 42
      vertex 49.2856 60.5721 7.001
      vertex 39.4286 60.5721 42
    endloop
  endfacet
  facet normal 9.86076e-32 1 -2.22045e-16
    outer loop
      vertex 39.4286 60.5721 42
      vertex 49.2856 60.5721 7.001
      vertex 39.4295 60.5721 7.001
    endloop
  endfacet
  facet normal 9.86076e-32 1 -2.22045e-16
    outer loop
      vertex 39.4286 60.5721 42
      vertex 39.4295 60.5721 7.001
      vertex 39.4295 60.5721 7
    endloop
  endfacet
  facet normal 9.86076e-32 1 -2.22045e-16
    outer loop
      vertex 39.4286 60.5721 42
      vertex 39.4295 60.5721 7
      vertex 39.4286 60.5721 7
    endloop
  endfacet
  facet normal -1 -4.93038e-32 -4.44089e-16
    outer loop
      vertex 49.2857 60.5714 42
      vertex 49.2857 70.2864 42
      vertex 49.2857 60.5714 7.001
    endloop
  endfacet
  facet normal -1 -4.93038e-32 -4.44089e-16
    outer loop
      vertex 49.2857 70.2855 7.001
      vertex 49.2857 70.2864 42
      vertex 49.2857 70.2864 7
    endloop
  endfacet
  facet normal -1 -4.93038e-32 -4.44089e-16
    outer loop
      vertex 49.2857 60.5714 7.001
      vertex 49.2857 70.2864 42
      vertex 49.2857 70.2855 7.001
    endloop
  endfacet
  facet normal -1 -4.93038e-32 -4.44089e-16
    outer loop
      vertex 49.2857 70.2855 7.001
      vertex 49.2857 70.2864 7
      vertex 49.2857 70.2855 7
    endloop
  endfacet
  facet normal -9.86076e-32 -1 2.22045e-16
    outer loop
      vertex 56.2857 60.5714 7.001
      vertex 56.2857 60.5714 42
      vertex 49.2857 60.5714 42
    endloop
  endfacet
  facet normal -9.86076e-32 -1 2.22045e-16
    outer loop
      vertex 49.2857 60.5714 7.001
      vertex 56.2857 60.5714 7.001
      vertex 49.2857 60.5714 42
    endloop
  endfacet
  facet normal -1 -4.93038e-32 -4.44089e-16
    outer loop
      vertex 56.2857 48.5714 42
      vertex 56.2857 60.5714 42
      vertex 56.2857 48.5714 7.001
    endloop
  endfacet
  facet normal -1 -4.93038e-32 -4.44089e-16
    outer loop
      vertex 56.2857 48.5714 7.001
      vertex 56.2857 60.5714 42
      vertex 56.2857 60.5714 7.001
    endloop
  endfacet
  facet normal -9.86076e-32 -1 2.22045e-16
    outer loop
      vertex 59.1427 48.5714 7.001
      vertex 59.1427 48.5714 42
      vertex 56.2857 48.5714 42
    endloop
  endfacet
  facet normal -9.86076e-32 -1 2.22045e-16
    outer loop
      vertex 56.2857 48.5714 7.001
      vertex 59.1427 48.5714 7.001
      vertex 56.2857 48.5714 42
    endloop
  endfacet
  facet normal 1 4.93038e-32 4.44089e-16
    outer loop
      vertex 59.1427 70.2864 42
      vertex 59.1427 48.5714 42
      vertex 59.1427 48.5714 7.001
    endloop
  endfacet
  facet normal 1 4.93038e-32 4.44089e-16
    outer loop
      vertex 59.1427 70.2864 7.001
      vertex 59.1427 70.2864 42
      vertex 59.1427 48.5714 7.001
    endloop
  endfacet
  facet normal 9.86076e-32 1 -2.22045e-16
    outer loop
      vertex 59.1427 70.2864 42
      vertex 59.1427 70.2864 7.001
      vertex 49.2857 70.2864 42
    endloop
  endfacet
  facet normal 9.86076e-32 1 -2.22045e-16
    outer loop
      vertex 49.2857 70.2864 42
      vertex 59.1427 70.2864 7.001
      vertex 49.2866 70.2864 7.001
    endloop
  endfacet
  facet normal 9.86076e-32 1 -2.22045e-16
    outer loop
      vertex 49.2857 70.2864 42
      vertex 49.2866 70.2864 7.001
      vertex 49.2866 70.2864 7
    endloop
  endfacet
  facet normal 9.86076e-32 1 -2.22045e-16
    outer loop
      vertex 49.2857 70.2864 42
      vertex 49.2866 70.2864 7
      vertex 49.2857 70.2864 7
    endloop
  endfacet
  facet normal 1 0 2.22045e-16
    outer loop
      vertex 69 93 42
      vertex 69 79.999 42
      vertex 69 79.999 7.001
    endloop
  endfacet
  facet normal 1 0 2.22045e-16
    outer loop
      vertex 69 80 7
      vertex 69 93 42
      vertex 69 80 7.001
    endloop
  endfacet
  facet normal 1 0 2.22045e-16
    outer loop
      vertex 69 80 7.001
      vertex 69 93 42
      vertex 69 79.999 7.001
    endloop
  endfacet
  facet normal 1 0 2.22045e-16
    outer loop
      vertex 69 93 7
      vertex 69 93 42
      vertex 69 80 7
    endloop
  endfacet
  facet normal 9.86076e-32 1 -2.22045e-16
    outer loop
      vertex 89 80 7.001
      vertex 89 80 1.9984e-14
      vertex 69 80 7.001
    endloop
  endfacet
  facet normal 9.86076e-32 1 -2.22045e-16
    outer loop
      vertex 68.9999 80 7
      vertex 89 80 1.9984e-14
      vertex 59.143 80 6.72484e-15
    endloop
  endfacet
  facet normal 9.86076e-32 1 -2.22045e-16
    outer loop
      vertex 69 80 7
      vertex 89 80 1.9984e-14
      vertex 68.9999 80 7
    endloop
  endfacet
  facet normal 9.86076e-32 1 -2.22045e-16
    outer loop
      vertex 69 80 7.001
      vertex 89 80 1.9984e-14
      vertex 69 80 7
    endloop
  endfacet
  facet normal 9.86076e-32 1 -2.22045e-16
    outer loop
      vertex 68.9999 80 7
      vertex 59.143 80 6.72484e-15
      vertex 59.143 80 7
    endloop
  endfacet
  facet normal 1 4.93038e-32 4.44089e-16
    outer loop
      vertex 89 80 7.001
      vertex 89 58.286 7.001
      vertex 89 58.286 2.48055e-14
    endloop
  endfacet
  facet normal 1 4.93038e-32 4.44089e-16
    outer loop
      vertex 89 80 1.9984e-14
      vertex 89 80 7.001
      vertex 89 58.286 2.48055e-14
    endloop
  endfacet
  facet normal 4.44089e-16 -2.22045e-16 -1
    outer loop
      vertex 59.1429 80 7
      vertex 59.143 80 7
      vertex 59.1429 79.9999 7
    endloop
  endfacet
  facet normal 4.44089e-16 -2.22045e-16 -1
    outer loop
      vertex 68.9999 80 7
      vertex 59.143 80 7
      vertex 59.1429 80 7
    endloop
  endfacet
  facet normal 0 -1 0
    outer loop
      vertex 89 80 7
      vertex 69 80 7
      vertex 89 80 1.9762e-14
    endloop
  endfacet
  facet normal 0 -1 0
    outer loop
      vertex 69 80 7
      vertex 68.9999 80 7
      vertex 89 80 1.9762e-14
    endloop
  endfacet
  facet normal 0 -1 0
    outer loop
      vertex 89 80 1.9762e-14
      vertex 59.1429 80 7
      vertex 59.1429 80 1.31324e-14
    endloop
  endfacet
  facet normal 0 -1 0
    outer loop
      vertex 68.9999 80 7
      vertex 59.1429 80 7
      vertex 89 80 1.9762e-14
    endloop
  endfacet
  facet normal -2.22045e-16 0 1
    outer loop
      vertex 65 80.0007 7
      vertex 59.1429 93 7
      vertex 59.1429 80.0007 7
    endloop
  endfacet
  facet normal -2.22045e-16 0 1
    outer loop
      vertex 59.1429 80.0007 7
      vertex 59.1429 93 7
      vertex 59.1429 80 7
    endloop
  endfacet
  facet normal -2.22045e-16 0 1
    outer loop
      vertex 65 93 7
      vertex 59.1429 93 7
      vertex 65 80.0007 7
    endloop
  endfacet
  facet normal 0 -1 0
    outer loop
      vertex 65 93 42
      vertex 59.1429 93 42
      vertex 59.1429 93 7
    endloop
  endfacet
  facet normal 0 -1 0
    outer loop
      vertex 65 93 7
      vertex 65 93 42
      vertex 59.1429 93 7
    endloop
  endfacet
  facet normal -2.22045e-16 0 1
    outer loop
      vertex 65 93 42
      vertex 65 79.999 42
      vertex 69 79.999 42
    endloop
  endfacet
  facet normal -2.22045e-16 0 1
    outer loop
      vertex 89 100 42
      vertex 65 93 42
      vertex 69 93 42
    endloop
  endfacet
  facet normal -2.22045e-16 0 1
    outer loop
      vertex 69 93 42
      vertex 65 93 42
      vertex 69 79.999 42
    endloop
  endfacet
  facet normal -2.22045e-16 0 1
    outer loop
      vertex 89 100 42
      vertex 69 93 42
      vertex 89 93 42
    endloop
  endfacet
  facet normal -2.22045e-16 0 1
    outer loop
      vertex 59.1429 100 42
      vertex 65 93 42
      vertex 89 100 42
    endloop
  endfacet
  facet normal -2.22045e-16 0 1
    outer loop
      vertex 59.1429 93 42
      vertex 65 93 42
      vertex 59.1429 100 42
    endloop
  endfacet
  facet normal 4.44089e-16 -2.22045e-16 -1
    outer loop
      vertex 89 58.286 2.48055e-14
      vertex 29.857 -1.55453e-15 1.14828e-14
      vertex 89 80 1.9984e-14
    endloop
  endfacet
  facet normal 4.44089e-16 -2.22045e-16 -1
    outer loop
      vertex 89 80 1.9984e-14
      vertex 29.857 -1.55453e-15 1.14828e-14
      vertex 1.55453e-15 -1.55453e-15 -1.77636e-15
    endloop
  endfacet
  facet normal 4.44089e-16 -2.22045e-16 -1
    outer loop
      vertex 89 80 1.9984e-14
      vertex 1.55453e-15 -1.55453e-15 -1.77636e-15
      vertex 1.55453e-15 21.714 -6.59783e-15
    endloop
  endfacet
  facet normal 4.44089e-16 -2.22045e-16 -1
    outer loop
      vertex 89 80 1.9984e-14
      vertex 1.55453e-15 21.714 -6.59783e-15
      vertex 59.143 80 6.72484e-15
    endloop
  endfacet
  facet normal -1 -4.93038e-32 -4.44089e-16
    outer loop
      vertex -1.55453e-15 0 7.001
      vertex -1.55453e-15 21.714 7.001
      vertex 1.55453e-15 -1.55453e-15 -1.77636e-15
    endloop
  endfacet
  facet normal -1 -4.93038e-32 -4.44089e-16
    outer loop
      vertex 1.55453e-15 -1.55453e-15 -1.77636e-15
      vertex -1.55453e-15 21.714 7.001
      vertex 1.55453e-15 21.714 -6.59783e-15
    endloop
  endfacet
  facet normal -4.44089e-16 2.22045e-16 1
    outer loop
      vertex -1.55453e-15 0 7.001
      vertex 7 0 7.001
      vertex 7 12 7.001
    endloop
  endfacet
  facet normal -4.44089e-16 2.22045e-16 1
    outer loop
      vertex 6.2168e-15 21.714 7.001
      vertex -1.55453e-15 0 7.001
      vertex 6.2168e-15 12 7.001
    endloop
  endfacet
  facet normal -4.44089e-16 2.22045e-16 1
    outer loop
      vertex 6.2168e-15 12 7.001
      vertex -1.55453e-15 0 7.001
      vertex 7 12 7.001
    endloop
  endfacet
  facet normal -4.44089e-16 2.22045e-16 1
    outer loop
      vertex -1.55453e-15 21.714 7.001
      vertex -1.55453e-15 0 7.001
      vertex 6.2168e-15 21.714 7.001
    endloop
  endfacet
  facet normal -1 -4.93038e-32 -4.44089e-16
    outer loop
      vertex 7 -2.22045e-19 7
      vertex 7 -7.77156e-15 7
      vertex 7 0 7.001
    endloop
  endfacet
  facet normal -1 -4.93038e-32 -4.44089e-16
    outer loop
      vertex 7 0 42
      vertex 7 12 42
      vertex 7 0 7.001
    endloop
  endfacet
  facet normal -1 -4.93038e-32 -4.44089e-16
    outer loop
      vertex 7 0 42
      vertex 7 0 7.001
      vertex 7 -7.77156e-15 7
    endloop
  endfacet
  facet normal -1 -4.93038e-32 -4.44089e-16
    outer loop
      vertex 7 0 7.001
      vertex 7 12 42
      vertex 7 12 7.001
    endloop
  endfacet
  facet normal 4.44089e-16 -2.22045e-16 -1
    outer loop
      vertex 9.857 -7.77156e-15 7
      vertex 7 -7.77156e-15 7
      vertex 9.857 -2.22045e-19 7
    endloop
  endfacet
  facet normal 4.44089e-16 -2.22045e-16 -1
    outer loop
      vertex 9.857 -2.22045e-19 7
      vertex 7 -7.77156e-15 7
      vertex 7 -2.22045e-19 7
    endloop
  endfacet
  facet normal -4.44089e-16 2.22045e-16 1
    outer loop
      vertex 7 0 42
      vertex 9.857 0 42
      vertex 9.857 21.715 42
    endloop
  endfacet
  facet normal -4.44089e-16 2.22045e-16 1
    outer loop
      vertex 7 12 42
      vertex 7 0 42
      vertex 9.857 21.715 42
    endloop
  endfacet
  facet normal -4.44089e-16 2.22045e-16 1
    outer loop
      vertex -9.32587e-15 21.715 42
      vertex 7 12 42
      vertex 9.857 21.715 42
    endloop
  endfacet
  facet normal -4.44089e-16 2.22045e-16 1
    outer loop
      vertex -9.32587e-15 12 42
      vertex 7 12 42
      vertex -9.32587e-15 21.715 42
    endloop
  endfacet
  facet normal -9.86076e-32 -1 2.22045e-16
    outer loop
      vertex 9.857 -7.77156e-15 7
      vertex 9.857 0 42
      vertex 7 0 42
    endloop
  endfacet
  facet normal -9.86076e-32 -1 2.22045e-16
    outer loop
      vertex 7 -7.77156e-15 7
      vertex 9.857 -7.77156e-15 7
      vertex 7 0 42
    endloop
  endfacet
  facet normal -1 -4.93038e-32 -4.44089e-16
    outer loop
      vertex -9.32587e-15 12 42
      vertex -9.32587e-15 21.715 42
      vertex 6.2168e-15 12 7.001
    endloop
  endfacet
  facet normal -1 -4.93038e-32 -4.44089e-16
    outer loop
      vertex 6.2168e-15 21.714 7.001
      vertex -9.32587e-15 21.715 42
      vertex 6.21725e-15 21.715 7
    endloop
  endfacet
  facet normal -1 -4.93038e-32 -4.44089e-16
    outer loop
      vertex 6.2168e-15 12 7.001
      vertex -9.32587e-15 21.715 42
      vertex 6.2168e-15 21.714 7.001
    endloop
  endfacet
  facet normal -1 -4.93038e-32 -4.44089e-16
    outer loop
      vertex 6.2168e-15 21.714 7.001
      vertex 6.21725e-15 21.715 7
      vertex 6.21725e-15 21.714 7
    endloop
  endfacet
  facet normal 4.44089e-16 -2.22045e-16 -1
    outer loop
      vertex 6.21725e-15 21.715 7
      vertex 0.0010147 21.715 7
      vertex 6.21725e-15 21.714 7
    endloop
  endfacet
  facet normal 4.44089e-16 -2.22045e-16 -1
    outer loop
      vertex 49.2857 70.2864 7
      vertex 49.2866 70.2864 7
      vertex 49.2857 70.2855 7
    endloop
  endfacet
  facet normal 4.44089e-16 -2.22045e-16 -1
    outer loop
      vertex 39.4286 60.5721 7
      vertex 39.4295 60.5721 7
      vertex 39.4286 60.5712 7
    endloop
  endfacet
  facet normal 4.44089e-16 -2.22045e-16 -1
    outer loop
      vertex 29.5714 50.8579 7
      vertex 29.5724 50.8579 7
      vertex 29.5714 50.8569 7
    endloop
  endfacet
  facet normal 4.44089e-16 -2.22045e-16 -1
    outer loop
      vertex 19.7143 41.1436 7
      vertex 19.7153 41.1436 7
      vertex 19.7143 41.1426 7
    endloop
  endfacet
  facet normal 4.44089e-16 -2.22045e-16 -1
    outer loop
      vertex 9.85714 31.4293 7
      vertex 9.85813 31.4293 7
      vertex 9.85714 31.4283 7
    endloop
  endfacet
  facet normal -4.44089e-16 2.22045e-16 1
    outer loop
      vertex 16.8571 9.71429 42
      vertex 19.7141 9.71429 42
      vertex 19.7141 31.4293 42
    endloop
  endfacet
  facet normal -4.44089e-16 2.22045e-16 1
    outer loop
      vertex 16.8571 21.7143 42
      vertex 16.8571 9.71429 42
      vertex 19.7141 31.4293 42
    endloop
  endfacet
  facet normal -4.44089e-16 2.22045e-16 1
    outer loop
      vertex 9.85714 31.4293 42
      vertex 16.8571 21.7143 42
      vertex 19.7141 31.4293 42
    endloop
  endfacet
  facet normal -4.44089e-16 2.22045e-16 1
    outer loop
      vertex 9.85714 21.7143 42
      vertex 16.8571 21.7143 42
      vertex 9.85714 31.4293 42
    endloop
  endfacet
  facet normal -4.44089e-16 2.22045e-16 1
    outer loop
      vertex 26.7143 19.4286 42
      vertex 29.5713 19.4286 42
      vertex 29.5713 41.1436 42
    endloop
  endfacet
  facet normal -4.44089e-16 2.22045e-16 1
    outer loop
      vertex 26.7143 31.4286 42
      vertex 26.7143 19.4286 42
      vertex 29.5713 41.1436 42
    endloop
  endfacet
  facet normal -4.44089e-16 2.22045e-16 1
    outer loop
      vertex 19.7143 41.1436 42
      vertex 26.7143 31.4286 42
      vertex 29.5713 41.1436 42
    endloop
  endfacet
  facet normal -4.44089e-16 2.22045e-16 1
    outer loop
      vertex 19.7143 31.4286 42
      vertex 26.7143 31.4286 42
      vertex 19.7143 41.1436 42
    endloop
  endfacet
  facet normal -4.44089e-16 2.22045e-16 1
    outer loop
      vertex 36.5714 29.1429 42
      vertex 39.4284 29.1429 42
      vertex 39.4284 50.8579 42
    endloop
  endfacet
  facet normal -4.44089e-16 2.22045e-16 1
    outer loop
      vertex 36.5714 41.1429 42
      vertex 36.5714 29.1429 42
      vertex 39.4284 50.8579 42
    endloop
  endfacet
  facet normal -4.44089e-16 2.22045e-16 1
    outer loop
      vertex 29.5714 50.8579 42
      vertex 36.5714 41.1429 42
      vertex 39.4284 50.8579 42
    endloop
  endfacet
  facet normal -4.44089e-16 2.22045e-16 1
    outer loop
      vertex 29.5714 41.1429 42
      vertex 36.5714 41.1429 42
      vertex 29.5714 50.8579 42
    endloop
  endfacet
  facet normal -4.44089e-16 2.22045e-16 1
    outer loop
      vertex 46.4286 38.8571 42
      vertex 49.2856 38.8571 42
      vertex 49.2856 60.5721 42
    endloop
  endfacet
  facet normal -4.44089e-16 2.22045e-16 1
    outer loop
      vertex 46.4286 50.8571 42
      vertex 46.4286 38.8571 42
      vertex 49.2856 60.5721 42
    endloop
  endfacet
  facet normal -4.44089e-16 2.22045e-16 1
    outer loop
      vertex 39.4286 60.5721 42
      vertex 46.4286 50.8571 42
      vertex 49.2856 60.5721 42
    endloop
  endfacet
  facet normal -4.44089e-16 2.22045e-16 1
    outer loop
      vertex 39.4286 50.8571 42
      vertex 46.4286 50.8571 42
      vertex 39.4286 60.5721 42
    endloop
  endfacet
  facet normal -4.44089e-16 2.22045e-16 1
    outer loop
      vertex 56.2857 48.5714 42
      vertex 59.1427 48.5714 42
      vertex 59.1427 70.2864 42
    endloop
  endfacet
  facet normal -4.44089e-16 2.22045e-16 1
    outer loop
      vertex 56.2857 60.5714 42
      vertex 56.2857 48.5714 42
      vertex 59.1427 70.2864 42
    endloop
  endfacet
  facet normal -4.44089e-16 2.22045e-16 1
    outer loop
      vertex 49.2857 70.2864 42
      vertex 56.2857 60.5714 42
      vertex 59.1427 70.2864 42
    endloop
  endfacet
  facet normal -4.44089e-16 2.22045e-16 1
    outer loop
      vertex 49.2857 60.5714 42
      vertex 56.2857 60.5714 42
      vertex 49.2857 70.2864 42
    endloop
  endfacet
  facet normal 0 -1 0
    outer loop
      vertex 89 93 42
      vertex 69 93 42
      vertex 69 93 7
    endloop
  endfacet
  facet normal 0 -1 0
    outer loop
      vertex 89 93 7
      vertex 89 93 42
      vertex 69 93 7
    endloop
  endfacet
  facet normal -2.22045e-16 0 1
    outer loop
      vertex 69 93 7
      vertex 69 80 7
      vertex 89 80 7
    endloop
  endfacet
  facet normal -2.22045e-16 0 1
    outer loop
      vertex 89 93 7
      vertex 69 93 7
      vertex 89 80 7
    endloop
  endfacet
  facet normal 1 0 2.22045e-16
    outer loop
      vertex 89 100 42
      vertex 89 93 42
      vertex 89 93 7
    endloop
  endfacet
  facet normal 1 0 2.22045e-16
    outer loop
      vertex 89 100 1.9762e-14
      vertex 89 100 42
      vertex 89 93 7
    endloop
  endfacet
  facet normal 1 0 2.22045e-16
    outer loop
      vertex 89 80 7
      vertex 89 80 1.9762e-14
      vertex 89 93 7
    endloop
  endfacet
  facet normal 1 0 2.22045e-16
    outer loop
      vertex 89 80 1.9762e-14
      vertex 89 100 1.9762e-14
      vertex 89 93 7
    endloop
  endfacet
  facet normal 2.22045e-16 0 -1
    outer loop
      vertex 59.1429 80 1.31324e-14
      vertex 59.1429 100 1.31324e-14
      vertex 89 80 1.9762e-14
    endloop
  endfacet
  facet normal 2.22045e-16 0 -1
    outer loop
      vertex 89 80 1.9762e-14
      vertex 59.1429 100 1.31324e-14
      vertex 89 100 1.9762e-14
    endloop
  endfacet
  facet normal -1 0 -2.22045e-16
    outer loop
      vertex 59.1429 93 42
      vertex 59.1429 100 42
      vertex 59.1429 93 7
    endloop
  endfacet
  facet normal -1 0 -2.22045e-16
    outer loop
      vertex 59.1429 93 7
      vertex 59.1429 100 42
      vertex 59.1429 100 1.31324e-14
    endloop
  endfacet
  facet normal -1 0 -2.22045e-16
    outer loop
      vertex 59.1429 93 7
      vertex 59.1429 100 1.31324e-14
      vertex 59.1429 80 1.31324e-14
    endloop
  endfacet
  facet normal -1 0 -2.22045e-16
    outer loop
      vertex 59.1429 93 7
      vertex 59.1429 80 1.31324e-14
      vertex 59.1429 80 7
    endloop
  endfacet
  facet normal 0 1 0
    outer loop
      vertex 59.1429 100 42
      vertex 89 100 42
      vertex 59.1429 100 1.31324e-14
    endloop
  endfacet
  facet normal 0 1 0
    outer loop
      vertex 59.1429 100 1.31324e-14
      vertex 89 100 42
      vertex 89 100 1.9762e-14
    endloop
  endfacet
  facet normal -9.86076e-32 -1 2.22045e-16
    outer loop
      vertex 7 12 7.001
      vertex 7 12 42
      vertex -9.32587e-15 12 42
    endloop
  endfacet
  facet normal -9.86076e-32 -1 2.22045e-16
    outer loop
      vertex 6.2168e-15 12 7.001
      vertex 7 12 7.001
      vertex -9.32587e-15 12 42
    endloop
  endfacet
endsolid OpenSCAD_Model
