solid OpenSCAD_Model
  facet normal -0 0.104532 0.994522
    outer loop
      vertex -2 1.31187 2.96722
      vertex 0 1 3
      vertex 0 1.31187 2.96722
    endloop
  endfacet
  facet normal 0 0.104532 0.994522
    outer loop
      vertex 0 1 3
      vertex -2 1.31187 2.96722
      vertex -2 1 3
    endloop
  endfacet
  facet normal 0 -0.978147 0.207913
    outer loop
      vertex -2 -0.491782 1.65679
      vertex 5 -0.426584 1.96352
      vertex -2 -0.426584 1.96352
    endloop
  endfacet
  facet normal 0 -0.978147 0.207913
    outer loop
      vertex 5 -0.426584 1.96352
      vertex -2 -0.491782 1.65679
      vertex 5 -0.491782 1.65679
    endloop
  endfacet
  facet normal 0 -0.500017 0.866015
    outer loop
      vertex -2 0.389895 2.87032
      vertex 0 0.118322 2.71352
      vertex 0 0.389895 2.87032
    endloop
  endfacet
  facet normal 0 -0.500017 0.866015
    outer loop
      vertex 0 0.118322 2.71352
      vertex -2 0.389895 2.87032
      vertex -2 0.118322 2.71352
    endloop
  endfacet
  facet normal 0 1 -0
    outer loop
      vertex 0 2.49178 1.5
      vertex -2 2.49178 1.65679
      vertex 0 2.49178 1.65679
    endloop
  endfacet
  facet normal 0 1 0
    outer loop
      vertex -2 2.49178 1.65679
      vertex 0 2.49178 1.5
      vertex -2 2.49178 1.5
    endloop
  endfacet
  facet normal -0 0.669113 0.743161
    outer loop
      vertex -2 2.11472 2.5037
      vertex 0 1.88168 2.71352
      vertex 0 2.11472 2.5037
    endloop
  endfacet
  facet normal 0 0.669113 0.743161
    outer loop
      vertex 0 1.88168 2.71352
      vertex -2 2.11472 2.5037
      vertex -2 1.88168 2.71352
    endloop
  endfacet
  facet normal 0 0.913557 0.40671
    outer loop
      vertex 0 2.39014 2.04537
      vertex -2 2.29904 2.25
      vertex 0 2.29904 2.25
    endloop
  endfacet
  facet normal 2.90509e-07 0.913556 0.406712
    outer loop
      vertex -2 2.29904 2.25
      vertex 0 2.39014 2.04537
      vertex -2 2.42658 1.96352
    endloop
  endfacet
  facet normal 0 -0.104533 0.994521
    outer loop
      vertex -2 1 3
      vertex 0 0.688133 2.96722
      vertex 0 1 3
    endloop
  endfacet
  facet normal 0 -0.104533 0.994521
    outer loop
      vertex 0 0.688133 2.96722
      vertex -2 1 3
      vertex -2 0.688133 2.96722
    endloop
  endfacet
  facet normal -0 0.500008 0.866021
    outer loop
      vertex -2 1.88168 2.71352
      vertex 0 1.6101 2.87032
      vertex 0 1.88168 2.71352
    endloop
  endfacet
  facet normal 0 0.500008 0.866021
    outer loop
      vertex 0 1.6101 2.87032
      vertex -2 1.88168 2.71352
      vertex -2 1.6101 2.87032
    endloop
  endfacet
  facet normal -0 0.309015 0.951057
    outer loop
      vertex -2 1.6101 2.87032
      vertex 0 1.31187 2.96722
      vertex 0 1.6101 2.87032
    endloop
  endfacet
  facet normal 0 0.309015 0.951057
    outer loop
      vertex 0 1.31187 2.96722
      vertex -2 1.6101 2.87032
      vertex -2 1.31187 2.96722
    endloop
  endfacet
  facet normal 0 -0.809021 0.587779
    outer loop
      vertex -2 -0.299038 2.25
      vertex 5 -0.114717 2.5037
      vertex -2 -0.114717 2.5037
    endloop
  endfacet
  facet normal 0 -0.809021 0.587779
    outer loop
      vertex 5 -0.114717 2.5037
      vertex -2 -0.299038 2.25
      vertex 5 -0.299038 2.25
    endloop
  endfacet
  facet normal 0 -0.669104 0.743169
    outer loop
      vertex 0 0.118322 2.71352
      vertex -2 0.118322 2.71352
      vertex 0 0 2.60699
    endloop
  endfacet
  facet normal 0 -0.669125 0.74315
    outer loop
      vertex 0 0 2.60699
      vertex 5 -0.114717 2.5037
      vertex 5 0 2.60699
    endloop
  endfacet
  facet normal 0 -0.669125 0.74315
    outer loop
      vertex 0 0 2.60699
      vertex -2 -0.114717 2.5037
      vertex 5 -0.114717 2.5037
    endloop
  endfacet
  facet normal -1.08006e-06 -0.669114 0.74316
    outer loop
      vertex -2 -0.114717 2.5037
      vertex 0 0 2.60699
      vertex -2 0.118322 2.71352
    endloop
  endfacet
  facet normal 0 -0.913549 0.406728
    outer loop
      vertex -2 -0.426584 1.96352
      vertex 5 -0.299038 2.25
      vertex -2 -0.299038 2.25
    endloop
  endfacet
  facet normal 0 -0.913549 0.406728
    outer loop
      vertex 5 -0.299038 2.25
      vertex -2 -0.426584 1.96352
      vertex 5 -0.426584 1.96352
    endloop
  endfacet
  facet normal 0 -0.309007 0.95106
    outer loop
      vertex -2 0.688133 2.96722
      vertex 0 0.389895 2.87032
      vertex 0 0.688133 2.96722
    endloop
  endfacet
  facet normal 0 -0.309007 0.95106
    outer loop
      vertex 0 0.389895 2.87032
      vertex -2 0.688133 2.96722
      vertex -2 0.389895 2.87032
    endloop
  endfacet
  facet normal -0 0.80901 0.587795
    outer loop
      vertex -2 2.29904 2.25
      vertex 0 2.16738 2.43121
      vertex 0 2.29904 2.25
    endloop
  endfacet
  facet normal 2.41527e-06 0.809023 0.587777
    outer loop
      vertex 0 2.16738 2.43121
      vertex -2 2.29904 2.25
      vertex -2 2.11472 2.5037
    endloop
  endfacet
  facet normal 0 0.913554 0.406718
    outer loop
      vertex 0 2.42658 1.96352
      vertex -2 2.42658 1.96352
      vertex 0 2.39014 2.04537
    endloop
  endfacet
  facet normal 0 0.978146 0.207919
    outer loop
      vertex 0 2.49178 1.65679
      vertex -2 2.42658 1.96352
      vertex 0 2.42658 1.96352
    endloop
  endfacet
  facet normal 0 0.978146 0.207919
    outer loop
      vertex -2 2.42658 1.96352
      vertex 0 2.49178 1.65679
      vertex -2 2.49178 1.65679
    endloop
  endfacet
  facet normal 1 0 0
    outer loop
      vertex 5 -0.299038 2.25
      vertex 5 0 2.60699
      vertex 5 -0.114717 2.5037
    endloop
  endfacet
  facet normal 1 0 0
    outer loop
      vertex 5 0 2.60699
      vertex 5 -0.299038 2.25
      vertex 5 -0.491782 1.5
    endloop
  endfacet
  facet normal 1 0 0
    outer loop
      vertex 5 -0.491782 1.5
      vertex 5 -0.299038 2.25
      vertex 5 -0.426584 1.96352
    endloop
  endfacet
  facet normal 1 0 0
    outer loop
      vertex 5 -0.491782 1.5
      vertex 5 -0.426584 1.96352
      vertex 5 -0.491782 1.65679
    endloop
  endfacet
  facet normal 1 0 0
    outer loop
      vertex 5 0 2.60699
      vertex 5 -0.491782 1.5
      vertex 5 0 0
    endloop
  endfacet
  facet normal 1 0 0
    outer loop
      vertex 5 -0.5 0
      vertex 5 -0.491782 1.5
      vertex 5 -0.5 1.5
    endloop
  endfacet
  facet normal 1 0 0
    outer loop
      vertex 5 -0.491782 1.5
      vertex 5 -0.5 0
      vertex 5 0 0
    endloop
  endfacet
  facet normal 0 0.809055 0.587734
    outer loop
      vertex 0 2.16738 2.43121
      vertex -2 2.11472 2.5037
      vertex 0 2.11472 2.5037
    endloop
  endfacet
  facet normal 0 -1 0
    outer loop
      vertex -2 -0.491782 1.5
      vertex 5 -0.491782 1.65679
      vertex -2 -0.491782 1.65679
    endloop
  endfacet
  facet normal 0 -1 -0
    outer loop
      vertex 5 -0.491782 1.65679
      vertex -2 -0.491782 1.5
      vertex 5 -0.491782 1.5
    endloop
  endfacet
  facet normal -1 0 0
    outer loop
      vertex -2 2.5 0
      vertex -2 2.49178 1.5
      vertex -2 2.5 1.5
    endloop
  endfacet
  facet normal -1 0 0
    outer loop
      vertex -2 2.49178 1.5
      vertex -2 2.42658 1.96352
      vertex -2 2.49178 1.65679
    endloop
  endfacet
  facet normal -1 0 0
    outer loop
      vertex -2 -0.491782 1.5
      vertex -2 2.49178 1.5
      vertex -2 2.5 0
    endloop
  endfacet
  facet normal -1 0 -0
    outer loop
      vertex -2 2.29904 2.25
      vertex -2 2.49178 1.5
      vertex -2 -0.491782 1.5
    endloop
  endfacet
  facet normal -1 0 0
    outer loop
      vertex -2 2.49178 1.5
      vertex -2 2.29904 2.25
      vertex -2 2.42658 1.96352
    endloop
  endfacet
  facet normal -1 -0 0
    outer loop
      vertex -2 2.29904 2.25
      vertex -2 -0.491782 1.5
      vertex -2 2.11472 2.5037
    endloop
  endfacet
  facet normal -1 -0 0
    outer loop
      vertex -2 2.11472 2.5037
      vertex -2 -0.491782 1.5
      vertex -2 1.88168 2.71352
    endloop
  endfacet
  facet normal -1 -0 0
    outer loop
      vertex -2 1.88168 2.71352
      vertex -2 -0.491782 1.5
      vertex -2 1.6101 2.87032
    endloop
  endfacet
  facet normal -1 -0 0
    outer loop
      vertex -2 1.6101 2.87032
      vertex -2 -0.491782 1.5
      vertex -2 1.31187 2.96722
    endloop
  endfacet
  facet normal -1 -0 0
    outer loop
      vertex -2 1.31187 2.96722
      vertex -2 -0.491782 1.5
      vertex -2 1 3
    endloop
  endfacet
  facet normal -1 0 0
    outer loop
      vertex -2 1 3
      vertex -2 -0.491782 1.5
      vertex -2 0.688133 2.96722
    endloop
  endfacet
  facet normal -1 0 0
    outer loop
      vertex -2 0.688133 2.96722
      vertex -2 -0.491782 1.5
      vertex -2 0.389895 2.87032
    endloop
  endfacet
  facet normal -1 0 0
    outer loop
      vertex -2 0.389895 2.87032
      vertex -2 -0.491782 1.5
      vertex -2 0.118322 2.71352
    endloop
  endfacet
  facet normal -1 0 0
    outer loop
      vertex -2 0.118322 2.71352
      vertex -2 -0.491782 1.5
      vertex -2 -0.114717 2.5037
    endloop
  endfacet
  facet normal -1 0 0
    outer loop
      vertex -2 -0.114717 2.5037
      vertex -2 -0.491782 1.5
      vertex -2 -0.299038 2.25
    endloop
  endfacet
  facet normal -1 0 0
    outer loop
      vertex -2 -0.299038 2.25
      vertex -2 -0.491782 1.5
      vertex -2 -0.426584 1.96352
    endloop
  endfacet
  facet normal -1 0 0
    outer loop
      vertex -2 -0.5 0
      vertex -2 -0.491782 1.5
      vertex -2 2.5 0
    endloop
  endfacet
  facet normal -1 -0 0
    outer loop
      vertex -2 -0.491782 1.5
      vertex -2 -0.5 0
      vertex -2 -0.5 1.5
    endloop
  endfacet
  facet normal -1 0 0
    outer loop
      vertex -2 -0.426584 1.96352
      vertex -2 -0.491782 1.5
      vertex -2 -0.491782 1.65679
    endloop
  endfacet
  facet normal -0 0 1
    outer loop
      vertex -2 -0.491782 1.5
      vertex 5 -0.5 1.5
      vertex 5 -0.491782 1.5
    endloop
  endfacet
  facet normal 0 0 1
    outer loop
      vertex 5 -0.5 1.5
      vertex -2 -0.491782 1.5
      vertex -2 -0.5 1.5
    endloop
  endfacet
  facet normal -0 0 1
    outer loop
      vertex -2 2.5 1.5
      vertex 0 2.49178 1.5
      vertex 0 2.5 1.5
    endloop
  endfacet
  facet normal 0 0 1
    outer loop
      vertex 0 2.49178 1.5
      vertex -2 2.5 1.5
      vertex -2 2.49178 1.5
    endloop
  endfacet
  facet normal 0 0 -1
    outer loop
      vertex 5 -0.5 0
      vertex 1.5 1 0
      vertex 5 0 0
    endloop
  endfacet
  facet normal 0 0 -1
    outer loop
      vertex 1.5 1 0
      vertex 0 2.5 0
      vertex 1.5 51 0
    endloop
  endfacet
  facet normal 0 0 -1
    outer loop
      vertex -2 -0.5 0
      vertex 1.5 1 0
      vertex 5 -0.5 0
    endloop
  endfacet
  facet normal 0 0 -1
    outer loop
      vertex -2 -0.5 0
      vertex 0 2.5 0
      vertex 1.5 1 0
    endloop
  endfacet
  facet normal -0 0 -1
    outer loop
      vertex 0 2.5 0
      vertex -2 -0.5 0
      vertex -2 2.5 0
    endloop
  endfacet
  facet normal 0 0 -1
    outer loop
      vertex 92 -0.5 0
      vertex 90 2.5 0
      vertex 92 2.5 0
    endloop
  endfacet
  facet normal 0 0 -1
    outer loop
      vertex 88.5 51 0
      vertex 90 2.5 0
      vertex 88.5 1 0
    endloop
  endfacet
  facet normal 0 0 -1
    outer loop
      vertex 92 -0.5 0
      vertex 88.5 1 0
      vertex 90 2.5 0
    endloop
  endfacet
  facet normal 0 0 -1
    outer loop
      vertex 85 -0.5 0
      vertex 88.5 1 0
      vertex 92 -0.5 0
    endloop
  endfacet
  facet normal 0 0 -1
    outer loop
      vertex 85 0 0
      vertex 88.5 1 0
      vertex 85 -0.5 0
    endloop
  endfacet
  facet normal 0 0 -1
    outer loop
      vertex 85 0 0
      vertex 26.5 1 0
      vertex 88.5 1 0
    endloop
  endfacet
  facet normal 0 0 -1
    outer loop
      vertex 26.5 1 0
      vertex 24.5 1 0
      vertex 26.5 51 0
    endloop
  endfacet
  facet normal 0 0 -1
    outer loop
      vertex 5 0 0
      vertex 26.5 1 0
      vertex 85 0 0
    endloop
  endfacet
  facet normal -0 0 -1
    outer loop
      vertex 26.5 1 0
      vertex 5 0 0
      vertex 24.5 1 0
    endloop
  endfacet
  facet normal -0 0 -1
    outer loop
      vertex 24.5 1 0
      vertex 5 0 0
      vertex 1.5 1 0
    endloop
  endfacet
  facet normal 0 0 -1
    outer loop
      vertex 90 2.5 0
      vertex 88.5 51 0
      vertex 90 52 0
    endloop
  endfacet
  facet normal 0 0 -1
    outer loop
      vertex 88.5 51 0
      vertex 46 52 0
      vertex 90 52 0
    endloop
  endfacet
  facet normal 0 0 -1
    outer loop
      vertex 46 52 0
      vertex 38 52 0
      vertex 46 53.2 0
    endloop
  endfacet
  facet normal 0 0 -1
    outer loop
      vertex 26.5 51 0
      vertex 46 52 0
      vertex 88.5 51 0
    endloop
  endfacet
  facet normal -0 0 -1
    outer loop
      vertex 46 52 0
      vertex 26.5 51 0
      vertex 38 52 0
    endloop
  endfacet
  facet normal 0 0 -1
    outer loop
      vertex 24.5 51 0
      vertex 26.5 51 0
      vertex 24.5 1 0
    endloop
  endfacet
  facet normal 0 0 -1
    outer loop
      vertex 24.5 51 0
      vertex 38 52 0
      vertex 26.5 51 0
    endloop
  endfacet
  facet normal 0 0 -1
    outer loop
      vertex 0 52 0
      vertex 24.5 51 0
      vertex 1.5 51 0
    endloop
  endfacet
  facet normal 0 0 -1
    outer loop
      vertex 24.5 51 0
      vertex 0 52 0
      vertex 38 52 0
    endloop
  endfacet
  facet normal 0 0 -1
    outer loop
      vertex 0 52 0
      vertex 1.5 51 0
      vertex 0 2.5 0
    endloop
  endfacet
  facet normal -0 0 -1
    outer loop
      vertex 46 53.2 0
      vertex 38 52 0
      vertex 38 53.2 0
    endloop
  endfacet
  facet normal 0 0 -1
    outer loop
      vertex 1.9 1.4 0
      vertex 24.1 50.6 0
      vertex 24.1 1.4 0
    endloop
  endfacet
  facet normal -0 0 -1
    outer loop
      vertex 24.1 50.6 0
      vertex 1.9 1.4 0
      vertex 1.9 50.6 0
    endloop
  endfacet
  facet normal 0 0 -1
    outer loop
      vertex 26.9 1.4 0
      vertex 88.1 50.6 0
      vertex 88.1 1.4 0
    endloop
  endfacet
  facet normal -0 0 -1
    outer loop
      vertex 88.1 50.6 0
      vertex 26.9 1.4 0
      vertex 26.9 50.6 0
    endloop
  endfacet
  facet normal 0 -1 0
    outer loop
      vertex -2 -0.5 0
      vertex 5 -0.5 1.5
      vertex -2 -0.5 1.5
    endloop
  endfacet
  facet normal 0 -1 -0
    outer loop
      vertex 5 -0.5 1.5
      vertex -2 -0.5 0
      vertex 5 -0.5 0
    endloop
  endfacet
  facet normal 0 1 -0
    outer loop
      vertex 0 2.5 0
      vertex -2 2.5 1.5
      vertex 0 2.5 1.5
    endloop
  endfacet
  facet normal 0 1 0
    outer loop
      vertex -2 2.5 1.5
      vertex 0 2.5 0
      vertex -2 2.5 0
    endloop
  endfacet
  facet normal -0 0.104532 0.994522
    outer loop
      vertex 90 1.31187 2.96722
      vertex 92 1 3
      vertex 92 1.31187 2.96722
    endloop
  endfacet
  facet normal 0 0.104532 0.994522
    outer loop
      vertex 92 1 3
      vertex 90 1.31187 2.96722
      vertex 90 1 3
    endloop
  endfacet
  facet normal 0 -0.978147 0.207913
    outer loop
      vertex 85 -0.491782 1.65679
      vertex 92 -0.426584 1.96352
      vertex 85 -0.426584 1.96352
    endloop
  endfacet
  facet normal 0 -0.978147 0.207913
    outer loop
      vertex 92 -0.426584 1.96352
      vertex 85 -0.491782 1.65679
      vertex 92 -0.491782 1.65679
    endloop
  endfacet
  facet normal 0 -0.500017 0.866015
    outer loop
      vertex 90 0.389895 2.87032
      vertex 92 0.118322 2.71352
      vertex 92 0.389895 2.87032
    endloop
  endfacet
  facet normal 0 -0.500017 0.866015
    outer loop
      vertex 92 0.118322 2.71352
      vertex 90 0.389895 2.87032
      vertex 90 0.118322 2.71352
    endloop
  endfacet
  facet normal 0 1 -0
    outer loop
      vertex 92 2.49178 1.5
      vertex 90 2.49178 1.65679
      vertex 92 2.49178 1.65679
    endloop
  endfacet
  facet normal 0 1 0
    outer loop
      vertex 90 2.49178 1.65679
      vertex 92 2.49178 1.5
      vertex 90 2.49178 1.5
    endloop
  endfacet
  facet normal -0 0.669113 0.743161
    outer loop
      vertex 90 2.11472 2.5037
      vertex 92 1.88168 2.71352
      vertex 92 2.11472 2.5037
    endloop
  endfacet
  facet normal 0 0.669113 0.743161
    outer loop
      vertex 92 1.88168 2.71352
      vertex 90 2.11472 2.5037
      vertex 90 1.88168 2.71352
    endloop
  endfacet
  facet normal 0 0.913554 0.406718
    outer loop
      vertex 90 2.33548 2.16815
      vertex 90 2.29904 2.25
      vertex 92 2.29904 2.25
    endloop
  endfacet
  facet normal 0 -0.104533 0.994521
    outer loop
      vertex 90 1 3
      vertex 92 0.688133 2.96722
      vertex 92 1 3
    endloop
  endfacet
  facet normal 0 -0.104533 0.994521
    outer loop
      vertex 92 0.688133 2.96722
      vertex 90 1 3
      vertex 90 0.688133 2.96722
    endloop
  endfacet
  facet normal -0 0.500008 0.866021
    outer loop
      vertex 90 1.88168 2.71352
      vertex 92 1.6101 2.87032
      vertex 92 1.88168 2.71352
    endloop
  endfacet
  facet normal 0 0.500008 0.866021
    outer loop
      vertex 92 1.6101 2.87032
      vertex 90 1.88168 2.71352
      vertex 90 1.6101 2.87032
    endloop
  endfacet
  facet normal -0 0.309015 0.951057
    outer loop
      vertex 90 1.6101 2.87032
      vertex 92 1.31187 2.96722
      vertex 92 1.6101 2.87032
    endloop
  endfacet
  facet normal 0 0.309015 0.951057
    outer loop
      vertex 92 1.31187 2.96722
      vertex 90 1.6101 2.87032
      vertex 90 1.31187 2.96722
    endloop
  endfacet
  facet normal 0 -0.809021 0.587779
    outer loop
      vertex 85 -0.299038 2.25
      vertex 92 -0.114717 2.5037
      vertex 85 -0.114717 2.5037
    endloop
  endfacet
  facet normal 0 -0.809021 0.587779
    outer loop
      vertex 92 -0.114717 2.5037
      vertex 85 -0.299038 2.25
      vertex 92 -0.299038 2.25
    endloop
  endfacet
  facet normal 0 -0.669104 0.743169
    outer loop
      vertex 90 0 2.60699
      vertex 92 0.118322 2.71352
      vertex 90 0.118322 2.71352
    endloop
  endfacet
  facet normal 1.08006e-06 -0.669114 0.74316
    outer loop
      vertex 92 0.118322 2.71352
      vertex 90 0 2.60699
      vertex 92 -0.114717 2.5037
    endloop
  endfacet
  facet normal 0 -0.669125 0.74315
    outer loop
      vertex 85 -0.114717 2.5037
      vertex 90 0 2.60699
      vertex 85 0 2.60699
    endloop
  endfacet
  facet normal 0 -0.669125 0.74315
    outer loop
      vertex 90 0 2.60699
      vertex 85 -0.114717 2.5037
      vertex 92 -0.114717 2.5037
    endloop
  endfacet
  facet normal 0 -0.913549 0.406728
    outer loop
      vertex 85 -0.426584 1.96352
      vertex 92 -0.299038 2.25
      vertex 85 -0.299038 2.25
    endloop
  endfacet
  facet normal 0 -0.913549 0.406728
    outer loop
      vertex 92 -0.299038 2.25
      vertex 85 -0.426584 1.96352
      vertex 92 -0.426584 1.96352
    endloop
  endfacet
  facet normal 0 -0.309007 0.95106
    outer loop
      vertex 90 0.688133 2.96722
      vertex 92 0.389895 2.87032
      vertex 92 0.688133 2.96722
    endloop
  endfacet
  facet normal 0 -0.309007 0.95106
    outer loop
      vertex 92 0.389895 2.87032
      vertex 90 0.688133 2.96722
      vertex 90 0.389895 2.87032
    endloop
  endfacet
  facet normal -0 0.808963 0.58786
    outer loop
      vertex 90 2.29904 2.25
      vertex 90 2.24637 2.32248
      vertex 92 2.29904 2.25
    endloop
  endfacet
  facet normal 2.90509e-07 0.913556 0.406712
    outer loop
      vertex 92 2.42658 1.96352
      vertex 90 2.33548 2.16815
      vertex 92 2.29904 2.25
    endloop
  endfacet
  facet normal 0 0.913557 0.40671
    outer loop
      vertex 90 2.33548 2.16815
      vertex 92 2.42658 1.96352
      vertex 90 2.42658 1.96352
    endloop
  endfacet
  facet normal 0 0.978146 0.207919
    outer loop
      vertex 92 2.49178 1.65679
      vertex 90 2.42658 1.96352
      vertex 92 2.42658 1.96352
    endloop
  endfacet
  facet normal 0 0.978146 0.207919
    outer loop
      vertex 90 2.42658 1.96352
      vertex 92 2.49178 1.65679
      vertex 90 2.49178 1.65679
    endloop
  endfacet
  facet normal 1 0 0
    outer loop
      vertex 92 2.49178 1.65679
      vertex 92 2.42658 1.96352
      vertex 92 2.49178 1.5
    endloop
  endfacet
  facet normal 1 -0 0
    outer loop
      vertex 92 2.49178 1.5
      vertex 92 2.5 0
      vertex 92 2.5 1.5
    endloop
  endfacet
  facet normal 1 0 0
    outer loop
      vertex 92 2.29904 2.25
      vertex 92 2.49178 1.5
      vertex 92 2.42658 1.96352
    endloop
  endfacet
  facet normal 1 0 0
    outer loop
      vertex 92 2.49178 1.5
      vertex 92 2.29904 2.25
      vertex 92 -0.491782 1.5
    endloop
  endfacet
  facet normal 1 0 0
    outer loop
      vertex 92 -0.491782 1.5
      vertex 92 2.29904 2.25
      vertex 92 2.11472 2.5037
    endloop
  endfacet
  facet normal 1 0 0
    outer loop
      vertex 92 -0.491782 1.5
      vertex 92 2.11472 2.5037
      vertex 92 1.88168 2.71352
    endloop
  endfacet
  facet normal 1 0 0
    outer loop
      vertex 92 -0.491782 1.5
      vertex 92 1.88168 2.71352
      vertex 92 1.6101 2.87032
    endloop
  endfacet
  facet normal 1 0 0
    outer loop
      vertex 92 -0.491782 1.5
      vertex 92 1.6101 2.87032
      vertex 92 1.31187 2.96722
    endloop
  endfacet
  facet normal 1 0 0
    outer loop
      vertex 92 -0.491782 1.5
      vertex 92 1.31187 2.96722
      vertex 92 1 3
    endloop
  endfacet
  facet normal 1 0 0
    outer loop
      vertex 92 -0.491782 1.5
      vertex 92 1 3
      vertex 92 0.688133 2.96722
    endloop
  endfacet
  facet normal 1 0 0
    outer loop
      vertex 92 -0.491782 1.5
      vertex 92 0.688133 2.96722
      vertex 92 0.389895 2.87032
    endloop
  endfacet
  facet normal 1 0 0
    outer loop
      vertex 92 -0.491782 1.5
      vertex 92 0.389895 2.87032
      vertex 92 0.118322 2.71352
    endloop
  endfacet
  facet normal 1 0 0
    outer loop
      vertex 92 -0.491782 1.5
      vertex 92 0.118322 2.71352
      vertex 92 -0.114717 2.5037
    endloop
  endfacet
  facet normal 1 0 0
    outer loop
      vertex 92 -0.491782 1.5
      vertex 92 -0.114717 2.5037
      vertex 92 -0.299038 2.25
    endloop
  endfacet
  facet normal 1 0 0
    outer loop
      vertex 92 -0.491782 1.5
      vertex 92 -0.299038 2.25
      vertex 92 -0.426584 1.96352
    endloop
  endfacet
  facet normal 1 0 0
    outer loop
      vertex 92 -0.491782 1.5
      vertex 92 -0.426584 1.96352
      vertex 92 -0.491782 1.65679
    endloop
  endfacet
  facet normal 1 0 0
    outer loop
      vertex 92 2.49178 1.5
      vertex 92 -0.491782 1.5
      vertex 92 2.5 0
    endloop
  endfacet
  facet normal 1 0 0
    outer loop
      vertex 92 -0.5 0
      vertex 92 -0.491782 1.5
      vertex 92 -0.5 1.5
    endloop
  endfacet
  facet normal 1 0 0
    outer loop
      vertex 92 -0.491782 1.5
      vertex 92 -0.5 0
      vertex 92 2.5 0
    endloop
  endfacet
  facet normal 0 0.809047 0.587744
    outer loop
      vertex 92 2.11472 2.5037
      vertex 90 2.24637 2.32248
      vertex 90 2.11472 2.5037
    endloop
  endfacet
  facet normal -4.56873e-06 0.809023 0.587777
    outer loop
      vertex 90 2.24637 2.32248
      vertex 92 2.11472 2.5037
      vertex 92 2.29904 2.25
    endloop
  endfacet
  facet normal 0 -1 0
    outer loop
      vertex 85 -0.491782 1.5
      vertex 92 -0.491782 1.65679
      vertex 85 -0.491782 1.65679
    endloop
  endfacet
  facet normal 0 -1 -0
    outer loop
      vertex 92 -0.491782 1.65679
      vertex 85 -0.491782 1.5
      vertex 92 -0.491782 1.5
    endloop
  endfacet
  facet normal -1 0 0
    outer loop
      vertex 85 -0.491782 1.5
      vertex 85 0 2.60699
      vertex 85 0 0
    endloop
  endfacet
  facet normal -1 0 -0
    outer loop
      vertex 85 -0.299038 2.25
      vertex 85 0 2.60699
      vertex 85 -0.491782 1.5
    endloop
  endfacet
  facet normal -1 0 0
    outer loop
      vertex 85 0 2.60699
      vertex 85 -0.299038 2.25
      vertex 85 -0.114717 2.5037
    endloop
  endfacet
  facet normal -1 0 0
    outer loop
      vertex 85 -0.299038 2.25
      vertex 85 -0.491782 1.5
      vertex 85 -0.426584 1.96352
    endloop
  endfacet
  facet normal -1 0 0
    outer loop
      vertex 85 -0.5 0
      vertex 85 -0.491782 1.5
      vertex 85 0 0
    endloop
  endfacet
  facet normal -1 -0 0
    outer loop
      vertex 85 -0.491782 1.5
      vertex 85 -0.5 0
      vertex 85 -0.5 1.5
    endloop
  endfacet
  facet normal -1 0 0
    outer loop
      vertex 85 -0.426584 1.96352
      vertex 85 -0.491782 1.5
      vertex 85 -0.491782 1.65679
    endloop
  endfacet
  facet normal -0 0 1
    outer loop
      vertex 85 -0.491782 1.5
      vertex 92 -0.5 1.5
      vertex 92 -0.491782 1.5
    endloop
  endfacet
  facet normal 0 0 1
    outer loop
      vertex 92 -0.5 1.5
      vertex 85 -0.491782 1.5
      vertex 85 -0.5 1.5
    endloop
  endfacet
  facet normal -0 0 1
    outer loop
      vertex 90 2.5 1.5
      vertex 92 2.49178 1.5
      vertex 92 2.5 1.5
    endloop
  endfacet
  facet normal 0 0 1
    outer loop
      vertex 92 2.49178 1.5
      vertex 90 2.5 1.5
      vertex 90 2.49178 1.5
    endloop
  endfacet
  facet normal 0 -1 0
    outer loop
      vertex 85 -0.5 0
      vertex 92 -0.5 1.5
      vertex 85 -0.5 1.5
    endloop
  endfacet
  facet normal 0 -1 -0
    outer loop
      vertex 92 -0.5 1.5
      vertex 85 -0.5 0
      vertex 92 -0.5 0
    endloop
  endfacet
  facet normal 0 1 -0
    outer loop
      vertex 92 2.5 0
      vertex 90 2.5 1.5
      vertex 92 2.5 1.5
    endloop
  endfacet
  facet normal 0 1 0
    outer loop
      vertex 90 2.5 1.5
      vertex 92 2.5 0
      vertex 90 2.5 0
    endloop
  endfacet
  facet normal -1 0 0
    outer loop
      vertex 38 48 3
      vertex 38 49.6 6.5
      vertex 38 49.6 3
    endloop
  endfacet
  facet normal -1 -0 0
    outer loop
      vertex 38 49.6 6.5
      vertex 38 48 3
      vertex 38 48 6.5
    endloop
  endfacet
  facet normal -0 0 1
    outer loop
      vertex 38 49.6 6.5
      vertex 46 48 6.5
      vertex 46 49.6 6.5
    endloop
  endfacet
  facet normal 0 0 1
    outer loop
      vertex 46 48 6.5
      vertex 38 49.6 6.5
      vertex 38 48 6.5
    endloop
  endfacet
  facet normal 1 -0 0
    outer loop
      vertex 46 48 6.5
      vertex 46 49.6 3
      vertex 46 49.6 6.5
    endloop
  endfacet
  facet normal 1 0 0
    outer loop
      vertex 46 49.6 3
      vertex 46 48 6.5
      vertex 46 48 3
    endloop
  endfacet
  facet normal 0 1 -0
    outer loop
      vertex 46 49.6 3
      vertex 38 49.6 6.5
      vertex 46 49.6 6.5
    endloop
  endfacet
  facet normal 0 1 0
    outer loop
      vertex 38 49.6 6.5
      vertex 46 49.6 3
      vertex 38 49.6 3
    endloop
  endfacet
  facet normal 0 -1 0
    outer loop
      vertex 38 48 3
      vertex 46 48 6.5
      vertex 38 48 6.5
    endloop
  endfacet
  facet normal 0 -1 -0
    outer loop
      vertex 46 48 6.5
      vertex 38 48 3
      vertex 46 48 3
    endloop
  endfacet
  facet normal -1 0 0
    outer loop
      vertex 38 52 3
      vertex 38 53.2 0
      vertex 38 52 0
    endloop
  endfacet
  facet normal -1 0 0
    outer loop
      vertex 38 53.2 0
      vertex 38 52 3
      vertex 38 53.2 6.5
    endloop
  endfacet
  facet normal -1 0 0
    outer loop
      vertex 38 51.6 6.5
      vertex 38 52 3
      vertex 38 51.6 3
    endloop
  endfacet
  facet normal -1 0 0
    outer loop
      vertex 38 52 3
      vertex 38 51.6 6.5
      vertex 38 53.2 6.5
    endloop
  endfacet
  facet normal -0 0 1
    outer loop
      vertex 38 53.2 6.5
      vertex 46 51.6 6.5
      vertex 46 53.2 6.5
    endloop
  endfacet
  facet normal 0 0 1
    outer loop
      vertex 46 51.6 6.5
      vertex 38 53.2 6.5
      vertex 38 51.6 6.5
    endloop
  endfacet
  facet normal 1 0 0
    outer loop
      vertex 46 53.2 6.5
      vertex 46 52 3
      vertex 46 53.2 0
    endloop
  endfacet
  facet normal 1 -0 0
    outer loop
      vertex 46 51.6 6.5
      vertex 46 52 3
      vertex 46 53.2 6.5
    endloop
  endfacet
  facet normal 1 0 0
    outer loop
      vertex 46 52 3
      vertex 46 51.6 6.5
      vertex 46 51.6 3
    endloop
  endfacet
  facet normal 1 0 0
    outer loop
      vertex 46 53.2 0
      vertex 46 52 3
      vertex 46 52 0
    endloop
  endfacet
  facet normal 0 1 -0
    outer loop
      vertex 46 53.2 0
      vertex 38 53.2 6.5
      vertex 46 53.2 6.5
    endloop
  endfacet
  facet normal 0 1 0
    outer loop
      vertex 38 53.2 6.5
      vertex 46 53.2 0
      vertex 38 53.2 0
    endloop
  endfacet
  facet normal 0 -1 0
    outer loop
      vertex 38 51.6 3
      vertex 46 51.6 6.5
      vertex 38 51.6 6.5
    endloop
  endfacet
  facet normal 0 -1 -0
    outer loop
      vertex 46 51.6 6.5
      vertex 38 51.6 3
      vertex 46 51.6 3
    endloop
  endfacet
  facet normal -1 0 0
    outer loop
      vertex 0 0.688133 2.96722
      vertex 0 0 3
      vertex 0 1 3
    endloop
  endfacet
  facet normal -1 0 0
    outer loop
      vertex 0 0.389895 2.87032
      vertex 0 0 3
      vertex 0 0.688133 2.96722
    endloop
  endfacet
  facet normal -1 0 0
    outer loop
      vertex 0 0.118322 2.71352
      vertex 0 0 3
      vertex 0 0.389895 2.87032
    endloop
  endfacet
  facet normal -1 0 0
    outer loop
      vertex 0 0 3
      vertex 0 0.118322 2.71352
      vertex 0 0 2.60699
    endloop
  endfacet
  facet normal -1 0 0
    outer loop
      vertex 0 2.5 1.5
      vertex 0 52 0
      vertex 0 2.5 0
    endloop
  endfacet
  facet normal -1 0 0
    outer loop
      vertex 0 52 0
      vertex 0 2.5 1.5
      vertex 0 52 3
    endloop
  endfacet
  facet normal -1 0 0
    outer loop
      vertex 0 2.49178 1.65679
      vertex 0 2.5 1.5
      vertex 0 2.49178 1.5
    endloop
  endfacet
  facet normal -1 0 0
    outer loop
      vertex 0 2.5 1.5
      vertex 0 2.49178 1.65679
      vertex 0 52 3
    endloop
  endfacet
  facet normal -1 0 0
    outer loop
      vertex 0 2.42658 1.96352
      vertex 0 52 3
      vertex 0 2.49178 1.65679
    endloop
  endfacet
  facet normal -1 0 0
    outer loop
      vertex 0 2.39014 2.04537
      vertex 0 52 3
      vertex 0 2.42658 1.96352
    endloop
  endfacet
  facet normal -1 0 0
    outer loop
      vertex 0 2.29904 2.25
      vertex 0 52 3
      vertex 0 2.39014 2.04537
    endloop
  endfacet
  facet normal -1 0 0
    outer loop
      vertex 0 2.16738 2.43121
      vertex 0 52 3
      vertex 0 2.29904 2.25
    endloop
  endfacet
  facet normal -1 0 0
    outer loop
      vertex 0 2.11472 2.5037
      vertex 0 52 3
      vertex 0 2.16738 2.43121
    endloop
  endfacet
  facet normal -1 0 0
    outer loop
      vertex 0 1.88168 2.71352
      vertex 0 52 3
      vertex 0 2.11472 2.5037
    endloop
  endfacet
  facet normal -1 0 0
    outer loop
      vertex 0 1.6101 2.87032
      vertex 0 52 3
      vertex 0 1.88168 2.71352
    endloop
  endfacet
  facet normal -1 0 0
    outer loop
      vertex 0 1.31187 2.96722
      vertex 0 52 3
      vertex 0 1.6101 2.87032
    endloop
  endfacet
  facet normal -1 -0 0
    outer loop
      vertex 0 52 3
      vertex 0 1.31187 2.96722
      vertex 0 1 3
    endloop
  endfacet
  facet normal -0 0 1
    outer loop
      vertex 0 52 3
      vertex 38 51.6 3
      vertex 38 52 3
    endloop
  endfacet
  facet normal 0 0 1
    outer loop
      vertex 38 51.6 3
      vertex 0 52 3
      vertex 38 49.6 3
    endloop
  endfacet
  facet normal 0 0 1
    outer loop
      vertex 38 49.6 3
      vertex 0 52 3
      vertex 38 48 3
    endloop
  endfacet
  facet normal -0 0 1
    outer loop
      vertex 38 51.6 3
      vertex 46 49.6 3
      vertex 46 51.6 3
    endloop
  endfacet
  facet normal 0 0 1
    outer loop
      vertex 46 49.6 3
      vertex 38 51.6 3
      vertex 38 49.6 3
    endloop
  endfacet
  facet normal -0 0 1
    outer loop
      vertex 46 48 3
      vertex 90 1 3
      vertex 90 52 3
    endloop
  endfacet
  facet normal 0 0 1
    outer loop
      vertex 46 51.6 3
      vertex 90 52 3
      vertex 46 52 3
    endloop
  endfacet
  facet normal 0 0 1
    outer loop
      vertex 46 49.6 3
      vertex 90 52 3
      vertex 46 51.6 3
    endloop
  endfacet
  facet normal 0 0 1
    outer loop
      vertex 46 48 3
      vertex 90 52 3
      vertex 46 49.6 3
    endloop
  endfacet
  facet normal 0 0 1
    outer loop
      vertex 0 1 3
      vertex 90 1 3
      vertex 46 48 3
    endloop
  endfacet
  facet normal 0 0 1
    outer loop
      vertex 0 1 3
      vertex 46 48 3
      vertex 38 48 3
    endloop
  endfacet
  facet normal 0 0 1
    outer loop
      vertex 0 1 3
      vertex 38 48 3
      vertex 0 52 3
    endloop
  endfacet
  facet normal 0 0 1
    outer loop
      vertex 90 1 3
      vertex 0 1 3
      vertex 90 0 3
    endloop
  endfacet
  facet normal 0 0 1
    outer loop
      vertex 90 0 3
      vertex 0 1 3
      vertex 0 0 3
    endloop
  endfacet
  facet normal 1 -0 0
    outer loop
      vertex 90 0 3
      vertex 90 0.688133 2.96722
      vertex 90 1 3
    endloop
  endfacet
  facet normal 1 0 0
    outer loop
      vertex 90 0 3
      vertex 90 0.389895 2.87032
      vertex 90 0.688133 2.96722
    endloop
  endfacet
  facet normal 1 0 0
    outer loop
      vertex 90 0 3
      vertex 90 0.118322 2.71352
      vertex 90 0.389895 2.87032
    endloop
  endfacet
  facet normal 1 0 0
    outer loop
      vertex 90 0.118322 2.71352
      vertex 90 0 3
      vertex 90 0 2.60699
    endloop
  endfacet
  facet normal 1 0 0
    outer loop
      vertex 90 52 3
      vertex 90 2.5 1.5
      vertex 90 52 0
    endloop
  endfacet
  facet normal 1 0 0
    outer loop
      vertex 90 52 3
      vertex 90 2.49178 1.65679
      vertex 90 2.5 1.5
    endloop
  endfacet
  facet normal 1 0 0
    outer loop
      vertex 90 52 3
      vertex 90 2.42658 1.96352
      vertex 90 2.49178 1.65679
    endloop
  endfacet
  facet normal 1 0 0
    outer loop
      vertex 90 52 3
      vertex 90 2.33548 2.16815
      vertex 90 2.42658 1.96352
    endloop
  endfacet
  facet normal 1 0 0
    outer loop
      vertex 90 52 3
      vertex 90 2.29904 2.25
      vertex 90 2.33548 2.16815
    endloop
  endfacet
  facet normal 1 0 0
    outer loop
      vertex 90 52 3
      vertex 90 2.24637 2.32248
      vertex 90 2.29904 2.25
    endloop
  endfacet
  facet normal 1 0 0
    outer loop
      vertex 90 52 3
      vertex 90 2.11472 2.5037
      vertex 90 2.24637 2.32248
    endloop
  endfacet
  facet normal 1 0 0
    outer loop
      vertex 90 52 3
      vertex 90 1.88168 2.71352
      vertex 90 2.11472 2.5037
    endloop
  endfacet
  facet normal 1 0 0
    outer loop
      vertex 90 52 3
      vertex 90 1.6101 2.87032
      vertex 90 1.88168 2.71352
    endloop
  endfacet
  facet normal 1 0 0
    outer loop
      vertex 90 52 3
      vertex 90 1.31187 2.96722
      vertex 90 1.6101 2.87032
    endloop
  endfacet
  facet normal 1 0 -0
    outer loop
      vertex 90 1.31187 2.96722
      vertex 90 52 3
      vertex 90 1 3
    endloop
  endfacet
  facet normal 1 0 0
    outer loop
      vertex 90 52 0
      vertex 90 2.5 1.5
      vertex 90 2.5 0
    endloop
  endfacet
  facet normal 1 0 0
    outer loop
      vertex 90 2.5 1.5
      vertex 90 2.49178 1.65679
      vertex 90 2.49178 1.5
    endloop
  endfacet
  facet normal 0 1 -0
    outer loop
      vertex 90 52 0
      vertex 46 52 3
      vertex 90 52 3
    endloop
  endfacet
  facet normal 0 1 0
    outer loop
      vertex 46 52 3
      vertex 90 52 0
      vertex 46 52 0
    endloop
  endfacet
  facet normal 0 1 -0
    outer loop
      vertex 38 52 0
      vertex 0 52 3
      vertex 38 52 3
    endloop
  endfacet
  facet normal 0 1 0
    outer loop
      vertex 0 52 3
      vertex 38 52 0
      vertex 0 52 0
    endloop
  endfacet
  facet normal 0 -1 0
    outer loop
      vertex 5 0 0
      vertex 85 0 2.60699
      vertex 5 0 2.60699
    endloop
  endfacet
  facet normal 0 -1 -0
    outer loop
      vertex 85 0 2.60699
      vertex 5 0 0
      vertex 85 0 0
    endloop
  endfacet
  facet normal 0 -1 0
    outer loop
      vertex 5 0 2.60699
      vertex 0 0 3
      vertex 0 0 2.60699
    endloop
  endfacet
  facet normal 0 -1 0
    outer loop
      vertex 0 0 3
      vertex 5 0 2.60699
      vertex 90 0 3
    endloop
  endfacet
  facet normal 0 -1 0
    outer loop
      vertex 85 0 2.60699
      vertex 90 0 3
      vertex 5 0 2.60699
    endloop
  endfacet
  facet normal 0 -1 -0
    outer loop
      vertex 90 0 3
      vertex 85 0 2.60699
      vertex 90 0 2.60699
    endloop
  endfacet
  facet normal 1 -0 0
    outer loop
      vertex 1.5 1 0.3
      vertex 1.5 51 0
      vertex 1.5 51 0.3
    endloop
  endfacet
  facet normal 1 0 0
    outer loop
      vertex 1.5 51 0
      vertex 1.5 1 0.3
      vertex 1.5 1 0
    endloop
  endfacet
  facet normal 0 0 -1
    outer loop
      vertex 24.5 1 0.3
      vertex 24.1 1.4 0.3
      vertex 24.5 51 0.3
    endloop
  endfacet
  facet normal 0 0 -1
    outer loop
      vertex 24.5 1 0.3
      vertex 1.9 1.4 0.3
      vertex 24.1 1.4 0.3
    endloop
  endfacet
  facet normal -0 0 -1
    outer loop
      vertex 1.9 1.4 0.3
      vertex 1.5 1 0.3
      vertex 1.9 50.6 0.3
    endloop
  endfacet
  facet normal 0 0 -1
    outer loop
      vertex 1.5 1 0.3
      vertex 1.9 1.4 0.3
      vertex 24.5 1 0.3
    endloop
  endfacet
  facet normal 0 0 -1
    outer loop
      vertex 24.1 50.6 0.3
      vertex 24.5 51 0.3
      vertex 24.1 1.4 0.3
    endloop
  endfacet
  facet normal 0 0 -1
    outer loop
      vertex 1.9 50.6 0.3
      vertex 24.5 51 0.3
      vertex 24.1 50.6 0.3
    endloop
  endfacet
  facet normal 0 0 -1
    outer loop
      vertex 1.9 50.6 0.3
      vertex 1.5 51 0.3
      vertex 24.5 51 0.3
    endloop
  endfacet
  facet normal 0 0 -1
    outer loop
      vertex 1.5 51 0.3
      vertex 1.9 50.6 0.3
      vertex 1.5 1 0.3
    endloop
  endfacet
  facet normal -1 0 0
    outer loop
      vertex 24.5 1 0
      vertex 24.5 51 0.3
      vertex 24.5 51 0
    endloop
  endfacet
  facet normal -1 -0 0
    outer loop
      vertex 24.5 51 0.3
      vertex 24.5 1 0
      vertex 24.5 1 0.3
    endloop
  endfacet
  facet normal 0 -1 0
    outer loop
      vertex 1.5 51 0
      vertex 24.5 51 0.3
      vertex 1.5 51 0.3
    endloop
  endfacet
  facet normal 0 -1 -0
    outer loop
      vertex 24.5 51 0.3
      vertex 1.5 51 0
      vertex 24.5 51 0
    endloop
  endfacet
  facet normal 0 1 -0
    outer loop
      vertex 24.5 1 0
      vertex 1.5 1 0.3
      vertex 24.5 1 0.3
    endloop
  endfacet
  facet normal 0 1 0
    outer loop
      vertex 1.5 1 0.3
      vertex 24.5 1 0
      vertex 1.5 1 0
    endloop
  endfacet
  facet normal -1 0 0
    outer loop
      vertex 1.9 1.4 0
      vertex 1.9 50.6 0.3
      vertex 1.9 50.6 0
    endloop
  endfacet
  facet normal -1 -0 0
    outer loop
      vertex 1.9 50.6 0.3
      vertex 1.9 1.4 0
      vertex 1.9 1.4 0.3
    endloop
  endfacet
  facet normal 1 -0 0
    outer loop
      vertex 24.1 1.4 0.3
      vertex 24.1 50.6 0
      vertex 24.1 50.6 0.3
    endloop
  endfacet
  facet normal 1 0 0
    outer loop
      vertex 24.1 50.6 0
      vertex 24.1 1.4 0.3
      vertex 24.1 1.4 0
    endloop
  endfacet
  facet normal 0 -1 0
    outer loop
      vertex 1.9 1.4 0
      vertex 24.1 1.4 0.3
      vertex 1.9 1.4 0.3
    endloop
  endfacet
  facet normal 0 -1 -0
    outer loop
      vertex 24.1 1.4 0.3
      vertex 1.9 1.4 0
      vertex 24.1 1.4 0
    endloop
  endfacet
  facet normal 0 1 -0
    outer loop
      vertex 24.1 50.6 0
      vertex 1.9 50.6 0.3
      vertex 24.1 50.6 0.3
    endloop
  endfacet
  facet normal 0 1 0
    outer loop
      vertex 1.9 50.6 0.3
      vertex 24.1 50.6 0
      vertex 1.9 50.6 0
    endloop
  endfacet
  facet normal 1 -0 0
    outer loop
      vertex 26.5 1 0.3
      vertex 26.5 51 0
      vertex 26.5 51 0.3
    endloop
  endfacet
  facet normal 1 0 0
    outer loop
      vertex 26.5 51 0
      vertex 26.5 1 0.3
      vertex 26.5 1 0
    endloop
  endfacet
  facet normal 0 0 -1
    outer loop
      vertex 88.5 1 0.3
      vertex 88.1 1.4 0.3
      vertex 88.5 51 0.3
    endloop
  endfacet
  facet normal 0 0 -1
    outer loop
      vertex 88.5 1 0.3
      vertex 26.9 1.4 0.3
      vertex 88.1 1.4 0.3
    endloop
  endfacet
  facet normal -0 0 -1
    outer loop
      vertex 26.9 1.4 0.3
      vertex 26.5 1 0.3
      vertex 26.9 50.6 0.3
    endloop
  endfacet
  facet normal 0 0 -1
    outer loop
      vertex 26.5 1 0.3
      vertex 26.9 1.4 0.3
      vertex 88.5 1 0.3
    endloop
  endfacet
  facet normal 0 0 -1
    outer loop
      vertex 88.1 50.6 0.3
      vertex 88.5 51 0.3
      vertex 88.1 1.4 0.3
    endloop
  endfacet
  facet normal 0 0 -1
    outer loop
      vertex 26.9 50.6 0.3
      vertex 88.5 51 0.3
      vertex 88.1 50.6 0.3
    endloop
  endfacet
  facet normal 0 0 -1
    outer loop
      vertex 26.9 50.6 0.3
      vertex 26.5 51 0.3
      vertex 88.5 51 0.3
    endloop
  endfacet
  facet normal 0 0 -1
    outer loop
      vertex 26.5 51 0.3
      vertex 26.9 50.6 0.3
      vertex 26.5 1 0.3
    endloop
  endfacet
  facet normal -1 0 0
    outer loop
      vertex 88.5 1 0
      vertex 88.5 51 0.3
      vertex 88.5 51 0
    endloop
  endfacet
  facet normal -1 -0 0
    outer loop
      vertex 88.5 51 0.3
      vertex 88.5 1 0
      vertex 88.5 1 0.3
    endloop
  endfacet
  facet normal 0 -1 0
    outer loop
      vertex 26.5 51 0
      vertex 88.5 51 0.3
      vertex 26.5 51 0.3
    endloop
  endfacet
  facet normal 0 -1 -0
    outer loop
      vertex 88.5 51 0.3
      vertex 26.5 51 0
      vertex 88.5 51 0
    endloop
  endfacet
  facet normal 0 1 -0
    outer loop
      vertex 88.5 1 0
      vertex 26.5 1 0.3
      vertex 88.5 1 0.3
    endloop
  endfacet
  facet normal 0 1 0
    outer loop
      vertex 26.5 1 0.3
      vertex 88.5 1 0
      vertex 26.5 1 0
    endloop
  endfacet
  facet normal -1 0 0
    outer loop
      vertex 26.9 1.4 0
      vertex 26.9 50.6 0.3
      vertex 26.9 50.6 0
    endloop
  endfacet
  facet normal -1 -0 0
    outer loop
      vertex 26.9 50.6 0.3
      vertex 26.9 1.4 0
      vertex 26.9 1.4 0.3
    endloop
  endfacet
  facet normal 1 -0 0
    outer loop
      vertex 88.1 1.4 0.3
      vertex 88.1 50.6 0
      vertex 88.1 50.6 0.3
    endloop
  endfacet
  facet normal 1 0 0
    outer loop
      vertex 88.1 50.6 0
      vertex 88.1 1.4 0.3
      vertex 88.1 1.4 0
    endloop
  endfacet
  facet normal 0 -1 0
    outer loop
      vertex 26.9 1.4 0
      vertex 88.1 1.4 0.3
      vertex 26.9 1.4 0.3
    endloop
  endfacet
  facet normal 0 -1 -0
    outer loop
      vertex 88.1 1.4 0.3
      vertex 26.9 1.4 0
      vertex 88.1 1.4 0
    endloop
  endfacet
  facet normal 0 1 -0
    outer loop
      vertex 88.1 50.6 0
      vertex 26.9 50.6 0.3
      vertex 88.1 50.6 0.3
    endloop
  endfacet
  facet normal 0 1 0
    outer loop
      vertex 26.9 50.6 0.3
      vertex 88.1 50.6 0
      vertex 26.9 50.6 0
    endloop
  endfacet
endsolid OpenSCAD_Model
