solid OpenSCAD_Model
  facet normal -1 0 0
    outer loop
      vertex 0 0 0
      vertex 0 0.4 0.299999
      vertex 0 0.4 0
    endloop
  endfacet
  facet normal -1 -0 0
    outer loop
      vertex 0 0.4 0.299999
      vertex 0 0 0
      vertex 0 0 0.299999
    endloop
  endfacet
  facet normal -0 0 1
    outer loop
      vertex 0 0.4 0.299999
      vertex 70 0 0.299999
      vertex 70 0.4 0.299999
    endloop
  endfacet
  facet normal 0 0 1
    outer loop
      vertex 70 0 0.299999
      vertex 0 0.4 0.299999
      vertex 0 0 0.299999
    endloop
  endfacet
  facet normal 1 -0 0
    outer loop
      vertex 70 0 0.299999
      vertex 70 0.4 0
      vertex 70 0.4 0.299999
    endloop
  endfacet
  facet normal 1 0 0
    outer loop
      vertex 70 0.4 0
      vertex 70 0 0.299999
      vertex 70 0 0
    endloop
  endfacet
  facet normal 0 1 -0
    outer loop
      vertex 70 0.4 0
      vertex 0 0.4 0.299999
      vertex 70 0.4 0.299999
    endloop
  endfacet
  facet normal 0 1 0
    outer loop
      vertex 0 0.4 0.299999
      vertex 70 0.4 0
      vertex 0 0.4 0
    endloop
  endfacet
  facet normal 0 0 -1
    outer loop
      vertex 0 0 0
      vertex 70 0.4 0
      vertex 70 0 0
    endloop
  endfacet
  facet normal -0 0 -1
    outer loop
      vertex 70 0.4 0
      vertex 0 0 0
      vertex 0 0.4 0
    endloop
  endfacet
  facet normal 0 -1 0
    outer loop
      vertex 0 0 0
      vertex 70 0 0.299999
      vertex 0 0 0.299999
    endloop
  endfacet
  facet normal 0 -1 -0
    outer loop
      vertex 70 0 0.299999
      vertex 0 0 0
      vertex 70 0 0
    endloop
  endfacet
  facet normal -1 0 0
    outer loop
      vertex 0 7 0
      vertex 0 7.4 0.299999
      vertex 0 7.4 0
    endloop
  endfacet
  facet normal -1 -0 0
    outer loop
      vertex 0 7.4 0.299999
      vertex 0 7 0
      vertex 0 7 0.299999
    endloop
  endfacet
  facet normal -0 0 1
    outer loop
      vertex 0 7.4 0.299999
      vertex 70 7 0.299999
      vertex 70 7.4 0.299999
    endloop
  endfacet
  facet normal 0 0 1
    outer loop
      vertex 70 7 0.299999
      vertex 0 7.4 0.299999
      vertex 0 7 0.299999
    endloop
  endfacet
  facet normal 1 -0 0
    outer loop
      vertex 70 7 0.299999
      vertex 70 7.4 0
      vertex 70 7.4 0.299999
    endloop
  endfacet
  facet normal 1 0 0
    outer loop
      vertex 70 7.4 0
      vertex 70 7 0.299999
      vertex 70 7 0
    endloop
  endfacet
  facet normal 0 0 -1
    outer loop
      vertex 0 7 0
      vertex 70 7.4 0
      vertex 70 7 0
    endloop
  endfacet
  facet normal -0 0 -1
    outer loop
      vertex 70 7.4 0
      vertex 0 7 0
      vertex 0 7.4 0
    endloop
  endfacet
  facet normal 0 -1 0
    outer loop
      vertex 0 7 0
      vertex 70 7 0.299999
      vertex 0 7 0.299999
    endloop
  endfacet
  facet normal 0 -1 -0
    outer loop
      vertex 70 7 0.299999
      vertex 0 7 0
      vertex 70 7 0
    endloop
  endfacet
  facet normal 0 1 -0
    outer loop
      vertex 70 7.4 0
      vertex 0 7.4 0.299999
      vertex 70 7.4 0.299999
    endloop
  endfacet
  facet normal 0 1 0
    outer loop
      vertex 0 7.4 0.299999
      vertex 70 7.4 0
      vertex 0 7.4 0
    endloop
  endfacet
  facet normal -1 0 0
    outer loop
      vertex 0 14 0
      vertex 0 14.4 0.299999
      vertex 0 14.4 0
    endloop
  endfacet
  facet normal -1 -0 0
    outer loop
      vertex 0 14.4 0.299999
      vertex 0 14 0
      vertex 0 14 0.299999
    endloop
  endfacet
  facet normal -0 0 1
    outer loop
      vertex 0 14.4 0.299999
      vertex 70 14 0.299999
      vertex 70 14.4 0.299999
    endloop
  endfacet
  facet normal 0 0 1
    outer loop
      vertex 70 14 0.299999
      vertex 0 14.4 0.299999
      vertex 0 14 0.299999
    endloop
  endfacet
  facet normal 1 -0 0
    outer loop
      vertex 70 14 0.299999
      vertex 70 14.4 0
      vertex 70 14.4 0.299999
    endloop
  endfacet
  facet normal 1 0 0
    outer loop
      vertex 70 14.4 0
      vertex 70 14 0.299999
      vertex 70 14 0
    endloop
  endfacet
  facet normal 0 1 -0
    outer loop
      vertex 70 14.4 0
      vertex 0 14.4 0.299999
      vertex 70 14.4 0.299999
    endloop
  endfacet
  facet normal 0 1 0
    outer loop
      vertex 0 14.4 0.299999
      vertex 70 14.4 0
      vertex 0 14.4 0
    endloop
  endfacet
  facet normal 0 0 -1
    outer loop
      vertex 0 14 0
      vertex 70 14.4 0
      vertex 70 14 0
    endloop
  endfacet
  facet normal -0 0 -1
    outer loop
      vertex 70 14.4 0
      vertex 0 14 0
      vertex 0 14.4 0
    endloop
  endfacet
  facet normal 0 -1 0
    outer loop
      vertex 0 14 0
      vertex 70 14 0.299999
      vertex 0 14 0.299999
    endloop
  endfacet
  facet normal 0 -1 -0
    outer loop
      vertex 70 14 0.299999
      vertex 0 14 0
      vertex 70 14 0
    endloop
  endfacet
  facet normal -1 0 0
    outer loop
      vertex 0 21 0
      vertex 0 21.4 0.299999
      vertex 0 21.4 0
    endloop
  endfacet
  facet normal -1 -0 0
    outer loop
      vertex 0 21.4 0.299999
      vertex 0 21 0
      vertex 0 21 0.299999
    endloop
  endfacet
  facet normal -0 0 1
    outer loop
      vertex 0 21.4 0.299999
      vertex 70 21 0.299999
      vertex 70 21.4 0.299999
    endloop
  endfacet
  facet normal 0 0 1
    outer loop
      vertex 70 21 0.299999
      vertex 0 21.4 0.299999
      vertex 0 21 0.299999
    endloop
  endfacet
  facet normal 1 -0 0
    outer loop
      vertex 70 21 0.299999
      vertex 70 21.4 0
      vertex 70 21.4 0.299999
    endloop
  endfacet
  facet normal 1 0 0
    outer loop
      vertex 70 21.4 0
      vertex 70 21 0.299999
      vertex 70 21 0
    endloop
  endfacet
  facet normal 0 0 -1
    outer loop
      vertex 0 21 0
      vertex 70 21.4 0
      vertex 70 21 0
    endloop
  endfacet
  facet normal -0 0 -1
    outer loop
      vertex 70 21.4 0
      vertex 0 21 0
      vertex 0 21.4 0
    endloop
  endfacet
  facet normal 0 -1 0
    outer loop
      vertex 0 21 0
      vertex 70 21 0.299999
      vertex 0 21 0.299999
    endloop
  endfacet
  facet normal 0 -1 -0
    outer loop
      vertex 70 21 0.299999
      vertex 0 21 0
      vertex 70 21 0
    endloop
  endfacet
  facet normal 0 1 -0
    outer loop
      vertex 70 21.4 0
      vertex 0 21.4 0.299999
      vertex 70 21.4 0.299999
    endloop
  endfacet
  facet normal 0 1 0
    outer loop
      vertex 0 21.4 0.299999
      vertex 70 21.4 0
      vertex 0 21.4 0
    endloop
  endfacet
  facet normal -1 0 0
    outer loop
      vertex 0 28 0
      vertex 0 28.4 0.299999
      vertex 0 28.4 0
    endloop
  endfacet
  facet normal -1 -0 0
    outer loop
      vertex 0 28.4 0.299999
      vertex 0 28 0
      vertex 0 28 0.299999
    endloop
  endfacet
  facet normal -0 0 1
    outer loop
      vertex 0 28.4 0.299999
      vertex 70 28 0.299999
      vertex 70 28.4 0.299999
    endloop
  endfacet
  facet normal 0 0 1
    outer loop
      vertex 70 28 0.299999
      vertex 0 28.4 0.299999
      vertex 0 28 0.299999
    endloop
  endfacet
  facet normal 1 -0 0
    outer loop
      vertex 70 28 0.299999
      vertex 70 28.4 0
      vertex 70 28.4 0.299999
    endloop
  endfacet
  facet normal 1 0 0
    outer loop
      vertex 70 28.4 0
      vertex 70 28 0.299999
      vertex 70 28 0
    endloop
  endfacet
  facet normal 0 0 -1
    outer loop
      vertex 0 28 0
      vertex 70 28.4 0
      vertex 70 28 0
    endloop
  endfacet
  facet normal -0 0 -1
    outer loop
      vertex 70 28.4 0
      vertex 0 28 0
      vertex 0 28.4 0
    endloop
  endfacet
  facet normal 0 -1 0
    outer loop
      vertex 0 28 0
      vertex 70 28 0.299999
      vertex 0 28 0.299999
    endloop
  endfacet
  facet normal 0 -1 -0
    outer loop
      vertex 70 28 0.299999
      vertex 0 28 0
      vertex 70 28 0
    endloop
  endfacet
  facet normal 0 1 -0
    outer loop
      vertex 70 28.4 0
      vertex 0 28.4 0.299999
      vertex 70 28.4 0.299999
    endloop
  endfacet
  facet normal 0 1 0
    outer loop
      vertex 0 28.4 0.299999
      vertex 70 28.4 0
      vertex 0 28.4 0
    endloop
  endfacet
  facet normal -1 0 0
    outer loop
      vertex 0 35 0
      vertex 0 35.4 0.299999
      vertex 0 35.4 0
    endloop
  endfacet
  facet normal -1 -0 0
    outer loop
      vertex 0 35.4 0.299999
      vertex 0 35 0
      vertex 0 35 0.299999
    endloop
  endfacet
  facet normal -0 0 1
    outer loop
      vertex 0 35.4 0.299999
      vertex 70 35 0.299999
      vertex 70 35.4 0.299999
    endloop
  endfacet
  facet normal 0 0 1
    outer loop
      vertex 70 35 0.299999
      vertex 0 35.4 0.299999
      vertex 0 35 0.299999
    endloop
  endfacet
  facet normal 1 -0 0
    outer loop
      vertex 70 35 0.299999
      vertex 70 35.4 0
      vertex 70 35.4 0.299999
    endloop
  endfacet
  facet normal 1 0 0
    outer loop
      vertex 70 35.4 0
      vertex 70 35 0.299999
      vertex 70 35 0
    endloop
  endfacet
  facet normal 0 1 -0
    outer loop
      vertex 70 35.4 0
      vertex 0 35.4 0.299999
      vertex 70 35.4 0.299999
    endloop
  endfacet
  facet normal 0 1 0
    outer loop
      vertex 0 35.4 0.299999
      vertex 70 35.4 0
      vertex 0 35.4 0
    endloop
  endfacet
  facet normal 0 0 -1
    outer loop
      vertex 0 35 0
      vertex 70 35.4 0
      vertex 70 35 0
    endloop
  endfacet
  facet normal -0 0 -1
    outer loop
      vertex 70 35.4 0
      vertex 0 35 0
      vertex 0 35.4 0
    endloop
  endfacet
  facet normal 0 -1 0
    outer loop
      vertex 0 35 0
      vertex 70 35 0.299999
      vertex 0 35 0.299999
    endloop
  endfacet
  facet normal 0 -1 -0
    outer loop
      vertex 70 35 0.299999
      vertex 0 35 0
      vertex 70 35 0
    endloop
  endfacet
  facet normal -1 0 0
    outer loop
      vertex 0 42 0
      vertex 0 42.4 0.299999
      vertex 0 42.4 0
    endloop
  endfacet
  facet normal -1 -0 0
    outer loop
      vertex 0 42.4 0.299999
      vertex 0 42 0
      vertex 0 42 0.299999
    endloop
  endfacet
  facet normal -0 0 1
    outer loop
      vertex 0 42.4 0.299999
      vertex 70 42 0.299999
      vertex 70 42.4 0.299999
    endloop
  endfacet
  facet normal 0 0 1
    outer loop
      vertex 70 42 0.299999
      vertex 0 42.4 0.299999
      vertex 0 42 0.299999
    endloop
  endfacet
  facet normal 1 -0 0
    outer loop
      vertex 70 42 0.299999
      vertex 70 42.4 0
      vertex 70 42.4 0.299999
    endloop
  endfacet
  facet normal 1 0 0
    outer loop
      vertex 70 42.4 0
      vertex 70 42 0.299999
      vertex 70 42 0
    endloop
  endfacet
  facet normal 0 0 -1
    outer loop
      vertex 0 42 0
      vertex 70 42.4 0
      vertex 70 42 0
    endloop
  endfacet
  facet normal -0 0 -1
    outer loop
      vertex 70 42.4 0
      vertex 0 42 0
      vertex 0 42.4 0
    endloop
  endfacet
  facet normal 0 -1 0
    outer loop
      vertex 0 42 0
      vertex 70 42 0.299999
      vertex 0 42 0.299999
    endloop
  endfacet
  facet normal 0 -1 -0
    outer loop
      vertex 70 42 0.299999
      vertex 0 42 0
      vertex 70 42 0
    endloop
  endfacet
  facet normal 0 1 -0
    outer loop
      vertex 70 42.4 0
      vertex 0 42.4 0.299999
      vertex 70 42.4 0.299999
    endloop
  endfacet
  facet normal 0 1 0
    outer loop
      vertex 0 42.4 0.299999
      vertex 70 42.4 0
      vertex 0 42.4 0
    endloop
  endfacet
  facet normal -1 0 0
    outer loop
      vertex 0 49 0
      vertex 0 49.4 0.299999
      vertex 0 49.4 0
    endloop
  endfacet
  facet normal -1 -0 0
    outer loop
      vertex 0 49.4 0.299999
      vertex 0 49 0
      vertex 0 49 0.299999
    endloop
  endfacet
  facet normal -0 0 1
    outer loop
      vertex 0 49.4 0.299999
      vertex 70 49 0.299999
      vertex 70 49.4 0.299999
    endloop
  endfacet
  facet normal 0 0 1
    outer loop
      vertex 70 49 0.299999
      vertex 0 49.4 0.299999
      vertex 0 49 0.299999
    endloop
  endfacet
  facet normal 1 -0 0
    outer loop
      vertex 70 49 0.299999
      vertex 70 49.4 0
      vertex 70 49.4 0.299999
    endloop
  endfacet
  facet normal 1 0 0
    outer loop
      vertex 70 49.4 0
      vertex 70 49 0.299999
      vertex 70 49 0
    endloop
  endfacet
  facet normal 0 1 -0
    outer loop
      vertex 70 49.4 0
      vertex 0 49.4 0.299999
      vertex 70 49.4 0.299999
    endloop
  endfacet
  facet normal 0 1 0
    outer loop
      vertex 0 49.4 0.299999
      vertex 70 49.4 0
      vertex 0 49.4 0
    endloop
  endfacet
  facet normal 0 0 -1
    outer loop
      vertex 0 49 0
      vertex 70 49.4 0
      vertex 70 49 0
    endloop
  endfacet
  facet normal -0 0 -1
    outer loop
      vertex 70 49.4 0
      vertex 0 49 0
      vertex 0 49.4 0
    endloop
  endfacet
  facet normal 0 -1 0
    outer loop
      vertex 0 49 0
      vertex 70 49 0.299999
      vertex 0 49 0.299999
    endloop
  endfacet
  facet normal 0 -1 -0
    outer loop
      vertex 70 49 0.299999
      vertex 0 49 0
      vertex 70 49 0
    endloop
  endfacet
  facet normal -1 0 0
    outer loop
      vertex 0 56 0
      vertex 0 56.4 0.299999
      vertex 0 56.4 0
    endloop
  endfacet
  facet normal -1 -0 0
    outer loop
      vertex 0 56.4 0.299999
      vertex 0 56 0
      vertex 0 56 0.299999
    endloop
  endfacet
  facet normal -0 0 1
    outer loop
      vertex 0 56.4 0.299999
      vertex 70 56 0.299999
      vertex 70 56.4 0.299999
    endloop
  endfacet
  facet normal 0 0 1
    outer loop
      vertex 70 56 0.299999
      vertex 0 56.4 0.299999
      vertex 0 56 0.299999
    endloop
  endfacet
  facet normal 1 -0 0
    outer loop
      vertex 70 56 0.299999
      vertex 70 56.4 0
      vertex 70 56.4 0.299999
    endloop
  endfacet
  facet normal 1 0 0
    outer loop
      vertex 70 56.4 0
      vertex 70 56 0.299999
      vertex 70 56 0
    endloop
  endfacet
  facet normal 0 1 -0
    outer loop
      vertex 70 56.4 0
      vertex 0 56.4 0.299999
      vertex 70 56.4 0.299999
    endloop
  endfacet
  facet normal 0 1 0
    outer loop
      vertex 0 56.4 0.299999
      vertex 70 56.4 0
      vertex 0 56.4 0
    endloop
  endfacet
  facet normal 0 0 -1
    outer loop
      vertex 0 56 0
      vertex 70 56.4 0
      vertex 70 56 0
    endloop
  endfacet
  facet normal -0 0 -1
    outer loop
      vertex 70 56.4 0
      vertex 0 56 0
      vertex 0 56.4 0
    endloop
  endfacet
  facet normal 0 -1 0
    outer loop
      vertex 0 56 0
      vertex 70 56 0.299999
      vertex 0 56 0.299999
    endloop
  endfacet
  facet normal 0 -1 -0
    outer loop
      vertex 70 56 0.299999
      vertex 0 56 0
      vertex 70 56 0
    endloop
  endfacet
  facet normal -1 0 0
    outer loop
      vertex 0 63 0
      vertex 0 63.4 0.299999
      vertex 0 63.4 0
    endloop
  endfacet
  facet normal -1 -0 0
    outer loop
      vertex 0 63.4 0.299999
      vertex 0 63 0
      vertex 0 63 0.299999
    endloop
  endfacet
  facet normal -0 0 1
    outer loop
      vertex 0 63.4 0.299999
      vertex 70 63 0.299999
      vertex 70 63.4 0.299999
    endloop
  endfacet
  facet normal 0 0 1
    outer loop
      vertex 70 63 0.299999
      vertex 0 63.4 0.299999
      vertex 0 63 0.299999
    endloop
  endfacet
  facet normal 1 -0 0
    outer loop
      vertex 70 63 0.299999
      vertex 70 63.4 0
      vertex 70 63.4 0.299999
    endloop
  endfacet
  facet normal 1 0 0
    outer loop
      vertex 70 63.4 0
      vertex 70 63 0.299999
      vertex 70 63 0
    endloop
  endfacet
  facet normal 0 1 -0
    outer loop
      vertex 70 63.4 0
      vertex 0 63.4 0.299999
      vertex 70 63.4 0.299999
    endloop
  endfacet
  facet normal 0 1 0
    outer loop
      vertex 0 63.4 0.299999
      vertex 70 63.4 0
      vertex 0 63.4 0
    endloop
  endfacet
  facet normal 0 0 -1
    outer loop
      vertex 0 63 0
      vertex 70 63.4 0
      vertex 70 63 0
    endloop
  endfacet
  facet normal -0 0 -1
    outer loop
      vertex 70 63.4 0
      vertex 0 63 0
      vertex 0 63.4 0
    endloop
  endfacet
  facet normal 0 -1 0
    outer loop
      vertex 0 63 0
      vertex 70 63 0.299999
      vertex 0 63 0.299999
    endloop
  endfacet
  facet normal 0 -1 -0
    outer loop
      vertex 70 63 0.299999
      vertex 0 63 0
      vertex 70 63 0
    endloop
  endfacet
endsolid OpenSCAD_Model
