solid OpenSCAD_Model
  facet normal 0 0 -1
    outer loop
      vertex 0 -34.072 0
      vertex -7.71799 -4.73799 0
      vertex 0 -0.0019989 0
    endloop
  endfacet
  facet normal 0 0 -1
    outer loop
      vertex 0 -34.072 0
      vertex -12.604 -5.502 0
      vertex -7.71799 -4.73799 0
    endloop
  endfacet
  facet normal 0 0 -1
    outer loop
      vertex -24.372 -34.072 0
      vertex -12.604 -5.502 0
      vertex 0 -34.072 0
    endloop
  endfacet
  facet normal 0 0 -1
    outer loop
      vertex -15.302 -5.502 0
      vertex -17.288 -4.73799 0
      vertex -15.302 -4.73799 0
    endloop
  endfacet
  facet normal -0 0 -1
    outer loop
      vertex -12.604 -5.502 0
      vertex -24.372 -34.072 0
      vertex -15.302 -5.502 0
    endloop
  endfacet
  facet normal 0 0 -1
    outer loop
      vertex -17.288 -4.73799 0
      vertex -22 -0.0019989 0
      vertex -17.288 -0.0019989 0
    endloop
  endfacet
  facet normal -0 0 -1
    outer loop
      vertex -15.302 -5.502 0
      vertex -24.372 -34.072 0
      vertex -17.288 -4.73799 0
    endloop
  endfacet
  facet normal -0 0 -1
    outer loop
      vertex -17.288 -4.73799 0
      vertex -24.372 -34.072 0
      vertex -24.372 -2.37199 0
    endloop
  endfacet
  facet normal 0 0 -1
    outer loop
      vertex -17.288 -4.73799 0
      vertex -24.372 -2.37199 0
      vertex -22 -0.0019989 0
    endloop
  endfacet
  facet normal 0 0 -1
    outer loop
      vertex 0 -34.072 0
      vertex 16.998 -65.928 0
      vertex 0 -65.928 0
    endloop
  endfacet
  facet normal 0 0 -1
    outer loop
      vertex 16.998 -65.928 0
      vertex 0 -34.072 0
      vertex 16.998 0 0
    endloop
  endfacet
  facet normal 0 0 -1
    outer loop
      vertex 0 -0.0019989 0
      vertex 16.998 0 0
      vertex 0 -34.072 0
    endloop
  endfacet
  facet normal -0 0 -1
    outer loop
      vertex 16.998 0 0
      vertex 0 -0.0019989 0
      vertex 0 0 0
    endloop
  endfacet
  facet normal -0 0 -1
    outer loop
      vertex 0 -0.0019989 0
      vertex -7.71799 -4.73799 0
      vertex -7.71799 -0.0019989 0
    endloop
  endfacet
  facet normal -0 0 -1
    outer loop
      vertex -7.71799 -4.73799 0
      vertex -12.604 -5.502 0
      vertex -12.604 -4.73799 0
    endloop
  endfacet
  facet normal -0 0 1
    outer loop
      vertex -22 -0.0019989 8
      vertex -17.288 -4.73799 8
      vertex -17.288 -0.0019989 8
    endloop
  endfacet
  facet normal 0 0 1
    outer loop
      vertex -17.288 -4.73799 8
      vertex -17.4568 -28.9594 8
      vertex -17.4 -29.5 8
    endloop
  endfacet
  facet normal 0 0 1
    outer loop
      vertex -17.288 -4.73799 8
      vertex -17.6248 -28.4425 8
      vertex -17.4568 -28.9594 8
    endloop
  endfacet
  facet normal 0 0 1
    outer loop
      vertex -17.288 -4.73799 8
      vertex -17.8966 -27.9718 8
      vertex -17.6248 -28.4425 8
    endloop
  endfacet
  facet normal 0 0 1
    outer loop
      vertex -17.288 -4.73799 8
      vertex -18.2603 -27.5678 8
      vertex -17.8966 -27.9718 8
    endloop
  endfacet
  facet normal 0 0 1
    outer loop
      vertex -17.288 -4.73799 8
      vertex -18.7 -27.2483 8
      vertex -18.2603 -27.5678 8
    endloop
  endfacet
  facet normal 0 0 1
    outer loop
      vertex -17.288 -4.73799 8
      vertex -19.1966 -27.0273 8
      vertex -18.7 -27.2483 8
    endloop
  endfacet
  facet normal 0 0 1
    outer loop
      vertex -17.288 -4.73799 8
      vertex -19.7282 -26.9142 8
      vertex -19.1966 -27.0273 8
    endloop
  endfacet
  facet normal 0 -0 1
    outer loop
      vertex -20.8034 -27.0273 8
      vertex -17.288 -4.73799 8
      vertex -24.372 -2.37199 8
    endloop
  endfacet
  facet normal 0 0 1
    outer loop
      vertex -17.288 -4.73799 8
      vertex -20.2718 -26.9142 8
      vertex -19.7282 -26.9142 8
    endloop
  endfacet
  facet normal 0 0 1
    outer loop
      vertex -17.288 -4.73799 8
      vertex -20.8034 -27.0273 8
      vertex -20.2718 -26.9142 8
    endloop
  endfacet
  facet normal 0 0 1
    outer loop
      vertex -20.8034 -27.0273 8
      vertex -24.372 -2.37199 8
      vertex -21.3 -27.2483 8
    endloop
  endfacet
  facet normal 0 0 1
    outer loop
      vertex -17.288 -4.73799 8
      vertex -22 -0.0019989 8
      vertex -24.372 -2.37199 8
    endloop
  endfacet
  facet normal 0 0 1
    outer loop
      vertex -21.3 -27.2483 8
      vertex -24.372 -2.37199 8
      vertex -21.7397 -27.5678 8
    endloop
  endfacet
  facet normal 0 0 1
    outer loop
      vertex -21.7397 -27.5678 8
      vertex -24.372 -2.37199 8
      vertex -22.1034 -27.9718 8
    endloop
  endfacet
  facet normal 0 0 1
    outer loop
      vertex -22.1034 -27.9718 8
      vertex -24.372 -2.37199 8
      vertex -22.3752 -28.4425 8
    endloop
  endfacet
  facet normal 0 0 1
    outer loop
      vertex -22.3752 -28.4425 8
      vertex -24.372 -2.37199 8
      vertex -22.5432 -28.9594 8
    endloop
  endfacet
  facet normal 0 0 1
    outer loop
      vertex -24.372 -34.072 8
      vertex -22.5432 -28.9594 8
      vertex -24.372 -2.37199 8
    endloop
  endfacet
  facet normal 0 0 1
    outer loop
      vertex -15.302 -4.73799 8
      vertex -17.288 -4.73799 8
      vertex -15.302 -5.502 8
    endloop
  endfacet
  facet normal 0 0 1
    outer loop
      vertex -7.71799 -4.73799 8
      vertex 0 -0.0019989 8
      vertex -7.71799 -0.0019989 8
    endloop
  endfacet
  facet normal 0 0 1
    outer loop
      vertex 0 -0.0019989 8
      vertex -7.71799 -4.73799 8
      vertex 0 -34.072 8
    endloop
  endfacet
  facet normal 0 0 1
    outer loop
      vertex -12.604 -5.502 8
      vertex -7.71799 -4.73799 8
      vertex -12.604 -4.73799 8
    endloop
  endfacet
  facet normal 0 0 1
    outer loop
      vertex -17.4 -29.5 8
      vertex -7.71799 -4.73799 8
      vertex -12.604 -5.502 8
    endloop
  endfacet
  facet normal 0 0 1
    outer loop
      vertex -17.4 -29.5 8
      vertex -12.604 -5.502 8
      vertex -15.302 -5.502 8
    endloop
  endfacet
  facet normal 0 0 1
    outer loop
      vertex -17.4 -29.5 8
      vertex -15.302 -5.502 8
      vertex -17.288 -4.73799 8
    endloop
  endfacet
  facet normal 0 0 1
    outer loop
      vertex -7.71799 -4.73799 8
      vertex -17.4 -29.5 8
      vertex 0 -34.072 8
    endloop
  endfacet
  facet normal -0 0 1
    outer loop
      vertex -17.4568 -30.0406 8
      vertex 0 -34.072 8
      vertex -17.4 -29.5 8
    endloop
  endfacet
  facet normal -0 0 1
    outer loop
      vertex -17.6248 -30.5575 8
      vertex 0 -34.072 8
      vertex -17.4568 -30.0406 8
    endloop
  endfacet
  facet normal -0 0 1
    outer loop
      vertex -17.8966 -31.0282 8
      vertex 0 -34.072 8
      vertex -17.6248 -30.5575 8
    endloop
  endfacet
  facet normal -0 0 1
    outer loop
      vertex -18.2603 -31.4322 8
      vertex 0 -34.072 8
      vertex -17.8966 -31.0282 8
    endloop
  endfacet
  facet normal -0 0 1
    outer loop
      vertex -18.7 -31.7517 8
      vertex 0 -34.072 8
      vertex -18.2603 -31.4322 8
    endloop
  endfacet
  facet normal -0 0 1
    outer loop
      vertex -19.1966 -31.9727 8
      vertex 0 -34.072 8
      vertex -18.7 -31.7517 8
    endloop
  endfacet
  facet normal 0 0 1
    outer loop
      vertex -24.372 -34.072 8
      vertex -19.1966 -31.9727 8
      vertex -19.7282 -32.0858 8
    endloop
  endfacet
  facet normal 0 0 1
    outer loop
      vertex -24.372 -34.072 8
      vertex -19.7282 -32.0858 8
      vertex -20.2718 -32.0858 8
    endloop
  endfacet
  facet normal 0 0 1
    outer loop
      vertex -19.1966 -31.9727 8
      vertex -24.372 -34.072 8
      vertex 0 -34.072 8
    endloop
  endfacet
  facet normal 0 0 1
    outer loop
      vertex -20.8034 -31.9727 8
      vertex -24.372 -34.072 8
      vertex -20.2718 -32.0858 8
    endloop
  endfacet
  facet normal 0 0 1
    outer loop
      vertex -21.3 -31.7517 8
      vertex -24.372 -34.072 8
      vertex -20.8034 -31.9727 8
    endloop
  endfacet
  facet normal 0 0 1
    outer loop
      vertex -21.7397 -31.4322 8
      vertex -24.372 -34.072 8
      vertex -21.3 -31.7517 8
    endloop
  endfacet
  facet normal 0 0 1
    outer loop
      vertex -22.1034 -31.0282 8
      vertex -24.372 -34.072 8
      vertex -21.7397 -31.4322 8
    endloop
  endfacet
  facet normal 0 0 1
    outer loop
      vertex -22.3752 -30.5575 8
      vertex -24.372 -34.072 8
      vertex -22.1034 -31.0282 8
    endloop
  endfacet
  facet normal 0 0 1
    outer loop
      vertex -22.5432 -30.0406 8
      vertex -24.372 -34.072 8
      vertex -22.3752 -30.5575 8
    endloop
  endfacet
  facet normal 0 0 1
    outer loop
      vertex -22.6 -29.5 8
      vertex -24.372 -34.072 8
      vertex -22.5432 -30.0406 8
    endloop
  endfacet
  facet normal 0 0 1
    outer loop
      vertex -22.5432 -28.9594 8
      vertex -24.372 -34.072 8
      vertex -22.6 -29.5 8
    endloop
  endfacet
  facet normal 0 0 1
    outer loop
      vertex 16.998 -100 8
      vertex 13.8778 -84.7845 8
      vertex 13.998 -85.928 8
    endloop
  endfacet
  facet normal 0 0 1
    outer loop
      vertex 0 -34.072 8
      vertex 14.2397 -6.43218 8
      vertex 13.8 -6.75167 8
    endloop
  endfacet
  facet normal 0 0 1
    outer loop
      vertex 14.6034 -6.02824 8
      vertex 13.5225 -83.6909 8
      vertex 13.8778 -84.7845 8
    endloop
  endfacet
  facet normal 0 0 1
    outer loop
      vertex 0 -34.072 8
      vertex 13.8 -6.75167 8
      vertex 13.3034 -6.97275 8
    endloop
  endfacet
  facet normal 0 0 1
    outer loop
      vertex 14.6034 -6.02824 8
      vertex 12.9476 -82.6952 8
      vertex 13.5225 -83.6909 8
    endloop
  endfacet
  facet normal 0 0 1
    outer loop
      vertex 0 -34.072 8
      vertex 13.3034 -6.97275 8
      vertex 12.7718 -7.08576 8
    endloop
  endfacet
  facet normal 0 0 1
    outer loop
      vertex 0 -34.072 8
      vertex 12.7718 -7.08576 8
      vertex 12.2282 -7.08576 8
    endloop
  endfacet
  facet normal 0 0 1
    outer loop
      vertex 14.2397 -6.43218 8
      vertex 0 -34.072 8
      vertex 12.9476 -82.6952 8
    endloop
  endfacet
  facet normal 0 0 1
    outer loop
      vertex 0 -34.072 8
      vertex 12.2282 -7.08576 8
      vertex 11.6966 -6.97275 8
    endloop
  endfacet
  facet normal 0 0 1
    outer loop
      vertex 12.9476 -82.6952 8
      vertex 0 -34.072 8
      vertex 12.1782 -81.8407 8
    endloop
  endfacet
  facet normal 0 0 1
    outer loop
      vertex 0 -34.072 8
      vertex 11.6966 -6.97275 8
      vertex 11.2 -6.75167 8
    endloop
  endfacet
  facet normal 0 0 1
    outer loop
      vertex 0 -34.072 8
      vertex 11.2 -6.75167 8
      vertex 10.7603 -6.43218 8
    endloop
  endfacet
  facet normal 0 0 1
    outer loop
      vertex 0 -34.072 8
      vertex 10.7603 -6.43218 8
      vertex 10.3966 -6.02824 8
    endloop
  endfacet
  facet normal 0 0 1
    outer loop
      vertex 12.1782 -81.8407 8
      vertex 0 -34.072 8
      vertex 11.248 -81.1649 8
    endloop
  endfacet
  facet normal 0 0 1
    outer loop
      vertex 0 -0.0019989 8
      vertex 10.3966 -6.02824 8
      vertex 10.1248 -5.55752 8
    endloop
  endfacet
  facet normal 0 0 1
    outer loop
      vertex 0 -0.0019989 8
      vertex 10.1248 -5.55752 8
      vertex 9.95682 -5.04057 8
    endloop
  endfacet
  facet normal 0 0 1
    outer loop
      vertex 0 -0.0019989 8
      vertex 9.95682 -5.04057 8
      vertex 9.9 -4.5 8
    endloop
  endfacet
  facet normal 0 0 1
    outer loop
      vertex 11.248 -81.1649 8
      vertex 0 -34.072 8
      vertex 10.1976 -80.6972 8
    endloop
  endfacet
  facet normal 0 0 1
    outer loop
      vertex 15.0432 -5.04057 8
      vertex 16.998 0 8
      vertex 15.1 -4.5 8
    endloop
  endfacet
  facet normal 0 0 1
    outer loop
      vertex 16.998 0 8
      vertex 15.0432 -3.95943 8
      vertex 15.1 -4.5 8
    endloop
  endfacet
  facet normal 0 0 1
    outer loop
      vertex 16.998 0 8
      vertex 14.8752 -3.44248 8
      vertex 15.0432 -3.95943 8
    endloop
  endfacet
  facet normal 0 0 1
    outer loop
      vertex 16.998 0 8
      vertex 14.6034 -2.97176 8
      vertex 14.8752 -3.44248 8
    endloop
  endfacet
  facet normal 0 0 1
    outer loop
      vertex 16.998 0 8
      vertex 14.2397 -2.56782 8
      vertex 14.6034 -2.97176 8
    endloop
  endfacet
  facet normal 0 0 1
    outer loop
      vertex 16.998 0 8
      vertex 13.8 -2.24833 8
      vertex 14.2397 -2.56782 8
    endloop
  endfacet
  facet normal 0 0 1
    outer loop
      vertex 16.998 0 8
      vertex 13.3034 -2.02725 8
      vertex 13.8 -2.24833 8
    endloop
  endfacet
  facet normal 0 0 1
    outer loop
      vertex 16.998 0 8
      vertex 12.7718 -1.91424 8
      vertex 13.3034 -2.02725 8
    endloop
  endfacet
  facet normal 0 0 1
    outer loop
      vertex 16.998 0 8
      vertex 12.2282 -1.91424 8
      vertex 12.7718 -1.91424 8
    endloop
  endfacet
  facet normal 0 0 1
    outer loop
      vertex 16.998 0 8
      vertex 11.6966 -2.02725 8
      vertex 12.2282 -1.91424 8
    endloop
  endfacet
  facet normal 0 0 1
    outer loop
      vertex 10.1976 -80.6972 8
      vertex 0 -34.072 8
      vertex 9.07291 -80.4581 8
    endloop
  endfacet
  facet normal 0 0 1
    outer loop
      vertex 9.07291 -80.4581 8
      vertex 0 -34.072 8
      vertex 7.92309 -80.4581 8
    endloop
  endfacet
  facet normal 0 0 1
    outer loop
      vertex 7.92309 -80.4581 8
      vertex 0 -34.072 8
      vertex 6.79841 -80.6972 8
    endloop
  endfacet
  facet normal 0 0 1
    outer loop
      vertex 6.79841 -80.6972 8
      vertex 0 -34.072 8
      vertex 5.748 -81.1649 8
    endloop
  endfacet
  facet normal 0 0 1
    outer loop
      vertex 5.748 -81.1649 8
      vertex 0 -34.072 8
      vertex 4.81778 -81.8407 8
    endloop
  endfacet
  facet normal 0 0 1
    outer loop
      vertex 4.81778 -81.8407 8
      vertex 0 -34.072 8
      vertex 4.04841 -82.6952 8
    endloop
  endfacet
  facet normal 0 0 1
    outer loop
      vertex 4.04841 -82.6952 8
      vertex 0 -34.072 8
      vertex 3.4735 -83.6909 8
    endloop
  endfacet
  facet normal 0 0 1
    outer loop
      vertex 3.4735 -83.6909 8
      vertex 0 -34.072 8
      vertex 3.11819 -84.7845 8
    endloop
  endfacet
  facet normal 0 0 1
    outer loop
      vertex 9.95682 -3.95943 8
      vertex 0 -0.0019989 8
      vertex 9.9 -4.5 8
    endloop
  endfacet
  facet normal 0 0 1
    outer loop
      vertex 10.1248 -3.44248 8
      vertex 0 -0.0019989 8
      vertex 9.95682 -3.95943 8
    endloop
  endfacet
  facet normal 0 0 1
    outer loop
      vertex 10.3966 -2.97176 8
      vertex 0 -0.0019989 8
      vertex 10.1248 -3.44248 8
    endloop
  endfacet
  facet normal -0 0 1
    outer loop
      vertex 0 -0.0019989 8
      vertex 10.3966 -2.97176 8
      vertex 0 0 8
    endloop
  endfacet
  facet normal 0 0 1
    outer loop
      vertex 10.7603 -2.56782 8
      vertex 0 0 8
      vertex 10.3966 -2.97176 8
    endloop
  endfacet
  facet normal 0 0 1
    outer loop
      vertex 11.2 -2.24833 8
      vertex 0 0 8
      vertex 10.7603 -2.56782 8
    endloop
  endfacet
  facet normal 0 0 1
    outer loop
      vertex 11.6966 -2.02725 8
      vertex 0 0 8
      vertex 11.2 -2.24833 8
    endloop
  endfacet
  facet normal -0 0 1
    outer loop
      vertex 0 0 8
      vertex 11.6966 -2.02725 8
      vertex 16.998 0 8
    endloop
  endfacet
  facet normal 0 0 1
    outer loop
      vertex 14.8752 -5.55752 8
      vertex 16.998 0 8
      vertex 15.0432 -5.04057 8
    endloop
  endfacet
  facet normal 0 0 1
    outer loop
      vertex 13.8778 -84.7845 8
      vertex 16.998 0 8
      vertex 14.8752 -5.55752 8
    endloop
  endfacet
  facet normal 0 0 1
    outer loop
      vertex 13.8778 -84.7845 8
      vertex 14.8752 -5.55752 8
      vertex 14.6034 -6.02824 8
    endloop
  endfacet
  facet normal 0 0 1
    outer loop
      vertex 12.9476 -82.6952 8
      vertex 14.6034 -6.02824 8
      vertex 14.2397 -6.43218 8
    endloop
  endfacet
  facet normal -0 0 1
    outer loop
      vertex 13.8778 -84.7845 8
      vertex 16.998 -100 8
      vertex 16.998 0 8
    endloop
  endfacet
  facet normal -0 0 1
    outer loop
      vertex 13.8778 -87.0715 8
      vertex 16.998 -100 8
      vertex 13.998 -85.928 8
    endloop
  endfacet
  facet normal -0 0 1
    outer loop
      vertex 13.5225 -88.1651 8
      vertex 16.998 -100 8
      vertex 13.8778 -87.0715 8
    endloop
  endfacet
  facet normal -0 0 1
    outer loop
      vertex 12.9476 -89.1608 8
      vertex 16.998 -100 8
      vertex 13.5225 -88.1651 8
    endloop
  endfacet
  facet normal -0 0 1
    outer loop
      vertex 12.1782 -90.0153 8
      vertex 16.998 -100 8
      vertex 12.9476 -89.1608 8
    endloop
  endfacet
  facet normal -0 0 1
    outer loop
      vertex 11.248 -90.6911 8
      vertex 16.998 -100 8
      vertex 12.1782 -90.0153 8
    endloop
  endfacet
  facet normal -0 0 1
    outer loop
      vertex 10.1976 -91.1588 8
      vertex 16.998 -100 8
      vertex 11.248 -90.6911 8
    endloop
  endfacet
  facet normal -0 0 1
    outer loop
      vertex 9.07291 -91.3979 8
      vertex 16.998 -100 8
      vertex 10.1976 -91.1588 8
    endloop
  endfacet
  facet normal -0 0 1
    outer loop
      vertex 7.92309 -91.3979 8
      vertex 16.998 -100 8
      vertex 9.07291 -91.3979 8
    endloop
  endfacet
  facet normal 0 0 1
    outer loop
      vertex 0 -100 8
      vertex 7.92309 -91.3979 8
      vertex 6.79841 -91.1588 8
    endloop
  endfacet
  facet normal 0 0 1
    outer loop
      vertex 0 -100 8
      vertex 6.79841 -91.1588 8
      vertex 5.748 -90.6911 8
    endloop
  endfacet
  facet normal 0 0 1
    outer loop
      vertex 0 -100 8
      vertex 5.748 -90.6911 8
      vertex 4.81778 -90.0153 8
    endloop
  endfacet
  facet normal 0 0 1
    outer loop
      vertex 10.3966 -6.02824 8
      vertex 0 -0.0019989 8
      vertex 0 -34.072 8
    endloop
  endfacet
  facet normal 0 0 1
    outer loop
      vertex 0 -100 8
      vertex 3.11819 -84.7845 8
      vertex 0 -34.072 8
    endloop
  endfacet
  facet normal 0 0 1
    outer loop
      vertex 7.92309 -91.3979 8
      vertex 0 -100 8
      vertex 16.998 -100 8
    endloop
  endfacet
  facet normal 0 0 1
    outer loop
      vertex 4.04841 -89.1608 8
      vertex 0 -100 8
      vertex 4.81778 -90.0153 8
    endloop
  endfacet
  facet normal 0 0 1
    outer loop
      vertex 3.4735 -88.1651 8
      vertex 0 -100 8
      vertex 4.04841 -89.1608 8
    endloop
  endfacet
  facet normal 0 0 1
    outer loop
      vertex 3.11819 -87.0715 8
      vertex 0 -100 8
      vertex 3.4735 -88.1651 8
    endloop
  endfacet
  facet normal 0 0 1
    outer loop
      vertex 2.998 -85.928 8
      vertex 0 -100 8
      vertex 3.11819 -87.0715 8
    endloop
  endfacet
  facet normal 0 0 1
    outer loop
      vertex 3.11819 -84.7845 8
      vertex 0 -100 8
      vertex 2.998 -85.928 8
    endloop
  endfacet
  facet normal 0 1 -0
    outer loop
      vertex 0 -0.0019989 0
      vertex -7.71799 -0.0019989 8
      vertex 0 -0.0019989 8
    endloop
  endfacet
  facet normal 0 1 0
    outer loop
      vertex -7.71799 -0.0019989 8
      vertex 0 -0.0019989 0
      vertex -7.71799 -0.0019989 0
    endloop
  endfacet
  facet normal -1 0 0
    outer loop
      vertex -7.71799 -4.73799 0
      vertex -7.71799 -0.0019989 8
      vertex -7.71799 -0.0019989 0
    endloop
  endfacet
  facet normal -1 -0 0
    outer loop
      vertex -7.71799 -0.0019989 8
      vertex -7.71799 -4.73799 0
      vertex -7.71799 -4.73799 8
    endloop
  endfacet
  facet normal 0 1 -0
    outer loop
      vertex -7.71799 -4.73799 0
      vertex -12.604 -4.73799 8
      vertex -7.71799 -4.73799 8
    endloop
  endfacet
  facet normal 0 1 0
    outer loop
      vertex -12.604 -4.73799 8
      vertex -7.71799 -4.73799 0
      vertex -12.604 -4.73799 0
    endloop
  endfacet
  facet normal -1 0 0
    outer loop
      vertex -12.604 -5.502 0
      vertex -12.604 -4.73799 8
      vertex -12.604 -4.73799 0
    endloop
  endfacet
  facet normal -1 -0 0
    outer loop
      vertex -12.604 -4.73799 8
      vertex -12.604 -5.502 0
      vertex -12.604 -5.502 8
    endloop
  endfacet
  facet normal 0 1 -0
    outer loop
      vertex -12.604 -5.502 0
      vertex -15.302 -5.502 8
      vertex -12.604 -5.502 8
    endloop
  endfacet
  facet normal 0 1 0
    outer loop
      vertex -15.302 -5.502 8
      vertex -12.604 -5.502 0
      vertex -15.302 -5.502 0
    endloop
  endfacet
  facet normal 1 -0 0
    outer loop
      vertex -15.302 -5.502 8
      vertex -15.302 -4.73799 0
      vertex -15.302 -4.73799 8
    endloop
  endfacet
  facet normal 1 0 0
    outer loop
      vertex -15.302 -4.73799 0
      vertex -15.302 -5.502 8
      vertex -15.302 -5.502 0
    endloop
  endfacet
  facet normal 0 1 -0
    outer loop
      vertex -15.302 -4.73799 0
      vertex -17.288 -4.73799 8
      vertex -15.302 -4.73799 8
    endloop
  endfacet
  facet normal 0 1 0
    outer loop
      vertex -17.288 -4.73799 8
      vertex -15.302 -4.73799 0
      vertex -17.288 -4.73799 0
    endloop
  endfacet
  facet normal 1 -0 0
    outer loop
      vertex -17.288 -4.73799 8
      vertex -17.288 -0.0019989 0
      vertex -17.288 -0.0019989 8
    endloop
  endfacet
  facet normal 1 0 0
    outer loop
      vertex -17.288 -0.0019989 0
      vertex -17.288 -4.73799 8
      vertex -17.288 -4.73799 0
    endloop
  endfacet
  facet normal 0 1 -0
    outer loop
      vertex -17.288 -0.0019989 0
      vertex -22 -0.0019989 8
      vertex -17.288 -0.0019989 8
    endloop
  endfacet
  facet normal 0 1 0
    outer loop
      vertex -22 -0.0019989 8
      vertex -17.288 -0.0019989 0
      vertex -22 -0.0019989 0
    endloop
  endfacet
  facet normal -0.706807 0.707406 0
    outer loop
      vertex -22 -0.0019989 0
      vertex -24.372 -2.37199 8
      vertex -22 -0.0019989 8
    endloop
  endfacet
  facet normal -0.706807 0.707406 0
    outer loop
      vertex -24.372 -2.37199 8
      vertex -22 -0.0019989 0
      vertex -24.372 -2.37199 0
    endloop
  endfacet
  facet normal -1 0 0
    outer loop
      vertex -24.372 -34.072 0
      vertex -24.372 -2.37199 8
      vertex -24.372 -2.37199 0
    endloop
  endfacet
  facet normal -1 -0 0
    outer loop
      vertex -24.372 -2.37199 8
      vertex -24.372 -34.072 0
      vertex -24.372 -34.072 8
    endloop
  endfacet
  facet normal 0 -1 0
    outer loop
      vertex -24.372 -34.072 0
      vertex 0 -34.072 8
      vertex -24.372 -34.072 8
    endloop
  endfacet
  facet normal 0 -1 -0
    outer loop
      vertex 0 -34.072 8
      vertex -24.372 -34.072 0
      vertex 0 -34.072 0
    endloop
  endfacet
  facet normal 1 0 0
    outer loop
      vertex 16.998 0 8
      vertex 16.998 -65.928 0
      vertex 16.998 0 0
    endloop
  endfacet
  facet normal 1 -0 0
    outer loop
      vertex 16.998 -100 8
      vertex 16.998 -65.928 0
      vertex 16.998 0 8
    endloop
  endfacet
  facet normal 1 0 0
    outer loop
      vertex 16.998 -100 -12
      vertex 16.998 -65.928 0
      vertex 16.998 -100 8
    endloop
  endfacet
  facet normal 1 0 0
    outer loop
      vertex 16.998 -65.928 0
      vertex 16.998 -100 -12
      vertex 16.998 -65.928 -12
    endloop
  endfacet
  facet normal -1 0 0
    outer loop
      vertex 0 -65.928 -12
      vertex 0 -100 -12
      vertex 0 -65.928 0
    endloop
  endfacet
  facet normal -1 0 0
    outer loop
      vertex 0 -65.928 0
      vertex 0 -34.072 8
      vertex 0 -34.072 0
    endloop
  endfacet
  facet normal -1 0 0
    outer loop
      vertex 0 -65.928 0
      vertex 0 -100 8
      vertex 0 -34.072 8
    endloop
  endfacet
  facet normal -1 0 0
    outer loop
      vertex 0 -100 8
      vertex 0 -65.928 0
      vertex 0 -100 -12
    endloop
  endfacet
  facet normal -1 0 0
    outer loop
      vertex 0 -0.0019989 0
      vertex 0 0 8
      vertex 0 0 0
    endloop
  endfacet
  facet normal -1 -0 0
    outer loop
      vertex 0 0 8
      vertex 0 -0.0019989 0
      vertex 0 -0.0019989 8
    endloop
  endfacet
  facet normal 0 1 -0
    outer loop
      vertex 16.998 0 0
      vertex 0 0 8
      vertex 16.998 0 8
    endloop
  endfacet
  facet normal 0 1 0
    outer loop
      vertex 0 0 8
      vertex 16.998 0 0
      vertex 0 0 0
    endloop
  endfacet
  facet normal 0 -1 0
    outer loop
      vertex 0 -100 -12
      vertex 16.998 -100 8
      vertex 0 -100 8
    endloop
  endfacet
  facet normal 0 -1 -0
    outer loop
      vertex 16.998 -100 8
      vertex 0 -100 -12
      vertex 16.998 -100 -12
    endloop
  endfacet
  facet normal 0 0 -1
    outer loop
      vertex 0 -100 -12
      vertex 3.998 -65.928 -12
      vertex 3.998 -100 -12
    endloop
  endfacet
  facet normal -0 0 -1
    outer loop
      vertex 3.998 -65.928 -12
      vertex 0 -100 -12
      vertex 0 -65.928 -12
    endloop
  endfacet
  facet normal 0 0 -1
    outer loop
      vertex 12.998 -100 -12
      vertex 16.998 -65.928 -12
      vertex 16.998 -100 -12
    endloop
  endfacet
  facet normal -0 0 -1
    outer loop
      vertex 16.998 -65.928 -12
      vertex 12.998 -100 -12
      vertex 12.998 -65.928 -12
    endloop
  endfacet
  facet normal 0 -0 0
    outer loop
      vertex 12.998 -100 -12
      vertex 16.998 -100 -12
      vertex 0 -100 -12
    endloop
  endfacet
  facet normal 0 0 0
    outer loop
      vertex 0 -100 -12
      vertex 3.998 -100 -12
      vertex 12.998 -100 -12
    endloop
  endfacet
  facet normal 0 1 -0
    outer loop
      vertex 11.998 -65.928 -13
      vertex 3.998 -65.928 -12
      vertex 12.998 -65.928 -12
    endloop
  endfacet
  facet normal 0 1 0
    outer loop
      vertex 3.998 -65.928 -12
      vertex 11.998 -65.928 -13
      vertex 4.998 -65.928 -13
    endloop
  endfacet
  facet normal 0 1 0
    outer loop
      vertex 12.998 -65.928 -12
      vertex 16.998 -65.928 0
      vertex 16.998 -65.928 -12
    endloop
  endfacet
  facet normal 0 1 0
    outer loop
      vertex 16.998 -65.928 0
      vertex 12.998 -65.928 -12
      vertex 0 -65.928 0
    endloop
  endfacet
  facet normal 0 1 -0
    outer loop
      vertex 3.998 -65.928 -12
      vertex 0 -65.928 0
      vertex 12.998 -65.928 -12
    endloop
  endfacet
  facet normal 0 1 0
    outer loop
      vertex 0 -65.928 0
      vertex 3.998 -65.928 -12
      vertex 0 -65.928 -12
    endloop
  endfacet
  facet normal 0 -1 0
    outer loop
      vertex 4.998 -100 -13
      vertex 12.998 -100 -12
      vertex 3.998 -100 -12
    endloop
  endfacet
  facet normal 0 -1 0
    outer loop
      vertex 12.998 -100 -12
      vertex 4.998 -100 -13
      vertex 11.998 -100 -13
    endloop
  endfacet
  facet normal -0.707107 0 -0.707107
    outer loop
      vertex 4.998 -100 -13
      vertex 3.998 -65.928 -12
      vertex 4.998 -65.928 -13
    endloop
  endfacet
  facet normal -0.707107 -0 -0.707107
    outer loop
      vertex 3.998 -65.928 -12
      vertex 4.998 -100 -13
      vertex 3.998 -100 -12
    endloop
  endfacet
  facet normal 0 0 -1
    outer loop
      vertex 11.998 -100 -13
      vertex 11.098 -85.928 -13
      vertex 11.998 -65.928 -13
    endloop
  endfacet
  facet normal 0 0 -1
    outer loop
      vertex 11.998 -100 -13
      vertex 11.0412 -86.4686 -13
      vertex 11.098 -85.928 -13
    endloop
  endfacet
  facet normal 0 0 -1
    outer loop
      vertex 11.998 -100 -13
      vertex 10.8732 -86.9855 -13
      vertex 11.0412 -86.4686 -13
    endloop
  endfacet
  facet normal 0 0 -1
    outer loop
      vertex 11.998 -100 -13
      vertex 10.6014 -87.4562 -13
      vertex 10.8732 -86.9855 -13
    endloop
  endfacet
  facet normal 0 0 -1
    outer loop
      vertex 11.998 -100 -13
      vertex 10.2377 -87.8602 -13
      vertex 10.6014 -87.4562 -13
    endloop
  endfacet
  facet normal 0 0 -1
    outer loop
      vertex 11.998 -100 -13
      vertex 9.798 -88.1797 -13
      vertex 10.2377 -87.8602 -13
    endloop
  endfacet
  facet normal 0 0 -1
    outer loop
      vertex 11.998 -100 -13
      vertex 9.30144 -88.4007 -13
      vertex 9.798 -88.1797 -13
    endloop
  endfacet
  facet normal 0 0 -1
    outer loop
      vertex 11.998 -100 -13
      vertex 8.76977 -88.5138 -13
      vertex 9.30144 -88.4007 -13
    endloop
  endfacet
  facet normal 0 0 -1
    outer loop
      vertex 11.998 -100 -13
      vertex 8.22623 -88.5138 -13
      vertex 8.76977 -88.5138 -13
    endloop
  endfacet
  facet normal 0 0 -1
    outer loop
      vertex 4.998 -100 -13
      vertex 8.22623 -88.5138 -13
      vertex 11.998 -100 -13
    endloop
  endfacet
  facet normal -0 0 -1
    outer loop
      vertex 8.22623 -88.5138 -13
      vertex 4.998 -100 -13
      vertex 7.69456 -88.4007 -13
    endloop
  endfacet
  facet normal -0 0 -1
    outer loop
      vertex 7.69456 -88.4007 -13
      vertex 4.998 -100 -13
      vertex 7.198 -88.1797 -13
    endloop
  endfacet
  facet normal -0 0 -1
    outer loop
      vertex 7.198 -88.1797 -13
      vertex 4.998 -100 -13
      vertex 6.75826 -87.8602 -13
    endloop
  endfacet
  facet normal -0 0 -1
    outer loop
      vertex 6.75826 -87.8602 -13
      vertex 4.998 -100 -13
      vertex 6.39456 -87.4562 -13
    endloop
  endfacet
  facet normal -0 0 -1
    outer loop
      vertex 5.95482 -86.4686 -13
      vertex 4.998 -100 -13
      vertex 5.898 -85.928 -13
    endloop
  endfacet
  facet normal -0 0 -1
    outer loop
      vertex 6.12278 -86.9855 -13
      vertex 4.998 -100 -13
      vertex 5.95482 -86.4686 -13
    endloop
  endfacet
  facet normal -0 0 -1
    outer loop
      vertex 6.39456 -87.4562 -13
      vertex 4.998 -100 -13
      vertex 6.12278 -86.9855 -13
    endloop
  endfacet
  facet normal 0 0 -1
    outer loop
      vertex 11.0412 -85.3874 -13
      vertex 11.998 -65.928 -13
      vertex 11.098 -85.928 -13
    endloop
  endfacet
  facet normal 0 0 -1
    outer loop
      vertex 10.8732 -84.8705 -13
      vertex 11.998 -65.928 -13
      vertex 11.0412 -85.3874 -13
    endloop
  endfacet
  facet normal 0 0 -1
    outer loop
      vertex 10.6014 -84.3998 -13
      vertex 11.998 -65.928 -13
      vertex 10.8732 -84.8705 -13
    endloop
  endfacet
  facet normal 0 0 -1
    outer loop
      vertex 10.2377 -83.9958 -13
      vertex 11.998 -65.928 -13
      vertex 10.6014 -84.3998 -13
    endloop
  endfacet
  facet normal 0 0 -1
    outer loop
      vertex 9.798 -83.6763 -13
      vertex 11.998 -65.928 -13
      vertex 10.2377 -83.9958 -13
    endloop
  endfacet
  facet normal 0 0 -1
    outer loop
      vertex 9.30144 -83.4553 -13
      vertex 11.998 -65.928 -13
      vertex 9.798 -83.6763 -13
    endloop
  endfacet
  facet normal 0 0 -1
    outer loop
      vertex 8.76977 -83.3422 -13
      vertex 11.998 -65.928 -13
      vertex 9.30144 -83.4553 -13
    endloop
  endfacet
  facet normal 0 0 -1
    outer loop
      vertex 8.22623 -83.3422 -13
      vertex 11.998 -65.928 -13
      vertex 8.76977 -83.3422 -13
    endloop
  endfacet
  facet normal 0 0 -1
    outer loop
      vertex 4.998 -65.928 -13
      vertex 8.22623 -83.3422 -13
      vertex 7.69456 -83.4553 -13
    endloop
  endfacet
  facet normal 0 0 -1
    outer loop
      vertex 4.998 -65.928 -13
      vertex 7.69456 -83.4553 -13
      vertex 7.198 -83.6763 -13
    endloop
  endfacet
  facet normal 0 0 -1
    outer loop
      vertex 4.998 -65.928 -13
      vertex 7.198 -83.6763 -13
      vertex 6.75826 -83.9958 -13
    endloop
  endfacet
  facet normal 0 0 -1
    outer loop
      vertex 4.998 -65.928 -13
      vertex 6.75826 -83.9958 -13
      vertex 6.39456 -84.3998 -13
    endloop
  endfacet
  facet normal 0 0 -1
    outer loop
      vertex 4.998 -65.928 -13
      vertex 6.39456 -84.3998 -13
      vertex 6.12278 -84.8705 -13
    endloop
  endfacet
  facet normal 0 0 -1
    outer loop
      vertex 4.998 -65.928 -13
      vertex 6.12278 -84.8705 -13
      vertex 5.95482 -85.3874 -13
    endloop
  endfacet
  facet normal 0 0 -1
    outer loop
      vertex 8.22623 -83.3422 -13
      vertex 4.998 -65.928 -13
      vertex 11.998 -65.928 -13
    endloop
  endfacet
  facet normal 0 0 -1
    outer loop
      vertex 5.898 -85.928 -13
      vertex 4.998 -65.928 -13
      vertex 5.95482 -85.3874 -13
    endloop
  endfacet
  facet normal 0 0 -1
    outer loop
      vertex 4.998 -65.928 -13
      vertex 5.898 -85.928 -13
      vertex 4.998 -100 -13
    endloop
  endfacet
  facet normal 0.707107 0 -0.707107
    outer loop
      vertex 12.998 -100 -12
      vertex 11.998 -65.928 -13
      vertex 12.998 -65.928 -12
    endloop
  endfacet
  facet normal 0.707107 0 -0.707107
    outer loop
      vertex 11.998 -65.928 -13
      vertex 12.998 -100 -12
      vertex 11.998 -100 -13
    endloop
  endfacet
  facet normal -0.951065 -0.308992 0
    outer loop
      vertex 13.8778 -84.7845 -8.2
      vertex 13.5225 -83.6909 8
      vertex 13.5225 -83.6909 -8.2
    endloop
  endfacet
  facet normal -0.951065 -0.308992 0
    outer loop
      vertex 13.5225 -83.6909 8
      vertex 13.8778 -84.7845 -8.2
      vertex 13.8778 -84.7845 8
    endloop
  endfacet
  facet normal -0.994521 -0.10454 0
    outer loop
      vertex 13.998 -85.928 -8.2
      vertex 13.8778 -84.7845 8
      vertex 13.8778 -84.7845 -8.2
    endloop
  endfacet
  facet normal -0.994521 -0.10454 0
    outer loop
      vertex 13.8778 -84.7845 8
      vertex 13.998 -85.928 -8.2
      vertex 13.998 -85.928 8
    endloop
  endfacet
  facet normal -0.951065 0.308992 0
    outer loop
      vertex 13.5225 -88.1651 -8.2
      vertex 13.8778 -87.0715 8
      vertex 13.8778 -87.0715 -8.2
    endloop
  endfacet
  facet normal -0.951065 0.308992 0
    outer loop
      vertex 13.8778 -87.0715 8
      vertex 13.5225 -88.1651 -8.2
      vertex 13.5225 -88.1651 8
    endloop
  endfacet
  facet normal 0.58776 0.809035 -0
    outer loop
      vertex 5.748 -90.6911 -8.2
      vertex 4.81778 -90.0153 8
      vertex 5.748 -90.6911 8
    endloop
  endfacet
  facet normal 0.58776 0.809035 0
    outer loop
      vertex 4.81778 -90.0153 8
      vertex 5.748 -90.6911 -8.2
      vertex 4.81778 -90.0153 -8.2
    endloop
  endfacet
  facet normal -0.207945 0.978141 0
    outer loop
      vertex 10.1976 -91.1588 -8.2
      vertex 9.07291 -91.3979 8
      vertex 10.1976 -91.1588 8
    endloop
  endfacet
  facet normal -0.207945 0.978141 0
    outer loop
      vertex 9.07291 -91.3979 8
      vertex 10.1976 -91.1588 -8.2
      vertex 9.07291 -91.3979 -8.2
    endloop
  endfacet
  facet normal 0.866009 0.500028 0
    outer loop
      vertex 4.04841 -89.1608 8
      vertex 3.4735 -88.1651 -8.2
      vertex 3.4735 -88.1651 8
    endloop
  endfacet
  facet normal 0.866009 0.500028 0
    outer loop
      vertex 3.4735 -88.1651 -8.2
      vertex 4.04841 -89.1608 8
      vertex 4.04841 -89.1608 -8.2
    endloop
  endfacet
  facet normal -0.207945 -0.978141 0
    outer loop
      vertex 9.07291 -80.4581 -8.2
      vertex 10.1976 -80.6972 8
      vertex 9.07291 -80.4581 8
    endloop
  endfacet
  facet normal -0.207945 -0.978141 -0
    outer loop
      vertex 10.1976 -80.6972 8
      vertex 9.07291 -80.4581 -8.2
      vertex 10.1976 -80.6972 -8.2
    endloop
  endfacet
  facet normal 0.207947 0.97814 -0
    outer loop
      vertex 7.92309 -91.3979 -8.2
      vertex 6.79841 -91.1588 8
      vertex 7.92309 -91.3979 8
    endloop
  endfacet
  facet normal 0.207947 0.97814 0
    outer loop
      vertex 6.79841 -91.1588 8
      vertex 7.92309 -91.3979 -8.2
      vertex 6.79841 -91.1588 -8.2
    endloop
  endfacet
  facet normal -0.587768 -0.809029 0
    outer loop
      vertex 11.248 -81.1649 -8.2
      vertex 12.1782 -81.8407 8
      vertex 11.248 -81.1649 8
    endloop
  endfacet
  facet normal -0.587768 -0.809029 -0
    outer loop
      vertex 12.1782 -81.8407 8
      vertex 11.248 -81.1649 -8.2
      vertex 12.1782 -81.8407 -8.2
    endloop
  endfacet
  facet normal -0.40676 -0.913535 0
    outer loop
      vertex 10.1976 -80.6972 -8.2
      vertex 11.248 -81.1649 8
      vertex 10.1976 -80.6972 8
    endloop
  endfacet
  facet normal -0.40676 -0.913535 -0
    outer loop
      vertex 11.248 -81.1649 8
      vertex 10.1976 -80.6972 -8.2
      vertex 11.248 -81.1649 -8.2
    endloop
  endfacet
  facet normal 0.951062 -0.309 0
    outer loop
      vertex 3.11819 -84.7845 8
      vertex 3.4735 -83.6909 -8.2
      vertex 3.4735 -83.6909 8
    endloop
  endfacet
  facet normal 0.951062 -0.309 0
    outer loop
      vertex 3.4735 -83.6909 -8.2
      vertex 3.11819 -84.7845 8
      vertex 3.11819 -84.7845 -8.2
    endloop
  endfacet
  facet normal 0.406756 0.913537 -0
    outer loop
      vertex 6.79841 -91.1588 -8.2
      vertex 5.748 -90.6911 8
      vertex 6.79841 -91.1588 8
    endloop
  endfacet
  facet normal 0.406756 0.913537 0
    outer loop
      vertex 5.748 -90.6911 8
      vertex 6.79841 -91.1588 -8.2
      vertex 5.748 -90.6911 -8.2
    endloop
  endfacet
  facet normal 0.866009 -0.500028 0
    outer loop
      vertex 3.4735 -83.6909 8
      vertex 4.04841 -82.6952 -8.2
      vertex 4.04841 -82.6952 8
    endloop
  endfacet
  facet normal 0.866009 -0.500028 0
    outer loop
      vertex 4.04841 -82.6952 -8.2
      vertex 3.4735 -83.6909 8
      vertex 3.4735 -83.6909 -8.2
    endloop
  endfacet
  facet normal -0.587768 0.809029 0
    outer loop
      vertex 12.1782 -90.0153 -8.2
      vertex 11.248 -90.6911 8
      vertex 12.1782 -90.0153 8
    endloop
  endfacet
  facet normal -0.587768 0.809029 0
    outer loop
      vertex 11.248 -90.6911 8
      vertex 12.1782 -90.0153 -8.2
      vertex 11.248 -90.6911 -8.2
    endloop
  endfacet
  facet normal 0.207947 -0.97814 0
    outer loop
      vertex 6.79841 -80.6972 -8.2
      vertex 7.92309 -80.4581 8
      vertex 6.79841 -80.6972 8
    endloop
  endfacet
  facet normal 0.207947 -0.97814 0
    outer loop
      vertex 7.92309 -80.4581 8
      vertex 6.79841 -80.6972 -8.2
      vertex 7.92309 -80.4581 -8.2
    endloop
  endfacet
  facet normal -0.994521 0.10454 0
    outer loop
      vertex 13.8778 -87.0715 -8.2
      vertex 13.998 -85.928 8
      vertex 13.998 -85.928 -8.2
    endloop
  endfacet
  facet normal -0.994521 0.10454 0
    outer loop
      vertex 13.998 -85.928 8
      vertex 13.8778 -87.0715 -8.2
      vertex 13.8778 -87.0715 8
    endloop
  endfacet
  facet normal 0 -1 0
    outer loop
      vertex 7.92309 -80.4581 -8.2
      vertex 9.07291 -80.4581 8
      vertex 7.92309 -80.4581 8
    endloop
  endfacet
  facet normal 0 -1 -0
    outer loop
      vertex 9.07291 -80.4581 8
      vertex 7.92309 -80.4581 -8.2
      vertex 9.07291 -80.4581 -8.2
    endloop
  endfacet
  facet normal -0.866013 0.500021 0
    outer loop
      vertex 12.9476 -89.1608 -8.2
      vertex 13.5225 -88.1651 8
      vertex 13.5225 -88.1651 -8.2
    endloop
  endfacet
  facet normal -0.866013 0.500021 0
    outer loop
      vertex 13.5225 -88.1651 8
      vertex 12.9476 -89.1608 -8.2
      vertex 12.9476 -89.1608 8
    endloop
  endfacet
  facet normal 0.58776 -0.809035 0
    outer loop
      vertex 4.81778 -81.8407 -8.2
      vertex 5.748 -81.1649 8
      vertex 4.81778 -81.8407 8
    endloop
  endfacet
  facet normal 0.58776 -0.809035 0
    outer loop
      vertex 5.748 -81.1649 8
      vertex 4.81778 -81.8407 -8.2
      vertex 5.748 -81.1649 -8.2
    endloop
  endfacet
  facet normal -0.40676 0.913535 0
    outer loop
      vertex 11.248 -90.6911 -8.2
      vertex 10.1976 -91.1588 8
      vertex 11.248 -90.6911 8
    endloop
  endfacet
  facet normal -0.40676 0.913535 0
    outer loop
      vertex 10.1976 -91.1588 8
      vertex 11.248 -90.6911 -8.2
      vertex 10.1976 -91.1588 -8.2
    endloop
  endfacet
  facet normal 0.406756 -0.913537 0
    outer loop
      vertex 5.748 -81.1649 -8.2
      vertex 6.79841 -80.6972 8
      vertex 5.748 -81.1649 8
    endloop
  endfacet
  facet normal 0.406756 -0.913537 0
    outer loop
      vertex 6.79841 -80.6972 8
      vertex 5.748 -81.1649 -8.2
      vertex 6.79841 -80.6972 -8.2
    endloop
  endfacet
  facet normal -0.743143 0.669133 0
    outer loop
      vertex 12.1782 -90.0153 -8.2
      vertex 12.9476 -89.1608 8
      vertex 12.9476 -89.1608 -8.2
    endloop
  endfacet
  facet normal -0.743143 0.669133 0
    outer loop
      vertex 12.9476 -89.1608 8
      vertex 12.1782 -90.0153 -8.2
      vertex 12.1782 -90.0153 8
    endloop
  endfacet
  facet normal -0.743143 -0.669133 0
    outer loop
      vertex 12.9476 -82.6952 -8.2
      vertex 12.1782 -81.8407 8
      vertex 12.1782 -81.8407 -8.2
    endloop
  endfacet
  facet normal -0.743143 -0.669133 0
    outer loop
      vertex 12.1782 -81.8407 8
      vertex 12.9476 -82.6952 -8.2
      vertex 12.9476 -82.6952 8
    endloop
  endfacet
  facet normal 0.994522 -0.104531 0
    outer loop
      vertex 2.998 -85.928 8
      vertex 3.11819 -84.7845 -8.2
      vertex 3.11819 -84.7845 8
    endloop
  endfacet
  facet normal 0.994522 -0.104531 0
    outer loop
      vertex 3.11819 -84.7845 -8.2
      vertex 2.998 -85.928 8
      vertex 2.998 -85.928 -8.2
    endloop
  endfacet
  facet normal -0.866013 -0.500021 0
    outer loop
      vertex 13.5225 -83.6909 -8.2
      vertex 12.9476 -82.6952 8
      vertex 12.9476 -82.6952 -8.2
    endloop
  endfacet
  facet normal -0.866013 -0.500021 0
    outer loop
      vertex 12.9476 -82.6952 8
      vertex 13.5225 -83.6909 -8.2
      vertex 13.5225 -83.6909 8
    endloop
  endfacet
  facet normal 0.743156 -0.669118 0
    outer loop
      vertex 4.04841 -82.6952 8
      vertex 4.81778 -81.8407 -8.2
      vertex 4.81778 -81.8407 8
    endloop
  endfacet
  facet normal 0.743156 -0.669118 0
    outer loop
      vertex 4.81778 -81.8407 -8.2
      vertex 4.04841 -82.6952 8
      vertex 4.04841 -82.6952 -8.2
    endloop
  endfacet
  facet normal 0 1 -0
    outer loop
      vertex 9.07291 -91.3979 -8.2
      vertex 7.92309 -91.3979 8
      vertex 9.07291 -91.3979 8
    endloop
  endfacet
  facet normal 0 1 0
    outer loop
      vertex 7.92309 -91.3979 8
      vertex 9.07291 -91.3979 -8.2
      vertex 7.92309 -91.3979 -8.2
    endloop
  endfacet
  facet normal 0.951062 0.309 0
    outer loop
      vertex 3.4735 -88.1651 8
      vertex 3.11819 -87.0715 -8.2
      vertex 3.11819 -87.0715 8
    endloop
  endfacet
  facet normal 0.951062 0.309 0
    outer loop
      vertex 3.11819 -87.0715 -8.2
      vertex 3.4735 -88.1651 8
      vertex 3.4735 -88.1651 -8.2
    endloop
  endfacet
  facet normal 0.743156 0.669118 0
    outer loop
      vertex 4.81778 -90.0153 8
      vertex 4.04841 -89.1608 -8.2
      vertex 4.04841 -89.1608 8
    endloop
  endfacet
  facet normal 0.743156 0.669118 0
    outer loop
      vertex 4.04841 -89.1608 -8.2
      vertex 4.81778 -90.0153 8
      vertex 4.81778 -90.0153 -8.2
    endloop
  endfacet
  facet normal 0 0 1
    outer loop
      vertex 13.8778 -84.7845 -8.2
      vertex 13.8778 -87.0715 -8.2
      vertex 13.998 -85.928 -8.2
    endloop
  endfacet
  facet normal 0 0 1
    outer loop
      vertex 13.5225 -83.6909 -8.2
      vertex 13.8778 -87.0715 -8.2
      vertex 13.8778 -84.7845 -8.2
    endloop
  endfacet
  facet normal 0 0 1
    outer loop
      vertex 13.5225 -83.6909 -8.2
      vertex 13.5225 -88.1651 -8.2
      vertex 13.8778 -87.0715 -8.2
    endloop
  endfacet
  facet normal 0 0 1
    outer loop
      vertex 12.9476 -82.6952 -8.2
      vertex 13.5225 -88.1651 -8.2
      vertex 13.5225 -83.6909 -8.2
    endloop
  endfacet
  facet normal 0 0 1
    outer loop
      vertex 12.9476 -82.6952 -8.2
      vertex 12.9476 -89.1608 -8.2
      vertex 13.5225 -88.1651 -8.2
    endloop
  endfacet
  facet normal 0 0 1
    outer loop
      vertex 12.1782 -81.8407 -8.2
      vertex 12.9476 -89.1608 -8.2
      vertex 12.9476 -82.6952 -8.2
    endloop
  endfacet
  facet normal 0 0 1
    outer loop
      vertex 12.1782 -81.8407 -8.2
      vertex 12.1782 -90.0153 -8.2
      vertex 12.9476 -89.1608 -8.2
    endloop
  endfacet
  facet normal 0 0 1
    outer loop
      vertex 11.248 -81.1649 -8.2
      vertex 12.1782 -90.0153 -8.2
      vertex 12.1782 -81.8407 -8.2
    endloop
  endfacet
  facet normal 0 0 1
    outer loop
      vertex 11.248 -81.1649 -8.2
      vertex 11.248 -90.6911 -8.2
      vertex 12.1782 -90.0153 -8.2
    endloop
  endfacet
  facet normal 0 0 1
    outer loop
      vertex 10.1976 -80.6972 -8.2
      vertex 11.248 -90.6911 -8.2
      vertex 11.248 -81.1649 -8.2
    endloop
  endfacet
  facet normal 0 0 1
    outer loop
      vertex 10.1976 -80.6972 -8.2
      vertex 10.1976 -91.1588 -8.2
      vertex 11.248 -90.6911 -8.2
    endloop
  endfacet
  facet normal 0 0 1
    outer loop
      vertex 9.07291 -80.4581 -8.2
      vertex 10.1976 -91.1588 -8.2
      vertex 10.1976 -80.6972 -8.2
    endloop
  endfacet
  facet normal 0 0 1
    outer loop
      vertex 9.07291 -80.4581 -8.2
      vertex 9.07291 -91.3979 -8.2
      vertex 10.1976 -91.1588 -8.2
    endloop
  endfacet
  facet normal -0 0 1
    outer loop
      vertex 7.92309 -80.4581 -8.2
      vertex 9.07291 -91.3979 -8.2
      vertex 9.07291 -80.4581 -8.2
    endloop
  endfacet
  facet normal 0 0 1
    outer loop
      vertex 7.92309 -80.4581 -8.2
      vertex 7.92309 -91.3979 -8.2
      vertex 9.07291 -91.3979 -8.2
    endloop
  endfacet
  facet normal -0 0 1
    outer loop
      vertex 6.79841 -80.6972 -8.2
      vertex 7.92309 -91.3979 -8.2
      vertex 7.92309 -80.4581 -8.2
    endloop
  endfacet
  facet normal 0 0 1
    outer loop
      vertex 6.79841 -80.6972 -8.2
      vertex 6.79841 -91.1588 -8.2
      vertex 7.92309 -91.3979 -8.2
    endloop
  endfacet
  facet normal -0 0 1
    outer loop
      vertex 5.748 -81.1649 -8.2
      vertex 6.79841 -91.1588 -8.2
      vertex 6.79841 -80.6972 -8.2
    endloop
  endfacet
  facet normal 0 0 1
    outer loop
      vertex 5.748 -81.1649 -8.2
      vertex 5.748 -90.6911 -8.2
      vertex 6.79841 -91.1588 -8.2
    endloop
  endfacet
  facet normal -0 0 1
    outer loop
      vertex 4.81778 -81.8407 -8.2
      vertex 5.748 -90.6911 -8.2
      vertex 5.748 -81.1649 -8.2
    endloop
  endfacet
  facet normal 0 0 1
    outer loop
      vertex 4.81778 -81.8407 -8.2
      vertex 4.81778 -90.0153 -8.2
      vertex 5.748 -90.6911 -8.2
    endloop
  endfacet
  facet normal -0 0 1
    outer loop
      vertex 4.04841 -82.6952 -8.2
      vertex 4.81778 -90.0153 -8.2
      vertex 4.81778 -81.8407 -8.2
    endloop
  endfacet
  facet normal 0 0 1
    outer loop
      vertex 4.04841 -82.6952 -8.2
      vertex 4.04841 -89.1608 -8.2
      vertex 4.81778 -90.0153 -8.2
    endloop
  endfacet
  facet normal -0 0 1
    outer loop
      vertex 3.4735 -83.6909 -8.2
      vertex 4.04841 -89.1608 -8.2
      vertex 4.04841 -82.6952 -8.2
    endloop
  endfacet
  facet normal 0 0 1
    outer loop
      vertex 3.4735 -83.6909 -8.2
      vertex 3.4735 -88.1651 -8.2
      vertex 4.04841 -89.1608 -8.2
    endloop
  endfacet
  facet normal -0 0 1
    outer loop
      vertex 3.11819 -84.7845 -8.2
      vertex 3.4735 -88.1651 -8.2
      vertex 3.4735 -83.6909 -8.2
    endloop
  endfacet
  facet normal 0 0 1
    outer loop
      vertex 3.11819 -84.7845 -8.2
      vertex 3.11819 -87.0715 -8.2
      vertex 3.4735 -88.1651 -8.2
    endloop
  endfacet
  facet normal 0 -0 1
    outer loop
      vertex 3.11819 -87.0715 -8.2
      vertex 3.11819 -84.7845 -8.2
      vertex 2.998 -85.928 -8.2
    endloop
  endfacet
  facet normal 0.994522 0.104531 0
    outer loop
      vertex 3.11819 -87.0715 8
      vertex 2.998 -85.928 -8.2
      vertex 2.998 -85.928 8
    endloop
  endfacet
  facet normal 0.994522 0.104531 0
    outer loop
      vertex 2.998 -85.928 -8.2
      vertex 3.11819 -87.0715 8
      vertex 3.11819 -87.0715 -8.2
    endloop
  endfacet
  facet normal 0.994522 -0.10453 0
    outer loop
      vertex 5.898 -85.928 -8.5
      vertex 5.95482 -85.3874 -13
      vertex 5.95482 -85.3874 -8.5
    endloop
  endfacet
  facet normal 0.994522 -0.10453 0
    outer loop
      vertex 5.95482 -85.3874 -13
      vertex 5.898 -85.928 -8.5
      vertex 5.898 -85.928 -13
    endloop
  endfacet
  facet normal -0.95103 -0.309099 0
    outer loop
      vertex 11.0412 -85.3874 -13
      vertex 10.8732 -84.8705 -8.5
      vertex 10.8732 -84.8705 -13
    endloop
  endfacet
  facet normal -0.95103 -0.309099 0
    outer loop
      vertex 10.8732 -84.8705 -8.5
      vertex 11.0412 -85.3874 -13
      vertex 11.0412 -85.3874 -8.5
    endloop
  endfacet
  facet normal -0.994526 -0.104493 0
    outer loop
      vertex 11.098 -85.928 -13
      vertex 11.0412 -85.3874 -8.5
      vertex 11.0412 -85.3874 -13
    endloop
  endfacet
  facet normal -0.994526 -0.104493 0
    outer loop
      vertex 11.0412 -85.3874 -8.5
      vertex 11.098 -85.928 -13
      vertex 11.098 -85.928 -8.5
    endloop
  endfacet
  facet normal -0.865993 -0.500057 0
    outer loop
      vertex 10.8732 -84.8705 -13
      vertex 10.6014 -84.3998 -8.5
      vertex 10.6014 -84.3998 -13
    endloop
  endfacet
  facet normal -0.865993 -0.500057 0
    outer loop
      vertex 10.6014 -84.3998 -8.5
      vertex 10.8732 -84.8705 -13
      vertex 10.8732 -84.8705 -8.5
    endloop
  endfacet
  facet normal -0.994526 0.104493 0
    outer loop
      vertex 11.0412 -86.4686 -13
      vertex 11.098 -85.928 -8.5
      vertex 11.098 -85.928 -13
    endloop
  endfacet
  facet normal -0.994526 0.104493 0
    outer loop
      vertex 11.098 -85.928 -8.5
      vertex 11.0412 -86.4686 -13
      vertex 11.0412 -86.4686 -8.5
    endloop
  endfacet
  facet normal -0.743203 -0.669066 0
    outer loop
      vertex 10.6014 -84.3998 -13
      vertex 10.2377 -83.9958 -8.5
      vertex 10.2377 -83.9958 -13
    endloop
  endfacet
  facet normal -0.743203 -0.669066 0
    outer loop
      vertex 10.2377 -83.9958 -8.5
      vertex 10.6014 -84.3998 -13
      vertex 10.6014 -84.3998 -8.5
    endloop
  endfacet
  facet normal -0.865993 0.500057 0
    outer loop
      vertex 10.6014 -87.4562 -13
      vertex 10.8732 -86.9855 -8.5
      vertex 10.8732 -86.9855 -13
    endloop
  endfacet
  facet normal -0.865993 0.500057 0
    outer loop
      vertex 10.8732 -86.9855 -8.5
      vertex 10.6014 -87.4562 -13
      vertex 10.6014 -87.4562 -8.5
    endloop
  endfacet
  facet normal -0.20807 -0.978114 0
    outer loop
      vertex 8.76977 -83.3422 -13
      vertex 9.30144 -83.4553 -8.5
      vertex 8.76977 -83.3422 -8.5
    endloop
  endfacet
  facet normal -0.20807 -0.978114 -0
    outer loop
      vertex 9.30144 -83.4553 -8.5
      vertex 8.76977 -83.3422 -13
      vertex 9.30144 -83.4553 -13
    endloop
  endfacet
  facet normal 0.951052 0.309032 0
    outer loop
      vertex 6.12278 -86.9855 -8.5
      vertex 5.95482 -86.4686 -13
      vertex 5.95482 -86.4686 -8.5
    endloop
  endfacet
  facet normal 0.951052 0.309032 0
    outer loop
      vertex 5.95482 -86.4686 -13
      vertex 6.12278 -86.9855 -8.5
      vertex 6.12278 -86.9855 -13
    endloop
  endfacet
  facet normal -0.587833 -0.808983 0
    outer loop
      vertex 9.798 -83.6763 -13
      vertex 10.2377 -83.9958 -8.5
      vertex 9.798 -83.6763 -8.5
    endloop
  endfacet
  facet normal -0.587833 -0.808983 -0
    outer loop
      vertex 10.2377 -83.9958 -8.5
      vertex 9.798 -83.6763 -13
      vertex 10.2377 -83.9958 -13
    endloop
  endfacet
  facet normal 0.743203 0.669066 0
    outer loop
      vertex 6.75826 -87.8602 -8.5
      vertex 6.39456 -87.4562 -13
      vertex 6.39456 -87.4562 -8.5
    endloop
  endfacet
  facet normal 0.743203 0.669066 0
    outer loop
      vertex 6.39456 -87.4562 -13
      vertex 6.75826 -87.8602 -8.5
      vertex 6.75826 -87.8602 -13
    endloop
  endfacet
  facet normal 0.587798 -0.809008 0
    outer loop
      vertex 6.75826 -83.9958 -13
      vertex 7.198 -83.6763 -8.5
      vertex 6.75826 -83.9958 -8.5
    endloop
  endfacet
  facet normal 0.587798 -0.809008 0
    outer loop
      vertex 7.198 -83.6763 -8.5
      vertex 6.75826 -83.9958 -13
      vertex 7.198 -83.6763 -13
    endloop
  endfacet
  facet normal -0.20807 0.978114 0
    outer loop
      vertex 9.30144 -88.4007 -13
      vertex 8.76977 -88.5138 -8.5
      vertex 9.30144 -88.4007 -8.5
    endloop
  endfacet
  facet normal -0.20807 0.978114 0
    outer loop
      vertex 8.76977 -88.5138 -8.5
      vertex 9.30144 -88.4007 -13
      vertex 8.76977 -88.5138 -13
    endloop
  endfacet
  facet normal -0.743203 0.669066 0
    outer loop
      vertex 10.2377 -87.8602 -13
      vertex 10.6014 -87.4562 -8.5
      vertex 10.6014 -87.4562 -13
    endloop
  endfacet
  facet normal -0.743203 0.669066 0
    outer loop
      vertex 10.6014 -87.4562 -8.5
      vertex 10.2377 -87.8602 -13
      vertex 10.2377 -87.8602 -8.5
    endloop
  endfacet
  facet normal 0 0 -1
    outer loop
      vertex 11.0412 -86.4686 -8.5
      vertex 11.0412 -85.3874 -8.5
      vertex 11.098 -85.928 -8.5
    endloop
  endfacet
  facet normal 0 0 -1
    outer loop
      vertex 10.8732 -86.9855 -8.5
      vertex 11.0412 -85.3874 -8.5
      vertex 11.0412 -86.4686 -8.5
    endloop
  endfacet
  facet normal 0 0 -1
    outer loop
      vertex 10.8732 -86.9855 -8.5
      vertex 10.8732 -84.8705 -8.5
      vertex 11.0412 -85.3874 -8.5
    endloop
  endfacet
  facet normal 0 0 -1
    outer loop
      vertex 10.6014 -87.4562 -8.5
      vertex 10.8732 -84.8705 -8.5
      vertex 10.8732 -86.9855 -8.5
    endloop
  endfacet
  facet normal 0 0 -1
    outer loop
      vertex 10.6014 -87.4562 -8.5
      vertex 10.6014 -84.3998 -8.5
      vertex 10.8732 -84.8705 -8.5
    endloop
  endfacet
  facet normal 0 0 -1
    outer loop
      vertex 10.2377 -87.8602 -8.5
      vertex 10.6014 -84.3998 -8.5
      vertex 10.6014 -87.4562 -8.5
    endloop
  endfacet
  facet normal 0 0 -1
    outer loop
      vertex 10.2377 -87.8602 -8.5
      vertex 10.2377 -83.9958 -8.5
      vertex 10.6014 -84.3998 -8.5
    endloop
  endfacet
  facet normal 0 0 -1
    outer loop
      vertex 9.798 -88.1797 -8.5
      vertex 10.2377 -83.9958 -8.5
      vertex 10.2377 -87.8602 -8.5
    endloop
  endfacet
  facet normal 0 0 -1
    outer loop
      vertex 9.798 -88.1797 -8.5
      vertex 9.798 -83.6763 -8.5
      vertex 10.2377 -83.9958 -8.5
    endloop
  endfacet
  facet normal 0 0 -1
    outer loop
      vertex 9.30144 -88.4007 -8.5
      vertex 9.798 -83.6763 -8.5
      vertex 9.798 -88.1797 -8.5
    endloop
  endfacet
  facet normal 0 0 -1
    outer loop
      vertex 9.30144 -88.4007 -8.5
      vertex 9.30144 -83.4553 -8.5
      vertex 9.798 -83.6763 -8.5
    endloop
  endfacet
  facet normal 0 0 -1
    outer loop
      vertex 8.76977 -88.5138 -8.5
      vertex 9.30144 -83.4553 -8.5
      vertex 9.30144 -88.4007 -8.5
    endloop
  endfacet
  facet normal 0 0 -1
    outer loop
      vertex 8.76977 -88.5138 -8.5
      vertex 8.76977 -83.3422 -8.5
      vertex 9.30144 -83.4553 -8.5
    endloop
  endfacet
  facet normal 0 0 -1
    outer loop
      vertex 8.22623 -88.5138 -8.5
      vertex 8.76977 -83.3422 -8.5
      vertex 8.76977 -88.5138 -8.5
    endloop
  endfacet
  facet normal 0 0 -1
    outer loop
      vertex 8.22623 -88.5138 -8.5
      vertex 8.22623 -83.3422 -8.5
      vertex 8.76977 -83.3422 -8.5
    endloop
  endfacet
  facet normal 0 0 -1
    outer loop
      vertex 7.69456 -88.4007 -8.5
      vertex 8.22623 -83.3422 -8.5
      vertex 8.22623 -88.5138 -8.5
    endloop
  endfacet
  facet normal 0 0 -1
    outer loop
      vertex 7.69456 -88.4007 -8.5
      vertex 7.69456 -83.4553 -8.5
      vertex 8.22623 -83.3422 -8.5
    endloop
  endfacet
  facet normal 0 0 -1
    outer loop
      vertex 7.198 -88.1797 -8.5
      vertex 7.69456 -83.4553 -8.5
      vertex 7.69456 -88.4007 -8.5
    endloop
  endfacet
  facet normal 0 0 -1
    outer loop
      vertex 7.198 -88.1797 -8.5
      vertex 7.198 -83.6763 -8.5
      vertex 7.69456 -83.4553 -8.5
    endloop
  endfacet
  facet normal 0 0 -1
    outer loop
      vertex 6.75826 -87.8602 -8.5
      vertex 7.198 -83.6763 -8.5
      vertex 7.198 -88.1797 -8.5
    endloop
  endfacet
  facet normal 0 0 -1
    outer loop
      vertex 6.75826 -87.8602 -8.5
      vertex 6.75826 -83.9958 -8.5
      vertex 7.198 -83.6763 -8.5
    endloop
  endfacet
  facet normal 0 0 -1
    outer loop
      vertex 6.39456 -87.4562 -8.5
      vertex 6.75826 -83.9958 -8.5
      vertex 6.75826 -87.8602 -8.5
    endloop
  endfacet
  facet normal 0 0 -1
    outer loop
      vertex 6.39456 -87.4562 -8.5
      vertex 6.39456 -84.3998 -8.5
      vertex 6.75826 -83.9958 -8.5
    endloop
  endfacet
  facet normal 0 0 -1
    outer loop
      vertex 6.12278 -86.9855 -8.5
      vertex 6.39456 -84.3998 -8.5
      vertex 6.39456 -87.4562 -8.5
    endloop
  endfacet
  facet normal 0 0 -1
    outer loop
      vertex 6.12278 -86.9855 -8.5
      vertex 6.12278 -84.8705 -8.5
      vertex 6.39456 -84.3998 -8.5
    endloop
  endfacet
  facet normal 0 0 -1
    outer loop
      vertex 5.95482 -86.4686 -8.5
      vertex 6.12278 -84.8705 -8.5
      vertex 6.12278 -86.9855 -8.5
    endloop
  endfacet
  facet normal 0 0 -1
    outer loop
      vertex 5.95482 -86.4686 -8.5
      vertex 5.95482 -85.3874 -8.5
      vertex 6.12278 -84.8705 -8.5
    endloop
  endfacet
  facet normal 0 -0 -1
    outer loop
      vertex 5.95482 -85.3874 -8.5
      vertex 5.95482 -86.4686 -8.5
      vertex 5.898 -85.928 -8.5
    endloop
  endfacet
  facet normal 0.951052 -0.309032 0
    outer loop
      vertex 5.95482 -85.3874 -8.5
      vertex 6.12278 -84.8705 -13
      vertex 6.12278 -84.8705 -8.5
    endloop
  endfacet
  facet normal 0.951052 -0.309032 0
    outer loop
      vertex 6.12278 -84.8705 -13
      vertex 5.95482 -85.3874 -8.5
      vertex 5.95482 -85.3874 -13
    endloop
  endfacet
  facet normal 0.40661 0.913602 -0
    outer loop
      vertex 7.69456 -88.4007 -13
      vertex 7.198 -88.1797 -8.5
      vertex 7.69456 -88.4007 -8.5
    endloop
  endfacet
  facet normal 0.40661 0.913602 0
    outer loop
      vertex 7.198 -88.1797 -8.5
      vertex 7.69456 -88.4007 -13
      vertex 7.198 -88.1797 -13
    endloop
  endfacet
  facet normal 0.40661 -0.913602 0
    outer loop
      vertex 7.198 -83.6763 -13
      vertex 7.69456 -83.4553 -8.5
      vertex 7.198 -83.6763 -8.5
    endloop
  endfacet
  facet normal 0.40661 -0.913602 0
    outer loop
      vertex 7.69456 -83.4553 -8.5
      vertex 7.198 -83.6763 -13
      vertex 7.69456 -83.4553 -13
    endloop
  endfacet
  facet normal -0.40661 0.913602 0
    outer loop
      vertex 9.798 -88.1797 -13
      vertex 9.30144 -88.4007 -8.5
      vertex 9.798 -88.1797 -8.5
    endloop
  endfacet
  facet normal -0.40661 0.913602 0
    outer loop
      vertex 9.30144 -88.4007 -8.5
      vertex 9.798 -88.1797 -13
      vertex 9.30144 -88.4007 -13
    endloop
  endfacet
  facet normal -0.95103 0.309099 0
    outer loop
      vertex 10.8732 -86.9855 -13
      vertex 11.0412 -86.4686 -8.5
      vertex 11.0412 -86.4686 -13
    endloop
  endfacet
  facet normal -0.95103 0.309099 0
    outer loop
      vertex 11.0412 -86.4686 -8.5
      vertex 10.8732 -86.9855 -13
      vertex 10.8732 -86.9855 -8.5
    endloop
  endfacet
  facet normal 0.994522 0.10453 0
    outer loop
      vertex 5.95482 -86.4686 -8.5
      vertex 5.898 -85.928 -13
      vertex 5.898 -85.928 -8.5
    endloop
  endfacet
  facet normal 0.994522 0.10453 0
    outer loop
      vertex 5.898 -85.928 -13
      vertex 5.95482 -86.4686 -8.5
      vertex 5.95482 -86.4686 -13
    endloop
  endfacet
  facet normal 0.20807 0.978114 -0
    outer loop
      vertex 8.22623 -88.5138 -13
      vertex 7.69456 -88.4007 -8.5
      vertex 8.22623 -88.5138 -8.5
    endloop
  endfacet
  facet normal 0.20807 0.978114 0
    outer loop
      vertex 7.69456 -88.4007 -8.5
      vertex 8.22623 -88.5138 -13
      vertex 7.69456 -88.4007 -13
    endloop
  endfacet
  facet normal 0.866008 0.500029 0
    outer loop
      vertex 6.39456 -87.4562 -8.5
      vertex 6.12278 -86.9855 -13
      vertex 6.12278 -86.9855 -8.5
    endloop
  endfacet
  facet normal 0.866008 0.500029 0
    outer loop
      vertex 6.12278 -86.9855 -13
      vertex 6.39456 -87.4562 -8.5
      vertex 6.39456 -87.4562 -13
    endloop
  endfacet
  facet normal 0.20807 -0.978114 0
    outer loop
      vertex 7.69456 -83.4553 -13
      vertex 8.22623 -83.3422 -8.5
      vertex 7.69456 -83.4553 -8.5
    endloop
  endfacet
  facet normal 0.20807 -0.978114 0
    outer loop
      vertex 8.22623 -83.3422 -8.5
      vertex 7.69456 -83.4553 -13
      vertex 8.22623 -83.3422 -13
    endloop
  endfacet
  facet normal -0.40661 -0.913602 0
    outer loop
      vertex 9.30144 -83.4553 -13
      vertex 9.798 -83.6763 -8.5
      vertex 9.30144 -83.4553 -8.5
    endloop
  endfacet
  facet normal -0.40661 -0.913602 -0
    outer loop
      vertex 9.798 -83.6763 -8.5
      vertex 9.30144 -83.4553 -13
      vertex 9.798 -83.6763 -13
    endloop
  endfacet
  facet normal 0.743203 -0.669066 0
    outer loop
      vertex 6.39456 -84.3998 -8.5
      vertex 6.75826 -83.9958 -13
      vertex 6.75826 -83.9958 -8.5
    endloop
  endfacet
  facet normal 0.743203 -0.669066 0
    outer loop
      vertex 6.75826 -83.9958 -13
      vertex 6.39456 -84.3998 -8.5
      vertex 6.39456 -84.3998 -13
    endloop
  endfacet
  facet normal 0.866008 -0.500029 0
    outer loop
      vertex 6.12278 -84.8705 -8.5
      vertex 6.39456 -84.3998 -13
      vertex 6.39456 -84.3998 -8.5
    endloop
  endfacet
  facet normal 0.866008 -0.500029 0
    outer loop
      vertex 6.39456 -84.3998 -13
      vertex 6.12278 -84.8705 -8.5
      vertex 6.12278 -84.8705 -13
    endloop
  endfacet
  facet normal 0 1 -0
    outer loop
      vertex 8.76977 -88.5138 -13
      vertex 8.22623 -88.5138 -8.5
      vertex 8.76977 -88.5138 -8.5
    endloop
  endfacet
  facet normal 0 1 0
    outer loop
      vertex 8.22623 -88.5138 -8.5
      vertex 8.76977 -88.5138 -13
      vertex 8.22623 -88.5138 -13
    endloop
  endfacet
  facet normal -0.587833 0.808983 0
    outer loop
      vertex 10.2377 -87.8602 -13
      vertex 9.798 -88.1797 -8.5
      vertex 10.2377 -87.8602 -8.5
    endloop
  endfacet
  facet normal -0.587833 0.808983 0
    outer loop
      vertex 9.798 -88.1797 -8.5
      vertex 10.2377 -87.8602 -13
      vertex 9.798 -88.1797 -13
    endloop
  endfacet
  facet normal 0 -1 0
    outer loop
      vertex 8.22623 -83.3422 -13
      vertex 8.76977 -83.3422 -8.5
      vertex 8.22623 -83.3422 -8.5
    endloop
  endfacet
  facet normal 0 -1 -0
    outer loop
      vertex 8.76977 -83.3422 -8.5
      vertex 8.22623 -83.3422 -13
      vertex 8.76977 -83.3422 -13
    endloop
  endfacet
  facet normal 0.587798 0.809008 -0
    outer loop
      vertex 7.198 -88.1797 -13
      vertex 6.75826 -87.8602 -8.5
      vertex 7.198 -88.1797 -8.5
    endloop
  endfacet
  facet normal 0.587798 0.809008 0
    outer loop
      vertex 6.75826 -87.8602 -8.5
      vertex 7.198 -88.1797 -13
      vertex 6.75826 -87.8602 -13
    endloop
  endfacet
  facet normal 0.994526 -0.104493 0
    outer loop
      vertex -22.6 -29.5 8
      vertex -22.5432 -28.9594 1.2
      vertex -22.5432 -28.9594 8
    endloop
  endfacet
  facet normal 0.994526 -0.104493 0
    outer loop
      vertex -22.5432 -28.9594 1.2
      vertex -22.6 -29.5 8
      vertex -22.6 -29.5 1.2
    endloop
  endfacet
  facet normal -0.95103 -0.309099 0
    outer loop
      vertex -17.4568 -28.9594 1.2
      vertex -17.6248 -28.4425 8
      vertex -17.6248 -28.4425 1.2
    endloop
  endfacet
  facet normal -0.95103 -0.309099 0
    outer loop
      vertex -17.6248 -28.4425 8
      vertex -17.4568 -28.9594 1.2
      vertex -17.4568 -28.9594 8
    endloop
  endfacet
  facet normal -0.994526 -0.104493 0
    outer loop
      vertex -17.4 -29.5 1.2
      vertex -17.4568 -28.9594 8
      vertex -17.4568 -28.9594 1.2
    endloop
  endfacet
  facet normal -0.994526 -0.104493 0
    outer loop
      vertex -17.4568 -28.9594 8
      vertex -17.4 -29.5 1.2
      vertex -17.4 -29.5 8
    endloop
  endfacet
  facet normal -0.865993 -0.500057 0
    outer loop
      vertex -17.6248 -28.4425 1.2
      vertex -17.8966 -27.9718 8
      vertex -17.8966 -27.9718 1.2
    endloop
  endfacet
  facet normal -0.865993 -0.500057 0
    outer loop
      vertex -17.8966 -27.9718 8
      vertex -17.6248 -28.4425 1.2
      vertex -17.6248 -28.4425 8
    endloop
  endfacet
  facet normal -0.994526 0.104493 0
    outer loop
      vertex -17.4568 -30.0406 1.2
      vertex -17.4 -29.5 8
      vertex -17.4 -29.5 1.2
    endloop
  endfacet
  facet normal -0.994526 0.104493 0
    outer loop
      vertex -17.4 -29.5 8
      vertex -17.4568 -30.0406 1.2
      vertex -17.4568 -30.0406 8
    endloop
  endfacet
  facet normal -0.743203 -0.669066 0
    outer loop
      vertex -17.8966 -27.9718 1.2
      vertex -18.2603 -27.5678 8
      vertex -18.2603 -27.5678 1.2
    endloop
  endfacet
  facet normal -0.743203 -0.669066 0
    outer loop
      vertex -18.2603 -27.5678 8
      vertex -17.8966 -27.9718 1.2
      vertex -17.8966 -27.9718 8
    endloop
  endfacet
  facet normal -0.865993 0.500057 0
    outer loop
      vertex -17.8966 -31.0282 1.2
      vertex -17.6248 -30.5575 8
      vertex -17.6248 -30.5575 1.2
    endloop
  endfacet
  facet normal -0.865993 0.500057 0
    outer loop
      vertex -17.6248 -30.5575 8
      vertex -17.8966 -31.0282 1.2
      vertex -17.8966 -31.0282 8
    endloop
  endfacet
  facet normal -0.208096 -0.978108 0
    outer loop
      vertex -19.7282 -26.9142 1.2
      vertex -19.1966 -27.0273 8
      vertex -19.7282 -26.9142 8
    endloop
  endfacet
  facet normal -0.208096 -0.978108 -0
    outer loop
      vertex -19.1966 -27.0273 8
      vertex -19.7282 -26.9142 1.2
      vertex -19.1966 -27.0273 1.2
    endloop
  endfacet
  facet normal 0.95103 0.309099 0
    outer loop
      vertex -22.3752 -30.5575 8
      vertex -22.5432 -30.0406 1.2
      vertex -22.5432 -30.0406 8
    endloop
  endfacet
  facet normal 0.95103 0.309099 0
    outer loop
      vertex -22.5432 -30.0406 1.2
      vertex -22.3752 -30.5575 8
      vertex -22.3752 -30.5575 1.2
    endloop
  endfacet
  facet normal 0 1 -0
    outer loop
      vertex -19.7282 -32.0858 1.2
      vertex -20.2718 -32.0858 8
      vertex -19.7282 -32.0858 8
    endloop
  endfacet
  facet normal 0 1 0
    outer loop
      vertex -20.2718 -32.0858 8
      vertex -19.7282 -32.0858 1.2
      vertex -20.2718 -32.0858 1.2
    endloop
  endfacet
  facet normal -0.587833 -0.808983 0
    outer loop
      vertex -18.7 -27.2483 1.2
      vertex -18.2603 -27.5678 8
      vertex -18.7 -27.2483 8
    endloop
  endfacet
  facet normal -0.587833 -0.808983 -0
    outer loop
      vertex -18.2603 -27.5678 8
      vertex -18.7 -27.2483 1.2
      vertex -18.2603 -27.5678 1.2
    endloop
  endfacet
  facet normal 0.743203 0.669066 0
    outer loop
      vertex -21.7397 -31.4322 8
      vertex -22.1034 -31.0282 1.2
      vertex -22.1034 -31.0282 8
    endloop
  endfacet
  facet normal 0.743203 0.669066 0
    outer loop
      vertex -22.1034 -31.0282 1.2
      vertex -21.7397 -31.4322 8
      vertex -21.7397 -31.4322 1.2
    endloop
  endfacet
  facet normal 0.587833 -0.808983 0
    outer loop
      vertex -21.7397 -27.5678 1.2
      vertex -21.3 -27.2483 8
      vertex -21.7397 -27.5678 8
    endloop
  endfacet
  facet normal 0.587833 -0.808983 0
    outer loop
      vertex -21.3 -27.2483 8
      vertex -21.7397 -27.5678 1.2
      vertex -21.3 -27.2483 1.2
    endloop
  endfacet
  facet normal -0.208096 0.978108 0
    outer loop
      vertex -19.1966 -31.9727 1.2
      vertex -19.7282 -32.0858 8
      vertex -19.1966 -31.9727 8
    endloop
  endfacet
  facet normal -0.208096 0.978108 0
    outer loop
      vertex -19.7282 -32.0858 8
      vertex -19.1966 -31.9727 1.2
      vertex -19.7282 -32.0858 1.2
    endloop
  endfacet
  facet normal -0.743203 0.669066 0
    outer loop
      vertex -18.2603 -31.4322 1.2
      vertex -17.8966 -31.0282 8
      vertex -17.8966 -31.0282 1.2
    endloop
  endfacet
  facet normal -0.743203 0.669066 0
    outer loop
      vertex -17.8966 -31.0282 8
      vertex -18.2603 -31.4322 1.2
      vertex -18.2603 -31.4322 8
    endloop
  endfacet
  facet normal 0.95103 -0.309099 0
    outer loop
      vertex -22.5432 -28.9594 8
      vertex -22.3752 -28.4425 1.2
      vertex -22.3752 -28.4425 8
    endloop
  endfacet
  facet normal 0.95103 -0.309099 0
    outer loop
      vertex -22.3752 -28.4425 1.2
      vertex -22.5432 -28.9594 8
      vertex -22.5432 -28.9594 1.2
    endloop
  endfacet
  facet normal 0.406582 0.913614 -0
    outer loop
      vertex -20.8034 -31.9727 1.2
      vertex -21.3 -31.7517 8
      vertex -20.8034 -31.9727 8
    endloop
  endfacet
  facet normal 0.406582 0.913614 0
    outer loop
      vertex -21.3 -31.7517 8
      vertex -20.8034 -31.9727 1.2
      vertex -21.3 -31.7517 1.2
    endloop
  endfacet
  facet normal 0.406582 -0.913614 0
    outer loop
      vertex -21.3 -27.2483 1.2
      vertex -20.8034 -27.0273 8
      vertex -21.3 -27.2483 8
    endloop
  endfacet
  facet normal 0.406582 -0.913614 0
    outer loop
      vertex -20.8034 -27.0273 8
      vertex -21.3 -27.2483 1.2
      vertex -20.8034 -27.0273 1.2
    endloop
  endfacet
  facet normal -0.406582 0.913614 0
    outer loop
      vertex -18.7 -31.7517 1.2
      vertex -19.1966 -31.9727 8
      vertex -18.7 -31.7517 8
    endloop
  endfacet
  facet normal -0.406582 0.913614 0
    outer loop
      vertex -19.1966 -31.9727 8
      vertex -18.7 -31.7517 1.2
      vertex -19.1966 -31.9727 1.2
    endloop
  endfacet
  facet normal -0.95103 0.309099 0
    outer loop
      vertex -17.6248 -30.5575 1.2
      vertex -17.4568 -30.0406 8
      vertex -17.4568 -30.0406 1.2
    endloop
  endfacet
  facet normal -0.95103 0.309099 0
    outer loop
      vertex -17.4568 -30.0406 8
      vertex -17.6248 -30.5575 1.2
      vertex -17.6248 -30.5575 8
    endloop
  endfacet
  facet normal 0.994526 0.104493 0
    outer loop
      vertex -22.5432 -30.0406 8
      vertex -22.6 -29.5 1.2
      vertex -22.6 -29.5 8
    endloop
  endfacet
  facet normal 0.994526 0.104493 0
    outer loop
      vertex -22.6 -29.5 1.2
      vertex -22.5432 -30.0406 8
      vertex -22.5432 -30.0406 1.2
    endloop
  endfacet
  facet normal 0.208096 0.978108 -0
    outer loop
      vertex -20.2718 -32.0858 1.2
      vertex -20.8034 -31.9727 8
      vertex -20.2718 -32.0858 8
    endloop
  endfacet
  facet normal 0.208096 0.978108 0
    outer loop
      vertex -20.8034 -31.9727 8
      vertex -20.2718 -32.0858 1.2
      vertex -20.8034 -31.9727 1.2
    endloop
  endfacet
  facet normal 0.865993 0.500057 0
    outer loop
      vertex -22.1034 -31.0282 8
      vertex -22.3752 -30.5575 1.2
      vertex -22.3752 -30.5575 8
    endloop
  endfacet
  facet normal 0.865993 0.500057 0
    outer loop
      vertex -22.3752 -30.5575 1.2
      vertex -22.1034 -31.0282 8
      vertex -22.1034 -31.0282 1.2
    endloop
  endfacet
  facet normal 0.208096 -0.978108 0
    outer loop
      vertex -20.8034 -27.0273 1.2
      vertex -20.2718 -26.9142 8
      vertex -20.8034 -27.0273 8
    endloop
  endfacet
  facet normal 0.208096 -0.978108 0
    outer loop
      vertex -20.2718 -26.9142 8
      vertex -20.8034 -27.0273 1.2
      vertex -20.2718 -26.9142 1.2
    endloop
  endfacet
  facet normal -0.406582 -0.913614 0
    outer loop
      vertex -19.1966 -27.0273 1.2
      vertex -18.7 -27.2483 8
      vertex -19.1966 -27.0273 8
    endloop
  endfacet
  facet normal -0.406582 -0.913614 -0
    outer loop
      vertex -18.7 -27.2483 8
      vertex -19.1966 -27.0273 1.2
      vertex -18.7 -27.2483 1.2
    endloop
  endfacet
  facet normal 0.743203 -0.669066 0
    outer loop
      vertex -22.1034 -27.9718 8
      vertex -21.7397 -27.5678 1.2
      vertex -21.7397 -27.5678 8
    endloop
  endfacet
  facet normal 0.743203 -0.669066 0
    outer loop
      vertex -21.7397 -27.5678 1.2
      vertex -22.1034 -27.9718 8
      vertex -22.1034 -27.9718 1.2
    endloop
  endfacet
  facet normal 0.865993 -0.500057 0
    outer loop
      vertex -22.3752 -28.4425 8
      vertex -22.1034 -27.9718 1.2
      vertex -22.1034 -27.9718 8
    endloop
  endfacet
  facet normal 0.865993 -0.500057 0
    outer loop
      vertex -22.1034 -27.9718 1.2
      vertex -22.3752 -28.4425 8
      vertex -22.3752 -28.4425 1.2
    endloop
  endfacet
  facet normal -0.587833 0.808983 0
    outer loop
      vertex -18.2603 -31.4322 1.2
      vertex -18.7 -31.7517 8
      vertex -18.2603 -31.4322 8
    endloop
  endfacet
  facet normal -0.587833 0.808983 0
    outer loop
      vertex -18.7 -31.7517 8
      vertex -18.2603 -31.4322 1.2
      vertex -18.7 -31.7517 1.2
    endloop
  endfacet
  facet normal 0 -1 0
    outer loop
      vertex -20.2718 -26.9142 1.2
      vertex -19.7282 -26.9142 8
      vertex -20.2718 -26.9142 8
    endloop
  endfacet
  facet normal 0 -1 -0
    outer loop
      vertex -19.7282 -26.9142 8
      vertex -20.2718 -26.9142 1.2
      vertex -19.7282 -26.9142 1.2
    endloop
  endfacet
  facet normal 0.587833 0.808983 -0
    outer loop
      vertex -21.3 -31.7517 1.2
      vertex -21.7397 -31.4322 8
      vertex -21.3 -31.7517 8
    endloop
  endfacet
  facet normal 0.587833 0.808983 0
    outer loop
      vertex -21.7397 -31.4322 8
      vertex -21.3 -31.7517 1.2
      vertex -21.7397 -31.4322 1.2
    endloop
  endfacet
  facet normal 0 0 1
    outer loop
      vertex -17.4568 -28.9594 1.2
      vertex -17.4568 -30.0406 1.2
      vertex -17.4 -29.5 1.2
    endloop
  endfacet
  facet normal 0 0 1
    outer loop
      vertex -17.6248 -28.4425 1.2
      vertex -17.4568 -30.0406 1.2
      vertex -17.4568 -28.9594 1.2
    endloop
  endfacet
  facet normal 0 0 1
    outer loop
      vertex -17.6248 -28.4425 1.2
      vertex -17.6248 -30.5575 1.2
      vertex -17.4568 -30.0406 1.2
    endloop
  endfacet
  facet normal 0 0 1
    outer loop
      vertex -17.8966 -27.9718 1.2
      vertex -17.6248 -30.5575 1.2
      vertex -17.6248 -28.4425 1.2
    endloop
  endfacet
  facet normal 0 0 1
    outer loop
      vertex -17.8966 -27.9718 1.2
      vertex -17.8966 -31.0282 1.2
      vertex -17.6248 -30.5575 1.2
    endloop
  endfacet
  facet normal 0 0 1
    outer loop
      vertex -18.2603 -27.5678 1.2
      vertex -17.8966 -31.0282 1.2
      vertex -17.8966 -27.9718 1.2
    endloop
  endfacet
  facet normal 0 0 1
    outer loop
      vertex -18.2603 -27.5678 1.2
      vertex -18.2603 -31.4322 1.2
      vertex -17.8966 -31.0282 1.2
    endloop
  endfacet
  facet normal 0 0 1
    outer loop
      vertex -18.7 -27.2483 1.2
      vertex -18.2603 -31.4322 1.2
      vertex -18.2603 -27.5678 1.2
    endloop
  endfacet
  facet normal 0 0 1
    outer loop
      vertex -18.7 -27.2483 1.2
      vertex -18.7 -31.7517 1.2
      vertex -18.2603 -31.4322 1.2
    endloop
  endfacet
  facet normal 0 0 1
    outer loop
      vertex -19.1966 -27.0273 1.2
      vertex -18.7 -31.7517 1.2
      vertex -18.7 -27.2483 1.2
    endloop
  endfacet
  facet normal 0 0 1
    outer loop
      vertex -19.1966 -27.0273 1.2
      vertex -19.1966 -31.9727 1.2
      vertex -18.7 -31.7517 1.2
    endloop
  endfacet
  facet normal 0 0 1
    outer loop
      vertex -19.7282 -26.9142 1.2
      vertex -19.1966 -31.9727 1.2
      vertex -19.1966 -27.0273 1.2
    endloop
  endfacet
  facet normal 0 0 1
    outer loop
      vertex -19.7282 -26.9142 1.2
      vertex -19.7282 -32.0858 1.2
      vertex -19.1966 -31.9727 1.2
    endloop
  endfacet
  facet normal -0 0 1
    outer loop
      vertex -20.2718 -26.9142 1.2
      vertex -19.7282 -32.0858 1.2
      vertex -19.7282 -26.9142 1.2
    endloop
  endfacet
  facet normal 0 0 1
    outer loop
      vertex -20.2718 -26.9142 1.2
      vertex -20.2718 -32.0858 1.2
      vertex -19.7282 -32.0858 1.2
    endloop
  endfacet
  facet normal -0 0 1
    outer loop
      vertex -20.8034 -27.0273 1.2
      vertex -20.2718 -32.0858 1.2
      vertex -20.2718 -26.9142 1.2
    endloop
  endfacet
  facet normal 0 0 1
    outer loop
      vertex -20.8034 -27.0273 1.2
      vertex -20.8034 -31.9727 1.2
      vertex -20.2718 -32.0858 1.2
    endloop
  endfacet
  facet normal -0 0 1
    outer loop
      vertex -21.3 -27.2483 1.2
      vertex -20.8034 -31.9727 1.2
      vertex -20.8034 -27.0273 1.2
    endloop
  endfacet
  facet normal 0 0 1
    outer loop
      vertex -21.3 -27.2483 1.2
      vertex -21.3 -31.7517 1.2
      vertex -20.8034 -31.9727 1.2
    endloop
  endfacet
  facet normal -0 0 1
    outer loop
      vertex -21.7397 -27.5678 1.2
      vertex -21.3 -31.7517 1.2
      vertex -21.3 -27.2483 1.2
    endloop
  endfacet
  facet normal 0 0 1
    outer loop
      vertex -21.7397 -27.5678 1.2
      vertex -21.7397 -31.4322 1.2
      vertex -21.3 -31.7517 1.2
    endloop
  endfacet
  facet normal -0 0 1
    outer loop
      vertex -22.1034 -27.9718 1.2
      vertex -21.7397 -31.4322 1.2
      vertex -21.7397 -27.5678 1.2
    endloop
  endfacet
  facet normal 0 0 1
    outer loop
      vertex -22.1034 -27.9718 1.2
      vertex -22.1034 -31.0282 1.2
      vertex -21.7397 -31.4322 1.2
    endloop
  endfacet
  facet normal -0 0 1
    outer loop
      vertex -22.3752 -28.4425 1.2
      vertex -22.1034 -31.0282 1.2
      vertex -22.1034 -27.9718 1.2
    endloop
  endfacet
  facet normal 0 0 1
    outer loop
      vertex -22.3752 -28.4425 1.2
      vertex -22.3752 -30.5575 1.2
      vertex -22.1034 -31.0282 1.2
    endloop
  endfacet
  facet normal -0 0 1
    outer loop
      vertex -22.5432 -28.9594 1.2
      vertex -22.3752 -30.5575 1.2
      vertex -22.3752 -28.4425 1.2
    endloop
  endfacet
  facet normal 0 0 1
    outer loop
      vertex -22.5432 -28.9594 1.2
      vertex -22.5432 -30.0406 1.2
      vertex -22.3752 -30.5575 1.2
    endloop
  endfacet
  facet normal 0 -0 1
    outer loop
      vertex -22.5432 -30.0406 1.2
      vertex -22.5432 -28.9594 1.2
      vertex -22.6 -29.5 1.2
    endloop
  endfacet
  facet normal 0.994521 -0.104535 0
    outer loop
      vertex 9.9 -4.5 8
      vertex 9.95682 -3.95943 1.2
      vertex 9.95682 -3.95943 8
    endloop
  endfacet
  facet normal 0.994521 -0.104535 0
    outer loop
      vertex 9.95682 -3.95943 1.2
      vertex 9.9 -4.5 8
      vertex 9.9 -4.5 1.2
    endloop
  endfacet
  facet normal -0.951039 -0.309072 0
    outer loop
      vertex 15.0432 -3.95943 1.2
      vertex 14.8752 -3.44248 8
      vertex 14.8752 -3.44248 1.2
    endloop
  endfacet
  facet normal -0.951039 -0.309072 0
    outer loop
      vertex 14.8752 -3.44248 8
      vertex 15.0432 -3.95943 1.2
      vertex 15.0432 -3.95943 8
    endloop
  endfacet
  facet normal -0.994525 -0.104499 0
    outer loop
      vertex 15.1 -4.5 1.2
      vertex 15.0432 -3.95943 8
      vertex 15.0432 -3.95943 1.2
    endloop
  endfacet
  facet normal -0.994525 -0.104499 0
    outer loop
      vertex 15.0432 -3.95943 8
      vertex 15.1 -4.5 1.2
      vertex 15.1 -4.5 8
    endloop
  endfacet
  facet normal -0.866002 -0.500041 0
    outer loop
      vertex 14.8752 -3.44248 1.2
      vertex 14.6034 -2.97176 8
      vertex 14.6034 -2.97176 1.2
    endloop
  endfacet
  facet normal -0.866002 -0.500041 0
    outer loop
      vertex 14.6034 -2.97176 8
      vertex 14.8752 -3.44248 1.2
      vertex 14.8752 -3.44248 8
    endloop
  endfacet
  facet normal -0.994525 0.104499 0
    outer loop
      vertex 15.0432 -5.04057 1.2
      vertex 15.1 -4.5 8
      vertex 15.1 -4.5 1.2
    endloop
  endfacet
  facet normal -0.994525 0.104499 0
    outer loop
      vertex 15.1 -4.5 8
      vertex 15.0432 -5.04057 1.2
      vertex 15.0432 -5.04057 8
    endloop
  endfacet
  facet normal -0.743153 -0.669121 0
    outer loop
      vertex 14.6034 -2.97176 1.2
      vertex 14.2397 -2.56782 8
      vertex 14.2397 -2.56782 1.2
    endloop
  endfacet
  facet normal -0.743153 -0.669121 0
    outer loop
      vertex 14.2397 -2.56782 8
      vertex 14.6034 -2.97176 1.2
      vertex 14.6034 -2.97176 8
    endloop
  endfacet
  facet normal -0.866002 0.500041 0
    outer loop
      vertex 14.6034 -6.02824 1.2
      vertex 14.8752 -5.55752 8
      vertex 14.8752 -5.55752 1.2
    endloop
  endfacet
  facet normal -0.866002 0.500041 0
    outer loop
      vertex 14.8752 -5.55752 8
      vertex 14.6034 -6.02824 1.2
      vertex 14.6034 -6.02824 8
    endloop
  endfacet
  facet normal -0.207938 -0.978142 0
    outer loop
      vertex 12.7718 -1.91424 1.2
      vertex 13.3034 -2.02725 8
      vertex 12.7718 -1.91424 8
    endloop
  endfacet
  facet normal -0.207938 -0.978142 -0
    outer loop
      vertex 13.3034 -2.02725 8
      vertex 12.7718 -1.91424 1.2
      vertex 13.3034 -2.02725 1.2
    endloop
  endfacet
  facet normal 0.95105 0.309038 0
    outer loop
      vertex 10.1248 -5.55752 8
      vertex 9.95682 -5.04057 1.2
      vertex 9.95682 -5.04057 8
    endloop
  endfacet
  facet normal 0.95105 0.309038 0
    outer loop
      vertex 9.95682 -5.04057 1.2
      vertex 10.1248 -5.55752 8
      vertex 10.1248 -5.55752 1.2
    endloop
  endfacet
  facet normal 0 1 -0
    outer loop
      vertex 12.7718 -7.08576 1.2
      vertex 12.2282 -7.08576 8
      vertex 12.7718 -7.08576 8
    endloop
  endfacet
  facet normal 0 1 0
    outer loop
      vertex 12.2282 -7.08576 8
      vertex 12.7718 -7.08576 1.2
      vertex 12.2282 -7.08576 1.2
    endloop
  endfacet
  facet normal -0.58782 -0.808991 0
    outer loop
      vertex 13.8 -2.24833 1.2
      vertex 14.2397 -2.56782 8
      vertex 13.8 -2.24833 8
    endloop
  endfacet
  facet normal -0.58782 -0.808991 -0
    outer loop
      vertex 14.2397 -2.56782 8
      vertex 13.8 -2.24833 1.2
      vertex 14.2397 -2.56782 1.2
    endloop
  endfacet
  facet normal 0.743153 0.669121 0
    outer loop
      vertex 10.7603 -6.43218 8
      vertex 10.3966 -6.02824 1.2
      vertex 10.3966 -6.02824 8
    endloop
  endfacet
  facet normal 0.743153 0.669121 0
    outer loop
      vertex 10.3966 -6.02824 1.2
      vertex 10.7603 -6.43218 8
      vertex 10.7603 -6.43218 1.2
    endloop
  endfacet
  facet normal 0.58782 -0.808991 0
    outer loop
      vertex 10.7603 -2.56782 1.2
      vertex 11.2 -2.24833 8
      vertex 10.7603 -2.56782 8
    endloop
  endfacet
  facet normal 0.58782 -0.808991 0
    outer loop
      vertex 11.2 -2.24833 8
      vertex 10.7603 -2.56782 1.2
      vertex 11.2 -2.24833 1.2
    endloop
  endfacet
  facet normal -0.207938 0.978142 0
    outer loop
      vertex 13.3034 -6.97275 1.2
      vertex 12.7718 -7.08576 8
      vertex 13.3034 -6.97275 8
    endloop
  endfacet
  facet normal -0.207938 0.978142 0
    outer loop
      vertex 12.7718 -7.08576 8
      vertex 13.3034 -6.97275 1.2
      vertex 12.7718 -7.08576 1.2
    endloop
  endfacet
  facet normal -0.743153 0.669121 0
    outer loop
      vertex 14.2397 -6.43218 1.2
      vertex 14.6034 -6.02824 8
      vertex 14.6034 -6.02824 1.2
    endloop
  endfacet
  facet normal -0.743153 0.669121 0
    outer loop
      vertex 14.6034 -6.02824 8
      vertex 14.2397 -6.43218 1.2
      vertex 14.2397 -6.43218 8
    endloop
  endfacet
  facet normal 0.95105 -0.309038 0
    outer loop
      vertex 9.95682 -3.95943 8
      vertex 10.1248 -3.44248 1.2
      vertex 10.1248 -3.44248 8
    endloop
  endfacet
  facet normal 0.95105 -0.309038 0
    outer loop
      vertex 10.1248 -3.44248 1.2
      vertex 9.95682 -3.95943 8
      vertex 9.95682 -3.95943 1.2
    endloop
  endfacet
  facet normal 0.406705 0.91356 -0
    outer loop
      vertex 11.6966 -6.97275 1.2
      vertex 11.2 -6.75167 8
      vertex 11.6966 -6.97275 8
    endloop
  endfacet
  facet normal 0.406705 0.91356 0
    outer loop
      vertex 11.2 -6.75167 8
      vertex 11.6966 -6.97275 1.2
      vertex 11.2 -6.75167 1.2
    endloop
  endfacet
  facet normal 0.406705 -0.91356 0
    outer loop
      vertex 11.2 -2.24833 1.2
      vertex 11.6966 -2.02725 8
      vertex 11.2 -2.24833 8
    endloop
  endfacet
  facet normal 0.406705 -0.91356 0
    outer loop
      vertex 11.6966 -2.02725 8
      vertex 11.2 -2.24833 1.2
      vertex 11.6966 -2.02725 1.2
    endloop
  endfacet
  facet normal -0.406705 0.91356 0
    outer loop
      vertex 13.8 -6.75167 1.2
      vertex 13.3034 -6.97275 8
      vertex 13.8 -6.75167 8
    endloop
  endfacet
  facet normal -0.406705 0.91356 0
    outer loop
      vertex 13.3034 -6.97275 8
      vertex 13.8 -6.75167 1.2
      vertex 13.3034 -6.97275 1.2
    endloop
  endfacet
  facet normal -0.951039 0.309072 0
    outer loop
      vertex 14.8752 -5.55752 1.2
      vertex 15.0432 -5.04057 8
      vertex 15.0432 -5.04057 1.2
    endloop
  endfacet
  facet normal -0.951039 0.309072 0
    outer loop
      vertex 15.0432 -5.04057 8
      vertex 14.8752 -5.55752 1.2
      vertex 14.8752 -5.55752 8
    endloop
  endfacet
  facet normal 0.994521 0.104535 0
    outer loop
      vertex 9.95682 -5.04057 8
      vertex 9.9 -4.5 1.2
      vertex 9.9 -4.5 8
    endloop
  endfacet
  facet normal 0.994521 0.104535 0
    outer loop
      vertex 9.9 -4.5 1.2
      vertex 9.95682 -5.04057 8
      vertex 9.95682 -5.04057 1.2
    endloop
  endfacet
  facet normal 0.207938 0.978142 -0
    outer loop
      vertex 12.2282 -7.08576 1.2
      vertex 11.6966 -6.97275 8
      vertex 12.2282 -7.08576 8
    endloop
  endfacet
  facet normal 0.207938 0.978142 0
    outer loop
      vertex 11.6966 -6.97275 8
      vertex 12.2282 -7.08576 1.2
      vertex 11.6966 -6.97275 1.2
    endloop
  endfacet
  facet normal 0.866002 0.500041 0
    outer loop
      vertex 10.3966 -6.02824 8
      vertex 10.1248 -5.55752 1.2
      vertex 10.1248 -5.55752 8
    endloop
  endfacet
  facet normal 0.866002 0.500041 0
    outer loop
      vertex 10.1248 -5.55752 1.2
      vertex 10.3966 -6.02824 8
      vertex 10.3966 -6.02824 1.2
    endloop
  endfacet
  facet normal 0.207938 -0.978142 0
    outer loop
      vertex 11.6966 -2.02725 1.2
      vertex 12.2282 -1.91424 8
      vertex 11.6966 -2.02725 8
    endloop
  endfacet
  facet normal 0.207938 -0.978142 0
    outer loop
      vertex 12.2282 -1.91424 8
      vertex 11.6966 -2.02725 1.2
      vertex 12.2282 -1.91424 1.2
    endloop
  endfacet
  facet normal -0.406705 -0.91356 0
    outer loop
      vertex 13.3034 -2.02725 1.2
      vertex 13.8 -2.24833 8
      vertex 13.3034 -2.02725 8
    endloop
  endfacet
  facet normal -0.406705 -0.91356 -0
    outer loop
      vertex 13.8 -2.24833 8
      vertex 13.3034 -2.02725 1.2
      vertex 13.8 -2.24833 1.2
    endloop
  endfacet
  facet normal 0.743153 -0.669121 0
    outer loop
      vertex 10.3966 -2.97176 8
      vertex 10.7603 -2.56782 1.2
      vertex 10.7603 -2.56782 8
    endloop
  endfacet
  facet normal 0.743153 -0.669121 0
    outer loop
      vertex 10.7603 -2.56782 1.2
      vertex 10.3966 -2.97176 8
      vertex 10.3966 -2.97176 1.2
    endloop
  endfacet
  facet normal 0.866002 -0.500041 0
    outer loop
      vertex 10.1248 -3.44248 8
      vertex 10.3966 -2.97176 1.2
      vertex 10.3966 -2.97176 8
    endloop
  endfacet
  facet normal 0.866002 -0.500041 0
    outer loop
      vertex 10.3966 -2.97176 1.2
      vertex 10.1248 -3.44248 8
      vertex 10.1248 -3.44248 1.2
    endloop
  endfacet
  facet normal -0.58782 0.808991 0
    outer loop
      vertex 14.2397 -6.43218 1.2
      vertex 13.8 -6.75167 8
      vertex 14.2397 -6.43218 8
    endloop
  endfacet
  facet normal -0.58782 0.808991 0
    outer loop
      vertex 13.8 -6.75167 8
      vertex 14.2397 -6.43218 1.2
      vertex 13.8 -6.75167 1.2
    endloop
  endfacet
  facet normal 0 -1 0
    outer loop
      vertex 12.2282 -1.91424 1.2
      vertex 12.7718 -1.91424 8
      vertex 12.2282 -1.91424 8
    endloop
  endfacet
  facet normal 0 -1 -0
    outer loop
      vertex 12.7718 -1.91424 8
      vertex 12.2282 -1.91424 1.2
      vertex 12.7718 -1.91424 1.2
    endloop
  endfacet
  facet normal 0.58782 0.808991 -0
    outer loop
      vertex 11.2 -6.75167 1.2
      vertex 10.7603 -6.43218 8
      vertex 11.2 -6.75167 8
    endloop
  endfacet
  facet normal 0.58782 0.808991 0
    outer loop
      vertex 10.7603 -6.43218 8
      vertex 11.2 -6.75167 1.2
      vertex 10.7603 -6.43218 1.2
    endloop
  endfacet
  facet normal 0 0 1
    outer loop
      vertex 15.0432 -3.95943 1.2
      vertex 15.0432 -5.04057 1.2
      vertex 15.1 -4.5 1.2
    endloop
  endfacet
  facet normal 0 0 1
    outer loop
      vertex 14.8752 -3.44248 1.2
      vertex 15.0432 -5.04057 1.2
      vertex 15.0432 -3.95943 1.2
    endloop
  endfacet
  facet normal 0 0 1
    outer loop
      vertex 14.8752 -3.44248 1.2
      vertex 14.8752 -5.55752 1.2
      vertex 15.0432 -5.04057 1.2
    endloop
  endfacet
  facet normal 0 0 1
    outer loop
      vertex 14.6034 -2.97176 1.2
      vertex 14.8752 -5.55752 1.2
      vertex 14.8752 -3.44248 1.2
    endloop
  endfacet
  facet normal 0 0 1
    outer loop
      vertex 14.6034 -2.97176 1.2
      vertex 14.6034 -6.02824 1.2
      vertex 14.8752 -5.55752 1.2
    endloop
  endfacet
  facet normal 0 0 1
    outer loop
      vertex 14.2397 -2.56782 1.2
      vertex 14.6034 -6.02824 1.2
      vertex 14.6034 -2.97176 1.2
    endloop
  endfacet
  facet normal 0 0 1
    outer loop
      vertex 14.2397 -2.56782 1.2
      vertex 14.2397 -6.43218 1.2
      vertex 14.6034 -6.02824 1.2
    endloop
  endfacet
  facet normal 0 0 1
    outer loop
      vertex 13.8 -2.24833 1.2
      vertex 14.2397 -6.43218 1.2
      vertex 14.2397 -2.56782 1.2
    endloop
  endfacet
  facet normal 0 0 1
    outer loop
      vertex 13.8 -2.24833 1.2
      vertex 13.8 -6.75167 1.2
      vertex 14.2397 -6.43218 1.2
    endloop
  endfacet
  facet normal 0 0 1
    outer loop
      vertex 13.3034 -2.02725 1.2
      vertex 13.8 -6.75167 1.2
      vertex 13.8 -2.24833 1.2
    endloop
  endfacet
  facet normal 0 0 1
    outer loop
      vertex 13.3034 -2.02725 1.2
      vertex 13.3034 -6.97275 1.2
      vertex 13.8 -6.75167 1.2
    endloop
  endfacet
  facet normal 0 0 1
    outer loop
      vertex 12.7718 -1.91424 1.2
      vertex 13.3034 -6.97275 1.2
      vertex 13.3034 -2.02725 1.2
    endloop
  endfacet
  facet normal 0 0 1
    outer loop
      vertex 12.7718 -1.91424 1.2
      vertex 12.7718 -7.08576 1.2
      vertex 13.3034 -6.97275 1.2
    endloop
  endfacet
  facet normal -0 0 1
    outer loop
      vertex 12.2282 -1.91424 1.2
      vertex 12.7718 -7.08576 1.2
      vertex 12.7718 -1.91424 1.2
    endloop
  endfacet
  facet normal 0 0 1
    outer loop
      vertex 12.2282 -1.91424 1.2
      vertex 12.2282 -7.08576 1.2
      vertex 12.7718 -7.08576 1.2
    endloop
  endfacet
  facet normal -0 0 1
    outer loop
      vertex 11.6966 -2.02725 1.2
      vertex 12.2282 -7.08576 1.2
      vertex 12.2282 -1.91424 1.2
    endloop
  endfacet
  facet normal 0 0 1
    outer loop
      vertex 11.6966 -2.02725 1.2
      vertex 11.6966 -6.97275 1.2
      vertex 12.2282 -7.08576 1.2
    endloop
  endfacet
  facet normal -0 0 1
    outer loop
      vertex 11.2 -2.24833 1.2
      vertex 11.6966 -6.97275 1.2
      vertex 11.6966 -2.02725 1.2
    endloop
  endfacet
  facet normal 0 0 1
    outer loop
      vertex 11.2 -2.24833 1.2
      vertex 11.2 -6.75167 1.2
      vertex 11.6966 -6.97275 1.2
    endloop
  endfacet
  facet normal -0 0 1
    outer loop
      vertex 10.7603 -2.56782 1.2
      vertex 11.2 -6.75167 1.2
      vertex 11.2 -2.24833 1.2
    endloop
  endfacet
  facet normal 0 0 1
    outer loop
      vertex 10.7603 -2.56782 1.2
      vertex 10.7603 -6.43218 1.2
      vertex 11.2 -6.75167 1.2
    endloop
  endfacet
  facet normal -0 0 1
    outer loop
      vertex 10.3966 -2.97176 1.2
      vertex 10.7603 -6.43218 1.2
      vertex 10.7603 -2.56782 1.2
    endloop
  endfacet
  facet normal 0 0 1
    outer loop
      vertex 10.3966 -2.97176 1.2
      vertex 10.3966 -6.02824 1.2
      vertex 10.7603 -6.43218 1.2
    endloop
  endfacet
  facet normal -0 0 1
    outer loop
      vertex 10.1248 -3.44248 1.2
      vertex 10.3966 -6.02824 1.2
      vertex 10.3966 -2.97176 1.2
    endloop
  endfacet
  facet normal 0 0 1
    outer loop
      vertex 10.1248 -3.44248 1.2
      vertex 10.1248 -5.55752 1.2
      vertex 10.3966 -6.02824 1.2
    endloop
  endfacet
  facet normal -0 0 1
    outer loop
      vertex 9.95682 -3.95943 1.2
      vertex 10.1248 -5.55752 1.2
      vertex 10.1248 -3.44248 1.2
    endloop
  endfacet
  facet normal 0 0 1
    outer loop
      vertex 9.95682 -3.95943 1.2
      vertex 9.95682 -5.04057 1.2
      vertex 10.1248 -5.55752 1.2
    endloop
  endfacet
  facet normal 0 -0 1
    outer loop
      vertex 9.95682 -5.04057 1.2
      vertex 9.95682 -3.95943 1.2
      vertex 9.9 -4.5 1.2
    endloop
  endfacet
endsolid OpenSCAD_Model
