solid OpenSCAD_Model
  facet normal 0 -0 -1
    outer loop
      vertex -1.36807 1.74836 0
      vertex -1.03222 1.94592 0
      vertex -1.39771 1.61007 0
    endloop
  endfacet
  facet normal -0 0 -1
    outer loop
      vertex -0.400049 2.15335 0
      vertex -0.676625 2.10396 0
      vertex -0.459313 2.2225 0
    endloop
  endfacet
  facet normal -0 0 -1
    outer loop
      vertex 1.49648 -1.40264 0
      vertex 1.20015 -1.67922 0
      vertex 1.49648 -1.37301 0
    endloop
  endfacet
  facet normal 0 -0 -1
    outer loop
      vertex -1.18039 1.92617 0
      vertex -1.03222 1.94592 0
      vertex -1.36807 1.74836 0
    endloop
  endfacet
  facet normal 0 0 -1
    outer loop
      vertex -0.34078 2.16323 0
      vertex -0.321027 2.16323 0
      vertex -0.261758 2.1336 0
    endloop
  endfacet
  facet normal 0 -0 -1
    outer loop
      vertex -0.34078 2.16323 0
      vertex -0.261758 2.1336 0
      vertex -0.400049 2.15335 0
    endloop
  endfacet
  facet normal -0 -0 -1
    outer loop
      vertex -0.261758 2.1336 0
      vertex -0.172858 2.05458 0
      vertex -0.400049 2.15335 0
    endloop
  endfacet
  facet normal 0 0 -1
    outer loop
      vertex 0.696383 1.30387 0
      vertex 0.52846 1.5113 0
      vertex 0.646993 1.40264 0
    endloop
  endfacet
  facet normal 0 0 -1
    outer loop
      vertex 2.14841 -0.879119 0
      vertex 2.09903 -1.04704 0
      vertex 1.93111 -1.00753 0
    endloop
  endfacet
  facet normal 0 0 -1
    outer loop
      vertex 0.222247 -1.04704 0
      vertex -0.044446 -0.82973 0
      vertex 0.29139 -1.03716 0
    endloop
  endfacet
  facet normal 0 0 -1
    outer loop
      vertex 0.449439 1.71873 0
      vertex 0.518582 1.64958 0
      vertex 0.52846 1.5113 0
    endloop
  endfacet
  facet normal 0 0 -1
    outer loop
      vertex 1.85208 -0.217308 0
      vertex 2.77071 -0.958141 0
      vertex 2.14841 -0.879119 0
    endloop
  endfacet
  facet normal -0 -0 -1
    outer loop
      vertex 0.449439 1.71873 0
      vertex 0.52846 1.5113 0
      vertex 0.222247 1.74836 0
    endloop
  endfacet
  facet normal 0 0 -1
    outer loop
      vertex 1.85208 -0.217308 0
      vertex 1.50636 0.839609 0
      vertex 1.79281 0.800098 0
    endloop
  endfacet
  facet normal -0 0 -1
    outer loop
      vertex -0.153104 -0.730955 0
      vertex -0.222247 -0.740833 0
      vertex -0.370417 -0.602543 0
    endloop
  endfacet
  facet normal 0 0 -1
    outer loop
      vertex 1.93111 -1.00753 0
      vertex 2.09903 -1.04704 0
      vertex 2.01013 -1.0668 0
    endloop
  endfacet
  facet normal -0 0 -1
    outer loop
      vertex 1.93111 -1.00753 0
      vertex 1.81257 -1.0668 0
      vertex 1.85208 -0.217308 0
    endloop
  endfacet
  facet normal -0 0 -1
    outer loop
      vertex 2.20768 0.108654 0
      vertex 1.85208 -0.217308 0
      vertex 2.1978 0.48401 0
    endloop
  endfacet
  facet normal 0 0 -1
    outer loop
      vertex 1.85208 -0.217308 0
      vertex 1.79281 0.800098 0
      vertex 2.1978 0.48401 0
    endloop
  endfacet
  facet normal 0 0 -1
    outer loop
      vertex 1.29893 0.859366 0
      vertex 1.50636 0.839609 0
      vertex 1.85208 -0.217308 0
    endloop
  endfacet
  facet normal -0 -0 -1
    outer loop
      vertex 1.29893 0.859366 0
      vertex 1.85208 -0.217308 0
      vertex 1.21003 0.879119 0
    endloop
  endfacet
  facet normal -0 0 -1
    outer loop
      vertex 2.75096 -0.997652 0
      vertex 2.72132 -1.19521 0
      vertex 2.14841 -0.879119 0
    endloop
  endfacet
  facet normal -0 0 -1
    outer loop
      vertex 2.77071 -0.958141 0
      vertex 2.75096 -0.997652 0
      vertex 2.14841 -0.879119 0
    endloop
  endfacet
  facet normal 0 0 -1
    outer loop
      vertex 2.26695 -1.82739 0
      vertex 2.1978 -1.74836 0
      vertex 2.34597 -1.59032 0
    endloop
  endfacet
  facet normal -0 0 -1
    outer loop
      vertex 2.81022 -1.04704 0
      vertex 2.72132 -1.19521 0
      vertex 2.75096 -0.997652 0
    endloop
  endfacet
  facet normal -0 0 -1
    outer loop
      vertex 2.14841 -0.879119 0
      vertex 1.93111 -1.00753 0
      vertex 1.85208 -0.217308 0
    endloop
  endfacet
  facet normal 0 0 -1
    outer loop
      vertex 2.31634 -1.88665 0
      vertex 2.26695 -1.82739 0
      vertex 2.44475 -1.61995 0
    endloop
  endfacet
  facet normal 0 0 -1
    outer loop
      vertex 0.805037 -1.35326 0
      vertex 1.81257 -1.0668 0
      vertex 1.49648 -1.37301 0
    endloop
  endfacet
  facet normal 0 0 -1
    outer loop
      vertex 1.85208 -0.217308 0
      vertex 1.81257 -1.0668 0
      vertex 0.805037 -1.35326 0
    endloop
  endfacet
  facet normal 0 0 -1
    outer loop
      vertex 1.72367 -1.57056 0
      vertex 1.49648 -1.37301 0
      vertex 1.81257 -1.0668 0
    endloop
  endfacet
  facet normal -0 0 -1
    outer loop
      vertex 1.49648 -1.37301 0
      vertex 1.20015 -1.67922 0
      vertex 0.805037 -1.35326 0
    endloop
  endfacet
  facet normal -0 0 -1
    outer loop
      vertex 2.87937 -2.11384 0
      vertex 2.81022 -2.18298 0
      vertex 2.86949 -2.08421 0
    endloop
  endfacet
  facet normal -0 -0 -1
    outer loop
      vertex 2.01013 -1.22484 0
      vertex 2.01013 -1.3335 0
      vertex 1.81257 -1.0668 0
    endloop
  endfacet
  facet normal 0 0 -1
    outer loop
      vertex 2.54353 -2.05458 0
      vertex 2.63243 -1.76812 0
      vertex 2.6423 -2.11384 0
    endloop
  endfacet
  facet normal 0 0 -1
    outer loop
      vertex 1.54587 -1.73849 0
      vertex 1.42734 -1.64958 0
      vertex 1.59526 -1.52118 0
    endloop
  endfacet
  facet normal -0 0 -1
    outer loop
      vertex 2.86949 -2.16323 0
      vertex 2.81022 -2.18298 0
      vertex 2.87937 -2.11384 0
    endloop
  endfacet
  facet normal 0 0 -1
    outer loop
      vertex 2.81022 -2.18298 0
      vertex 2.7312 -2.15335 0
      vertex 2.86949 -2.08421 0
    endloop
  endfacet
  facet normal 0 0 -1
    outer loop
      vertex 2.7312 -2.15335 0
      vertex 2.6423 -2.11384 0
      vertex 2.86949 -2.08421 0
    endloop
  endfacet
  facet normal 0 0 -1
    outer loop
      vertex 2.6423 -2.11384 0
      vertex 2.63243 -1.76812 0
      vertex 2.86949 -2.08421 0
    endloop
  endfacet
  facet normal 0 0 -1
    outer loop
      vertex 2.54353 -2.05458 0
      vertex 2.41512 -1.98543 0
      vertex 2.63243 -1.76812 0
    endloop
  endfacet
  facet normal 0 0 -1
    outer loop
      vertex 2.41512 -1.98543 0
      vertex 2.31634 -1.88665 0
      vertex 2.63243 -1.76812 0
    endloop
  endfacet
  facet normal 0 0 -1
    outer loop
      vertex 2.31634 -1.88665 0
      vertex 2.44475 -1.61995 0
      vertex 2.63243 -1.76812 0
    endloop
  endfacet
  facet normal -0 0 -1
    outer loop
      vertex 2.30646 -2.29164 0
      vertex 2.23731 -2.30152 0
      vertex 2.32621 -2.23237 0
    endloop
  endfacet
  facet normal 0 0 -1
    outer loop
      vertex 2.26695 -1.82739 0
      vertex 2.34597 -1.59032 0
      vertex 2.44475 -1.61995 0
    endloop
  endfacet
  facet normal 0 0 -1
    outer loop
      vertex 2.1978 -1.74836 0
      vertex 2.09903 -1.64958 0
      vertex 2.34597 -1.59032 0
    endloop
  endfacet
  facet normal 0 0 -1
    outer loop
      vertex 2.01013 -1.80763 0
      vertex 2.30646 -2.19286 0
      vertex 2.05951 -2.20274 0
    endloop
  endfacet
  facet normal 0 0 -1
    outer loop
      vertex 2.09903 -1.64958 0
      vertex 2.01013 -1.3335 0
      vertex 2.34597 -1.59032 0
    endloop
  endfacet
  facet normal 0 0 -1
    outer loop
      vertex 1.97062 -1.53105 0
      vertex 2.01013 -1.3335 0
      vertex 2.09903 -1.64958 0
    endloop
  endfacet
  facet normal 0 0 -1
    outer loop
      vertex 1.72367 -1.57056 0
      vertex 2.01013 -1.3335 0
      vertex 1.97062 -1.53105 0
    endloop
  endfacet
  facet normal 0 -0 -1
    outer loop
      vertex 1.81257 -1.0668 0
      vertex 2.01013 -1.3335 0
      vertex 1.72367 -1.57056 0
    endloop
  endfacet
  facet normal 0 0 -1
    outer loop
      vertex 0.755647 -1.35326 0
      vertex 0.755647 -1.34338 0
      vertex 0.805037 -1.35326 0
    endloop
  endfacet
  facet normal -0 0 -1
    outer loop
      vertex 1.42734 -1.64958 0
      vertex 1.20015 -1.67922 0
      vertex 1.49648 -1.40264 0
    endloop
  endfacet
  facet normal -0 0 -1
    outer loop
      vertex 1.80269 -1.69897 0
      vertex 1.54587 -1.73849 0
      vertex 1.69404 -1.6002 0
    endloop
  endfacet
  facet normal 0 0 -1
    outer loop
      vertex 0.755647 -1.34338 0
      vertex 0.39017 -1.02729 0
      vertex 0.805037 -1.35326 0
    endloop
  endfacet
  facet normal 0 0 -1
    outer loop
      vertex 2.30646 -2.19286 0
      vertex 2.14841 -2.26201 0
      vertex 2.05951 -2.20274 0
    endloop
  endfacet
  facet normal 0 0 -1
    outer loop
      vertex 2.23731 -2.30152 0
      vertex 2.30646 -2.19286 0
      vertex 2.32621 -2.23237 0
    endloop
  endfacet
  facet normal 0 0 -1
    outer loop
      vertex 2.23731 -2.30152 0
      vertex 2.1978 -2.28176 0
      vertex 2.30646 -2.19286 0
    endloop
  endfacet
  facet normal 0 0 -1
    outer loop
      vertex 2.1978 -2.28176 0
      vertex 2.14841 -2.26201 0
      vertex 2.30646 -2.19286 0
    endloop
  endfacet
  facet normal 0 -0 -1
    outer loop
      vertex 2.01013 -1.80763 0
      vertex 2.05951 -2.20274 0
      vertex 1.93111 -2.1336 0
    endloop
  endfacet
  facet normal 0 0 -1
    outer loop
      vertex 2.01013 -1.80763 0
      vertex 1.93111 -2.1336 0
      vertex 1.85208 -2.08421 0
    endloop
  endfacet
  facet normal 0 0 -1
    outer loop
      vertex 2.01013 -1.80763 0
      vertex 1.85208 -2.08421 0
      vertex 1.71379 -1.91629 0
    endloop
  endfacet
  facet normal -0 0 -1
    outer loop
      vertex 2.01013 -1.80763 0
      vertex 1.71379 -1.91629 0
      vertex 1.80269 -1.69897 0
    endloop
  endfacet
  facet normal 0 0 -1
    outer loop
      vertex 1.71379 -1.91629 0
      vertex 1.54587 -1.73849 0
      vertex 1.80269 -1.69897 0
    endloop
  endfacet
  facet normal 0 0 -1
    outer loop
      vertex 1.54587 -1.73849 0
      vertex 1.59526 -1.52118 0
      vertex 1.69404 -1.6002 0
    endloop
  endfacet
  facet normal 0 0 -1
    outer loop
      vertex 1.42734 -1.64958 0
      vertex 1.53599 -1.46191 0
      vertex 1.59526 -1.52118 0
    endloop
  endfacet
  facet normal 0 -0 -1
    outer loop
      vertex 1.49648 -1.40264 0
      vertex 1.53599 -1.46191 0
      vertex 1.42734 -1.64958 0
    endloop
  endfacet
  facet normal 0 0 -1
    outer loop
      vertex 0.29139 -1.03716 0
      vertex -0.044446 -0.82973 0
      vertex 0.39017 -1.02729 0
    endloop
  endfacet
  facet normal 0 0 -1
    outer loop
      vertex 0.202494 -1.04704 0
      vertex -0.0246927 -0.908752 0
      vertex -0.044446 -0.82973 0
    endloop
  endfacet
  facet normal 0 0 -1
    outer loop
      vertex 0.202494 -1.04704 0
      vertex -0.044446 -0.82973 0
      vertex 0.222247 -1.04704 0
    endloop
  endfacet
  facet normal 0 -0 -1
    outer loop
      vertex 1.21003 0.879119 0
      vertex 1.85208 -0.217308 0
      vertex 0.39017 -1.02729 0
    endloop
  endfacet
  facet normal 0 0 -1
    outer loop
      vertex 0.39017 -1.02729 0
      vertex 1.85208 -0.217308 0
      vertex 0.805037 -1.35326 0
    endloop
  endfacet
  facet normal 0 0 -1
    outer loop
      vertex -0.0246927 -0.908752 0
      vertex 0.202494 -1.04704 0
      vertex 0.153104 -1.0668 0
    endloop
  endfacet
  facet normal 0 0 -1
    outer loop
      vertex -0.044446 -0.82973 0
      vertex -0.153104 -0.730955 0
      vertex 0.39017 -1.02729 0
    endloop
  endfacet
  facet normal 0 0 -1
    outer loop
      vertex -0.153104 -0.730955 0
      vertex 1.21003 0.879119 0
      vertex 0.39017 -1.02729 0
    endloop
  endfacet
  facet normal 0 0 -1
    outer loop
      vertex -0.370417 -0.602543 0
      vertex 1.21003 0.879119 0
      vertex -0.153104 -0.730955 0
    endloop
  endfacet
  facet normal 0 0 -1
    outer loop
      vertex -0.370417 -0.602543 0
      vertex 0.696383 1.30387 0
      vertex 1.21003 0.879119 0
    endloop
  endfacet
  facet normal 0 0 -1
    outer loop
      vertex -1.52611 0.661807 0
      vertex 0.696383 1.30387 0
      vertex -0.370417 -0.602543 0
    endloop
  endfacet
  facet normal 0 -0 -1
    outer loop
      vertex 0.52846 1.5113 0
      vertex 0.696383 1.30387 0
      vertex -1.52611 0.661807 0
    endloop
  endfacet
  facet normal -0 0 -1
    outer loop
      vertex 0.52846 1.5113 0
      vertex -1.52611 0.661807 0
      vertex 0.222247 1.74836 0
    endloop
  endfacet
  facet normal 0 0 -1
    outer loop
      vertex -2.07927 0.148165 0
      vertex -1.52611 0.661807 0
      vertex -0.370417 -0.602543 0
    endloop
  endfacet
  facet normal 0 -0 -1
    outer loop
      vertex -2.74108 -0.503763 0
      vertex -2.68181 -0.424742 0
      vertex -2.76083 -0.572911 0
    endloop
  endfacet
  facet normal 0 0 -1
    outer loop
      vertex -2.87937 -1.0668 0
      vertex -2.84974 -0.91863 0
      vertex -2.84974 -1.23472 0
    endloop
  endfacet
  facet normal 0 0 -1
    outer loop
      vertex -2.87937 -1.0668 0
      vertex -2.84974 -1.23472 0
      vertex -2.87937 -1.20509 0
    endloop
  endfacet
  facet normal 0 0 -1
    outer loop
      vertex -2.84974 -0.91863 0
      vertex -2.80035 -0.730955 0
      vertex -2.84974 -1.23472 0
    endloop
  endfacet
  facet normal 0 -0 -1
    outer loop
      vertex -2.80035 -0.730955 0
      vertex -1.99037 -2.12372 0
      vertex -2.84974 -1.23472 0
    endloop
  endfacet
  facet normal 0 0 -1
    outer loop
      vertex -2.76083 -0.572911 0
      vertex -2.68181 -0.424742 0
      vertex -2.61267 -0.365477 0
    endloop
  endfacet
  facet normal 0 -0 -1
    outer loop
      vertex -2.76083 -0.572911 0
      vertex -2.61267 -0.365477 0
      vertex -2.80035 -0.730955 0
    endloop
  endfacet
  facet normal 0 0 -1
    outer loop
      vertex -2.80035 -0.730955 0
      vertex -2.61267 -0.365477 0
      vertex -2.47438 -0.227187 0
    endloop
  endfacet
  facet normal 0 0 -1
    outer loop
      vertex -2.80035 -0.730955 0
      vertex -2.47438 -0.227187 0
      vertex -1.99037 -2.12372 0
    endloop
  endfacet
  facet normal 0 0 -1
    outer loop
      vertex -2.03976 1.32362 0
      vertex -1.78294 1.49154 0
      vertex -1.68416 1.48167 0
    endloop
  endfacet
  facet normal 0 0 -1
    outer loop
      vertex -2.47438 -0.227187 0
      vertex -2.2867 -0.0493854 0
      vertex -1.99037 -2.12372 0
    endloop
  endfacet
  facet normal 0 0 -1
    outer loop
      vertex -2.2867 -0.0493854 0
      vertex -0.370417 -0.602543 0
      vertex -1.99037 -2.12372 0
    endloop
  endfacet
  facet normal 0 -0 -1
    outer loop
      vertex -2.07927 0.148165 0
      vertex -0.370417 -0.602543 0
      vertex -2.2867 -0.0493854 0
    endloop
  endfacet
  facet normal 0 0 -1
    outer loop
      vertex -1.52611 0.661807 0
      vertex -1.39771 1.61007 0
      vertex -0.953202 1.96568 0
    endloop
  endfacet
  facet normal 0 0 -1
    outer loop
      vertex -1.52611 0.661807 0
      vertex -0.953202 1.96568 0
      vertex 0.222247 1.74836 0
    endloop
  endfacet
  facet normal 0 0 -1
    outer loop
      vertex -2.13854 1.12606 0
      vertex -2.02988 0.908752 0
      vertex -2.12866 1.04704 0
    endloop
  endfacet
  facet normal 0 0 -1
    outer loop
      vertex -2.12866 1.04704 0
      vertex -2.07927 0.938388 0
      vertex -2.11878 0.977899 0
    endloop
  endfacet
  facet normal 0 0 -1
    outer loop
      vertex -2.02988 0.908752 0
      vertex -2.07927 0.938388 0
      vertex -2.12866 1.04704 0
    endloop
  endfacet
  facet normal 0 0 -1
    outer loop
      vertex -2.13854 1.27423 0
      vertex -2.03976 1.32362 0
      vertex -2.13854 1.12606 0
    endloop
  endfacet
  facet normal 0 -0 -1
    outer loop
      vertex -2.03976 1.32362 0
      vertex -2.02988 0.908752 0
      vertex -2.13854 1.12606 0
    endloop
  endfacet
  facet normal 0 -0 -1
    outer loop
      vertex -1.86196 1.48167 0
      vertex -1.78294 1.49154 0
      vertex -2.03976 1.32362 0
    endloop
  endfacet
  facet normal 0 -0 -1
    outer loop
      vertex -2.00025 1.39277 0
      vertex -1.86196 1.48167 0
      vertex -2.03976 1.32362 0
    endloop
  endfacet
  facet normal 0 0 -1
    outer loop
      vertex -1.36807 1.74836 0
      vertex -1.39771 1.61007 0
      vertex -1.39771 1.65946 0
    endloop
  endfacet
  facet normal 0 0 -1
    outer loop
      vertex -1.78294 1.49154 0
      vertex -1.72367 1.49154 0
      vertex -1.68416 1.48167 0
    endloop
  endfacet
  facet normal 0 0 -1
    outer loop
      vertex -2.03976 1.32362 0
      vertex -1.68416 1.48167 0
      vertex -2.02988 0.908752 0
    endloop
  endfacet
  facet normal 0 -0 -1
    outer loop
      vertex -1.68416 1.48167 0
      vertex -1.52611 0.661807 0
      vertex -2.02988 0.908752 0
    endloop
  endfacet
  facet normal 0 0 -1
    outer loop
      vertex -1.39771 1.61007 0
      vertex -1.52611 0.661807 0
      vertex -1.68416 1.48167 0
    endloop
  endfacet
  facet normal 0 0 -1
    outer loop
      vertex -1.39771 1.61007 0
      vertex -1.03222 1.94592 0
      vertex -0.953202 1.96568 0
    endloop
  endfacet
  facet normal 0 0 -1
    outer loop
      vertex -1.36807 1.74836 0
      vertex -1.34832 1.78788 0
      vertex -1.18039 1.92617 0
    endloop
  endfacet
  facet normal 0 0 -1
    outer loop
      vertex -1.34832 1.78788 0
      vertex -1.28905 1.8669 0
      vertex -1.18039 1.92617 0
    endloop
  endfacet
  facet normal 0 0 -1
    outer loop
      vertex -1.28905 1.8669 0
      vertex -1.26929 1.88665 0
      vertex -1.18039 1.92617 0
    endloop
  endfacet
  facet normal 0 0 -1
    outer loop
      vertex -0.0049351 1.92617 0
      vertex -0.676625 2.10396 0
      vertex -0.172858 2.05458 0
    endloop
  endfacet
  facet normal 0 -0 -1
    outer loop
      vertex -0.52846 2.26201 0
      vertex -0.459313 2.2225 0
      vertex -0.676625 2.10396 0
    endloop
  endfacet
  facet normal 0 0 -1
    outer loop
      vertex -0.676625 2.10396 0
      vertex -0.400049 2.15335 0
      vertex -0.172858 2.05458 0
    endloop
  endfacet
  facet normal -0 -0 -1
    outer loop
      vertex -0.0049351 1.92617 0
      vertex 0.222247 1.74836 0
      vertex -0.953202 1.96568 0
    endloop
  endfacet
  facet normal 0 0 -1
    outer loop
      vertex -0.676625 2.10396 0
      vertex -0.676625 2.20274 0
      vertex -0.52846 2.26201 0
    endloop
  endfacet
  facet normal 0 0 -1
    outer loop
      vertex -0.0049351 1.92617 0
      vertex -0.953202 1.96568 0
      vertex -0.676625 2.10396 0
    endloop
  endfacet
  facet normal 0 -0 -1
    outer loop
      vertex -0.913691 2.06445 0
      vertex -0.676625 2.10396 0
      vertex -0.953202 1.96568 0
    endloop
  endfacet
  facet normal 0 0 -1
    outer loop
      vertex -0.676625 2.20274 0
      vertex -0.607482 2.30152 0
      vertex -0.52846 2.26201 0
    endloop
  endfacet
  facet normal 0 0 1
    outer loop
      vertex -1.39771 1.61007 5
      vertex -1.03222 1.94592 5
      vertex -1.36807 1.74836 5
    endloop
  endfacet
  facet normal 0 0 1
    outer loop
      vertex -0.459313 2.2225 5
      vertex -0.676625 2.10396 5
      vertex -0.400049 2.15335 5
    endloop
  endfacet
  facet normal 0 0 1
    outer loop
      vertex 1.49648 -1.37301 5
      vertex 1.20015 -1.67922 5
      vertex 1.49648 -1.40264 5
    endloop
  endfacet
  facet normal 0 0 1
    outer loop
      vertex -1.36807 1.74836 5
      vertex -1.03222 1.94592 5
      vertex -1.18039 1.92617 5
    endloop
  endfacet
  facet normal 0 0 1
    outer loop
      vertex -0.261758 2.1336 5
      vertex -0.321027 2.16323 5
      vertex -0.34078 2.16323 5
    endloop
  endfacet
  facet normal -0 0 1
    outer loop
      vertex -0.400049 2.15335 5
      vertex -0.261758 2.1336 5
      vertex -0.34078 2.16323 5
    endloop
  endfacet
  facet normal 0 0 1
    outer loop
      vertex -0.400049 2.15335 5
      vertex -0.172858 2.05458 5
      vertex -0.261758 2.1336 5
    endloop
  endfacet
  facet normal 0 0 1
    outer loop
      vertex 0.646993 1.40264 5
      vertex 0.52846 1.5113 5
      vertex 0.696383 1.30387 5
    endloop
  endfacet
  facet normal -0 0 1
    outer loop
      vertex 1.93111 -1.00753 5
      vertex 2.09903 -1.04704 5
      vertex 2.14841 -0.879119 5
    endloop
  endfacet
  facet normal 0 0 1
    outer loop
      vertex 0.29139 -1.03716 5
      vertex -0.044446 -0.82973 5
      vertex 0.222247 -1.04704 5
    endloop
  endfacet
  facet normal 0 0 1
    outer loop
      vertex 0.52846 1.5113 5
      vertex 0.518582 1.64958 5
      vertex 0.449439 1.71873 5
    endloop
  endfacet
  facet normal -0 -0 1
    outer loop
      vertex 2.14841 -0.879119 5
      vertex 2.77071 -0.958141 5
      vertex 1.85208 -0.217308 5
    endloop
  endfacet
  facet normal 0 0 1
    outer loop
      vertex 0.222247 1.74836 5
      vertex 0.52846 1.5113 5
      vertex 0.449439 1.71873 5
    endloop
  endfacet
  facet normal 0 0 1
    outer loop
      vertex 1.79281 0.800098 5
      vertex 1.50636 0.839609 5
      vertex 1.85208 -0.217308 5
    endloop
  endfacet
  facet normal 0 0 1
    outer loop
      vertex -0.370417 -0.602543 5
      vertex -0.222247 -0.740833 5
      vertex -0.153104 -0.730955 5
    endloop
  endfacet
  facet normal 0 -0 1
    outer loop
      vertex 2.01013 -1.0668 5
      vertex 2.09903 -1.04704 5
      vertex 1.93111 -1.00753 5
    endloop
  endfacet
  facet normal 0 0 1
    outer loop
      vertex 1.85208 -0.217308 5
      vertex 1.81257 -1.0668 5
      vertex 1.93111 -1.00753 5
    endloop
  endfacet
  facet normal 0 0 1
    outer loop
      vertex 2.1978 0.48401 5
      vertex 1.85208 -0.217308 5
      vertex 2.20768 0.108654 5
    endloop
  endfacet
  facet normal 0 0 1
    outer loop
      vertex 2.1978 0.48401 5
      vertex 1.79281 0.800098 5
      vertex 1.85208 -0.217308 5
    endloop
  endfacet
  facet normal 0 0 1
    outer loop
      vertex 1.85208 -0.217308 5
      vertex 1.50636 0.839609 5
      vertex 1.29893 0.859366 5
    endloop
  endfacet
  facet normal 0 0 1
    outer loop
      vertex 1.21003 0.879119 5
      vertex 1.85208 -0.217308 5
      vertex 1.29893 0.859366 5
    endloop
  endfacet
  facet normal 0 0 1
    outer loop
      vertex 2.14841 -0.879119 5
      vertex 2.72132 -1.19521 5
      vertex 2.75096 -0.997652 5
    endloop
  endfacet
  facet normal 0 0 1
    outer loop
      vertex 2.14841 -0.879119 5
      vertex 2.75096 -0.997652 5
      vertex 2.77071 -0.958141 5
    endloop
  endfacet
  facet normal 0 0 1
    outer loop
      vertex 2.34597 -1.59032 5
      vertex 2.1978 -1.74836 5
      vertex 2.26695 -1.82739 5
    endloop
  endfacet
  facet normal 0 0 1
    outer loop
      vertex 2.75096 -0.997652 5
      vertex 2.72132 -1.19521 5
      vertex 2.81022 -1.04704 5
    endloop
  endfacet
  facet normal 0 0 1
    outer loop
      vertex 1.85208 -0.217308 5
      vertex 1.93111 -1.00753 5
      vertex 2.14841 -0.879119 5
    endloop
  endfacet
  facet normal 0 0 1
    outer loop
      vertex 2.44475 -1.61995 5
      vertex 2.26695 -1.82739 5
      vertex 2.31634 -1.88665 5
    endloop
  endfacet
  facet normal 0 -0 1
    outer loop
      vertex 1.49648 -1.37301 5
      vertex 1.81257 -1.0668 5
      vertex 0.805037 -1.35326 5
    endloop
  endfacet
  facet normal 0 0 1
    outer loop
      vertex 0.805037 -1.35326 5
      vertex 1.81257 -1.0668 5
      vertex 1.85208 -0.217308 5
    endloop
  endfacet
  facet normal 0 0 1
    outer loop
      vertex 1.81257 -1.0668 5
      vertex 1.49648 -1.37301 5
      vertex 1.72367 -1.57056 5
    endloop
  endfacet
  facet normal 0 0 1
    outer loop
      vertex 0.805037 -1.35326 5
      vertex 1.20015 -1.67922 5
      vertex 1.49648 -1.37301 5
    endloop
  endfacet
  facet normal 0 0 1
    outer loop
      vertex 2.86949 -2.08421 5
      vertex 2.81022 -2.18298 5
      vertex 2.87937 -2.11384 5
    endloop
  endfacet
  facet normal 0 0 1
    outer loop
      vertex 1.81257 -1.0668 5
      vertex 2.01013 -1.3335 5
      vertex 2.01013 -1.22484 5
    endloop
  endfacet
  facet normal 0 0 1
    outer loop
      vertex 2.6423 -2.11384 5
      vertex 2.63243 -1.76812 5
      vertex 2.54353 -2.05458 5
    endloop
  endfacet
  facet normal 0 0 1
    outer loop
      vertex 1.59526 -1.52118 5
      vertex 1.42734 -1.64958 5
      vertex 1.54587 -1.73849 5
    endloop
  endfacet
  facet normal 0 0 1
    outer loop
      vertex 2.87937 -2.11384 5
      vertex 2.81022 -2.18298 5
      vertex 2.86949 -2.16323 5
    endloop
  endfacet
  facet normal 0 0 1
    outer loop
      vertex 2.86949 -2.08421 5
      vertex 2.7312 -2.15335 5
      vertex 2.81022 -2.18298 5
    endloop
  endfacet
  facet normal 0 0 1
    outer loop
      vertex 2.86949 -2.08421 5
      vertex 2.6423 -2.11384 5
      vertex 2.7312 -2.15335 5
    endloop
  endfacet
  facet normal 0 0 1
    outer loop
      vertex 2.86949 -2.08421 5
      vertex 2.63243 -1.76812 5
      vertex 2.6423 -2.11384 5
    endloop
  endfacet
  facet normal 0 0 1
    outer loop
      vertex 2.63243 -1.76812 5
      vertex 2.41512 -1.98543 5
      vertex 2.54353 -2.05458 5
    endloop
  endfacet
  facet normal 0 0 1
    outer loop
      vertex 2.63243 -1.76812 5
      vertex 2.31634 -1.88665 5
      vertex 2.41512 -1.98543 5
    endloop
  endfacet
  facet normal 0 0 1
    outer loop
      vertex 2.63243 -1.76812 5
      vertex 2.44475 -1.61995 5
      vertex 2.31634 -1.88665 5
    endloop
  endfacet
  facet normal 0 0 1
    outer loop
      vertex 2.32621 -2.23237 5
      vertex 2.23731 -2.30152 5
      vertex 2.30646 -2.29164 5
    endloop
  endfacet
  facet normal 0 0 1
    outer loop
      vertex 2.44475 -1.61995 5
      vertex 2.34597 -1.59032 5
      vertex 2.26695 -1.82739 5
    endloop
  endfacet
  facet normal 0 0 1
    outer loop
      vertex 2.34597 -1.59032 5
      vertex 2.09903 -1.64958 5
      vertex 2.1978 -1.74836 5
    endloop
  endfacet
  facet normal 0 -0 1
    outer loop
      vertex 2.05951 -2.20274 5
      vertex 2.30646 -2.19286 5
      vertex 2.01013 -1.80763 5
    endloop
  endfacet
  facet normal 0 0 1
    outer loop
      vertex 2.34597 -1.59032 5
      vertex 2.01013 -1.3335 5
      vertex 2.09903 -1.64958 5
    endloop
  endfacet
  facet normal 0 0 1
    outer loop
      vertex 2.09903 -1.64958 5
      vertex 2.01013 -1.3335 5
      vertex 1.97062 -1.53105 5
    endloop
  endfacet
  facet normal 0 -0 1
    outer loop
      vertex 1.97062 -1.53105 5
      vertex 2.01013 -1.3335 5
      vertex 1.72367 -1.57056 5
    endloop
  endfacet
  facet normal 0 0 1
    outer loop
      vertex 1.72367 -1.57056 5
      vertex 2.01013 -1.3335 5
      vertex 1.81257 -1.0668 5
    endloop
  endfacet
  facet normal 0 0 1
    outer loop
      vertex 0.805037 -1.35326 5
      vertex 0.755647 -1.34338 5
      vertex 0.755647 -1.35326 5
    endloop
  endfacet
  facet normal 0 0 1
    outer loop
      vertex 1.49648 -1.40264 5
      vertex 1.20015 -1.67922 5
      vertex 1.42734 -1.64958 5
    endloop
  endfacet
  facet normal 0 0 1
    outer loop
      vertex 1.69404 -1.6002 5
      vertex 1.54587 -1.73849 5
      vertex 1.80269 -1.69897 5
    endloop
  endfacet
  facet normal 0 0 1
    outer loop
      vertex 0.805037 -1.35326 5
      vertex 0.39017 -1.02729 5
      vertex 0.755647 -1.34338 5
    endloop
  endfacet
  facet normal -0 0 1
    outer loop
      vertex 2.05951 -2.20274 5
      vertex 2.14841 -2.26201 5
      vertex 2.30646 -2.19286 5
    endloop
  endfacet
  facet normal 0 0 1
    outer loop
      vertex 2.32621 -2.23237 5
      vertex 2.30646 -2.19286 5
      vertex 2.23731 -2.30152 5
    endloop
  endfacet
  facet normal 0 0 1
    outer loop
      vertex 2.30646 -2.19286 5
      vertex 2.1978 -2.28176 5
      vertex 2.23731 -2.30152 5
    endloop
  endfacet
  facet normal 0 0 1
    outer loop
      vertex 2.30646 -2.19286 5
      vertex 2.14841 -2.26201 5
      vertex 2.1978 -2.28176 5
    endloop
  endfacet
  facet normal -0 0 1
    outer loop
      vertex 1.93111 -2.1336 5
      vertex 2.05951 -2.20274 5
      vertex 2.01013 -1.80763 5
    endloop
  endfacet
  facet normal -0 0 1
    outer loop
      vertex 1.85208 -2.08421 5
      vertex 1.93111 -2.1336 5
      vertex 2.01013 -1.80763 5
    endloop
  endfacet
  facet normal -0 0 1
    outer loop
      vertex 1.71379 -1.91629 5
      vertex 1.85208 -2.08421 5
      vertex 2.01013 -1.80763 5
    endloop
  endfacet
  facet normal 0 0 1
    outer loop
      vertex 1.80269 -1.69897 5
      vertex 1.71379 -1.91629 5
      vertex 2.01013 -1.80763 5
    endloop
  endfacet
  facet normal 0 0 1
    outer loop
      vertex 1.80269 -1.69897 5
      vertex 1.54587 -1.73849 5
      vertex 1.71379 -1.91629 5
    endloop
  endfacet
  facet normal 0 0 1
    outer loop
      vertex 1.69404 -1.6002 5
      vertex 1.59526 -1.52118 5
      vertex 1.54587 -1.73849 5
    endloop
  endfacet
  facet normal 0 0 1
    outer loop
      vertex 1.59526 -1.52118 5
      vertex 1.53599 -1.46191 5
      vertex 1.42734 -1.64958 5
    endloop
  endfacet
  facet normal 0 0 1
    outer loop
      vertex 1.42734 -1.64958 5
      vertex 1.53599 -1.46191 5
      vertex 1.49648 -1.40264 5
    endloop
  endfacet
  facet normal 0 0 1
    outer loop
      vertex 0.39017 -1.02729 5
      vertex -0.044446 -0.82973 5
      vertex 0.29139 -1.03716 5
    endloop
  endfacet
  facet normal 0 0 1
    outer loop
      vertex -0.044446 -0.82973 5
      vertex -0.0246927 -0.908752 5
      vertex 0.202494 -1.04704 5
    endloop
  endfacet
  facet normal 0 0 1
    outer loop
      vertex 0.222247 -1.04704 5
      vertex -0.044446 -0.82973 5
      vertex 0.202494 -1.04704 5
    endloop
  endfacet
  facet normal 0 0 1
    outer loop
      vertex 0.39017 -1.02729 5
      vertex 1.85208 -0.217308 5
      vertex 1.21003 0.879119 5
    endloop
  endfacet
  facet normal 0 -0 1
    outer loop
      vertex 0.805037 -1.35326 5
      vertex 1.85208 -0.217308 5
      vertex 0.39017 -1.02729 5
    endloop
  endfacet
  facet normal 0 -0 1
    outer loop
      vertex 0.153104 -1.0668 5
      vertex 0.202494 -1.04704 5
      vertex -0.0246927 -0.908752 5
    endloop
  endfacet
  facet normal 0 0 1
    outer loop
      vertex 0.39017 -1.02729 5
      vertex -0.153104 -0.730955 5
      vertex -0.044446 -0.82973 5
    endloop
  endfacet
  facet normal 0 -0 1
    outer loop
      vertex 0.39017 -1.02729 5
      vertex 1.21003 0.879119 5
      vertex -0.153104 -0.730955 5
    endloop
  endfacet
  facet normal 0 -0 1
    outer loop
      vertex -0.153104 -0.730955 5
      vertex 1.21003 0.879119 5
      vertex -0.370417 -0.602543 5
    endloop
  endfacet
  facet normal 0 0 1
    outer loop
      vertex 1.21003 0.879119 5
      vertex 0.696383 1.30387 5
      vertex -0.370417 -0.602543 5
    endloop
  endfacet
  facet normal 0 -0 1
    outer loop
      vertex -0.370417 -0.602543 5
      vertex 0.696383 1.30387 5
      vertex -1.52611 0.661807 5
    endloop
  endfacet
  facet normal 0 0 1
    outer loop
      vertex -1.52611 0.661807 5
      vertex 0.696383 1.30387 5
      vertex 0.52846 1.5113 5
    endloop
  endfacet
  facet normal 0 0 1
    outer loop
      vertex 0.222247 1.74836 5
      vertex -1.52611 0.661807 5
      vertex 0.52846 1.5113 5
    endloop
  endfacet
  facet normal 0 0 1
    outer loop
      vertex -0.370417 -0.602543 5
      vertex -1.52611 0.661807 5
      vertex -2.07927 0.148165 5
    endloop
  endfacet
  facet normal 0 0 1
    outer loop
      vertex -2.76083 -0.572911 5
      vertex -2.68181 -0.424742 5
      vertex -2.74108 -0.503763 5
    endloop
  endfacet
  facet normal 0 -0 1
    outer loop
      vertex -2.84974 -1.23472 5
      vertex -2.84974 -0.91863 5
      vertex -2.87937 -1.0668 5
    endloop
  endfacet
  facet normal -0 0 1
    outer loop
      vertex -2.87937 -1.20509 5
      vertex -2.84974 -1.23472 5
      vertex -2.87937 -1.0668 5
    endloop
  endfacet
  facet normal 0 0 1
    outer loop
      vertex -2.84974 -1.23472 5
      vertex -2.80035 -0.730955 5
      vertex -2.84974 -0.91863 5
    endloop
  endfacet
  facet normal -0 0 1
    outer loop
      vertex -2.84974 -1.23472 5
      vertex -1.99037 -2.12372 5
      vertex -2.80035 -0.730955 5
    endloop
  endfacet
  facet normal 0 0 1
    outer loop
      vertex -2.61267 -0.365477 5
      vertex -2.68181 -0.424742 5
      vertex -2.76083 -0.572911 5
    endloop
  endfacet
  facet normal 0 0 1
    outer loop
      vertex -2.80035 -0.730955 5
      vertex -2.61267 -0.365477 5
      vertex -2.76083 -0.572911 5
    endloop
  endfacet
  facet normal 0 0 1
    outer loop
      vertex -2.47438 -0.227187 5
      vertex -2.61267 -0.365477 5
      vertex -2.80035 -0.730955 5
    endloop
  endfacet
  facet normal 0 0 1
    outer loop
      vertex -1.99037 -2.12372 5
      vertex -2.47438 -0.227187 5
      vertex -2.80035 -0.730955 5
    endloop
  endfacet
  facet normal 0 0 1
    outer loop
      vertex -1.68416 1.48167 5
      vertex -1.78294 1.49154 5
      vertex -2.03976 1.32362 5
    endloop
  endfacet
  facet normal 0 0 1
    outer loop
      vertex -1.99037 -2.12372 5
      vertex -2.2867 -0.0493854 5
      vertex -2.47438 -0.227187 5
    endloop
  endfacet
  facet normal 0 -0 1
    outer loop
      vertex -1.99037 -2.12372 5
      vertex -0.370417 -0.602543 5
      vertex -2.2867 -0.0493854 5
    endloop
  endfacet
  facet normal -0 0 1
    outer loop
      vertex -2.2867 -0.0493854 5
      vertex -0.370417 -0.602543 5
      vertex -2.07927 0.148165 5
    endloop
  endfacet
  facet normal 0 0 1
    outer loop
      vertex -0.953202 1.96568 5
      vertex -1.39771 1.61007 5
      vertex -1.52611 0.661807 5
    endloop
  endfacet
  facet normal 0 0 1
    outer loop
      vertex 0.222247 1.74836 5
      vertex -0.953202 1.96568 5
      vertex -1.52611 0.661807 5
    endloop
  endfacet
  facet normal -0 -0 1
    outer loop
      vertex -2.12866 1.04704 5
      vertex -2.02988 0.908752 5
      vertex -2.13854 1.12606 5
    endloop
  endfacet
  facet normal -0 -0 1
    outer loop
      vertex -2.11878 0.977899 5
      vertex -2.07927 0.938388 5
      vertex -2.12866 1.04704 5
    endloop
  endfacet
  facet normal 0 0 1
    outer loop
      vertex -2.12866 1.04704 5
      vertex -2.07927 0.938388 5
      vertex -2.02988 0.908752 5
    endloop
  endfacet
  facet normal 0 0 1
    outer loop
      vertex -2.13854 1.12606 5
      vertex -2.03976 1.32362 5
      vertex -2.13854 1.27423 5
    endloop
  endfacet
  facet normal -0 0 1
    outer loop
      vertex -2.13854 1.12606 5
      vertex -2.02988 0.908752 5
      vertex -2.03976 1.32362 5
    endloop
  endfacet
  facet normal 0 0 1
    outer loop
      vertex -2.03976 1.32362 5
      vertex -1.78294 1.49154 5
      vertex -1.86196 1.48167 5
    endloop
  endfacet
  facet normal 0 0 1
    outer loop
      vertex -2.03976 1.32362 5
      vertex -1.86196 1.48167 5
      vertex -2.00025 1.39277 5
    endloop
  endfacet
  facet normal -0 0 1
    outer loop
      vertex -1.39771 1.65946 5
      vertex -1.39771 1.61007 5
      vertex -1.36807 1.74836 5
    endloop
  endfacet
  facet normal 0 0 1
    outer loop
      vertex -1.68416 1.48167 5
      vertex -1.72367 1.49154 5
      vertex -1.78294 1.49154 5
    endloop
  endfacet
  facet normal 0 -0 1
    outer loop
      vertex -2.02988 0.908752 5
      vertex -1.68416 1.48167 5
      vertex -2.03976 1.32362 5
    endloop
  endfacet
  facet normal -0 0 1
    outer loop
      vertex -2.02988 0.908752 5
      vertex -1.52611 0.661807 5
      vertex -1.68416 1.48167 5
    endloop
  endfacet
  facet normal -0 0 1
    outer loop
      vertex -1.68416 1.48167 5
      vertex -1.52611 0.661807 5
      vertex -1.39771 1.61007 5
    endloop
  endfacet
  facet normal 0 0 1
    outer loop
      vertex -0.953202 1.96568 5
      vertex -1.03222 1.94592 5
      vertex -1.39771 1.61007 5
    endloop
  endfacet
  facet normal 0 0 1
    outer loop
      vertex -1.18039 1.92617 5
      vertex -1.34832 1.78788 5
      vertex -1.36807 1.74836 5
    endloop
  endfacet
  facet normal 0 0 1
    outer loop
      vertex -1.18039 1.92617 5
      vertex -1.28905 1.8669 5
      vertex -1.34832 1.78788 5
    endloop
  endfacet
  facet normal 0 0 1
    outer loop
      vertex -1.18039 1.92617 5
      vertex -1.26929 1.88665 5
      vertex -1.28905 1.8669 5
    endloop
  endfacet
  facet normal 0 0 1
    outer loop
      vertex -0.172858 2.05458 5
      vertex -0.676625 2.10396 5
      vertex -0.0049351 1.92617 5
    endloop
  endfacet
  facet normal 0 0 1
    outer loop
      vertex -0.676625 2.10396 5
      vertex -0.459313 2.2225 5
      vertex -0.52846 2.26201 5
    endloop
  endfacet
  facet normal 0 0 1
    outer loop
      vertex -0.172858 2.05458 5
      vertex -0.400049 2.15335 5
      vertex -0.676625 2.10396 5
    endloop
  endfacet
  facet normal 0 0 1
    outer loop
      vertex -0.953202 1.96568 5
      vertex 0.222247 1.74836 5
      vertex -0.0049351 1.92617 5
    endloop
  endfacet
  facet normal 0 0 1
    outer loop
      vertex -0.52846 2.26201 5
      vertex -0.676625 2.20274 5
      vertex -0.676625 2.10396 5
    endloop
  endfacet
  facet normal 0 0 1
    outer loop
      vertex -0.676625 2.10396 5
      vertex -0.953202 1.96568 5
      vertex -0.0049351 1.92617 5
    endloop
  endfacet
  facet normal 0 0 1
    outer loop
      vertex -0.953202 1.96568 5
      vertex -0.676625 2.10396 5
      vertex -0.913691 2.06445 5
    endloop
  endfacet
  facet normal 0 0 1
    outer loop
      vertex -0.52846 2.26201 5
      vertex -0.607482 2.30152 5
      vertex -0.676625 2.20274 5
    endloop
  endfacet
  facet normal 0.496121 0.868253 -0
    outer loop
      vertex -0.52846 2.26201 0
      vertex -0.52846 2.26201 5
      vertex -0.459313 2.2225 0
    endloop
  endfacet
  facet normal 0.496121 0.868253 0
    outer loop
      vertex -0.52846 2.26201 5
      vertex -0.459313 2.2225 5
      vertex -0.459313 2.2225 0
    endloop
  endfacet
  facet normal 0.759283 0.65076 -0
    outer loop
      vertex -0.459313 2.2225 0
      vertex -0.459313 2.2225 5
      vertex -0.400049 2.15335 0
    endloop
  endfacet
  facet normal 0.759283 0.65076 0
    outer loop
      vertex -0.459313 2.2225 5
      vertex -0.400049 2.15335 5
      vertex -0.400049 2.15335 0
    endloop
  endfacet
  facet normal -0.164411 0.986392 0
    outer loop
      vertex -0.400049 2.15335 0
      vertex -0.400049 2.15335 5
      vertex -0.34078 2.16323 0
    endloop
  endfacet
  facet normal -0.164411 0.986392 0
    outer loop
      vertex -0.400049 2.15335 5
      vertex -0.34078 2.16323 5
      vertex -0.34078 2.16323 0
    endloop
  endfacet
  facet normal 0 1 0
    outer loop
      vertex -0.34078 2.16323 0
      vertex -0.34078 2.16323 5
      vertex -0.321027 2.16323 0
    endloop
  endfacet
  facet normal -0 1 0
    outer loop
      vertex -0.34078 2.16323 5
      vertex -0.321027 2.16323 5
      vertex -0.321027 2.16323 0
    endloop
  endfacet
  facet normal 0.447188 0.89444 -0
    outer loop
      vertex -0.321027 2.16323 0
      vertex -0.321027 2.16323 5
      vertex -0.261758 2.1336 0
    endloop
  endfacet
  facet normal 0.447188 0.89444 0
    outer loop
      vertex -0.321027 2.16323 5
      vertex -0.261758 2.1336 5
      vertex -0.261758 2.1336 0
    endloop
  endfacet
  facet normal 0.664359 0.747413 -0
    outer loop
      vertex -0.261758 2.1336 0
      vertex -0.261758 2.1336 5
      vertex -0.172858 2.05458 0
    endloop
  endfacet
  facet normal 0.664359 0.747413 0
    outer loop
      vertex -0.261758 2.1336 5
      vertex -0.172858 2.05458 5
      vertex -0.172858 2.05458 0
    endloop
  endfacet
  facet normal 0.607451 0.794357 -0
    outer loop
      vertex -0.172858 2.05458 0
      vertex -0.172858 2.05458 5
      vertex -0.0049351 1.92617 0
    endloop
  endfacet
  facet normal 0.607451 0.794357 0
    outer loop
      vertex -0.172858 2.05458 5
      vertex -0.0049351 1.92617 5
      vertex -0.0049351 1.92617 0
    endloop
  endfacet
  facet normal 0.616322 0.787494 -0
    outer loop
      vertex -0.0049351 1.92617 0
      vertex -0.0049351 1.92617 5
      vertex 0.222247 1.74836 0
    endloop
  endfacet
  facet normal 0.616322 0.787494 0
    outer loop
      vertex -0.0049351 1.92617 5
      vertex 0.222247 1.74836 5
      vertex 0.222247 1.74836 0
    endloop
  endfacet
  facet normal 0.129333 0.991601 -0
    outer loop
      vertex 0.222247 1.74836 0
      vertex 0.222247 1.74836 5
      vertex 0.449439 1.71873 0
    endloop
  endfacet
  facet normal 0.129333 0.991601 0
    outer loop
      vertex 0.222247 1.74836 5
      vertex 0.449439 1.71873 5
      vertex 0.449439 1.71873 0
    endloop
  endfacet
  facet normal 0.707129 0.707085 -0
    outer loop
      vertex 0.449439 1.71873 0
      vertex 0.449439 1.71873 5
      vertex 0.518582 1.64958 0
    endloop
  endfacet
  facet normal 0.707129 0.707085 0
    outer loop
      vertex 0.449439 1.71873 5
      vertex 0.518582 1.64958 5
      vertex 0.518582 1.64958 0
    endloop
  endfacet
  facet normal 0.997458 0.0712559 -0
    outer loop
      vertex 0.518582 1.64958 0
      vertex 0.518582 1.64958 5
      vertex 0.52846 1.5113 0
    endloop
  endfacet
  facet normal 0.997458 0.0712559 0
    outer loop
      vertex 0.518582 1.64958 5
      vertex 0.52846 1.5113 5
      vertex 0.52846 1.5113 0
    endloop
  endfacet
  facet normal 0.675736 0.737144 -0
    outer loop
      vertex 0.52846 1.5113 0
      vertex 0.52846 1.5113 5
      vertex 0.646993 1.40264 0
    endloop
  endfacet
  facet normal 0.675736 0.737144 0
    outer loop
      vertex 0.52846 1.5113 5
      vertex 0.646993 1.40264 5
      vertex 0.646993 1.40264 0
    endloop
  endfacet
  facet normal 0.894419 0.447229 -0
    outer loop
      vertex 0.646993 1.40264 0
      vertex 0.646993 1.40264 5
      vertex 0.696383 1.30387 0
    endloop
  endfacet
  facet normal 0.894419 0.447229 0
    outer loop
      vertex 0.646993 1.40264 5
      vertex 0.696383 1.30387 5
      vertex 0.696383 1.30387 0
    endloop
  endfacet
  facet normal 0.637267 0.770643 -0
    outer loop
      vertex 0.696383 1.30387 0
      vertex 0.696383 1.30387 5
      vertex 1.21003 0.879119 0
    endloop
  endfacet
  facet normal 0.637267 0.770643 0
    outer loop
      vertex 0.696383 1.30387 5
      vertex 1.21003 0.879119 5
      vertex 1.21003 0.879119 0
    endloop
  endfacet
  facet normal 0.216905 0.976193 -0
    outer loop
      vertex 1.21003 0.879119 0
      vertex 1.21003 0.879119 5
      vertex 1.29893 0.859366 0
    endloop
  endfacet
  facet normal 0.216905 0.976193 0
    outer loop
      vertex 1.21003 0.879119 5
      vertex 1.29893 0.859366 5
      vertex 1.29893 0.859366 0
    endloop
  endfacet
  facet normal 0.0948188 0.995495 -0
    outer loop
      vertex 1.29893 0.859366 0
      vertex 1.29893 0.859366 5
      vertex 1.50636 0.839609 0
    endloop
  endfacet
  facet normal 0.0948188 0.995495 0
    outer loop
      vertex 1.29893 0.859366 5
      vertex 1.50636 0.839609 5
      vertex 1.50636 0.839609 0
    endloop
  endfacet
  facet normal 0.136637 0.990621 -0
    outer loop
      vertex 1.50636 0.839609 0
      vertex 1.50636 0.839609 5
      vertex 1.79281 0.800098 0
    endloop
  endfacet
  facet normal 0.136637 0.990621 0
    outer loop
      vertex 1.50636 0.839609 5
      vertex 1.79281 0.800098 5
      vertex 1.79281 0.800098 0
    endloop
  endfacet
  facet normal 0.61527 0.788317 -0
    outer loop
      vertex 1.79281 0.800098 0
      vertex 1.79281 0.800098 5
      vertex 2.1978 0.48401 0
    endloop
  endfacet
  facet normal 0.61527 0.788317 0
    outer loop
      vertex 1.79281 0.800098 5
      vertex 2.1978 0.48401 5
      vertex 2.1978 0.48401 0
    endloop
  endfacet
  facet normal 0.999654 0.0263094 -0
    outer loop
      vertex 2.1978 0.48401 0
      vertex 2.1978 0.48401 5
      vertex 2.20768 0.108654 0
    endloop
  endfacet
  facet normal 0.999654 0.0263094 0
    outer loop
      vertex 2.1978 0.48401 5
      vertex 2.20768 0.108654 5
      vertex 2.20768 0.108654 0
    endloop
  endfacet
  facet normal 0.675721 -0.737157 0
    outer loop
      vertex 2.20768 0.108654 0
      vertex 2.20768 0.108654 5
      vertex 1.85208 -0.217308 0
    endloop
  endfacet
  facet normal 0.675721 -0.737157 0
    outer loop
      vertex 2.20768 0.108654 5
      vertex 1.85208 -0.217308 5
      vertex 1.85208 -0.217308 0
    endloop
  endfacet
  facet normal 0.627754 0.778412 -0
    outer loop
      vertex 1.85208 -0.217308 0
      vertex 1.85208 -0.217308 5
      vertex 2.77071 -0.958141 0
    endloop
  endfacet
  facet normal 0.627754 0.778412 0
    outer loop
      vertex 1.85208 -0.217308 5
      vertex 2.77071 -0.958141 5
      vertex 2.77071 -0.958141 0
    endloop
  endfacet
  facet normal 0.894447 -0.447175 0
    outer loop
      vertex 2.77071 -0.958141 0
      vertex 2.77071 -0.958141 5
      vertex 2.75096 -0.997652 0
    endloop
  endfacet
  facet normal 0.894447 -0.447175 0
    outer loop
      vertex 2.77071 -0.958141 5
      vertex 2.75096 -0.997652 5
      vertex 2.75096 -0.997652 0
    endloop
  endfacet
  facet normal 0.640206 0.768203 -0
    outer loop
      vertex 2.75096 -0.997652 0
      vertex 2.75096 -0.997652 5
      vertex 2.81022 -1.04704 0
    endloop
  endfacet
  facet normal 0.640206 0.768203 0
    outer loop
      vertex 2.75096 -0.997652 5
      vertex 2.81022 -1.04704 5
      vertex 2.81022 -1.04704 0
    endloop
  endfacet
  facet normal 0.857489 -0.514503 0
    outer loop
      vertex 2.81022 -1.04704 0
      vertex 2.81022 -1.04704 5
      vertex 2.72132 -1.19521 0
    endloop
  endfacet
  facet normal 0.857489 -0.514503 0
    outer loop
      vertex 2.81022 -1.04704 5
      vertex 2.72132 -1.19521 5
      vertex 2.72132 -1.19521 0
    endloop
  endfacet
  facet normal -0.483076 -0.875578 0
    outer loop
      vertex 2.72132 -1.19521 0
      vertex 2.72132 -1.19521 5
      vertex 2.14841 -0.879119 0
    endloop
  endfacet
  facet normal -0.483076 -0.875578 0
    outer loop
      vertex 2.72132 -1.19521 5
      vertex 2.14841 -0.879119 5
      vertex 2.14841 -0.879119 0
    endloop
  endfacet
  facet normal 0.959371 -0.282148 0
    outer loop
      vertex 2.14841 -0.879119 0
      vertex 2.14841 -0.879119 5
      vertex 2.09903 -1.04704 0
    endloop
  endfacet
  facet normal 0.959371 -0.282148 0
    outer loop
      vertex 2.14841 -0.879119 5
      vertex 2.09903 -1.04704 5
      vertex 2.09903 -1.04704 0
    endloop
  endfacet
  facet normal 0.21695 -0.976183 0
    outer loop
      vertex 2.09903 -1.04704 0
      vertex 2.09903 -1.04704 5
      vertex 2.01013 -1.0668 0
    endloop
  endfacet
  facet normal 0.21695 -0.976183 0
    outer loop
      vertex 2.09903 -1.04704 5
      vertex 2.01013 -1.0668 5
      vertex 2.01013 -1.0668 0
    endloop
  endfacet
  facet normal -0.600014 -0.79999 0
    outer loop
      vertex 2.01013 -1.0668 0
      vertex 2.01013 -1.0668 5
      vertex 1.93111 -1.00753 0
    endloop
  endfacet
  facet normal -0.600014 -0.79999 0
    outer loop
      vertex 2.01013 -1.0668 5
      vertex 1.93111 -1.00753 5
      vertex 1.93111 -1.00753 0
    endloop
  endfacet
  facet normal 0.447214 -0.894427 0
    outer loop
      vertex 1.93111 -1.00753 0
      vertex 1.93111 -1.00753 5
      vertex 1.81257 -1.0668 0
    endloop
  endfacet
  facet normal 0.447214 -0.894427 0
    outer loop
      vertex 1.93111 -1.00753 5
      vertex 1.81257 -1.0668 5
      vertex 1.81257 -1.0668 0
    endloop
  endfacet
  facet normal 0.624687 0.780875 -0
    outer loop
      vertex 1.81257 -1.0668 0
      vertex 1.81257 -1.0668 5
      vertex 2.01013 -1.22484 0
    endloop
  endfacet
  facet normal 0.624687 0.780875 0
    outer loop
      vertex 1.81257 -1.0668 5
      vertex 2.01013 -1.22484 5
      vertex 2.01013 -1.22484 0
    endloop
  endfacet
  facet normal 1 0 -0
    outer loop
      vertex 2.01013 -1.22484 0
      vertex 2.01013 -1.22484 5
      vertex 2.01013 -1.3335 0
    endloop
  endfacet
  facet normal 1 0 0
    outer loop
      vertex 2.01013 -1.22484 5
      vertex 2.01013 -1.3335 5
      vertex 2.01013 -1.3335 0
    endloop
  endfacet
  facet normal 0.607451 0.794357 -0
    outer loop
      vertex 2.01013 -1.3335 0
      vertex 2.01013 -1.3335 5
      vertex 2.34597 -1.59032 0
    endloop
  endfacet
  facet normal 0.607451 0.794357 0
    outer loop
      vertex 2.01013 -1.3335 5
      vertex 2.34597 -1.59032 5
      vertex 2.34597 -1.59032 0
    endloop
  endfacet
  facet normal 0.287344 0.957827 -0
    outer loop
      vertex 2.34597 -1.59032 0
      vertex 2.34597 -1.59032 5
      vertex 2.44475 -1.61995 0
    endloop
  endfacet
  facet normal 0.287344 0.957827 0
    outer loop
      vertex 2.34597 -1.59032 5
      vertex 2.44475 -1.61995 5
      vertex 2.44475 -1.61995 0
    endloop
  endfacet
  facet normal 0.619646 0.784881 -0
    outer loop
      vertex 2.44475 -1.61995 0
      vertex 2.44475 -1.61995 5
      vertex 2.63243 -1.76812 0
    endloop
  endfacet
  facet normal 0.619646 0.784881 0
    outer loop
      vertex 2.44475 -1.61995 5
      vertex 2.63243 -1.76812 5
      vertex 2.63243 -1.76812 0
    endloop
  endfacet
  facet normal 0.8 0.6 -0
    outer loop
      vertex 2.63243 -1.76812 0
      vertex 2.63243 -1.76812 5
      vertex 2.86949 -2.08421 0
    endloop
  endfacet
  facet normal 0.8 0.6 0
    outer loop
      vertex 2.63243 -1.76812 5
      vertex 2.86949 -2.08421 5
      vertex 2.86949 -2.08421 0
    endloop
  endfacet
  facet normal 0.94867 0.316269 -0
    outer loop
      vertex 2.86949 -2.08421 0
      vertex 2.86949 -2.08421 5
      vertex 2.87937 -2.11384 0
    endloop
  endfacet
  facet normal 0.94867 0.316269 0
    outer loop
      vertex 2.86949 -2.08421 5
      vertex 2.87937 -2.11384 5
      vertex 2.87937 -2.11384 0
    endloop
  endfacet
  facet normal 0.980577 -0.196133 0
    outer loop
      vertex 2.87937 -2.11384 0
      vertex 2.87937 -2.11384 5
      vertex 2.86949 -2.16323 0
    endloop
  endfacet
  facet normal 0.980577 -0.196133 0
    outer loop
      vertex 2.87937 -2.11384 5
      vertex 2.86949 -2.16323 5
      vertex 2.86949 -2.16323 0
    endloop
  endfacet
  facet normal 0.316186 -0.948697 0
    outer loop
      vertex 2.86949 -2.16323 0
      vertex 2.86949 -2.16323 5
      vertex 2.81022 -2.18298 0
    endloop
  endfacet
  facet normal 0.316186 -0.948697 0
    outer loop
      vertex 2.86949 -2.16323 5
      vertex 2.81022 -2.18298 5
      vertex 2.81022 -2.18298 0
    endloop
  endfacet
  facet normal -0.351112 -0.936333 0
    outer loop
      vertex 2.81022 -2.18298 0
      vertex 2.81022 -2.18298 5
      vertex 2.7312 -2.15335 0
    endloop
  endfacet
  facet normal -0.351112 -0.936333 0
    outer loop
      vertex 2.81022 -2.18298 5
      vertex 2.7312 -2.15335 5
      vertex 2.7312 -2.15335 0
    endloop
  endfacet
  facet normal -0.406134 -0.913813 0
    outer loop
      vertex 2.7312 -2.15335 0
      vertex 2.7312 -2.15335 5
      vertex 2.6423 -2.11384 0
    endloop
  endfacet
  facet normal -0.406134 -0.913813 0
    outer loop
      vertex 2.7312 -2.15335 5
      vertex 2.6423 -2.11384 5
      vertex 2.6423 -2.11384 0
    endloop
  endfacet
  facet normal -0.51449 -0.857496 0
    outer loop
      vertex 2.6423 -2.11384 0
      vertex 2.6423 -2.11384 5
      vertex 2.54353 -2.05458 0
    endloop
  endfacet
  facet normal -0.51449 -0.857496 0
    outer loop
      vertex 2.6423 -2.11384 5
      vertex 2.54353 -2.05458 5
      vertex 2.54353 -2.05458 0
    endloop
  endfacet
  facet normal -0.474114 -0.880464 0
    outer loop
      vertex 2.54353 -2.05458 0
      vertex 2.54353 -2.05458 5
      vertex 2.41512 -1.98543 0
    endloop
  endfacet
  facet normal -0.474114 -0.880464 0
    outer loop
      vertex 2.54353 -2.05458 5
      vertex 2.41512 -1.98543 5
      vertex 2.41512 -1.98543 0
    endloop
  endfacet
  facet normal -0.707091 -0.707122 0
    outer loop
      vertex 2.41512 -1.98543 0
      vertex 2.41512 -1.98543 5
      vertex 2.31634 -1.88665 0
    endloop
  endfacet
  facet normal -0.707091 -0.707122 0
    outer loop
      vertex 2.41512 -1.98543 5
      vertex 2.31634 -1.88665 5
      vertex 2.31634 -1.88665 0
    endloop
  endfacet
  facet normal -0.768226 -0.640179 0
    outer loop
      vertex 2.31634 -1.88665 0
      vertex 2.31634 -1.88665 5
      vertex 2.26695 -1.82739 0
    endloop
  endfacet
  facet normal -0.768226 -0.640179 0
    outer loop
      vertex 2.31634 -1.88665 5
      vertex 2.26695 -1.82739 5
      vertex 2.26695 -1.82739 0
    endloop
  endfacet
  facet normal -0.752582 -0.658499 0
    outer loop
      vertex 2.26695 -1.82739 0
      vertex 2.26695 -1.82739 5
      vertex 2.1978 -1.74836 0
    endloop
  endfacet
  facet normal -0.752582 -0.658499 0
    outer loop
      vertex 2.26695 -1.82739 5
      vertex 2.1978 -1.74836 5
      vertex 2.1978 -1.74836 0
    endloop
  endfacet
  facet normal -0.707122 -0.707091 0
    outer loop
      vertex 2.1978 -1.74836 0
      vertex 2.1978 -1.74836 5
      vertex 2.09903 -1.64958 0
    endloop
  endfacet
  facet normal -0.707122 -0.707091 0
    outer loop
      vertex 2.1978 -1.74836 5
      vertex 2.09903 -1.64958 5
      vertex 2.09903 -1.64958 0
    endloop
  endfacet
  facet normal -0.678277 -0.734806 0
    outer loop
      vertex 2.09903 -1.64958 0
      vertex 2.09903 -1.64958 5
      vertex 1.97062 -1.53105 0
    endloop
  endfacet
  facet normal -0.678277 -0.734806 0
    outer loop
      vertex 2.09903 -1.64958 5
      vertex 1.97062 -1.53105 5
      vertex 1.97062 -1.53105 0
    endloop
  endfacet
  facet normal 0.15799 -0.987441 0
    outer loop
      vertex 1.97062 -1.53105 0
      vertex 1.97062 -1.53105 5
      vertex 1.72367 -1.57056 0
    endloop
  endfacet
  facet normal 0.15799 -0.987441 0
    outer loop
      vertex 1.97062 -1.53105 5
      vertex 1.72367 -1.57056 5
      vertex 1.72367 -1.57056 0
    endloop
  endfacet
  facet normal -0.656173 -0.75461 0
    outer loop
      vertex 1.72367 -1.57056 0
      vertex 1.72367 -1.57056 5
      vertex 1.49648 -1.37301 0
    endloop
  endfacet
  facet normal -0.656173 -0.75461 0
    outer loop
      vertex 1.72367 -1.57056 5
      vertex 1.49648 -1.37301 5
      vertex 1.49648 -1.37301 0
    endloop
  endfacet
  facet normal 1 0 -0
    outer loop
      vertex 1.49648 -1.37301 0
      vertex 1.49648 -1.37301 5
      vertex 1.49648 -1.40264 0
    endloop
  endfacet
  facet normal 1 0 0
    outer loop
      vertex 1.49648 -1.37301 5
      vertex 1.49648 -1.40264 5
      vertex 1.49648 -1.40264 0
    endloop
  endfacet
  facet normal 0.83206 0.554686 -0
    outer loop
      vertex 1.49648 -1.40264 0
      vertex 1.49648 -1.40264 5
      vertex 1.53599 -1.46191 0
    endloop
  endfacet
  facet normal 0.83206 0.554686 0
    outer loop
      vertex 1.49648 -1.40264 5
      vertex 1.53599 -1.46191 5
      vertex 1.53599 -1.46191 0
    endloop
  endfacet
  facet normal 0.707107 0.707107 -0
    outer loop
      vertex 1.53599 -1.46191 0
      vertex 1.53599 -1.46191 5
      vertex 1.59526 -1.52118 0
    endloop
  endfacet
  facet normal 0.707107 0.707107 0
    outer loop
      vertex 1.53599 -1.46191 5
      vertex 1.59526 -1.52118 5
      vertex 1.59526 -1.52118 0
    endloop
  endfacet
  facet normal 0.624703 0.780862 -0
    outer loop
      vertex 1.59526 -1.52118 0
      vertex 1.59526 -1.52118 5
      vertex 1.69404 -1.6002 0
    endloop
  endfacet
  facet normal 0.624703 0.780862 0
    outer loop
      vertex 1.59526 -1.52118 5
      vertex 1.69404 -1.6002 5
      vertex 1.69404 -1.6002 0
    endloop
  endfacet
  facet normal 0.672654 0.739957 -0
    outer loop
      vertex 1.69404 -1.6002 0
      vertex 1.69404 -1.6002 5
      vertex 1.80269 -1.69897 0
    endloop
  endfacet
  facet normal 0.672654 0.739957 0
    outer loop
      vertex 1.69404 -1.6002 5
      vertex 1.80269 -1.69897 5
      vertex 1.80269 -1.69897 0
    endloop
  endfacet
  facet normal 0.464016 0.885827 -0
    outer loop
      vertex 1.80269 -1.69897 0
      vertex 1.80269 -1.69897 5
      vertex 2.01013 -1.80763 0
    endloop
  endfacet
  facet normal 0.464016 0.885827 0
    outer loop
      vertex 1.80269 -1.69897 5
      vertex 2.01013 -1.80763 5
      vertex 2.01013 -1.80763 0
    endloop
  endfacet
  facet normal 0.792625 0.609709 -0
    outer loop
      vertex 2.01013 -1.80763 0
      vertex 2.01013 -1.80763 5
      vertex 2.30646 -2.19286 0
    endloop
  endfacet
  facet normal 0.792625 0.609709 0
    outer loop
      vertex 2.01013 -1.80763 5
      vertex 2.30646 -2.19286 5
      vertex 2.30646 -2.19286 0
    endloop
  endfacet
  facet normal 0.894408 0.447253 -0
    outer loop
      vertex 2.30646 -2.19286 0
      vertex 2.30646 -2.19286 5
      vertex 2.32621 -2.23237 0
    endloop
  endfacet
  facet normal 0.894408 0.447253 0
    outer loop
      vertex 2.30646 -2.19286 5
      vertex 2.32621 -2.23237 5
      vertex 2.32621 -2.23237 0
    endloop
  endfacet
  facet normal 0.948676 -0.316248 0
    outer loop
      vertex 2.32621 -2.23237 0
      vertex 2.32621 -2.23237 5
      vertex 2.30646 -2.29164 0
    endloop
  endfacet
  facet normal 0.948676 -0.316248 0
    outer loop
      vertex 2.32621 -2.23237 5
      vertex 2.30646 -2.29164 5
      vertex 2.30646 -2.29164 0
    endloop
  endfacet
  facet normal 0.141439 -0.989947 0
    outer loop
      vertex 2.30646 -2.29164 0
      vertex 2.30646 -2.29164 5
      vertex 2.23731 -2.30152 0
    endloop
  endfacet
  facet normal 0.141439 -0.989947 0
    outer loop
      vertex 2.30646 -2.29164 5
      vertex 2.23731 -2.30152 5
      vertex 2.23731 -2.30152 0
    endloop
  endfacet
  facet normal -0.447253 -0.894408 0
    outer loop
      vertex 2.23731 -2.30152 0
      vertex 2.23731 -2.30152 5
      vertex 2.1978 -2.28176 0
    endloop
  endfacet
  facet normal -0.447253 -0.894408 0
    outer loop
      vertex 2.23731 -2.30152 5
      vertex 2.1978 -2.28176 5
      vertex 2.1978 -2.28176 0
    endloop
  endfacet
  facet normal -0.371349 -0.928493 0
    outer loop
      vertex 2.1978 -2.28176 0
      vertex 2.1978 -2.28176 5
      vertex 2.14841 -2.26201 0
    endloop
  endfacet
  facet normal -0.371349 -0.928493 0
    outer loop
      vertex 2.1978 -2.28176 5
      vertex 2.14841 -2.26201 5
      vertex 2.14841 -2.26201 0
    endloop
  endfacet
  facet normal -0.554709 -0.832044 0
    outer loop
      vertex 2.14841 -2.26201 0
      vertex 2.14841 -2.26201 5
      vertex 2.05951 -2.20274 0
    endloop
  endfacet
  facet normal -0.554709 -0.832044 0
    outer loop
      vertex 2.14841 -2.26201 5
      vertex 2.05951 -2.20274 5
      vertex 2.05951 -2.20274 0
    endloop
  endfacet
  facet normal -0.474103 -0.880469 0
    outer loop
      vertex 2.05951 -2.20274 0
      vertex 2.05951 -2.20274 5
      vertex 1.93111 -2.1336 0
    endloop
  endfacet
  facet normal -0.474103 -0.880469 0
    outer loop
      vertex 2.05951 -2.20274 5
      vertex 1.93111 -2.1336 5
      vertex 1.93111 -2.1336 0
    endloop
  endfacet
  facet normal -0.530007 -0.847993 0
    outer loop
      vertex 1.93111 -2.1336 0
      vertex 1.93111 -2.1336 5
      vertex 1.85208 -2.08421 0
    endloop
  endfacet
  facet normal -0.530007 -0.847993 0
    outer loop
      vertex 1.93111 -2.1336 5
      vertex 1.85208 -2.08421 5
      vertex 1.85208 -2.08421 0
    endloop
  endfacet
  facet normal -0.771927 -0.635711 0
    outer loop
      vertex 1.85208 -2.08421 0
      vertex 1.85208 -2.08421 5
      vertex 1.71379 -1.91629 0
    endloop
  endfacet
  facet normal -0.771927 -0.635711 0
    outer loop
      vertex 1.85208 -2.08421 5
      vertex 1.71379 -1.91629 5
      vertex 1.71379 -1.91629 0
    endloop
  endfacet
  facet normal -0.727015 -0.686621 0
    outer loop
      vertex 1.71379 -1.91629 0
      vertex 1.71379 -1.91629 5
      vertex 1.54587 -1.73849 0
    endloop
  endfacet
  facet normal -0.727015 -0.686621 0
    outer loop
      vertex 1.71379 -1.91629 5
      vertex 1.54587 -1.73849 5
      vertex 1.54587 -1.73849 0
    endloop
  endfacet
  facet normal -0.600005 -0.799997 0
    outer loop
      vertex 1.54587 -1.73849 0
      vertex 1.54587 -1.73849 5
      vertex 1.42734 -1.64958 0
    endloop
  endfacet
  facet normal -0.600005 -0.799997 0
    outer loop
      vertex 1.54587 -1.73849 5
      vertex 1.42734 -1.64958 5
      vertex 1.42734 -1.64958 0
    endloop
  endfacet
  facet normal 0.129351 -0.991599 0
    outer loop
      vertex 1.42734 -1.64958 0
      vertex 1.42734 -1.64958 5
      vertex 1.20015 -1.67922 0
    endloop
  endfacet
  facet normal 0.129351 -0.991599 0
    outer loop
      vertex 1.42734 -1.64958 5
      vertex 1.20015 -1.67922 5
      vertex 1.20015 -1.67922 0
    endloop
  endfacet
  facet normal -0.636384 -0.771372 0
    outer loop
      vertex 1.20015 -1.67922 0
      vertex 1.20015 -1.67922 5
      vertex 0.805037 -1.35326 0
    endloop
  endfacet
  facet normal -0.636384 -0.771372 0
    outer loop
      vertex 1.20015 -1.67922 5
      vertex 0.805037 -1.35326 5
      vertex 0.805037 -1.35326 0
    endloop
  endfacet
  facet normal 0 -1 0
    outer loop
      vertex 0.805037 -1.35326 0
      vertex 0.805037 -1.35326 5
      vertex 0.755647 -1.35326 0
    endloop
  endfacet
  facet normal -0 -1 0
    outer loop
      vertex 0.805037 -1.35326 5
      vertex 0.755647 -1.35326 5
      vertex 0.755647 -1.35326 0
    endloop
  endfacet
  facet normal -1 0 0
    outer loop
      vertex 0.755647 -1.35326 0
      vertex 0.755647 -1.35326 5
      vertex 0.755647 -1.34338 0
    endloop
  endfacet
  facet normal -1 0 0
    outer loop
      vertex 0.755647 -1.35326 5
      vertex 0.755647 -1.34338 5
      vertex 0.755647 -1.34338 0
    endloop
  endfacet
  facet normal -0.654151 -0.756364 0
    outer loop
      vertex 0.755647 -1.34338 0
      vertex 0.755647 -1.34338 5
      vertex 0.39017 -1.02729 0
    endloop
  endfacet
  facet normal -0.654151 -0.756364 0
    outer loop
      vertex 0.755647 -1.34338 5
      vertex 0.39017 -1.02729 5
      vertex 0.39017 -1.02729 0
    endloop
  endfacet
  facet normal 0.0994694 -0.995041 0
    outer loop
      vertex 0.39017 -1.02729 0
      vertex 0.39017 -1.02729 5
      vertex 0.29139 -1.03716 0
    endloop
  endfacet
  facet normal 0.0994694 -0.995041 0
    outer loop
      vertex 0.39017 -1.02729 5
      vertex 0.29139 -1.03716 5
      vertex 0.29139 -1.03716 0
    endloop
  endfacet
  facet normal 0.141439 -0.989947 0
    outer loop
      vertex 0.29139 -1.03716 0
      vertex 0.29139 -1.03716 5
      vertex 0.222247 -1.04704 0
    endloop
  endfacet
  facet normal 0.141439 -0.989947 0
    outer loop
      vertex 0.29139 -1.03716 5
      vertex 0.222247 -1.04704 5
      vertex 0.222247 -1.04704 0
    endloop
  endfacet
  facet normal 0 -1 0
    outer loop
      vertex 0.222247 -1.04704 0
      vertex 0.222247 -1.04704 5
      vertex 0.202494 -1.04704 0
    endloop
  endfacet
  facet normal -0 -1 0
    outer loop
      vertex 0.222247 -1.04704 5
      vertex 0.202494 -1.04704 5
      vertex 0.202494 -1.04704 0
    endloop
  endfacet
  facet normal 0.371419 -0.928466 0
    outer loop
      vertex 0.202494 -1.04704 0
      vertex 0.202494 -1.04704 5
      vertex 0.153104 -1.0668 0
    endloop
  endfacet
  facet normal 0.371419 -0.928466 0
    outer loop
      vertex 0.202494 -1.04704 5
      vertex 0.153104 -1.0668 5
      vertex 0.153104 -1.0668 0
    endloop
  endfacet
  facet normal -0.664378 -0.747396 0
    outer loop
      vertex 0.153104 -1.0668 0
      vertex 0.153104 -1.0668 5
      vertex -0.0246927 -0.908752 0
    endloop
  endfacet
  facet normal -0.664378 -0.747396 0
    outer loop
      vertex 0.153104 -1.0668 5
      vertex -0.0246927 -0.908752 5
      vertex -0.0246927 -0.908752 0
    endloop
  endfacet
  facet normal -0.970149 -0.242511 0
    outer loop
      vertex -0.0246927 -0.908752 0
      vertex -0.0246927 -0.908752 5
      vertex -0.044446 -0.82973 0
    endloop
  endfacet
  facet normal -0.970149 -0.242511 0
    outer loop
      vertex -0.0246927 -0.908752 5
      vertex -0.044446 -0.82973 5
      vertex -0.044446 -0.82973 0
    endloop
  endfacet
  facet normal -0.672654 -0.739957 0
    outer loop
      vertex -0.044446 -0.82973 0
      vertex -0.044446 -0.82973 5
      vertex -0.153104 -0.730955 0
    endloop
  endfacet
  facet normal -0.672654 -0.739957 0
    outer loop
      vertex -0.044446 -0.82973 5
      vertex -0.153104 -0.730955 5
      vertex -0.153104 -0.730955 0
    endloop
  endfacet
  facet normal 0.141439 -0.989947 0
    outer loop
      vertex -0.153104 -0.730955 0
      vertex -0.153104 -0.730955 5
      vertex -0.222247 -0.740833 0
    endloop
  endfacet
  facet normal 0.141439 -0.989947 0
    outer loop
      vertex -0.153104 -0.730955 5
      vertex -0.222247 -0.740833 5
      vertex -0.222247 -0.740833 0
    endloop
  endfacet
  facet normal -0.682316 -0.731057 0
    outer loop
      vertex -0.222247 -0.740833 0
      vertex -0.222247 -0.740833 5
      vertex -0.370417 -0.602543 0
    endloop
  endfacet
  facet normal -0.682316 -0.731057 0
    outer loop
      vertex -0.222247 -0.740833 5
      vertex -0.370417 -0.602543 5
      vertex -0.370417 -0.602543 0
    endloop
  endfacet
  facet normal 0.684533 -0.728982 0
    outer loop
      vertex -0.370417 -0.602543 0
      vertex -0.370417 -0.602543 5
      vertex -1.99037 -2.12372 0
    endloop
  endfacet
  facet normal 0.684533 -0.728982 0
    outer loop
      vertex -0.370417 -0.602543 5
      vertex -1.99037 -2.12372 5
      vertex -1.99037 -2.12372 0
    endloop
  endfacet
  facet normal -0.718988 -0.695023 0
    outer loop
      vertex -1.99037 -2.12372 0
      vertex -1.99037 -2.12372 5
      vertex -2.84974 -1.23472 0
    endloop
  endfacet
  facet normal -0.718988 -0.695023 0
    outer loop
      vertex -1.99037 -2.12372 5
      vertex -2.84974 -1.23472 5
      vertex -2.84974 -1.23472 0
    endloop
  endfacet
  facet normal -0.707107 -0.707107 0
    outer loop
      vertex -2.84974 -1.23472 0
      vertex -2.84974 -1.23472 5
      vertex -2.87937 -1.20509 0
    endloop
  endfacet
  facet normal -0.707107 -0.707107 0
    outer loop
      vertex -2.84974 -1.23472 5
      vertex -2.87937 -1.20509 5
      vertex -2.87937 -1.20509 0
    endloop
  endfacet
  facet normal -1 0 0
    outer loop
      vertex -2.87937 -1.20509 0
      vertex -2.87937 -1.20509 5
      vertex -2.87937 -1.0668 0
    endloop
  endfacet
  facet normal -1 0 0
    outer loop
      vertex -2.87937 -1.20509 5
      vertex -2.87937 -1.0668 5
      vertex -2.87937 -1.0668 0
    endloop
  endfacet
  facet normal -0.980577 0.196133 0
    outer loop
      vertex -2.87937 -1.0668 0
      vertex -2.87937 -1.0668 5
      vertex -2.84974 -0.91863 0
    endloop
  endfacet
  facet normal -0.980577 0.196133 0
    outer loop
      vertex -2.87937 -1.0668 5
      vertex -2.84974 -0.91863 5
      vertex -2.84974 -0.91863 0
    endloop
  endfacet
  facet normal -0.967073 0.2545 0
    outer loop
      vertex -2.84974 -0.91863 0
      vertex -2.84974 -0.91863 5
      vertex -2.80035 -0.730955 0
    endloop
  endfacet
  facet normal -0.967073 0.2545 0
    outer loop
      vertex -2.84974 -0.91863 5
      vertex -2.80035 -0.730955 5
      vertex -2.80035 -0.730955 0
    endloop
  endfacet
  facet normal -0.970143 0.242536 0
    outer loop
      vertex -2.80035 -0.730955 0
      vertex -2.80035 -0.730955 5
      vertex -2.76083 -0.572911 0
    endloop
  endfacet
  facet normal -0.970143 0.242536 0
    outer loop
      vertex -2.80035 -0.730955 5
      vertex -2.76083 -0.572911 5
      vertex -2.76083 -0.572911 0
    endloop
  endfacet
  facet normal -0.961535 0.274682 0
    outer loop
      vertex -2.76083 -0.572911 0
      vertex -2.76083 -0.572911 5
      vertex -2.74108 -0.503763 0
    endloop
  endfacet
  facet normal -0.961535 0.274682 0
    outer loop
      vertex -2.76083 -0.572911 5
      vertex -2.74108 -0.503763 5
      vertex -2.74108 -0.503763 0
    endloop
  endfacet
  facet normal -0.79999 0.600014 0
    outer loop
      vertex -2.74108 -0.503763 0
      vertex -2.74108 -0.503763 5
      vertex -2.68181 -0.424742 0
    endloop
  endfacet
  facet normal -0.79999 0.600014 0
    outer loop
      vertex -2.74108 -0.503763 5
      vertex -2.68181 -0.424742 5
      vertex -2.68181 -0.424742 0
    endloop
  endfacet
  facet normal -0.650784 0.759263 0
    outer loop
      vertex -2.68181 -0.424742 0
      vertex -2.68181 -0.424742 5
      vertex -2.61267 -0.365477 0
    endloop
  endfacet
  facet normal -0.650784 0.759263 0
    outer loop
      vertex -2.68181 -0.424742 5
      vertex -2.61267 -0.365477 5
      vertex -2.61267 -0.365477 0
    endloop
  endfacet
  facet normal -0.707107 0.707107 0
    outer loop
      vertex -2.61267 -0.365477 0
      vertex -2.61267 -0.365477 5
      vertex -2.47438 -0.227187 0
    endloop
  endfacet
  facet normal -0.707107 0.707107 0
    outer loop
      vertex -2.61267 -0.365477 5
      vertex -2.47438 -0.227187 5
      vertex -2.47438 -0.227187 0
    endloop
  endfacet
  facet normal -0.687751 0.725947 0
    outer loop
      vertex -2.47438 -0.227187 0
      vertex -2.47438 -0.227187 5
      vertex -2.2867 -0.0493854 0
    endloop
  endfacet
  facet normal -0.687751 0.725947 0
    outer loop
      vertex -2.47438 -0.227187 5
      vertex -2.2867 -0.0493854 5
      vertex -2.2867 -0.0493854 0
    endloop
  endfacet
  facet normal -0.689645 0.724147 0
    outer loop
      vertex -2.2867 -0.0493854 0
      vertex -2.2867 -0.0493854 5
      vertex -2.07927 0.148165 0
    endloop
  endfacet
  facet normal -0.689645 0.724147 0
    outer loop
      vertex -2.2867 -0.0493854 5
      vertex -2.07927 0.148165 5
      vertex -2.07927 0.148165 0
    endloop
  endfacet
  facet normal -0.680448 0.732796 0
    outer loop
      vertex -2.07927 0.148165 0
      vertex -2.07927 0.148165 5
      vertex -1.52611 0.661807 0
    endloop
  endfacet
  facet normal -0.680448 0.732796 0
    outer loop
      vertex -2.07927 0.148165 5
      vertex -1.52611 0.661807 5
      vertex -1.52611 0.661807 0
    endloop
  endfacet
  facet normal -0.440156 -0.897921 0
    outer loop
      vertex -1.52611 0.661807 0
      vertex -1.52611 0.661807 5
      vertex -2.02988 0.908752 0
    endloop
  endfacet
  facet normal -0.440156 -0.897921 0
    outer loop
      vertex -1.52611 0.661807 5
      vertex -2.02988 0.908752 5
      vertex -2.02988 0.908752 0
    endloop
  endfacet
  facet normal -0.514529 -0.857473 0
    outer loop
      vertex -2.02988 0.908752 0
      vertex -2.02988 0.908752 5
      vertex -2.07927 0.938388 0
    endloop
  endfacet
  facet normal -0.514529 -0.857473 0
    outer loop
      vertex -2.02988 0.908752 5
      vertex -2.07927 0.938388 5
      vertex -2.07927 0.938388 0
    endloop
  endfacet
  facet normal -0.707107 -0.707107 0
    outer loop
      vertex -2.07927 0.938388 0
      vertex -2.07927 0.938388 5
      vertex -2.11878 0.977899 0
    endloop
  endfacet
  facet normal -0.707107 -0.707107 0
    outer loop
      vertex -2.07927 0.938388 5
      vertex -2.11878 0.977899 5
      vertex -2.11878 0.977899 0
    endloop
  endfacet
  facet normal -0.989947 -0.141439 0
    outer loop
      vertex -2.11878 0.977899 0
      vertex -2.11878 0.977899 5
      vertex -2.12866 1.04704 0
    endloop
  endfacet
  facet normal -0.989947 -0.141439 0
    outer loop
      vertex -2.11878 0.977899 5
      vertex -2.12866 1.04704 5
      vertex -2.12866 1.04704 0
    endloop
  endfacet
  facet normal -0.992276 -0.124048 0
    outer loop
      vertex -2.12866 1.04704 0
      vertex -2.12866 1.04704 5
      vertex -2.13854 1.12606 0
    endloop
  endfacet
  facet normal -0.992276 -0.124048 0
    outer loop
      vertex -2.12866 1.04704 5
      vertex -2.13854 1.12606 5
      vertex -2.13854 1.12606 0
    endloop
  endfacet
  facet normal -1 0 0
    outer loop
      vertex -2.13854 1.12606 0
      vertex -2.13854 1.12606 5
      vertex -2.13854 1.27423 0
    endloop
  endfacet
  facet normal -1 0 0
    outer loop
      vertex -2.13854 1.12606 5
      vertex -2.13854 1.27423 5
      vertex -2.13854 1.27423 0
    endloop
  endfacet
  facet normal -0.447182 0.894443 0
    outer loop
      vertex -2.13854 1.27423 0
      vertex -2.13854 1.27423 5
      vertex -2.03976 1.32362 0
    endloop
  endfacet
  facet normal -0.447182 0.894443 0
    outer loop
      vertex -2.13854 1.27423 5
      vertex -2.03976 1.32362 5
      vertex -2.03976 1.32362 0
    endloop
  endfacet
  facet normal -0.868253 0.496121 0
    outer loop
      vertex -2.03976 1.32362 0
      vertex -2.03976 1.32362 5
      vertex -2.00025 1.39277 0
    endloop
  endfacet
  facet normal -0.868253 0.496121 0
    outer loop
      vertex -2.03976 1.32362 5
      vertex -2.00025 1.39277 5
      vertex -2.00025 1.39277 0
    endloop
  endfacet
  facet normal -0.540756 0.841179 0
    outer loop
      vertex -2.00025 1.39277 0
      vertex -2.00025 1.39277 5
      vertex -1.86196 1.48167 0
    endloop
  endfacet
  facet normal -0.540756 0.841179 0
    outer loop
      vertex -2.00025 1.39277 5
      vertex -1.86196 1.48167 5
      vertex -1.86196 1.48167 0
    endloop
  endfacet
  facet normal -0.123995 0.992283 0
    outer loop
      vertex -1.86196 1.48167 0
      vertex -1.86196 1.48167 5
      vertex -1.78294 1.49154 0
    endloop
  endfacet
  facet normal -0.123995 0.992283 0
    outer loop
      vertex -1.86196 1.48167 5
      vertex -1.78294 1.49154 5
      vertex -1.78294 1.49154 0
    endloop
  endfacet
  facet normal 0 1 0
    outer loop
      vertex -1.78294 1.49154 0
      vertex -1.78294 1.49154 5
      vertex -1.72367 1.49154 0
    endloop
  endfacet
  facet normal -0 1 0
    outer loop
      vertex -1.78294 1.49154 5
      vertex -1.72367 1.49154 5
      vertex -1.72367 1.49154 0
    endloop
  endfacet
  facet normal 0.242461 0.970161 -0
    outer loop
      vertex -1.72367 1.49154 0
      vertex -1.72367 1.49154 5
      vertex -1.68416 1.48167 0
    endloop
  endfacet
  facet normal 0.242461 0.970161 0
    outer loop
      vertex -1.72367 1.49154 5
      vertex -1.68416 1.48167 5
      vertex -1.68416 1.48167 0
    endloop
  endfacet
  facet normal -0.409046 0.912514 0
    outer loop
      vertex -1.68416 1.48167 0
      vertex -1.68416 1.48167 5
      vertex -1.39771 1.61007 0
    endloop
  endfacet
  facet normal -0.409046 0.912514 0
    outer loop
      vertex -1.68416 1.48167 5
      vertex -1.39771 1.61007 5
      vertex -1.39771 1.61007 0
    endloop
  endfacet
  facet normal -1 0 0
    outer loop
      vertex -1.39771 1.61007 0
      vertex -1.39771 1.61007 5
      vertex -1.39771 1.65946 0
    endloop
  endfacet
  facet normal -1 0 0
    outer loop
      vertex -1.39771 1.61007 5
      vertex -1.39771 1.65946 5
      vertex -1.39771 1.65946 0
    endloop
  endfacet
  facet normal -0.948674 0.316255 0
    outer loop
      vertex -1.39771 1.65946 0
      vertex -1.39771 1.65946 5
      vertex -1.36807 1.74836 0
    endloop
  endfacet
  facet normal -0.948674 0.316255 0
    outer loop
      vertex -1.39771 1.65946 5
      vertex -1.36807 1.74836 5
      vertex -1.36807 1.74836 0
    endloop
  endfacet
  facet normal -0.894447 0.447175 0
    outer loop
      vertex -1.36807 1.74836 0
      vertex -1.36807 1.74836 5
      vertex -1.34832 1.78788 0
    endloop
  endfacet
  facet normal -0.894447 0.447175 0
    outer loop
      vertex -1.36807 1.74836 5
      vertex -1.34832 1.78788 5
      vertex -1.34832 1.78788 0
    endloop
  endfacet
  facet normal -0.79999 0.600014 0
    outer loop
      vertex -1.34832 1.78788 0
      vertex -1.34832 1.78788 5
      vertex -1.28905 1.8669 0
    endloop
  endfacet
  facet normal -0.79999 0.600014 0
    outer loop
      vertex -1.34832 1.78788 5
      vertex -1.28905 1.8669 5
      vertex -1.28905 1.8669 0
    endloop
  endfacet
  facet normal -0.707184 0.70703 0
    outer loop
      vertex -1.28905 1.8669 0
      vertex -1.28905 1.8669 5
      vertex -1.26929 1.88665 0
    endloop
  endfacet
  facet normal -0.707184 0.70703 0
    outer loop
      vertex -1.28905 1.8669 5
      vertex -1.26929 1.88665 5
      vertex -1.26929 1.88665 0
    endloop
  endfacet
  facet normal -0.406134 0.913813 0
    outer loop
      vertex -1.26929 1.88665 0
      vertex -1.26929 1.88665 5
      vertex -1.18039 1.92617 0
    endloop
  endfacet
  facet normal -0.406134 0.913813 0
    outer loop
      vertex -1.26929 1.88665 5
      vertex -1.18039 1.92617 5
      vertex -1.18039 1.92617 0
    endloop
  endfacet
  facet normal -0.132147 0.99123 0
    outer loop
      vertex -1.18039 1.92617 0
      vertex -1.18039 1.92617 5
      vertex -1.03222 1.94592 0
    endloop
  endfacet
  facet normal -0.132147 0.99123 0
    outer loop
      vertex -1.18039 1.92617 5
      vertex -1.03222 1.94592 5
      vertex -1.03222 1.94592 0
    endloop
  endfacet
  facet normal -0.242561 0.970136 0
    outer loop
      vertex -1.03222 1.94592 0
      vertex -1.03222 1.94592 5
      vertex -0.953202 1.96568 0
    endloop
  endfacet
  facet normal -0.242561 0.970136 0
    outer loop
      vertex -1.03222 1.94592 5
      vertex -0.953202 1.96568 5
      vertex -0.953202 1.96568 0
    endloop
  endfacet
  facet normal -0.928474 0.371398 0
    outer loop
      vertex -0.953202 1.96568 0
      vertex -0.953202 1.96568 5
      vertex -0.913691 2.06445 0
    endloop
  endfacet
  facet normal -0.928474 0.371398 0
    outer loop
      vertex -0.953202 1.96568 5
      vertex -0.913691 2.06445 5
      vertex -0.913691 2.06445 0
    endloop
  endfacet
  facet normal -0.164399 0.986394 0
    outer loop
      vertex -0.913691 2.06445 0
      vertex -0.913691 2.06445 5
      vertex -0.676625 2.10396 0
    endloop
  endfacet
  facet normal -0.164399 0.986394 0
    outer loop
      vertex -0.913691 2.06445 5
      vertex -0.676625 2.10396 5
      vertex -0.676625 2.10396 0
    endloop
  endfacet
  facet normal -1 0 0
    outer loop
      vertex -0.676625 2.10396 0
      vertex -0.676625 2.10396 5
      vertex -0.676625 2.20274 0
    endloop
  endfacet
  facet normal -1 0 0
    outer loop
      vertex -0.676625 2.10396 5
      vertex -0.676625 2.20274 5
      vertex -0.676625 2.20274 0
    endloop
  endfacet
  facet normal -0.819242 0.573448 0
    outer loop
      vertex -0.676625 2.20274 0
      vertex -0.676625 2.20274 5
      vertex -0.607482 2.30152 0
    endloop
  endfacet
  facet normal -0.819242 0.573448 0
    outer loop
      vertex -0.676625 2.20274 5
      vertex -0.607482 2.30152 5
      vertex -0.607482 2.30152 0
    endloop
  endfacet
  facet normal 0.447214 0.894427 -0
    outer loop
      vertex -0.607482 2.30152 0
      vertex -0.607482 2.30152 5
      vertex -0.52846 2.26201 0
    endloop
  endfacet
  facet normal 0.447214 0.894427 0
    outer loop
      vertex -0.607482 2.30152 5
      vertex -0.52846 2.26201 5
      vertex -0.52846 2.26201 0
    endloop
  endfacet
endsolid OpenSCAD_Model
