solid OpenSCAD_Model
  facet normal 0 0 -1
    outer loop
      vertex -0.869241 1.87678 0
      vertex -0.760587 1.84714 0
      vertex -0.750708 1.80763 0
    endloop
  endfacet
  facet normal -0 0 -1
    outer loop
      vertex 1.41252 0.572911 0
      vertex 1.40264 -0.187676 0
      vertex 0.908752 1.01741 0
    endloop
  endfacet
  facet normal 0 0 -1
    outer loop
      vertex -0.316088 1.75824 0
      vertex -0.563032 1.79775 0
      vertex -0.34572 1.778 0
    endloop
  endfacet
  facet normal 0 0 -1
    outer loop
      vertex -0.246944 1.71873 0
      vertex -0.563032 1.79775 0
      vertex -0.316088 1.75824 0
    endloop
  endfacet
  facet normal 0 0 -1
    outer loop
      vertex -0.563032 1.79775 0
      vertex -0.365477 1.79775 0
      vertex -0.34572 1.778 0
    endloop
  endfacet
  facet normal 0 0 -1
    outer loop
      vertex -0.187676 1.67922 0
      vertex -0.563032 1.79775 0
      vertex -0.246944 1.71873 0
    endloop
  endfacet
  facet normal 0 0 -1
    outer loop
      vertex -0.108654 1.61007 0
      vertex -0.563032 1.79775 0
      vertex -0.187676 1.67922 0
    endloop
  endfacet
  facet normal -0 -0 -1
    outer loop
      vertex 0.316088 1.36313 0
      vertex 0.316088 1.30387 0
      vertex 0.138286 1.48167 0
    endloop
  endfacet
  facet normal 0 0 -1
    outer loop
      vertex -0.750708 1.80763 0
      vertex -0.563032 1.79775 0
      vertex -0.108654 1.61007 0
    endloop
  endfacet
  facet normal 0 0 -1
    outer loop
      vertex 0.316088 1.30387 0
      vertex -0.108654 1.61007 0
      vertex 0.138286 1.48167 0
    endloop
  endfacet
  facet normal 0 0 -1
    outer loop
      vertex -0.108654 1.61007 0
      vertex -0.0296321 1.61007 0
      vertex 0.138286 1.48167 0
    endloop
  endfacet
  facet normal 0 -0 -1
    outer loop
      vertex 1.07667 -0.602543 0
      vertex 1.07667 -0.612422 0
      vertex 1.0668 -0.612422 0
    endloop
  endfacet
  facet normal 0 0 -1
    outer loop
      vertex -0.197555 -0.91863 0
      vertex 0.0493854 -1.05692 0
      vertex -0.158044 -0.96802 0
    endloop
  endfacet
  facet normal 0 0 -1
    outer loop
      vertex 1.03716 -0.622296 0
      vertex 0.592664 1.1557 0
      vertex 0.908752 1.01741 0
    endloop
  endfacet
  facet normal 0 0 -1
    outer loop
      vertex 0.395109 1.25448 0
      vertex 0.375352 1.27423 0
      vertex 0.395109 1.26435 0
    endloop
  endfacet
  facet normal 0 0 -1
    outer loop
      vertex 0.395109 1.25448 0
      vertex 0.395109 1.26435 0
      vertex 0.404988 1.26435 0
    endloop
  endfacet
  facet normal 0 0 -1
    outer loop
      vertex 1.3335 -0.316088 0
      vertex 0.908752 1.01741 0
      vertex 1.40264 -0.187676 0
    endloop
  endfacet
  facet normal 0 0 -1
    outer loop
      vertex 0.34572 1.28411 0
      vertex 0.375352 1.27423 0
      vertex 0.395109 1.25448 0
    endloop
  endfacet
  facet normal 0 0 -1
    outer loop
      vertex 1.41252 0.572911 0
      vertex 1.46191 0.513642 0
      vertex 1.5113 0.424742 0
    endloop
  endfacet
  facet normal -0 -0 -1
    outer loop
      vertex 1.22484 0.898877 0
      vertex 1.41252 0.572911 0
      vertex 0.908752 1.01741 0
    endloop
  endfacet
  facet normal -0 -0 -1
    outer loop
      vertex 1.40264 0.721076 0
      vertex 1.41252 0.572911 0
      vertex 1.22484 0.898877 0
    endloop
  endfacet
  facet normal 0 -0 -1
    outer loop
      vertex 1.41252 0.572911 0
      vertex 1.5113 0.424742 0
      vertex 1.40264 -0.187676 0
    endloop
  endfacet
  facet normal 0 0 -1
    outer loop
      vertex 1.46191 0.513642 0
      vertex 1.49154 0.48401 0
      vertex 1.5113 0.424742 0
    endloop
  endfacet
  facet normal -0 -0 -1
    outer loop
      vertex 1.43228 0.553153 0
      vertex 1.46191 0.513642 0
      vertex 1.41252 0.572911 0
    endloop
  endfacet
  facet normal 0 0 -1
    outer loop
      vertex 1.49154 0.48401 0
      vertex 1.52118 0.43462 0
      vertex 1.5113 0.424742 0
    endloop
  endfacet
  facet normal 0 0 -1
    outer loop
      vertex 1.43228 0.553153 0
      vertex 1.45203 0.543274 0
      vertex 1.46191 0.513642 0
    endloop
  endfacet
  facet normal -0 0 -1
    outer loop
      vertex 1.53105 0.454374 0
      vertex 1.52118 0.43462 0
      vertex 1.49154 0.48401 0
    endloop
  endfacet
  facet normal -0 0 -1
    outer loop
      vertex 1.38289 -0.246944 0
      vertex 1.3335 -0.316088 0
      vertex 1.40264 -0.187676 0
    endloop
  endfacet
  facet normal 0 0 -1
    outer loop
      vertex 2.02494 -0.721076 0
      vertex 2.36079 -0.256819 0
      vertex 2.69663 -0.5334 0
    endloop
  endfacet
  facet normal 0 0 -1
    outer loop
      vertex 2.65712 -1.25448 0
      vertex 2.90406 -0.928509 0
      vertex 2.74602 -1.3335 0
    endloop
  endfacet
  facet normal 0 0 -1
    outer loop
      vertex 2.85468 -1.44215 0
      vertex 3.1115 -1.31374 0
      vertex 3.05223 -1.4224 0
    endloop
  endfacet
  facet normal -0 0 -1
    outer loop
      vertex 1.81751 0.207429 0
      vertex 1.40264 -0.187676 0
      vertex 1.71873 0.316088 0
    endloop
  endfacet
  facet normal 0 0 -1
    outer loop
      vertex 1.56069 0.385231 0
      vertex 1.62983 0.375352 0
      vertex 1.71873 0.316088 0
    endloop
  endfacet
  facet normal 0 0 -1
    outer loop
      vertex 1.80763 0.227187 0
      vertex 1.71873 0.316088 0
      vertex 1.80763 0.246944 0
    endloop
  endfacet
  facet normal 0 0 -1
    outer loop
      vertex 1.81751 0.207429 0
      vertex 1.71873 0.316088 0
      vertex 1.80763 0.227187 0
    endloop
  endfacet
  facet normal 0 0 -1
    outer loop
      vertex 3.1115 -1.31374 0
      vertex 3.09174 -1.38289 0
      vertex 3.05223 -1.4224 0
    endloop
  endfacet
  facet normal 0 0 -1
    outer loop
      vertex 3.05223 -1.4224 0
      vertex 3.09174 -1.38289 0
      vertex 3.06211 -1.4224 0
    endloop
  endfacet
  facet normal 0 0 -1
    outer loop
      vertex 2.74602 -1.3335 0
      vertex 2.90406 -0.928509 0
      vertex 3.1115 -1.31374 0
    endloop
  endfacet
  facet normal 0 0 -1
    outer loop
      vertex 2.96333 -1.53105 0
      vertex 3.05223 -1.4224 0
      vertex 3.07199 -1.50142 0
    endloop
  endfacet
  facet normal 0 0 -1
    outer loop
      vertex 2.85468 -1.44215 0
      vertex 3.05223 -1.4224 0
      vertex 2.96333 -1.53105 0
    endloop
  endfacet
  facet normal 0 0 -1
    outer loop
      vertex 2.96333 -1.53105 0
      vertex 3.07199 -1.50142 0
      vertex 3.05223 -1.57056 0
    endloop
  endfacet
  facet normal 0 0 -1
    outer loop
      vertex 2.74602 -1.3335 0
      vertex 3.1115 -1.31374 0
      vertex 2.85468 -1.44215 0
    endloop
  endfacet
  facet normal 0 0 -1
    outer loop
      vertex 2.65712 -1.25448 0
      vertex 2.69663 -0.5334 0
      vertex 2.90406 -0.928509 0
    endloop
  endfacet
  facet normal 0 -0 -1
    outer loop
      vertex 2.03482 0.0296321 0
      vertex 2.36079 -0.256819 0
      vertex 2.02494 -0.721076 0
    endloop
  endfacet
  facet normal 0 0 -1
    outer loop
      vertex 2.02494 -0.721076 0
      vertex 2.69663 -0.5334 0
      vertex 2.65712 -1.25448 0
    endloop
  endfacet
  facet normal 0 0 -1
    outer loop
      vertex 2.03482 0.0296321 0
      vertex 2.02494 -0.721076 0
      vertex 1.40264 -0.187676 0
    endloop
  endfacet
  facet normal 0 0 -1
    outer loop
      vertex 1.40264 -0.187676 0
      vertex 1.56069 0.385231 0
      vertex 1.71873 0.316088 0
    endloop
  endfacet
  facet normal 0 -0 -1
    outer loop
      vertex 1.5113 0.424742 0
      vertex 1.56069 0.385231 0
      vertex 1.40264 -0.187676 0
    endloop
  endfacet
  facet normal -0 0 -1
    outer loop
      vertex 2.03482 0.0296321 0
      vertex 1.40264 -0.187676 0
      vertex 1.81751 0.207429 0
    endloop
  endfacet
  facet normal 0 0 -1
    outer loop
      vertex 1.07667 -0.602543 0
      vertex 1.21496 -0.543274 0
      vertex 1.07667 -0.612422 0
    endloop
  endfacet
  facet normal 0 0 -1
    outer loop
      vertex 1.03716 -0.622296 0
      vertex 1.3335 -0.316088 0
      vertex 1.07667 -0.602543 0
    endloop
  endfacet
  facet normal 0 0 -1
    outer loop
      vertex 1.3335 -0.316088 0
      vertex 1.38289 -0.246944 0
      vertex 1.39277 -0.29633 0
    endloop
  endfacet
  facet normal 0 0 -1
    outer loop
      vertex 0.908752 1.01741 0
      vertex 1.3335 -0.316088 0
      vertex 1.03716 -0.622296 0
    endloop
  endfacet
  facet normal 0 0 -1
    outer loop
      vertex -0.197555 -0.91863 0
      vertex 1.03716 -0.622296 0
      vertex 1.00753 -0.681565 0
    endloop
  endfacet
  facet normal 0 -0 -1
    outer loop
      vertex 1.36313 -0.424742 0
      vertex 1.36313 -0.474131 0
      vertex 1.21496 -0.543274 0
    endloop
  endfacet
  facet normal 0 0 -1
    outer loop
      vertex 1.36313 -0.424742 0
      vertex 1.3335 -0.316088 0
      vertex 1.35326 -0.34572 0
    endloop
  endfacet
  facet normal 0 0 -1
    outer loop
      vertex 1.36313 -0.424742 0
      vertex 1.35326 -0.34572 0
      vertex 1.37301 -0.365477 0
    endloop
  endfacet
  facet normal 0 0 -1
    outer loop
      vertex 1.3335 -0.316088 0
      vertex 1.34338 -0.316088 0
      vertex 1.35326 -0.34572 0
    endloop
  endfacet
  facet normal -0 0 -1
    outer loop
      vertex 1.36313 -0.424742 0
      vertex 1.21496 -0.543274 0
      vertex 1.3335 -0.316088 0
    endloop
  endfacet
  facet normal 0 0 -1
    outer loop
      vertex 0.424742 -1.12606 0
      vertex 1.00753 -0.681565 0
      vertex 0.543274 -1.11619 0
    endloop
  endfacet
  facet normal 0 0 -1
    outer loop
      vertex 1.00753 -0.681565 0
      vertex 0.681565 -1.11619 0
      vertex 0.543274 -1.11619 0
    endloop
  endfacet
  facet normal 0 0 -1
    outer loop
      vertex 1.00753 -0.681565 0
      vertex 1.03716 -0.622296 0
      vertex 1.02729 -0.651933 0
    endloop
  endfacet
  facet normal 0 0 -1
    outer loop
      vertex 0.316088 -1.13594 0
      vertex 0.0493854 -1.05692 0
      vertex 0.424742 -1.12606 0
    endloop
  endfacet
  facet normal 0 0 -1
    outer loop
      vertex 0.681565 -1.11619 0
      vertex 1.00753 -0.681565 0
      vertex 0.898877 -1.00753 0
    endloop
  endfacet
  facet normal 0 0 -1
    outer loop
      vertex 1.3335 -0.316088 0
      vertex 1.21496 -0.543274 0
      vertex 1.07667 -0.602543 0
    endloop
  endfacet
  facet normal -0 0 -1
    outer loop
      vertex 1.02729 -0.671686 0
      vertex 1.00753 -0.681565 0
      vertex 1.02729 -0.651933 0
    endloop
  endfacet
  facet normal 0 0 -1
    outer loop
      vertex 0.681565 -1.11619 0
      vertex 0.898877 -1.00753 0
      vertex 0.800098 -1.09643 0
    endloop
  endfacet
  facet normal 0 0 -1
    outer loop
      vertex 0.898877 -1.00753 0
      vertex 1.01741 -0.849487 0
      vertex 1.00753 -0.908752 0
    endloop
  endfacet
  facet normal 0 -0 -1
    outer loop
      vertex 1.01741 -0.790219 0
      vertex 1.01741 -0.849487 0
      vertex 0.898877 -1.00753 0
    endloop
  endfacet
  facet normal -0 0 -1
    outer loop
      vertex 1.01741 -0.790219 0
      vertex 0.898877 -1.00753 0
      vertex 1.00753 -0.681565 0
    endloop
  endfacet
  facet normal 0 0 -1
    outer loop
      vertex 0.0493854 -1.05692 0
      vertex 1.00753 -0.681565 0
      vertex 0.424742 -1.12606 0
    endloop
  endfacet
  facet normal 0 0 -1
    outer loop
      vertex 0.0493854 -1.05692 0
      vertex 0.316088 -1.13594 0
      vertex 0.246944 -1.14582 0
    endloop
  endfacet
  facet normal 0 0 -1
    outer loop
      vertex 0.316088 -1.13594 0
      vertex 0.276577 -1.14582 0
      vertex 0.246944 -1.14582 0
    endloop
  endfacet
  facet normal 0 0 -1
    outer loop
      vertex -0.197555 -0.91863 0
      vertex 1.00753 -0.681565 0
      vertex 0.0493854 -1.05692 0
    endloop
  endfacet
  facet normal 0 0 -1
    outer loop
      vertex -0.197555 -0.91863 0
      vertex -0.316088 -0.809976 0
      vertex 1.03716 -0.622296 0
    endloop
  endfacet
  facet normal 0 0 -1
    outer loop
      vertex -0.316088 -0.809976 0
      vertex -0.43462 -0.691444 0
      vertex 1.03716 -0.622296 0
    endloop
  endfacet
  facet normal 0 0 -1
    outer loop
      vertex -0.43462 -0.691444 0
      vertex 0.592664 1.1557 0
      vertex 1.03716 -0.622296 0
    endloop
  endfacet
  facet normal 0 -0 -1
    outer loop
      vertex 0.48401 1.19521 0
      vertex 0.592664 1.1557 0
      vertex -0.43462 -0.691444 0
    endloop
  endfacet
  facet normal 0 0 -1
    outer loop
      vertex 0.48401 1.19521 0
      vertex -0.43462 -0.691444 0
      vertex -0.464252 -0.681565 0
    endloop
  endfacet
  facet normal -0 0 -1
    outer loop
      vertex 0.48401 1.19521 0
      vertex -0.464252 -0.681565 0
      vertex 0.395109 1.25448 0
    endloop
  endfacet
  facet normal 0 0 -1
    outer loop
      vertex -0.464252 -0.681565 0
      vertex 0.34572 1.28411 0
      vertex 0.395109 1.25448 0
    endloop
  endfacet
  facet normal 0 -0 -1
    outer loop
      vertex 0.316088 1.30387 0
      vertex 0.34572 1.28411 0
      vertex -0.464252 -0.681565 0
    endloop
  endfacet
  facet normal -0 0 -1
    outer loop
      vertex 0.316088 1.30387 0
      vertex -0.464252 -0.681565 0
      vertex -0.108654 1.61007 0
    endloop
  endfacet
  facet normal 0 0 -1
    outer loop
      vertex -1.89653 -0.96802 0
      vertex -2.07433 -0.721076 0
      vertex -0.464252 -0.681565 0
    endloop
  endfacet
  facet normal 0 0 -1
    outer loop
      vertex -0.464252 -0.681565 0
      vertex -0.750708 1.80763 0
      vertex -0.108654 1.61007 0
    endloop
  endfacet
  facet normal 0 0 -1
    outer loop
      vertex -0.938388 -1.4224 0
      vertex -1.89653 -0.96802 0
      vertex -0.464252 -0.691444 0
    endloop
  endfacet
  facet normal 0 0 -1
    outer loop
      vertex -1.89653 -0.96802 0
      vertex -0.464252 -0.681565 0
      vertex -0.464252 -0.691444 0
    endloop
  endfacet
  facet normal 0 0 -1
    outer loop
      vertex -0.938388 -1.4224 0
      vertex -0.385231 -0.809976 0
      vertex -0.316088 -0.928509 0
    endloop
  endfacet
  facet normal 0 -0 -1
    outer loop
      vertex 0.0790219 -1.80763 0
      vertex 0.0790219 -1.85702 0
      vertex 0.0493854 -1.8669 0
    endloop
  endfacet
  facet normal 0 0 -1
    outer loop
      vertex -0.938388 -1.4224 0
      vertex 0.0691431 -1.70885 0
      vertex 0.0296321 -1.87678 0
    endloop
  endfacet
  facet normal 0 0 -1
    outer loop
      vertex 0.0296321 -1.87678 0
      vertex 0.0691431 -1.71873 0
      vertex 0.0790219 -1.80763 0
    endloop
  endfacet
  facet normal 0 0 -1
    outer loop
      vertex 0.0691431 -1.70885 0
      vertex 0.0987752 -1.63971 0
      vertex 0.0987752 -1.69897 0
    endloop
  endfacet
  facet normal 0 0 -1
    outer loop
      vertex 0.0592643 -1.5113 0
      vertex 0.0987752 -1.63971 0
      vertex 0.0691431 -1.70885 0
    endloop
  endfacet
  facet normal -0 -0 -1
    outer loop
      vertex 0.0592643 -1.5113 0
      vertex 0.0691431 -1.70885 0
      vertex 0.0197533 -1.44215 0
    endloop
  endfacet
  facet normal 0 0 -1
    outer loop
      vertex 0.0592643 -1.5113 0
      vertex 0.108654 -1.57056 0
      vertex 0.0987752 -1.63971 0
    endloop
  endfacet
  facet normal 0 0 -1
    outer loop
      vertex 0.0790219 -1.80763 0
      vertex 0.0493854 -1.8669 0
      vertex 0.0296321 -1.87678 0
    endloop
  endfacet
  facet normal -0 0 -1
    outer loop
      vertex 0.0691431 -1.71873 0
      vertex 0.0296321 -1.87678 0
      vertex 0.0691431 -1.70885 0
    endloop
  endfacet
  facet normal 0 0 -1
    outer loop
      vertex 0.0691431 -1.70885 0
      vertex -0.938388 -1.4224 0
      vertex 0.0197533 -1.44215 0
    endloop
  endfacet
  facet normal 0 0 -1
    outer loop
      vertex -0.938388 -1.4224 0
      vertex -0.108654 -1.23472 0
      vertex 0.0197533 -1.44215 0
    endloop
  endfacet
  facet normal 0 0 -1
    outer loop
      vertex 0.0691431 -1.71873 0
      vertex 0.0888964 -1.74836 0
      vertex 0.0790219 -1.80763 0
    endloop
  endfacet
  facet normal 0 -0 -1
    outer loop
      vertex -0.246944 -1.02729 0
      vertex -0.108654 -1.23472 0
      vertex -0.938388 -1.4224 0
    endloop
  endfacet
  facet normal -0 0 -1
    outer loop
      vertex -0.246944 -1.02729 0
      vertex -0.938388 -1.4224 0
      vertex -0.286455 -0.977899 0
    endloop
  endfacet
  facet normal 0 0 -1
    outer loop
      vertex -0.938388 -1.4224 0
      vertex -0.316088 -0.928509 0
      vertex -0.286455 -0.977899 0
    endloop
  endfacet
  facet normal 0 -0 -1
    outer loop
      vertex -0.464252 -0.691444 0
      vertex -0.385231 -0.809976 0
      vertex -0.938388 -1.4224 0
    endloop
  endfacet
  facet normal 0 0 -1
    outer loop
      vertex -2.07433 -0.721076 0
      vertex -2.24225 -0.464252 0
      vertex -0.464252 -0.681565 0
    endloop
  endfacet
  facet normal 0 0 -1
    outer loop
      vertex -2.09409 1.40264 0
      vertex -2.4003 -0.246944 0
      vertex -2.59785 0.246944 0
    endloop
  endfacet
  facet normal 0 0 -1
    outer loop
      vertex -2.54847 -0.0197533 0
      vertex -2.62749 0.158044 0
      vertex -2.59785 0.246944 0
    endloop
  endfacet
  facet normal 0 0 -1
    outer loop
      vertex -1.69897 1.61995 0
      vertex -2.4003 -0.246944 0
      vertex -2.09409 1.40264 0
    endloop
  endfacet
  facet normal 0 0 -1
    outer loop
      vertex -2.62749 0.158044 0
      vertex -2.64724 0.227187 0
      vertex -2.62749 0.237066 0
    endloop
  endfacet
  facet normal 0 0 -1
    outer loop
      vertex -2.64724 0.158044 0
      vertex -2.62749 0.158044 0
      vertex -2.62749 0.0691431 0
    endloop
  endfacet
  facet normal 0 0 -1
    outer loop
      vertex -2.59785 0.246944 0
      vertex -2.26201 1.31374 0
      vertex -2.09409 1.40264 0
    endloop
  endfacet
  facet normal 0 0 -1
    outer loop
      vertex -2.62749 0.0691431 0
      vertex -2.62749 0.158044 0
      vertex -2.54847 -0.0197533 0
    endloop
  endfacet
  facet normal 0 -0 -1
    outer loop
      vertex -2.42005 1.23472 0
      vertex -2.26201 1.31374 0
      vertex -2.59785 0.246944 0
    endloop
  endfacet
  facet normal 0 0 -1
    outer loop
      vertex -2.62749 0.158044 0
      vertex -2.62749 0.237066 0
      vertex -2.59785 0.246944 0
    endloop
  endfacet
  facet normal 0 0 -1
    outer loop
      vertex -2.54847 -0.0197533 0
      vertex -2.59785 0.246944 0
      vertex -2.4003 -0.246944 0
    endloop
  endfacet
  facet normal 0 0 -1
    outer loop
      vertex -2.7559 1.03716 0
      vertex -2.42005 1.23472 0
      vertex -2.62749 0.286455 0
    endloop
  endfacet
  facet normal 0 0 -1
    outer loop
      vertex -2.62749 0.286455 0
      vertex -2.59785 0.246944 0
      vertex -2.61761 0.266698 0
    endloop
  endfacet
  facet normal 0 0 -1
    outer loop
      vertex -2.74602 0.256819 0
      vertex -2.77565 0.306209 0
      vertex -2.68675 0.256819 0
    endloop
  endfacet
  facet normal 0 0 -1
    outer loop
      vertex -2.77565 0.306209 0
      vertex -2.62749 0.286455 0
      vertex -2.68675 0.256819 0
    endloop
  endfacet
  facet normal 0 0 -1
    outer loop
      vertex -2.82504 0.306209 0
      vertex -2.77565 0.306209 0
      vertex -2.80529 0.29633 0
    endloop
  endfacet
  facet normal 0 0 -1
    outer loop
      vertex -3.04236 0.424742 0
      vertex -3.09174 0.513642 0
      vertex -3.09174 0.563032 0
    endloop
  endfacet
  facet normal 0 0 -1
    outer loop
      vertex -2.97321 0.325966 0
      vertex -3.04236 0.424742 0
      vertex -2.82504 0.306209 0
    endloop
  endfacet
  facet normal 0 0 -1
    outer loop
      vertex -2.94358 0.266698 0
      vertex -2.97321 0.325966 0
      vertex -2.88431 0.276577 0
    endloop
  endfacet
  facet normal 0 0 -1
    outer loop
      vertex -2.97321 0.325966 0
      vertex -2.82504 0.306209 0
      vertex -2.88431 0.276577 0
    endloop
  endfacet
  facet normal 0 0 -1
    outer loop
      vertex -2.82504 0.306209 0
      vertex -3.09174 0.563032 0
      vertex -2.77565 0.306209 0
    endloop
  endfacet
  facet normal 0 0 -1
    outer loop
      vertex -3.04236 0.424742 0
      vertex -3.09174 0.563032 0
      vertex -2.82504 0.306209 0
    endloop
  endfacet
  facet normal 0 0 -1
    outer loop
      vertex -3.09174 0.563032 0
      vertex -3.10162 0.622296 0
      vertex -2.77565 0.306209 0
    endloop
  endfacet
  facet normal 0 0 -1
    outer loop
      vertex -3.10162 0.622296 0
      vertex -3.1115 0.740833 0
      vertex -2.7559 1.03716 0
    endloop
  endfacet
  facet normal 0 0 -1
    outer loop
      vertex -2.7559 1.03716 0
      vertex -3.1115 0.740833 0
      vertex -3.08187 0.859366 0
    endloop
  endfacet
  facet normal 0 0 -1
    outer loop
      vertex -3.10162 0.622296 0
      vertex -2.7559 1.03716 0
      vertex -2.77565 0.306209 0
    endloop
  endfacet
  facet normal 0 -0 -1
    outer loop
      vertex -2.7559 1.03716 0
      vertex -2.62749 0.286455 0
      vertex -2.77565 0.306209 0
    endloop
  endfacet
  facet normal 0 0 -1
    outer loop
      vertex -2.42005 1.23472 0
      vertex -2.59785 0.246944 0
      vertex -2.62749 0.286455 0
    endloop
  endfacet
  facet normal 0 0 -1
    outer loop
      vertex -2.24225 -0.464252 0
      vertex -2.4003 -0.246944 0
      vertex -1.69897 1.61995 0
    endloop
  endfacet
  facet normal 0 0 -1
    outer loop
      vertex -1.69897 1.61995 0
      vertex -1.08655 1.81751 0
      vertex -0.464252 -0.681565 0
    endloop
  endfacet
  facet normal 0 0 -1
    outer loop
      vertex -2.09409 1.40264 0
      vertex -1.79775 1.62983 0
      vertex -1.69897 1.61995 0
    endloop
  endfacet
  facet normal 0 0 -1
    outer loop
      vertex -2.08421 1.55081 0
      vertex -2.03482 1.63971 0
      vertex -1.88665 1.63971 0
    endloop
  endfacet
  facet normal 0 -0 -1
    outer loop
      vertex -2.08421 1.55081 0
      vertex -1.88665 1.63971 0
      vertex -2.09409 1.46191 0
    endloop
  endfacet
  facet normal 0 0 -1
    outer loop
      vertex -1.88665 1.63971 0
      vertex -2.09409 1.40264 0
      vertex -2.09409 1.46191 0
    endloop
  endfacet
  facet normal 0 -0 -1
    outer loop
      vertex -1.31374 1.81751 0
      vertex -1.08655 1.81751 0
      vertex -1.69897 1.61995 0
    endloop
  endfacet
  facet normal 0 -0 -1
    outer loop
      vertex -1.88665 1.63971 0
      vertex -1.79775 1.62983 0
      vertex -2.09409 1.40264 0
    endloop
  endfacet
  facet normal 0 0 -1
    outer loop
      vertex -2.24225 -0.464252 0
      vertex -1.69897 1.61995 0
      vertex -0.464252 -0.681565 0
    endloop
  endfacet
  facet normal -0 0 -1
    outer loop
      vertex -1.31374 1.81751 0
      vertex -1.69897 1.61995 0
      vertex -1.55081 1.82739 0
    endloop
  endfacet
  facet normal 0 0 -1
    outer loop
      vertex -1.55081 1.82739 0
      vertex -1.69897 1.61995 0
      vertex -1.69897 1.70885 0
    endloop
  endfacet
  facet normal 0 0 -1
    outer loop
      vertex -1.08655 1.81751 0
      vertex -0.750708 1.80763 0
      vertex -0.464252 -0.681565 0
    endloop
  endfacet
  facet normal 0 -0 -1
    outer loop
      vertex -0.987778 1.82739 0
      vertex -0.750708 1.80763 0
      vertex -1.08655 1.81751 0
    endloop
  endfacet
  facet normal 0 -0 -1
    outer loop
      vertex -1.07667 1.82739 0
      vertex -0.987778 1.82739 0
      vertex -1.08655 1.81751 0
    endloop
  endfacet
  facet normal 0 -0 -1
    outer loop
      vertex -0.869241 1.87678 0
      vertex -0.750708 1.80763 0
      vertex -0.987778 1.82739 0
    endloop
  endfacet
  facet normal 0 0 -1
    outer loop
      vertex -0.869241 1.87678 0
      vertex -0.987778 1.82739 0
      vertex -0.96802 1.8669 0
    endloop
  endfacet
  facet normal 0 0 1
    outer loop
      vertex -0.750708 1.80763 5
      vertex -0.760587 1.84714 5
      vertex -0.869241 1.87678 5
    endloop
  endfacet
  facet normal 0 0 1
    outer loop
      vertex 0.908752 1.01741 5
      vertex 1.40264 -0.187676 5
      vertex 1.41252 0.572911 5
    endloop
  endfacet
  facet normal 0 0 1
    outer loop
      vertex -0.34572 1.778 5
      vertex -0.563032 1.79775 5
      vertex -0.316088 1.75824 5
    endloop
  endfacet
  facet normal 0 0 1
    outer loop
      vertex -0.316088 1.75824 5
      vertex -0.563032 1.79775 5
      vertex -0.246944 1.71873 5
    endloop
  endfacet
  facet normal 0 0 1
    outer loop
      vertex -0.34572 1.778 5
      vertex -0.365477 1.79775 5
      vertex -0.563032 1.79775 5
    endloop
  endfacet
  facet normal 0 0 1
    outer loop
      vertex -0.246944 1.71873 5
      vertex -0.563032 1.79775 5
      vertex -0.187676 1.67922 5
    endloop
  endfacet
  facet normal 0 0 1
    outer loop
      vertex -0.187676 1.67922 5
      vertex -0.563032 1.79775 5
      vertex -0.108654 1.61007 5
    endloop
  endfacet
  facet normal 0 0 1
    outer loop
      vertex 0.138286 1.48167 5
      vertex 0.316088 1.30387 5
      vertex 0.316088 1.36313 5
    endloop
  endfacet
  facet normal 0 0 1
    outer loop
      vertex -0.108654 1.61007 5
      vertex -0.563032 1.79775 5
      vertex -0.750708 1.80763 5
    endloop
  endfacet
  facet normal 0 0 1
    outer loop
      vertex 0.138286 1.48167 5
      vertex -0.108654 1.61007 5
      vertex 0.316088 1.30387 5
    endloop
  endfacet
  facet normal 0 0 1
    outer loop
      vertex 0.138286 1.48167 5
      vertex -0.0296321 1.61007 5
      vertex -0.108654 1.61007 5
    endloop
  endfacet
  facet normal 0 0 1
    outer loop
      vertex 1.0668 -0.612422 5
      vertex 1.07667 -0.612422 5
      vertex 1.07667 -0.602543 5
    endloop
  endfacet
  facet normal -0 -0 1
    outer loop
      vertex -0.158044 -0.96802 5
      vertex 0.0493854 -1.05692 5
      vertex -0.197555 -0.91863 5
    endloop
  endfacet
  facet normal 0 0 1
    outer loop
      vertex 0.908752 1.01741 5
      vertex 0.592664 1.1557 5
      vertex 1.03716 -0.622296 5
    endloop
  endfacet
  facet normal 0 0 1
    outer loop
      vertex 0.395109 1.26435 5
      vertex 0.375352 1.27423 5
      vertex 0.395109 1.25448 5
    endloop
  endfacet
  facet normal 0 0 1
    outer loop
      vertex 0.404988 1.26435 5
      vertex 0.395109 1.26435 5
      vertex 0.395109 1.25448 5
    endloop
  endfacet
  facet normal 0 0 1
    outer loop
      vertex 1.40264 -0.187676 5
      vertex 0.908752 1.01741 5
      vertex 1.3335 -0.316088 5
    endloop
  endfacet
  facet normal 0 0 1
    outer loop
      vertex 0.395109 1.25448 5
      vertex 0.375352 1.27423 5
      vertex 0.34572 1.28411 5
    endloop
  endfacet
  facet normal 0 0 1
    outer loop
      vertex 1.5113 0.424742 5
      vertex 1.46191 0.513642 5
      vertex 1.41252 0.572911 5
    endloop
  endfacet
  facet normal 0 0 1
    outer loop
      vertex 0.908752 1.01741 5
      vertex 1.41252 0.572911 5
      vertex 1.22484 0.898877 5
    endloop
  endfacet
  facet normal 0 0 1
    outer loop
      vertex 1.22484 0.898877 5
      vertex 1.41252 0.572911 5
      vertex 1.40264 0.721076 5
    endloop
  endfacet
  facet normal 0 0 1
    outer loop
      vertex 1.40264 -0.187676 5
      vertex 1.5113 0.424742 5
      vertex 1.41252 0.572911 5
    endloop
  endfacet
  facet normal 0 0 1
    outer loop
      vertex 1.5113 0.424742 5
      vertex 1.49154 0.48401 5
      vertex 1.46191 0.513642 5
    endloop
  endfacet
  facet normal 0 0 1
    outer loop
      vertex 1.41252 0.572911 5
      vertex 1.46191 0.513642 5
      vertex 1.43228 0.553153 5
    endloop
  endfacet
  facet normal 0 -0 1
    outer loop
      vertex 1.5113 0.424742 5
      vertex 1.52118 0.43462 5
      vertex 1.49154 0.48401 5
    endloop
  endfacet
  facet normal 0 0 1
    outer loop
      vertex 1.46191 0.513642 5
      vertex 1.45203 0.543274 5
      vertex 1.43228 0.553153 5
    endloop
  endfacet
  facet normal 0 0 1
    outer loop
      vertex 1.49154 0.48401 5
      vertex 1.52118 0.43462 5
      vertex 1.53105 0.454374 5
    endloop
  endfacet
  facet normal 0 0 1
    outer loop
      vertex 1.40264 -0.187676 5
      vertex 1.3335 -0.316088 5
      vertex 1.38289 -0.246944 5
    endloop
  endfacet
  facet normal 0 0 1
    outer loop
      vertex 2.69663 -0.5334 5
      vertex 2.36079 -0.256819 5
      vertex 2.02494 -0.721076 5
    endloop
  endfacet
  facet normal 0 -0 1
    outer loop
      vertex 2.74602 -1.3335 5
      vertex 2.90406 -0.928509 5
      vertex 2.65712 -1.25448 5
    endloop
  endfacet
  facet normal 0 -0 1
    outer loop
      vertex 3.05223 -1.4224 5
      vertex 3.1115 -1.31374 5
      vertex 2.85468 -1.44215 5
    endloop
  endfacet
  facet normal 0 0 1
    outer loop
      vertex 1.71873 0.316088 5
      vertex 1.40264 -0.187676 5
      vertex 1.81751 0.207429 5
    endloop
  endfacet
  facet normal 0 0 1
    outer loop
      vertex 1.71873 0.316088 5
      vertex 1.62983 0.375352 5
      vertex 1.56069 0.385231 5
    endloop
  endfacet
  facet normal 0 0 1
    outer loop
      vertex 1.80763 0.246944 5
      vertex 1.71873 0.316088 5
      vertex 1.80763 0.227187 5
    endloop
  endfacet
  facet normal 0 0 1
    outer loop
      vertex 1.80763 0.227187 5
      vertex 1.71873 0.316088 5
      vertex 1.81751 0.207429 5
    endloop
  endfacet
  facet normal 0 0 1
    outer loop
      vertex 3.05223 -1.4224 5
      vertex 3.09174 -1.38289 5
      vertex 3.1115 -1.31374 5
    endloop
  endfacet
  facet normal 0 -0 1
    outer loop
      vertex 3.06211 -1.4224 5
      vertex 3.09174 -1.38289 5
      vertex 3.05223 -1.4224 5
    endloop
  endfacet
  facet normal 0 0 1
    outer loop
      vertex 3.1115 -1.31374 5
      vertex 2.90406 -0.928509 5
      vertex 2.74602 -1.3335 5
    endloop
  endfacet
  facet normal 0 0 1
    outer loop
      vertex 3.07199 -1.50142 5
      vertex 3.05223 -1.4224 5
      vertex 2.96333 -1.53105 5
    endloop
  endfacet
  facet normal 0 -0 1
    outer loop
      vertex 2.96333 -1.53105 5
      vertex 3.05223 -1.4224 5
      vertex 2.85468 -1.44215 5
    endloop
  endfacet
  facet normal 0 -0 1
    outer loop
      vertex 3.05223 -1.57056 5
      vertex 3.07199 -1.50142 5
      vertex 2.96333 -1.53105 5
    endloop
  endfacet
  facet normal 0 -0 1
    outer loop
      vertex 2.85468 -1.44215 5
      vertex 3.1115 -1.31374 5
      vertex 2.74602 -1.3335 5
    endloop
  endfacet
  facet normal 0 0 1
    outer loop
      vertex 2.90406 -0.928509 5
      vertex 2.69663 -0.5334 5
      vertex 2.65712 -1.25448 5
    endloop
  endfacet
  facet normal 0 0 1
    outer loop
      vertex 2.02494 -0.721076 5
      vertex 2.36079 -0.256819 5
      vertex 2.03482 0.0296321 5
    endloop
  endfacet
  facet normal 0 -0 1
    outer loop
      vertex 2.65712 -1.25448 5
      vertex 2.69663 -0.5334 5
      vertex 2.02494 -0.721076 5
    endloop
  endfacet
  facet normal -0 0 1
    outer loop
      vertex 1.40264 -0.187676 5
      vertex 2.02494 -0.721076 5
      vertex 2.03482 0.0296321 5
    endloop
  endfacet
  facet normal 0 0 1
    outer loop
      vertex 1.71873 0.316088 5
      vertex 1.56069 0.385231 5
      vertex 1.40264 -0.187676 5
    endloop
  endfacet
  facet normal 0 0 1
    outer loop
      vertex 1.40264 -0.187676 5
      vertex 1.56069 0.385231 5
      vertex 1.5113 0.424742 5
    endloop
  endfacet
  facet normal 0 0 1
    outer loop
      vertex 1.81751 0.207429 5
      vertex 1.40264 -0.187676 5
      vertex 2.03482 0.0296321 5
    endloop
  endfacet
  facet normal 0 0 1
    outer loop
      vertex 1.07667 -0.612422 5
      vertex 1.21496 -0.543274 5
      vertex 1.07667 -0.602543 5
    endloop
  endfacet
  facet normal 0 -0 1
    outer loop
      vertex 1.07667 -0.602543 5
      vertex 1.3335 -0.316088 5
      vertex 1.03716 -0.622296 5
    endloop
  endfacet
  facet normal 0 0 1
    outer loop
      vertex 1.39277 -0.29633 5
      vertex 1.38289 -0.246944 5
      vertex 1.3335 -0.316088 5
    endloop
  endfacet
  facet normal 0 -0 1
    outer loop
      vertex 1.03716 -0.622296 5
      vertex 1.3335 -0.316088 5
      vertex 0.908752 1.01741 5
    endloop
  endfacet
  facet normal 0 -0 1
    outer loop
      vertex 1.00753 -0.681565 5
      vertex 1.03716 -0.622296 5
      vertex -0.197555 -0.91863 5
    endloop
  endfacet
  facet normal 0 0 1
    outer loop
      vertex 1.21496 -0.543274 5
      vertex 1.36313 -0.474131 5
      vertex 1.36313 -0.424742 5
    endloop
  endfacet
  facet normal 0 0 1
    outer loop
      vertex 1.35326 -0.34572 5
      vertex 1.3335 -0.316088 5
      vertex 1.36313 -0.424742 5
    endloop
  endfacet
  facet normal 0 0 1
    outer loop
      vertex 1.37301 -0.365477 5
      vertex 1.35326 -0.34572 5
      vertex 1.36313 -0.424742 5
    endloop
  endfacet
  facet normal 0 0 1
    outer loop
      vertex 1.35326 -0.34572 5
      vertex 1.34338 -0.316088 5
      vertex 1.3335 -0.316088 5
    endloop
  endfacet
  facet normal 0 0 1
    outer loop
      vertex 1.3335 -0.316088 5
      vertex 1.21496 -0.543274 5
      vertex 1.36313 -0.424742 5
    endloop
  endfacet
  facet normal 0 -0 1
    outer loop
      vertex 0.543274 -1.11619 5
      vertex 1.00753 -0.681565 5
      vertex 0.424742 -1.12606 5
    endloop
  endfacet
  facet normal 0 0 1
    outer loop
      vertex 0.543274 -1.11619 5
      vertex 0.681565 -1.11619 5
      vertex 1.00753 -0.681565 5
    endloop
  endfacet
  facet normal 0 -0 1
    outer loop
      vertex 1.02729 -0.651933 5
      vertex 1.03716 -0.622296 5
      vertex 1.00753 -0.681565 5
    endloop
  endfacet
  facet normal 0 0 1
    outer loop
      vertex 0.424742 -1.12606 5
      vertex 0.0493854 -1.05692 5
      vertex 0.316088 -1.13594 5
    endloop
  endfacet
  facet normal 0 -0 1
    outer loop
      vertex 0.898877 -1.00753 5
      vertex 1.00753 -0.681565 5
      vertex 0.681565 -1.11619 5
    endloop
  endfacet
  facet normal 0 0 1
    outer loop
      vertex 1.07667 -0.602543 5
      vertex 1.21496 -0.543274 5
      vertex 1.3335 -0.316088 5
    endloop
  endfacet
  facet normal 0 0 1
    outer loop
      vertex 1.02729 -0.651933 5
      vertex 1.00753 -0.681565 5
      vertex 1.02729 -0.671686 5
    endloop
  endfacet
  facet normal 0 -0 1
    outer loop
      vertex 0.800098 -1.09643 5
      vertex 0.898877 -1.00753 5
      vertex 0.681565 -1.11619 5
    endloop
  endfacet
  facet normal 0 -0 1
    outer loop
      vertex 1.00753 -0.908752 5
      vertex 1.01741 -0.849487 5
      vertex 0.898877 -1.00753 5
    endloop
  endfacet
  facet normal 0 0 1
    outer loop
      vertex 0.898877 -1.00753 5
      vertex 1.01741 -0.849487 5
      vertex 1.01741 -0.790219 5
    endloop
  endfacet
  facet normal 0 0 1
    outer loop
      vertex 1.00753 -0.681565 5
      vertex 0.898877 -1.00753 5
      vertex 1.01741 -0.790219 5
    endloop
  endfacet
  facet normal 0 -0 1
    outer loop
      vertex 0.424742 -1.12606 5
      vertex 1.00753 -0.681565 5
      vertex 0.0493854 -1.05692 5
    endloop
  endfacet
  facet normal 0 -0 1
    outer loop
      vertex 0.246944 -1.14582 5
      vertex 0.316088 -1.13594 5
      vertex 0.0493854 -1.05692 5
    endloop
  endfacet
  facet normal 0 0 1
    outer loop
      vertex 0.246944 -1.14582 5
      vertex 0.276577 -1.14582 5
      vertex 0.316088 -1.13594 5
    endloop
  endfacet
  facet normal 0 -0 1
    outer loop
      vertex 0.0493854 -1.05692 5
      vertex 1.00753 -0.681565 5
      vertex -0.197555 -0.91863 5
    endloop
  endfacet
  facet normal 0 0 1
    outer loop
      vertex 1.03716 -0.622296 5
      vertex -0.316088 -0.809976 5
      vertex -0.197555 -0.91863 5
    endloop
  endfacet
  facet normal 0 0 1
    outer loop
      vertex 1.03716 -0.622296 5
      vertex -0.43462 -0.691444 5
      vertex -0.316088 -0.809976 5
    endloop
  endfacet
  facet normal 0 0 1
    outer loop
      vertex 1.03716 -0.622296 5
      vertex 0.592664 1.1557 5
      vertex -0.43462 -0.691444 5
    endloop
  endfacet
  facet normal 0 0 1
    outer loop
      vertex -0.43462 -0.691444 5
      vertex 0.592664 1.1557 5
      vertex 0.48401 1.19521 5
    endloop
  endfacet
  facet normal -0 0 1
    outer loop
      vertex -0.464252 -0.681565 5
      vertex -0.43462 -0.691444 5
      vertex 0.48401 1.19521 5
    endloop
  endfacet
  facet normal 0 0 1
    outer loop
      vertex 0.395109 1.25448 5
      vertex -0.464252 -0.681565 5
      vertex 0.48401 1.19521 5
    endloop
  endfacet
  facet normal 0 0 1
    outer loop
      vertex 0.395109 1.25448 5
      vertex 0.34572 1.28411 5
      vertex -0.464252 -0.681565 5
    endloop
  endfacet
  facet normal 0 0 1
    outer loop
      vertex -0.464252 -0.681565 5
      vertex 0.34572 1.28411 5
      vertex 0.316088 1.30387 5
    endloop
  endfacet
  facet normal 0 0 1
    outer loop
      vertex -0.108654 1.61007 5
      vertex -0.464252 -0.681565 5
      vertex 0.316088 1.30387 5
    endloop
  endfacet
  facet normal 0 0 1
    outer loop
      vertex -0.464252 -0.681565 5
      vertex -2.07433 -0.721076 5
      vertex -1.89653 -0.96802 5
    endloop
  endfacet
  facet normal 0 0 1
    outer loop
      vertex -0.108654 1.61007 5
      vertex -0.750708 1.80763 5
      vertex -0.464252 -0.681565 5
    endloop
  endfacet
  facet normal 0 0 1
    outer loop
      vertex -0.464252 -0.691444 5
      vertex -1.89653 -0.96802 5
      vertex -0.938388 -1.4224 5
    endloop
  endfacet
  facet normal 0 -0 1
    outer loop
      vertex -0.464252 -0.691444 5
      vertex -0.464252 -0.681565 5
      vertex -1.89653 -0.96802 5
    endloop
  endfacet
  facet normal 0 0 1
    outer loop
      vertex -0.316088 -0.928509 5
      vertex -0.385231 -0.809976 5
      vertex -0.938388 -1.4224 5
    endloop
  endfacet
  facet normal 0 0 1
    outer loop
      vertex 0.0493854 -1.8669 5
      vertex 0.0790219 -1.85702 5
      vertex 0.0790219 -1.80763 5
    endloop
  endfacet
  facet normal 0 -0 1
    outer loop
      vertex 0.0296321 -1.87678 5
      vertex 0.0691431 -1.70885 5
      vertex -0.938388 -1.4224 5
    endloop
  endfacet
  facet normal 0 0 1
    outer loop
      vertex 0.0790219 -1.80763 5
      vertex 0.0691431 -1.71873 5
      vertex 0.0296321 -1.87678 5
    endloop
  endfacet
  facet normal 0 -0 1
    outer loop
      vertex 0.0987752 -1.69897 5
      vertex 0.0987752 -1.63971 5
      vertex 0.0691431 -1.70885 5
    endloop
  endfacet
  facet normal 0 -0 1
    outer loop
      vertex 0.0691431 -1.70885 5
      vertex 0.0987752 -1.63971 5
      vertex 0.0592643 -1.5113 5
    endloop
  endfacet
  facet normal 0 0 1
    outer loop
      vertex 0.0197533 -1.44215 5
      vertex 0.0691431 -1.70885 5
      vertex 0.0592643 -1.5113 5
    endloop
  endfacet
  facet normal 0 -0 1
    outer loop
      vertex 0.0987752 -1.63971 5
      vertex 0.108654 -1.57056 5
      vertex 0.0592643 -1.5113 5
    endloop
  endfacet
  facet normal 0 0 1
    outer loop
      vertex 0.0296321 -1.87678 5
      vertex 0.0493854 -1.8669 5
      vertex 0.0790219 -1.80763 5
    endloop
  endfacet
  facet normal 0 0 1
    outer loop
      vertex 0.0691431 -1.70885 5
      vertex 0.0296321 -1.87678 5
      vertex 0.0691431 -1.71873 5
    endloop
  endfacet
  facet normal 0 0 1
    outer loop
      vertex 0.0197533 -1.44215 5
      vertex -0.938388 -1.4224 5
      vertex 0.0691431 -1.70885 5
    endloop
  endfacet
  facet normal 0 0 1
    outer loop
      vertex 0.0197533 -1.44215 5
      vertex -0.108654 -1.23472 5
      vertex -0.938388 -1.4224 5
    endloop
  endfacet
  facet normal 0 -0 1
    outer loop
      vertex 0.0790219 -1.80763 5
      vertex 0.0888964 -1.74836 5
      vertex 0.0691431 -1.71873 5
    endloop
  endfacet
  facet normal 0 0 1
    outer loop
      vertex -0.938388 -1.4224 5
      vertex -0.108654 -1.23472 5
      vertex -0.246944 -1.02729 5
    endloop
  endfacet
  facet normal 0 0 1
    outer loop
      vertex -0.286455 -0.977899 5
      vertex -0.938388 -1.4224 5
      vertex -0.246944 -1.02729 5
    endloop
  endfacet
  facet normal 0 0 1
    outer loop
      vertex -0.286455 -0.977899 5
      vertex -0.316088 -0.928509 5
      vertex -0.938388 -1.4224 5
    endloop
  endfacet
  facet normal 0 0 1
    outer loop
      vertex -0.938388 -1.4224 5
      vertex -0.385231 -0.809976 5
      vertex -0.464252 -0.691444 5
    endloop
  endfacet
  facet normal 0 0 1
    outer loop
      vertex -0.464252 -0.681565 5
      vertex -2.24225 -0.464252 5
      vertex -2.07433 -0.721076 5
    endloop
  endfacet
  facet normal -0 0 1
    outer loop
      vertex -2.59785 0.246944 5
      vertex -2.4003 -0.246944 5
      vertex -2.09409 1.40264 5
    endloop
  endfacet
  facet normal 0 0 1
    outer loop
      vertex -2.59785 0.246944 5
      vertex -2.62749 0.158044 5
      vertex -2.54847 -0.0197533 5
    endloop
  endfacet
  facet normal -0 0 1
    outer loop
      vertex -2.09409 1.40264 5
      vertex -2.4003 -0.246944 5
      vertex -1.69897 1.61995 5
    endloop
  endfacet
  facet normal 0 0 1
    outer loop
      vertex -2.62749 0.237066 5
      vertex -2.64724 0.227187 5
      vertex -2.62749 0.158044 5
    endloop
  endfacet
  facet normal 0 -0 1
    outer loop
      vertex -2.62749 0.0691431 5
      vertex -2.62749 0.158044 5
      vertex -2.64724 0.158044 5
    endloop
  endfacet
  facet normal 0 0 1
    outer loop
      vertex -2.09409 1.40264 5
      vertex -2.26201 1.31374 5
      vertex -2.59785 0.246944 5
    endloop
  endfacet
  facet normal 0 0 1
    outer loop
      vertex -2.54847 -0.0197533 5
      vertex -2.62749 0.158044 5
      vertex -2.62749 0.0691431 5
    endloop
  endfacet
  facet normal 0 0 1
    outer loop
      vertex -2.59785 0.246944 5
      vertex -2.26201 1.31374 5
      vertex -2.42005 1.23472 5
    endloop
  endfacet
  facet normal 0 0 1
    outer loop
      vertex -2.59785 0.246944 5
      vertex -2.62749 0.237066 5
      vertex -2.62749 0.158044 5
    endloop
  endfacet
  facet normal 0 0 1
    outer loop
      vertex -2.4003 -0.246944 5
      vertex -2.59785 0.246944 5
      vertex -2.54847 -0.0197533 5
    endloop
  endfacet
  facet normal 0 -0 1
    outer loop
      vertex -2.62749 0.286455 5
      vertex -2.42005 1.23472 5
      vertex -2.7559 1.03716 5
    endloop
  endfacet
  facet normal -0 -0 1
    outer loop
      vertex -2.61761 0.266698 5
      vertex -2.59785 0.246944 5
      vertex -2.62749 0.286455 5
    endloop
  endfacet
  facet normal 0 0 1
    outer loop
      vertex -2.68675 0.256819 5
      vertex -2.77565 0.306209 5
      vertex -2.74602 0.256819 5
    endloop
  endfacet
  facet normal 0 -0 1
    outer loop
      vertex -2.68675 0.256819 5
      vertex -2.62749 0.286455 5
      vertex -2.77565 0.306209 5
    endloop
  endfacet
  facet normal 0 -0 1
    outer loop
      vertex -2.80529 0.29633 5
      vertex -2.77565 0.306209 5
      vertex -2.82504 0.306209 5
    endloop
  endfacet
  facet normal 0 0 1
    outer loop
      vertex -3.09174 0.563032 5
      vertex -3.09174 0.513642 5
      vertex -3.04236 0.424742 5
    endloop
  endfacet
  facet normal 0 0 1
    outer loop
      vertex -2.82504 0.306209 5
      vertex -3.04236 0.424742 5
      vertex -2.97321 0.325966 5
    endloop
  endfacet
  facet normal 0 0 1
    outer loop
      vertex -2.88431 0.276577 5
      vertex -2.97321 0.325966 5
      vertex -2.94358 0.266698 5
    endloop
  endfacet
  facet normal 0 -0 1
    outer loop
      vertex -2.88431 0.276577 5
      vertex -2.82504 0.306209 5
      vertex -2.97321 0.325966 5
    endloop
  endfacet
  facet normal 0 0 1
    outer loop
      vertex -2.77565 0.306209 5
      vertex -3.09174 0.563032 5
      vertex -2.82504 0.306209 5
    endloop
  endfacet
  facet normal 0 0 1
    outer loop
      vertex -2.82504 0.306209 5
      vertex -3.09174 0.563032 5
      vertex -3.04236 0.424742 5
    endloop
  endfacet
  facet normal 0 0 1
    outer loop
      vertex -2.77565 0.306209 5
      vertex -3.10162 0.622296 5
      vertex -3.09174 0.563032 5
    endloop
  endfacet
  facet normal 0 0 1
    outer loop
      vertex -2.7559 1.03716 5
      vertex -3.1115 0.740833 5
      vertex -3.10162 0.622296 5
    endloop
  endfacet
  facet normal -0 0 1
    outer loop
      vertex -3.08187 0.859366 5
      vertex -3.1115 0.740833 5
      vertex -2.7559 1.03716 5
    endloop
  endfacet
  facet normal 0 -0 1
    outer loop
      vertex -2.77565 0.306209 5
      vertex -2.7559 1.03716 5
      vertex -3.10162 0.622296 5
    endloop
  endfacet
  facet normal -0 0 1
    outer loop
      vertex -2.77565 0.306209 5
      vertex -2.62749 0.286455 5
      vertex -2.7559 1.03716 5
    endloop
  endfacet
  facet normal -0 0 1
    outer loop
      vertex -2.62749 0.286455 5
      vertex -2.59785 0.246944 5
      vertex -2.42005 1.23472 5
    endloop
  endfacet
  facet normal 0 0 1
    outer loop
      vertex -1.69897 1.61995 5
      vertex -2.4003 -0.246944 5
      vertex -2.24225 -0.464252 5
    endloop
  endfacet
  facet normal 0 0 1
    outer loop
      vertex -0.464252 -0.681565 5
      vertex -1.08655 1.81751 5
      vertex -1.69897 1.61995 5
    endloop
  endfacet
  facet normal 0 0 1
    outer loop
      vertex -1.69897 1.61995 5
      vertex -1.79775 1.62983 5
      vertex -2.09409 1.40264 5
    endloop
  endfacet
  facet normal 0 0 1
    outer loop
      vertex -1.88665 1.63971 5
      vertex -2.03482 1.63971 5
      vertex -2.08421 1.55081 5
    endloop
  endfacet
  facet normal 0 0 1
    outer loop
      vertex -2.09409 1.46191 5
      vertex -1.88665 1.63971 5
      vertex -2.08421 1.55081 5
    endloop
  endfacet
  facet normal -0 0 1
    outer loop
      vertex -2.09409 1.46191 5
      vertex -2.09409 1.40264 5
      vertex -1.88665 1.63971 5
    endloop
  endfacet
  facet normal 0 0 1
    outer loop
      vertex -1.69897 1.61995 5
      vertex -1.08655 1.81751 5
      vertex -1.31374 1.81751 5
    endloop
  endfacet
  facet normal 0 0 1
    outer loop
      vertex -2.09409 1.40264 5
      vertex -1.79775 1.62983 5
      vertex -1.88665 1.63971 5
    endloop
  endfacet
  facet normal 0 0 1
    outer loop
      vertex -0.464252 -0.681565 5
      vertex -1.69897 1.61995 5
      vertex -2.24225 -0.464252 5
    endloop
  endfacet
  facet normal 0 0 1
    outer loop
      vertex -1.55081 1.82739 5
      vertex -1.69897 1.61995 5
      vertex -1.31374 1.81751 5
    endloop
  endfacet
  facet normal -0 0 1
    outer loop
      vertex -1.69897 1.70885 5
      vertex -1.69897 1.61995 5
      vertex -1.55081 1.82739 5
    endloop
  endfacet
  facet normal 0 0 1
    outer loop
      vertex -0.464252 -0.681565 5
      vertex -0.750708 1.80763 5
      vertex -1.08655 1.81751 5
    endloop
  endfacet
  facet normal -0 0 1
    outer loop
      vertex -1.08655 1.81751 5
      vertex -0.750708 1.80763 5
      vertex -0.987778 1.82739 5
    endloop
  endfacet
  facet normal 0 0 1
    outer loop
      vertex -1.08655 1.81751 5
      vertex -0.987778 1.82739 5
      vertex -1.07667 1.82739 5
    endloop
  endfacet
  facet normal -0 0 1
    outer loop
      vertex -0.987778 1.82739 5
      vertex -0.750708 1.80763 5
      vertex -0.869241 1.87678 5
    endloop
  endfacet
  facet normal -0 0 1
    outer loop
      vertex -0.96802 1.8669 5
      vertex -0.987778 1.82739 5
      vertex -0.869241 1.87678 5
    endloop
  endfacet
  facet normal 0.970136 0.242561 -0
    outer loop
      vertex -0.760587 1.84714 0
      vertex -0.760587 1.84714 5
      vertex -0.750708 1.80763 0
    endloop
  endfacet
  facet normal 0.970136 0.242561 0
    outer loop
      vertex -0.760587 1.84714 5
      vertex -0.750708 1.80763 5
      vertex -0.750708 1.80763 0
    endloop
  endfacet
  facet normal 0.0525648 0.998618 -0
    outer loop
      vertex -0.750708 1.80763 0
      vertex -0.750708 1.80763 5
      vertex -0.563032 1.79775 0
    endloop
  endfacet
  facet normal 0.0525648 0.998618 0
    outer loop
      vertex -0.750708 1.80763 5
      vertex -0.563032 1.79775 5
      vertex -0.563032 1.79775 0
    endloop
  endfacet
  facet normal 0 1 0
    outer loop
      vertex -0.563032 1.79775 0
      vertex -0.563032 1.79775 5
      vertex -0.365477 1.79775 0
    endloop
  endfacet
  facet normal -0 1 0
    outer loop
      vertex -0.563032 1.79775 5
      vertex -0.365477 1.79775 5
      vertex -0.365477 1.79775 0
    endloop
  endfacet
  facet normal 0.707107 0.707107 -0
    outer loop
      vertex -0.365477 1.79775 0
      vertex -0.365477 1.79775 5
      vertex -0.34572 1.778 0
    endloop
  endfacet
  facet normal 0.707107 0.707107 0
    outer loop
      vertex -0.365477 1.79775 5
      vertex -0.34572 1.778 5
      vertex -0.34572 1.778 0
    endloop
  endfacet
  facet normal 0.554672 0.832069 -0
    outer loop
      vertex -0.34572 1.778 0
      vertex -0.34572 1.778 5
      vertex -0.316088 1.75824 0
    endloop
  endfacet
  facet normal 0.554672 0.832069 0
    outer loop
      vertex -0.34572 1.778 5
      vertex -0.316088 1.75824 5
      vertex -0.316088 1.75824 0
    endloop
  endfacet
  facet normal 0.496145 0.86824 -0
    outer loop
      vertex -0.316088 1.75824 0
      vertex -0.316088 1.75824 5
      vertex -0.246944 1.71873 0
    endloop
  endfacet
  facet normal 0.496145 0.86824 0
    outer loop
      vertex -0.316088 1.75824 5
      vertex -0.246944 1.71873 5
      vertex -0.246944 1.71873 0
    endloop
  endfacet
  facet normal 0.554686 0.83206 -0
    outer loop
      vertex -0.246944 1.71873 0
      vertex -0.246944 1.71873 5
      vertex -0.187676 1.67922 0
    endloop
  endfacet
  facet normal 0.554686 0.83206 0
    outer loop
      vertex -0.246944 1.71873 5
      vertex -0.187676 1.67922 5
      vertex -0.187676 1.67922 0
    endloop
  endfacet
  facet normal 0.658522 0.752561 -0
    outer loop
      vertex -0.187676 1.67922 0
      vertex -0.187676 1.67922 5
      vertex -0.108654 1.61007 0
    endloop
  endfacet
  facet normal 0.658522 0.752561 0
    outer loop
      vertex -0.187676 1.67922 5
      vertex -0.108654 1.61007 5
      vertex -0.108654 1.61007 0
    endloop
  endfacet
  facet normal 0 1 0
    outer loop
      vertex -0.108654 1.61007 0
      vertex -0.108654 1.61007 5
      vertex -0.0296321 1.61007 0
    endloop
  endfacet
  facet normal -0 1 0
    outer loop
      vertex -0.108654 1.61007 5
      vertex -0.0296321 1.61007 5
      vertex -0.0296321 1.61007 0
    endloop
  endfacet
  facet normal 0.607448 0.79436 -0
    outer loop
      vertex -0.0296321 1.61007 0
      vertex -0.0296321 1.61007 5
      vertex 0.138286 1.48167 0
    endloop
  endfacet
  facet normal 0.607448 0.79436 0
    outer loop
      vertex -0.0296321 1.61007 5
      vertex 0.138286 1.48167 5
      vertex 0.138286 1.48167 0
    endloop
  endfacet
  facet normal 0.554709 0.832044 -0
    outer loop
      vertex 0.138286 1.48167 0
      vertex 0.138286 1.48167 5
      vertex 0.316088 1.36313 0
    endloop
  endfacet
  facet normal 0.554709 0.832044 0
    outer loop
      vertex 0.138286 1.48167 5
      vertex 0.316088 1.36313 5
      vertex 0.316088 1.36313 0
    endloop
  endfacet
  facet normal 1 0 -0
    outer loop
      vertex 0.316088 1.36313 0
      vertex 0.316088 1.36313 5
      vertex 0.316088 1.30387 0
    endloop
  endfacet
  facet normal 1 0 0
    outer loop
      vertex 0.316088 1.36313 5
      vertex 0.316088 1.30387 5
      vertex 0.316088 1.30387 0
    endloop
  endfacet
  facet normal 0.554756 0.832013 -0
    outer loop
      vertex 0.316088 1.30387 0
      vertex 0.316088 1.30387 5
      vertex 0.34572 1.28411 0
    endloop
  endfacet
  facet normal 0.554756 0.832013 0
    outer loop
      vertex 0.316088 1.30387 5
      vertex 0.34572 1.28411 5
      vertex 0.34572 1.28411 0
    endloop
  endfacet
  facet normal 0.316145 0.948711 -0
    outer loop
      vertex 0.34572 1.28411 0
      vertex 0.34572 1.28411 5
      vertex 0.375352 1.27423 0
    endloop
  endfacet
  facet normal 0.316145 0.948711 0
    outer loop
      vertex 0.34572 1.28411 5
      vertex 0.375352 1.27423 5
      vertex 0.375352 1.27423 0
    endloop
  endfacet
  facet normal 0.447214 0.894427 -0
    outer loop
      vertex 0.375352 1.27423 0
      vertex 0.375352 1.27423 5
      vertex 0.395109 1.26435 0
    endloop
  endfacet
  facet normal 0.447214 0.894427 0
    outer loop
      vertex 0.375352 1.27423 5
      vertex 0.395109 1.26435 5
      vertex 0.395109 1.26435 0
    endloop
  endfacet
  facet normal 0 1 0
    outer loop
      vertex 0.395109 1.26435 0
      vertex 0.395109 1.26435 5
      vertex 0.404988 1.26435 0
    endloop
  endfacet
  facet normal -0 1 0
    outer loop
      vertex 0.395109 1.26435 5
      vertex 0.404988 1.26435 5
      vertex 0.404988 1.26435 0
    endloop
  endfacet
  facet normal 0.707107 -0.707107 0
    outer loop
      vertex 0.404988 1.26435 0
      vertex 0.404988 1.26435 5
      vertex 0.395109 1.25448 0
    endloop
  endfacet
  facet normal 0.707107 -0.707107 0
    outer loop
      vertex 0.404988 1.26435 5
      vertex 0.395109 1.25448 5
      vertex 0.395109 1.25448 0
    endloop
  endfacet
  facet normal 0.554709 0.832044 -0
    outer loop
      vertex 0.395109 1.25448 0
      vertex 0.395109 1.25448 5
      vertex 0.48401 1.19521 0
    endloop
  endfacet
  facet normal 0.554709 0.832044 0
    outer loop
      vertex 0.395109 1.25448 5
      vertex 0.48401 1.19521 5
      vertex 0.48401 1.19521 0
    endloop
  endfacet
  facet normal 0.341746 0.939792 -0
    outer loop
      vertex 0.48401 1.19521 0
      vertex 0.48401 1.19521 5
      vertex 0.592664 1.1557 0
    endloop
  endfacet
  facet normal 0.341746 0.939792 0
    outer loop
      vertex 0.48401 1.19521 5
      vertex 0.592664 1.1557 5
      vertex 0.592664 1.1557 0
    endloop
  endfacet
  facet normal 0.400814 0.91616 -0
    outer loop
      vertex 0.592664 1.1557 0
      vertex 0.592664 1.1557 5
      vertex 0.908752 1.01741 0
    endloop
  endfacet
  facet normal 0.400814 0.91616 0
    outer loop
      vertex 0.592664 1.1557 5
      vertex 0.908752 1.01741 5
      vertex 0.908752 1.01741 0
    endloop
  endfacet
  facet normal 0.351119 0.936331 -0
    outer loop
      vertex 0.908752 1.01741 0
      vertex 0.908752 1.01741 5
      vertex 1.22484 0.898877 0
    endloop
  endfacet
  facet normal 0.351119 0.936331 0
    outer loop
      vertex 0.908752 1.01741 5
      vertex 1.22484 0.898877 5
      vertex 1.22484 0.898877 0
    endloop
  endfacet
  facet normal 0.707115 0.707098 -0
    outer loop
      vertex 1.22484 0.898877 0
      vertex 1.22484 0.898877 5
      vertex 1.40264 0.721076 0
    endloop
  endfacet
  facet normal 0.707115 0.707098 0
    outer loop
      vertex 1.22484 0.898877 5
      vertex 1.40264 0.721076 5
      vertex 1.40264 0.721076 0
    endloop
  endfacet
  facet normal 0.997785 0.0665267 -0
    outer loop
      vertex 1.40264 0.721076 0
      vertex 1.40264 0.721076 5
      vertex 1.41252 0.572911 0
    endloop
  endfacet
  facet normal 0.997785 0.0665267 0
    outer loop
      vertex 1.40264 0.721076 5
      vertex 1.41252 0.572911 5
      vertex 1.41252 0.572911 0
    endloop
  endfacet
  facet normal 0.707107 0.707107 -0
    outer loop
      vertex 1.41252 0.572911 0
      vertex 1.41252 0.572911 5
      vertex 1.43228 0.553153 0
    endloop
  endfacet
  facet normal 0.707107 0.707107 0
    outer loop
      vertex 1.41252 0.572911 5
      vertex 1.43228 0.553153 5
      vertex 1.43228 0.553153 0
    endloop
  endfacet
  facet normal 0.447292 0.894388 -0
    outer loop
      vertex 1.43228 0.553153 0
      vertex 1.43228 0.553153 5
      vertex 1.45203 0.543274 0
    endloop
  endfacet
  facet normal 0.447292 0.894388 0
    outer loop
      vertex 1.43228 0.553153 5
      vertex 1.45203 0.543274 5
      vertex 1.45203 0.543274 0
    endloop
  endfacet
  facet normal 0.94867 0.316269 -0
    outer loop
      vertex 1.45203 0.543274 0
      vertex 1.45203 0.543274 5
      vertex 1.46191 0.513642 0
    endloop
  endfacet
  facet normal 0.94867 0.316269 0
    outer loop
      vertex 1.45203 0.543274 5
      vertex 1.46191 0.513642 5
      vertex 1.46191 0.513642 0
    endloop
  endfacet
  facet normal 0.707107 0.707107 -0
    outer loop
      vertex 1.46191 0.513642 0
      vertex 1.46191 0.513642 5
      vertex 1.49154 0.48401 0
    endloop
  endfacet
  facet normal 0.707107 0.707107 0
    outer loop
      vertex 1.46191 0.513642 5
      vertex 1.49154 0.48401 5
      vertex 1.49154 0.48401 0
    endloop
  endfacet
  facet normal 0.600042 0.799969 -0
    outer loop
      vertex 1.49154 0.48401 0
      vertex 1.49154 0.48401 5
      vertex 1.53105 0.454374 0
    endloop
  endfacet
  facet normal 0.600042 0.799969 0
    outer loop
      vertex 1.49154 0.48401 5
      vertex 1.53105 0.454374 5
      vertex 1.53105 0.454374 0
    endloop
  endfacet
  facet normal 0.894466 -0.447136 0
    outer loop
      vertex 1.53105 0.454374 0
      vertex 1.53105 0.454374 5
      vertex 1.52118 0.43462 0
    endloop
  endfacet
  facet normal 0.894466 -0.447136 0
    outer loop
      vertex 1.53105 0.454374 5
      vertex 1.52118 0.43462 5
      vertex 1.52118 0.43462 0
    endloop
  endfacet
  facet normal 0.707107 -0.707107 0
    outer loop
      vertex 1.52118 0.43462 0
      vertex 1.52118 0.43462 5
      vertex 1.5113 0.424742 0
    endloop
  endfacet
  facet normal 0.707107 -0.707107 0
    outer loop
      vertex 1.52118 0.43462 5
      vertex 1.5113 0.424742 5
      vertex 1.5113 0.424742 0
    endloop
  endfacet
  facet normal 0.624687 0.780875 -0
    outer loop
      vertex 1.5113 0.424742 0
      vertex 1.5113 0.424742 5
      vertex 1.56069 0.385231 0
    endloop
  endfacet
  facet normal 0.624687 0.780875 0
    outer loop
      vertex 1.5113 0.424742 5
      vertex 1.56069 0.385231 5
      vertex 1.56069 0.385231 0
    endloop
  endfacet
  facet normal 0.141439 0.989947 -0
    outer loop
      vertex 1.56069 0.385231 0
      vertex 1.56069 0.385231 5
      vertex 1.62983 0.375352 0
    endloop
  endfacet
  facet normal 0.141439 0.989947 0
    outer loop
      vertex 1.56069 0.385231 5
      vertex 1.62983 0.375352 5
      vertex 1.62983 0.375352 0
    endloop
  endfacet
  facet normal 0.554682 0.832063 -0
    outer loop
      vertex 1.62983 0.375352 0
      vertex 1.62983 0.375352 5
      vertex 1.71873 0.316088 0
    endloop
  endfacet
  facet normal 0.554682 0.832063 0
    outer loop
      vertex 1.62983 0.375352 5
      vertex 1.71873 0.316088 5
      vertex 1.71873 0.316088 0
    endloop
  endfacet
  facet normal 0.61393 0.78936 -0
    outer loop
      vertex 1.71873 0.316088 0
      vertex 1.71873 0.316088 5
      vertex 1.80763 0.246944 0
    endloop
  endfacet
  facet normal 0.61393 0.78936 0
    outer loop
      vertex 1.71873 0.316088 5
      vertex 1.80763 0.246944 5
      vertex 1.80763 0.246944 0
    endloop
  endfacet
  facet normal 1 0 -0
    outer loop
      vertex 1.80763 0.246944 0
      vertex 1.80763 0.246944 5
      vertex 1.80763 0.227187 0
    endloop
  endfacet
  facet normal 1 0 0
    outer loop
      vertex 1.80763 0.246944 5
      vertex 1.80763 0.227187 5
      vertex 1.80763 0.227187 0
    endloop
  endfacet
  facet normal 0.894505 0.447058 -0
    outer loop
      vertex 1.80763 0.227187 0
      vertex 1.80763 0.227187 5
      vertex 1.81751 0.207429 0
    endloop
  endfacet
  facet normal 0.894505 0.447058 0
    outer loop
      vertex 1.80763 0.227187 5
      vertex 1.81751 0.207429 5
      vertex 1.81751 0.207429 0
    endloop
  endfacet
  facet normal 0.633229 0.773964 -0
    outer loop
      vertex 1.81751 0.207429 0
      vertex 1.81751 0.207429 5
      vertex 2.03482 0.0296321 0
    endloop
  endfacet
  facet normal 0.633229 0.773964 0
    outer loop
      vertex 1.81751 0.207429 5
      vertex 2.03482 0.0296321 5
      vertex 2.03482 0.0296321 0
    endloop
  endfacet
  facet normal 0.660109 0.75117 -0
    outer loop
      vertex 2.03482 0.0296321 0
      vertex 2.03482 0.0296321 5
      vertex 2.36079 -0.256819 0
    endloop
  endfacet
  facet normal 0.660109 0.75117 0
    outer loop
      vertex 2.03482 0.0296321 5
      vertex 2.36079 -0.256819 5
      vertex 2.36079 -0.256819 0
    endloop
  endfacet
  facet normal 0.635711 0.771927 -0
    outer loop
      vertex 2.36079 -0.256819 0
      vertex 2.36079 -0.256819 5
      vertex 2.69663 -0.5334 0
    endloop
  endfacet
  facet normal 0.635711 0.771927 0
    outer loop
      vertex 2.36079 -0.256819 5
      vertex 2.69663 -0.5334 5
      vertex 2.69663 -0.5334 0
    endloop
  endfacet
  facet normal 0.885397 0.464836 -0
    outer loop
      vertex 2.69663 -0.5334 0
      vertex 2.69663 -0.5334 5
      vertex 2.90406 -0.928509 0
    endloop
  endfacet
  facet normal 0.885397 0.464836 0
    outer loop
      vertex 2.69663 -0.5334 5
      vertex 2.90406 -0.928509 5
      vertex 2.90406 -0.928509 0
    endloop
  endfacet
  facet normal 0.880472 0.474099 -0
    outer loop
      vertex 2.90406 -0.928509 0
      vertex 2.90406 -0.928509 5
      vertex 3.1115 -1.31374 0
    endloop
  endfacet
  facet normal 0.880472 0.474099 0
    outer loop
      vertex 2.90406 -0.928509 5
      vertex 3.1115 -1.31374 5
      vertex 3.1115 -1.31374 0
    endloop
  endfacet
  facet normal 0.961515 -0.274753 0
    outer loop
      vertex 3.1115 -1.31374 0
      vertex 3.1115 -1.31374 5
      vertex 3.09174 -1.38289 0
    endloop
  endfacet
  facet normal 0.961515 -0.274753 0
    outer loop
      vertex 3.1115 -1.31374 5
      vertex 3.09174 -1.38289 5
      vertex 3.09174 -1.38289 0
    endloop
  endfacet
  facet normal 0.80001 -0.599986 0
    outer loop
      vertex 3.09174 -1.38289 0
      vertex 3.09174 -1.38289 5
      vertex 3.06211 -1.4224 0
    endloop
  endfacet
  facet normal 0.80001 -0.599986 0
    outer loop
      vertex 3.09174 -1.38289 5
      vertex 3.06211 -1.4224 5
      vertex 3.06211 -1.4224 0
    endloop
  endfacet
  facet normal 0 -1 0
    outer loop
      vertex 3.06211 -1.4224 0
      vertex 3.06211 -1.4224 5
      vertex 3.05223 -1.4224 0
    endloop
  endfacet
  facet normal -0 -1 0
    outer loop
      vertex 3.06211 -1.4224 5
      vertex 3.05223 -1.4224 5
      vertex 3.05223 -1.4224 0
    endloop
  endfacet
  facet normal 0.970136 0.242561 -0
    outer loop
      vertex 3.05223 -1.4224 0
      vertex 3.05223 -1.4224 5
      vertex 3.07199 -1.50142 0
    endloop
  endfacet
  facet normal 0.970136 0.242561 0
    outer loop
      vertex 3.05223 -1.4224 5
      vertex 3.07199 -1.50142 5
      vertex 3.07199 -1.50142 0
    endloop
  endfacet
  facet normal 0.961515 -0.274753 0
    outer loop
      vertex 3.07199 -1.50142 0
      vertex 3.07199 -1.50142 5
      vertex 3.05223 -1.57056 0
    endloop
  endfacet
  facet normal 0.961515 -0.274753 0
    outer loop
      vertex 3.07199 -1.50142 5
      vertex 3.05223 -1.57056 5
      vertex 3.05223 -1.57056 0
    endloop
  endfacet
  facet normal -0.406151 -0.913806 0
    outer loop
      vertex 3.05223 -1.57056 0
      vertex 3.05223 -1.57056 5
      vertex 2.96333 -1.53105 0
    endloop
  endfacet
  facet normal -0.406151 -0.913806 0
    outer loop
      vertex 3.05223 -1.57056 5
      vertex 2.96333 -1.53105 5
      vertex 2.96333 -1.53105 0
    endloop
  endfacet
  facet normal -0.633231 -0.773963 0
    outer loop
      vertex 2.96333 -1.53105 0
      vertex 2.96333 -1.53105 5
      vertex 2.85468 -1.44215 0
    endloop
  endfacet
  facet normal -0.633231 -0.773963 0
    outer loop
      vertex 2.96333 -1.53105 5
      vertex 2.85468 -1.44215 5
      vertex 2.85468 -1.44215 0
    endloop
  endfacet
  facet normal -0.707107 -0.707107 0
    outer loop
      vertex 2.85468 -1.44215 0
      vertex 2.85468 -1.44215 5
      vertex 2.74602 -1.3335 0
    endloop
  endfacet
  facet normal -0.707107 -0.707107 0
    outer loop
      vertex 2.85468 -1.44215 5
      vertex 2.74602 -1.3335 5
      vertex 2.74602 -1.3335 0
    endloop
  endfacet
  facet normal -0.664359 -0.747413 0
    outer loop
      vertex 2.74602 -1.3335 0
      vertex 2.74602 -1.3335 5
      vertex 2.65712 -1.25448 0
    endloop
  endfacet
  facet normal -0.664359 -0.747413 0
    outer loop
      vertex 2.74602 -1.3335 5
      vertex 2.65712 -1.25448 5
      vertex 2.65712 -1.25448 0
    endloop
  endfacet
  facet normal -0.64487 -0.764292 0
    outer loop
      vertex 2.65712 -1.25448 0
      vertex 2.65712 -1.25448 5
      vertex 2.02494 -0.721076 0
    endloop
  endfacet
  facet normal -0.64487 -0.764292 0
    outer loop
      vertex 2.65712 -1.25448 5
      vertex 2.02494 -0.721076 5
      vertex 2.02494 -0.721076 0
    endloop
  endfacet
  facet normal -0.650791 -0.759257 0
    outer loop
      vertex 2.02494 -0.721076 0
      vertex 2.02494 -0.721076 5
      vertex 1.40264 -0.187676 0
    endloop
  endfacet
  facet normal -0.650791 -0.759257 0
    outer loop
      vertex 2.02494 -0.721076 5
      vertex 1.40264 -0.187676 5
      vertex 1.40264 -0.187676 0
    endloop
  endfacet
  facet normal 0.948697 -0.316186 0
    outer loop
      vertex 1.40264 -0.187676 0
      vertex 1.40264 -0.187676 5
      vertex 1.38289 -0.246944 0
    endloop
  endfacet
  facet normal 0.948697 -0.316186 0
    outer loop
      vertex 1.40264 -0.187676 5
      vertex 1.38289 -0.246944 5
      vertex 1.38289 -0.246944 0
    endloop
  endfacet
  facet normal 0.980574 0.196149 -0
    outer loop
      vertex 1.38289 -0.246944 0
      vertex 1.38289 -0.246944 5
      vertex 1.39277 -0.29633 0
    endloop
  endfacet
  facet normal 0.980574 0.196149 0
    outer loop
      vertex 1.38289 -0.246944 5
      vertex 1.39277 -0.29633 5
      vertex 1.39277 -0.29633 0
    endloop
  endfacet
  facet normal 0.316248 -0.948676 0
    outer loop
      vertex 1.39277 -0.29633 0
      vertex 1.39277 -0.29633 5
      vertex 1.3335 -0.316088 0
    endloop
  endfacet
  facet normal 0.316248 -0.948676 0
    outer loop
      vertex 1.39277 -0.29633 5
      vertex 1.3335 -0.316088 5
      vertex 1.3335 -0.316088 0
    endloop
  endfacet
  facet normal 0 1 0
    outer loop
      vertex 1.3335 -0.316088 0
      vertex 1.3335 -0.316088 5
      vertex 1.34338 -0.316088 0
    endloop
  endfacet
  facet normal -0 1 0
    outer loop
      vertex 1.3335 -0.316088 5
      vertex 1.34338 -0.316088 5
      vertex 1.34338 -0.316088 0
    endloop
  endfacet
  facet normal 0.94867 0.316269 -0
    outer loop
      vertex 1.34338 -0.316088 0
      vertex 1.34338 -0.316088 5
      vertex 1.35326 -0.34572 0
    endloop
  endfacet
  facet normal 0.94867 0.316269 0
    outer loop
      vertex 1.34338 -0.316088 5
      vertex 1.35326 -0.34572 5
      vertex 1.35326 -0.34572 0
    endloop
  endfacet
  facet normal 0.707184 0.70703 -0
    outer loop
      vertex 1.35326 -0.34572 0
      vertex 1.35326 -0.34572 5
      vertex 1.37301 -0.365477 0
    endloop
  endfacet
  facet normal 0.707184 0.70703 0
    outer loop
      vertex 1.35326 -0.34572 5
      vertex 1.37301 -0.365477 5
      vertex 1.37301 -0.365477 0
    endloop
  endfacet
  facet normal 0.98639 -0.164422 0
    outer loop
      vertex 1.37301 -0.365477 0
      vertex 1.37301 -0.365477 5
      vertex 1.36313 -0.424742 0
    endloop
  endfacet
  facet normal 0.98639 -0.164422 0
    outer loop
      vertex 1.37301 -0.365477 5
      vertex 1.36313 -0.424742 5
      vertex 1.36313 -0.424742 0
    endloop
  endfacet
  facet normal 1 0 -0
    outer loop
      vertex 1.36313 -0.424742 0
      vertex 1.36313 -0.424742 5
      vertex 1.36313 -0.474131 0
    endloop
  endfacet
  facet normal 1 0 0
    outer loop
      vertex 1.36313 -0.424742 5
      vertex 1.36313 -0.474131 5
      vertex 1.36313 -0.474131 0
    endloop
  endfacet
  facet normal 0.422883 -0.906184 0
    outer loop
      vertex 1.36313 -0.474131 0
      vertex 1.36313 -0.474131 5
      vertex 1.21496 -0.543274 0
    endloop
  endfacet
  facet normal 0.422883 -0.906184 0
    outer loop
      vertex 1.36313 -0.474131 5
      vertex 1.21496 -0.543274 5
      vertex 1.21496 -0.543274 0
    endloop
  endfacet
  facet normal 0.447225 -0.894422 0
    outer loop
      vertex 1.21496 -0.543274 0
      vertex 1.21496 -0.543274 5
      vertex 1.07667 -0.612422 0
    endloop
  endfacet
  facet normal 0.447225 -0.894422 0
    outer loop
      vertex 1.21496 -0.543274 5
      vertex 1.07667 -0.612422 5
      vertex 1.07667 -0.612422 0
    endloop
  endfacet
  facet normal 0 -1 0
    outer loop
      vertex 1.07667 -0.612422 0
      vertex 1.07667 -0.612422 5
      vertex 1.0668 -0.612422 0
    endloop
  endfacet
  facet normal -0 -1 0
    outer loop
      vertex 1.07667 -0.612422 5
      vertex 1.0668 -0.612422 5
      vertex 1.0668 -0.612422 0
    endloop
  endfacet
  facet normal -0.707261 0.706953 0
    outer loop
      vertex 1.0668 -0.612422 0
      vertex 1.0668 -0.612422 5
      vertex 1.07667 -0.602543 0
    endloop
  endfacet
  facet normal -0.707261 0.706953 0
    outer loop
      vertex 1.0668 -0.612422 5
      vertex 1.07667 -0.602543 5
      vertex 1.07667 -0.602543 0
    endloop
  endfacet
  facet normal 0.447175 -0.894447 0
    outer loop
      vertex 1.07667 -0.602543 0
      vertex 1.07667 -0.602543 5
      vertex 1.03716 -0.622296 0
    endloop
  endfacet
  facet normal 0.447175 -0.894447 0
    outer loop
      vertex 1.07667 -0.602543 5
      vertex 1.03716 -0.622296 5
      vertex 1.03716 -0.622296 0
    endloop
  endfacet
  facet normal 0.948725 -0.316104 0
    outer loop
      vertex 1.03716 -0.622296 0
      vertex 1.03716 -0.622296 5
      vertex 1.02729 -0.651933 0
    endloop
  endfacet
  facet normal 0.948725 -0.316104 0
    outer loop
      vertex 1.03716 -0.622296 5
      vertex 1.02729 -0.651933 5
      vertex 1.02729 -0.651933 0
    endloop
  endfacet
  facet normal 1 0 -0
    outer loop
      vertex 1.02729 -0.651933 0
      vertex 1.02729 -0.651933 5
      vertex 1.02729 -0.671686 0
    endloop
  endfacet
  facet normal 1 0 0
    outer loop
      vertex 1.02729 -0.651933 5
      vertex 1.02729 -0.671686 5
      vertex 1.02729 -0.671686 0
    endloop
  endfacet
  facet normal 0.447214 -0.894427 0
    outer loop
      vertex 1.02729 -0.671686 0
      vertex 1.02729 -0.671686 5
      vertex 1.00753 -0.681565 0
    endloop
  endfacet
  facet normal 0.447214 -0.894427 0
    outer loop
      vertex 1.02729 -0.671686 5
      vertex 1.00753 -0.681565 5
      vertex 1.00753 -0.681565 0
    endloop
  endfacet
  facet normal 0.995892 0.0905464 -0
    outer loop
      vertex 1.00753 -0.681565 0
      vertex 1.00753 -0.681565 5
      vertex 1.01741 -0.790219 0
    endloop
  endfacet
  facet normal 0.995892 0.0905464 0
    outer loop
      vertex 1.00753 -0.681565 5
      vertex 1.01741 -0.790219 5
      vertex 1.01741 -0.790219 0
    endloop
  endfacet
  facet normal 1 0 -0
    outer loop
      vertex 1.01741 -0.790219 0
      vertex 1.01741 -0.790219 5
      vertex 1.01741 -0.849487 0
    endloop
  endfacet
  facet normal 1 0 0
    outer loop
      vertex 1.01741 -0.790219 5
      vertex 1.01741 -0.849487 5
      vertex 1.01741 -0.849487 0
    endloop
  endfacet
  facet normal 0.98639 -0.164422 0
    outer loop
      vertex 1.01741 -0.849487 0
      vertex 1.01741 -0.849487 5
      vertex 1.00753 -0.908752 0
    endloop
  endfacet
  facet normal 0.98639 -0.164422 0
    outer loop
      vertex 1.01741 -0.849487 5
      vertex 1.00753 -0.908752 5
      vertex 1.00753 -0.908752 0
    endloop
  endfacet
  facet normal 0.672684 -0.739929 0
    outer loop
      vertex 1.00753 -0.908752 0
      vertex 1.00753 -0.908752 5
      vertex 0.898877 -1.00753 0
    endloop
  endfacet
  facet normal 0.672684 -0.739929 0
    outer loop
      vertex 1.00753 -0.908752 5
      vertex 0.898877 -1.00753 5
      vertex 0.898877 -1.00753 0
    endloop
  endfacet
  facet normal 0.668961 -0.743297 0
    outer loop
      vertex 0.898877 -1.00753 0
      vertex 0.898877 -1.00753 5
      vertex 0.800098 -1.09643 0
    endloop
  endfacet
  facet normal 0.668961 -0.743297 0
    outer loop
      vertex 0.898877 -1.00753 5
      vertex 0.800098 -1.09643 5
      vertex 0.800098 -1.09643 0
    endloop
  endfacet
  facet normal 0.164382 -0.986397 0
    outer loop
      vertex 0.800098 -1.09643 0
      vertex 0.800098 -1.09643 5
      vertex 0.681565 -1.11619 0
    endloop
  endfacet
  facet normal 0.164382 -0.986397 0
    outer loop
      vertex 0.800098 -1.09643 5
      vertex 0.681565 -1.11619 5
      vertex 0.681565 -1.11619 0
    endloop
  endfacet
  facet normal 0 -1 0
    outer loop
      vertex 0.681565 -1.11619 0
      vertex 0.681565 -1.11619 5
      vertex 0.543274 -1.11619 0
    endloop
  endfacet
  facet normal -0 -1 0
    outer loop
      vertex 0.681565 -1.11619 5
      vertex 0.543274 -1.11619 5
      vertex 0.543274 -1.11619 0
    endloop
  endfacet
  facet normal 0.0830545 -0.996545 0
    outer loop
      vertex 0.543274 -1.11619 0
      vertex 0.543274 -1.11619 5
      vertex 0.424742 -1.12606 0
    endloop
  endfacet
  facet normal 0.0830545 -0.996545 0
    outer loop
      vertex 0.543274 -1.11619 5
      vertex 0.424742 -1.12606 5
      vertex 0.424742 -1.12606 0
    endloop
  endfacet
  facet normal 0.0905464 -0.995892 0
    outer loop
      vertex 0.424742 -1.12606 0
      vertex 0.424742 -1.12606 5
      vertex 0.316088 -1.13594 0
    endloop
  endfacet
  facet normal 0.0905464 -0.995892 0
    outer loop
      vertex 0.424742 -1.12606 5
      vertex 0.316088 -1.13594 5
      vertex 0.316088 -1.13594 0
    endloop
  endfacet
  facet normal 0.242561 -0.970136 0
    outer loop
      vertex 0.316088 -1.13594 0
      vertex 0.316088 -1.13594 5
      vertex 0.276577 -1.14582 0
    endloop
  endfacet
  facet normal 0.242561 -0.970136 0
    outer loop
      vertex 0.316088 -1.13594 5
      vertex 0.276577 -1.14582 5
      vertex 0.276577 -1.14582 0
    endloop
  endfacet
  facet normal 0 -1 0
    outer loop
      vertex 0.276577 -1.14582 0
      vertex 0.276577 -1.14582 5
      vertex 0.246944 -1.14582 0
    endloop
  endfacet
  facet normal -0 -1 0
    outer loop
      vertex 0.276577 -1.14582 5
      vertex 0.246944 -1.14582 5
      vertex 0.246944 -1.14582 0
    endloop
  endfacet
  facet normal -0.410361 -0.911923 0
    outer loop
      vertex 0.246944 -1.14582 0
      vertex 0.246944 -1.14582 5
      vertex 0.0493854 -1.05692 0
    endloop
  endfacet
  facet normal -0.410361 -0.911923 0
    outer loop
      vertex 0.246944 -1.14582 5
      vertex 0.0493854 -1.05692 5
      vertex 0.0493854 -1.05692 0
    endloop
  endfacet
  facet normal -0.393929 -0.919141 0
    outer loop
      vertex 0.0493854 -1.05692 0
      vertex 0.0493854 -1.05692 5
      vertex -0.158044 -0.96802 0
    endloop
  endfacet
  facet normal -0.393929 -0.919141 0
    outer loop
      vertex 0.0493854 -1.05692 5
      vertex -0.158044 -0.96802 5
      vertex -0.158044 -0.96802 0
    endloop
  endfacet
  facet normal -0.780875 -0.624687 0
    outer loop
      vertex -0.158044 -0.96802 0
      vertex -0.158044 -0.96802 5
      vertex -0.197555 -0.91863 0
    endloop
  endfacet
  facet normal -0.780875 -0.624687 0
    outer loop
      vertex -0.158044 -0.96802 5
      vertex -0.197555 -0.91863 5
      vertex -0.197555 -0.91863 0
    endloop
  endfacet
  facet normal -0.675721 -0.737157 0
    outer loop
      vertex -0.197555 -0.91863 0
      vertex -0.197555 -0.91863 5
      vertex -0.316088 -0.809976 0
    endloop
  endfacet
  facet normal -0.675721 -0.737157 0
    outer loop
      vertex -0.197555 -0.91863 5
      vertex -0.316088 -0.809976 5
      vertex -0.316088 -0.809976 0
    endloop
  endfacet
  facet normal -0.707107 -0.707107 0
    outer loop
      vertex -0.316088 -0.809976 0
      vertex -0.316088 -0.809976 5
      vertex -0.43462 -0.691444 0
    endloop
  endfacet
  facet normal -0.707107 -0.707107 0
    outer loop
      vertex -0.316088 -0.809976 5
      vertex -0.43462 -0.691444 5
      vertex -0.43462 -0.691444 0
    endloop
  endfacet
  facet normal -0.316269 -0.94867 0
    outer loop
      vertex -0.43462 -0.691444 0
      vertex -0.43462 -0.691444 5
      vertex -0.464252 -0.681565 0
    endloop
  endfacet
  facet normal -0.316269 -0.94867 0
    outer loop
      vertex -0.43462 -0.691444 5
      vertex -0.464252 -0.681565 5
      vertex -0.464252 -0.681565 0
    endloop
  endfacet
  facet normal 1 0 -0
    outer loop
      vertex -0.464252 -0.681565 0
      vertex -0.464252 -0.681565 5
      vertex -0.464252 -0.691444 0
    endloop
  endfacet
  facet normal 1 0 0
    outer loop
      vertex -0.464252 -0.681565 5
      vertex -0.464252 -0.691444 5
      vertex -0.464252 -0.691444 0
    endloop
  endfacet
  facet normal 0.83205 0.5547 -0
    outer loop
      vertex -0.464252 -0.691444 0
      vertex -0.464252 -0.691444 5
      vertex -0.385231 -0.809976 0
    endloop
  endfacet
  facet normal 0.83205 0.5547 0
    outer loop
      vertex -0.464252 -0.691444 5
      vertex -0.385231 -0.809976 5
      vertex -0.385231 -0.809976 0
    endloop
  endfacet
  facet normal 0.863782 0.503865 -0
    outer loop
      vertex -0.385231 -0.809976 0
      vertex -0.385231 -0.809976 5
      vertex -0.316088 -0.928509 0
    endloop
  endfacet
  facet normal 0.863782 0.503865 0
    outer loop
      vertex -0.385231 -0.809976 5
      vertex -0.316088 -0.928509 5
      vertex -0.316088 -0.928509 0
    endloop
  endfacet
  facet normal 0.857506 0.514474 -0
    outer loop
      vertex -0.316088 -0.928509 0
      vertex -0.316088 -0.928509 5
      vertex -0.286455 -0.977899 0
    endloop
  endfacet
  facet normal 0.857506 0.514474 0
    outer loop
      vertex -0.316088 -0.928509 5
      vertex -0.286455 -0.977899 5
      vertex -0.286455 -0.977899 0
    endloop
  endfacet
  facet normal 0.780875 0.624687 -0
    outer loop
      vertex -0.286455 -0.977899 0
      vertex -0.286455 -0.977899 5
      vertex -0.246944 -1.02729 0
    endloop
  endfacet
  facet normal 0.780875 0.624687 0
    outer loop
      vertex -0.286455 -0.977899 5
      vertex -0.246944 -1.02729 5
      vertex -0.246944 -1.02729 0
    endloop
  endfacet
  facet normal 0.832048 0.554704 -0
    outer loop
      vertex -0.246944 -1.02729 0
      vertex -0.246944 -1.02729 5
      vertex -0.108654 -1.23472 0
    endloop
  endfacet
  facet normal 0.832048 0.554704 0
    outer loop
      vertex -0.246944 -1.02729 5
      vertex -0.108654 -1.23472 5
      vertex -0.108654 -1.23472 0
    endloop
  endfacet
  facet normal 0.850267 0.526351 -0
    outer loop
      vertex -0.108654 -1.23472 0
      vertex -0.108654 -1.23472 5
      vertex 0.0197533 -1.44215 0
    endloop
  endfacet
  facet normal 0.850267 0.526351 0
    outer loop
      vertex -0.108654 -1.23472 5
      vertex 0.0197533 -1.44215 5
      vertex 0.0197533 -1.44215 0
    endloop
  endfacet
  facet normal 0.868253 0.496121 -0
    outer loop
      vertex 0.0197533 -1.44215 0
      vertex 0.0197533 -1.44215 5
      vertex 0.0592643 -1.5113 0
    endloop
  endfacet
  facet normal 0.868253 0.496121 0
    outer loop
      vertex 0.0197533 -1.44215 5
      vertex 0.0592643 -1.5113 5
      vertex 0.0592643 -1.5113 0
    endloop
  endfacet
  facet normal 0.768203 0.640206 -0
    outer loop
      vertex 0.0592643 -1.5113 0
      vertex 0.0592643 -1.5113 5
      vertex 0.108654 -1.57056 0
    endloop
  endfacet
  facet normal 0.768203 0.640206 0
    outer loop
      vertex 0.0592643 -1.5113 5
      vertex 0.108654 -1.57056 5
      vertex 0.108654 -1.57056 0
    endloop
  endfacet
  facet normal 0.989948 -0.14143 0
    outer loop
      vertex 0.108654 -1.57056 0
      vertex 0.108654 -1.57056 5
      vertex 0.0987752 -1.63971 0
    endloop
  endfacet
  facet normal 0.989948 -0.14143 0
    outer loop
      vertex 0.108654 -1.57056 5
      vertex 0.0987752 -1.63971 5
      vertex 0.0987752 -1.63971 0
    endloop
  endfacet
  facet normal 1 0 -0
    outer loop
      vertex 0.0987752 -1.63971 0
      vertex 0.0987752 -1.63971 5
      vertex 0.0987752 -1.69897 0
    endloop
  endfacet
  facet normal 1 0 0
    outer loop
      vertex 0.0987752 -1.63971 5
      vertex 0.0987752 -1.69897 5
      vertex 0.0987752 -1.69897 0
    endloop
  endfacet
  facet normal 0.316269 -0.94867 0
    outer loop
      vertex 0.0987752 -1.69897 0
      vertex 0.0987752 -1.69897 5
      vertex 0.0691431 -1.70885 0
    endloop
  endfacet
  facet normal 0.316269 -0.94867 0
    outer loop
      vertex 0.0987752 -1.69897 5
      vertex 0.0691431 -1.70885 5
      vertex 0.0691431 -1.70885 0
    endloop
  endfacet
  facet normal 1 0 -0
    outer loop
      vertex 0.0691431 -1.70885 0
      vertex 0.0691431 -1.70885 5
      vertex 0.0691431 -1.71873 0
    endloop
  endfacet
  facet normal 1 0 0
    outer loop
      vertex 0.0691431 -1.70885 5
      vertex 0.0691431 -1.71873 5
      vertex 0.0691431 -1.71873 0
    endloop
  endfacet
  facet normal 0.832069 0.554672 -0
    outer loop
      vertex 0.0691431 -1.71873 0
      vertex 0.0691431 -1.71873 5
      vertex 0.0888964 -1.74836 0
    endloop
  endfacet
  facet normal 0.832069 0.554672 0
    outer loop
      vertex 0.0691431 -1.71873 5
      vertex 0.0888964 -1.74836 5
      vertex 0.0888964 -1.74836 0
    endloop
  endfacet
  facet normal 0.986404 -0.164341 0
    outer loop
      vertex 0.0888964 -1.74836 0
      vertex 0.0888964 -1.74836 5
      vertex 0.0790219 -1.80763 0
    endloop
  endfacet
  facet normal 0.986404 -0.164341 0
    outer loop
      vertex 0.0888964 -1.74836 5
      vertex 0.0790219 -1.80763 5
      vertex 0.0790219 -1.80763 0
    endloop
  endfacet
  facet normal 1 0 -0
    outer loop
      vertex 0.0790219 -1.80763 0
      vertex 0.0790219 -1.80763 5
      vertex 0.0790219 -1.85702 0
    endloop
  endfacet
  facet normal 1 0 0
    outer loop
      vertex 0.0790219 -1.80763 5
      vertex 0.0790219 -1.85702 5
      vertex 0.0790219 -1.85702 0
    endloop
  endfacet
  facet normal 0.316228 -0.948683 0
    outer loop
      vertex 0.0790219 -1.85702 0
      vertex 0.0790219 -1.85702 5
      vertex 0.0493854 -1.8669 0
    endloop
  endfacet
  facet normal 0.316228 -0.948683 0
    outer loop
      vertex 0.0790219 -1.85702 5
      vertex 0.0493854 -1.8669 5
      vertex 0.0493854 -1.8669 0
    endloop
  endfacet
  facet normal 0.447292 -0.894388 0
    outer loop
      vertex 0.0493854 -1.8669 0
      vertex 0.0493854 -1.8669 5
      vertex 0.0296321 -1.87678 0
    endloop
  endfacet
  facet normal 0.447292 -0.894388 0
    outer loop
      vertex 0.0493854 -1.8669 5
      vertex 0.0296321 -1.87678 5
      vertex 0.0296321 -1.87678 0
    endloop
  endfacet
  facet normal -0.424908 -0.905237 0
    outer loop
      vertex 0.0296321 -1.87678 0
      vertex 0.0296321 -1.87678 5
      vertex -0.938388 -1.4224 0
    endloop
  endfacet
  facet normal -0.424908 -0.905237 0
    outer loop
      vertex 0.0296321 -1.87678 5
      vertex -0.938388 -1.4224 5
      vertex -0.938388 -1.4224 0
    endloop
  endfacet
  facet normal -0.428488 -0.903547 0
    outer loop
      vertex -0.938388 -1.4224 0
      vertex -0.938388 -1.4224 5
      vertex -1.89653 -0.96802 0
    endloop
  endfacet
  facet normal -0.428488 -0.903547 0
    outer loop
      vertex -0.938388 -1.4224 5
      vertex -1.89653 -0.96802 5
      vertex -1.89653 -0.96802 0
    endloop
  endfacet
  facet normal -0.811532 -0.584308 0
    outer loop
      vertex -1.89653 -0.96802 0
      vertex -1.89653 -0.96802 5
      vertex -2.07433 -0.721076 0
    endloop
  endfacet
  facet normal -0.811532 -0.584308 0
    outer loop
      vertex -1.89653 -0.96802 5
      vertex -2.07433 -0.721076 5
      vertex -2.07433 -0.721076 0
    endloop
  endfacet
  facet normal -0.83697 -0.547249 0
    outer loop
      vertex -2.07433 -0.721076 0
      vertex -2.07433 -0.721076 5
      vertex -2.24225 -0.464252 0
    endloop
  endfacet
  facet normal -0.83697 -0.547249 0
    outer loop
      vertex -2.07433 -0.721076 5
      vertex -2.24225 -0.464252 5
      vertex -2.24225 -0.464252 0
    endloop
  endfacet
  facet normal -0.808733 -0.588176 0
    outer loop
      vertex -2.24225 -0.464252 0
      vertex -2.24225 -0.464252 5
      vertex -2.4003 -0.246944 0
    endloop
  endfacet
  facet normal -0.808733 -0.588176 0
    outer loop
      vertex -2.24225 -0.464252 5
      vertex -2.4003 -0.246944 5
      vertex -2.4003 -0.246944 0
    endloop
  endfacet
  facet normal -0.837609 -0.546271 0
    outer loop
      vertex -2.4003 -0.246944 0
      vertex -2.4003 -0.246944 5
      vertex -2.54847 -0.0197533 0
    endloop
  endfacet
  facet normal -0.837609 -0.546271 0
    outer loop
      vertex -2.4003 -0.246944 5
      vertex -2.54847 -0.0197533 5
      vertex -2.54847 -0.0197533 0
    endloop
  endfacet
  facet normal -0.747397 -0.664377 0
    outer loop
      vertex -2.54847 -0.0197533 0
      vertex -2.54847 -0.0197533 5
      vertex -2.62749 0.0691431 0
    endloop
  endfacet
  facet normal -0.747397 -0.664377 0
    outer loop
      vertex -2.54847 -0.0197533 5
      vertex -2.62749 0.0691431 5
      vertex -2.62749 0.0691431 0
    endloop
  endfacet
  facet normal -0.976193 -0.216905 0
    outer loop
      vertex -2.62749 0.0691431 0
      vertex -2.62749 0.0691431 5
      vertex -2.64724 0.158044 0
    endloop
  endfacet
  facet normal -0.976193 -0.216905 0
    outer loop
      vertex -2.62749 0.0691431 5
      vertex -2.64724 0.158044 5
      vertex -2.64724 0.158044 0
    endloop
  endfacet
  facet normal 0 1 0
    outer loop
      vertex -2.64724 0.158044 0
      vertex -2.64724 0.158044 5
      vertex -2.62749 0.158044 0
    endloop
  endfacet
  facet normal -0 1 0
    outer loop
      vertex -2.64724 0.158044 5
      vertex -2.62749 0.158044 5
      vertex -2.62749 0.158044 0
    endloop
  endfacet
  facet normal -0.961531 -0.274697 0
    outer loop
      vertex -2.62749 0.158044 0
      vertex -2.62749 0.158044 5
      vertex -2.64724 0.227187 0
    endloop
  endfacet
  facet normal -0.961531 -0.274697 0
    outer loop
      vertex -2.62749 0.158044 5
      vertex -2.64724 0.227187 5
      vertex -2.64724 0.227187 0
    endloop
  endfacet
  facet normal -0.447292 0.894388 0
    outer loop
      vertex -2.64724 0.227187 0
      vertex -2.64724 0.227187 5
      vertex -2.62749 0.237066 0
    endloop
  endfacet
  facet normal -0.447292 0.894388 0
    outer loop
      vertex -2.64724 0.227187 5
      vertex -2.62749 0.237066 5
      vertex -2.62749 0.237066 0
    endloop
  endfacet
  facet normal -0.316228 0.948683 0
    outer loop
      vertex -2.62749 0.237066 0
      vertex -2.62749 0.237066 5
      vertex -2.59785 0.246944 0
    endloop
  endfacet
  facet normal -0.316228 0.948683 0
    outer loop
      vertex -2.62749 0.237066 5
      vertex -2.59785 0.246944 5
      vertex -2.59785 0.246944 0
    endloop
  endfacet
  facet normal -0.70703 -0.707184 0
    outer loop
      vertex -2.59785 0.246944 0
      vertex -2.59785 0.246944 5
      vertex -2.61761 0.266698 0
    endloop
  endfacet
  facet normal -0.70703 -0.707184 0
    outer loop
      vertex -2.59785 0.246944 5
      vertex -2.61761 0.266698 5
      vertex -2.61761 0.266698 0
    endloop
  endfacet
  facet normal -0.894427 -0.447214 0
    outer loop
      vertex -2.61761 0.266698 0
      vertex -2.61761 0.266698 5
      vertex -2.62749 0.286455 0
    endloop
  endfacet
  facet normal -0.894427 -0.447214 0
    outer loop
      vertex -2.61761 0.266698 5
      vertex -2.62749 0.286455 5
      vertex -2.62749 0.286455 0
    endloop
  endfacet
  facet normal 0.447266 -0.894401 0
    outer loop
      vertex -2.62749 0.286455 0
      vertex -2.62749 0.286455 5
      vertex -2.68675 0.256819 0
    endloop
  endfacet
  facet normal 0.447266 -0.894401 0
    outer loop
      vertex -2.62749 0.286455 5
      vertex -2.68675 0.256819 5
      vertex -2.68675 0.256819 0
    endloop
  endfacet
  facet normal 0 -1 0
    outer loop
      vertex -2.68675 0.256819 0
      vertex -2.68675 0.256819 5
      vertex -2.74602 0.256819 0
    endloop
  endfacet
  facet normal -0 -1 0
    outer loop
      vertex -2.68675 0.256819 5
      vertex -2.74602 0.256819 5
      vertex -2.74602 0.256819 0
    endloop
  endfacet
  facet normal -0.857506 -0.514474 0
    outer loop
      vertex -2.74602 0.256819 0
      vertex -2.74602 0.256819 5
      vertex -2.77565 0.306209 0
    endloop
  endfacet
  facet normal -0.857506 -0.514474 0
    outer loop
      vertex -2.74602 0.256819 5
      vertex -2.77565 0.306209 5
      vertex -2.77565 0.306209 0
    endloop
  endfacet
  facet normal 0.316269 -0.94867 0
    outer loop
      vertex -2.77565 0.306209 0
      vertex -2.77565 0.306209 5
      vertex -2.80529 0.29633 0
    endloop
  endfacet
  facet normal 0.316269 -0.94867 0
    outer loop
      vertex -2.77565 0.306209 5
      vertex -2.80529 0.29633 5
      vertex -2.80529 0.29633 0
    endloop
  endfacet
  facet normal -0.447214 -0.894427 0
    outer loop
      vertex -2.80529 0.29633 0
      vertex -2.80529 0.29633 5
      vertex -2.82504 0.306209 0
    endloop
  endfacet
  facet normal -0.447214 -0.894427 0
    outer loop
      vertex -2.80529 0.29633 5
      vertex -2.82504 0.306209 5
      vertex -2.82504 0.306209 0
    endloop
  endfacet
  facet normal 0.447214 -0.894427 0
    outer loop
      vertex -2.82504 0.306209 0
      vertex -2.82504 0.306209 5
      vertex -2.88431 0.276577 0
    endloop
  endfacet
  facet normal 0.447214 -0.894427 0
    outer loop
      vertex -2.82504 0.306209 5
      vertex -2.88431 0.276577 5
      vertex -2.88431 0.276577 0
    endloop
  endfacet
  facet normal 0.164411 -0.986392 0
    outer loop
      vertex -2.88431 0.276577 0
      vertex -2.88431 0.276577 5
      vertex -2.94358 0.266698 0
    endloop
  endfacet
  facet normal 0.164411 -0.986392 0
    outer loop
      vertex -2.88431 0.276577 5
      vertex -2.94358 0.266698 5
      vertex -2.94358 0.266698 0
    endloop
  endfacet
  facet normal -0.89444 -0.447188 0
    outer loop
      vertex -2.94358 0.266698 0
      vertex -2.94358 0.266698 5
      vertex -2.97321 0.325966 0
    endloop
  endfacet
  facet normal -0.89444 -0.447188 0
    outer loop
      vertex -2.94358 0.266698 5
      vertex -2.97321 0.325966 5
      vertex -2.97321 0.325966 0
    endloop
  endfacet
  facet normal -0.819213 -0.573489 0
    outer loop
      vertex -2.97321 0.325966 0
      vertex -2.97321 0.325966 5
      vertex -3.04236 0.424742 0
    endloop
  endfacet
  facet normal -0.819213 -0.573489 0
    outer loop
      vertex -2.97321 0.325966 5
      vertex -3.04236 0.424742 5
      vertex -3.04236 0.424742 0
    endloop
  endfacet
  facet normal -0.874173 -0.485614 0
    outer loop
      vertex -3.04236 0.424742 0
      vertex -3.04236 0.424742 5
      vertex -3.09174 0.513642 0
    endloop
  endfacet
  facet normal -0.874173 -0.485614 0
    outer loop
      vertex -3.04236 0.424742 5
      vertex -3.09174 0.513642 5
      vertex -3.09174 0.513642 0
    endloop
  endfacet
  facet normal -1 0 0
    outer loop
      vertex -3.09174 0.513642 0
      vertex -3.09174 0.513642 5
      vertex -3.09174 0.563032 0
    endloop
  endfacet
  facet normal -1 0 0
    outer loop
      vertex -3.09174 0.513642 5
      vertex -3.09174 0.563032 5
      vertex -3.09174 0.563032 0
    endloop
  endfacet
  facet normal -0.98639 -0.164422 0
    outer loop
      vertex -3.09174 0.563032 0
      vertex -3.09174 0.563032 5
      vertex -3.10162 0.622296 0
    endloop
  endfacet
  facet normal -0.98639 -0.164422 0
    outer loop
      vertex -3.09174 0.563032 5
      vertex -3.10162 0.622296 5
      vertex -3.10162 0.622296 0
    endloop
  endfacet
  facet normal -0.996545 -0.0830515 0
    outer loop
      vertex -3.10162 0.622296 0
      vertex -3.10162 0.622296 5
      vertex -3.1115 0.740833 0
    endloop
  endfacet
  facet normal -0.996545 -0.0830515 0
    outer loop
      vertex -3.10162 0.622296 5
      vertex -3.1115 0.740833 5
      vertex -3.1115 0.740833 0
    endloop
  endfacet
  facet normal -0.970145 0.242527 0
    outer loop
      vertex -3.1115 0.740833 0
      vertex -3.1115 0.740833 5
      vertex -3.08187 0.859366 0
    endloop
  endfacet
  facet normal -0.970145 0.242527 0
    outer loop
      vertex -3.1115 0.740833 5
      vertex -3.08187 0.859366 5
      vertex -3.08187 0.859366 0
    endloop
  endfacet
  facet normal -0.478846 0.877899 0
    outer loop
      vertex -3.08187 0.859366 0
      vertex -3.08187 0.859366 5
      vertex -2.7559 1.03716 0
    endloop
  endfacet
  facet normal -0.478846 0.877899 0
    outer loop
      vertex -3.08187 0.859366 5
      vertex -2.7559 1.03716 5
      vertex -2.7559 1.03716 0
    endloop
  endfacet
  facet normal -0.507026 0.861931 0
    outer loop
      vertex -2.7559 1.03716 0
      vertex -2.7559 1.03716 5
      vertex -2.42005 1.23472 0
    endloop
  endfacet
  facet normal -0.507026 0.861931 0
    outer loop
      vertex -2.7559 1.03716 5
      vertex -2.42005 1.23472 5
      vertex -2.42005 1.23472 0
    endloop
  endfacet
  facet normal -0.447214 0.894427 0
    outer loop
      vertex -2.42005 1.23472 0
      vertex -2.42005 1.23472 5
      vertex -2.26201 1.31374 0
    endloop
  endfacet
  facet normal -0.447214 0.894427 0
    outer loop
      vertex -2.42005 1.23472 5
      vertex -2.26201 1.31374 5
      vertex -2.26201 1.31374 0
    endloop
  endfacet
  facet normal -0.467872 0.883796 0
    outer loop
      vertex -2.26201 1.31374 0
      vertex -2.26201 1.31374 5
      vertex -2.09409 1.40264 0
    endloop
  endfacet
  facet normal -0.467872 0.883796 0
    outer loop
      vertex -2.26201 1.31374 5
      vertex -2.09409 1.40264 5
      vertex -2.09409 1.40264 0
    endloop
  endfacet
  facet normal -1 0 0
    outer loop
      vertex -2.09409 1.40264 0
      vertex -2.09409 1.40264 5
      vertex -2.09409 1.46191 0
    endloop
  endfacet
  facet normal -1 0 0
    outer loop
      vertex -2.09409 1.40264 5
      vertex -2.09409 1.46191 5
      vertex -2.09409 1.46191 0
    endloop
  endfacet
  facet normal -0.993883 0.110442 0
    outer loop
      vertex -2.09409 1.46191 0
      vertex -2.09409 1.46191 5
      vertex -2.08421 1.55081 0
    endloop
  endfacet
  facet normal -0.993883 0.110442 0
    outer loop
      vertex -2.09409 1.46191 5
      vertex -2.08421 1.55081 5
      vertex -2.08421 1.55081 0
    endloop
  endfacet
  facet normal -0.874155 0.485647 0
    outer loop
      vertex -2.08421 1.55081 0
      vertex -2.08421 1.55081 5
      vertex -2.03482 1.63971 0
    endloop
  endfacet
  facet normal -0.874155 0.485647 0
    outer loop
      vertex -2.08421 1.55081 5
      vertex -2.03482 1.63971 5
      vertex -2.03482 1.63971 0
    endloop
  endfacet
  facet normal 0 1 0
    outer loop
      vertex -2.03482 1.63971 0
      vertex -2.03482 1.63971 5
      vertex -1.88665 1.63971 0
    endloop
  endfacet
  facet normal -0 1 0
    outer loop
      vertex -2.03482 1.63971 5
      vertex -1.88665 1.63971 5
      vertex -1.88665 1.63971 0
    endloop
  endfacet
  facet normal 0.110442 0.993883 -0
    outer loop
      vertex -1.88665 1.63971 0
      vertex -1.88665 1.63971 5
      vertex -1.79775 1.62983 0
    endloop
  endfacet
  facet normal 0.110442 0.993883 0
    outer loop
      vertex -1.88665 1.63971 5
      vertex -1.79775 1.62983 5
      vertex -1.79775 1.62983 0
    endloop
  endfacet
  facet normal 0.0995123 0.995036 -0
    outer loop
      vertex -1.79775 1.62983 0
      vertex -1.79775 1.62983 5
      vertex -1.69897 1.61995 0
    endloop
  endfacet
  facet normal 0.0995123 0.995036 0
    outer loop
      vertex -1.79775 1.62983 5
      vertex -1.69897 1.61995 5
      vertex -1.69897 1.61995 0
    endloop
  endfacet
  facet normal -1 0 0
    outer loop
      vertex -1.69897 1.61995 0
      vertex -1.69897 1.61995 5
      vertex -1.69897 1.70885 0
    endloop
  endfacet
  facet normal -1 0 0
    outer loop
      vertex -1.69897 1.61995 5
      vertex -1.69897 1.70885 5
      vertex -1.69897 1.70885 0
    endloop
  endfacet
  facet normal -0.624698 0.780867 0
    outer loop
      vertex -1.69897 1.70885 0
      vertex -1.69897 1.70885 5
      vertex -1.55081 1.82739 0
    endloop
  endfacet
  facet normal -0.624698 0.780867 0
    outer loop
      vertex -1.69897 1.70885 5
      vertex -1.55081 1.82739 5
      vertex -1.55081 1.82739 0
    endloop
  endfacet
  facet normal 0.0416351 0.999133 -0
    outer loop
      vertex -1.55081 1.82739 0
      vertex -1.55081 1.82739 5
      vertex -1.31374 1.81751 0
    endloop
  endfacet
  facet normal 0.0416351 0.999133 0
    outer loop
      vertex -1.55081 1.82739 5
      vertex -1.31374 1.81751 5
      vertex -1.31374 1.81751 0
    endloop
  endfacet
  facet normal 0 1 0
    outer loop
      vertex -1.31374 1.81751 0
      vertex -1.31374 1.81751 5
      vertex -1.08655 1.81751 0
    endloop
  endfacet
  facet normal -0 1 0
    outer loop
      vertex -1.31374 1.81751 5
      vertex -1.08655 1.81751 5
      vertex -1.08655 1.81751 0
    endloop
  endfacet
  facet normal -0.707107 0.707107 0
    outer loop
      vertex -1.08655 1.81751 0
      vertex -1.08655 1.81751 5
      vertex -1.07667 1.82739 0
    endloop
  endfacet
  facet normal -0.707107 0.707107 0
    outer loop
      vertex -1.08655 1.81751 5
      vertex -1.07667 1.82739 5
      vertex -1.07667 1.82739 0
    endloop
  endfacet
  facet normal 0 1 0
    outer loop
      vertex -1.07667 1.82739 0
      vertex -1.07667 1.82739 5
      vertex -0.987778 1.82739 0
    endloop
  endfacet
  facet normal -0 1 0
    outer loop
      vertex -1.07667 1.82739 5
      vertex -0.987778 1.82739 5
      vertex -0.987778 1.82739 0
    endloop
  endfacet
  facet normal -0.894408 0.447253 0
    outer loop
      vertex -0.987778 1.82739 0
      vertex -0.987778 1.82739 5
      vertex -0.96802 1.8669 0
    endloop
  endfacet
  facet normal -0.894408 0.447253 0
    outer loop
      vertex -0.987778 1.82739 5
      vertex -0.96802 1.8669 5
      vertex -0.96802 1.8669 0
    endloop
  endfacet
  facet normal -0.0995123 0.995036 0
    outer loop
      vertex -0.96802 1.8669 0
      vertex -0.96802 1.8669 5
      vertex -0.869241 1.87678 0
    endloop
  endfacet
  facet normal -0.0995123 0.995036 0
    outer loop
      vertex -0.96802 1.8669 5
      vertex -0.869241 1.87678 5
      vertex -0.869241 1.87678 0
    endloop
  endfacet
  facet normal 0.263111 0.964766 -0
    outer loop
      vertex -0.869241 1.87678 0
      vertex -0.869241 1.87678 5
      vertex -0.760587 1.84714 0
    endloop
  endfacet
  facet normal 0.263111 0.964766 0
    outer loop
      vertex -0.869241 1.87678 5
      vertex -0.760587 1.84714 5
      vertex -0.760587 1.84714 0
    endloop
  endfacet
endsolid OpenSCAD_Model
