solid OpenSCAD_Model
  facet normal 0 0 -1
    outer loop
      vertex 2.14841 1.17545 0
      vertex 1.97062 1.3335 0
      vertex 2.15829 1.26435 0
    endloop
  endfacet
  facet normal 0 0 -1
    outer loop
      vertex 1.00259 1.57056 0
      vertex 1.15076 1.71873 0
      vertex 1.16064 1.63971 0
    endloop
  endfacet
  facet normal 0 0 -1
    outer loop
      vertex 1.63477 1.46191 0
      vertex 1.97062 1.3335 0
      vertex 2.14841 1.17545 0
    endloop
  endfacet
  facet normal 0 0 -1
    outer loop
      vertex 1.17051 1.54093 0
      vertex 1.00259 1.57056 0
      vertex 1.16064 1.63971 0
    endloop
  endfacet
  facet normal 0 0 -1
    outer loop
      vertex 1.4866 0.938388 0
      vertex 1.3088 1.4224 0
      vertex 1.56562 1.3335 0
    endloop
  endfacet
  facet normal 0 -0 -1
    outer loop
      vertex 2.15829 1.26435 0
      vertex 2.17805 1.20509 0
      vertex 2.14841 1.17545 0
    endloop
  endfacet
  facet normal -0 -0 -1
    outer loop
      vertex 1.63477 1.46191 0
      vertex 2.14841 1.17545 0
      vertex 1.17051 1.54093 0
    endloop
  endfacet
  facet normal 0 0 -1
    outer loop
      vertex 2.40524 -0.839609 0
      vertex 2.49414 -0.256819 0
      vertex 2.66206 -0.365477 0
    endloop
  endfacet
  facet normal 0 0 -1
    outer loop
      vertex 1.63477 1.46191 0
      vertex 1.17051 1.54093 0
      vertex 1.16064 1.63971 0
    endloop
  endfacet
  facet normal -0 0 -1
    outer loop
      vertex 1.65452 0.958141 0
      vertex 1.55575 0.928509 0
      vertex 1.73355 1.09643 0
    endloop
  endfacet
  facet normal -0 0 -1
    outer loop
      vertex 1.15076 1.71873 0
      vertex 1.00259 1.57056 0
      vertex 0.0049351 2.21262 0
    endloop
  endfacet
  facet normal -0 0 -1
    outer loop
      vertex 1.00259 1.57056 0
      vertex 0.97296 1.54093 0
      vertex 0.0049351 2.21262 0
    endloop
  endfacet
  facet normal 0 0 -1
    outer loop
      vertex 1.56562 1.3335 0
      vertex 1.71379 1.27423 0
      vertex 1.73355 1.09643 0
    endloop
  endfacet
  facet normal -0 0 -1
    outer loop
      vertex 0.765526 1.20509 0
      vertex 0.538335 0.760587 0
      vertex 0.0049351 2.21262 0
    endloop
  endfacet
  facet normal -0 0 -1
    outer loop
      vertex 1.05198 0.5334 0
      vertex 1.03222 0.513642 0
      vertex 1.0421 0.563032 0
    endloop
  endfacet
  facet normal 0 0 -1
    outer loop
      vertex 1.55575 0.928509 0
      vertex 1.4866 0.938388 0
      vertex 1.73355 1.09643 0
    endloop
  endfacet
  facet normal 0 0 -1
    outer loop
      vertex 1.4866 0.938388 0
      vertex 1.56562 1.3335 0
      vertex 1.73355 1.09643 0
    endloop
  endfacet
  facet normal 0 0 -1
    outer loop
      vertex 0.765526 1.20509 0
      vertex 1.3088 1.4224 0
      vertex 1.4866 0.938388 0
    endloop
  endfacet
  facet normal -0 -0 -1
    outer loop
      vertex 0.963081 0.642054 0
      vertex 0.982838 0.612422 0
      vertex 0.864306 0.642054 0
    endloop
  endfacet
  facet normal 0 -0 -1
    outer loop
      vertex 0.97296 1.54093 0
      vertex 1.3088 1.4224 0
      vertex 0.765526 1.20509 0
    endloop
  endfacet
  facet normal -0 0 -1
    outer loop
      vertex 1.0421 0.563032 0
      vertex 1.01247 0.503763 0
      vertex 1.01247 0.592664 0
    endloop
  endfacet
  facet normal -0 0 -1
    outer loop
      vertex 0.97296 1.54093 0
      vertex 0.765526 1.20509 0
      vertex 0.0049351 2.21262 0
    endloop
  endfacet
  facet normal 0 0 -1
    outer loop
      vertex 0.538335 0.760587 0
      vertex 0.864306 0.642054 0
      vertex 0.538335 -0.276577 0
    endloop
  endfacet
  facet normal 0 0 -1
    outer loop
      vertex 2.40524 -0.839609 0
      vertex 2.8201 -0.454374 0
      vertex 2.70157 -0.928509 0
    endloop
  endfacet
  facet normal -0 0 -1
    outer loop
      vertex 1.03222 0.513642 0
      vertex 1.01247 0.503763 0
      vertex 1.0421 0.563032 0
    endloop
  endfacet
  facet normal 0 0 -1
    outer loop
      vertex 1.01247 0.503763 0
      vertex 0.982838 0.612422 0
      vertex 1.01247 0.592664 0
    endloop
  endfacet
  facet normal 0 0 -1
    outer loop
      vertex 0.864306 0.642054 0
      vertex 0.982838 0.612422 0
      vertex 1.01247 0.503763 0
    endloop
  endfacet
  facet normal 0 0 -1
    outer loop
      vertex 0.538335 -0.276577 0
      vertex 1.01247 0.503763 0
      vertex 0.755647 -0.325966 0
    endloop
  endfacet
  facet normal 0 0 -1
    outer loop
      vertex 3.03742 -0.661807 0
      vertex 3.16583 -0.82973 0
      vertex 3.04729 -0.987778 0
    endloop
  endfacet
  facet normal 0 0 -1
    outer loop
      vertex -2.98803 -1.53105 0
      vertex -2.98803 -1.48167 0
      vertex -2.97815 -1.54093 0
    endloop
  endfacet
  facet normal -0 0 -1
    outer loop
      vertex 3.03742 -0.661807 0
      vertex 2.70157 -0.928509 0
      vertex 2.8201 -0.454374 0
    endloop
  endfacet
  facet normal 0 0 -1
    outer loop
      vertex 3.16583 -0.82973 0
      vertex 3.13619 -0.938388 0
      vertex 3.04729 -0.987778 0
    endloop
  endfacet
  facet normal 0 -0 -1
    outer loop
      vertex 3.03742 -0.661807 0
      vertex 3.04729 -0.987778 0
      vertex 2.70157 -0.928509 0
    endloop
  endfacet
  facet normal 0 -0 -1
    outer loop
      vertex 2.66206 -0.365477 0
      vertex 2.8201 -0.454374 0
      vertex 2.40524 -0.839609 0
    endloop
  endfacet
  facet normal 0 0 -1
    outer loop
      vertex 2.09903 -0.711197 0
      vertex 2.40524 -0.839609 0
      vertex 2.12866 -0.750708 0
    endloop
  endfacet
  facet normal 0 0 -1
    outer loop
      vertex 2.49414 -0.256819 0
      vertex 2.40524 -0.839609 0
      vertex 2.09903 -0.711197 0
    endloop
  endfacet
  facet normal -0 0 -1
    outer loop
      vertex 2.49414 -0.256819 0
      vertex 2.09903 -0.711197 0
      vertex 2.2867 -0.148165 0
    endloop
  endfacet
  facet normal 0 0 -1
    outer loop
      vertex -0.903816 -1.67922 0
      vertex -0.982838 -1.74836 0
      vertex -1.03222 -1.75824 0
    endloop
  endfacet
  facet normal 0 0 -1
    outer loop
      vertex 2.09903 -0.711197 0
      vertex 2.21756 -0.128407 0
      vertex 2.2867 -0.148165 0
    endloop
  endfacet
  facet normal 0 0 -1
    outer loop
      vertex 1.01247 0.503763 0
      vertex 2.21756 -0.128407 0
      vertex 1.05198 -0.414863 0
    endloop
  endfacet
  facet normal 0 0 -1
    outer loop
      vertex 1.05198 -0.414863 0
      vertex 2.21756 -0.128407 0
      vertex 2.09903 -0.711197 0
    endloop
  endfacet
  facet normal 0 -0 -1
    outer loop
      vertex 1.01247 0.503763 0
      vertex 1.05198 -0.414863 0
      vertex 0.755647 -0.325966 0
    endloop
  endfacet
  facet normal 0 -0 -1
    outer loop
      vertex 0.864306 0.642054 0
      vertex 1.01247 0.503763 0
      vertex 0.538335 -0.276577 0
    endloop
  endfacet
  facet normal 0 -0 -1
    outer loop
      vertex 0.538335 0.760587 0
      vertex 0.538335 -0.276577 0
      vertex 0.271637 -0.207429 0
    endloop
  endfacet
  facet normal 0 0 -1
    outer loop
      vertex 0.538335 0.760587 0
      vertex 0.271637 -0.207429 0
      vertex -0.0543248 -0.118533 0
    endloop
  endfacet
  facet normal 0 -0 -1
    outer loop
      vertex -1.24954 1.83727 0
      vertex -0.0543248 -0.118533 0
      vertex -1.63477 1.64958 0
    endloop
  endfacet
  facet normal 0 0 -1
    outer loop
      vertex -3.09668 -1.02729 0
      vertex -3.14607 -0.790219 0
      vertex -2.97815 -1.0668 0
    endloop
  endfacet
  facet normal -0 0 -1
    outer loop
      vertex -0.903816 -1.67922 0
      vertex -1.03222 -1.75824 0
      vertex -0.87418 -1.54093 0
    endloop
  endfacet
  facet normal 0 -0 -1
    outer loop
      vertex -0.963081 -1.38289 0
      vertex -0.87418 -1.54093 0
      vertex -1.03222 -1.75824 0
    endloop
  endfacet
  facet normal 0 0 -1
    outer loop
      vertex -2.98803 -1.48167 0
      vertex -2.97815 -1.3335 0
      vertex -2.97815 -1.54093 0
    endloop
  endfacet
  facet normal 0 0 -1
    outer loop
      vertex -0.82479 -2.21262 0
      vertex -0.795158 -2.12372 0
      vertex -0.765526 -2.16323 0
    endloop
  endfacet
  facet normal 0 0 -1
    outer loop
      vertex -1.03222 -1.75824 0
      vertex -1.11125 -1.34338 0
      vertex -0.963081 -1.38289 0
    endloop
  endfacet
  facet normal 0 0 -1
    outer loop
      vertex -1.29893 -1.28411 0
      vertex -1.11125 -1.34338 0
      vertex -1.03222 -1.75824 0
    endloop
  endfacet
  facet normal 0 -0 -1
    outer loop
      vertex -1.29893 -1.28411 0
      vertex -1.03222 -1.75824 0
      vertex -1.82245 -1.49154 0
    endloop
  endfacet
  facet normal -0 0 -1
    outer loop
      vertex -1.29893 -1.28411 0
      vertex -1.82245 -1.49154 0
      vertex -1.54587 -1.21496 0
    endloop
  endfacet
  facet normal -0 0 -1
    outer loop
      vertex -1.92123 -1.6891 0
      vertex -2.01013 -1.8669 0
      vertex -2.97815 -1.54093 0
    endloop
  endfacet
  facet normal 0 0 -1
    outer loop
      vertex -1.90147 -1.85702 0
      vertex -1.76318 -1.76812 0
      vertex -1.79281 -1.8669 0
    endloop
  endfacet
  facet normal 0 0 -1
    outer loop
      vertex -1.76318 -1.76812 0
      vertex -1.32856 -1.92617 0
      vertex -1.63477 -1.93604 0
    endloop
  endfacet
  facet normal 0 0 -1
    outer loop
      vertex -0.82479 -2.21262 0
      vertex -0.884059 -2.20274 0
      vertex -0.795158 -2.12372 0
    endloop
  endfacet
  facet normal -0 0 -1
    outer loop
      vertex -2.35585 1.88665 0
      vertex -2.70157 1.21496 0
      vertex -2.41512 1.88665 0
    endloop
  endfacet
  facet normal 0 0 -1
    outer loop
      vertex -0.884059 -2.20274 0
      vertex -0.854427 -2.09409 0
      vertex -0.795158 -2.12372 0
    endloop
  endfacet
  facet normal 0 0 -1
    outer loop
      vertex -1.31868 -2.0447 0
      vertex -0.854427 -2.09409 0
      vertex -0.884059 -2.20274 0
    endloop
  endfacet
  facet normal 0 0 -1
    outer loop
      vertex -1.32856 -1.92617 0
      vertex -0.854427 -2.09409 0
      vertex -1.31868 -2.0447 0
    endloop
  endfacet
  facet normal 0 -0 -1
    outer loop
      vertex -1.32856 -1.92617 0
      vertex -1.31868 -2.0447 0
      vertex -1.63477 -1.93604 0
    endloop
  endfacet
  facet normal 0 -0 -1
    outer loop
      vertex -1.76318 -1.76812 0
      vertex -1.63477 -1.93604 0
      vertex -1.79281 -1.8669 0
    endloop
  endfacet
  facet normal 0 -0 -1
    outer loop
      vertex -1.85208 -1.70885 0
      vertex -1.76318 -1.76812 0
      vertex -1.90147 -1.85702 0
    endloop
  endfacet
  facet normal 0 0 -1
    outer loop
      vertex -1.85208 -1.70885 0
      vertex -1.90147 -1.85702 0
      vertex -1.96074 -1.83727 0
    endloop
  endfacet
  facet normal -0 0 -1
    outer loop
      vertex -1.85208 -1.70885 0
      vertex -1.96074 -1.83727 0
      vertex -1.92123 -1.6891 0
    endloop
  endfacet
  facet normal -0 0 -1
    outer loop
      vertex -1.96074 -1.83727 0
      vertex -2.01013 -1.8669 0
      vertex -1.92123 -1.6891 0
    endloop
  endfacet
  facet normal 0 0 -1
    outer loop
      vertex -2.98803 -1.48167 0
      vertex -2.9979 -1.3335 0
      vertex -2.97815 -1.3335 0
    endloop
  endfacet
  facet normal 0 0 -1
    outer loop
      vertex -3.06705 -1.41252 0
      vertex -3.04729 -1.35326 0
      vertex -2.9979 -1.3335 0
    endloop
  endfacet
  facet normal 0 0 -1
    outer loop
      vertex -3.06705 -1.41252 0
      vertex -2.9979 -1.3335 0
      vertex -2.98803 -1.48167 0
    endloop
  endfacet
  facet normal 0 0 -1
    outer loop
      vertex -2.97815 -1.54093 0
      vertex -2.97815 -1.3335 0
      vertex -1.92123 -1.6891 0
    endloop
  endfacet
  facet normal 0 0 -1
    outer loop
      vertex -2.98803 -1.12606 0
      vertex -2.97815 -1.0668 0
      vertex -2.97815 -1.21496 0
    endloop
  endfacet
  facet normal 0 0 -1
    outer loop
      vertex -2.97815 -1.3335 0
      vertex -1.82245 -1.49154 0
      vertex -1.92123 -1.6891 0
    endloop
  endfacet
  facet normal 0 0 -1
    outer loop
      vertex -2.97815 -1.21496 0
      vertex -1.82245 -1.49154 0
      vertex -2.97815 -1.3335 0
    endloop
  endfacet
  facet normal 0 0 -1
    outer loop
      vertex -2.97815 -1.0668 0
      vertex -1.82245 -1.49154 0
      vertex -2.97815 -1.21496 0
    endloop
  endfacet
  facet normal 0 0 -1
    outer loop
      vertex -3.14607 -0.790219 0
      vertex -2.93864 -0.681565 0
      vertex -2.97815 -1.0668 0
    endloop
  endfacet
  facet normal 0 0 -1
    outer loop
      vertex -3.14607 -0.790219 0
      vertex -3.09668 -0.691444 0
      vertex -2.98803 -0.671686 0
    endloop
  endfacet
  facet normal 0 -0 -1
    outer loop
      vertex -3.14607 -0.790219 0
      vertex -3.09668 -1.02729 0
      vertex -3.16583 -0.948263 0
    endloop
  endfacet
  facet normal 0 0 -1
    outer loop
      vertex -3.14607 -0.790219 0
      vertex -2.98803 -0.671686 0
      vertex -2.93864 -0.681565 0
    endloop
  endfacet
  facet normal 0 0 -1
    outer loop
      vertex -2.97815 -1.0668 0
      vertex -2.93864 -0.681565 0
      vertex -1.82245 -1.49154 0
    endloop
  endfacet
  facet normal -0 0 -1
    outer loop
      vertex -0.0543248 -0.118533 0
      vertex -1.54587 -1.21496 0
      vertex -2.59292 0.622296 0
    endloop
  endfacet
  facet normal 0 0 -1
    outer loop
      vertex -2.41512 1.88665 0
      vertex -2.75096 1.26435 0
      vertex -2.80035 1.3335 0
    endloop
  endfacet
  facet normal 0 0 -1
    outer loop
      vertex -2.93864 -0.681565 0
      vertex -1.54587 -1.21496 0
      vertex -1.82245 -1.49154 0
    endloop
  endfacet
  facet normal 0 -0 -1
    outer loop
      vertex -2.59292 0.622296 0
      vertex -1.54587 -1.21496 0
      vertex -2.93864 -0.681565 0
    endloop
  endfacet
  facet normal 0 0 -1
    outer loop
      vertex -1.63477 1.64958 0
      vertex -2.59292 0.622296 0
      vertex -2.63243 0.888998 0
    endloop
  endfacet
  facet normal 0 0 -1
    outer loop
      vertex -2.70157 1.21496 0
      vertex -1.63477 1.64958 0
      vertex -2.67194 1.08655 0
    endloop
  endfacet
  facet normal 0 -0 -1
    outer loop
      vertex -2.35585 1.88665 0
      vertex -1.63477 1.64958 0
      vertex -2.70157 1.21496 0
    endloop
  endfacet
  facet normal 0 0 -1
    outer loop
      vertex -2.70157 1.21496 0
      vertex -2.75096 1.26435 0
      vertex -2.41512 1.88665 0
    endloop
  endfacet
  facet normal 0 0 -1
    outer loop
      vertex -2.80035 1.3335 0
      vertex -2.85961 1.41252 0
      vertex -2.41512 1.88665 0
    endloop
  endfacet
  facet normal 0 0 -1
    outer loop
      vertex -1.63477 1.64958 0
      vertex -2.63243 0.888998 0
      vertex -2.67194 1.08655 0
    endloop
  endfacet
  facet normal 0 -0 -1
    outer loop
      vertex -0.963081 1.97556 0
      vertex -0.0543248 -0.118533 0
      vertex -1.24954 1.83727 0
    endloop
  endfacet
  facet normal 0 0 -1
    outer loop
      vertex -0.0543248 -0.118533 0
      vertex -2.59292 0.622296 0
      vertex -1.63477 1.64958 0
    endloop
  endfacet
  facet normal -0 0 -1
    outer loop
      vertex 0.538335 0.760587 0
      vertex -0.0543248 -0.118533 0
      vertex -0.963081 1.97556 0
    endloop
  endfacet
  facet normal 0 0 -1
    outer loop
      vertex 0.538335 0.760587 0
      vertex -0.963081 1.97556 0
      vertex -0.785279 2.06445 0
    endloop
  endfacet
  facet normal 0 0 -1
    outer loop
      vertex 0.538335 0.760587 0
      vertex -0.785279 2.06445 0
      vertex -0.43956 2.21262 0
    endloop
  endfacet
  facet normal 0 0 -1
    outer loop
      vertex -0.785279 2.06445 0
      vertex -0.745768 2.16323 0
      vertex -0.686504 2.20274 0
    endloop
  endfacet
  facet normal 0 0 -1
    outer loop
      vertex -0.785279 2.06445 0
      vertex -0.518582 2.20274 0
      vertex -0.43956 2.21262 0
    endloop
  endfacet
  facet normal 0 0 -1
    outer loop
      vertex -0.785279 2.06445 0
      vertex -0.686504 2.20274 0
      vertex -0.518582 2.20274 0
    endloop
  endfacet
  facet normal 0 0 -1
    outer loop
      vertex 0.538335 0.760587 0
      vertex -0.43956 2.21262 0
      vertex 0.0049351 2.21262 0
    endloop
  endfacet
  facet normal 0 0 1
    outer loop
      vertex 2.15829 1.26435 5
      vertex 1.97062 1.3335 5
      vertex 2.14841 1.17545 5
    endloop
  endfacet
  facet normal 0 0 1
    outer loop
      vertex 1.16064 1.63971 5
      vertex 1.15076 1.71873 5
      vertex 1.00259 1.57056 5
    endloop
  endfacet
  facet normal 0 0 1
    outer loop
      vertex 2.14841 1.17545 5
      vertex 1.97062 1.3335 5
      vertex 1.63477 1.46191 5
    endloop
  endfacet
  facet normal 0 0 1
    outer loop
      vertex 1.16064 1.63971 5
      vertex 1.00259 1.57056 5
      vertex 1.17051 1.54093 5
    endloop
  endfacet
  facet normal 0 0 1
    outer loop
      vertex 1.56562 1.3335 5
      vertex 1.3088 1.4224 5
      vertex 1.4866 0.938388 5
    endloop
  endfacet
  facet normal 0 0 1
    outer loop
      vertex 2.14841 1.17545 5
      vertex 2.17805 1.20509 5
      vertex 2.15829 1.26435 5
    endloop
  endfacet
  facet normal 0 0 1
    outer loop
      vertex 1.17051 1.54093 5
      vertex 2.14841 1.17545 5
      vertex 1.63477 1.46191 5
    endloop
  endfacet
  facet normal 0 0 1
    outer loop
      vertex 2.66206 -0.365477 5
      vertex 2.49414 -0.256819 5
      vertex 2.40524 -0.839609 5
    endloop
  endfacet
  facet normal 0 0 1
    outer loop
      vertex 1.16064 1.63971 5
      vertex 1.17051 1.54093 5
      vertex 1.63477 1.46191 5
    endloop
  endfacet
  facet normal 0 0 1
    outer loop
      vertex 1.73355 1.09643 5
      vertex 1.55575 0.928509 5
      vertex 1.65452 0.958141 5
    endloop
  endfacet
  facet normal 0 0 1
    outer loop
      vertex 0.0049351 2.21262 5
      vertex 1.00259 1.57056 5
      vertex 1.15076 1.71873 5
    endloop
  endfacet
  facet normal 0 0 1
    outer loop
      vertex 0.0049351 2.21262 5
      vertex 0.97296 1.54093 5
      vertex 1.00259 1.57056 5
    endloop
  endfacet
  facet normal 0 0 1
    outer loop
      vertex 1.73355 1.09643 5
      vertex 1.71379 1.27423 5
      vertex 1.56562 1.3335 5
    endloop
  endfacet
  facet normal 0 0 1
    outer loop
      vertex 0.0049351 2.21262 5
      vertex 0.538335 0.760587 5
      vertex 0.765526 1.20509 5
    endloop
  endfacet
  facet normal 0 0 1
    outer loop
      vertex 1.0421 0.563032 5
      vertex 1.03222 0.513642 5
      vertex 1.05198 0.5334 5
    endloop
  endfacet
  facet normal 0 0 1
    outer loop
      vertex 1.73355 1.09643 5
      vertex 1.4866 0.938388 5
      vertex 1.55575 0.928509 5
    endloop
  endfacet
  facet normal 0 0 1
    outer loop
      vertex 1.73355 1.09643 5
      vertex 1.56562 1.3335 5
      vertex 1.4866 0.938388 5
    endloop
  endfacet
  facet normal 0 0 1
    outer loop
      vertex 1.4866 0.938388 5
      vertex 1.3088 1.4224 5
      vertex 0.765526 1.20509 5
    endloop
  endfacet
  facet normal -0 0 1
    outer loop
      vertex 0.864306 0.642054 5
      vertex 0.982838 0.612422 5
      vertex 0.963081 0.642054 5
    endloop
  endfacet
  facet normal 0 0 1
    outer loop
      vertex 0.765526 1.20509 5
      vertex 1.3088 1.4224 5
      vertex 0.97296 1.54093 5
    endloop
  endfacet
  facet normal 0 0 1
    outer loop
      vertex 1.01247 0.592664 5
      vertex 1.01247 0.503763 5
      vertex 1.0421 0.563032 5
    endloop
  endfacet
  facet normal 0 0 1
    outer loop
      vertex 0.0049351 2.21262 5
      vertex 0.765526 1.20509 5
      vertex 0.97296 1.54093 5
    endloop
  endfacet
  facet normal 0 0 1
    outer loop
      vertex 0.538335 -0.276577 5
      vertex 0.864306 0.642054 5
      vertex 0.538335 0.760587 5
    endloop
  endfacet
  facet normal 0 -0 1
    outer loop
      vertex 2.70157 -0.928509 5
      vertex 2.8201 -0.454374 5
      vertex 2.40524 -0.839609 5
    endloop
  endfacet
  facet normal 0 0 1
    outer loop
      vertex 1.0421 0.563032 5
      vertex 1.01247 0.503763 5
      vertex 1.03222 0.513642 5
    endloop
  endfacet
  facet normal 0 0 1
    outer loop
      vertex 1.01247 0.592664 5
      vertex 0.982838 0.612422 5
      vertex 1.01247 0.503763 5
    endloop
  endfacet
  facet normal 0 0 1
    outer loop
      vertex 1.01247 0.503763 5
      vertex 0.982838 0.612422 5
      vertex 0.864306 0.642054 5
    endloop
  endfacet
  facet normal 0 -0 1
    outer loop
      vertex 0.755647 -0.325966 5
      vertex 1.01247 0.503763 5
      vertex 0.538335 -0.276577 5
    endloop
  endfacet
  facet normal 0 -0 1
    outer loop
      vertex 3.04729 -0.987778 5
      vertex 3.16583 -0.82973 5
      vertex 3.03742 -0.661807 5
    endloop
  endfacet
  facet normal 0 0 1
    outer loop
      vertex -2.97815 -1.54093 5
      vertex -2.98803 -1.48167 5
      vertex -2.98803 -1.53105 5
    endloop
  endfacet
  facet normal 0 0 1
    outer loop
      vertex 2.8201 -0.454374 5
      vertex 2.70157 -0.928509 5
      vertex 3.03742 -0.661807 5
    endloop
  endfacet
  facet normal 0 0 1
    outer loop
      vertex 3.04729 -0.987778 5
      vertex 3.13619 -0.938388 5
      vertex 3.16583 -0.82973 5
    endloop
  endfacet
  facet normal -0 0 1
    outer loop
      vertex 2.70157 -0.928509 5
      vertex 3.04729 -0.987778 5
      vertex 3.03742 -0.661807 5
    endloop
  endfacet
  facet normal 0 0 1
    outer loop
      vertex 2.40524 -0.839609 5
      vertex 2.8201 -0.454374 5
      vertex 2.66206 -0.365477 5
    endloop
  endfacet
  facet normal -0 -0 1
    outer loop
      vertex 2.12866 -0.750708 5
      vertex 2.40524 -0.839609 5
      vertex 2.09903 -0.711197 5
    endloop
  endfacet
  facet normal -0 0 1
    outer loop
      vertex 2.09903 -0.711197 5
      vertex 2.40524 -0.839609 5
      vertex 2.49414 -0.256819 5
    endloop
  endfacet
  facet normal 0 0 1
    outer loop
      vertex 2.2867 -0.148165 5
      vertex 2.09903 -0.711197 5
      vertex 2.49414 -0.256819 5
    endloop
  endfacet
  facet normal 0 0 1
    outer loop
      vertex -1.03222 -1.75824 5
      vertex -0.982838 -1.74836 5
      vertex -0.903816 -1.67922 5
    endloop
  endfacet
  facet normal 0 0 1
    outer loop
      vertex 2.2867 -0.148165 5
      vertex 2.21756 -0.128407 5
      vertex 2.09903 -0.711197 5
    endloop
  endfacet
  facet normal 0 -0 1
    outer loop
      vertex 1.05198 -0.414863 5
      vertex 2.21756 -0.128407 5
      vertex 1.01247 0.503763 5
    endloop
  endfacet
  facet normal 0 -0 1
    outer loop
      vertex 2.09903 -0.711197 5
      vertex 2.21756 -0.128407 5
      vertex 1.05198 -0.414863 5
    endloop
  endfacet
  facet normal -0 0 1
    outer loop
      vertex 0.755647 -0.325966 5
      vertex 1.05198 -0.414863 5
      vertex 1.01247 0.503763 5
    endloop
  endfacet
  facet normal 0 0 1
    outer loop
      vertex 0.538335 -0.276577 5
      vertex 1.01247 0.503763 5
      vertex 0.864306 0.642054 5
    endloop
  endfacet
  facet normal -0 0 1
    outer loop
      vertex 0.271637 -0.207429 5
      vertex 0.538335 -0.276577 5
      vertex 0.538335 0.760587 5
    endloop
  endfacet
  facet normal -0 0 1
    outer loop
      vertex -0.0543248 -0.118533 5
      vertex 0.271637 -0.207429 5
      vertex 0.538335 0.760587 5
    endloop
  endfacet
  facet normal -0 0 1
    outer loop
      vertex -1.63477 1.64958 5
      vertex -0.0543248 -0.118533 5
      vertex -1.24954 1.83727 5
    endloop
  endfacet
  facet normal 0 0 1
    outer loop
      vertex -2.97815 -1.0668 5
      vertex -3.14607 -0.790219 5
      vertex -3.09668 -1.02729 5
    endloop
  endfacet
  facet normal 0 0 1
    outer loop
      vertex -0.87418 -1.54093 5
      vertex -1.03222 -1.75824 5
      vertex -0.903816 -1.67922 5
    endloop
  endfacet
  facet normal 0 0 1
    outer loop
      vertex -1.03222 -1.75824 5
      vertex -0.87418 -1.54093 5
      vertex -0.963081 -1.38289 5
    endloop
  endfacet
  facet normal 0 -0 1
    outer loop
      vertex -2.97815 -1.54093 5
      vertex -2.97815 -1.3335 5
      vertex -2.98803 -1.48167 5
    endloop
  endfacet
  facet normal 0 0 1
    outer loop
      vertex -0.765526 -2.16323 5
      vertex -0.795158 -2.12372 5
      vertex -0.82479 -2.21262 5
    endloop
  endfacet
  facet normal 0 0 1
    outer loop
      vertex -0.963081 -1.38289 5
      vertex -1.11125 -1.34338 5
      vertex -1.03222 -1.75824 5
    endloop
  endfacet
  facet normal 0 0 1
    outer loop
      vertex -1.03222 -1.75824 5
      vertex -1.11125 -1.34338 5
      vertex -1.29893 -1.28411 5
    endloop
  endfacet
  facet normal -0 0 1
    outer loop
      vertex -1.82245 -1.49154 5
      vertex -1.03222 -1.75824 5
      vertex -1.29893 -1.28411 5
    endloop
  endfacet
  facet normal 0 0 1
    outer loop
      vertex -1.54587 -1.21496 5
      vertex -1.82245 -1.49154 5
      vertex -1.29893 -1.28411 5
    endloop
  endfacet
  facet normal 0 0 1
    outer loop
      vertex -2.97815 -1.54093 5
      vertex -2.01013 -1.8669 5
      vertex -1.92123 -1.6891 5
    endloop
  endfacet
  facet normal 0 -0 1
    outer loop
      vertex -1.79281 -1.8669 5
      vertex -1.76318 -1.76812 5
      vertex -1.90147 -1.85702 5
    endloop
  endfacet
  facet normal 0 -0 1
    outer loop
      vertex -1.63477 -1.93604 5
      vertex -1.32856 -1.92617 5
      vertex -1.76318 -1.76812 5
    endloop
  endfacet
  facet normal 0 0 1
    outer loop
      vertex -0.795158 -2.12372 5
      vertex -0.884059 -2.20274 5
      vertex -0.82479 -2.21262 5
    endloop
  endfacet
  facet normal -0 0 1
    outer loop
      vertex -2.41512 1.88665 5
      vertex -2.70157 1.21496 5
      vertex -2.35585 1.88665 5
    endloop
  endfacet
  facet normal 0 0 1
    outer loop
      vertex -0.795158 -2.12372 5
      vertex -0.854427 -2.09409 5
      vertex -0.884059 -2.20274 5
    endloop
  endfacet
  facet normal 0 -0 1
    outer loop
      vertex -0.884059 -2.20274 5
      vertex -0.854427 -2.09409 5
      vertex -1.31868 -2.0447 5
    endloop
  endfacet
  facet normal -0 -0 1
    outer loop
      vertex -1.31868 -2.0447 5
      vertex -0.854427 -2.09409 5
      vertex -1.32856 -1.92617 5
    endloop
  endfacet
  facet normal -0 0 1
    outer loop
      vertex -1.63477 -1.93604 5
      vertex -1.31868 -2.0447 5
      vertex -1.32856 -1.92617 5
    endloop
  endfacet
  facet normal -0 0 1
    outer loop
      vertex -1.79281 -1.8669 5
      vertex -1.63477 -1.93604 5
      vertex -1.76318 -1.76812 5
    endloop
  endfacet
  facet normal 0 0 1
    outer loop
      vertex -1.90147 -1.85702 5
      vertex -1.76318 -1.76812 5
      vertex -1.85208 -1.70885 5
    endloop
  endfacet
  facet normal -0 0 1
    outer loop
      vertex -1.96074 -1.83727 5
      vertex -1.90147 -1.85702 5
      vertex -1.85208 -1.70885 5
    endloop
  endfacet
  facet normal 0 0 1
    outer loop
      vertex -1.92123 -1.6891 5
      vertex -1.96074 -1.83727 5
      vertex -1.85208 -1.70885 5
    endloop
  endfacet
  facet normal 0 0 1
    outer loop
      vertex -1.92123 -1.6891 5
      vertex -2.01013 -1.8669 5
      vertex -1.96074 -1.83727 5
    endloop
  endfacet
  facet normal 0 0 1
    outer loop
      vertex -2.97815 -1.3335 5
      vertex -2.9979 -1.3335 5
      vertex -2.98803 -1.48167 5
    endloop
  endfacet
  facet normal 0 0 1
    outer loop
      vertex -2.9979 -1.3335 5
      vertex -3.04729 -1.35326 5
      vertex -3.06705 -1.41252 5
    endloop
  endfacet
  facet normal 0 0 1
    outer loop
      vertex -2.98803 -1.48167 5
      vertex -2.9979 -1.3335 5
      vertex -3.06705 -1.41252 5
    endloop
  endfacet
  facet normal 0 0 1
    outer loop
      vertex -1.92123 -1.6891 5
      vertex -2.97815 -1.3335 5
      vertex -2.97815 -1.54093 5
    endloop
  endfacet
  facet normal 0 -0 1
    outer loop
      vertex -2.97815 -1.21496 5
      vertex -2.97815 -1.0668 5
      vertex -2.98803 -1.12606 5
    endloop
  endfacet
  facet normal 0 -0 1
    outer loop
      vertex -1.92123 -1.6891 5
      vertex -1.82245 -1.49154 5
      vertex -2.97815 -1.3335 5
    endloop
  endfacet
  facet normal -0 0 1
    outer loop
      vertex -2.97815 -1.3335 5
      vertex -1.82245 -1.49154 5
      vertex -2.97815 -1.21496 5
    endloop
  endfacet
  facet normal -0 0 1
    outer loop
      vertex -2.97815 -1.21496 5
      vertex -1.82245 -1.49154 5
      vertex -2.97815 -1.0668 5
    endloop
  endfacet
  facet normal 0 -0 1
    outer loop
      vertex -2.97815 -1.0668 5
      vertex -2.93864 -0.681565 5
      vertex -3.14607 -0.790219 5
    endloop
  endfacet
  facet normal 0 0 1
    outer loop
      vertex -2.98803 -0.671686 5
      vertex -3.09668 -0.691444 5
      vertex -3.14607 -0.790219 5
    endloop
  endfacet
  facet normal -0 0 1
    outer loop
      vertex -3.16583 -0.948263 5
      vertex -3.09668 -1.02729 5
      vertex -3.14607 -0.790219 5
    endloop
  endfacet
  facet normal 0 0 1
    outer loop
      vertex -2.93864 -0.681565 5
      vertex -2.98803 -0.671686 5
      vertex -3.14607 -0.790219 5
    endloop
  endfacet
  facet normal 0 0 1
    outer loop
      vertex -1.82245 -1.49154 5
      vertex -2.93864 -0.681565 5
      vertex -2.97815 -1.0668 5
    endloop
  endfacet
  facet normal 0 0 1
    outer loop
      vertex -2.59292 0.622296 5
      vertex -1.54587 -1.21496 5
      vertex -0.0543248 -0.118533 5
    endloop
  endfacet
  facet normal -0 0 1
    outer loop
      vertex -2.80035 1.3335 5
      vertex -2.75096 1.26435 5
      vertex -2.41512 1.88665 5
    endloop
  endfacet
  facet normal 0 -0 1
    outer loop
      vertex -1.82245 -1.49154 5
      vertex -1.54587 -1.21496 5
      vertex -2.93864 -0.681565 5
    endloop
  endfacet
  facet normal -0 0 1
    outer loop
      vertex -2.93864 -0.681565 5
      vertex -1.54587 -1.21496 5
      vertex -2.59292 0.622296 5
    endloop
  endfacet
  facet normal -0 0 1
    outer loop
      vertex -2.63243 0.888998 5
      vertex -2.59292 0.622296 5
      vertex -1.63477 1.64958 5
    endloop
  endfacet
  facet normal 0 -0 1
    outer loop
      vertex -2.67194 1.08655 5
      vertex -1.63477 1.64958 5
      vertex -2.70157 1.21496 5
    endloop
  endfacet
  facet normal 0 0 1
    outer loop
      vertex -2.70157 1.21496 5
      vertex -1.63477 1.64958 5
      vertex -2.35585 1.88665 5
    endloop
  endfacet
  facet normal 0 0 1
    outer loop
      vertex -2.41512 1.88665 5
      vertex -2.75096 1.26435 5
      vertex -2.70157 1.21496 5
    endloop
  endfacet
  facet normal 0 0 1
    outer loop
      vertex -2.41512 1.88665 5
      vertex -2.85961 1.41252 5
      vertex -2.80035 1.3335 5
    endloop
  endfacet
  facet normal -0 0 1
    outer loop
      vertex -2.67194 1.08655 5
      vertex -2.63243 0.888998 5
      vertex -1.63477 1.64958 5
    endloop
  endfacet
  facet normal -0 0 1
    outer loop
      vertex -1.24954 1.83727 5
      vertex -0.0543248 -0.118533 5
      vertex -0.963081 1.97556 5
    endloop
  endfacet
  facet normal 0 0 1
    outer loop
      vertex -1.63477 1.64958 5
      vertex -2.59292 0.622296 5
      vertex -0.0543248 -0.118533 5
    endloop
  endfacet
  facet normal 0 0 1
    outer loop
      vertex -0.963081 1.97556 5
      vertex -0.0543248 -0.118533 5
      vertex 0.538335 0.760587 5
    endloop
  endfacet
  facet normal 0 0 1
    outer loop
      vertex -0.785279 2.06445 5
      vertex -0.963081 1.97556 5
      vertex 0.538335 0.760587 5
    endloop
  endfacet
  facet normal 0 0 1
    outer loop
      vertex -0.43956 2.21262 5
      vertex -0.785279 2.06445 5
      vertex 0.538335 0.760587 5
    endloop
  endfacet
  facet normal 0 0 1
    outer loop
      vertex -0.686504 2.20274 5
      vertex -0.745768 2.16323 5
      vertex -0.785279 2.06445 5
    endloop
  endfacet
  facet normal 0 0 1
    outer loop
      vertex -0.43956 2.21262 5
      vertex -0.518582 2.20274 5
      vertex -0.785279 2.06445 5
    endloop
  endfacet
  facet normal 0 0 1
    outer loop
      vertex -0.518582 2.20274 5
      vertex -0.686504 2.20274 5
      vertex -0.785279 2.06445 5
    endloop
  endfacet
  facet normal 0 0 1
    outer loop
      vertex 0.0049351 2.21262 5
      vertex -0.43956 2.21262 5
      vertex 0.538335 0.760587 5
    endloop
  endfacet
  facet normal 0.992283 0.123995 -0
    outer loop
      vertex 1.15076 1.71873 0
      vertex 1.15076 1.71873 5
      vertex 1.16064 1.63971 0
    endloop
  endfacet
  facet normal 0.992283 0.123995 0
    outer loop
      vertex 1.15076 1.71873 5
      vertex 1.16064 1.63971 5
      vertex 1.16064 1.63971 0
    endloop
  endfacet
  facet normal 0.351124 0.936329 -0
    outer loop
      vertex 1.16064 1.63971 0
      vertex 1.16064 1.63971 5
      vertex 1.63477 1.46191 0
    endloop
  endfacet
  facet normal 0.351124 0.936329 0
    outer loop
      vertex 1.16064 1.63971 5
      vertex 1.63477 1.46191 5
      vertex 1.63477 1.46191 0
    endloop
  endfacet
  facet normal 0.357138 0.934052 -0
    outer loop
      vertex 1.63477 1.46191 0
      vertex 1.63477 1.46191 5
      vertex 1.97062 1.3335 0
    endloop
  endfacet
  facet normal 0.357138 0.934052 0
    outer loop
      vertex 1.63477 1.46191 5
      vertex 1.97062 1.3335 5
      vertex 1.97062 1.3335 0
    endloop
  endfacet
  facet normal 0.345702 0.938344 -0
    outer loop
      vertex 1.97062 1.3335 0
      vertex 1.97062 1.3335 5
      vertex 2.15829 1.26435 0
    endloop
  endfacet
  facet normal 0.345702 0.938344 0
    outer loop
      vertex 1.97062 1.3335 5
      vertex 2.15829 1.26435 5
      vertex 2.15829 1.26435 0
    endloop
  endfacet
  facet normal 0.948676 0.316248 -0
    outer loop
      vertex 2.15829 1.26435 0
      vertex 2.15829 1.26435 5
      vertex 2.17805 1.20509 0
    endloop
  endfacet
  facet normal 0.948676 0.316248 0
    outer loop
      vertex 2.15829 1.26435 5
      vertex 2.17805 1.20509 5
      vertex 2.17805 1.20509 0
    endloop
  endfacet
  facet normal 0.707055 -0.707158 0
    outer loop
      vertex 2.17805 1.20509 0
      vertex 2.17805 1.20509 5
      vertex 2.14841 1.17545 0
    endloop
  endfacet
  facet normal 0.707055 -0.707158 0
    outer loop
      vertex 2.17805 1.20509 5
      vertex 2.14841 1.17545 5
      vertex 2.14841 1.17545 0
    endloop
  endfacet
  facet normal -0.350086 -0.936717 0
    outer loop
      vertex 2.14841 1.17545 0
      vertex 2.14841 1.17545 5
      vertex 1.17051 1.54093 0
    endloop
  endfacet
  facet normal -0.350086 -0.936717 0
    outer loop
      vertex 2.14841 1.17545 5
      vertex 1.17051 1.54093 5
      vertex 1.17051 1.54093 0
    endloop
  endfacet
  facet normal -0.173778 -0.984785 0
    outer loop
      vertex 1.17051 1.54093 0
      vertex 1.17051 1.54093 5
      vertex 1.00259 1.57056 0
    endloop
  endfacet
  facet normal -0.173778 -0.984785 0
    outer loop
      vertex 1.17051 1.54093 5
      vertex 1.00259 1.57056 5
      vertex 1.00259 1.57056 0
    endloop
  endfacet
  facet normal 0.707107 -0.707107 0
    outer loop
      vertex 1.00259 1.57056 0
      vertex 1.00259 1.57056 5
      vertex 0.97296 1.54093 0
    endloop
  endfacet
  facet normal 0.707107 -0.707107 0
    outer loop
      vertex 1.00259 1.57056 5
      vertex 0.97296 1.54093 5
      vertex 0.97296 1.54093 0
    endloop
  endfacet
  facet normal 0.332818 0.942991 -0
    outer loop
      vertex 0.97296 1.54093 0
      vertex 0.97296 1.54093 5
      vertex 1.3088 1.4224 0
    endloop
  endfacet
  facet normal 0.332818 0.942991 0
    outer loop
      vertex 0.97296 1.54093 5
      vertex 1.3088 1.4224 5
      vertex 1.3088 1.4224 0
    endloop
  endfacet
  facet normal 0.327117 0.944984 -0
    outer loop
      vertex 1.3088 1.4224 0
      vertex 1.3088 1.4224 5
      vertex 1.56562 1.3335 0
    endloop
  endfacet
  facet normal 0.327117 0.944984 0
    outer loop
      vertex 1.3088 1.4224 5
      vertex 1.56562 1.3335 5
      vertex 1.56562 1.3335 0
    endloop
  endfacet
  facet normal 0.371372 0.928484 -0
    outer loop
      vertex 1.56562 1.3335 0
      vertex 1.56562 1.3335 5
      vertex 1.71379 1.27423 0
    endloop
  endfacet
  facet normal 0.371372 0.928484 0
    outer loop
      vertex 1.56562 1.3335 5
      vertex 1.71379 1.27423 5
      vertex 1.71379 1.27423 0
    endloop
  endfacet
  facet normal 0.993885 0.110418 -0
    outer loop
      vertex 1.71379 1.27423 0
      vertex 1.71379 1.27423 5
      vertex 1.73355 1.09643 0
    endloop
  endfacet
  facet normal 0.993885 0.110418 0
    outer loop
      vertex 1.71379 1.27423 5
      vertex 1.73355 1.09643 5
      vertex 1.73355 1.09643 0
    endloop
  endfacet
  facet normal 0.868246 -0.496133 0
    outer loop
      vertex 1.73355 1.09643 0
      vertex 1.73355 1.09643 5
      vertex 1.65452 0.958141 0
    endloop
  endfacet
  facet normal 0.868246 -0.496133 0
    outer loop
      vertex 1.73355 1.09643 5
      vertex 1.65452 0.958141 5
      vertex 1.65452 0.958141 0
    endloop
  endfacet
  facet normal 0.287344 -0.957827 0
    outer loop
      vertex 1.65452 0.958141 0
      vertex 1.65452 0.958141 5
      vertex 1.55575 0.928509 0
    endloop
  endfacet
  facet normal 0.287344 -0.957827 0
    outer loop
      vertex 1.65452 0.958141 5
      vertex 1.55575 0.928509 5
      vertex 1.55575 0.928509 0
    endloop
  endfacet
  facet normal -0.14143 -0.989948 0
    outer loop
      vertex 1.55575 0.928509 0
      vertex 1.55575 0.928509 5
      vertex 1.4866 0.938388 0
    endloop
  endfacet
  facet normal -0.14143 -0.989948 0
    outer loop
      vertex 1.55575 0.928509 5
      vertex 1.4866 0.938388 5
      vertex 1.4866 0.938388 0
    endloop
  endfacet
  facet normal -0.346894 -0.937904 0
    outer loop
      vertex 1.4866 0.938388 0
      vertex 1.4866 0.938388 5
      vertex 0.765526 1.20509 0
    endloop
  endfacet
  facet normal -0.346894 -0.937904 0
    outer loop
      vertex 1.4866 0.938388 5
      vertex 0.765526 1.20509 5
      vertex 0.765526 1.20509 0
    endloop
  endfacet
  facet normal 0.890433 -0.455115 0
    outer loop
      vertex 0.765526 1.20509 0
      vertex 0.765526 1.20509 5
      vertex 0.538335 0.760587 0
    endloop
  endfacet
  facet normal 0.890433 -0.455115 0
    outer loop
      vertex 0.765526 1.20509 5
      vertex 0.538335 0.760587 5
      vertex 0.538335 0.760587 0
    endloop
  endfacet
  facet normal 0.341738 0.939795 -0
    outer loop
      vertex 0.538335 0.760587 0
      vertex 0.538335 0.760587 5
      vertex 0.864306 0.642054 0
    endloop
  endfacet
  facet normal 0.341738 0.939795 0
    outer loop
      vertex 0.538335 0.760587 5
      vertex 0.864306 0.642054 5
      vertex 0.864306 0.642054 0
    endloop
  endfacet
  facet normal 0 1 0
    outer loop
      vertex 0.864306 0.642054 0
      vertex 0.864306 0.642054 5
      vertex 0.963081 0.642054 0
    endloop
  endfacet
  facet normal -0 1 0
    outer loop
      vertex 0.864306 0.642054 5
      vertex 0.963081 0.642054 5
      vertex 0.963081 0.642054 0
    endloop
  endfacet
  facet normal 0.832013 0.554756 -0
    outer loop
      vertex 0.963081 0.642054 0
      vertex 0.963081 0.642054 5
      vertex 0.982838 0.612422 0
    endloop
  endfacet
  facet normal 0.832013 0.554756 0
    outer loop
      vertex 0.963081 0.642054 5
      vertex 0.982838 0.612422 5
      vertex 0.982838 0.612422 0
    endloop
  endfacet
  facet normal 0.554756 0.832013 -0
    outer loop
      vertex 0.982838 0.612422 0
      vertex 0.982838 0.612422 5
      vertex 1.01247 0.592664 0
    endloop
  endfacet
  facet normal 0.554756 0.832013 0
    outer loop
      vertex 0.982838 0.612422 5
      vertex 1.01247 0.592664 5
      vertex 1.01247 0.592664 0
    endloop
  endfacet
  facet normal 0.707107 0.707107 -0
    outer loop
      vertex 1.01247 0.592664 0
      vertex 1.01247 0.592664 5
      vertex 1.0421 0.563032 0
    endloop
  endfacet
  facet normal 0.707107 0.707107 0
    outer loop
      vertex 1.01247 0.592664 5
      vertex 1.0421 0.563032 5
      vertex 1.0421 0.563032 0
    endloop
  endfacet
  facet normal 0.94867 0.316269 -0
    outer loop
      vertex 1.0421 0.563032 0
      vertex 1.0421 0.563032 5
      vertex 1.05198 0.5334 0
    endloop
  endfacet
  facet normal 0.94867 0.316269 0
    outer loop
      vertex 1.0421 0.563032 5
      vertex 1.05198 0.5334 5
      vertex 1.05198 0.5334 0
    endloop
  endfacet
  facet normal 0.707107 -0.707107 0
    outer loop
      vertex 1.05198 0.5334 0
      vertex 1.05198 0.5334 5
      vertex 1.03222 0.513642 0
    endloop
  endfacet
  facet normal 0.707107 -0.707107 0
    outer loop
      vertex 1.05198 0.5334 5
      vertex 1.03222 0.513642 5
      vertex 1.03222 0.513642 0
    endloop
  endfacet
  facet normal 0.447292 -0.894388 0
    outer loop
      vertex 1.03222 0.513642 0
      vertex 1.03222 0.513642 5
      vertex 1.01247 0.503763 0
    endloop
  endfacet
  facet normal 0.447292 -0.894388 0
    outer loop
      vertex 1.03222 0.513642 5
      vertex 1.01247 0.503763 5
      vertex 1.01247 0.503763 0
    endloop
  endfacet
  facet normal 0.464545 0.88555 -0
    outer loop
      vertex 1.01247 0.503763 0
      vertex 1.01247 0.503763 5
      vertex 2.21756 -0.128407 0
    endloop
  endfacet
  facet normal 0.464545 0.88555 0
    outer loop
      vertex 1.01247 0.503763 5
      vertex 2.21756 -0.128407 5
      vertex 2.21756 -0.128407 0
    endloop
  endfacet
  facet normal 0.274753 0.961515 -0
    outer loop
      vertex 2.21756 -0.128407 0
      vertex 2.21756 -0.128407 5
      vertex 2.2867 -0.148165 0
    endloop
  endfacet
  facet normal 0.274753 0.961515 0
    outer loop
      vertex 2.21756 -0.128407 5
      vertex 2.2867 -0.148165 5
      vertex 2.2867 -0.148165 0
    endloop
  endfacet
  facet normal 0.464001 0.885834 -0
    outer loop
      vertex 2.2867 -0.148165 0
      vertex 2.2867 -0.148165 5
      vertex 2.49414 -0.256819 0
    endloop
  endfacet
  facet normal 0.464001 0.885834 0
    outer loop
      vertex 2.2867 -0.148165 5
      vertex 2.49414 -0.256819 5
      vertex 2.49414 -0.256819 0
    endloop
  endfacet
  facet normal 0.54326 0.839564 -0
    outer loop
      vertex 2.49414 -0.256819 0
      vertex 2.49414 -0.256819 5
      vertex 2.66206 -0.365477 0
    endloop
  endfacet
  facet normal 0.54326 0.839564 0
    outer loop
      vertex 2.49414 -0.256819 5
      vertex 2.66206 -0.365477 5
      vertex 2.66206 -0.365477 0
    endloop
  endfacet
  facet normal 0.490248 0.871583 -0
    outer loop
      vertex 2.66206 -0.365477 0
      vertex 2.66206 -0.365477 5
      vertex 2.8201 -0.454374 0
    endloop
  endfacet
  facet normal 0.490248 0.871583 0
    outer loop
      vertex 2.66206 -0.365477 5
      vertex 2.8201 -0.454374 5
      vertex 2.8201 -0.454374 0
    endloop
  endfacet
  facet normal 0.690474 0.723357 -0
    outer loop
      vertex 2.8201 -0.454374 0
      vertex 2.8201 -0.454374 5
      vertex 3.03742 -0.661807 0
    endloop
  endfacet
  facet normal 0.690474 0.723357 0
    outer loop
      vertex 2.8201 -0.454374 5
      vertex 3.03742 -0.661807 5
      vertex 3.03742 -0.661807 0
    endloop
  endfacet
  facet normal 0.794357 0.607451 -0
    outer loop
      vertex 3.03742 -0.661807 0
      vertex 3.03742 -0.661807 5
      vertex 3.16583 -0.82973 0
    endloop
  endfacet
  facet normal 0.794357 0.607451 0
    outer loop
      vertex 3.03742 -0.661807 5
      vertex 3.16583 -0.82973 5
      vertex 3.16583 -0.82973 0
    endloop
  endfacet
  facet normal 0.964759 -0.263137 0
    outer loop
      vertex 3.16583 -0.82973 0
      vertex 3.16583 -0.82973 5
      vertex 3.13619 -0.938388 0
    endloop
  endfacet
  facet normal 0.964759 -0.263137 0
    outer loop
      vertex 3.16583 -0.82973 5
      vertex 3.13619 -0.938388 5
      vertex 3.13619 -0.938388 0
    endloop
  endfacet
  facet normal 0.485647 -0.874155 0
    outer loop
      vertex 3.13619 -0.938388 0
      vertex 3.13619 -0.938388 5
      vertex 3.04729 -0.987778 0
    endloop
  endfacet
  facet normal 0.485647 -0.874155 0
    outer loop
      vertex 3.13619 -0.938388 5
      vertex 3.04729 -0.987778 5
      vertex 3.04729 -0.987778 0
    endloop
  endfacet
  facet normal -0.16897 -0.985621 0
    outer loop
      vertex 3.04729 -0.987778 0
      vertex 3.04729 -0.987778 5
      vertex 2.70157 -0.928509 0
    endloop
  endfacet
  facet normal -0.16897 -0.985621 0
    outer loop
      vertex 3.04729 -0.987778 5
      vertex 2.70157 -0.928509 5
      vertex 2.70157 -0.928509 0
    endloop
  endfacet
  facet normal -0.287349 -0.957826 0
    outer loop
      vertex 2.70157 -0.928509 0
      vertex 2.70157 -0.928509 5
      vertex 2.40524 -0.839609 0
    endloop
  endfacet
  facet normal -0.287349 -0.957826 0
    outer loop
      vertex 2.70157 -0.928509 5
      vertex 2.40524 -0.839609 5
      vertex 2.40524 -0.839609 0
    endloop
  endfacet
  facet normal -0.306013 -0.952027 0
    outer loop
      vertex 2.40524 -0.839609 0
      vertex 2.40524 -0.839609 5
      vertex 2.12866 -0.750708 0
    endloop
  endfacet
  facet normal -0.306013 -0.952027 0
    outer loop
      vertex 2.40524 -0.839609 5
      vertex 2.12866 -0.750708 5
      vertex 2.12866 -0.750708 0
    endloop
  endfacet
  facet normal -0.80001 -0.599986 0
    outer loop
      vertex 2.12866 -0.750708 0
      vertex 2.12866 -0.750708 5
      vertex 2.09903 -0.711197 0
    endloop
  endfacet
  facet normal -0.80001 -0.599986 0
    outer loop
      vertex 2.12866 -0.750708 5
      vertex 2.09903 -0.711197 5
      vertex 2.09903 -0.711197 0
    endloop
  endfacet
  facet normal -0.272323 -0.962206 0
    outer loop
      vertex 2.09903 -0.711197 0
      vertex 2.09903 -0.711197 5
      vertex 1.05198 -0.414863 0
    endloop
  endfacet
  facet normal -0.272323 -0.962206 0
    outer loop
      vertex 2.09903 -0.711197 5
      vertex 1.05198 -0.414863 5
      vertex 1.05198 -0.414863 0
    endloop
  endfacet
  facet normal -0.287336 -0.95783 0
    outer loop
      vertex 1.05198 -0.414863 0
      vertex 1.05198 -0.414863 5
      vertex 0.755647 -0.325966 0
    endloop
  endfacet
  facet normal -0.287336 -0.95783 0
    outer loop
      vertex 1.05198 -0.414863 5
      vertex 0.755647 -0.325966 5
      vertex 0.755647 -0.325966 0
    endloop
  endfacet
  facet normal -0.221624 -0.975132 0
    outer loop
      vertex 0.755647 -0.325966 0
      vertex 0.755647 -0.325966 5
      vertex 0.538335 -0.276577 0
    endloop
  endfacet
  facet normal -0.221624 -0.975132 0
    outer loop
      vertex 0.755647 -0.325966 5
      vertex 0.538335 -0.276577 5
      vertex 0.538335 -0.276577 0
    endloop
  endfacet
  facet normal -0.250974 -0.967994 0
    outer loop
      vertex 0.538335 -0.276577 0
      vertex 0.538335 -0.276577 5
      vertex 0.271637 -0.207429 0
    endloop
  endfacet
  facet normal -0.250974 -0.967994 0
    outer loop
      vertex 0.538335 -0.276577 5
      vertex 0.271637 -0.207429 5
      vertex 0.271637 -0.207429 0
    endloop
  endfacet
  facet normal -0.263111 -0.964766 0
    outer loop
      vertex 0.271637 -0.207429 0
      vertex 0.271637 -0.207429 5
      vertex -0.0543248 -0.118533 0
    endloop
  endfacet
  facet normal -0.263111 -0.964766 0
    outer loop
      vertex 0.271637 -0.207429 5
      vertex -0.0543248 -0.118533 5
      vertex -0.0543248 -0.118533 0
    endloop
  endfacet
  facet normal 0.592288 -0.805727 0
    outer loop
      vertex -0.0543248 -0.118533 0
      vertex -0.0543248 -0.118533 5
      vertex -1.54587 -1.21496 0
    endloop
  endfacet
  facet normal 0.592288 -0.805727 0
    outer loop
      vertex -0.0543248 -0.118533 5
      vertex -1.54587 -1.21496 5
      vertex -1.54587 -1.21496 0
    endloop
  endfacet
  facet normal 0.269625 0.962965 -0
    outer loop
      vertex -1.54587 -1.21496 0
      vertex -1.54587 -1.21496 5
      vertex -1.29893 -1.28411 0
    endloop
  endfacet
  facet normal 0.269625 0.962965 0
    outer loop
      vertex -1.54587 -1.21496 5
      vertex -1.29893 -1.28411 5
      vertex -1.29893 -1.28411 0
    endloop
  endfacet
  facet normal 0.301143 0.953579 -0
    outer loop
      vertex -1.29893 -1.28411 0
      vertex -1.29893 -1.28411 5
      vertex -1.11125 -1.34338 0
    endloop
  endfacet
  facet normal 0.301143 0.953579 0
    outer loop
      vertex -1.29893 -1.28411 5
      vertex -1.11125 -1.34338 5
      vertex -1.11125 -1.34338 0
    endloop
  endfacet
  facet normal 0.257657 0.966236 -0
    outer loop
      vertex -1.11125 -1.34338 0
      vertex -1.11125 -1.34338 5
      vertex -0.963081 -1.38289 0
    endloop
  endfacet
  facet normal 0.257657 0.966236 0
    outer loop
      vertex -1.11125 -1.34338 5
      vertex -0.963081 -1.38289 5
      vertex -0.963081 -1.38289 0
    endloop
  endfacet
  facet normal 0.871573 0.490266 -0
    outer loop
      vertex -0.963081 -1.38289 0
      vertex -0.963081 -1.38289 5
      vertex -0.87418 -1.54093 0
    endloop
  endfacet
  facet normal 0.871573 0.490266 0
    outer loop
      vertex -0.963081 -1.38289 5
      vertex -0.87418 -1.54093 5
      vertex -0.87418 -1.54093 0
    endloop
  endfacet
  facet normal 0.977798 -0.209548 0
    outer loop
      vertex -0.87418 -1.54093 0
      vertex -0.87418 -1.54093 5
      vertex -0.903816 -1.67922 0
    endloop
  endfacet
  facet normal 0.977798 -0.209548 0
    outer loop
      vertex -0.87418 -1.54093 5
      vertex -0.903816 -1.67922 5
      vertex -0.903816 -1.67922 0
    endloop
  endfacet
  facet normal 0.658499 -0.752582 0
    outer loop
      vertex -0.903816 -1.67922 0
      vertex -0.903816 -1.67922 5
      vertex -0.982838 -1.74836 0
    endloop
  endfacet
  facet normal 0.658499 -0.752582 0
    outer loop
      vertex -0.903816 -1.67922 5
      vertex -0.982838 -1.74836 5
      vertex -0.982838 -1.74836 0
    endloop
  endfacet
  facet normal 0.196149 -0.980574 0
    outer loop
      vertex -0.982838 -1.74836 0
      vertex -0.982838 -1.74836 5
      vertex -1.03222 -1.75824 0
    endloop
  endfacet
  facet normal 0.196149 -0.980574 0
    outer loop
      vertex -0.982838 -1.74836 5
      vertex -1.03222 -1.75824 5
      vertex -1.03222 -1.75824 0
    endloop
  endfacet
  facet normal -0.319781 -0.947492 0
    outer loop
      vertex -1.03222 -1.75824 0
      vertex -1.03222 -1.75824 5
      vertex -1.82245 -1.49154 0
    endloop
  endfacet
  facet normal -0.319781 -0.947492 0
    outer loop
      vertex -1.03222 -1.75824 5
      vertex -1.82245 -1.49154 5
      vertex -1.82245 -1.49154 0
    endloop
  endfacet
  facet normal 0.894423 -0.447221 0
    outer loop
      vertex -1.82245 -1.49154 0
      vertex -1.82245 -1.49154 5
      vertex -1.92123 -1.6891 0
    endloop
  endfacet
  facet normal 0.894423 -0.447221 0
    outer loop
      vertex -1.82245 -1.49154 5
      vertex -1.92123 -1.6891 5
      vertex -1.92123 -1.6891 0
    endloop
  endfacet
  facet normal 0.274753 0.961515 -0
    outer loop
      vertex -1.92123 -1.6891 0
      vertex -1.92123 -1.6891 5
      vertex -1.85208 -1.70885 0
    endloop
  endfacet
  facet normal 0.274753 0.961515 0
    outer loop
      vertex -1.92123 -1.6891 5
      vertex -1.85208 -1.70885 5
      vertex -1.85208 -1.70885 0
    endloop
  endfacet
  facet normal 0.554709 0.832044 -0
    outer loop
      vertex -1.85208 -1.70885 0
      vertex -1.85208 -1.70885 5
      vertex -1.76318 -1.76812 0
    endloop
  endfacet
  facet normal 0.554709 0.832044 0
    outer loop
      vertex -1.85208 -1.70885 5
      vertex -1.76318 -1.76812 5
      vertex -1.76318 -1.76812 0
    endloop
  endfacet
  facet normal 0.34174 0.939795 -0
    outer loop
      vertex -1.76318 -1.76812 0
      vertex -1.76318 -1.76812 5
      vertex -1.32856 -1.92617 0
    endloop
  endfacet
  facet normal 0.34174 0.939795 0
    outer loop
      vertex -1.76318 -1.76812 5
      vertex -1.32856 -1.92617 5
      vertex -1.32856 -1.92617 0
    endloop
  endfacet
  facet normal 0.333849 0.942627 -0
    outer loop
      vertex -1.32856 -1.92617 0
      vertex -1.32856 -1.92617 5
      vertex -0.854427 -2.09409 0
    endloop
  endfacet
  facet normal 0.333849 0.942627 0
    outer loop
      vertex -1.32856 -1.92617 5
      vertex -0.854427 -2.09409 5
      vertex -0.854427 -2.09409 0
    endloop
  endfacet
  facet normal 0.447188 0.89444 -0
    outer loop
      vertex -0.854427 -2.09409 0
      vertex -0.854427 -2.09409 5
      vertex -0.795158 -2.12372 0
    endloop
  endfacet
  facet normal 0.447188 0.89444 0
    outer loop
      vertex -0.854427 -2.09409 5
      vertex -0.795158 -2.12372 5
      vertex -0.795158 -2.12372 0
    endloop
  endfacet
  facet normal 0.80001 0.599986 -0
    outer loop
      vertex -0.795158 -2.12372 0
      vertex -0.795158 -2.12372 5
      vertex -0.765526 -2.16323 0
    endloop
  endfacet
  facet normal 0.80001 0.599986 0
    outer loop
      vertex -0.795158 -2.12372 5
      vertex -0.765526 -2.16323 5
      vertex -0.765526 -2.16323 0
    endloop
  endfacet
  facet normal 0.640206 -0.768203 0
    outer loop
      vertex -0.765526 -2.16323 0
      vertex -0.765526 -2.16323 5
      vertex -0.82479 -2.21262 0
    endloop
  endfacet
  facet normal 0.640206 -0.768203 0
    outer loop
      vertex -0.765526 -2.16323 5
      vertex -0.82479 -2.21262 5
      vertex -0.82479 -2.21262 0
    endloop
  endfacet
  facet normal -0.164411 -0.986392 0
    outer loop
      vertex -0.82479 -2.21262 0
      vertex -0.82479 -2.21262 5
      vertex -0.884059 -2.20274 0
    endloop
  endfacet
  facet normal -0.164411 -0.986392 0
    outer loop
      vertex -0.82479 -2.21262 5
      vertex -0.884059 -2.20274 5
      vertex -0.884059 -2.20274 0
    endloop
  endfacet
  facet normal -0.341743 -0.939793 0
    outer loop
      vertex -0.884059 -2.20274 0
      vertex -0.884059 -2.20274 5
      vertex -1.31868 -2.0447 0
    endloop
  endfacet
  facet normal -0.341743 -0.939793 0
    outer loop
      vertex -0.884059 -2.20274 5
      vertex -1.31868 -2.0447 5
      vertex -1.31868 -2.0447 0
    endloop
  endfacet
  facet normal -0.325084 -0.945685 0
    outer loop
      vertex -1.31868 -2.0447 0
      vertex -1.31868 -2.0447 5
      vertex -1.63477 -1.93604 0
    endloop
  endfacet
  facet normal -0.325084 -0.945685 0
    outer loop
      vertex -1.31868 -2.0447 5
      vertex -1.63477 -1.93604 5
      vertex -1.63477 -1.93604 0
    endloop
  endfacet
  facet normal -0.400814 -0.91616 0
    outer loop
      vertex -1.63477 -1.93604 0
      vertex -1.63477 -1.93604 5
      vertex -1.79281 -1.8669 0
    endloop
  endfacet
  facet normal -0.400814 -0.91616 0
    outer loop
      vertex -1.63477 -1.93604 5
      vertex -1.79281 -1.8669 5
      vertex -1.79281 -1.8669 0
    endloop
  endfacet
  facet normal -0.0905464 -0.995892 0
    outer loop
      vertex -1.79281 -1.8669 0
      vertex -1.79281 -1.8669 5
      vertex -1.90147 -1.85702 0
    endloop
  endfacet
  facet normal -0.0905464 -0.995892 0
    outer loop
      vertex -1.79281 -1.8669 5
      vertex -1.90147 -1.85702 5
      vertex -1.90147 -1.85702 0
    endloop
  endfacet
  facet normal -0.316186 -0.948697 0
    outer loop
      vertex -1.90147 -1.85702 0
      vertex -1.90147 -1.85702 5
      vertex -1.96074 -1.83727 0
    endloop
  endfacet
  facet normal -0.316186 -0.948697 0
    outer loop
      vertex -1.90147 -1.85702 5
      vertex -1.96074 -1.83727 5
      vertex -1.96074 -1.83727 0
    endloop
  endfacet
  facet normal 0.514474 -0.857506 0
    outer loop
      vertex -1.96074 -1.83727 0
      vertex -1.96074 -1.83727 5
      vertex -2.01013 -1.8669 0
    endloop
  endfacet
  facet normal 0.514474 -0.857506 0
    outer loop
      vertex -1.96074 -1.83727 5
      vertex -2.01013 -1.8669 5
      vertex -2.01013 -1.8669 0
    endloop
  endfacet
  facet normal -0.319128 -0.947712 0
    outer loop
      vertex -2.01013 -1.8669 0
      vertex -2.01013 -1.8669 5
      vertex -2.97815 -1.54093 0
    endloop
  endfacet
  facet normal -0.319128 -0.947712 0
    outer loop
      vertex -2.01013 -1.8669 5
      vertex -2.97815 -1.54093 5
      vertex -2.97815 -1.54093 0
    endloop
  endfacet
  facet normal -0.707107 -0.707107 0
    outer loop
      vertex -2.97815 -1.54093 0
      vertex -2.97815 -1.54093 5
      vertex -2.98803 -1.53105 0
    endloop
  endfacet
  facet normal -0.707107 -0.707107 0
    outer loop
      vertex -2.97815 -1.54093 5
      vertex -2.98803 -1.53105 5
      vertex -2.98803 -1.53105 0
    endloop
  endfacet
  facet normal -1 0 0
    outer loop
      vertex -2.98803 -1.53105 0
      vertex -2.98803 -1.53105 5
      vertex -2.98803 -1.48167 0
    endloop
  endfacet
  facet normal -1 0 0
    outer loop
      vertex -2.98803 -1.53105 5
      vertex -2.98803 -1.48167 5
      vertex -2.98803 -1.48167 0
    endloop
  endfacet
  facet normal -0.658522 -0.752561 0
    outer loop
      vertex -2.98803 -1.48167 0
      vertex -2.98803 -1.48167 5
      vertex -3.06705 -1.41252 0
    endloop
  endfacet
  facet normal -0.658522 -0.752561 0
    outer loop
      vertex -2.98803 -1.48167 5
      vertex -3.06705 -1.41252 5
      vertex -3.06705 -1.41252 0
    endloop
  endfacet
  facet normal -0.94867 0.316269 0
    outer loop
      vertex -3.06705 -1.41252 0
      vertex -3.06705 -1.41252 5
      vertex -3.04729 -1.35326 0
    endloop
  endfacet
  facet normal -0.94867 0.316269 0
    outer loop
      vertex -3.06705 -1.41252 5
      vertex -3.04729 -1.35326 5
      vertex -3.04729 -1.35326 0
    endloop
  endfacet
  facet normal -0.371447 0.928454 0
    outer loop
      vertex -3.04729 -1.35326 0
      vertex -3.04729 -1.35326 5
      vertex -2.9979 -1.3335 0
    endloop
  endfacet
  facet normal -0.371447 0.928454 0
    outer loop
      vertex -3.04729 -1.35326 5
      vertex -2.9979 -1.3335 5
      vertex -2.9979 -1.3335 0
    endloop
  endfacet
  facet normal 0 1 0
    outer loop
      vertex -2.9979 -1.3335 0
      vertex -2.9979 -1.3335 5
      vertex -2.97815 -1.3335 0
    endloop
  endfacet
  facet normal -0 1 0
    outer loop
      vertex -2.9979 -1.3335 5
      vertex -2.97815 -1.3335 5
      vertex -2.97815 -1.3335 0
    endloop
  endfacet
  facet normal -1 0 0
    outer loop
      vertex -2.97815 -1.3335 0
      vertex -2.97815 -1.3335 5
      vertex -2.97815 -1.21496 0
    endloop
  endfacet
  facet normal -1 0 0
    outer loop
      vertex -2.97815 -1.3335 5
      vertex -2.97815 -1.21496 5
      vertex -2.97815 -1.21496 0
    endloop
  endfacet
  facet normal -0.993883 -0.110442 0
    outer loop
      vertex -2.97815 -1.21496 0
      vertex -2.97815 -1.21496 5
      vertex -2.98803 -1.12606 0
    endloop
  endfacet
  facet normal -0.993883 -0.110442 0
    outer loop
      vertex -2.97815 -1.21496 5
      vertex -2.98803 -1.12606 5
      vertex -2.98803 -1.12606 0
    endloop
  endfacet
  facet normal -0.98639 0.164422 0
    outer loop
      vertex -2.98803 -1.12606 0
      vertex -2.98803 -1.12606 5
      vertex -2.97815 -1.0668 0
    endloop
  endfacet
  facet normal -0.98639 0.164422 0
    outer loop
      vertex -2.98803 -1.12606 5
      vertex -2.97815 -1.0668 5
      vertex -2.97815 -1.0668 0
    endloop
  endfacet
  facet normal -0.316228 -0.948683 0
    outer loop
      vertex -2.97815 -1.0668 0
      vertex -2.97815 -1.0668 5
      vertex -3.09668 -1.02729 0
    endloop
  endfacet
  facet normal -0.316228 -0.948683 0
    outer loop
      vertex -2.97815 -1.0668 5
      vertex -3.09668 -1.02729 5
      vertex -3.09668 -1.02729 0
    endloop
  endfacet
  facet normal -0.752579 -0.658502 0
    outer loop
      vertex -3.09668 -1.02729 0
      vertex -3.09668 -1.02729 5
      vertex -3.16583 -0.948263 0
    endloop
  endfacet
  facet normal -0.752579 -0.658502 0
    outer loop
      vertex -3.09668 -1.02729 5
      vertex -3.16583 -0.948263 5
      vertex -3.16583 -0.948263 0
    endloop
  endfacet
  facet normal -0.992276 0.124048 0
    outer loop
      vertex -3.16583 -0.948263 0
      vertex -3.16583 -0.948263 5
      vertex -3.14607 -0.790219 0
    endloop
  endfacet
  facet normal -0.992276 0.124048 0
    outer loop
      vertex -3.16583 -0.948263 5
      vertex -3.14607 -0.790219 5
      vertex -3.14607 -0.790219 0
    endloop
  endfacet
  facet normal -0.894419 0.447229 0
    outer loop
      vertex -3.14607 -0.790219 0
      vertex -3.14607 -0.790219 5
      vertex -3.09668 -0.691444 0
    endloop
  endfacet
  facet normal -0.894419 0.447229 0
    outer loop
      vertex -3.14607 -0.790219 5
      vertex -3.09668 -0.691444 5
      vertex -3.09668 -0.691444 0
    endloop
  endfacet
  facet normal -0.178906 0.983866 0
    outer loop
      vertex -3.09668 -0.691444 0
      vertex -3.09668 -0.691444 5
      vertex -2.98803 -0.671686 0
    endloop
  endfacet
  facet normal -0.178906 0.983866 0
    outer loop
      vertex -3.09668 -0.691444 5
      vertex -2.98803 -0.671686 5
      vertex -2.98803 -0.671686 0
    endloop
  endfacet
  facet normal 0.196133 0.980577 -0
    outer loop
      vertex -2.98803 -0.671686 0
      vertex -2.98803 -0.671686 5
      vertex -2.93864 -0.681565 0
    endloop
  endfacet
  facet normal 0.196133 0.980577 0
    outer loop
      vertex -2.98803 -0.671686 5
      vertex -2.93864 -0.681565 5
      vertex -2.93864 -0.681565 0
    endloop
  endfacet
  facet normal -0.966599 0.256294 0
    outer loop
      vertex -2.93864 -0.681565 0
      vertex -2.93864 -0.681565 5
      vertex -2.59292 0.622296 0
    endloop
  endfacet
  facet normal -0.966599 0.256294 0
    outer loop
      vertex -2.93864 -0.681565 5
      vertex -2.59292 0.622296 5
      vertex -2.59292 0.622296 0
    endloop
  endfacet
  facet normal -0.989204 -0.146547 0
    outer loop
      vertex -2.59292 0.622296 0
      vertex -2.59292 0.622296 5
      vertex -2.63243 0.888998 0
    endloop
  endfacet
  facet normal -0.989204 -0.146547 0
    outer loop
      vertex -2.59292 0.622296 5
      vertex -2.63243 0.888998 5
      vertex -2.63243 0.888998 0
    endloop
  endfacet
  facet normal -0.980581 -0.196116 0
    outer loop
      vertex -2.63243 0.888998 0
      vertex -2.63243 0.888998 5
      vertex -2.67194 1.08655 0
    endloop
  endfacet
  facet normal -0.980581 -0.196116 0
    outer loop
      vertex -2.63243 0.888998 5
      vertex -2.67194 1.08655 5
      vertex -2.67194 1.08655 0
    endloop
  endfacet
  facet normal -0.974393 -0.22485 0
    outer loop
      vertex -2.67194 1.08655 0
      vertex -2.67194 1.08655 5
      vertex -2.70157 1.21496 0
    endloop
  endfacet
  facet normal -0.974393 -0.22485 0
    outer loop
      vertex -2.67194 1.08655 5
      vertex -2.70157 1.21496 5
      vertex -2.70157 1.21496 0
    endloop
  endfacet
  facet normal -0.707107 -0.707107 0
    outer loop
      vertex -2.70157 1.21496 0
      vertex -2.70157 1.21496 5
      vertex -2.75096 1.26435 0
    endloop
  endfacet
  facet normal -0.707107 -0.707107 0
    outer loop
      vertex -2.70157 1.21496 5
      vertex -2.75096 1.26435 5
      vertex -2.75096 1.26435 0
    endloop
  endfacet
  facet normal -0.813747 -0.581219 0
    outer loop
      vertex -2.75096 1.26435 0
      vertex -2.75096 1.26435 5
      vertex -2.80035 1.3335 0
    endloop
  endfacet
  facet normal -0.813747 -0.581219 0
    outer loop
      vertex -2.75096 1.26435 5
      vertex -2.80035 1.3335 5
      vertex -2.80035 1.3335 0
    endloop
  endfacet
  facet normal -0.79999 -0.600014 0
    outer loop
      vertex -2.80035 1.3335 0
      vertex -2.80035 1.3335 5
      vertex -2.85961 1.41252 0
    endloop
  endfacet
  facet normal -0.79999 -0.600014 0
    outer loop
      vertex -2.80035 1.3335 5
      vertex -2.85961 1.41252 5
      vertex -2.85961 1.41252 0
    endloop
  endfacet
  facet normal -0.729539 0.683939 0
    outer loop
      vertex -2.85961 1.41252 0
      vertex -2.85961 1.41252 5
      vertex -2.41512 1.88665 0
    endloop
  endfacet
  facet normal -0.729539 0.683939 0
    outer loop
      vertex -2.85961 1.41252 5
      vertex -2.41512 1.88665 5
      vertex -2.41512 1.88665 0
    endloop
  endfacet
  facet normal 0 1 0
    outer loop
      vertex -2.41512 1.88665 0
      vertex -2.41512 1.88665 5
      vertex -2.35585 1.88665 0
    endloop
  endfacet
  facet normal -0 1 0
    outer loop
      vertex -2.41512 1.88665 5
      vertex -2.35585 1.88665 5
      vertex -2.35585 1.88665 0
    endloop
  endfacet
  facet normal 0.312326 0.949975 -0
    outer loop
      vertex -2.35585 1.88665 0
      vertex -2.35585 1.88665 5
      vertex -1.63477 1.64958 0
    endloop
  endfacet
  facet normal 0.312326 0.949975 0
    outer loop
      vertex -2.35585 1.88665 5
      vertex -1.63477 1.64958 5
      vertex -1.63477 1.64958 0
    endloop
  endfacet
  facet normal -0.437973 0.898988 0
    outer loop
      vertex -1.63477 1.64958 0
      vertex -1.63477 1.64958 5
      vertex -1.24954 1.83727 0
    endloop
  endfacet
  facet normal -0.437973 0.898988 0
    outer loop
      vertex -1.63477 1.64958 5
      vertex -1.24954 1.83727 5
      vertex -1.24954 1.83727 0
    endloop
  endfacet
  facet normal -0.434753 0.90055 0
    outer loop
      vertex -1.24954 1.83727 0
      vertex -1.24954 1.83727 5
      vertex -0.963081 1.97556 0
    endloop
  endfacet
  facet normal -0.434753 0.90055 0
    outer loop
      vertex -1.24954 1.83727 5
      vertex -0.963081 1.97556 5
      vertex -0.963081 1.97556 0
    endloop
  endfacet
  facet normal -0.447196 0.894436 0
    outer loop
      vertex -0.963081 1.97556 0
      vertex -0.963081 1.97556 5
      vertex -0.785279 2.06445 0
    endloop
  endfacet
  facet normal -0.447196 0.894436 0
    outer loop
      vertex -0.963081 1.97556 5
      vertex -0.785279 2.06445 5
      vertex -0.785279 2.06445 0
    endloop
  endfacet
  facet normal -0.928479 0.371384 0
    outer loop
      vertex -0.785279 2.06445 0
      vertex -0.785279 2.06445 5
      vertex -0.745768 2.16323 0
    endloop
  endfacet
  facet normal -0.928479 0.371384 0
    outer loop
      vertex -0.785279 2.06445 5
      vertex -0.745768 2.16323 5
      vertex -0.745768 2.16323 0
    endloop
  endfacet
  facet normal -0.554714 0.832041 0
    outer loop
      vertex -0.745768 2.16323 0
      vertex -0.745768 2.16323 5
      vertex -0.686504 2.20274 0
    endloop
  endfacet
  facet normal -0.554714 0.832041 0
    outer loop
      vertex -0.745768 2.16323 5
      vertex -0.686504 2.20274 5
      vertex -0.686504 2.20274 0
    endloop
  endfacet
  facet normal 0 1 0
    outer loop
      vertex -0.686504 2.20274 0
      vertex -0.686504 2.20274 5
      vertex -0.518582 2.20274 0
    endloop
  endfacet
  facet normal -0 1 0
    outer loop
      vertex -0.686504 2.20274 5
      vertex -0.518582 2.20274 5
      vertex -0.518582 2.20274 0
    endloop
  endfacet
  facet normal -0.124048 0.992276 0
    outer loop
      vertex -0.518582 2.20274 0
      vertex -0.518582 2.20274 5
      vertex -0.43956 2.21262 0
    endloop
  endfacet
  facet normal -0.124048 0.992276 0
    outer loop
      vertex -0.518582 2.20274 5
      vertex -0.43956 2.21262 5
      vertex -0.43956 2.21262 0
    endloop
  endfacet
  facet normal 0 1 0
    outer loop
      vertex -0.43956 2.21262 0
      vertex -0.43956 2.21262 5
      vertex 0.0049351 2.21262 0
    endloop
  endfacet
  facet normal -0 1 0
    outer loop
      vertex -0.43956 2.21262 5
      vertex 0.0049351 2.21262 5
      vertex 0.0049351 2.21262 0
    endloop
  endfacet
  facet normal 0.395828 0.918325 -0
    outer loop
      vertex 0.0049351 2.21262 0
      vertex 0.0049351 2.21262 5
      vertex 1.15076 1.71873 0
    endloop
  endfacet
  facet normal 0.395828 0.918325 0
    outer loop
      vertex 0.0049351 2.21262 5
      vertex 1.15076 1.71873 5
      vertex 1.15076 1.71873 0
    endloop
  endfacet
endsolid OpenSCAD_Model
