solid OpenSCAD_Model
  facet normal 0 0 -1
    outer loop
      vertex 0.854427 -0.884059 0
      vertex 1.49648 -0.400049 0
      vertex 1.53599 -0.814916 0
    endloop
  endfacet
  facet normal 0 0 -1
    outer loop
      vertex 0.884059 2.1089 0
      vertex 0.963081 2.1089 0
      vertex 0.953202 2.08915 0
    endloop
  endfacet
  facet normal 0 0 -1
    outer loop
      vertex 2.26695 -1.37795 0
      vertex 3.14607 -0.716136 0
      vertex 3.16583 -0.903816 0
    endloop
  endfacet
  facet normal 0 0 -1
    outer loop
      vertex -1.15076 -0.765526 0
      vertex -1.25941 -0.676625 0
      vertex -1.25941 -0.637114 0
    endloop
  endfacet
  facet normal -0 -0 -1
    outer loop
      vertex 0.982838 2.02988 0
      vertex 0.982838 2.01013 0
      vertex 0.963081 2.04964 0
    endloop
  endfacet
  facet normal -0 0 -1
    outer loop
      vertex 2.7312 1.29893 0
      vertex 1.69404 -0.380291 0
      vertex 1.51624 1.85208 0
    endloop
  endfacet
  facet normal 0 -0 -1
    outer loop
      vertex 1.51624 1.85208 0
      vertex 1.69404 -0.380291 0
      vertex 1.49648 -0.400049 0
    endloop
  endfacet
  facet normal 0 0 -1
    outer loop
      vertex 2.7312 1.29893 0
      vertex 1.51624 1.85208 0
      vertex 2.48426 1.64465 0
    endloop
  endfacet
  facet normal 0 0 -1
    outer loop
      vertex 2.48426 1.64465 0
      vertex 2.23731 1.86196 0
      vertex 2.48426 1.68416 0
    endloop
  endfacet
  facet normal 0 0 -1
    outer loop
      vertex 2.7312 1.41746 0
      vertex 2.48426 1.64465 0
      vertex 2.58304 1.62489 0
    endloop
  endfacet
  facet normal 0 0 -1
    outer loop
      vertex 1.51624 1.85208 0
      vertex 2.23731 1.86196 0
      vertex 2.48426 1.64465 0
    endloop
  endfacet
  facet normal 0 0 -1
    outer loop
      vertex 2.7312 1.29893 0
      vertex 2.48426 1.64465 0
      vertex 2.7312 1.41746 0
    endloop
  endfacet
  facet normal -0 0 -1
    outer loop
      vertex 3.03742 0.893938 0
      vertex 3.00778 0.726015 0
      vertex 2.7312 1.29893 0
    endloop
  endfacet
  facet normal -0 -0 -1
    outer loop
      vertex 3.00778 1.06186 0
      vertex 3.03742 0.893938 0
      vertex 2.7312 1.29893 0
    endloop
  endfacet
  facet normal 0 0 -1
    outer loop
      vertex 2.7312 1.29893 0
      vertex 2.80035 1.27917 0
      vertex 3.00778 1.06186 0
    endloop
  endfacet
  facet normal 0 0 -1
    outer loop
      vertex 3.00778 1.06186 0
      vertex 2.84974 1.26929 0
      vertex 2.86949 1.26929 0
    endloop
  endfacet
  facet normal 0 0 -1
    outer loop
      vertex 2.80035 1.27917 0
      vertex 2.84974 1.26929 0
      vertex 3.00778 1.06186 0
    endloop
  endfacet
  facet normal -0 0 -1
    outer loop
      vertex 3.07693 -0.0642037 0
      vertex 1.69404 -0.380291 0
      vertex 3.06705 0.0543248 0
    endloop
  endfacet
  facet normal -0 0 -1
    outer loop
      vertex 3.1757 0.43956 0
      vertex 3.10656 0.409928 0
      vertex 3.16583 0.567971 0
    endloop
  endfacet
  facet normal -0 0 -1
    outer loop
      vertex 3.16583 0.567971 0
      vertex 3.10656 0.409928 0
      vertex 3.00778 0.726015 0
    endloop
  endfacet
  facet normal 0 -0 -1
    outer loop
      vertex 3.10656 0.409928 0
      vertex 3.10656 0.34078 0
      vertex 3.06705 0.321027 0
    endloop
  endfacet
  facet normal 0 0 -1
    outer loop
      vertex 1.8422 -0.637114 0
      vertex 1.69404 -0.380291 0
      vertex 3.07693 -0.0642037 0
    endloop
  endfacet
  facet normal -0 0 -1
    outer loop
      vertex 3.10656 0.409928 0
      vertex 3.06705 0.321027 0
      vertex 3.00778 0.726015 0
    endloop
  endfacet
  facet normal 0 0 -1
    outer loop
      vertex 2.3756 -1.46685 0
      vertex 2.33609 -1.42734 0
      vertex 3.16583 -0.903816 0
    endloop
  endfacet
  facet normal 0 0 -1
    outer loop
      vertex 1.8422 -0.637114 0
      vertex 3.07693 -0.0642037 0
      vertex 3.14607 -0.716136 0
    endloop
  endfacet
  facet normal -0 0 -1
    outer loop
      vertex 3.09668 -0.0246927 0
      vertex 3.07693 -0.0642037 0
      vertex 3.09668 0.0049351 0
    endloop
  endfacet
  facet normal 0 0 -1
    outer loop
      vertex 3.07693 -0.0642037 0
      vertex 3.06705 0.0543248 0
      vertex 3.09668 0.0049351 0
    endloop
  endfacet
  facet normal 0 0 -1
    outer loop
      vertex 2.3756 -1.46685 0
      vertex 3.13619 -1.51624 0
      vertex 2.40524 -1.53599 0
    endloop
  endfacet
  facet normal 0 0 -1
    outer loop
      vertex 2.3756 -1.46685 0
      vertex 3.16583 -0.903816 0
      vertex 3.13619 -1.51624 0
    endloop
  endfacet
  facet normal 0 0 -1
    outer loop
      vertex 3.16583 -0.903816 0
      vertex 3.14607 -0.716136 0
      vertex 3.19546 -0.706257 0
    endloop
  endfacet
  facet normal 0 0 -1
    outer loop
      vertex 3.13619 -1.51624 0
      vertex 2.54353 -1.77306 0
      vertex 2.46451 -1.63477 0
    endloop
  endfacet
  facet normal 0 0 -1
    outer loop
      vertex 3.13619 -1.51624 0
      vertex 3.16583 -0.903816 0
      vertex 3.19546 -1.51624 0
    endloop
  endfacet
  facet normal 0 0 -1
    outer loop
      vertex 3.13619 -1.51624 0
      vertex 2.46451 -1.63477 0
      vertex 2.40524 -1.53599 0
    endloop
  endfacet
  facet normal 0 0 -1
    outer loop
      vertex 2.54353 -1.77306 0
      vertex 3.13619 -1.51624 0
      vertex 3.11644 -1.71379 0
    endloop
  endfacet
  facet normal 0 0 -1
    outer loop
      vertex 2.33609 -1.42734 0
      vertex 2.26695 -1.37795 0
      vertex 3.16583 -0.903816 0
    endloop
  endfacet
  facet normal -0 0 -1
    outer loop
      vertex 1.8422 -0.706257 0
      vertex 1.81257 -0.755647 0
      vertex 1.81257 -0.706257 0
    endloop
  endfacet
  facet normal 0 0 -1
    outer loop
      vertex 2.26695 -1.37795 0
      vertex 2.16817 -1.31868 0
      vertex 3.14607 -0.716136 0
    endloop
  endfacet
  facet normal 0 0 -1
    outer loop
      vertex 2.16817 -1.31868 0
      vertex 1.81257 -0.755647 0
      vertex 1.8422 -0.706257 0
    endloop
  endfacet
  facet normal 0 0 -1
    outer loop
      vertex 1.8422 -0.706257 0
      vertex 1.8422 -0.637114 0
      vertex 3.14607 -0.716136 0
    endloop
  endfacet
  facet normal 0 0 -1
    outer loop
      vertex 1.32856 1.93111 0
      vertex 1.51624 1.85208 0
      vertex 1.49648 -0.400049 0
    endloop
  endfacet
  facet normal -0 -0 -1
    outer loop
      vertex 1.32856 1.93111 0
      vertex 1.49648 -0.400049 0
      vertex 1.15076 1.98049 0
    endloop
  endfacet
  facet normal -0 0 -1
    outer loop
      vertex 3.06705 0.0543248 0
      vertex 1.69404 -0.380291 0
      vertex 3.06705 0.321027 0
    endloop
  endfacet
  facet normal 0 0 -1
    outer loop
      vertex 2.16817 -1.31868 0
      vertex 1.8422 -0.706257 0
      vertex 3.14607 -0.716136 0
    endloop
  endfacet
  facet normal 0 -0 -1
    outer loop
      vertex 2.7312 1.29893 0
      vertex 3.00778 0.726015 0
      vertex 1.69404 -0.380291 0
    endloop
  endfacet
  facet normal 0 0 -1
    outer loop
      vertex 1.69404 -0.380291 0
      vertex 3.00778 0.726015 0
      vertex 3.06705 0.321027 0
    endloop
  endfacet
  facet normal 0 0 -1
    outer loop
      vertex -0.0148139 2.06939 0
      vertex -1.25941 -0.637114 0
      vertex -0.518582 2.04964 0
    endloop
  endfacet
  facet normal 0 0 -1
    outer loop
      vertex 1.49648 -0.400049 0
      vertex 0.982838 2.01013 0
      vertex 1.15076 1.98049 0
    endloop
  endfacet
  facet normal 0 0 -1
    outer loop
      vertex 0.854427 -0.884059 0
      vertex -1.12112 -0.775405 0
      vertex -1.25941 -0.637114 0
    endloop
  endfacet
  facet normal 0 0 -1
    outer loop
      vertex 1.49648 -0.400049 0
      vertex 1.65452 -0.726015 0
      vertex 1.53599 -0.814916 0
    endloop
  endfacet
  facet normal 0 0 -1
    outer loop
      vertex -1.25941 -0.676625 0
      vertex -1.15076 -0.765526 0
      vertex -1.2199 -0.745768 0
    endloop
  endfacet
  facet normal -0 0 -1
    outer loop
      vertex 0.716136 -2.1089 0
      vertex 0.696383 -2.12866 0
      vertex 0.666747 -2.1089 0
    endloop
  endfacet
  facet normal 0 0 -1
    outer loop
      vertex 0.854427 -0.884059 0
      vertex 1.15076 -1.3088 0
      vertex 1.11125 -1.37795 0
    endloop
  endfacet
  facet normal 0 0 -1
    outer loop
      vertex 1.22978 -1.87184 0
      vertex 1.11125 -1.37795 0
      vertex 1.26929 -1.64465 0
    endloop
  endfacet
  facet normal 0 0 -1
    outer loop
      vertex 1.11125 -1.37795 0
      vertex 1.17051 -1.40758 0
      vertex 1.26929 -1.64465 0
    endloop
  endfacet
  facet normal 0 0 -1
    outer loop
      vertex 1.22978 -1.87184 0
      vertex 1.26929 -1.64465 0
      vertex 1.26929 -1.83233 0
    endloop
  endfacet
  facet normal -0 0 -1
    outer loop
      vertex 1.22978 -2.01013 0
      vertex 1.16064 -2.03976 0
      vertex 1.22978 -1.87184 0
    endloop
  endfacet
  facet normal -0 0 -1
    outer loop
      vertex 1.16064 -2.03976 0
      vertex 1.10137 -2.06939 0
      vertex 1.09149 -2.03976 0
    endloop
  endfacet
  facet normal 0 0 -1
    outer loop
      vertex 1.22978 -1.87184 0
      vertex 1.25941 -1.91135 0
      vertex 1.22978 -2.01013 0
    endloop
  endfacet
  facet normal -0 0 -1
    outer loop
      vertex 1.15076 -2.06939 0
      vertex 1.131 -2.09903 0
      vertex 1.10137 -2.06939 0
    endloop
  endfacet
  facet normal 0 0 -1
    outer loop
      vertex 1.15076 -2.06939 0
      vertex 1.10137 -2.06939 0
      vertex 1.16064 -2.03976 0
    endloop
  endfacet
  facet normal 0 0 -1
    outer loop
      vertex 1.16064 -2.03976 0
      vertex 1.09149 -2.03976 0
      vertex 1.22978 -1.87184 0
    endloop
  endfacet
  facet normal -0 0 -1
    outer loop
      vertex 1.09149 -2.03976 0
      vertex 0.735894 -2.07927 0
      vertex 1.22978 -1.87184 0
    endloop
  endfacet
  facet normal 0 0 -1
    outer loop
      vertex 0.716136 -2.1089 0
      vertex 0.646993 -2.07927 0
      vertex 0.735894 -2.07927 0
    endloop
  endfacet
  facet normal 0 0 -1
    outer loop
      vertex 0.735894 -2.07927 0
      vertex 1.11125 -1.37795 0
      vertex 1.22978 -1.87184 0
    endloop
  endfacet
  facet normal 0 0 -1
    outer loop
      vertex 0.716136 -2.1089 0
      vertex 0.666747 -2.1089 0
      vertex 0.646993 -2.07927 0
    endloop
  endfacet
  facet normal 0 0 -1
    outer loop
      vertex 0.735894 -2.07927 0
      vertex 0.646993 -2.07927 0
      vertex 1.11125 -1.37795 0
    endloop
  endfacet
  facet normal -0 0 -1
    outer loop
      vertex 0.646993 -2.07927 0
      vertex 0.597603 -2.08915 0
      vertex 1.11125 -1.37795 0
    endloop
  endfacet
  facet normal 0 0 -1
    outer loop
      vertex -1.12112 -0.775405 0
      vertex 0.854427 -0.884059 0
      vertex 0.597603 -2.08915 0
    endloop
  endfacet
  facet normal 0 0 -1
    outer loop
      vertex 0.597603 -2.08915 0
      vertex 0.854427 -0.884059 0
      vertex 1.11125 -1.37795 0
    endloop
  endfacet
  facet normal 0 0 -1
    outer loop
      vertex -1.25941 -0.676625 0
      vertex -1.2199 -0.745768 0
      vertex -1.24954 -0.716136 0
    endloop
  endfacet
  facet normal -0 0 -1
    outer loop
      vertex -0.597603 2.03976 0
      vertex -1.54587 -0.419802 0
      vertex -0.716136 2.03976 0
    endloop
  endfacet
  facet normal 0 0 -1
    outer loop
      vertex -1.25941 -0.637114 0
      vertex -1.12112 -0.775405 0
      vertex -1.15076 -0.765526 0
    endloop
  endfacet
  facet normal 0 -0 -1
    outer loop
      vertex -1.08161 2.02988 0
      vertex -0.87418 2.02988 0
      vertex -1.24954 1.98049 0
    endloop
  endfacet
  facet normal 0 0 -1
    outer loop
      vertex -1.54587 -0.419802 0
      vertex -1.3088 -0.597603 0
      vertex -1.37795 -0.558093 0
    endloop
  endfacet
  facet normal 0 0 -1
    outer loop
      vertex -1.37795 -0.558093 0
      vertex -1.52611 -0.508703 0
      vertex -1.54587 -0.419802 0
    endloop
  endfacet
  facet normal 0 0 -1
    outer loop
      vertex -1.63477 1.92123 0
      vertex -2.02988 1.73355 0
      vertex -1.73355 1.90147 0
    endloop
  endfacet
  facet normal 0 0 -1
    outer loop
      vertex -2.02988 1.73355 0
      vertex -1.93111 1.87184 0
      vertex -1.86196 1.88172 0
    endloop
  endfacet
  facet normal 0 0 -1
    outer loop
      vertex -1.52611 -0.508703 0
      vertex -1.37795 -0.558093 0
      vertex -1.39771 -0.577846 0
    endloop
  endfacet
  facet normal 0 0 -1
    outer loop
      vertex -1.52611 -0.508703 0
      vertex -1.39771 -0.577846 0
      vertex -1.40758 -0.597603 0
    endloop
  endfacet
  facet normal 0 0 -1
    outer loop
      vertex -2.02988 1.73355 0
      vertex -1.86196 1.88172 0
      vertex -1.82245 1.88172 0
    endloop
  endfacet
  facet normal 0 0 -1
    outer loop
      vertex -1.76318 -0.301269 0
      vertex -1.80269 -0.281516 0
      vertex -1.68416 -0.301269 0
    endloop
  endfacet
  facet normal 0 0 -1
    outer loop
      vertex -2.83986 1.24954 0
      vertex -2.50402 1.49648 0
      vertex -2.8201 0.913691 0
    endloop
  endfacet
  facet normal 0 0 -1
    outer loop
      vertex -1.80269 -0.281516 0
      vertex -1.8422 -0.25188 0
      vertex -1.68416 -0.301269 0
    endloop
  endfacet
  facet normal 0 0 -1
    outer loop
      vertex -1.8422 -0.25188 0
      vertex -2.03976 -0.143226 0
      vertex -1.68416 -0.301269 0
    endloop
  endfacet
  facet normal 0 0 -1
    outer loop
      vertex -1.91135 -0.25188 0
      vertex -1.94098 -0.222247 0
      vertex -1.8422 -0.25188 0
    endloop
  endfacet
  facet normal 0 0 -1
    outer loop
      vertex -1.94098 -0.222247 0
      vertex -2.03976 -0.143226 0
      vertex -1.8422 -0.25188 0
    endloop
  endfacet
  facet normal 0 0 -1
    outer loop
      vertex -2.03976 -0.143226 0
      vertex -2.12866 -0.0740825 0
      vertex -1.68416 -0.301269 0
    endloop
  endfacet
  facet normal 0 0 -1
    outer loop
      vertex -2.03976 -0.192615 0
      vertex -2.03976 -0.143226 0
      vertex -1.94098 -0.222247 0
    endloop
  endfacet
  facet normal 0 0 -1
    outer loop
      vertex -2.22744 -0.192615 0
      vertex -3.11644 0.459313 0
      vertex -2.12866 -0.0740825 0
    endloop
  endfacet
  facet normal 0 -0 -1
    outer loop
      vertex -2.82998 1.27917 0
      vertex -2.50402 1.49648 0
      vertex -2.83986 1.24954 0
    endloop
  endfacet
  facet normal 0 0 -1
    outer loop
      vertex -2.33609 -0.311148 0
      vertex -3.05717 -0.212369 0
      vertex -2.22744 -0.192615 0
    endloop
  endfacet
  facet normal -0 0 -1
    outer loop
      vertex -2.43487 -0.419802 0
      vertex -2.66206 -0.498824 0
      vertex -2.93864 -0.370417 0
    endloop
  endfacet
  facet normal 0 0 -1
    outer loop
      vertex -2.66206 -0.498824 0
      vertex -2.81022 -0.469192 0
      vertex -2.93864 -0.370417 0
    endloop
  endfacet
  facet normal 0 0 -1
    outer loop
      vertex -2.43487 -0.419802 0
      vertex -2.93864 -0.370417 0
      vertex -2.33609 -0.311148 0
    endloop
  endfacet
  facet normal 0 0 -1
    outer loop
      vertex -2.93864 -0.370417 0
      vertex -3.05717 -0.212369 0
      vertex -2.33609 -0.311148 0
    endloop
  endfacet
  facet normal 0 0 -1
    outer loop
      vertex -3.05717 -0.212369 0
      vertex -3.14607 -0.103715 0
      vertex -3.19546 0.202494 0
    endloop
  endfacet
  facet normal 0 0 -1
    outer loop
      vertex -3.19546 -0.0246927 0
      vertex -3.19546 0.202494 0
      vertex -3.14607 -0.103715 0
    endloop
  endfacet
  facet normal 0 0 -1
    outer loop
      vertex -3.05717 -0.212369 0
      vertex -3.19546 0.202494 0
      vertex -3.15595 0.350659 0
    endloop
  endfacet
  facet normal 0 0 -1
    outer loop
      vertex -3.05717 -0.212369 0
      vertex -3.15595 0.350659 0
      vertex -2.22744 -0.192615 0
    endloop
  endfacet
  facet normal 0 0 -1
    outer loop
      vertex -3.15595 0.350659 0
      vertex -3.11644 0.459313 0
      vertex -2.22744 -0.192615 0
    endloop
  endfacet
  facet normal 0 0 -1
    outer loop
      vertex -2.8201 0.913691 0
      vertex -3.10656 0.567971 0
      vertex -3.09668 0.656872 0
    endloop
  endfacet
  facet normal 0 -0 -1
    outer loop
      vertex -2.93864 0.87418 0
      vertex -2.8201 0.913691 0
      vertex -3.03742 0.785279 0
    endloop
  endfacet
  facet normal 0 0 -1
    outer loop
      vertex -3.10656 0.567971 0
      vertex -3.10656 0.637114 0
      vertex -3.09668 0.656872 0
    endloop
  endfacet
  facet normal 0 0 -1
    outer loop
      vertex -2.8201 0.913691 0
      vertex -3.09668 0.656872 0
      vertex -3.03742 0.785279 0
    endloop
  endfacet
  facet normal 0 0 -1
    outer loop
      vertex -3.11644 0.459313 0
      vertex -2.8201 0.913691 0
      vertex -2.12866 -0.0740825 0
    endloop
  endfacet
  facet normal 0 0 -1
    outer loop
      vertex -3.11644 0.459313 0
      vertex -3.10656 0.567971 0
      vertex -2.8201 0.913691 0
    endloop
  endfacet
  facet normal 0 -0 -1
    outer loop
      vertex -2.50402 1.49648 0
      vertex -2.12866 -0.0740825 0
      vertex -2.8201 0.913691 0
    endloop
  endfacet
  facet normal 0 0 -1
    outer loop
      vertex -1.68416 -0.301269 0
      vertex -2.12866 -0.0740825 0
      vertex -2.02988 1.73355 0
    endloop
  endfacet
  facet normal 0 0 -1
    outer loop
      vertex -2.02988 1.73355 0
      vertex -2.12866 -0.0740825 0
      vertex -2.50402 1.49648 0
    endloop
  endfacet
  facet normal 0 0 -1
    outer loop
      vertex -1.93111 1.87184 0
      vertex -2.02988 1.73355 0
      vertex -1.99037 1.83233 0
    endloop
  endfacet
  facet normal 0 0 -1
    outer loop
      vertex -2.02988 1.73355 0
      vertex -1.82245 1.88172 0
      vertex -1.73355 1.90147 0
    endloop
  endfacet
  facet normal 0 0 -1
    outer loop
      vertex -1.82245 1.88172 0
      vertex -1.81257 1.89159 0
      vertex -1.73355 1.90147 0
    endloop
  endfacet
  facet normal 0 0 -1
    outer loop
      vertex -2.05951 1.81257 0
      vertex -1.99037 1.83233 0
      vertex -2.02988 1.73355 0
    endloop
  endfacet
  facet normal 0 0 -1
    outer loop
      vertex -1.68416 -0.301269 0
      vertex -2.02988 1.73355 0
      vertex -1.50636 1.93111 0
    endloop
  endfacet
  facet normal 0 0 -1
    outer loop
      vertex -1.50636 1.93111 0
      vertex -2.02988 1.73355 0
      vertex -1.63477 1.92123 0
    endloop
  endfacet
  facet normal 0 0 -1
    outer loop
      vertex -1.24954 1.98049 0
      vertex -1.50636 1.93111 0
      vertex -1.36807 1.97062 0
    endloop
  endfacet
  facet normal 0 0 -1
    outer loop
      vertex -1.36807 1.97062 0
      vertex -1.50636 1.93111 0
      vertex -1.45697 1.95086 0
    endloop
  endfacet
  facet normal 0 -0 -1
    outer loop
      vertex -1.54587 1.93111 0
      vertex -1.50636 1.93111 0
      vertex -1.63477 1.92123 0
    endloop
  endfacet
  facet normal 0 0 -1
    outer loop
      vertex -0.87418 2.02988 0
      vertex -1.68416 -0.301269 0
      vertex -1.24954 1.98049 0
    endloop
  endfacet
  facet normal 0 -0 -1
    outer loop
      vertex -0.963081 2.03976 0
      vertex -0.87418 2.02988 0
      vertex -1.08161 2.02988 0
    endloop
  endfacet
  facet normal 0 0 -1
    outer loop
      vertex -1.54587 -0.419802 0
      vertex -1.68416 -0.301269 0
      vertex -0.87418 2.02988 0
    endloop
  endfacet
  facet normal 0 0 -1
    outer loop
      vertex -1.68416 -0.301269 0
      vertex -1.50636 1.93111 0
      vertex -1.24954 1.98049 0
    endloop
  endfacet
  facet normal 0 0 -1
    outer loop
      vertex -1.3088 -0.597603 0
      vertex -1.54587 -0.419802 0
      vertex -0.597603 2.03976 0
    endloop
  endfacet
  facet normal 0 0 -1
    outer loop
      vertex -1.54587 -0.419802 0
      vertex -0.87418 2.02988 0
      vertex -0.716136 2.03976 0
    endloop
  endfacet
  facet normal 0 0 -1
    outer loop
      vertex -1.3088 -0.597603 0
      vertex -0.518582 2.04964 0
      vertex -1.25941 -0.637114 0
    endloop
  endfacet
  facet normal 0 0 -1
    outer loop
      vertex -1.25941 -0.637114 0
      vertex -0.0148139 2.06939 0
      vertex 0.854427 -0.884059 0
    endloop
  endfacet
  facet normal 0 0 -1
    outer loop
      vertex -1.3088 -0.597603 0
      vertex -0.597603 2.03976 0
      vertex -0.518582 2.04964 0
    endloop
  endfacet
  facet normal 0 0 -1
    outer loop
      vertex -0.0148139 2.06939 0
      vertex 0.212369 2.06939 0
      vertex 0.854427 -0.884059 0
    endloop
  endfacet
  facet normal 0 0 -1
    outer loop
      vertex -0.29139 2.07927 0
      vertex -0.0938358 2.07927 0
      vertex -0.0148139 2.06939 0
    endloop
  endfacet
  facet normal 0 0 -1
    outer loop
      vertex -0.518582 2.04964 0
      vertex -0.29139 2.07927 0
      vertex -0.0148139 2.06939 0
    endloop
  endfacet
  facet normal -0 0 -1
    outer loop
      vertex 1.49648 -0.400049 0
      vertex 0.854427 -0.884059 0
      vertex 0.380291 2.05951 0
    endloop
  endfacet
  facet normal 0 0 -1
    outer loop
      vertex 0.884059 2.03976 0
      vertex 0.893938 2.05951 0
      vertex 0.963081 2.04964 0
    endloop
  endfacet
  facet normal 0 0 -1
    outer loop
      vertex 0.864306 2.02 0
      vertex 0.884059 2.03976 0
      vertex 0.982838 2.01013 0
    endloop
  endfacet
  facet normal 0 0 -1
    outer loop
      vertex 0.212369 2.06939 0
      vertex 0.380291 2.05951 0
      vertex 0.854427 -0.884059 0
    endloop
  endfacet
  facet normal 0 0 -1
    outer loop
      vertex 0.884059 2.03976 0
      vertex 0.963081 2.04964 0
      vertex 0.982838 2.01013 0
    endloop
  endfacet
  facet normal 0 0 -1
    outer loop
      vertex 1.49648 -0.400049 0
      vertex 0.380291 2.05951 0
      vertex 0.597603 2.04964 0
    endloop
  endfacet
  facet normal 0 0 -1
    outer loop
      vertex 1.49648 -0.400049 0
      vertex 0.864306 2.02 0
      vertex 0.982838 2.01013 0
    endloop
  endfacet
  facet normal 0 0 -1
    outer loop
      vertex 1.49648 -0.400049 0
      vertex 0.597603 2.04964 0
      vertex 0.864306 2.02 0
    endloop
  endfacet
  facet normal 0 0 -1
    outer loop
      vertex 0.893938 2.05951 0
      vertex 0.953202 2.08915 0
      vertex 0.963081 2.04964 0
    endloop
  endfacet
  facet normal -0 0 -1
    outer loop
      vertex 0.953202 2.08915 0
      vertex 0.893938 2.05951 0
      vertex 0.884059 2.1089 0
    endloop
  endfacet
  facet normal 0 0 -1
    outer loop
      vertex 0.963081 2.1089 0
      vertex 0.884059 2.1089 0
      vertex 0.963081 2.12866 0
    endloop
  endfacet
  facet normal -0 0 -1
    outer loop
      vertex 0.963081 2.12866 0
      vertex 0.884059 2.1089 0
      vertex 0.884059 2.12866 0
    endloop
  endfacet
  facet normal 0 0 1
    outer loop
      vertex 1.53599 -0.814916 5
      vertex 1.49648 -0.400049 5
      vertex 0.854427 -0.884059 5
    endloop
  endfacet
  facet normal 0 -0 1
    outer loop
      vertex 0.953202 2.08915 5
      vertex 0.963081 2.1089 5
      vertex 0.884059 2.1089 5
    endloop
  endfacet
  facet normal 0 0 1
    outer loop
      vertex 3.16583 -0.903816 5
      vertex 3.14607 -0.716136 5
      vertex 2.26695 -1.37795 5
    endloop
  endfacet
  facet normal 0 0 1
    outer loop
      vertex -1.25941 -0.637114 5
      vertex -1.25941 -0.676625 5
      vertex -1.15076 -0.765526 5
    endloop
  endfacet
  facet normal 0 0 1
    outer loop
      vertex 0.963081 2.04964 5
      vertex 0.982838 2.01013 5
      vertex 0.982838 2.02988 5
    endloop
  endfacet
  facet normal 0 0 1
    outer loop
      vertex 1.51624 1.85208 5
      vertex 1.69404 -0.380291 5
      vertex 2.7312 1.29893 5
    endloop
  endfacet
  facet normal 0 0 1
    outer loop
      vertex 1.49648 -0.400049 5
      vertex 1.69404 -0.380291 5
      vertex 1.51624 1.85208 5
    endloop
  endfacet
  facet normal 0 0 1
    outer loop
      vertex 2.48426 1.64465 5
      vertex 1.51624 1.85208 5
      vertex 2.7312 1.29893 5
    endloop
  endfacet
  facet normal 0 0 1
    outer loop
      vertex 2.48426 1.68416 5
      vertex 2.23731 1.86196 5
      vertex 2.48426 1.64465 5
    endloop
  endfacet
  facet normal 0 0 1
    outer loop
      vertex 2.58304 1.62489 5
      vertex 2.48426 1.64465 5
      vertex 2.7312 1.41746 5
    endloop
  endfacet
  facet normal 0 0 1
    outer loop
      vertex 2.48426 1.64465 5
      vertex 2.23731 1.86196 5
      vertex 1.51624 1.85208 5
    endloop
  endfacet
  facet normal 0 0 1
    outer loop
      vertex 2.7312 1.41746 5
      vertex 2.48426 1.64465 5
      vertex 2.7312 1.29893 5
    endloop
  endfacet
  facet normal 0 0 1
    outer loop
      vertex 2.7312 1.29893 5
      vertex 3.00778 0.726015 5
      vertex 3.03742 0.893938 5
    endloop
  endfacet
  facet normal 0 0 1
    outer loop
      vertex 2.7312 1.29893 5
      vertex 3.03742 0.893938 5
      vertex 3.00778 1.06186 5
    endloop
  endfacet
  facet normal 0 0 1
    outer loop
      vertex 3.00778 1.06186 5
      vertex 2.80035 1.27917 5
      vertex 2.7312 1.29893 5
    endloop
  endfacet
  facet normal 0 0 1
    outer loop
      vertex 2.86949 1.26929 5
      vertex 2.84974 1.26929 5
      vertex 3.00778 1.06186 5
    endloop
  endfacet
  facet normal 0 0 1
    outer loop
      vertex 3.00778 1.06186 5
      vertex 2.84974 1.26929 5
      vertex 2.80035 1.27917 5
    endloop
  endfacet
  facet normal 0 0 1
    outer loop
      vertex 3.06705 0.0543248 5
      vertex 1.69404 -0.380291 5
      vertex 3.07693 -0.0642037 5
    endloop
  endfacet
  facet normal 0 0 1
    outer loop
      vertex 3.16583 0.567971 5
      vertex 3.10656 0.409928 5
      vertex 3.1757 0.43956 5
    endloop
  endfacet
  facet normal 0 0 1
    outer loop
      vertex 3.00778 0.726015 5
      vertex 3.10656 0.409928 5
      vertex 3.16583 0.567971 5
    endloop
  endfacet
  facet normal 0 0 1
    outer loop
      vertex 3.06705 0.321027 5
      vertex 3.10656 0.34078 5
      vertex 3.10656 0.409928 5
    endloop
  endfacet
  facet normal 0 0 1
    outer loop
      vertex 3.07693 -0.0642037 5
      vertex 1.69404 -0.380291 5
      vertex 1.8422 -0.637114 5
    endloop
  endfacet
  facet normal 0 0 1
    outer loop
      vertex 3.00778 0.726015 5
      vertex 3.06705 0.321027 5
      vertex 3.10656 0.409928 5
    endloop
  endfacet
  facet normal 0 0 1
    outer loop
      vertex 3.16583 -0.903816 5
      vertex 2.33609 -1.42734 5
      vertex 2.3756 -1.46685 5
    endloop
  endfacet
  facet normal 0 0 1
    outer loop
      vertex 3.14607 -0.716136 5
      vertex 3.07693 -0.0642037 5
      vertex 1.8422 -0.637114 5
    endloop
  endfacet
  facet normal 0 0 1
    outer loop
      vertex 3.09668 0.0049351 5
      vertex 3.07693 -0.0642037 5
      vertex 3.09668 -0.0246927 5
    endloop
  endfacet
  facet normal 0 0 1
    outer loop
      vertex 3.09668 0.0049351 5
      vertex 3.06705 0.0543248 5
      vertex 3.07693 -0.0642037 5
    endloop
  endfacet
  facet normal 0 -0 1
    outer loop
      vertex 2.40524 -1.53599 5
      vertex 3.13619 -1.51624 5
      vertex 2.3756 -1.46685 5
    endloop
  endfacet
  facet normal 0 -0 1
    outer loop
      vertex 3.13619 -1.51624 5
      vertex 3.16583 -0.903816 5
      vertex 2.3756 -1.46685 5
    endloop
  endfacet
  facet normal 0 0 1
    outer loop
      vertex 3.19546 -0.706257 5
      vertex 3.14607 -0.716136 5
      vertex 3.16583 -0.903816 5
    endloop
  endfacet
  facet normal -0 0 1
    outer loop
      vertex 2.46451 -1.63477 5
      vertex 2.54353 -1.77306 5
      vertex 3.13619 -1.51624 5
    endloop
  endfacet
  facet normal 0 0 1
    outer loop
      vertex 3.19546 -1.51624 5
      vertex 3.16583 -0.903816 5
      vertex 3.13619 -1.51624 5
    endloop
  endfacet
  facet normal -0 0 1
    outer loop
      vertex 2.40524 -1.53599 5
      vertex 2.46451 -1.63477 5
      vertex 3.13619 -1.51624 5
    endloop
  endfacet
  facet normal 0 -0 1
    outer loop
      vertex 3.11644 -1.71379 5
      vertex 3.13619 -1.51624 5
      vertex 2.54353 -1.77306 5
    endloop
  endfacet
  facet normal 0 0 1
    outer loop
      vertex 3.16583 -0.903816 5
      vertex 2.26695 -1.37795 5
      vertex 2.33609 -1.42734 5
    endloop
  endfacet
  facet normal -0 0 1
    outer loop
      vertex 1.81257 -0.706257 5
      vertex 1.81257 -0.755647 5
      vertex 1.8422 -0.706257 5
    endloop
  endfacet
  facet normal 0 0 1
    outer loop
      vertex 3.14607 -0.716136 5
      vertex 2.16817 -1.31868 5
      vertex 2.26695 -1.37795 5
    endloop
  endfacet
  facet normal 0 0 1
    outer loop
      vertex 1.8422 -0.706257 5
      vertex 1.81257 -0.755647 5
      vertex 2.16817 -1.31868 5
    endloop
  endfacet
  facet normal 0 0 1
    outer loop
      vertex 3.14607 -0.716136 5
      vertex 1.8422 -0.637114 5
      vertex 1.8422 -0.706257 5
    endloop
  endfacet
  facet normal 0 -0 1
    outer loop
      vertex 1.49648 -0.400049 5
      vertex 1.51624 1.85208 5
      vertex 1.32856 1.93111 5
    endloop
  endfacet
  facet normal 0 0 1
    outer loop
      vertex 1.15076 1.98049 5
      vertex 1.49648 -0.400049 5
      vertex 1.32856 1.93111 5
    endloop
  endfacet
  facet normal 0 0 1
    outer loop
      vertex 3.06705 0.321027 5
      vertex 1.69404 -0.380291 5
      vertex 3.06705 0.0543248 5
    endloop
  endfacet
  facet normal 0 0 1
    outer loop
      vertex 3.14607 -0.716136 5
      vertex 1.8422 -0.706257 5
      vertex 2.16817 -1.31868 5
    endloop
  endfacet
  facet normal 0 0 1
    outer loop
      vertex 1.69404 -0.380291 5
      vertex 3.00778 0.726015 5
      vertex 2.7312 1.29893 5
    endloop
  endfacet
  facet normal 0 0 1
    outer loop
      vertex 3.06705 0.321027 5
      vertex 3.00778 0.726015 5
      vertex 1.69404 -0.380291 5
    endloop
  endfacet
  facet normal -0 0 1
    outer loop
      vertex -0.518582 2.04964 5
      vertex -1.25941 -0.637114 5
      vertex -0.0148139 2.06939 5
    endloop
  endfacet
  facet normal 0 0 1
    outer loop
      vertex 1.15076 1.98049 5
      vertex 0.982838 2.01013 5
      vertex 1.49648 -0.400049 5
    endloop
  endfacet
  facet normal 0 0 1
    outer loop
      vertex -1.25941 -0.637114 5
      vertex -1.12112 -0.775405 5
      vertex 0.854427 -0.884059 5
    endloop
  endfacet
  facet normal 0 -0 1
    outer loop
      vertex 1.53599 -0.814916 5
      vertex 1.65452 -0.726015 5
      vertex 1.49648 -0.400049 5
    endloop
  endfacet
  facet normal -0 -0 1
    outer loop
      vertex -1.2199 -0.745768 5
      vertex -1.15076 -0.765526 5
      vertex -1.25941 -0.676625 5
    endloop
  endfacet
  facet normal -0 0 1
    outer loop
      vertex 0.666747 -2.1089 5
      vertex 0.696383 -2.12866 5
      vertex 0.716136 -2.1089 5
    endloop
  endfacet
  facet normal 0 -0 1
    outer loop
      vertex 1.11125 -1.37795 5
      vertex 1.15076 -1.3088 5
      vertex 0.854427 -0.884059 5
    endloop
  endfacet
  facet normal 0 0 1
    outer loop
      vertex 1.26929 -1.64465 5
      vertex 1.11125 -1.37795 5
      vertex 1.22978 -1.87184 5
    endloop
  endfacet
  facet normal 0 0 1
    outer loop
      vertex 1.26929 -1.64465 5
      vertex 1.17051 -1.40758 5
      vertex 1.11125 -1.37795 5
    endloop
  endfacet
  facet normal 0 -0 1
    outer loop
      vertex 1.26929 -1.83233 5
      vertex 1.26929 -1.64465 5
      vertex 1.22978 -1.87184 5
    endloop
  endfacet
  facet normal 0 0 1
    outer loop
      vertex 1.22978 -1.87184 5
      vertex 1.16064 -2.03976 5
      vertex 1.22978 -2.01013 5
    endloop
  endfacet
  facet normal -0 0 1
    outer loop
      vertex 1.09149 -2.03976 5
      vertex 1.10137 -2.06939 5
      vertex 1.16064 -2.03976 5
    endloop
  endfacet
  facet normal 0 0 1
    outer loop
      vertex 1.22978 -2.01013 5
      vertex 1.25941 -1.91135 5
      vertex 1.22978 -1.87184 5
    endloop
  endfacet
  facet normal -0 0 1
    outer loop
      vertex 1.10137 -2.06939 5
      vertex 1.131 -2.09903 5
      vertex 1.15076 -2.06939 5
    endloop
  endfacet
  facet normal 0 0 1
    outer loop
      vertex 1.16064 -2.03976 5
      vertex 1.10137 -2.06939 5
      vertex 1.15076 -2.06939 5
    endloop
  endfacet
  facet normal 0 0 1
    outer loop
      vertex 1.22978 -1.87184 5
      vertex 1.09149 -2.03976 5
      vertex 1.16064 -2.03976 5
    endloop
  endfacet
  facet normal 0 0 1
    outer loop
      vertex 1.22978 -1.87184 5
      vertex 0.735894 -2.07927 5
      vertex 1.09149 -2.03976 5
    endloop
  endfacet
  facet normal 0 0 1
    outer loop
      vertex 0.735894 -2.07927 5
      vertex 0.646993 -2.07927 5
      vertex 0.716136 -2.1089 5
    endloop
  endfacet
  facet normal 0 0 1
    outer loop
      vertex 1.22978 -1.87184 5
      vertex 1.11125 -1.37795 5
      vertex 0.735894 -2.07927 5
    endloop
  endfacet
  facet normal 0 0 1
    outer loop
      vertex 0.646993 -2.07927 5
      vertex 0.666747 -2.1089 5
      vertex 0.716136 -2.1089 5
    endloop
  endfacet
  facet normal 0 0 1
    outer loop
      vertex 1.11125 -1.37795 5
      vertex 0.646993 -2.07927 5
      vertex 0.735894 -2.07927 5
    endloop
  endfacet
  facet normal 0 0 1
    outer loop
      vertex 1.11125 -1.37795 5
      vertex 0.597603 -2.08915 5
      vertex 0.646993 -2.07927 5
    endloop
  endfacet
  facet normal 0 -0 1
    outer loop
      vertex 0.597603 -2.08915 5
      vertex 0.854427 -0.884059 5
      vertex -1.12112 -0.775405 5
    endloop
  endfacet
  facet normal 0 0 1
    outer loop
      vertex 1.11125 -1.37795 5
      vertex 0.854427 -0.884059 5
      vertex 0.597603 -2.08915 5
    endloop
  endfacet
  facet normal -0 -0 1
    outer loop
      vertex -1.24954 -0.716136 5
      vertex -1.2199 -0.745768 5
      vertex -1.25941 -0.676625 5
    endloop
  endfacet
  facet normal -0 0 1
    outer loop
      vertex -0.716136 2.03976 5
      vertex -1.54587 -0.419802 5
      vertex -0.597603 2.03976 5
    endloop
  endfacet
  facet normal -0 -0 1
    outer loop
      vertex -1.15076 -0.765526 5
      vertex -1.12112 -0.775405 5
      vertex -1.25941 -0.637114 5
    endloop
  endfacet
  facet normal 0 0 1
    outer loop
      vertex -1.24954 1.98049 5
      vertex -0.87418 2.02988 5
      vertex -1.08161 2.02988 5
    endloop
  endfacet
  facet normal -0 -0 1
    outer loop
      vertex -1.37795 -0.558093 5
      vertex -1.3088 -0.597603 5
      vertex -1.54587 -0.419802 5
    endloop
  endfacet
  facet normal 0 0 1
    outer loop
      vertex -1.54587 -0.419802 5
      vertex -1.52611 -0.508703 5
      vertex -1.37795 -0.558093 5
    endloop
  endfacet
  facet normal -0 0 1
    outer loop
      vertex -1.73355 1.90147 5
      vertex -2.02988 1.73355 5
      vertex -1.63477 1.92123 5
    endloop
  endfacet
  facet normal 0 0 1
    outer loop
      vertex -1.86196 1.88172 5
      vertex -1.93111 1.87184 5
      vertex -2.02988 1.73355 5
    endloop
  endfacet
  facet normal 0 -0 1
    outer loop
      vertex -1.39771 -0.577846 5
      vertex -1.37795 -0.558093 5
      vertex -1.52611 -0.508703 5
    endloop
  endfacet
  facet normal 0 -0 1
    outer loop
      vertex -1.40758 -0.597603 5
      vertex -1.39771 -0.577846 5
      vertex -1.52611 -0.508703 5
    endloop
  endfacet
  facet normal 0 0 1
    outer loop
      vertex -1.82245 1.88172 5
      vertex -1.86196 1.88172 5
      vertex -2.02988 1.73355 5
    endloop
  endfacet
  facet normal 0 0 1
    outer loop
      vertex -1.68416 -0.301269 5
      vertex -1.80269 -0.281516 5
      vertex -1.76318 -0.301269 5
    endloop
  endfacet
  facet normal 0 -0 1
    outer loop
      vertex -2.8201 0.913691 5
      vertex -2.50402 1.49648 5
      vertex -2.83986 1.24954 5
    endloop
  endfacet
  facet normal 0 0 1
    outer loop
      vertex -1.68416 -0.301269 5
      vertex -1.8422 -0.25188 5
      vertex -1.80269 -0.281516 5
    endloop
  endfacet
  facet normal 0 0 1
    outer loop
      vertex -1.68416 -0.301269 5
      vertex -2.03976 -0.143226 5
      vertex -1.8422 -0.25188 5
    endloop
  endfacet
  facet normal 0 0 1
    outer loop
      vertex -1.8422 -0.25188 5
      vertex -1.94098 -0.222247 5
      vertex -1.91135 -0.25188 5
    endloop
  endfacet
  facet normal 0 0 1
    outer loop
      vertex -1.8422 -0.25188 5
      vertex -2.03976 -0.143226 5
      vertex -1.94098 -0.222247 5
    endloop
  endfacet
  facet normal 0 0 1
    outer loop
      vertex -1.68416 -0.301269 5
      vertex -2.12866 -0.0740825 5
      vertex -2.03976 -0.143226 5
    endloop
  endfacet
  facet normal 0 0 1
    outer loop
      vertex -1.94098 -0.222247 5
      vertex -2.03976 -0.143226 5
      vertex -2.03976 -0.192615 5
    endloop
  endfacet
  facet normal 0 0 1
    outer loop
      vertex -2.12866 -0.0740825 5
      vertex -3.11644 0.459313 5
      vertex -2.22744 -0.192615 5
    endloop
  endfacet
  facet normal 0 0 1
    outer loop
      vertex -2.83986 1.24954 5
      vertex -2.50402 1.49648 5
      vertex -2.82998 1.27917 5
    endloop
  endfacet
  facet normal 0 0 1
    outer loop
      vertex -2.22744 -0.192615 5
      vertex -3.05717 -0.212369 5
      vertex -2.33609 -0.311148 5
    endloop
  endfacet
  facet normal 0 0 1
    outer loop
      vertex -2.93864 -0.370417 5
      vertex -2.66206 -0.498824 5
      vertex -2.43487 -0.419802 5
    endloop
  endfacet
  facet normal 0 0 1
    outer loop
      vertex -2.93864 -0.370417 5
      vertex -2.81022 -0.469192 5
      vertex -2.66206 -0.498824 5
    endloop
  endfacet
  facet normal 0 0 1
    outer loop
      vertex -2.33609 -0.311148 5
      vertex -2.93864 -0.370417 5
      vertex -2.43487 -0.419802 5
    endloop
  endfacet
  facet normal 0 0 1
    outer loop
      vertex -2.33609 -0.311148 5
      vertex -3.05717 -0.212369 5
      vertex -2.93864 -0.370417 5
    endloop
  endfacet
  facet normal 0 0 1
    outer loop
      vertex -3.19546 0.202494 5
      vertex -3.14607 -0.103715 5
      vertex -3.05717 -0.212369 5
    endloop
  endfacet
  facet normal 0 0 1
    outer loop
      vertex -3.14607 -0.103715 5
      vertex -3.19546 0.202494 5
      vertex -3.19546 -0.0246927 5
    endloop
  endfacet
  facet normal 0 0 1
    outer loop
      vertex -3.15595 0.350659 5
      vertex -3.19546 0.202494 5
      vertex -3.05717 -0.212369 5
    endloop
  endfacet
  facet normal 0 0 1
    outer loop
      vertex -2.22744 -0.192615 5
      vertex -3.15595 0.350659 5
      vertex -3.05717 -0.212369 5
    endloop
  endfacet
  facet normal 0 0 1
    outer loop
      vertex -2.22744 -0.192615 5
      vertex -3.11644 0.459313 5
      vertex -3.15595 0.350659 5
    endloop
  endfacet
  facet normal -0 0 1
    outer loop
      vertex -3.09668 0.656872 5
      vertex -3.10656 0.567971 5
      vertex -2.8201 0.913691 5
    endloop
  endfacet
  facet normal 0 0 1
    outer loop
      vertex -3.03742 0.785279 5
      vertex -2.8201 0.913691 5
      vertex -2.93864 0.87418 5
    endloop
  endfacet
  facet normal 0 0 1
    outer loop
      vertex -3.09668 0.656872 5
      vertex -3.10656 0.637114 5
      vertex -3.10656 0.567971 5
    endloop
  endfacet
  facet normal -0 0 1
    outer loop
      vertex -3.03742 0.785279 5
      vertex -3.09668 0.656872 5
      vertex -2.8201 0.913691 5
    endloop
  endfacet
  facet normal 0 0 1
    outer loop
      vertex -2.12866 -0.0740825 5
      vertex -2.8201 0.913691 5
      vertex -3.11644 0.459313 5
    endloop
  endfacet
  facet normal 0 0 1
    outer loop
      vertex -2.8201 0.913691 5
      vertex -3.10656 0.567971 5
      vertex -3.11644 0.459313 5
    endloop
  endfacet
  facet normal -0 0 1
    outer loop
      vertex -2.8201 0.913691 5
      vertex -2.12866 -0.0740825 5
      vertex -2.50402 1.49648 5
    endloop
  endfacet
  facet normal 0 0 1
    outer loop
      vertex -2.02988 1.73355 5
      vertex -2.12866 -0.0740825 5
      vertex -1.68416 -0.301269 5
    endloop
  endfacet
  facet normal -0 0 1
    outer loop
      vertex -2.50402 1.49648 5
      vertex -2.12866 -0.0740825 5
      vertex -2.02988 1.73355 5
    endloop
  endfacet
  facet normal -0 0 1
    outer loop
      vertex -1.99037 1.83233 5
      vertex -2.02988 1.73355 5
      vertex -1.93111 1.87184 5
    endloop
  endfacet
  facet normal 0 0 1
    outer loop
      vertex -1.73355 1.90147 5
      vertex -1.82245 1.88172 5
      vertex -2.02988 1.73355 5
    endloop
  endfacet
  facet normal 0 0 1
    outer loop
      vertex -1.73355 1.90147 5
      vertex -1.81257 1.89159 5
      vertex -1.82245 1.88172 5
    endloop
  endfacet
  facet normal 0 -0 1
    outer loop
      vertex -2.02988 1.73355 5
      vertex -1.99037 1.83233 5
      vertex -2.05951 1.81257 5
    endloop
  endfacet
  facet normal 0 0 1
    outer loop
      vertex -1.50636 1.93111 5
      vertex -2.02988 1.73355 5
      vertex -1.68416 -0.301269 5
    endloop
  endfacet
  facet normal -0 0 1
    outer loop
      vertex -1.63477 1.92123 5
      vertex -2.02988 1.73355 5
      vertex -1.50636 1.93111 5
    endloop
  endfacet
  facet normal -0 0 1
    outer loop
      vertex -1.36807 1.97062 5
      vertex -1.50636 1.93111 5
      vertex -1.24954 1.98049 5
    endloop
  endfacet
  facet normal -0 0 1
    outer loop
      vertex -1.45697 1.95086 5
      vertex -1.50636 1.93111 5
      vertex -1.36807 1.97062 5
    endloop
  endfacet
  facet normal 0 0 1
    outer loop
      vertex -1.63477 1.92123 5
      vertex -1.50636 1.93111 5
      vertex -1.54587 1.93111 5
    endloop
  endfacet
  facet normal -0 0 1
    outer loop
      vertex -1.24954 1.98049 5
      vertex -1.68416 -0.301269 5
      vertex -0.87418 2.02988 5
    endloop
  endfacet
  facet normal 0 0 1
    outer loop
      vertex -1.08161 2.02988 5
      vertex -0.87418 2.02988 5
      vertex -0.963081 2.03976 5
    endloop
  endfacet
  facet normal 0 0 1
    outer loop
      vertex -0.87418 2.02988 5
      vertex -1.68416 -0.301269 5
      vertex -1.54587 -0.419802 5
    endloop
  endfacet
  facet normal 0 0 1
    outer loop
      vertex -1.24954 1.98049 5
      vertex -1.50636 1.93111 5
      vertex -1.68416 -0.301269 5
    endloop
  endfacet
  facet normal 0 0 1
    outer loop
      vertex -0.597603 2.03976 5
      vertex -1.54587 -0.419802 5
      vertex -1.3088 -0.597603 5
    endloop
  endfacet
  facet normal 0 0 1
    outer loop
      vertex -0.716136 2.03976 5
      vertex -0.87418 2.02988 5
      vertex -1.54587 -0.419802 5
    endloop
  endfacet
  facet normal 0 -0 1
    outer loop
      vertex -1.25941 -0.637114 5
      vertex -0.518582 2.04964 5
      vertex -1.3088 -0.597603 5
    endloop
  endfacet
  facet normal 0 0 1
    outer loop
      vertex 0.854427 -0.884059 5
      vertex -0.0148139 2.06939 5
      vertex -1.25941 -0.637114 5
    endloop
  endfacet
  facet normal 0 0 1
    outer loop
      vertex -0.518582 2.04964 5
      vertex -0.597603 2.03976 5
      vertex -1.3088 -0.597603 5
    endloop
  endfacet
  facet normal 0 0 1
    outer loop
      vertex 0.854427 -0.884059 5
      vertex 0.212369 2.06939 5
      vertex -0.0148139 2.06939 5
    endloop
  endfacet
  facet normal 0 0 1
    outer loop
      vertex -0.0148139 2.06939 5
      vertex -0.0938358 2.07927 5
      vertex -0.29139 2.07927 5
    endloop
  endfacet
  facet normal 0 0 1
    outer loop
      vertex -0.0148139 2.06939 5
      vertex -0.29139 2.07927 5
      vertex -0.518582 2.04964 5
    endloop
  endfacet
  facet normal 0 0 1
    outer loop
      vertex 0.380291 2.05951 5
      vertex 0.854427 -0.884059 5
      vertex 1.49648 -0.400049 5
    endloop
  endfacet
  facet normal 0 0 1
    outer loop
      vertex 0.963081 2.04964 5
      vertex 0.893938 2.05951 5
      vertex 0.884059 2.03976 5
    endloop
  endfacet
  facet normal 0 0 1
    outer loop
      vertex 0.982838 2.01013 5
      vertex 0.884059 2.03976 5
      vertex 0.864306 2.02 5
    endloop
  endfacet
  facet normal 0 0 1
    outer loop
      vertex 0.854427 -0.884059 5
      vertex 0.380291 2.05951 5
      vertex 0.212369 2.06939 5
    endloop
  endfacet
  facet normal 0 0 1
    outer loop
      vertex 0.982838 2.01013 5
      vertex 0.963081 2.04964 5
      vertex 0.884059 2.03976 5
    endloop
  endfacet
  facet normal 0 0 1
    outer loop
      vertex 0.597603 2.04964 5
      vertex 0.380291 2.05951 5
      vertex 1.49648 -0.400049 5
    endloop
  endfacet
  facet normal 0 0 1
    outer loop
      vertex 0.982838 2.01013 5
      vertex 0.864306 2.02 5
      vertex 1.49648 -0.400049 5
    endloop
  endfacet
  facet normal 0 0 1
    outer loop
      vertex 0.864306 2.02 5
      vertex 0.597603 2.04964 5
      vertex 1.49648 -0.400049 5
    endloop
  endfacet
  facet normal 0 0 1
    outer loop
      vertex 0.963081 2.04964 5
      vertex 0.953202 2.08915 5
      vertex 0.893938 2.05951 5
    endloop
  endfacet
  facet normal 0 0 1
    outer loop
      vertex 0.884059 2.1089 5
      vertex 0.893938 2.05951 5
      vertex 0.953202 2.08915 5
    endloop
  endfacet
  facet normal 0 0 1
    outer loop
      vertex 0.963081 2.12866 5
      vertex 0.884059 2.1089 5
      vertex 0.963081 2.1089 5
    endloop
  endfacet
  facet normal -0 0 1
    outer loop
      vertex 0.884059 2.12866 5
      vertex 0.884059 2.1089 5
      vertex 0.963081 2.12866 5
    endloop
  endfacet
  facet normal 0.894388 -0.447292 0
    outer loop
      vertex 0.963081 2.1089 0
      vertex 0.963081 2.1089 5
      vertex 0.953202 2.08915 0
    endloop
  endfacet
  facet normal 0.894388 -0.447292 0
    outer loop
      vertex 0.963081 2.1089 5
      vertex 0.953202 2.08915 5
      vertex 0.953202 2.08915 0
    endloop
  endfacet
  facet normal 0.970136 0.242561 -0
    outer loop
      vertex 0.953202 2.08915 0
      vertex 0.953202 2.08915 5
      vertex 0.963081 2.04964 0
    endloop
  endfacet
  facet normal 0.970136 0.242561 0
    outer loop
      vertex 0.953202 2.08915 5
      vertex 0.963081 2.04964 5
      vertex 0.963081 2.04964 0
    endloop
  endfacet
  facet normal 0.707107 0.707107 -0
    outer loop
      vertex 0.963081 2.04964 0
      vertex 0.963081 2.04964 5
      vertex 0.982838 2.02988 0
    endloop
  endfacet
  facet normal 0.707107 0.707107 0
    outer loop
      vertex 0.963081 2.04964 5
      vertex 0.982838 2.02988 5
      vertex 0.982838 2.02988 0
    endloop
  endfacet
  facet normal 1 0 -0
    outer loop
      vertex 0.982838 2.02988 0
      vertex 0.982838 2.02988 5
      vertex 0.982838 2.01013 0
    endloop
  endfacet
  facet normal 1 0 0
    outer loop
      vertex 0.982838 2.02988 5
      vertex 0.982838 2.01013 5
      vertex 0.982838 2.01013 0
    endloop
  endfacet
  facet normal 0.173803 0.984781 -0
    outer loop
      vertex 0.982838 2.01013 0
      vertex 0.982838 2.01013 5
      vertex 1.15076 1.98049 0
    endloop
  endfacet
  facet normal 0.173803 0.984781 0
    outer loop
      vertex 0.982838 2.01013 5
      vertex 1.15076 1.98049 5
      vertex 1.15076 1.98049 0
    endloop
  endfacet
  facet normal 0.267631 0.963522 -0
    outer loop
      vertex 1.15076 1.98049 0
      vertex 1.15076 1.98049 5
      vertex 1.32856 1.93111 0
    endloop
  endfacet
  facet normal 0.267631 0.963522 0
    outer loop
      vertex 1.15076 1.98049 5
      vertex 1.32856 1.93111 5
      vertex 1.32856 1.93111 0
    endloop
  endfacet
  facet normal 0.388051 0.921638 -0
    outer loop
      vertex 1.32856 1.93111 0
      vertex 1.32856 1.93111 5
      vertex 1.51624 1.85208 0
    endloop
  endfacet
  facet normal 0.388051 0.921638 0
    outer loop
      vertex 1.32856 1.93111 5
      vertex 1.51624 1.85208 5
      vertex 1.51624 1.85208 0
    endloop
  endfacet
  facet normal -0.0136928 0.999906 0
    outer loop
      vertex 1.51624 1.85208 0
      vertex 1.51624 1.85208 5
      vertex 2.23731 1.86196 0
    endloop
  endfacet
  facet normal -0.0136928 0.999906 0
    outer loop
      vertex 1.51624 1.85208 5
      vertex 2.23731 1.86196 5
      vertex 2.23731 1.86196 0
    endloop
  endfacet
  facet normal 0.584298 0.811539 -0
    outer loop
      vertex 2.23731 1.86196 0
      vertex 2.23731 1.86196 5
      vertex 2.48426 1.68416 0
    endloop
  endfacet
  facet normal 0.584298 0.811539 0
    outer loop
      vertex 2.23731 1.86196 5
      vertex 2.48426 1.68416 5
      vertex 2.48426 1.68416 0
    endloop
  endfacet
  facet normal 1 0 -0
    outer loop
      vertex 2.48426 1.68416 0
      vertex 2.48426 1.68416 5
      vertex 2.48426 1.64465 0
    endloop
  endfacet
  facet normal 1 0 0
    outer loop
      vertex 2.48426 1.68416 5
      vertex 2.48426 1.64465 5
      vertex 2.48426 1.64465 0
    endloop
  endfacet
  facet normal 0.196133 0.980577 -0
    outer loop
      vertex 2.48426 1.64465 0
      vertex 2.48426 1.64465 5
      vertex 2.58304 1.62489 0
    endloop
  endfacet
  facet normal 0.196133 0.980577 0
    outer loop
      vertex 2.48426 1.64465 5
      vertex 2.58304 1.62489 5
      vertex 2.58304 1.62489 0
    endloop
  endfacet
  facet normal 0.813737 0.581233 -0
    outer loop
      vertex 2.58304 1.62489 0
      vertex 2.58304 1.62489 5
      vertex 2.7312 1.41746 0
    endloop
  endfacet
  facet normal 0.813737 0.581233 0
    outer loop
      vertex 2.58304 1.62489 5
      vertex 2.7312 1.41746 5
      vertex 2.7312 1.41746 0
    endloop
  endfacet
  facet normal 1 0 -0
    outer loop
      vertex 2.7312 1.41746 0
      vertex 2.7312 1.41746 5
      vertex 2.7312 1.29893 0
    endloop
  endfacet
  facet normal 1 0 0
    outer loop
      vertex 2.7312 1.41746 5
      vertex 2.7312 1.29893 5
      vertex 2.7312 1.29893 0
    endloop
  endfacet
  facet normal 0.274753 0.961515 -0
    outer loop
      vertex 2.7312 1.29893 0
      vertex 2.7312 1.29893 5
      vertex 2.80035 1.27917 0
    endloop
  endfacet
  facet normal 0.274753 0.961515 0
    outer loop
      vertex 2.7312 1.29893 5
      vertex 2.80035 1.27917 5
      vertex 2.80035 1.27917 0
    endloop
  endfacet
  facet normal 0.19605 0.980594 -0
    outer loop
      vertex 2.80035 1.27917 0
      vertex 2.80035 1.27917 5
      vertex 2.84974 1.26929 0
    endloop
  endfacet
  facet normal 0.19605 0.980594 0
    outer loop
      vertex 2.80035 1.27917 5
      vertex 2.84974 1.26929 5
      vertex 2.84974 1.26929 0
    endloop
  endfacet
  facet normal 0 1 0
    outer loop
      vertex 2.84974 1.26929 0
      vertex 2.84974 1.26929 5
      vertex 2.86949 1.26929 0
    endloop
  endfacet
  facet normal -0 1 0
    outer loop
      vertex 2.84974 1.26929 5
      vertex 2.86949 1.26929 5
      vertex 2.86949 1.26929 0
    endloop
  endfacet
  facet normal 0.832056 0.554692 -0
    outer loop
      vertex 2.86949 1.26929 0
      vertex 2.86949 1.26929 5
      vertex 3.00778 1.06186 0
    endloop
  endfacet
  facet normal 0.832056 0.554692 0
    outer loop
      vertex 2.86949 1.26929 5
      vertex 3.00778 1.06186 5
      vertex 3.00778 1.06186 0
    endloop
  endfacet
  facet normal 0.984781 0.173803 -0
    outer loop
      vertex 3.00778 1.06186 0
      vertex 3.00778 1.06186 5
      vertex 3.03742 0.893938 0
    endloop
  endfacet
  facet normal 0.984781 0.173803 0
    outer loop
      vertex 3.00778 1.06186 5
      vertex 3.03742 0.893938 5
      vertex 3.03742 0.893938 0
    endloop
  endfacet
  facet normal 0.984781 -0.173803 0
    outer loop
      vertex 3.03742 0.893938 0
      vertex 3.03742 0.893938 5
      vertex 3.00778 0.726015 0
    endloop
  endfacet
  facet normal 0.984781 -0.173803 0
    outer loop
      vertex 3.03742 0.893938 5
      vertex 3.00778 0.726015 5
      vertex 3.00778 0.726015 0
    endloop
  endfacet
  facet normal 0.707097 0.707116 -0
    outer loop
      vertex 3.00778 0.726015 0
      vertex 3.00778 0.726015 5
      vertex 3.16583 0.567971 0
    endloop
  endfacet
  facet normal 0.707097 0.707116 0
    outer loop
      vertex 3.00778 0.726015 5
      vertex 3.16583 0.567971 5
      vertex 3.16583 0.567971 0
    endloop
  endfacet
  facet normal 0.997056 0.0766709 -0
    outer loop
      vertex 3.16583 0.567971 0
      vertex 3.16583 0.567971 5
      vertex 3.1757 0.43956 0
    endloop
  endfacet
  facet normal 0.997056 0.0766709 0
    outer loop
      vertex 3.16583 0.567971 5
      vertex 3.1757 0.43956 5
      vertex 3.1757 0.43956 0
    endloop
  endfacet
  facet normal 0.393912 -0.919148 0
    outer loop
      vertex 3.1757 0.43956 0
      vertex 3.1757 0.43956 5
      vertex 3.10656 0.409928 0
    endloop
  endfacet
  facet normal 0.393912 -0.919148 0
    outer loop
      vertex 3.1757 0.43956 5
      vertex 3.10656 0.409928 5
      vertex 3.10656 0.409928 0
    endloop
  endfacet
  facet normal 1 0 -0
    outer loop
      vertex 3.10656 0.409928 0
      vertex 3.10656 0.409928 5
      vertex 3.10656 0.34078 0
    endloop
  endfacet
  facet normal 1 0 0
    outer loop
      vertex 3.10656 0.409928 5
      vertex 3.10656 0.34078 5
      vertex 3.10656 0.34078 0
    endloop
  endfacet
  facet normal 0.447175 -0.894447 0
    outer loop
      vertex 3.10656 0.34078 0
      vertex 3.10656 0.34078 5
      vertex 3.06705 0.321027 0
    endloop
  endfacet
  facet normal 0.447175 -0.894447 0
    outer loop
      vertex 3.10656 0.34078 5
      vertex 3.06705 0.321027 5
      vertex 3.06705 0.321027 0
    endloop
  endfacet
  facet normal 1 0 -0
    outer loop
      vertex 3.06705 0.321027 0
      vertex 3.06705 0.321027 5
      vertex 3.06705 0.0543248 0
    endloop
  endfacet
  facet normal 1 0 0
    outer loop
      vertex 3.06705 0.321027 5
      vertex 3.06705 0.0543248 5
      vertex 3.06705 0.0543248 0
    endloop
  endfacet
  facet normal 0.857506 0.514474 -0
    outer loop
      vertex 3.06705 0.0543248 0
      vertex 3.06705 0.0543248 5
      vertex 3.09668 0.0049351 0
    endloop
  endfacet
  facet normal 0.857506 0.514474 0
    outer loop
      vertex 3.06705 0.0543248 5
      vertex 3.09668 0.0049351 5
      vertex 3.09668 0.0049351 0
    endloop
  endfacet
  facet normal 1 0 -0
    outer loop
      vertex 3.09668 0.0049351 0
      vertex 3.09668 0.0049351 5
      vertex 3.09668 -0.0246927 0
    endloop
  endfacet
  facet normal 1 0 0
    outer loop
      vertex 3.09668 0.0049351 5
      vertex 3.09668 -0.0246927 5
      vertex 3.09668 -0.0246927 0
    endloop
  endfacet
  facet normal 0.894447 -0.447175 0
    outer loop
      vertex 3.09668 -0.0246927 0
      vertex 3.09668 -0.0246927 5
      vertex 3.07693 -0.0642037 0
    endloop
  endfacet
  facet normal 0.894447 -0.447175 0
    outer loop
      vertex 3.09668 -0.0246927 5
      vertex 3.07693 -0.0642037 5
      vertex 3.07693 -0.0642037 0
    endloop
  endfacet
  facet normal 0.994423 0.105467 -0
    outer loop
      vertex 3.07693 -0.0642037 0
      vertex 3.07693 -0.0642037 5
      vertex 3.14607 -0.716136 0
    endloop
  endfacet
  facet normal 0.994423 0.105467 0
    outer loop
      vertex 3.07693 -0.0642037 5
      vertex 3.14607 -0.716136 5
      vertex 3.14607 -0.716136 0
    endloop
  endfacet
  facet normal -0.196133 0.980577 0
    outer loop
      vertex 3.14607 -0.716136 0
      vertex 3.14607 -0.716136 5
      vertex 3.19546 -0.706257 0
    endloop
  endfacet
  facet normal -0.196133 0.980577 0
    outer loop
      vertex 3.14607 -0.716136 5
      vertex 3.19546 -0.706257 5
      vertex 3.19546 -0.706257 0
    endloop
  endfacet
  facet normal 0.988938 -0.148332 0
    outer loop
      vertex 3.19546 -0.706257 0
      vertex 3.19546 -0.706257 5
      vertex 3.16583 -0.903816 0
    endloop
  endfacet
  facet normal 0.988938 -0.148332 0
    outer loop
      vertex 3.19546 -0.706257 5
      vertex 3.16583 -0.903816 5
      vertex 3.16583 -0.903816 0
    endloop
  endfacet
  facet normal 0.998831 0.0483286 -0
    outer loop
      vertex 3.16583 -0.903816 0
      vertex 3.16583 -0.903816 5
      vertex 3.19546 -1.51624 0
    endloop
  endfacet
  facet normal 0.998831 0.0483286 0
    outer loop
      vertex 3.16583 -0.903816 5
      vertex 3.19546 -1.51624 5
      vertex 3.19546 -1.51624 0
    endloop
  endfacet
  facet normal 0 -1 0
    outer loop
      vertex 3.19546 -1.51624 0
      vertex 3.19546 -1.51624 5
      vertex 3.13619 -1.51624 0
    endloop
  endfacet
  facet normal -0 -1 0
    outer loop
      vertex 3.19546 -1.51624 5
      vertex 3.13619 -1.51624 5
      vertex 3.13619 -1.51624 0
    endloop
  endfacet
  facet normal 0.995038 -0.099493 0
    outer loop
      vertex 3.13619 -1.51624 0
      vertex 3.13619 -1.51624 5
      vertex 3.11644 -1.71379 0
    endloop
  endfacet
  facet normal 0.995038 -0.099493 0
    outer loop
      vertex 3.13619 -1.51624 5
      vertex 3.11644 -1.71379 5
      vertex 3.11644 -1.71379 0
    endloop
  endfacet
  facet normal 0.102895 -0.994692 0
    outer loop
      vertex 3.11644 -1.71379 0
      vertex 3.11644 -1.71379 5
      vertex 2.54353 -1.77306 0
    endloop
  endfacet
  facet normal 0.102895 -0.994692 0
    outer loop
      vertex 3.11644 -1.71379 5
      vertex 2.54353 -1.77306 5
      vertex 2.54353 -1.77306 0
    endloop
  endfacet
  facet normal -0.86824 -0.496145 0
    outer loop
      vertex 2.54353 -1.77306 0
      vertex 2.54353 -1.77306 5
      vertex 2.46451 -1.63477 0
    endloop
  endfacet
  facet normal -0.86824 -0.496145 0
    outer loop
      vertex 2.54353 -1.77306 5
      vertex 2.46451 -1.63477 5
      vertex 2.46451 -1.63477 0
    endloop
  endfacet
  facet normal -0.85749 -0.514501 0
    outer loop
      vertex 2.46451 -1.63477 0
      vertex 2.46451 -1.63477 5
      vertex 2.40524 -1.53599 0
    endloop
  endfacet
  facet normal -0.85749 -0.514501 0
    outer loop
      vertex 2.46451 -1.63477 5
      vertex 2.40524 -1.53599 5
      vertex 2.40524 -1.53599 0
    endloop
  endfacet
  facet normal -0.919148 -0.393912 0
    outer loop
      vertex 2.40524 -1.53599 0
      vertex 2.40524 -1.53599 5
      vertex 2.3756 -1.46685 0
    endloop
  endfacet
  facet normal -0.919148 -0.393912 0
    outer loop
      vertex 2.40524 -1.53599 5
      vertex 2.3756 -1.46685 5
      vertex 2.3756 -1.46685 0
    endloop
  endfacet
  facet normal -0.707107 -0.707107 0
    outer loop
      vertex 2.3756 -1.46685 0
      vertex 2.3756 -1.46685 5
      vertex 2.33609 -1.42734 0
    endloop
  endfacet
  facet normal -0.707107 -0.707107 0
    outer loop
      vertex 2.3756 -1.46685 5
      vertex 2.33609 -1.42734 5
      vertex 2.33609 -1.42734 0
    endloop
  endfacet
  facet normal -0.581229 -0.81374 0
    outer loop
      vertex 2.33609 -1.42734 0
      vertex 2.33609 -1.42734 5
      vertex 2.26695 -1.37795 0
    endloop
  endfacet
  facet normal -0.581229 -0.81374 0
    outer loop
      vertex 2.33609 -1.42734 5
      vertex 2.26695 -1.37795 5
      vertex 2.26695 -1.37795 0
    endloop
  endfacet
  facet normal -0.514518 -0.85748 0
    outer loop
      vertex 2.26695 -1.37795 0
      vertex 2.26695 -1.37795 5
      vertex 2.16817 -1.31868 0
    endloop
  endfacet
  facet normal -0.514518 -0.85748 0
    outer loop
      vertex 2.26695 -1.37795 5
      vertex 2.16817 -1.31868 5
      vertex 2.16817 -1.31868 0
    endloop
  endfacet
  facet normal -0.845486 -0.533997 0
    outer loop
      vertex 2.16817 -1.31868 0
      vertex 2.16817 -1.31868 5
      vertex 1.81257 -0.755647 0
    endloop
  endfacet
  facet normal -0.845486 -0.533997 0
    outer loop
      vertex 2.16817 -1.31868 5
      vertex 1.81257 -0.755647 5
      vertex 1.81257 -0.755647 0
    endloop
  endfacet
  facet normal -1 0 0
    outer loop
      vertex 1.81257 -0.755647 0
      vertex 1.81257 -0.755647 5
      vertex 1.81257 -0.706257 0
    endloop
  endfacet
  facet normal -1 0 0
    outer loop
      vertex 1.81257 -0.755647 5
      vertex 1.81257 -0.706257 5
      vertex 1.81257 -0.706257 0
    endloop
  endfacet
  facet normal 0 1 0
    outer loop
      vertex 1.81257 -0.706257 0
      vertex 1.81257 -0.706257 5
      vertex 1.8422 -0.706257 0
    endloop
  endfacet
  facet normal -0 1 0
    outer loop
      vertex 1.81257 -0.706257 5
      vertex 1.8422 -0.706257 5
      vertex 1.8422 -0.706257 0
    endloop
  endfacet
  facet normal -1 0 0
    outer loop
      vertex 1.8422 -0.706257 0
      vertex 1.8422 -0.706257 5
      vertex 1.8422 -0.637114 0
    endloop
  endfacet
  facet normal -1 0 0
    outer loop
      vertex 1.8422 -0.706257 5
      vertex 1.8422 -0.637114 5
      vertex 1.8422 -0.637114 0
    endloop
  endfacet
  facet normal -0.866183 -0.499727 0
    outer loop
      vertex 1.8422 -0.637114 0
      vertex 1.8422 -0.637114 5
      vertex 1.69404 -0.380291 0
    endloop
  endfacet
  facet normal -0.866183 -0.499727 0
    outer loop
      vertex 1.8422 -0.637114 5
      vertex 1.69404 -0.380291 5
      vertex 1.69404 -0.380291 0
    endloop
  endfacet
  facet normal 0.0995145 -0.995036 0
    outer loop
      vertex 1.69404 -0.380291 0
      vertex 1.69404 -0.380291 5
      vertex 1.49648 -0.400049 0
    endloop
  endfacet
  facet normal 0.0995145 -0.995036 0
    outer loop
      vertex 1.69404 -0.380291 5
      vertex 1.49648 -0.400049 5
      vertex 1.49648 -0.400049 0
    endloop
  endfacet
  facet normal 0.899815 0.436272 -0
    outer loop
      vertex 1.49648 -0.400049 0
      vertex 1.49648 -0.400049 5
      vertex 1.65452 -0.726015 0
    endloop
  endfacet
  facet normal 0.899815 0.436272 0
    outer loop
      vertex 1.49648 -0.400049 5
      vertex 1.65452 -0.726015 5
      vertex 1.65452 -0.726015 0
    endloop
  endfacet
  facet normal 0.600005 -0.799997 0
    outer loop
      vertex 1.65452 -0.726015 0
      vertex 1.65452 -0.726015 5
      vertex 1.53599 -0.814916 0
    endloop
  endfacet
  facet normal 0.600005 -0.799997 0
    outer loop
      vertex 1.65452 -0.726015 5
      vertex 1.53599 -0.814916 5
      vertex 1.53599 -0.814916 0
    endloop
  endfacet
  facet normal 0.10093 -0.994894 0
    outer loop
      vertex 1.53599 -0.814916 0
      vertex 1.53599 -0.814916 5
      vertex 0.854427 -0.884059 0
    endloop
  endfacet
  facet normal 0.10093 -0.994894 0
    outer loop
      vertex 1.53599 -0.814916 5
      vertex 0.854427 -0.884059 5
      vertex 0.854427 -0.884059 0
    endloop
  endfacet
  facet normal 0.820127 0.572181 -0
    outer loop
      vertex 0.854427 -0.884059 0
      vertex 0.854427 -0.884059 5
      vertex 1.15076 -1.3088 0
    endloop
  endfacet
  facet normal 0.820127 0.572181 0
    outer loop
      vertex 0.854427 -0.884059 5
      vertex 1.15076 -1.3088 5
      vertex 1.15076 -1.3088 0
    endloop
  endfacet
  facet normal 0.86824 -0.496145 0
    outer loop
      vertex 1.15076 -1.3088 0
      vertex 1.15076 -1.3088 5
      vertex 1.11125 -1.37795 0
    endloop
  endfacet
  facet normal 0.86824 -0.496145 0
    outer loop
      vertex 1.15076 -1.3088 5
      vertex 1.11125 -1.37795 5
      vertex 1.11125 -1.37795 0
    endloop
  endfacet
  facet normal 0.447214 0.894427 -0
    outer loop
      vertex 1.11125 -1.37795 0
      vertex 1.11125 -1.37795 5
      vertex 1.17051 -1.40758 0
    endloop
  endfacet
  facet normal 0.447214 0.894427 0
    outer loop
      vertex 1.11125 -1.37795 5
      vertex 1.17051 -1.40758 5
      vertex 1.17051 -1.40758 0
    endloop
  endfacet
  facet normal 0.923076 0.384617 -0
    outer loop
      vertex 1.17051 -1.40758 0
      vertex 1.17051 -1.40758 5
      vertex 1.26929 -1.64465 0
    endloop
  endfacet
  facet normal 0.923076 0.384617 0
    outer loop
      vertex 1.17051 -1.40758 5
      vertex 1.26929 -1.64465 5
      vertex 1.26929 -1.64465 0
    endloop
  endfacet
  facet normal 1 0 -0
    outer loop
      vertex 1.26929 -1.64465 0
      vertex 1.26929 -1.64465 5
      vertex 1.26929 -1.83233 0
    endloop
  endfacet
  facet normal 1 0 0
    outer loop
      vertex 1.26929 -1.64465 5
      vertex 1.26929 -1.83233 5
      vertex 1.26929 -1.83233 0
    endloop
  endfacet
  facet normal 0.707107 -0.707107 0
    outer loop
      vertex 1.26929 -1.83233 0
      vertex 1.26929 -1.83233 5
      vertex 1.22978 -1.87184 0
    endloop
  endfacet
  facet normal 0.707107 -0.707107 0
    outer loop
      vertex 1.26929 -1.83233 5
      vertex 1.22978 -1.87184 5
      vertex 1.22978 -1.87184 0
    endloop
  endfacet
  facet normal 0.80001 0.599986 -0
    outer loop
      vertex 1.22978 -1.87184 0
      vertex 1.22978 -1.87184 5
      vertex 1.25941 -1.91135 0
    endloop
  endfacet
  facet normal 0.80001 0.599986 0
    outer loop
      vertex 1.22978 -1.87184 5
      vertex 1.25941 -1.91135 5
      vertex 1.25941 -1.91135 0
    endloop
  endfacet
  facet normal 0.957831 -0.287333 0
    outer loop
      vertex 1.25941 -1.91135 0
      vertex 1.25941 -1.91135 5
      vertex 1.22978 -2.01013 0
    endloop
  endfacet
  facet normal 0.957831 -0.287333 0
    outer loop
      vertex 1.25941 -1.91135 5
      vertex 1.22978 -2.01013 5
      vertex 1.22978 -2.01013 0
    endloop
  endfacet
  facet normal 0.393892 -0.919157 0
    outer loop
      vertex 1.22978 -2.01013 0
      vertex 1.22978 -2.01013 5
      vertex 1.16064 -2.03976 0
    endloop
  endfacet
  facet normal 0.393892 -0.919157 0
    outer loop
      vertex 1.22978 -2.01013 5
      vertex 1.16064 -2.03976 5
      vertex 1.16064 -2.03976 0
    endloop
  endfacet
  facet normal 0.948711 -0.316145 0
    outer loop
      vertex 1.16064 -2.03976 0
      vertex 1.16064 -2.03976 5
      vertex 1.15076 -2.06939 0
    endloop
  endfacet
  facet normal 0.948711 -0.316145 0
    outer loop
      vertex 1.16064 -2.03976 5
      vertex 1.15076 -2.06939 5
      vertex 1.15076 -2.06939 0
    endloop
  endfacet
  facet normal 0.83205 -0.5547 0
    outer loop
      vertex 1.15076 -2.06939 0
      vertex 1.15076 -2.06939 5
      vertex 1.131 -2.09903 0
    endloop
  endfacet
  facet normal 0.83205 -0.5547 0
    outer loop
      vertex 1.15076 -2.06939 5
      vertex 1.131 -2.09903 5
      vertex 1.131 -2.09903 0
    endloop
  endfacet
  facet normal -0.707158 -0.707055 0
    outer loop
      vertex 1.131 -2.09903 0
      vertex 1.131 -2.09903 5
      vertex 1.10137 -2.06939 0
    endloop
  endfacet
  facet normal -0.707158 -0.707055 0
    outer loop
      vertex 1.131 -2.09903 5
      vertex 1.10137 -2.06939 5
      vertex 1.10137 -2.06939 0
    endloop
  endfacet
  facet normal -0.94867 -0.316269 0
    outer loop
      vertex 1.10137 -2.06939 0
      vertex 1.10137 -2.06939 5
      vertex 1.09149 -2.03976 0
    endloop
  endfacet
  facet normal -0.94867 -0.316269 0
    outer loop
      vertex 1.10137 -2.06939 5
      vertex 1.09149 -2.03976 5
      vertex 1.09149 -2.03976 0
    endloop
  endfacet
  facet normal 0.110432 -0.993884 0
    outer loop
      vertex 1.09149 -2.03976 0
      vertex 1.09149 -2.03976 5
      vertex 0.735894 -2.07927 0
    endloop
  endfacet
  facet normal 0.110432 -0.993884 0
    outer loop
      vertex 1.09149 -2.03976 5
      vertex 0.735894 -2.07927 5
      vertex 0.735894 -2.07927 0
    endloop
  endfacet
  facet normal 0.832013 -0.554756 0
    outer loop
      vertex 0.735894 -2.07927 0
      vertex 0.735894 -2.07927 5
      vertex 0.716136 -2.1089 0
    endloop
  endfacet
  facet normal 0.832013 -0.554756 0
    outer loop
      vertex 0.735894 -2.07927 5
      vertex 0.716136 -2.1089 5
      vertex 0.716136 -2.1089 0
    endloop
  endfacet
  facet normal 0.707184 -0.70703 0
    outer loop
      vertex 0.716136 -2.1089 0
      vertex 0.716136 -2.1089 5
      vertex 0.696383 -2.12866 0
    endloop
  endfacet
  facet normal 0.707184 -0.70703 0
    outer loop
      vertex 0.716136 -2.1089 5
      vertex 0.696383 -2.12866 5
      vertex 0.696383 -2.12866 0
    endloop
  endfacet
  facet normal -0.5547 -0.83205 0
    outer loop
      vertex 0.696383 -2.12866 0
      vertex 0.696383 -2.12866 5
      vertex 0.666747 -2.1089 0
    endloop
  endfacet
  facet normal -0.5547 -0.83205 0
    outer loop
      vertex 0.696383 -2.12866 5
      vertex 0.666747 -2.1089 5
      vertex 0.666747 -2.1089 0
    endloop
  endfacet
  facet normal -0.832069 -0.554672 0
    outer loop
      vertex 0.666747 -2.1089 0
      vertex 0.666747 -2.1089 5
      vertex 0.646993 -2.07927 0
    endloop
  endfacet
  facet normal -0.832069 -0.554672 0
    outer loop
      vertex 0.666747 -2.1089 5
      vertex 0.646993 -2.07927 5
      vertex 0.646993 -2.07927 0
    endloop
  endfacet
  facet normal 0.196133 -0.980577 0
    outer loop
      vertex 0.646993 -2.07927 0
      vertex 0.646993 -2.07927 5
      vertex 0.597603 -2.08915 0
    endloop
  endfacet
  facet normal 0.196133 -0.980577 0
    outer loop
      vertex 0.646993 -2.07927 5
      vertex 0.597603 -2.08915 5
      vertex 0.597603 -2.08915 0
    endloop
  endfacet
  facet normal -0.607282 -0.794487 0
    outer loop
      vertex 0.597603 -2.08915 0
      vertex 0.597603 -2.08915 5
      vertex -1.12112 -0.775405 0
    endloop
  endfacet
  facet normal -0.607282 -0.794487 0
    outer loop
      vertex 0.597603 -2.08915 5
      vertex -1.12112 -0.775405 5
      vertex -1.12112 -0.775405 0
    endloop
  endfacet
  facet normal -0.316228 -0.948683 0
    outer loop
      vertex -1.12112 -0.775405 0
      vertex -1.12112 -0.775405 5
      vertex -1.15076 -0.765526 0
    endloop
  endfacet
  facet normal -0.316228 -0.948683 0
    outer loop
      vertex -1.12112 -0.775405 5
      vertex -1.15076 -0.765526 5
      vertex -1.15076 -0.765526 0
    endloop
  endfacet
  facet normal -0.274753 -0.961515 0
    outer loop
      vertex -1.15076 -0.765526 0
      vertex -1.15076 -0.765526 5
      vertex -1.2199 -0.745768 0
    endloop
  endfacet
  facet normal -0.274753 -0.961515 0
    outer loop
      vertex -1.15076 -0.765526 5
      vertex -1.2199 -0.745768 5
      vertex -1.2199 -0.745768 0
    endloop
  endfacet
  facet normal -0.707107 -0.707107 0
    outer loop
      vertex -1.2199 -0.745768 0
      vertex -1.2199 -0.745768 5
      vertex -1.24954 -0.716136 0
    endloop
  endfacet
  facet normal -0.707107 -0.707107 0
    outer loop
      vertex -1.2199 -0.745768 5
      vertex -1.24954 -0.716136 5
      vertex -1.24954 -0.716136 0
    endloop
  endfacet
  facet normal -0.970136 -0.242561 0
    outer loop
      vertex -1.24954 -0.716136 0
      vertex -1.24954 -0.716136 5
      vertex -1.25941 -0.676625 0
    endloop
  endfacet
  facet normal -0.970136 -0.242561 0
    outer loop
      vertex -1.24954 -0.716136 5
      vertex -1.25941 -0.676625 5
      vertex -1.25941 -0.676625 0
    endloop
  endfacet
  facet normal -1 0 0
    outer loop
      vertex -1.25941 -0.676625 0
      vertex -1.25941 -0.676625 5
      vertex -1.25941 -0.637114 0
    endloop
  endfacet
  facet normal -1 0 0
    outer loop
      vertex -1.25941 -0.676625 5
      vertex -1.25941 -0.637114 5
      vertex -1.25941 -0.637114 0
    endloop
  endfacet
  facet normal -0.624687 -0.780875 0
    outer loop
      vertex -1.25941 -0.637114 0
      vertex -1.25941 -0.637114 5
      vertex -1.3088 -0.597603 0
    endloop
  endfacet
  facet normal -0.624687 -0.780875 0
    outer loop
      vertex -1.25941 -0.637114 5
      vertex -1.3088 -0.597603 5
      vertex -1.3088 -0.597603 0
    endloop
  endfacet
  facet normal -0.496145 -0.86824 0
    outer loop
      vertex -1.3088 -0.597603 0
      vertex -1.3088 -0.597603 5
      vertex -1.37795 -0.558093 0
    endloop
  endfacet
  facet normal -0.496145 -0.86824 0
    outer loop
      vertex -1.3088 -0.597603 5
      vertex -1.37795 -0.558093 5
      vertex -1.37795 -0.558093 0
    endloop
  endfacet
  facet normal 0.70703 -0.707184 0
    outer loop
      vertex -1.37795 -0.558093 0
      vertex -1.37795 -0.558093 5
      vertex -1.39771 -0.577846 0
    endloop
  endfacet
  facet normal 0.70703 -0.707184 0
    outer loop
      vertex -1.37795 -0.558093 5
      vertex -1.39771 -0.577846 5
      vertex -1.39771 -0.577846 0
    endloop
  endfacet
  facet normal 0.894505 -0.447058 0
    outer loop
      vertex -1.39771 -0.577846 0
      vertex -1.39771 -0.577846 5
      vertex -1.40758 -0.597603 0
    endloop
  endfacet
  facet normal 0.894505 -0.447058 0
    outer loop
      vertex -1.39771 -0.577846 5
      vertex -1.40758 -0.597603 5
      vertex -1.40758 -0.597603 0
    endloop
  endfacet
  facet normal -0.600005 -0.799997 0
    outer loop
      vertex -1.40758 -0.597603 0
      vertex -1.40758 -0.597603 5
      vertex -1.52611 -0.508703 0
    endloop
  endfacet
  facet normal -0.600005 -0.799997 0
    outer loop
      vertex -1.40758 -0.597603 5
      vertex -1.52611 -0.508703 5
      vertex -1.52611 -0.508703 0
    endloop
  endfacet
  facet normal -0.976183 -0.21695 0
    outer loop
      vertex -1.52611 -0.508703 0
      vertex -1.52611 -0.508703 5
      vertex -1.54587 -0.419802 0
    endloop
  endfacet
  facet normal -0.976183 -0.21695 0
    outer loop
      vertex -1.52611 -0.508703 5
      vertex -1.54587 -0.419802 5
      vertex -1.54587 -0.419802 0
    endloop
  endfacet
  facet normal -0.650786 -0.759262 0
    outer loop
      vertex -1.54587 -0.419802 0
      vertex -1.54587 -0.419802 5
      vertex -1.68416 -0.301269 0
    endloop
  endfacet
  facet normal -0.650786 -0.759262 0
    outer loop
      vertex -1.54587 -0.419802 5
      vertex -1.68416 -0.301269 5
      vertex -1.68416 -0.301269 0
    endloop
  endfacet
  facet normal 0 -1 0
    outer loop
      vertex -1.68416 -0.301269 0
      vertex -1.68416 -0.301269 5
      vertex -1.76318 -0.301269 0
    endloop
  endfacet
  facet normal -0 -1 0
    outer loop
      vertex -1.68416 -0.301269 5
      vertex -1.76318 -0.301269 5
      vertex -1.76318 -0.301269 0
    endloop
  endfacet
  facet normal -0.447175 -0.894447 0
    outer loop
      vertex -1.76318 -0.301269 0
      vertex -1.76318 -0.301269 5
      vertex -1.80269 -0.281516 0
    endloop
  endfacet
  facet normal -0.447175 -0.894447 0
    outer loop
      vertex -1.76318 -0.301269 5
      vertex -1.80269 -0.281516 5
      vertex -1.80269 -0.281516 0
    endloop
  endfacet
  facet normal -0.600042 -0.799969 0
    outer loop
      vertex -1.80269 -0.281516 0
      vertex -1.80269 -0.281516 5
      vertex -1.8422 -0.25188 0
    endloop
  endfacet
  facet normal -0.600042 -0.799969 0
    outer loop
      vertex -1.80269 -0.281516 5
      vertex -1.8422 -0.25188 5
      vertex -1.8422 -0.25188 0
    endloop
  endfacet
  facet normal 0 -1 0
    outer loop
      vertex -1.8422 -0.25188 0
      vertex -1.8422 -0.25188 5
      vertex -1.91135 -0.25188 0
    endloop
  endfacet
  facet normal -0 -1 0
    outer loop
      vertex -1.8422 -0.25188 5
      vertex -1.91135 -0.25188 5
      vertex -1.91135 -0.25188 0
    endloop
  endfacet
  facet normal -0.707107 -0.707107 0
    outer loop
      vertex -1.91135 -0.25188 0
      vertex -1.91135 -0.25188 5
      vertex -1.94098 -0.222247 0
    endloop
  endfacet
  facet normal -0.707107 -0.707107 0
    outer loop
      vertex -1.91135 -0.25188 5
      vertex -1.94098 -0.222247 5
      vertex -1.94098 -0.222247 0
    endloop
  endfacet
  facet normal -0.287333 -0.957831 0
    outer loop
      vertex -1.94098 -0.222247 0
      vertex -1.94098 -0.222247 5
      vertex -2.03976 -0.192615 0
    endloop
  endfacet
  facet normal -0.287333 -0.957831 0
    outer loop
      vertex -1.94098 -0.222247 5
      vertex -2.03976 -0.192615 5
      vertex -2.03976 -0.192615 0
    endloop
  endfacet
  facet normal -1 0 0
    outer loop
      vertex -2.03976 -0.192615 0
      vertex -2.03976 -0.192615 5
      vertex -2.03976 -0.143226 0
    endloop
  endfacet
  facet normal -1 0 0
    outer loop
      vertex -2.03976 -0.192615 5
      vertex -2.03976 -0.143226 5
      vertex -2.03976 -0.143226 0
    endloop
  endfacet
  facet normal -0.61393 -0.78936 0
    outer loop
      vertex -2.03976 -0.143226 0
      vertex -2.03976 -0.143226 5
      vertex -2.12866 -0.0740825 0
    endloop
  endfacet
  facet normal -0.61393 -0.78936 0
    outer loop
      vertex -2.03976 -0.143226 5
      vertex -2.12866 -0.0740825 5
      vertex -2.12866 -0.0740825 0
    endloop
  endfacet
  facet normal 0.768228 -0.640176 0
    outer loop
      vertex -2.12866 -0.0740825 0
      vertex -2.12866 -0.0740825 5
      vertex -2.22744 -0.192615 0
    endloop
  endfacet
  facet normal 0.768228 -0.640176 0
    outer loop
      vertex -2.12866 -0.0740825 5
      vertex -2.22744 -0.192615 5
      vertex -2.22744 -0.192615 0
    endloop
  endfacet
  facet normal 0.737144 -0.675736 0
    outer loop
      vertex -2.22744 -0.192615 0
      vertex -2.22744 -0.192615 5
      vertex -2.33609 -0.311148 0
    endloop
  endfacet
  facet normal 0.737144 -0.675736 0
    outer loop
      vertex -2.22744 -0.192615 5
      vertex -2.33609 -0.311148 5
      vertex -2.33609 -0.311148 0
    endloop
  endfacet
  facet normal 0.739944 -0.672668 0
    outer loop
      vertex -2.33609 -0.311148 0
      vertex -2.33609 -0.311148 5
      vertex -2.43487 -0.419802 0
    endloop
  endfacet
  facet normal 0.739944 -0.672668 0
    outer loop
      vertex -2.33609 -0.311148 5
      vertex -2.43487 -0.419802 5
      vertex -2.43487 -0.419802 0
    endloop
  endfacet
  facet normal 0.328516 -0.944498 0
    outer loop
      vertex -2.43487 -0.419802 0
      vertex -2.43487 -0.419802 5
      vertex -2.66206 -0.498824 0
    endloop
  endfacet
  facet normal 0.328516 -0.944498 0
    outer loop
      vertex -2.43487 -0.419802 5
      vertex -2.66206 -0.498824 5
      vertex -2.66206 -0.498824 0
    endloop
  endfacet
  facet normal -0.196111 -0.980582 0
    outer loop
      vertex -2.66206 -0.498824 0
      vertex -2.66206 -0.498824 5
      vertex -2.81022 -0.469192 0
    endloop
  endfacet
  facet normal -0.196111 -0.980582 0
    outer loop
      vertex -2.66206 -0.498824 5
      vertex -2.81022 -0.469192 5
      vertex -2.81022 -0.469192 0
    endloop
  endfacet
  facet normal -0.609699 -0.792633 0
    outer loop
      vertex -2.81022 -0.469192 0
      vertex -2.81022 -0.469192 5
      vertex -2.93864 -0.370417 0
    endloop
  endfacet
  facet normal -0.609699 -0.792633 0
    outer loop
      vertex -2.81022 -0.469192 5
      vertex -2.93864 -0.370417 5
      vertex -2.93864 -0.370417 0
    endloop
  endfacet
  facet normal -0.800008 -0.59999 0
    outer loop
      vertex -2.93864 -0.370417 0
      vertex -2.93864 -0.370417 5
      vertex -3.05717 -0.212369 0
    endloop
  endfacet
  facet normal -0.800008 -0.59999 0
    outer loop
      vertex -2.93864 -0.370417 5
      vertex -3.05717 -0.212369 5
      vertex -3.05717 -0.212369 0
    endloop
  endfacet
  facet normal -0.77395 -0.633246 0
    outer loop
      vertex -3.05717 -0.212369 0
      vertex -3.05717 -0.212369 5
      vertex -3.14607 -0.103715 0
    endloop
  endfacet
  facet normal -0.77395 -0.633246 0
    outer loop
      vertex -3.05717 -0.212369 5
      vertex -3.14607 -0.103715 5
      vertex -3.14607 -0.103715 0
    endloop
  endfacet
  facet normal -0.847993 -0.530007 0
    outer loop
      vertex -3.14607 -0.103715 0
      vertex -3.14607 -0.103715 5
      vertex -3.19546 -0.0246927 0
    endloop
  endfacet
  facet normal -0.847993 -0.530007 0
    outer loop
      vertex -3.14607 -0.103715 5
      vertex -3.19546 -0.0246927 5
      vertex -3.19546 -0.0246927 0
    endloop
  endfacet
  facet normal -1 0 0
    outer loop
      vertex -3.19546 -0.0246927 0
      vertex -3.19546 -0.0246927 5
      vertex -3.19546 0.202494 0
    endloop
  endfacet
  facet normal -1 0 0
    outer loop
      vertex -3.19546 -0.0246927 5
      vertex -3.19546 0.202494 5
      vertex -3.19546 0.202494 0
    endloop
  endfacet
  facet normal -0.966234 0.257664 0
    outer loop
      vertex -3.19546 0.202494 0
      vertex -3.19546 0.202494 5
      vertex -3.15595 0.350659 0
    endloop
  endfacet
  facet normal -0.966234 0.257664 0
    outer loop
      vertex -3.19546 0.202494 5
      vertex -3.15595 0.350659 5
      vertex -3.15595 0.350659 0
    endloop
  endfacet
  facet normal -0.939792 0.341746 0
    outer loop
      vertex -3.15595 0.350659 0
      vertex -3.15595 0.350659 5
      vertex -3.11644 0.459313 0
    endloop
  endfacet
  facet normal -0.939792 0.341746 0
    outer loop
      vertex -3.15595 0.350659 5
      vertex -3.11644 0.459313 5
      vertex -3.11644 0.459313 0
    endloop
  endfacet
  facet normal -0.995893 0.0905429 0
    outer loop
      vertex -3.11644 0.459313 0
      vertex -3.11644 0.459313 5
      vertex -3.10656 0.567971 0
    endloop
  endfacet
  facet normal -0.995893 0.0905429 0
    outer loop
      vertex -3.11644 0.459313 5
      vertex -3.10656 0.567971 5
      vertex -3.10656 0.567971 0
    endloop
  endfacet
  facet normal -1 0 0
    outer loop
      vertex -3.10656 0.567971 0
      vertex -3.10656 0.567971 5
      vertex -3.10656 0.637114 0
    endloop
  endfacet
  facet normal -1 0 0
    outer loop
      vertex -3.10656 0.567971 5
      vertex -3.10656 0.637114 5
      vertex -3.10656 0.637114 0
    endloop
  endfacet
  facet normal -0.894427 0.447214 0
    outer loop
      vertex -3.10656 0.637114 0
      vertex -3.10656 0.637114 5
      vertex -3.09668 0.656872 0
    endloop
  endfacet
  facet normal -0.894427 0.447214 0
    outer loop
      vertex -3.10656 0.637114 5
      vertex -3.09668 0.656872 5
      vertex -3.09668 0.656872 0
    endloop
  endfacet
  facet normal -0.907961 0.419054 0
    outer loop
      vertex -3.09668 0.656872 0
      vertex -3.09668 0.656872 5
      vertex -3.03742 0.785279 0
    endloop
  endfacet
  facet normal -0.907961 0.419054 0
    outer loop
      vertex -3.09668 0.656872 5
      vertex -3.03742 0.785279 5
      vertex -3.03742 0.785279 0
    endloop
  endfacet
  facet normal -0.668961 0.743297 0
    outer loop
      vertex -3.03742 0.785279 0
      vertex -3.03742 0.785279 5
      vertex -2.93864 0.87418 0
    endloop
  endfacet
  facet normal -0.668961 0.743297 0
    outer loop
      vertex -3.03742 0.785279 5
      vertex -2.93864 0.87418 5
      vertex -2.93864 0.87418 0
    endloop
  endfacet
  facet normal -0.316228 0.948683 0
    outer loop
      vertex -2.93864 0.87418 0
      vertex -2.93864 0.87418 5
      vertex -2.8201 0.913691 0
    endloop
  endfacet
  facet normal -0.316228 0.948683 0
    outer loop
      vertex -2.93864 0.87418 5
      vertex -2.8201 0.913691 5
      vertex -2.8201 0.913691 0
    endloop
  endfacet
  facet normal -0.998274 -0.058728 0
    outer loop
      vertex -2.8201 0.913691 0
      vertex -2.8201 0.913691 5
      vertex -2.83986 1.24954 0
    endloop
  endfacet
  facet normal -0.998274 -0.058728 0
    outer loop
      vertex -2.8201 0.913691 5
      vertex -2.83986 1.24954 5
      vertex -2.83986 1.24954 0
    endloop
  endfacet
  facet normal -0.94867 0.316269 0
    outer loop
      vertex -2.83986 1.24954 0
      vertex -2.83986 1.24954 5
      vertex -2.82998 1.27917 0
    endloop
  endfacet
  facet normal -0.94867 0.316269 0
    outer loop
      vertex -2.83986 1.24954 5
      vertex -2.82998 1.27917 5
      vertex -2.82998 1.27917 0
    endloop
  endfacet
  facet normal -0.554703 0.832049 0
    outer loop
      vertex -2.82998 1.27917 0
      vertex -2.82998 1.27917 5
      vertex -2.50402 1.49648 0
    endloop
  endfacet
  facet normal -0.554703 0.832049 0
    outer loop
      vertex -2.82998 1.27917 5
      vertex -2.50402 1.49648 5
      vertex -2.50402 1.49648 0
    endloop
  endfacet
  facet normal -0.44721 0.894429 0
    outer loop
      vertex -2.50402 1.49648 0
      vertex -2.50402 1.49648 5
      vertex -2.02988 1.73355 0
    endloop
  endfacet
  facet normal -0.44721 0.894429 0
    outer loop
      vertex -2.50402 1.49648 5
      vertex -2.02988 1.73355 5
      vertex -2.02988 1.73355 0
    endloop
  endfacet
  facet normal -0.936333 -0.351112 0
    outer loop
      vertex -2.02988 1.73355 0
      vertex -2.02988 1.73355 5
      vertex -2.05951 1.81257 0
    endloop
  endfacet
  facet normal -0.936333 -0.351112 0
    outer loop
      vertex -2.02988 1.73355 5
      vertex -2.05951 1.81257 5
      vertex -2.05951 1.81257 0
    endloop
  endfacet
  facet normal -0.274753 0.961515 0
    outer loop
      vertex -2.05951 1.81257 0
      vertex -2.05951 1.81257 5
      vertex -1.99037 1.83233 0
    endloop
  endfacet
  facet normal -0.274753 0.961515 0
    outer loop
      vertex -2.05951 1.81257 5
      vertex -1.99037 1.83233 5
      vertex -1.99037 1.83233 0
    endloop
  endfacet
  facet normal -0.554714 0.832041 0
    outer loop
      vertex -1.99037 1.83233 0
      vertex -1.99037 1.83233 5
      vertex -1.93111 1.87184 0
    endloop
  endfacet
  facet normal -0.554714 0.832041 0
    outer loop
      vertex -1.99037 1.83233 5
      vertex -1.93111 1.87184 5
      vertex -1.93111 1.87184 0
    endloop
  endfacet
  facet normal -0.14143 0.989948 0
    outer loop
      vertex -1.93111 1.87184 0
      vertex -1.93111 1.87184 5
      vertex -1.86196 1.88172 0
    endloop
  endfacet
  facet normal -0.14143 0.989948 0
    outer loop
      vertex -1.93111 1.87184 5
      vertex -1.86196 1.88172 5
      vertex -1.86196 1.88172 0
    endloop
  endfacet
  facet normal 0 1 0
    outer loop
      vertex -1.86196 1.88172 0
      vertex -1.86196 1.88172 5
      vertex -1.82245 1.88172 0
    endloop
  endfacet
  facet normal -0 1 0
    outer loop
      vertex -1.86196 1.88172 5
      vertex -1.82245 1.88172 5
      vertex -1.82245 1.88172 0
    endloop
  endfacet
  facet normal -0.707107 0.707107 0
    outer loop
      vertex -1.82245 1.88172 0
      vertex -1.82245 1.88172 5
      vertex -1.81257 1.89159 0
    endloop
  endfacet
  facet normal -0.707107 0.707107 0
    outer loop
      vertex -1.82245 1.88172 5
      vertex -1.81257 1.89159 5
      vertex -1.81257 1.89159 0
    endloop
  endfacet
  facet normal -0.123995 0.992283 0
    outer loop
      vertex -1.81257 1.89159 0
      vertex -1.81257 1.89159 5
      vertex -1.73355 1.90147 0
    endloop
  endfacet
  facet normal -0.123995 0.992283 0
    outer loop
      vertex -1.81257 1.89159 5
      vertex -1.73355 1.90147 5
      vertex -1.73355 1.90147 0
    endloop
  endfacet
  facet normal -0.196141 0.980576 0
    outer loop
      vertex -1.73355 1.90147 0
      vertex -1.73355 1.90147 5
      vertex -1.63477 1.92123 0
    endloop
  endfacet
  facet normal -0.196141 0.980576 0
    outer loop
      vertex -1.73355 1.90147 5
      vertex -1.63477 1.92123 5
      vertex -1.63477 1.92123 0
    endloop
  endfacet
  facet normal -0.110442 0.993883 0
    outer loop
      vertex -1.63477 1.92123 0
      vertex -1.63477 1.92123 5
      vertex -1.54587 1.93111 0
    endloop
  endfacet
  facet normal -0.110442 0.993883 0
    outer loop
      vertex -1.63477 1.92123 5
      vertex -1.54587 1.93111 5
      vertex -1.54587 1.93111 0
    endloop
  endfacet
  facet normal 0 1 0
    outer loop
      vertex -1.54587 1.93111 0
      vertex -1.54587 1.93111 5
      vertex -1.50636 1.93111 0
    endloop
  endfacet
  facet normal -0 1 0
    outer loop
      vertex -1.54587 1.93111 5
      vertex -1.50636 1.93111 5
      vertex -1.50636 1.93111 0
    endloop
  endfacet
  facet normal -0.371349 0.928493 0
    outer loop
      vertex -1.50636 1.93111 0
      vertex -1.50636 1.93111 5
      vertex -1.45697 1.95086 0
    endloop
  endfacet
  facet normal -0.371349 0.928493 0
    outer loop
      vertex -1.50636 1.93111 5
      vertex -1.45697 1.95086 5
      vertex -1.45697 1.95086 0
    endloop
  endfacet
  facet normal -0.21695 0.976183 0
    outer loop
      vertex -1.45697 1.95086 0
      vertex -1.45697 1.95086 5
      vertex -1.36807 1.97062 0
    endloop
  endfacet
  facet normal -0.21695 0.976183 0
    outer loop
      vertex -1.45697 1.95086 5
      vertex -1.36807 1.97062 5
      vertex -1.36807 1.97062 0
    endloop
  endfacet
  facet normal -0.0830185 0.996548 0
    outer loop
      vertex -1.36807 1.97062 0
      vertex -1.36807 1.97062 5
      vertex -1.24954 1.98049 0
    endloop
  endfacet
  facet normal -0.0830185 0.996548 0
    outer loop
      vertex -1.36807 1.97062 5
      vertex -1.24954 1.98049 5
      vertex -1.24954 1.98049 0
    endloop
  endfacet
  facet normal -0.28217 0.959364 0
    outer loop
      vertex -1.24954 1.98049 0
      vertex -1.24954 1.98049 5
      vertex -1.08161 2.02988 0
    endloop
  endfacet
  facet normal -0.28217 0.959364 0
    outer loop
      vertex -1.24954 1.98049 5
      vertex -1.08161 2.02988 5
      vertex -1.08161 2.02988 0
    endloop
  endfacet
  facet normal -0.0830545 0.996545 0
    outer loop
      vertex -1.08161 2.02988 0
      vertex -1.08161 2.02988 5
      vertex -0.963081 2.03976 0
    endloop
  endfacet
  facet normal -0.0830545 0.996545 0
    outer loop
      vertex -1.08161 2.02988 5
      vertex -0.963081 2.03976 5
      vertex -0.963081 2.03976 0
    endloop
  endfacet
  facet normal 0.110442 0.993883 -0
    outer loop
      vertex -0.963081 2.03976 0
      vertex -0.963081 2.03976 5
      vertex -0.87418 2.02988 0
    endloop
  endfacet
  facet normal 0.110442 0.993883 0
    outer loop
      vertex -0.963081 2.03976 5
      vertex -0.87418 2.02988 5
      vertex -0.87418 2.02988 0
    endloop
  endfacet
  facet normal -0.0623851 0.998052 0
    outer loop
      vertex -0.87418 2.02988 0
      vertex -0.87418 2.02988 5
      vertex -0.716136 2.03976 0
    endloop
  endfacet
  facet normal -0.0623851 0.998052 0
    outer loop
      vertex -0.87418 2.02988 5
      vertex -0.716136 2.03976 5
      vertex -0.716136 2.03976 0
    endloop
  endfacet
  facet normal 0 1 0
    outer loop
      vertex -0.716136 2.03976 0
      vertex -0.716136 2.03976 5
      vertex -0.597603 2.03976 0
    endloop
  endfacet
  facet normal -0 1 0
    outer loop
      vertex -0.716136 2.03976 5
      vertex -0.597603 2.03976 5
      vertex -0.597603 2.03976 0
    endloop
  endfacet
  facet normal -0.124048 0.992276 0
    outer loop
      vertex -0.597603 2.03976 0
      vertex -0.597603 2.03976 5
      vertex -0.518582 2.04964 0
    endloop
  endfacet
  facet normal -0.124048 0.992276 0
    outer loop
      vertex -0.597603 2.03976 5
      vertex -0.518582 2.04964 5
      vertex -0.518582 2.04964 0
    endloop
  endfacet
  facet normal -0.129333 0.991601 0
    outer loop
      vertex -0.518582 2.04964 0
      vertex -0.518582 2.04964 5
      vertex -0.29139 2.07927 0
    endloop
  endfacet
  facet normal -0.129333 0.991601 0
    outer loop
      vertex -0.518582 2.04964 5
      vertex -0.29139 2.07927 5
      vertex -0.29139 2.07927 0
    endloop
  endfacet
  facet normal 0 1 0
    outer loop
      vertex -0.29139 2.07927 0
      vertex -0.29139 2.07927 5
      vertex -0.0938358 2.07927 0
    endloop
  endfacet
  facet normal -0 1 0
    outer loop
      vertex -0.29139 2.07927 5
      vertex -0.0938358 2.07927 5
      vertex -0.0938358 2.07927 0
    endloop
  endfacet
  facet normal 0.124048 0.992276 -0
    outer loop
      vertex -0.0938358 2.07927 0
      vertex -0.0938358 2.07927 5
      vertex -0.0148139 2.06939 0
    endloop
  endfacet
  facet normal 0.124048 0.992276 0
    outer loop
      vertex -0.0938358 2.07927 5
      vertex -0.0148139 2.06939 5
      vertex -0.0148139 2.06939 0
    endloop
  endfacet
  facet normal 0 1 0
    outer loop
      vertex -0.0148139 2.06939 0
      vertex -0.0148139 2.06939 5
      vertex 0.212369 2.06939 0
    endloop
  endfacet
  facet normal -0 1 0
    outer loop
      vertex -0.0148139 2.06939 5
      vertex 0.212369 2.06939 5
      vertex 0.212369 2.06939 0
    endloop
  endfacet
  facet normal 0.058728 0.998274 -0
    outer loop
      vertex 0.212369 2.06939 0
      vertex 0.212369 2.06939 5
      vertex 0.380291 2.05951 0
    endloop
  endfacet
  facet normal 0.058728 0.998274 0
    outer loop
      vertex 0.212369 2.06939 5
      vertex 0.380291 2.05951 5
      vertex 0.380291 2.05951 0
    endloop
  endfacet
  facet normal 0.0453924 0.998969 -0
    outer loop
      vertex 0.380291 2.05951 0
      vertex 0.380291 2.05951 5
      vertex 0.597603 2.04964 0
    endloop
  endfacet
  facet normal 0.0453924 0.998969 0
    outer loop
      vertex 0.380291 2.05951 5
      vertex 0.597603 2.04964 5
      vertex 0.597603 2.04964 0
    endloop
  endfacet
  facet normal 0.110442 0.993883 -0
    outer loop
      vertex 0.597603 2.04964 0
      vertex 0.597603 2.04964 5
      vertex 0.864306 2.02 0
    endloop
  endfacet
  facet normal 0.110442 0.993883 0
    outer loop
      vertex 0.597603 2.04964 5
      vertex 0.864306 2.02 5
      vertex 0.864306 2.02 0
    endloop
  endfacet
  facet normal -0.707184 0.70703 0
    outer loop
      vertex 0.864306 2.02 0
      vertex 0.864306 2.02 5
      vertex 0.884059 2.03976 0
    endloop
  endfacet
  facet normal -0.707184 0.70703 0
    outer loop
      vertex 0.864306 2.02 5
      vertex 0.884059 2.03976 5
      vertex 0.884059 2.03976 0
    endloop
  endfacet
  facet normal -0.894388 0.447292 0
    outer loop
      vertex 0.884059 2.03976 0
      vertex 0.884059 2.03976 5
      vertex 0.893938 2.05951 0
    endloop
  endfacet
  facet normal -0.894388 0.447292 0
    outer loop
      vertex 0.884059 2.03976 5
      vertex 0.893938 2.05951 5
      vertex 0.893938 2.05951 0
    endloop
  endfacet
  facet normal -0.980577 -0.196133 0
    outer loop
      vertex 0.893938 2.05951 0
      vertex 0.893938 2.05951 5
      vertex 0.884059 2.1089 0
    endloop
  endfacet
  facet normal -0.980577 -0.196133 0
    outer loop
      vertex 0.893938 2.05951 5
      vertex 0.884059 2.1089 5
      vertex 0.884059 2.1089 0
    endloop
  endfacet
  facet normal -1 0 0
    outer loop
      vertex 0.884059 2.1089 0
      vertex 0.884059 2.1089 5
      vertex 0.884059 2.12866 0
    endloop
  endfacet
  facet normal -1 0 0
    outer loop
      vertex 0.884059 2.1089 5
      vertex 0.884059 2.12866 5
      vertex 0.884059 2.12866 0
    endloop
  endfacet
  facet normal 0 1 0
    outer loop
      vertex 0.884059 2.12866 0
      vertex 0.884059 2.12866 5
      vertex 0.963081 2.12866 0
    endloop
  endfacet
  facet normal -0 1 0
    outer loop
      vertex 0.884059 2.12866 5
      vertex 0.963081 2.12866 5
      vertex 0.963081 2.12866 0
    endloop
  endfacet
  facet normal 1 0 -0
    outer loop
      vertex 0.963081 2.12866 0
      vertex 0.963081 2.12866 5
      vertex 0.963081 2.1089 0
    endloop
  endfacet
  facet normal 1 0 0
    outer loop
      vertex 0.963081 2.12866 5
      vertex 0.963081 2.1089 5
      vertex 0.963081 2.1089 0
    endloop
  endfacet
endsolid OpenSCAD_Model
