solid OpenSCAD_Model
  facet normal 0 0 -1
    outer loop
      vertex -2.41018 0.567971 0
      vertex -0.444499 0.538335 0
      vertex -1.99531 -1.29893 0
    endloop
  endfacet
  facet normal 0 0 -1
    outer loop
      vertex -2.06445 1.78294 0
      vertex -1.96568 1.85208 0
      vertex -1.91629 1.79281 0
    endloop
  endfacet
  facet normal 0 0 -1
    outer loop
      vertex 0.849487 0.459313 0
      vertex -0.256819 1.71379 0
      vertex 0.898877 1.68416 0
    endloop
  endfacet
  facet normal 0 0 -1
    outer loop
      vertex -1.83727 1.73355 0
      vertex -1.74836 1.65452 0
      vertex -1.75824 1.5755 0
    endloop
  endfacet
  facet normal 0 0 -1
    outer loop
      vertex -1.75824 1.4866 0
      vertex -2.20274 1.74343 0
      vertex -2.06445 1.78294 0
    endloop
  endfacet
  facet normal 0 0 -1
    outer loop
      vertex -1.75824 1.4866 0
      vertex -2.06445 1.78294 0
      vertex -1.75824 1.5755 0
    endloop
  endfacet
  facet normal 0 -0 -1
    outer loop
      vertex 0.306209 -0.0543248 0
      vertex 0.395109 -1.79281 0
      vertex -0.888998 -1.69404 0
    endloop
  endfacet
  facet normal 0 0 -1
    outer loop
      vertex -2.42005 1.18039 0
      vertex -2.41018 1.2199 0
      vertex -2.33115 1.26929 0
    endloop
  endfacet
  facet normal 0 -0 -1
    outer loop
      vertex -0.0395109 0.083957 0
      vertex 0.306209 -0.0543248 0
      vertex -0.888998 -1.69404 0
    endloop
  endfacet
  facet normal 0 0 -1
    outer loop
      vertex -1.66934 1.47673 0
      vertex -1.54093 1.53599 0
      vertex -1.18533 1.40758 0
    endloop
  endfacet
  facet normal 0 -0 -1
    outer loop
      vertex -1.64958 1.49648 0
      vertex -1.54093 1.53599 0
      vertex -1.66934 1.47673 0
    endloop
  endfacet
  facet normal 0 0 -1
    outer loop
      vertex -0.888998 -1.69404 0
      vertex -1.44215 -1.54587 0
      vertex -0.256819 0.261758 0
    endloop
  endfacet
  facet normal 0 0 -1
    outer loop
      vertex -1.54093 1.53599 0
      vertex -1.37301 1.54587 0
      vertex -1.18533 1.40758 0
    endloop
  endfacet
  facet normal 0 0 -1
    outer loop
      vertex -1.0668 1.06186 0
      vertex -1.18533 1.40758 0
      vertex -1.03716 1.14088 0
    endloop
  endfacet
  facet normal 0 0 -1
    outer loop
      vertex 0.859366 0.409928 0
      vertex 0.849487 0.459313 0
      vertex 1.08655 0.222247 0
    endloop
  endfacet
  facet normal 0 0 -1
    outer loop
      vertex -1.66934 1.47673 0
      vertex -1.18533 1.40758 0
      vertex -1.0668 1.06186 0
    endloop
  endfacet
  facet normal 0 0 -1
    outer loop
      vertex 0.869241 -1.77306 0
      vertex 0.493889 -1.86196 0
      vertex 0.395109 -1.79281 0
    endloop
  endfacet
  facet normal 0 -0 -1
    outer loop
      vertex -1.66934 1.47673 0
      vertex -1.0668 1.06186 0
      vertex -1.71873 1.45697 0
    endloop
  endfacet
  facet normal 0 0 -1
    outer loop
      vertex -0.256819 0.261758 0
      vertex -0.444499 0.538335 0
      vertex -0.276577 0.350659 0
    endloop
  endfacet
  facet normal 0 0 -1
    outer loop
      vertex 0.869241 -1.77306 0
      vertex 1.08655 0.222247 0
      vertex 1.82739 -1.50636 0
    endloop
  endfacet
  facet normal -0 -0 -1
    outer loop
      vertex -0.395109 0.508703 0
      vertex -0.276577 0.350659 0
      vertex -0.444499 0.538335 0
    endloop
  endfacet
  facet normal -0 -0 -1
    outer loop
      vertex 0.0691431 0.0740825 0
      vertex 0.306209 -0.0543248 0
      vertex -0.0395109 0.083957 0
    endloop
  endfacet
  facet normal -0 0 -1
    outer loop
      vertex -0.0395109 0.083957 0
      vertex -0.888998 -1.69404 0
      vertex -0.256819 0.261758 0
    endloop
  endfacet
  facet normal 0 0 -1
    outer loop
      vertex 0.869241 -1.77306 0
      vertex 0.859366 -1.79281 0
      vertex 0.493889 -1.86196 0
    endloop
  endfacet
  facet normal 0 0 -1
    outer loop
      vertex 1.08655 0.222247 0
      vertex 2.97321 0.597603 0
      vertex 3.12138 0.202494 0
    endloop
  endfacet
  facet normal 0 0 -1
    outer loop
      vertex 1.61995 1.15076 0
      vertex 1.76812 1.44709 0
      vertex 1.88665 1.38783 0
    endloop
  endfacet
  facet normal 0 0 -1
    outer loop
      vertex -0.444499 1.49648 0
      vertex -0.43462 1.65452 0
      vertex -0.256819 1.71379 0
    endloop
  endfacet
  facet normal 0 0 -1
    outer loop
      vertex -0.444499 1.49648 0
      vertex -0.256819 1.71379 0
      vertex 0.849487 0.459313 0
    endloop
  endfacet
  facet normal 0 0 -1
    outer loop
      vertex 0.849487 0.459313 0
      vertex 0.898877 1.68416 0
      vertex 1.61995 1.15076 0
    endloop
  endfacet
  facet normal 0 0 -1
    outer loop
      vertex 0.849487 0.459313 0
      vertex 1.61995 1.15076 0
      vertex 1.08655 0.222247 0
    endloop
  endfacet
  facet normal 0 0 -1
    outer loop
      vertex 1.65946 1.53599 0
      vertex 1.71873 1.54587 0
      vertex 1.76812 1.44709 0
    endloop
  endfacet
  facet normal 0 0 -1
    outer loop
      vertex 1.76812 1.44709 0
      vertex 1.83727 1.4866 0
      vertex 1.88665 1.38783 0
    endloop
  endfacet
  facet normal 0 -0 -1
    outer loop
      vertex 1.65946 1.53599 0
      vertex 1.76812 1.44709 0
      vertex 1.61995 1.15076 0
    endloop
  endfacet
  facet normal 0 -0 -1
    outer loop
      vertex 1.778 1.47673 0
      vertex 1.83727 1.4866 0
      vertex 1.76812 1.44709 0
    endloop
  endfacet
  facet normal 0 0 -1
    outer loop
      vertex 1.88665 1.38783 0
      vertex 1.93604 1.45697 0
      vertex 2.21262 1.28905 0
    endloop
  endfacet
  facet normal 0 0 -1
    outer loop
      vertex 1.61995 1.15076 0
      vertex 1.88665 1.38783 0
      vertex 2.21262 1.28905 0
    endloop
  endfacet
  facet normal 0 0 -1
    outer loop
      vertex 1.61995 1.15076 0
      vertex 2.21262 1.28905 0
      vertex 2.4003 1.18039 0
    endloop
  endfacet
  facet normal 0 0 -1
    outer loop
      vertex 2.53859 1.09149 0
      vertex 2.4003 1.18039 0
      vertex 2.49908 1.131 0
    endloop
  endfacet
  facet normal 0 0 -1
    outer loop
      vertex 1.61995 1.15076 0
      vertex 2.4003 1.18039 0
      vertex 2.53859 1.09149 0
    endloop
  endfacet
  facet normal 0 0 -1
    outer loop
      vertex 1.61995 1.15076 0
      vertex 2.53859 1.09149 0
      vertex 2.68675 0.963081 0
    endloop
  endfacet
  facet normal 0 0 -1
    outer loop
      vertex 2.53859 1.09149 0
      vertex 2.63736 1.06186 0
      vertex 2.68675 0.963081 0
    endloop
  endfacet
  facet normal 0 -0 -1
    outer loop
      vertex 1.61995 1.15076 0
      vertex 2.68675 0.963081 0
      vertex 1.08655 0.222247 0
    endloop
  endfacet
  facet normal 0 -0 -1
    outer loop
      vertex 2.68675 0.963081 0
      vertex 2.97321 0.597603 0
      vertex 1.08655 0.222247 0
    endloop
  endfacet
  facet normal 0 0 -1
    outer loop
      vertex 1.08655 0.222247 0
      vertex 3.12138 0.202494 0
      vertex 3.10162 -0.271637 0
    endloop
  endfacet
  facet normal 0 0 -1
    outer loop
      vertex 1.08655 0.222247 0
      vertex 3.10162 -0.271637 0
      vertex 2.87443 -0.745768 0
    endloop
  endfacet
  facet normal 0 0 -1
    outer loop
      vertex 1.08655 0.222247 0
      vertex 2.87443 -0.745768 0
      vertex 2.46944 -1.16064 0
    endloop
  endfacet
  facet normal 0 0 -1
    outer loop
      vertex 1.08655 0.222247 0
      vertex 2.46944 -1.16064 0
      vertex 1.82739 -1.50636 0
    endloop
  endfacet
  facet normal 0 0 -1
    outer loop
      vertex 0.306209 -0.0543248 0
      vertex 1.08655 0.222247 0
      vertex 0.869241 -1.77306 0
    endloop
  endfacet
  facet normal -0 0 -1
    outer loop
      vertex 0.869241 -1.77306 0
      vertex 0.395109 -1.79281 0
      vertex 0.306209 -0.0543248 0
    endloop
  endfacet
  facet normal 0 0 -1
    outer loop
      vertex -1.99531 -1.29893 0
      vertex -0.256819 0.261758 0
      vertex -1.44215 -1.54587 0
    endloop
  endfacet
  facet normal 0 -0 -1
    outer loop
      vertex -0.444499 0.538335 0
      vertex -0.256819 0.261758 0
      vertex -1.99531 -1.29893 0
    endloop
  endfacet
  facet normal 0 -0 -1
    outer loop
      vertex -2.41018 0.567971 0
      vertex -1.99531 -1.29893 0
      vertex -2.51883 -0.92357 0
    endloop
  endfacet
  facet normal 0 0 -1
    outer loop
      vertex -2.96333 -0.370417 0
      vertex -2.89419 -0.400049 0
      vertex -2.96333 -0.409928 0
    endloop
  endfacet
  facet normal 0 -0 -1
    outer loop
      vertex -2.89419 -0.400049 0
      vertex -2.51883 -0.92357 0
      vertex -2.96333 -0.409928 0
    endloop
  endfacet
  facet normal 0 -0 -1
    outer loop
      vertex -2.82504 -0.261758 0
      vertex -2.51883 -0.92357 0
      vertex -2.88431 -0.370417 0
    endloop
  endfacet
  facet normal 0 0 -1
    outer loop
      vertex -2.96333 -0.212369 0
      vertex -2.82504 -0.261758 0
      vertex -2.96333 -0.242005 0
    endloop
  endfacet
  facet normal 0 0 -1
    outer loop
      vertex -2.41018 0.567971 0
      vertex -2.51883 -0.92357 0
      vertex -2.82504 -0.261758 0
    endloop
  endfacet
  facet normal 0 0 -1
    outer loop
      vertex -3.12138 0.34078 0
      vertex -2.41018 0.567971 0
      vertex -2.97321 0.0345715 0
    endloop
  endfacet
  facet normal 0 -0 -1
    outer loop
      vertex -2.88431 -0.370417 0
      vertex -2.51883 -0.92357 0
      vertex -2.89419 -0.400049 0
    endloop
  endfacet
  facet normal 0 0 -1
    outer loop
      vertex -3.08187 0.143226 0
      vertex -3.12138 0.34078 0
      vertex -2.97321 0.0345715 0
    endloop
  endfacet
  facet normal 0 0 -1
    outer loop
      vertex -2.41018 0.567971 0
      vertex -2.82504 -0.261758 0
      vertex -2.82504 -0.123472 0
    endloop
  endfacet
  facet normal 0 0 -1
    outer loop
      vertex -2.88431 -0.370417 0
      vertex -2.96333 -0.242005 0
      vertex -2.82504 -0.261758 0
    endloop
  endfacet
  facet normal 0 0 -1
    outer loop
      vertex -3.12138 0.34078 0
      vertex -2.88431 0.735894 0
      vertex -2.41018 0.567971 0
    endloop
  endfacet
  facet normal 0 0 -1
    outer loop
      vertex -3.12138 0.192615 0
      vertex -3.12138 0.34078 0
      vertex -3.08187 0.143226 0
    endloop
  endfacet
  facet normal 0 0 -1
    outer loop
      vertex -2.41018 0.567971 0
      vertex -2.88431 0.735894 0
      vertex -2.69663 0.805037 0
    endloop
  endfacet
  facet normal -0 0 -1
    outer loop
      vertex -1.0668 1.06186 0
      vertex -2.4003 0.587725 0
      vertex -1.71873 1.45697 0
    endloop
  endfacet
  facet normal 0 0 -1
    outer loop
      vertex -2.42005 1.18039 0
      vertex -2.49908 1.08161 0
      vertex -2.47932 1.12112 0
    endloop
  endfacet
  facet normal 0 0 -1
    outer loop
      vertex -1.0668 1.06186 0
      vertex -2.41018 0.567971 0
      vertex -2.4003 0.587725 0
    endloop
  endfacet
  facet normal 0 0 -1
    outer loop
      vertex -2.41018 0.567971 0
      vertex -2.82504 -0.123472 0
      vertex -2.97321 0.0345715 0
    endloop
  endfacet
  facet normal 0 -0 -1
    outer loop
      vertex -1.0668 1.06186 0
      vertex -0.444499 0.538335 0
      vertex -2.41018 0.567971 0
    endloop
  endfacet
  facet normal 0 0 -1
    outer loop
      vertex -2.62749 0.92357 0
      vertex -2.49908 1.08161 0
      vertex -2.4003 0.587725 0
    endloop
  endfacet
  facet normal 0 0 -1
    outer loop
      vertex -2.4003 0.587725 0
      vertex -2.49908 1.08161 0
      vertex -2.42005 1.18039 0
    endloop
  endfacet
  facet normal 0 0 -1
    outer loop
      vertex -2.667 0.903816 0
      vertex -2.62749 0.92357 0
      vertex -2.667 0.834669 0
    endloop
  endfacet
  facet normal 0 0 -1
    outer loop
      vertex -2.667 1.03222 0
      vertex -2.49908 1.08161 0
      vertex -2.65712 0.963081 0
    endloop
  endfacet
  facet normal 0 0 -1
    outer loop
      vertex -2.667 0.834669 0
      vertex -2.62749 0.92357 0
      vertex -2.4003 0.587725 0
    endloop
  endfacet
  facet normal 0 0 -1
    outer loop
      vertex -2.49908 1.08161 0
      vertex -2.62749 0.92357 0
      vertex -2.65712 0.963081 0
    endloop
  endfacet
  facet normal 0 0 -1
    outer loop
      vertex -2.4003 0.587725 0
      vertex -2.33115 1.26929 0
      vertex -1.71873 1.45697 0
    endloop
  endfacet
  facet normal 0 0 -1
    outer loop
      vertex -2.4003 0.587725 0
      vertex -2.42005 1.18039 0
      vertex -2.33115 1.26929 0
    endloop
  endfacet
  facet normal -0 0 -1
    outer loop
      vertex -2.20274 1.74343 0
      vertex -2.33115 1.72367 0
      vertex -2.24225 1.77306 0
    endloop
  endfacet
  facet normal -0 0 -1
    outer loop
      vertex -1.71873 1.45697 0
      vertex -2.33115 1.26929 0
      vertex -1.73849 1.46685 0
    endloop
  endfacet
  facet normal -0 0 -1
    outer loop
      vertex -1.73849 1.46685 0
      vertex -2.33115 1.26929 0
      vertex -1.75824 1.4866 0
    endloop
  endfacet
  facet normal -0 0 -1
    outer loop
      vertex -2.24225 1.77306 0
      vertex -2.33115 1.72367 0
      vertex -2.29164 1.78294 0
    endloop
  endfacet
  facet normal 0 0 -1
    outer loop
      vertex -2.11384 1.81257 0
      vertex -2.20274 1.74343 0
      vertex -2.18298 1.80269 0
    endloop
  endfacet
  facet normal 0 0 -1
    outer loop
      vertex -2.06445 1.78294 0
      vertex -1.83727 1.73355 0
      vertex -1.75824 1.5755 0
    endloop
  endfacet
  facet normal 0 0 -1
    outer loop
      vertex -2.33115 1.26929 0
      vertex -2.20274 1.74343 0
      vertex -1.75824 1.4866 0
    endloop
  endfacet
  facet normal 0 0 -1
    outer loop
      vertex -2.33115 1.26929 0
      vertex -2.33115 1.72367 0
      vertex -2.20274 1.74343 0
    endloop
  endfacet
  facet normal 0 -0 -1
    outer loop
      vertex -2.15335 1.82245 0
      vertex -2.11384 1.81257 0
      vertex -2.18298 1.80269 0
    endloop
  endfacet
  facet normal 0 -0 -1
    outer loop
      vertex -2.02494 1.86196 0
      vertex -1.96568 1.85208 0
      vertex -2.06445 1.78294 0
    endloop
  endfacet
  facet normal -0 0 -1
    outer loop
      vertex -2.06445 1.78294 0
      vertex -2.20274 1.74343 0
      vertex -2.11384 1.81257 0
    endloop
  endfacet
  facet normal 0 -0 -1
    outer loop
      vertex -1.91629 1.79281 0
      vertex -1.83727 1.73355 0
      vertex -2.06445 1.78294 0
    endloop
  endfacet
  facet normal 0 0 -1
    outer loop
      vertex -2.02494 1.86196 0
      vertex -2.06445 1.78294 0
      vertex -2.05458 1.85208 0
    endloop
  endfacet
  facet normal 0 -0 1
    outer loop
      vertex -1.99531 -1.29893 5
      vertex -0.444499 0.538335 5
      vertex -2.41018 0.567971 5
    endloop
  endfacet
  facet normal 0 0 1
    outer loop
      vertex -1.91629 1.79281 5
      vertex -1.96568 1.85208 5
      vertex -2.06445 1.78294 5
    endloop
  endfacet
  facet normal 0 0 1
    outer loop
      vertex 0.898877 1.68416 5
      vertex -0.256819 1.71379 5
      vertex 0.849487 0.459313 5
    endloop
  endfacet
  facet normal 0 -0 1
    outer loop
      vertex -1.75824 1.5755 5
      vertex -1.74836 1.65452 5
      vertex -1.83727 1.73355 5
    endloop
  endfacet
  facet normal 0 0 1
    outer loop
      vertex -2.06445 1.78294 5
      vertex -2.20274 1.74343 5
      vertex -1.75824 1.4866 5
    endloop
  endfacet
  facet normal 0 0 1
    outer loop
      vertex -1.75824 1.5755 5
      vertex -2.06445 1.78294 5
      vertex -1.75824 1.4866 5
    endloop
  endfacet
  facet normal -0 0 1
    outer loop
      vertex -0.888998 -1.69404 5
      vertex 0.395109 -1.79281 5
      vertex 0.306209 -0.0543248 5
    endloop
  endfacet
  facet normal 0 0 1
    outer loop
      vertex -2.33115 1.26929 5
      vertex -2.41018 1.2199 5
      vertex -2.42005 1.18039 5
    endloop
  endfacet
  facet normal 0 0 1
    outer loop
      vertex -0.888998 -1.69404 5
      vertex 0.306209 -0.0543248 5
      vertex -0.0395109 0.083957 5
    endloop
  endfacet
  facet normal 0 0 1
    outer loop
      vertex -1.18533 1.40758 5
      vertex -1.54093 1.53599 5
      vertex -1.66934 1.47673 5
    endloop
  endfacet
  facet normal 0 0 1
    outer loop
      vertex -1.66934 1.47673 5
      vertex -1.54093 1.53599 5
      vertex -1.64958 1.49648 5
    endloop
  endfacet
  facet normal 0 0 1
    outer loop
      vertex -0.256819 0.261758 5
      vertex -1.44215 -1.54587 5
      vertex -0.888998 -1.69404 5
    endloop
  endfacet
  facet normal 0 0 1
    outer loop
      vertex -1.18533 1.40758 5
      vertex -1.37301 1.54587 5
      vertex -1.54093 1.53599 5
    endloop
  endfacet
  facet normal 0 0 1
    outer loop
      vertex -1.03716 1.14088 5
      vertex -1.18533 1.40758 5
      vertex -1.0668 1.06186 5
    endloop
  endfacet
  facet normal 0 0 1
    outer loop
      vertex 1.08655 0.222247 5
      vertex 0.849487 0.459313 5
      vertex 0.859366 0.409928 5
    endloop
  endfacet
  facet normal 0 0 1
    outer loop
      vertex -1.0668 1.06186 5
      vertex -1.18533 1.40758 5
      vertex -1.66934 1.47673 5
    endloop
  endfacet
  facet normal -0 0 1
    outer loop
      vertex 0.395109 -1.79281 5
      vertex 0.493889 -1.86196 5
      vertex 0.869241 -1.77306 5
    endloop
  endfacet
  facet normal -0 0 1
    outer loop
      vertex -1.71873 1.45697 5
      vertex -1.0668 1.06186 5
      vertex -1.66934 1.47673 5
    endloop
  endfacet
  facet normal 0 0 1
    outer loop
      vertex -0.276577 0.350659 5
      vertex -0.444499 0.538335 5
      vertex -0.256819 0.261758 5
    endloop
  endfacet
  facet normal 0 0 1
    outer loop
      vertex 1.82739 -1.50636 5
      vertex 1.08655 0.222247 5
      vertex 0.869241 -1.77306 5
    endloop
  endfacet
  facet normal 0 0 1
    outer loop
      vertex -0.444499 0.538335 5
      vertex -0.276577 0.350659 5
      vertex -0.395109 0.508703 5
    endloop
  endfacet
  facet normal 0 0 1
    outer loop
      vertex -0.0395109 0.083957 5
      vertex 0.306209 -0.0543248 5
      vertex 0.0691431 0.0740825 5
    endloop
  endfacet
  facet normal 0 0 1
    outer loop
      vertex -0.256819 0.261758 5
      vertex -0.888998 -1.69404 5
      vertex -0.0395109 0.083957 5
    endloop
  endfacet
  facet normal 0 0 1
    outer loop
      vertex 0.493889 -1.86196 5
      vertex 0.859366 -1.79281 5
      vertex 0.869241 -1.77306 5
    endloop
  endfacet
  facet normal 0 0 1
    outer loop
      vertex 3.12138 0.202494 5
      vertex 2.97321 0.597603 5
      vertex 1.08655 0.222247 5
    endloop
  endfacet
  facet normal 0 0 1
    outer loop
      vertex 1.88665 1.38783 5
      vertex 1.76812 1.44709 5
      vertex 1.61995 1.15076 5
    endloop
  endfacet
  facet normal 0 0 1
    outer loop
      vertex -0.256819 1.71379 5
      vertex -0.43462 1.65452 5
      vertex -0.444499 1.49648 5
    endloop
  endfacet
  facet normal 0 0 1
    outer loop
      vertex 0.849487 0.459313 5
      vertex -0.256819 1.71379 5
      vertex -0.444499 1.49648 5
    endloop
  endfacet
  facet normal 0 0 1
    outer loop
      vertex 1.61995 1.15076 5
      vertex 0.898877 1.68416 5
      vertex 0.849487 0.459313 5
    endloop
  endfacet
  facet normal 0 -0 1
    outer loop
      vertex 1.08655 0.222247 5
      vertex 1.61995 1.15076 5
      vertex 0.849487 0.459313 5
    endloop
  endfacet
  facet normal 0 0 1
    outer loop
      vertex 1.76812 1.44709 5
      vertex 1.71873 1.54587 5
      vertex 1.65946 1.53599 5
    endloop
  endfacet
  facet normal 0 0 1
    outer loop
      vertex 1.88665 1.38783 5
      vertex 1.83727 1.4866 5
      vertex 1.76812 1.44709 5
    endloop
  endfacet
  facet normal 0 0 1
    outer loop
      vertex 1.61995 1.15076 5
      vertex 1.76812 1.44709 5
      vertex 1.65946 1.53599 5
    endloop
  endfacet
  facet normal 0 0 1
    outer loop
      vertex 1.76812 1.44709 5
      vertex 1.83727 1.4866 5
      vertex 1.778 1.47673 5
    endloop
  endfacet
  facet normal 0 0 1
    outer loop
      vertex 2.21262 1.28905 5
      vertex 1.93604 1.45697 5
      vertex 1.88665 1.38783 5
    endloop
  endfacet
  facet normal 0 0 1
    outer loop
      vertex 2.21262 1.28905 5
      vertex 1.88665 1.38783 5
      vertex 1.61995 1.15076 5
    endloop
  endfacet
  facet normal 0 0 1
    outer loop
      vertex 2.4003 1.18039 5
      vertex 2.21262 1.28905 5
      vertex 1.61995 1.15076 5
    endloop
  endfacet
  facet normal 0 0 1
    outer loop
      vertex 2.49908 1.131 5
      vertex 2.4003 1.18039 5
      vertex 2.53859 1.09149 5
    endloop
  endfacet
  facet normal 0 0 1
    outer loop
      vertex 2.53859 1.09149 5
      vertex 2.4003 1.18039 5
      vertex 1.61995 1.15076 5
    endloop
  endfacet
  facet normal 0 0 1
    outer loop
      vertex 2.68675 0.963081 5
      vertex 2.53859 1.09149 5
      vertex 1.61995 1.15076 5
    endloop
  endfacet
  facet normal 0 0 1
    outer loop
      vertex 2.68675 0.963081 5
      vertex 2.63736 1.06186 5
      vertex 2.53859 1.09149 5
    endloop
  endfacet
  facet normal 0 0 1
    outer loop
      vertex 1.08655 0.222247 5
      vertex 2.68675 0.963081 5
      vertex 1.61995 1.15076 5
    endloop
  endfacet
  facet normal 0 0 1
    outer loop
      vertex 1.08655 0.222247 5
      vertex 2.97321 0.597603 5
      vertex 2.68675 0.963081 5
    endloop
  endfacet
  facet normal 0 -0 1
    outer loop
      vertex 3.10162 -0.271637 5
      vertex 3.12138 0.202494 5
      vertex 1.08655 0.222247 5
    endloop
  endfacet
  facet normal 0 -0 1
    outer loop
      vertex 2.87443 -0.745768 5
      vertex 3.10162 -0.271637 5
      vertex 1.08655 0.222247 5
    endloop
  endfacet
  facet normal 0 -0 1
    outer loop
      vertex 2.46944 -1.16064 5
      vertex 2.87443 -0.745768 5
      vertex 1.08655 0.222247 5
    endloop
  endfacet
  facet normal 0 -0 1
    outer loop
      vertex 1.82739 -1.50636 5
      vertex 2.46944 -1.16064 5
      vertex 1.08655 0.222247 5
    endloop
  endfacet
  facet normal 0 -0 1
    outer loop
      vertex 0.869241 -1.77306 5
      vertex 1.08655 0.222247 5
      vertex 0.306209 -0.0543248 5
    endloop
  endfacet
  facet normal 0 0 1
    outer loop
      vertex 0.306209 -0.0543248 5
      vertex 0.395109 -1.79281 5
      vertex 0.869241 -1.77306 5
    endloop
  endfacet
  facet normal 0 -0 1
    outer loop
      vertex -1.44215 -1.54587 5
      vertex -0.256819 0.261758 5
      vertex -1.99531 -1.29893 5
    endloop
  endfacet
  facet normal 0 0 1
    outer loop
      vertex -1.99531 -1.29893 5
      vertex -0.256819 0.261758 5
      vertex -0.444499 0.538335 5
    endloop
  endfacet
  facet normal -0 0 1
    outer loop
      vertex -2.51883 -0.92357 5
      vertex -1.99531 -1.29893 5
      vertex -2.41018 0.567971 5
    endloop
  endfacet
  facet normal 0 0 1
    outer loop
      vertex -2.96333 -0.409928 5
      vertex -2.89419 -0.400049 5
      vertex -2.96333 -0.370417 5
    endloop
  endfacet
  facet normal -0 0 1
    outer loop
      vertex -2.96333 -0.409928 5
      vertex -2.51883 -0.92357 5
      vertex -2.89419 -0.400049 5
    endloop
  endfacet
  facet normal -0 0 1
    outer loop
      vertex -2.88431 -0.370417 5
      vertex -2.51883 -0.92357 5
      vertex -2.82504 -0.261758 5
    endloop
  endfacet
  facet normal -0 0 1
    outer loop
      vertex -2.96333 -0.242005 5
      vertex -2.82504 -0.261758 5
      vertex -2.96333 -0.212369 5
    endloop
  endfacet
  facet normal -0 0 1
    outer loop
      vertex -2.82504 -0.261758 5
      vertex -2.51883 -0.92357 5
      vertex -2.41018 0.567971 5
    endloop
  endfacet
  facet normal 0 -0 1
    outer loop
      vertex -2.97321 0.0345715 5
      vertex -2.41018 0.567971 5
      vertex -3.12138 0.34078 5
    endloop
  endfacet
  facet normal -0 0 1
    outer loop
      vertex -2.89419 -0.400049 5
      vertex -2.51883 -0.92357 5
      vertex -2.88431 -0.370417 5
    endloop
  endfacet
  facet normal 0 0 1
    outer loop
      vertex -2.97321 0.0345715 5
      vertex -3.12138 0.34078 5
      vertex -3.08187 0.143226 5
    endloop
  endfacet
  facet normal -0 0 1
    outer loop
      vertex -2.82504 -0.123472 5
      vertex -2.82504 -0.261758 5
      vertex -2.41018 0.567971 5
    endloop
  endfacet
  facet normal 0 0 1
    outer loop
      vertex -2.82504 -0.261758 5
      vertex -2.96333 -0.242005 5
      vertex -2.88431 -0.370417 5
    endloop
  endfacet
  facet normal 0 0 1
    outer loop
      vertex -2.41018 0.567971 5
      vertex -2.88431 0.735894 5
      vertex -3.12138 0.34078 5
    endloop
  endfacet
  facet normal 0 0 1
    outer loop
      vertex -3.08187 0.143226 5
      vertex -3.12138 0.34078 5
      vertex -3.12138 0.192615 5
    endloop
  endfacet
  facet normal 0 0 1
    outer loop
      vertex -2.69663 0.805037 5
      vertex -2.88431 0.735894 5
      vertex -2.41018 0.567971 5
    endloop
  endfacet
  facet normal 0 0 1
    outer loop
      vertex -1.71873 1.45697 5
      vertex -2.4003 0.587725 5
      vertex -1.0668 1.06186 5
    endloop
  endfacet
  facet normal -0 0 1
    outer loop
      vertex -2.47932 1.12112 5
      vertex -2.49908 1.08161 5
      vertex -2.42005 1.18039 5
    endloop
  endfacet
  facet normal -0 0 1
    outer loop
      vertex -2.4003 0.587725 5
      vertex -2.41018 0.567971 5
      vertex -1.0668 1.06186 5
    endloop
  endfacet
  facet normal -0 0 1
    outer loop
      vertex -2.97321 0.0345715 5
      vertex -2.82504 -0.123472 5
      vertex -2.41018 0.567971 5
    endloop
  endfacet
  facet normal -0 0 1
    outer loop
      vertex -2.41018 0.567971 5
      vertex -0.444499 0.538335 5
      vertex -1.0668 1.06186 5
    endloop
  endfacet
  facet normal 0 0 1
    outer loop
      vertex -2.4003 0.587725 5
      vertex -2.49908 1.08161 5
      vertex -2.62749 0.92357 5
    endloop
  endfacet
  facet normal 0 0 1
    outer loop
      vertex -2.42005 1.18039 5
      vertex -2.49908 1.08161 5
      vertex -2.4003 0.587725 5
    endloop
  endfacet
  facet normal 0 0 1
    outer loop
      vertex -2.667 0.834669 5
      vertex -2.62749 0.92357 5
      vertex -2.667 0.903816 5
    endloop
  endfacet
  facet normal 0 -0 1
    outer loop
      vertex -2.65712 0.963081 5
      vertex -2.49908 1.08161 5
      vertex -2.667 1.03222 5
    endloop
  endfacet
  facet normal 0 0 1
    outer loop
      vertex -2.4003 0.587725 5
      vertex -2.62749 0.92357 5
      vertex -2.667 0.834669 5
    endloop
  endfacet
  facet normal -0 0 1
    outer loop
      vertex -2.65712 0.963081 5
      vertex -2.62749 0.92357 5
      vertex -2.49908 1.08161 5
    endloop
  endfacet
  facet normal 0 0 1
    outer loop
      vertex -1.71873 1.45697 5
      vertex -2.33115 1.26929 5
      vertex -2.4003 0.587725 5
    endloop
  endfacet
  facet normal 0 0 1
    outer loop
      vertex -2.33115 1.26929 5
      vertex -2.42005 1.18039 5
      vertex -2.4003 0.587725 5
    endloop
  endfacet
  facet normal 0 0 1
    outer loop
      vertex -2.24225 1.77306 5
      vertex -2.33115 1.72367 5
      vertex -2.20274 1.74343 5
    endloop
  endfacet
  facet normal 0 0 1
    outer loop
      vertex -1.73849 1.46685 5
      vertex -2.33115 1.26929 5
      vertex -1.71873 1.45697 5
    endloop
  endfacet
  facet normal 0 0 1
    outer loop
      vertex -1.75824 1.4866 5
      vertex -2.33115 1.26929 5
      vertex -1.73849 1.46685 5
    endloop
  endfacet
  facet normal 0 0 1
    outer loop
      vertex -2.29164 1.78294 5
      vertex -2.33115 1.72367 5
      vertex -2.24225 1.77306 5
    endloop
  endfacet
  facet normal -0 0 1
    outer loop
      vertex -2.18298 1.80269 5
      vertex -2.20274 1.74343 5
      vertex -2.11384 1.81257 5
    endloop
  endfacet
  facet normal 0 0 1
    outer loop
      vertex -1.75824 1.5755 5
      vertex -1.83727 1.73355 5
      vertex -2.06445 1.78294 5
    endloop
  endfacet
  facet normal 0 0 1
    outer loop
      vertex -1.75824 1.4866 5
      vertex -2.20274 1.74343 5
      vertex -2.33115 1.26929 5
    endloop
  endfacet
  facet normal 0 0 1
    outer loop
      vertex -2.20274 1.74343 5
      vertex -2.33115 1.72367 5
      vertex -2.33115 1.26929 5
    endloop
  endfacet
  facet normal 0 0 1
    outer loop
      vertex -2.18298 1.80269 5
      vertex -2.11384 1.81257 5
      vertex -2.15335 1.82245 5
    endloop
  endfacet
  facet normal 0 0 1
    outer loop
      vertex -2.06445 1.78294 5
      vertex -1.96568 1.85208 5
      vertex -2.02494 1.86196 5
    endloop
  endfacet
  facet normal 0 0 1
    outer loop
      vertex -2.11384 1.81257 5
      vertex -2.20274 1.74343 5
      vertex -2.06445 1.78294 5
    endloop
  endfacet
  facet normal -0 0 1
    outer loop
      vertex -2.06445 1.78294 5
      vertex -1.83727 1.73355 5
      vertex -1.91629 1.79281 5
    endloop
  endfacet
  facet normal -0 0 1
    outer loop
      vertex -2.05458 1.85208 5
      vertex -2.06445 1.78294 5
      vertex -2.02494 1.86196 5
    endloop
  endfacet
  facet normal 0.768226 0.640179 -0
    outer loop
      vertex -1.96568 1.85208 0
      vertex -1.96568 1.85208 5
      vertex -1.91629 1.79281 0
    endloop
  endfacet
  facet normal 0.768226 0.640179 0
    outer loop
      vertex -1.96568 1.85208 5
      vertex -1.91629 1.79281 5
      vertex -1.91629 1.79281 0
    endloop
  endfacet
  facet normal 0.600014 0.79999 -0
    outer loop
      vertex -1.91629 1.79281 0
      vertex -1.91629 1.79281 5
      vertex -1.83727 1.73355 0
    endloop
  endfacet
  facet normal 0.600014 0.79999 0
    outer loop
      vertex -1.91629 1.79281 5
      vertex -1.83727 1.73355 5
      vertex -1.83727 1.73355 0
    endloop
  endfacet
  facet normal 0.664359 0.747413 -0
    outer loop
      vertex -1.83727 1.73355 0
      vertex -1.83727 1.73355 5
      vertex -1.74836 1.65452 0
    endloop
  endfacet
  facet normal 0.664359 0.747413 0
    outer loop
      vertex -1.83727 1.73355 5
      vertex -1.74836 1.65452 5
      vertex -1.74836 1.65452 0
    endloop
  endfacet
  facet normal 0.992276 -0.124048 0
    outer loop
      vertex -1.74836 1.65452 0
      vertex -1.74836 1.65452 5
      vertex -1.75824 1.5755 0
    endloop
  endfacet
  facet normal 0.992276 -0.124048 0
    outer loop
      vertex -1.74836 1.65452 5
      vertex -1.75824 1.5755 5
      vertex -1.75824 1.5755 0
    endloop
  endfacet
  facet normal 1 0 -0
    outer loop
      vertex -1.75824 1.5755 0
      vertex -1.75824 1.5755 5
      vertex -1.75824 1.4866 0
    endloop
  endfacet
  facet normal 1 0 0
    outer loop
      vertex -1.75824 1.5755 5
      vertex -1.75824 1.4866 5
      vertex -1.75824 1.4866 0
    endloop
  endfacet
  facet normal 0.70703 0.707184 -0
    outer loop
      vertex -1.75824 1.4866 0
      vertex -1.75824 1.4866 5
      vertex -1.73849 1.46685 0
    endloop
  endfacet
  facet normal 0.70703 0.707184 0
    outer loop
      vertex -1.75824 1.4866 5
      vertex -1.73849 1.46685 5
      vertex -1.73849 1.46685 0
    endloop
  endfacet
  facet normal 0.447292 0.894388 -0
    outer loop
      vertex -1.73849 1.46685 0
      vertex -1.73849 1.46685 5
      vertex -1.71873 1.45697 0
    endloop
  endfacet
  facet normal 0.447292 0.894388 0
    outer loop
      vertex -1.73849 1.46685 5
      vertex -1.71873 1.45697 5
      vertex -1.71873 1.45697 0
    endloop
  endfacet
  facet normal -0.371419 0.928466 0
    outer loop
      vertex -1.71873 1.45697 0
      vertex -1.71873 1.45697 5
      vertex -1.66934 1.47673 0
    endloop
  endfacet
  facet normal -0.371419 0.928466 0
    outer loop
      vertex -1.71873 1.45697 5
      vertex -1.66934 1.47673 5
      vertex -1.66934 1.47673 0
    endloop
  endfacet
  facet normal -0.70703 0.707184 0
    outer loop
      vertex -1.66934 1.47673 0
      vertex -1.66934 1.47673 5
      vertex -1.64958 1.49648 0
    endloop
  endfacet
  facet normal -0.70703 0.707184 0
    outer loop
      vertex -1.66934 1.47673 5
      vertex -1.64958 1.49648 5
      vertex -1.64958 1.49648 0
    endloop
  endfacet
  facet normal -0.341746 0.939792 0
    outer loop
      vertex -1.64958 1.49648 0
      vertex -1.64958 1.49648 5
      vertex -1.54093 1.53599 0
    endloop
  endfacet
  facet normal -0.341746 0.939792 0
    outer loop
      vertex -1.64958 1.49648 5
      vertex -1.54093 1.53599 5
      vertex -1.54093 1.53599 0
    endloop
  endfacet
  facet normal -0.058728 0.998274 0
    outer loop
      vertex -1.54093 1.53599 0
      vertex -1.54093 1.53599 5
      vertex -1.37301 1.54587 0
    endloop
  endfacet
  facet normal -0.058728 0.998274 0
    outer loop
      vertex -1.54093 1.53599 5
      vertex -1.37301 1.54587 5
      vertex -1.37301 1.54587 0
    endloop
  endfacet
  facet normal 0.593207 0.80505 -0
    outer loop
      vertex -1.37301 1.54587 0
      vertex -1.37301 1.54587 5
      vertex -1.18533 1.40758 0
    endloop
  endfacet
  facet normal 0.593207 0.80505 0
    outer loop
      vertex -1.37301 1.54587 5
      vertex -1.18533 1.40758 5
      vertex -1.18533 1.40758 0
    endloop
  endfacet
  facet normal 0.874152 0.485653 -0
    outer loop
      vertex -1.18533 1.40758 0
      vertex -1.18533 1.40758 5
      vertex -1.03716 1.14088 0
    endloop
  endfacet
  facet normal 0.874152 0.485653 0
    outer loop
      vertex -1.18533 1.40758 5
      vertex -1.03716 1.14088 5
      vertex -1.03716 1.14088 0
    endloop
  endfacet
  facet normal 0.936317 -0.351157 0
    outer loop
      vertex -1.03716 1.14088 0
      vertex -1.03716 1.14088 5
      vertex -1.0668 1.06186 0
    endloop
  endfacet
  facet normal 0.936317 -0.351157 0
    outer loop
      vertex -1.03716 1.14088 5
      vertex -1.0668 1.06186 5
      vertex -1.0668 1.06186 0
    endloop
  endfacet
  facet normal 0.643764 0.765224 -0
    outer loop
      vertex -1.0668 1.06186 0
      vertex -1.0668 1.06186 5
      vertex -0.444499 0.538335 0
    endloop
  endfacet
  facet normal 0.643764 0.765224 0
    outer loop
      vertex -1.0668 1.06186 5
      vertex -0.444499 0.538335 5
      vertex -0.444499 0.538335 0
    endloop
  endfacet
  facet normal 0.514474 0.857506 -0
    outer loop
      vertex -0.444499 0.538335 0
      vertex -0.444499 0.538335 5
      vertex -0.395109 0.508703 0
    endloop
  endfacet
  facet normal 0.514474 0.857506 0
    outer loop
      vertex -0.444499 0.538335 5
      vertex -0.395109 0.508703 5
      vertex -0.395109 0.508703 0
    endloop
  endfacet
  facet normal 0.8 0.6 -0
    outer loop
      vertex -0.395109 0.508703 0
      vertex -0.395109 0.508703 5
      vertex -0.276577 0.350659 0
    endloop
  endfacet
  facet normal 0.8 0.6 0
    outer loop
      vertex -0.395109 0.508703 5
      vertex -0.276577 0.350659 5
      vertex -0.276577 0.350659 0
    endloop
  endfacet
  facet normal 0.976183 0.21695 -0
    outer loop
      vertex -0.276577 0.350659 0
      vertex -0.276577 0.350659 5
      vertex -0.256819 0.261758 0
    endloop
  endfacet
  facet normal 0.976183 0.21695 0
    outer loop
      vertex -0.276577 0.350659 5
      vertex -0.256819 0.261758 5
      vertex -0.256819 0.261758 0
    endloop
  endfacet
  facet normal 0.633246 0.77395 -0
    outer loop
      vertex -0.256819 0.261758 0
      vertex -0.256819 0.261758 5
      vertex -0.0395109 0.083957 0
    endloop
  endfacet
  facet normal 0.633246 0.77395 0
    outer loop
      vertex -0.256819 0.261758 5
      vertex -0.0395109 0.083957 5
      vertex -0.0395109 0.083957 0
    endloop
  endfacet
  facet normal 0.0905073 0.995896 -0
    outer loop
      vertex -0.0395109 0.083957 0
      vertex -0.0395109 0.083957 5
      vertex 0.0691431 0.0740825 0
    endloop
  endfacet
  facet normal 0.0905073 0.995896 0
    outer loop
      vertex -0.0395109 0.083957 5
      vertex 0.0691431 0.0740825 5
      vertex 0.0691431 0.0740825 0
    endloop
  endfacet
  facet normal 0.476274 0.879297 -0
    outer loop
      vertex 0.0691431 0.0740825 0
      vertex 0.0691431 0.0740825 5
      vertex 0.306209 -0.0543248 0
    endloop
  endfacet
  facet normal 0.476274 0.879297 0
    outer loop
      vertex 0.0691431 0.0740825 5
      vertex 0.306209 -0.0543248 5
      vertex 0.306209 -0.0543248 0
    endloop
  endfacet
  facet normal -0.334062 0.942551 0
    outer loop
      vertex 0.306209 -0.0543248 0
      vertex 0.306209 -0.0543248 5
      vertex 1.08655 0.222247 0
    endloop
  endfacet
  facet normal -0.334062 0.942551 0
    outer loop
      vertex 0.306209 -0.0543248 5
      vertex 1.08655 0.222247 5
      vertex 1.08655 0.222247 0
    endloop
  endfacet
  facet normal -0.63689 -0.770955 0
    outer loop
      vertex 1.08655 0.222247 0
      vertex 1.08655 0.222247 5
      vertex 0.859366 0.409928 0
    endloop
  endfacet
  facet normal -0.63689 -0.770955 0
    outer loop
      vertex 1.08655 0.222247 5
      vertex 0.859366 0.409928 5
      vertex 0.859366 0.409928 0
    endloop
  endfacet
  facet normal -0.980574 -0.196149 0
    outer loop
      vertex 0.859366 0.409928 0
      vertex 0.859366 0.409928 5
      vertex 0.849487 0.459313 0
    endloop
  endfacet
  facet normal -0.980574 -0.196149 0
    outer loop
      vertex 0.859366 0.409928 5
      vertex 0.849487 0.459313 5
      vertex 0.849487 0.459313 0
    endloop
  endfacet
  facet normal -0.625422 -0.780287 0
    outer loop
      vertex 0.849487 0.459313 0
      vertex 0.849487 0.459313 5
      vertex -0.444499 1.49648 0
    endloop
  endfacet
  facet normal -0.625422 -0.780287 0
    outer loop
      vertex 0.849487 0.459313 5
      vertex -0.444499 1.49648 5
      vertex -0.444499 1.49648 0
    endloop
  endfacet
  facet normal -0.998052 0.0623851 0
    outer loop
      vertex -0.444499 1.49648 0
      vertex -0.444499 1.49648 5
      vertex -0.43462 1.65452 0
    endloop
  endfacet
  facet normal -0.998052 0.0623851 0
    outer loop
      vertex -0.444499 1.49648 5
      vertex -0.43462 1.65452 5
      vertex -0.43462 1.65452 0
    endloop
  endfacet
  facet normal -0.316235 0.948681 0
    outer loop
      vertex -0.43462 1.65452 0
      vertex -0.43462 1.65452 5
      vertex -0.256819 1.71379 0
    endloop
  endfacet
  facet normal -0.316235 0.948681 0
    outer loop
      vertex -0.43462 1.65452 5
      vertex -0.256819 1.71379 5
      vertex -0.256819 1.71379 0
    endloop
  endfacet
  facet normal 0.0256316 0.999671 -0
    outer loop
      vertex -0.256819 1.71379 0
      vertex -0.256819 1.71379 5
      vertex 0.898877 1.68416 0
    endloop
  endfacet
  facet normal 0.0256316 0.999671 0
    outer loop
      vertex -0.256819 1.71379 5
      vertex 0.898877 1.68416 5
      vertex 0.898877 1.68416 0
    endloop
  endfacet
  facet normal 0.594702 0.803946 -0
    outer loop
      vertex 0.898877 1.68416 0
      vertex 0.898877 1.68416 5
      vertex 1.61995 1.15076 0
    endloop
  endfacet
  facet normal 0.594702 0.803946 0
    outer loop
      vertex 0.898877 1.68416 5
      vertex 1.61995 1.15076 5
      vertex 1.61995 1.15076 0
    endloop
  endfacet
  facet normal -0.994781 0.102029 0
    outer loop
      vertex 1.61995 1.15076 0
      vertex 1.61995 1.15076 5
      vertex 1.65946 1.53599 0
    endloop
  endfacet
  facet normal -0.994781 0.102029 0
    outer loop
      vertex 1.61995 1.15076 5
      vertex 1.65946 1.53599 5
      vertex 1.65946 1.53599 0
    endloop
  endfacet
  facet normal -0.164411 0.986392 0
    outer loop
      vertex 1.65946 1.53599 0
      vertex 1.65946 1.53599 5
      vertex 1.71873 1.54587 0
    endloop
  endfacet
  facet normal -0.164411 0.986392 0
    outer loop
      vertex 1.65946 1.53599 5
      vertex 1.71873 1.54587 5
      vertex 1.71873 1.54587 0
    endloop
  endfacet
  facet normal 0.894427 0.447214 -0
    outer loop
      vertex 1.71873 1.54587 0
      vertex 1.71873 1.54587 5
      vertex 1.76812 1.44709 0
    endloop
  endfacet
  facet normal 0.894427 0.447214 0
    outer loop
      vertex 1.71873 1.54587 5
      vertex 1.76812 1.44709 5
      vertex 1.76812 1.44709 0
    endloop
  endfacet
  facet normal -0.948725 0.316104 0
    outer loop
      vertex 1.76812 1.44709 0
      vertex 1.76812 1.44709 5
      vertex 1.778 1.47673 0
    endloop
  endfacet
  facet normal -0.948725 0.316104 0
    outer loop
      vertex 1.76812 1.44709 5
      vertex 1.778 1.47673 5
      vertex 1.778 1.47673 0
    endloop
  endfacet
  facet normal -0.164341 0.986404 0
    outer loop
      vertex 1.778 1.47673 0
      vertex 1.778 1.47673 5
      vertex 1.83727 1.4866 0
    endloop
  endfacet
  facet normal -0.164341 0.986404 0
    outer loop
      vertex 1.778 1.47673 5
      vertex 1.83727 1.4866 5
      vertex 1.83727 1.4866 0
    endloop
  endfacet
  facet normal 0.894419 0.447229 -0
    outer loop
      vertex 1.83727 1.4866 0
      vertex 1.83727 1.4866 5
      vertex 1.88665 1.38783 0
    endloop
  endfacet
  facet normal 0.894419 0.447229 0
    outer loop
      vertex 1.83727 1.4866 5
      vertex 1.88665 1.38783 5
      vertex 1.88665 1.38783 0
    endloop
  endfacet
  facet normal -0.813747 0.581219 0
    outer loop
      vertex 1.88665 1.38783 0
      vertex 1.88665 1.38783 5
      vertex 1.93604 1.45697 0
    endloop
  endfacet
  facet normal -0.813747 0.581219 0
    outer loop
      vertex 1.88665 1.38783 5
      vertex 1.93604 1.45697 5
      vertex 1.93604 1.45697 0
    endloop
  endfacet
  facet normal 0.518975 0.85479 -0
    outer loop
      vertex 1.93604 1.45697 0
      vertex 1.93604 1.45697 5
      vertex 2.21262 1.28905 0
    endloop
  endfacet
  facet normal 0.518975 0.85479 0
    outer loop
      vertex 1.93604 1.45697 5
      vertex 2.21262 1.28905 5
      vertex 2.21262 1.28905 0
    endloop
  endfacet
  facet normal 0.501035 0.865427 -0
    outer loop
      vertex 2.21262 1.28905 0
      vertex 2.21262 1.28905 5
      vertex 2.4003 1.18039 0
    endloop
  endfacet
  facet normal 0.501035 0.865427 0
    outer loop
      vertex 2.21262 1.28905 5
      vertex 2.4003 1.18039 5
      vertex 2.4003 1.18039 0
    endloop
  endfacet
  facet normal 0.447214 0.894427 -0
    outer loop
      vertex 2.4003 1.18039 0
      vertex 2.4003 1.18039 5
      vertex 2.49908 1.131 0
    endloop
  endfacet
  facet normal 0.447214 0.894427 0
    outer loop
      vertex 2.4003 1.18039 5
      vertex 2.49908 1.131 5
      vertex 2.49908 1.131 0
    endloop
  endfacet
  facet normal 0.707107 0.707107 -0
    outer loop
      vertex 2.49908 1.131 0
      vertex 2.49908 1.131 5
      vertex 2.53859 1.09149 0
    endloop
  endfacet
  facet normal 0.707107 0.707107 0
    outer loop
      vertex 2.49908 1.131 5
      vertex 2.53859 1.09149 5
      vertex 2.53859 1.09149 0
    endloop
  endfacet
  facet normal 0.287344 0.957827 -0
    outer loop
      vertex 2.53859 1.09149 0
      vertex 2.53859 1.09149 5
      vertex 2.63736 1.06186 0
    endloop
  endfacet
  facet normal 0.287344 0.957827 0
    outer loop
      vertex 2.53859 1.09149 5
      vertex 2.63736 1.06186 5
      vertex 2.63736 1.06186 0
    endloop
  endfacet
  facet normal 0.894427 0.447214 -0
    outer loop
      vertex 2.63736 1.06186 0
      vertex 2.63736 1.06186 5
      vertex 2.68675 0.963081 0
    endloop
  endfacet
  facet normal 0.894427 0.447214 0
    outer loop
      vertex 2.63736 1.06186 5
      vertex 2.68675 0.963081 5
      vertex 2.68675 0.963081 0
    endloop
  endfacet
  facet normal 0.787056 0.616882 -0
    outer loop
      vertex 2.68675 0.963081 0
      vertex 2.68675 0.963081 5
      vertex 2.97321 0.597603 0
    endloop
  endfacet
  facet normal 0.787056 0.616882 0
    outer loop
      vertex 2.68675 0.963081 5
      vertex 2.97321 0.597603 5
      vertex 2.97321 0.597603 0
    endloop
  endfacet
  facet normal 0.936327 0.35113 -0
    outer loop
      vertex 2.97321 0.597603 0
      vertex 2.97321 0.597603 5
      vertex 3.12138 0.202494 0
    endloop
  endfacet
  facet normal 0.936327 0.35113 0
    outer loop
      vertex 2.97321 0.597603 5
      vertex 3.12138 0.202494 5
      vertex 3.12138 0.202494 0
    endloop
  endfacet
  facet normal 0.999133 -0.0416351 0
    outer loop
      vertex 3.12138 0.202494 0
      vertex 3.12138 0.202494 5
      vertex 3.10162 -0.271637 0
    endloop
  endfacet
  facet normal 0.999133 -0.0416351 0
    outer loop
      vertex 3.12138 0.202494 5
      vertex 3.10162 -0.271637 5
      vertex 3.10162 -0.271637 0
    endloop
  endfacet
  facet normal 0.901817 -0.432119 0
    outer loop
      vertex 3.10162 -0.271637 0
      vertex 3.10162 -0.271637 5
      vertex 2.87443 -0.745768 0
    endloop
  endfacet
  facet normal 0.901817 -0.432119 0
    outer loop
      vertex 3.10162 -0.271637 5
      vertex 2.87443 -0.745768 5
      vertex 2.87443 -0.745768 0
    endloop
  endfacet
  facet normal 0.715575 -0.698536 0
    outer loop
      vertex 2.87443 -0.745768 0
      vertex 2.87443 -0.745768 5
      vertex 2.46944 -1.16064 0
    endloop
  endfacet
  facet normal 0.715575 -0.698536 0
    outer loop
      vertex 2.87443 -0.745768 5
      vertex 2.46944 -1.16064 5
      vertex 2.46944 -1.16064 0
    endloop
  endfacet
  facet normal 0.4741 -0.880471 0
    outer loop
      vertex 2.46944 -1.16064 0
      vertex 2.46944 -1.16064 5
      vertex 1.82739 -1.50636 0
    endloop
  endfacet
  facet normal 0.4741 -0.880471 0
    outer loop
      vertex 2.46944 -1.16064 5
      vertex 1.82739 -1.50636 5
      vertex 1.82739 -1.50636 0
    endloop
  endfacet
  facet normal 0.268154 -0.963376 0
    outer loop
      vertex 1.82739 -1.50636 0
      vertex 1.82739 -1.50636 5
      vertex 0.869241 -1.77306 0
    endloop
  endfacet
  facet normal 0.268154 -0.963376 0
    outer loop
      vertex 1.82739 -1.50636 5
      vertex 0.869241 -1.77306 5
      vertex 0.869241 -1.77306 0
    endloop
  endfacet
  facet normal 0.894505 -0.447058 0
    outer loop
      vertex 0.869241 -1.77306 0
      vertex 0.869241 -1.77306 5
      vertex 0.859366 -1.79281 0
    endloop
  endfacet
  facet normal 0.894505 -0.447058 0
    outer loop
      vertex 0.869241 -1.77306 5
      vertex 0.859366 -1.79281 5
      vertex 0.859366 -1.79281 0
    endloop
  endfacet
  facet normal 0.185888 -0.982571 0
    outer loop
      vertex 0.859366 -1.79281 0
      vertex 0.859366 -1.79281 5
      vertex 0.493889 -1.86196 0
    endloop
  endfacet
  facet normal 0.185888 -0.982571 0
    outer loop
      vertex 0.859366 -1.79281 5
      vertex 0.493889 -1.86196 5
      vertex 0.493889 -1.86196 0
    endloop
  endfacet
  facet normal -0.573448 -0.819242 0
    outer loop
      vertex 0.493889 -1.86196 0
      vertex 0.493889 -1.86196 5
      vertex 0.395109 -1.79281 0
    endloop
  endfacet
  facet normal -0.573448 -0.819242 0
    outer loop
      vertex 0.493889 -1.86196 5
      vertex 0.395109 -1.79281 5
      vertex 0.395109 -1.79281 0
    endloop
  endfacet
  facet normal -0.076698 -0.997054 0
    outer loop
      vertex 0.395109 -1.79281 0
      vertex 0.395109 -1.79281 5
      vertex -0.888998 -1.69404 0
    endloop
  endfacet
  facet normal -0.076698 -0.997054 0
    outer loop
      vertex 0.395109 -1.79281 5
      vertex -0.888998 -1.69404 5
      vertex -0.888998 -1.69404 0
    endloop
  endfacet
  facet normal -0.258734 -0.965949 0
    outer loop
      vertex -0.888998 -1.69404 0
      vertex -0.888998 -1.69404 5
      vertex -1.44215 -1.54587 0
    endloop
  endfacet
  facet normal -0.258734 -0.965949 0
    outer loop
      vertex -0.888998 -1.69404 5
      vertex -1.44215 -1.54587 5
      vertex -1.44215 -1.54587 0
    endloop
  endfacet
  facet normal -0.40765 -0.913138 0
    outer loop
      vertex -1.44215 -1.54587 0
      vertex -1.44215 -1.54587 5
      vertex -1.99531 -1.29893 0
    endloop
  endfacet
  facet normal -0.40765 -0.913138 0
    outer loop
      vertex -1.44215 -1.54587 5
      vertex -1.99531 -1.29893 5
      vertex -1.99531 -1.29893 0
    endloop
  endfacet
  facet normal -0.582689 -0.812695 0
    outer loop
      vertex -1.99531 -1.29893 0
      vertex -1.99531 -1.29893 5
      vertex -2.51883 -0.92357 0
    endloop
  endfacet
  facet normal -0.582689 -0.812695 0
    outer loop
      vertex -1.99531 -1.29893 5
      vertex -2.51883 -0.92357 5
      vertex -2.51883 -0.92357 0
    endloop
  endfacet
  facet normal -0.756165 -0.654381 0
    outer loop
      vertex -2.51883 -0.92357 0
      vertex -2.51883 -0.92357 5
      vertex -2.96333 -0.409928 0
    endloop
  endfacet
  facet normal -0.756165 -0.654381 0
    outer loop
      vertex -2.51883 -0.92357 5
      vertex -2.96333 -0.409928 5
      vertex -2.96333 -0.409928 0
    endloop
  endfacet
  facet normal -1 0 0
    outer loop
      vertex -2.96333 -0.409928 0
      vertex -2.96333 -0.409928 5
      vertex -2.96333 -0.370417 0
    endloop
  endfacet
  facet normal -1 0 0
    outer loop
      vertex -2.96333 -0.409928 5
      vertex -2.96333 -0.370417 5
      vertex -2.96333 -0.370417 0
    endloop
  endfacet
  facet normal 0.393892 0.919157 -0
    outer loop
      vertex -2.96333 -0.370417 0
      vertex -2.96333 -0.370417 5
      vertex -2.89419 -0.400049 0
    endloop
  endfacet
  facet normal 0.393892 0.919157 0
    outer loop
      vertex -2.96333 -0.370417 5
      vertex -2.89419 -0.400049 5
      vertex -2.89419 -0.400049 0
    endloop
  endfacet
  facet normal -0.94867 0.316269 0
    outer loop
      vertex -2.89419 -0.400049 0
      vertex -2.89419 -0.400049 5
      vertex -2.88431 -0.370417 0
    endloop
  endfacet
  facet normal -0.94867 0.316269 0
    outer loop
      vertex -2.89419 -0.400049 5
      vertex -2.88431 -0.370417 5
      vertex -2.88431 -0.370417 0
    endloop
  endfacet
  facet normal -0.851648 -0.524115 0
    outer loop
      vertex -2.88431 -0.370417 0
      vertex -2.88431 -0.370417 5
      vertex -2.96333 -0.242005 0
    endloop
  endfacet
  facet normal -0.851648 -0.524115 0
    outer loop
      vertex -2.88431 -0.370417 5
      vertex -2.96333 -0.242005 5
      vertex -2.96333 -0.242005 0
    endloop
  endfacet
  facet normal -1 0 0
    outer loop
      vertex -2.96333 -0.242005 0
      vertex -2.96333 -0.242005 5
      vertex -2.96333 -0.212369 0
    endloop
  endfacet
  facet normal -1 0 0
    outer loop
      vertex -2.96333 -0.242005 5
      vertex -2.96333 -0.212369 5
      vertex -2.96333 -0.212369 0
    endloop
  endfacet
  facet normal 0.336338 0.941741 -0
    outer loop
      vertex -2.96333 -0.212369 0
      vertex -2.96333 -0.212369 5
      vertex -2.82504 -0.261758 0
    endloop
  endfacet
  facet normal 0.336338 0.941741 0
    outer loop
      vertex -2.96333 -0.212369 5
      vertex -2.82504 -0.261758 5
      vertex -2.82504 -0.261758 0
    endloop
  endfacet
  facet normal -1 0 0
    outer loop
      vertex -2.82504 -0.261758 0
      vertex -2.82504 -0.261758 5
      vertex -2.82504 -0.123472 0
    endloop
  endfacet
  facet normal -1 0 0
    outer loop
      vertex -2.82504 -0.261758 5
      vertex -2.82504 -0.123472 5
      vertex -2.82504 -0.123472 0
    endloop
  endfacet
  facet normal -0.72954 -0.683938 0
    outer loop
      vertex -2.82504 -0.123472 0
      vertex -2.82504 -0.123472 5
      vertex -2.97321 0.0345715 0
    endloop
  endfacet
  facet normal -0.72954 -0.683938 0
    outer loop
      vertex -2.82504 -0.123472 5
      vertex -2.97321 0.0345715 5
      vertex -2.97321 0.0345715 0
    endloop
  endfacet
  facet normal -0.707093 -0.707121 0
    outer loop
      vertex -2.97321 0.0345715 0
      vertex -2.97321 0.0345715 5
      vertex -3.08187 0.143226 0
    endloop
  endfacet
  facet normal -0.707093 -0.707121 0
    outer loop
      vertex -2.97321 0.0345715 5
      vertex -3.08187 0.143226 5
      vertex -3.08187 0.143226 0
    endloop
  endfacet
  facet normal -0.780875 -0.624687 0
    outer loop
      vertex -3.08187 0.143226 0
      vertex -3.08187 0.143226 5
      vertex -3.12138 0.192615 0
    endloop
  endfacet
  facet normal -0.780875 -0.624687 0
    outer loop
      vertex -3.08187 0.143226 5
      vertex -3.12138 0.192615 5
      vertex -3.12138 0.192615 0
    endloop
  endfacet
  facet normal -1 0 0
    outer loop
      vertex -3.12138 0.192615 0
      vertex -3.12138 0.192615 5
      vertex -3.12138 0.34078 0
    endloop
  endfacet
  facet normal -1 0 0
    outer loop
      vertex -3.12138 0.192615 5
      vertex -3.12138 0.34078 5
      vertex -3.12138 0.34078 0
    endloop
  endfacet
  facet normal -0.857491 0.514499 0
    outer loop
      vertex -3.12138 0.34078 0
      vertex -3.12138 0.34078 5
      vertex -2.88431 0.735894 0
    endloop
  endfacet
  facet normal -0.857491 0.514499 0
    outer loop
      vertex -3.12138 0.34078 5
      vertex -2.88431 0.735894 5
      vertex -2.88431 0.735894 0
    endloop
  endfacet
  facet normal -0.345702 0.938344 0
    outer loop
      vertex -2.88431 0.735894 0
      vertex -2.88431 0.735894 5
      vertex -2.69663 0.805037 0
    endloop
  endfacet
  facet normal -0.345702 0.938344 0
    outer loop
      vertex -2.88431 0.735894 5
      vertex -2.69663 0.805037 5
      vertex -2.69663 0.805037 0
    endloop
  endfacet
  facet normal 0.637566 0.770395 -0
    outer loop
      vertex -2.69663 0.805037 0
      vertex -2.69663 0.805037 5
      vertex -2.41018 0.567971 0
    endloop
  endfacet
  facet normal 0.637566 0.770395 0
    outer loop
      vertex -2.69663 0.805037 5
      vertex -2.41018 0.567971 5
      vertex -2.41018 0.567971 0
    endloop
  endfacet
  facet normal -0.894388 0.447292 0
    outer loop
      vertex -2.41018 0.567971 0
      vertex -2.41018 0.567971 5
      vertex -2.4003 0.587725 0
    endloop
  endfacet
  facet normal -0.894388 0.447292 0
    outer loop
      vertex -2.41018 0.567971 5
      vertex -2.4003 0.587725 5
      vertex -2.4003 0.587725 0
    endloop
  endfacet
  facet normal -0.679405 -0.733763 0
    outer loop
      vertex -2.4003 0.587725 0
      vertex -2.4003 0.587725 5
      vertex -2.667 0.834669 0
    endloop
  endfacet
  facet normal -0.679405 -0.733763 0
    outer loop
      vertex -2.4003 0.587725 5
      vertex -2.667 0.834669 5
      vertex -2.667 0.834669 0
    endloop
  endfacet
  facet normal -1 0 0
    outer loop
      vertex -2.667 0.834669 0
      vertex -2.667 0.834669 5
      vertex -2.667 0.903816 0
    endloop
  endfacet
  facet normal -1 0 0
    outer loop
      vertex -2.667 0.834669 5
      vertex -2.667 0.903816 5
      vertex -2.667 0.903816 0
    endloop
  endfacet
  facet normal -0.447175 0.894447 0
    outer loop
      vertex -2.667 0.903816 0
      vertex -2.667 0.903816 5
      vertex -2.62749 0.92357 0
    endloop
  endfacet
  facet normal -0.447175 0.894447 0
    outer loop
      vertex -2.667 0.903816 5
      vertex -2.62749 0.92357 5
      vertex -2.62749 0.92357 0
    endloop
  endfacet
  facet normal -0.80001 -0.599986 0
    outer loop
      vertex -2.62749 0.92357 0
      vertex -2.62749 0.92357 5
      vertex -2.65712 0.963081 0
    endloop
  endfacet
  facet normal -0.80001 -0.599986 0
    outer loop
      vertex -2.62749 0.92357 5
      vertex -2.65712 0.963081 5
      vertex -2.65712 0.963081 0
    endloop
  endfacet
  facet normal -0.989947 -0.141439 0
    outer loop
      vertex -2.65712 0.963081 0
      vertex -2.65712 0.963081 5
      vertex -2.667 1.03222 0
    endloop
  endfacet
  facet normal -0.989947 -0.141439 0
    outer loop
      vertex -2.65712 0.963081 5
      vertex -2.667 1.03222 5
      vertex -2.667 1.03222 0
    endloop
  endfacet
  facet normal -0.28217 0.959364 0
    outer loop
      vertex -2.667 1.03222 0
      vertex -2.667 1.03222 5
      vertex -2.49908 1.08161 0
    endloop
  endfacet
  facet normal -0.28217 0.959364 0
    outer loop
      vertex -2.667 1.03222 5
      vertex -2.49908 1.08161 5
      vertex -2.49908 1.08161 0
    endloop
  endfacet
  facet normal -0.894408 0.447253 0
    outer loop
      vertex -2.49908 1.08161 0
      vertex -2.49908 1.08161 5
      vertex -2.47932 1.12112 0
    endloop
  endfacet
  facet normal -0.894408 0.447253 0
    outer loop
      vertex -2.49908 1.08161 5
      vertex -2.47932 1.12112 5
      vertex -2.47932 1.12112 0
    endloop
  endfacet
  facet normal -0.707132 0.707081 0
    outer loop
      vertex -2.47932 1.12112 0
      vertex -2.47932 1.12112 5
      vertex -2.42005 1.18039 0
    endloop
  endfacet
  facet normal -0.707132 0.707081 0
    outer loop
      vertex -2.47932 1.12112 5
      vertex -2.42005 1.18039 5
      vertex -2.42005 1.18039 0
    endloop
  endfacet
  facet normal -0.970136 0.242561 0
    outer loop
      vertex -2.42005 1.18039 0
      vertex -2.42005 1.18039 5
      vertex -2.41018 1.2199 0
    endloop
  endfacet
  facet normal -0.970136 0.242561 0
    outer loop
      vertex -2.42005 1.18039 5
      vertex -2.41018 1.2199 5
      vertex -2.41018 1.2199 0
    endloop
  endfacet
  facet normal -0.530007 0.847993 0
    outer loop
      vertex -2.41018 1.2199 0
      vertex -2.41018 1.2199 5
      vertex -2.33115 1.26929 0
    endloop
  endfacet
  facet normal -0.530007 0.847993 0
    outer loop
      vertex -2.41018 1.2199 5
      vertex -2.33115 1.26929 5
      vertex -2.33115 1.26929 0
    endloop
  endfacet
  facet normal -1 0 0
    outer loop
      vertex -2.33115 1.26929 0
      vertex -2.33115 1.26929 5
      vertex -2.33115 1.72367 0
    endloop
  endfacet
  facet normal -1 0 0
    outer loop
      vertex -2.33115 1.26929 5
      vertex -2.33115 1.72367 5
      vertex -2.33115 1.72367 0
    endloop
  endfacet
  facet normal -0.832041 0.554714 0
    outer loop
      vertex -2.33115 1.72367 0
      vertex -2.33115 1.72367 5
      vertex -2.29164 1.78294 0
    endloop
  endfacet
  facet normal -0.832041 0.554714 0
    outer loop
      vertex -2.33115 1.72367 5
      vertex -2.29164 1.78294 5
      vertex -2.29164 1.78294 0
    endloop
  endfacet
  facet normal 0.196133 0.980577 -0
    outer loop
      vertex -2.29164 1.78294 0
      vertex -2.29164 1.78294 5
      vertex -2.24225 1.77306 0
    endloop
  endfacet
  facet normal 0.196133 0.980577 0
    outer loop
      vertex -2.29164 1.78294 5
      vertex -2.24225 1.77306 5
      vertex -2.24225 1.77306 0
    endloop
  endfacet
  facet normal 0.599986 0.80001 -0
    outer loop
      vertex -2.24225 1.77306 0
      vertex -2.24225 1.77306 5
      vertex -2.20274 1.74343 0
    endloop
  endfacet
  facet normal 0.599986 0.80001 0
    outer loop
      vertex -2.24225 1.77306 5
      vertex -2.20274 1.74343 5
      vertex -2.20274 1.74343 0
    endloop
  endfacet
  facet normal -0.948676 0.316248 0
    outer loop
      vertex -2.20274 1.74343 0
      vertex -2.20274 1.74343 5
      vertex -2.18298 1.80269 0
    endloop
  endfacet
  facet normal -0.948676 0.316248 0
    outer loop
      vertex -2.20274 1.74343 5
      vertex -2.18298 1.80269 5
      vertex -2.18298 1.80269 0
    endloop
  endfacet
  facet normal -0.554672 0.832069 0
    outer loop
      vertex -2.18298 1.80269 0
      vertex -2.18298 1.80269 5
      vertex -2.15335 1.82245 0
    endloop
  endfacet
  facet normal -0.554672 0.832069 0
    outer loop
      vertex -2.18298 1.80269 5
      vertex -2.15335 1.82245 5
      vertex -2.15335 1.82245 0
    endloop
  endfacet
  facet normal 0.242561 0.970136 -0
    outer loop
      vertex -2.15335 1.82245 0
      vertex -2.15335 1.82245 5
      vertex -2.11384 1.81257 0
    endloop
  endfacet
  facet normal 0.242561 0.970136 0
    outer loop
      vertex -2.15335 1.82245 5
      vertex -2.11384 1.81257 5
      vertex -2.11384 1.81257 0
    endloop
  endfacet
  facet normal 0.514474 0.857506 -0
    outer loop
      vertex -2.11384 1.81257 0
      vertex -2.11384 1.81257 5
      vertex -2.06445 1.78294 0
    endloop
  endfacet
  facet normal 0.514474 0.857506 0
    outer loop
      vertex -2.11384 1.81257 5
      vertex -2.06445 1.78294 5
      vertex -2.06445 1.78294 0
    endloop
  endfacet
  facet normal -0.989957 0.14137 0
    outer loop
      vertex -2.06445 1.78294 0
      vertex -2.06445 1.78294 5
      vertex -2.05458 1.85208 0
    endloop
  endfacet
  facet normal -0.989957 0.14137 0
    outer loop
      vertex -2.06445 1.78294 5
      vertex -2.05458 1.85208 5
      vertex -2.05458 1.85208 0
    endloop
  endfacet
  facet normal -0.316104 0.948725 0
    outer loop
      vertex -2.05458 1.85208 0
      vertex -2.05458 1.85208 5
      vertex -2.02494 1.86196 0
    endloop
  endfacet
  facet normal -0.316104 0.948725 0
    outer loop
      vertex -2.05458 1.85208 5
      vertex -2.02494 1.86196 5
      vertex -2.02494 1.86196 0
    endloop
  endfacet
  facet normal 0.164352 0.986402 -0
    outer loop
      vertex -2.02494 1.86196 0
      vertex -2.02494 1.86196 5
      vertex -1.96568 1.85208 0
    endloop
  endfacet
  facet normal 0.164352 0.986402 0
    outer loop
      vertex -2.02494 1.86196 5
      vertex -1.96568 1.85208 5
      vertex -1.96568 1.85208 0
    endloop
  endfacet
endsolid OpenSCAD_Model
