solid OpenSCAD_Model
  facet normal 0 0 -1
    outer loop
      vertex -0.740833 0.617361 0
      vertex -1.22484 0.0345715 0
      vertex -1.31374 0.123472 0
    endloop
  endfacet
  facet normal 0 0 -1
    outer loop
      vertex 1.08655 -1.42734 0
      vertex -0.0592643 0.172858 0
      vertex 1.10631 -1.41746 0
    endloop
  endfacet
  facet normal 0 0 -1
    outer loop
      vertex -1.43228 0.25188 0
      vertex -0.740833 0.617361 0
      vertex -1.31374 0.123472 0
    endloop
  endfacet
  facet normal 0 -0 -1
    outer loop
      vertex 1.14582 0.350659 0
      vertex 1.36313 -1.29893 0
      vertex 1.10631 -1.41746 0
    endloop
  endfacet
  facet normal 0 0 -1
    outer loop
      vertex 1.36313 -1.29893 0
      vertex 1.16557 -1.49648 0
      vertex 1.10631 -1.41746 0
    endloop
  endfacet
  facet normal 0 0 -1
    outer loop
      vertex 1.16557 -1.49648 0
      vertex 1.13594 -1.47673 0
      vertex 1.10631 -1.41746 0
    endloop
  endfacet
  facet normal 0 0 -1
    outer loop
      vertex 1.14582 0.350659 0
      vertex 1.54093 -1.24954 0
      vertex 1.36313 -1.29893 0
    endloop
  endfacet
  facet normal 0 0 -1
    outer loop
      vertex 1.82739 0.202494 0
      vertex 2.47932 -0.765526 0
      vertex 2.0447 -1.08161 0
    endloop
  endfacet
  facet normal 0 0 -1
    outer loop
      vertex 2.47932 -0.765526 0
      vertex 2.76577 -0.29139 0
      vertex 2.69663 -0.706257 0
    endloop
  endfacet
  facet normal 0 0 -1
    outer loop
      vertex 2.87443 -0.449439 0
      vertex 2.94358 -0.656872 0
      vertex 2.92382 -0.656872 0
    endloop
  endfacet
  facet normal 0 0 -1
    outer loop
      vertex 2.47932 -0.765526 0
      vertex 2.51883 0.0543248 0
      vertex 2.63736 -0.123472 0
    endloop
  endfacet
  facet normal 0 -0 -1
    outer loop
      vertex 2.87443 -0.449439 0
      vertex 2.92382 -0.656872 0
      vertex 2.69663 -0.706257 0
    endloop
  endfacet
  facet normal -0 0 -1
    outer loop
      vertex 2.87443 -0.449439 0
      vertex 2.69663 -0.706257 0
      vertex 2.76577 -0.29139 0
    endloop
  endfacet
  facet normal 0 0 -1
    outer loop
      vertex 2.47932 -0.765526 0
      vertex 1.82739 0.202494 0
      vertex 2.51883 0.0543248 0
    endloop
  endfacet
  facet normal -0 0 -1
    outer loop
      vertex 2.76577 -0.29139 0
      vertex 2.47932 -0.765526 0
      vertex 2.63736 -0.123472 0
    endloop
  endfacet
  facet normal -0 0 -1
    outer loop
      vertex 2.37066 -0.982838 0
      vertex 2.0447 -1.08161 0
      vertex 2.47932 -0.765526 0
    endloop
  endfacet
  facet normal -0 0 -1
    outer loop
      vertex 2.0447 -1.08161 0
      vertex 1.54093 -1.24954 0
      vertex 1.82739 0.202494 0
    endloop
  endfacet
  facet normal 0 0 -1
    outer loop
      vertex 0.0987752 -1.92123 0
      vertex -0.187676 -1.81257 0
      vertex -0.256819 -1.67428 0
    endloop
  endfacet
  facet normal 0 0 -1
    outer loop
      vertex 1.54093 -1.24954 0
      vertex 1.14582 0.350659 0
      vertex 1.82739 0.202494 0
    endloop
  endfacet
  facet normal -0 0 -1
    outer loop
      vertex 0.958141 -1.65452 0
      vertex 0.898877 -1.67428 0
      vertex 1.03716 -1.55575 0
    endloop
  endfacet
  facet normal 0 0 -1
    outer loop
      vertex 0.395109 -1.88172 0
      vertex 0.898877 -1.67428 0
      vertex 0.681565 -1.82245 0
    endloop
  endfacet
  facet normal 0 0 -1
    outer loop
      vertex 1.08655 -1.42734 0
      vertex 0.898877 -1.67428 0
      vertex 0.395109 -1.88172 0
    endloop
  endfacet
  facet normal -0 0 -1
    outer loop
      vertex 1.03716 -1.55575 0
      vertex 0.898877 -1.67428 0
      vertex 1.08655 -1.42734 0
    endloop
  endfacet
  facet normal 0 0 -1
    outer loop
      vertex 0.681565 -1.82245 0
      vertex 0.898877 -1.67428 0
      vertex 0.839609 -1.77306 0
    endloop
  endfacet
  facet normal 0 0 -1
    outer loop
      vertex -0.0888964 -1.91135 0
      vertex -0.187676 -1.81257 0
      vertex 0.0987752 -1.92123 0
    endloop
  endfacet
  facet normal 0 0 -1
    outer loop
      vertex 0.0987752 -1.92123 0
      vertex -0.256819 -1.67428 0
      vertex 0.395109 -1.88172 0
    endloop
  endfacet
  facet normal 0 0 -1
    outer loop
      vertex -0.266698 -1.67428 0
      vertex -1.21496 -0.103715 0
      vertex -0.0592643 0.172858 0
    endloop
  endfacet
  facet normal 0 0 -1
    outer loop
      vertex -0.256819 -1.67428 0
      vertex 1.08655 -1.42734 0
      vertex 0.395109 -1.88172 0
    endloop
  endfacet
  facet normal 0 0 -1
    outer loop
      vertex -1.22484 0.0345715 0
      vertex -0.632175 0.498824 0
      vertex -1.21496 -0.103715 0
    endloop
  endfacet
  facet normal 0 0 -1
    outer loop
      vertex -1.21496 -0.103715 0
      vertex -0.632175 -1.73355 0
      vertex -1.0668 -1.79281 0
    endloop
  endfacet
  facet normal -0 0 -1
    outer loop
      vertex 1.14582 0.350659 0
      vertex -0.0592643 0.172858 0
      vertex 0.96802 0.558093 0
    endloop
  endfacet
  facet normal -0 0 -1
    outer loop
      vertex -1.21496 -0.103715 0
      vertex -2.19286 -0.43956 0
      vertex -1.39277 0.0740825 0
    endloop
  endfacet
  facet normal 0 0 -1
    outer loop
      vertex -0.444499 -1.77306 0
      vertex -0.632175 -1.73355 0
      vertex -0.266698 -1.67428 0
    endloop
  endfacet
  facet normal 0 0 -1
    outer loop
      vertex -2.21262 -0.419802 0
      vertex -1.54093 0.281516 0
      vertex -2.19286 -0.43956 0
    endloop
  endfacet
  facet normal 0 0 -1
    outer loop
      vertex -0.444499 -1.77306 0
      vertex -0.266698 -1.67428 0
      vertex -0.266698 -1.80269 0
    endloop
  endfacet
  facet normal 0 -0 -1
    outer loop
      vertex -1.54093 0.281516 0
      vertex -1.39277 0.0740825 0
      vertex -2.19286 -0.43956 0
    endloop
  endfacet
  facet normal 0 0 -1
    outer loop
      vertex -1.21496 -0.103715 0
      vertex -1.92617 -1.70391 0
      vertex -2.19286 -0.43956 0
    endloop
  endfacet
  facet normal 0 0 -1
    outer loop
      vertex -1.92617 -1.70391 0
      vertex -2.77565 -1.00259 0
      vertex -2.19286 -0.43956 0
    endloop
  endfacet
  facet normal 0 0 -1
    outer loop
      vertex -1.65946 -1.87184 0
      vertex -1.92617 -1.70391 0
      vertex -1.57056 -1.85208 0
    endloop
  endfacet
  facet normal 0 0 -1
    outer loop
      vertex -1.75824 -1.87184 0
      vertex -1.80763 -1.85208 0
      vertex -1.65946 -1.87184 0
    endloop
  endfacet
  facet normal 0 0 -1
    outer loop
      vertex -1.80763 -1.85208 0
      vertex -1.92617 -1.70391 0
      vertex -1.65946 -1.87184 0
    endloop
  endfacet
  facet normal 0 0 -1
    outer loop
      vertex -1.92617 -1.70391 0
      vertex -1.50142 -1.8422 0
      vertex -1.57056 -1.85208 0
    endloop
  endfacet
  facet normal 0 0 -1
    outer loop
      vertex -2.82504 -1.22978 0
      vertex -2.82504 -1.09149 0
      vertex -2.77565 -1.00259 0
    endloop
  endfacet
  facet normal 0 0 -1
    outer loop
      vertex -2.17311 -1.7533 0
      vertex -2.82504 -1.22978 0
      vertex -2.77565 -1.00259 0
    endloop
  endfacet
  facet normal 0 0 -1
    outer loop
      vertex -2.82504 -1.22978 0
      vertex -2.17311 -1.7533 0
      vertex -2.41018 -1.79281 0
    endloop
  endfacet
  facet normal 0 0 -1
    outer loop
      vertex -2.17311 -1.7533 0
      vertex -2.77565 -1.00259 0
      vertex -1.92617 -1.70391 0
    endloop
  endfacet
  facet normal 0 0 -1
    outer loop
      vertex -1.56069 0.686504 0
      vertex -1.45203 0.854427 0
      vertex -1.52118 0.39017 0
    endloop
  endfacet
  facet normal -0 0 -1
    outer loop
      vertex -1.54093 0.281516 0
      vertex -2.5781 0.123472 0
      vertex -1.91629 0.735894 0
    endloop
  endfacet
  facet normal -0 0 -1
    outer loop
      vertex -1.0668 -1.79281 0
      vertex -1.50142 -1.8422 0
      vertex -1.21496 -0.103715 0
    endloop
  endfacet
  facet normal 0 0 -1
    outer loop
      vertex -1.21496 -0.103715 0
      vertex -1.50142 -1.8422 0
      vertex -1.92617 -1.70391 0
    endloop
  endfacet
  facet normal 0 0 -1
    outer loop
      vertex -2.9337 0.676625 0
      vertex -1.91629 0.735894 0
      vertex -2.5781 0.123472 0
    endloop
  endfacet
  facet normal 0 0 -1
    outer loop
      vertex -2.94358 0.795158 0
      vertex -2.91394 0.943327 0
      vertex -2.29164 1.20015 0
    endloop
  endfacet
  facet normal 0 0 -1
    outer loop
      vertex -2.91394 0.943327 0
      vertex -2.86455 1.09149 0
      vertex -2.29164 1.20015 0
    endloop
  endfacet
  facet normal 0 0 -1
    outer loop
      vertex -2.86455 1.09149 0
      vertex -2.82504 1.19027 0
      vertex -2.29164 1.20015 0
    endloop
  endfacet
  facet normal 0 0 -1
    outer loop
      vertex -2.82504 1.19027 0
      vertex -2.43981 1.39771 0
      vertex -2.29164 1.20015 0
    endloop
  endfacet
  facet normal 0 -0 -1
    outer loop
      vertex -2.79541 1.38783 0
      vertex -2.43981 1.39771 0
      vertex -2.82504 1.19027 0
    endloop
  endfacet
  facet normal 0 -0 -1
    outer loop
      vertex -2.71639 1.56562 0
      vertex -2.667 1.5755 0
      vertex -2.79541 1.38783 0
    endloop
  endfacet
  facet normal 0 0 -1
    outer loop
      vertex -2.667 1.5755 0
      vertex -2.60773 1.58538 0
      vertex -2.43981 1.39771 0
    endloop
  endfacet
  facet normal 0 0 -1
    outer loop
      vertex -0.908752 1.92123 0
      vertex -1.09643 1.82245 0
      vertex -1.07667 1.91135 0
    endloop
  endfacet
  facet normal 0 -0 -1
    outer loop
      vertex -2.667 1.5755 0
      vertex -2.43981 1.39771 0
      vertex -2.79541 1.38783 0
    endloop
  endfacet
  facet normal 0 0 -1
    outer loop
      vertex -2.94358 0.795158 0
      vertex -2.29164 1.20015 0
      vertex -2.9337 0.676625 0
    endloop
  endfacet
  facet normal 0 0 -1
    outer loop
      vertex -1.27423 0.953202 0
      vertex -1.08655 0.97296 0
      vertex -0.938388 0.893938 0
    endloop
  endfacet
  facet normal 0 0 -1
    outer loop
      vertex -2.9337 0.676625 0
      vertex -2.29164 1.20015 0
      vertex -1.91629 0.735894 0
    endloop
  endfacet
  facet normal 0 0 -1
    outer loop
      vertex -1.54093 0.281516 0
      vertex -2.21262 -0.419802 0
      vertex -2.5781 0.123472 0
    endloop
  endfacet
  facet normal 0 0 -1
    outer loop
      vertex -1.22484 -0.0345715 0
      vertex -1.22484 0.0345715 0
      vertex -1.21496 -0.103715 0
    endloop
  endfacet
  facet normal -0 0 -1
    outer loop
      vertex -0.266698 -1.67428 0
      vertex -0.632175 -1.73355 0
      vertex -1.21496 -0.103715 0
    endloop
  endfacet
  facet normal 0 0 -1
    outer loop
      vertex -1.52118 0.39017 0
      vertex -1.27423 0.953202 0
      vertex -0.82973 0.765526 0
    endloop
  endfacet
  facet normal 0 -0 -1
    outer loop
      vertex -0.632175 0.498824 0
      vertex -0.414863 0.419802 0
      vertex -1.21496 -0.103715 0
    endloop
  endfacet
  facet normal 0 -0 -1
    outer loop
      vertex -0.414863 0.419802 0
      vertex -0.237066 0.301269 0
      vertex -1.21496 -0.103715 0
    endloop
  endfacet
  facet normal 0 0 -1
    outer loop
      vertex -0.0592643 0.202494 0
      vertex -0.246944 0.449439 0
      vertex 0.572911 1.00259 0
    endloop
  endfacet
  facet normal 0 0 -1
    outer loop
      vertex -1.27423 0.953202 0
      vertex -0.938388 0.893938 0
      vertex -0.82973 0.765526 0
    endloop
  endfacet
  facet normal 0 -0 -1
    outer loop
      vertex -1.56069 0.686504 0
      vertex -1.52118 0.39017 0
      vertex -1.57056 0.508703 0
    endloop
  endfacet
  facet normal 0 0 -1
    outer loop
      vertex -1.27423 0.953202 0
      vertex -1.52118 0.39017 0
      vertex -1.45203 0.854427 0
    endloop
  endfacet
  facet normal 0 0 -1
    outer loop
      vertex -0.523521 1.03222 0
      vertex -0.819855 1.42734 0
      vertex -0.34572 1.68416 0
    endloop
  endfacet
  facet normal 0 0 -1
    outer loop
      vertex -1.09643 1.82245 0
      vertex -0.740833 1.85208 0
      vertex -0.819855 1.42734 0
    endloop
  endfacet
  facet normal 0 0 -1
    outer loop
      vertex -0.523521 1.03222 0
      vertex 0.34572 1.29893 0
      vertex -0.48401 0.864306 0
    endloop
  endfacet
  facet normal 0 0 -1
    outer loop
      vertex -0.424742 0.706257 0
      vertex 0.34572 1.29893 0
      vertex -0.246944 0.449439 0
    endloop
  endfacet
  facet normal 0 0 -1
    outer loop
      vertex -0.82973 0.765526 0
      vertex -1.43228 0.25188 0
      vertex -1.52118 0.39017 0
    endloop
  endfacet
  facet normal 0 -0 -1
    outer loop
      vertex 0.770465 0.775405 0
      vertex 0.96802 0.558093 0
      vertex -0.0592643 0.202494 0
    endloop
  endfacet
  facet normal 0 -0 -1
    outer loop
      vertex -0.82973 0.765526 0
      vertex -0.740833 0.617361 0
      vertex -1.43228 0.25188 0
    endloop
  endfacet
  facet normal 0 -0 -1
    outer loop
      vertex -0.740833 0.617361 0
      vertex -0.632175 0.498824 0
      vertex -1.22484 0.0345715 0
    endloop
  endfacet
  facet normal 0 0 -1
    outer loop
      vertex -0.0592643 0.202494 0
      vertex 0.96802 0.558093 0
      vertex -0.0592643 0.172858 0
    endloop
  endfacet
  facet normal 0 0 -1
    outer loop
      vertex -1.21496 -0.103715 0
      vertex -0.237066 0.301269 0
      vertex -0.0592643 0.172858 0
    endloop
  endfacet
  facet normal 0 0 -1
    outer loop
      vertex -0.266698 -1.67428 0
      vertex -0.0592643 0.172858 0
      vertex -0.256819 -1.67428 0
    endloop
  endfacet
  facet normal 0 -0 -1
    outer loop
      vertex -0.0592643 0.172858 0
      vertex 1.08655 -1.42734 0
      vertex -0.256819 -1.67428 0
    endloop
  endfacet
  facet normal 0 0 -1
    outer loop
      vertex 1.14582 0.350659 0
      vertex 1.10631 -1.41746 0
      vertex -0.0592643 0.172858 0
    endloop
  endfacet
  facet normal 0 -0 -1
    outer loop
      vertex 0.572911 1.00259 0
      vertex 0.770465 0.775405 0
      vertex -0.0592643 0.202494 0
    endloop
  endfacet
  facet normal 0 -0 -1
    outer loop
      vertex 0.34572 1.29893 0
      vertex 0.572911 1.00259 0
      vertex -0.246944 0.449439 0
    endloop
  endfacet
  facet normal 0 0 -1
    outer loop
      vertex -0.48401 0.864306 0
      vertex 0.34572 1.29893 0
      vertex -0.424742 0.706257 0
    endloop
  endfacet
  facet normal 0 0 -1
    outer loop
      vertex -0.523521 1.03222 0
      vertex 0.0691431 1.52611 0
      vertex 0.34572 1.29893 0
    endloop
  endfacet
  facet normal 0 -0 -1
    outer loop
      vertex -0.34572 1.68416 0
      vertex 0.0691431 1.52611 0
      vertex -0.523521 1.03222 0
    endloop
  endfacet
  facet normal -0 0 -1
    outer loop
      vertex -0.34572 1.68416 0
      vertex -0.819855 1.42734 0
      vertex -0.740833 1.85208 0
    endloop
  endfacet
  facet normal -0 0 -1
    outer loop
      vertex -0.740833 1.85208 0
      vertex -1.09643 1.82245 0
      vertex -0.908752 1.92123 0
    endloop
  endfacet
  facet normal -0 0 1
    outer loop
      vertex -1.31374 0.123472 5
      vertex -1.22484 0.0345715 5
      vertex -0.740833 0.617361 5
    endloop
  endfacet
  facet normal 0 0 1
    outer loop
      vertex 1.10631 -1.41746 5
      vertex -0.0592643 0.172858 5
      vertex 1.08655 -1.42734 5
    endloop
  endfacet
  facet normal 0 -0 1
    outer loop
      vertex -1.31374 0.123472 5
      vertex -0.740833 0.617361 5
      vertex -1.43228 0.25188 5
    endloop
  endfacet
  facet normal 0 0 1
    outer loop
      vertex 1.10631 -1.41746 5
      vertex 1.36313 -1.29893 5
      vertex 1.14582 0.350659 5
    endloop
  endfacet
  facet normal -0 0 1
    outer loop
      vertex 1.10631 -1.41746 5
      vertex 1.16557 -1.49648 5
      vertex 1.36313 -1.29893 5
    endloop
  endfacet
  facet normal 0 0 1
    outer loop
      vertex 1.10631 -1.41746 5
      vertex 1.13594 -1.47673 5
      vertex 1.16557 -1.49648 5
    endloop
  endfacet
  facet normal 0 -0 1
    outer loop
      vertex 1.36313 -1.29893 5
      vertex 1.54093 -1.24954 5
      vertex 1.14582 0.350659 5
    endloop
  endfacet
  facet normal 0 -0 1
    outer loop
      vertex 2.0447 -1.08161 5
      vertex 2.47932 -0.765526 5
      vertex 1.82739 0.202494 5
    endloop
  endfacet
  facet normal 0 -0 1
    outer loop
      vertex 2.69663 -0.706257 5
      vertex 2.76577 -0.29139 5
      vertex 2.47932 -0.765526 5
    endloop
  endfacet
  facet normal 0 -0 1
    outer loop
      vertex 2.92382 -0.656872 5
      vertex 2.94358 -0.656872 5
      vertex 2.87443 -0.449439 5
    endloop
  endfacet
  facet normal 0 0 1
    outer loop
      vertex 2.63736 -0.123472 5
      vertex 2.51883 0.0543248 5
      vertex 2.47932 -0.765526 5
    endloop
  endfacet
  facet normal 0 0 1
    outer loop
      vertex 2.69663 -0.706257 5
      vertex 2.92382 -0.656872 5
      vertex 2.87443 -0.449439 5
    endloop
  endfacet
  facet normal 0 0 1
    outer loop
      vertex 2.76577 -0.29139 5
      vertex 2.69663 -0.706257 5
      vertex 2.87443 -0.449439 5
    endloop
  endfacet
  facet normal 0 0 1
    outer loop
      vertex 2.51883 0.0543248 5
      vertex 1.82739 0.202494 5
      vertex 2.47932 -0.765526 5
    endloop
  endfacet
  facet normal 0 0 1
    outer loop
      vertex 2.63736 -0.123472 5
      vertex 2.47932 -0.765526 5
      vertex 2.76577 -0.29139 5
    endloop
  endfacet
  facet normal 0 0 1
    outer loop
      vertex 2.47932 -0.765526 5
      vertex 2.0447 -1.08161 5
      vertex 2.37066 -0.982838 5
    endloop
  endfacet
  facet normal 0 0 1
    outer loop
      vertex 1.82739 0.202494 5
      vertex 1.54093 -1.24954 5
      vertex 2.0447 -1.08161 5
    endloop
  endfacet
  facet normal 0 0 1
    outer loop
      vertex -0.256819 -1.67428 5
      vertex -0.187676 -1.81257 5
      vertex 0.0987752 -1.92123 5
    endloop
  endfacet
  facet normal 0 0 1
    outer loop
      vertex 1.82739 0.202494 5
      vertex 1.14582 0.350659 5
      vertex 1.54093 -1.24954 5
    endloop
  endfacet
  facet normal 0 0 1
    outer loop
      vertex 1.03716 -1.55575 5
      vertex 0.898877 -1.67428 5
      vertex 0.958141 -1.65452 5
    endloop
  endfacet
  facet normal 0 -0 1
    outer loop
      vertex 0.681565 -1.82245 5
      vertex 0.898877 -1.67428 5
      vertex 0.395109 -1.88172 5
    endloop
  endfacet
  facet normal 0 0 1
    outer loop
      vertex 0.395109 -1.88172 5
      vertex 0.898877 -1.67428 5
      vertex 1.08655 -1.42734 5
    endloop
  endfacet
  facet normal 0 0 1
    outer loop
      vertex 1.08655 -1.42734 5
      vertex 0.898877 -1.67428 5
      vertex 1.03716 -1.55575 5
    endloop
  endfacet
  facet normal 0 -0 1
    outer loop
      vertex 0.839609 -1.77306 5
      vertex 0.898877 -1.67428 5
      vertex 0.681565 -1.82245 5
    endloop
  endfacet
  facet normal 0 0 1
    outer loop
      vertex 0.0987752 -1.92123 5
      vertex -0.187676 -1.81257 5
      vertex -0.0888964 -1.91135 5
    endloop
  endfacet
  facet normal 0 0 1
    outer loop
      vertex 0.395109 -1.88172 5
      vertex -0.256819 -1.67428 5
      vertex 0.0987752 -1.92123 5
    endloop
  endfacet
  facet normal 0 0 1
    outer loop
      vertex -0.0592643 0.172858 5
      vertex -1.21496 -0.103715 5
      vertex -0.266698 -1.67428 5
    endloop
  endfacet
  facet normal 0 -0 1
    outer loop
      vertex 0.395109 -1.88172 5
      vertex 1.08655 -1.42734 5
      vertex -0.256819 -1.67428 5
    endloop
  endfacet
  facet normal 0 -0 1
    outer loop
      vertex -1.21496 -0.103715 5
      vertex -0.632175 0.498824 5
      vertex -1.22484 0.0345715 5
    endloop
  endfacet
  facet normal 0 -0 1
    outer loop
      vertex -1.0668 -1.79281 5
      vertex -0.632175 -1.73355 5
      vertex -1.21496 -0.103715 5
    endloop
  endfacet
  facet normal 0 0 1
    outer loop
      vertex 0.96802 0.558093 5
      vertex -0.0592643 0.172858 5
      vertex 1.14582 0.350659 5
    endloop
  endfacet
  facet normal 0 0 1
    outer loop
      vertex -1.39277 0.0740825 5
      vertex -2.19286 -0.43956 5
      vertex -1.21496 -0.103715 5
    endloop
  endfacet
  facet normal 0 0 1
    outer loop
      vertex -0.266698 -1.67428 5
      vertex -0.632175 -1.73355 5
      vertex -0.444499 -1.77306 5
    endloop
  endfacet
  facet normal 0 -0 1
    outer loop
      vertex -2.19286 -0.43956 5
      vertex -1.54093 0.281516 5
      vertex -2.21262 -0.419802 5
    endloop
  endfacet
  facet normal 0 -0 1
    outer loop
      vertex -0.266698 -1.80269 5
      vertex -0.266698 -1.67428 5
      vertex -0.444499 -1.77306 5
    endloop
  endfacet
  facet normal 0 0 1
    outer loop
      vertex -2.19286 -0.43956 5
      vertex -1.39277 0.0740825 5
      vertex -1.54093 0.281516 5
    endloop
  endfacet
  facet normal -0 0 1
    outer loop
      vertex -2.19286 -0.43956 5
      vertex -1.92617 -1.70391 5
      vertex -1.21496 -0.103715 5
    endloop
  endfacet
  facet normal 0 0 1
    outer loop
      vertex -2.19286 -0.43956 5
      vertex -2.77565 -1.00259 5
      vertex -1.92617 -1.70391 5
    endloop
  endfacet
  facet normal 0 0 1
    outer loop
      vertex -1.57056 -1.85208 5
      vertex -1.92617 -1.70391 5
      vertex -1.65946 -1.87184 5
    endloop
  endfacet
  facet normal 0 0 1
    outer loop
      vertex -1.65946 -1.87184 5
      vertex -1.80763 -1.85208 5
      vertex -1.75824 -1.87184 5
    endloop
  endfacet
  facet normal 0 0 1
    outer loop
      vertex -1.65946 -1.87184 5
      vertex -1.92617 -1.70391 5
      vertex -1.80763 -1.85208 5
    endloop
  endfacet
  facet normal 0 -0 1
    outer loop
      vertex -1.57056 -1.85208 5
      vertex -1.50142 -1.8422 5
      vertex -1.92617 -1.70391 5
    endloop
  endfacet
  facet normal 0 0 1
    outer loop
      vertex -2.77565 -1.00259 5
      vertex -2.82504 -1.09149 5
      vertex -2.82504 -1.22978 5
    endloop
  endfacet
  facet normal 0 0 1
    outer loop
      vertex -2.77565 -1.00259 5
      vertex -2.82504 -1.22978 5
      vertex -2.17311 -1.7533 5
    endloop
  endfacet
  facet normal 0 -0 1
    outer loop
      vertex -2.41018 -1.79281 5
      vertex -2.17311 -1.7533 5
      vertex -2.82504 -1.22978 5
    endloop
  endfacet
  facet normal 0 0 1
    outer loop
      vertex -1.92617 -1.70391 5
      vertex -2.77565 -1.00259 5
      vertex -2.17311 -1.7533 5
    endloop
  endfacet
  facet normal 0 -0 1
    outer loop
      vertex -1.52118 0.39017 5
      vertex -1.45203 0.854427 5
      vertex -1.56069 0.686504 5
    endloop
  endfacet
  facet normal 0 0 1
    outer loop
      vertex -1.91629 0.735894 5
      vertex -2.5781 0.123472 5
      vertex -1.54093 0.281516 5
    endloop
  endfacet
  facet normal 0 0 1
    outer loop
      vertex -1.21496 -0.103715 5
      vertex -1.50142 -1.8422 5
      vertex -1.0668 -1.79281 5
    endloop
  endfacet
  facet normal -0 0 1
    outer loop
      vertex -1.92617 -1.70391 5
      vertex -1.50142 -1.8422 5
      vertex -1.21496 -0.103715 5
    endloop
  endfacet
  facet normal 0 -0 1
    outer loop
      vertex -2.5781 0.123472 5
      vertex -1.91629 0.735894 5
      vertex -2.9337 0.676625 5
    endloop
  endfacet
  facet normal 0 0 1
    outer loop
      vertex -2.29164 1.20015 5
      vertex -2.91394 0.943327 5
      vertex -2.94358 0.795158 5
    endloop
  endfacet
  facet normal 0 0 1
    outer loop
      vertex -2.29164 1.20015 5
      vertex -2.86455 1.09149 5
      vertex -2.91394 0.943327 5
    endloop
  endfacet
  facet normal 0 0 1
    outer loop
      vertex -2.29164 1.20015 5
      vertex -2.82504 1.19027 5
      vertex -2.86455 1.09149 5
    endloop
  endfacet
  facet normal 0 0 1
    outer loop
      vertex -2.29164 1.20015 5
      vertex -2.43981 1.39771 5
      vertex -2.82504 1.19027 5
    endloop
  endfacet
  facet normal 0 0 1
    outer loop
      vertex -2.82504 1.19027 5
      vertex -2.43981 1.39771 5
      vertex -2.79541 1.38783 5
    endloop
  endfacet
  facet normal 0 0 1
    outer loop
      vertex -2.79541 1.38783 5
      vertex -2.667 1.5755 5
      vertex -2.71639 1.56562 5
    endloop
  endfacet
  facet normal 0 0 1
    outer loop
      vertex -2.43981 1.39771 5
      vertex -2.60773 1.58538 5
      vertex -2.667 1.5755 5
    endloop
  endfacet
  facet normal -0 0 1
    outer loop
      vertex -1.07667 1.91135 5
      vertex -1.09643 1.82245 5
      vertex -0.908752 1.92123 5
    endloop
  endfacet
  facet normal 0 0 1
    outer loop
      vertex -2.79541 1.38783 5
      vertex -2.43981 1.39771 5
      vertex -2.667 1.5755 5
    endloop
  endfacet
  facet normal 0 -0 1
    outer loop
      vertex -2.9337 0.676625 5
      vertex -2.29164 1.20015 5
      vertex -2.94358 0.795158 5
    endloop
  endfacet
  facet normal 0 0 1
    outer loop
      vertex -0.938388 0.893938 5
      vertex -1.08655 0.97296 5
      vertex -1.27423 0.953202 5
    endloop
  endfacet
  facet normal 0 0 1
    outer loop
      vertex -1.91629 0.735894 5
      vertex -2.29164 1.20015 5
      vertex -2.9337 0.676625 5
    endloop
  endfacet
  facet normal -0 0 1
    outer loop
      vertex -2.5781 0.123472 5
      vertex -2.21262 -0.419802 5
      vertex -1.54093 0.281516 5
    endloop
  endfacet
  facet normal 0 0 1
    outer loop
      vertex -1.21496 -0.103715 5
      vertex -1.22484 0.0345715 5
      vertex -1.22484 -0.0345715 5
    endloop
  endfacet
  facet normal 0 0 1
    outer loop
      vertex -1.21496 -0.103715 5
      vertex -0.632175 -1.73355 5
      vertex -0.266698 -1.67428 5
    endloop
  endfacet
  facet normal 0 0 1
    outer loop
      vertex -0.82973 0.765526 5
      vertex -1.27423 0.953202 5
      vertex -1.52118 0.39017 5
    endloop
  endfacet
  facet normal 0 0 1
    outer loop
      vertex -1.21496 -0.103715 5
      vertex -0.414863 0.419802 5
      vertex -0.632175 0.498824 5
    endloop
  endfacet
  facet normal 0 0 1
    outer loop
      vertex -1.21496 -0.103715 5
      vertex -0.237066 0.301269 5
      vertex -0.414863 0.419802 5
    endloop
  endfacet
  facet normal 0 0 1
    outer loop
      vertex 0.572911 1.00259 5
      vertex -0.246944 0.449439 5
      vertex -0.0592643 0.202494 5
    endloop
  endfacet
  facet normal 0 0 1
    outer loop
      vertex -0.82973 0.765526 5
      vertex -0.938388 0.893938 5
      vertex -1.27423 0.953202 5
    endloop
  endfacet
  facet normal -0 0 1
    outer loop
      vertex -1.57056 0.508703 5
      vertex -1.52118 0.39017 5
      vertex -1.56069 0.686504 5
    endloop
  endfacet
  facet normal -0 0 1
    outer loop
      vertex -1.45203 0.854427 5
      vertex -1.52118 0.39017 5
      vertex -1.27423 0.953202 5
    endloop
  endfacet
  facet normal 0 0 1
    outer loop
      vertex -0.34572 1.68416 5
      vertex -0.819855 1.42734 5
      vertex -0.523521 1.03222 5
    endloop
  endfacet
  facet normal 0 -0 1
    outer loop
      vertex -0.819855 1.42734 5
      vertex -0.740833 1.85208 5
      vertex -1.09643 1.82245 5
    endloop
  endfacet
  facet normal 0 -0 1
    outer loop
      vertex -0.48401 0.864306 5
      vertex 0.34572 1.29893 5
      vertex -0.523521 1.03222 5
    endloop
  endfacet
  facet normal 0 -0 1
    outer loop
      vertex -0.246944 0.449439 5
      vertex 0.34572 1.29893 5
      vertex -0.424742 0.706257 5
    endloop
  endfacet
  facet normal -0 0 1
    outer loop
      vertex -1.52118 0.39017 5
      vertex -1.43228 0.25188 5
      vertex -0.82973 0.765526 5
    endloop
  endfacet
  facet normal 0 0 1
    outer loop
      vertex -0.0592643 0.202494 5
      vertex 0.96802 0.558093 5
      vertex 0.770465 0.775405 5
    endloop
  endfacet
  facet normal 0 0 1
    outer loop
      vertex -1.43228 0.25188 5
      vertex -0.740833 0.617361 5
      vertex -0.82973 0.765526 5
    endloop
  endfacet
  facet normal 0 0 1
    outer loop
      vertex -1.22484 0.0345715 5
      vertex -0.632175 0.498824 5
      vertex -0.740833 0.617361 5
    endloop
  endfacet
  facet normal 0 0 1
    outer loop
      vertex -0.0592643 0.172858 5
      vertex 0.96802 0.558093 5
      vertex -0.0592643 0.202494 5
    endloop
  endfacet
  facet normal 0 0 1
    outer loop
      vertex -0.0592643 0.172858 5
      vertex -0.237066 0.301269 5
      vertex -1.21496 -0.103715 5
    endloop
  endfacet
  facet normal 0 -0 1
    outer loop
      vertex -0.256819 -1.67428 5
      vertex -0.0592643 0.172858 5
      vertex -0.266698 -1.67428 5
    endloop
  endfacet
  facet normal 0 0 1
    outer loop
      vertex -0.256819 -1.67428 5
      vertex 1.08655 -1.42734 5
      vertex -0.0592643 0.172858 5
    endloop
  endfacet
  facet normal -0 0 1
    outer loop
      vertex -0.0592643 0.172858 5
      vertex 1.10631 -1.41746 5
      vertex 1.14582 0.350659 5
    endloop
  endfacet
  facet normal 0 0 1
    outer loop
      vertex -0.0592643 0.202494 5
      vertex 0.770465 0.775405 5
      vertex 0.572911 1.00259 5
    endloop
  endfacet
  facet normal 0 0 1
    outer loop
      vertex -0.246944 0.449439 5
      vertex 0.572911 1.00259 5
      vertex 0.34572 1.29893 5
    endloop
  endfacet
  facet normal 0 -0 1
    outer loop
      vertex -0.424742 0.706257 5
      vertex 0.34572 1.29893 5
      vertex -0.48401 0.864306 5
    endloop
  endfacet
  facet normal 0 0 1
    outer loop
      vertex 0.34572 1.29893 5
      vertex 0.0691431 1.52611 5
      vertex -0.523521 1.03222 5
    endloop
  endfacet
  facet normal 0 0 1
    outer loop
      vertex -0.523521 1.03222 5
      vertex 0.0691431 1.52611 5
      vertex -0.34572 1.68416 5
    endloop
  endfacet
  facet normal 0 0 1
    outer loop
      vertex -0.740833 1.85208 5
      vertex -0.819855 1.42734 5
      vertex -0.34572 1.68416 5
    endloop
  endfacet
  facet normal 0 0 1
    outer loop
      vertex -0.908752 1.92123 5
      vertex -1.09643 1.82245 5
      vertex -0.740833 1.85208 5
    endloop
  endfacet
  facet normal 0.391139 0.920332 -0
    outer loop
      vertex -0.740833 1.85208 0
      vertex -0.740833 1.85208 5
      vertex -0.34572 1.68416 0
    endloop
  endfacet
  facet normal 0.391139 0.920332 0
    outer loop
      vertex -0.740833 1.85208 5
      vertex -0.34572 1.68416 5
      vertex -0.34572 1.68416 0
    endloop
  endfacet
  facet normal 0.356005 0.934484 -0
    outer loop
      vertex -0.34572 1.68416 0
      vertex -0.34572 1.68416 5
      vertex 0.0691431 1.52611 0
    endloop
  endfacet
  facet normal 0.356005 0.934484 0
    outer loop
      vertex -0.34572 1.68416 5
      vertex 0.0691431 1.52611 5
      vertex 0.0691431 1.52611 0
    endloop
  endfacet
  facet normal 0.634738 0.772728 -0
    outer loop
      vertex 0.0691431 1.52611 0
      vertex 0.0691431 1.52611 5
      vertex 0.34572 1.29893 0
    endloop
  endfacet
  facet normal 0.634738 0.772728 0
    outer loop
      vertex 0.0691431 1.52611 5
      vertex 0.34572 1.29893 5
      vertex 0.34572 1.29893 0
    endloop
  endfacet
  facet normal 0.793604 0.608434 -0
    outer loop
      vertex 0.34572 1.29893 0
      vertex 0.34572 1.29893 5
      vertex 0.572911 1.00259 0
    endloop
  endfacet
  facet normal 0.793604 0.608434 0
    outer loop
      vertex 0.34572 1.29893 5
      vertex 0.572911 1.00259 5
      vertex 0.572911 1.00259 0
    endloop
  endfacet
  facet normal 0.754604 0.65618 -0
    outer loop
      vertex 0.572911 1.00259 0
      vertex 0.572911 1.00259 5
      vertex 0.770465 0.775405 0
    endloop
  endfacet
  facet normal 0.754604 0.65618 0
    outer loop
      vertex 0.572911 1.00259 5
      vertex 0.770465 0.775405 5
      vertex 0.770465 0.775405 0
    endloop
  endfacet
  facet normal 0.739943 0.672669 -0
    outer loop
      vertex 0.770465 0.775405 0
      vertex 0.770465 0.775405 5
      vertex 0.96802 0.558093 0
    endloop
  endfacet
  facet normal 0.739943 0.672669 0
    outer loop
      vertex 0.770465 0.775405 5
      vertex 0.96802 0.558093 5
      vertex 0.96802 0.558093 0
    endloop
  endfacet
  facet normal 0.759254 0.650794 -0
    outer loop
      vertex 0.96802 0.558093 0
      vertex 0.96802 0.558093 5
      vertex 1.14582 0.350659 0
    endloop
  endfacet
  facet normal 0.759254 0.650794 0
    outer loop
      vertex 0.96802 0.558093 5
      vertex 1.14582 0.350659 5
      vertex 1.14582 0.350659 0
    endloop
  endfacet
  facet normal 0.212428 0.977177 -0
    outer loop
      vertex 1.14582 0.350659 0
      vertex 1.14582 0.350659 5
      vertex 1.82739 0.202494 0
    endloop
  endfacet
  facet normal 0.212428 0.977177 0
    outer loop
      vertex 1.14582 0.350659 5
      vertex 1.82739 0.202494 5
      vertex 1.82739 0.202494 0
    endloop
  endfacet
  facet normal 0.209533 0.977802 -0
    outer loop
      vertex 1.82739 0.202494 0
      vertex 1.82739 0.202494 5
      vertex 2.51883 0.0543248 0
    endloop
  endfacet
  facet normal 0.209533 0.977802 0
    outer loop
      vertex 1.82739 0.202494 5
      vertex 2.51883 0.0543248 5
      vertex 2.51883 0.0543248 0
    endloop
  endfacet
  facet normal 0.832047 0.554705 -0
    outer loop
      vertex 2.51883 0.0543248 0
      vertex 2.51883 0.0543248 5
      vertex 2.63736 -0.123472 0
    endloop
  endfacet
  facet normal 0.832047 0.554705 0
    outer loop
      vertex 2.51883 0.0543248 5
      vertex 2.63736 -0.123472 5
      vertex 2.63736 -0.123472 0
    endloop
  endfacet
  facet normal 0.79435 0.607461 -0
    outer loop
      vertex 2.63736 -0.123472 0
      vertex 2.63736 -0.123472 5
      vertex 2.76577 -0.29139 0
    endloop
  endfacet
  facet normal 0.79435 0.607461 0
    outer loop
      vertex 2.63736 -0.123472 5
      vertex 2.76577 -0.29139 5
      vertex 2.76577 -0.29139 0
    endloop
  endfacet
  facet normal 0.824041 0.56653 -0
    outer loop
      vertex 2.76577 -0.29139 0
      vertex 2.76577 -0.29139 5
      vertex 2.87443 -0.449439 0
    endloop
  endfacet
  facet normal 0.824041 0.56653 0
    outer loop
      vertex 2.76577 -0.29139 5
      vertex 2.87443 -0.449439 5
      vertex 2.87443 -0.449439 0
    endloop
  endfacet
  facet normal 0.948685 0.316222 -0
    outer loop
      vertex 2.87443 -0.449439 0
      vertex 2.87443 -0.449439 5
      vertex 2.94358 -0.656872 0
    endloop
  endfacet
  facet normal 0.948685 0.316222 0
    outer loop
      vertex 2.87443 -0.449439 5
      vertex 2.94358 -0.656872 5
      vertex 2.94358 -0.656872 0
    endloop
  endfacet
  facet normal 0 -1 0
    outer loop
      vertex 2.94358 -0.656872 0
      vertex 2.94358 -0.656872 5
      vertex 2.92382 -0.656872 0
    endloop
  endfacet
  facet normal -0 -1 0
    outer loop
      vertex 2.94358 -0.656872 5
      vertex 2.92382 -0.656872 5
      vertex 2.92382 -0.656872 0
    endloop
  endfacet
  facet normal 0.212417 -0.977179 0
    outer loop
      vertex 2.92382 -0.656872 0
      vertex 2.92382 -0.656872 5
      vertex 2.69663 -0.706257 0
    endloop
  endfacet
  facet normal 0.212417 -0.977179 0
    outer loop
      vertex 2.92382 -0.656872 5
      vertex 2.69663 -0.706257 5
      vertex 2.69663 -0.706257 0
    endloop
  endfacet
  facet normal 0.263124 -0.964762 0
    outer loop
      vertex 2.69663 -0.706257 0
      vertex 2.69663 -0.706257 5
      vertex 2.47932 -0.765526 0
    endloop
  endfacet
  facet normal 0.263124 -0.964762 0
    outer loop
      vertex 2.69663 -0.706257 5
      vertex 2.47932 -0.765526 5
      vertex 2.47932 -0.765526 0
    endloop
  endfacet
  facet normal 0.894431 -0.447207 0
    outer loop
      vertex 2.47932 -0.765526 0
      vertex 2.47932 -0.765526 5
      vertex 2.37066 -0.982838 0
    endloop
  endfacet
  facet normal 0.894431 -0.447207 0
    outer loop
      vertex 2.47932 -0.765526 5
      vertex 2.37066 -0.982838 5
      vertex 2.37066 -0.982838 0
    endloop
  endfacet
  facet normal 0.290001 -0.957026 0
    outer loop
      vertex 2.37066 -0.982838 0
      vertex 2.37066 -0.982838 5
      vertex 2.0447 -1.08161 0
    endloop
  endfacet
  facet normal 0.290001 -0.957026 0
    outer loop
      vertex 2.37066 -0.982838 5
      vertex 2.0447 -1.08161 5
      vertex 2.0447 -1.08161 0
    endloop
  endfacet
  facet normal 0.316228 -0.948683 0
    outer loop
      vertex 2.0447 -1.08161 0
      vertex 2.0447 -1.08161 5
      vertex 1.54093 -1.24954 0
    endloop
  endfacet
  facet normal 0.316228 -0.948683 0
    outer loop
      vertex 2.0447 -1.08161 5
      vertex 1.54093 -1.24954 5
      vertex 1.54093 -1.24954 0
    endloop
  endfacet
  facet normal 0.267646 -0.963517 0
    outer loop
      vertex 1.54093 -1.24954 0
      vertex 1.54093 -1.24954 5
      vertex 1.36313 -1.29893 0
    endloop
  endfacet
  facet normal 0.267646 -0.963517 0
    outer loop
      vertex 1.54093 -1.24954 5
      vertex 1.36313 -1.29893 5
      vertex 1.36313 -1.29893 0
    endloop
  endfacet
  facet normal 0.707107 -0.707107 0
    outer loop
      vertex 1.36313 -1.29893 0
      vertex 1.36313 -1.29893 5
      vertex 1.16557 -1.49648 0
    endloop
  endfacet
  facet normal 0.707107 -0.707107 0
    outer loop
      vertex 1.36313 -1.29893 5
      vertex 1.16557 -1.49648 5
      vertex 1.16557 -1.49648 0
    endloop
  endfacet
  facet normal -0.554672 -0.832069 0
    outer loop
      vertex 1.16557 -1.49648 0
      vertex 1.16557 -1.49648 5
      vertex 1.13594 -1.47673 0
    endloop
  endfacet
  facet normal -0.554672 -0.832069 0
    outer loop
      vertex 1.16557 -1.49648 5
      vertex 1.13594 -1.47673 5
      vertex 1.13594 -1.47673 0
    endloop
  endfacet
  facet normal -0.89444 -0.447188 0
    outer loop
      vertex 1.13594 -1.47673 0
      vertex 1.13594 -1.47673 5
      vertex 1.10631 -1.41746 0
    endloop
  endfacet
  facet normal -0.89444 -0.447188 0
    outer loop
      vertex 1.13594 -1.47673 5
      vertex 1.10631 -1.41746 5
      vertex 1.10631 -1.41746 0
    endloop
  endfacet
  facet normal 0.447214 -0.894427 0
    outer loop
      vertex 1.10631 -1.41746 0
      vertex 1.10631 -1.41746 5
      vertex 1.08655 -1.42734 0
    endloop
  endfacet
  facet normal 0.447214 -0.894427 0
    outer loop
      vertex 1.10631 -1.41746 5
      vertex 1.08655 -1.42734 5
      vertex 1.08655 -1.42734 0
    endloop
  endfacet
  facet normal 0.933344 -0.358983 0
    outer loop
      vertex 1.08655 -1.42734 0
      vertex 1.08655 -1.42734 5
      vertex 1.03716 -1.55575 0
    endloop
  endfacet
  facet normal 0.933344 -0.358983 0
    outer loop
      vertex 1.08655 -1.42734 5
      vertex 1.03716 -1.55575 5
      vertex 1.03716 -1.55575 0
    endloop
  endfacet
  facet normal 0.780862 -0.624703 0
    outer loop
      vertex 1.03716 -1.55575 0
      vertex 1.03716 -1.55575 5
      vertex 0.958141 -1.65452 0
    endloop
  endfacet
  facet normal 0.780862 -0.624703 0
    outer loop
      vertex 1.03716 -1.55575 5
      vertex 0.958141 -1.65452 5
      vertex 0.958141 -1.65452 0
    endloop
  endfacet
  facet normal 0.316269 -0.94867 0
    outer loop
      vertex 0.958141 -1.65452 0
      vertex 0.958141 -1.65452 5
      vertex 0.898877 -1.67428 0
    endloop
  endfacet
  facet normal 0.316269 -0.94867 0
    outer loop
      vertex 0.958141 -1.65452 5
      vertex 0.898877 -1.67428 5
      vertex 0.898877 -1.67428 0
    endloop
  endfacet
  facet normal 0.85748 -0.514518 0
    outer loop
      vertex 0.898877 -1.67428 0
      vertex 0.898877 -1.67428 5
      vertex 0.839609 -1.77306 0
    endloop
  endfacet
  facet normal 0.85748 -0.514518 0
    outer loop
      vertex 0.898877 -1.67428 5
      vertex 0.839609 -1.77306 5
      vertex 0.839609 -1.77306 0
    endloop
  endfacet
  facet normal 0.298281 -0.954478 0
    outer loop
      vertex 0.839609 -1.77306 0
      vertex 0.839609 -1.77306 5
      vertex 0.681565 -1.82245 0
    endloop
  endfacet
  facet normal 0.298281 -0.954478 0
    outer loop
      vertex 0.839609 -1.77306 5
      vertex 0.681565 -1.82245 5
      vertex 0.681565 -1.82245 0
    endloop
  endfacet
  facet normal 0.202612 -0.979259 0
    outer loop
      vertex 0.681565 -1.82245 0
      vertex 0.681565 -1.82245 5
      vertex 0.395109 -1.88172 0
    endloop
  endfacet
  facet normal 0.202612 -0.979259 0
    outer loop
      vertex 0.681565 -1.82245 5
      vertex 0.395109 -1.88172 5
      vertex 0.395109 -1.88172 0
    endloop
  endfacet
  facet normal 0.132163 -0.991228 0
    outer loop
      vertex 0.395109 -1.88172 0
      vertex 0.395109 -1.88172 5
      vertex 0.0987752 -1.92123 0
    endloop
  endfacet
  facet normal 0.132163 -0.991228 0
    outer loop
      vertex 0.395109 -1.88172 5
      vertex 0.0987752 -1.92123 5
      vertex 0.0987752 -1.92123 0
    endloop
  endfacet
  facet normal -0.052566 -0.998617 0
    outer loop
      vertex 0.0987752 -1.92123 0
      vertex 0.0987752 -1.92123 5
      vertex -0.0888964 -1.91135 0
    endloop
  endfacet
  facet normal -0.052566 -0.998617 0
    outer loop
      vertex 0.0987752 -1.92123 5
      vertex -0.0888964 -1.91135 5
      vertex -0.0888964 -1.91135 0
    endloop
  endfacet
  facet normal -0.707107 -0.707107 0
    outer loop
      vertex -0.0888964 -1.91135 0
      vertex -0.0888964 -1.91135 5
      vertex -0.187676 -1.81257 0
    endloop
  endfacet
  facet normal -0.707107 -0.707107 0
    outer loop
      vertex -0.0888964 -1.91135 5
      vertex -0.187676 -1.81257 5
      vertex -0.187676 -1.81257 0
    endloop
  endfacet
  facet normal -0.894427 -0.447214 0
    outer loop
      vertex -0.187676 -1.81257 0
      vertex -0.187676 -1.81257 5
      vertex -0.256819 -1.67428 0
    endloop
  endfacet
  facet normal -0.894427 -0.447214 0
    outer loop
      vertex -0.187676 -1.81257 5
      vertex -0.256819 -1.67428 5
      vertex -0.256819 -1.67428 0
    endloop
  endfacet
  facet normal 0 -1 0
    outer loop
      vertex -0.256819 -1.67428 0
      vertex -0.256819 -1.67428 5
      vertex -0.266698 -1.67428 0
    endloop
  endfacet
  facet normal -0 -1 0
    outer loop
      vertex -0.256819 -1.67428 5
      vertex -0.266698 -1.67428 5
      vertex -0.266698 -1.67428 0
    endloop
  endfacet
  facet normal 1 0 -0
    outer loop
      vertex -0.266698 -1.67428 0
      vertex -0.266698 -1.67428 5
      vertex -0.266698 -1.80269 0
    endloop
  endfacet
  facet normal 1 0 0
    outer loop
      vertex -0.266698 -1.67428 5
      vertex -0.266698 -1.80269 5
      vertex -0.266698 -1.80269 0
    endloop
  endfacet
  facet normal -0.164414 -0.986391 0
    outer loop
      vertex -0.266698 -1.80269 0
      vertex -0.266698 -1.80269 5
      vertex -0.444499 -1.77306 0
    endloop
  endfacet
  facet normal -0.164414 -0.986391 0
    outer loop
      vertex -0.266698 -1.80269 5
      vertex -0.444499 -1.77306 5
      vertex -0.444499 -1.77306 0
    endloop
  endfacet
  facet normal -0.206012 -0.97855 0
    outer loop
      vertex -0.444499 -1.77306 0
      vertex -0.444499 -1.77306 5
      vertex -0.632175 -1.73355 0
    endloop
  endfacet
  facet normal -0.206012 -0.97855 0
    outer loop
      vertex -0.444499 -1.77306 5
      vertex -0.632175 -1.73355 5
      vertex -0.632175 -1.73355 0
    endloop
  endfacet
  facet normal 0.135117 -0.99083 0
    outer loop
      vertex -0.632175 -1.73355 0
      vertex -0.632175 -1.73355 5
      vertex -1.0668 -1.79281 0
    endloop
  endfacet
  facet normal 0.135117 -0.99083 0
    outer loop
      vertex -0.632175 -1.73355 5
      vertex -1.0668 -1.79281 5
      vertex -1.0668 -1.79281 0
    endloop
  endfacet
  facet normal 0.112912 -0.993605 0
    outer loop
      vertex -1.0668 -1.79281 0
      vertex -1.0668 -1.79281 5
      vertex -1.50142 -1.8422 0
    endloop
  endfacet
  facet normal 0.112912 -0.993605 0
    outer loop
      vertex -1.0668 -1.79281 5
      vertex -1.50142 -1.8422 5
      vertex -1.50142 -1.8422 0
    endloop
  endfacet
  facet normal 0.141439 -0.989947 0
    outer loop
      vertex -1.50142 -1.8422 0
      vertex -1.50142 -1.8422 5
      vertex -1.57056 -1.85208 0
    endloop
  endfacet
  facet normal 0.141439 -0.989947 0
    outer loop
      vertex -1.50142 -1.8422 5
      vertex -1.57056 -1.85208 5
      vertex -1.57056 -1.85208 0
    endloop
  endfacet
  facet normal 0.216905 -0.976193 0
    outer loop
      vertex -1.57056 -1.85208 0
      vertex -1.57056 -1.85208 5
      vertex -1.65946 -1.87184 0
    endloop
  endfacet
  facet normal 0.216905 -0.976193 0
    outer loop
      vertex -1.57056 -1.85208 5
      vertex -1.65946 -1.87184 5
      vertex -1.65946 -1.87184 0
    endloop
  endfacet
  facet normal 0 -1 0
    outer loop
      vertex -1.65946 -1.87184 0
      vertex -1.65946 -1.87184 5
      vertex -1.75824 -1.87184 0
    endloop
  endfacet
  facet normal -0 -1 0
    outer loop
      vertex -1.65946 -1.87184 5
      vertex -1.75824 -1.87184 5
      vertex -1.75824 -1.87184 0
    endloop
  endfacet
  facet normal -0.371349 -0.928493 0
    outer loop
      vertex -1.75824 -1.87184 0
      vertex -1.75824 -1.87184 5
      vertex -1.80763 -1.85208 0
    endloop
  endfacet
  facet normal -0.371349 -0.928493 0
    outer loop
      vertex -1.75824 -1.87184 5
      vertex -1.80763 -1.85208 5
      vertex -1.80763 -1.85208 0
    endloop
  endfacet
  facet normal -0.780875 -0.624687 0
    outer loop
      vertex -1.80763 -1.85208 0
      vertex -1.80763 -1.85208 5
      vertex -1.92617 -1.70391 0
    endloop
  endfacet
  facet normal -0.780875 -0.624687 0
    outer loop
      vertex -1.80763 -1.85208 5
      vertex -1.92617 -1.70391 5
      vertex -1.92617 -1.70391 0
    endloop
  endfacet
  facet normal 0.196119 -0.98058 0
    outer loop
      vertex -1.92617 -1.70391 0
      vertex -1.92617 -1.70391 5
      vertex -2.17311 -1.7533 0
    endloop
  endfacet
  facet normal 0.196119 -0.98058 0
    outer loop
      vertex -1.92617 -1.70391 5
      vertex -2.17311 -1.7533 5
      vertex -2.17311 -1.7533 0
    endloop
  endfacet
  facet normal 0.164399 -0.986394 0
    outer loop
      vertex -2.17311 -1.7533 0
      vertex -2.17311 -1.7533 5
      vertex -2.41018 -1.79281 0
    endloop
  endfacet
  facet normal 0.164399 -0.986394 0
    outer loop
      vertex -2.17311 -1.7533 5
      vertex -2.41018 -1.79281 5
      vertex -2.41018 -1.79281 0
    endloop
  endfacet
  facet normal -0.805055 -0.5932 0
    outer loop
      vertex -2.41018 -1.79281 0
      vertex -2.41018 -1.79281 5
      vertex -2.82504 -1.22978 0
    endloop
  endfacet
  facet normal -0.805055 -0.5932 0
    outer loop
      vertex -2.41018 -1.79281 5
      vertex -2.82504 -1.22978 5
      vertex -2.82504 -1.22978 0
    endloop
  endfacet
  facet normal -1 0 0
    outer loop
      vertex -2.82504 -1.22978 0
      vertex -2.82504 -1.22978 5
      vertex -2.82504 -1.09149 0
    endloop
  endfacet
  facet normal -1 0 0
    outer loop
      vertex -2.82504 -1.22978 5
      vertex -2.82504 -1.09149 5
      vertex -2.82504 -1.09149 0
    endloop
  endfacet
  facet normal -0.874155 0.485647 0
    outer loop
      vertex -2.82504 -1.09149 0
      vertex -2.82504 -1.09149 5
      vertex -2.77565 -1.00259 0
    endloop
  endfacet
  facet normal -0.874155 0.485647 0
    outer loop
      vertex -2.82504 -1.09149 5
      vertex -2.77565 -1.00259 5
      vertex -2.77565 -1.00259 0
    endloop
  endfacet
  facet normal -0.694811 0.719193 0
    outer loop
      vertex -2.77565 -1.00259 0
      vertex -2.77565 -1.00259 5
      vertex -2.19286 -0.43956 0
    endloop
  endfacet
  facet normal -0.694811 0.719193 0
    outer loop
      vertex -2.77565 -1.00259 5
      vertex -2.19286 -0.43956 5
      vertex -2.19286 -0.43956 0
    endloop
  endfacet
  facet normal -0.707107 -0.707107 0
    outer loop
      vertex -2.19286 -0.43956 0
      vertex -2.19286 -0.43956 5
      vertex -2.21262 -0.419802 0
    endloop
  endfacet
  facet normal -0.707107 -0.707107 0
    outer loop
      vertex -2.19286 -0.43956 5
      vertex -2.21262 -0.419802 5
      vertex -2.21262 -0.419802 0
    endloop
  endfacet
  facet normal -0.829721 -0.558179 0
    outer loop
      vertex -2.21262 -0.419802 0
      vertex -2.21262 -0.419802 5
      vertex -2.5781 0.123472 0
    endloop
  endfacet
  facet normal -0.829721 -0.558179 0
    outer loop
      vertex -2.21262 -0.419802 5
      vertex -2.5781 0.123472 5
      vertex -2.5781 0.123472 0
    endloop
  endfacet
  facet normal -0.841178 -0.540758 0
    outer loop
      vertex -2.5781 0.123472 0
      vertex -2.5781 0.123472 5
      vertex -2.9337 0.676625 0
    endloop
  endfacet
  facet normal -0.841178 -0.540758 0
    outer loop
      vertex -2.5781 0.123472 5
      vertex -2.9337 0.676625 5
      vertex -2.9337 0.676625 0
    endloop
  endfacet
  facet normal -0.996545 -0.0830545 0
    outer loop
      vertex -2.9337 0.676625 0
      vertex -2.9337 0.676625 5
      vertex -2.94358 0.795158 0
    endloop
  endfacet
  facet normal -0.996545 -0.0830545 0
    outer loop
      vertex -2.9337 0.676625 5
      vertex -2.94358 0.795158 5
      vertex -2.94358 0.795158 0
    endloop
  endfacet
  facet normal -0.980583 0.196105 0
    outer loop
      vertex -2.94358 0.795158 0
      vertex -2.94358 0.795158 5
      vertex -2.91394 0.943327 0
    endloop
  endfacet
  facet normal -0.980583 0.196105 0
    outer loop
      vertex -2.94358 0.795158 5
      vertex -2.91394 0.943327 5
      vertex -2.91394 0.943327 0
    endloop
  endfacet
  facet normal -0.948681 0.316236 0
    outer loop
      vertex -2.91394 0.943327 0
      vertex -2.91394 0.943327 5
      vertex -2.86455 1.09149 0
    endloop
  endfacet
  facet normal -0.948681 0.316236 0
    outer loop
      vertex -2.91394 0.943327 5
      vertex -2.86455 1.09149 5
      vertex -2.86455 1.09149 0
    endloop
  endfacet
  facet normal -0.928479 0.371384 0
    outer loop
      vertex -2.86455 1.09149 0
      vertex -2.86455 1.09149 5
      vertex -2.82504 1.19027 0
    endloop
  endfacet
  facet normal -0.928479 0.371384 0
    outer loop
      vertex -2.86455 1.09149 5
      vertex -2.82504 1.19027 5
      vertex -2.82504 1.19027 0
    endloop
  endfacet
  facet normal -0.988937 0.148335 0
    outer loop
      vertex -2.82504 1.19027 0
      vertex -2.82504 1.19027 5
      vertex -2.79541 1.38783 0
    endloop
  endfacet
  facet normal -0.988937 0.148335 0
    outer loop
      vertex -2.82504 1.19027 5
      vertex -2.79541 1.38783 5
      vertex -2.79541 1.38783 0
    endloop
  endfacet
  facet normal -0.91381 0.406143 0
    outer loop
      vertex -2.79541 1.38783 0
      vertex -2.79541 1.38783 5
      vertex -2.71639 1.56562 0
    endloop
  endfacet
  facet normal -0.91381 0.406143 0
    outer loop
      vertex -2.79541 1.38783 5
      vertex -2.71639 1.56562 5
      vertex -2.71639 1.56562 0
    endloop
  endfacet
  facet normal -0.196133 0.980577 0
    outer loop
      vertex -2.71639 1.56562 0
      vertex -2.71639 1.56562 5
      vertex -2.667 1.5755 0
    endloop
  endfacet
  facet normal -0.196133 0.980577 0
    outer loop
      vertex -2.71639 1.56562 5
      vertex -2.667 1.5755 5
      vertex -2.667 1.5755 0
    endloop
  endfacet
  facet normal -0.164411 0.986392 0
    outer loop
      vertex -2.667 1.5755 0
      vertex -2.667 1.5755 5
      vertex -2.60773 1.58538 0
    endloop
  endfacet
  facet normal -0.164411 0.986392 0
    outer loop
      vertex -2.667 1.5755 5
      vertex -2.60773 1.58538 5
      vertex -2.60773 1.58538 0
    endloop
  endfacet
  facet normal 0.745237 0.666799 -0
    outer loop
      vertex -2.60773 1.58538 0
      vertex -2.60773 1.58538 5
      vertex -2.43981 1.39771 0
    endloop
  endfacet
  facet normal 0.745237 0.666799 0
    outer loop
      vertex -2.60773 1.58538 5
      vertex -2.43981 1.39771 5
      vertex -2.43981 1.39771 0
    endloop
  endfacet
  facet normal 0.800008 0.599989 -0
    outer loop
      vertex -2.43981 1.39771 0
      vertex -2.43981 1.39771 5
      vertex -2.29164 1.20015 0
    endloop
  endfacet
  facet normal 0.800008 0.599989 0
    outer loop
      vertex -2.43981 1.39771 5
      vertex -2.29164 1.20015 5
      vertex -2.29164 1.20015 0
    endloop
  endfacet
  facet normal 0.777628 0.628725 -0
    outer loop
      vertex -2.29164 1.20015 0
      vertex -2.29164 1.20015 5
      vertex -1.91629 0.735894 0
    endloop
  endfacet
  facet normal 0.777628 0.628725 0
    outer loop
      vertex -2.29164 1.20015 5
      vertex -1.91629 0.735894 5
      vertex -1.91629 0.735894 0
    endloop
  endfacet
  facet normal 0.770961 0.636882 -0
    outer loop
      vertex -1.91629 0.735894 0
      vertex -1.91629 0.735894 5
      vertex -1.54093 0.281516 0
    endloop
  endfacet
  facet normal 0.770961 0.636882 0
    outer loop
      vertex -1.91629 0.735894 5
      vertex -1.54093 0.281516 5
      vertex -1.54093 0.281516 0
    endloop
  endfacet
  facet normal 0.813737 0.581233 -0
    outer loop
      vertex -1.54093 0.281516 0
      vertex -1.54093 0.281516 5
      vertex -1.39277 0.0740825 0
    endloop
  endfacet
  facet normal 0.813737 0.581233 0
    outer loop
      vertex -1.54093 0.281516 5
      vertex -1.39277 0.0740825 5
      vertex -1.39277 0.0740825 0
    endloop
  endfacet
  facet normal 0.707098 0.707115 -0
    outer loop
      vertex -1.39277 0.0740825 0
      vertex -1.39277 0.0740825 5
      vertex -1.21496 -0.103715 0
    endloop
  endfacet
  facet normal 0.707098 0.707115 0
    outer loop
      vertex -1.39277 0.0740825 5
      vertex -1.21496 -0.103715 5
      vertex -1.21496 -0.103715 0
    endloop
  endfacet
  facet normal -0.989947 -0.141439 0
    outer loop
      vertex -1.21496 -0.103715 0
      vertex -1.21496 -0.103715 5
      vertex -1.22484 -0.0345715 0
    endloop
  endfacet
  facet normal -0.989947 -0.141439 0
    outer loop
      vertex -1.21496 -0.103715 5
      vertex -1.22484 -0.0345715 5
      vertex -1.22484 -0.0345715 0
    endloop
  endfacet
  facet normal -1 0 0
    outer loop
      vertex -1.22484 -0.0345715 0
      vertex -1.22484 -0.0345715 5
      vertex -1.22484 0.0345715 0
    endloop
  endfacet
  facet normal -1 0 0
    outer loop
      vertex -1.22484 -0.0345715 5
      vertex -1.22484 0.0345715 5
      vertex -1.22484 0.0345715 0
    endloop
  endfacet
  facet normal -0.707107 -0.707107 0
    outer loop
      vertex -1.22484 0.0345715 0
      vertex -1.22484 0.0345715 5
      vertex -1.31374 0.123472 0
    endloop
  endfacet
  facet normal -0.707107 -0.707107 0
    outer loop
      vertex -1.22484 0.0345715 5
      vertex -1.31374 0.123472 5
      vertex -1.31374 0.123472 0
    endloop
  endfacet
  facet normal -0.734795 -0.678289 0
    outer loop
      vertex -1.31374 0.123472 0
      vertex -1.31374 0.123472 5
      vertex -1.43228 0.25188 0
    endloop
  endfacet
  facet normal -0.734795 -0.678289 0
    outer loop
      vertex -1.31374 0.123472 5
      vertex -1.43228 0.25188 5
      vertex -1.43228 0.25188 0
    endloop
  endfacet
  facet normal -0.841179 -0.540756 0
    outer loop
      vertex -1.43228 0.25188 0
      vertex -1.43228 0.25188 5
      vertex -1.52118 0.39017 0
    endloop
  endfacet
  facet normal -0.841179 -0.540756 0
    outer loop
      vertex -1.43228 0.25188 5
      vertex -1.52118 0.39017 5
      vertex -1.52118 0.39017 0
    endloop
  endfacet
  facet normal -0.923086 -0.384594 0
    outer loop
      vertex -1.52118 0.39017 0
      vertex -1.52118 0.39017 5
      vertex -1.57056 0.508703 0
    endloop
  endfacet
  facet normal -0.923086 -0.384594 0
    outer loop
      vertex -1.52118 0.39017 5
      vertex -1.57056 0.508703 5
      vertex -1.57056 0.508703 0
    endloop
  endfacet
  facet normal -0.998461 0.0554513 0
    outer loop
      vertex -1.57056 0.508703 0
      vertex -1.57056 0.508703 5
      vertex -1.56069 0.686504 0
    endloop
  endfacet
  facet normal -0.998461 0.0554513 0
    outer loop
      vertex -1.57056 0.508703 5
      vertex -1.56069 0.686504 5
      vertex -1.56069 0.686504 0
    endloop
  endfacet
  facet normal -0.839564 0.54326 0
    outer loop
      vertex -1.56069 0.686504 0
      vertex -1.56069 0.686504 5
      vertex -1.45203 0.854427 0
    endloop
  endfacet
  facet normal -0.839564 0.54326 0
    outer loop
      vertex -1.56069 0.686504 5
      vertex -1.45203 0.854427 5
      vertex -1.45203 0.854427 0
    endloop
  endfacet
  facet normal -0.485639 0.874159 0
    outer loop
      vertex -1.45203 0.854427 0
      vertex -1.45203 0.854427 5
      vertex -1.27423 0.953202 0
    endloop
  endfacet
  facet normal -0.485639 0.874159 0
    outer loop
      vertex -1.45203 0.854427 5
      vertex -1.27423 0.953202 5
      vertex -1.27423 0.953202 0
    endloop
  endfacet
  facet normal -0.104694 0.994504 0
    outer loop
      vertex -1.27423 0.953202 0
      vertex -1.27423 0.953202 5
      vertex -1.08655 0.97296 0
    endloop
  endfacet
  facet normal -0.104694 0.994504 0
    outer loop
      vertex -1.27423 0.953202 5
      vertex -1.08655 0.97296 5
      vertex -1.08655 0.97296 0
    endloop
  endfacet
  facet normal 0.470591 0.882352 -0
    outer loop
      vertex -1.08655 0.97296 0
      vertex -1.08655 0.97296 5
      vertex -0.938388 0.893938 0
    endloop
  endfacet
  facet normal 0.470591 0.882352 0
    outer loop
      vertex -1.08655 0.97296 5
      vertex -0.938388 0.893938 5
      vertex -0.938388 0.893938 0
    endloop
  endfacet
  facet normal 0.763379 0.64595 -0
    outer loop
      vertex -0.938388 0.893938 0
      vertex -0.938388 0.893938 5
      vertex -0.82973 0.765526 0
    endloop
  endfacet
  facet normal 0.763379 0.64595 0
    outer loop
      vertex -0.938388 0.893938 5
      vertex -0.82973 0.765526 5
      vertex -0.82973 0.765526 0
    endloop
  endfacet
  facet normal 0.8575 0.514485 -0
    outer loop
      vertex -0.82973 0.765526 0
      vertex -0.82973 0.765526 5
      vertex -0.740833 0.617361 0
    endloop
  endfacet
  facet normal 0.8575 0.514485 0
    outer loop
      vertex -0.82973 0.765526 5
      vertex -0.740833 0.617361 5
      vertex -0.740833 0.617361 0
    endloop
  endfacet
  facet normal 0.737156 0.675722 -0
    outer loop
      vertex -0.740833 0.617361 0
      vertex -0.740833 0.617361 5
      vertex -0.632175 0.498824 0
    endloop
  endfacet
  facet normal 0.737156 0.675722 0
    outer loop
      vertex -0.740833 0.617361 5
      vertex -0.632175 0.498824 5
      vertex -0.632175 0.498824 0
    endloop
  endfacet
  facet normal 0.34174 0.939795 -0
    outer loop
      vertex -0.632175 0.498824 0
      vertex -0.632175 0.498824 5
      vertex -0.414863 0.419802 0
    endloop
  endfacet
  facet normal 0.34174 0.939795 0
    outer loop
      vertex -0.632175 0.498824 5
      vertex -0.414863 0.419802 5
      vertex -0.414863 0.419802 0
    endloop
  endfacet
  facet normal 0.554705 0.832047 -0
    outer loop
      vertex -0.414863 0.419802 0
      vertex -0.414863 0.419802 5
      vertex -0.237066 0.301269 0
    endloop
  endfacet
  facet normal 0.554705 0.832047 0
    outer loop
      vertex -0.414863 0.419802 5
      vertex -0.237066 0.301269 5
      vertex -0.237066 0.301269 0
    endloop
  endfacet
  facet normal 0.585489 0.81068 -0
    outer loop
      vertex -0.237066 0.301269 0
      vertex -0.237066 0.301269 5
      vertex -0.0592643 0.172858 0
    endloop
  endfacet
  facet normal 0.585489 0.81068 0
    outer loop
      vertex -0.237066 0.301269 5
      vertex -0.0592643 0.172858 5
      vertex -0.0592643 0.172858 0
    endloop
  endfacet
  facet normal -1 0 0
    outer loop
      vertex -0.0592643 0.172858 0
      vertex -0.0592643 0.172858 5
      vertex -0.0592643 0.202494 0
    endloop
  endfacet
  facet normal -1 0 0
    outer loop
      vertex -0.0592643 0.172858 5
      vertex -0.0592643 0.202494 5
      vertex -0.0592643 0.202494 0
    endloop
  endfacet
  facet normal -0.796158 -0.605088 0
    outer loop
      vertex -0.0592643 0.202494 0
      vertex -0.0592643 0.202494 5
      vertex -0.246944 0.449439 0
    endloop
  endfacet
  facet normal -0.796158 -0.605088 0
    outer loop
      vertex -0.0592643 0.202494 5
      vertex -0.246944 0.449439 5
      vertex -0.246944 0.449439 0
    endloop
  endfacet
  facet normal -0.822193 -0.569209 0
    outer loop
      vertex -0.246944 0.449439 0
      vertex -0.246944 0.449439 5
      vertex -0.424742 0.706257 0
    endloop
  endfacet
  facet normal -0.822193 -0.569209 0
    outer loop
      vertex -0.246944 0.449439 5
      vertex -0.424742 0.706257 5
      vertex -0.424742 0.706257 0
    endloop
  endfacet
  facet normal -0.936328 -0.351126 0
    outer loop
      vertex -0.424742 0.706257 0
      vertex -0.424742 0.706257 5
      vertex -0.48401 0.864306 0
    endloop
  endfacet
  facet normal -0.936328 -0.351126 0
    outer loop
      vertex -0.424742 0.706257 5
      vertex -0.48401 0.864306 5
      vertex -0.48401 0.864306 0
    endloop
  endfacet
  facet normal -0.973416 -0.229044 0
    outer loop
      vertex -0.48401 0.864306 0
      vertex -0.48401 0.864306 5
      vertex -0.523521 1.03222 0
    endloop
  endfacet
  facet normal -0.973416 -0.229044 0
    outer loop
      vertex -0.48401 0.864306 5
      vertex -0.523521 1.03222 5
      vertex -0.523521 1.03222 0
    endloop
  endfacet
  facet normal -0.800001 -0.599999 0
    outer loop
      vertex -0.523521 1.03222 0
      vertex -0.523521 1.03222 5
      vertex -0.819855 1.42734 0
    endloop
  endfacet
  facet normal -0.800001 -0.599999 0
    outer loop
      vertex -0.523521 1.03222 5
      vertex -0.819855 1.42734 5
      vertex -0.819855 1.42734 0
    endloop
  endfacet
  facet normal -0.819232 -0.573462 0
    outer loop
      vertex -0.819855 1.42734 0
      vertex -0.819855 1.42734 5
      vertex -1.09643 1.82245 0
    endloop
  endfacet
  facet normal -0.819232 -0.573462 0
    outer loop
      vertex -0.819855 1.42734 5
      vertex -1.09643 1.82245 5
      vertex -1.09643 1.82245 0
    endloop
  endfacet
  facet normal -0.976183 0.21695 0
    outer loop
      vertex -1.09643 1.82245 0
      vertex -1.09643 1.82245 5
      vertex -1.07667 1.91135 0
    endloop
  endfacet
  facet normal -0.976183 0.21695 0
    outer loop
      vertex -1.09643 1.82245 5
      vertex -1.07667 1.91135 5
      vertex -1.07667 1.91135 0
    endloop
  endfacet
  facet normal -0.058728 0.998274 0
    outer loop
      vertex -1.07667 1.91135 0
      vertex -1.07667 1.91135 5
      vertex -0.908752 1.92123 0
    endloop
  endfacet
  facet normal -0.058728 0.998274 0
    outer loop
      vertex -1.07667 1.91135 5
      vertex -0.908752 1.92123 5
      vertex -0.908752 1.92123 0
    endloop
  endfacet
  facet normal 0.380751 0.924678 -0
    outer loop
      vertex -0.908752 1.92123 0
      vertex -0.908752 1.92123 5
      vertex -0.740833 1.85208 0
    endloop
  endfacet
  facet normal 0.380751 0.924678 0
    outer loop
      vertex -0.908752 1.92123 5
      vertex -0.740833 1.85208 5
      vertex -0.740833 1.85208 0
    endloop
  endfacet
endsolid OpenSCAD_Model
