solid OpenSCAD_Model
  facet normal 0 0 -1
    outer loop
      vertex -0.730955 -0.276577 0
      vertex -0.869241 -0.217308 0
      vertex -0.632175 -0.256819 0
    endloop
  endfacet
  facet normal 0 -0 -1
    outer loop
      vertex -1.93604 1.71873 0
      vertex -1.89653 1.6002 0
      vertex -1.99531 1.5113 0
    endloop
  endfacet
  facet normal 0 0 -1
    outer loop
      vertex 2.77565 -1.48167 0
      vertex 2.8448 -1.49154 0
      vertex 2.80529 -1.71873 0
    endloop
  endfacet
  facet normal 0 0 -1
    outer loop
      vertex -3.00284 -0.928509 0
      vertex -2.91394 -0.987778 0
      vertex -2.95345 -1.00753 0
    endloop
  endfacet
  facet normal 0 0 -1
    outer loop
      vertex -0.987778 0.879119 0
      vertex -0.691444 1.32362 0
      vertex -0.572911 1.27423 0
    endloop
  endfacet
  facet normal 0 0 -1
    outer loop
      vertex -0.118533 1.01741 0
      vertex -0.454374 1.21496 0
      vertex -0.158044 1.17545 0
    endloop
  endfacet
  facet normal -0 0 -1
    outer loop
      vertex -0.118533 1.01741 0
      vertex -0.632175 0.572911 0
      vertex -0.454374 1.21496 0
    endloop
  endfacet
  facet normal 0 0 -1
    outer loop
      vertex -0.0987752 1.61007 0
      vertex 0.0395109 1.55081 0
      vertex 0.0395109 1.41252 0
    endloop
  endfacet
  facet normal 0 -0 -1
    outer loop
      vertex -0.0987752 1.61007 0
      vertex 0.0395109 1.41252 0
      vertex -0.197555 1.57056 0
    endloop
  endfacet
  facet normal 0 0 -1
    outer loop
      vertex 0.0395109 1.41252 0
      vertex -0.29633 1.48167 0
      vertex -0.197555 1.57056 0
    endloop
  endfacet
  facet normal 0 0 -1
    outer loop
      vertex -0.158044 1.17545 0
      vertex -0.29633 1.48167 0
      vertex 0.0395109 1.41252 0
    endloop
  endfacet
  facet normal 0 0 -1
    outer loop
      vertex -0.454374 1.21496 0
      vertex -0.29633 1.48167 0
      vertex -0.158044 1.17545 0
    endloop
  endfacet
  facet normal 0 0 -1
    outer loop
      vertex 1.44215 -0.227187 0
      vertex 0.987778 -0.34572 0
      vertex 0.82973 -0.246944 0
    endloop
  endfacet
  facet normal 0 0 -1
    outer loop
      vertex -0.632175 -0.256819 0
      vertex -0.869241 -0.217308 0
      vertex -0.948263 -0.108654 0
    endloop
  endfacet
  facet normal 0 0 -1
    outer loop
      vertex 0.82973 0.977899 0
      vertex 0.948263 1.04704 0
      vertex 1.54093 0.543274 0
    endloop
  endfacet
  facet normal 0 0 -1
    outer loop
      vertex 0.750708 0.987778 0
      vertex 0.217308 1.1557 0
      vertex 0.671686 1.11619 0
    endloop
  endfacet
  facet normal 0 0 -1
    outer loop
      vertex 2.8448 -0.43462 0
      vertex 3.09174 -0.780344 0
      vertex 3.00284 -0.800098 0
    endloop
  endfacet
  facet normal 0 0 -1
    outer loop
      vertex 0.0790219 1.01741 0
      vertex 0.217308 1.1557 0
      vertex 0.750708 0.987778 0
    endloop
  endfacet
  facet normal 0 0 -1
    outer loop
      vertex 2.96333 0.454374 0
      vertex 3.04236 0.503763 0
      vertex 3.03248 0.424742 0
    endloop
  endfacet
  facet normal -0 -0 -1
    outer loop
      vertex 1.46191 1.09643 0
      vertex 1.6002 0.721076 0
      vertex 1.12606 1.11619 0
    endloop
  endfacet
  facet normal 0 0 -1
    outer loop
      vertex 1.46191 1.09643 0
      vertex 1.12606 1.11619 0
      vertex 1.14582 1.28411 0
    endloop
  endfacet
  facet normal 0 0 -1
    outer loop
      vertex 1.30387 1.52118 0
      vertex 1.40264 1.54093 0
      vertex 1.50142 1.45203 0
    endloop
  endfacet
  facet normal 0 -0 -1
    outer loop
      vertex 1.30387 1.52118 0
      vertex 1.50142 1.45203 0
      vertex 1.20509 1.41252 0
    endloop
  endfacet
  facet normal 0 -0 -1
    outer loop
      vertex 1.50142 1.45203 0
      vertex 1.54093 1.31374 0
      vertex 1.48167 1.22484 0
    endloop
  endfacet
  facet normal 0 0 -1
    outer loop
      vertex 1.50142 1.45203 0
      vertex 1.48167 1.22484 0
      vertex 1.20509 1.41252 0
    endloop
  endfacet
  facet normal 0 0 -1
    outer loop
      vertex 1.48167 1.22484 0
      vertex 1.14582 1.28411 0
      vertex 1.20509 1.41252 0
    endloop
  endfacet
  facet normal -0 0 -1
    outer loop
      vertex 1.6002 0.721076 0
      vertex 1.54093 0.543274 0
      vertex 1.12606 1.11619 0
    endloop
  endfacet
  facet normal 0 0 -1
    outer loop
      vertex 1.46191 1.09643 0
      vertex 1.14582 1.28411 0
      vertex 1.48167 1.22484 0
    endloop
  endfacet
  facet normal 0 0 -1
    outer loop
      vertex 2.94358 1.21496 0
      vertex 3.10162 0.869241 0
      vertex 2.94358 0.908752 0
    endloop
  endfacet
  facet normal 0 0 -1
    outer loop
      vertex 2.80529 0.454374 0
      vertex 2.82504 0.5334 0
      vertex 2.88431 0.464252 0
    endloop
  endfacet
  facet normal -0 0 -1
    outer loop
      vertex 3.31893 1.27423 0
      vertex 2.94358 1.21496 0
      vertex 3.23991 1.40264 0
    endloop
  endfacet
  facet normal 0 0 -1
    outer loop
      vertex 3.23991 1.40264 0
      vertex 3.00284 1.40264 0
      vertex 3.1115 1.48167 0
    endloop
  endfacet
  facet normal 0 0 -1
    outer loop
      vertex 2.94358 1.21496 0
      vertex 3.00284 1.40264 0
      vertex 3.23991 1.40264 0
    endloop
  endfacet
  facet normal 0 0 -1
    outer loop
      vertex 3.27942 1.01741 0
      vertex 2.94358 1.21496 0
      vertex 3.31893 1.27423 0
    endloop
  endfacet
  facet normal 0 0 -1
    outer loop
      vertex 3.10162 0.869241 0
      vertex 2.94358 1.21496 0
      vertex 3.27942 1.01741 0
    endloop
  endfacet
  facet normal 0 -0 -1
    outer loop
      vertex 2.90406 0.582785 0
      vertex 2.96333 0.454374 0
      vertex 2.88431 0.464252 0
    endloop
  endfacet
  facet normal 0 0 -1
    outer loop
      vertex 2.96333 0.454374 0
      vertex 2.92382 0.187676 0
      vertex 2.83492 0.217308 0
    endloop
  endfacet
  facet normal 0 -0 -1
    outer loop
      vertex 3.01272 0.543274 0
      vertex 3.04236 0.503763 0
      vertex 2.96333 0.454374 0
    endloop
  endfacet
  facet normal 0 0 -1
    outer loop
      vertex 1.44215 -0.227187 0
      vertex 0.691444 0.0790219 0
      vertex 1.56069 0.286455 0
    endloop
  endfacet
  facet normal 0 0 -1
    outer loop
      vertex 2.88431 0.464252 0
      vertex 2.82504 0.5334 0
      vertex 2.90406 0.582785 0
    endloop
  endfacet
  facet normal 0 0 -1
    outer loop
      vertex 1.26435 -0.355598 0
      vertex 0.987778 -0.34572 0
      vertex 1.44215 -0.227187 0
    endloop
  endfacet
  facet normal 0 0 -1
    outer loop
      vertex 2.90406 0.582785 0
      vertex 3.10162 0.869241 0
      vertex 3.01272 0.543274 0
    endloop
  endfacet
  facet normal -0 0 -1
    outer loop
      vertex 2.96333 0.454374 0
      vertex 2.83492 0.217308 0
      vertex 2.88431 0.464252 0
    endloop
  endfacet
  facet normal 0 -0 -1
    outer loop
      vertex 2.88431 1.14582 0
      vertex 2.94358 0.908752 0
      vertex 1.81751 1.0668 0
    endloop
  endfacet
  facet normal 0 0 -1
    outer loop
      vertex 1.44215 -0.227187 0
      vertex 1.75824 -0.138286 0
      vertex 1.73849 -0.217308 0
    endloop
  endfacet
  facet normal 0 -0 -1
    outer loop
      vertex 2.94358 0.908752 0
      vertex 3.10162 0.869241 0
      vertex 2.90406 0.582785 0
    endloop
  endfacet
  facet normal 0 0 -1
    outer loop
      vertex 2.96333 0.454374 0
      vertex 2.90406 0.582785 0
      vertex 3.01272 0.543274 0
    endloop
  endfacet
  facet normal 0 0 -1
    outer loop
      vertex 2.88431 1.14582 0
      vertex 2.94358 1.21496 0
      vertex 2.94358 0.908752 0
    endloop
  endfacet
  facet normal 0 0 -1
    outer loop
      vertex 0.948263 1.04704 0
      vertex 1.12606 1.11619 0
      vertex 1.54093 0.543274 0
    endloop
  endfacet
  facet normal 0 0 -1
    outer loop
      vertex 1.46191 1.09643 0
      vertex 1.81751 1.0668 0
      vertex 1.6002 0.721076 0
    endloop
  endfacet
  facet normal -0 0 -1
    outer loop
      vertex 2.94358 0.908752 0
      vertex 1.6002 0.721076 0
      vertex 1.81751 1.0668 0
    endloop
  endfacet
  facet normal 0 0 -1
    outer loop
      vertex 2.8448 -0.43462 0
      vertex 3.2004 -0.355598 0
      vertex 3.09174 -0.780344 0
    endloop
  endfacet
  facet normal 0 0 -1
    outer loop
      vertex 2.8448 -0.43462 0
      vertex 3.00284 -0.800098 0
      vertex 2.88431 -0.780344 0
    endloop
  endfacet
  facet normal 0 0 -1
    outer loop
      vertex 2.92382 -0.217308 0
      vertex 3.08187 -0.167918 0
      vertex 3.2004 -0.355598 0
    endloop
  endfacet
  facet normal 0 0 -1
    outer loop
      vertex 2.68675 -1.5113 0
      vertex 2.71639 -1.38289 0
      vertex 2.77565 -1.48167 0
    endloop
  endfacet
  facet normal 0 0 -1
    outer loop
      vertex 2.77565 -1.48167 0
      vertex 2.78553 -1.34338 0
      vertex 2.8448 -1.49154 0
    endloop
  endfacet
  facet normal 0 -0 -1
    outer loop
      vertex 2.88431 -1.35326 0
      vertex 2.94358 -1.4224 0
      vertex 2.8448 -1.49154 0
    endloop
  endfacet
  facet normal 0 0 -1
    outer loop
      vertex 2.89419 -1.53105 0
      vertex 2.8448 -1.49154 0
      vertex 2.94358 -1.4224 0
    endloop
  endfacet
  facet normal 0 0 -1
    outer loop
      vertex 2.72626 -1.71873 0
      vertex 2.77565 -1.48167 0
      vertex 2.80529 -1.71873 0
    endloop
  endfacet
  facet normal 0 -0 -1
    outer loop
      vertex 1.54093 0.543274 0
      vertex 1.56069 0.286455 0
      vertex 0.691444 0.0790219 0
    endloop
  endfacet
  facet normal -0 0 -1
    outer loop
      vertex 1.54093 0.543274 0
      vertex 0.691444 0.0790219 0
      vertex 0.82973 0.977899 0
    endloop
  endfacet
  facet normal 0 0 -1
    outer loop
      vertex 2.77565 -1.48167 0
      vertex 2.71639 -1.38289 0
      vertex 2.78553 -1.34338 0
    endloop
  endfacet
  facet normal 0 0 -1
    outer loop
      vertex 2.78553 -1.34338 0
      vertex 2.88431 -0.780344 0
      vertex 2.88431 -1.35326 0
    endloop
  endfacet
  facet normal 0 0 -1
    outer loop
      vertex 2.88431 -0.780344 0
      vertex 3.00284 -0.800098 0
      vertex 2.88431 -1.35326 0
    endloop
  endfacet
  facet normal 0 0 -1
    outer loop
      vertex 2.8448 -1.49154 0
      vertex 2.78553 -1.34338 0
      vertex 2.88431 -1.35326 0
    endloop
  endfacet
  facet normal 0 0 -1
    outer loop
      vertex 2.80529 -0.760587 0
      vertex 2.8448 -0.43462 0
      vertex 2.88431 -0.780344 0
    endloop
  endfacet
  facet normal 0 0 -1
    outer loop
      vertex 2.8448 -0.43462 0
      vertex 2.92382 -0.217308 0
      vertex 3.2004 -0.355598 0
    endloop
  endfacet
  facet normal 0 0 -1
    outer loop
      vertex 1.75824 -0.138286 0
      vertex 2.92382 -0.217308 0
      vertex 2.8448 -0.43462 0
    endloop
  endfacet
  facet normal 0 0 -1
    outer loop
      vertex 1.44215 -0.227187 0
      vertex 1.56069 0.286455 0
      vertex 1.75824 -0.138286 0
    endloop
  endfacet
  facet normal 0 0 -1
    outer loop
      vertex 1.56069 0.286455 0
      vertex 2.92382 -0.217308 0
      vertex 1.75824 -0.138286 0
    endloop
  endfacet
  facet normal 0 0 -1
    outer loop
      vertex 0.691444 0.0790219 0
      vertex 1.44215 -0.227187 0
      vertex 0.82973 -0.246944 0
    endloop
  endfacet
  facet normal 0 0 -1
    outer loop
      vertex 0.691444 0.0790219 0
      vertex 0.82973 -0.246944 0
      vertex 0.711197 -0.118533 0
    endloop
  endfacet
  facet normal 0 0 -1
    outer loop
      vertex -0.217308 -0.879119 0
      vertex -0.632175 -0.256819 0
      vertex 0.43462 -0.0790219 0
    endloop
  endfacet
  facet normal -0 0 -1
    outer loop
      vertex 0.750708 0.987778 0
      vertex 0.572911 0.108654 0
      vertex 0.0790219 1.01741 0
    endloop
  endfacet
  facet normal 0 0 -1
    outer loop
      vertex 0.572911 0.108654 0
      vertex -0.632175 0.454374 0
      vertex 0.0790219 1.01741 0
    endloop
  endfacet
  facet normal 0 -0 -1
    outer loop
      vertex 0.750708 0.987778 0
      vertex 0.82973 0.977899 0
      vertex 0.572911 0.108654 0
    endloop
  endfacet
  facet normal 0 0 -1
    outer loop
      vertex 0.572911 0.108654 0
      vertex 0.82973 0.977899 0
      vertex 0.691444 0.0790219 0
    endloop
  endfacet
  facet normal 0 0 -1
    outer loop
      vertex -0.632175 0.454374 0
      vertex 0.572911 0.108654 0
      vertex 0.43462 -0.0790219 0
    endloop
  endfacet
  facet normal 0 0 -1
    outer loop
      vertex -0.632175 -0.256819 0
      vertex -0.632175 0.454374 0
      vertex 0.43462 -0.0790219 0
    endloop
  endfacet
  facet normal 0 0 -1
    outer loop
      vertex -0.730955 -1.49154 0
      vertex -1.2446 -1.44215 0
      vertex -1.10631 -1.09643 0
    endloop
  endfacet
  facet normal 0 0 -1
    outer loop
      vertex -0.256819 -0.977899 0
      vertex -0.730955 -1.49154 0
      vertex -1.10631 -1.09643 0
    endloop
  endfacet
  facet normal 0 -0 -1
    outer loop
      vertex -0.632175 0.454374 0
      vertex -0.632175 -0.256819 0
      vertex -0.948263 -0.108654 0
    endloop
  endfacet
  facet normal 0 0 -1
    outer loop
      vertex -0.987778 0.879119 0
      vertex -0.454374 1.21496 0
      vertex -0.632175 0.572911 0
    endloop
  endfacet
  facet normal -0 0 -1
    outer loop
      vertex -0.256819 -0.977899 0
      vertex -1.10631 -1.09643 0
      vertex -0.632175 -0.256819 0
    endloop
  endfacet
  facet normal 0 0 -1
    outer loop
      vertex -0.256819 -0.977899 0
      vertex -0.632175 -0.256819 0
      vertex -0.217308 -0.879119 0
    endloop
  endfacet
  facet normal 0 0 -1
    outer loop
      vertex -0.632175 0.454374 0
      vertex -0.118533 1.01741 0
      vertex 0.0790219 1.01741 0
    endloop
  endfacet
  facet normal 0 0 -1
    outer loop
      vertex -0.987778 0.879119 0
      vertex -1.04704 0.592664 0
      vertex -1.08655 0.691444 0
    endloop
  endfacet
  facet normal 0 0 -1
    outer loop
      vertex -2.15335 -0.375352 0
      vertex -2.42993 -0.266698 0
      vertex -2.41018 -0.0888964 0
    endloop
  endfacet
  facet normal -0 0 -1
    outer loop
      vertex -2.15335 -0.375352 0
      vertex -2.35091 -0.424742 0
      vertex -2.42993 -0.266698 0
    endloop
  endfacet
  facet normal 0 0 -1
    outer loop
      vertex -2.15335 -0.375352 0
      vertex -2.41018 -0.0888964 0
      vertex -2.19286 0.148165 0
    endloop
  endfacet
  facet normal 0 0 -1
    outer loop
      vertex -3.00284 -0.928509 0
      vertex -3.08187 -0.908752 0
      vertex -3.01272 -0.849487 0
    endloop
  endfacet
  facet normal -0 0 -1
    outer loop
      vertex -2.95345 -1.00753 0
      vertex -2.98309 -1.04704 0
      vertex -3.00284 -0.928509 0
    endloop
  endfacet
  facet normal 0 0 -1
    outer loop
      vertex -2.91394 -0.987778 0
      vertex -2.81516 -0.96802 0
      vertex -2.87443 -1.03716 0
    endloop
  endfacet
  facet normal 0 0 -1
    outer loop
      vertex -2.98309 -1.04704 0
      vertex -3.10162 -1.16557 0
      vertex -3.16089 -1.12606 0
    endloop
  endfacet
  facet normal 0 -0 -1
    outer loop
      vertex -2.83492 -0.888998 0
      vertex -2.81516 -0.96802 0
      vertex -2.91394 -0.987778 0
    endloop
  endfacet
  facet normal -0 0 -1
    outer loop
      vertex -2.98309 -1.04704 0
      vertex -3.16089 -1.12606 0
      vertex -3.00284 -0.928509 0
    endloop
  endfacet
  facet normal 0 0 -1
    outer loop
      vertex -2.90406 -0.82973 0
      vertex -3.00284 -0.928509 0
      vertex -3.01272 -0.849487 0
    endloop
  endfacet
  facet normal 0 0 -1
    outer loop
      vertex -2.91394 -0.987778 0
      vertex -3.00284 -0.928509 0
      vertex -2.90406 -0.82973 0
    endloop
  endfacet
  facet normal 0 -0 -1
    outer loop
      vertex -2.19286 1.69897 0
      vertex -1.99531 1.5113 0
      vertex -2.29164 1.29399 0
    endloop
  endfacet
  facet normal 0 0 -1
    outer loop
      vertex -2.29164 1.29399 0
      vertex -1.99531 1.5113 0
      vertex -1.9558 1.44215 0
    endloop
  endfacet
  facet normal 0 0 -1
    outer loop
      vertex -2.83492 -0.888998 0
      vertex -2.90406 -0.82973 0
      vertex -2.35091 -0.424742 0
    endloop
  endfacet
  facet normal -0 0 -1
    outer loop
      vertex -2.83492 -0.888998 0
      vertex -2.91394 -0.987778 0
      vertex -2.90406 -0.82973 0
    endloop
  endfacet
  facet normal 0 0 -1
    outer loop
      vertex -2.90406 -0.82973 0
      vertex -2.42993 -0.266698 0
      vertex -2.35091 -0.424742 0
    endloop
  endfacet
  facet normal 0 0 -1
    outer loop
      vertex -2.667 1.21496 0
      vertex -2.64724 1.30387 0
      vertex -2.56822 1.13594 0
    endloop
  endfacet
  facet normal 0 -0 -1
    outer loop
      vertex -0.572911 1.27423 0
      vertex -0.454374 1.21496 0
      vertex -0.987778 0.879119 0
    endloop
  endfacet
  facet normal -0 0 -1
    outer loop
      vertex -1.87678 -0.0493854 0
      vertex -2.15335 -0.375352 0
      vertex -2.19286 0.148165 0
    endloop
  endfacet
  facet normal 0 0 -1
    outer loop
      vertex -1.14582 0.0197533 0
      vertex -0.632175 0.454374 0
      vertex -0.948263 -0.108654 0
    endloop
  endfacet
  facet normal 0 0 -1
    outer loop
      vertex -0.632175 0.572911 0
      vertex -0.118533 1.01741 0
      vertex -0.632175 0.454374 0
    endloop
  endfacet
  facet normal 0 0 -1
    outer loop
      vertex -2.19286 0.148165 0
      vertex -1.14582 0.0197533 0
      vertex -1.87678 -0.0493854 0
    endloop
  endfacet
  facet normal 0 0 -1
    outer loop
      vertex -2.19286 0.148165 0
      vertex -0.632175 0.454374 0
      vertex -1.14582 0.0197533 0
    endloop
  endfacet
  facet normal -0 0 -1
    outer loop
      vertex -0.928509 1.26435 0
      vertex -0.987778 0.879119 0
      vertex -1.9558 1.44215 0
    endloop
  endfacet
  facet normal 0 -0 -1
    outer loop
      vertex -0.987778 0.879119 0
      vertex -0.632175 0.572911 0
      vertex -1.04704 0.592664 0
    endloop
  endfacet
  facet normal 0 0 -1
    outer loop
      vertex -2.62749 1.14582 0
      vertex -2.667 1.21496 0
      vertex -2.56822 1.13594 0
    endloop
  endfacet
  facet normal 0 -0 -1
    outer loop
      vertex -0.928509 1.26435 0
      vertex -0.691444 1.32362 0
      vertex -0.987778 0.879119 0
    endloop
  endfacet
  facet normal 0 0 -1
    outer loop
      vertex -2.64724 1.30387 0
      vertex -2.29164 1.29399 0
      vertex -2.44969 1.23472 0
    endloop
  endfacet
  facet normal 0 0 -1
    outer loop
      vertex -0.987778 0.879119 0
      vertex -2.29164 1.29399 0
      vertex -1.9558 1.44215 0
    endloop
  endfacet
  facet normal -0 0 -1
    outer loop
      vertex -3.10162 0.770465 0
      vertex -3.27942 0.622296 0
      vertex -3.14113 0.819855 0
    endloop
  endfacet
  facet normal 0 0 -1
    outer loop
      vertex -3.10162 0.770465 0
      vertex -3.14113 0.819855 0
      vertex -3.07199 0.879119 0
    endloop
  endfacet
  facet normal 0 0 -1
    outer loop
      vertex -3.10162 0.770465 0
      vertex -3.03248 0.760587 0
      vertex -3.09174 0.721076 0
    endloop
  endfacet
  facet normal 0 0 -1
    outer loop
      vertex -3.0226 0.82973 0
      vertex -3.03248 0.760587 0
      vertex -3.10162 0.770465 0
    endloop
  endfacet
  facet normal 0 0 -1
    outer loop
      vertex -3.14113 0.819855 0
      vertex -3.21028 0.839609 0
      vertex -3.16089 0.879119 0
    endloop
  endfacet
  facet normal 0 0 -1
    outer loop
      vertex -3.14113 0.819855 0
      vertex -3.27942 0.622296 0
      vertex -3.31893 0.651933 0
    endloop
  endfacet
  facet normal 0 0 -1
    outer loop
      vertex -3.07199 0.879119 0
      vertex -2.62749 1.14582 0
      vertex -3.0226 0.82973 0
    endloop
  endfacet
  facet normal 0 0 -1
    outer loop
      vertex -3.14113 0.819855 0
      vertex -3.16089 0.879119 0
      vertex -3.07199 0.879119 0
    endloop
  endfacet
  facet normal 0 0 -1
    outer loop
      vertex -2.19286 1.69897 0
      vertex -2.29164 1.29399 0
      vertex -2.64724 1.30387 0
    endloop
  endfacet
  facet normal 0 -0 -1
    outer loop
      vertex -2.667 1.21496 0
      vertex -2.62749 1.14582 0
      vertex -3.07199 0.879119 0
    endloop
  endfacet
  facet normal 0 0 -1
    outer loop
      vertex -3.10162 0.770465 0
      vertex -3.07199 0.879119 0
      vertex -3.0226 0.82973 0
    endloop
  endfacet
  facet normal 0 0 -1
    outer loop
      vertex -2.64724 1.30387 0
      vertex -2.44969 1.23472 0
      vertex -2.56822 1.13594 0
    endloop
  endfacet
  facet normal 0 0 -1
    outer loop
      vertex -1.93604 1.71873 0
      vertex -1.99531 1.5113 0
      vertex -2.19286 1.69897 0
    endloop
  endfacet
  facet normal 0 0 1
    outer loop
      vertex -0.632175 -0.256819 5
      vertex -0.869241 -0.217308 5
      vertex -0.730955 -0.276577 5
    endloop
  endfacet
  facet normal 0 0 1
    outer loop
      vertex -1.99531 1.5113 5
      vertex -1.89653 1.6002 5
      vertex -1.93604 1.71873 5
    endloop
  endfacet
  facet normal 0 -0 1
    outer loop
      vertex 2.80529 -1.71873 5
      vertex 2.8448 -1.49154 5
      vertex 2.77565 -1.48167 5
    endloop
  endfacet
  facet normal 0 -0 1
    outer loop
      vertex -2.95345 -1.00753 5
      vertex -2.91394 -0.987778 5
      vertex -3.00284 -0.928509 5
    endloop
  endfacet
  facet normal 0 0 1
    outer loop
      vertex -0.572911 1.27423 5
      vertex -0.691444 1.32362 5
      vertex -0.987778 0.879119 5
    endloop
  endfacet
  facet normal 0 0 1
    outer loop
      vertex -0.158044 1.17545 5
      vertex -0.454374 1.21496 5
      vertex -0.118533 1.01741 5
    endloop
  endfacet
  facet normal 0 0 1
    outer loop
      vertex -0.454374 1.21496 5
      vertex -0.632175 0.572911 5
      vertex -0.118533 1.01741 5
    endloop
  endfacet
  facet normal 0 -0 1
    outer loop
      vertex 0.0395109 1.41252 5
      vertex 0.0395109 1.55081 5
      vertex -0.0987752 1.61007 5
    endloop
  endfacet
  facet normal -0 0 1
    outer loop
      vertex -0.197555 1.57056 5
      vertex 0.0395109 1.41252 5
      vertex -0.0987752 1.61007 5
    endloop
  endfacet
  facet normal 0 0 1
    outer loop
      vertex -0.197555 1.57056 5
      vertex -0.29633 1.48167 5
      vertex 0.0395109 1.41252 5
    endloop
  endfacet
  facet normal 0 0 1
    outer loop
      vertex 0.0395109 1.41252 5
      vertex -0.29633 1.48167 5
      vertex -0.158044 1.17545 5
    endloop
  endfacet
  facet normal 0 0 1
    outer loop
      vertex -0.158044 1.17545 5
      vertex -0.29633 1.48167 5
      vertex -0.454374 1.21496 5
    endloop
  endfacet
  facet normal -0 0 1
    outer loop
      vertex 0.82973 -0.246944 5
      vertex 0.987778 -0.34572 5
      vertex 1.44215 -0.227187 5
    endloop
  endfacet
  facet normal 0 0 1
    outer loop
      vertex -0.948263 -0.108654 5
      vertex -0.869241 -0.217308 5
      vertex -0.632175 -0.256819 5
    endloop
  endfacet
  facet normal 0 0 1
    outer loop
      vertex 1.54093 0.543274 5
      vertex 0.948263 1.04704 5
      vertex 0.82973 0.977899 5
    endloop
  endfacet
  facet normal 0 0 1
    outer loop
      vertex 0.671686 1.11619 5
      vertex 0.217308 1.1557 5
      vertex 0.750708 0.987778 5
    endloop
  endfacet
  facet normal 0 -0 1
    outer loop
      vertex 3.00284 -0.800098 5
      vertex 3.09174 -0.780344 5
      vertex 2.8448 -0.43462 5
    endloop
  endfacet
  facet normal 0 0 1
    outer loop
      vertex 0.750708 0.987778 5
      vertex 0.217308 1.1557 5
      vertex 0.0790219 1.01741 5
    endloop
  endfacet
  facet normal 0 -0 1
    outer loop
      vertex 3.03248 0.424742 5
      vertex 3.04236 0.503763 5
      vertex 2.96333 0.454374 5
    endloop
  endfacet
  facet normal 0 0 1
    outer loop
      vertex 1.12606 1.11619 5
      vertex 1.6002 0.721076 5
      vertex 1.46191 1.09643 5
    endloop
  endfacet
  facet normal 0 0 1
    outer loop
      vertex 1.14582 1.28411 5
      vertex 1.12606 1.11619 5
      vertex 1.46191 1.09643 5
    endloop
  endfacet
  facet normal 0 0 1
    outer loop
      vertex 1.50142 1.45203 5
      vertex 1.40264 1.54093 5
      vertex 1.30387 1.52118 5
    endloop
  endfacet
  facet normal 0 0 1
    outer loop
      vertex 1.20509 1.41252 5
      vertex 1.50142 1.45203 5
      vertex 1.30387 1.52118 5
    endloop
  endfacet
  facet normal 0 0 1
    outer loop
      vertex 1.48167 1.22484 5
      vertex 1.54093 1.31374 5
      vertex 1.50142 1.45203 5
    endloop
  endfacet
  facet normal -0 0 1
    outer loop
      vertex 1.20509 1.41252 5
      vertex 1.48167 1.22484 5
      vertex 1.50142 1.45203 5
    endloop
  endfacet
  facet normal 0 0 1
    outer loop
      vertex 1.20509 1.41252 5
      vertex 1.14582 1.28411 5
      vertex 1.48167 1.22484 5
    endloop
  endfacet
  facet normal 0 0 1
    outer loop
      vertex 1.12606 1.11619 5
      vertex 1.54093 0.543274 5
      vertex 1.6002 0.721076 5
    endloop
  endfacet
  facet normal 0 0 1
    outer loop
      vertex 1.48167 1.22484 5
      vertex 1.14582 1.28411 5
      vertex 1.46191 1.09643 5
    endloop
  endfacet
  facet normal -0 0 1
    outer loop
      vertex 2.94358 0.908752 5
      vertex 3.10162 0.869241 5
      vertex 2.94358 1.21496 5
    endloop
  endfacet
  facet normal 0 0 1
    outer loop
      vertex 2.88431 0.464252 5
      vertex 2.82504 0.5334 5
      vertex 2.80529 0.454374 5
    endloop
  endfacet
  facet normal 0 0 1
    outer loop
      vertex 3.23991 1.40264 5
      vertex 2.94358 1.21496 5
      vertex 3.31893 1.27423 5
    endloop
  endfacet
  facet normal 0 0 1
    outer loop
      vertex 3.1115 1.48167 5
      vertex 3.00284 1.40264 5
      vertex 3.23991 1.40264 5
    endloop
  endfacet
  facet normal 0 0 1
    outer loop
      vertex 3.23991 1.40264 5
      vertex 3.00284 1.40264 5
      vertex 2.94358 1.21496 5
    endloop
  endfacet
  facet normal 0 0 1
    outer loop
      vertex 3.31893 1.27423 5
      vertex 2.94358 1.21496 5
      vertex 3.27942 1.01741 5
    endloop
  endfacet
  facet normal 0 0 1
    outer loop
      vertex 3.27942 1.01741 5
      vertex 2.94358 1.21496 5
      vertex 3.10162 0.869241 5
    endloop
  endfacet
  facet normal -0 0 1
    outer loop
      vertex 2.88431 0.464252 5
      vertex 2.96333 0.454374 5
      vertex 2.90406 0.582785 5
    endloop
  endfacet
  facet normal -0 0 1
    outer loop
      vertex 2.83492 0.217308 5
      vertex 2.92382 0.187676 5
      vertex 2.96333 0.454374 5
    endloop
  endfacet
  facet normal 0 0 1
    outer loop
      vertex 2.96333 0.454374 5
      vertex 3.04236 0.503763 5
      vertex 3.01272 0.543274 5
    endloop
  endfacet
  facet normal 0 0 1
    outer loop
      vertex 1.56069 0.286455 5
      vertex 0.691444 0.0790219 5
      vertex 1.44215 -0.227187 5
    endloop
  endfacet
  facet normal 0 0 1
    outer loop
      vertex 2.90406 0.582785 5
      vertex 2.82504 0.5334 5
      vertex 2.88431 0.464252 5
    endloop
  endfacet
  facet normal 0 0 1
    outer loop
      vertex 1.44215 -0.227187 5
      vertex 0.987778 -0.34572 5
      vertex 1.26435 -0.355598 5
    endloop
  endfacet
  facet normal 0 -0 1
    outer loop
      vertex 3.01272 0.543274 5
      vertex 3.10162 0.869241 5
      vertex 2.90406 0.582785 5
    endloop
  endfacet
  facet normal 0 0 1
    outer loop
      vertex 2.88431 0.464252 5
      vertex 2.83492 0.217308 5
      vertex 2.96333 0.454374 5
    endloop
  endfacet
  facet normal -0 0 1
    outer loop
      vertex 1.81751 1.0668 5
      vertex 2.94358 0.908752 5
      vertex 2.88431 1.14582 5
    endloop
  endfacet
  facet normal 0 -0 1
    outer loop
      vertex 1.73849 -0.217308 5
      vertex 1.75824 -0.138286 5
      vertex 1.44215 -0.227187 5
    endloop
  endfacet
  facet normal 0 0 1
    outer loop
      vertex 2.90406 0.582785 5
      vertex 3.10162 0.869241 5
      vertex 2.94358 0.908752 5
    endloop
  endfacet
  facet normal 0 0 1
    outer loop
      vertex 3.01272 0.543274 5
      vertex 2.90406 0.582785 5
      vertex 2.96333 0.454374 5
    endloop
  endfacet
  facet normal 0 -0 1
    outer loop
      vertex 2.94358 0.908752 5
      vertex 2.94358 1.21496 5
      vertex 2.88431 1.14582 5
    endloop
  endfacet
  facet normal 0 0 1
    outer loop
      vertex 1.54093 0.543274 5
      vertex 1.12606 1.11619 5
      vertex 0.948263 1.04704 5
    endloop
  endfacet
  facet normal 0 -0 1
    outer loop
      vertex 1.6002 0.721076 5
      vertex 1.81751 1.0668 5
      vertex 1.46191 1.09643 5
    endloop
  endfacet
  facet normal 0 0 1
    outer loop
      vertex 1.81751 1.0668 5
      vertex 1.6002 0.721076 5
      vertex 2.94358 0.908752 5
    endloop
  endfacet
  facet normal 0 -0 1
    outer loop
      vertex 3.09174 -0.780344 5
      vertex 3.2004 -0.355598 5
      vertex 2.8448 -0.43462 5
    endloop
  endfacet
  facet normal -0 -0 1
    outer loop
      vertex 2.88431 -0.780344 5
      vertex 3.00284 -0.800098 5
      vertex 2.8448 -0.43462 5
    endloop
  endfacet
  facet normal 0 0 1
    outer loop
      vertex 3.2004 -0.355598 5
      vertex 3.08187 -0.167918 5
      vertex 2.92382 -0.217308 5
    endloop
  endfacet
  facet normal 0 0 1
    outer loop
      vertex 2.77565 -1.48167 5
      vertex 2.71639 -1.38289 5
      vertex 2.68675 -1.5113 5
    endloop
  endfacet
  facet normal 0 0 1
    outer loop
      vertex 2.8448 -1.49154 5
      vertex 2.78553 -1.34338 5
      vertex 2.77565 -1.48167 5
    endloop
  endfacet
  facet normal 0 0 1
    outer loop
      vertex 2.8448 -1.49154 5
      vertex 2.94358 -1.4224 5
      vertex 2.88431 -1.35326 5
    endloop
  endfacet
  facet normal 0 0 1
    outer loop
      vertex 2.94358 -1.4224 5
      vertex 2.8448 -1.49154 5
      vertex 2.89419 -1.53105 5
    endloop
  endfacet
  facet normal 0 0 1
    outer loop
      vertex 2.80529 -1.71873 5
      vertex 2.77565 -1.48167 5
      vertex 2.72626 -1.71873 5
    endloop
  endfacet
  facet normal 0 0 1
    outer loop
      vertex 0.691444 0.0790219 5
      vertex 1.56069 0.286455 5
      vertex 1.54093 0.543274 5
    endloop
  endfacet
  facet normal 0 0 1
    outer loop
      vertex 0.82973 0.977899 5
      vertex 0.691444 0.0790219 5
      vertex 1.54093 0.543274 5
    endloop
  endfacet
  facet normal 0 0 1
    outer loop
      vertex 2.78553 -1.34338 5
      vertex 2.71639 -1.38289 5
      vertex 2.77565 -1.48167 5
    endloop
  endfacet
  facet normal 0 -0 1
    outer loop
      vertex 2.88431 -1.35326 5
      vertex 2.88431 -0.780344 5
      vertex 2.78553 -1.34338 5
    endloop
  endfacet
  facet normal 0 0 1
    outer loop
      vertex 2.88431 -1.35326 5
      vertex 3.00284 -0.800098 5
      vertex 2.88431 -0.780344 5
    endloop
  endfacet
  facet normal 0 0 1
    outer loop
      vertex 2.88431 -1.35326 5
      vertex 2.78553 -1.34338 5
      vertex 2.8448 -1.49154 5
    endloop
  endfacet
  facet normal 0 0 1
    outer loop
      vertex 2.88431 -0.780344 5
      vertex 2.8448 -0.43462 5
      vertex 2.80529 -0.760587 5
    endloop
  endfacet
  facet normal 0 0 1
    outer loop
      vertex 3.2004 -0.355598 5
      vertex 2.92382 -0.217308 5
      vertex 2.8448 -0.43462 5
    endloop
  endfacet
  facet normal 0 -0 1
    outer loop
      vertex 2.8448 -0.43462 5
      vertex 2.92382 -0.217308 5
      vertex 1.75824 -0.138286 5
    endloop
  endfacet
  facet normal 0 0 1
    outer loop
      vertex 1.75824 -0.138286 5
      vertex 1.56069 0.286455 5
      vertex 1.44215 -0.227187 5
    endloop
  endfacet
  facet normal -0 -0 1
    outer loop
      vertex 1.75824 -0.138286 5
      vertex 2.92382 -0.217308 5
      vertex 1.56069 0.286455 5
    endloop
  endfacet
  facet normal 0 -0 1
    outer loop
      vertex 0.82973 -0.246944 5
      vertex 1.44215 -0.227187 5
      vertex 0.691444 0.0790219 5
    endloop
  endfacet
  facet normal -0 -0 1
    outer loop
      vertex 0.711197 -0.118533 5
      vertex 0.82973 -0.246944 5
      vertex 0.691444 0.0790219 5
    endloop
  endfacet
  facet normal 0 0 1
    outer loop
      vertex 0.43462 -0.0790219 5
      vertex -0.632175 -0.256819 5
      vertex -0.217308 -0.879119 5
    endloop
  endfacet
  facet normal 0 0 1
    outer loop
      vertex 0.0790219 1.01741 5
      vertex 0.572911 0.108654 5
      vertex 0.750708 0.987778 5
    endloop
  endfacet
  facet normal 0 0 1
    outer loop
      vertex 0.0790219 1.01741 5
      vertex -0.632175 0.454374 5
      vertex 0.572911 0.108654 5
    endloop
  endfacet
  facet normal 0 0 1
    outer loop
      vertex 0.572911 0.108654 5
      vertex 0.82973 0.977899 5
      vertex 0.750708 0.987778 5
    endloop
  endfacet
  facet normal 0 -0 1
    outer loop
      vertex 0.691444 0.0790219 5
      vertex 0.82973 0.977899 5
      vertex 0.572911 0.108654 5
    endloop
  endfacet
  facet normal 0 -0 1
    outer loop
      vertex 0.43462 -0.0790219 5
      vertex 0.572911 0.108654 5
      vertex -0.632175 0.454374 5
    endloop
  endfacet
  facet normal 0 0 1
    outer loop
      vertex 0.43462 -0.0790219 5
      vertex -0.632175 0.454374 5
      vertex -0.632175 -0.256819 5
    endloop
  endfacet
  facet normal 0 0 1
    outer loop
      vertex -1.10631 -1.09643 5
      vertex -1.2446 -1.44215 5
      vertex -0.730955 -1.49154 5
    endloop
  endfacet
  facet normal -0 0 1
    outer loop
      vertex -1.10631 -1.09643 5
      vertex -0.730955 -1.49154 5
      vertex -0.256819 -0.977899 5
    endloop
  endfacet
  facet normal -0 0 1
    outer loop
      vertex -0.948263 -0.108654 5
      vertex -0.632175 -0.256819 5
      vertex -0.632175 0.454374 5
    endloop
  endfacet
  facet normal 0 -0 1
    outer loop
      vertex -0.632175 0.572911 5
      vertex -0.454374 1.21496 5
      vertex -0.987778 0.879119 5
    endloop
  endfacet
  facet normal 0 0 1
    outer loop
      vertex -0.632175 -0.256819 5
      vertex -1.10631 -1.09643 5
      vertex -0.256819 -0.977899 5
    endloop
  endfacet
  facet normal 0 0 1
    outer loop
      vertex -0.217308 -0.879119 5
      vertex -0.632175 -0.256819 5
      vertex -0.256819 -0.977899 5
    endloop
  endfacet
  facet normal 0 0 1
    outer loop
      vertex 0.0790219 1.01741 5
      vertex -0.118533 1.01741 5
      vertex -0.632175 0.454374 5
    endloop
  endfacet
  facet normal -0 0 1
    outer loop
      vertex -1.08655 0.691444 5
      vertex -1.04704 0.592664 5
      vertex -0.987778 0.879119 5
    endloop
  endfacet
  facet normal 0 0 1
    outer loop
      vertex -2.41018 -0.0888964 5
      vertex -2.42993 -0.266698 5
      vertex -2.15335 -0.375352 5
    endloop
  endfacet
  facet normal 0 0 1
    outer loop
      vertex -2.42993 -0.266698 5
      vertex -2.35091 -0.424742 5
      vertex -2.15335 -0.375352 5
    endloop
  endfacet
  facet normal 0 0 1
    outer loop
      vertex -2.19286 0.148165 5
      vertex -2.41018 -0.0888964 5
      vertex -2.15335 -0.375352 5
    endloop
  endfacet
  facet normal 0 0 1
    outer loop
      vertex -3.01272 -0.849487 5
      vertex -3.08187 -0.908752 5
      vertex -3.00284 -0.928509 5
    endloop
  endfacet
  facet normal 0 0 1
    outer loop
      vertex -3.00284 -0.928509 5
      vertex -2.98309 -1.04704 5
      vertex -2.95345 -1.00753 5
    endloop
  endfacet
  facet normal 0 -0 1
    outer loop
      vertex -2.87443 -1.03716 5
      vertex -2.81516 -0.96802 5
      vertex -2.91394 -0.987778 5
    endloop
  endfacet
  facet normal -0 0 1
    outer loop
      vertex -3.16089 -1.12606 5
      vertex -3.10162 -1.16557 5
      vertex -2.98309 -1.04704 5
    endloop
  endfacet
  facet normal 0 0 1
    outer loop
      vertex -2.91394 -0.987778 5
      vertex -2.81516 -0.96802 5
      vertex -2.83492 -0.888998 5
    endloop
  endfacet
  facet normal 0 0 1
    outer loop
      vertex -3.00284 -0.928509 5
      vertex -3.16089 -1.12606 5
      vertex -2.98309 -1.04704 5
    endloop
  endfacet
  facet normal -0 0 1
    outer loop
      vertex -3.01272 -0.849487 5
      vertex -3.00284 -0.928509 5
      vertex -2.90406 -0.82973 5
    endloop
  endfacet
  facet normal 0 0 1
    outer loop
      vertex -2.90406 -0.82973 5
      vertex -3.00284 -0.928509 5
      vertex -2.91394 -0.987778 5
    endloop
  endfacet
  facet normal 0 0 1
    outer loop
      vertex -2.29164 1.29399 5
      vertex -1.99531 1.5113 5
      vertex -2.19286 1.69897 5
    endloop
  endfacet
  facet normal 0 0 1
    outer loop
      vertex -1.9558 1.44215 5
      vertex -1.99531 1.5113 5
      vertex -2.29164 1.29399 5
    endloop
  endfacet
  facet normal 0 0 1
    outer loop
      vertex -2.35091 -0.424742 5
      vertex -2.90406 -0.82973 5
      vertex -2.83492 -0.888998 5
    endloop
  endfacet
  facet normal 0 0 1
    outer loop
      vertex -2.90406 -0.82973 5
      vertex -2.91394 -0.987778 5
      vertex -2.83492 -0.888998 5
    endloop
  endfacet
  facet normal 0 0 1
    outer loop
      vertex -2.35091 -0.424742 5
      vertex -2.42993 -0.266698 5
      vertex -2.90406 -0.82973 5
    endloop
  endfacet
  facet normal 0 0 1
    outer loop
      vertex -2.56822 1.13594 5
      vertex -2.64724 1.30387 5
      vertex -2.667 1.21496 5
    endloop
  endfacet
  facet normal 0 0 1
    outer loop
      vertex -0.987778 0.879119 5
      vertex -0.454374 1.21496 5
      vertex -0.572911 1.27423 5
    endloop
  endfacet
  facet normal 0 0 1
    outer loop
      vertex -2.19286 0.148165 5
      vertex -2.15335 -0.375352 5
      vertex -1.87678 -0.0493854 5
    endloop
  endfacet
  facet normal 0 -0 1
    outer loop
      vertex -0.948263 -0.108654 5
      vertex -0.632175 0.454374 5
      vertex -1.14582 0.0197533 5
    endloop
  endfacet
  facet normal 0 0 1
    outer loop
      vertex -0.632175 0.454374 5
      vertex -0.118533 1.01741 5
      vertex -0.632175 0.572911 5
    endloop
  endfacet
  facet normal 0 -0 1
    outer loop
      vertex -1.87678 -0.0493854 5
      vertex -1.14582 0.0197533 5
      vertex -2.19286 0.148165 5
    endloop
  endfacet
  facet normal 0 -0 1
    outer loop
      vertex -1.14582 0.0197533 5
      vertex -0.632175 0.454374 5
      vertex -2.19286 0.148165 5
    endloop
  endfacet
  facet normal 0 0 1
    outer loop
      vertex -1.9558 1.44215 5
      vertex -0.987778 0.879119 5
      vertex -0.928509 1.26435 5
    endloop
  endfacet
  facet normal -0 0 1
    outer loop
      vertex -1.04704 0.592664 5
      vertex -0.632175 0.572911 5
      vertex -0.987778 0.879119 5
    endloop
  endfacet
  facet normal 0 0 1
    outer loop
      vertex -2.56822 1.13594 5
      vertex -2.667 1.21496 5
      vertex -2.62749 1.14582 5
    endloop
  endfacet
  facet normal 0 0 1
    outer loop
      vertex -0.987778 0.879119 5
      vertex -0.691444 1.32362 5
      vertex -0.928509 1.26435 5
    endloop
  endfacet
  facet normal 0 -0 1
    outer loop
      vertex -2.44969 1.23472 5
      vertex -2.29164 1.29399 5
      vertex -2.64724 1.30387 5
    endloop
  endfacet
  facet normal 0 0 1
    outer loop
      vertex -1.9558 1.44215 5
      vertex -2.29164 1.29399 5
      vertex -0.987778 0.879119 5
    endloop
  endfacet
  facet normal 0 0 1
    outer loop
      vertex -3.14113 0.819855 5
      vertex -3.27942 0.622296 5
      vertex -3.10162 0.770465 5
    endloop
  endfacet
  facet normal 0 0 1
    outer loop
      vertex -3.07199 0.879119 5
      vertex -3.14113 0.819855 5
      vertex -3.10162 0.770465 5
    endloop
  endfacet
  facet normal 0 -0 1
    outer loop
      vertex -3.09174 0.721076 5
      vertex -3.03248 0.760587 5
      vertex -3.10162 0.770465 5
    endloop
  endfacet
  facet normal -0 0 1
    outer loop
      vertex -3.10162 0.770465 5
      vertex -3.03248 0.760587 5
      vertex -3.0226 0.82973 5
    endloop
  endfacet
  facet normal 0 0 1
    outer loop
      vertex -3.16089 0.879119 5
      vertex -3.21028 0.839609 5
      vertex -3.14113 0.819855 5
    endloop
  endfacet
  facet normal -0 0 1
    outer loop
      vertex -3.31893 0.651933 5
      vertex -3.27942 0.622296 5
      vertex -3.14113 0.819855 5
    endloop
  endfacet
  facet normal 0 -0 1
    outer loop
      vertex -3.0226 0.82973 5
      vertex -2.62749 1.14582 5
      vertex -3.07199 0.879119 5
    endloop
  endfacet
  facet normal 0 0 1
    outer loop
      vertex -3.07199 0.879119 5
      vertex -3.16089 0.879119 5
      vertex -3.14113 0.819855 5
    endloop
  endfacet
  facet normal -0 0 1
    outer loop
      vertex -2.64724 1.30387 5
      vertex -2.29164 1.29399 5
      vertex -2.19286 1.69897 5
    endloop
  endfacet
  facet normal 0 0 1
    outer loop
      vertex -3.07199 0.879119 5
      vertex -2.62749 1.14582 5
      vertex -2.667 1.21496 5
    endloop
  endfacet
  facet normal 0 0 1
    outer loop
      vertex -3.0226 0.82973 5
      vertex -3.07199 0.879119 5
      vertex -3.10162 0.770465 5
    endloop
  endfacet
  facet normal 0 -0 1
    outer loop
      vertex -2.56822 1.13594 5
      vertex -2.44969 1.23472 5
      vertex -2.64724 1.30387 5
    endloop
  endfacet
  facet normal -0 0 1
    outer loop
      vertex -2.19286 1.69897 5
      vertex -1.99531 1.5113 5
      vertex -1.93604 1.71873 5
    endloop
  endfacet
  facet normal 0.668961 -0.743297 0
    outer loop
      vertex -1.89653 1.6002 0
      vertex -1.89653 1.6002 5
      vertex -1.99531 1.5113 0
    endloop
  endfacet
  facet normal 0.668961 -0.743297 0
    outer loop
      vertex -1.89653 1.6002 5
      vertex -1.99531 1.5113 5
      vertex -1.99531 1.5113 0
    endloop
  endfacet
  facet normal 0.868253 0.496121 -0
    outer loop
      vertex -1.99531 1.5113 0
      vertex -1.99531 1.5113 5
      vertex -1.9558 1.44215 0
    endloop
  endfacet
  facet normal 0.868253 0.496121 0
    outer loop
      vertex -1.99531 1.5113 5
      vertex -1.9558 1.44215 5
      vertex -1.9558 1.44215 0
    endloop
  endfacet
  facet normal 0.170539 0.985351 -0
    outer loop
      vertex -1.9558 1.44215 0
      vertex -1.9558 1.44215 5
      vertex -0.928509 1.26435 0
    endloop
  endfacet
  facet normal 0.170539 0.985351 0
    outer loop
      vertex -1.9558 1.44215 5
      vertex -0.928509 1.26435 5
      vertex -0.928509 1.26435 0
    endloop
  endfacet
  facet normal -0.242527 0.970145 0
    outer loop
      vertex -0.928509 1.26435 0
      vertex -0.928509 1.26435 5
      vertex -0.691444 1.32362 0
    endloop
  endfacet
  facet normal -0.242527 0.970145 0
    outer loop
      vertex -0.928509 1.26435 5
      vertex -0.691444 1.32362 5
      vertex -0.691444 1.32362 0
    endloop
  endfacet
  facet normal 0.384594 0.923086 -0
    outer loop
      vertex -0.691444 1.32362 0
      vertex -0.691444 1.32362 5
      vertex -0.572911 1.27423 0
    endloop
  endfacet
  facet normal 0.384594 0.923086 0
    outer loop
      vertex -0.691444 1.32362 5
      vertex -0.572911 1.27423 5
      vertex -0.572911 1.27423 0
    endloop
  endfacet
  facet normal 0.447214 0.894427 -0
    outer loop
      vertex -0.572911 1.27423 0
      vertex -0.572911 1.27423 5
      vertex -0.454374 1.21496 0
    endloop
  endfacet
  facet normal 0.447214 0.894427 0
    outer loop
      vertex -0.572911 1.27423 5
      vertex -0.454374 1.21496 5
      vertex -0.454374 1.21496 0
    endloop
  endfacet
  facet normal -0.860294 0.509798 0
    outer loop
      vertex -0.454374 1.21496 0
      vertex -0.454374 1.21496 5
      vertex -0.29633 1.48167 0
    endloop
  endfacet
  facet normal -0.860294 0.509798 0
    outer loop
      vertex -0.454374 1.21496 5
      vertex -0.29633 1.48167 5
      vertex -0.29633 1.48167 0
    endloop
  endfacet
  facet normal -0.668959 0.743299 0
    outer loop
      vertex -0.29633 1.48167 0
      vertex -0.29633 1.48167 5
      vertex -0.197555 1.57056 0
    endloop
  endfacet
  facet normal -0.668959 0.743299 0
    outer loop
      vertex -0.29633 1.48167 5
      vertex -0.197555 1.57056 5
      vertex -0.197555 1.57056 0
    endloop
  endfacet
  facet normal -0.371384 0.928479 0
    outer loop
      vertex -0.197555 1.57056 0
      vertex -0.197555 1.57056 5
      vertex -0.0987752 1.61007 0
    endloop
  endfacet
  facet normal -0.371384 0.928479 0
    outer loop
      vertex -0.197555 1.57056 5
      vertex -0.0987752 1.61007 5
      vertex -0.0987752 1.61007 0
    endloop
  endfacet
  facet normal 0.393912 0.919148 -0
    outer loop
      vertex -0.0987752 1.61007 0
      vertex -0.0987752 1.61007 5
      vertex 0.0395109 1.55081 0
    endloop
  endfacet
  facet normal 0.393912 0.919148 0
    outer loop
      vertex -0.0987752 1.61007 5
      vertex 0.0395109 1.55081 5
      vertex 0.0395109 1.55081 0
    endloop
  endfacet
  facet normal 1 0 -0
    outer loop
      vertex 0.0395109 1.55081 0
      vertex 0.0395109 1.55081 5
      vertex 0.0395109 1.41252 0
    endloop
  endfacet
  facet normal 1 0 0
    outer loop
      vertex 0.0395109 1.55081 5
      vertex 0.0395109 1.41252 5
      vertex 0.0395109 1.41252 0
    endloop
  endfacet
  facet normal 0.768221 -0.640184 0
    outer loop
      vertex 0.0395109 1.41252 0
      vertex 0.0395109 1.41252 5
      vertex -0.158044 1.17545 0
    endloop
  endfacet
  facet normal 0.768221 -0.640184 0
    outer loop
      vertex 0.0395109 1.41252 5
      vertex -0.158044 1.17545 5
      vertex -0.158044 1.17545 0
    endloop
  endfacet
  facet normal 0.970143 0.242536 -0
    outer loop
      vertex -0.158044 1.17545 0
      vertex -0.158044 1.17545 5
      vertex -0.118533 1.01741 0
    endloop
  endfacet
  facet normal 0.970143 0.242536 0
    outer loop
      vertex -0.158044 1.17545 5
      vertex -0.118533 1.01741 5
      vertex -0.118533 1.01741 0
    endloop
  endfacet
  facet normal 0 1 0
    outer loop
      vertex -0.118533 1.01741 0
      vertex -0.118533 1.01741 5
      vertex 0.0790219 1.01741 0
    endloop
  endfacet
  facet normal -0 1 0
    outer loop
      vertex -0.118533 1.01741 5
      vertex 0.0790219 1.01741 5
      vertex 0.0790219 1.01741 0
    endloop
  endfacet
  facet normal -0.707107 0.707107 0
    outer loop
      vertex 0.0790219 1.01741 0
      vertex 0.0790219 1.01741 5
      vertex 0.217308 1.1557 0
    endloop
  endfacet
  facet normal -0.707107 0.707107 0
    outer loop
      vertex 0.0790219 1.01741 5
      vertex 0.217308 1.1557 5
      vertex 0.217308 1.1557 0
    endloop
  endfacet
  facet normal 0.0866292 0.996241 -0
    outer loop
      vertex 0.217308 1.1557 0
      vertex 0.217308 1.1557 5
      vertex 0.671686 1.11619 0
    endloop
  endfacet
  facet normal 0.0866292 0.996241 0
    outer loop
      vertex 0.217308 1.1557 5
      vertex 0.671686 1.11619 5
      vertex 0.671686 1.11619 0
    endloop
  endfacet
  facet normal 0.851652 0.524107 -0
    outer loop
      vertex 0.671686 1.11619 0
      vertex 0.671686 1.11619 5
      vertex 0.750708 0.987778 0
    endloop
  endfacet
  facet normal 0.851652 0.524107 0
    outer loop
      vertex 0.671686 1.11619 5
      vertex 0.750708 0.987778 5
      vertex 0.750708 0.987778 0
    endloop
  endfacet
  facet normal 0.124048 0.992276 -0
    outer loop
      vertex 0.750708 0.987778 0
      vertex 0.750708 0.987778 5
      vertex 0.82973 0.977899 0
    endloop
  endfacet
  facet normal 0.124048 0.992276 0
    outer loop
      vertex 0.750708 0.987778 5
      vertex 0.82973 0.977899 5
      vertex 0.82973 0.977899 0
    endloop
  endfacet
  facet normal -0.503865 0.863782 0
    outer loop
      vertex 0.82973 0.977899 0
      vertex 0.82973 0.977899 5
      vertex 0.948263 1.04704 0
    endloop
  endfacet
  facet normal -0.503865 0.863782 0
    outer loop
      vertex 0.82973 0.977899 5
      vertex 0.948263 1.04704 5
      vertex 0.948263 1.04704 0
    endloop
  endfacet
  facet normal -0.362438 0.932008 0
    outer loop
      vertex 0.948263 1.04704 0
      vertex 0.948263 1.04704 5
      vertex 1.12606 1.11619 0
    endloop
  endfacet
  facet normal -0.362438 0.932008 0
    outer loop
      vertex 0.948263 1.04704 5
      vertex 1.12606 1.11619 5
      vertex 1.12606 1.11619 0
    endloop
  endfacet
  facet normal -0.993149 0.116853 0
    outer loop
      vertex 1.12606 1.11619 0
      vertex 1.12606 1.11619 5
      vertex 1.14582 1.28411 0
    endloop
  endfacet
  facet normal -0.993149 0.116853 0
    outer loop
      vertex 1.12606 1.11619 5
      vertex 1.14582 1.28411 5
      vertex 1.14582 1.28411 0
    endloop
  endfacet
  facet normal -0.907967 0.419043 0
    outer loop
      vertex 1.14582 1.28411 0
      vertex 1.14582 1.28411 5
      vertex 1.20509 1.41252 0
    endloop
  endfacet
  facet normal -0.907967 0.419043 0
    outer loop
      vertex 1.14582 1.28411 5
      vertex 1.20509 1.41252 5
      vertex 1.20509 1.41252 0
    endloop
  endfacet
  facet normal -0.739943 0.67267 0
    outer loop
      vertex 1.20509 1.41252 0
      vertex 1.20509 1.41252 5
      vertex 1.30387 1.52118 0
    endloop
  endfacet
  facet normal -0.739943 0.67267 0
    outer loop
      vertex 1.20509 1.41252 5
      vertex 1.30387 1.52118 5
      vertex 1.30387 1.52118 0
    endloop
  endfacet
  facet normal -0.1961 0.980584 0
    outer loop
      vertex 1.30387 1.52118 0
      vertex 1.30387 1.52118 5
      vertex 1.40264 1.54093 0
    endloop
  endfacet
  facet normal -0.1961 0.980584 0
    outer loop
      vertex 1.30387 1.52118 5
      vertex 1.40264 1.54093 5
      vertex 1.40264 1.54093 0
    endloop
  endfacet
  facet normal 0.668961 0.743297 -0
    outer loop
      vertex 1.40264 1.54093 0
      vertex 1.40264 1.54093 5
      vertex 1.50142 1.45203 0
    endloop
  endfacet
  facet normal 0.668961 0.743297 0
    outer loop
      vertex 1.40264 1.54093 5
      vertex 1.50142 1.45203 5
      vertex 1.50142 1.45203 0
    endloop
  endfacet
  facet normal 0.961523 0.274725 -0
    outer loop
      vertex 1.50142 1.45203 0
      vertex 1.50142 1.45203 5
      vertex 1.54093 1.31374 0
    endloop
  endfacet
  facet normal 0.961523 0.274725 0
    outer loop
      vertex 1.50142 1.45203 5
      vertex 1.54093 1.31374 5
      vertex 1.54093 1.31374 0
    endloop
  endfacet
  facet normal 0.832063 -0.554682 0
    outer loop
      vertex 1.54093 1.31374 0
      vertex 1.54093 1.31374 5
      vertex 1.48167 1.22484 0
    endloop
  endfacet
  facet normal 0.832063 -0.554682 0
    outer loop
      vertex 1.54093 1.31374 5
      vertex 1.48167 1.22484 5
      vertex 1.48167 1.22484 0
    endloop
  endfacet
  facet normal 0.988369 -0.152072 0
    outer loop
      vertex 1.48167 1.22484 0
      vertex 1.48167 1.22484 5
      vertex 1.46191 1.09643 0
    endloop
  endfacet
  facet normal 0.988369 -0.152072 0
    outer loop
      vertex 1.48167 1.22484 5
      vertex 1.46191 1.09643 5
      vertex 1.46191 1.09643 0
    endloop
  endfacet
  facet normal 0.0830425 0.996546 -0
    outer loop
      vertex 1.46191 1.09643 0
      vertex 1.46191 1.09643 5
      vertex 1.81751 1.0668 0
    endloop
  endfacet
  facet normal 0.0830425 0.996546 0
    outer loop
      vertex 1.46191 1.09643 5
      vertex 1.81751 1.0668 5
      vertex 1.81751 1.0668 0
    endloop
  endfacet
  facet normal -0.0738714 0.997268 0
    outer loop
      vertex 1.81751 1.0668 0
      vertex 1.81751 1.0668 5
      vertex 2.88431 1.14582 0
    endloop
  endfacet
  facet normal -0.0738714 0.997268 0
    outer loop
      vertex 1.81751 1.0668 5
      vertex 2.88431 1.14582 5
      vertex 2.88431 1.14582 0
    endloop
  endfacet
  facet normal -0.75924 0.650811 0
    outer loop
      vertex 2.88431 1.14582 0
      vertex 2.88431 1.14582 5
      vertex 2.94358 1.21496 0
    endloop
  endfacet
  facet normal -0.75924 0.650811 0
    outer loop
      vertex 2.88431 1.14582 5
      vertex 2.94358 1.21496 5
      vertex 2.94358 1.21496 0
    endloop
  endfacet
  facet normal -0.953579 0.301143 0
    outer loop
      vertex 2.94358 1.21496 0
      vertex 2.94358 1.21496 5
      vertex 3.00284 1.40264 0
    endloop
  endfacet
  facet normal -0.953579 0.301143 0
    outer loop
      vertex 2.94358 1.21496 5
      vertex 3.00284 1.40264 5
      vertex 3.00284 1.40264 0
    endloop
  endfacet
  facet normal -0.588196 0.808718 0
    outer loop
      vertex 3.00284 1.40264 0
      vertex 3.00284 1.40264 5
      vertex 3.1115 1.48167 0
    endloop
  endfacet
  facet normal -0.588196 0.808718 0
    outer loop
      vertex 3.00284 1.40264 5
      vertex 3.1115 1.48167 5
      vertex 3.1115 1.48167 0
    endloop
  endfacet
  facet normal 0.524115 0.851648 -0
    outer loop
      vertex 3.1115 1.48167 0
      vertex 3.1115 1.48167 5
      vertex 3.23991 1.40264 0
    endloop
  endfacet
  facet normal 0.524115 0.851648 0
    outer loop
      vertex 3.1115 1.48167 5
      vertex 3.23991 1.40264 5
      vertex 3.23991 1.40264 0
    endloop
  endfacet
  facet normal 0.851652 0.524107 -0
    outer loop
      vertex 3.23991 1.40264 0
      vertex 3.23991 1.40264 5
      vertex 3.31893 1.27423 0
    endloop
  endfacet
  facet normal 0.851652 0.524107 0
    outer loop
      vertex 3.23991 1.40264 5
      vertex 3.31893 1.27423 5
      vertex 3.31893 1.27423 0
    endloop
  endfacet
  facet normal 0.988372 -0.152056 0
    outer loop
      vertex 3.31893 1.27423 0
      vertex 3.31893 1.27423 5
      vertex 3.27942 1.01741 0
    endloop
  endfacet
  facet normal 0.988372 -0.152056 0
    outer loop
      vertex 3.31893 1.27423 5
      vertex 3.27942 1.01741 5
      vertex 3.27942 1.01741 0
    endloop
  endfacet
  facet normal 0.640188 -0.768218 0
    outer loop
      vertex 3.27942 1.01741 0
      vertex 3.27942 1.01741 5
      vertex 3.10162 0.869241 0
    endloop
  endfacet
  facet normal 0.640188 -0.768218 0
    outer loop
      vertex 3.27942 1.01741 5
      vertex 3.10162 0.869241 5
      vertex 3.10162 0.869241 0
    endloop
  endfacet
  facet normal 0.964763 -0.26312 0
    outer loop
      vertex 3.10162 0.869241 0
      vertex 3.10162 0.869241 5
      vertex 3.01272 0.543274 0
    endloop
  endfacet
  facet normal 0.964763 -0.26312 0
    outer loop
      vertex 3.10162 0.869241 5
      vertex 3.01272 0.543274 5
      vertex 3.01272 0.543274 0
    endloop
  endfacet
  facet normal 0.799969 0.600042 -0
    outer loop
      vertex 3.01272 0.543274 0
      vertex 3.01272 0.543274 5
      vertex 3.04236 0.503763 0
    endloop
  endfacet
  facet normal 0.799969 0.600042 0
    outer loop
      vertex 3.01272 0.543274 5
      vertex 3.04236 0.503763 5
      vertex 3.04236 0.503763 0
    endloop
  endfacet
  facet normal 0.992276 -0.124048 0
    outer loop
      vertex 3.04236 0.503763 0
      vertex 3.04236 0.503763 5
      vertex 3.03248 0.424742 0
    endloop
  endfacet
  facet normal 0.992276 -0.124048 0
    outer loop
      vertex 3.04236 0.503763 5
      vertex 3.03248 0.424742 5
      vertex 3.03248 0.424742 0
    endloop
  endfacet
  facet normal -0.393912 -0.919148 0
    outer loop
      vertex 3.03248 0.424742 0
      vertex 3.03248 0.424742 5
      vertex 2.96333 0.454374 0
    endloop
  endfacet
  facet normal -0.393912 -0.919148 0
    outer loop
      vertex 3.03248 0.424742 5
      vertex 2.96333 0.454374 5
      vertex 2.96333 0.454374 0
    endloop
  endfacet
  facet normal 0.989201 -0.146565 0
    outer loop
      vertex 2.96333 0.454374 0
      vertex 2.96333 0.454374 5
      vertex 2.92382 0.187676 0
    endloop
  endfacet
  facet normal 0.989201 -0.146565 0
    outer loop
      vertex 2.96333 0.454374 5
      vertex 2.92382 0.187676 5
      vertex 2.92382 0.187676 0
    endloop
  endfacet
  facet normal -0.316228 -0.948683 0
    outer loop
      vertex 2.92382 0.187676 0
      vertex 2.92382 0.187676 5
      vertex 2.83492 0.217308 0
    endloop
  endfacet
  facet normal -0.316228 -0.948683 0
    outer loop
      vertex 2.92382 0.187676 5
      vertex 2.83492 0.217308 5
      vertex 2.83492 0.217308 0
    endloop
  endfacet
  facet normal -0.980583 0.196103 0
    outer loop
      vertex 2.83492 0.217308 0
      vertex 2.83492 0.217308 5
      vertex 2.88431 0.464252 0
    endloop
  endfacet
  facet normal -0.980583 0.196103 0
    outer loop
      vertex 2.83492 0.217308 5
      vertex 2.88431 0.464252 5
      vertex 2.88431 0.464252 0
    endloop
  endfacet
  facet normal 0.124048 -0.992276 0
    outer loop
      vertex 2.88431 0.464252 0
      vertex 2.88431 0.464252 5
      vertex 2.80529 0.454374 0
    endloop
  endfacet
  facet normal 0.124048 -0.992276 0
    outer loop
      vertex 2.88431 0.464252 5
      vertex 2.80529 0.454374 5
      vertex 2.80529 0.454374 0
    endloop
  endfacet
  facet normal -0.970139 0.242548 0
    outer loop
      vertex 2.80529 0.454374 0
      vertex 2.80529 0.454374 5
      vertex 2.82504 0.5334 0
    endloop
  endfacet
  facet normal -0.970139 0.242548 0
    outer loop
      vertex 2.80529 0.454374 5
      vertex 2.82504 0.5334 5
      vertex 2.82504 0.5334 0
    endloop
  endfacet
  facet normal -0.529974 0.848014 0
    outer loop
      vertex 2.82504 0.5334 0
      vertex 2.82504 0.5334 5
      vertex 2.90406 0.582785 0
    endloop
  endfacet
  facet normal -0.529974 0.848014 0
    outer loop
      vertex 2.82504 0.5334 5
      vertex 2.90406 0.582785 5
      vertex 2.90406 0.582785 0
    endloop
  endfacet
  facet normal -0.992734 0.120331 0
    outer loop
      vertex 2.90406 0.582785 0
      vertex 2.90406 0.582785 5
      vertex 2.94358 0.908752 0
    endloop
  endfacet
  facet normal -0.992734 0.120331 0
    outer loop
      vertex 2.90406 0.582785 5
      vertex 2.94358 0.908752 5
      vertex 2.94358 0.908752 0
    endloop
  endfacet
  facet normal 0.138361 -0.990382 0
    outer loop
      vertex 2.94358 0.908752 0
      vertex 2.94358 0.908752 5
      vertex 1.6002 0.721076 0
    endloop
  endfacet
  facet normal 0.138361 -0.990382 0
    outer loop
      vertex 2.94358 0.908752 5
      vertex 1.6002 0.721076 5
      vertex 1.6002 0.721076 0
    endloop
  endfacet
  facet normal 0.948681 -0.316235 0
    outer loop
      vertex 1.6002 0.721076 0
      vertex 1.6002 0.721076 5
      vertex 1.54093 0.543274 0
    endloop
  endfacet
  facet normal 0.948681 -0.316235 0
    outer loop
      vertex 1.6002 0.721076 5
      vertex 1.54093 0.543274 5
      vertex 1.54093 0.543274 0
    endloop
  endfacet
  facet normal 0.997054 0.0767054 -0
    outer loop
      vertex 1.54093 0.543274 0
      vertex 1.54093 0.543274 5
      vertex 1.56069 0.286455 0
    endloop
  endfacet
  facet normal 0.997054 0.0767054 0
    outer loop
      vertex 1.54093 0.543274 5
      vertex 1.56069 0.286455 5
      vertex 1.56069 0.286455 0
    endloop
  endfacet
  facet normal 0.346649 0.937995 -0
    outer loop
      vertex 1.56069 0.286455 0
      vertex 1.56069 0.286455 5
      vertex 2.92382 -0.217308 0
    endloop
  endfacet
  facet normal 0.346649 0.937995 0
    outer loop
      vertex 1.56069 0.286455 5
      vertex 2.92382 -0.217308 5
      vertex 2.92382 -0.217308 0
    endloop
  endfacet
  facet normal -0.298274 0.95448 0
    outer loop
      vertex 2.92382 -0.217308 0
      vertex 2.92382 -0.217308 5
      vertex 3.08187 -0.167918 0
    endloop
  endfacet
  facet normal -0.298274 0.95448 0
    outer loop
      vertex 2.92382 -0.217308 5
      vertex 3.08187 -0.167918 5
      vertex 3.08187 -0.167918 0
    endloop
  endfacet
  facet normal 0.845493 0.533986 -0
    outer loop
      vertex 3.08187 -0.167918 0
      vertex 3.08187 -0.167918 5
      vertex 3.2004 -0.355598 0
    endloop
  endfacet
  facet normal 0.845493 0.533986 0
    outer loop
      vertex 3.08187 -0.167918 5
      vertex 3.2004 -0.355598 5
      vertex 3.2004 -0.355598 0
    endloop
  endfacet
  facet normal 0.968801 -0.247838 0
    outer loop
      vertex 3.2004 -0.355598 0
      vertex 3.2004 -0.355598 5
      vertex 3.09174 -0.780344 0
    endloop
  endfacet
  facet normal 0.968801 -0.247838 0
    outer loop
      vertex 3.2004 -0.355598 5
      vertex 3.09174 -0.780344 5
      vertex 3.09174 -0.780344 0
    endloop
  endfacet
  facet normal 0.216915 -0.97619 0
    outer loop
      vertex 3.09174 -0.780344 0
      vertex 3.09174 -0.780344 5
      vertex 3.00284 -0.800098 0
    endloop
  endfacet
  facet normal 0.216915 -0.97619 0
    outer loop
      vertex 3.09174 -0.780344 5
      vertex 3.00284 -0.800098 5
      vertex 3.00284 -0.800098 0
    endloop
  endfacet
  facet normal 0.977801 -0.209535 0
    outer loop
      vertex 3.00284 -0.800098 0
      vertex 3.00284 -0.800098 5
      vertex 2.88431 -1.35326 0
    endloop
  endfacet
  facet normal 0.977801 -0.209535 0
    outer loop
      vertex 3.00284 -0.800098 5
      vertex 2.88431 -1.35326 5
      vertex 2.88431 -1.35326 0
    endloop
  endfacet
  facet normal 0.75924 0.650811 -0
    outer loop
      vertex 2.88431 -1.35326 0
      vertex 2.88431 -1.35326 5
      vertex 2.94358 -1.4224 0
    endloop
  endfacet
  facet normal 0.75924 0.650811 0
    outer loop
      vertex 2.88431 -1.35326 5
      vertex 2.94358 -1.4224 5
      vertex 2.94358 -1.4224 0
    endloop
  endfacet
  facet normal 0.910362 -0.413814 0
    outer loop
      vertex 2.94358 -1.4224 0
      vertex 2.94358 -1.4224 5
      vertex 2.89419 -1.53105 0
    endloop
  endfacet
  facet normal 0.910362 -0.413814 0
    outer loop
      vertex 2.94358 -1.4224 5
      vertex 2.89419 -1.53105 5
      vertex 2.89419 -1.53105 0
    endloop
  endfacet
  facet normal -0.624687 -0.780875 0
    outer loop
      vertex 2.89419 -1.53105 0
      vertex 2.89419 -1.53105 5
      vertex 2.8448 -1.49154 0
    endloop
  endfacet
  facet normal -0.624687 -0.780875 0
    outer loop
      vertex 2.89419 -1.53105 5
      vertex 2.8448 -1.49154 5
      vertex 2.8448 -1.49154 0
    endloop
  endfacet
  facet normal 0.985212 -0.171339 0
    outer loop
      vertex 2.8448 -1.49154 0
      vertex 2.8448 -1.49154 5
      vertex 2.80529 -1.71873 0
    endloop
  endfacet
  facet normal 0.985212 -0.171339 0
    outer loop
      vertex 2.8448 -1.49154 5
      vertex 2.80529 -1.71873 5
      vertex 2.80529 -1.71873 0
    endloop
  endfacet
  facet normal 0 -1 0
    outer loop
      vertex 2.80529 -1.71873 0
      vertex 2.80529 -1.71873 5
      vertex 2.72626 -1.71873 0
    endloop
  endfacet
  facet normal -0 -1 0
    outer loop
      vertex 2.80529 -1.71873 5
      vertex 2.72626 -1.71873 5
      vertex 2.72626 -1.71873 0
    endloop
  endfacet
  facet normal -0.97898 0.203959 0
    outer loop
      vertex 2.72626 -1.71873 0
      vertex 2.72626 -1.71873 5
      vertex 2.77565 -1.48167 0
    endloop
  endfacet
  facet normal -0.97898 0.203959 0
    outer loop
      vertex 2.72626 -1.71873 5
      vertex 2.77565 -1.48167 5
      vertex 2.77565 -1.48167 0
    endloop
  endfacet
  facet normal 0.316214 -0.948688 0
    outer loop
      vertex 2.77565 -1.48167 0
      vertex 2.77565 -1.48167 5
      vertex 2.68675 -1.5113 0
    endloop
  endfacet
  facet normal 0.316214 -0.948688 0
    outer loop
      vertex 2.77565 -1.48167 5
      vertex 2.68675 -1.5113 5
      vertex 2.68675 -1.5113 0
    endloop
  endfacet
  facet normal -0.974386 0.224881 0
    outer loop
      vertex 2.68675 -1.5113 0
      vertex 2.68675 -1.5113 5
      vertex 2.71639 -1.38289 0
    endloop
  endfacet
  facet normal -0.974386 0.224881 0
    outer loop
      vertex 2.68675 -1.5113 5
      vertex 2.71639 -1.38289 5
      vertex 2.71639 -1.38289 0
    endloop
  endfacet
  facet normal -0.496145 0.86824 0
    outer loop
      vertex 2.71639 -1.38289 0
      vertex 2.71639 -1.38289 5
      vertex 2.78553 -1.34338 0
    endloop
  endfacet
  facet normal -0.496145 0.86824 0
    outer loop
      vertex 2.71639 -1.38289 5
      vertex 2.78553 -1.34338 5
      vertex 2.78553 -1.34338 0
    endloop
  endfacet
  facet normal -0.984958 0.172796 0
    outer loop
      vertex 2.78553 -1.34338 0
      vertex 2.78553 -1.34338 5
      vertex 2.88431 -0.780344 0
    endloop
  endfacet
  facet normal -0.984958 0.172796 0
    outer loop
      vertex 2.78553 -1.34338 5
      vertex 2.88431 -0.780344 5
      vertex 2.88431 -0.780344 0
    endloop
  endfacet
  facet normal -0.242561 -0.970136 0
    outer loop
      vertex 2.88431 -0.780344 0
      vertex 2.88431 -0.780344 5
      vertex 2.80529 -0.760587 0
    endloop
  endfacet
  facet normal -0.242561 -0.970136 0
    outer loop
      vertex 2.88431 -0.780344 5
      vertex 2.80529 -0.760587 5
      vertex 2.80529 -0.760587 0
    endloop
  endfacet
  facet normal -0.992734 0.120331 0
    outer loop
      vertex 2.80529 -0.760587 0
      vertex 2.80529 -0.760587 5
      vertex 2.8448 -0.43462 0
    endloop
  endfacet
  facet normal -0.992734 0.120331 0
    outer loop
      vertex 2.80529 -0.760587 5
      vertex 2.8448 -0.43462 5
      vertex 2.8448 -0.43462 0
    endloop
  endfacet
  facet normal -0.263119 -0.964763 0
    outer loop
      vertex 2.8448 -0.43462 0
      vertex 2.8448 -0.43462 5
      vertex 1.75824 -0.138286 0
    endloop
  endfacet
  facet normal -0.263119 -0.964763 0
    outer loop
      vertex 2.8448 -0.43462 5
      vertex 1.75824 -0.138286 5
      vertex 1.75824 -0.138286 0
    endloop
  endfacet
  facet normal 0.970136 -0.242561 0
    outer loop
      vertex 1.75824 -0.138286 0
      vertex 1.75824 -0.138286 5
      vertex 1.73849 -0.217308 0
    endloop
  endfacet
  facet normal 0.970136 -0.242561 0
    outer loop
      vertex 1.75824 -0.138286 5
      vertex 1.73849 -0.217308 5
      vertex 1.73849 -0.217308 0
    endloop
  endfacet
  facet normal 0.0333182 -0.999445 0
    outer loop
      vertex 1.73849 -0.217308 0
      vertex 1.73849 -0.217308 5
      vertex 1.44215 -0.227187 0
    endloop
  endfacet
  facet normal 0.0333182 -0.999445 0
    outer loop
      vertex 1.73849 -0.217308 5
      vertex 1.44215 -0.227187 5
      vertex 1.44215 -0.227187 0
    endloop
  endfacet
  facet normal 0.585498 -0.810674 0
    outer loop
      vertex 1.44215 -0.227187 0
      vertex 1.44215 -0.227187 5
      vertex 1.26435 -0.355598 0
    endloop
  endfacet
  facet normal 0.585498 -0.810674 0
    outer loop
      vertex 1.44215 -0.227187 5
      vertex 1.26435 -0.355598 5
      vertex 1.26435 -0.355598 0
    endloop
  endfacet
  facet normal -0.0356954 -0.999363 0
    outer loop
      vertex 1.26435 -0.355598 0
      vertex 1.26435 -0.355598 5
      vertex 0.987778 -0.34572 0
    endloop
  endfacet
  facet normal -0.0356954 -0.999363 0
    outer loop
      vertex 1.26435 -0.355598 5
      vertex 0.987778 -0.34572 5
      vertex 0.987778 -0.34572 0
    endloop
  endfacet
  facet normal -0.52998 -0.84801 0
    outer loop
      vertex 0.987778 -0.34572 0
      vertex 0.987778 -0.34572 5
      vertex 0.82973 -0.246944 0
    endloop
  endfacet
  facet normal -0.52998 -0.84801 0
    outer loop
      vertex 0.987778 -0.34572 5
      vertex 0.82973 -0.246944 5
      vertex 0.82973 -0.246944 0
    endloop
  endfacet
  facet normal -0.734806 -0.678277 0
    outer loop
      vertex 0.82973 -0.246944 0
      vertex 0.82973 -0.246944 5
      vertex 0.711197 -0.118533 0
    endloop
  endfacet
  facet normal -0.734806 -0.678277 0
    outer loop
      vertex 0.82973 -0.246944 5
      vertex 0.711197 -0.118533 5
      vertex 0.711197 -0.118533 0
    endloop
  endfacet
  facet normal -0.995038 -0.099493 0
    outer loop
      vertex 0.711197 -0.118533 0
      vertex 0.711197 -0.118533 5
      vertex 0.691444 0.0790219 0
    endloop
  endfacet
  facet normal -0.995038 -0.099493 0
    outer loop
      vertex 0.711197 -0.118533 5
      vertex 0.691444 0.0790219 5
      vertex 0.691444 0.0790219 0
    endloop
  endfacet
  facet normal -0.242527 -0.970145 0
    outer loop
      vertex 0.691444 0.0790219 0
      vertex 0.691444 0.0790219 5
      vertex 0.572911 0.108654 0
    endloop
  endfacet
  facet normal -0.242527 -0.970145 0
    outer loop
      vertex 0.691444 0.0790219 5
      vertex 0.572911 0.108654 5
      vertex 0.572911 0.108654 0
    endloop
  endfacet
  facet normal 0.80505 -0.593207 0
    outer loop
      vertex 0.572911 0.108654 0
      vertex 0.572911 0.108654 5
      vertex 0.43462 -0.0790219 0
    endloop
  endfacet
  facet normal 0.80505 -0.593207 0
    outer loop
      vertex 0.572911 0.108654 5
      vertex 0.43462 -0.0790219 5
      vertex 0.43462 -0.0790219 0
    endloop
  endfacet
  facet normal 0.775236 -0.631671 0
    outer loop
      vertex 0.43462 -0.0790219 0
      vertex 0.43462 -0.0790219 5
      vertex -0.217308 -0.879119 0
    endloop
  endfacet
  facet normal 0.775236 -0.631671 0
    outer loop
      vertex 0.43462 -0.0790219 5
      vertex -0.217308 -0.879119 5
      vertex -0.217308 -0.879119 0
    endloop
  endfacet
  facet normal 0.928479 -0.371384 0
    outer loop
      vertex -0.217308 -0.879119 0
      vertex -0.217308 -0.879119 5
      vertex -0.256819 -0.977899 0
    endloop
  endfacet
  facet normal 0.928479 -0.371384 0
    outer loop
      vertex -0.217308 -0.879119 5
      vertex -0.256819 -0.977899 5
      vertex -0.256819 -0.977899 0
    endloop
  endfacet
  facet normal 0.7348 -0.678283 0
    outer loop
      vertex -0.256819 -0.977899 0
      vertex -0.256819 -0.977899 5
      vertex -0.730955 -1.49154 0
    endloop
  endfacet
  facet normal 0.7348 -0.678283 0
    outer loop
      vertex -0.256819 -0.977899 5
      vertex -0.730955 -1.49154 5
      vertex -0.730955 -1.49154 0
    endloop
  endfacet
  facet normal -0.0957145 -0.995409 0
    outer loop
      vertex -0.730955 -1.49154 0
      vertex -0.730955 -1.49154 5
      vertex -1.2446 -1.44215 0
    endloop
  endfacet
  facet normal -0.0957145 -0.995409 0
    outer loop
      vertex -0.730955 -1.49154 5
      vertex -1.2446 -1.44215 5
      vertex -1.2446 -1.44215 0
    endloop
  endfacet
  facet normal -0.928478 0.371387 0
    outer loop
      vertex -1.2446 -1.44215 0
      vertex -1.2446 -1.44215 5
      vertex -1.10631 -1.09643 0
    endloop
  endfacet
  facet normal -0.928478 0.371387 0
    outer loop
      vertex -1.2446 -1.44215 5
      vertex -1.10631 -1.09643 5
      vertex -1.10631 -1.09643 0
    endloop
  endfacet
  facet normal -0.870753 0.491721 0
    outer loop
      vertex -1.10631 -1.09643 0
      vertex -1.10631 -1.09643 5
      vertex -0.632175 -0.256819 0
    endloop
  endfacet
  facet normal -0.870753 0.491721 0
    outer loop
      vertex -1.10631 -1.09643 5
      vertex -0.632175 -0.256819 5
      vertex -0.632175 -0.256819 0
    endloop
  endfacet
  facet normal 0.196133 -0.980577 0
    outer loop
      vertex -0.632175 -0.256819 0
      vertex -0.632175 -0.256819 5
      vertex -0.730955 -0.276577 0
    endloop
  endfacet
  facet normal 0.196133 -0.980577 0
    outer loop
      vertex -0.632175 -0.256819 5
      vertex -0.730955 -0.276577 5
      vertex -0.730955 -0.276577 0
    endloop
  endfacet
  facet normal -0.393937 -0.919138 0
    outer loop
      vertex -0.730955 -0.276577 0
      vertex -0.730955 -0.276577 5
      vertex -0.869241 -0.217308 0
    endloop
  endfacet
  facet normal -0.393937 -0.919138 0
    outer loop
      vertex -0.730955 -0.276577 5
      vertex -0.869241 -0.217308 5
      vertex -0.869241 -0.217308 0
    endloop
  endfacet
  facet normal -0.808733 -0.588176 0
    outer loop
      vertex -0.869241 -0.217308 0
      vertex -0.869241 -0.217308 5
      vertex -0.948263 -0.108654 0
    endloop
  endfacet
  facet normal -0.808733 -0.588176 0
    outer loop
      vertex -0.869241 -0.217308 5
      vertex -0.948263 -0.108654 5
      vertex -0.948263 -0.108654 0
    endloop
  endfacet
  facet normal -0.54497 -0.838455 0
    outer loop
      vertex -0.948263 -0.108654 0
      vertex -0.948263 -0.108654 5
      vertex -1.14582 0.0197533 0
    endloop
  endfacet
  facet normal -0.54497 -0.838455 0
    outer loop
      vertex -0.948263 -0.108654 5
      vertex -1.14582 0.0197533 5
      vertex -1.14582 0.0197533 0
    endloop
  endfacet
  facet normal 0.0941666 -0.995556 0
    outer loop
      vertex -1.14582 0.0197533 0
      vertex -1.14582 0.0197533 5
      vertex -1.87678 -0.0493854 0
    endloop
  endfacet
  facet normal 0.0941666 -0.995556 0
    outer loop
      vertex -1.14582 0.0197533 5
      vertex -1.87678 -0.0493854 5
      vertex -1.87678 -0.0493854 0
    endloop
  endfacet
  facet normal 0.76251 -0.646976 0
    outer loop
      vertex -1.87678 -0.0493854 0
      vertex -1.87678 -0.0493854 5
      vertex -2.15335 -0.375352 0
    endloop
  endfacet
  facet normal 0.76251 -0.646976 0
    outer loop
      vertex -1.87678 -0.0493854 5
      vertex -2.15335 -0.375352 5
      vertex -2.15335 -0.375352 0
    endloop
  endfacet
  facet normal 0.242541 -0.970141 0
    outer loop
      vertex -2.15335 -0.375352 0
      vertex -2.15335 -0.375352 5
      vertex -2.35091 -0.424742 0
    endloop
  endfacet
  facet normal 0.242541 -0.970141 0
    outer loop
      vertex -2.15335 -0.375352 5
      vertex -2.35091 -0.424742 5
      vertex -2.35091 -0.424742 0
    endloop
  endfacet
  facet normal 0.692224 -0.721683 0
    outer loop
      vertex -2.35091 -0.424742 0
      vertex -2.35091 -0.424742 5
      vertex -2.83492 -0.888998 0
    endloop
  endfacet
  facet normal 0.692224 -0.721683 0
    outer loop
      vertex -2.35091 -0.424742 5
      vertex -2.83492 -0.888998 5
      vertex -2.83492 -0.888998 0
    endloop
  endfacet
  facet normal 0.970136 0.242561 -0
    outer loop
      vertex -2.83492 -0.888998 0
      vertex -2.83492 -0.888998 5
      vertex -2.81516 -0.96802 0
    endloop
  endfacet
  facet normal 0.970136 0.242561 0
    outer loop
      vertex -2.83492 -0.888998 5
      vertex -2.81516 -0.96802 5
      vertex -2.81516 -0.96802 0
    endloop
  endfacet
  facet normal 0.75924 -0.650811 0
    outer loop
      vertex -2.81516 -0.96802 0
      vertex -2.81516 -0.96802 5
      vertex -2.87443 -1.03716 0
    endloop
  endfacet
  facet normal 0.75924 -0.650811 0
    outer loop
      vertex -2.81516 -0.96802 5
      vertex -2.87443 -1.03716 5
      vertex -2.87443 -1.03716 0
    endloop
  endfacet
  facet normal -0.780849 -0.62472 0
    outer loop
      vertex -2.87443 -1.03716 0
      vertex -2.87443 -1.03716 5
      vertex -2.91394 -0.987778 0
    endloop
  endfacet
  facet normal -0.780849 -0.62472 0
    outer loop
      vertex -2.87443 -1.03716 5
      vertex -2.91394 -0.987778 5
      vertex -2.91394 -0.987778 0
    endloop
  endfacet
  facet normal 0.447175 -0.894447 0
    outer loop
      vertex -2.91394 -0.987778 0
      vertex -2.91394 -0.987778 5
      vertex -2.95345 -1.00753 0
    endloop
  endfacet
  facet normal 0.447175 -0.894447 0
    outer loop
      vertex -2.91394 -0.987778 5
      vertex -2.95345 -1.00753 5
      vertex -2.95345 -1.00753 0
    endloop
  endfacet
  facet normal 0.80001 -0.599986 0
    outer loop
      vertex -2.95345 -1.00753 0
      vertex -2.95345 -1.00753 5
      vertex -2.98309 -1.04704 0
    endloop
  endfacet
  facet normal 0.80001 -0.599986 0
    outer loop
      vertex -2.95345 -1.00753 5
      vertex -2.98309 -1.04704 5
      vertex -2.98309 -1.04704 0
    endloop
  endfacet
  facet normal 0.707107 -0.707107 0
    outer loop
      vertex -2.98309 -1.04704 0
      vertex -2.98309 -1.04704 5
      vertex -3.10162 -1.16557 0
    endloop
  endfacet
  facet normal 0.707107 -0.707107 0
    outer loop
      vertex -2.98309 -1.04704 5
      vertex -3.10162 -1.16557 5
      vertex -3.10162 -1.16557 0
    endloop
  endfacet
  facet normal -0.554686 -0.83206 0
    outer loop
      vertex -3.10162 -1.16557 0
      vertex -3.10162 -1.16557 5
      vertex -3.16089 -1.12606 0
    endloop
  endfacet
  facet normal -0.554686 -0.83206 0
    outer loop
      vertex -3.10162 -1.16557 5
      vertex -3.16089 -1.12606 5
      vertex -3.16089 -1.12606 0
    endloop
  endfacet
  facet normal -0.780869 0.624695 0
    outer loop
      vertex -3.16089 -1.12606 0
      vertex -3.16089 -1.12606 5
      vertex -3.00284 -0.928509 0
    endloop
  endfacet
  facet normal -0.780869 0.624695 0
    outer loop
      vertex -3.16089 -1.12606 5
      vertex -3.00284 -0.928509 5
      vertex -3.00284 -0.928509 0
    endloop
  endfacet
  facet normal -0.242561 -0.970136 0
    outer loop
      vertex -3.00284 -0.928509 0
      vertex -3.00284 -0.928509 5
      vertex -3.08187 -0.908752 0
    endloop
  endfacet
  facet normal -0.242561 -0.970136 0
    outer loop
      vertex -3.00284 -0.928509 5
      vertex -3.08187 -0.908752 5
      vertex -3.08187 -0.908752 0
    endloop
  endfacet
  facet normal -0.65076 0.759283 0
    outer loop
      vertex -3.08187 -0.908752 0
      vertex -3.08187 -0.908752 5
      vertex -3.01272 -0.849487 0
    endloop
  endfacet
  facet normal -0.65076 0.759283 0
    outer loop
      vertex -3.08187 -0.908752 5
      vertex -3.01272 -0.849487 5
      vertex -3.01272 -0.849487 0
    endloop
  endfacet
  facet normal -0.178906 0.983866 0
    outer loop
      vertex -3.01272 -0.849487 0
      vertex -3.01272 -0.849487 5
      vertex -2.90406 -0.82973 0
    endloop
  endfacet
  facet normal -0.178906 0.983866 0
    outer loop
      vertex -3.01272 -0.849487 5
      vertex -2.90406 -0.82973 5
      vertex -2.90406 -0.82973 0
    endloop
  endfacet
  facet normal -0.764909 0.644138 0
    outer loop
      vertex -2.90406 -0.82973 0
      vertex -2.90406 -0.82973 5
      vertex -2.42993 -0.266698 0
    endloop
  endfacet
  facet normal -0.764909 0.644138 0
    outer loop
      vertex -2.90406 -0.82973 5
      vertex -2.42993 -0.266698 5
      vertex -2.42993 -0.266698 0
    endloop
  endfacet
  facet normal -0.993885 0.110418 0
    outer loop
      vertex -2.42993 -0.266698 0
      vertex -2.42993 -0.266698 5
      vertex -2.41018 -0.0888964 0
    endloop
  endfacet
  facet normal -0.993885 0.110418 0
    outer loop
      vertex -2.42993 -0.266698 5
      vertex -2.41018 -0.0888964 5
      vertex -2.41018 -0.0888964 0
    endloop
  endfacet
  facet normal -0.737145 0.675735 0
    outer loop
      vertex -2.41018 -0.0888964 0
      vertex -2.41018 -0.0888964 5
      vertex -2.19286 0.148165 0
    endloop
  endfacet
  facet normal -0.737145 0.675735 0
    outer loop
      vertex -2.41018 -0.0888964 5
      vertex -2.19286 0.148165 5
      vertex -2.19286 0.148165 0
    endloop
  endfacet
  facet normal -0.19253 0.981291 0
    outer loop
      vertex -2.19286 0.148165 0
      vertex -2.19286 0.148165 5
      vertex -0.632175 0.454374 0
    endloop
  endfacet
  facet normal -0.19253 0.981291 0
    outer loop
      vertex -2.19286 0.148165 5
      vertex -0.632175 0.454374 5
      vertex -0.632175 0.454374 0
    endloop
  endfacet
  facet normal -1 0 0
    outer loop
      vertex -0.632175 0.454374 0
      vertex -0.632175 0.454374 5
      vertex -0.632175 0.572911 0
    endloop
  endfacet
  facet normal -1 0 0
    outer loop
      vertex -0.632175 0.454374 5
      vertex -0.632175 0.572911 5
      vertex -0.632175 0.572911 0
    endloop
  endfacet
  facet normal -0.0475597 -0.998868 0
    outer loop
      vertex -0.632175 0.572911 0
      vertex -0.632175 0.572911 5
      vertex -1.04704 0.592664 0
    endloop
  endfacet
  facet normal -0.0475597 -0.998868 0
    outer loop
      vertex -0.632175 0.572911 5
      vertex -1.04704 0.592664 5
      vertex -1.04704 0.592664 0
    endloop
  endfacet
  facet normal -0.928479 -0.371384 0
    outer loop
      vertex -1.04704 0.592664 0
      vertex -1.04704 0.592664 5
      vertex -1.08655 0.691444 0
    endloop
  endfacet
  facet normal -0.928479 -0.371384 0
    outer loop
      vertex -1.04704 0.592664 5
      vertex -1.08655 0.691444 5
      vertex -1.08655 0.691444 0
    endloop
  endfacet
  facet normal -0.884921 0.465741 0
    outer loop
      vertex -1.08655 0.691444 0
      vertex -1.08655 0.691444 5
      vertex -0.987778 0.879119 0
    endloop
  endfacet
  facet normal -0.884921 0.465741 0
    outer loop
      vertex -1.08655 0.691444 5
      vertex -0.987778 0.879119 5
      vertex -0.987778 0.879119 0
    endloop
  endfacet
  facet normal -0.303204 -0.952926 0
    outer loop
      vertex -0.987778 0.879119 0
      vertex -0.987778 0.879119 5
      vertex -2.29164 1.29399 0
    endloop
  endfacet
  facet normal -0.303204 -0.952926 0
    outer loop
      vertex -0.987778 0.879119 5
      vertex -2.29164 1.29399 5
      vertex -2.29164 1.29399 0
    endloop
  endfacet
  facet normal 0.351112 -0.936333 0
    outer loop
      vertex -2.29164 1.29399 0
      vertex -2.29164 1.29399 5
      vertex -2.44969 1.23472 0
    endloop
  endfacet
  facet normal 0.351112 -0.936333 0
    outer loop
      vertex -2.29164 1.29399 5
      vertex -2.44969 1.23472 5
      vertex -2.44969 1.23472 0
    endloop
  endfacet
  facet normal 0.640193 -0.768214 0
    outer loop
      vertex -2.44969 1.23472 0
      vertex -2.44969 1.23472 5
      vertex -2.56822 1.13594 0
    endloop
  endfacet
  facet normal 0.640193 -0.768214 0
    outer loop
      vertex -2.44969 1.23472 5
      vertex -2.56822 1.13594 5
      vertex -2.56822 1.13594 0
    endloop
  endfacet
  facet normal -0.164411 -0.986392 0
    outer loop
      vertex -2.56822 1.13594 0
      vertex -2.56822 1.13594 5
      vertex -2.62749 1.14582 0
    endloop
  endfacet
  facet normal -0.164411 -0.986392 0
    outer loop
      vertex -2.56822 1.13594 5
      vertex -2.62749 1.14582 5
      vertex -2.62749 1.14582 0
    endloop
  endfacet
  facet normal 0.6247 -0.780865 0
    outer loop
      vertex -2.62749 1.14582 0
      vertex -2.62749 1.14582 5
      vertex -3.0226 0.82973 0
    endloop
  endfacet
  facet normal 0.6247 -0.780865 0
    outer loop
      vertex -2.62749 1.14582 5
      vertex -3.0226 0.82973 5
      vertex -3.0226 0.82973 0
    endloop
  endfacet
  facet normal 0.989947 -0.141439 0
    outer loop
      vertex -3.0226 0.82973 0
      vertex -3.0226 0.82973 5
      vertex -3.03248 0.760587 0
    endloop
  endfacet
  facet normal 0.989947 -0.141439 0
    outer loop
      vertex -3.0226 0.82973 5
      vertex -3.03248 0.760587 5
      vertex -3.03248 0.760587 0
    endloop
  endfacet
  facet normal 0.554714 -0.832041 0
    outer loop
      vertex -3.03248 0.760587 0
      vertex -3.03248 0.760587 5
      vertex -3.09174 0.721076 0
    endloop
  endfacet
  facet normal 0.554714 -0.832041 0
    outer loop
      vertex -3.03248 0.760587 5
      vertex -3.09174 0.721076 5
      vertex -3.09174 0.721076 0
    endloop
  endfacet
  facet normal -0.980577 -0.196133 0
    outer loop
      vertex -3.09174 0.721076 0
      vertex -3.09174 0.721076 5
      vertex -3.10162 0.770465 0
    endloop
  endfacet
  facet normal -0.980577 -0.196133 0
    outer loop
      vertex -3.09174 0.721076 5
      vertex -3.10162 0.770465 5
      vertex -3.10162 0.770465 0
    endloop
  endfacet
  facet normal 0.640188 -0.768218 0
    outer loop
      vertex -3.10162 0.770465 0
      vertex -3.10162 0.770465 5
      vertex -3.27942 0.622296 0
    endloop
  endfacet
  facet normal 0.640188 -0.768218 0
    outer loop
      vertex -3.10162 0.770465 5
      vertex -3.27942 0.622296 5
      vertex -3.27942 0.622296 0
    endloop
  endfacet
  facet normal -0.600042 -0.799969 0
    outer loop
      vertex -3.27942 0.622296 0
      vertex -3.27942 0.622296 5
      vertex -3.31893 0.651933 0
    endloop
  endfacet
  facet normal -0.600042 -0.799969 0
    outer loop
      vertex -3.27942 0.622296 5
      vertex -3.31893 0.651933 5
      vertex -3.31893 0.651933 0
    endloop
  endfacet
  facet normal -0.686621 0.727015 0
    outer loop
      vertex -3.31893 0.651933 0
      vertex -3.31893 0.651933 5
      vertex -3.14113 0.819855 0
    endloop
  endfacet
  facet normal -0.686621 0.727015 0
    outer loop
      vertex -3.31893 0.651933 5
      vertex -3.14113 0.819855 5
      vertex -3.14113 0.819855 0
    endloop
  endfacet
  facet normal -0.274682 -0.961535 0
    outer loop
      vertex -3.14113 0.819855 0
      vertex -3.14113 0.819855 5
      vertex -3.21028 0.839609 0
    endloop
  endfacet
  facet normal -0.274682 -0.961535 0
    outer loop
      vertex -3.14113 0.819855 5
      vertex -3.21028 0.839609 5
      vertex -3.21028 0.839609 0
    endloop
  endfacet
  facet normal -0.624687 0.780875 0
    outer loop
      vertex -3.21028 0.839609 0
      vertex -3.21028 0.839609 5
      vertex -3.16089 0.879119 0
    endloop
  endfacet
  facet normal -0.624687 0.780875 0
    outer loop
      vertex -3.21028 0.839609 5
      vertex -3.16089 0.879119 5
      vertex -3.16089 0.879119 0
    endloop
  endfacet
  facet normal 0 1 0
    outer loop
      vertex -3.16089 0.879119 0
      vertex -3.16089 0.879119 5
      vertex -3.07199 0.879119 0
    endloop
  endfacet
  facet normal -0 1 0
    outer loop
      vertex -3.16089 0.879119 5
      vertex -3.07199 0.879119 5
      vertex -3.07199 0.879119 0
    endloop
  endfacet
  facet normal -0.638337 0.769757 0
    outer loop
      vertex -3.07199 0.879119 0
      vertex -3.07199 0.879119 5
      vertex -2.667 1.21496 0
    endloop
  endfacet
  facet normal -0.638337 0.769757 0
    outer loop
      vertex -3.07199 0.879119 5
      vertex -2.667 1.21496 5
      vertex -2.667 1.21496 0
    endloop
  endfacet
  facet normal -0.976183 0.21695 0
    outer loop
      vertex -2.667 1.21496 0
      vertex -2.667 1.21496 5
      vertex -2.64724 1.30387 0
    endloop
  endfacet
  facet normal -0.976183 0.21695 0
    outer loop
      vertex -2.667 1.21496 5
      vertex -2.64724 1.30387 5
      vertex -2.64724 1.30387 0
    endloop
  endfacet
  facet normal -0.656177 0.754607 0
    outer loop
      vertex -2.64724 1.30387 0
      vertex -2.64724 1.30387 5
      vertex -2.19286 1.69897 0
    endloop
  endfacet
  facet normal -0.656177 0.754607 0
    outer loop
      vertex -2.64724 1.30387 5
      vertex -2.19286 1.69897 5
      vertex -2.19286 1.69897 0
    endloop
  endfacet
  facet normal -0.0767042 0.997054 0
    outer loop
      vertex -2.19286 1.69897 0
      vertex -2.19286 1.69897 5
      vertex -1.93604 1.71873 0
    endloop
  endfacet
  facet normal -0.0767042 0.997054 0
    outer loop
      vertex -2.19286 1.69897 5
      vertex -1.93604 1.71873 5
      vertex -1.93604 1.71873 0
    endloop
  endfacet
  facet normal 0.948683 0.316228 -0
    outer loop
      vertex -1.93604 1.71873 0
      vertex -1.93604 1.71873 5
      vertex -1.89653 1.6002 0
    endloop
  endfacet
  facet normal 0.948683 0.316228 0
    outer loop
      vertex -1.93604 1.71873 5
      vertex -1.89653 1.6002 5
      vertex -1.89653 1.6002 0
    endloop
  endfacet
endsolid OpenSCAD_Model
