solid OpenSCAD_Model
  facet normal 0 0 -1
    outer loop
      vertex 2.56328 -0.0938358 0
      vertex 2.43487 -0.0246927 0
      vertex 2.46451 0.0642037 0
    endloop
  endfacet
  facet normal 0 0 -1
    outer loop
      vertex -0.656872 1.25941 0
      vertex -0.92357 2.52377 0
      vertex 0.607482 1.40758 0
    endloop
  endfacet
  facet normal 0 0 -1
    outer loop
      vertex -0.656872 1.25941 0
      vertex -0.429681 0.893938 0
      vertex -0.43956 0.834669 0
    endloop
  endfacet
  facet normal 0 0 -1
    outer loop
      vertex 2.1089 0.044446 0
      vertex 1.7533 0.212369 0
      vertex 2.07927 0.330901 0
    endloop
  endfacet
  facet normal 0 0 -1
    outer loop
      vertex 2.26695 0.192615 0
      vertex 2.46451 0.0642037 0
      vertex 2.29658 0.044446 0
    endloop
  endfacet
  facet normal 0 0 -1
    outer loop
      vertex 2.46451 0.0642037 0
      vertex 2.34597 0.0148139 0
      vertex 2.29658 0.044446 0
    endloop
  endfacet
  facet normal 0 0 -1
    outer loop
      vertex 2.70157 -0.143226 0
      vertex 2.56328 -0.0938358 0
      vertex 2.63243 -0.0049351 0
    endloop
  endfacet
  facet normal 0 0 -1
    outer loop
      vertex 2.56328 -0.0938358 0
      vertex 2.46451 0.0642037 0
      vertex 2.63243 -0.0049351 0
    endloop
  endfacet
  facet normal 0 0 -1
    outer loop
      vertex 2.72132 -0.143226 0
      vertex 2.75096 -0.0740825 0
      vertex 2.78059 -0.103715 0
    endloop
  endfacet
  facet normal 0 0 -1
    outer loop
      vertex 2.70157 -0.143226 0
      vertex 2.75096 -0.0740825 0
      vertex 2.72132 -0.143226 0
    endloop
  endfacet
  facet normal 0 0 -1
    outer loop
      vertex 2.63243 -0.0049351 0
      vertex 2.75096 -0.0740825 0
      vertex 2.70157 -0.143226 0
    endloop
  endfacet
  facet normal -0 0 -1
    outer loop
      vertex 3.07693 -1.32856 0
      vertex 3.00778 -1.35819 0
      vertex 3.06705 -1.27917 0
    endloop
  endfacet
  facet normal 0 0 -1
    outer loop
      vertex 2.43487 -0.0246927 0
      vertex 2.34597 0.0148139 0
      vertex 2.46451 0.0642037 0
    endloop
  endfacet
  facet normal 0 -0 -1
    outer loop
      vertex 2.26695 0.192615 0
      vertex 2.29658 0.044446 0
      vertex 2.1089 0.044446 0
    endloop
  endfacet
  facet normal -0 0 -1
    outer loop
      vertex 0.311148 -0.0246927 0
      vertex 0.182736 -0.29139 0
      vertex 0.0543248 0.39017 0
    endloop
  endfacet
  facet normal -0 0 -1
    outer loop
      vertex 2.26695 0.192615 0
      vertex 2.1089 0.044446 0
      vertex 2.07927 0.330901 0
    endloop
  endfacet
  facet normal 0 0 -1
    outer loop
      vertex 2.07927 0.330901 0
      vertex 1.7533 0.212369 0
      vertex 1.73355 0.242005 0
    endloop
  endfacet
  facet normal 0 0 -1
    outer loop
      vertex 1.73355 0.242005 0
      vertex 1.46685 0.34078 0
      vertex 1.69404 0.617361 0
    endloop
  endfacet
  facet normal 0 0 -1
    outer loop
      vertex 1.46685 0.34078 0
      vertex 1.43722 0.400049 0
      vertex 1.69404 0.617361 0
    endloop
  endfacet
  facet normal 0 0 -1
    outer loop
      vertex 1.43722 0.400049 0
      vertex 1.18039 0.992713 0
      vertex 1.69404 0.617361 0
    endloop
  endfacet
  facet normal -0 0 -1
    outer loop
      vertex -0.419802 0.933449 0
      vertex -0.429681 0.893938 0
      vertex -0.656872 1.25941 0
    endloop
  endfacet
  facet normal -0 0 -1
    outer loop
      vertex 2.07927 0.330901 0
      vertex 1.73355 0.242005 0
      vertex 1.69404 0.617361 0
    endloop
  endfacet
  facet normal 0 -0 -1
    outer loop
      vertex 0.607482 1.40758 0
      vertex 1.43722 0.400049 0
      vertex -0.656872 1.25941 0
    endloop
  endfacet
  facet normal 0 0 -1
    outer loop
      vertex 0.607482 1.40758 0
      vertex 1.18039 0.992713 0
      vertex 1.43722 0.400049 0
    endloop
  endfacet
  facet normal 0 0 -1
    outer loop
      vertex -2.1978 1.27917 0
      vertex -0.656872 1.25941 0
      vertex -1.40758 -0.29139 0
    endloop
  endfacet
  facet normal -0 0 -1
    outer loop
      vertex 0.0543248 0.39017 0
      vertex -0.805037 -0.311148 0
      vertex -0.113593 0.538335 0
    endloop
  endfacet
  facet normal 0 0 -1
    outer loop
      vertex -0.656872 1.25941 0
      vertex -0.43956 0.834669 0
      vertex -0.459313 0.765526 0
    endloop
  endfacet
  facet normal 0 0 -1
    outer loop
      vertex -0.805037 -0.311148 0
      vertex -0.459313 0.765526 0
      vertex -0.29139 0.656872 0
    endloop
  endfacet
  facet normal 0 0 -1
    outer loop
      vertex 0.43956 -0.0938358 0
      vertex 0.311148 -0.0246927 0
      vertex 0.607482 0.123472 0
    endloop
  endfacet
  facet normal -0 0 -1
    outer loop
      vertex 2.909 -1.20015 0
      vertex 2.81022 -1.25941 0
      vertex 2.78059 -1.14088 0
    endloop
  endfacet
  facet normal 0 0 -1
    outer loop
      vertex 0.311148 -0.0246927 0
      vertex 0.0543248 0.39017 0
      vertex 0.192615 0.321027 0
    endloop
  endfacet
  facet normal 0 0 -1
    outer loop
      vertex 2.81022 -1.25941 0
      vertex 2.77071 -1.22978 0
      vertex 2.78059 -1.14088 0
    endloop
  endfacet
  facet normal -0 0 -1
    outer loop
      vertex 2.9979 -1.24954 0
      vertex 2.81022 -1.25941 0
      vertex 2.909 -1.20015 0
    endloop
  endfacet
  facet normal 0 -0 -1
    outer loop
      vertex 2.9979 -1.24954 0
      vertex 3.00778 -1.35819 0
      vertex 2.81022 -1.25941 0
    endloop
  endfacet
  facet normal 0 0 -1
    outer loop
      vertex 3.00778 -1.35819 0
      vertex 2.9979 -1.24954 0
      vertex 3.06705 -1.27917 0
    endloop
  endfacet
  facet normal 0 0 -1
    outer loop
      vertex -1.40758 -0.29139 0
      vertex -1.32856 -0.321027 0
      vertex -1.34832 -0.330901 0
    endloop
  endfacet
  facet normal 0 0 -1
    outer loop
      vertex 3.00778 -1.35819 0
      vertex 3.07693 -1.32856 0
      vertex 3.05717 -1.35819 0
    endloop
  endfacet
  facet normal -0 0 -1
    outer loop
      vertex 2.78059 -1.14088 0
      vertex 2.67194 -1.17051 0
      vertex 2.49414 -0.97296 0
    endloop
  endfacet
  facet normal 0 0 -1
    outer loop
      vertex 2.67194 -1.17051 0
      vertex 2.53365 -1.14088 0
      vertex 2.49414 -0.97296 0
    endloop
  endfacet
  facet normal 0 0 -1
    outer loop
      vertex 1.07173 -2.53365 0
      vertex 0.963081 -2.26695 0
      vertex 1.05198 -2.43487 0
    endloop
  endfacet
  facet normal 0 0 -1
    outer loop
      vertex 2.41512 -1.08161 0
      vertex 2.27682 -1.00259 0
      vertex 2.49414 -0.97296 0
    endloop
  endfacet
  facet normal 0 0 -1
    outer loop
      vertex -1.00259 -0.419802 0
      vertex -0.92357 -0.479071 0
      vertex -0.963081 -0.538335 0
    endloop
  endfacet
  facet normal 0 0 -1
    outer loop
      vertex 2.78059 -1.14088 0
      vertex 2.77071 -1.22978 0
      vertex 2.67194 -1.17051 0
    endloop
  endfacet
  facet normal 0 -0 -1
    outer loop
      vertex 2.49414 -0.97296 0
      vertex 2.53365 -1.14088 0
      vertex 2.41512 -1.08161 0
    endloop
  endfacet
  facet normal 0 0 -1
    outer loop
      vertex 2.22744 -0.963081 0
      vertex 1.32856 -0.52846 0
      vertex 2.49414 -0.97296 0
    endloop
  endfacet
  facet normal 0 0 -1
    outer loop
      vertex 1.32856 -0.52846 0
      vertex 0.607482 0.123472 0
      vertex 2.49414 -0.97296 0
    endloop
  endfacet
  facet normal 0 0 -1
    outer loop
      vertex 0.982838 -0.360538 0
      vertex 0.607482 0.123472 0
      vertex 1.32856 -0.52846 0
    endloop
  endfacet
  facet normal 0 0 -1
    outer loop
      vertex 2.27682 -1.00259 0
      vertex 2.22744 -0.963081 0
      vertex 2.49414 -0.97296 0
    endloop
  endfacet
  facet normal 0 0 -1
    outer loop
      vertex 0.676625 -0.202494 0
      vertex 0.607482 0.123472 0
      vertex 0.982838 -0.360538 0
    endloop
  endfacet
  facet normal 0 0 -1
    outer loop
      vertex 0.43956 -0.0938358 0
      vertex 0.607482 0.123472 0
      vertex 0.676625 -0.202494 0
    endloop
  endfacet
  facet normal 0 0 -1
    outer loop
      vertex 0.311148 -0.0246927 0
      vertex 0.192615 0.321027 0
      vertex 0.607482 0.123472 0
    endloop
  endfacet
  facet normal -0 0 -1
    outer loop
      vertex 0.182736 -0.29139 0
      vertex 0.0246927 -0.429681 0
      vertex 0.0543248 0.39017 0
    endloop
  endfacet
  facet normal -0 0 -1
    outer loop
      vertex 0.0246927 -0.429681 0
      vertex -0.192615 -0.508703 0
      vertex 0.0543248 0.39017 0
    endloop
  endfacet
  facet normal 0 0 -1
    outer loop
      vertex -0.192615 -0.508703 0
      vertex -0.805037 -0.311148 0
      vertex 0.0543248 0.39017 0
    endloop
  endfacet
  facet normal 0 0 -1
    outer loop
      vertex -0.805037 -0.311148 0
      vertex -0.29139 0.656872 0
      vertex -0.113593 0.538335 0
    endloop
  endfacet
  facet normal 0 0 -1
    outer loop
      vertex -1.0421 -0.222247 0
      vertex -0.459313 0.765526 0
      vertex -0.805037 -0.311148 0
    endloop
  endfacet
  facet normal -0 0 -1
    outer loop
      vertex -1.20015 -0.271637 0
      vertex -1.40758 -0.29139 0
      vertex -1.0421 -0.222247 0
    endloop
  endfacet
  facet normal 0 0 -1
    outer loop
      vertex -1.11125 -0.271637 0
      vertex -1.20015 -0.271637 0
      vertex -1.06186 -0.242005 0
    endloop
  endfacet
  facet normal 0 0 -1
    outer loop
      vertex -1.20015 -0.271637 0
      vertex -1.0421 -0.222247 0
      vertex -1.06186 -0.242005 0
    endloop
  endfacet
  facet normal 0 0 -1
    outer loop
      vertex -1.40758 -0.29139 0
      vertex -0.459313 0.765526 0
      vertex -1.0421 -0.222247 0
    endloop
  endfacet
  facet normal 0 0 -1
    outer loop
      vertex -1.32856 -0.321027 0
      vertex -1.40758 -0.29139 0
      vertex -1.22978 -0.29139 0
    endloop
  endfacet
  facet normal 0 0 -1
    outer loop
      vertex -1.40758 -0.29139 0
      vertex -1.20015 -0.271637 0
      vertex -1.22978 -0.29139 0
    endloop
  endfacet
  facet normal 0 0 -1
    outer loop
      vertex -1.64465 -0.419802 0
      vertex -1.68416 -0.459313 0
      vertex -1.70391 -0.449439 0
    endloop
  endfacet
  facet normal -0 0 -1
    outer loop
      vertex 1.20015 -2.50402 0
      vertex 1.12112 -2.59292 0
      vertex 1.12112 -2.48426 0
    endloop
  endfacet
  facet normal 0 -0 -1
    outer loop
      vertex -1.00259 -0.419802 0
      vertex -0.963081 -0.538335 0
      vertex -1.05198 -0.488949 0
    endloop
  endfacet
  facet normal 0 0 -1
    outer loop
      vertex -1.00259 -0.419802 0
      vertex -1.05198 -0.488949 0
      vertex -1.08161 -0.469192 0
    endloop
  endfacet
  facet normal -0 0 -1
    outer loop
      vertex -1.00259 -0.419802 0
      vertex -1.08161 -0.469192 0
      vertex -1.22978 -0.29139 0
    endloop
  endfacet
  facet normal 0 0 -1
    outer loop
      vertex -1.08161 -0.469192 0
      vertex -1.32856 -0.321027 0
      vertex -1.22978 -0.29139 0
    endloop
  endfacet
  facet normal 0 -0 -1
    outer loop
      vertex -0.656872 1.25941 0
      vertex -0.459313 0.765526 0
      vertex -1.40758 -0.29139 0
    endloop
  endfacet
  facet normal 0 0 -1
    outer loop
      vertex -1.54587 -0.350659 0
      vertex -2.42499 0.380291 0
      vertex -1.51624 -0.34078 0
    endloop
  endfacet
  facet normal 0 0 -1
    outer loop
      vertex -1.64465 -0.419802 0
      vertex -2.42499 0.380291 0
      vertex -1.54587 -0.350659 0
    endloop
  endfacet
  facet normal 0 0 -1
    outer loop
      vertex -2.42499 0.380291 0
      vertex -1.40758 -0.29139 0
      vertex -1.51624 -0.34078 0
    endloop
  endfacet
  facet normal 0 0 -1
    outer loop
      vertex -1.54587 -0.350659 0
      vertex -1.62489 -0.429681 0
      vertex -1.64465 -0.419802 0
    endloop
  endfacet
  facet normal 0 0 -1
    outer loop
      vertex -2.53365 0.113593 0
      vertex -2.42499 0.380291 0
      vertex -1.70391 -0.449439 0
    endloop
  endfacet
  facet normal 0 -0 -1
    outer loop
      vertex -2.53365 0.113593 0
      vertex -1.7533 -0.52846 0
      vertex -3.07693 -0.933449 0
    endloop
  endfacet
  facet normal 0 0 -1
    outer loop
      vertex -2.42499 0.380291 0
      vertex -1.64465 -0.419802 0
      vertex -1.70391 -0.449439 0
    endloop
  endfacet
  facet normal 0 0 -1
    outer loop
      vertex -1.7533 -0.52846 0
      vertex -2.49414 -1.42734 0
      vertex -3.07693 -0.933449 0
    endloop
  endfacet
  facet normal 0 -0 -1
    outer loop
      vertex 0.380291 -1.92123 0
      vertex 0.607482 -2.06939 0
      vertex 0.311148 -1.95086 0
    endloop
  endfacet
  facet normal -0 0 -1
    outer loop
      vertex 1.40758 -2.6423 0
      vertex 1.33844 -2.74108 0
      vertex 1.20015 -2.50402 0
    endloop
  endfacet
  facet normal 0 -0 -1
    outer loop
      vertex 0.637114 -2.05951 0
      vertex 0.963081 -2.26695 0
      vertex 0.607482 -2.06939 0
    endloop
  endfacet
  facet normal 0 0 -1
    outer loop
      vertex 1.33844 -2.74108 0
      vertex 1.12112 -2.59292 0
      vertex 1.20015 -2.50402 0
    endloop
  endfacet
  facet normal 0 0 -1
    outer loop
      vertex 1.07173 -2.53365 0
      vertex 1.05198 -2.43487 0
      vertex 1.12112 -2.48426 0
    endloop
  endfacet
  facet normal -0 0 -1
    outer loop
      vertex 1.42734 -2.72132 0
      vertex 1.39771 -2.74108 0
      vertex 1.41746 -2.66206 0
    endloop
  endfacet
  facet normal 0 0 -1
    outer loop
      vertex 1.42734 -2.72132 0
      vertex 1.41746 -2.66206 0
      vertex 1.42734 -2.67194 0
    endloop
  endfacet
  facet normal 0 0 -1
    outer loop
      vertex 1.42734 -2.72132 0
      vertex 1.42734 -2.67194 0
      vertex 1.43722 -2.69169 0
    endloop
  endfacet
  facet normal 0 0 -1
    outer loop
      vertex 1.39771 -2.74108 0
      vertex 1.33844 -2.74108 0
      vertex 1.41746 -2.66206 0
    endloop
  endfacet
  facet normal 0 0 -1
    outer loop
      vertex 1.33844 -2.74108 0
      vertex 1.40758 -2.6423 0
      vertex 1.41746 -2.66206 0
    endloop
  endfacet
  facet normal 0 0 -1
    outer loop
      vertex 1.12112 -2.59292 0
      vertex 1.07173 -2.53365 0
      vertex 1.12112 -2.48426 0
    endloop
  endfacet
  facet normal 0 0 -1
    outer loop
      vertex 0.311148 -1.95086 0
      vertex 0.607482 -2.06939 0
      vertex 1.07173 -2.53365 0
    endloop
  endfacet
  facet normal 0 0 -1
    outer loop
      vertex 0.607482 -2.06939 0
      vertex 0.963081 -2.26695 0
      vertex 1.07173 -2.53365 0
    endloop
  endfacet
  facet normal 0 0 -1
    outer loop
      vertex 0.311148 -1.95086 0
      vertex -2.49414 -1.42734 0
      vertex -1.7533 -0.52846 0
    endloop
  endfacet
  facet normal 0 0 -1
    outer loop
      vertex 1.07173 -2.53365 0
      vertex -2.49414 -1.42734 0
      vertex 0.311148 -1.95086 0
    endloop
  endfacet
  facet normal 0 0 -1
    outer loop
      vertex -2.42499 0.380291 0
      vertex -2.53365 0.113593 0
      vertex -2.59292 0.162983 0
    endloop
  endfacet
  facet normal -0 0 -1
    outer loop
      vertex -1.70391 -0.449439 0
      vertex -1.7533 -0.52846 0
      vertex -2.53365 0.113593 0
    endloop
  endfacet
  facet normal 0 -0 -1
    outer loop
      vertex -2.47438 0.518582 0
      vertex -2.42499 0.380291 0
      vertex -2.50402 0.449439 0
    endloop
  endfacet
  facet normal 0 -0 -1
    outer loop
      vertex -2.1978 1.27917 0
      vertex -1.40758 -0.29139 0
      vertex -2.42499 0.380291 0
    endloop
  endfacet
  facet normal 0 -0 -1
    outer loop
      vertex -2.52377 0.627236 0
      vertex -2.47438 0.518582 0
      vertex -2.54353 0.597603 0
    endloop
  endfacet
  facet normal 0 0 -1
    outer loop
      vertex -2.52377 0.627236 0
      vertex -2.1978 1.27917 0
      vertex -2.47438 0.518582 0
    endloop
  endfacet
  facet normal 0 0 -1
    outer loop
      vertex -2.38548 1.17051 0
      vertex -2.52377 0.627236 0
      vertex -2.56328 0.686504 0
    endloop
  endfacet
  facet normal 0 -0 -1
    outer loop
      vertex -2.38548 1.17051 0
      vertex -2.1978 1.27917 0
      vertex -2.52377 0.627236 0
    endloop
  endfacet
  facet normal 0 0 -1
    outer loop
      vertex -2.1978 1.27917 0
      vertex -2.42499 0.380291 0
      vertex -2.47438 0.518582 0
    endloop
  endfacet
  facet normal 0 -0 -1
    outer loop
      vertex -2.13854 1.43722 0
      vertex -2.02 1.47673 0
      vertex -2.1978 1.27917 0
    endloop
  endfacet
  facet normal 0 -0 -1
    outer loop
      vertex -1.94098 1.72367 0
      vertex -0.656872 1.25941 0
      vertex -2.02 1.47673 0
    endloop
  endfacet
  facet normal 0 -0 -1
    outer loop
      vertex -2.02 1.47673 0
      vertex -0.656872 1.25941 0
      vertex -2.1978 1.27917 0
    endloop
  endfacet
  facet normal 0 0 -1
    outer loop
      vertex -2.02 1.70391 0
      vertex -1.94098 1.72367 0
      vertex -2.02 1.47673 0
    endloop
  endfacet
  facet normal 0 0 -1
    outer loop
      vertex -1.94098 1.77306 0
      vertex -0.92357 2.52377 0
      vertex -0.656872 1.25941 0
    endloop
  endfacet
  facet normal 0 0 -1
    outer loop
      vertex -1.94098 1.77306 0
      vertex -0.656872 1.25941 0
      vertex -1.94098 1.72367 0
    endloop
  endfacet
  facet normal 0 -0 -1
    outer loop
      vertex -1.85208 2.18792 0
      vertex -0.92357 2.52377 0
      vertex -1.94098 1.77306 0
    endloop
  endfacet
  facet normal 0 -0 -1
    outer loop
      vertex -1.80269 2.48426 0
      vertex -0.92357 2.52377 0
      vertex -1.85208 2.18792 0
    endloop
  endfacet
  facet normal -0 0 -1
    outer loop
      vertex -0.92357 2.52377 0
      vertex -1.80269 2.48426 0
      vertex -1.67428 2.74108 0
    endloop
  endfacet
  facet normal 0 0 -1
    outer loop
      vertex -1.80269 2.48426 0
      vertex -1.76318 2.66206 0
      vertex -1.67428 2.74108 0
    endloop
  endfacet
  facet normal 0 0 -1
    outer loop
      vertex -1.76318 2.66206 0
      vertex -1.71379 2.74108 0
      vertex -1.67428 2.74108 0
    endloop
  endfacet
  facet normal 0 0 1
    outer loop
      vertex 2.46451 0.0642037 5
      vertex 2.43487 -0.0246927 5
      vertex 2.56328 -0.0938358 5
    endloop
  endfacet
  facet normal 0 0 1
    outer loop
      vertex 0.607482 1.40758 5
      vertex -0.92357 2.52377 5
      vertex -0.656872 1.25941 5
    endloop
  endfacet
  facet normal 0 -0 1
    outer loop
      vertex -0.43956 0.834669 5
      vertex -0.429681 0.893938 5
      vertex -0.656872 1.25941 5
    endloop
  endfacet
  facet normal 0 0 1
    outer loop
      vertex 2.07927 0.330901 5
      vertex 1.7533 0.212369 5
      vertex 2.1089 0.044446 5
    endloop
  endfacet
  facet normal 0 -0 1
    outer loop
      vertex 2.29658 0.044446 5
      vertex 2.46451 0.0642037 5
      vertex 2.26695 0.192615 5
    endloop
  endfacet
  facet normal -0 0 1
    outer loop
      vertex 2.29658 0.044446 5
      vertex 2.34597 0.0148139 5
      vertex 2.46451 0.0642037 5
    endloop
  endfacet
  facet normal 0 0 1
    outer loop
      vertex 2.63243 -0.0049351 5
      vertex 2.56328 -0.0938358 5
      vertex 2.70157 -0.143226 5
    endloop
  endfacet
  facet normal 0 0 1
    outer loop
      vertex 2.63243 -0.0049351 5
      vertex 2.46451 0.0642037 5
      vertex 2.56328 -0.0938358 5
    endloop
  endfacet
  facet normal 0 0 1
    outer loop
      vertex 2.78059 -0.103715 5
      vertex 2.75096 -0.0740825 5
      vertex 2.72132 -0.143226 5
    endloop
  endfacet
  facet normal 0 -0 1
    outer loop
      vertex 2.72132 -0.143226 5
      vertex 2.75096 -0.0740825 5
      vertex 2.70157 -0.143226 5
    endloop
  endfacet
  facet normal 0 -0 1
    outer loop
      vertex 2.70157 -0.143226 5
      vertex 2.75096 -0.0740825 5
      vertex 2.63243 -0.0049351 5
    endloop
  endfacet
  facet normal 0 0 1
    outer loop
      vertex 3.06705 -1.27917 5
      vertex 3.00778 -1.35819 5
      vertex 3.07693 -1.32856 5
    endloop
  endfacet
  facet normal 0 0 1
    outer loop
      vertex 2.46451 0.0642037 5
      vertex 2.34597 0.0148139 5
      vertex 2.43487 -0.0246927 5
    endloop
  endfacet
  facet normal 0 0 1
    outer loop
      vertex 2.1089 0.044446 5
      vertex 2.29658 0.044446 5
      vertex 2.26695 0.192615 5
    endloop
  endfacet
  facet normal 0 0 1
    outer loop
      vertex 0.0543248 0.39017 5
      vertex 0.182736 -0.29139 5
      vertex 0.311148 -0.0246927 5
    endloop
  endfacet
  facet normal 0 0 1
    outer loop
      vertex 2.07927 0.330901 5
      vertex 2.1089 0.044446 5
      vertex 2.26695 0.192615 5
    endloop
  endfacet
  facet normal -0 0 1
    outer loop
      vertex 1.73355 0.242005 5
      vertex 1.7533 0.212369 5
      vertex 2.07927 0.330901 5
    endloop
  endfacet
  facet normal 0 0 1
    outer loop
      vertex 1.69404 0.617361 5
      vertex 1.46685 0.34078 5
      vertex 1.73355 0.242005 5
    endloop
  endfacet
  facet normal 0 0 1
    outer loop
      vertex 1.69404 0.617361 5
      vertex 1.43722 0.400049 5
      vertex 1.46685 0.34078 5
    endloop
  endfacet
  facet normal 0 0 1
    outer loop
      vertex 1.69404 0.617361 5
      vertex 1.18039 0.992713 5
      vertex 1.43722 0.400049 5
    endloop
  endfacet
  facet normal 0 0 1
    outer loop
      vertex -0.656872 1.25941 5
      vertex -0.429681 0.893938 5
      vertex -0.419802 0.933449 5
    endloop
  endfacet
  facet normal 0 0 1
    outer loop
      vertex 1.69404 0.617361 5
      vertex 1.73355 0.242005 5
      vertex 2.07927 0.330901 5
    endloop
  endfacet
  facet normal -0 0 1
    outer loop
      vertex -0.656872 1.25941 5
      vertex 1.43722 0.400049 5
      vertex 0.607482 1.40758 5
    endloop
  endfacet
  facet normal 0 0 1
    outer loop
      vertex 1.43722 0.400049 5
      vertex 1.18039 0.992713 5
      vertex 0.607482 1.40758 5
    endloop
  endfacet
  facet normal 0 -0 1
    outer loop
      vertex -1.40758 -0.29139 5
      vertex -0.656872 1.25941 5
      vertex -2.1978 1.27917 5
    endloop
  endfacet
  facet normal 0 0 1
    outer loop
      vertex -0.113593 0.538335 5
      vertex -0.805037 -0.311148 5
      vertex 0.0543248 0.39017 5
    endloop
  endfacet
  facet normal 0 -0 1
    outer loop
      vertex -0.459313 0.765526 5
      vertex -0.43956 0.834669 5
      vertex -0.656872 1.25941 5
    endloop
  endfacet
  facet normal 0 0 1
    outer loop
      vertex -0.29139 0.656872 5
      vertex -0.459313 0.765526 5
      vertex -0.805037 -0.311148 5
    endloop
  endfacet
  facet normal 0 0 1
    outer loop
      vertex 0.607482 0.123472 5
      vertex 0.311148 -0.0246927 5
      vertex 0.43956 -0.0938358 5
    endloop
  endfacet
  facet normal 0 0 1
    outer loop
      vertex 2.78059 -1.14088 5
      vertex 2.81022 -1.25941 5
      vertex 2.909 -1.20015 5
    endloop
  endfacet
  facet normal 0 0 1
    outer loop
      vertex 0.192615 0.321027 5
      vertex 0.0543248 0.39017 5
      vertex 0.311148 -0.0246927 5
    endloop
  endfacet
  facet normal 0 0 1
    outer loop
      vertex 2.78059 -1.14088 5
      vertex 2.77071 -1.22978 5
      vertex 2.81022 -1.25941 5
    endloop
  endfacet
  facet normal 0 0 1
    outer loop
      vertex 2.909 -1.20015 5
      vertex 2.81022 -1.25941 5
      vertex 2.9979 -1.24954 5
    endloop
  endfacet
  facet normal -0 0 1
    outer loop
      vertex 2.81022 -1.25941 5
      vertex 3.00778 -1.35819 5
      vertex 2.9979 -1.24954 5
    endloop
  endfacet
  facet normal 0 0 1
    outer loop
      vertex 3.06705 -1.27917 5
      vertex 2.9979 -1.24954 5
      vertex 3.00778 -1.35819 5
    endloop
  endfacet
  facet normal 0 -0 1
    outer loop
      vertex -1.34832 -0.330901 5
      vertex -1.32856 -0.321027 5
      vertex -1.40758 -0.29139 5
    endloop
  endfacet
  facet normal 0 -0 1
    outer loop
      vertex 3.05717 -1.35819 5
      vertex 3.07693 -1.32856 5
      vertex 3.00778 -1.35819 5
    endloop
  endfacet
  facet normal 0 0 1
    outer loop
      vertex 2.49414 -0.97296 5
      vertex 2.67194 -1.17051 5
      vertex 2.78059 -1.14088 5
    endloop
  endfacet
  facet normal 0 0 1
    outer loop
      vertex 2.49414 -0.97296 5
      vertex 2.53365 -1.14088 5
      vertex 2.67194 -1.17051 5
    endloop
  endfacet
  facet normal 0 0 1
    outer loop
      vertex 1.05198 -2.43487 5
      vertex 0.963081 -2.26695 5
      vertex 1.07173 -2.53365 5
    endloop
  endfacet
  facet normal 0 0 1
    outer loop
      vertex 2.49414 -0.97296 5
      vertex 2.27682 -1.00259 5
      vertex 2.41512 -1.08161 5
    endloop
  endfacet
  facet normal 0 -0 1
    outer loop
      vertex -0.963081 -0.538335 5
      vertex -0.92357 -0.479071 5
      vertex -1.00259 -0.419802 5
    endloop
  endfacet
  facet normal -0 0 1
    outer loop
      vertex 2.67194 -1.17051 5
      vertex 2.77071 -1.22978 5
      vertex 2.78059 -1.14088 5
    endloop
  endfacet
  facet normal -0 0 1
    outer loop
      vertex 2.41512 -1.08161 5
      vertex 2.53365 -1.14088 5
      vertex 2.49414 -0.97296 5
    endloop
  endfacet
  facet normal 0 0 1
    outer loop
      vertex 2.49414 -0.97296 5
      vertex 1.32856 -0.52846 5
      vertex 2.22744 -0.963081 5
    endloop
  endfacet
  facet normal 0 0 1
    outer loop
      vertex 2.49414 -0.97296 5
      vertex 0.607482 0.123472 5
      vertex 1.32856 -0.52846 5
    endloop
  endfacet
  facet normal 0 0 1
    outer loop
      vertex 1.32856 -0.52846 5
      vertex 0.607482 0.123472 5
      vertex 0.982838 -0.360538 5
    endloop
  endfacet
  facet normal 0 0 1
    outer loop
      vertex 2.49414 -0.97296 5
      vertex 2.22744 -0.963081 5
      vertex 2.27682 -1.00259 5
    endloop
  endfacet
  facet normal 0 0 1
    outer loop
      vertex 0.982838 -0.360538 5
      vertex 0.607482 0.123472 5
      vertex 0.676625 -0.202494 5
    endloop
  endfacet
  facet normal 0 0 1
    outer loop
      vertex 0.676625 -0.202494 5
      vertex 0.607482 0.123472 5
      vertex 0.43956 -0.0938358 5
    endloop
  endfacet
  facet normal 0 0 1
    outer loop
      vertex 0.607482 0.123472 5
      vertex 0.192615 0.321027 5
      vertex 0.311148 -0.0246927 5
    endloop
  endfacet
  facet normal 0 0 1
    outer loop
      vertex 0.0543248 0.39017 5
      vertex 0.0246927 -0.429681 5
      vertex 0.182736 -0.29139 5
    endloop
  endfacet
  facet normal 0 0 1
    outer loop
      vertex 0.0543248 0.39017 5
      vertex -0.192615 -0.508703 5
      vertex 0.0246927 -0.429681 5
    endloop
  endfacet
  facet normal 0 0 1
    outer loop
      vertex 0.0543248 0.39017 5
      vertex -0.805037 -0.311148 5
      vertex -0.192615 -0.508703 5
    endloop
  endfacet
  facet normal 0 0 1
    outer loop
      vertex -0.113593 0.538335 5
      vertex -0.29139 0.656872 5
      vertex -0.805037 -0.311148 5
    endloop
  endfacet
  facet normal 0 -0 1
    outer loop
      vertex -0.805037 -0.311148 5
      vertex -0.459313 0.765526 5
      vertex -1.0421 -0.222247 5
    endloop
  endfacet
  facet normal 0 0 1
    outer loop
      vertex -1.0421 -0.222247 5
      vertex -1.40758 -0.29139 5
      vertex -1.20015 -0.271637 5
    endloop
  endfacet
  facet normal 0 0 1
    outer loop
      vertex -1.06186 -0.242005 5
      vertex -1.20015 -0.271637 5
      vertex -1.11125 -0.271637 5
    endloop
  endfacet
  facet normal 0 -0 1
    outer loop
      vertex -1.06186 -0.242005 5
      vertex -1.0421 -0.222247 5
      vertex -1.20015 -0.271637 5
    endloop
  endfacet
  facet normal 0 -0 1
    outer loop
      vertex -1.0421 -0.222247 5
      vertex -0.459313 0.765526 5
      vertex -1.40758 -0.29139 5
    endloop
  endfacet
  facet normal 0 0 1
    outer loop
      vertex -1.22978 -0.29139 5
      vertex -1.40758 -0.29139 5
      vertex -1.32856 -0.321027 5
    endloop
  endfacet
  facet normal 0 -0 1
    outer loop
      vertex -1.22978 -0.29139 5
      vertex -1.20015 -0.271637 5
      vertex -1.40758 -0.29139 5
    endloop
  endfacet
  facet normal -0 0 1
    outer loop
      vertex -1.70391 -0.449439 5
      vertex -1.68416 -0.459313 5
      vertex -1.64465 -0.419802 5
    endloop
  endfacet
  facet normal 0 0 1
    outer loop
      vertex 1.12112 -2.48426 5
      vertex 1.12112 -2.59292 5
      vertex 1.20015 -2.50402 5
    endloop
  endfacet
  facet normal -0 0 1
    outer loop
      vertex -1.05198 -0.488949 5
      vertex -0.963081 -0.538335 5
      vertex -1.00259 -0.419802 5
    endloop
  endfacet
  facet normal -0 0 1
    outer loop
      vertex -1.08161 -0.469192 5
      vertex -1.05198 -0.488949 5
      vertex -1.00259 -0.419802 5
    endloop
  endfacet
  facet normal 0 0 1
    outer loop
      vertex -1.22978 -0.29139 5
      vertex -1.08161 -0.469192 5
      vertex -1.00259 -0.419802 5
    endloop
  endfacet
  facet normal 0 0 1
    outer loop
      vertex -1.22978 -0.29139 5
      vertex -1.32856 -0.321027 5
      vertex -1.08161 -0.469192 5
    endloop
  endfacet
  facet normal 0 0 1
    outer loop
      vertex -1.40758 -0.29139 5
      vertex -0.459313 0.765526 5
      vertex -0.656872 1.25941 5
    endloop
  endfacet
  facet normal 0 0 1
    outer loop
      vertex -1.51624 -0.34078 5
      vertex -2.42499 0.380291 5
      vertex -1.54587 -0.350659 5
    endloop
  endfacet
  facet normal 0 0 1
    outer loop
      vertex -1.54587 -0.350659 5
      vertex -2.42499 0.380291 5
      vertex -1.64465 -0.419802 5
    endloop
  endfacet
  facet normal 0 -0 1
    outer loop
      vertex -1.51624 -0.34078 5
      vertex -1.40758 -0.29139 5
      vertex -2.42499 0.380291 5
    endloop
  endfacet
  facet normal -0 0 1
    outer loop
      vertex -1.64465 -0.419802 5
      vertex -1.62489 -0.429681 5
      vertex -1.54587 -0.350659 5
    endloop
  endfacet
  facet normal 0 0 1
    outer loop
      vertex -1.70391 -0.449439 5
      vertex -2.42499 0.380291 5
      vertex -2.53365 0.113593 5
    endloop
  endfacet
  facet normal 0 0 1
    outer loop
      vertex -3.07693 -0.933449 5
      vertex -1.7533 -0.52846 5
      vertex -2.53365 0.113593 5
    endloop
  endfacet
  facet normal 0 -0 1
    outer loop
      vertex -1.70391 -0.449439 5
      vertex -1.64465 -0.419802 5
      vertex -2.42499 0.380291 5
    endloop
  endfacet
  facet normal -0 0 1
    outer loop
      vertex -3.07693 -0.933449 5
      vertex -2.49414 -1.42734 5
      vertex -1.7533 -0.52846 5
    endloop
  endfacet
  facet normal -0 0 1
    outer loop
      vertex 0.311148 -1.95086 5
      vertex 0.607482 -2.06939 5
      vertex 0.380291 -1.92123 5
    endloop
  endfacet
  facet normal 0 0 1
    outer loop
      vertex 1.20015 -2.50402 5
      vertex 1.33844 -2.74108 5
      vertex 1.40758 -2.6423 5
    endloop
  endfacet
  facet normal -0 0 1
    outer loop
      vertex 0.607482 -2.06939 5
      vertex 0.963081 -2.26695 5
      vertex 0.637114 -2.05951 5
    endloop
  endfacet
  facet normal 0 0 1
    outer loop
      vertex 1.20015 -2.50402 5
      vertex 1.12112 -2.59292 5
      vertex 1.33844 -2.74108 5
    endloop
  endfacet
  facet normal 0 0 1
    outer loop
      vertex 1.12112 -2.48426 5
      vertex 1.05198 -2.43487 5
      vertex 1.07173 -2.53365 5
    endloop
  endfacet
  facet normal 0 0 1
    outer loop
      vertex 1.41746 -2.66206 5
      vertex 1.39771 -2.74108 5
      vertex 1.42734 -2.72132 5
    endloop
  endfacet
  facet normal 0 0 1
    outer loop
      vertex 1.42734 -2.67194 5
      vertex 1.41746 -2.66206 5
      vertex 1.42734 -2.72132 5
    endloop
  endfacet
  facet normal 0 0 1
    outer loop
      vertex 1.43722 -2.69169 5
      vertex 1.42734 -2.67194 5
      vertex 1.42734 -2.72132 5
    endloop
  endfacet
  facet normal 0 0 1
    outer loop
      vertex 1.41746 -2.66206 5
      vertex 1.33844 -2.74108 5
      vertex 1.39771 -2.74108 5
    endloop
  endfacet
  facet normal 0 0 1
    outer loop
      vertex 1.41746 -2.66206 5
      vertex 1.40758 -2.6423 5
      vertex 1.33844 -2.74108 5
    endloop
  endfacet
  facet normal 0 0 1
    outer loop
      vertex 1.12112 -2.48426 5
      vertex 1.07173 -2.53365 5
      vertex 1.12112 -2.59292 5
    endloop
  endfacet
  facet normal 0 0 1
    outer loop
      vertex 1.07173 -2.53365 5
      vertex 0.607482 -2.06939 5
      vertex 0.311148 -1.95086 5
    endloop
  endfacet
  facet normal 0 0 1
    outer loop
      vertex 1.07173 -2.53365 5
      vertex 0.963081 -2.26695 5
      vertex 0.607482 -2.06939 5
    endloop
  endfacet
  facet normal 0 0 1
    outer loop
      vertex -1.7533 -0.52846 5
      vertex -2.49414 -1.42734 5
      vertex 0.311148 -1.95086 5
    endloop
  endfacet
  facet normal 0 0 1
    outer loop
      vertex 0.311148 -1.95086 5
      vertex -2.49414 -1.42734 5
      vertex 1.07173 -2.53365 5
    endloop
  endfacet
  facet normal -0 0 1
    outer loop
      vertex -2.59292 0.162983 5
      vertex -2.53365 0.113593 5
      vertex -2.42499 0.380291 5
    endloop
  endfacet
  facet normal 0 0 1
    outer loop
      vertex -2.53365 0.113593 5
      vertex -1.7533 -0.52846 5
      vertex -1.70391 -0.449439 5
    endloop
  endfacet
  facet normal -0 0 1
    outer loop
      vertex -2.50402 0.449439 5
      vertex -2.42499 0.380291 5
      vertex -2.47438 0.518582 5
    endloop
  endfacet
  facet normal -0 0 1
    outer loop
      vertex -2.42499 0.380291 5
      vertex -1.40758 -0.29139 5
      vertex -2.1978 1.27917 5
    endloop
  endfacet
  facet normal -0 0 1
    outer loop
      vertex -2.54353 0.597603 5
      vertex -2.47438 0.518582 5
      vertex -2.52377 0.627236 5
    endloop
  endfacet
  facet normal 0 -0 1
    outer loop
      vertex -2.47438 0.518582 5
      vertex -2.1978 1.27917 5
      vertex -2.52377 0.627236 5
    endloop
  endfacet
  facet normal -0 0 1
    outer loop
      vertex -2.56328 0.686504 5
      vertex -2.52377 0.627236 5
      vertex -2.38548 1.17051 5
    endloop
  endfacet
  facet normal 0 0 1
    outer loop
      vertex -2.52377 0.627236 5
      vertex -2.1978 1.27917 5
      vertex -2.38548 1.17051 5
    endloop
  endfacet
  facet normal -0 0 1
    outer loop
      vertex -2.47438 0.518582 5
      vertex -2.42499 0.380291 5
      vertex -2.1978 1.27917 5
    endloop
  endfacet
  facet normal 0 0 1
    outer loop
      vertex -2.1978 1.27917 5
      vertex -2.02 1.47673 5
      vertex -2.13854 1.43722 5
    endloop
  endfacet
  facet normal -0 0 1
    outer loop
      vertex -2.02 1.47673 5
      vertex -0.656872 1.25941 5
      vertex -1.94098 1.72367 5
    endloop
  endfacet
  facet normal -0 0 1
    outer loop
      vertex -2.1978 1.27917 5
      vertex -0.656872 1.25941 5
      vertex -2.02 1.47673 5
    endloop
  endfacet
  facet normal 0 0 1
    outer loop
      vertex -2.02 1.47673 5
      vertex -1.94098 1.72367 5
      vertex -2.02 1.70391 5
    endloop
  endfacet
  facet normal 0 0 1
    outer loop
      vertex -0.656872 1.25941 5
      vertex -0.92357 2.52377 5
      vertex -1.94098 1.77306 5
    endloop
  endfacet
  facet normal -0 0 1
    outer loop
      vertex -1.94098 1.72367 5
      vertex -0.656872 1.25941 5
      vertex -1.94098 1.77306 5
    endloop
  endfacet
  facet normal 0 0 1
    outer loop
      vertex -1.94098 1.77306 5
      vertex -0.92357 2.52377 5
      vertex -1.85208 2.18792 5
    endloop
  endfacet
  facet normal 0 0 1
    outer loop
      vertex -1.85208 2.18792 5
      vertex -0.92357 2.52377 5
      vertex -1.80269 2.48426 5
    endloop
  endfacet
  facet normal 0 0 1
    outer loop
      vertex -1.67428 2.74108 5
      vertex -1.80269 2.48426 5
      vertex -0.92357 2.52377 5
    endloop
  endfacet
  facet normal 0 0 1
    outer loop
      vertex -1.67428 2.74108 5
      vertex -1.76318 2.66206 5
      vertex -1.80269 2.48426 5
    endloop
  endfacet
  facet normal 0 0 1
    outer loop
      vertex -1.67428 2.74108 5
      vertex -1.71379 2.74108 5
      vertex -1.76318 2.66206 5
    endloop
  endfacet
  facet normal 0.589102 0.808058 -0
    outer loop
      vertex -0.92357 2.52377 0
      vertex -0.92357 2.52377 5
      vertex 0.607482 1.40758 0
    endloop
  endfacet
  facet normal 0.589102 0.808058 0
    outer loop
      vertex -0.92357 2.52377 5
      vertex 0.607482 1.40758 5
      vertex 0.607482 1.40758 0
    endloop
  endfacet
  facet normal 0.58651 0.809942 -0
    outer loop
      vertex 0.607482 1.40758 0
      vertex 0.607482 1.40758 5
      vertex 1.18039 0.992713 0
    endloop
  endfacet
  facet normal 0.58651 0.809942 0
    outer loop
      vertex 0.607482 1.40758 5
      vertex 1.18039 0.992713 5
      vertex 1.18039 0.992713 0
    endloop
  endfacet
  facet normal 0.590014 0.807393 -0
    outer loop
      vertex 1.18039 0.992713 0
      vertex 1.18039 0.992713 5
      vertex 1.69404 0.617361 0
    endloop
  endfacet
  facet normal 0.590014 0.807393 0
    outer loop
      vertex 1.18039 0.992713 5
      vertex 1.69404 0.617361 5
      vertex 1.69404 0.617361 0
    endloop
  endfacet
  facet normal 0.596707 0.802459 -0
    outer loop
      vertex 1.69404 0.617361 0
      vertex 1.69404 0.617361 5
      vertex 2.07927 0.330901 0
    endloop
  endfacet
  facet normal 0.596707 0.802459 0
    outer loop
      vertex 1.69404 0.617361 5
      vertex 2.07927 0.330901 5
      vertex 2.07927 0.330901 0
    endloop
  endfacet
  facet normal 0.593195 0.805059 -0
    outer loop
      vertex 2.07927 0.330901 0
      vertex 2.07927 0.330901 5
      vertex 2.26695 0.192615 0
    endloop
  endfacet
  facet normal 0.593195 0.805059 0
    outer loop
      vertex 2.07927 0.330901 5
      vertex 2.26695 0.192615 5
      vertex 2.26695 0.192615 0
    endloop
  endfacet
  facet normal 0.544983 0.838447 -0
    outer loop
      vertex 2.26695 0.192615 0
      vertex 2.26695 0.192615 5
      vertex 2.46451 0.0642037 0
    endloop
  endfacet
  facet normal 0.544983 0.838447 0
    outer loop
      vertex 2.26695 0.192615 5
      vertex 2.46451 0.0642037 5
      vertex 2.46451 0.0642037 0
    endloop
  endfacet
  facet normal 0.380722 0.924689 -0
    outer loop
      vertex 2.46451 0.0642037 0
      vertex 2.46451 0.0642037 5
      vertex 2.63243 -0.0049351 0
    endloop
  endfacet
  facet normal 0.380722 0.924689 0
    outer loop
      vertex 2.46451 0.0642037 5
      vertex 2.63243 -0.0049351 5
      vertex 2.63243 -0.0049351 0
    endloop
  endfacet
  facet normal 0.503889 0.863769 -0
    outer loop
      vertex 2.63243 -0.0049351 0
      vertex 2.63243 -0.0049351 5
      vertex 2.75096 -0.0740825 0
    endloop
  endfacet
  facet normal 0.503889 0.863769 0
    outer loop
      vertex 2.63243 -0.0049351 5
      vertex 2.75096 -0.0740825 5
      vertex 2.75096 -0.0740825 0
    endloop
  endfacet
  facet normal 0.707107 0.707107 -0
    outer loop
      vertex 2.75096 -0.0740825 0
      vertex 2.75096 -0.0740825 5
      vertex 2.78059 -0.103715 0
    endloop
  endfacet
  facet normal 0.707107 0.707107 0
    outer loop
      vertex 2.75096 -0.0740825 5
      vertex 2.78059 -0.103715 5
      vertex 2.78059 -0.103715 0
    endloop
  endfacet
  facet normal 0.554686 -0.83206 0
    outer loop
      vertex 2.78059 -0.103715 0
      vertex 2.78059 -0.103715 5
      vertex 2.72132 -0.143226 0
    endloop
  endfacet
  facet normal 0.554686 -0.83206 0
    outer loop
      vertex 2.78059 -0.103715 5
      vertex 2.72132 -0.143226 5
      vertex 2.72132 -0.143226 0
    endloop
  endfacet
  facet normal 0 -1 0
    outer loop
      vertex 2.72132 -0.143226 0
      vertex 2.72132 -0.143226 5
      vertex 2.70157 -0.143226 0
    endloop
  endfacet
  facet normal -0 -1 0
    outer loop
      vertex 2.72132 -0.143226 5
      vertex 2.70157 -0.143226 5
      vertex 2.70157 -0.143226 0
    endloop
  endfacet
  facet normal -0.336338 -0.941741 0
    outer loop
      vertex 2.70157 -0.143226 0
      vertex 2.70157 -0.143226 5
      vertex 2.56328 -0.0938358 0
    endloop
  endfacet
  facet normal -0.336338 -0.941741 0
    outer loop
      vertex 2.70157 -0.143226 5
      vertex 2.56328 -0.0938358 5
      vertex 2.56328 -0.0938358 0
    endloop
  endfacet
  facet normal -0.474091 -0.880476 0
    outer loop
      vertex 2.56328 -0.0938358 0
      vertex 2.56328 -0.0938358 5
      vertex 2.43487 -0.0246927 0
    endloop
  endfacet
  facet normal -0.474091 -0.880476 0
    outer loop
      vertex 2.56328 -0.0938358 5
      vertex 2.43487 -0.0246927 5
      vertex 2.43487 -0.0246927 0
    endloop
  endfacet
  facet normal -0.406114 -0.913823 0
    outer loop
      vertex 2.43487 -0.0246927 0
      vertex 2.43487 -0.0246927 5
      vertex 2.34597 0.0148139 0
    endloop
  endfacet
  facet normal -0.406114 -0.913823 0
    outer loop
      vertex 2.43487 -0.0246927 5
      vertex 2.34597 0.0148139 5
      vertex 2.34597 0.0148139 0
    endloop
  endfacet
  facet normal -0.514474 -0.857506 0
    outer loop
      vertex 2.34597 0.0148139 0
      vertex 2.34597 0.0148139 5
      vertex 2.29658 0.044446 0
    endloop
  endfacet
  facet normal -0.514474 -0.857506 0
    outer loop
      vertex 2.34597 0.0148139 5
      vertex 2.29658 0.044446 5
      vertex 2.29658 0.044446 0
    endloop
  endfacet
  facet normal 0 -1 0
    outer loop
      vertex 2.29658 0.044446 0
      vertex 2.29658 0.044446 5
      vertex 2.1089 0.044446 0
    endloop
  endfacet
  facet normal -0 -1 0
    outer loop
      vertex 2.29658 0.044446 5
      vertex 2.1089 0.044446 5
      vertex 2.1089 0.044446 0
    endloop
  endfacet
  facet normal -0.427009 -0.904248 0
    outer loop
      vertex 2.1089 0.044446 0
      vertex 2.1089 0.044446 5
      vertex 1.7533 0.212369 0
    endloop
  endfacet
  facet normal -0.427009 -0.904248 0
    outer loop
      vertex 2.1089 0.044446 5
      vertex 1.7533 0.212369 5
      vertex 1.7533 0.212369 0
    endloop
  endfacet
  facet normal -0.83205 -0.5547 0
    outer loop
      vertex 1.7533 0.212369 0
      vertex 1.7533 0.212369 5
      vertex 1.73355 0.242005 0
    endloop
  endfacet
  facet normal -0.83205 -0.5547 0
    outer loop
      vertex 1.7533 0.212369 5
      vertex 1.73355 0.242005 5
      vertex 1.73355 0.242005 0
    endloop
  endfacet
  facet normal -0.347309 -0.937751 0
    outer loop
      vertex 1.73355 0.242005 0
      vertex 1.73355 0.242005 5
      vertex 1.46685 0.34078 0
    endloop
  endfacet
  facet normal -0.347309 -0.937751 0
    outer loop
      vertex 1.73355 0.242005 5
      vertex 1.46685 0.34078 5
      vertex 1.46685 0.34078 0
    endloop
  endfacet
  facet normal -0.89444 -0.447188 0
    outer loop
      vertex 1.46685 0.34078 0
      vertex 1.46685 0.34078 5
      vertex 1.43722 0.400049 0
    endloop
  endfacet
  facet normal -0.89444 -0.447188 0
    outer loop
      vertex 1.46685 0.34078 5
      vertex 1.43722 0.400049 5
      vertex 1.43722 0.400049 0
    endloop
  endfacet
  facet normal -0.379652 -0.925129 0
    outer loop
      vertex 1.43722 0.400049 0
      vertex 1.43722 0.400049 5
      vertex -0.656872 1.25941 0
    endloop
  endfacet
  facet normal -0.379652 -0.925129 0
    outer loop
      vertex 1.43722 0.400049 5
      vertex -0.656872 1.25941 5
      vertex -0.656872 1.25941 0
    endloop
  endfacet
  facet normal 0.808732 0.588177 -0
    outer loop
      vertex -0.656872 1.25941 0
      vertex -0.656872 1.25941 5
      vertex -0.419802 0.933449 0
    endloop
  endfacet
  facet normal 0.808732 0.588177 0
    outer loop
      vertex -0.656872 1.25941 5
      vertex -0.419802 0.933449 5
      vertex -0.419802 0.933449 0
    endloop
  endfacet
  facet normal 0.970136 -0.242561 0
    outer loop
      vertex -0.419802 0.933449 0
      vertex -0.419802 0.933449 5
      vertex -0.429681 0.893938 0
    endloop
  endfacet
  facet normal 0.970136 -0.242561 0
    outer loop
      vertex -0.419802 0.933449 5
      vertex -0.429681 0.893938 5
      vertex -0.429681 0.893938 0
    endloop
  endfacet
  facet normal 0.986392 -0.164411 0
    outer loop
      vertex -0.429681 0.893938 0
      vertex -0.429681 0.893938 5
      vertex -0.43956 0.834669 0
    endloop
  endfacet
  facet normal 0.986392 -0.164411 0
    outer loop
      vertex -0.429681 0.893938 5
      vertex -0.43956 0.834669 5
      vertex -0.43956 0.834669 0
    endloop
  endfacet
  facet normal 0.961531 -0.274697 0
    outer loop
      vertex -0.43956 0.834669 0
      vertex -0.43956 0.834669 5
      vertex -0.459313 0.765526 0
    endloop
  endfacet
  facet normal 0.961531 -0.274697 0
    outer loop
      vertex -0.43956 0.834669 5
      vertex -0.459313 0.765526 5
      vertex -0.459313 0.765526 0
    endloop
  endfacet
  facet normal 0.543245 0.839574 -0
    outer loop
      vertex -0.459313 0.765526 0
      vertex -0.459313 0.765526 5
      vertex -0.29139 0.656872 0
    endloop
  endfacet
  facet normal 0.543245 0.839574 0
    outer loop
      vertex -0.459313 0.765526 5
      vertex -0.29139 0.656872 5
      vertex -0.29139 0.656872 0
    endloop
  endfacet
  facet normal 0.554719 0.832038 -0
    outer loop
      vertex -0.29139 0.656872 0
      vertex -0.29139 0.656872 5
      vertex -0.113593 0.538335 0
    endloop
  endfacet
  facet normal 0.554719 0.832038 0
    outer loop
      vertex -0.29139 0.656872 5
      vertex -0.113593 0.538335 5
      vertex -0.113593 0.538335 0
    endloop
  endfacet
  facet normal 0.661626 0.749834 -0
    outer loop
      vertex -0.113593 0.538335 0
      vertex -0.113593 0.538335 5
      vertex 0.0543248 0.39017 0
    endloop
  endfacet
  facet normal 0.661626 0.749834 0
    outer loop
      vertex -0.113593 0.538335 5
      vertex 0.0543248 0.39017 5
      vertex 0.0543248 0.39017 0
    endloop
  endfacet
  facet normal 0.447202 0.894433 -0
    outer loop
      vertex 0.0543248 0.39017 0
      vertex 0.0543248 0.39017 5
      vertex 0.192615 0.321027 0
    endloop
  endfacet
  facet normal 0.447202 0.894433 0
    outer loop
      vertex 0.0543248 0.39017 5
      vertex 0.192615 0.321027 5
      vertex 0.192615 0.321027 0
    endloop
  endfacet
  facet normal 0.429932 0.902861 -0
    outer loop
      vertex 0.192615 0.321027 0
      vertex 0.192615 0.321027 5
      vertex 0.607482 0.123472 0
    endloop
  endfacet
  facet normal 0.429932 0.902861 0
    outer loop
      vertex 0.192615 0.321027 5
      vertex 0.607482 0.123472 5
      vertex 0.607482 0.123472 0
    endloop
  endfacet
  facet normal 0.502463 0.864599 -0
    outer loop
      vertex 0.607482 0.123472 0
      vertex 0.607482 0.123472 5
      vertex 2.49414 -0.97296 0
    endloop
  endfacet
  facet normal 0.502463 0.864599 0
    outer loop
      vertex 0.607482 0.123472 5
      vertex 2.49414 -0.97296 5
      vertex 2.49414 -0.97296 0
    endloop
  endfacet
  facet normal 0.50572 0.862697 -0
    outer loop
      vertex 2.49414 -0.97296 0
      vertex 2.49414 -0.97296 5
      vertex 2.78059 -1.14088 0
    endloop
  endfacet
  facet normal 0.50572 0.862697 0
    outer loop
      vertex 2.49414 -0.97296 5
      vertex 2.78059 -1.14088 5
      vertex 2.78059 -1.14088 0
    endloop
  endfacet
  facet normal 0.419043 0.907967 -0
    outer loop
      vertex 2.78059 -1.14088 0
      vertex 2.78059 -1.14088 5
      vertex 2.909 -1.20015 0
    endloop
  endfacet
  facet normal 0.419043 0.907967 0
    outer loop
      vertex 2.78059 -1.14088 5
      vertex 2.909 -1.20015 5
      vertex 2.909 -1.20015 0
    endloop
  endfacet
  facet normal 0.485647 0.874155 -0
    outer loop
      vertex 2.909 -1.20015 0
      vertex 2.909 -1.20015 5
      vertex 2.9979 -1.24954 0
    endloop
  endfacet
  facet normal 0.485647 0.874155 0
    outer loop
      vertex 2.909 -1.20015 5
      vertex 2.9979 -1.24954 5
      vertex 2.9979 -1.24954 0
    endloop
  endfacet
  facet normal 0.393912 0.919148 -0
    outer loop
      vertex 2.9979 -1.24954 0
      vertex 2.9979 -1.24954 5
      vertex 3.06705 -1.27917 0
    endloop
  endfacet
  facet normal 0.393912 0.919148 0
    outer loop
      vertex 2.9979 -1.24954 5
      vertex 3.06705 -1.27917 5
      vertex 3.06705 -1.27917 0
    endloop
  endfacet
  facet normal 0.980577 0.196133 -0
    outer loop
      vertex 3.06705 -1.27917 0
      vertex 3.06705 -1.27917 5
      vertex 3.07693 -1.32856 0
    endloop
  endfacet
  facet normal 0.980577 0.196133 0
    outer loop
      vertex 3.06705 -1.27917 5
      vertex 3.07693 -1.32856 5
      vertex 3.07693 -1.32856 0
    endloop
  endfacet
  facet normal 0.83205 -0.5547 0
    outer loop
      vertex 3.07693 -1.32856 0
      vertex 3.07693 -1.32856 5
      vertex 3.05717 -1.35819 0
    endloop
  endfacet
  facet normal 0.83205 -0.5547 0
    outer loop
      vertex 3.07693 -1.32856 5
      vertex 3.05717 -1.35819 5
      vertex 3.05717 -1.35819 0
    endloop
  endfacet
  facet normal 0 -1 0
    outer loop
      vertex 3.05717 -1.35819 0
      vertex 3.05717 -1.35819 5
      vertex 3.00778 -1.35819 0
    endloop
  endfacet
  facet normal -0 -1 0
    outer loop
      vertex 3.05717 -1.35819 5
      vertex 3.00778 -1.35819 5
      vertex 3.00778 -1.35819 0
    endloop
  endfacet
  facet normal -0.447221 -0.894423 0
    outer loop
      vertex 3.00778 -1.35819 0
      vertex 3.00778 -1.35819 5
      vertex 2.81022 -1.25941 0
    endloop
  endfacet
  facet normal -0.447221 -0.894423 0
    outer loop
      vertex 3.00778 -1.35819 5
      vertex 2.81022 -1.25941 5
      vertex 2.81022 -1.25941 0
    endloop
  endfacet
  facet normal -0.599986 -0.80001 0
    outer loop
      vertex 2.81022 -1.25941 0
      vertex 2.81022 -1.25941 5
      vertex 2.77071 -1.22978 0
    endloop
  endfacet
  facet normal -0.599986 -0.80001 0
    outer loop
      vertex 2.81022 -1.25941 5
      vertex 2.77071 -1.22978 5
      vertex 2.77071 -1.22978 0
    endloop
  endfacet
  facet normal -0.514518 -0.85748 0
    outer loop
      vertex 2.77071 -1.22978 0
      vertex 2.77071 -1.22978 5
      vertex 2.67194 -1.17051 0
    endloop
  endfacet
  facet normal -0.514518 -0.85748 0
    outer loop
      vertex 2.77071 -1.22978 5
      vertex 2.67194 -1.17051 5
      vertex 2.67194 -1.17051 0
    endloop
  endfacet
  facet normal -0.209519 -0.977805 0
    outer loop
      vertex 2.67194 -1.17051 0
      vertex 2.67194 -1.17051 5
      vertex 2.53365 -1.14088 0
    endloop
  endfacet
  facet normal -0.209519 -0.977805 0
    outer loop
      vertex 2.67194 -1.17051 5
      vertex 2.53365 -1.14088 5
      vertex 2.53365 -1.14088 0
    endloop
  endfacet
  facet normal -0.447227 -0.894421 0
    outer loop
      vertex 2.53365 -1.14088 0
      vertex 2.53365 -1.14088 5
      vertex 2.41512 -1.08161 0
    endloop
  endfacet
  facet normal -0.447227 -0.894421 0
    outer loop
      vertex 2.53365 -1.14088 5
      vertex 2.41512 -1.08161 5
      vertex 2.41512 -1.08161 0
    endloop
  endfacet
  facet normal -0.496133 -0.868246 0
    outer loop
      vertex 2.41512 -1.08161 0
      vertex 2.41512 -1.08161 5
      vertex 2.27682 -1.00259 0
    endloop
  endfacet
  facet normal -0.496133 -0.868246 0
    outer loop
      vertex 2.41512 -1.08161 5
      vertex 2.27682 -1.00259 5
      vertex 2.27682 -1.00259 0
    endloop
  endfacet
  facet normal -0.624687 -0.780875 0
    outer loop
      vertex 2.27682 -1.00259 0
      vertex 2.27682 -1.00259 5
      vertex 2.22744 -0.963081 0
    endloop
  endfacet
  facet normal -0.624687 -0.780875 0
    outer loop
      vertex 2.27682 -1.00259 5
      vertex 2.22744 -0.963081 5
      vertex 2.22744 -0.963081 0
    endloop
  endfacet
  facet normal -0.435301 -0.900285 0
    outer loop
      vertex 2.22744 -0.963081 0
      vertex 2.22744 -0.963081 5
      vertex 1.32856 -0.52846 0
    endloop
  endfacet
  facet normal -0.435301 -0.900285 0
    outer loop
      vertex 2.22744 -0.963081 5
      vertex 1.32856 -0.52846 5
      vertex 1.32856 -0.52846 0
    endloop
  endfacet
  facet normal -0.436907 -0.899507 0
    outer loop
      vertex 1.32856 -0.52846 0
      vertex 1.32856 -0.52846 5
      vertex 0.982838 -0.360538 0
    endloop
  endfacet
  facet normal -0.436907 -0.899507 0
    outer loop
      vertex 1.32856 -0.52846 5
      vertex 0.982838 -0.360538 5
      vertex 0.982838 -0.360538 0
    endloop
  endfacet
  facet normal -0.458639 -0.888623 0
    outer loop
      vertex 0.982838 -0.360538 0
      vertex 0.982838 -0.360538 5
      vertex 0.676625 -0.202494 0
    endloop
  endfacet
  facet normal -0.458639 -0.888623 0
    outer loop
      vertex 0.982838 -0.360538 5
      vertex 0.676625 -0.202494 5
      vertex 0.676625 -0.202494 0
    endloop
  endfacet
  facet normal -0.416665 -0.90906 0
    outer loop
      vertex 0.676625 -0.202494 0
      vertex 0.676625 -0.202494 5
      vertex 0.43956 -0.0938358 0
    endloop
  endfacet
  facet normal -0.416665 -0.90906 0
    outer loop
      vertex 0.676625 -0.202494 5
      vertex 0.43956 -0.0938358 5
      vertex 0.43956 -0.0938358 0
    endloop
  endfacet
  facet normal -0.474091 -0.880476 0
    outer loop
      vertex 0.43956 -0.0938358 0
      vertex 0.43956 -0.0938358 5
      vertex 0.311148 -0.0246927 0
    endloop
  endfacet
  facet normal -0.474091 -0.880476 0
    outer loop
      vertex 0.43956 -0.0938358 5
      vertex 0.311148 -0.0246927 5
      vertex 0.311148 -0.0246927 0
    endloop
  endfacet
  facet normal 0.901 -0.43382 0
    outer loop
      vertex 0.311148 -0.0246927 0
      vertex 0.311148 -0.0246927 5
      vertex 0.182736 -0.29139 0
    endloop
  endfacet
  facet normal 0.901 -0.43382 0
    outer loop
      vertex 0.311148 -0.0246927 5
      vertex 0.182736 -0.29139 5
      vertex 0.182736 -0.29139 0
    endloop
  endfacet
  facet normal 0.65851 -0.752572 0
    outer loop
      vertex 0.182736 -0.29139 0
      vertex 0.182736 -0.29139 5
      vertex 0.0246927 -0.429681 0
    endloop
  endfacet
  facet normal 0.65851 -0.752572 0
    outer loop
      vertex 0.182736 -0.29139 5
      vertex 0.0246927 -0.429681 5
      vertex 0.0246927 -0.429681 0
    endloop
  endfacet
  facet normal 0.341746 -0.939792 0
    outer loop
      vertex 0.0246927 -0.429681 0
      vertex 0.0246927 -0.429681 5
      vertex -0.192615 -0.508703 0
    endloop
  endfacet
  facet normal 0.341746 -0.939792 0
    outer loop
      vertex 0.0246927 -0.429681 5
      vertex -0.192615 -0.508703 5
      vertex -0.192615 -0.508703 0
    endloop
  endfacet
  facet normal -0.307002 -0.951709 0
    outer loop
      vertex -0.192615 -0.508703 0
      vertex -0.192615 -0.508703 5
      vertex -0.805037 -0.311148 0
    endloop
  endfacet
  facet normal -0.307002 -0.951709 0
    outer loop
      vertex -0.192615 -0.508703 5
      vertex -0.805037 -0.311148 5
      vertex -0.805037 -0.311148 0
    endloop
  endfacet
  facet normal -0.351127 -0.936328 0
    outer loop
      vertex -0.805037 -0.311148 0
      vertex -0.805037 -0.311148 5
      vertex -1.0421 -0.222247 0
    endloop
  endfacet
  facet normal -0.351127 -0.936328 0
    outer loop
      vertex -0.805037 -0.311148 5
      vertex -1.0421 -0.222247 5
      vertex -1.0421 -0.222247 0
    endloop
  endfacet
  facet normal 0.707107 -0.707107 0
    outer loop
      vertex -1.0421 -0.222247 0
      vertex -1.0421 -0.222247 5
      vertex -1.06186 -0.242005 0
    endloop
  endfacet
  facet normal 0.707107 -0.707107 0
    outer loop
      vertex -1.0421 -0.222247 5
      vertex -1.06186 -0.242005 5
      vertex -1.06186 -0.242005 0
    endloop
  endfacet
  facet normal 0.514474 -0.857506 0
    outer loop
      vertex -1.06186 -0.242005 0
      vertex -1.06186 -0.242005 5
      vertex -1.11125 -0.271637 0
    endloop
  endfacet
  facet normal 0.514474 -0.857506 0
    outer loop
      vertex -1.06186 -0.242005 5
      vertex -1.11125 -0.271637 5
      vertex -1.11125 -0.271637 0
    endloop
  endfacet
  facet normal 0 -1 0
    outer loop
      vertex -1.11125 -0.271637 0
      vertex -1.11125 -0.271637 5
      vertex -1.20015 -0.271637 0
    endloop
  endfacet
  facet normal -0 -1 0
    outer loop
      vertex -1.11125 -0.271637 5
      vertex -1.20015 -0.271637 5
      vertex -1.20015 -0.271637 0
    endloop
  endfacet
  facet normal 0.554616 -0.832106 0
    outer loop
      vertex -1.20015 -0.271637 0
      vertex -1.20015 -0.271637 5
      vertex -1.22978 -0.29139 0
    endloop
  endfacet
  facet normal 0.554616 -0.832106 0
    outer loop
      vertex -1.20015 -0.271637 5
      vertex -1.22978 -0.29139 5
      vertex -1.22978 -0.29139 0
    endloop
  endfacet
  facet normal 0.492055 0.870564 -0
    outer loop
      vertex -1.22978 -0.29139 0
      vertex -1.22978 -0.29139 5
      vertex -1.00259 -0.419802 0
    endloop
  endfacet
  facet normal 0.492055 0.870564 0
    outer loop
      vertex -1.22978 -0.29139 5
      vertex -1.00259 -0.419802 5
      vertex -1.00259 -0.419802 0
    endloop
  endfacet
  facet normal 0.600014 0.79999 -0
    outer loop
      vertex -1.00259 -0.419802 0
      vertex -1.00259 -0.419802 5
      vertex -0.92357 -0.479071 0
    endloop
  endfacet
  facet normal 0.600014 0.79999 0
    outer loop
      vertex -1.00259 -0.419802 5
      vertex -0.92357 -0.479071 5
      vertex -0.92357 -0.479071 0
    endloop
  endfacet
  facet normal 0.832041 -0.554714 0
    outer loop
      vertex -0.92357 -0.479071 0
      vertex -0.92357 -0.479071 5
      vertex -0.963081 -0.538335 0
    endloop
  endfacet
  facet normal 0.832041 -0.554714 0
    outer loop
      vertex -0.92357 -0.479071 5
      vertex -0.963081 -0.538335 5
      vertex -0.963081 -0.538335 0
    endloop
  endfacet
  facet normal -0.485614 -0.874173 0
    outer loop
      vertex -0.963081 -0.538335 0
      vertex -0.963081 -0.538335 5
      vertex -1.05198 -0.488949 0
    endloop
  endfacet
  facet normal -0.485614 -0.874173 0
    outer loop
      vertex -0.963081 -0.538335 5
      vertex -1.05198 -0.488949 5
      vertex -1.05198 -0.488949 0
    endloop
  endfacet
  facet normal -0.554756 -0.832013 0
    outer loop
      vertex -1.05198 -0.488949 0
      vertex -1.05198 -0.488949 5
      vertex -1.08161 -0.469192 0
    endloop
  endfacet
  facet normal -0.554756 -0.832013 0
    outer loop
      vertex -1.05198 -0.488949 5
      vertex -1.08161 -0.469192 5
      vertex -1.08161 -0.469192 0
    endloop
  endfacet
  facet normal -0.514491 -0.857496 0
    outer loop
      vertex -1.08161 -0.469192 0
      vertex -1.08161 -0.469192 5
      vertex -1.32856 -0.321027 0
    endloop
  endfacet
  facet normal -0.514491 -0.857496 0
    outer loop
      vertex -1.08161 -0.469192 5
      vertex -1.32856 -0.321027 5
      vertex -1.32856 -0.321027 0
    endloop
  endfacet
  facet normal 0.447058 -0.894505 0
    outer loop
      vertex -1.32856 -0.321027 0
      vertex -1.32856 -0.321027 5
      vertex -1.34832 -0.330901 0
    endloop
  endfacet
  facet normal 0.447058 -0.894505 0
    outer loop
      vertex -1.32856 -0.321027 5
      vertex -1.34832 -0.330901 5
      vertex -1.34832 -0.330901 0
    endloop
  endfacet
  facet normal -0.554714 -0.832041 0
    outer loop
      vertex -1.34832 -0.330901 0
      vertex -1.34832 -0.330901 5
      vertex -1.40758 -0.29139 0
    endloop
  endfacet
  facet normal -0.554714 -0.832041 0
    outer loop
      vertex -1.34832 -0.330901 5
      vertex -1.40758 -0.29139 5
      vertex -1.40758 -0.29139 0
    endloop
  endfacet
  facet normal 0.4138 -0.910368 0
    outer loop
      vertex -1.40758 -0.29139 0
      vertex -1.40758 -0.29139 5
      vertex -1.51624 -0.34078 0
    endloop
  endfacet
  facet normal 0.4138 -0.910368 0
    outer loop
      vertex -1.40758 -0.29139 5
      vertex -1.51624 -0.34078 5
      vertex -1.51624 -0.34078 0
    endloop
  endfacet
  facet normal 0.316269 -0.94867 0
    outer loop
      vertex -1.51624 -0.34078 0
      vertex -1.51624 -0.34078 5
      vertex -1.54587 -0.350659 0
    endloop
  endfacet
  facet normal 0.316269 -0.94867 0
    outer loop
      vertex -1.51624 -0.34078 5
      vertex -1.54587 -0.350659 5
      vertex -1.54587 -0.350659 0
    endloop
  endfacet
  facet normal 0.707107 -0.707107 0
    outer loop
      vertex -1.54587 -0.350659 0
      vertex -1.54587 -0.350659 5
      vertex -1.62489 -0.429681 0
    endloop
  endfacet
  facet normal 0.707107 -0.707107 0
    outer loop
      vertex -1.54587 -0.350659 5
      vertex -1.62489 -0.429681 5
      vertex -1.62489 -0.429681 0
    endloop
  endfacet
  facet normal -0.447214 -0.894427 0
    outer loop
      vertex -1.62489 -0.429681 0
      vertex -1.62489 -0.429681 5
      vertex -1.64465 -0.419802 0
    endloop
  endfacet
  facet normal -0.447214 -0.894427 0
    outer loop
      vertex -1.62489 -0.429681 5
      vertex -1.64465 -0.419802 5
      vertex -1.64465 -0.419802 0
    endloop
  endfacet
  facet normal 0.707107 -0.707107 0
    outer loop
      vertex -1.64465 -0.419802 0
      vertex -1.64465 -0.419802 5
      vertex -1.68416 -0.459313 0
    endloop
  endfacet
  facet normal 0.707107 -0.707107 0
    outer loop
      vertex -1.64465 -0.419802 5
      vertex -1.68416 -0.459313 5
      vertex -1.68416 -0.459313 0
    endloop
  endfacet
  facet normal -0.447136 -0.894466 0
    outer loop
      vertex -1.68416 -0.459313 0
      vertex -1.68416 -0.459313 5
      vertex -1.70391 -0.449439 0
    endloop
  endfacet
  facet normal -0.447136 -0.894466 0
    outer loop
      vertex -1.68416 -0.459313 5
      vertex -1.70391 -0.449439 5
      vertex -1.70391 -0.449439 0
    endloop
  endfacet
  facet normal 0.847993 -0.530007 0
    outer loop
      vertex -1.70391 -0.449439 0
      vertex -1.70391 -0.449439 5
      vertex -1.7533 -0.52846 0
    endloop
  endfacet
  facet normal 0.847993 -0.530007 0
    outer loop
      vertex -1.70391 -0.449439 5
      vertex -1.7533 -0.52846 5
      vertex -1.7533 -0.52846 0
    endloop
  endfacet
  facet normal 0.567365 0.823467 -0
    outer loop
      vertex -1.7533 -0.52846 0
      vertex -1.7533 -0.52846 5
      vertex 0.311148 -1.95086 0
    endloop
  endfacet
  facet normal 0.567365 0.823467 0
    outer loop
      vertex -1.7533 -0.52846 5
      vertex 0.311148 -1.95086 5
      vertex 0.311148 -1.95086 0
    endloop
  endfacet
  facet normal -0.393912 0.919148 0
    outer loop
      vertex 0.311148 -1.95086 0
      vertex 0.311148 -1.95086 5
      vertex 0.380291 -1.92123 0
    endloop
  endfacet
  facet normal -0.393912 0.919148 0
    outer loop
      vertex 0.311148 -1.95086 5
      vertex 0.380291 -1.92123 5
      vertex 0.380291 -1.92123 0
    endloop
  endfacet
  facet normal 0.54626 0.837616 -0
    outer loop
      vertex 0.380291 -1.92123 0
      vertex 0.380291 -1.92123 5
      vertex 0.607482 -2.06939 0
    endloop
  endfacet
  facet normal 0.54626 0.837616 0
    outer loop
      vertex 0.380291 -1.92123 5
      vertex 0.607482 -2.06939 5
      vertex 0.607482 -2.06939 0
    endloop
  endfacet
  facet normal -0.316269 0.94867 0
    outer loop
      vertex 0.607482 -2.06939 0
      vertex 0.607482 -2.06939 5
      vertex 0.637114 -2.05951 0
    endloop
  endfacet
  facet normal -0.316269 0.94867 0
    outer loop
      vertex 0.607482 -2.06939 5
      vertex 0.637114 -2.05951 5
      vertex 0.637114 -2.05951 0
    endloop
  endfacet
  facet normal 0.536876 0.843661 -0
    outer loop
      vertex 0.637114 -2.05951 0
      vertex 0.637114 -2.05951 5
      vertex 0.963081 -2.26695 0
    endloop
  endfacet
  facet normal 0.536876 0.843661 0
    outer loop
      vertex 0.637114 -2.05951 5
      vertex 0.963081 -2.26695 5
      vertex 0.963081 -2.26695 0
    endloop
  endfacet
  facet normal 0.883787 0.46789 -0
    outer loop
      vertex 0.963081 -2.26695 0
      vertex 0.963081 -2.26695 5
      vertex 1.05198 -2.43487 0
    endloop
  endfacet
  facet normal 0.883787 0.46789 0
    outer loop
      vertex 0.963081 -2.26695 5
      vertex 1.05198 -2.43487 5
      vertex 1.05198 -2.43487 0
    endloop
  endfacet
  facet normal 0.581253 0.813723 -0
    outer loop
      vertex 1.05198 -2.43487 0
      vertex 1.05198 -2.43487 5
      vertex 1.12112 -2.48426 0
    endloop
  endfacet
  facet normal 0.581253 0.813723 0
    outer loop
      vertex 1.05198 -2.43487 5
      vertex 1.12112 -2.48426 5
      vertex 1.12112 -2.48426 0
    endloop
  endfacet
  facet normal 0.242561 0.970136 -0
    outer loop
      vertex 1.12112 -2.48426 0
      vertex 1.12112 -2.48426 5
      vertex 1.20015 -2.50402 0
    endloop
  endfacet
  facet normal 0.242561 0.970136 0
    outer loop
      vertex 1.12112 -2.48426 5
      vertex 1.20015 -2.50402 5
      vertex 1.20015 -2.50402 0
    endloop
  endfacet
  facet normal 0.554692 0.832056 -0
    outer loop
      vertex 1.20015 -2.50402 0
      vertex 1.20015 -2.50402 5
      vertex 1.40758 -2.6423 0
    endloop
  endfacet
  facet normal 0.554692 0.832056 0
    outer loop
      vertex 1.20015 -2.50402 5
      vertex 1.40758 -2.6423 5
      vertex 1.40758 -2.6423 0
    endloop
  endfacet
  facet normal 0.894427 0.447214 -0
    outer loop
      vertex 1.40758 -2.6423 0
      vertex 1.40758 -2.6423 5
      vertex 1.41746 -2.66206 0
    endloop
  endfacet
  facet normal 0.894427 0.447214 0
    outer loop
      vertex 1.40758 -2.6423 5
      vertex 1.41746 -2.66206 5
      vertex 1.41746 -2.66206 0
    endloop
  endfacet
  facet normal 0.707107 0.707107 -0
    outer loop
      vertex 1.41746 -2.66206 0
      vertex 1.41746 -2.66206 5
      vertex 1.42734 -2.67194 0
    endloop
  endfacet
  facet normal 0.707107 0.707107 0
    outer loop
      vertex 1.41746 -2.66206 5
      vertex 1.42734 -2.67194 5
      vertex 1.42734 -2.67194 0
    endloop
  endfacet
  facet normal 0.894388 0.447292 -0
    outer loop
      vertex 1.42734 -2.67194 0
      vertex 1.42734 -2.67194 5
      vertex 1.43722 -2.69169 0
    endloop
  endfacet
  facet normal 0.894388 0.447292 0
    outer loop
      vertex 1.42734 -2.67194 5
      vertex 1.43722 -2.69169 5
      vertex 1.43722 -2.69169 0
    endloop
  endfacet
  facet normal 0.94867 -0.316269 0
    outer loop
      vertex 1.43722 -2.69169 0
      vertex 1.43722 -2.69169 5
      vertex 1.42734 -2.72132 0
    endloop
  endfacet
  facet normal 0.94867 -0.316269 0
    outer loop
      vertex 1.43722 -2.69169 5
      vertex 1.42734 -2.72132 5
      vertex 1.42734 -2.72132 0
    endloop
  endfacet
  facet normal 0.554756 -0.832013 0
    outer loop
      vertex 1.42734 -2.72132 0
      vertex 1.42734 -2.72132 5
      vertex 1.39771 -2.74108 0
    endloop
  endfacet
  facet normal 0.554756 -0.832013 0
    outer loop
      vertex 1.42734 -2.72132 5
      vertex 1.39771 -2.74108 5
      vertex 1.39771 -2.74108 0
    endloop
  endfacet
  facet normal 0 -1 0
    outer loop
      vertex 1.39771 -2.74108 0
      vertex 1.39771 -2.74108 5
      vertex 1.33844 -2.74108 0
    endloop
  endfacet
  facet normal -0 -1 0
    outer loop
      vertex 1.39771 -2.74108 5
      vertex 1.33844 -2.74108 5
      vertex 1.33844 -2.74108 0
    endloop
  endfacet
  facet normal -0.56333 -0.826232 0
    outer loop
      vertex 1.33844 -2.74108 0
      vertex 1.33844 -2.74108 5
      vertex 1.12112 -2.59292 0
    endloop
  endfacet
  facet normal -0.56333 -0.826232 0
    outer loop
      vertex 1.33844 -2.74108 5
      vertex 1.12112 -2.59292 5
      vertex 1.12112 -2.59292 0
    endloop
  endfacet
  facet normal -0.768226 -0.640179 0
    outer loop
      vertex 1.12112 -2.59292 0
      vertex 1.12112 -2.59292 5
      vertex 1.07173 -2.53365 0
    endloop
  endfacet
  facet normal -0.768226 -0.640179 0
    outer loop
      vertex 1.12112 -2.59292 5
      vertex 1.07173 -2.53365 5
      vertex 1.07173 -2.53365 0
    endloop
  endfacet
  facet normal -0.296316 -0.95509 0
    outer loop
      vertex 1.07173 -2.53365 0
      vertex 1.07173 -2.53365 5
      vertex -2.49414 -1.42734 0
    endloop
  endfacet
  facet normal -0.296316 -0.95509 0
    outer loop
      vertex 1.07173 -2.53365 5
      vertex -2.49414 -1.42734 5
      vertex -2.49414 -1.42734 0
    endloop
  endfacet
  facet normal -0.646521 -0.762896 0
    outer loop
      vertex -2.49414 -1.42734 0
      vertex -2.49414 -1.42734 5
      vertex -3.07693 -0.933449 0
    endloop
  endfacet
  facet normal -0.646521 -0.762896 0
    outer loop
      vertex -2.49414 -1.42734 5
      vertex -3.07693 -0.933449 5
      vertex -3.07693 -0.933449 0
    endloop
  endfacet
  facet normal -0.887627 0.460563 0
    outer loop
      vertex -3.07693 -0.933449 0
      vertex -3.07693 -0.933449 5
      vertex -2.53365 0.113593 0
    endloop
  endfacet
  facet normal -0.887627 0.460563 0
    outer loop
      vertex -3.07693 -0.933449 5
      vertex -2.53365 0.113593 5
      vertex -2.53365 0.113593 0
    endloop
  endfacet
  facet normal -0.640179 -0.768226 0
    outer loop
      vertex -2.53365 0.113593 0
      vertex -2.53365 0.113593 5
      vertex -2.59292 0.162983 0
    endloop
  endfacet
  facet normal -0.640179 -0.768226 0
    outer loop
      vertex -2.53365 0.113593 5
      vertex -2.59292 0.162983 5
      vertex -2.59292 0.162983 0
    endloop
  endfacet
  facet normal -0.79128 0.611454 0
    outer loop
      vertex -2.59292 0.162983 0
      vertex -2.59292 0.162983 5
      vertex -2.42499 0.380291 0
    endloop
  endfacet
  facet normal -0.79128 0.611454 0
    outer loop
      vertex -2.59292 0.162983 5
      vertex -2.42499 0.380291 5
      vertex -2.42499 0.380291 0
    endloop
  endfacet
  facet normal -0.658522 -0.752561 0
    outer loop
      vertex -2.42499 0.380291 0
      vertex -2.42499 0.380291 5
      vertex -2.50402 0.449439 0
    endloop
  endfacet
  facet normal -0.658522 -0.752561 0
    outer loop
      vertex -2.42499 0.380291 5
      vertex -2.50402 0.449439 5
      vertex -2.50402 0.449439 0
    endloop
  endfacet
  facet normal -0.919127 0.393961 0
    outer loop
      vertex -2.50402 0.449439 0
      vertex -2.50402 0.449439 5
      vertex -2.47438 0.518582 0
    endloop
  endfacet
  facet normal -0.919127 0.393961 0
    outer loop
      vertex -2.50402 0.449439 5
      vertex -2.47438 0.518582 5
      vertex -2.47438 0.518582 0
    endloop
  endfacet
  facet normal -0.752561 -0.658522 0
    outer loop
      vertex -2.47438 0.518582 0
      vertex -2.47438 0.518582 5
      vertex -2.54353 0.597603 0
    endloop
  endfacet
  facet normal -0.752561 -0.658522 0
    outer loop
      vertex -2.47438 0.518582 5
      vertex -2.54353 0.597603 5
      vertex -2.54353 0.597603 0
    endloop
  endfacet
  facet normal -0.832013 0.554756 0
    outer loop
      vertex -2.54353 0.597603 0
      vertex -2.54353 0.597603 5
      vertex -2.52377 0.627236 0
    endloop
  endfacet
  facet normal -0.832013 0.554756 0
    outer loop
      vertex -2.54353 0.597603 5
      vertex -2.52377 0.627236 5
      vertex -2.52377 0.627236 0
    endloop
  endfacet
  facet normal -0.83206 -0.554686 0
    outer loop
      vertex -2.52377 0.627236 0
      vertex -2.52377 0.627236 5
      vertex -2.56328 0.686504 0
    endloop
  endfacet
  facet normal -0.83206 -0.554686 0
    outer loop
      vertex -2.52377 0.627236 5
      vertex -2.56328 0.686504 5
      vertex -2.56328 0.686504 0
    endloop
  endfacet
  facet normal -0.938671 0.344813 0
    outer loop
      vertex -2.56328 0.686504 0
      vertex -2.56328 0.686504 5
      vertex -2.38548 1.17051 0
    endloop
  endfacet
  facet normal -0.938671 0.344813 0
    outer loop
      vertex -2.56328 0.686504 5
      vertex -2.38548 1.17051 5
      vertex -2.38548 1.17051 0
    endloop
  endfacet
  facet normal -0.501026 0.865432 0
    outer loop
      vertex -2.38548 1.17051 0
      vertex -2.38548 1.17051 5
      vertex -2.1978 1.27917 0
    endloop
  endfacet
  facet normal -0.501026 0.865432 0
    outer loop
      vertex -2.38548 1.17051 5
      vertex -2.1978 1.27917 5
      vertex -2.1978 1.27917 0
    endloop
  endfacet
  facet normal -0.936337 0.351104 0
    outer loop
      vertex -2.1978 1.27917 0
      vertex -2.1978 1.27917 5
      vertex -2.13854 1.43722 0
    endloop
  endfacet
  facet normal -0.936337 0.351104 0
    outer loop
      vertex -2.1978 1.27917 5
      vertex -2.13854 1.43722 5
      vertex -2.13854 1.43722 0
    endloop
  endfacet
  facet normal -0.316217 0.948687 0
    outer loop
      vertex -2.13854 1.43722 0
      vertex -2.13854 1.43722 5
      vertex -2.02 1.47673 0
    endloop
  endfacet
  facet normal -0.316217 0.948687 0
    outer loop
      vertex -2.13854 1.43722 5
      vertex -2.02 1.47673 5
      vertex -2.02 1.47673 0
    endloop
  endfacet
  facet normal -1 0 0
    outer loop
      vertex -2.02 1.47673 0
      vertex -2.02 1.47673 5
      vertex -2.02 1.70391 0
    endloop
  endfacet
  facet normal -1 0 0
    outer loop
      vertex -2.02 1.47673 5
      vertex -2.02 1.70391 5
      vertex -2.02 1.70391 0
    endloop
  endfacet
  facet normal -0.242561 0.970136 0
    outer loop
      vertex -2.02 1.70391 0
      vertex -2.02 1.70391 5
      vertex -1.94098 1.72367 0
    endloop
  endfacet
  facet normal -0.242561 0.970136 0
    outer loop
      vertex -2.02 1.70391 5
      vertex -1.94098 1.72367 5
      vertex -1.94098 1.72367 0
    endloop
  endfacet
  facet normal -1 0 0
    outer loop
      vertex -1.94098 1.72367 0
      vertex -1.94098 1.72367 5
      vertex -1.94098 1.77306 0
    endloop
  endfacet
  facet normal -1 0 0
    outer loop
      vertex -1.94098 1.72367 5
      vertex -1.94098 1.77306 5
      vertex -1.94098 1.77306 0
    endloop
  endfacet
  facet normal -0.977804 0.209521 0
    outer loop
      vertex -1.94098 1.77306 0
      vertex -1.94098 1.77306 5
      vertex -1.85208 2.18792 0
    endloop
  endfacet
  facet normal -0.977804 0.209521 0
    outer loop
      vertex -1.94098 1.77306 5
      vertex -1.85208 2.18792 5
      vertex -1.85208 2.18792 0
    endloop
  endfacet
  facet normal -0.986394 0.164401 0
    outer loop
      vertex -1.85208 2.18792 0
      vertex -1.85208 2.18792 5
      vertex -1.80269 2.48426 0
    endloop
  endfacet
  facet normal -0.986394 0.164401 0
    outer loop
      vertex -1.85208 2.18792 5
      vertex -1.80269 2.48426 5
      vertex -1.80269 2.48426 0
    endloop
  endfacet
  facet normal -0.976188 0.216928 0
    outer loop
      vertex -1.80269 2.48426 0
      vertex -1.80269 2.48426 5
      vertex -1.76318 2.66206 0
    endloop
  endfacet
  facet normal -0.976188 0.216928 0
    outer loop
      vertex -1.80269 2.48426 5
      vertex -1.76318 2.66206 5
      vertex -1.76318 2.66206 0
    endloop
  endfacet
  facet normal -0.847993 0.530007 0
    outer loop
      vertex -1.76318 2.66206 0
      vertex -1.76318 2.66206 5
      vertex -1.71379 2.74108 0
    endloop
  endfacet
  facet normal -0.847993 0.530007 0
    outer loop
      vertex -1.76318 2.66206 5
      vertex -1.71379 2.74108 5
      vertex -1.71379 2.74108 0
    endloop
  endfacet
  facet normal 0 1 0
    outer loop
      vertex -1.71379 2.74108 0
      vertex -1.71379 2.74108 5
      vertex -1.67428 2.74108 0
    endloop
  endfacet
  facet normal -0 1 0
    outer loop
      vertex -1.71379 2.74108 5
      vertex -1.67428 2.74108 5
      vertex -1.67428 2.74108 0
    endloop
  endfacet
  facet normal 0.278059 0.960564 -0
    outer loop
      vertex -1.67428 2.74108 0
      vertex -1.67428 2.74108 5
      vertex -0.92357 2.52377 0
    endloop
  endfacet
  facet normal 0.278059 0.960564 0
    outer loop
      vertex -1.67428 2.74108 5
      vertex -0.92357 2.52377 5
      vertex -0.92357 2.52377 0
    endloop
  endfacet
endsolid OpenSCAD_Model
