solid OpenSCAD_Model
  facet normal 0 0 -1
    outer loop
      vertex -1.63971 0.607482 0
      vertex -1.63971 0.686504 0
      vertex -1.43228 0.755647 0
    endloop
  endfacet
  facet normal 0 0 -1
    outer loop
      vertex -1.8669 1.91135 0
      vertex -1.83727 1.87184 0
      vertex -1.84714 1.83233 0
    endloop
  endfacet
  facet normal 0 0 -1
    outer loop
      vertex -3.31893 0.419802 0
      vertex -2.56822 -0.479071 0
      vertex -3.30905 -0.360538 0
    endloop
  endfacet
  facet normal 0 0 -1
    outer loop
      vertex -2.58798 0.646993 0
      vertex -2.87443 1.10137 0
      vertex -2.64724 1.38783 0
    endloop
  endfacet
  facet normal 0 0 -1
    outer loop
      vertex -3.2893 -0.419802 0
      vertex -3.23003 -0.548214 0
      vertex -3.2893 -0.488949 0
    endloop
  endfacet
  facet normal 0 0 -1
    outer loop
      vertex -1.41252 -0.726015 0
      vertex -1.26435 -0.795158 0
      vertex -1.36313 -0.765526 0
    endloop
  endfacet
  facet normal 0 0 -1
    outer loop
      vertex -0.316088 0.52846 0
      vertex -0.671686 0.795158 0
      vertex -0.355598 0.587725 0
    endloop
  endfacet
  facet normal 0 0 -1
    outer loop
      vertex -1.43228 0.755647 0
      vertex -1.35326 0.814916 0
      vertex -1.26435 0.82479 0
    endloop
  endfacet
  facet normal 0 0 -1
    outer loop
      vertex -1.64958 0.646993 0
      vertex -1.63971 0.686504 0
      vertex -1.63971 0.607482 0
    endloop
  endfacet
  facet normal 0 0 -1
    outer loop
      vertex -1.18533 0.814916 0
      vertex -1.14582 0.834669 0
      vertex -0.800098 0.854427 0
    endloop
  endfacet
  facet normal 0 0 -1
    outer loop
      vertex -1.63971 0.686504 0
      vertex -1.62983 0.716136 0
      vertex -1.43228 0.755647 0
    endloop
  endfacet
  facet normal 0 0 -1
    outer loop
      vertex -1.63971 0.607482 0
      vertex -1.43228 0.755647 0
      vertex -1.63971 0.577846 0
    endloop
  endfacet
  facet normal 0 0 -1
    outer loop
      vertex -0.671686 0.795158 0
      vertex -0.800098 0.854427 0
      vertex -0.721076 0.82479 0
    endloop
  endfacet
  facet normal 0 0 -1
    outer loop
      vertex -1.43228 0.755647 0
      vertex -1.26435 0.82479 0
      vertex -1.18533 0.814916 0
    endloop
  endfacet
  facet normal 0 -0 -1
    outer loop
      vertex -1.43228 0.755647 0
      vertex -1.18533 0.814916 0
      vertex -1.63971 0.577846 0
    endloop
  endfacet
  facet normal 0 0 -1
    outer loop
      vertex 3.31893 -0.558093 0
      vertex 1.57056 0.597603 0
      vertex 3.30905 0.686504 0
    endloop
  endfacet
  facet normal 0 -0 -1
    outer loop
      vertex -1.13594 0.854427 0
      vertex -0.800098 0.854427 0
      vertex -1.14582 0.834669 0
    endloop
  endfacet
  facet normal 0 0 -1
    outer loop
      vertex -1.18533 0.814916 0
      vertex -0.800098 0.854427 0
      vertex -0.671686 0.795158 0
    endloop
  endfacet
  facet normal 0 0 -1
    outer loop
      vertex -0.454374 0.765526 0
      vertex -0.671686 0.795158 0
      vertex -0.474131 0.795158 0
    endloop
  endfacet
  facet normal -0 -0 -1
    outer loop
      vertex -0.43462 0.745768 0
      vertex -0.424742 0.726015 0
      vertex -0.454374 0.765526 0
    endloop
  endfacet
  facet normal 0 0 -1
    outer loop
      vertex -0.424742 0.726015 0
      vertex -0.671686 0.795158 0
      vertex -0.454374 0.765526 0
    endloop
  endfacet
  facet normal -0 -0 -1
    outer loop
      vertex -0.385231 0.706257 0
      vertex -0.385231 0.686504 0
      vertex -0.424742 0.726015 0
    endloop
  endfacet
  facet normal -0 -0 -1
    outer loop
      vertex -0.385231 0.686504 0
      vertex -0.355598 0.587725 0
      vertex -0.424742 0.726015 0
    endloop
  endfacet
  facet normal 0 0 -1
    outer loop
      vertex -0.355598 0.587725 0
      vertex -0.671686 0.795158 0
      vertex -0.424742 0.726015 0
    endloop
  endfacet
  facet normal 0 0 -1
    outer loop
      vertex -0.316088 0.52846 0
      vertex -1.18533 0.814916 0
      vertex -0.671686 0.795158 0
    endloop
  endfacet
  facet normal 0 0 -1
    outer loop
      vertex -0.0987752 -0.735894 0
      vertex 0.0098745 0.548214 0
      vertex 0.118533 -0.785279 0
    endloop
  endfacet
  facet normal -0 0 -1
    outer loop
      vertex -0.375352 -0.696383 0
      vertex -0.661807 -0.775405 0
      vertex -0.316088 0.52846 0
    endloop
  endfacet
  facet normal 0 0 -1
    outer loop
      vertex -0.0296321 -1.22978 0
      vertex -0.0296321 -1.14088 0
      vertex 0.118533 -1.3088 0
    endloop
  endfacet
  facet normal 0 0 -1
    outer loop
      vertex 0.691444 0.82479 0
      vertex 1.00753 0.82479 0
      vertex 0.819855 -0.656872 0
    endloop
  endfacet
  facet normal 0 0 -1
    outer loop
      vertex 2.45957 -1.61501 0
      vertex 2.2225 -1.74343 0
      vertex 1.75824 -1.63477 0
    endloop
  endfacet
  facet normal 0 -0 -1
    outer loop
      vertex -0.138286 0.548214 0
      vertex -0.0790219 0.548214 0
      vertex -0.177797 0.488949 0
    endloop
  endfacet
  facet normal 0 -0 -1
    outer loop
      vertex -0.0790219 0.548214 0
      vertex -0.0395109 0.538335 0
      vertex -0.177797 0.488949 0
    endloop
  endfacet
  facet normal -0 0 -1
    outer loop
      vertex 1.54093 0.617361 0
      vertex 1.5113 -0.52846 0
      vertex 1.50142 0.646993 0
    endloop
  endfacet
  facet normal 0 0 -1
    outer loop
      vertex 1.01741 -0.716136 0
      vertex 0.859366 -0.706257 0
      vertex 0.819855 -0.656872 0
    endloop
  endfacet
  facet normal 0 0 -1
    outer loop
      vertex 0.0691431 0.577846 0
      vertex 0.118533 0.637114 0
      vertex 0.316088 0.716136 0
    endloop
  endfacet
  facet normal 0 0 -1
    outer loop
      vertex 0.651933 -0.656872 0
      vertex 0.316088 0.716136 0
      vertex 0.454374 0.745768 0
    endloop
  endfacet
  facet normal 0 0 -1
    outer loop
      vertex 1.14582 -0.716136 0
      vertex 1.01741 -0.716136 0
      vertex 0.819855 -0.656872 0
    endloop
  endfacet
  facet normal -0 0 -1
    outer loop
      vertex 1.57056 0.597603 0
      vertex 1.5113 -0.52846 0
      vertex 1.54093 0.617361 0
    endloop
  endfacet
  facet normal 0 0 -1
    outer loop
      vertex 1.26435 0.755647 0
      vertex 1.46191 0.706257 0
      vertex 1.50142 0.646993 0
    endloop
  endfacet
  facet normal -0 -0 -1
    outer loop
      vertex 1.39277 0.755647 0
      vertex 1.46191 0.706257 0
      vertex 1.26435 0.755647 0
    endloop
  endfacet
  facet normal 0 -0 -1
    outer loop
      vertex 1.57056 -0.508703 0
      vertex 1.75824 -1.63477 0
      vertex 1.14582 -1.44709 0
    endloop
  endfacet
  facet normal 0 0 -1
    outer loop
      vertex 1.75824 -1.63477 0
      vertex 1.21496 -1.52611 0
      vertex 1.14582 -1.44709 0
    endloop
  endfacet
  facet normal 0 0 -1
    outer loop
      vertex 2.29164 -1.74343 0
      vertex 2.2225 -1.74343 0
      vertex 2.36079 -1.71379 0
    endloop
  endfacet
  facet normal 0 0 -1
    outer loop
      vertex 1.21496 -1.52611 0
      vertex 1.14582 -1.47673 0
      vertex 1.14582 -1.44709 0
    endloop
  endfacet
  facet normal -0 0 -1
    outer loop
      vertex 3.31893 -0.558093 0
      vertex 2.9337 -1.01247 0
      vertex 1.57056 -0.508703 0
    endloop
  endfacet
  facet normal 0 0 -1
    outer loop
      vertex 1.57056 -0.508703 0
      vertex 2.9337 -1.01247 0
      vertex 2.64724 -1.36807 0
    endloop
  endfacet
  facet normal 0 0 -1
    outer loop
      vertex 1.14582 1.55575 0
      vertex 1.18533 1.60514 0
      vertex 1.21496 1.38783 0
    endloop
  endfacet
  facet normal 0 -0 -1
    outer loop
      vertex 1.16557 1.59526 0
      vertex 1.18533 1.60514 0
      vertex 1.14582 1.55575 0
    endloop
  endfacet
  facet normal 0 0 -1
    outer loop
      vertex 1.18533 1.60514 0
      vertex 1.69897 1.72367 0
      vertex 1.21496 1.38783 0
    endloop
  endfacet
  facet normal 0 0 -1
    outer loop
      vertex 1.69897 1.72367 0
      vertex 1.36313 1.06186 0
      vertex 1.21496 1.38783 0
    endloop
  endfacet
  facet normal 0 0 -1
    outer loop
      vertex 2.06445 1.80269 0
      vertex 1.36313 1.06186 0
      vertex 1.69897 1.72367 0
    endloop
  endfacet
  facet normal 0 0 -1
    outer loop
      vertex 1.57056 0.597603 0
      vertex 1.36313 1.06186 0
      vertex 2.06445 1.80269 0
    endloop
  endfacet
  facet normal -0 -0 -1
    outer loop
      vertex 2.3114 1.85208 0
      vertex 2.33115 1.8422 0
      vertex 2.25213 1.85208 0
    endloop
  endfacet
  facet normal -0 0 -1
    outer loop
      vertex 2.33115 1.8422 0
      vertex 2.06445 1.80269 0
      vertex 2.25213 1.85208 0
    endloop
  endfacet
  facet normal 0 0 -1
    outer loop
      vertex 1.57056 0.597603 0
      vertex 2.06445 1.80269 0
      vertex 2.33115 1.8422 0
    endloop
  endfacet
  facet normal 0 0 -1
    outer loop
      vertex 1.57056 0.597603 0
      vertex 2.33115 1.8422 0
      vertex 3.30905 0.686504 0
    endloop
  endfacet
  facet normal -0 0 -1
    outer loop
      vertex 2.36079 -1.71379 0
      vertex 2.2225 -1.74343 0
      vertex 2.45957 -1.61501 0
    endloop
  endfacet
  facet normal -0 0 -1
    outer loop
      vertex 2.64724 -1.36807 0
      vertex 1.75824 -1.63477 0
      vertex 1.57056 -0.508703 0
    endloop
  endfacet
  facet normal 0 0 -1
    outer loop
      vertex 2.64724 -1.36807 0
      vertex 2.45957 -1.61501 0
      vertex 1.75824 -1.63477 0
    endloop
  endfacet
  facet normal -0 0 -1
    outer loop
      vertex 1.57056 -0.508703 0
      vertex 1.5113 -0.52846 0
      vertex 1.57056 0.597603 0
    endloop
  endfacet
  facet normal 0 0 -1
    outer loop
      vertex 0.513642 -1.15076 0
      vertex 0.563032 -0.943327 0
      vertex 0.632175 -1.0421 0
    endloop
  endfacet
  facet normal 0 0 -1
    outer loop
      vertex 1.14582 -0.716136 0
      vertex 1.5113 -0.52846 0
      vertex 1.43228 -0.726015 0
    endloop
  endfacet
  facet normal 0 0 -1
    outer loop
      vertex 1.14582 -0.716136 0
      vertex 1.25448 -0.795158 0
      vertex 1.1557 -0.795158 0
    endloop
  endfacet
  facet normal 0 -0 -1
    outer loop
      vertex 0.316088 0.716136 0
      vertex 0.651933 -0.656872 0
      vertex 0.0691431 0.577846 0
    endloop
  endfacet
  facet normal 0 0 -1
    outer loop
      vertex 0.819855 -0.656872 0
      vertex 1.00753 0.82479 0
      vertex 1.16557 0.775405 0
    endloop
  endfacet
  facet normal 0 0 -1
    outer loop
      vertex -0.0296321 -1.14088 0
      vertex -0.138286 -1.03222 0
      vertex -0.0592643 -0.903816 0
    endloop
  endfacet
  facet normal 0 0 -1
    outer loop
      vertex 1.16557 0.775405 0
      vertex 1.26435 0.755647 0
      vertex 1.5113 -0.52846 0
    endloop
  endfacet
  facet normal 0 0 -1
    outer loop
      vertex 1.5113 -0.52846 0
      vertex 1.26435 0.755647 0
      vertex 1.50142 0.646993 0
    endloop
  endfacet
  facet normal 0 0 -1
    outer loop
      vertex 1.57056 0.597603 0
      vertex 3.31893 -0.558093 0
      vertex 1.57056 -0.508703 0
    endloop
  endfacet
  facet normal -0 0 -1
    outer loop
      vertex 1.43228 -0.726015 0
      vertex 1.25448 -0.795158 0
      vertex 1.14582 -0.716136 0
    endloop
  endfacet
  facet normal -0 0 -1
    outer loop
      vertex 1.5113 -0.52846 0
      vertex 0.819855 -0.656872 0
      vertex 1.16557 0.775405 0
    endloop
  endfacet
  facet normal 0 0 -1
    outer loop
      vertex 0.859366 -0.706257 0
      vertex 1.01741 -0.716136 0
      vertex 0.96802 -0.735894 0
    endloop
  endfacet
  facet normal 0 0 -1
    outer loop
      vertex 0.859366 -0.706257 0
      vertex 0.96802 -0.735894 0
      vertex 0.908752 -0.755647 0
    endloop
  endfacet
  facet normal 0 0 -1
    outer loop
      vertex 1.14582 -0.716136 0
      vertex 0.819855 -0.656872 0
      vertex 1.5113 -0.52846 0
    endloop
  endfacet
  facet normal 0 0 -1
    outer loop
      vertex 0.819855 -0.656872 0
      vertex 0.454374 0.745768 0
      vertex 0.691444 0.82479 0
    endloop
  endfacet
  facet normal 0 0 -1
    outer loop
      vertex 0.563032 -0.943327 0
      vertex 0.48401 -0.87418 0
      vertex 0.563032 -0.913691 0
    endloop
  endfacet
  facet normal 0 0 -1
    outer loop
      vertex 0.651933 -0.656872 0
      vertex 0.454374 0.745768 0
      vertex 0.819855 -0.656872 0
    endloop
  endfacet
  facet normal 0 0 -1
    outer loop
      vertex 0.651933 -0.656872 0
      vertex 0.0098745 0.548214 0
      vertex 0.0691431 0.577846 0
    endloop
  endfacet
  facet normal 0 0 -1
    outer loop
      vertex -0.0296321 -1.14088 0
      vertex 0.0691431 -0.854427 0
      vertex 0.118533 -1.3088 0
    endloop
  endfacet
  facet normal 0 0 -1
    outer loop
      vertex 0.0691431 -0.854427 0
      vertex 0.256819 -1.33844 0
      vertex 0.118533 -1.3088 0
    endloop
  endfacet
  facet normal 0 0 -1
    outer loop
      vertex 0.385231 -1.33844 0
      vertex 0.256819 -1.33844 0
      vertex 0.513642 -1.15076 0
    endloop
  endfacet
  facet normal -0 0 -1
    outer loop
      vertex 0.563032 -0.943327 0
      vertex 0.513642 -1.15076 0
      vertex 0.48401 -0.87418 0
    endloop
  endfacet
  facet normal -0 -0 -1
    outer loop
      vertex 0.632175 -0.953202 0
      vertex 0.632175 -1.0421 0
      vertex 0.563032 -0.943327 0
    endloop
  endfacet
  facet normal -0 0 -1
    outer loop
      vertex 0.513642 -1.26929 0
      vertex 0.385231 -1.33844 0
      vertex 0.513642 -1.15076 0
    endloop
  endfacet
  facet normal 0 0 -1
    outer loop
      vertex 0.0098745 0.548214 0
      vertex -0.0987752 -0.735894 0
      vertex -0.0395109 0.538335 0
    endloop
  endfacet
  facet normal -0 0 -1
    outer loop
      vertex 0.513642 -1.15076 0
      vertex 0.256819 -1.33844 0
      vertex 0.0691431 -0.854427 0
    endloop
  endfacet
  facet normal 0 0 -1
    outer loop
      vertex -0.0493854 -0.775405 0
      vertex -0.0987752 -0.735894 0
      vertex 0.118533 -0.785279 0
    endloop
  endfacet
  facet normal 0 0 -1
    outer loop
      vertex -0.177797 -0.735894 0
      vertex -0.227187 -0.686504 0
      vertex -0.0987752 -0.735894 0
    endloop
  endfacet
  facet normal 0 0 -1
    outer loop
      vertex -0.256819 0.498824 0
      vertex -0.177797 0.488949 0
      vertex -0.227187 -0.686504 0
    endloop
  endfacet
  facet normal 0 0 -1
    outer loop
      vertex -0.138286 -1.03222 0
      vertex -0.138286 -0.913691 0
      vertex -0.0592643 -0.903816 0
    endloop
  endfacet
  facet normal 0 0 -1
    outer loop
      vertex -0.316088 0.52846 0
      vertex -0.661807 -0.775405 0
      vertex -0.730955 -0.785279 0
    endloop
  endfacet
  facet normal 0 0 -1
    outer loop
      vertex 0.0691431 -0.854427 0
      vertex -0.0296321 -1.14088 0
      vertex -0.0592643 -0.903816 0
    endloop
  endfacet
  facet normal 0 0 -1
    outer loop
      vertex -0.375352 -0.696383 0
      vertex -0.404988 -0.735894 0
      vertex -0.661807 -0.775405 0
    endloop
  endfacet
  facet normal 0 -0 -1
    outer loop
      vertex 0.118533 -0.785279 0
      vertex 0.48401 -0.87418 0
      vertex 0.0691431 -0.854427 0
    endloop
  endfacet
  facet normal 0 0 -1
    outer loop
      vertex 0.0691431 -0.854427 0
      vertex 0.48401 -0.87418 0
      vertex 0.513642 -1.15076 0
    endloop
  endfacet
  facet normal -0 -0 -1
    outer loop
      vertex 0.48401 -0.844548 0
      vertex 0.48401 -0.87418 0
      vertex 0.118533 -0.785279 0
    endloop
  endfacet
  facet normal 0 -0 -1
    outer loop
      vertex -0.0395109 -0.844548 0
      vertex 0.0691431 -0.854427 0
      vertex -0.0592643 -0.903816 0
    endloop
  endfacet
  facet normal -0 0 -1
    outer loop
      vertex 0.651933 -0.656872 0
      vertex 0.118533 -0.785279 0
      vertex 0.0098745 0.548214 0
    endloop
  endfacet
  facet normal 0 0 -1
    outer loop
      vertex 0.651933 -0.656872 0
      vertex 0.48401 -0.844548 0
      vertex 0.118533 -0.785279 0
    endloop
  endfacet
  facet normal 0 0 -1
    outer loop
      vertex -0.0987752 -0.735894 0
      vertex -0.177797 0.488949 0
      vertex -0.0395109 0.538335 0
    endloop
  endfacet
  facet normal 0 0 -1
    outer loop
      vertex -0.227187 -0.686504 0
      vertex -0.177797 0.488949 0
      vertex -0.0987752 -0.735894 0
    endloop
  endfacet
  facet normal 0 -0 -1
    outer loop
      vertex -0.316088 0.52846 0
      vertex -0.256819 0.498824 0
      vertex -0.375352 -0.696383 0
    endloop
  endfacet
  facet normal 0 0 -1
    outer loop
      vertex -0.375352 -0.696383 0
      vertex -0.256819 0.498824 0
      vertex -0.227187 -0.686504 0
    endloop
  endfacet
  facet normal -0 0 -1
    outer loop
      vertex -0.316088 0.52846 0
      vertex -0.730955 -0.785279 0
      vertex -1.18533 0.814916 0
    endloop
  endfacet
  facet normal -0 0 -1
    outer loop
      vertex -0.730955 -0.785279 0
      vertex -1.08655 -0.82479 0
      vertex -1.18533 0.814916 0
    endloop
  endfacet
  facet normal 0 0 -1
    outer loop
      vertex -1.08655 -0.82479 0
      vertex -1.26435 -0.795158 0
      vertex -1.41252 -0.726015 0
    endloop
  endfacet
  facet normal -0 0 -1
    outer loop
      vertex -0.809976 -0.814916 0
      vertex -1.08655 -0.82479 0
      vertex -0.730955 -0.785279 0
    endloop
  endfacet
  facet normal 0 0 -1
    outer loop
      vertex -1.08655 -0.82479 0
      vertex -1.41252 -0.726015 0
      vertex -1.18533 0.814916 0
    endloop
  endfacet
  facet normal 0 0 -1
    outer loop
      vertex -1.18533 0.814916 0
      vertex -1.41252 -0.726015 0
      vertex -1.64958 -0.538335 0
    endloop
  endfacet
  facet normal 0 0 -1
    outer loop
      vertex -1.64958 -0.538335 0
      vertex -1.52118 -0.726015 0
      vertex -1.58044 -0.706257 0
    endloop
  endfacet
  facet normal 0 0 -1
    outer loop
      vertex -1.41252 -0.726015 0
      vertex -1.52118 -0.726015 0
      vertex -1.64958 -0.538335 0
    endloop
  endfacet
  facet normal 0 0 -1
    outer loop
      vertex -1.64958 -0.538335 0
      vertex -1.58044 -0.706257 0
      vertex -1.61995 -0.686504 0
    endloop
  endfacet
  facet normal 0 0 -1
    outer loop
      vertex -1.64958 -0.538335 0
      vertex -2.33115 0.350659 0
      vertex -1.63971 0.577846 0
    endloop
  endfacet
  facet normal 0 0 -1
    outer loop
      vertex -2.33115 -0.330901 0
      vertex -2.33115 0.350659 0
      vertex -1.64958 -0.538335 0
    endloop
  endfacet
  facet normal 0 0 -1
    outer loop
      vertex -1.18533 0.814916 0
      vertex -1.64958 -0.538335 0
      vertex -1.63971 0.577846 0
    endloop
  endfacet
  facet normal 0 0 -1
    outer loop
      vertex -2.59785 0.587725 0
      vertex -2.33115 0.350659 0
      vertex -2.56822 -0.479071 0
    endloop
  endfacet
  facet normal 0 0 -1
    outer loop
      vertex -2.56822 -0.479071 0
      vertex -2.33115 0.350659 0
      vertex -2.33115 -0.330901 0
    endloop
  endfacet
  facet normal 0 0 -1
    outer loop
      vertex -3.22015 -0.627236 0
      vertex -2.56822 -0.479071 0
      vertex -2.56822 -0.686504 0
    endloop
  endfacet
  facet normal 0 0 -1
    outer loop
      vertex -3.23003 -0.548214 0
      vertex -2.56822 -0.479071 0
      vertex -3.22015 -0.627236 0
    endloop
  endfacet
  facet normal 0 0 -1
    outer loop
      vertex -1.84714 -1.82245 0
      vertex -2.0447 -1.80269 0
      vertex -1.98543 -1.60514 0
    endloop
  endfacet
  facet normal -0 0 -1
    outer loop
      vertex -1.83727 -1.90147 0
      vertex -1.8669 -1.91135 0
      vertex -1.84714 -1.82245 0
    endloop
  endfacet
  facet normal 0 0 -1
    outer loop
      vertex -1.8669 -1.91135 0
      vertex -2.0447 -1.80269 0
      vertex -1.84714 -1.82245 0
    endloop
  endfacet
  facet normal 0 0 -1
    outer loop
      vertex -2.0447 -1.80269 0
      vertex -2.19286 -1.71379 0
      vertex -1.98543 -1.60514 0
    endloop
  endfacet
  facet normal 0 0 -1
    outer loop
      vertex -2.3114 -1.65452 0
      vertex -2.23237 -1.2199 0
      vertex -1.98543 -1.60514 0
    endloop
  endfacet
  facet normal 0 0 -1
    outer loop
      vertex -2.19286 -1.71379 0
      vertex -2.3114 -1.65452 0
      vertex -1.98543 -1.60514 0
    endloop
  endfacet
  facet normal 0 0 -1
    outer loop
      vertex -2.44969 -1.59526 0
      vertex -2.23237 -1.2199 0
      vertex -2.3114 -1.65452 0
    endloop
  endfacet
  facet normal 0 0 -1
    outer loop
      vertex -2.47932 -1.56562 0
      vertex -2.23237 -1.2199 0
      vertex -2.44969 -1.59526 0
    endloop
  endfacet
  facet normal 0 0 -1
    outer loop
      vertex -2.56822 -0.686504 0
      vertex -2.23237 -1.2199 0
      vertex -2.47932 -1.56562 0
    endloop
  endfacet
  facet normal -0 -0 -1
    outer loop
      vertex -2.56822 -0.686504 0
      vertex -2.47932 -1.56562 0
      vertex -3.22015 -0.627236 0
    endloop
  endfacet
  facet normal 0 0 -1
    outer loop
      vertex -3.23003 -0.548214 0
      vertex -3.2893 -0.419802 0
      vertex -2.56822 -0.479071 0
    endloop
  endfacet
  facet normal 0 0 -1
    outer loop
      vertex -3.2893 -0.419802 0
      vertex -3.30905 -0.360538 0
      vertex -2.56822 -0.479071 0
    endloop
  endfacet
  facet normal 0 0 -1
    outer loop
      vertex -2.56822 -0.479071 0
      vertex -3.31893 0.419802 0
      vertex -2.59785 0.587725 0
    endloop
  endfacet
  facet normal 0 0 -1
    outer loop
      vertex -3.31893 0.419802 0
      vertex -3.2893 0.469192 0
      vertex -2.59785 0.587725 0
    endloop
  endfacet
  facet normal 0 0 -1
    outer loop
      vertex -3.2893 0.469192 0
      vertex -3.26954 0.577846 0
      vertex -3.22015 0.637114 0
    endloop
  endfacet
  facet normal 0 0 -1
    outer loop
      vertex -3.22015 0.637114 0
      vertex -3.21028 0.686504 0
      vertex -2.59785 0.587725 0
    endloop
  endfacet
  facet normal 0 0 -1
    outer loop
      vertex -3.2893 0.469192 0
      vertex -3.22015 0.637114 0
      vertex -2.59785 0.587725 0
    endloop
  endfacet
  facet normal 0 -0 -1
    outer loop
      vertex -2.87443 1.10137 0
      vertex -2.58798 0.646993 0
      vertex -3.21028 0.686504 0
    endloop
  endfacet
  facet normal 0 0 -1
    outer loop
      vertex -3.21028 0.686504 0
      vertex -2.58798 0.646993 0
      vertex -2.59785 0.587725 0
    endloop
  endfacet
  facet normal 0 0 -1
    outer loop
      vertex -2.64724 1.38783 0
      vertex -2.52871 1.53599 0
      vertex -2.58798 0.646993 0
    endloop
  endfacet
  facet normal 0 -0 -1
    outer loop
      vertex -2.52871 1.53599 0
      vertex -1.84714 1.83233 0
      vertex -2.58798 0.646993 0
    endloop
  endfacet
  facet normal 0 -0 -1
    outer loop
      vertex -2.47932 1.59526 0
      vertex -1.84714 1.83233 0
      vertex -2.52871 1.53599 0
    endloop
  endfacet
  facet normal 0 -0 -1
    outer loop
      vertex -2.50896 1.56562 0
      vertex -2.47932 1.59526 0
      vertex -2.52871 1.53599 0
    endloop
  endfacet
  facet normal 0 -0 -1
    outer loop
      vertex -1.8669 1.91135 0
      vertex -1.84714 1.83233 0
      vertex -2.45957 1.63477 0
    endloop
  endfacet
  facet normal 0 -0 -1
    outer loop
      vertex -2.45957 1.63477 0
      vertex -1.84714 1.83233 0
      vertex -2.47932 1.59526 0
    endloop
  endfacet
  facet normal 0 0 1
    outer loop
      vertex -1.43228 0.755647 5
      vertex -1.63971 0.686504 5
      vertex -1.63971 0.607482 5
    endloop
  endfacet
  facet normal 0 -0 1
    outer loop
      vertex -1.84714 1.83233 5
      vertex -1.83727 1.87184 5
      vertex -1.8669 1.91135 5
    endloop
  endfacet
  facet normal -0 -0 1
    outer loop
      vertex -3.30905 -0.360538 5
      vertex -2.56822 -0.479071 5
      vertex -3.31893 0.419802 5
    endloop
  endfacet
  facet normal 0 0 1
    outer loop
      vertex -2.64724 1.38783 5
      vertex -2.87443 1.10137 5
      vertex -2.58798 0.646993 5
    endloop
  endfacet
  facet normal -0 0 1
    outer loop
      vertex -3.2893 -0.488949 5
      vertex -3.23003 -0.548214 5
      vertex -3.2893 -0.419802 5
    endloop
  endfacet
  facet normal -0 -0 1
    outer loop
      vertex -1.36313 -0.765526 5
      vertex -1.26435 -0.795158 5
      vertex -1.41252 -0.726015 5
    endloop
  endfacet
  facet normal 0 0 1
    outer loop
      vertex -0.355598 0.587725 5
      vertex -0.671686 0.795158 5
      vertex -0.316088 0.52846 5
    endloop
  endfacet
  facet normal 0 0 1
    outer loop
      vertex -1.26435 0.82479 5
      vertex -1.35326 0.814916 5
      vertex -1.43228 0.755647 5
    endloop
  endfacet
  facet normal 0 -0 1
    outer loop
      vertex -1.63971 0.607482 5
      vertex -1.63971 0.686504 5
      vertex -1.64958 0.646993 5
    endloop
  endfacet
  facet normal 0 0 1
    outer loop
      vertex -0.800098 0.854427 5
      vertex -1.14582 0.834669 5
      vertex -1.18533 0.814916 5
    endloop
  endfacet
  facet normal 0 0 1
    outer loop
      vertex -1.43228 0.755647 5
      vertex -1.62983 0.716136 5
      vertex -1.63971 0.686504 5
    endloop
  endfacet
  facet normal 0 0 1
    outer loop
      vertex -1.63971 0.577846 5
      vertex -1.43228 0.755647 5
      vertex -1.63971 0.607482 5
    endloop
  endfacet
  facet normal 0 0 1
    outer loop
      vertex -0.721076 0.82479 5
      vertex -0.800098 0.854427 5
      vertex -0.671686 0.795158 5
    endloop
  endfacet
  facet normal 0 0 1
    outer loop
      vertex -1.18533 0.814916 5
      vertex -1.26435 0.82479 5
      vertex -1.43228 0.755647 5
    endloop
  endfacet
  facet normal 0 0 1
    outer loop
      vertex -1.63971 0.577846 5
      vertex -1.18533 0.814916 5
      vertex -1.43228 0.755647 5
    endloop
  endfacet
  facet normal 0 0 1
    outer loop
      vertex 3.30905 0.686504 5
      vertex 1.57056 0.597603 5
      vertex 3.31893 -0.558093 5
    endloop
  endfacet
  facet normal 0 0 1
    outer loop
      vertex -1.14582 0.834669 5
      vertex -0.800098 0.854427 5
      vertex -1.13594 0.854427 5
    endloop
  endfacet
  facet normal 0 0 1
    outer loop
      vertex -0.671686 0.795158 5
      vertex -0.800098 0.854427 5
      vertex -1.18533 0.814916 5
    endloop
  endfacet
  facet normal 0 0 1
    outer loop
      vertex -0.474131 0.795158 5
      vertex -0.671686 0.795158 5
      vertex -0.454374 0.765526 5
    endloop
  endfacet
  facet normal 0 0 1
    outer loop
      vertex -0.454374 0.765526 5
      vertex -0.424742 0.726015 5
      vertex -0.43462 0.745768 5
    endloop
  endfacet
  facet normal 0 0 1
    outer loop
      vertex -0.454374 0.765526 5
      vertex -0.671686 0.795158 5
      vertex -0.424742 0.726015 5
    endloop
  endfacet
  facet normal 0 0 1
    outer loop
      vertex -0.424742 0.726015 5
      vertex -0.385231 0.686504 5
      vertex -0.385231 0.706257 5
    endloop
  endfacet
  facet normal 0 0 1
    outer loop
      vertex -0.424742 0.726015 5
      vertex -0.355598 0.587725 5
      vertex -0.385231 0.686504 5
    endloop
  endfacet
  facet normal 0 0 1
    outer loop
      vertex -0.424742 0.726015 5
      vertex -0.671686 0.795158 5
      vertex -0.355598 0.587725 5
    endloop
  endfacet
  facet normal 0 0 1
    outer loop
      vertex -0.671686 0.795158 5
      vertex -1.18533 0.814916 5
      vertex -0.316088 0.52846 5
    endloop
  endfacet
  facet normal 0 0 1
    outer loop
      vertex 0.118533 -0.785279 5
      vertex 0.0098745 0.548214 5
      vertex -0.0987752 -0.735894 5
    endloop
  endfacet
  facet normal 0 0 1
    outer loop
      vertex -0.316088 0.52846 5
      vertex -0.661807 -0.775405 5
      vertex -0.375352 -0.696383 5
    endloop
  endfacet
  facet normal 0 0 1
    outer loop
      vertex 0.118533 -1.3088 5
      vertex -0.0296321 -1.14088 5
      vertex -0.0296321 -1.22978 5
    endloop
  endfacet
  facet normal 0 -0 1
    outer loop
      vertex 0.819855 -0.656872 5
      vertex 1.00753 0.82479 5
      vertex 0.691444 0.82479 5
    endloop
  endfacet
  facet normal -0 0 1
    outer loop
      vertex 1.75824 -1.63477 5
      vertex 2.2225 -1.74343 5
      vertex 2.45957 -1.61501 5
    endloop
  endfacet
  facet normal 0 0 1
    outer loop
      vertex -0.177797 0.488949 5
      vertex -0.0790219 0.548214 5
      vertex -0.138286 0.548214 5
    endloop
  endfacet
  facet normal 0 0 1
    outer loop
      vertex -0.177797 0.488949 5
      vertex -0.0395109 0.538335 5
      vertex -0.0790219 0.548214 5
    endloop
  endfacet
  facet normal 0 0 1
    outer loop
      vertex 1.50142 0.646993 5
      vertex 1.5113 -0.52846 5
      vertex 1.54093 0.617361 5
    endloop
  endfacet
  facet normal 0 0 1
    outer loop
      vertex 0.819855 -0.656872 5
      vertex 0.859366 -0.706257 5
      vertex 1.01741 -0.716136 5
    endloop
  endfacet
  facet normal 0 0 1
    outer loop
      vertex 0.316088 0.716136 5
      vertex 0.118533 0.637114 5
      vertex 0.0691431 0.577846 5
    endloop
  endfacet
  facet normal 0 0 1
    outer loop
      vertex 0.454374 0.745768 5
      vertex 0.316088 0.716136 5
      vertex 0.651933 -0.656872 5
    endloop
  endfacet
  facet normal 0 0 1
    outer loop
      vertex 0.819855 -0.656872 5
      vertex 1.01741 -0.716136 5
      vertex 1.14582 -0.716136 5
    endloop
  endfacet
  facet normal 0 0 1
    outer loop
      vertex 1.54093 0.617361 5
      vertex 1.5113 -0.52846 5
      vertex 1.57056 0.597603 5
    endloop
  endfacet
  facet normal 0 0 1
    outer loop
      vertex 1.50142 0.646993 5
      vertex 1.46191 0.706257 5
      vertex 1.26435 0.755647 5
    endloop
  endfacet
  facet normal -0 0 1
    outer loop
      vertex 1.26435 0.755647 5
      vertex 1.46191 0.706257 5
      vertex 1.39277 0.755647 5
    endloop
  endfacet
  facet normal -0 0 1
    outer loop
      vertex 1.14582 -1.44709 5
      vertex 1.75824 -1.63477 5
      vertex 1.57056 -0.508703 5
    endloop
  endfacet
  facet normal 0 0 1
    outer loop
      vertex 1.14582 -1.44709 5
      vertex 1.21496 -1.52611 5
      vertex 1.75824 -1.63477 5
    endloop
  endfacet
  facet normal 0 0 1
    outer loop
      vertex 2.36079 -1.71379 5
      vertex 2.2225 -1.74343 5
      vertex 2.29164 -1.74343 5
    endloop
  endfacet
  facet normal 0 0 1
    outer loop
      vertex 1.14582 -1.44709 5
      vertex 1.14582 -1.47673 5
      vertex 1.21496 -1.52611 5
    endloop
  endfacet
  facet normal 0 0 1
    outer loop
      vertex 1.57056 -0.508703 5
      vertex 2.9337 -1.01247 5
      vertex 3.31893 -0.558093 5
    endloop
  endfacet
  facet normal 0 -0 1
    outer loop
      vertex 2.64724 -1.36807 5
      vertex 2.9337 -1.01247 5
      vertex 1.57056 -0.508703 5
    endloop
  endfacet
  facet normal 0 0 1
    outer loop
      vertex 1.21496 1.38783 5
      vertex 1.18533 1.60514 5
      vertex 1.14582 1.55575 5
    endloop
  endfacet
  facet normal 0 0 1
    outer loop
      vertex 1.14582 1.55575 5
      vertex 1.18533 1.60514 5
      vertex 1.16557 1.59526 5
    endloop
  endfacet
  facet normal 0 -0 1
    outer loop
      vertex 1.21496 1.38783 5
      vertex 1.69897 1.72367 5
      vertex 1.18533 1.60514 5
    endloop
  endfacet
  facet normal -0 0 1
    outer loop
      vertex 1.21496 1.38783 5
      vertex 1.36313 1.06186 5
      vertex 1.69897 1.72367 5
    endloop
  endfacet
  facet normal -0 0 1
    outer loop
      vertex 1.69897 1.72367 5
      vertex 1.36313 1.06186 5
      vertex 2.06445 1.80269 5
    endloop
  endfacet
  facet normal 0 0 1
    outer loop
      vertex 2.06445 1.80269 5
      vertex 1.36313 1.06186 5
      vertex 1.57056 0.597603 5
    endloop
  endfacet
  facet normal -0 0 1
    outer loop
      vertex 2.25213 1.85208 5
      vertex 2.33115 1.8422 5
      vertex 2.3114 1.85208 5
    endloop
  endfacet
  facet normal 0 0 1
    outer loop
      vertex 2.25213 1.85208 5
      vertex 2.06445 1.80269 5
      vertex 2.33115 1.8422 5
    endloop
  endfacet
  facet normal 0 0 1
    outer loop
      vertex 2.33115 1.8422 5
      vertex 2.06445 1.80269 5
      vertex 1.57056 0.597603 5
    endloop
  endfacet
  facet normal 0 0 1
    outer loop
      vertex 3.30905 0.686504 5
      vertex 2.33115 1.8422 5
      vertex 1.57056 0.597603 5
    endloop
  endfacet
  facet normal 0 0 1
    outer loop
      vertex 2.45957 -1.61501 5
      vertex 2.2225 -1.74343 5
      vertex 2.36079 -1.71379 5
    endloop
  endfacet
  facet normal 0 0 1
    outer loop
      vertex 1.57056 -0.508703 5
      vertex 1.75824 -1.63477 5
      vertex 2.64724 -1.36807 5
    endloop
  endfacet
  facet normal 0 0 1
    outer loop
      vertex 1.75824 -1.63477 5
      vertex 2.45957 -1.61501 5
      vertex 2.64724 -1.36807 5
    endloop
  endfacet
  facet normal 0 0 1
    outer loop
      vertex 1.57056 0.597603 5
      vertex 1.5113 -0.52846 5
      vertex 1.57056 -0.508703 5
    endloop
  endfacet
  facet normal 0 0 1
    outer loop
      vertex 0.632175 -1.0421 5
      vertex 0.563032 -0.943327 5
      vertex 0.513642 -1.15076 5
    endloop
  endfacet
  facet normal 0 -0 1
    outer loop
      vertex 1.43228 -0.726015 5
      vertex 1.5113 -0.52846 5
      vertex 1.14582 -0.716136 5
    endloop
  endfacet
  facet normal 0 -0 1
    outer loop
      vertex 1.1557 -0.795158 5
      vertex 1.25448 -0.795158 5
      vertex 1.14582 -0.716136 5
    endloop
  endfacet
  facet normal -0 0 1
    outer loop
      vertex 0.0691431 0.577846 5
      vertex 0.651933 -0.656872 5
      vertex 0.316088 0.716136 5
    endloop
  endfacet
  facet normal 0 0 1
    outer loop
      vertex 1.16557 0.775405 5
      vertex 1.00753 0.82479 5
      vertex 0.819855 -0.656872 5
    endloop
  endfacet
  facet normal 0 0 1
    outer loop
      vertex -0.0592643 -0.903816 5
      vertex -0.138286 -1.03222 5
      vertex -0.0296321 -1.14088 5
    endloop
  endfacet
  facet normal 0 0 1
    outer loop
      vertex 1.5113 -0.52846 5
      vertex 1.26435 0.755647 5
      vertex 1.16557 0.775405 5
    endloop
  endfacet
  facet normal 0 0 1
    outer loop
      vertex 1.50142 0.646993 5
      vertex 1.26435 0.755647 5
      vertex 1.5113 -0.52846 5
    endloop
  endfacet
  facet normal -0 0 1
    outer loop
      vertex 1.57056 -0.508703 5
      vertex 3.31893 -0.558093 5
      vertex 1.57056 0.597603 5
    endloop
  endfacet
  facet normal 0 0 1
    outer loop
      vertex 1.14582 -0.716136 5
      vertex 1.25448 -0.795158 5
      vertex 1.43228 -0.726015 5
    endloop
  endfacet
  facet normal 0 0 1
    outer loop
      vertex 1.16557 0.775405 5
      vertex 0.819855 -0.656872 5
      vertex 1.5113 -0.52846 5
    endloop
  endfacet
  facet normal 0 -0 1
    outer loop
      vertex 0.96802 -0.735894 5
      vertex 1.01741 -0.716136 5
      vertex 0.859366 -0.706257 5
    endloop
  endfacet
  facet normal 0 -0 1
    outer loop
      vertex 0.908752 -0.755647 5
      vertex 0.96802 -0.735894 5
      vertex 0.859366 -0.706257 5
    endloop
  endfacet
  facet normal 0 0 1
    outer loop
      vertex 1.5113 -0.52846 5
      vertex 0.819855 -0.656872 5
      vertex 1.14582 -0.716136 5
    endloop
  endfacet
  facet normal 0 0 1
    outer loop
      vertex 0.691444 0.82479 5
      vertex 0.454374 0.745768 5
      vertex 0.819855 -0.656872 5
    endloop
  endfacet
  facet normal 0 0 1
    outer loop
      vertex 0.563032 -0.913691 5
      vertex 0.48401 -0.87418 5
      vertex 0.563032 -0.943327 5
    endloop
  endfacet
  facet normal 0 0 1
    outer loop
      vertex 0.819855 -0.656872 5
      vertex 0.454374 0.745768 5
      vertex 0.651933 -0.656872 5
    endloop
  endfacet
  facet normal 0 0 1
    outer loop
      vertex 0.0691431 0.577846 5
      vertex 0.0098745 0.548214 5
      vertex 0.651933 -0.656872 5
    endloop
  endfacet
  facet normal 0 0 1
    outer loop
      vertex 0.118533 -1.3088 5
      vertex 0.0691431 -0.854427 5
      vertex -0.0296321 -1.14088 5
    endloop
  endfacet
  facet normal -0 -0 1
    outer loop
      vertex 0.118533 -1.3088 5
      vertex 0.256819 -1.33844 5
      vertex 0.0691431 -0.854427 5
    endloop
  endfacet
  facet normal 0 0 1
    outer loop
      vertex 0.513642 -1.15076 5
      vertex 0.256819 -1.33844 5
      vertex 0.385231 -1.33844 5
    endloop
  endfacet
  facet normal 0 0 1
    outer loop
      vertex 0.48401 -0.87418 5
      vertex 0.513642 -1.15076 5
      vertex 0.563032 -0.943327 5
    endloop
  endfacet
  facet normal 0 0 1
    outer loop
      vertex 0.563032 -0.943327 5
      vertex 0.632175 -1.0421 5
      vertex 0.632175 -0.953202 5
    endloop
  endfacet
  facet normal 0 0 1
    outer loop
      vertex 0.513642 -1.15076 5
      vertex 0.385231 -1.33844 5
      vertex 0.513642 -1.26929 5
    endloop
  endfacet
  facet normal -0 0 1
    outer loop
      vertex -0.0395109 0.538335 5
      vertex -0.0987752 -0.735894 5
      vertex 0.0098745 0.548214 5
    endloop
  endfacet
  facet normal 0 0 1
    outer loop
      vertex 0.0691431 -0.854427 5
      vertex 0.256819 -1.33844 5
      vertex 0.513642 -1.15076 5
    endloop
  endfacet
  facet normal 0 0 1
    outer loop
      vertex 0.118533 -0.785279 5
      vertex -0.0987752 -0.735894 5
      vertex -0.0493854 -0.775405 5
    endloop
  endfacet
  facet normal 0 0 1
    outer loop
      vertex -0.0987752 -0.735894 5
      vertex -0.227187 -0.686504 5
      vertex -0.177797 -0.735894 5
    endloop
  endfacet
  facet normal 0 -0 1
    outer loop
      vertex -0.227187 -0.686504 5
      vertex -0.177797 0.488949 5
      vertex -0.256819 0.498824 5
    endloop
  endfacet
  facet normal 0 0 1
    outer loop
      vertex -0.0592643 -0.903816 5
      vertex -0.138286 -0.913691 5
      vertex -0.138286 -1.03222 5
    endloop
  endfacet
  facet normal 0 0 1
    outer loop
      vertex -0.730955 -0.785279 5
      vertex -0.661807 -0.775405 5
      vertex -0.316088 0.52846 5
    endloop
  endfacet
  facet normal -0 0 1
    outer loop
      vertex -0.0592643 -0.903816 5
      vertex -0.0296321 -1.14088 5
      vertex 0.0691431 -0.854427 5
    endloop
  endfacet
  facet normal 0 0 1
    outer loop
      vertex -0.661807 -0.775405 5
      vertex -0.404988 -0.735894 5
      vertex -0.375352 -0.696383 5
    endloop
  endfacet
  facet normal -0 0 1
    outer loop
      vertex 0.0691431 -0.854427 5
      vertex 0.48401 -0.87418 5
      vertex 0.118533 -0.785279 5
    endloop
  endfacet
  facet normal 0 0 1
    outer loop
      vertex 0.513642 -1.15076 5
      vertex 0.48401 -0.87418 5
      vertex 0.0691431 -0.854427 5
    endloop
  endfacet
  facet normal 0 0 1
    outer loop
      vertex 0.118533 -0.785279 5
      vertex 0.48401 -0.87418 5
      vertex 0.48401 -0.844548 5
    endloop
  endfacet
  facet normal 0 0 1
    outer loop
      vertex -0.0592643 -0.903816 5
      vertex 0.0691431 -0.854427 5
      vertex -0.0395109 -0.844548 5
    endloop
  endfacet
  facet normal 0 0 1
    outer loop
      vertex 0.0098745 0.548214 5
      vertex 0.118533 -0.785279 5
      vertex 0.651933 -0.656872 5
    endloop
  endfacet
  facet normal -0 0 1
    outer loop
      vertex 0.118533 -0.785279 5
      vertex 0.48401 -0.844548 5
      vertex 0.651933 -0.656872 5
    endloop
  endfacet
  facet normal 0 0 1
    outer loop
      vertex -0.0395109 0.538335 5
      vertex -0.177797 0.488949 5
      vertex -0.0987752 -0.735894 5
    endloop
  endfacet
  facet normal 0 0 1
    outer loop
      vertex -0.0987752 -0.735894 5
      vertex -0.177797 0.488949 5
      vertex -0.227187 -0.686504 5
    endloop
  endfacet
  facet normal 0 0 1
    outer loop
      vertex -0.375352 -0.696383 5
      vertex -0.256819 0.498824 5
      vertex -0.316088 0.52846 5
    endloop
  endfacet
  facet normal 0 0 1
    outer loop
      vertex -0.227187 -0.686504 5
      vertex -0.256819 0.498824 5
      vertex -0.375352 -0.696383 5
    endloop
  endfacet
  facet normal 0 0 1
    outer loop
      vertex -1.18533 0.814916 5
      vertex -0.730955 -0.785279 5
      vertex -0.316088 0.52846 5
    endloop
  endfacet
  facet normal 0 0 1
    outer loop
      vertex -1.18533 0.814916 5
      vertex -1.08655 -0.82479 5
      vertex -0.730955 -0.785279 5
    endloop
  endfacet
  facet normal 0 0 1
    outer loop
      vertex -1.41252 -0.726015 5
      vertex -1.26435 -0.795158 5
      vertex -1.08655 -0.82479 5
    endloop
  endfacet
  facet normal 0 0 1
    outer loop
      vertex -0.730955 -0.785279 5
      vertex -1.08655 -0.82479 5
      vertex -0.809976 -0.814916 5
    endloop
  endfacet
  facet normal 0 0 1
    outer loop
      vertex -1.18533 0.814916 5
      vertex -1.41252 -0.726015 5
      vertex -1.08655 -0.82479 5
    endloop
  endfacet
  facet normal -0 0 1
    outer loop
      vertex -1.64958 -0.538335 5
      vertex -1.41252 -0.726015 5
      vertex -1.18533 0.814916 5
    endloop
  endfacet
  facet normal -0 -0 1
    outer loop
      vertex -1.58044 -0.706257 5
      vertex -1.52118 -0.726015 5
      vertex -1.64958 -0.538335 5
    endloop
  endfacet
  facet normal 0 0 1
    outer loop
      vertex -1.64958 -0.538335 5
      vertex -1.52118 -0.726015 5
      vertex -1.41252 -0.726015 5
    endloop
  endfacet
  facet normal -0 -0 1
    outer loop
      vertex -1.61995 -0.686504 5
      vertex -1.58044 -0.706257 5
      vertex -1.64958 -0.538335 5
    endloop
  endfacet
  facet normal 0 0 1
    outer loop
      vertex -1.63971 0.577846 5
      vertex -2.33115 0.350659 5
      vertex -1.64958 -0.538335 5
    endloop
  endfacet
  facet normal 0 0 1
    outer loop
      vertex -1.64958 -0.538335 5
      vertex -2.33115 0.350659 5
      vertex -2.33115 -0.330901 5
    endloop
  endfacet
  facet normal -0 0 1
    outer loop
      vertex -1.63971 0.577846 5
      vertex -1.64958 -0.538335 5
      vertex -1.18533 0.814916 5
    endloop
  endfacet
  facet normal 0 -0 1
    outer loop
      vertex -2.56822 -0.479071 5
      vertex -2.33115 0.350659 5
      vertex -2.59785 0.587725 5
    endloop
  endfacet
  facet normal 0 -0 1
    outer loop
      vertex -2.33115 -0.330901 5
      vertex -2.33115 0.350659 5
      vertex -2.56822 -0.479071 5
    endloop
  endfacet
  facet normal 0 -0 1
    outer loop
      vertex -2.56822 -0.686504 5
      vertex -2.56822 -0.479071 5
      vertex -3.22015 -0.627236 5
    endloop
  endfacet
  facet normal 0 -0 1
    outer loop
      vertex -3.22015 -0.627236 5
      vertex -2.56822 -0.479071 5
      vertex -3.23003 -0.548214 5
    endloop
  endfacet
  facet normal 0 0 1
    outer loop
      vertex -1.98543 -1.60514 5
      vertex -2.0447 -1.80269 5
      vertex -1.84714 -1.82245 5
    endloop
  endfacet
  facet normal 0 0 1
    outer loop
      vertex -1.84714 -1.82245 5
      vertex -1.8669 -1.91135 5
      vertex -1.83727 -1.90147 5
    endloop
  endfacet
  facet normal 0 0 1
    outer loop
      vertex -1.84714 -1.82245 5
      vertex -2.0447 -1.80269 5
      vertex -1.8669 -1.91135 5
    endloop
  endfacet
  facet normal 0 0 1
    outer loop
      vertex -1.98543 -1.60514 5
      vertex -2.19286 -1.71379 5
      vertex -2.0447 -1.80269 5
    endloop
  endfacet
  facet normal 0 0 1
    outer loop
      vertex -1.98543 -1.60514 5
      vertex -2.23237 -1.2199 5
      vertex -2.3114 -1.65452 5
    endloop
  endfacet
  facet normal 0 0 1
    outer loop
      vertex -1.98543 -1.60514 5
      vertex -2.3114 -1.65452 5
      vertex -2.19286 -1.71379 5
    endloop
  endfacet
  facet normal 0 -0 1
    outer loop
      vertex -2.3114 -1.65452 5
      vertex -2.23237 -1.2199 5
      vertex -2.44969 -1.59526 5
    endloop
  endfacet
  facet normal 0 -0 1
    outer loop
      vertex -2.44969 -1.59526 5
      vertex -2.23237 -1.2199 5
      vertex -2.47932 -1.56562 5
    endloop
  endfacet
  facet normal 0 -0 1
    outer loop
      vertex -2.47932 -1.56562 5
      vertex -2.23237 -1.2199 5
      vertex -2.56822 -0.686504 5
    endloop
  endfacet
  facet normal 0 0 1
    outer loop
      vertex -3.22015 -0.627236 5
      vertex -2.47932 -1.56562 5
      vertex -2.56822 -0.686504 5
    endloop
  endfacet
  facet normal 0 0 1
    outer loop
      vertex -2.56822 -0.479071 5
      vertex -3.2893 -0.419802 5
      vertex -3.23003 -0.548214 5
    endloop
  endfacet
  facet normal 0 0 1
    outer loop
      vertex -2.56822 -0.479071 5
      vertex -3.30905 -0.360538 5
      vertex -3.2893 -0.419802 5
    endloop
  endfacet
  facet normal 0 0 1
    outer loop
      vertex -2.59785 0.587725 5
      vertex -3.31893 0.419802 5
      vertex -2.56822 -0.479071 5
    endloop
  endfacet
  facet normal 0 0 1
    outer loop
      vertex -2.59785 0.587725 5
      vertex -3.2893 0.469192 5
      vertex -3.31893 0.419802 5
    endloop
  endfacet
  facet normal 0 0 1
    outer loop
      vertex -3.22015 0.637114 5
      vertex -3.26954 0.577846 5
      vertex -3.2893 0.469192 5
    endloop
  endfacet
  facet normal 0 0 1
    outer loop
      vertex -2.59785 0.587725 5
      vertex -3.21028 0.686504 5
      vertex -3.22015 0.637114 5
    endloop
  endfacet
  facet normal 0 0 1
    outer loop
      vertex -2.59785 0.587725 5
      vertex -3.22015 0.637114 5
      vertex -3.2893 0.469192 5
    endloop
  endfacet
  facet normal -0 0 1
    outer loop
      vertex -3.21028 0.686504 5
      vertex -2.58798 0.646993 5
      vertex -2.87443 1.10137 5
    endloop
  endfacet
  facet normal 0 -0 1
    outer loop
      vertex -2.59785 0.587725 5
      vertex -2.58798 0.646993 5
      vertex -3.21028 0.686504 5
    endloop
  endfacet
  facet normal 0 -0 1
    outer loop
      vertex -2.58798 0.646993 5
      vertex -2.52871 1.53599 5
      vertex -2.64724 1.38783 5
    endloop
  endfacet
  facet normal 0 0 1
    outer loop
      vertex -2.58798 0.646993 5
      vertex -1.84714 1.83233 5
      vertex -2.52871 1.53599 5
    endloop
  endfacet
  facet normal 0 0 1
    outer loop
      vertex -2.52871 1.53599 5
      vertex -1.84714 1.83233 5
      vertex -2.47932 1.59526 5
    endloop
  endfacet
  facet normal 0 0 1
    outer loop
      vertex -2.52871 1.53599 5
      vertex -2.47932 1.59526 5
      vertex -2.50896 1.56562 5
    endloop
  endfacet
  facet normal 0 0 1
    outer loop
      vertex -2.45957 1.63477 5
      vertex -1.84714 1.83233 5
      vertex -1.8669 1.91135 5
    endloop
  endfacet
  facet normal 0 0 1
    outer loop
      vertex -2.47932 1.59526 5
      vertex -1.84714 1.83233 5
      vertex -2.45957 1.63477 5
    endloop
  endfacet
  facet normal 0.970136 -0.242561 0
    outer loop
      vertex -1.83727 1.87184 0
      vertex -1.83727 1.87184 5
      vertex -1.84714 1.83233 0
    endloop
  endfacet
  facet normal 0.970136 -0.242561 0
    outer loop
      vertex -1.83727 1.87184 5
      vertex -1.84714 1.83233 5
      vertex -1.84714 1.83233 0
    endloop
  endfacet
  facet normal 0.847998 -0.529999 0
    outer loop
      vertex -1.84714 1.83233 0
      vertex -1.84714 1.83233 5
      vertex -2.58798 0.646993 0
    endloop
  endfacet
  facet normal 0.847998 -0.529999 0
    outer loop
      vertex -1.84714 1.83233 5
      vertex -2.58798 0.646993 5
      vertex -2.58798 0.646993 0
    endloop
  endfacet
  facet normal 0.986404 -0.164341 0
    outer loop
      vertex -2.58798 0.646993 0
      vertex -2.58798 0.646993 5
      vertex -2.59785 0.587725 0
    endloop
  endfacet
  facet normal 0.986404 -0.164341 0
    outer loop
      vertex -2.58798 0.646993 5
      vertex -2.59785 0.587725 5
      vertex -2.59785 0.587725 0
    endloop
  endfacet
  facet normal 0.664365 0.747408 -0
    outer loop
      vertex -2.59785 0.587725 0
      vertex -2.59785 0.587725 5
      vertex -2.33115 0.350659 0
    endloop
  endfacet
  facet normal 0.664365 0.747408 0
    outer loop
      vertex -2.59785 0.587725 5
      vertex -2.33115 0.350659 5
      vertex -2.33115 0.350659 0
    endloop
  endfacet
  facet normal -0.312151 0.950032 0
    outer loop
      vertex -2.33115 0.350659 0
      vertex -2.33115 0.350659 5
      vertex -1.63971 0.577846 0
    endloop
  endfacet
  facet normal -0.312151 0.950032 0
    outer loop
      vertex -2.33115 0.350659 5
      vertex -1.63971 0.577846 5
      vertex -1.63971 0.577846 0
    endloop
  endfacet
  facet normal -1 0 0
    outer loop
      vertex -1.63971 0.577846 0
      vertex -1.63971 0.577846 5
      vertex -1.63971 0.607482 0
    endloop
  endfacet
  facet normal -1 0 0
    outer loop
      vertex -1.63971 0.577846 5
      vertex -1.63971 0.607482 5
      vertex -1.63971 0.607482 0
    endloop
  endfacet
  facet normal -0.970161 -0.242461 0
    outer loop
      vertex -1.63971 0.607482 0
      vertex -1.63971 0.607482 5
      vertex -1.64958 0.646993 0
    endloop
  endfacet
  facet normal -0.970161 -0.242461 0
    outer loop
      vertex -1.63971 0.607482 5
      vertex -1.64958 0.646993 5
      vertex -1.64958 0.646993 0
    endloop
  endfacet
  facet normal -0.970161 0.242461 0
    outer loop
      vertex -1.64958 0.646993 0
      vertex -1.64958 0.646993 5
      vertex -1.63971 0.686504 0
    endloop
  endfacet
  facet normal -0.970161 0.242461 0
    outer loop
      vertex -1.64958 0.646993 5
      vertex -1.63971 0.686504 5
      vertex -1.63971 0.686504 0
    endloop
  endfacet
  facet normal -0.94867 0.316269 0
    outer loop
      vertex -1.63971 0.686504 0
      vertex -1.63971 0.686504 5
      vertex -1.62983 0.716136 0
    endloop
  endfacet
  facet normal -0.94867 0.316269 0
    outer loop
      vertex -1.63971 0.686504 5
      vertex -1.62983 0.716136 5
      vertex -1.62983 0.716136 0
    endloop
  endfacet
  facet normal -0.196116 0.980581 0
    outer loop
      vertex -1.62983 0.716136 0
      vertex -1.62983 0.716136 5
      vertex -1.43228 0.755647 0
    endloop
  endfacet
  facet normal -0.196116 0.980581 0
    outer loop
      vertex -1.62983 0.716136 5
      vertex -1.43228 0.755647 5
      vertex -1.43228 0.755647 0
    endloop
  endfacet
  facet normal -0.600014 0.79999 0
    outer loop
      vertex -1.43228 0.755647 0
      vertex -1.43228 0.755647 5
      vertex -1.35326 0.814916 0
    endloop
  endfacet
  facet normal -0.600014 0.79999 0
    outer loop
      vertex -1.43228 0.755647 5
      vertex -1.35326 0.814916 5
      vertex -1.35326 0.814916 0
    endloop
  endfacet
  facet normal -0.110395 0.993888 0
    outer loop
      vertex -1.35326 0.814916 0
      vertex -1.35326 0.814916 5
      vertex -1.26435 0.82479 0
    endloop
  endfacet
  facet normal -0.110395 0.993888 0
    outer loop
      vertex -1.35326 0.814916 5
      vertex -1.26435 0.82479 5
      vertex -1.26435 0.82479 0
    endloop
  endfacet
  facet normal 0.123995 0.992283 -0
    outer loop
      vertex -1.26435 0.82479 0
      vertex -1.26435 0.82479 5
      vertex -1.18533 0.814916 0
    endloop
  endfacet
  facet normal 0.123995 0.992283 0
    outer loop
      vertex -1.26435 0.82479 5
      vertex -1.18533 0.814916 5
      vertex -1.18533 0.814916 0
    endloop
  endfacet
  facet normal -0.447175 0.894447 0
    outer loop
      vertex -1.18533 0.814916 0
      vertex -1.18533 0.814916 5
      vertex -1.14582 0.834669 0
    endloop
  endfacet
  facet normal -0.447175 0.894447 0
    outer loop
      vertex -1.18533 0.814916 5
      vertex -1.14582 0.834669 5
      vertex -1.14582 0.834669 0
    endloop
  endfacet
  facet normal -0.894427 0.447214 0
    outer loop
      vertex -1.14582 0.834669 0
      vertex -1.14582 0.834669 5
      vertex -1.13594 0.854427 0
    endloop
  endfacet
  facet normal -0.894427 0.447214 0
    outer loop
      vertex -1.14582 0.834669 5
      vertex -1.13594 0.854427 5
      vertex -1.13594 0.854427 0
    endloop
  endfacet
  facet normal 0 1 0
    outer loop
      vertex -1.13594 0.854427 0
      vertex -1.13594 0.854427 5
      vertex -0.800098 0.854427 0
    endloop
  endfacet
  facet normal -0 1 0
    outer loop
      vertex -1.13594 0.854427 5
      vertex -0.800098 0.854427 5
      vertex -0.800098 0.854427 0
    endloop
  endfacet
  facet normal 0.351157 0.936317 -0
    outer loop
      vertex -0.800098 0.854427 0
      vertex -0.800098 0.854427 5
      vertex -0.721076 0.82479 0
    endloop
  endfacet
  facet normal 0.351157 0.936317 0
    outer loop
      vertex -0.800098 0.854427 5
      vertex -0.721076 0.82479 5
      vertex -0.721076 0.82479 0
    endloop
  endfacet
  facet normal 0.514474 0.857506 -0
    outer loop
      vertex -0.721076 0.82479 0
      vertex -0.721076 0.82479 5
      vertex -0.671686 0.795158 0
    endloop
  endfacet
  facet normal 0.514474 0.857506 0
    outer loop
      vertex -0.721076 0.82479 5
      vertex -0.671686 0.795158 5
      vertex -0.671686 0.795158 0
    endloop
  endfacet
  facet normal 0 1 0
    outer loop
      vertex -0.671686 0.795158 0
      vertex -0.671686 0.795158 5
      vertex -0.474131 0.795158 0
    endloop
  endfacet
  facet normal -0 1 0
    outer loop
      vertex -0.671686 0.795158 5
      vertex -0.474131 0.795158 5
      vertex -0.474131 0.795158 0
    endloop
  endfacet
  facet normal 0.832013 0.554756 -0
    outer loop
      vertex -0.474131 0.795158 0
      vertex -0.474131 0.795158 5
      vertex -0.454374 0.765526 0
    endloop
  endfacet
  facet normal 0.832013 0.554756 0
    outer loop
      vertex -0.474131 0.795158 5
      vertex -0.454374 0.765526 5
      vertex -0.454374 0.765526 0
    endloop
  endfacet
  facet normal 0.707184 0.70703 -0
    outer loop
      vertex -0.454374 0.765526 0
      vertex -0.454374 0.765526 5
      vertex -0.43462 0.745768 0
    endloop
  endfacet
  facet normal 0.707184 0.70703 0
    outer loop
      vertex -0.454374 0.765526 5
      vertex -0.43462 0.745768 5
      vertex -0.43462 0.745768 0
    endloop
  endfacet
  facet normal 0.894388 0.447292 -0
    outer loop
      vertex -0.43462 0.745768 0
      vertex -0.43462 0.745768 5
      vertex -0.424742 0.726015 0
    endloop
  endfacet
  facet normal 0.894388 0.447292 0
    outer loop
      vertex -0.43462 0.745768 5
      vertex -0.424742 0.726015 5
      vertex -0.424742 0.726015 0
    endloop
  endfacet
  facet normal 0.447253 0.894408 -0
    outer loop
      vertex -0.424742 0.726015 0
      vertex -0.424742 0.726015 5
      vertex -0.385231 0.706257 0
    endloop
  endfacet
  facet normal 0.447253 0.894408 0
    outer loop
      vertex -0.424742 0.726015 5
      vertex -0.385231 0.706257 5
      vertex -0.385231 0.706257 0
    endloop
  endfacet
  facet normal 1 0 -0
    outer loop
      vertex -0.385231 0.706257 0
      vertex -0.385231 0.706257 5
      vertex -0.385231 0.686504 0
    endloop
  endfacet
  facet normal 1 0 0
    outer loop
      vertex -0.385231 0.706257 5
      vertex -0.385231 0.686504 5
      vertex -0.385231 0.686504 0
    endloop
  endfacet
  facet normal 0.957831 0.287333 -0
    outer loop
      vertex -0.385231 0.686504 0
      vertex -0.385231 0.686504 5
      vertex -0.355598 0.587725 0
    endloop
  endfacet
  facet normal 0.957831 0.287333 0
    outer loop
      vertex -0.385231 0.686504 5
      vertex -0.355598 0.587725 5
      vertex -0.355598 0.587725 0
    endloop
  endfacet
  facet normal 0.832041 0.554714 -0
    outer loop
      vertex -0.355598 0.587725 0
      vertex -0.355598 0.587725 5
      vertex -0.316088 0.52846 0
    endloop
  endfacet
  facet normal 0.832041 0.554714 0
    outer loop
      vertex -0.355598 0.587725 5
      vertex -0.316088 0.52846 5
      vertex -0.316088 0.52846 0
    endloop
  endfacet
  facet normal 0.44724 0.894414 -0
    outer loop
      vertex -0.316088 0.52846 0
      vertex -0.316088 0.52846 5
      vertex -0.256819 0.498824 0
    endloop
  endfacet
  facet normal 0.44724 0.894414 0
    outer loop
      vertex -0.316088 0.52846 5
      vertex -0.256819 0.498824 5
      vertex -0.256819 0.498824 0
    endloop
  endfacet
  facet normal 0.123995 0.992283 -0
    outer loop
      vertex -0.256819 0.498824 0
      vertex -0.256819 0.498824 5
      vertex -0.177797 0.488949 0
    endloop
  endfacet
  facet normal 0.123995 0.992283 0
    outer loop
      vertex -0.256819 0.498824 5
      vertex -0.177797 0.488949 5
      vertex -0.177797 0.488949 0
    endloop
  endfacet
  facet normal -0.832041 0.554714 0
    outer loop
      vertex -0.177797 0.488949 0
      vertex -0.177797 0.488949 5
      vertex -0.138286 0.548214 0
    endloop
  endfacet
  facet normal -0.832041 0.554714 0
    outer loop
      vertex -0.177797 0.488949 5
      vertex -0.138286 0.548214 5
      vertex -0.138286 0.548214 0
    endloop
  endfacet
  facet normal 0 1 0
    outer loop
      vertex -0.138286 0.548214 0
      vertex -0.138286 0.548214 5
      vertex -0.0790219 0.548214 0
    endloop
  endfacet
  facet normal -0 1 0
    outer loop
      vertex -0.138286 0.548214 5
      vertex -0.0790219 0.548214 5
      vertex -0.0790219 0.548214 0
    endloop
  endfacet
  facet normal 0.242561 0.970136 -0
    outer loop
      vertex -0.0790219 0.548214 0
      vertex -0.0790219 0.548214 5
      vertex -0.0395109 0.538335 0
    endloop
  endfacet
  facet normal 0.242561 0.970136 0
    outer loop
      vertex -0.0790219 0.548214 5
      vertex -0.0395109 0.538335 5
      vertex -0.0395109 0.538335 0
    endloop
  endfacet
  facet normal -0.196149 0.980574 0
    outer loop
      vertex -0.0395109 0.538335 0
      vertex -0.0395109 0.538335 5
      vertex 0.0098745 0.548214 0
    endloop
  endfacet
  facet normal -0.196149 0.980574 0
    outer loop
      vertex -0.0395109 0.538335 5
      vertex 0.0098745 0.548214 5
      vertex 0.0098745 0.548214 0
    endloop
  endfacet
  facet normal -0.447188 0.89444 0
    outer loop
      vertex 0.0098745 0.548214 0
      vertex 0.0098745 0.548214 5
      vertex 0.0691431 0.577846 0
    endloop
  endfacet
  facet normal -0.447188 0.89444 0
    outer loop
      vertex 0.0098745 0.548214 5
      vertex 0.0691431 0.577846 5
      vertex 0.0691431 0.577846 0
    endloop
  endfacet
  facet normal -0.768226 0.640179 0
    outer loop
      vertex 0.0691431 0.577846 0
      vertex 0.0691431 0.577846 5
      vertex 0.118533 0.637114 0
    endloop
  endfacet
  facet normal -0.768226 0.640179 0
    outer loop
      vertex 0.0691431 0.577846 5
      vertex 0.118533 0.637114 5
      vertex 0.118533 0.637114 0
    endloop
  endfacet
  facet normal -0.371391 0.928477 0
    outer loop
      vertex 0.118533 0.637114 0
      vertex 0.118533 0.637114 5
      vertex 0.316088 0.716136 0
    endloop
  endfacet
  facet normal -0.371391 0.928477 0
    outer loop
      vertex 0.118533 0.637114 5
      vertex 0.316088 0.716136 5
      vertex 0.316088 0.716136 0
    endloop
  endfacet
  facet normal -0.209525 0.977803 0
    outer loop
      vertex 0.316088 0.716136 0
      vertex 0.316088 0.716136 5
      vertex 0.454374 0.745768 0
    endloop
  endfacet
  facet normal -0.209525 0.977803 0
    outer loop
      vertex 0.316088 0.716136 5
      vertex 0.454374 0.745768 5
      vertex 0.454374 0.745768 0
    endloop
  endfacet
  facet normal -0.316223 0.948685 0
    outer loop
      vertex 0.454374 0.745768 0
      vertex 0.454374 0.745768 5
      vertex 0.691444 0.82479 0
    endloop
  endfacet
  facet normal -0.316223 0.948685 0
    outer loop
      vertex 0.454374 0.745768 5
      vertex 0.691444 0.82479 5
      vertex 0.691444 0.82479 0
    endloop
  endfacet
  facet normal 0 1 0
    outer loop
      vertex 0.691444 0.82479 0
      vertex 0.691444 0.82479 5
      vertex 1.00753 0.82479 0
    endloop
  endfacet
  facet normal -0 1 0
    outer loop
      vertex 0.691444 0.82479 5
      vertex 1.00753 0.82479 5
      vertex 1.00753 0.82479 0
    endloop
  endfacet
  facet normal 0.298257 0.954486 -0
    outer loop
      vertex 1.00753 0.82479 0
      vertex 1.00753 0.82479 5
      vertex 1.16557 0.775405 0
    endloop
  endfacet
  facet normal 0.298257 0.954486 0
    outer loop
      vertex 1.00753 0.82479 5
      vertex 1.16557 0.775405 5
      vertex 1.16557 0.775405 0
    endloop
  endfacet
  facet normal 0.196133 0.980577 -0
    outer loop
      vertex 1.16557 0.775405 0
      vertex 1.16557 0.775405 5
      vertex 1.26435 0.755647 0
    endloop
  endfacet
  facet normal 0.196133 0.980577 0
    outer loop
      vertex 1.16557 0.775405 5
      vertex 1.26435 0.755647 5
      vertex 1.26435 0.755647 0
    endloop
  endfacet
  facet normal 0 1 0
    outer loop
      vertex 1.26435 0.755647 0
      vertex 1.26435 0.755647 5
      vertex 1.39277 0.755647 0
    endloop
  endfacet
  facet normal -0 1 0
    outer loop
      vertex 1.26435 0.755647 5
      vertex 1.39277 0.755647 5
      vertex 1.39277 0.755647 0
    endloop
  endfacet
  facet normal 0.581253 0.813723 -0
    outer loop
      vertex 1.39277 0.755647 0
      vertex 1.39277 0.755647 5
      vertex 1.46191 0.706257 0
    endloop
  endfacet
  facet normal 0.581253 0.813723 0
    outer loop
      vertex 1.39277 0.755647 5
      vertex 1.46191 0.706257 5
      vertex 1.46191 0.706257 0
    endloop
  endfacet
  facet normal 0.832041 0.554714 -0
    outer loop
      vertex 1.46191 0.706257 0
      vertex 1.46191 0.706257 5
      vertex 1.50142 0.646993 0
    endloop
  endfacet
  facet normal 0.832041 0.554714 0
    outer loop
      vertex 1.46191 0.706257 5
      vertex 1.50142 0.646993 5
      vertex 1.50142 0.646993 0
    endloop
  endfacet
  facet normal 0.599986 0.80001 -0
    outer loop
      vertex 1.50142 0.646993 0
      vertex 1.50142 0.646993 5
      vertex 1.54093 0.617361 0
    endloop
  endfacet
  facet normal 0.599986 0.80001 0
    outer loop
      vertex 1.50142 0.646993 5
      vertex 1.54093 0.617361 5
      vertex 1.54093 0.617361 0
    endloop
  endfacet
  facet normal 0.554756 0.832013 -0
    outer loop
      vertex 1.54093 0.617361 0
      vertex 1.54093 0.617361 5
      vertex 1.57056 0.597603 0
    endloop
  endfacet
  facet normal 0.554756 0.832013 0
    outer loop
      vertex 1.54093 0.617361 5
      vertex 1.57056 0.597603 5
      vertex 1.57056 0.597603 0
    endloop
  endfacet
  facet normal -0.913009 -0.407939 0
    outer loop
      vertex 1.57056 0.597603 0
      vertex 1.57056 0.597603 5
      vertex 1.36313 1.06186 0
    endloop
  endfacet
  facet normal -0.913009 -0.407939 0
    outer loop
      vertex 1.57056 0.597603 5
      vertex 1.36313 1.06186 5
      vertex 1.36313 1.06186 0
    endloop
  endfacet
  facet normal -0.910368 -0.413799 0
    outer loop
      vertex 1.36313 1.06186 0
      vertex 1.36313 1.06186 5
      vertex 1.21496 1.38783 0
    endloop
  endfacet
  facet normal -0.910368 -0.413799 0
    outer loop
      vertex 1.36313 1.06186 5
      vertex 1.21496 1.38783 5
      vertex 1.21496 1.38783 0
    endloop
  endfacet
  facet normal -0.924681 -0.380743 0
    outer loop
      vertex 1.21496 1.38783 0
      vertex 1.21496 1.38783 5
      vertex 1.14582 1.55575 0
    endloop
  endfacet
  facet normal -0.924681 -0.380743 0
    outer loop
      vertex 1.21496 1.38783 5
      vertex 1.14582 1.55575 5
      vertex 1.14582 1.55575 0
    endloop
  endfacet
  facet normal -0.894447 0.447175 0
    outer loop
      vertex 1.14582 1.55575 0
      vertex 1.14582 1.55575 5
      vertex 1.16557 1.59526 0
    endloop
  endfacet
  facet normal -0.894447 0.447175 0
    outer loop
      vertex 1.14582 1.55575 5
      vertex 1.16557 1.59526 5
      vertex 1.16557 1.59526 0
    endloop
  endfacet
  facet normal -0.447214 0.894427 0
    outer loop
      vertex 1.16557 1.59526 0
      vertex 1.16557 1.59526 5
      vertex 1.18533 1.60514 0
    endloop
  endfacet
  facet normal -0.447214 0.894427 0
    outer loop
      vertex 1.16557 1.59526 5
      vertex 1.18533 1.60514 5
      vertex 1.18533 1.60514 0
    endloop
  endfacet
  facet normal -0.22486 0.974391 0
    outer loop
      vertex 1.18533 1.60514 0
      vertex 1.18533 1.60514 5
      vertex 1.69897 1.72367 0
    endloop
  endfacet
  facet normal -0.22486 0.974391 0
    outer loop
      vertex 1.18533 1.60514 5
      vertex 1.69897 1.72367 5
      vertex 1.69897 1.72367 0
    endloop
  endfacet
  facet normal -0.211332 0.977414 0
    outer loop
      vertex 1.69897 1.72367 0
      vertex 1.69897 1.72367 5
      vertex 2.06445 1.80269 0
    endloop
  endfacet
  facet normal -0.211332 0.977414 0
    outer loop
      vertex 1.69897 1.72367 5
      vertex 2.06445 1.80269 5
      vertex 2.06445 1.80269 0
    endloop
  endfacet
  facet normal -0.254494 0.967074 0
    outer loop
      vertex 2.06445 1.80269 0
      vertex 2.06445 1.80269 5
      vertex 2.25213 1.85208 0
    endloop
  endfacet
  facet normal -0.254494 0.967074 0
    outer loop
      vertex 2.06445 1.80269 5
      vertex 2.25213 1.85208 5
      vertex 2.25213 1.85208 0
    endloop
  endfacet
  facet normal 0 1 0
    outer loop
      vertex 2.25213 1.85208 0
      vertex 2.25213 1.85208 5
      vertex 2.3114 1.85208 0
    endloop
  endfacet
  facet normal -0 1 0
    outer loop
      vertex 2.25213 1.85208 5
      vertex 2.3114 1.85208 5
      vertex 2.3114 1.85208 0
    endloop
  endfacet
  facet normal 0.447214 0.894427 -0
    outer loop
      vertex 2.3114 1.85208 0
      vertex 2.3114 1.85208 5
      vertex 2.33115 1.8422 0
    endloop
  endfacet
  facet normal 0.447214 0.894427 0
    outer loop
      vertex 2.3114 1.85208 5
      vertex 2.33115 1.8422 5
      vertex 2.33115 1.8422 0
    endloop
  endfacet
  facet normal 0.763387 0.645942 -0
    outer loop
      vertex 2.33115 1.8422 0
      vertex 2.33115 1.8422 5
      vertex 3.30905 0.686504 0
    endloop
  endfacet
  facet normal 0.763387 0.645942 0
    outer loop
      vertex 2.33115 1.8422 5
      vertex 3.30905 0.686504 5
      vertex 3.30905 0.686504 0
    endloop
  endfacet
  facet normal 0.999969 0.00793711 -0
    outer loop
      vertex 3.30905 0.686504 0
      vertex 3.30905 0.686504 5
      vertex 3.31893 -0.558093 0
    endloop
  endfacet
  facet normal 0.999969 0.00793711 0
    outer loop
      vertex 3.30905 0.686504 5
      vertex 3.31893 -0.558093 5
      vertex 3.31893 -0.558093 0
    endloop
  endfacet
  facet normal 0.762756 -0.646687 0
    outer loop
      vertex 3.31893 -0.558093 0
      vertex 3.31893 -0.558093 5
      vertex 2.9337 -1.01247 0
    endloop
  endfacet
  facet normal 0.762756 -0.646687 0
    outer loop
      vertex 3.31893 -0.558093 5
      vertex 2.9337 -1.01247 5
      vertex 2.9337 -1.01247 0
    endloop
  endfacet
  facet normal 0.778753 -0.627331 0
    outer loop
      vertex 2.9337 -1.01247 0
      vertex 2.9337 -1.01247 5
      vertex 2.64724 -1.36807 0
    endloop
  endfacet
  facet normal 0.778753 -0.627331 0
    outer loop
      vertex 2.9337 -1.01247 5
      vertex 2.64724 -1.36807 5
      vertex 2.64724 -1.36807 0
    endloop
  endfacet
  facet normal 0.796165 -0.605079 0
    outer loop
      vertex 2.64724 -1.36807 0
      vertex 2.64724 -1.36807 5
      vertex 2.45957 -1.61501 0
    endloop
  endfacet
  facet normal 0.796165 -0.605079 0
    outer loop
      vertex 2.64724 -1.36807 5
      vertex 2.45957 -1.61501 5
      vertex 2.45957 -1.61501 0
    endloop
  endfacet
  facet normal 0.707107 -0.707107 0
    outer loop
      vertex 2.45957 -1.61501 0
      vertex 2.45957 -1.61501 5
      vertex 2.36079 -1.71379 0
    endloop
  endfacet
  facet normal 0.707107 -0.707107 0
    outer loop
      vertex 2.45957 -1.61501 5
      vertex 2.36079 -1.71379 5
      vertex 2.36079 -1.71379 0
    endloop
  endfacet
  facet normal 0.393912 -0.919148 0
    outer loop
      vertex 2.36079 -1.71379 0
      vertex 2.36079 -1.71379 5
      vertex 2.29164 -1.74343 0
    endloop
  endfacet
  facet normal 0.393912 -0.919148 0
    outer loop
      vertex 2.36079 -1.71379 5
      vertex 2.29164 -1.74343 5
      vertex 2.29164 -1.74343 0
    endloop
  endfacet
  facet normal 0 -1 0
    outer loop
      vertex 2.29164 -1.74343 0
      vertex 2.29164 -1.74343 5
      vertex 2.2225 -1.74343 0
    endloop
  endfacet
  facet normal -0 -1 0
    outer loop
      vertex 2.29164 -1.74343 5
      vertex 2.2225 -1.74343 5
      vertex 2.2225 -1.74343 0
    endloop
  endfacet
  facet normal -0.227881 -0.973689 0
    outer loop
      vertex 2.2225 -1.74343 0
      vertex 2.2225 -1.74343 5
      vertex 1.75824 -1.63477 0
    endloop
  endfacet
  facet normal -0.227881 -0.973689 0
    outer loop
      vertex 2.2225 -1.74343 5
      vertex 1.75824 -1.63477 5
      vertex 1.75824 -1.63477 0
    endloop
  endfacet
  facet normal -0.196121 -0.98058 0
    outer loop
      vertex 1.75824 -1.63477 0
      vertex 1.75824 -1.63477 5
      vertex 1.21496 -1.52611 0
    endloop
  endfacet
  facet normal -0.196121 -0.98058 0
    outer loop
      vertex 1.75824 -1.63477 5
      vertex 1.21496 -1.52611 5
      vertex 1.21496 -1.52611 0
    endloop
  endfacet
  facet normal -0.581219 -0.813747 0
    outer loop
      vertex 1.21496 -1.52611 0
      vertex 1.21496 -1.52611 5
      vertex 1.14582 -1.47673 0
    endloop
  endfacet
  facet normal -0.581219 -0.813747 0
    outer loop
      vertex 1.21496 -1.52611 5
      vertex 1.14582 -1.47673 5
      vertex 1.14582 -1.47673 0
    endloop
  endfacet
  facet normal -1 0 0
    outer loop
      vertex 1.14582 -1.47673 0
      vertex 1.14582 -1.47673 5
      vertex 1.14582 -1.44709 0
    endloop
  endfacet
  facet normal -1 0 0
    outer loop
      vertex 1.14582 -1.47673 5
      vertex 1.14582 -1.44709 5
      vertex 1.14582 -1.44709 0
    endloop
  endfacet
  facet normal -0.911023 0.412355 0
    outer loop
      vertex 1.14582 -1.44709 0
      vertex 1.14582 -1.44709 5
      vertex 1.57056 -0.508703 0
    endloop
  endfacet
  facet normal -0.911023 0.412355 0
    outer loop
      vertex 1.14582 -1.44709 5
      vertex 1.57056 -0.508703 5
      vertex 1.57056 -0.508703 0
    endloop
  endfacet
  facet normal 0.316269 -0.94867 0
    outer loop
      vertex 1.57056 -0.508703 0
      vertex 1.57056 -0.508703 5
      vertex 1.5113 -0.52846 0
    endloop
  endfacet
  facet normal 0.316269 -0.94867 0
    outer loop
      vertex 1.57056 -0.508703 5
      vertex 1.5113 -0.52846 5
      vertex 1.5113 -0.52846 0
    endloop
  endfacet
  facet normal 0.928477 -0.371391 0
    outer loop
      vertex 1.5113 -0.52846 0
      vertex 1.5113 -0.52846 5
      vertex 1.43228 -0.726015 0
    endloop
  endfacet
  facet normal 0.928477 -0.371391 0
    outer loop
      vertex 1.5113 -0.52846 5
      vertex 1.43228 -0.726015 5
      vertex 1.43228 -0.726015 0
    endloop
  endfacet
  facet normal 0.362438 -0.932008 0
    outer loop
      vertex 1.43228 -0.726015 0
      vertex 1.43228 -0.726015 5
      vertex 1.25448 -0.795158 0
    endloop
  endfacet
  facet normal 0.362438 -0.932008 0
    outer loop
      vertex 1.43228 -0.726015 5
      vertex 1.25448 -0.795158 5
      vertex 1.25448 -0.795158 0
    endloop
  endfacet
  facet normal 0 -1 0
    outer loop
      vertex 1.25448 -0.795158 0
      vertex 1.25448 -0.795158 5
      vertex 1.1557 -0.795158 0
    endloop
  endfacet
  facet normal -0 -1 0
    outer loop
      vertex 1.25448 -0.795158 5
      vertex 1.1557 -0.795158 5
      vertex 1.1557 -0.795158 0
    endloop
  endfacet
  facet normal -0.992283 -0.123995 0
    outer loop
      vertex 1.1557 -0.795158 0
      vertex 1.1557 -0.795158 5
      vertex 1.14582 -0.716136 0
    endloop
  endfacet
  facet normal -0.992283 -0.123995 0
    outer loop
      vertex 1.1557 -0.795158 5
      vertex 1.14582 -0.716136 5
      vertex 1.14582 -0.716136 0
    endloop
  endfacet
  facet normal 0 -1 0
    outer loop
      vertex 1.14582 -0.716136 0
      vertex 1.14582 -0.716136 5
      vertex 1.01741 -0.716136 0
    endloop
  endfacet
  facet normal -0 -1 0
    outer loop
      vertex 1.14582 -0.716136 5
      vertex 1.01741 -0.716136 5
      vertex 1.01741 -0.716136 0
    endloop
  endfacet
  facet normal 0.371419 -0.928466 0
    outer loop
      vertex 1.01741 -0.716136 0
      vertex 1.01741 -0.716136 5
      vertex 0.96802 -0.735894 0
    endloop
  endfacet
  facet normal 0.371419 -0.928466 0
    outer loop
      vertex 1.01741 -0.716136 5
      vertex 0.96802 -0.735894 5
      vertex 0.96802 -0.735894 0
    endloop
  endfacet
  facet normal 0.316186 -0.948697 0
    outer loop
      vertex 0.96802 -0.735894 0
      vertex 0.96802 -0.735894 5
      vertex 0.908752 -0.755647 0
    endloop
  endfacet
  facet normal 0.316186 -0.948697 0
    outer loop
      vertex 0.96802 -0.735894 5
      vertex 0.908752 -0.755647 5
      vertex 0.908752 -0.755647 0
    endloop
  endfacet
  facet normal -0.707138 -0.707076 0
    outer loop
      vertex 0.908752 -0.755647 0
      vertex 0.908752 -0.755647 5
      vertex 0.859366 -0.706257 0
    endloop
  endfacet
  facet normal -0.707138 -0.707076 0
    outer loop
      vertex 0.908752 -0.755647 5
      vertex 0.859366 -0.706257 5
      vertex 0.859366 -0.706257 0
    endloop
  endfacet
  facet normal -0.780849 -0.62472 0
    outer loop
      vertex 0.859366 -0.706257 0
      vertex 0.859366 -0.706257 5
      vertex 0.819855 -0.656872 0
    endloop
  endfacet
  facet normal -0.780849 -0.62472 0
    outer loop
      vertex 0.859366 -0.706257 5
      vertex 0.819855 -0.656872 5
      vertex 0.819855 -0.656872 0
    endloop
  endfacet
  facet normal 0 -1 0
    outer loop
      vertex 0.819855 -0.656872 0
      vertex 0.819855 -0.656872 5
      vertex 0.651933 -0.656872 0
    endloop
  endfacet
  facet normal -0 -1 0
    outer loop
      vertex 0.819855 -0.656872 5
      vertex 0.651933 -0.656872 5
      vertex 0.651933 -0.656872 0
    endloop
  endfacet
  facet normal 0.745237 -0.666799 0
    outer loop
      vertex 0.651933 -0.656872 0
      vertex 0.651933 -0.656872 5
      vertex 0.48401 -0.844548 0
    endloop
  endfacet
  facet normal 0.745237 -0.666799 0
    outer loop
      vertex 0.651933 -0.656872 5
      vertex 0.48401 -0.844548 5
      vertex 0.48401 -0.844548 0
    endloop
  endfacet
  facet normal 1 0 -0
    outer loop
      vertex 0.48401 -0.844548 0
      vertex 0.48401 -0.844548 5
      vertex 0.48401 -0.87418 0
    endloop
  endfacet
  facet normal 1 0 0
    outer loop
      vertex 0.48401 -0.844548 5
      vertex 0.48401 -0.87418 5
      vertex 0.48401 -0.87418 0
    endloop
  endfacet
  facet normal 0.447214 0.894427 -0
    outer loop
      vertex 0.48401 -0.87418 0
      vertex 0.48401 -0.87418 5
      vertex 0.563032 -0.913691 0
    endloop
  endfacet
  facet normal 0.447214 0.894427 0
    outer loop
      vertex 0.48401 -0.87418 5
      vertex 0.563032 -0.913691 5
      vertex 0.563032 -0.913691 0
    endloop
  endfacet
  facet normal 1 0 -0
    outer loop
      vertex 0.563032 -0.913691 0
      vertex 0.563032 -0.913691 5
      vertex 0.563032 -0.943327 0
    endloop
  endfacet
  facet normal 1 0 0
    outer loop
      vertex 0.563032 -0.913691 5
      vertex 0.563032 -0.943327 5
      vertex 0.563032 -0.943327 0
    endloop
  endfacet
  facet normal 0.141378 0.989956 -0
    outer loop
      vertex 0.563032 -0.943327 0
      vertex 0.563032 -0.943327 5
      vertex 0.632175 -0.953202 0
    endloop
  endfacet
  facet normal 0.141378 0.989956 0
    outer loop
      vertex 0.563032 -0.943327 5
      vertex 0.632175 -0.953202 5
      vertex 0.632175 -0.953202 0
    endloop
  endfacet
  facet normal 1 0 -0
    outer loop
      vertex 0.632175 -0.953202 0
      vertex 0.632175 -0.953202 5
      vertex 0.632175 -1.0421 0
    endloop
  endfacet
  facet normal 1 0 0
    outer loop
      vertex 0.632175 -0.953202 5
      vertex 0.632175 -1.0421 5
      vertex 0.632175 -1.0421 0
    endloop
  endfacet
  facet normal 0.675736 -0.737144 0
    outer loop
      vertex 0.632175 -1.0421 0
      vertex 0.632175 -1.0421 5
      vertex 0.513642 -1.15076 0
    endloop
  endfacet
  facet normal 0.675736 -0.737144 0
    outer loop
      vertex 0.632175 -1.0421 5
      vertex 0.513642 -1.15076 5
      vertex 0.513642 -1.15076 0
    endloop
  endfacet
  facet normal 1 0 -0
    outer loop
      vertex 0.513642 -1.15076 0
      vertex 0.513642 -1.15076 5
      vertex 0.513642 -1.26929 0
    endloop
  endfacet
  facet normal 1 0 0
    outer loop
      vertex 0.513642 -1.15076 5
      vertex 0.513642 -1.26929 5
      vertex 0.513642 -1.26929 0
    endloop
  endfacet
  facet normal 0.474091 -0.880476 0
    outer loop
      vertex 0.513642 -1.26929 0
      vertex 0.513642 -1.26929 5
      vertex 0.385231 -1.33844 0
    endloop
  endfacet
  facet normal 0.474091 -0.880476 0
    outer loop
      vertex 0.513642 -1.26929 5
      vertex 0.385231 -1.33844 5
      vertex 0.385231 -1.33844 0
    endloop
  endfacet
  facet normal 0 -1 0
    outer loop
      vertex 0.385231 -1.33844 0
      vertex 0.385231 -1.33844 5
      vertex 0.256819 -1.33844 0
    endloop
  endfacet
  facet normal -0 -1 0
    outer loop
      vertex 0.385231 -1.33844 5
      vertex 0.256819 -1.33844 5
      vertex 0.256819 -1.33844 0
    endloop
  endfacet
  facet normal -0.209525 -0.977803 0
    outer loop
      vertex 0.256819 -1.33844 0
      vertex 0.256819 -1.33844 5
      vertex 0.118533 -1.3088 0
    endloop
  endfacet
  facet normal -0.209525 -0.977803 0
    outer loop
      vertex 0.256819 -1.33844 5
      vertex 0.118533 -1.3088 5
      vertex 0.118533 -1.3088 0
    endloop
  endfacet
  facet normal -0.470591 -0.882352 0
    outer loop
      vertex 0.118533 -1.3088 0
      vertex 0.118533 -1.3088 5
      vertex -0.0296321 -1.22978 0
    endloop
  endfacet
  facet normal -0.470591 -0.882352 0
    outer loop
      vertex 0.118533 -1.3088 5
      vertex -0.0296321 -1.22978 5
      vertex -0.0296321 -1.22978 0
    endloop
  endfacet
  facet normal -1 0 0
    outer loop
      vertex -0.0296321 -1.22978 0
      vertex -0.0296321 -1.22978 5
      vertex -0.0296321 -1.14088 0
    endloop
  endfacet
  facet normal -1 0 0
    outer loop
      vertex -0.0296321 -1.22978 5
      vertex -0.0296321 -1.14088 5
      vertex -0.0296321 -1.14088 0
    endloop
  endfacet
  facet normal -0.707121 -0.707093 0
    outer loop
      vertex -0.0296321 -1.14088 0
      vertex -0.0296321 -1.14088 5
      vertex -0.138286 -1.03222 0
    endloop
  endfacet
  facet normal -0.707121 -0.707093 0
    outer loop
      vertex -0.0296321 -1.14088 5
      vertex -0.138286 -1.03222 5
      vertex -0.138286 -1.03222 0
    endloop
  endfacet
  facet normal -1 0 0
    outer loop
      vertex -0.138286 -1.03222 0
      vertex -0.138286 -1.03222 5
      vertex -0.138286 -0.913691 0
    endloop
  endfacet
  facet normal -1 0 0
    outer loop
      vertex -0.138286 -1.03222 5
      vertex -0.138286 -0.913691 5
      vertex -0.138286 -0.913691 0
    endloop
  endfacet
  facet normal -0.123995 0.992283 0
    outer loop
      vertex -0.138286 -0.913691 0
      vertex -0.138286 -0.913691 5
      vertex -0.0592643 -0.903816 0
    endloop
  endfacet
  facet normal -0.123995 0.992283 0
    outer loop
      vertex -0.138286 -0.913691 5
      vertex -0.0592643 -0.903816 5
      vertex -0.0592643 -0.903816 0
    endloop
  endfacet
  facet normal -0.948697 0.316186 0
    outer loop
      vertex -0.0592643 -0.903816 0
      vertex -0.0592643 -0.903816 5
      vertex -0.0395109 -0.844548 0
    endloop
  endfacet
  facet normal -0.948697 0.316186 0
    outer loop
      vertex -0.0592643 -0.903816 5
      vertex -0.0395109 -0.844548 5
      vertex -0.0395109 -0.844548 0
    endloop
  endfacet
  facet normal 0.0905464 0.995892 -0
    outer loop
      vertex -0.0395109 -0.844548 0
      vertex -0.0395109 -0.844548 5
      vertex 0.0691431 -0.854427 0
    endloop
  endfacet
  facet normal 0.0905464 0.995892 0
    outer loop
      vertex -0.0395109 -0.844548 5
      vertex 0.0691431 -0.854427 5
      vertex 0.0691431 -0.854427 0
    endloop
  endfacet
  facet normal -0.81374 0.581229 0
    outer loop
      vertex 0.0691431 -0.854427 0
      vertex 0.0691431 -0.854427 5
      vertex 0.118533 -0.785279 0
    endloop
  endfacet
  facet normal -0.81374 0.581229 0
    outer loop
      vertex 0.0691431 -0.854427 5
      vertex 0.118533 -0.785279 5
      vertex 0.118533 -0.785279 0
    endloop
  endfacet
  facet normal -0.058704 -0.998275 0
    outer loop
      vertex 0.118533 -0.785279 0
      vertex 0.118533 -0.785279 5
      vertex -0.0493854 -0.775405 0
    endloop
  endfacet
  facet normal -0.058704 -0.998275 0
    outer loop
      vertex 0.118533 -0.785279 5
      vertex -0.0493854 -0.775405 5
      vertex -0.0493854 -0.775405 0
    endloop
  endfacet
  facet normal -0.624687 -0.780875 0
    outer loop
      vertex -0.0493854 -0.775405 0
      vertex -0.0493854 -0.775405 5
      vertex -0.0987752 -0.735894 0
    endloop
  endfacet
  facet normal -0.624687 -0.780875 0
    outer loop
      vertex -0.0493854 -0.775405 5
      vertex -0.0987752 -0.735894 5
      vertex -0.0987752 -0.735894 0
    endloop
  endfacet
  facet normal 0 -1 0
    outer loop
      vertex -0.0987752 -0.735894 0
      vertex -0.0987752 -0.735894 5
      vertex -0.177797 -0.735894 0
    endloop
  endfacet
  facet normal -0 -1 0
    outer loop
      vertex -0.0987752 -0.735894 5
      vertex -0.177797 -0.735894 5
      vertex -0.177797 -0.735894 0
    endloop
  endfacet
  facet normal -0.707107 -0.707107 0
    outer loop
      vertex -0.177797 -0.735894 0
      vertex -0.177797 -0.735894 5
      vertex -0.227187 -0.686504 0
    endloop
  endfacet
  facet normal -0.707107 -0.707107 0
    outer loop
      vertex -0.177797 -0.735894 5
      vertex -0.227187 -0.686504 5
      vertex -0.227187 -0.686504 0
    endloop
  endfacet
  facet normal 0.0665267 -0.997785 0
    outer loop
      vertex -0.227187 -0.686504 0
      vertex -0.227187 -0.686504 5
      vertex -0.375352 -0.696383 0
    endloop
  endfacet
  facet normal 0.0665267 -0.997785 0
    outer loop
      vertex -0.227187 -0.686504 5
      vertex -0.375352 -0.696383 5
      vertex -0.375352 -0.696383 0
    endloop
  endfacet
  facet normal 0.799969 -0.600042 0
    outer loop
      vertex -0.375352 -0.696383 0
      vertex -0.375352 -0.696383 5
      vertex -0.404988 -0.735894 0
    endloop
  endfacet
  facet normal 0.799969 -0.600042 0
    outer loop
      vertex -0.375352 -0.696383 5
      vertex -0.404988 -0.735894 5
      vertex -0.404988 -0.735894 0
    endloop
  endfacet
  facet normal 0.152058 -0.988372 0
    outer loop
      vertex -0.404988 -0.735894 0
      vertex -0.404988 -0.735894 5
      vertex -0.661807 -0.775405 0
    endloop
  endfacet
  facet normal 0.152058 -0.988372 0
    outer loop
      vertex -0.404988 -0.735894 5
      vertex -0.661807 -0.775405 5
      vertex -0.661807 -0.775405 0
    endloop
  endfacet
  facet normal 0.14137 -0.989957 0
    outer loop
      vertex -0.661807 -0.775405 0
      vertex -0.661807 -0.775405 5
      vertex -0.730955 -0.785279 0
    endloop
  endfacet
  facet normal 0.14137 -0.989957 0
    outer loop
      vertex -0.661807 -0.775405 5
      vertex -0.730955 -0.785279 5
      vertex -0.730955 -0.785279 0
    endloop
  endfacet
  facet normal 0.351157 -0.936317 0
    outer loop
      vertex -0.730955 -0.785279 0
      vertex -0.730955 -0.785279 5
      vertex -0.809976 -0.814916 0
    endloop
  endfacet
  facet normal 0.351157 -0.936317 0
    outer loop
      vertex -0.730955 -0.785279 5
      vertex -0.809976 -0.814916 5
      vertex -0.809976 -0.814916 0
    endloop
  endfacet
  facet normal 0.0356799 -0.999363 0
    outer loop
      vertex -0.809976 -0.814916 0
      vertex -0.809976 -0.814916 5
      vertex -1.08655 -0.82479 0
    endloop
  endfacet
  facet normal 0.0356799 -0.999363 0
    outer loop
      vertex -0.809976 -0.814916 5
      vertex -1.08655 -0.82479 5
      vertex -1.08655 -0.82479 0
    endloop
  endfacet
  facet normal -0.164391 -0.986395 0
    outer loop
      vertex -1.08655 -0.82479 0
      vertex -1.08655 -0.82479 5
      vertex -1.26435 -0.795158 0
    endloop
  endfacet
  facet normal -0.164391 -0.986395 0
    outer loop
      vertex -1.08655 -0.82479 5
      vertex -1.26435 -0.795158 5
      vertex -1.26435 -0.795158 0
    endloop
  endfacet
  facet normal -0.287344 -0.957827 0
    outer loop
      vertex -1.26435 -0.795158 0
      vertex -1.26435 -0.795158 5
      vertex -1.36313 -0.765526 0
    endloop
  endfacet
  facet normal -0.287344 -0.957827 0
    outer loop
      vertex -1.26435 -0.795158 5
      vertex -1.36313 -0.765526 5
      vertex -1.36313 -0.765526 0
    endloop
  endfacet
  facet normal -0.624687 -0.780875 0
    outer loop
      vertex -1.36313 -0.765526 0
      vertex -1.36313 -0.765526 5
      vertex -1.41252 -0.726015 0
    endloop
  endfacet
  facet normal -0.624687 -0.780875 0
    outer loop
      vertex -1.36313 -0.765526 5
      vertex -1.41252 -0.726015 5
      vertex -1.41252 -0.726015 0
    endloop
  endfacet
  facet normal 0 -1 0
    outer loop
      vertex -1.41252 -0.726015 0
      vertex -1.41252 -0.726015 5
      vertex -1.52118 -0.726015 0
    endloop
  endfacet
  facet normal -0 -1 0
    outer loop
      vertex -1.41252 -0.726015 5
      vertex -1.52118 -0.726015 5
      vertex -1.52118 -0.726015 0
    endloop
  endfacet
  facet normal -0.316269 -0.94867 0
    outer loop
      vertex -1.52118 -0.726015 0
      vertex -1.52118 -0.726015 5
      vertex -1.58044 -0.706257 0
    endloop
  endfacet
  facet normal -0.316269 -0.94867 0
    outer loop
      vertex -1.52118 -0.726015 5
      vertex -1.58044 -0.706257 5
      vertex -1.58044 -0.706257 0
    endloop
  endfacet
  facet normal -0.447175 -0.894447 0
    outer loop
      vertex -1.58044 -0.706257 0
      vertex -1.58044 -0.706257 5
      vertex -1.61995 -0.686504 0
    endloop
  endfacet
  facet normal -0.447175 -0.894447 0
    outer loop
      vertex -1.58044 -0.706257 5
      vertex -1.61995 -0.686504 5
      vertex -1.61995 -0.686504 0
    endloop
  endfacet
  facet normal -0.980583 -0.196105 0
    outer loop
      vertex -1.61995 -0.686504 0
      vertex -1.61995 -0.686504 5
      vertex -1.64958 -0.538335 0
    endloop
  endfacet
  facet normal -0.980583 -0.196105 0
    outer loop
      vertex -1.61995 -0.686504 5
      vertex -1.64958 -0.538335 5
      vertex -1.64958 -0.538335 0
    endloop
  endfacet
  facet normal -0.291161 -0.956674 0
    outer loop
      vertex -1.64958 -0.538335 0
      vertex -1.64958 -0.538335 5
      vertex -2.33115 -0.330901 0
    endloop
  endfacet
  facet normal -0.291161 -0.956674 0
    outer loop
      vertex -1.64958 -0.538335 5
      vertex -2.33115 -0.330901 5
      vertex -2.33115 -0.330901 0
    endloop
  endfacet
  facet normal 0.530007 -0.847993 0
    outer loop
      vertex -2.33115 -0.330901 0
      vertex -2.33115 -0.330901 5
      vertex -2.56822 -0.479071 0
    endloop
  endfacet
  facet normal 0.530007 -0.847993 0
    outer loop
      vertex -2.33115 -0.330901 5
      vertex -2.56822 -0.479071 5
      vertex -2.56822 -0.479071 0
    endloop
  endfacet
  facet normal 1 0 -0
    outer loop
      vertex -2.56822 -0.479071 0
      vertex -2.56822 -0.479071 5
      vertex -2.56822 -0.686504 0
    endloop
  endfacet
  facet normal 1 0 0
    outer loop
      vertex -2.56822 -0.479071 5
      vertex -2.56822 -0.686504 5
      vertex -2.56822 -0.686504 0
    endloop
  endfacet
  facet normal 0.846232 0.532814 -0
    outer loop
      vertex -2.56822 -0.686504 0
      vertex -2.56822 -0.686504 5
      vertex -2.23237 -1.2199 0
    endloop
  endfacet
  facet normal 0.846232 0.532814 0
    outer loop
      vertex -2.56822 -0.686504 5
      vertex -2.23237 -1.2199 5
      vertex -2.23237 -1.2199 0
    endloop
  endfacet
  facet normal 0.84188 0.539665 -0
    outer loop
      vertex -2.23237 -1.2199 0
      vertex -2.23237 -1.2199 5
      vertex -1.98543 -1.60514 0
    endloop
  endfacet
  facet normal 0.84188 0.539665 0
    outer loop
      vertex -2.23237 -1.2199 5
      vertex -1.98543 -1.60514 5
      vertex -1.98543 -1.60514 0
    endloop
  endfacet
  facet normal 0.843663 0.536873 -0
    outer loop
      vertex -1.98543 -1.60514 0
      vertex -1.98543 -1.60514 5
      vertex -1.84714 -1.82245 0
    endloop
  endfacet
  facet normal 0.843663 0.536873 0
    outer loop
      vertex -1.98543 -1.60514 5
      vertex -1.84714 -1.82245 5
      vertex -1.84714 -1.82245 0
    endloop
  endfacet
  facet normal 0.992276 0.124048 -0
    outer loop
      vertex -1.84714 -1.82245 0
      vertex -1.84714 -1.82245 5
      vertex -1.83727 -1.90147 0
    endloop
  endfacet
  facet normal 0.992276 0.124048 0
    outer loop
      vertex -1.84714 -1.82245 5
      vertex -1.83727 -1.90147 5
      vertex -1.83727 -1.90147 0
    endloop
  endfacet
  facet normal 0.316269 -0.94867 0
    outer loop
      vertex -1.83727 -1.90147 0
      vertex -1.83727 -1.90147 5
      vertex -1.8669 -1.91135 0
    endloop
  endfacet
  facet normal 0.316269 -0.94867 0
    outer loop
      vertex -1.83727 -1.90147 5
      vertex -1.8669 -1.91135 5
      vertex -1.8669 -1.91135 0
    endloop
  endfacet
  facet normal -0.521442 -0.853287 0
    outer loop
      vertex -1.8669 -1.91135 0
      vertex -1.8669 -1.91135 5
      vertex -2.0447 -1.80269 0
    endloop
  endfacet
  facet normal -0.521442 -0.853287 0
    outer loop
      vertex -1.8669 -1.91135 5
      vertex -2.0447 -1.80269 5
      vertex -2.0447 -1.80269 0
    endloop
  endfacet
  facet normal -0.514503 -0.857489 0
    outer loop
      vertex -2.0447 -1.80269 0
      vertex -2.0447 -1.80269 5
      vertex -2.19286 -1.71379 0
    endloop
  endfacet
  facet normal -0.514503 -0.857489 0
    outer loop
      vertex -2.0447 -1.80269 5
      vertex -2.19286 -1.71379 5
      vertex -2.19286 -1.71379 0
    endloop
  endfacet
  facet normal -0.447227 -0.894421 0
    outer loop
      vertex -2.19286 -1.71379 0
      vertex -2.19286 -1.71379 5
      vertex -2.3114 -1.65452 0
    endloop
  endfacet
  facet normal -0.447227 -0.894421 0
    outer loop
      vertex -2.19286 -1.71379 5
      vertex -2.3114 -1.65452 5
      vertex -2.3114 -1.65452 0
    endloop
  endfacet
  facet normal -0.393902 -0.919152 0
    outer loop
      vertex -2.3114 -1.65452 0
      vertex -2.3114 -1.65452 5
      vertex -2.44969 -1.59526 0
    endloop
  endfacet
  facet normal -0.393902 -0.919152 0
    outer loop
      vertex -2.3114 -1.65452 5
      vertex -2.44969 -1.59526 5
      vertex -2.44969 -1.59526 0
    endloop
  endfacet
  facet normal -0.707158 -0.707055 0
    outer loop
      vertex -2.44969 -1.59526 0
      vertex -2.44969 -1.59526 5
      vertex -2.47932 -1.56562 0
    endloop
  endfacet
  facet normal -0.707158 -0.707055 0
    outer loop
      vertex -2.44969 -1.59526 5
      vertex -2.47932 -1.56562 5
      vertex -2.47932 -1.56562 0
    endloop
  endfacet
  facet normal -0.784882 -0.619645 0
    outer loop
      vertex -2.47932 -1.56562 0
      vertex -2.47932 -1.56562 5
      vertex -3.22015 -0.627236 0
    endloop
  endfacet
  facet normal -0.784882 -0.619645 0
    outer loop
      vertex -2.47932 -1.56562 5
      vertex -3.22015 -0.627236 5
      vertex -3.22015 -0.627236 0
    endloop
  endfacet
  facet normal -0.992276 -0.124048 0
    outer loop
      vertex -3.22015 -0.627236 0
      vertex -3.22015 -0.627236 5
      vertex -3.23003 -0.548214 0
    endloop
  endfacet
  facet normal -0.992276 -0.124048 0
    outer loop
      vertex -3.22015 -0.627236 5
      vertex -3.23003 -0.548214 5
      vertex -3.23003 -0.548214 0
    endloop
  endfacet
  facet normal -0.707081 -0.707132 0
    outer loop
      vertex -3.23003 -0.548214 0
      vertex -3.23003 -0.548214 5
      vertex -3.2893 -0.488949 0
    endloop
  endfacet
  facet normal -0.707081 -0.707132 0
    outer loop
      vertex -3.23003 -0.548214 5
      vertex -3.2893 -0.488949 5
      vertex -3.2893 -0.488949 0
    endloop
  endfacet
  facet normal -1 0 0
    outer loop
      vertex -3.2893 -0.488949 0
      vertex -3.2893 -0.488949 5
      vertex -3.2893 -0.419802 0
    endloop
  endfacet
  facet normal -1 0 0
    outer loop
      vertex -3.2893 -0.488949 5
      vertex -3.2893 -0.419802 5
      vertex -3.2893 -0.419802 0
    endloop
  endfacet
  facet normal -0.94869 -0.316207 0
    outer loop
      vertex -3.2893 -0.419802 0
      vertex -3.2893 -0.419802 5
      vertex -3.30905 -0.360538 0
    endloop
  endfacet
  facet normal -0.94869 -0.316207 0
    outer loop
      vertex -3.2893 -0.419802 5
      vertex -3.30905 -0.360538 5
      vertex -3.30905 -0.360538 0
    endloop
  endfacet
  facet normal -0.99992 -0.0126586 0
    outer loop
      vertex -3.30905 -0.360538 0
      vertex -3.30905 -0.360538 5
      vertex -3.31893 0.419802 0
    endloop
  endfacet
  facet normal -0.99992 -0.0126586 0
    outer loop
      vertex -3.30905 -0.360538 5
      vertex -3.31893 0.419802 5
      vertex -3.31893 0.419802 0
    endloop
  endfacet
  facet normal -0.857506 0.514474 0
    outer loop
      vertex -3.31893 0.419802 0
      vertex -3.31893 0.419802 5
      vertex -3.2893 0.469192 0
    endloop
  endfacet
  facet normal -0.857506 0.514474 0
    outer loop
      vertex -3.31893 0.419802 5
      vertex -3.2893 0.469192 5
      vertex -3.2893 0.469192 0
    endloop
  endfacet
  facet normal -0.983866 0.178906 0
    outer loop
      vertex -3.2893 0.469192 0
      vertex -3.2893 0.469192 5
      vertex -3.26954 0.577846 0
    endloop
  endfacet
  facet normal -0.983866 0.178906 0
    outer loop
      vertex -3.2893 0.469192 5
      vertex -3.26954 0.577846 5
      vertex -3.26954 0.577846 0
    endloop
  endfacet
  facet normal -0.768226 0.640179 0
    outer loop
      vertex -3.26954 0.577846 0
      vertex -3.26954 0.577846 5
      vertex -3.22015 0.637114 0
    endloop
  endfacet
  facet normal -0.768226 0.640179 0
    outer loop
      vertex -3.26954 0.577846 5
      vertex -3.22015 0.637114 5
      vertex -3.22015 0.637114 0
    endloop
  endfacet
  facet normal -0.980594 0.19605 0
    outer loop
      vertex -3.22015 0.637114 0
      vertex -3.22015 0.637114 5
      vertex -3.21028 0.686504 0
    endloop
  endfacet
  facet normal -0.980594 0.19605 0
    outer loop
      vertex -3.22015 0.637114 5
      vertex -3.21028 0.686504 5
      vertex -3.21028 0.686504 0
    endloop
  endfacet
  facet normal -0.777244 0.629199 0
    outer loop
      vertex -3.21028 0.686504 0
      vertex -3.21028 0.686504 5
      vertex -2.87443 1.10137 0
    endloop
  endfacet
  facet normal -0.777244 0.629199 0
    outer loop
      vertex -3.21028 0.686504 5
      vertex -2.87443 1.10137 5
      vertex -2.87443 1.10137 0
    endloop
  endfacet
  facet normal -0.783495 0.621399 0
    outer loop
      vertex -2.87443 1.10137 0
      vertex -2.87443 1.10137 5
      vertex -2.64724 1.38783 0
    endloop
  endfacet
  facet normal -0.783495 0.621399 0
    outer loop
      vertex -2.87443 1.10137 5
      vertex -2.64724 1.38783 5
      vertex -2.64724 1.38783 0
    endloop
  endfacet
  facet normal -0.780867 0.624698 0
    outer loop
      vertex -2.64724 1.38783 0
      vertex -2.64724 1.38783 5
      vertex -2.52871 1.53599 0
    endloop
  endfacet
  facet normal -0.780867 0.624698 0
    outer loop
      vertex -2.64724 1.38783 5
      vertex -2.52871 1.53599 5
      vertex -2.52871 1.53599 0
    endloop
  endfacet
  facet normal -0.832069 0.554672 0
    outer loop
      vertex -2.52871 1.53599 0
      vertex -2.52871 1.53599 5
      vertex -2.50896 1.56562 0
    endloop
  endfacet
  facet normal -0.832069 0.554672 0
    outer loop
      vertex -2.52871 1.53599 5
      vertex -2.50896 1.56562 5
      vertex -2.50896 1.56562 0
    endloop
  endfacet
  facet normal -0.707107 0.707107 0
    outer loop
      vertex -2.50896 1.56562 0
      vertex -2.50896 1.56562 5
      vertex -2.47932 1.59526 0
    endloop
  endfacet
  facet normal -0.707107 0.707107 0
    outer loop
      vertex -2.50896 1.56562 5
      vertex -2.47932 1.59526 5
      vertex -2.47932 1.59526 0
    endloop
  endfacet
  facet normal -0.894447 0.447175 0
    outer loop
      vertex -2.47932 1.59526 0
      vertex -2.47932 1.59526 5
      vertex -2.45957 1.63477 0
    endloop
  endfacet
  facet normal -0.894447 0.447175 0
    outer loop
      vertex -2.47932 1.59526 5
      vertex -2.45957 1.63477 5
      vertex -2.45957 1.63477 0
    endloop
  endfacet
  facet normal -0.422883 0.906184 0
    outer loop
      vertex -2.45957 1.63477 0
      vertex -2.45957 1.63477 5
      vertex -1.8669 1.91135 0
    endloop
  endfacet
  facet normal -0.422883 0.906184 0
    outer loop
      vertex -2.45957 1.63477 5
      vertex -1.8669 1.91135 5
      vertex -1.8669 1.91135 0
    endloop
  endfacet
  facet normal 0.80001 0.599986 -0
    outer loop
      vertex -1.8669 1.91135 0
      vertex -1.8669 1.91135 5
      vertex -1.83727 1.87184 0
    endloop
  endfacet
  facet normal 0.80001 0.599986 0
    outer loop
      vertex -1.8669 1.91135 5
      vertex -1.83727 1.87184 5
      vertex -1.83727 1.87184 0
    endloop
  endfacet
endsolid OpenSCAD_Model
