solid OpenSCAD_Model
  facet normal 0 -0 -1
    outer loop
      vertex -0.726015 1.02235 0
      vertex -0.518582 0.992713 0
      vertex -0.913691 0.982838 0
    endloop
  endfacet
  facet normal -0 0 -1
    outer loop
      vertex -0.202494 0.755647 0
      vertex -1.41746 -0.162983 0
      vertex -0.913691 0.982838 0
    endloop
  endfacet
  facet normal 0 0 -1
    outer loop
      vertex 0.39017 -1.25941 0
      vertex -0.321027 -0.893938 0
      vertex 0.429681 -1.22978 0
    endloop
  endfacet
  facet normal 0 0 -1
    outer loop
      vertex -0.330901 -0.548214 0
      vertex -0.0938358 0.686504 0
      vertex 0.97296 -0.321027 0
    endloop
  endfacet
  facet normal 0 0 -1
    outer loop
      vertex -0.0642037 1.06186 0
      vertex -0.0938358 1.3088 0
      vertex -0.0345715 1.36807 0
    endloop
  endfacet
  facet normal 0 0 -1
    outer loop
      vertex -0.518582 0.992713 0
      vertex -0.261758 0.864306 0
      vertex -0.242005 0.82479 0
    endloop
  endfacet
  facet normal 0 0 -1
    outer loop
      vertex -0.202494 0.755647 0
      vertex -0.242005 0.82479 0
      vertex -0.222247 0.795158 0
    endloop
  endfacet
  facet normal 0 -0 -1
    outer loop
      vertex 0.400049 1.85208 0
      vertex 1.10137 1.54587 0
      vertex 0.311148 1.81257 0
    endloop
  endfacet
  facet normal 0 0 -1
    outer loop
      vertex -0.518582 0.992713 0
      vertex -0.242005 0.82479 0
      vertex -0.202494 0.755647 0
    endloop
  endfacet
  facet normal 0 -0 -1
    outer loop
      vertex -0.518582 0.992713 0
      vertex -0.202494 0.755647 0
      vertex -0.913691 0.982838 0
    endloop
  endfacet
  facet normal 0 0 -1
    outer loop
      vertex 1.10137 -0.261758 0
      vertex 1.17051 -0.083957 0
      vertex 1.20015 -0.281516 0
    endloop
  endfacet
  facet normal 0 0 -1
    outer loop
      vertex 0.97296 -0.321027 0
      vertex 1.12112 -0.43956 0
      vertex 1.10137 -0.498824 0
    endloop
  endfacet
  facet normal 0 0 -1
    outer loop
      vertex -0.0642037 1.06186 0
      vertex -0.0345715 1.36807 0
      vertex -0.0246927 0.992713 0
    endloop
  endfacet
  facet normal -0 -0 -1
    outer loop
      vertex 1.08161 1.64465 0
      vertex 1.10137 1.54587 0
      vertex 0.400049 1.85208 0
    endloop
  endfacet
  facet normal -0 0 -1
    outer loop
      vertex 1.10137 1.54587 0
      vertex -0.0345715 1.36807 0
      vertex 0.311148 1.81257 0
    endloop
  endfacet
  facet normal 0 0 -1
    outer loop
      vertex -0.0246927 0.992713 0
      vertex -0.0345715 1.36807 0
      vertex 1.10137 1.54587 0
    endloop
  endfacet
  facet normal 0 0 -1
    outer loop
      vertex 1.15076 0.558093 0
      vertex 1.10137 1.54587 0
      vertex 1.28905 0.577846 0
    endloop
  endfacet
  facet normal -0 0 -1
    outer loop
      vertex 2.48426 0.0740825 0
      vertex 2.42499 0.0543248 0
      vertex 2.13854 0.202494 0
    endloop
  endfacet
  facet normal 0 0 -1
    outer loop
      vertex 2.97815 0.222247 0
      vertex 3.09668 0.123472 0
      vertex 3.05717 -0.044446 0
    endloop
  endfacet
  facet normal 0 0 -1
    outer loop
      vertex 2.48426 0.0740825 0
      vertex 2.58304 0.083957 0
      vertex 2.53365 0.0642037 0
    endloop
  endfacet
  facet normal 0 -0 -1
    outer loop
      vertex 2.97815 0.222247 0
      vertex 3.05717 -0.044446 0
      vertex 2.58304 0.083957 0
    endloop
  endfacet
  facet normal 0 0 -1
    outer loop
      vertex 2.48426 0.0740825 0
      vertex 2.13854 0.202494 0
      vertex 2.58304 0.083957 0
    endloop
  endfacet
  facet normal 0 0 -1
    outer loop
      vertex -1.71379 -0.0543248 0
      vertex -1.72367 -0.261758 0
      vertex -1.78294 -0.271637 0
    endloop
  endfacet
  facet normal 0 0 -1
    outer loop
      vertex 2.13854 0.172858 0
      vertex 2.13854 0.202494 0
      vertex 2.42499 0.0543248 0
    endloop
  endfacet
  facet normal 0 0 -1
    outer loop
      vertex 2.13854 0.202494 0
      vertex 2.97815 0.222247 0
      vertex 2.58304 0.083957 0
    endloop
  endfacet
  facet normal 0 0 -1
    outer loop
      vertex 1.10137 1.54587 0
      vertex 2.97815 0.222247 0
      vertex 2.13854 0.202494 0
    endloop
  endfacet
  facet normal 0 0 -1
    outer loop
      vertex -0.0246927 0.992713 0
      vertex 1.10137 1.54587 0
      vertex 1.15076 0.558093 0
    endloop
  endfacet
  facet normal 0 0 -1
    outer loop
      vertex 1.10137 1.54587 0
      vertex 2.13854 0.202494 0
      vertex 1.28905 0.577846 0
    endloop
  endfacet
  facet normal 0 0 -1
    outer loop
      vertex -0.0938358 0.686504 0
      vertex -0.0246927 0.992713 0
      vertex 1.15076 0.558093 0
    endloop
  endfacet
  facet normal 0 0 -1
    outer loop
      vertex -0.0938358 0.686504 0
      vertex 1.15076 0.558093 0
      vertex 1.131 0.469192 0
    endloop
  endfacet
  facet normal 0 0 -1
    outer loop
      vertex 1.131 0.469192 0
      vertex 1.34832 0.350659 0
      vertex 1.23966 0.222247 0
    endloop
  endfacet
  facet normal 0 0 -1
    outer loop
      vertex 1.131 0.469192 0
      vertex 1.23966 0.222247 0
      vertex 1.17051 -0.083957 0
    endloop
  endfacet
  facet normal 0 -0 -1
    outer loop
      vertex 1.131 0.469192 0
      vertex 1.17051 -0.083957 0
      vertex 0.97296 -0.321027 0
    endloop
  endfacet
  facet normal 0 0 -1
    outer loop
      vertex 0.97296 -0.321027 0
      vertex 1.17051 -0.083957 0
      vertex 1.10137 -0.261758 0
    endloop
  endfacet
  facet normal 0 0 -1
    outer loop
      vertex 0.97296 -0.321027 0
      vertex 1.10137 -0.261758 0
      vertex 1.10137 -0.34078 0
    endloop
  endfacet
  facet normal 0 0 -1
    outer loop
      vertex -0.0938358 0.686504 0
      vertex 1.131 0.469192 0
      vertex 0.97296 -0.321027 0
    endloop
  endfacet
  facet normal 0 0 -1
    outer loop
      vertex -0.321027 -0.893938 0
      vertex -0.330901 -0.548214 0
      vertex 0.429681 -1.22978 0
    endloop
  endfacet
  facet normal 0 0 -1
    outer loop
      vertex 0.429681 -1.22978 0
      vertex -0.330901 -0.548214 0
      vertex 0.97296 -0.321027 0
    endloop
  endfacet
  facet normal 0 -0 -1
    outer loop
      vertex 0.97296 -0.321027 0
      vertex 1.10137 -0.498824 0
      vertex 0.429681 -1.22978 0
    endloop
  endfacet
  facet normal 0 0 -1
    outer loop
      vertex 2.72132 -1.2199 0
      vertex 2.66206 -1.35819 0
      vertex 2.52377 -1.33844 0
    endloop
  endfacet
  facet normal -0 0 -1
    outer loop
      vertex 2.72132 -1.2199 0
      vertex 2.52377 -1.33844 0
      vertex 1.10137 -0.498824 0
    endloop
  endfacet
  facet normal 0 0 -1
    outer loop
      vertex 2.52377 -1.33844 0
      vertex 0.429681 -1.22978 0
      vertex 1.10137 -0.498824 0
    endloop
  endfacet
  facet normal 0 0 -1
    outer loop
      vertex -0.330901 -0.548214 0
      vertex -0.202494 0.755647 0
      vertex -0.0938358 0.686504 0
    endloop
  endfacet
  facet normal 0 0 -1
    outer loop
      vertex -1.87184 -0.558093 0
      vertex -1.79281 -0.449439 0
      vertex -1.79281 -0.498824 0
    endloop
  endfacet
  facet normal 0 0 -1
    outer loop
      vertex -0.479071 -0.577846 0
      vertex -0.202494 0.755647 0
      vertex -0.330901 -0.548214 0
    endloop
  endfacet
  facet normal 0 0 -1
    outer loop
      vertex -0.735894 -0.597603 0
      vertex -0.202494 0.755647 0
      vertex -0.479071 -0.577846 0
    endloop
  endfacet
  facet normal 0 0 -1
    outer loop
      vertex -0.617361 -0.607482 0
      vertex -0.735894 -0.597603 0
      vertex -0.479071 -0.577846 0
    endloop
  endfacet
  facet normal 0 0 -1
    outer loop
      vertex -1.06186 -0.488949 0
      vertex -0.202494 0.755647 0
      vertex -0.735894 -0.597603 0
    endloop
  endfacet
  facet normal 0 0 -1
    outer loop
      vertex -1.36807 -0.242005 0
      vertex -1.41746 -0.162983 0
      vertex -1.06186 -0.488949 0
    endloop
  endfacet
  facet normal 0 0 -1
    outer loop
      vertex -1.41746 -0.162983 0
      vertex -0.202494 0.755647 0
      vertex -1.06186 -0.488949 0
    endloop
  endfacet
  facet normal 0 0 -1
    outer loop
      vertex -1.44709 -0.113593 0
      vertex -0.913691 0.982838 0
      vertex -1.41746 -0.162983 0
    endloop
  endfacet
  facet normal -0 0 -1
    outer loop
      vertex -1.82245 -0.330901 0
      vertex -1.87184 -0.558093 0
      vertex -3.09668 -0.0642037 0
    endloop
  endfacet
  facet normal 0 0 -1
    outer loop
      vertex -1.46685 -0.0938358 0
      vertex -0.913691 0.982838 0
      vertex -1.44709 -0.113593 0
    endloop
  endfacet
  facet normal 0 0 -1
    outer loop
      vertex -1.5755 -0.044446 0
      vertex -0.913691 0.982838 0
      vertex -1.46685 -0.0938358 0
    endloop
  endfacet
  facet normal 0 0 -1
    outer loop
      vertex -1.71379 -0.0543248 0
      vertex -0.913691 0.982838 0
      vertex -1.5755 -0.044446 0
    endloop
  endfacet
  facet normal 0 -0 -1
    outer loop
      vertex -1.49648 1.82245 0
      vertex -0.913691 0.982838 0
      vertex -1.71379 -0.0543248 0
    endloop
  endfacet
  facet normal 0 -0 -1
    outer loop
      vertex -2.23731 1.93111 0
      vertex -1.71379 -0.0543248 0
      vertex -3.03742 1.18039 0
    endloop
  endfacet
  facet normal 0 0 -1
    outer loop
      vertex -1.71379 -0.0543248 0
      vertex -1.78294 -0.271637 0
      vertex -1.82245 -0.330901 0
    endloop
  endfacet
  facet normal 0 0 -1
    outer loop
      vertex -1.71379 -0.0543248 0
      vertex -1.82245 -0.330901 0
      vertex -3.09668 -0.0642037 0
    endloop
  endfacet
  facet normal 0 0 -1
    outer loop
      vertex -2.14841 -1.46685 0
      vertex -2.20768 -1.44709 0
      vertex -2.08915 -1.45697 0
    endloop
  endfacet
  facet normal 0 -0 -1
    outer loop
      vertex -1.87184 -0.587725 0
      vertex -1.60514 -0.765526 0
      vertex -2.08915 -1.45697 0
    endloop
  endfacet
  facet normal 0 -0 -1
    outer loop
      vertex -1.80269 -0.400049 0
      vertex -1.79281 -0.449439 0
      vertex -1.87184 -0.558093 0
    endloop
  endfacet
  facet normal -0 0 -1
    outer loop
      vertex -1.80269 -0.400049 0
      vertex -1.87184 -0.558093 0
      vertex -1.82245 -0.330901 0
    endloop
  endfacet
  facet normal -0 0 -1
    outer loop
      vertex -0.202494 -1.79281 0
      vertex -0.558093 -1.86196 0
      vertex -0.232126 -1.62489 0
    endloop
  endfacet
  facet normal 0 0 -1
    outer loop
      vertex -0.301269 -2.04964 0
      vertex -0.202494 -1.79281 0
      vertex -0.143226 -1.94098 0
    endloop
  endfacet
  facet normal 0 0 -1
    outer loop
      vertex -0.558093 -1.86196 0
      vertex -0.202494 -1.79281 0
      vertex -0.301269 -2.04964 0
    endloop
  endfacet
  facet normal 0 0 -1
    outer loop
      vertex -0.558093 -1.86196 0
      vertex -1.0421 -1.12112 0
      vertex -0.232126 -1.62489 0
    endloop
  endfacet
  facet normal 0 0 -1
    outer loop
      vertex -1.76318 -1.56562 0
      vertex -1.0421 -1.12112 0
      vertex -0.558093 -1.86196 0
    endloop
  endfacet
  facet normal 0 -0 -1
    outer loop
      vertex -1.60514 -0.765526 0
      vertex -1.0421 -1.12112 0
      vertex -1.76318 -1.56562 0
    endloop
  endfacet
  facet normal 0 0 -1
    outer loop
      vertex -1.60514 -0.765526 0
      vertex -1.76318 -1.56562 0
      vertex -2.08915 -1.45697 0
    endloop
  endfacet
  facet normal -0 0 -1
    outer loop
      vertex -1.76318 -1.56562 0
      vertex -1.80269 -1.58538 0
      vertex -2.08915 -1.45697 0
    endloop
  endfacet
  facet normal 0 0 -1
    outer loop
      vertex -2.20768 -1.44709 0
      vertex -1.87184 -0.587725 0
      vertex -2.08915 -1.45697 0
    endloop
  endfacet
  facet normal 0 0 -1
    outer loop
      vertex -3.09668 -0.0642037 0
      vertex -1.87184 -0.587725 0
      vertex -2.20768 -1.44709 0
    endloop
  endfacet
  facet normal -0 -0 -1
    outer loop
      vertex -1.87184 -0.558093 0
      vertex -1.87184 -0.587725 0
      vertex -3.09668 -0.0642037 0
    endloop
  endfacet
  facet normal -0 0 -1
    outer loop
      vertex -1.71379 -0.0543248 0
      vertex -3.09668 -0.0642037 0
      vertex -3.03742 1.18039 0
    endloop
  endfacet
  facet normal 0 0 -1
    outer loop
      vertex -1.49648 1.82245 0
      vertex -2.23731 1.93111 0
      vertex -2.15829 2.04964 0
    endloop
  endfacet
  facet normal -0 0 -1
    outer loop
      vertex -1.49648 1.82245 0
      vertex -1.71379 -0.0543248 0
      vertex -2.23731 1.93111 0
    endloop
  endfacet
  facet normal 0 0 1
    outer loop
      vertex -0.913691 0.982838 5
      vertex -0.518582 0.992713 5
      vertex -0.726015 1.02235 5
    endloop
  endfacet
  facet normal 0 0 1
    outer loop
      vertex -0.913691 0.982838 5
      vertex -1.41746 -0.162983 5
      vertex -0.202494 0.755647 5
    endloop
  endfacet
  facet normal 0 0 1
    outer loop
      vertex 0.429681 -1.22978 5
      vertex -0.321027 -0.893938 5
      vertex 0.39017 -1.25941 5
    endloop
  endfacet
  facet normal 0 0 1
    outer loop
      vertex 0.97296 -0.321027 5
      vertex -0.0938358 0.686504 5
      vertex -0.330901 -0.548214 5
    endloop
  endfacet
  facet normal 0 0 1
    outer loop
      vertex -0.0345715 1.36807 5
      vertex -0.0938358 1.3088 5
      vertex -0.0642037 1.06186 5
    endloop
  endfacet
  facet normal 0 0 1
    outer loop
      vertex -0.242005 0.82479 5
      vertex -0.261758 0.864306 5
      vertex -0.518582 0.992713 5
    endloop
  endfacet
  facet normal 0 0 1
    outer loop
      vertex -0.222247 0.795158 5
      vertex -0.242005 0.82479 5
      vertex -0.202494 0.755647 5
    endloop
  endfacet
  facet normal -0 0 1
    outer loop
      vertex 0.311148 1.81257 5
      vertex 1.10137 1.54587 5
      vertex 0.400049 1.85208 5
    endloop
  endfacet
  facet normal 0 0 1
    outer loop
      vertex -0.202494 0.755647 5
      vertex -0.242005 0.82479 5
      vertex -0.518582 0.992713 5
    endloop
  endfacet
  facet normal -0 0 1
    outer loop
      vertex -0.913691 0.982838 5
      vertex -0.202494 0.755647 5
      vertex -0.518582 0.992713 5
    endloop
  endfacet
  facet normal 0 0 1
    outer loop
      vertex 1.20015 -0.281516 5
      vertex 1.17051 -0.083957 5
      vertex 1.10137 -0.261758 5
    endloop
  endfacet
  facet normal 0 -0 1
    outer loop
      vertex 1.10137 -0.498824 5
      vertex 1.12112 -0.43956 5
      vertex 0.97296 -0.321027 5
    endloop
  endfacet
  facet normal 0 0 1
    outer loop
      vertex -0.0246927 0.992713 5
      vertex -0.0345715 1.36807 5
      vertex -0.0642037 1.06186 5
    endloop
  endfacet
  facet normal 0 0 1
    outer loop
      vertex 0.400049 1.85208 5
      vertex 1.10137 1.54587 5
      vertex 1.08161 1.64465 5
    endloop
  endfacet
  facet normal 0 0 1
    outer loop
      vertex 0.311148 1.81257 5
      vertex -0.0345715 1.36807 5
      vertex 1.10137 1.54587 5
    endloop
  endfacet
  facet normal 0 0 1
    outer loop
      vertex 1.10137 1.54587 5
      vertex -0.0345715 1.36807 5
      vertex -0.0246927 0.992713 5
    endloop
  endfacet
  facet normal 0 0 1
    outer loop
      vertex 1.28905 0.577846 5
      vertex 1.10137 1.54587 5
      vertex 1.15076 0.558093 5
    endloop
  endfacet
  facet normal 0 0 1
    outer loop
      vertex 2.13854 0.202494 5
      vertex 2.42499 0.0543248 5
      vertex 2.48426 0.0740825 5
    endloop
  endfacet
  facet normal 0 -0 1
    outer loop
      vertex 3.05717 -0.044446 5
      vertex 3.09668 0.123472 5
      vertex 2.97815 0.222247 5
    endloop
  endfacet
  facet normal 0 -0 1
    outer loop
      vertex 2.53365 0.0642037 5
      vertex 2.58304 0.083957 5
      vertex 2.48426 0.0740825 5
    endloop
  endfacet
  facet normal -0 0 1
    outer loop
      vertex 2.58304 0.083957 5
      vertex 3.05717 -0.044446 5
      vertex 2.97815 0.222247 5
    endloop
  endfacet
  facet normal 0 0 1
    outer loop
      vertex 2.58304 0.083957 5
      vertex 2.13854 0.202494 5
      vertex 2.48426 0.0740825 5
    endloop
  endfacet
  facet normal 0 0 1
    outer loop
      vertex -1.78294 -0.271637 5
      vertex -1.72367 -0.261758 5
      vertex -1.71379 -0.0543248 5
    endloop
  endfacet
  facet normal 0 0 1
    outer loop
      vertex 2.42499 0.0543248 5
      vertex 2.13854 0.202494 5
      vertex 2.13854 0.172858 5
    endloop
  endfacet
  facet normal 0 -0 1
    outer loop
      vertex 2.58304 0.083957 5
      vertex 2.97815 0.222247 5
      vertex 2.13854 0.202494 5
    endloop
  endfacet
  facet normal 0 -0 1
    outer loop
      vertex 2.13854 0.202494 5
      vertex 2.97815 0.222247 5
      vertex 1.10137 1.54587 5
    endloop
  endfacet
  facet normal 0 0 1
    outer loop
      vertex 1.15076 0.558093 5
      vertex 1.10137 1.54587 5
      vertex -0.0246927 0.992713 5
    endloop
  endfacet
  facet normal -0 -0 1
    outer loop
      vertex 1.28905 0.577846 5
      vertex 2.13854 0.202494 5
      vertex 1.10137 1.54587 5
    endloop
  endfacet
  facet normal 0 0 1
    outer loop
      vertex 1.15076 0.558093 5
      vertex -0.0246927 0.992713 5
      vertex -0.0938358 0.686504 5
    endloop
  endfacet
  facet normal 0 -0 1
    outer loop
      vertex 1.131 0.469192 5
      vertex 1.15076 0.558093 5
      vertex -0.0938358 0.686504 5
    endloop
  endfacet
  facet normal 0 -0 1
    outer loop
      vertex 1.23966 0.222247 5
      vertex 1.34832 0.350659 5
      vertex 1.131 0.469192 5
    endloop
  endfacet
  facet normal 0 -0 1
    outer loop
      vertex 1.17051 -0.083957 5
      vertex 1.23966 0.222247 5
      vertex 1.131 0.469192 5
    endloop
  endfacet
  facet normal 0 0 1
    outer loop
      vertex 0.97296 -0.321027 5
      vertex 1.17051 -0.083957 5
      vertex 1.131 0.469192 5
    endloop
  endfacet
  facet normal 0 -0 1
    outer loop
      vertex 1.10137 -0.261758 5
      vertex 1.17051 -0.083957 5
      vertex 0.97296 -0.321027 5
    endloop
  endfacet
  facet normal 0 -0 1
    outer loop
      vertex 1.10137 -0.34078 5
      vertex 1.10137 -0.261758 5
      vertex 0.97296 -0.321027 5
    endloop
  endfacet
  facet normal 0 -0 1
    outer loop
      vertex 0.97296 -0.321027 5
      vertex 1.131 0.469192 5
      vertex -0.0938358 0.686504 5
    endloop
  endfacet
  facet normal 0 0 1
    outer loop
      vertex 0.429681 -1.22978 5
      vertex -0.330901 -0.548214 5
      vertex -0.321027 -0.893938 5
    endloop
  endfacet
  facet normal 0 0 1
    outer loop
      vertex 0.97296 -0.321027 5
      vertex -0.330901 -0.548214 5
      vertex 0.429681 -1.22978 5
    endloop
  endfacet
  facet normal 0 0 1
    outer loop
      vertex 0.429681 -1.22978 5
      vertex 1.10137 -0.498824 5
      vertex 0.97296 -0.321027 5
    endloop
  endfacet
  facet normal -0 0 1
    outer loop
      vertex 2.52377 -1.33844 5
      vertex 2.66206 -1.35819 5
      vertex 2.72132 -1.2199 5
    endloop
  endfacet
  facet normal 0 0 1
    outer loop
      vertex 1.10137 -0.498824 5
      vertex 2.52377 -1.33844 5
      vertex 2.72132 -1.2199 5
    endloop
  endfacet
  facet normal 0 0 1
    outer loop
      vertex 1.10137 -0.498824 5
      vertex 0.429681 -1.22978 5
      vertex 2.52377 -1.33844 5
    endloop
  endfacet
  facet normal 0 0 1
    outer loop
      vertex -0.0938358 0.686504 5
      vertex -0.202494 0.755647 5
      vertex -0.330901 -0.548214 5
    endloop
  endfacet
  facet normal 0 -0 1
    outer loop
      vertex -1.79281 -0.498824 5
      vertex -1.79281 -0.449439 5
      vertex -1.87184 -0.558093 5
    endloop
  endfacet
  facet normal 0 -0 1
    outer loop
      vertex -0.330901 -0.548214 5
      vertex -0.202494 0.755647 5
      vertex -0.479071 -0.577846 5
    endloop
  endfacet
  facet normal 0 -0 1
    outer loop
      vertex -0.479071 -0.577846 5
      vertex -0.202494 0.755647 5
      vertex -0.735894 -0.597603 5
    endloop
  endfacet
  facet normal 0 0 1
    outer loop
      vertex -0.479071 -0.577846 5
      vertex -0.735894 -0.597603 5
      vertex -0.617361 -0.607482 5
    endloop
  endfacet
  facet normal 0 -0 1
    outer loop
      vertex -0.735894 -0.597603 5
      vertex -0.202494 0.755647 5
      vertex -1.06186 -0.488949 5
    endloop
  endfacet
  facet normal 0 0 1
    outer loop
      vertex -1.06186 -0.488949 5
      vertex -1.41746 -0.162983 5
      vertex -1.36807 -0.242005 5
    endloop
  endfacet
  facet normal 0 -0 1
    outer loop
      vertex -1.06186 -0.488949 5
      vertex -0.202494 0.755647 5
      vertex -1.41746 -0.162983 5
    endloop
  endfacet
  facet normal 0 -0 1
    outer loop
      vertex -1.41746 -0.162983 5
      vertex -0.913691 0.982838 5
      vertex -1.44709 -0.113593 5
    endloop
  endfacet
  facet normal 0 0 1
    outer loop
      vertex -3.09668 -0.0642037 5
      vertex -1.87184 -0.558093 5
      vertex -1.82245 -0.330901 5
    endloop
  endfacet
  facet normal 0 -0 1
    outer loop
      vertex -1.44709 -0.113593 5
      vertex -0.913691 0.982838 5
      vertex -1.46685 -0.0938358 5
    endloop
  endfacet
  facet normal 0 -0 1
    outer loop
      vertex -1.46685 -0.0938358 5
      vertex -0.913691 0.982838 5
      vertex -1.5755 -0.044446 5
    endloop
  endfacet
  facet normal 0 -0 1
    outer loop
      vertex -1.5755 -0.044446 5
      vertex -0.913691 0.982838 5
      vertex -1.71379 -0.0543248 5
    endloop
  endfacet
  facet normal 0 0 1
    outer loop
      vertex -1.71379 -0.0543248 5
      vertex -0.913691 0.982838 5
      vertex -1.49648 1.82245 5
    endloop
  endfacet
  facet normal -0 0 1
    outer loop
      vertex -3.03742 1.18039 5
      vertex -1.71379 -0.0543248 5
      vertex -2.23731 1.93111 5
    endloop
  endfacet
  facet normal 0 0 1
    outer loop
      vertex -1.82245 -0.330901 5
      vertex -1.78294 -0.271637 5
      vertex -1.71379 -0.0543248 5
    endloop
  endfacet
  facet normal -0 0 1
    outer loop
      vertex -3.09668 -0.0642037 5
      vertex -1.82245 -0.330901 5
      vertex -1.71379 -0.0543248 5
    endloop
  endfacet
  facet normal 0 0 1
    outer loop
      vertex -2.08915 -1.45697 5
      vertex -2.20768 -1.44709 5
      vertex -2.14841 -1.46685 5
    endloop
  endfacet
  facet normal 0 0 1
    outer loop
      vertex -2.08915 -1.45697 5
      vertex -1.60514 -0.765526 5
      vertex -1.87184 -0.587725 5
    endloop
  endfacet
  facet normal 0 0 1
    outer loop
      vertex -1.87184 -0.558093 5
      vertex -1.79281 -0.449439 5
      vertex -1.80269 -0.400049 5
    endloop
  endfacet
  facet normal 0 0 1
    outer loop
      vertex -1.82245 -0.330901 5
      vertex -1.87184 -0.558093 5
      vertex -1.80269 -0.400049 5
    endloop
  endfacet
  facet normal 0 0 1
    outer loop
      vertex -0.232126 -1.62489 5
      vertex -0.558093 -1.86196 5
      vertex -0.202494 -1.79281 5
    endloop
  endfacet
  facet normal 0 0 1
    outer loop
      vertex -0.143226 -1.94098 5
      vertex -0.202494 -1.79281 5
      vertex -0.301269 -2.04964 5
    endloop
  endfacet
  facet normal 0 -0 1
    outer loop
      vertex -0.301269 -2.04964 5
      vertex -0.202494 -1.79281 5
      vertex -0.558093 -1.86196 5
    endloop
  endfacet
  facet normal 0 0 1
    outer loop
      vertex -0.232126 -1.62489 5
      vertex -1.0421 -1.12112 5
      vertex -0.558093 -1.86196 5
    endloop
  endfacet
  facet normal 0 0 1
    outer loop
      vertex -0.558093 -1.86196 5
      vertex -1.0421 -1.12112 5
      vertex -1.76318 -1.56562 5
    endloop
  endfacet
  facet normal 0 0 1
    outer loop
      vertex -1.76318 -1.56562 5
      vertex -1.0421 -1.12112 5
      vertex -1.60514 -0.765526 5
    endloop
  endfacet
  facet normal -0 0 1
    outer loop
      vertex -2.08915 -1.45697 5
      vertex -1.76318 -1.56562 5
      vertex -1.60514 -0.765526 5
    endloop
  endfacet
  facet normal 0 0 1
    outer loop
      vertex -2.08915 -1.45697 5
      vertex -1.80269 -1.58538 5
      vertex -1.76318 -1.56562 5
    endloop
  endfacet
  facet normal 0 -0 1
    outer loop
      vertex -2.08915 -1.45697 5
      vertex -1.87184 -0.587725 5
      vertex -2.20768 -1.44709 5
    endloop
  endfacet
  facet normal 0 -0 1
    outer loop
      vertex -2.20768 -1.44709 5
      vertex -1.87184 -0.587725 5
      vertex -3.09668 -0.0642037 5
    endloop
  endfacet
  facet normal 0 0 1
    outer loop
      vertex -3.09668 -0.0642037 5
      vertex -1.87184 -0.587725 5
      vertex -1.87184 -0.558093 5
    endloop
  endfacet
  facet normal 0 0 1
    outer loop
      vertex -3.03742 1.18039 5
      vertex -3.09668 -0.0642037 5
      vertex -1.71379 -0.0543248 5
    endloop
  endfacet
  facet normal 0 0 1
    outer loop
      vertex -2.15829 2.04964 5
      vertex -2.23731 1.93111 5
      vertex -1.49648 1.82245 5
    endloop
  endfacet
  facet normal 0 0 1
    outer loop
      vertex -2.23731 1.93111 5
      vertex -1.71379 -0.0543248 5
      vertex -1.49648 1.82245 5
    endloop
  endfacet
  facet normal 0.821495 0.570216 -0
    outer loop
      vertex -1.49648 1.82245 0
      vertex -1.49648 1.82245 5
      vertex -0.913691 0.982838 0
    endloop
  endfacet
  facet normal 0.821495 0.570216 0
    outer loop
      vertex -1.49648 1.82245 5
      vertex -0.913691 0.982838 5
      vertex -0.913691 0.982838 0
    endloop
  endfacet
  facet normal -0.206012 0.97855 0
    outer loop
      vertex -0.913691 0.982838 0
      vertex -0.913691 0.982838 5
      vertex -0.726015 1.02235 0
    endloop
  endfacet
  facet normal -0.206012 0.97855 0
    outer loop
      vertex -0.913691 0.982838 5
      vertex -0.726015 1.02235 5
      vertex -0.726015 1.02235 0
    endloop
  endfacet
  facet normal 0.141436 0.989947 -0
    outer loop
      vertex -0.726015 1.02235 0
      vertex -0.726015 1.02235 5
      vertex -0.518582 0.992713 0
    endloop
  endfacet
  facet normal 0.141436 0.989947 0
    outer loop
      vertex -0.726015 1.02235 5
      vertex -0.518582 0.992713 5
      vertex -0.518582 0.992713 0
    endloop
  endfacet
  facet normal 0.447202 0.894433 -0
    outer loop
      vertex -0.518582 0.992713 0
      vertex -0.518582 0.992713 5
      vertex -0.261758 0.864306 0
    endloop
  endfacet
  facet normal 0.447202 0.894433 0
    outer loop
      vertex -0.518582 0.992713 5
      vertex -0.261758 0.864306 5
      vertex -0.261758 0.864306 0
    endloop
  endfacet
  facet normal 0.894466 0.447136 -0
    outer loop
      vertex -0.261758 0.864306 0
      vertex -0.261758 0.864306 5
      vertex -0.242005 0.82479 0
    endloop
  endfacet
  facet normal 0.894466 0.447136 0
    outer loop
      vertex -0.261758 0.864306 5
      vertex -0.242005 0.82479 5
      vertex -0.242005 0.82479 0
    endloop
  endfacet
  facet normal 0.832013 0.554756 -0
    outer loop
      vertex -0.242005 0.82479 0
      vertex -0.242005 0.82479 5
      vertex -0.222247 0.795158 0
    endloop
  endfacet
  facet normal 0.832013 0.554756 0
    outer loop
      vertex -0.242005 0.82479 5
      vertex -0.222247 0.795158 5
      vertex -0.222247 0.795158 0
    endloop
  endfacet
  facet normal 0.894447 0.447175 -0
    outer loop
      vertex -0.222247 0.795158 0
      vertex -0.222247 0.795158 5
      vertex -0.202494 0.755647 0
    endloop
  endfacet
  facet normal 0.894447 0.447175 0
    outer loop
      vertex -0.222247 0.795158 5
      vertex -0.202494 0.755647 5
      vertex -0.202494 0.755647 0
    endloop
  endfacet
  facet normal 0.536858 0.843673 -0
    outer loop
      vertex -0.202494 0.755647 0
      vertex -0.202494 0.755647 5
      vertex -0.0938358 0.686504 0
    endloop
  endfacet
  facet normal 0.536858 0.843673 0
    outer loop
      vertex -0.202494 0.755647 5
      vertex -0.0938358 0.686504 5
      vertex -0.0938358 0.686504 0
    endloop
  endfacet
  facet normal -0.975442 0.220258 0
    outer loop
      vertex -0.0938358 0.686504 0
      vertex -0.0938358 0.686504 5
      vertex -0.0246927 0.992713 0
    endloop
  endfacet
  facet normal -0.975442 0.220258 0
    outer loop
      vertex -0.0938358 0.686504 5
      vertex -0.0246927 0.992713 5
      vertex -0.0246927 0.992713 0
    endloop
  endfacet
  facet normal -0.868253 -0.496121 0
    outer loop
      vertex -0.0246927 0.992713 0
      vertex -0.0246927 0.992713 5
      vertex -0.0642037 1.06186 0
    endloop
  endfacet
  facet normal -0.868253 -0.496121 0
    outer loop
      vertex -0.0246927 0.992713 5
      vertex -0.0642037 1.06186 5
      vertex -0.0642037 1.06186 0
    endloop
  endfacet
  facet normal -0.992877 -0.11914 0
    outer loop
      vertex -0.0642037 1.06186 0
      vertex -0.0642037 1.06186 5
      vertex -0.0938358 1.3088 0
    endloop
  endfacet
  facet normal -0.992877 -0.11914 0
    outer loop
      vertex -0.0642037 1.06186 5
      vertex -0.0938358 1.3088 5
      vertex -0.0938358 1.3088 0
    endloop
  endfacet
  facet normal -0.707107 0.707107 0
    outer loop
      vertex -0.0938358 1.3088 0
      vertex -0.0938358 1.3088 5
      vertex -0.0345715 1.36807 0
    endloop
  endfacet
  facet normal -0.707107 0.707107 0
    outer loop
      vertex -0.0938358 1.3088 5
      vertex -0.0345715 1.36807 5
      vertex -0.0345715 1.36807 0
    endloop
  endfacet
  facet normal -0.789354 0.613938 0
    outer loop
      vertex -0.0345715 1.36807 0
      vertex -0.0345715 1.36807 5
      vertex 0.311148 1.81257 0
    endloop
  endfacet
  facet normal -0.789354 0.613938 0
    outer loop
      vertex -0.0345715 1.36807 5
      vertex 0.311148 1.81257 5
      vertex 0.311148 1.81257 0
    endloop
  endfacet
  facet normal -0.406171 0.913797 0
    outer loop
      vertex 0.311148 1.81257 0
      vertex 0.311148 1.81257 5
      vertex 0.400049 1.85208 0
    endloop
  endfacet
  facet normal -0.406171 0.913797 0
    outer loop
      vertex 0.311148 1.81257 5
      vertex 0.400049 1.85208 5
      vertex 0.400049 1.85208 0
    endloop
  endfacet
  facet normal 0.291163 0.956674 -0
    outer loop
      vertex 0.400049 1.85208 0
      vertex 0.400049 1.85208 5
      vertex 1.08161 1.64465 0
    endloop
  endfacet
  facet normal 0.291163 0.956674 0
    outer loop
      vertex 0.400049 1.85208 5
      vertex 1.08161 1.64465 5
      vertex 1.08161 1.64465 0
    endloop
  endfacet
  facet normal 0.980577 0.196133 -0
    outer loop
      vertex 1.08161 1.64465 0
      vertex 1.08161 1.64465 5
      vertex 1.10137 1.54587 0
    endloop
  endfacet
  facet normal 0.980577 0.196133 0
    outer loop
      vertex 1.08161 1.64465 5
      vertex 1.10137 1.54587 5
      vertex 1.10137 1.54587 0
    endloop
  endfacet
  facet normal 0.576346 0.817206 -0
    outer loop
      vertex 1.10137 1.54587 0
      vertex 1.10137 1.54587 5
      vertex 2.97815 0.222247 0
    endloop
  endfacet
  facet normal 0.576346 0.817206 0
    outer loop
      vertex 1.10137 1.54587 5
      vertex 2.97815 0.222247 5
      vertex 2.97815 0.222247 0
    endloop
  endfacet
  facet normal 0.640176 0.768228 -0
    outer loop
      vertex 2.97815 0.222247 0
      vertex 2.97815 0.222247 5
      vertex 3.09668 0.123472 0
    endloop
  endfacet
  facet normal 0.640176 0.768228 0
    outer loop
      vertex 2.97815 0.222247 5
      vertex 3.09668 0.123472 5
      vertex 3.09668 0.123472 0
    endloop
  endfacet
  facet normal 0.973416 -0.229044 0
    outer loop
      vertex 3.09668 0.123472 0
      vertex 3.09668 0.123472 5
      vertex 3.05717 -0.044446 0
    endloop
  endfacet
  facet normal 0.973416 -0.229044 0
    outer loop
      vertex 3.09668 0.123472 5
      vertex 3.05717 -0.044446 5
      vertex 3.05717 -0.044446 0
    endloop
  endfacet
  facet normal -0.261401 -0.96523 0
    outer loop
      vertex 3.05717 -0.044446 0
      vertex 3.05717 -0.044446 5
      vertex 2.58304 0.083957 0
    endloop
  endfacet
  facet normal -0.261401 -0.96523 0
    outer loop
      vertex 3.05717 -0.044446 5
      vertex 2.58304 0.083957 5
      vertex 2.58304 0.083957 0
    endloop
  endfacet
  facet normal 0.371349 -0.928493 0
    outer loop
      vertex 2.58304 0.083957 0
      vertex 2.58304 0.083957 5
      vertex 2.53365 0.0642037 0
    endloop
  endfacet
  facet normal 0.371349 -0.928493 0
    outer loop
      vertex 2.58304 0.083957 5
      vertex 2.53365 0.0642037 5
      vertex 2.53365 0.0642037 0
    endloop
  endfacet
  facet normal -0.196133 -0.980577 0
    outer loop
      vertex 2.53365 0.0642037 0
      vertex 2.53365 0.0642037 5
      vertex 2.48426 0.0740825 0
    endloop
  endfacet
  facet normal -0.196133 -0.980577 0
    outer loop
      vertex 2.53365 0.0642037 5
      vertex 2.48426 0.0740825 5
      vertex 2.48426 0.0740825 0
    endloop
  endfacet
  facet normal 0.316269 -0.94867 0
    outer loop
      vertex 2.48426 0.0740825 0
      vertex 2.48426 0.0740825 5
      vertex 2.42499 0.0543248 0
    endloop
  endfacet
  facet normal 0.316269 -0.94867 0
    outer loop
      vertex 2.48426 0.0740825 5
      vertex 2.42499 0.0543248 5
      vertex 2.42499 0.0543248 0
    endloop
  endfacet
  facet normal -0.382351 -0.924017 0
    outer loop
      vertex 2.42499 0.0543248 0
      vertex 2.42499 0.0543248 5
      vertex 2.13854 0.172858 0
    endloop
  endfacet
  facet normal -0.382351 -0.924017 0
    outer loop
      vertex 2.42499 0.0543248 5
      vertex 2.13854 0.172858 5
      vertex 2.13854 0.172858 0
    endloop
  endfacet
  facet normal -1 0 0
    outer loop
      vertex 2.13854 0.172858 0
      vertex 2.13854 0.172858 5
      vertex 2.13854 0.202494 0
    endloop
  endfacet
  facet normal -1 0 0
    outer loop
      vertex 2.13854 0.172858 5
      vertex 2.13854 0.202494 5
      vertex 2.13854 0.202494 0
    endloop
  endfacet
  facet normal -0.404159 -0.914689 0
    outer loop
      vertex 2.13854 0.202494 0
      vertex 2.13854 0.202494 5
      vertex 1.28905 0.577846 0
    endloop
  endfacet
  facet normal -0.404159 -0.914689 0
    outer loop
      vertex 2.13854 0.202494 5
      vertex 1.28905 0.577846 5
      vertex 1.28905 0.577846 0
    endloop
  endfacet
  facet normal 0.141408 -0.989951 0
    outer loop
      vertex 1.28905 0.577846 0
      vertex 1.28905 0.577846 5
      vertex 1.15076 0.558093 0
    endloop
  endfacet
  facet normal 0.141408 -0.989951 0
    outer loop
      vertex 1.28905 0.577846 5
      vertex 1.15076 0.558093 5
      vertex 1.15076 0.558093 0
    endloop
  endfacet
  facet normal 0.976183 -0.21695 0
    outer loop
      vertex 1.15076 0.558093 0
      vertex 1.15076 0.558093 5
      vertex 1.131 0.469192 0
    endloop
  endfacet
  facet normal 0.976183 -0.21695 0
    outer loop
      vertex 1.15076 0.558093 5
      vertex 1.131 0.469192 5
      vertex 1.131 0.469192 0
    endloop
  endfacet
  facet normal 0.478848 0.877898 -0
    outer loop
      vertex 1.131 0.469192 0
      vertex 1.131 0.469192 5
      vertex 1.34832 0.350659 0
    endloop
  endfacet
  facet normal 0.478848 0.877898 0
    outer loop
      vertex 1.131 0.469192 5
      vertex 1.34832 0.350659 5
      vertex 1.34832 0.350659 0
    endloop
  endfacet
  facet normal 0.763379 -0.64595 0
    outer loop
      vertex 1.34832 0.350659 0
      vertex 1.34832 0.350659 5
      vertex 1.23966 0.222247 0
    endloop
  endfacet
  facet normal 0.763379 -0.64595 0
    outer loop
      vertex 1.34832 0.350659 5
      vertex 1.23966 0.222247 5
      vertex 1.23966 0.222247 0
    endloop
  endfacet
  facet normal 0.975441 -0.220261 0
    outer loop
      vertex 1.23966 0.222247 0
      vertex 1.23966 0.222247 5
      vertex 1.17051 -0.083957 0
    endloop
  endfacet
  facet normal 0.975441 -0.220261 0
    outer loop
      vertex 1.23966 0.222247 5
      vertex 1.17051 -0.083957 5
      vertex 1.17051 -0.083957 0
    endloop
  endfacet
  facet normal 0.988938 0.148332 -0
    outer loop
      vertex 1.17051 -0.083957 0
      vertex 1.17051 -0.083957 5
      vertex 1.20015 -0.281516 0
    endloop
  endfacet
  facet normal 0.988938 0.148332 0
    outer loop
      vertex 1.17051 -0.083957 5
      vertex 1.20015 -0.281516 5
      vertex 1.20015 -0.281516 0
    endloop
  endfacet
  facet normal -0.196141 -0.980576 0
    outer loop
      vertex 1.20015 -0.281516 0
      vertex 1.20015 -0.281516 5
      vertex 1.10137 -0.261758 0
    endloop
  endfacet
  facet normal -0.196141 -0.980576 0
    outer loop
      vertex 1.20015 -0.281516 5
      vertex 1.10137 -0.261758 5
      vertex 1.10137 -0.261758 0
    endloop
  endfacet
  facet normal 1 0 -0
    outer loop
      vertex 1.10137 -0.261758 0
      vertex 1.10137 -0.261758 5
      vertex 1.10137 -0.34078 0
    endloop
  endfacet
  facet normal 1 0 0
    outer loop
      vertex 1.10137 -0.261758 5
      vertex 1.10137 -0.34078 5
      vertex 1.10137 -0.34078 0
    endloop
  endfacet
  facet normal -0.15204 -0.988374 0
    outer loop
      vertex 1.10137 -0.34078 0
      vertex 1.10137 -0.34078 5
      vertex 0.97296 -0.321027 0
    endloop
  endfacet
  facet normal -0.15204 -0.988374 0
    outer loop
      vertex 1.10137 -0.34078 5
      vertex 0.97296 -0.321027 5
      vertex 0.97296 -0.321027 0
    endloop
  endfacet
  facet normal 0.624698 0.780867 -0
    outer loop
      vertex 0.97296 -0.321027 0
      vertex 0.97296 -0.321027 5
      vertex 1.12112 -0.43956 0
    endloop
  endfacet
  facet normal 0.624698 0.780867 0
    outer loop
      vertex 0.97296 -0.321027 5
      vertex 1.12112 -0.43956 5
      vertex 1.12112 -0.43956 0
    endloop
  endfacet
  facet normal 0.94869 -0.316207 0
    outer loop
      vertex 1.12112 -0.43956 0
      vertex 1.12112 -0.43956 5
      vertex 1.10137 -0.498824 0
    endloop
  endfacet
  facet normal 0.94869 -0.316207 0
    outer loop
      vertex 1.12112 -0.43956 5
      vertex 1.10137 -0.498824 5
      vertex 1.10137 -0.498824 0
    endloop
  endfacet
  facet normal 0.406657 0.913581 -0
    outer loop
      vertex 1.10137 -0.498824 0
      vertex 1.10137 -0.498824 5
      vertex 2.72132 -1.2199 0
    endloop
  endfacet
  facet normal 0.406657 0.913581 0
    outer loop
      vertex 1.10137 -0.498824 5
      vertex 2.72132 -1.2199 5
      vertex 2.72132 -1.2199 0
    endloop
  endfacet
  facet normal 0.919152 -0.393902 0
    outer loop
      vertex 2.72132 -1.2199 0
      vertex 2.72132 -1.2199 5
      vertex 2.66206 -1.35819 0
    endloop
  endfacet
  facet normal 0.919152 -0.393902 0
    outer loop
      vertex 2.72132 -1.2199 5
      vertex 2.66206 -1.35819 5
      vertex 2.66206 -1.35819 0
    endloop
  endfacet
  facet normal -0.141434 -0.989948 0
    outer loop
      vertex 2.66206 -1.35819 0
      vertex 2.66206 -1.35819 5
      vertex 2.52377 -1.33844 0
    endloop
  endfacet
  facet normal -0.141434 -0.989948 0
    outer loop
      vertex 2.66206 -1.35819 5
      vertex 2.52377 -1.33844 5
      vertex 2.52377 -1.33844 0
    endloop
  endfacet
  facet normal -0.0518164 -0.998657 0
    outer loop
      vertex 2.52377 -1.33844 0
      vertex 2.52377 -1.33844 5
      vertex 0.429681 -1.22978 0
    endloop
  endfacet
  facet normal -0.0518164 -0.998657 0
    outer loop
      vertex 2.52377 -1.33844 5
      vertex 0.429681 -1.22978 5
      vertex 0.429681 -1.22978 0
    endloop
  endfacet
  facet normal 0.599986 -0.80001 0
    outer loop
      vertex 0.429681 -1.22978 0
      vertex 0.429681 -1.22978 5
      vertex 0.39017 -1.25941 0
    endloop
  endfacet
  facet normal 0.599986 -0.80001 0
    outer loop
      vertex 0.429681 -1.22978 5
      vertex 0.39017 -1.25941 5
      vertex 0.39017 -1.25941 0
    endloop
  endfacet
  facet normal -0.45707 -0.889431 0
    outer loop
      vertex 0.39017 -1.25941 0
      vertex 0.39017 -1.25941 5
      vertex -0.321027 -0.893938 0
    endloop
  endfacet
  facet normal -0.45707 -0.889431 0
    outer loop
      vertex 0.39017 -1.25941 5
      vertex -0.321027 -0.893938 5
      vertex -0.321027 -0.893938 0
    endloop
  endfacet
  facet normal -0.999592 -0.0285502 0
    outer loop
      vertex -0.321027 -0.893938 0
      vertex -0.321027 -0.893938 5
      vertex -0.330901 -0.548214 0
    endloop
  endfacet
  facet normal -0.999592 -0.0285502 0
    outer loop
      vertex -0.321027 -0.893938 5
      vertex -0.330901 -0.548214 5
      vertex -0.330901 -0.548214 0
    endloop
  endfacet
  facet normal 0.196105 -0.980583 0
    outer loop
      vertex -0.330901 -0.548214 0
      vertex -0.330901 -0.548214 5
      vertex -0.479071 -0.577846 0
    endloop
  endfacet
  facet normal 0.196105 -0.980583 0
    outer loop
      vertex -0.330901 -0.548214 5
      vertex -0.479071 -0.577846 5
      vertex -0.479071 -0.577846 0
    endloop
  endfacet
  facet normal 0.209548 -0.977798 0
    outer loop
      vertex -0.479071 -0.577846 0
      vertex -0.479071 -0.577846 5
      vertex -0.617361 -0.607482 0
    endloop
  endfacet
  facet normal 0.209548 -0.977798 0
    outer loop
      vertex -0.479071 -0.577846 5
      vertex -0.617361 -0.607482 5
      vertex -0.617361 -0.607482 0
    endloop
  endfacet
  facet normal -0.0830545 -0.996545 0
    outer loop
      vertex -0.617361 -0.607482 0
      vertex -0.617361 -0.607482 5
      vertex -0.735894 -0.597603 0
    endloop
  endfacet
  facet normal -0.0830545 -0.996545 0
    outer loop
      vertex -0.617361 -0.607482 5
      vertex -0.735894 -0.597603 5
      vertex -0.735894 -0.597603 0
    endloop
  endfacet
  facet normal -0.316224 -0.948685 0
    outer loop
      vertex -0.735894 -0.597603 0
      vertex -0.735894 -0.597603 5
      vertex -1.06186 -0.488949 0
    endloop
  endfacet
  facet normal -0.316224 -0.948685 0
    outer loop
      vertex -0.735894 -0.597603 5
      vertex -1.06186 -0.488949 5
      vertex -1.06186 -0.488949 0
    endloop
  endfacet
  facet normal -0.627755 -0.778411 0
    outer loop
      vertex -1.06186 -0.488949 0
      vertex -1.06186 -0.488949 5
      vertex -1.36807 -0.242005 0
    endloop
  endfacet
  facet normal -0.627755 -0.778411 0
    outer loop
      vertex -1.06186 -0.488949 5
      vertex -1.36807 -0.242005 5
      vertex -1.36807 -0.242005 0
    endloop
  endfacet
  facet normal -0.847993 -0.530007 0
    outer loop
      vertex -1.36807 -0.242005 0
      vertex -1.36807 -0.242005 5
      vertex -1.41746 -0.162983 0
    endloop
  endfacet
  facet normal -0.847993 -0.530007 0
    outer loop
      vertex -1.36807 -0.242005 5
      vertex -1.41746 -0.162983 5
      vertex -1.41746 -0.162983 0
    endloop
  endfacet
  facet normal -0.857506 -0.514474 0
    outer loop
      vertex -1.41746 -0.162983 0
      vertex -1.41746 -0.162983 5
      vertex -1.44709 -0.113593 0
    endloop
  endfacet
  facet normal -0.857506 -0.514474 0
    outer loop
      vertex -1.41746 -0.162983 5
      vertex -1.44709 -0.113593 5
      vertex -1.44709 -0.113593 0
    endloop
  endfacet
  facet normal -0.707107 -0.707107 0
    outer loop
      vertex -1.44709 -0.113593 0
      vertex -1.44709 -0.113593 5
      vertex -1.46685 -0.0938358 0
    endloop
  endfacet
  facet normal -0.707107 -0.707107 0
    outer loop
      vertex -1.44709 -0.113593 5
      vertex -1.46685 -0.0938358 5
      vertex -1.46685 -0.0938358 0
    endloop
  endfacet
  facet normal -0.413814 -0.910362 0
    outer loop
      vertex -1.46685 -0.0938358 0
      vertex -1.46685 -0.0938358 5
      vertex -1.5755 -0.044446 0
    endloop
  endfacet
  facet normal -0.413814 -0.910362 0
    outer loop
      vertex -1.46685 -0.0938358 5
      vertex -1.5755 -0.044446 5
      vertex -1.5755 -0.044446 0
    endloop
  endfacet
  facet normal 0.0712537 -0.997458 0
    outer loop
      vertex -1.5755 -0.044446 0
      vertex -1.5755 -0.044446 5
      vertex -1.71379 -0.0543248 0
    endloop
  endfacet
  facet normal 0.0712537 -0.997458 0
    outer loop
      vertex -1.5755 -0.044446 5
      vertex -1.71379 -0.0543248 5
      vertex -1.71379 -0.0543248 0
    endloop
  endfacet
  facet normal 0.998868 -0.0475701 0
    outer loop
      vertex -1.71379 -0.0543248 0
      vertex -1.71379 -0.0543248 5
      vertex -1.72367 -0.261758 0
    endloop
  endfacet
  facet normal 0.998868 -0.0475701 0
    outer loop
      vertex -1.71379 -0.0543248 5
      vertex -1.72367 -0.261758 5
      vertex -1.72367 -0.261758 0
    endloop
  endfacet
  facet normal 0.164422 -0.98639 0
    outer loop
      vertex -1.72367 -0.261758 0
      vertex -1.72367 -0.261758 5
      vertex -1.78294 -0.271637 0
    endloop
  endfacet
  facet normal 0.164422 -0.98639 0
    outer loop
      vertex -1.72367 -0.261758 5
      vertex -1.78294 -0.271637 5
      vertex -1.78294 -0.271637 0
    endloop
  endfacet
  facet normal 0.832041 -0.554714 0
    outer loop
      vertex -1.78294 -0.271637 0
      vertex -1.78294 -0.271637 5
      vertex -1.82245 -0.330901 0
    endloop
  endfacet
  facet normal 0.832041 -0.554714 0
    outer loop
      vertex -1.78294 -0.271637 5
      vertex -1.82245 -0.330901 5
      vertex -1.82245 -0.330901 0
    endloop
  endfacet
  facet normal 0.961535 0.274682 -0
    outer loop
      vertex -1.82245 -0.330901 0
      vertex -1.82245 -0.330901 5
      vertex -1.80269 -0.400049 0
    endloop
  endfacet
  facet normal 0.961535 0.274682 0
    outer loop
      vertex -1.82245 -0.330901 5
      vertex -1.80269 -0.400049 5
      vertex -1.80269 -0.400049 0
    endloop
  endfacet
  facet normal 0.980577 0.196133 -0
    outer loop
      vertex -1.80269 -0.400049 0
      vertex -1.80269 -0.400049 5
      vertex -1.79281 -0.449439 0
    endloop
  endfacet
  facet normal 0.980577 0.196133 0
    outer loop
      vertex -1.80269 -0.400049 5
      vertex -1.79281 -0.449439 5
      vertex -1.79281 -0.449439 0
    endloop
  endfacet
  facet normal 1 0 -0
    outer loop
      vertex -1.79281 -0.449439 0
      vertex -1.79281 -0.449439 5
      vertex -1.79281 -0.498824 0
    endloop
  endfacet
  facet normal 1 0 0
    outer loop
      vertex -1.79281 -0.449439 5
      vertex -1.79281 -0.498824 5
      vertex -1.79281 -0.498824 0
    endloop
  endfacet
  facet normal 0.600014 -0.79999 0
    outer loop
      vertex -1.79281 -0.498824 0
      vertex -1.79281 -0.498824 5
      vertex -1.87184 -0.558093 0
    endloop
  endfacet
  facet normal 0.600014 -0.79999 0
    outer loop
      vertex -1.79281 -0.498824 5
      vertex -1.87184 -0.558093 5
      vertex -1.87184 -0.558093 0
    endloop
  endfacet
  facet normal 1 0 -0
    outer loop
      vertex -1.87184 -0.558093 0
      vertex -1.87184 -0.558093 5
      vertex -1.87184 -0.587725 0
    endloop
  endfacet
  facet normal 1 0 0
    outer loop
      vertex -1.87184 -0.558093 5
      vertex -1.87184 -0.587725 5
      vertex -1.87184 -0.587725 0
    endloop
  endfacet
  facet normal 0.554706 0.832046 -0
    outer loop
      vertex -1.87184 -0.587725 0
      vertex -1.87184 -0.587725 5
      vertex -1.60514 -0.765526 0
    endloop
  endfacet
  facet normal 0.554706 0.832046 0
    outer loop
      vertex -1.87184 -0.587725 5
      vertex -1.60514 -0.765526 5
      vertex -1.60514 -0.765526 0
    endloop
  endfacet
  facet normal 0.533989 0.845491 -0
    outer loop
      vertex -1.60514 -0.765526 0
      vertex -1.60514 -0.765526 5
      vertex -1.0421 -1.12112 0
    endloop
  endfacet
  facet normal 0.533989 0.845491 0
    outer loop
      vertex -1.60514 -0.765526 5
      vertex -1.0421 -1.12112 5
      vertex -1.0421 -1.12112 0
    endloop
  endfacet
  facet normal 0.528137 0.849159 -0
    outer loop
      vertex -1.0421 -1.12112 0
      vertex -1.0421 -1.12112 5
      vertex -0.232126 -1.62489 0
    endloop
  endfacet
  facet normal 0.528137 0.849159 0
    outer loop
      vertex -1.0421 -1.12112 5
      vertex -0.232126 -1.62489 5
      vertex -0.232126 -1.62489 0
    endloop
  endfacet
  facet normal 0.984785 0.173778 -0
    outer loop
      vertex -0.232126 -1.62489 0
      vertex -0.232126 -1.62489 5
      vertex -0.202494 -1.79281 0
    endloop
  endfacet
  facet normal 0.984785 0.173778 0
    outer loop
      vertex -0.232126 -1.62489 5
      vertex -0.202494 -1.79281 5
      vertex -0.202494 -1.79281 0
    endloop
  endfacet
  facet normal 0.928471 0.371405 -0
    outer loop
      vertex -0.202494 -1.79281 0
      vertex -0.202494 -1.79281 5
      vertex -0.143226 -1.94098 0
    endloop
  endfacet
  facet normal 0.928471 0.371405 0
    outer loop
      vertex -0.202494 -1.79281 5
      vertex -0.143226 -1.94098 5
      vertex -0.143226 -1.94098 0
    endloop
  endfacet
  facet normal 0.56654 -0.824034 0
    outer loop
      vertex -0.143226 -1.94098 0
      vertex -0.143226 -1.94098 5
      vertex -0.301269 -2.04964 0
    endloop
  endfacet
  facet normal 0.56654 -0.824034 0
    outer loop
      vertex -0.143226 -1.94098 5
      vertex -0.301269 -2.04964 5
      vertex -0.301269 -2.04964 0
    endloop
  endfacet
  facet normal -0.59002 -0.807389 0
    outer loop
      vertex -0.301269 -2.04964 0
      vertex -0.301269 -2.04964 5
      vertex -0.558093 -1.86196 0
    endloop
  endfacet
  facet normal -0.59002 -0.807389 0
    outer loop
      vertex -0.301269 -2.04964 5
      vertex -0.558093 -1.86196 5
      vertex -0.558093 -1.86196 0
    endloop
  endfacet
  facet normal -0.238789 -0.971072 0
    outer loop
      vertex -0.558093 -1.86196 0
      vertex -0.558093 -1.86196 5
      vertex -1.76318 -1.56562 0
    endloop
  endfacet
  facet normal -0.238789 -0.971072 0
    outer loop
      vertex -0.558093 -1.86196 5
      vertex -1.76318 -1.56562 5
      vertex -1.76318 -1.56562 0
    endloop
  endfacet
  facet normal 0.447253 -0.894408 0
    outer loop
      vertex -1.76318 -1.56562 0
      vertex -1.76318 -1.56562 5
      vertex -1.80269 -1.58538 0
    endloop
  endfacet
  facet normal 0.447253 -0.894408 0
    outer loop
      vertex -1.76318 -1.56562 5
      vertex -1.80269 -1.58538 5
      vertex -1.80269 -1.58538 0
    endloop
  endfacet
  facet normal -0.409057 -0.912509 0
    outer loop
      vertex -1.80269 -1.58538 0
      vertex -1.80269 -1.58538 5
      vertex -2.08915 -1.45697 0
    endloop
  endfacet
  facet normal -0.409057 -0.912509 0
    outer loop
      vertex -1.80269 -1.58538 5
      vertex -2.08915 -1.45697 5
      vertex -2.08915 -1.45697 0
    endloop
  endfacet
  facet normal 0.164422 -0.98639 0
    outer loop
      vertex -2.08915 -1.45697 0
      vertex -2.08915 -1.45697 5
      vertex -2.14841 -1.46685 0
    endloop
  endfacet
  facet normal 0.164422 -0.98639 0
    outer loop
      vertex -2.08915 -1.45697 5
      vertex -2.14841 -1.46685 5
      vertex -2.14841 -1.46685 0
    endloop
  endfacet
  facet normal -0.316248 -0.948676 0
    outer loop
      vertex -2.14841 -1.46685 0
      vertex -2.14841 -1.46685 5
      vertex -2.20768 -1.44709 0
    endloop
  endfacet
  facet normal -0.316248 -0.948676 0
    outer loop
      vertex -2.14841 -1.46685 5
      vertex -2.20768 -1.44709 5
      vertex -2.20768 -1.44709 0
    endloop
  endfacet
  facet normal -0.841179 -0.540757 0
    outer loop
      vertex -2.20768 -1.44709 0
      vertex -2.20768 -1.44709 5
      vertex -3.09668 -0.0642037 0
    endloop
  endfacet
  facet normal -0.841179 -0.540757 0
    outer loop
      vertex -2.20768 -1.44709 5
      vertex -3.09668 -0.0642037 5
      vertex -3.09668 -0.0642037 0
    endloop
  endfacet
  facet normal -0.998868 0.0475633 0
    outer loop
      vertex -3.09668 -0.0642037 0
      vertex -3.09668 -0.0642037 5
      vertex -3.03742 1.18039 0
    endloop
  endfacet
  facet normal -0.998868 0.0475633 0
    outer loop
      vertex -3.09668 -0.0642037 5
      vertex -3.03742 1.18039 5
      vertex -3.03742 1.18039 0
    endloop
  endfacet
  facet normal -0.68424 0.729257 0
    outer loop
      vertex -3.03742 1.18039 0
      vertex -3.03742 1.18039 5
      vertex -2.23731 1.93111 0
    endloop
  endfacet
  facet normal -0.68424 0.729257 0
    outer loop
      vertex -3.03742 1.18039 5
      vertex -2.23731 1.93111 5
      vertex -2.23731 1.93111 0
    endloop
  endfacet
  facet normal -0.83205 0.5547 0
    outer loop
      vertex -2.23731 1.93111 0
      vertex -2.23731 1.93111 5
      vertex -2.15829 2.04964 0
    endloop
  endfacet
  facet normal -0.83205 0.5547 0
    outer loop
      vertex -2.23731 1.93111 5
      vertex -2.15829 2.04964 5
      vertex -2.15829 2.04964 0
    endloop
  endfacet
  facet normal 0.324688 0.945821 -0
    outer loop
      vertex -2.15829 2.04964 0
      vertex -2.15829 2.04964 5
      vertex -1.49648 1.82245 0
    endloop
  endfacet
  facet normal 0.324688 0.945821 0
    outer loop
      vertex -2.15829 2.04964 5
      vertex -1.49648 1.82245 5
      vertex -1.49648 1.82245 0
    endloop
  endfacet
endsolid OpenSCAD_Model
