solid OpenSCAD_Model
  facet normal -0 0 -1
    outer loop
      vertex 2.8448 0.597603 0
      vertex 2.81516 0.577846 0
      vertex 2.73614 1.24954 0
    endloop
  endfacet
  facet normal 0 0 -1
    outer loop
      vertex 1.18533 -0.261758 0
      vertex 1.28411 0.775405 0
      vertex 1.43228 -0.153104 0
    endloop
  endfacet
  facet normal 0 0 -1
    outer loop
      vertex 1.43228 -0.153104 0
      vertex 2.79541 -0.133347 0
      vertex 1.44215 -0.479071 0
    endloop
  endfacet
  facet normal 0 0 -1
    outer loop
      vertex 1.43228 -1.20015 0
      vertex 1.44215 -0.82479 0
      vertex 1.54093 -1.26929 0
    endloop
  endfacet
  facet normal 0 0 -1
    outer loop
      vertex 1.79775 -1.42734 0
      vertex 2.54847 -1.10137 0
      vertex 2.05458 -1.5755 0
    endloop
  endfacet
  facet normal 0 0 -1
    outer loop
      vertex 2.73614 -0.627236 0
      vertex 2.79541 -0.133347 0
      vertex 2.82504 -0.162983 0
    endloop
  endfacet
  facet normal 0 0 -1
    outer loop
      vertex 2.54847 -1.10137 0
      vertex 2.18298 -1.63477 0
      vertex 2.05458 -1.5755 0
    endloop
  endfacet
  facet normal 0 0 -1
    outer loop
      vertex 1.54093 -1.26929 0
      vertex 1.44215 -0.82479 0
      vertex 1.79775 -1.42734 0
    endloop
  endfacet
  facet normal 0 0 -1
    outer loop
      vertex 1.44215 -0.82479 0
      vertex 2.54847 -1.10137 0
      vertex 1.79775 -1.42734 0
    endloop
  endfacet
  facet normal 0 0 -1
    outer loop
      vertex 1.44215 -0.82479 0
      vertex 1.44215 -0.479071 0
      vertex 2.54847 -1.10137 0
    endloop
  endfacet
  facet normal 0 0 -1
    outer loop
      vertex 1.44215 -0.479071 0
      vertex 2.73614 -0.627236 0
      vertex 2.54847 -1.10137 0
    endloop
  endfacet
  facet normal 0 0 -1
    outer loop
      vertex 2.79541 -0.133347 0
      vertex 2.73614 -0.627236 0
      vertex 1.44215 -0.479071 0
    endloop
  endfacet
  facet normal 0 0 -1
    outer loop
      vertex 2.81516 0.577846 0
      vertex 2.79541 -0.133347 0
      vertex 1.43228 -0.153104 0
    endloop
  endfacet
  facet normal 0 0 -1
    outer loop
      vertex 0.730955 0.903816 0
      vertex 0.642054 0.963081 0
      vertex 0.701318 0.943327 0
    endloop
  endfacet
  facet normal 0 0 -1
    outer loop
      vertex -0.809976 0.321027 0
      vertex -0.335841 0.765526 0
      vertex -0.464252 -0.587725 0
    endloop
  endfacet
  facet normal 0 0 -1
    outer loop
      vertex -0.335841 0.765526 0
      vertex -0.246944 0.844548 0
      vertex 0.43462 0.992713 0
    endloop
  endfacet
  facet normal 0 0 -1
    outer loop
      vertex -0.335841 -0.666747 0
      vertex 0.948263 -0.607482 0
      vertex 0.276577 -0.913691 0
    endloop
  endfacet
  facet normal 0 0 -1
    outer loop
      vertex 0.276577 -0.913691 0
      vertex 0.800098 -0.745768 0
      vertex 0.474131 -0.913691 0
    endloop
  endfacet
  facet normal -0 0 -1
    outer loop
      vertex 0.958141 -0.676625 0
      vertex 0.800098 -0.745768 0
      vertex 0.948263 -0.607482 0
    endloop
  endfacet
  facet normal -0 0 -1
    outer loop
      vertex 0.948263 -0.755647 0
      vertex 0.849487 -0.765526 0
      vertex 0.958141 -0.676625 0
    endloop
  endfacet
  facet normal 0 0 -1
    outer loop
      vertex 0.849487 -0.765526 0
      vertex 0.800098 -0.745768 0
      vertex 0.958141 -0.676625 0
    endloop
  endfacet
  facet normal 0 0 -1
    outer loop
      vertex 0.800098 -0.745768 0
      vertex 0.721076 -0.814916 0
      vertex 0.612422 -0.87418 0
    endloop
  endfacet
  facet normal 0 0 -1
    outer loop
      vertex 0.800098 -0.745768 0
      vertex 0.612422 -0.87418 0
      vertex 0.474131 -0.913691 0
    endloop
  endfacet
  facet normal 0 0 -1
    outer loop
      vertex 0.948263 -0.607482 0
      vertex 0.800098 -0.745768 0
      vertex 0.276577 -0.913691 0
    endloop
  endfacet
  facet normal -0 0 -1
    outer loop
      vertex 0.474131 -0.913691 0
      vertex 0.444499 -0.933449 0
      vertex 0.276577 -0.913691 0
    endloop
  endfacet
  facet normal -0 0 -1
    outer loop
      vertex 0.464252 -0.92357 0
      vertex 0.444499 -0.933449 0
      vertex 0.474131 -0.913691 0
    endloop
  endfacet
  facet normal -0 0 -1
    outer loop
      vertex 0.444499 -0.933449 0
      vertex 0.34572 -0.953202 0
      vertex 0.276577 -0.913691 0
    endloop
  endfacet
  facet normal 0 0 -1
    outer loop
      vertex -0.335841 -0.666747 0
      vertex 0.276577 -0.913691 0
      vertex -0.237066 -0.755647 0
    endloop
  endfacet
  facet normal 0 0 -1
    outer loop
      vertex -0.237066 -0.755647 0
      vertex 0.167918 -0.92357 0
      vertex 0.0395109 -0.913691 0
    endloop
  endfacet
  facet normal 0 0 -1
    outer loop
      vertex -0.237066 -0.755647 0
      vertex 0.0395109 -0.913691 0
      vertex -0.148165 -0.864306 0
    endloop
  endfacet
  facet normal -0 0 -1
    outer loop
      vertex 0.276577 -0.913691 0
      vertex 0.167918 -0.92357 0
      vertex -0.237066 -0.755647 0
    endloop
  endfacet
  facet normal 0 0 -1
    outer loop
      vertex -0.335841 0.765526 0
      vertex 0.948263 -0.607482 0
      vertex -0.335841 -0.666747 0
    endloop
  endfacet
  facet normal 0 0 -1
    outer loop
      vertex 0.780344 0.844548 0
      vertex 0.43462 0.992713 0
      vertex 0.513642 0.982838 0
    endloop
  endfacet
  facet normal 0 0 -1
    outer loop
      vertex -0.711197 0.558093 0
      vertex -0.563032 0.735894 0
      vertex -0.335841 0.765526 0
    endloop
  endfacet
  facet normal 0 -0 -1
    outer loop
      vertex -2.82504 0.370417 0
      vertex -2.82504 0.261758 0
      vertex -2.8448 0.330901 0
    endloop
  endfacet
  facet normal 0 -0 -1
    outer loop
      vertex -2.76577 -0.29139 0
      vertex -2.68675 -0.745768 0
      vertex -2.82504 -0.311148 0
    endloop
  endfacet
  facet normal 0 0 -1
    outer loop
      vertex -2.46944 -1.21003 0
      vertex -2.68675 -0.745768 0
      vertex -1.41252 -0.646993 0
    endloop
  endfacet
  facet normal 0 0 -1
    outer loop
      vertex -1.45203 -1.06186 0
      vertex -1.41252 -0.646993 0
      vertex -1.41252 -1.05198 0
    endloop
  endfacet
  facet normal 0 0 -1
    outer loop
      vertex -1.41252 -1.54587 0
      vertex -1.81751 -2.07927 0
      vertex -2.01507 -1.89159 0
    endloop
  endfacet
  facet normal -0 0 -1
    outer loop
      vertex -1.34338 -1.97062 0
      vertex -1.81751 -2.07927 0
      vertex -1.41252 -1.54587 0
    endloop
  endfacet
  facet normal 0 0 -1
    outer loop
      vertex -1.18533 -2.35585 0
      vertex -1.58044 -2.25707 0
      vertex -1.34338 -1.97062 0
    endloop
  endfacet
  facet normal 0 0 -1
    outer loop
      vertex -1.32362 -2.44475 0
      vertex -1.58044 -2.25707 0
      vertex -1.18533 -2.35585 0
    endloop
  endfacet
  facet normal 0 0 -1
    outer loop
      vertex -1.58044 -2.25707 0
      vertex -1.81751 -2.07927 0
      vertex -1.34338 -1.97062 0
    endloop
  endfacet
  facet normal 0 0 -1
    outer loop
      vertex -1.41252 -1.54587 0
      vertex -2.01507 -1.89159 0
      vertex -2.23237 -1.61501 0
    endloop
  endfacet
  facet normal -0 0 -1
    outer loop
      vertex -1.41252 -1.54587 0
      vertex -2.23237 -1.61501 0
      vertex -1.45203 -1.06186 0
    endloop
  endfacet
  facet normal 0 0 -1
    outer loop
      vertex -2.23237 -1.61501 0
      vertex -2.46944 -1.21003 0
      vertex -1.45203 -1.06186 0
    endloop
  endfacet
  facet normal 0 0 -1
    outer loop
      vertex -2.46944 -1.21003 0
      vertex -1.41252 -0.646993 0
      vertex -1.45203 -1.06186 0
    endloop
  endfacet
  facet normal -0 0 -1
    outer loop
      vertex -1.41252 -0.646993 0
      vertex -2.68675 -0.745768 0
      vertex -2.76577 -0.29139 0
    endloop
  endfacet
  facet normal 0 0 -1
    outer loop
      vertex -2.76577 -0.29139 0
      vertex -2.83492 -0.242005 0
      vertex -2.79541 -0.192615 0
    endloop
  endfacet
  facet normal 0 0 -1
    outer loop
      vertex -2.82504 0.370417 0
      vertex -1.41252 0.419802 0
      vertex -2.82504 0.261758 0
    endloop
  endfacet
  facet normal 0 0 -1
    outer loop
      vertex -1.41252 0.419802 0
      vertex -2.76577 -0.29139 0
      vertex -2.79541 -0.192615 0
    endloop
  endfacet
  facet normal 0 0 -1
    outer loop
      vertex -2.82504 0.43956 0
      vertex -2.64724 0.913691 0
      vertex -1.41252 0.419802 0
    endloop
  endfacet
  facet normal 0 0 -1
    outer loop
      vertex -1.41252 0.419802 0
      vertex -2.64724 0.913691 0
      vertex -1.38289 0.706257 0
    endloop
  endfacet
  facet normal 0 0 -1
    outer loop
      vertex -2.64724 0.913691 0
      vertex -2.38054 1.34832 0
      vertex -1.38289 0.706257 0
    endloop
  endfacet
  facet normal 0 0 -1
    outer loop
      vertex -2.64724 0.913691 0
      vertex -2.82504 0.43956 0
      vertex -2.83492 0.469192 0
    endloop
  endfacet
  facet normal 0 -0 -1
    outer loop
      vertex -1.41252 0.419802 0
      vertex -1.41252 -0.646993 0
      vertex -2.76577 -0.29139 0
    endloop
  endfacet
  facet normal 0 -0 -1
    outer loop
      vertex -1.9558 1.83233 0
      vertex -1.31374 1.0421 0
      vertex -2.38054 1.34832 0
    endloop
  endfacet
  facet normal -0 0 -1
    outer loop
      vertex -1.22484 1.43722 0
      vertex -1.31374 1.0421 0
      vertex -1.9558 1.83233 0
    endloop
  endfacet
  facet normal -0 0 -1
    outer loop
      vertex -1.31374 1.0421 0
      vertex -1.38289 0.706257 0
      vertex -2.38054 1.34832 0
    endloop
  endfacet
  facet normal 0 0 -1
    outer loop
      vertex -0.809976 0.321027 0
      vertex -0.770465 0.538335 0
      vertex -0.711197 0.558093 0
    endloop
  endfacet
  facet normal 0 -0 -1
    outer loop
      vertex 1.61995 2.44475 0
      vertex 1.65946 2.44475 0
      vertex 1.47179 2.36573 0
    endloop
  endfacet
  facet normal -0 0 -1
    outer loop
      vertex -1.29399 -0.607482 0
      vertex -1.41252 -0.646993 0
      vertex -1.3335 0.39017 0
    endloop
  endfacet
  facet normal -0 0 -1
    outer loop
      vertex -1.3335 0.39017 0
      vertex -1.41252 -0.646993 0
      vertex -1.41252 0.419802 0
    endloop
  endfacet
  facet normal 0 0 -1
    outer loop
      vertex -2.82504 0.370417 0
      vertex -2.82504 0.43956 0
      vertex -1.41252 0.419802 0
    endloop
  endfacet
  facet normal 0 -0 -1
    outer loop
      vertex -1.20509 0.34078 0
      vertex -1.02729 0.271637 0
      vertex -1.29399 -0.607482 0
    endloop
  endfacet
  facet normal 0 0 -1
    outer loop
      vertex -2.82504 0.261758 0
      vertex -1.41252 0.419802 0
      vertex -2.79541 -0.192615 0
    endloop
  endfacet
  facet normal 0 0 -1
    outer loop
      vertex -1.3335 0.39017 0
      vertex -1.20509 0.34078 0
      vertex -1.29399 -0.607482 0
    endloop
  endfacet
  facet normal 0 0 -1
    outer loop
      vertex -0.464252 -0.587725 0
      vertex -1.02729 0.271637 0
      vertex -0.809976 0.321027 0
    endloop
  endfacet
  facet normal -0 0 -1
    outer loop
      vertex -0.464252 -0.587725 0
      vertex -1.29399 -0.607482 0
      vertex -1.02729 0.271637 0
    endloop
  endfacet
  facet normal 0 0 -1
    outer loop
      vertex -0.809976 0.321027 0
      vertex -0.711197 0.558093 0
      vertex -0.335841 0.765526 0
    endloop
  endfacet
  facet normal 0 0 -1
    outer loop
      vertex -0.711197 0.558093 0
      vertex -0.612422 0.716136 0
      vertex -0.563032 0.735894 0
    endloop
  endfacet
  facet normal 0 0 -1
    outer loop
      vertex -0.335841 -0.666747 0
      vertex -0.464252 -0.587725 0
      vertex -0.335841 0.765526 0
    endloop
  endfacet
  facet normal 0 -0 -1
    outer loop
      vertex 0.29633 1.01247 0
      vertex 0.43462 0.992713 0
      vertex -0.246944 0.844548 0
    endloop
  endfacet
  facet normal 0 0 -1
    outer loop
      vertex 0.29633 1.01247 0
      vertex -0.246944 0.844548 0
      vertex 0.0197533 0.982838 0
    endloop
  endfacet
  facet normal 0 0 -1
    outer loop
      vertex -0.335841 0.765526 0
      vertex 0.43462 0.992713 0
      vertex 0.780344 0.844548 0
    endloop
  endfacet
  facet normal 0 0 -1
    outer loop
      vertex 0.0197533 0.982838 0
      vertex 0.128407 1.03222 0
      vertex 0.29633 1.01247 0
    endloop
  endfacet
  facet normal 0 -0 -1
    outer loop
      vertex 0.0296321 1.01247 0
      vertex 0.128407 1.03222 0
      vertex 0.0197533 0.982838 0
    endloop
  endfacet
  facet normal 0 0 -1
    outer loop
      vertex -0.335841 0.765526 0
      vertex 0.780344 0.844548 0
      vertex 0.948263 -0.607482 0
    endloop
  endfacet
  facet normal 0 0 -1
    outer loop
      vertex 1.35326 1.24954 0
      vertex 1.43228 1.62489 0
      vertex 2.53859 1.74343 0
    endloop
  endfacet
  facet normal 0 0 -1
    outer loop
      vertex 0.780344 0.844548 0
      vertex 0.513642 0.982838 0
      vertex 0.730955 0.903816 0
    endloop
  endfacet
  facet normal 0 0 -1
    outer loop
      vertex 1.35326 1.24954 0
      vertex 1.28411 0.775405 0
      vertex 1.30387 1.22978 0
    endloop
  endfacet
  facet normal 0 0 -1
    outer loop
      vertex 0.780344 0.844548 0
      vertex 0.730955 0.903816 0
      vertex 0.760587 0.87418 0
    endloop
  endfacet
  facet normal 0 0 -1
    outer loop
      vertex 0.642054 0.963081 0
      vertex 0.691444 0.953202 0
      vertex 0.701318 0.943327 0
    endloop
  endfacet
  facet normal 0 0 -1
    outer loop
      vertex 0.513642 0.982838 0
      vertex 0.642054 0.963081 0
      vertex 0.730955 0.903816 0
    endloop
  endfacet
  facet normal 0 0 -1
    outer loop
      vertex 0.780344 0.844548 0
      vertex 1.04704 -0.498824 0
      vertex 0.948263 -0.607482 0
    endloop
  endfacet
  facet normal -0 0 -1
    outer loop
      vertex 1.12606 -0.380291 0
      vertex 1.04704 -0.498824 0
      vertex 0.780344 0.844548 0
    endloop
  endfacet
  facet normal 0 0 -1
    outer loop
      vertex 1.12606 -0.380291 0
      vertex 0.780344 0.844548 0
      vertex 1.18533 -0.261758 0
    endloop
  endfacet
  facet normal 0 0 -1
    outer loop
      vertex 0.780344 0.844548 0
      vertex 0.809976 0.844548 0
      vertex 0.91863 0.785279 0
    endloop
  endfacet
  facet normal 0 0 -1
    outer loop
      vertex 0.780344 0.844548 0
      vertex 0.91863 0.785279 0
      vertex 1.18533 -0.261758 0
    endloop
  endfacet
  facet normal 0 0 -1
    outer loop
      vertex 1.28411 0.775405 0
      vertex 2.81516 0.577846 0
      vertex 1.43228 -0.153104 0
    endloop
  endfacet
  facet normal 0 0 -1
    outer loop
      vertex 1.18533 -0.261758 0
      vertex 0.91863 0.785279 0
      vertex 1.28411 0.775405 0
    endloop
  endfacet
  facet normal 0 -0 -1
    outer loop
      vertex 2.73614 1.24954 0
      vertex 2.81516 0.577846 0
      vertex 1.28411 0.775405 0
    endloop
  endfacet
  facet normal 0 0 -1
    outer loop
      vertex 1.43228 1.62489 0
      vertex 2.25213 2.15829 0
      vertex 2.53859 1.74343 0
    endloop
  endfacet
  facet normal 0 0 -1
    outer loop
      vertex 2.73614 1.24954 0
      vertex 1.35326 1.24954 0
      vertex 2.53859 1.74343 0
    endloop
  endfacet
  facet normal -0 0 -1
    outer loop
      vertex 2.73614 1.24954 0
      vertex 1.28411 0.775405 0
      vertex 1.35326 1.24954 0
    endloop
  endfacet
  facet normal 0 0 -1
    outer loop
      vertex 2.25213 2.15829 0
      vertex 1.43228 1.62489 0
      vertex 1.47179 1.98049 0
    endloop
  endfacet
  facet normal -0 0 -1
    outer loop
      vertex 2.25213 2.15829 0
      vertex 1.47179 1.98049 0
      vertex 1.65946 2.44475 0
    endloop
  endfacet
  facet normal 0 0 -1
    outer loop
      vertex 1.65946 2.44475 0
      vertex 1.47179 1.98049 0
      vertex 1.47179 2.36573 0
    endloop
  endfacet
  facet normal 0 0 1
    outer loop
      vertex 2.73614 1.24954 5
      vertex 2.81516 0.577846 5
      vertex 2.8448 0.597603 5
    endloop
  endfacet
  facet normal 0 0 1
    outer loop
      vertex 1.43228 -0.153104 5
      vertex 1.28411 0.775405 5
      vertex 1.18533 -0.261758 5
    endloop
  endfacet
  facet normal 0 -0 1
    outer loop
      vertex 1.44215 -0.479071 5
      vertex 2.79541 -0.133347 5
      vertex 1.43228 -0.153104 5
    endloop
  endfacet
  facet normal 0 0 1
    outer loop
      vertex 1.54093 -1.26929 5
      vertex 1.44215 -0.82479 5
      vertex 1.43228 -1.20015 5
    endloop
  endfacet
  facet normal 0 -0 1
    outer loop
      vertex 2.05458 -1.5755 5
      vertex 2.54847 -1.10137 5
      vertex 1.79775 -1.42734 5
    endloop
  endfacet
  facet normal 0 0 1
    outer loop
      vertex 2.82504 -0.162983 5
      vertex 2.79541 -0.133347 5
      vertex 2.73614 -0.627236 5
    endloop
  endfacet
  facet normal -0 0 1
    outer loop
      vertex 2.05458 -1.5755 5
      vertex 2.18298 -1.63477 5
      vertex 2.54847 -1.10137 5
    endloop
  endfacet
  facet normal 0 0 1
    outer loop
      vertex 1.79775 -1.42734 5
      vertex 1.44215 -0.82479 5
      vertex 1.54093 -1.26929 5
    endloop
  endfacet
  facet normal 0 -0 1
    outer loop
      vertex 1.79775 -1.42734 5
      vertex 2.54847 -1.10137 5
      vertex 1.44215 -0.82479 5
    endloop
  endfacet
  facet normal 0 0 1
    outer loop
      vertex 2.54847 -1.10137 5
      vertex 1.44215 -0.479071 5
      vertex 1.44215 -0.82479 5
    endloop
  endfacet
  facet normal 0 -0 1
    outer loop
      vertex 2.54847 -1.10137 5
      vertex 2.73614 -0.627236 5
      vertex 1.44215 -0.479071 5
    endloop
  endfacet
  facet normal -0 0 1
    outer loop
      vertex 1.44215 -0.479071 5
      vertex 2.73614 -0.627236 5
      vertex 2.79541 -0.133347 5
    endloop
  endfacet
  facet normal 0 0 1
    outer loop
      vertex 1.43228 -0.153104 5
      vertex 2.79541 -0.133347 5
      vertex 2.81516 0.577846 5
    endloop
  endfacet
  facet normal 0 0 1
    outer loop
      vertex 0.701318 0.943327 5
      vertex 0.642054 0.963081 5
      vertex 0.730955 0.903816 5
    endloop
  endfacet
  facet normal 0 -0 1
    outer loop
      vertex -0.464252 -0.587725 5
      vertex -0.335841 0.765526 5
      vertex -0.809976 0.321027 5
    endloop
  endfacet
  facet normal 0 0 1
    outer loop
      vertex 0.43462 0.992713 5
      vertex -0.246944 0.844548 5
      vertex -0.335841 0.765526 5
    endloop
  endfacet
  facet normal 0 -0 1
    outer loop
      vertex 0.276577 -0.913691 5
      vertex 0.948263 -0.607482 5
      vertex -0.335841 -0.666747 5
    endloop
  endfacet
  facet normal 0 -0 1
    outer loop
      vertex 0.474131 -0.913691 5
      vertex 0.800098 -0.745768 5
      vertex 0.276577 -0.913691 5
    endloop
  endfacet
  facet normal 0 0 1
    outer loop
      vertex 0.948263 -0.607482 5
      vertex 0.800098 -0.745768 5
      vertex 0.958141 -0.676625 5
    endloop
  endfacet
  facet normal 0 0 1
    outer loop
      vertex 0.958141 -0.676625 5
      vertex 0.849487 -0.765526 5
      vertex 0.948263 -0.755647 5
    endloop
  endfacet
  facet normal 0 0 1
    outer loop
      vertex 0.958141 -0.676625 5
      vertex 0.800098 -0.745768 5
      vertex 0.849487 -0.765526 5
    endloop
  endfacet
  facet normal 0 0 1
    outer loop
      vertex 0.612422 -0.87418 5
      vertex 0.721076 -0.814916 5
      vertex 0.800098 -0.745768 5
    endloop
  endfacet
  facet normal 0 0 1
    outer loop
      vertex 0.474131 -0.913691 5
      vertex 0.612422 -0.87418 5
      vertex 0.800098 -0.745768 5
    endloop
  endfacet
  facet normal 0 0 1
    outer loop
      vertex 0.276577 -0.913691 5
      vertex 0.800098 -0.745768 5
      vertex 0.948263 -0.607482 5
    endloop
  endfacet
  facet normal -0 0 1
    outer loop
      vertex 0.276577 -0.913691 5
      vertex 0.444499 -0.933449 5
      vertex 0.474131 -0.913691 5
    endloop
  endfacet
  facet normal 0 0 1
    outer loop
      vertex 0.474131 -0.913691 5
      vertex 0.444499 -0.933449 5
      vertex 0.464252 -0.92357 5
    endloop
  endfacet
  facet normal 0 0 1
    outer loop
      vertex 0.276577 -0.913691 5
      vertex 0.34572 -0.953202 5
      vertex 0.444499 -0.933449 5
    endloop
  endfacet
  facet normal -0 -0 1
    outer loop
      vertex -0.237066 -0.755647 5
      vertex 0.276577 -0.913691 5
      vertex -0.335841 -0.666747 5
    endloop
  endfacet
  facet normal -0 -0 1
    outer loop
      vertex 0.0395109 -0.913691 5
      vertex 0.167918 -0.92357 5
      vertex -0.237066 -0.755647 5
    endloop
  endfacet
  facet normal -0 -0 1
    outer loop
      vertex -0.148165 -0.864306 5
      vertex 0.0395109 -0.913691 5
      vertex -0.237066 -0.755647 5
    endloop
  endfacet
  facet normal 0 0 1
    outer loop
      vertex -0.237066 -0.755647 5
      vertex 0.167918 -0.92357 5
      vertex 0.276577 -0.913691 5
    endloop
  endfacet
  facet normal 0 0 1
    outer loop
      vertex -0.335841 -0.666747 5
      vertex 0.948263 -0.607482 5
      vertex -0.335841 0.765526 5
    endloop
  endfacet
  facet normal 0 0 1
    outer loop
      vertex 0.513642 0.982838 5
      vertex 0.43462 0.992713 5
      vertex 0.780344 0.844548 5
    endloop
  endfacet
  facet normal 0 0 1
    outer loop
      vertex -0.335841 0.765526 5
      vertex -0.563032 0.735894 5
      vertex -0.711197 0.558093 5
    endloop
  endfacet
  facet normal -0 0 1
    outer loop
      vertex -2.8448 0.330901 5
      vertex -2.82504 0.261758 5
      vertex -2.82504 0.370417 5
    endloop
  endfacet
  facet normal -0 0 1
    outer loop
      vertex -2.82504 -0.311148 5
      vertex -2.68675 -0.745768 5
      vertex -2.76577 -0.29139 5
    endloop
  endfacet
  facet normal 0 0 1
    outer loop
      vertex -1.41252 -0.646993 5
      vertex -2.68675 -0.745768 5
      vertex -2.46944 -1.21003 5
    endloop
  endfacet
  facet normal 0 -0 1
    outer loop
      vertex -1.41252 -1.05198 5
      vertex -1.41252 -0.646993 5
      vertex -1.45203 -1.06186 5
    endloop
  endfacet
  facet normal -0 0 1
    outer loop
      vertex -2.01507 -1.89159 5
      vertex -1.81751 -2.07927 5
      vertex -1.41252 -1.54587 5
    endloop
  endfacet
  facet normal 0 0 1
    outer loop
      vertex -1.41252 -1.54587 5
      vertex -1.81751 -2.07927 5
      vertex -1.34338 -1.97062 5
    endloop
  endfacet
  facet normal 0 0 1
    outer loop
      vertex -1.34338 -1.97062 5
      vertex -1.58044 -2.25707 5
      vertex -1.18533 -2.35585 5
    endloop
  endfacet
  facet normal 0 0 1
    outer loop
      vertex -1.18533 -2.35585 5
      vertex -1.58044 -2.25707 5
      vertex -1.32362 -2.44475 5
    endloop
  endfacet
  facet normal 0 0 1
    outer loop
      vertex -1.34338 -1.97062 5
      vertex -1.81751 -2.07927 5
      vertex -1.58044 -2.25707 5
    endloop
  endfacet
  facet normal -0 0 1
    outer loop
      vertex -2.23237 -1.61501 5
      vertex -2.01507 -1.89159 5
      vertex -1.41252 -1.54587 5
    endloop
  endfacet
  facet normal 0 0 1
    outer loop
      vertex -1.45203 -1.06186 5
      vertex -2.23237 -1.61501 5
      vertex -1.41252 -1.54587 5
    endloop
  endfacet
  facet normal 0 0 1
    outer loop
      vertex -1.45203 -1.06186 5
      vertex -2.46944 -1.21003 5
      vertex -2.23237 -1.61501 5
    endloop
  endfacet
  facet normal 0 -0 1
    outer loop
      vertex -1.45203 -1.06186 5
      vertex -1.41252 -0.646993 5
      vertex -2.46944 -1.21003 5
    endloop
  endfacet
  facet normal 0 0 1
    outer loop
      vertex -2.76577 -0.29139 5
      vertex -2.68675 -0.745768 5
      vertex -1.41252 -0.646993 5
    endloop
  endfacet
  facet normal 0 0 1
    outer loop
      vertex -2.79541 -0.192615 5
      vertex -2.83492 -0.242005 5
      vertex -2.76577 -0.29139 5
    endloop
  endfacet
  facet normal 0 0 1
    outer loop
      vertex -2.82504 0.261758 5
      vertex -1.41252 0.419802 5
      vertex -2.82504 0.370417 5
    endloop
  endfacet
  facet normal -0 0 1
    outer loop
      vertex -2.79541 -0.192615 5
      vertex -2.76577 -0.29139 5
      vertex -1.41252 0.419802 5
    endloop
  endfacet
  facet normal 0 0 1
    outer loop
      vertex -1.41252 0.419802 5
      vertex -2.64724 0.913691 5
      vertex -2.82504 0.43956 5
    endloop
  endfacet
  facet normal 0 0 1
    outer loop
      vertex -1.38289 0.706257 5
      vertex -2.64724 0.913691 5
      vertex -1.41252 0.419802 5
    endloop
  endfacet
  facet normal 0 0 1
    outer loop
      vertex -1.38289 0.706257 5
      vertex -2.38054 1.34832 5
      vertex -2.64724 0.913691 5
    endloop
  endfacet
  facet normal -0 0 1
    outer loop
      vertex -2.83492 0.469192 5
      vertex -2.82504 0.43956 5
      vertex -2.64724 0.913691 5
    endloop
  endfacet
  facet normal -0 0 1
    outer loop
      vertex -2.76577 -0.29139 5
      vertex -1.41252 -0.646993 5
      vertex -1.41252 0.419802 5
    endloop
  endfacet
  facet normal -0 0 1
    outer loop
      vertex -2.38054 1.34832 5
      vertex -1.31374 1.0421 5
      vertex -1.9558 1.83233 5
    endloop
  endfacet
  facet normal 0 0 1
    outer loop
      vertex -1.9558 1.83233 5
      vertex -1.31374 1.0421 5
      vertex -1.22484 1.43722 5
    endloop
  endfacet
  facet normal 0 0 1
    outer loop
      vertex -2.38054 1.34832 5
      vertex -1.38289 0.706257 5
      vertex -1.31374 1.0421 5
    endloop
  endfacet
  facet normal 0 0 1
    outer loop
      vertex -0.711197 0.558093 5
      vertex -0.770465 0.538335 5
      vertex -0.809976 0.321027 5
    endloop
  endfacet
  facet normal 0 0 1
    outer loop
      vertex 1.47179 2.36573 5
      vertex 1.65946 2.44475 5
      vertex 1.61995 2.44475 5
    endloop
  endfacet
  facet normal 0 0 1
    outer loop
      vertex -1.3335 0.39017 5
      vertex -1.41252 -0.646993 5
      vertex -1.29399 -0.607482 5
    endloop
  endfacet
  facet normal 0 0 1
    outer loop
      vertex -1.41252 0.419802 5
      vertex -1.41252 -0.646993 5
      vertex -1.3335 0.39017 5
    endloop
  endfacet
  facet normal 0 0 1
    outer loop
      vertex -1.41252 0.419802 5
      vertex -2.82504 0.43956 5
      vertex -2.82504 0.370417 5
    endloop
  endfacet
  facet normal 0 0 1
    outer loop
      vertex -1.29399 -0.607482 5
      vertex -1.02729 0.271637 5
      vertex -1.20509 0.34078 5
    endloop
  endfacet
  facet normal 0 -0 1
    outer loop
      vertex -2.79541 -0.192615 5
      vertex -1.41252 0.419802 5
      vertex -2.82504 0.261758 5
    endloop
  endfacet
  facet normal 0 -0 1
    outer loop
      vertex -1.29399 -0.607482 5
      vertex -1.20509 0.34078 5
      vertex -1.3335 0.39017 5
    endloop
  endfacet
  facet normal 0 0 1
    outer loop
      vertex -0.809976 0.321027 5
      vertex -1.02729 0.271637 5
      vertex -0.464252 -0.587725 5
    endloop
  endfacet
  facet normal 0 0 1
    outer loop
      vertex -1.02729 0.271637 5
      vertex -1.29399 -0.607482 5
      vertex -0.464252 -0.587725 5
    endloop
  endfacet
  facet normal 0 0 1
    outer loop
      vertex -0.335841 0.765526 5
      vertex -0.711197 0.558093 5
      vertex -0.809976 0.321027 5
    endloop
  endfacet
  facet normal 0 0 1
    outer loop
      vertex -0.563032 0.735894 5
      vertex -0.612422 0.716136 5
      vertex -0.711197 0.558093 5
    endloop
  endfacet
  facet normal 0 0 1
    outer loop
      vertex -0.335841 0.765526 5
      vertex -0.464252 -0.587725 5
      vertex -0.335841 -0.666747 5
    endloop
  endfacet
  facet normal 0 0 1
    outer loop
      vertex -0.246944 0.844548 5
      vertex 0.43462 0.992713 5
      vertex 0.29633 1.01247 5
    endloop
  endfacet
  facet normal -0 0 1
    outer loop
      vertex 0.0197533 0.982838 5
      vertex -0.246944 0.844548 5
      vertex 0.29633 1.01247 5
    endloop
  endfacet
  facet normal 0 0 1
    outer loop
      vertex 0.780344 0.844548 5
      vertex 0.43462 0.992713 5
      vertex -0.335841 0.765526 5
    endloop
  endfacet
  facet normal 0 0 1
    outer loop
      vertex 0.29633 1.01247 5
      vertex 0.128407 1.03222 5
      vertex 0.0197533 0.982838 5
    endloop
  endfacet
  facet normal 0 0 1
    outer loop
      vertex 0.0197533 0.982838 5
      vertex 0.128407 1.03222 5
      vertex 0.0296321 1.01247 5
    endloop
  endfacet
  facet normal 0 0 1
    outer loop
      vertex 0.948263 -0.607482 5
      vertex 0.780344 0.844548 5
      vertex -0.335841 0.765526 5
    endloop
  endfacet
  facet normal 0 0 1
    outer loop
      vertex 2.53859 1.74343 5
      vertex 1.43228 1.62489 5
      vertex 1.35326 1.24954 5
    endloop
  endfacet
  facet normal 0 0 1
    outer loop
      vertex 0.730955 0.903816 5
      vertex 0.513642 0.982838 5
      vertex 0.780344 0.844548 5
    endloop
  endfacet
  facet normal -0 0 1
    outer loop
      vertex 1.30387 1.22978 5
      vertex 1.28411 0.775405 5
      vertex 1.35326 1.24954 5
    endloop
  endfacet
  facet normal 0 0 1
    outer loop
      vertex 0.760587 0.87418 5
      vertex 0.730955 0.903816 5
      vertex 0.780344 0.844548 5
    endloop
  endfacet
  facet normal 0 0 1
    outer loop
      vertex 0.701318 0.943327 5
      vertex 0.691444 0.953202 5
      vertex 0.642054 0.963081 5
    endloop
  endfacet
  facet normal 0 0 1
    outer loop
      vertex 0.730955 0.903816 5
      vertex 0.642054 0.963081 5
      vertex 0.513642 0.982838 5
    endloop
  endfacet
  facet normal 0 -0 1
    outer loop
      vertex 0.948263 -0.607482 5
      vertex 1.04704 -0.498824 5
      vertex 0.780344 0.844548 5
    endloop
  endfacet
  facet normal 0 0 1
    outer loop
      vertex 0.780344 0.844548 5
      vertex 1.04704 -0.498824 5
      vertex 1.12606 -0.380291 5
    endloop
  endfacet
  facet normal 0 0 1
    outer loop
      vertex 1.18533 -0.261758 5
      vertex 0.780344 0.844548 5
      vertex 1.12606 -0.380291 5
    endloop
  endfacet
  facet normal 0 0 1
    outer loop
      vertex 0.91863 0.785279 5
      vertex 0.809976 0.844548 5
      vertex 0.780344 0.844548 5
    endloop
  endfacet
  facet normal 0 0 1
    outer loop
      vertex 1.18533 -0.261758 5
      vertex 0.91863 0.785279 5
      vertex 0.780344 0.844548 5
    endloop
  endfacet
  facet normal 0 -0 1
    outer loop
      vertex 1.43228 -0.153104 5
      vertex 2.81516 0.577846 5
      vertex 1.28411 0.775405 5
    endloop
  endfacet
  facet normal 0 0 1
    outer loop
      vertex 1.28411 0.775405 5
      vertex 0.91863 0.785279 5
      vertex 1.18533 -0.261758 5
    endloop
  endfacet
  facet normal -0 0 1
    outer loop
      vertex 1.28411 0.775405 5
      vertex 2.81516 0.577846 5
      vertex 2.73614 1.24954 5
    endloop
  endfacet
  facet normal 0 0 1
    outer loop
      vertex 2.53859 1.74343 5
      vertex 2.25213 2.15829 5
      vertex 1.43228 1.62489 5
    endloop
  endfacet
  facet normal 0 0 1
    outer loop
      vertex 2.53859 1.74343 5
      vertex 1.35326 1.24954 5
      vertex 2.73614 1.24954 5
    endloop
  endfacet
  facet normal -0 0 1
    outer loop
      vertex 1.35326 1.24954 5
      vertex 1.28411 0.775405 5
      vertex 2.73614 1.24954 5
    endloop
  endfacet
  facet normal -0 0 1
    outer loop
      vertex 1.47179 1.98049 5
      vertex 1.43228 1.62489 5
      vertex 2.25213 2.15829 5
    endloop
  endfacet
  facet normal 0 0 1
    outer loop
      vertex 1.65946 2.44475 5
      vertex 1.47179 1.98049 5
      vertex 2.25213 2.15829 5
    endloop
  endfacet
  facet normal -0 0 1
    outer loop
      vertex 1.47179 2.36573 5
      vertex 1.47179 1.98049 5
      vertex 1.65946 2.44475 5
    endloop
  endfacet
  facet normal 0.822897 0.56819 -0
    outer loop
      vertex 2.25213 2.15829 0
      vertex 2.25213 2.15829 5
      vertex 2.53859 1.74343 0
    endloop
  endfacet
  facet normal 0.822897 0.56819 0
    outer loop
      vertex 2.25213 2.15829 5
      vertex 2.53859 1.74343 5
      vertex 2.53859 1.74343 0
    endloop
  endfacet
  facet normal 0.928477 0.371389 -0
    outer loop
      vertex 2.53859 1.74343 0
      vertex 2.53859 1.74343 5
      vertex 2.73614 1.24954 0
    endloop
  endfacet
  facet normal 0.928477 0.371389 0
    outer loop
      vertex 2.53859 1.74343 5
      vertex 2.73614 1.24954 5
      vertex 2.73614 1.24954 0
    endloop
  endfacet
  facet normal 0.986394 0.164397 -0
    outer loop
      vertex 2.73614 1.24954 0
      vertex 2.73614 1.24954 5
      vertex 2.8448 0.597603 0
    endloop
  endfacet
  facet normal 0.986394 0.164397 0
    outer loop
      vertex 2.73614 1.24954 5
      vertex 2.8448 0.597603 5
      vertex 2.8448 0.597603 0
    endloop
  endfacet
  facet normal 0.554756 -0.832013 0
    outer loop
      vertex 2.8448 0.597603 0
      vertex 2.8448 0.597603 5
      vertex 2.81516 0.577846 0
    endloop
  endfacet
  facet normal 0.554756 -0.832013 0
    outer loop
      vertex 2.8448 0.597603 5
      vertex 2.81516 0.577846 5
      vertex 2.81516 0.577846 0
    endloop
  endfacet
  facet normal 0.999614 -0.0277642 0
    outer loop
      vertex 2.81516 0.577846 0
      vertex 2.81516 0.577846 5
      vertex 2.79541 -0.133347 0
    endloop
  endfacet
  facet normal 0.999614 -0.0277642 0
    outer loop
      vertex 2.81516 0.577846 5
      vertex 2.79541 -0.133347 5
      vertex 2.79541 -0.133347 0
    endloop
  endfacet
  facet normal 0.707158 0.707055 -0
    outer loop
      vertex 2.79541 -0.133347 0
      vertex 2.79541 -0.133347 5
      vertex 2.82504 -0.162983 0
    endloop
  endfacet
  facet normal 0.707158 0.707055 0
    outer loop
      vertex 2.79541 -0.133347 5
      vertex 2.82504 -0.162983 5
      vertex 2.82504 -0.162983 0
    endloop
  endfacet
  facet normal 0.982155 -0.188075 0
    outer loop
      vertex 2.82504 -0.162983 0
      vertex 2.82504 -0.162983 5
      vertex 2.73614 -0.627236 0
    endloop
  endfacet
  facet normal 0.982155 -0.188075 0
    outer loop
      vertex 2.82504 -0.162983 5
      vertex 2.73614 -0.627236 5
      vertex 2.73614 -0.627236 0
    endloop
  endfacet
  facet normal 0.929808 -0.368044 0
    outer loop
      vertex 2.73614 -0.627236 0
      vertex 2.73614 -0.627236 5
      vertex 2.54847 -1.10137 0
    endloop
  endfacet
  facet normal 0.929808 -0.368044 0
    outer loop
      vertex 2.73614 -0.627236 5
      vertex 2.54847 -1.10137 5
      vertex 2.54847 -1.10137 0
    endloop
  endfacet
  facet normal 0.82493 -0.565236 0
    outer loop
      vertex 2.54847 -1.10137 0
      vertex 2.54847 -1.10137 5
      vertex 2.18298 -1.63477 0
    endloop
  endfacet
  facet normal 0.82493 -0.565236 0
    outer loop
      vertex 2.54847 -1.10137 5
      vertex 2.18298 -1.63477 5
      vertex 2.18298 -1.63477 0
    endloop
  endfacet
  facet normal -0.419079 -0.90795 0
    outer loop
      vertex 2.18298 -1.63477 0
      vertex 2.18298 -1.63477 5
      vertex 2.05458 -1.5755 0
    endloop
  endfacet
  facet normal -0.419079 -0.90795 0
    outer loop
      vertex 2.18298 -1.63477 5
      vertex 2.05458 -1.5755 5
      vertex 2.05458 -1.5755 0
    endloop
  endfacet
  facet normal -0.499717 -0.866189 0
    outer loop
      vertex 2.05458 -1.5755 0
      vertex 2.05458 -1.5755 5
      vertex 1.79775 -1.42734 0
    endloop
  endfacet
  facet normal -0.499717 -0.866189 0
    outer loop
      vertex 2.05458 -1.5755 5
      vertex 1.79775 -1.42734 5
      vertex 1.79775 -1.42734 0
    endloop
  endfacet
  facet normal -0.524094 -0.85166 0
    outer loop
      vertex 1.79775 -1.42734 0
      vertex 1.79775 -1.42734 5
      vertex 1.54093 -1.26929 0
    endloop
  endfacet
  facet normal -0.524094 -0.85166 0
    outer loop
      vertex 1.79775 -1.42734 5
      vertex 1.54093 -1.26929 5
      vertex 1.54093 -1.26929 0
    endloop
  endfacet
  facet normal -0.536897 -0.843648 0
    outer loop
      vertex 1.54093 -1.26929 0
      vertex 1.54093 -1.26929 5
      vertex 1.43228 -1.20015 0
    endloop
  endfacet
  facet normal -0.536897 -0.843648 0
    outer loop
      vertex 1.54093 -1.26929 5
      vertex 1.43228 -1.20015 5
      vertex 1.43228 -1.20015 0
    endloop
  endfacet
  facet normal -0.999654 0.0262979 0
    outer loop
      vertex 1.43228 -1.20015 0
      vertex 1.43228 -1.20015 5
      vertex 1.44215 -0.82479 0
    endloop
  endfacet
  facet normal -0.999654 0.0262979 0
    outer loop
      vertex 1.43228 -1.20015 5
      vertex 1.44215 -0.82479 5
      vertex 1.44215 -0.82479 0
    endloop
  endfacet
  facet normal -1 0 0
    outer loop
      vertex 1.44215 -0.82479 0
      vertex 1.44215 -0.82479 5
      vertex 1.44215 -0.479071 0
    endloop
  endfacet
  facet normal -1 0 0
    outer loop
      vertex 1.44215 -0.82479 5
      vertex 1.44215 -0.479071 5
      vertex 1.44215 -0.479071 0
    endloop
  endfacet
  facet normal -0.999541 -0.0302791 0
    outer loop
      vertex 1.44215 -0.479071 0
      vertex 1.44215 -0.479071 5
      vertex 1.43228 -0.153104 0
    endloop
  endfacet
  facet normal -0.999541 -0.0302791 0
    outer loop
      vertex 1.44215 -0.479071 5
      vertex 1.43228 -0.153104 5
      vertex 1.43228 -0.153104 0
    endloop
  endfacet
  facet normal 0.402734 -0.915317 0
    outer loop
      vertex 1.43228 -0.153104 0
      vertex 1.43228 -0.153104 5
      vertex 1.18533 -0.261758 0
    endloop
  endfacet
  facet normal 0.402734 -0.915317 0
    outer loop
      vertex 1.43228 -0.153104 5
      vertex 1.18533 -0.261758 5
      vertex 1.18533 -0.261758 0
    endloop
  endfacet
  facet normal 0.894421 -0.447227 0
    outer loop
      vertex 1.18533 -0.261758 0
      vertex 1.18533 -0.261758 5
      vertex 1.12606 -0.380291 0
    endloop
  endfacet
  facet normal 0.894421 -0.447227 0
    outer loop
      vertex 1.18533 -0.261758 5
      vertex 1.12606 -0.380291 5
      vertex 1.12606 -0.380291 0
    endloop
  endfacet
  facet normal 0.83205 -0.5547 0
    outer loop
      vertex 1.12606 -0.380291 0
      vertex 1.12606 -0.380291 5
      vertex 1.04704 -0.498824 0
    endloop
  endfacet
  facet normal 0.83205 -0.5547 0
    outer loop
      vertex 1.12606 -0.380291 5
      vertex 1.04704 -0.498824 5
      vertex 1.04704 -0.498824 0
    endloop
  endfacet
  facet normal 0.739943 -0.67267 0
    outer loop
      vertex 1.04704 -0.498824 0
      vertex 1.04704 -0.498824 5
      vertex 0.948263 -0.607482 0
    endloop
  endfacet
  facet normal 0.739943 -0.67267 0
    outer loop
      vertex 1.04704 -0.498824 5
      vertex 0.948263 -0.607482 5
      vertex 0.948263 -0.607482 0
    endloop
  endfacet
  facet normal 0.989947 0.141439 -0
    outer loop
      vertex 0.948263 -0.607482 0
      vertex 0.948263 -0.607482 5
      vertex 0.958141 -0.676625 0
    endloop
  endfacet
  facet normal 0.989947 0.141439 0
    outer loop
      vertex 0.948263 -0.607482 5
      vertex 0.958141 -0.676625 5
      vertex 0.958141 -0.676625 0
    endloop
  endfacet
  facet normal 0.992276 -0.124048 0
    outer loop
      vertex 0.958141 -0.676625 0
      vertex 0.958141 -0.676625 5
      vertex 0.948263 -0.755647 0
    endloop
  endfacet
  facet normal 0.992276 -0.124048 0
    outer loop
      vertex 0.958141 -0.676625 5
      vertex 0.948263 -0.755647 5
      vertex 0.948263 -0.755647 0
    endloop
  endfacet
  facet normal 0.0995166 -0.995036 0
    outer loop
      vertex 0.948263 -0.755647 0
      vertex 0.948263 -0.755647 5
      vertex 0.849487 -0.765526 0
    endloop
  endfacet
  facet normal 0.0995166 -0.995036 0
    outer loop
      vertex 0.948263 -0.755647 5
      vertex 0.849487 -0.765526 5
      vertex 0.849487 -0.765526 0
    endloop
  endfacet
  facet normal -0.371419 -0.928466 0
    outer loop
      vertex 0.849487 -0.765526 0
      vertex 0.849487 -0.765526 5
      vertex 0.800098 -0.745768 0
    endloop
  endfacet
  facet normal -0.371419 -0.928466 0
    outer loop
      vertex 0.849487 -0.765526 5
      vertex 0.800098 -0.745768 5
      vertex 0.800098 -0.745768 0
    endloop
  endfacet
  facet normal 0.658522 -0.752561 0
    outer loop
      vertex 0.800098 -0.745768 0
      vertex 0.800098 -0.745768 5
      vertex 0.721076 -0.814916 0
    endloop
  endfacet
  facet normal 0.658522 -0.752561 0
    outer loop
      vertex 0.800098 -0.745768 5
      vertex 0.721076 -0.814916 5
      vertex 0.721076 -0.814916 0
    endloop
  endfacet
  facet normal 0.478842 -0.877901 0
    outer loop
      vertex 0.721076 -0.814916 0
      vertex 0.721076 -0.814916 5
      vertex 0.612422 -0.87418 0
    endloop
  endfacet
  facet normal 0.478842 -0.877901 0
    outer loop
      vertex 0.721076 -0.814916 5
      vertex 0.612422 -0.87418 5
      vertex 0.612422 -0.87418 0
    endloop
  endfacet
  facet normal 0.274717 -0.961525 0
    outer loop
      vertex 0.612422 -0.87418 0
      vertex 0.612422 -0.87418 5
      vertex 0.474131 -0.913691 0
    endloop
  endfacet
  facet normal 0.274717 -0.961525 0
    outer loop
      vertex 0.612422 -0.87418 5
      vertex 0.474131 -0.913691 5
      vertex 0.474131 -0.913691 0
    endloop
  endfacet
  facet normal 0.707107 -0.707107 0
    outer loop
      vertex 0.474131 -0.913691 0
      vertex 0.474131 -0.913691 5
      vertex 0.464252 -0.92357 0
    endloop
  endfacet
  facet normal 0.707107 -0.707107 0
    outer loop
      vertex 0.474131 -0.913691 5
      vertex 0.464252 -0.92357 5
      vertex 0.464252 -0.92357 0
    endloop
  endfacet
  facet normal 0.447292 -0.894388 0
    outer loop
      vertex 0.464252 -0.92357 0
      vertex 0.464252 -0.92357 5
      vertex 0.444499 -0.933449 0
    endloop
  endfacet
  facet normal 0.447292 -0.894388 0
    outer loop
      vertex 0.464252 -0.92357 5
      vertex 0.444499 -0.933449 5
      vertex 0.444499 -0.933449 0
    endloop
  endfacet
  facet normal 0.196091 -0.980586 0
    outer loop
      vertex 0.444499 -0.933449 0
      vertex 0.444499 -0.933449 5
      vertex 0.34572 -0.953202 0
    endloop
  endfacet
  facet normal 0.196091 -0.980586 0
    outer loop
      vertex 0.444499 -0.933449 5
      vertex 0.34572 -0.953202 5
      vertex 0.34572 -0.953202 0
    endloop
  endfacet
  facet normal -0.496145 -0.86824 0
    outer loop
      vertex 0.34572 -0.953202 0
      vertex 0.34572 -0.953202 5
      vertex 0.276577 -0.913691 0
    endloop
  endfacet
  facet normal -0.496145 -0.86824 0
    outer loop
      vertex 0.34572 -0.953202 5
      vertex 0.276577 -0.913691 5
      vertex 0.276577 -0.913691 0
    endloop
  endfacet
  facet normal 0.0905429 -0.995893 0
    outer loop
      vertex 0.276577 -0.913691 0
      vertex 0.276577 -0.913691 5
      vertex 0.167918 -0.92357 0
    endloop
  endfacet
  facet normal 0.0905429 -0.995893 0
    outer loop
      vertex 0.276577 -0.913691 5
      vertex 0.167918 -0.92357 5
      vertex 0.167918 -0.92357 0
    endloop
  endfacet
  facet normal -0.0767067 -0.997054 0
    outer loop
      vertex 0.167918 -0.92357 0
      vertex 0.167918 -0.92357 5
      vertex 0.0395109 -0.913691 0
    endloop
  endfacet
  facet normal -0.0767067 -0.997054 0
    outer loop
      vertex 0.167918 -0.92357 5
      vertex 0.0395109 -0.913691 5
      vertex 0.0395109 -0.913691 0
    endloop
  endfacet
  facet normal -0.254479 -0.967078 0
    outer loop
      vertex 0.0395109 -0.913691 0
      vertex 0.0395109 -0.913691 5
      vertex -0.148165 -0.864306 0
    endloop
  endfacet
  facet normal -0.254479 -0.967078 0
    outer loop
      vertex 0.0395109 -0.913691 5
      vertex -0.148165 -0.864306 5
      vertex -0.148165 -0.864306 0
    endloop
  endfacet
  facet normal -0.773963 -0.633231 0
    outer loop
      vertex -0.148165 -0.864306 0
      vertex -0.148165 -0.864306 5
      vertex -0.237066 -0.755647 0
    endloop
  endfacet
  facet normal -0.773963 -0.633231 0
    outer loop
      vertex -0.148165 -0.864306 5
      vertex -0.237066 -0.755647 5
      vertex -0.237066 -0.755647 0
    endloop
  endfacet
  facet normal -0.668977 -0.743283 0
    outer loop
      vertex -0.237066 -0.755647 0
      vertex -0.237066 -0.755647 5
      vertex -0.335841 -0.666747 0
    endloop
  endfacet
  facet normal -0.668977 -0.743283 0
    outer loop
      vertex -0.237066 -0.755647 5
      vertex -0.335841 -0.666747 5
      vertex -0.335841 -0.666747 0
    endloop
  endfacet
  facet normal -0.524094 -0.85166 0
    outer loop
      vertex -0.335841 -0.666747 0
      vertex -0.335841 -0.666747 5
      vertex -0.464252 -0.587725 0
    endloop
  endfacet
  facet normal -0.524094 -0.85166 0
    outer loop
      vertex -0.335841 -0.666747 5
      vertex -0.464252 -0.587725 5
      vertex -0.464252 -0.587725 0
    endloop
  endfacet
  facet normal 0.0238052 -0.999717 0
    outer loop
      vertex -0.464252 -0.587725 0
      vertex -0.464252 -0.587725 5
      vertex -1.29399 -0.607482 0
    endloop
  endfacet
  facet normal 0.0238052 -0.999717 0
    outer loop
      vertex -0.464252 -0.587725 5
      vertex -1.29399 -0.607482 5
      vertex -1.29399 -0.607482 0
    endloop
  endfacet
  facet normal 0.316228 -0.948683 0
    outer loop
      vertex -1.29399 -0.607482 0
      vertex -1.29399 -0.607482 5
      vertex -1.41252 -0.646993 0
    endloop
  endfacet
  facet normal 0.316228 -0.948683 0
    outer loop
      vertex -1.29399 -0.607482 5
      vertex -1.41252 -0.646993 5
      vertex -1.41252 -0.646993 0
    endloop
  endfacet
  facet normal 1 0 -0
    outer loop
      vertex -1.41252 -0.646993 0
      vertex -1.41252 -0.646993 5
      vertex -1.41252 -1.05198 0
    endloop
  endfacet
  facet normal 1 0 0
    outer loop
      vertex -1.41252 -0.646993 5
      vertex -1.41252 -1.05198 5
      vertex -1.41252 -1.05198 0
    endloop
  endfacet
  facet normal 0.242561 -0.970136 0
    outer loop
      vertex -1.41252 -1.05198 0
      vertex -1.41252 -1.05198 5
      vertex -1.45203 -1.06186 0
    endloop
  endfacet
  facet normal 0.242561 -0.970136 0
    outer loop
      vertex -1.41252 -1.05198 5
      vertex -1.45203 -1.06186 5
      vertex -1.45203 -1.06186 0
    endloop
  endfacet
  facet normal 0.996685 0.0813618 -0
    outer loop
      vertex -1.45203 -1.06186 0
      vertex -1.45203 -1.06186 5
      vertex -1.41252 -1.54587 0
    endloop
  endfacet
  facet normal 0.996685 0.0813618 0
    outer loop
      vertex -1.45203 -1.06186 5
      vertex -1.41252 -1.54587 5
      vertex -1.41252 -1.54587 0
    endloop
  endfacet
  facet normal 0.987008 0.160672 -0
    outer loop
      vertex -1.41252 -1.54587 0
      vertex -1.41252 -1.54587 5
      vertex -1.34338 -1.97062 0
    endloop
  endfacet
  facet normal 0.987008 0.160672 0
    outer loop
      vertex -1.41252 -1.54587 5
      vertex -1.34338 -1.97062 5
      vertex -1.34338 -1.97062 0
    endloop
  endfacet
  facet normal 0.925168 0.379557 -0
    outer loop
      vertex -1.34338 -1.97062 0
      vertex -1.34338 -1.97062 5
      vertex -1.18533 -2.35585 0
    endloop
  endfacet
  facet normal 0.925168 0.379557 0
    outer loop
      vertex -1.34338 -1.97062 5
      vertex -1.18533 -2.35585 5
      vertex -1.18533 -2.35585 0
    endloop
  endfacet
  facet normal 0.540768 -0.841172 0
    outer loop
      vertex -1.18533 -2.35585 0
      vertex -1.18533 -2.35585 5
      vertex -1.32362 -2.44475 0
    endloop
  endfacet
  facet normal 0.540768 -0.841172 0
    outer loop
      vertex -1.18533 -2.35585 5
      vertex -1.32362 -2.44475 5
      vertex -1.32362 -2.44475 0
    endloop
  endfacet
  facet normal -0.590011 -0.807395 0
    outer loop
      vertex -1.32362 -2.44475 0
      vertex -1.32362 -2.44475 5
      vertex -1.58044 -2.25707 0
    endloop
  endfacet
  facet normal -0.590011 -0.807395 0
    outer loop
      vertex -1.32362 -2.44475 5
      vertex -1.58044 -2.25707 5
      vertex -1.58044 -2.25707 0
    endloop
  endfacet
  facet normal -0.600005 -0.799997 0
    outer loop
      vertex -1.58044 -2.25707 0
      vertex -1.58044 -2.25707 5
      vertex -1.81751 -2.07927 0
    endloop
  endfacet
  facet normal -0.600005 -0.799997 0
    outer loop
      vertex -1.58044 -2.25707 5
      vertex -1.81751 -2.07927 5
      vertex -1.81751 -2.07927 0
    endloop
  endfacet
  facet normal -0.688739 -0.725009 0
    outer loop
      vertex -1.81751 -2.07927 0
      vertex -1.81751 -2.07927 5
      vertex -2.01507 -1.89159 0
    endloop
  endfacet
  facet normal -0.688739 -0.725009 0
    outer loop
      vertex -1.81751 -2.07927 5
      vertex -2.01507 -1.89159 5
      vertex -2.01507 -1.89159 0
    endloop
  endfacet
  facet normal -0.786326 -0.617812 0
    outer loop
      vertex -2.01507 -1.89159 0
      vertex -2.01507 -1.89159 5
      vertex -2.23237 -1.61501 0
    endloop
  endfacet
  facet normal -0.786326 -0.617812 0
    outer loop
      vertex -2.01507 -1.89159 5
      vertex -2.23237 -1.61501 5
      vertex -2.23237 -1.61501 0
    endloop
  endfacet
  facet normal -0.863011 -0.505185 0
    outer loop
      vertex -2.23237 -1.61501 0
      vertex -2.23237 -1.61501 5
      vertex -2.46944 -1.21003 0
    endloop
  endfacet
  facet normal -0.863011 -0.505185 0
    outer loop
      vertex -2.23237 -1.61501 5
      vertex -2.46944 -1.21003 5
      vertex -2.46944 -1.21003 0
    endloop
  endfacet
  facet normal -0.905693 -0.423934 0
    outer loop
      vertex -2.46944 -1.21003 0
      vertex -2.46944 -1.21003 5
      vertex -2.68675 -0.745768 0
    endloop
  endfacet
  facet normal -0.905693 -0.423934 0
    outer loop
      vertex -2.46944 -1.21003 5
      vertex -2.68675 -0.745768 5
      vertex -2.68675 -0.745768 0
    endloop
  endfacet
  facet normal -0.952924 -0.303208 0
    outer loop
      vertex -2.68675 -0.745768 0
      vertex -2.68675 -0.745768 5
      vertex -2.82504 -0.311148 0
    endloop
  endfacet
  facet normal -0.952924 -0.303208 0
    outer loop
      vertex -2.68675 -0.745768 5
      vertex -2.82504 -0.311148 5
      vertex -2.82504 -0.311148 0
    endloop
  endfacet
  facet normal -0.316248 0.948676 0
    outer loop
      vertex -2.82504 -0.311148 0
      vertex -2.82504 -0.311148 5
      vertex -2.76577 -0.29139 0
    endloop
  endfacet
  facet normal -0.316248 0.948676 0
    outer loop
      vertex -2.82504 -0.311148 5
      vertex -2.76577 -0.29139 5
      vertex -2.76577 -0.29139 0
    endloop
  endfacet
  facet normal -0.581195 -0.813764 0
    outer loop
      vertex -2.76577 -0.29139 0
      vertex -2.76577 -0.29139 5
      vertex -2.83492 -0.242005 0
    endloop
  endfacet
  facet normal -0.581195 -0.813764 0
    outer loop
      vertex -2.76577 -0.29139 5
      vertex -2.83492 -0.242005 5
      vertex -2.83492 -0.242005 0
    endloop
  endfacet
  facet normal -0.780875 0.624687 0
    outer loop
      vertex -2.83492 -0.242005 0
      vertex -2.83492 -0.242005 5
      vertex -2.79541 -0.192615 0
    endloop
  endfacet
  facet normal -0.780875 0.624687 0
    outer loop
      vertex -2.83492 -0.242005 5
      vertex -2.79541 -0.192615 5
      vertex -2.79541 -0.192615 0
    endloop
  endfacet
  facet normal -0.99788 -0.0650771 0
    outer loop
      vertex -2.79541 -0.192615 0
      vertex -2.79541 -0.192615 5
      vertex -2.82504 0.261758 0
    endloop
  endfacet
  facet normal -0.99788 -0.0650771 0
    outer loop
      vertex -2.79541 -0.192615 5
      vertex -2.82504 0.261758 5
      vertex -2.82504 0.261758 0
    endloop
  endfacet
  facet normal -0.961531 -0.274697 0
    outer loop
      vertex -2.82504 0.261758 0
      vertex -2.82504 0.261758 5
      vertex -2.8448 0.330901 0
    endloop
  endfacet
  facet normal -0.961531 -0.274697 0
    outer loop
      vertex -2.82504 0.261758 5
      vertex -2.8448 0.330901 5
      vertex -2.8448 0.330901 0
    endloop
  endfacet
  facet normal -0.894466 0.447136 0
    outer loop
      vertex -2.8448 0.330901 0
      vertex -2.8448 0.330901 5
      vertex -2.82504 0.370417 0
    endloop
  endfacet
  facet normal -0.894466 0.447136 0
    outer loop
      vertex -2.8448 0.330901 5
      vertex -2.82504 0.370417 5
      vertex -2.82504 0.370417 0
    endloop
  endfacet
  facet normal -1 0 0
    outer loop
      vertex -2.82504 0.370417 0
      vertex -2.82504 0.370417 5
      vertex -2.82504 0.43956 0
    endloop
  endfacet
  facet normal -1 0 0
    outer loop
      vertex -2.82504 0.370417 5
      vertex -2.82504 0.43956 5
      vertex -2.82504 0.43956 0
    endloop
  endfacet
  facet normal -0.94867 -0.316269 0
    outer loop
      vertex -2.82504 0.43956 0
      vertex -2.82504 0.43956 5
      vertex -2.83492 0.469192 0
    endloop
  endfacet
  facet normal -0.94867 -0.316269 0
    outer loop
      vertex -2.82504 0.43956 5
      vertex -2.83492 0.469192 5
      vertex -2.83492 0.469192 0
    endloop
  endfacet
  facet normal -0.921248 0.388977 0
    outer loop
      vertex -2.83492 0.469192 0
      vertex -2.83492 0.469192 5
      vertex -2.64724 0.913691 0
    endloop
  endfacet
  facet normal -0.921248 0.388977 0
    outer loop
      vertex -2.83492 0.469192 5
      vertex -2.64724 0.913691 5
      vertex -2.64724 0.913691 0
    endloop
  endfacet
  facet normal -0.852326 0.523011 0
    outer loop
      vertex -2.64724 0.913691 0
      vertex -2.64724 0.913691 5
      vertex -2.38054 1.34832 0
    endloop
  endfacet
  facet normal -0.852326 0.523011 0
    outer loop
      vertex -2.64724 0.913691 5
      vertex -2.38054 1.34832 5
      vertex -2.38054 1.34832 0
    endloop
  endfacet
  facet normal -0.751624 0.659592 0
    outer loop
      vertex -2.38054 1.34832 0
      vertex -2.38054 1.34832 5
      vertex -1.9558 1.83233 0
    endloop
  endfacet
  facet normal -0.751624 0.659592 0
    outer loop
      vertex -2.38054 1.34832 5
      vertex -1.9558 1.83233 5
      vertex -1.9558 1.83233 0
    endloop
  endfacet
  facet normal 0.475516 0.879707 -0
    outer loop
      vertex -1.9558 1.83233 0
      vertex -1.9558 1.83233 5
      vertex -1.22484 1.43722 0
    endloop
  endfacet
  facet normal 0.475516 0.879707 0
    outer loop
      vertex -1.9558 1.83233 5
      vertex -1.22484 1.43722 5
      vertex -1.22484 1.43722 0
    endloop
  endfacet
  facet normal 0.97561 -0.219512 0
    outer loop
      vertex -1.22484 1.43722 0
      vertex -1.22484 1.43722 5
      vertex -1.31374 1.0421 0
    endloop
  endfacet
  facet normal 0.97561 -0.219512 0
    outer loop
      vertex -1.22484 1.43722 5
      vertex -1.31374 1.0421 5
      vertex -1.31374 1.0421 0
    endloop
  endfacet
  facet normal 0.979458 -0.201649 0
    outer loop
      vertex -1.31374 1.0421 0
      vertex -1.31374 1.0421 5
      vertex -1.38289 0.706257 0
    endloop
  endfacet
  facet normal 0.979458 -0.201649 0
    outer loop
      vertex -1.31374 1.0421 5
      vertex -1.38289 0.706257 5
      vertex -1.38289 0.706257 0
    endloop
  endfacet
  facet normal 0.994692 -0.102895 0
    outer loop
      vertex -1.38289 0.706257 0
      vertex -1.38289 0.706257 5
      vertex -1.41252 0.419802 0
    endloop
  endfacet
  facet normal 0.994692 -0.102895 0
    outer loop
      vertex -1.38289 0.706257 5
      vertex -1.41252 0.419802 5
      vertex -1.41252 0.419802 0
    endloop
  endfacet
  facet normal 0.351112 0.936333 -0
    outer loop
      vertex -1.41252 0.419802 0
      vertex -1.41252 0.419802 5
      vertex -1.3335 0.39017 0
    endloop
  endfacet
  facet normal 0.351112 0.936333 0
    outer loop
      vertex -1.41252 0.419802 5
      vertex -1.3335 0.39017 5
      vertex -1.3335 0.39017 0
    endloop
  endfacet
  facet normal 0.358983 0.933344 -0
    outer loop
      vertex -1.3335 0.39017 0
      vertex -1.3335 0.39017 5
      vertex -1.20509 0.34078 0
    endloop
  endfacet
  facet normal 0.358983 0.933344 0
    outer loop
      vertex -1.3335 0.39017 5
      vertex -1.20509 0.34078 5
      vertex -1.20509 0.34078 0
    endloop
  endfacet
  facet normal 0.362445 0.932005 -0
    outer loop
      vertex -1.20509 0.34078 0
      vertex -1.20509 0.34078 5
      vertex -1.02729 0.271637 0
    endloop
  endfacet
  facet normal 0.362445 0.932005 0
    outer loop
      vertex -1.20509 0.34078 5
      vertex -1.02729 0.271637 5
      vertex -1.02729 0.271637 0
    endloop
  endfacet
  facet normal -0.221624 0.975132 0
    outer loop
      vertex -1.02729 0.271637 0
      vertex -1.02729 0.271637 5
      vertex -0.809976 0.321027 0
    endloop
  endfacet
  facet normal -0.221624 0.975132 0
    outer loop
      vertex -1.02729 0.271637 5
      vertex -0.809976 0.321027 5
      vertex -0.809976 0.321027 0
    endloop
  endfacet
  facet normal -0.98387 0.178887 0
    outer loop
      vertex -0.809976 0.321027 0
      vertex -0.809976 0.321027 5
      vertex -0.770465 0.538335 0
    endloop
  endfacet
  facet normal -0.98387 0.178887 0
    outer loop
      vertex -0.809976 0.321027 5
      vertex -0.770465 0.538335 5
      vertex -0.770465 0.538335 0
    endloop
  endfacet
  facet normal -0.316248 0.948676 0
    outer loop
      vertex -0.770465 0.538335 0
      vertex -0.770465 0.538335 5
      vertex -0.711197 0.558093 0
    endloop
  endfacet
  facet normal -0.316248 0.948676 0
    outer loop
      vertex -0.770465 0.538335 5
      vertex -0.711197 0.558093 5
      vertex -0.711197 0.558093 0
    endloop
  endfacet
  facet normal -0.848003 0.529991 0
    outer loop
      vertex -0.711197 0.558093 0
      vertex -0.711197 0.558093 5
      vertex -0.612422 0.716136 0
    endloop
  endfacet
  facet normal -0.848003 0.529991 0
    outer loop
      vertex -0.711197 0.558093 5
      vertex -0.612422 0.716136 5
      vertex -0.612422 0.716136 0
    endloop
  endfacet
  facet normal -0.371419 0.928466 0
    outer loop
      vertex -0.612422 0.716136 0
      vertex -0.612422 0.716136 5
      vertex -0.563032 0.735894 0
    endloop
  endfacet
  facet normal -0.371419 0.928466 0
    outer loop
      vertex -0.612422 0.716136 5
      vertex -0.563032 0.735894 5
      vertex -0.563032 0.735894 0
    endloop
  endfacet
  facet normal -0.129333 0.991601 0
    outer loop
      vertex -0.563032 0.735894 0
      vertex -0.563032 0.735894 5
      vertex -0.335841 0.765526 0
    endloop
  endfacet
  facet normal -0.129333 0.991601 0
    outer loop
      vertex -0.563032 0.735894 5
      vertex -0.335841 0.765526 5
      vertex -0.335841 0.765526 0
    endloop
  endfacet
  facet normal -0.664377 0.747397 0
    outer loop
      vertex -0.335841 0.765526 0
      vertex -0.335841 0.765526 5
      vertex -0.246944 0.844548 0
    endloop
  endfacet
  facet normal -0.664377 0.747397 0
    outer loop
      vertex -0.335841 0.765526 5
      vertex -0.246944 0.844548 5
      vertex -0.246944 0.844548 0
    endloop
  endfacet
  facet normal -0.460324 0.887751 0
    outer loop
      vertex -0.246944 0.844548 0
      vertex -0.246944 0.844548 5
      vertex 0.0197533 0.982838 0
    endloop
  endfacet
  facet normal -0.460324 0.887751 0
    outer loop
      vertex -0.246944 0.844548 5
      vertex 0.0197533 0.982838 5
      vertex 0.0197533 0.982838 0
    endloop
  endfacet
  facet normal -0.94867 0.316269 0
    outer loop
      vertex 0.0197533 0.982838 0
      vertex 0.0197533 0.982838 5
      vertex 0.0296321 1.01247 0
    endloop
  endfacet
  facet normal -0.94867 0.316269 0
    outer loop
      vertex 0.0197533 0.982838 5
      vertex 0.0296321 1.01247 5
      vertex 0.0296321 1.01247 0
    endloop
  endfacet
  facet normal -0.1961 0.980584 0
    outer loop
      vertex 0.0296321 1.01247 0
      vertex 0.0296321 1.01247 5
      vertex 0.128407 1.03222 0
    endloop
  endfacet
  facet normal -0.1961 0.980584 0
    outer loop
      vertex 0.0296321 1.01247 5
      vertex 0.128407 1.03222 5
      vertex 0.128407 1.03222 0
    endloop
  endfacet
  facet normal 0.116828 0.993152 -0
    outer loop
      vertex 0.128407 1.03222 0
      vertex 0.128407 1.03222 5
      vertex 0.29633 1.01247 0
    endloop
  endfacet
  facet normal 0.116828 0.993152 0
    outer loop
      vertex 0.128407 1.03222 5
      vertex 0.29633 1.01247 5
      vertex 0.29633 1.01247 0
    endloop
  endfacet
  facet normal 0.141434 0.989948 -0
    outer loop
      vertex 0.29633 1.01247 0
      vertex 0.29633 1.01247 5
      vertex 0.43462 0.992713 0
    endloop
  endfacet
  facet normal 0.141434 0.989948 0
    outer loop
      vertex 0.29633 1.01247 5
      vertex 0.43462 0.992713 5
      vertex 0.43462 0.992713 0
    endloop
  endfacet
  facet normal 0.123995 0.992283 -0
    outer loop
      vertex 0.43462 0.992713 0
      vertex 0.43462 0.992713 5
      vertex 0.513642 0.982838 0
    endloop
  endfacet
  facet normal 0.123995 0.992283 0
    outer loop
      vertex 0.43462 0.992713 5
      vertex 0.513642 0.982838 5
      vertex 0.513642 0.982838 0
    endloop
  endfacet
  facet normal 0.152072 0.988369 -0
    outer loop
      vertex 0.513642 0.982838 0
      vertex 0.513642 0.982838 5
      vertex 0.642054 0.963081 0
    endloop
  endfacet
  facet normal 0.152072 0.988369 0
    outer loop
      vertex 0.513642 0.982838 5
      vertex 0.642054 0.963081 5
      vertex 0.642054 0.963081 0
    endloop
  endfacet
  facet normal 0.196133 0.980577 -0
    outer loop
      vertex 0.642054 0.963081 0
      vertex 0.642054 0.963081 5
      vertex 0.691444 0.953202 0
    endloop
  endfacet
  facet normal 0.196133 0.980577 0
    outer loop
      vertex 0.642054 0.963081 5
      vertex 0.691444 0.953202 5
      vertex 0.691444 0.953202 0
    endloop
  endfacet
  facet normal 0.707107 0.707107 -0
    outer loop
      vertex 0.691444 0.953202 0
      vertex 0.691444 0.953202 5
      vertex 0.701318 0.943327 0
    endloop
  endfacet
  facet normal 0.707107 0.707107 0
    outer loop
      vertex 0.691444 0.953202 5
      vertex 0.701318 0.943327 5
      vertex 0.701318 0.943327 0
    endloop
  endfacet
  facet normal 0.799969 0.600042 -0
    outer loop
      vertex 0.701318 0.943327 0
      vertex 0.701318 0.943327 5
      vertex 0.730955 0.903816 0
    endloop
  endfacet
  facet normal 0.799969 0.600042 0
    outer loop
      vertex 0.701318 0.943327 5
      vertex 0.730955 0.903816 5
      vertex 0.730955 0.903816 0
    endloop
  endfacet
  facet normal 0.707158 0.707055 -0
    outer loop
      vertex 0.730955 0.903816 0
      vertex 0.730955 0.903816 5
      vertex 0.760587 0.87418 0
    endloop
  endfacet
  facet normal 0.707158 0.707055 0
    outer loop
      vertex 0.730955 0.903816 5
      vertex 0.760587 0.87418 5
      vertex 0.760587 0.87418 0
    endloop
  endfacet
  facet normal 0.832013 0.554756 -0
    outer loop
      vertex 0.760587 0.87418 0
      vertex 0.760587 0.87418 5
      vertex 0.780344 0.844548 0
    endloop
  endfacet
  facet normal 0.832013 0.554756 0
    outer loop
      vertex 0.760587 0.87418 5
      vertex 0.780344 0.844548 5
      vertex 0.780344 0.844548 0
    endloop
  endfacet
  facet normal 0 1 0
    outer loop
      vertex 0.780344 0.844548 0
      vertex 0.780344 0.844548 5
      vertex 0.809976 0.844548 0
    endloop
  endfacet
  facet normal -0 1 0
    outer loop
      vertex 0.780344 0.844548 5
      vertex 0.809976 0.844548 5
      vertex 0.809976 0.844548 0
    endloop
  endfacet
  facet normal 0.478869 0.877886 -0
    outer loop
      vertex 0.809976 0.844548 0
      vertex 0.809976 0.844548 5
      vertex 0.91863 0.785279 0
    endloop
  endfacet
  facet normal 0.478869 0.877886 0
    outer loop
      vertex 0.809976 0.844548 5
      vertex 0.91863 0.785279 5
      vertex 0.91863 0.785279 0
    endloop
  endfacet
  facet normal 0.0270083 0.999635 -0
    outer loop
      vertex 0.91863 0.785279 0
      vertex 0.91863 0.785279 5
      vertex 1.28411 0.775405 0
    endloop
  endfacet
  facet normal 0.0270083 0.999635 0
    outer loop
      vertex 0.91863 0.785279 5
      vertex 1.28411 0.775405 5
      vertex 1.28411 0.775405 0
    endloop
  endfacet
  facet normal -0.999056 0.0434417 0
    outer loop
      vertex 1.28411 0.775405 0
      vertex 1.28411 0.775405 5
      vertex 1.30387 1.22978 0
    endloop
  endfacet
  facet normal -0.999056 0.0434417 0
    outer loop
      vertex 1.28411 0.775405 5
      vertex 1.30387 1.22978 5
      vertex 1.30387 1.22978 0
    endloop
  endfacet
  facet normal -0.371349 0.928493 0
    outer loop
      vertex 1.30387 1.22978 0
      vertex 1.30387 1.22978 5
      vertex 1.35326 1.24954 0
    endloop
  endfacet
  facet normal -0.371349 0.928493 0
    outer loop
      vertex 1.30387 1.22978 5
      vertex 1.35326 1.24954 5
      vertex 1.35326 1.24954 0
    endloop
  endfacet
  facet normal -0.97855 0.206009 0
    outer loop
      vertex 1.35326 1.24954 0
      vertex 1.35326 1.24954 5
      vertex 1.43228 1.62489 0
    endloop
  endfacet
  facet normal -0.97855 0.206009 0
    outer loop
      vertex 1.35326 1.24954 5
      vertex 1.43228 1.62489 5
      vertex 1.43228 1.62489 0
    endloop
  endfacet
  facet normal -0.993884 0.110432 0
    outer loop
      vertex 1.43228 1.62489 0
      vertex 1.43228 1.62489 5
      vertex 1.47179 1.98049 0
    endloop
  endfacet
  facet normal -0.993884 0.110432 0
    outer loop
      vertex 1.43228 1.62489 5
      vertex 1.47179 1.98049 5
      vertex 1.47179 1.98049 0
    endloop
  endfacet
  facet normal -1 0 0
    outer loop
      vertex 1.47179 1.98049 0
      vertex 1.47179 1.98049 5
      vertex 1.47179 2.36573 0
    endloop
  endfacet
  facet normal -1 0 0
    outer loop
      vertex 1.47179 1.98049 5
      vertex 1.47179 2.36573 5
      vertex 1.47179 2.36573 0
    endloop
  endfacet
  facet normal -0.470591 0.882352 0
    outer loop
      vertex 1.47179 2.36573 0
      vertex 1.47179 2.36573 5
      vertex 1.61995 2.44475 0
    endloop
  endfacet
  facet normal -0.470591 0.882352 0
    outer loop
      vertex 1.47179 2.36573 5
      vertex 1.61995 2.44475 5
      vertex 1.61995 2.44475 0
    endloop
  endfacet
  facet normal 0 1 0
    outer loop
      vertex 1.61995 2.44475 0
      vertex 1.61995 2.44475 5
      vertex 1.65946 2.44475 0
    endloop
  endfacet
  facet normal -0 1 0
    outer loop
      vertex 1.61995 2.44475 5
      vertex 1.65946 2.44475 5
      vertex 1.65946 2.44475 0
    endloop
  endfacet
  facet normal 0.435167 0.90035 -0
    outer loop
      vertex 1.65946 2.44475 0
      vertex 1.65946 2.44475 5
      vertex 2.25213 2.15829 0
    endloop
  endfacet
  facet normal 0.435167 0.90035 0
    outer loop
      vertex 1.65946 2.44475 5
      vertex 2.25213 2.15829 5
      vertex 2.25213 2.15829 0
    endloop
  endfacet
endsolid OpenSCAD_Model
