solid OpenSCAD_Model
  facet normal 0 0 -1
    outer loop
      vertex 1.66934 -2.26201 0
      vertex 2.62749 -0.207429 0
      vertex 2.32128 -3.05223 0
    endloop
  endfacet
  facet normal 0 0 -1
    outer loop
      vertex 1.66934 -2.26201 0
      vertex 1.49154 -0.217308 0
      vertex 2.62749 -0.207429 0
    endloop
  endfacet
  facet normal 0 -0 -1
    outer loop
      vertex -0.0987752 0.790219 0
      vertex 0.254351 0.723543 0
      vertex -0.661807 -0.671686 0
    endloop
  endfacet
  facet normal 0 0 -1
    outer loop
      vertex -1.13594 0.187676 0
      vertex -0.91863 0.34572 0
      vertex -1.12606 -0.286455 0
    endloop
  endfacet
  facet normal -0 0 -1
    outer loop
      vertex 0.543274 -0.671686 0
      vertex 0.244473 -0.864306 0
      vertex 0.503763 0.563032 0
    endloop
  endfacet
  facet normal 0 0 -1
    outer loop
      vertex 0.244473 -0.864306 0
      vertex -0.0395109 -0.928509 0
      vertex -0.0592643 -0.928509 0
    endloop
  endfacet
  facet normal -0 0 -1
    outer loop
      vertex 0.244473 -0.864306 0
      vertex -0.0592643 -0.928509 0
      vertex -0.367945 -0.864306 0
    endloop
  endfacet
  facet normal 0 0 -1
    outer loop
      vertex 0.244473 -0.864306 0
      vertex -0.367945 -0.864306 0
      vertex -0.661807 -0.671686 0
    endloop
  endfacet
  facet normal -0 0 -1
    outer loop
      vertex 0.503763 0.563032 0
      vertex -0.661807 -0.671686 0
      vertex 0.254351 0.723543 0
    endloop
  endfacet
  facet normal 0 -0 -1
    outer loop
      vertex -0.128407 0.790219 0
      vertex -0.0987752 0.790219 0
      vertex -0.740833 0.493889 0
    endloop
  endfacet
  facet normal 0 -0 -1
    outer loop
      vertex -1.13594 0.187676 0
      vertex -1.12606 -0.286455 0
      vertex -1.61007 -0.237066 0
    endloop
  endfacet
  facet normal 0 0 -1
    outer loop
      vertex -1.13594 0.187676 0
      vertex -1.61007 -0.237066 0
      vertex -1.61995 0.158044 0
    endloop
  endfacet
  facet normal -0 0 -1
    outer loop
      vertex -1.63971 2.47932 0
      vertex -2.62749 0.207429 0
      vertex -2.38054 3.01272 0
    endloop
  endfacet
  facet normal 0 0 -1
    outer loop
      vertex -1.61995 0.158044 0
      vertex -2.62749 0.207429 0
      vertex -1.63971 2.47932 0
    endloop
  endfacet
  facet normal 0 0 -1
    outer loop
      vertex -2.39042 -3.03248 0
      vertex -2.62749 0.207429 0
      vertex -1.61995 -2.09409 0
    endloop
  endfacet
  facet normal 0 0 -1
    outer loop
      vertex -2.62749 0.207429 0
      vertex -1.61007 -0.237066 0
      vertex -1.61995 -2.09409 0
    endloop
  endfacet
  facet normal -0 0 -1
    outer loop
      vertex -0.809976 0.404988 0
      vertex -0.91863 0.34572 0
      vertex -0.91863 0.948263 0
    endloop
  endfacet
  facet normal 0 -0 -1
    outer loop
      vertex -0.809976 0.404988 0
      vertex -0.809976 -0.48401 0
      vertex -0.91863 0.34572 0
    endloop
  endfacet
  facet normal 0 0 -1
    outer loop
      vertex -1.61007 -0.237066 0
      vertex -2.62749 0.207429 0
      vertex -1.61995 0.158044 0
    endloop
  endfacet
  facet normal 0 -0 -1
    outer loop
      vertex -0.91863 0.34572 0
      vertex -0.809976 -0.48401 0
      vertex -1.12606 -0.286455 0
    endloop
  endfacet
  facet normal 0 0 -1
    outer loop
      vertex -0.91863 0.948263 0
      vertex -0.809976 0.948263 0
      vertex -0.809976 0.404988 0
    endloop
  endfacet
  facet normal 0 0 -1
    outer loop
      vertex -0.740833 0.493889 0
      vertex -0.642054 0.602543 0
      vertex -0.409928 0.743301 0
    endloop
  endfacet
  facet normal 0 0 -1
    outer loop
      vertex -0.661807 -0.671686 0
      vertex -0.809976 -0.48401 0
      vertex -0.0987752 0.790219 0
    endloop
  endfacet
  facet normal 0 0 -1
    outer loop
      vertex -0.740833 0.493889 0
      vertex -0.809976 -0.48401 0
      vertex -0.809976 0.404988 0
    endloop
  endfacet
  facet normal 0 -0 -1
    outer loop
      vertex -0.409928 0.743301 0
      vertex -0.128407 0.790219 0
      vertex -0.740833 0.493889 0
    endloop
  endfacet
  facet normal 0 0 -1
    outer loop
      vertex -0.809976 -0.48401 0
      vertex -0.740833 0.493889 0
      vertex -0.0987752 0.790219 0
    endloop
  endfacet
  facet normal 0 0 -1
    outer loop
      vertex 0.503763 0.563032 0
      vertex 0.244473 -0.864306 0
      vertex -0.661807 -0.671686 0
    endloop
  endfacet
  facet normal -0 0 -1
    outer loop
      vertex 0.701318 -0.454374 0
      vertex 0.543274 -0.671686 0
      vertex 0.503763 0.563032 0
    endloop
  endfacet
  facet normal 0 0 -1
    outer loop
      vertex 0.701318 -0.454374 0
      vertex 0.503763 0.563032 0
      vertex 0.701318 0.355598 0
    endloop
  endfacet
  facet normal 0 0 -1
    outer loop
      vertex 0.711197 0.34572 0
      vertex 1.11619 0.148165 0
      vertex 1.08655 -0.256819 0
    endloop
  endfacet
  facet normal 0 -0 -1
    outer loop
      vertex 1.5113 0.138286 0
      vertex 2.62749 -0.207429 0
      vertex 1.49154 -0.217308 0
    endloop
  endfacet
  facet normal 0 0 -1
    outer loop
      vertex 0.701318 -0.454374 0
      vertex 0.701318 0.355598 0
      vertex 0.711197 0.34572 0
    endloop
  endfacet
  facet normal 0 0 -1
    outer loop
      vertex 0.701318 -0.454374 0
      vertex 0.711197 0.34572 0
      vertex 1.08655 -0.256819 0
    endloop
  endfacet
  facet normal 0 0 -1
    outer loop
      vertex 1.49154 -0.217308 0
      vertex 1.11619 0.148165 0
      vertex 1.5113 0.138286 0
    endloop
  endfacet
  facet normal -0 0 -1
    outer loop
      vertex 1.49154 -0.217308 0
      vertex 1.08655 -0.256819 0
      vertex 1.11619 0.148165 0
    endloop
  endfacet
  facet normal 0 0 -1
    outer loop
      vertex 1.50142 2.4892 0
      vertex 2.62749 -0.207429 0
      vertex 1.5113 0.138286 0
    endloop
  endfacet
  facet normal 0 -0 -1
    outer loop
      vertex 2.27189 3.05223 0
      vertex 2.62749 -0.207429 0
      vertex 1.50142 2.4892 0
    endloop
  endfacet
  facet normal 0 -0 1
    outer loop
      vertex 2.32128 -3.05223 5
      vertex 2.62749 -0.207429 5
      vertex 1.66934 -2.26201 5
    endloop
  endfacet
  facet normal 0 0 1
    outer loop
      vertex 2.62749 -0.207429 5
      vertex 1.49154 -0.217308 5
      vertex 1.66934 -2.26201 5
    endloop
  endfacet
  facet normal 0 0 1
    outer loop
      vertex -0.661807 -0.671686 5
      vertex 0.254351 0.723543 5
      vertex -0.0987752 0.790219 5
    endloop
  endfacet
  facet normal 0 -0 1
    outer loop
      vertex -1.12606 -0.286455 5
      vertex -0.91863 0.34572 5
      vertex -1.13594 0.187676 5
    endloop
  endfacet
  facet normal 0 0 1
    outer loop
      vertex 0.503763 0.563032 5
      vertex 0.244473 -0.864306 5
      vertex 0.543274 -0.671686 5
    endloop
  endfacet
  facet normal 0 0 1
    outer loop
      vertex -0.0592643 -0.928509 5
      vertex -0.0395109 -0.928509 5
      vertex 0.244473 -0.864306 5
    endloop
  endfacet
  facet normal -0 0 1
    outer loop
      vertex -0.367945 -0.864306 5
      vertex -0.0592643 -0.928509 5
      vertex 0.244473 -0.864306 5
    endloop
  endfacet
  facet normal 0 0 1
    outer loop
      vertex -0.661807 -0.671686 5
      vertex -0.367945 -0.864306 5
      vertex 0.244473 -0.864306 5
    endloop
  endfacet
  facet normal 0 0 1
    outer loop
      vertex 0.254351 0.723543 5
      vertex -0.661807 -0.671686 5
      vertex 0.503763 0.563032 5
    endloop
  endfacet
  facet normal 0 0 1
    outer loop
      vertex -0.740833 0.493889 5
      vertex -0.0987752 0.790219 5
      vertex -0.128407 0.790219 5
    endloop
  endfacet
  facet normal -0 0 1
    outer loop
      vertex -1.61007 -0.237066 5
      vertex -1.12606 -0.286455 5
      vertex -1.13594 0.187676 5
    endloop
  endfacet
  facet normal -0 0 1
    outer loop
      vertex -1.61995 0.158044 5
      vertex -1.61007 -0.237066 5
      vertex -1.13594 0.187676 5
    endloop
  endfacet
  facet normal 0 0 1
    outer loop
      vertex -2.38054 3.01272 5
      vertex -2.62749 0.207429 5
      vertex -1.63971 2.47932 5
    endloop
  endfacet
  facet normal 0 0 1
    outer loop
      vertex -1.63971 2.47932 5
      vertex -2.62749 0.207429 5
      vertex -1.61995 0.158044 5
    endloop
  endfacet
  facet normal 0 0 1
    outer loop
      vertex -1.61995 -2.09409 5
      vertex -2.62749 0.207429 5
      vertex -2.39042 -3.03248 5
    endloop
  endfacet
  facet normal 0 -0 1
    outer loop
      vertex -1.61995 -2.09409 5
      vertex -1.61007 -0.237066 5
      vertex -2.62749 0.207429 5
    endloop
  endfacet
  facet normal 0 0 1
    outer loop
      vertex -0.91863 0.948263 5
      vertex -0.91863 0.34572 5
      vertex -0.809976 0.404988 5
    endloop
  endfacet
  facet normal -0 0 1
    outer loop
      vertex -0.91863 0.34572 5
      vertex -0.809976 -0.48401 5
      vertex -0.809976 0.404988 5
    endloop
  endfacet
  facet normal 0 0 1
    outer loop
      vertex -1.61995 0.158044 5
      vertex -2.62749 0.207429 5
      vertex -1.61007 -0.237066 5
    endloop
  endfacet
  facet normal -0 0 1
    outer loop
      vertex -1.12606 -0.286455 5
      vertex -0.809976 -0.48401 5
      vertex -0.91863 0.34572 5
    endloop
  endfacet
  facet normal 0 -0 1
    outer loop
      vertex -0.809976 0.404988 5
      vertex -0.809976 0.948263 5
      vertex -0.91863 0.948263 5
    endloop
  endfacet
  facet normal 0 0 1
    outer loop
      vertex -0.409928 0.743301 5
      vertex -0.642054 0.602543 5
      vertex -0.740833 0.493889 5
    endloop
  endfacet
  facet normal 0 0 1
    outer loop
      vertex -0.0987752 0.790219 5
      vertex -0.809976 -0.48401 5
      vertex -0.661807 -0.671686 5
    endloop
  endfacet
  facet normal -0 0 1
    outer loop
      vertex -0.809976 0.404988 5
      vertex -0.809976 -0.48401 5
      vertex -0.740833 0.493889 5
    endloop
  endfacet
  facet normal 0 0 1
    outer loop
      vertex -0.740833 0.493889 5
      vertex -0.128407 0.790219 5
      vertex -0.409928 0.743301 5
    endloop
  endfacet
  facet normal 0 0 1
    outer loop
      vertex -0.0987752 0.790219 5
      vertex -0.740833 0.493889 5
      vertex -0.809976 -0.48401 5
    endloop
  endfacet
  facet normal -0 0 1
    outer loop
      vertex -0.661807 -0.671686 5
      vertex 0.244473 -0.864306 5
      vertex 0.503763 0.563032 5
    endloop
  endfacet
  facet normal 0 0 1
    outer loop
      vertex 0.503763 0.563032 5
      vertex 0.543274 -0.671686 5
      vertex 0.701318 -0.454374 5
    endloop
  endfacet
  facet normal 0 0 1
    outer loop
      vertex 0.701318 0.355598 5
      vertex 0.503763 0.563032 5
      vertex 0.701318 -0.454374 5
    endloop
  endfacet
  facet normal 0 -0 1
    outer loop
      vertex 1.08655 -0.256819 5
      vertex 1.11619 0.148165 5
      vertex 0.711197 0.34572 5
    endloop
  endfacet
  facet normal 0 0 1
    outer loop
      vertex 1.49154 -0.217308 5
      vertex 2.62749 -0.207429 5
      vertex 1.5113 0.138286 5
    endloop
  endfacet
  facet normal 0 0 1
    outer loop
      vertex 0.711197 0.34572 5
      vertex 0.701318 0.355598 5
      vertex 0.701318 -0.454374 5
    endloop
  endfacet
  facet normal 0 0 1
    outer loop
      vertex 1.08655 -0.256819 5
      vertex 0.711197 0.34572 5
      vertex 0.701318 -0.454374 5
    endloop
  endfacet
  facet normal 0 0 1
    outer loop
      vertex 1.5113 0.138286 5
      vertex 1.11619 0.148165 5
      vertex 1.49154 -0.217308 5
    endloop
  endfacet
  facet normal 0 0 1
    outer loop
      vertex 1.11619 0.148165 5
      vertex 1.08655 -0.256819 5
      vertex 1.49154 -0.217308 5
    endloop
  endfacet
  facet normal -0 -0 1
    outer loop
      vertex 1.5113 0.138286 5
      vertex 2.62749 -0.207429 5
      vertex 1.50142 2.4892 5
    endloop
  endfacet
  facet normal -0 0 1
    outer loop
      vertex 1.50142 2.4892 5
      vertex 2.62749 -0.207429 5
      vertex 2.27189 3.05223 5
    endloop
  endfacet
  facet normal 0.994257 -0.107021 0
    outer loop
      vertex 2.62749 -0.207429 0
      vertex 2.62749 -0.207429 5
      vertex 2.32128 -3.05223 0
    endloop
  endfacet
  facet normal 0.994257 -0.107021 0
    outer loop
      vertex 2.62749 -0.207429 5
      vertex 2.32128 -3.05223 5
      vertex 2.32128 -3.05223 0
    endloop
  endfacet
  facet normal -0.771372 -0.636384 0
    outer loop
      vertex 2.32128 -3.05223 0
      vertex 2.32128 -3.05223 5
      vertex 1.66934 -2.26201 0
    endloop
  endfacet
  facet normal -0.771372 -0.636384 0
    outer loop
      vertex 2.32128 -3.05223 5
      vertex 1.66934 -2.26201 5
      vertex 1.66934 -2.26201 0
    endloop
  endfacet
  facet normal -0.996241 -0.0866302 0
    outer loop
      vertex 1.66934 -2.26201 0
      vertex 1.66934 -2.26201 5
      vertex 1.49154 -0.217308 0
    endloop
  endfacet
  facet normal -0.996241 -0.0866302 0
    outer loop
      vertex 1.66934 -2.26201 5
      vertex 1.49154 -0.217308 5
      vertex 1.49154 -0.217308 0
    endloop
  endfacet
  facet normal 0.0970997 -0.995275 0
    outer loop
      vertex 1.49154 -0.217308 0
      vertex 1.49154 -0.217308 5
      vertex 1.08655 -0.256819 0
    endloop
  endfacet
  facet normal 0.0970997 -0.995275 0
    outer loop
      vertex 1.49154 -0.217308 5
      vertex 1.08655 -0.256819 5
      vertex 1.08655 -0.256819 0
    endloop
  endfacet
  facet normal 0.456314 -0.889819 0
    outer loop
      vertex 1.08655 -0.256819 0
      vertex 1.08655 -0.256819 5
      vertex 0.701318 -0.454374 0
    endloop
  endfacet
  facet normal 0.456314 -0.889819 0
    outer loop
      vertex 1.08655 -0.256819 5
      vertex 0.701318 -0.454374 5
      vertex 0.701318 -0.454374 0
    endloop
  endfacet
  facet normal 0.808739 -0.588168 0
    outer loop
      vertex 0.701318 -0.454374 0
      vertex 0.701318 -0.454374 5
      vertex 0.543274 -0.671686 0
    endloop
  endfacet
  facet normal 0.808739 -0.588168 0
    outer loop
      vertex 0.701318 -0.454374 5
      vertex 0.543274 -0.671686 5
      vertex 0.543274 -0.671686 0
    endloop
  endfacet
  facet normal 0.541818 -0.840496 0
    outer loop
      vertex 0.543274 -0.671686 0
      vertex 0.543274 -0.671686 5
      vertex 0.244473 -0.864306 0
    endloop
  endfacet
  facet normal 0.541818 -0.840496 0
    outer loop
      vertex 0.543274 -0.671686 5
      vertex 0.244473 -0.864306 5
      vertex 0.244473 -0.864306 0
    endloop
  endfacet
  facet normal 0.220517 -0.975383 0
    outer loop
      vertex 0.244473 -0.864306 0
      vertex 0.244473 -0.864306 5
      vertex -0.0395109 -0.928509 0
    endloop
  endfacet
  facet normal 0.220517 -0.975383 0
    outer loop
      vertex 0.244473 -0.864306 5
      vertex -0.0395109 -0.928509 5
      vertex -0.0395109 -0.928509 0
    endloop
  endfacet
  facet normal 0 -1 0
    outer loop
      vertex -0.0395109 -0.928509 0
      vertex -0.0395109 -0.928509 5
      vertex -0.0592643 -0.928509 0
    endloop
  endfacet
  facet normal -0 -1 0
    outer loop
      vertex -0.0395109 -0.928509 5
      vertex -0.0592643 -0.928509 5
      vertex -0.0592643 -0.928509 0
    endloop
  endfacet
  facet normal -0.203636 -0.979047 0
    outer loop
      vertex -0.0592643 -0.928509 0
      vertex -0.0592643 -0.928509 5
      vertex -0.367945 -0.864306 0
    endloop
  endfacet
  facet normal -0.203636 -0.979047 0
    outer loop
      vertex -0.0592643 -0.928509 5
      vertex -0.367945 -0.864306 5
      vertex -0.367945 -0.864306 0
    endloop
  endfacet
  facet normal -0.548204 -0.836345 0
    outer loop
      vertex -0.367945 -0.864306 0
      vertex -0.367945 -0.864306 5
      vertex -0.661807 -0.671686 0
    endloop
  endfacet
  facet normal -0.548204 -0.836345 0
    outer loop
      vertex -0.367945 -0.864306 5
      vertex -0.661807 -0.671686 5
      vertex -0.661807 -0.671686 0
    endloop
  endfacet
  facet normal -0.784874 -0.619655 0
    outer loop
      vertex -0.661807 -0.671686 0
      vertex -0.661807 -0.671686 5
      vertex -0.809976 -0.48401 0
    endloop
  endfacet
  facet normal -0.784874 -0.619655 0
    outer loop
      vertex -0.661807 -0.671686 5
      vertex -0.809976 -0.48401 5
      vertex -0.809976 -0.48401 0
    endloop
  endfacet
  facet normal -0.529999 -0.847998 0
    outer loop
      vertex -0.809976 -0.48401 0
      vertex -0.809976 -0.48401 5
      vertex -1.12606 -0.286455 0
    endloop
  endfacet
  facet normal -0.529999 -0.847998 0
    outer loop
      vertex -0.809976 -0.48401 5
      vertex -1.12606 -0.286455 5
      vertex -1.12606 -0.286455 0
    endloop
  endfacet
  facet normal -0.101516 -0.994834 0
    outer loop
      vertex -1.12606 -0.286455 0
      vertex -1.12606 -0.286455 5
      vertex -1.61007 -0.237066 0
    endloop
  endfacet
  facet normal -0.101516 -0.994834 0
    outer loop
      vertex -1.12606 -0.286455 5
      vertex -1.61007 -0.237066 5
      vertex -1.61007 -0.237066 0
    endloop
  endfacet
  facet normal 0.999986 -0.00531963 0
    outer loop
      vertex -1.61007 -0.237066 0
      vertex -1.61007 -0.237066 5
      vertex -1.61995 -2.09409 0
    endloop
  endfacet
  facet normal 0.999986 -0.00531963 0
    outer loop
      vertex -1.61007 -0.237066 5
      vertex -1.61995 -2.09409 5
      vertex -1.61995 -2.09409 0
    endloop
  endfacet
  facet normal 0.772869 -0.634566 0
    outer loop
      vertex -1.61995 -2.09409 0
      vertex -1.61995 -2.09409 5
      vertex -2.39042 -3.03248 0
    endloop
  endfacet
  facet normal 0.772869 -0.634566 0
    outer loop
      vertex -1.61995 -2.09409 5
      vertex -2.39042 -3.03248 5
      vertex -2.39042 -3.03248 0
    endloop
  endfacet
  facet normal -0.997334 -0.0729768 0
    outer loop
      vertex -2.39042 -3.03248 0
      vertex -2.39042 -3.03248 5
      vertex -2.62749 0.207429 0
    endloop
  endfacet
  facet normal -0.997334 -0.0729768 0
    outer loop
      vertex -2.39042 -3.03248 5
      vertex -2.62749 0.207429 5
      vertex -2.62749 0.207429 0
    endloop
  endfacet
  facet normal -0.996148 0.0876891 0
    outer loop
      vertex -2.62749 0.207429 0
      vertex -2.62749 0.207429 5
      vertex -2.38054 3.01272 0
    endloop
  endfacet
  facet normal -0.996148 0.0876891 0
    outer loop
      vertex -2.62749 0.207429 5
      vertex -2.38054 3.01272 5
      vertex -2.38054 3.01272 0
    endloop
  endfacet
  facet normal 0.584305 0.811534 -0
    outer loop
      vertex -2.38054 3.01272 0
      vertex -2.38054 3.01272 5
      vertex -1.63971 2.47932 0
    endloop
  endfacet
  facet normal 0.584305 0.811534 0
    outer loop
      vertex -2.38054 3.01272 5
      vertex -1.63971 2.47932 5
      vertex -1.63971 2.47932 0
    endloop
  endfacet
  facet normal 0.999964 0.00851123 -0
    outer loop
      vertex -1.63971 2.47932 0
      vertex -1.63971 2.47932 5
      vertex -1.61995 0.158044 0
    endloop
  endfacet
  facet normal 0.999964 0.00851123 0
    outer loop
      vertex -1.63971 2.47932 5
      vertex -1.61995 0.158044 5
      vertex -1.61995 0.158044 0
    endloop
  endfacet
  facet normal -0.0611077 0.998131 0
    outer loop
      vertex -1.61995 0.158044 0
      vertex -1.61995 0.158044 5
      vertex -1.13594 0.187676 0
    endloop
  endfacet
  facet normal -0.0611077 0.998131 0
    outer loop
      vertex -1.61995 0.158044 5
      vertex -1.13594 0.187676 5
      vertex -1.13594 0.187676 0
    endloop
  endfacet
  facet normal -0.588168 0.808739 0
    outer loop
      vertex -1.13594 0.187676 0
      vertex -1.13594 0.187676 5
      vertex -0.91863 0.34572 0
    endloop
  endfacet
  facet normal -0.588168 0.808739 0
    outer loop
      vertex -1.13594 0.187676 5
      vertex -0.91863 0.34572 5
      vertex -0.91863 0.34572 0
    endloop
  endfacet
  facet normal -1 0 0
    outer loop
      vertex -0.91863 0.34572 0
      vertex -0.91863 0.34572 5
      vertex -0.91863 0.948263 0
    endloop
  endfacet
  facet normal -1 0 0
    outer loop
      vertex -0.91863 0.34572 5
      vertex -0.91863 0.948263 5
      vertex -0.91863 0.948263 0
    endloop
  endfacet
  facet normal 0 1 0
    outer loop
      vertex -0.91863 0.948263 0
      vertex -0.91863 0.948263 5
      vertex -0.809976 0.948263 0
    endloop
  endfacet
  facet normal -0 1 0
    outer loop
      vertex -0.91863 0.948263 5
      vertex -0.809976 0.948263 5
      vertex -0.809976 0.948263 0
    endloop
  endfacet
  facet normal 1 0 -0
    outer loop
      vertex -0.809976 0.948263 0
      vertex -0.809976 0.948263 5
      vertex -0.809976 0.404988 0
    endloop
  endfacet
  facet normal 1 0 0
    outer loop
      vertex -0.809976 0.948263 5
      vertex -0.809976 0.404988 5
      vertex -0.809976 0.404988 0
    endloop
  endfacet
  facet normal -0.78936 0.61393 0
    outer loop
      vertex -0.809976 0.404988 0
      vertex -0.809976 0.404988 5
      vertex -0.740833 0.493889 0
    endloop
  endfacet
  facet normal -0.78936 0.61393 0
    outer loop
      vertex -0.809976 0.404988 5
      vertex -0.740833 0.493889 5
      vertex -0.740833 0.493889 0
    endloop
  endfacet
  facet normal -0.739929 0.672684 0
    outer loop
      vertex -0.740833 0.493889 0
      vertex -0.740833 0.493889 5
      vertex -0.642054 0.602543 0
    endloop
  endfacet
  facet normal -0.739929 0.672684 0
    outer loop
      vertex -0.740833 0.493889 5
      vertex -0.642054 0.602543 5
      vertex -0.642054 0.602543 0
    endloop
  endfacet
  facet normal -0.518505 0.855075 0
    outer loop
      vertex -0.642054 0.602543 0
      vertex -0.642054 0.602543 5
      vertex -0.409928 0.743301 0
    endloop
  endfacet
  facet normal -0.518505 0.855075 0
    outer loop
      vertex -0.642054 0.602543 5
      vertex -0.409928 0.743301 5
      vertex -0.409928 0.743301 0
    endloop
  endfacet
  facet normal -0.164392 0.986395 0
    outer loop
      vertex -0.409928 0.743301 0
      vertex -0.409928 0.743301 5
      vertex -0.128407 0.790219 0
    endloop
  endfacet
  facet normal -0.164392 0.986395 0
    outer loop
      vertex -0.409928 0.743301 5
      vertex -0.128407 0.790219 5
      vertex -0.128407 0.790219 0
    endloop
  endfacet
  facet normal 0 1 0
    outer loop
      vertex -0.128407 0.790219 0
      vertex -0.128407 0.790219 5
      vertex -0.0987752 0.790219 0
    endloop
  endfacet
  facet normal -0 1 0
    outer loop
      vertex -0.128407 0.790219 5
      vertex -0.0987752 0.790219 5
      vertex -0.0987752 0.790219 0
    endloop
  endfacet
  facet normal 0.185536 0.982637 -0
    outer loop
      vertex -0.0987752 0.790219 0
      vertex -0.0987752 0.790219 5
      vertex 0.254351 0.723543 0
    endloop
  endfacet
  facet normal 0.185536 0.982637 0
    outer loop
      vertex -0.0987752 0.790219 5
      vertex 0.254351 0.723543 5
      vertex 0.254351 0.723543 0
    endloop
  endfacet
  facet normal 0.541175 0.84091 -0
    outer loop
      vertex 0.254351 0.723543 0
      vertex 0.254351 0.723543 5
      vertex 0.503763 0.563032 0
    endloop
  endfacet
  facet normal 0.541175 0.84091 0
    outer loop
      vertex 0.254351 0.723543 5
      vertex 0.503763 0.563032 5
      vertex 0.503763 0.563032 0
    endloop
  endfacet
  facet normal 0.72414 0.689653 -0
    outer loop
      vertex 0.503763 0.563032 0
      vertex 0.503763 0.563032 5
      vertex 0.701318 0.355598 0
    endloop
  endfacet
  facet normal 0.72414 0.689653 0
    outer loop
      vertex 0.503763 0.563032 5
      vertex 0.701318 0.355598 5
      vertex 0.701318 0.355598 0
    endloop
  endfacet
  facet normal 0.707107 0.707107 -0
    outer loop
      vertex 0.701318 0.355598 0
      vertex 0.701318 0.355598 5
      vertex 0.711197 0.34572 0
    endloop
  endfacet
  facet normal 0.707107 0.707107 0
    outer loop
      vertex 0.701318 0.355598 5
      vertex 0.711197 0.34572 5
      vertex 0.711197 0.34572 0
    endloop
  endfacet
  facet normal 0.438423 0.898769 -0
    outer loop
      vertex 0.711197 0.34572 0
      vertex 0.711197 0.34572 5
      vertex 1.11619 0.148165 0
    endloop
  endfacet
  facet normal 0.438423 0.898769 0
    outer loop
      vertex 0.711197 0.34572 5
      vertex 1.11619 0.148165 5
      vertex 1.11619 0.148165 0
    endloop
  endfacet
  facet normal 0.0249946 0.999688 -0
    outer loop
      vertex 1.11619 0.148165 0
      vertex 1.11619 0.148165 5
      vertex 1.5113 0.138286 0
    endloop
  endfacet
  facet normal 0.0249946 0.999688 0
    outer loop
      vertex 1.11619 0.148165 5
      vertex 1.5113 0.138286 5
      vertex 1.5113 0.138286 0
    endloop
  endfacet
  facet normal -0.999991 -0.00420208 0
    outer loop
      vertex 1.5113 0.138286 0
      vertex 1.5113 0.138286 5
      vertex 1.50142 2.4892 0
    endloop
  endfacet
  facet normal -0.999991 -0.00420208 0
    outer loop
      vertex 1.5113 0.138286 5
      vertex 1.50142 2.4892 5
      vertex 1.50142 2.4892 0
    endloop
  endfacet
  facet normal -0.590016 0.807391 0
    outer loop
      vertex 1.50142 2.4892 0
      vertex 1.50142 2.4892 5
      vertex 2.27189 3.05223 0
    endloop
  endfacet
  facet normal -0.590016 0.807391 0
    outer loop
      vertex 1.50142 2.4892 5
      vertex 2.27189 3.05223 5
      vertex 2.27189 3.05223 0
    endloop
  endfacet
  facet normal 0.994102 0.108449 -0
    outer loop
      vertex 2.27189 3.05223 0
      vertex 2.27189 3.05223 5
      vertex 2.62749 -0.207429 0
    endloop
  endfacet
  facet normal 0.994102 0.108449 0
    outer loop
      vertex 2.27189 3.05223 5
      vertex 2.62749 -0.207429 5
      vertex 2.62749 -0.207429 0
    endloop
  endfacet
endsolid OpenSCAD_Model
